<?xml version="1.0" encoding="utf-8" standalone="no"?>
<!DOCTYPE svg PUBLIC "-//W3C//DTD SVG 1.1//EN"
  "http://www.w3.org/Graphics/SVG/1.1/DTD/svg11.dtd">
<svg xmlns:xlink="http://www.w3.org/1999/xlink" width="460.8pt" height="345.6pt" viewBox="0 0 460.8 345.6" xmlns="http://www.w3.org/2000/svg" version="1.1">
 <metadata>
  <rdf:RDF xmlns:dc="http://purl.org/dc/elements/1.1/" xmlns:cc="http://creativecommons.org/ns#" xmlns:rdf="http://www.w3.org/1999/02/22-rdf-syntax-ns#">
   <cc:Work>
    <dc:type rdf:resource="http://purl.org/dc/dcmitype/StillImage"/>
    <dc:date>2024-12-27T17:25:56.583637</dc:date>
    <dc:format>image/svg+xml</dc:format>
    <dc:creator>
     <cc:Agent>
      <dc:title>Matplotlib v3.9.2, https://matplotlib.org/</dc:title>
     </cc:Agent>
    </dc:creator>
   </cc:Work>
  </rdf:RDF>
 </metadata>
 <defs>
  <style type="text/css">*{stroke-linejoin: round; stroke-linecap: butt}</style>
 </defs>
 <g id="figure_1">
  <g id="patch_1">
   <path d="M 0 345.6 
L 460.8 345.6 
L 460.8 0 
L 0 0 
z
" style="fill: #ffffff"/>
  </g>
  <g id="axes_1">
   <g id="patch_2">
    <path d="M 57.6 307.584 
L 414.72 307.584 
L 414.72 41.472 
L 57.6 41.472 
z
" style="fill: #ffffff"/>
   </g>
   <g id="matplotlib.axis_1">
    <g id="xtick_1">
     <g id="line2d_1">
      <defs>
       <path id="mfe3a4614c2" d="M 0 0 
L 0 3.5 
" style="stroke: #000000; stroke-width: 0.8"/>
      </defs>
      <g>
       <use xlink:href="#mfe3a4614c2" x="73.832727" y="307.584" style="stroke: #000000; stroke-width: 0.8"/>
      </g>
     </g>
     <g id="text_1">
      <!-- 0 -->
      <g transform="translate(70.651477 322.182437) scale(0.1 -0.1)">
       <defs>
        <path id="DejaVuSans-30" d="M 2034 4250 
Q 1547 4250 1301 3770 
Q 1056 3291 1056 2328 
Q 1056 1369 1301 889 
Q 1547 409 2034 409 
Q 2525 409 2770 889 
Q 3016 1369 3016 2328 
Q 3016 3291 2770 3770 
Q 2525 4250 2034 4250 
z
M 2034 4750 
Q 2819 4750 3233 4129 
Q 3647 3509 3647 2328 
Q 3647 1150 3233 529 
Q 2819 -91 2034 -91 
Q 1250 -91 836 529 
Q 422 1150 422 2328 
Q 422 3509 836 4129 
Q 1250 4750 2034 4750 
z
" transform="scale(0.015625)"/>
       </defs>
       <use xlink:href="#DejaVuSans-30"/>
      </g>
     </g>
    </g>
    <g id="xtick_2">
     <g id="line2d_2">
      <g>
       <use xlink:href="#mfe3a4614c2" x="138.828632" y="307.584" style="stroke: #000000; stroke-width: 0.8"/>
      </g>
     </g>
     <g id="text_2">
      <!-- 200 -->
      <g transform="translate(129.284882 322.182437) scale(0.1 -0.1)">
       <defs>
        <path id="DejaVuSans-32" d="M 1228 531 
L 3431 531 
L 3431 0 
L 469 0 
L 469 531 
Q 828 903 1448 1529 
Q 2069 2156 2228 2338 
Q 2531 2678 2651 2914 
Q 2772 3150 2772 3378 
Q 2772 3750 2511 3984 
Q 2250 4219 1831 4219 
Q 1534 4219 1204 4116 
Q 875 4013 500 3803 
L 500 4441 
Q 881 4594 1212 4672 
Q 1544 4750 1819 4750 
Q 2544 4750 2975 4387 
Q 3406 4025 3406 3419 
Q 3406 3131 3298 2873 
Q 3191 2616 2906 2266 
Q 2828 2175 2409 1742 
Q 1991 1309 1228 531 
z
" transform="scale(0.015625)"/>
       </defs>
       <use xlink:href="#DejaVuSans-32"/>
       <use xlink:href="#DejaVuSans-30" x="63.623047"/>
       <use xlink:href="#DejaVuSans-30" x="127.246094"/>
      </g>
     </g>
    </g>
    <g id="xtick_3">
     <g id="line2d_3">
      <g>
       <use xlink:href="#mfe3a4614c2" x="203.824537" y="307.584" style="stroke: #000000; stroke-width: 0.8"/>
      </g>
     </g>
     <g id="text_3">
      <!-- 400 -->
      <g transform="translate(194.280787 322.182437) scale(0.1 -0.1)">
       <defs>
        <path id="DejaVuSans-34" d="M 2419 4116 
L 825 1625 
L 2419 1625 
L 2419 4116 
z
M 2253 4666 
L 3047 4666 
L 3047 1625 
L 3713 1625 
L 3713 1100 
L 3047 1100 
L 3047 0 
L 2419 0 
L 2419 1100 
L 313 1100 
L 313 1709 
L 2253 4666 
z
" transform="scale(0.015625)"/>
       </defs>
       <use xlink:href="#DejaVuSans-34"/>
       <use xlink:href="#DejaVuSans-30" x="63.623047"/>
       <use xlink:href="#DejaVuSans-30" x="127.246094"/>
      </g>
     </g>
    </g>
    <g id="xtick_4">
     <g id="line2d_4">
      <g>
       <use xlink:href="#mfe3a4614c2" x="268.820442" y="307.584" style="stroke: #000000; stroke-width: 0.8"/>
      </g>
     </g>
     <g id="text_4">
      <!-- 600 -->
      <g transform="translate(259.276692 322.182437) scale(0.1 -0.1)">
       <defs>
        <path id="DejaVuSans-36" d="M 2113 2584 
Q 1688 2584 1439 2293 
Q 1191 2003 1191 1497 
Q 1191 994 1439 701 
Q 1688 409 2113 409 
Q 2538 409 2786 701 
Q 3034 994 3034 1497 
Q 3034 2003 2786 2293 
Q 2538 2584 2113 2584 
z
M 3366 4563 
L 3366 3988 
Q 3128 4100 2886 4159 
Q 2644 4219 2406 4219 
Q 1781 4219 1451 3797 
Q 1122 3375 1075 2522 
Q 1259 2794 1537 2939 
Q 1816 3084 2150 3084 
Q 2853 3084 3261 2657 
Q 3669 2231 3669 1497 
Q 3669 778 3244 343 
Q 2819 -91 2113 -91 
Q 1303 -91 875 529 
Q 447 1150 447 2328 
Q 447 3434 972 4092 
Q 1497 4750 2381 4750 
Q 2619 4750 2861 4703 
Q 3103 4656 3366 4563 
z
" transform="scale(0.015625)"/>
       </defs>
       <use xlink:href="#DejaVuSans-36"/>
       <use xlink:href="#DejaVuSans-30" x="63.623047"/>
       <use xlink:href="#DejaVuSans-30" x="127.246094"/>
      </g>
     </g>
    </g>
    <g id="xtick_5">
     <g id="line2d_5">
      <g>
       <use xlink:href="#mfe3a4614c2" x="333.816347" y="307.584" style="stroke: #000000; stroke-width: 0.8"/>
      </g>
     </g>
     <g id="text_5">
      <!-- 800 -->
      <g transform="translate(324.272597 322.182437) scale(0.1 -0.1)">
       <defs>
        <path id="DejaVuSans-38" d="M 2034 2216 
Q 1584 2216 1326 1975 
Q 1069 1734 1069 1313 
Q 1069 891 1326 650 
Q 1584 409 2034 409 
Q 2484 409 2743 651 
Q 3003 894 3003 1313 
Q 3003 1734 2745 1975 
Q 2488 2216 2034 2216 
z
M 1403 2484 
Q 997 2584 770 2862 
Q 544 3141 544 3541 
Q 544 4100 942 4425 
Q 1341 4750 2034 4750 
Q 2731 4750 3128 4425 
Q 3525 4100 3525 3541 
Q 3525 3141 3298 2862 
Q 3072 2584 2669 2484 
Q 3125 2378 3379 2068 
Q 3634 1759 3634 1313 
Q 3634 634 3220 271 
Q 2806 -91 2034 -91 
Q 1263 -91 848 271 
Q 434 634 434 1313 
Q 434 1759 690 2068 
Q 947 2378 1403 2484 
z
M 1172 3481 
Q 1172 3119 1398 2916 
Q 1625 2713 2034 2713 
Q 2441 2713 2670 2916 
Q 2900 3119 2900 3481 
Q 2900 3844 2670 4047 
Q 2441 4250 2034 4250 
Q 1625 4250 1398 4047 
Q 1172 3844 1172 3481 
z
" transform="scale(0.015625)"/>
       </defs>
       <use xlink:href="#DejaVuSans-38"/>
       <use xlink:href="#DejaVuSans-30" x="63.623047"/>
       <use xlink:href="#DejaVuSans-30" x="127.246094"/>
      </g>
     </g>
    </g>
    <g id="xtick_6">
     <g id="line2d_6">
      <g>
       <use xlink:href="#mfe3a4614c2" x="398.812252" y="307.584" style="stroke: #000000; stroke-width: 0.8"/>
      </g>
     </g>
     <g id="text_6">
      <!-- 1000 -->
      <g transform="translate(386.087252 322.182437) scale(0.1 -0.1)">
       <defs>
        <path id="DejaVuSans-31" d="M 794 531 
L 1825 531 
L 1825 4091 
L 703 3866 
L 703 4441 
L 1819 4666 
L 2450 4666 
L 2450 531 
L 3481 531 
L 3481 0 
L 794 0 
L 794 531 
z
" transform="scale(0.015625)"/>
       </defs>
       <use xlink:href="#DejaVuSans-31"/>
       <use xlink:href="#DejaVuSans-30" x="63.623047"/>
       <use xlink:href="#DejaVuSans-30" x="127.246094"/>
       <use xlink:href="#DejaVuSans-30" x="190.869141"/>
      </g>
     </g>
    </g>
   </g>
   <g id="matplotlib.axis_2">
    <g id="ytick_1">
     <g id="line2d_7">
      <defs>
       <path id="mc2b83e80a1" d="M 0 0 
L -3.5 0 
" style="stroke: #000000; stroke-width: 0.8"/>
      </defs>
      <g>
       <use xlink:href="#mc2b83e80a1" x="57.6" y="288.996166" style="stroke: #000000; stroke-width: 0.8"/>
      </g>
     </g>
     <g id="text_7">
      <!-- 0 -->
      <g transform="translate(44.2375 292.795385) scale(0.1 -0.1)">
       <use xlink:href="#DejaVuSans-30"/>
      </g>
     </g>
    </g>
    <g id="ytick_2">
     <g id="line2d_8">
      <g>
       <use xlink:href="#mc2b83e80a1" x="57.6" y="231.113095" style="stroke: #000000; stroke-width: 0.8"/>
      </g>
     </g>
     <g id="text_8">
      <!-- 1 -->
      <g transform="translate(44.2375 234.912313) scale(0.1 -0.1)">
       <use xlink:href="#DejaVuSans-31"/>
      </g>
     </g>
    </g>
    <g id="ytick_3">
     <g id="line2d_9">
      <g>
       <use xlink:href="#mc2b83e80a1" x="57.6" y="173.230023" style="stroke: #000000; stroke-width: 0.8"/>
      </g>
     </g>
     <g id="text_9">
      <!-- 2 -->
      <g transform="translate(44.2375 177.029241) scale(0.1 -0.1)">
       <use xlink:href="#DejaVuSans-32"/>
      </g>
     </g>
    </g>
    <g id="ytick_4">
     <g id="line2d_10">
      <g>
       <use xlink:href="#mc2b83e80a1" x="57.6" y="115.346951" style="stroke: #000000; stroke-width: 0.8"/>
      </g>
     </g>
     <g id="text_10">
      <!-- 3 -->
      <g transform="translate(44.2375 119.14617) scale(0.1 -0.1)">
       <defs>
        <path id="DejaVuSans-33" d="M 2597 2516 
Q 3050 2419 3304 2112 
Q 3559 1806 3559 1356 
Q 3559 666 3084 287 
Q 2609 -91 1734 -91 
Q 1441 -91 1130 -33 
Q 819 25 488 141 
L 488 750 
Q 750 597 1062 519 
Q 1375 441 1716 441 
Q 2309 441 2620 675 
Q 2931 909 2931 1356 
Q 2931 1769 2642 2001 
Q 2353 2234 1838 2234 
L 1294 2234 
L 1294 2753 
L 1863 2753 
Q 2328 2753 2575 2939 
Q 2822 3125 2822 3475 
Q 2822 3834 2567 4026 
Q 2313 4219 1838 4219 
Q 1578 4219 1281 4162 
Q 984 4106 628 3988 
L 628 4550 
Q 988 4650 1302 4700 
Q 1616 4750 1894 4750 
Q 2613 4750 3031 4423 
Q 3450 4097 3450 3541 
Q 3450 3153 3228 2886 
Q 3006 2619 2597 2516 
z
" transform="scale(0.015625)"/>
       </defs>
       <use xlink:href="#DejaVuSans-33"/>
      </g>
     </g>
    </g>
    <g id="ytick_5">
     <g id="line2d_11">
      <g>
       <use xlink:href="#mc2b83e80a1" x="57.6" y="57.463879" style="stroke: #000000; stroke-width: 0.8"/>
      </g>
     </g>
     <g id="text_11">
      <!-- 4 -->
      <g transform="translate(44.2375 61.263098) scale(0.1 -0.1)">
       <use xlink:href="#DejaVuSans-34"/>
      </g>
     </g>
    </g>
   </g>
   <g id="line2d_12">
    <path d="M 73.832727 228.450865 
L 74.157707 228.757412 
L 74.482686 229.579848 
L 74.807666 226.863094 
L 75.132645 223.083887 
L 75.457625 222.718379 
L 75.782604 225.586638 
L 76.107584 226.447358 
L 76.757543 219.718357 
L 77.082523 220.459975 
L 77.407502 220.543397 
L 77.732482 217.888117 
L 78.057461 219.791169 
L 78.382441 219.059303 
L 78.70742 220.612328 
L 79.0324 217.913289 
L 79.357379 218.077628 
L 79.682359 216.148397 
L 80.007338 218.458879 
L 80.332318 213.307343 
L 80.657297 217.553534 
L 80.982277 217.486214 
L 81.307256 211.501512 
L 81.632236 213.146891 
L 81.957215 212.178613 
L 82.282195 213.944067 
L 82.932154 209.160111 
L 83.257133 211.980593 
L 83.907093 208.890918 
L 84.232072 212.571339 
L 84.557052 208.886036 
L 84.882031 210.446138 
L 85.207011 210.987009 
L 85.53199 207.780428 
L 85.85697 207.810452 
L 86.181949 209.373713 
L 86.506929 206.712331 
L 86.831908 206.622872 
L 87.156888 206.800364 
L 87.481867 210.252349 
L 87.806847 210.180023 
L 88.131826 208.793623 
L 88.456806 208.933451 
L 88.781785 208.895333 
L 89.106765 208.616596 
L 89.431744 208.908869 
L 89.756724 208.450405 
L 90.081704 209.325904 
L 90.406683 206.40784 
L 90.731663 206.94585 
L 91.056642 203.726454 
L 91.381622 204.649546 
L 91.706601 204.121792 
L 92.031581 206.110877 
L 92.35656 209.162931 
L 92.68154 204.664453 
L 93.006519 207.209801 
L 93.656478 209.820124 
L 93.981458 207.129329 
L 94.306437 209.983102 
L 94.631417 206.578394 
L 94.956396 210.275214 
L 95.281376 205.406402 
L 95.606355 209.036259 
L 95.931335 207.3265 
L 96.581294 211.457073 
L 96.906274 208.344421 
L 97.231253 211.409249 
L 97.556233 211.947572 
L 97.881212 207.266612 
L 98.206192 208.285455 
L 98.856151 211.085096 
L 99.18113 211.916348 
L 99.50611 208.723286 
L 99.831089 209.561987 
L 100.156069 211.691223 
L 100.481048 212.605567 
L 100.806028 214.470397 
L 101.131007 211.345806 
L 101.455987 212.708939 
L 101.780966 214.937365 
L 102.105946 214.427856 
L 102.430925 214.853912 
L 103.080885 216.641264 
L 103.405864 214.244194 
L 103.730844 215.939062 
L 104.055823 218.286167 
L 104.380803 217.425219 
L 104.705782 213.912088 
L 105.030762 216.696391 
L 105.355741 216.209666 
L 105.680721 214.404098 
L 106.0057 216.95744 
L 106.33068 216.607927 
L 106.655659 219.076339 
L 106.980639 216.560697 
L 107.305618 218.874794 
L 107.630598 217.842165 
L 107.955577 218.969544 
L 108.280557 221.664721 
L 108.605536 221.01663 
L 108.930516 218.371469 
L 109.255495 221.199879 
L 109.580475 217.039552 
L 109.905455 219.580607 
L 110.230434 220.896359 
L 110.555414 219.800303 
L 110.880393 222.796129 
L 111.205373 222.905154 
L 111.530352 218.631766 
L 112.180311 221.893314 
L 112.505291 218.10506 
L 112.83027 219.077931 
L 113.15525 221.141532 
L 113.805209 221.861332 
L 114.130188 222.792905 
L 114.780147 222.514689 
L 115.105127 222.162543 
L 115.430106 218.081651 
L 115.755086 218.056472 
L 116.405045 222.262546 
L 116.730025 217.427372 
L 117.055004 220.196373 
L 117.379984 216.513302 
L 117.704963 221.483293 
L 118.029943 219.874565 
L 118.354922 218.931292 
L 118.679902 219.225729 
L 119.004881 219.947513 
L 119.329861 217.146526 
L 119.65484 218.337466 
L 119.97982 215.744408 
L 120.304799 218.869059 
L 120.629779 219.059124 
L 120.954758 215.24812 
L 121.279738 218.123982 
L 121.604717 217.769126 
L 121.929697 216.161739 
L 122.254676 215.276888 
L 122.579656 213.18802 
L 122.904636 215.267148 
L 123.229615 210.891525 
L 123.554595 211.780698 
L 123.879574 214.665123 
L 124.204554 211.527497 
L 124.529533 213.098972 
L 124.854513 210.931273 
L 125.179492 211.359884 
L 125.504472 208.693936 
L 125.829451 211.651677 
L 126.154431 210.496961 
L 126.47941 210.520149 
L 126.80439 210.862445 
L 127.129369 209.705482 
L 127.454349 206.628134 
L 127.779328 204.703354 
L 128.104308 204.924783 
L 128.429287 204.629406 
L 128.754267 208.128095 
L 129.079247 206.986054 
L 129.404226 204.806457 
L 129.729206 206.16111 
L 130.054185 202.307761 
L 130.379165 204.391663 
L 130.704144 203.553989 
L 131.029124 201.778919 
L 131.679083 203.845234 
L 132.004062 201.024127 
L 132.654021 198.033152 
L 132.979001 201.619902 
L 133.30398 197.263648 
L 133.62896 200.470054 
L 133.953939 200.225938 
L 134.278919 200.643862 
L 134.603898 200.312659 
L 134.928878 197.63079 
L 135.253857 196.845375 
L 135.578837 195.699374 
L 135.903817 196.535875 
L 136.228796 194.831587 
L 136.553776 196.386347 
L 136.878755 193.635585 
L 137.203735 196.615176 
L 137.528714 196.462272 
L 137.853694 195.573324 
L 138.503653 194.518374 
L 138.828632 196.217646 
L 139.478591 193.000755 
L 139.803571 193.397161 
L 140.12855 194.600578 
L 140.45353 196.951593 
L 140.778509 193.128102 
L 141.103489 196.730162 
L 141.428468 192.034216 
L 141.753448 196.599958 
L 142.078428 193.638759 
L 142.403407 192.421559 
L 142.728387 194.603369 
L 143.053366 195.05811 
L 143.378346 194.139188 
L 143.703325 194.03093 
L 144.028305 191.178138 
L 144.353284 194.241979 
L 144.678264 193.729149 
L 145.003243 197.065886 
L 145.328223 195.30478 
L 145.653202 196.18965 
L 145.978182 193.278743 
L 146.303161 194.178871 
L 146.628141 192.11467 
L 146.95312 194.265368 
L 147.2781 192.702063 
L 147.603079 194.189121 
L 147.928059 194.808091 
L 148.253038 194.838418 
L 148.578018 193.809523 
L 148.902998 196.014232 
L 149.227977 197.314142 
L 149.552957 194.682828 
L 149.877936 196.916378 
L 150.202916 197.750605 
L 150.527895 197.985004 
L 150.852875 196.286007 
L 151.177854 200.385865 
L 151.502834 196.615338 
L 151.827813 196.472304 
L 152.152793 200.651685 
L 152.477772 197.964934 
L 152.802752 198.702736 
L 153.127731 201.384394 
L 153.452711 200.319641 
L 153.77769 200.222495 
L 154.10267 199.752542 
L 154.427649 202.61204 
L 154.752629 200.437748 
L 155.077609 203.679393 
L 155.402588 203.013522 
L 155.727568 200.647411 
L 156.052547 205.022025 
L 156.377527 202.683426 
L 156.702506 203.373317 
L 157.027486 202.296332 
L 157.677445 205.309954 
L 158.002424 205.010208 
L 158.327404 203.466957 
L 159.302342 206.481572 
L 159.627322 203.030714 
L 159.952301 205.384225 
L 160.277281 206.700338 
L 160.60226 204.459407 
L 160.92724 203.068021 
L 161.252219 207.068159 
L 161.577199 205.353491 
L 161.902179 208.287164 
L 162.227158 204.579521 
L 162.552138 206.031489 
L 162.877117 206.589777 
L 163.202097 208.543521 
L 163.527076 204.543446 
L 163.852056 205.018703 
L 164.177035 209.22648 
L 164.502015 209.033449 
L 164.826994 204.813335 
L 165.151974 207.265805 
L 165.476953 207.122535 
L 165.801933 204.01108 
L 166.126912 207.496272 
L 166.451892 203.997403 
L 166.776871 206.89404 
L 167.101851 203.303769 
L 167.42683 203.631599 
L 167.75181 207.779487 
L 168.07679 206.918139 
L 168.401769 207.407677 
L 168.726749 207.430461 
L 169.051728 202.947802 
L 169.376708 206.323967 
L 169.701687 201.782327 
L 170.676626 204.820363 
L 171.001605 201.27484 
L 171.326585 204.326283 
L 171.651564 200.955959 
L 171.976544 199.26384 
L 172.301523 203.417872 
L 172.626503 202.848417 
L 172.951482 203.037769 
L 173.276462 199.194893 
L 173.601441 202.105199 
L 173.926421 196.812791 
L 174.2514 200.225755 
L 174.90136 195.18845 
L 175.226339 199.237556 
L 175.551319 195.263164 
L 175.876298 197.366227 
L 176.201278 192.279565 
L 176.526257 193.617945 
L 177.176216 191.082504 
L 177.501196 192.834219 
L 177.826175 192.078835 
L 178.151155 194.292986 
L 178.476134 190.507497 
L 178.801114 190.117217 
L 179.126093 187.193287 
L 179.451073 186.808565 
L 179.776052 189.541935 
L 180.101032 188.929775 
L 180.426011 187.315264 
L 180.750991 183.561124 
L 181.075971 188.018892 
L 181.40095 187.025959 
L 182.050909 180.589877 
L 182.375889 182.350385 
L 183.025848 180.0252 
L 183.350827 180.225779 
L 183.675807 181.273857 
L 184.000786 180.016215 
L 184.325766 180.666107 
L 184.650745 179.203717 
L 184.975725 177.107444 
L 185.300704 177.953299 
L 185.625684 176.36358 
L 185.950663 172.917925 
L 186.275643 176.95728 
L 186.600622 172.361015 
L 186.925602 172.113893 
L 187.250581 172.278609 
L 187.900541 169.229797 
L 188.22552 172.673596 
L 188.5505 172.297499 
L 189.200459 167.197105 
L 189.525438 166.733581 
L 189.850418 165.577827 
L 190.175397 169.198638 
L 190.500377 164.491989 
L 190.825356 168.673499 
L 191.150336 165.256571 
L 191.475315 165.252223 
L 192.125274 163.615552 
L 192.450254 165.087345 
L 192.775233 161.947902 
L 193.100213 165.131242 
L 193.425192 163.677528 
L 194.075152 159.45853 
L 194.400131 163.324075 
L 194.725111 164.334657 
L 195.05009 163.711958 
L 195.37507 161.09111 
L 195.700049 162.000295 
L 196.025029 162.003986 
L 196.350008 162.321358 
L 196.674988 157.654482 
L 196.999967 159.195541 
L 197.324947 159.15498 
L 197.649926 162.171261 
L 198.299885 159.420242 
L 198.624865 159.821495 
L 198.949844 158.625454 
L 199.274824 161.168979 
L 199.599803 160.736055 
L 200.249762 161.070449 
L 200.574742 158.228914 
L 200.899722 158.37017 
L 201.224701 157.683578 
L 201.549681 160.254356 
L 201.87466 159.552574 
L 202.19964 162.500855 
L 202.524619 162.721004 
L 202.849599 158.040315 
L 203.174578 159.828873 
L 203.499558 162.632282 
L 203.824537 159.369938 
L 204.474496 157.872348 
L 204.799476 160.688284 
L 205.449435 163.164793 
L 205.774414 163.66638 
L 206.099394 162.736824 
L 206.424373 160.33101 
L 206.749353 164.998953 
L 207.399312 162.11229 
L 207.724292 160.910255 
L 208.049271 161.721393 
L 208.374251 163.497563 
L 208.69923 166.499688 
L 209.02421 161.828585 
L 209.349189 165.911167 
L 209.674169 165.742814 
L 209.999148 165.909387 
L 210.324128 164.082468 
L 210.974087 167.134515 
L 211.299066 167.258645 
L 211.624046 165.124452 
L 211.949025 165.075419 
L 212.598984 169.938829 
L 212.923964 165.715837 
L 213.248943 169.176023 
L 213.573923 164.961313 
L 213.898903 165.344437 
L 214.223882 166.656779 
L 214.548862 167.069662 
L 214.873841 167.039004 
L 215.198821 170.826298 
L 215.5238 166.50244 
L 215.84878 172.048213 
L 216.173759 171.919371 
L 216.498739 166.916026 
L 216.823718 172.167976 
L 217.148698 168.161316 
L 217.473677 167.917679 
L 217.798657 170.459324 
L 218.123636 170.14907 
L 218.448616 168.779629 
L 218.773595 172.771077 
L 219.098575 167.957596 
L 219.748534 172.22682 
L 220.073514 169.490781 
L 220.398493 172.769082 
L 220.723473 172.503122 
L 221.048452 169.103338 
L 221.373432 168.453731 
L 222.023391 170.01234 
L 222.34837 171.810497 
L 222.67335 170.793013 
L 222.998329 170.959233 
L 223.323309 170.317793 
L 223.648288 171.069375 
L 223.973268 167.564327 
L 224.298247 170.555607 
L 224.623227 169.981039 
L 224.948206 166.576757 
L 225.273186 171.576842 
L 225.598165 169.623883 
L 225.923145 171.089864 
L 226.248124 169.411068 
L 226.573104 170.662495 
L 226.898084 167.199333 
L 227.223063 168.076065 
L 227.548043 168.224042 
L 227.873022 166.442308 
L 228.522981 164.194355 
L 228.847961 167.284281 
L 229.17294 164.267256 
L 229.49792 167.615303 
L 229.822899 163.783059 
L 230.147879 164.807324 
L 230.472858 162.126053 
L 230.797838 165.680788 
L 231.122817 163.689049 
L 231.447797 163.931584 
L 231.772776 160.970645 
L 232.097756 163.118223 
L 232.422735 159.33136 
L 232.747715 159.767435 
L 233.072695 161.990626 
L 233.397674 160.676573 
L 233.722654 157.054 
L 234.047633 157.947798 
L 234.372613 157.081387 
L 234.697592 159.592561 
L 235.022572 155.545257 
L 235.347551 156.240667 
L 235.672531 154.748133 
L 235.99751 155.78765 
L 236.32249 155.53012 
L 236.647469 153.521954 
L 236.972449 156.359577 
L 237.297428 152.89876 
L 237.622408 151.360998 
L 237.947387 150.475476 
L 238.272367 153.273994 
L 238.597346 150.296048 
L 238.922326 151.38293 
L 239.572285 148.114304 
L 239.897265 151.835329 
L 240.222244 150.937804 
L 240.547224 147.964229 
L 240.872203 150.561892 
L 241.197183 148.377328 
L 241.522162 150.068076 
L 241.847142 150.194103 
L 242.497101 146.064349 
L 242.82208 145.681849 
L 243.14706 143.655903 
L 243.472039 148.369079 
L 243.797019 144.43213 
L 244.121998 147.081397 
L 244.446978 147.342296 
L 245.096937 142.116955 
L 245.421916 144.539576 
L 245.746896 145.100943 
L 246.396855 145.486973 
L 246.721835 140.143252 
L 247.046814 144.678312 
L 247.371794 140.363397 
L 247.696773 141.175132 
L 248.021753 139.569076 
L 248.346732 140.260303 
L 248.671712 139.979995 
L 248.996691 140.244774 
L 249.321671 139.495736 
L 249.64665 139.849431 
L 249.97163 141.722686 
L 250.296609 142.501429 
L 250.621589 139.362294 
L 250.946568 139.642183 
L 251.271548 142.023254 
L 251.596527 138.412052 
L 251.921507 143.050107 
L 252.246486 143.099618 
L 252.571466 138.207826 
L 252.896446 139.260437 
L 253.221425 141.500439 
L 253.546405 138.094435 
L 253.871384 139.255758 
L 254.196364 140.864311 
L 254.521343 141.065512 
L 254.846323 138.518408 
L 255.171302 143.257367 
L 255.821261 142.553783 
L 256.146241 141.300911 
L 256.47122 143.448695 
L 256.7962 139.648646 
L 257.121179 141.368405 
L 257.446159 140.975916 
L 258.096118 144.83139 
L 258.421097 140.636522 
L 258.746077 145.706979 
L 259.071057 145.671201 
L 259.396036 146.478626 
L 259.721016 141.268976 
L 260.045995 146.390871 
L 260.695954 142.599907 
L 261.020934 147.840314 
L 261.345913 145.387704 
L 261.670893 144.291339 
L 261.995872 147.278551 
L 262.320852 147.201693 
L 262.645831 146.818641 
L 262.970811 144.842113 
L 263.29579 148.021602 
L 263.62077 148.492641 
L 263.945749 147.023732 
L 264.595708 147.69928 
L 264.920688 149.306815 
L 265.245667 149.515929 
L 265.570647 146.203795 
L 265.895627 149.738806 
L 266.220606 150.694317 
L 266.545586 147.350616 
L 266.870565 147.568448 
L 267.195545 148.894242 
L 267.520524 149.684281 
L 267.845504 147.885235 
L 268.170483 150.393463 
L 268.495463 148.169601 
L 268.820442 147.587187 
L 269.145422 148.558476 
L 269.470401 151.025085 
L 269.795381 148.749324 
L 270.12036 148.641895 
L 270.44534 149.744908 
L 270.770319 152.328791 
L 271.095299 148.909129 
L 271.420278 150.996065 
L 271.745258 149.581431 
L 272.070238 153.637179 
L 272.395217 149.484667 
L 272.720197 150.955265 
L 273.045176 153.002128 
L 273.370156 151.263981 
L 273.695135 150.360261 
L 274.020115 150.820011 
L 274.345094 147.503695 
L 274.670074 151.618964 
L 275.320033 149.792556 
L 275.645012 146.909547 
L 275.969992 147.510417 
L 276.619951 150.96869 
L 276.94493 148.427697 
L 277.26991 147.438184 
L 277.594889 150.167952 
L 277.919869 146.04513 
L 278.244848 144.863588 
L 278.569828 148.887836 
L 278.894808 145.986682 
L 279.219787 144.708955 
L 279.544767 148.667528 
L 279.869746 145.755695 
L 280.519705 143.214287 
L 280.844685 146.113265 
L 281.169664 146.446572 
L 281.819623 143.236031 
L 282.144603 139.479716 
L 282.469582 142.578803 
L 282.794562 141.262429 
L 283.119541 137.969095 
L 283.444521 138.683223 
L 284.09448 140.881752 
L 284.419459 137.120466 
L 284.744439 137.760647 
L 285.069419 135.988502 
L 285.394398 138.313933 
L 285.719378 134.271222 
L 286.044357 131.96393 
L 286.369337 133.017169 
L 286.694316 134.695894 
L 287.019296 133.141867 
L 287.344275 129.670614 
L 287.669255 132.345194 
L 287.994234 132.972136 
L 288.319214 129.005639 
L 288.969173 129.168505 
L 289.294152 129.44533 
L 289.619132 129.030524 
L 289.944111 124.685159 
L 290.269091 124.366657 
L 290.59407 122.792944 
L 290.91905 123.067054 
L 291.244029 123.775772 
L 291.569009 122.798808 
L 291.893989 119.007766 
L 292.218968 119.002854 
L 292.543948 122.831251 
L 292.868927 120.175567 
L 293.193907 119.036867 
L 293.518886 120.868898 
L 294.168845 116.173133 
L 294.493825 117.720928 
L 294.818804 117.328869 
L 295.143784 113.773341 
L 295.468763 113.099768 
L 295.793743 114.854029 
L 296.118722 111.283747 
L 296.443702 114.652224 
L 296.768681 108.844434 
L 297.093661 108.644744 
L 297.41864 110.753274 
L 297.74362 111.427558 
L 298.0686 108.040088 
L 298.393579 111.186154 
L 298.718559 110.320127 
L 299.043538 109.888325 
L 299.368518 105.510415 
L 299.693497 103.72663 
L 300.018477 106.073038 
L 300.343456 106.033262 
L 300.668436 102.873733 
L 300.993415 104.635083 
L 301.318395 105.474082 
L 301.643374 101.644094 
L 301.968354 101.849399 
L 302.293333 103.400483 
L 302.618313 100.536219 
L 302.943292 102.007806 
L 303.268272 99.717689 
L 303.593251 102.14344 
L 303.918231 103.354695 
L 304.24321 98.32334 
L 304.56819 98.227992 
L 304.89317 97.82366 
L 305.218149 102.236436 
L 305.543129 99.218727 
L 305.868108 102.347364 
L 306.193088 98.854402 
L 306.518067 97.310763 
L 307.168026 101.119915 
L 307.493006 99.072122 
L 307.817985 101.077025 
L 308.142965 101.981429 
L 308.792924 96.450376 
L 309.117903 100.184549 
L 309.442883 99.030066 
L 309.767862 101.764808 
L 310.092842 101.324522 
L 310.417821 99.652605 
L 310.742801 101.02523 
L 311.067781 101.494903 
L 311.39276 98.657548 
L 311.71774 100.752639 
L 312.042719 101.154557 
L 312.367699 102.157183 
L 312.692678 102.591824 
L 313.017658 97.791746 
L 313.342637 97.936342 
L 313.992596 103.315286 
L 314.317576 101.241708 
L 314.642555 103.419865 
L 315.292514 98.891028 
L 315.617494 99.883609 
L 315.942473 103.971473 
L 316.267453 103.822697 
L 316.592432 103.995759 
L 316.917412 103.712287 
L 317.242391 104.951968 
L 317.567371 103.276683 
L 317.892351 105.122784 
L 318.21733 104.058959 
L 318.54231 106.510869 
L 318.867289 103.136335 
L 319.192269 104.578401 
L 319.517248 103.443927 
L 319.842228 106.244823 
L 320.492187 103.638175 
L 320.817166 103.028098 
L 321.142146 105.604688 
L 321.467125 103.495355 
L 322.117084 106.663124 
L 322.442064 106.545041 
L 322.767043 107.500213 
L 323.417002 104.551879 
L 323.741982 108.047701 
L 324.066962 108.700138 
L 324.391941 108.458736 
L 325.0419 105.040629 
L 325.36688 109.600633 
L 326.016839 105.728958 
L 326.341818 108.653542 
L 326.666798 109.250745 
L 326.991777 110.164581 
L 327.316757 110.12784 
L 327.641736 106.569124 
L 327.966716 107.569616 
L 328.291695 107.3886 
L 328.616675 108.683362 
L 328.941654 107.516334 
L 329.266634 110.960001 
L 329.591613 106.626565 
L 329.916593 109.070383 
L 330.241572 106.145057 
L 330.566552 110.454298 
L 330.891532 109.357687 
L 331.216511 106.535715 
L 331.541491 108.646984 
L 331.86647 106.132835 
L 332.19145 108.088834 
L 332.516429 109.320128 
L 332.841409 105.177411 
L 333.166388 108.965071 
L 333.491368 103.481599 
L 333.816347 104.240655 
L 334.141327 104.007995 
L 334.466306 102.993519 
L 334.791286 106.435788 
L 335.116265 106.212554 
L 335.766224 102.744776 
L 336.091204 104.130821 
L 336.416183 104.344127 
L 336.741163 103.100623 
L 337.066143 104.248867 
L 337.391122 99.743228 
L 337.716102 100.177438 
L 338.041081 102.69132 
L 338.366061 101.400234 
L 338.69104 100.587325 
L 339.01602 97.555195 
L 339.340999 99.523692 
L 339.665979 100.406806 
L 339.990958 100.899436 
L 340.315938 95.894025 
L 340.640917 94.759553 
L 340.965897 94.463392 
L 341.290876 99.139234 
L 341.940835 97.921666 
L 342.265815 94.084484 
L 342.590794 96.852226 
L 343.240753 95.710404 
L 343.565733 92.686074 
L 343.890713 94.818321 
L 344.215692 90.074457 
L 344.540672 90.845209 
L 344.865651 92.835151 
L 345.190631 88.698485 
L 345.51561 87.552055 
L 345.84059 90.700391 
L 346.165569 90.28359 
L 346.490549 85.321901 
L 346.815528 86.390611 
L 347.140508 88.712197 
L 347.465487 84.906699 
L 347.790467 86.41415 
L 348.115446 85.162542 
L 348.440426 86.639595 
L 348.765405 82.38018 
L 349.090385 81.745481 
L 349.415364 84.655397 
L 350.065324 82.923378 
L 350.390303 80.497377 
L 350.715283 81.383402 
L 351.040262 83.901964 
L 351.365242 80.406036 
L 351.690221 79.015506 
L 352.015201 79.72361 
L 352.34018 82.086481 
L 352.66516 78.071137 
L 352.990139 79.292643 
L 353.315119 79.341468 
L 353.640098 80.234288 
L 354.290057 77.298742 
L 354.615037 77.746944 
L 354.940016 76.610965 
L 355.264996 79.499877 
L 355.589975 74.462035 
L 355.914955 77.431339 
L 356.239934 76.204427 
L 356.564914 76.521421 
L 356.889894 78.161616 
L 357.214873 73.293775 
L 357.539853 77.57988 
L 357.864832 73.798419 
L 358.189812 76.297166 
L 358.514791 72.973801 
L 358.839771 75.702928 
L 359.16475 72.863004 
L 359.48973 72.585543 
L 359.814709 73.699213 
L 360.139689 74.167311 
L 360.464668 72.055498 
L 360.789648 76.882425 
L 361.114627 73.734649 
L 361.439607 72.839776 
L 361.764586 75.271906 
L 362.089566 73.118992 
L 362.414545 73.595398 
L 362.739525 76.644482 
L 363.064505 76.875172 
L 363.389484 74.544611 
L 363.714464 75.284448 
L 364.039443 74.081546 
L 364.364423 75.721234 
L 364.689402 76.127057 
L 365.014382 74.950294 
L 365.664341 77.328291 
L 365.98932 74.860894 
L 366.639279 75.48533 
L 366.964259 77.255491 
L 367.289238 75.159489 
L 367.614218 75.643645 
L 367.939197 78.625186 
L 368.264177 75.530711 
L 368.589156 74.527471 
L 368.914136 77.013337 
L 369.239115 78.640275 
L 369.564095 78.96524 
L 369.889075 78.400684 
L 370.214054 79.037867 
L 370.539034 80.423397 
L 370.864013 76.968407 
L 371.188993 76.806728 
L 371.513972 77.723932 
L 371.838952 78.085836 
L 372.163931 79.207527 
L 372.488911 81.292549 
L 372.81389 77.753638 
L 373.13887 79.834658 
L 373.463849 79.96318 
L 373.788829 78.089436 
L 374.113808 81.728825 
L 374.438788 78.587358 
L 374.763767 83.023744 
L 375.088747 80.159133 
L 375.413726 83.601474 
L 375.738706 83.677723 
L 376.063686 80.959339 
L 376.388665 82.402943 
L 376.713645 83.061244 
L 377.038624 80.080896 
L 377.363604 80.546224 
L 377.688583 82.632491 
L 378.013563 81.15666 
L 378.338542 80.267595 
L 378.663522 84.589267 
L 378.988501 81.380037 
L 379.313481 82.119442 
L 379.63846 83.734316 
L 379.96344 81.946093 
L 380.288419 84.392435 
L 380.613399 84.123399 
L 381.263358 80.55668 
L 381.588337 84.535835 
L 381.913317 81.430845 
L 382.238296 84.097569 
L 382.888256 79.579886 
L 383.213235 83.693141 
L 383.538215 79.7262 
L 383.863194 81.972312 
L 384.188174 81.955582 
L 384.513153 82.361959 
L 384.838133 79.573873 
L 385.163112 81.144289 
L 385.488092 80.629715 
L 385.813071 78.90862 
L 386.138051 80.628422 
L 386.46303 76.089783 
L 386.78801 77.896663 
L 387.112989 76.824689 
L 387.437969 78.958835 
L 387.762948 79.349456 
L 388.087928 74.480794 
L 388.412907 76.277459 
L 388.737887 77.247756 
L 389.062867 75.470786 
L 389.387846 72.303726 
L 389.712826 76.038426 
L 390.037805 72.917952 
L 390.362785 73.196304 
L 390.687764 69.299465 
L 391.337723 72.734178 
L 391.662703 71.110643 
L 391.987682 71.432992 
L 392.312662 70.235821 
L 392.637641 67.255565 
L 392.962621 68.400413 
L 393.2876 65.38763 
L 393.61258 66.301762 
L 393.937559 65.752317 
L 394.262539 63.776833 
L 394.587518 63.672878 
L 394.912498 64.001273 
L 395.237477 59.575176 
L 395.562457 63.453483 
L 395.887437 61.675387 
L 396.212416 61.030666 
L 396.537396 58.345289 
L 396.862375 56.868008 
L 397.512334 55.61503 
L 397.837314 55.826207 
L 398.162293 53.568 
L 398.487273 54.974504 
L 398.487273 54.974504 
" clip-path="url(#p5efb167c2a)" style="fill: none; stroke: #1f77b4; stroke-width: 1.5; stroke-linecap: square"/>
   </g>
   <g id="line2d_13">
    <path d="M 73.832727 220.495141 
L 80.657297 218.407381 
L 87.156888 216.653601 
L 105.030762 212.009139 
L 111.205373 210.100681 
L 118.029943 207.740635 
L 126.80439 204.445616 
L 145.328223 197.453903 
L 163.202097 190.799839 
L 171.651564 187.383575 
L 181.72593 183.046714 
L 203.499558 173.412521 
L 203.499558 173.412521 
" clip-path="url(#p5efb167c2a)" style="fill: none; stroke: #ff7f0e; stroke-width: 1.5; stroke-linecap: square"/>
   </g>
   <g id="line2d_14">
    <path d="M 73.832727 286.338841 
L 77.407502 283.930429 
L 79.682359 282.648546 
L 81.632236 281.802887 
L 83.257133 281.309848 
L 84.882031 281.025529 
L 86.506929 280.964116 
L 88.131826 281.127047 
L 89.756724 281.51376 
L 91.381622 282.112392 
L 93.331499 283.08599 
L 95.606355 284.512654 
L 98.206192 286.422993 
L 106.0057 292.362185 
L 108.280557 293.706396 
L 110.230434 294.589092 
L 111.855332 295.106822 
L 113.480229 295.408177 
L 115.105127 295.485524 
L 116.730025 295.339735 
L 118.354922 294.979136 
L 120.304799 294.283372 
L 122.254676 293.336678 
L 124.529533 291.984453 
L 128.104308 289.551335 
L 132.329042 286.700541 
L 134.603898 285.402529 
L 136.553776 284.512342 
L 138.503653 283.875749 
L 140.12855 283.56111 
L 141.753448 283.45409 
L 143.378346 283.557473 
L 145.003243 283.867447 
L 146.95312 284.493794 
L 148.902998 285.365718 
L 151.177854 286.631686 
L 154.427649 288.730065 
L 159.302342 291.901972 
L 161.577199 293.140767 
L 163.527076 293.981763 
L 165.476953 294.572846 
L 167.101851 294.852094 
L 168.726749 294.926247 
L 170.351646 294.792041 
L 171.976544 294.453631 
L 173.926421 293.795449 
L 175.876298 292.894572 
L 178.151155 291.597066 
L 181.40095 289.455742 
L 186.600622 286.02276 
L 188.875479 284.786995 
L 190.825356 283.955775 
L 192.775233 283.379457 
L 194.400131 283.115361 
L 196.025029 283.057851 
L 197.649926 283.209309 
L 199.274824 283.564229 
L 201.224701 284.240529 
L 203.174578 285.156317 
L 203.499558 285.329153 
L 203.499558 285.329153 
" clip-path="url(#p5efb167c2a)" style="fill: none; stroke: #2ca02c; stroke-width: 1.5; stroke-linecap: square"/>
   </g>
   <g id="line2d_15">
    <path d="M 73.832727 292.999821 
L 76.757543 291.07849 
L 80.657297 288.618942 
L 82.932154 287.424637 
L 85.207011 286.49624 
L 87.156888 285.957858 
L 89.106765 285.674466 
L 90.731663 285.643042 
L 92.68154 285.84505 
L 94.631417 286.286357 
L 96.906274 287.058802 
L 99.50611 288.193757 
L 108.605536 292.412266 
L 110.880393 293.085909 
L 112.83027 293.434348 
L 114.780147 293.544438 
L 116.730025 293.408194 
L 118.679902 293.029192 
L 120.629779 292.424496 
L 122.904636 291.474406 
L 125.829451 289.968363 
L 133.953939 285.572583 
L 136.228796 284.684296 
L 138.178673 284.151576 
L 140.12855 283.86076 
L 142.078428 283.829061 
L 144.028305 284.060283 
L 145.978182 284.544971 
L 147.928059 285.260802 
L 150.202916 286.341255 
L 153.127731 288.003303 
L 160.277281 292.210892 
L 162.552138 293.241118 
L 164.502015 293.898591 
L 166.451892 294.311333 
L 168.07679 294.452526 
L 169.701687 294.402693 
L 171.326585 294.163273 
L 173.276462 293.636656 
L 175.226339 292.874443 
L 177.501196 291.740888 
L 180.426011 290.016597 
L 186.925602 286.067225 
L 189.200459 284.9641 
L 191.150336 284.237702 
L 193.100213 283.752738 
L 194.725111 283.551565 
L 196.350008 283.54304 
L 197.974906 283.727399 
L 199.924783 284.193888 
L 201.87466 284.904785 
L 203.499558 285.657931 
L 203.499558 285.657931 
" clip-path="url(#p5efb167c2a)" style="fill: none; stroke: #d62728; stroke-width: 1.5; stroke-linecap: square"/>
   </g>
   <g id="patch_3">
    <path d="M 57.6 307.584 
L 57.6 41.472 
" style="fill: none; stroke: #000000; stroke-width: 0.8; stroke-linejoin: miter; stroke-linecap: square"/>
   </g>
   <g id="patch_4">
    <path d="M 414.72 307.584 
L 414.72 41.472 
" style="fill: none; stroke: #000000; stroke-width: 0.8; stroke-linejoin: miter; stroke-linecap: square"/>
   </g>
   <g id="patch_5">
    <path d="M 57.6 307.584 
L 414.72 307.584 
" style="fill: none; stroke: #000000; stroke-width: 0.8; stroke-linejoin: miter; stroke-linecap: square"/>
   </g>
   <g id="patch_6">
    <path d="M 57.6 41.472 
L 414.72 41.472 
" style="fill: none; stroke: #000000; stroke-width: 0.8; stroke-linejoin: miter; stroke-linecap: square"/>
   </g>
   <g id="text_12">
    <!-- Serie timp descompusa cu SSA, L = 400 -->
    <g transform="translate(115.290937 35.472) scale(0.12 -0.12)">
     <defs>
      <path id="DejaVuSans-53" d="M 3425 4513 
L 3425 3897 
Q 3066 4069 2747 4153 
Q 2428 4238 2131 4238 
Q 1616 4238 1336 4038 
Q 1056 3838 1056 3469 
Q 1056 3159 1242 3001 
Q 1428 2844 1947 2747 
L 2328 2669 
Q 3034 2534 3370 2195 
Q 3706 1856 3706 1288 
Q 3706 609 3251 259 
Q 2797 -91 1919 -91 
Q 1588 -91 1214 -16 
Q 841 59 441 206 
L 441 856 
Q 825 641 1194 531 
Q 1563 422 1919 422 
Q 2459 422 2753 634 
Q 3047 847 3047 1241 
Q 3047 1584 2836 1778 
Q 2625 1972 2144 2069 
L 1759 2144 
Q 1053 2284 737 2584 
Q 422 2884 422 3419 
Q 422 4038 858 4394 
Q 1294 4750 2059 4750 
Q 2388 4750 2728 4690 
Q 3069 4631 3425 4513 
z
" transform="scale(0.015625)"/>
      <path id="DejaVuSans-65" d="M 3597 1894 
L 3597 1613 
L 953 1613 
Q 991 1019 1311 708 
Q 1631 397 2203 397 
Q 2534 397 2845 478 
Q 3156 559 3463 722 
L 3463 178 
Q 3153 47 2828 -22 
Q 2503 -91 2169 -91 
Q 1331 -91 842 396 
Q 353 884 353 1716 
Q 353 2575 817 3079 
Q 1281 3584 2069 3584 
Q 2775 3584 3186 3129 
Q 3597 2675 3597 1894 
z
M 3022 2063 
Q 3016 2534 2758 2815 
Q 2500 3097 2075 3097 
Q 1594 3097 1305 2825 
Q 1016 2553 972 2059 
L 3022 2063 
z
" transform="scale(0.015625)"/>
      <path id="DejaVuSans-72" d="M 2631 2963 
Q 2534 3019 2420 3045 
Q 2306 3072 2169 3072 
Q 1681 3072 1420 2755 
Q 1159 2438 1159 1844 
L 1159 0 
L 581 0 
L 581 3500 
L 1159 3500 
L 1159 2956 
Q 1341 3275 1631 3429 
Q 1922 3584 2338 3584 
Q 2397 3584 2469 3576 
Q 2541 3569 2628 3553 
L 2631 2963 
z
" transform="scale(0.015625)"/>
      <path id="DejaVuSans-69" d="M 603 3500 
L 1178 3500 
L 1178 0 
L 603 0 
L 603 3500 
z
M 603 4863 
L 1178 4863 
L 1178 4134 
L 603 4134 
L 603 4863 
z
" transform="scale(0.015625)"/>
      <path id="DejaVuSans-20" transform="scale(0.015625)"/>
      <path id="DejaVuSans-74" d="M 1172 4494 
L 1172 3500 
L 2356 3500 
L 2356 3053 
L 1172 3053 
L 1172 1153 
Q 1172 725 1289 603 
Q 1406 481 1766 481 
L 2356 481 
L 2356 0 
L 1766 0 
Q 1100 0 847 248 
Q 594 497 594 1153 
L 594 3053 
L 172 3053 
L 172 3500 
L 594 3500 
L 594 4494 
L 1172 4494 
z
" transform="scale(0.015625)"/>
      <path id="DejaVuSans-6d" d="M 3328 2828 
Q 3544 3216 3844 3400 
Q 4144 3584 4550 3584 
Q 5097 3584 5394 3201 
Q 5691 2819 5691 2113 
L 5691 0 
L 5113 0 
L 5113 2094 
Q 5113 2597 4934 2840 
Q 4756 3084 4391 3084 
Q 3944 3084 3684 2787 
Q 3425 2491 3425 1978 
L 3425 0 
L 2847 0 
L 2847 2094 
Q 2847 2600 2669 2842 
Q 2491 3084 2119 3084 
Q 1678 3084 1418 2786 
Q 1159 2488 1159 1978 
L 1159 0 
L 581 0 
L 581 3500 
L 1159 3500 
L 1159 2956 
Q 1356 3278 1631 3431 
Q 1906 3584 2284 3584 
Q 2666 3584 2933 3390 
Q 3200 3197 3328 2828 
z
" transform="scale(0.015625)"/>
      <path id="DejaVuSans-70" d="M 1159 525 
L 1159 -1331 
L 581 -1331 
L 581 3500 
L 1159 3500 
L 1159 2969 
Q 1341 3281 1617 3432 
Q 1894 3584 2278 3584 
Q 2916 3584 3314 3078 
Q 3713 2572 3713 1747 
Q 3713 922 3314 415 
Q 2916 -91 2278 -91 
Q 1894 -91 1617 61 
Q 1341 213 1159 525 
z
M 3116 1747 
Q 3116 2381 2855 2742 
Q 2594 3103 2138 3103 
Q 1681 3103 1420 2742 
Q 1159 2381 1159 1747 
Q 1159 1113 1420 752 
Q 1681 391 2138 391 
Q 2594 391 2855 752 
Q 3116 1113 3116 1747 
z
" transform="scale(0.015625)"/>
      <path id="DejaVuSans-64" d="M 2906 2969 
L 2906 4863 
L 3481 4863 
L 3481 0 
L 2906 0 
L 2906 525 
Q 2725 213 2448 61 
Q 2172 -91 1784 -91 
Q 1150 -91 751 415 
Q 353 922 353 1747 
Q 353 2572 751 3078 
Q 1150 3584 1784 3584 
Q 2172 3584 2448 3432 
Q 2725 3281 2906 2969 
z
M 947 1747 
Q 947 1113 1208 752 
Q 1469 391 1925 391 
Q 2381 391 2643 752 
Q 2906 1113 2906 1747 
Q 2906 2381 2643 2742 
Q 2381 3103 1925 3103 
Q 1469 3103 1208 2742 
Q 947 2381 947 1747 
z
" transform="scale(0.015625)"/>
      <path id="DejaVuSans-73" d="M 2834 3397 
L 2834 2853 
Q 2591 2978 2328 3040 
Q 2066 3103 1784 3103 
Q 1356 3103 1142 2972 
Q 928 2841 928 2578 
Q 928 2378 1081 2264 
Q 1234 2150 1697 2047 
L 1894 2003 
Q 2506 1872 2764 1633 
Q 3022 1394 3022 966 
Q 3022 478 2636 193 
Q 2250 -91 1575 -91 
Q 1294 -91 989 -36 
Q 684 19 347 128 
L 347 722 
Q 666 556 975 473 
Q 1284 391 1588 391 
Q 1994 391 2212 530 
Q 2431 669 2431 922 
Q 2431 1156 2273 1281 
Q 2116 1406 1581 1522 
L 1381 1569 
Q 847 1681 609 1914 
Q 372 2147 372 2553 
Q 372 3047 722 3315 
Q 1072 3584 1716 3584 
Q 2034 3584 2315 3537 
Q 2597 3491 2834 3397 
z
" transform="scale(0.015625)"/>
      <path id="DejaVuSans-63" d="M 3122 3366 
L 3122 2828 
Q 2878 2963 2633 3030 
Q 2388 3097 2138 3097 
Q 1578 3097 1268 2742 
Q 959 2388 959 1747 
Q 959 1106 1268 751 
Q 1578 397 2138 397 
Q 2388 397 2633 464 
Q 2878 531 3122 666 
L 3122 134 
Q 2881 22 2623 -34 
Q 2366 -91 2075 -91 
Q 1284 -91 818 406 
Q 353 903 353 1747 
Q 353 2603 823 3093 
Q 1294 3584 2113 3584 
Q 2378 3584 2631 3529 
Q 2884 3475 3122 3366 
z
" transform="scale(0.015625)"/>
      <path id="DejaVuSans-6f" d="M 1959 3097 
Q 1497 3097 1228 2736 
Q 959 2375 959 1747 
Q 959 1119 1226 758 
Q 1494 397 1959 397 
Q 2419 397 2687 759 
Q 2956 1122 2956 1747 
Q 2956 2369 2687 2733 
Q 2419 3097 1959 3097 
z
M 1959 3584 
Q 2709 3584 3137 3096 
Q 3566 2609 3566 1747 
Q 3566 888 3137 398 
Q 2709 -91 1959 -91 
Q 1206 -91 779 398 
Q 353 888 353 1747 
Q 353 2609 779 3096 
Q 1206 3584 1959 3584 
z
" transform="scale(0.015625)"/>
      <path id="DejaVuSans-75" d="M 544 1381 
L 544 3500 
L 1119 3500 
L 1119 1403 
Q 1119 906 1312 657 
Q 1506 409 1894 409 
Q 2359 409 2629 706 
Q 2900 1003 2900 1516 
L 2900 3500 
L 3475 3500 
L 3475 0 
L 2900 0 
L 2900 538 
Q 2691 219 2414 64 
Q 2138 -91 1772 -91 
Q 1169 -91 856 284 
Q 544 659 544 1381 
z
M 1991 3584 
L 1991 3584 
z
" transform="scale(0.015625)"/>
      <path id="DejaVuSans-61" d="M 2194 1759 
Q 1497 1759 1228 1600 
Q 959 1441 959 1056 
Q 959 750 1161 570 
Q 1363 391 1709 391 
Q 2188 391 2477 730 
Q 2766 1069 2766 1631 
L 2766 1759 
L 2194 1759 
z
M 3341 1997 
L 3341 0 
L 2766 0 
L 2766 531 
Q 2569 213 2275 61 
Q 1981 -91 1556 -91 
Q 1019 -91 701 211 
Q 384 513 384 1019 
Q 384 1609 779 1909 
Q 1175 2209 1959 2209 
L 2766 2209 
L 2766 2266 
Q 2766 2663 2505 2880 
Q 2244 3097 1772 3097 
Q 1472 3097 1187 3025 
Q 903 2953 641 2809 
L 641 3341 
Q 956 3463 1253 3523 
Q 1550 3584 1831 3584 
Q 2591 3584 2966 3190 
Q 3341 2797 3341 1997 
z
" transform="scale(0.015625)"/>
      <path id="DejaVuSans-41" d="M 2188 4044 
L 1331 1722 
L 3047 1722 
L 2188 4044 
z
M 1831 4666 
L 2547 4666 
L 4325 0 
L 3669 0 
L 3244 1197 
L 1141 1197 
L 716 0 
L 50 0 
L 1831 4666 
z
" transform="scale(0.015625)"/>
      <path id="DejaVuSans-2c" d="M 750 794 
L 1409 794 
L 1409 256 
L 897 -744 
L 494 -744 
L 750 256 
L 750 794 
z
" transform="scale(0.015625)"/>
      <path id="DejaVuSans-4c" d="M 628 4666 
L 1259 4666 
L 1259 531 
L 3531 531 
L 3531 0 
L 628 0 
L 628 4666 
z
" transform="scale(0.015625)"/>
      <path id="DejaVuSans-3d" d="M 678 2906 
L 4684 2906 
L 4684 2381 
L 678 2381 
L 678 2906 
z
M 678 1631 
L 4684 1631 
L 4684 1100 
L 678 1100 
L 678 1631 
z
" transform="scale(0.015625)"/>
     </defs>
     <use xlink:href="#DejaVuSans-53"/>
     <use xlink:href="#DejaVuSans-65" x="63.476562"/>
     <use xlink:href="#DejaVuSans-72" x="125"/>
     <use xlink:href="#DejaVuSans-69" x="166.113281"/>
     <use xlink:href="#DejaVuSans-65" x="193.896484"/>
     <use xlink:href="#DejaVuSans-20" x="255.419922"/>
     <use xlink:href="#DejaVuSans-74" x="287.207031"/>
     <use xlink:href="#DejaVuSans-69" x="326.416016"/>
     <use xlink:href="#DejaVuSans-6d" x="354.199219"/>
     <use xlink:href="#DejaVuSans-70" x="451.611328"/>
     <use xlink:href="#DejaVuSans-20" x="515.087891"/>
     <use xlink:href="#DejaVuSans-64" x="546.875"/>
     <use xlink:href="#DejaVuSans-65" x="610.351562"/>
     <use xlink:href="#DejaVuSans-73" x="671.875"/>
     <use xlink:href="#DejaVuSans-63" x="723.974609"/>
     <use xlink:href="#DejaVuSans-6f" x="778.955078"/>
     <use xlink:href="#DejaVuSans-6d" x="840.136719"/>
     <use xlink:href="#DejaVuSans-70" x="937.548828"/>
     <use xlink:href="#DejaVuSans-75" x="1001.025391"/>
     <use xlink:href="#DejaVuSans-73" x="1064.404297"/>
     <use xlink:href="#DejaVuSans-61" x="1116.503906"/>
     <use xlink:href="#DejaVuSans-20" x="1177.783203"/>
     <use xlink:href="#DejaVuSans-63" x="1209.570312"/>
     <use xlink:href="#DejaVuSans-75" x="1264.550781"/>
     <use xlink:href="#DejaVuSans-20" x="1327.929688"/>
     <use xlink:href="#DejaVuSans-53" x="1359.716797"/>
     <use xlink:href="#DejaVuSans-53" x="1423.193359"/>
     <use xlink:href="#DejaVuSans-41" x="1488.544922"/>
     <use xlink:href="#DejaVuSans-2c" x="1556.953125"/>
     <use xlink:href="#DejaVuSans-20" x="1588.740234"/>
     <use xlink:href="#DejaVuSans-4c" x="1620.527344"/>
     <use xlink:href="#DejaVuSans-20" x="1676.240234"/>
     <use xlink:href="#DejaVuSans-3d" x="1708.027344"/>
     <use xlink:href="#DejaVuSans-20" x="1791.816406"/>
     <use xlink:href="#DejaVuSans-34" x="1823.603516"/>
     <use xlink:href="#DejaVuSans-30" x="1887.226562"/>
     <use xlink:href="#DejaVuSans-30" x="1950.849609"/>
    </g>
   </g>
   <g id="legend_1">
    <g id="patch_7">
     <path d="M 64.6 108.1845 
L 214.703125 108.1845 
Q 216.703125 108.1845 216.703125 106.1845 
L 216.703125 48.472 
Q 216.703125 46.472 214.703125 46.472 
L 64.6 46.472 
Q 62.6 46.472 62.6 48.472 
L 62.6 106.1845 
Q 62.6 108.1845 64.6 108.1845 
z
" style="fill: #ffffff; opacity: 0.8; stroke: #cccccc; stroke-linejoin: miter"/>
    </g>
    <g id="line2d_16">
     <path d="M 66.6 54.570438 
L 76.6 54.570438 
L 86.6 54.570438 
" style="fill: none; stroke: #1f77b4; stroke-width: 1.5; stroke-linecap: square"/>
    </g>
    <g id="text_13">
     <!-- Serie timp originala -->
     <g transform="translate(94.6 58.070438) scale(0.1 -0.1)">
      <defs>
       <path id="DejaVuSans-67" d="M 2906 1791 
Q 2906 2416 2648 2759 
Q 2391 3103 1925 3103 
Q 1463 3103 1205 2759 
Q 947 2416 947 1791 
Q 947 1169 1205 825 
Q 1463 481 1925 481 
Q 2391 481 2648 825 
Q 2906 1169 2906 1791 
z
M 3481 434 
Q 3481 -459 3084 -895 
Q 2688 -1331 1869 -1331 
Q 1566 -1331 1297 -1286 
Q 1028 -1241 775 -1147 
L 775 -588 
Q 1028 -725 1275 -790 
Q 1522 -856 1778 -856 
Q 2344 -856 2625 -561 
Q 2906 -266 2906 331 
L 2906 616 
Q 2728 306 2450 153 
Q 2172 0 1784 0 
Q 1141 0 747 490 
Q 353 981 353 1791 
Q 353 2603 747 3093 
Q 1141 3584 1784 3584 
Q 2172 3584 2450 3431 
Q 2728 3278 2906 2969 
L 2906 3500 
L 3481 3500 
L 3481 434 
z
" transform="scale(0.015625)"/>
       <path id="DejaVuSans-6e" d="M 3513 2113 
L 3513 0 
L 2938 0 
L 2938 2094 
Q 2938 2591 2744 2837 
Q 2550 3084 2163 3084 
Q 1697 3084 1428 2787 
Q 1159 2491 1159 1978 
L 1159 0 
L 581 0 
L 581 3500 
L 1159 3500 
L 1159 2956 
Q 1366 3272 1645 3428 
Q 1925 3584 2291 3584 
Q 2894 3584 3203 3211 
Q 3513 2838 3513 2113 
z
" transform="scale(0.015625)"/>
       <path id="DejaVuSans-6c" d="M 603 4863 
L 1178 4863 
L 1178 0 
L 603 0 
L 603 4863 
z
" transform="scale(0.015625)"/>
      </defs>
      <use xlink:href="#DejaVuSans-53"/>
      <use xlink:href="#DejaVuSans-65" x="63.476562"/>
      <use xlink:href="#DejaVuSans-72" x="125"/>
      <use xlink:href="#DejaVuSans-69" x="166.113281"/>
      <use xlink:href="#DejaVuSans-65" x="193.896484"/>
      <use xlink:href="#DejaVuSans-20" x="255.419922"/>
      <use xlink:href="#DejaVuSans-74" x="287.207031"/>
      <use xlink:href="#DejaVuSans-69" x="326.416016"/>
      <use xlink:href="#DejaVuSans-6d" x="354.199219"/>
      <use xlink:href="#DejaVuSans-70" x="451.611328"/>
      <use xlink:href="#DejaVuSans-20" x="515.087891"/>
      <use xlink:href="#DejaVuSans-6f" x="546.875"/>
      <use xlink:href="#DejaVuSans-72" x="608.056641"/>
      <use xlink:href="#DejaVuSans-69" x="649.169922"/>
      <use xlink:href="#DejaVuSans-67" x="676.953125"/>
      <use xlink:href="#DejaVuSans-69" x="740.429688"/>
      <use xlink:href="#DejaVuSans-6e" x="768.212891"/>
      <use xlink:href="#DejaVuSans-61" x="831.591797"/>
      <use xlink:href="#DejaVuSans-6c" x="892.871094"/>
      <use xlink:href="#DejaVuSans-61" x="920.654297"/>
     </g>
    </g>
    <g id="line2d_17">
     <path d="M 66.6 69.248563 
L 76.6 69.248563 
L 86.6 69.248563 
" style="fill: none; stroke: #ff7f0e; stroke-width: 1.5; stroke-linecap: square"/>
    </g>
    <g id="text_14">
     <!-- Componenta de ordin 1 -->
     <g transform="translate(94.6 72.748563) scale(0.1 -0.1)">
      <defs>
       <path id="DejaVuSans-43" d="M 4122 4306 
L 4122 3641 
Q 3803 3938 3442 4084 
Q 3081 4231 2675 4231 
Q 1875 4231 1450 3742 
Q 1025 3253 1025 2328 
Q 1025 1406 1450 917 
Q 1875 428 2675 428 
Q 3081 428 3442 575 
Q 3803 722 4122 1019 
L 4122 359 
Q 3791 134 3420 21 
Q 3050 -91 2638 -91 
Q 1578 -91 968 557 
Q 359 1206 359 2328 
Q 359 3453 968 4101 
Q 1578 4750 2638 4750 
Q 3056 4750 3426 4639 
Q 3797 4528 4122 4306 
z
" transform="scale(0.015625)"/>
      </defs>
      <use xlink:href="#DejaVuSans-43"/>
      <use xlink:href="#DejaVuSans-6f" x="69.824219"/>
      <use xlink:href="#DejaVuSans-6d" x="131.005859"/>
      <use xlink:href="#DejaVuSans-70" x="228.417969"/>
      <use xlink:href="#DejaVuSans-6f" x="291.894531"/>
      <use xlink:href="#DejaVuSans-6e" x="353.076172"/>
      <use xlink:href="#DejaVuSans-65" x="416.455078"/>
      <use xlink:href="#DejaVuSans-6e" x="477.978516"/>
      <use xlink:href="#DejaVuSans-74" x="541.357422"/>
      <use xlink:href="#DejaVuSans-61" x="580.566406"/>
      <use xlink:href="#DejaVuSans-20" x="641.845703"/>
      <use xlink:href="#DejaVuSans-64" x="673.632812"/>
      <use xlink:href="#DejaVuSans-65" x="737.109375"/>
      <use xlink:href="#DejaVuSans-20" x="798.632812"/>
      <use xlink:href="#DejaVuSans-6f" x="830.419922"/>
      <use xlink:href="#DejaVuSans-72" x="891.601562"/>
      <use xlink:href="#DejaVuSans-64" x="930.964844"/>
      <use xlink:href="#DejaVuSans-69" x="994.441406"/>
      <use xlink:href="#DejaVuSans-6e" x="1022.224609"/>
      <use xlink:href="#DejaVuSans-20" x="1085.603516"/>
      <use xlink:href="#DejaVuSans-31" x="1117.390625"/>
     </g>
    </g>
    <g id="line2d_18">
     <path d="M 66.6 83.926688 
L 76.6 83.926688 
L 86.6 83.926688 
" style="fill: none; stroke: #2ca02c; stroke-width: 1.5; stroke-linecap: square"/>
    </g>
    <g id="text_15">
     <!-- Componenta de ordin 2 -->
     <g transform="translate(94.6 87.426688) scale(0.1 -0.1)">
      <use xlink:href="#DejaVuSans-43"/>
      <use xlink:href="#DejaVuSans-6f" x="69.824219"/>
      <use xlink:href="#DejaVuSans-6d" x="131.005859"/>
      <use xlink:href="#DejaVuSans-70" x="228.417969"/>
      <use xlink:href="#DejaVuSans-6f" x="291.894531"/>
      <use xlink:href="#DejaVuSans-6e" x="353.076172"/>
      <use xlink:href="#DejaVuSans-65" x="416.455078"/>
      <use xlink:href="#DejaVuSans-6e" x="477.978516"/>
      <use xlink:href="#DejaVuSans-74" x="541.357422"/>
      <use xlink:href="#DejaVuSans-61" x="580.566406"/>
      <use xlink:href="#DejaVuSans-20" x="641.845703"/>
      <use xlink:href="#DejaVuSans-64" x="673.632812"/>
      <use xlink:href="#DejaVuSans-65" x="737.109375"/>
      <use xlink:href="#DejaVuSans-20" x="798.632812"/>
      <use xlink:href="#DejaVuSans-6f" x="830.419922"/>
      <use xlink:href="#DejaVuSans-72" x="891.601562"/>
      <use xlink:href="#DejaVuSans-64" x="930.964844"/>
      <use xlink:href="#DejaVuSans-69" x="994.441406"/>
      <use xlink:href="#DejaVuSans-6e" x="1022.224609"/>
      <use xlink:href="#DejaVuSans-20" x="1085.603516"/>
      <use xlink:href="#DejaVuSans-32" x="1117.390625"/>
     </g>
    </g>
    <g id="line2d_19">
     <path d="M 66.6 98.604813 
L 76.6 98.604813 
L 86.6 98.604813 
" style="fill: none; stroke: #d62728; stroke-width: 1.5; stroke-linecap: square"/>
    </g>
    <g id="text_16">
     <!-- Componenta de ordin 3 -->
     <g transform="translate(94.6 102.104813) scale(0.1 -0.1)">
      <use xlink:href="#DejaVuSans-43"/>
      <use xlink:href="#DejaVuSans-6f" x="69.824219"/>
      <use xlink:href="#DejaVuSans-6d" x="131.005859"/>
      <use xlink:href="#DejaVuSans-70" x="228.417969"/>
      <use xlink:href="#DejaVuSans-6f" x="291.894531"/>
      <use xlink:href="#DejaVuSans-6e" x="353.076172"/>
      <use xlink:href="#DejaVuSans-65" x="416.455078"/>
      <use xlink:href="#DejaVuSans-6e" x="477.978516"/>
      <use xlink:href="#DejaVuSans-74" x="541.357422"/>
      <use xlink:href="#DejaVuSans-61" x="580.566406"/>
      <use xlink:href="#DejaVuSans-20" x="641.845703"/>
      <use xlink:href="#DejaVuSans-64" x="673.632812"/>
      <use xlink:href="#DejaVuSans-65" x="737.109375"/>
      <use xlink:href="#DejaVuSans-20" x="798.632812"/>
      <use xlink:href="#DejaVuSans-6f" x="830.419922"/>
      <use xlink:href="#DejaVuSans-72" x="891.601562"/>
      <use xlink:href="#DejaVuSans-64" x="930.964844"/>
      <use xlink:href="#DejaVuSans-69" x="994.441406"/>
      <use xlink:href="#DejaVuSans-6e" x="1022.224609"/>
      <use xlink:href="#DejaVuSans-20" x="1085.603516"/>
      <use xlink:href="#DejaVuSans-33" x="1117.390625"/>
     </g>
    </g>
   </g>
  </g>
 </g>
 <defs>
  <clipPath id="p5efb167c2a">
   <rect x="57.6" y="41.472" width="357.12" height="266.112"/>
  </clipPath>
 </defs>
</svg>
