<?xml version="1.0" encoding="utf-8" standalone="no"?>
<!DOCTYPE svg PUBLIC "-//W3C//DTD SVG 1.1//EN"
  "http://www.w3.org/Graphics/SVG/1.1/DTD/svg11.dtd">
<svg xmlns:xlink="http://www.w3.org/1999/xlink" width="460.8pt" height="345.6pt" viewBox="0 0 460.8 345.6" xmlns="http://www.w3.org/2000/svg" version="1.1">
 <metadata>
  <rdf:RDF xmlns:dc="http://purl.org/dc/elements/1.1/" xmlns:cc="http://creativecommons.org/ns#" xmlns:rdf="http://www.w3.org/1999/02/22-rdf-syntax-ns#">
   <cc:Work>
    <dc:type rdf:resource="http://purl.org/dc/dcmitype/StillImage"/>
    <dc:date>2024-12-27T17:26:00.179253</dc:date>
    <dc:format>image/svg+xml</dc:format>
    <dc:creator>
     <cc:Agent>
      <dc:title>Matplotlib v3.9.2, https://matplotlib.org/</dc:title>
     </cc:Agent>
    </dc:creator>
   </cc:Work>
  </rdf:RDF>
 </metadata>
 <defs>
  <style type="text/css">*{stroke-linejoin: round; stroke-linecap: butt}</style>
 </defs>
 <g id="figure_1">
  <g id="patch_1">
   <path d="M 0 345.6 
L 460.8 345.6 
L 460.8 0 
L 0 0 
z
" style="fill: #ffffff"/>
  </g>
  <g id="axes_1">
   <g id="patch_2">
    <path d="M 57.6 307.584 
L 414.72 307.584 
L 414.72 41.472 
L 57.6 41.472 
z
" style="fill: #ffffff"/>
   </g>
   <g id="matplotlib.axis_1">
    <g id="xtick_1">
     <g id="line2d_1">
      <defs>
       <path id="m5cd0114f28" d="M 0 0 
L 0 3.5 
" style="stroke: #000000; stroke-width: 0.8"/>
      </defs>
      <g>
       <use xlink:href="#m5cd0114f28" x="73.832727" y="307.584" style="stroke: #000000; stroke-width: 0.8"/>
      </g>
     </g>
     <g id="text_1">
      <!-- 0 -->
      <g transform="translate(70.651477 322.182437) scale(0.1 -0.1)">
       <defs>
        <path id="DejaVuSans-30" d="M 2034 4250 
Q 1547 4250 1301 3770 
Q 1056 3291 1056 2328 
Q 1056 1369 1301 889 
Q 1547 409 2034 409 
Q 2525 409 2770 889 
Q 3016 1369 3016 2328 
Q 3016 3291 2770 3770 
Q 2525 4250 2034 4250 
z
M 2034 4750 
Q 2819 4750 3233 4129 
Q 3647 3509 3647 2328 
Q 3647 1150 3233 529 
Q 2819 -91 2034 -91 
Q 1250 -91 836 529 
Q 422 1150 422 2328 
Q 422 3509 836 4129 
Q 1250 4750 2034 4750 
z
" transform="scale(0.015625)"/>
       </defs>
       <use xlink:href="#DejaVuSans-30"/>
      </g>
     </g>
    </g>
    <g id="xtick_2">
     <g id="line2d_2">
      <g>
       <use xlink:href="#m5cd0114f28" x="138.828632" y="307.584" style="stroke: #000000; stroke-width: 0.8"/>
      </g>
     </g>
     <g id="text_2">
      <!-- 200 -->
      <g transform="translate(129.284882 322.182437) scale(0.1 -0.1)">
       <defs>
        <path id="DejaVuSans-32" d="M 1228 531 
L 3431 531 
L 3431 0 
L 469 0 
L 469 531 
Q 828 903 1448 1529 
Q 2069 2156 2228 2338 
Q 2531 2678 2651 2914 
Q 2772 3150 2772 3378 
Q 2772 3750 2511 3984 
Q 2250 4219 1831 4219 
Q 1534 4219 1204 4116 
Q 875 4013 500 3803 
L 500 4441 
Q 881 4594 1212 4672 
Q 1544 4750 1819 4750 
Q 2544 4750 2975 4387 
Q 3406 4025 3406 3419 
Q 3406 3131 3298 2873 
Q 3191 2616 2906 2266 
Q 2828 2175 2409 1742 
Q 1991 1309 1228 531 
z
" transform="scale(0.015625)"/>
       </defs>
       <use xlink:href="#DejaVuSans-32"/>
       <use xlink:href="#DejaVuSans-30" x="63.623047"/>
       <use xlink:href="#DejaVuSans-30" x="127.246094"/>
      </g>
     </g>
    </g>
    <g id="xtick_3">
     <g id="line2d_3">
      <g>
       <use xlink:href="#m5cd0114f28" x="203.824537" y="307.584" style="stroke: #000000; stroke-width: 0.8"/>
      </g>
     </g>
     <g id="text_3">
      <!-- 400 -->
      <g transform="translate(194.280787 322.182437) scale(0.1 -0.1)">
       <defs>
        <path id="DejaVuSans-34" d="M 2419 4116 
L 825 1625 
L 2419 1625 
L 2419 4116 
z
M 2253 4666 
L 3047 4666 
L 3047 1625 
L 3713 1625 
L 3713 1100 
L 3047 1100 
L 3047 0 
L 2419 0 
L 2419 1100 
L 313 1100 
L 313 1709 
L 2253 4666 
z
" transform="scale(0.015625)"/>
       </defs>
       <use xlink:href="#DejaVuSans-34"/>
       <use xlink:href="#DejaVuSans-30" x="63.623047"/>
       <use xlink:href="#DejaVuSans-30" x="127.246094"/>
      </g>
     </g>
    </g>
    <g id="xtick_4">
     <g id="line2d_4">
      <g>
       <use xlink:href="#m5cd0114f28" x="268.820442" y="307.584" style="stroke: #000000; stroke-width: 0.8"/>
      </g>
     </g>
     <g id="text_4">
      <!-- 600 -->
      <g transform="translate(259.276692 322.182437) scale(0.1 -0.1)">
       <defs>
        <path id="DejaVuSans-36" d="M 2113 2584 
Q 1688 2584 1439 2293 
Q 1191 2003 1191 1497 
Q 1191 994 1439 701 
Q 1688 409 2113 409 
Q 2538 409 2786 701 
Q 3034 994 3034 1497 
Q 3034 2003 2786 2293 
Q 2538 2584 2113 2584 
z
M 3366 4563 
L 3366 3988 
Q 3128 4100 2886 4159 
Q 2644 4219 2406 4219 
Q 1781 4219 1451 3797 
Q 1122 3375 1075 2522 
Q 1259 2794 1537 2939 
Q 1816 3084 2150 3084 
Q 2853 3084 3261 2657 
Q 3669 2231 3669 1497 
Q 3669 778 3244 343 
Q 2819 -91 2113 -91 
Q 1303 -91 875 529 
Q 447 1150 447 2328 
Q 447 3434 972 4092 
Q 1497 4750 2381 4750 
Q 2619 4750 2861 4703 
Q 3103 4656 3366 4563 
z
" transform="scale(0.015625)"/>
       </defs>
       <use xlink:href="#DejaVuSans-36"/>
       <use xlink:href="#DejaVuSans-30" x="63.623047"/>
       <use xlink:href="#DejaVuSans-30" x="127.246094"/>
      </g>
     </g>
    </g>
    <g id="xtick_5">
     <g id="line2d_5">
      <g>
       <use xlink:href="#m5cd0114f28" x="333.816347" y="307.584" style="stroke: #000000; stroke-width: 0.8"/>
      </g>
     </g>
     <g id="text_5">
      <!-- 800 -->
      <g transform="translate(324.272597 322.182437) scale(0.1 -0.1)">
       <defs>
        <path id="DejaVuSans-38" d="M 2034 2216 
Q 1584 2216 1326 1975 
Q 1069 1734 1069 1313 
Q 1069 891 1326 650 
Q 1584 409 2034 409 
Q 2484 409 2743 651 
Q 3003 894 3003 1313 
Q 3003 1734 2745 1975 
Q 2488 2216 2034 2216 
z
M 1403 2484 
Q 997 2584 770 2862 
Q 544 3141 544 3541 
Q 544 4100 942 4425 
Q 1341 4750 2034 4750 
Q 2731 4750 3128 4425 
Q 3525 4100 3525 3541 
Q 3525 3141 3298 2862 
Q 3072 2584 2669 2484 
Q 3125 2378 3379 2068 
Q 3634 1759 3634 1313 
Q 3634 634 3220 271 
Q 2806 -91 2034 -91 
Q 1263 -91 848 271 
Q 434 634 434 1313 
Q 434 1759 690 2068 
Q 947 2378 1403 2484 
z
M 1172 3481 
Q 1172 3119 1398 2916 
Q 1625 2713 2034 2713 
Q 2441 2713 2670 2916 
Q 2900 3119 2900 3481 
Q 2900 3844 2670 4047 
Q 2441 4250 2034 4250 
Q 1625 4250 1398 4047 
Q 1172 3844 1172 3481 
z
" transform="scale(0.015625)"/>
       </defs>
       <use xlink:href="#DejaVuSans-38"/>
       <use xlink:href="#DejaVuSans-30" x="63.623047"/>
       <use xlink:href="#DejaVuSans-30" x="127.246094"/>
      </g>
     </g>
    </g>
    <g id="xtick_6">
     <g id="line2d_6">
      <g>
       <use xlink:href="#m5cd0114f28" x="398.812252" y="307.584" style="stroke: #000000; stroke-width: 0.8"/>
      </g>
     </g>
     <g id="text_6">
      <!-- 1000 -->
      <g transform="translate(386.087252 322.182437) scale(0.1 -0.1)">
       <defs>
        <path id="DejaVuSans-31" d="M 794 531 
L 1825 531 
L 1825 4091 
L 703 3866 
L 703 4441 
L 1819 4666 
L 2450 4666 
L 2450 531 
L 3481 531 
L 3481 0 
L 794 0 
L 794 531 
z
" transform="scale(0.015625)"/>
       </defs>
       <use xlink:href="#DejaVuSans-31"/>
       <use xlink:href="#DejaVuSans-30" x="63.623047"/>
       <use xlink:href="#DejaVuSans-30" x="127.246094"/>
       <use xlink:href="#DejaVuSans-30" x="190.869141"/>
      </g>
     </g>
    </g>
   </g>
   <g id="matplotlib.axis_2">
    <g id="ytick_1">
     <g id="line2d_7">
      <defs>
       <path id="mf7ba32e8f1" d="M 0 0 
L -3.5 0 
" style="stroke: #000000; stroke-width: 0.8"/>
      </defs>
      <g>
       <use xlink:href="#mf7ba32e8f1" x="57.6" y="288.877316" style="stroke: #000000; stroke-width: 0.8"/>
      </g>
     </g>
     <g id="text_7">
      <!-- 0 -->
      <g transform="translate(44.2375 292.676535) scale(0.1 -0.1)">
       <use xlink:href="#DejaVuSans-30"/>
      </g>
     </g>
    </g>
    <g id="ytick_2">
     <g id="line2d_8">
      <g>
       <use xlink:href="#mf7ba32e8f1" x="57.6" y="230.832342" style="stroke: #000000; stroke-width: 0.8"/>
      </g>
     </g>
     <g id="text_8">
      <!-- 1 -->
      <g transform="translate(44.2375 234.631561) scale(0.1 -0.1)">
       <use xlink:href="#DejaVuSans-31"/>
      </g>
     </g>
    </g>
    <g id="ytick_3">
     <g id="line2d_9">
      <g>
       <use xlink:href="#mf7ba32e8f1" x="57.6" y="172.787367" style="stroke: #000000; stroke-width: 0.8"/>
      </g>
     </g>
     <g id="text_9">
      <!-- 2 -->
      <g transform="translate(44.2375 176.586586) scale(0.1 -0.1)">
       <use xlink:href="#DejaVuSans-32"/>
      </g>
     </g>
    </g>
    <g id="ytick_4">
     <g id="line2d_10">
      <g>
       <use xlink:href="#mf7ba32e8f1" x="57.6" y="114.742392" style="stroke: #000000; stroke-width: 0.8"/>
      </g>
     </g>
     <g id="text_10">
      <!-- 3 -->
      <g transform="translate(44.2375 118.541611) scale(0.1 -0.1)">
       <defs>
        <path id="DejaVuSans-33" d="M 2597 2516 
Q 3050 2419 3304 2112 
Q 3559 1806 3559 1356 
Q 3559 666 3084 287 
Q 2609 -91 1734 -91 
Q 1441 -91 1130 -33 
Q 819 25 488 141 
L 488 750 
Q 750 597 1062 519 
Q 1375 441 1716 441 
Q 2309 441 2620 675 
Q 2931 909 2931 1356 
Q 2931 1769 2642 2001 
Q 2353 2234 1838 2234 
L 1294 2234 
L 1294 2753 
L 1863 2753 
Q 2328 2753 2575 2939 
Q 2822 3125 2822 3475 
Q 2822 3834 2567 4026 
Q 2313 4219 1838 4219 
Q 1578 4219 1281 4162 
Q 984 4106 628 3988 
L 628 4550 
Q 988 4650 1302 4700 
Q 1616 4750 1894 4750 
Q 2613 4750 3031 4423 
Q 3450 4097 3450 3541 
Q 3450 3153 3228 2886 
Q 3006 2619 2597 2516 
z
" transform="scale(0.015625)"/>
       </defs>
       <use xlink:href="#DejaVuSans-33"/>
      </g>
     </g>
    </g>
    <g id="ytick_5">
     <g id="line2d_11">
      <g>
       <use xlink:href="#mf7ba32e8f1" x="57.6" y="56.697418" style="stroke: #000000; stroke-width: 0.8"/>
      </g>
     </g>
     <g id="text_11">
      <!-- 4 -->
      <g transform="translate(44.2375 60.496637) scale(0.1 -0.1)">
       <use xlink:href="#DejaVuSans-34"/>
      </g>
     </g>
    </g>
   </g>
   <g id="line2d_12">
    <path d="M 73.832727 227.127723 
L 74.157707 224.383151 
L 74.482686 228.362352 
L 74.807666 223.885746 
L 75.132645 223.50739 
L 75.457625 226.733787 
L 75.782604 223.169662 
L 76.107584 222.057116 
L 76.432563 220.155393 
L 76.757543 219.556196 
L 77.082523 223.62115 
L 77.407502 219.112081 
L 77.732482 219.902151 
L 78.70742 217.134168 
L 79.0324 216.348131 
L 79.357379 216.93843 
L 79.682359 215.989137 
L 80.007338 215.404506 
L 80.332318 218.177145 
L 80.657297 216.806311 
L 81.307256 211.895502 
L 81.632236 212.285736 
L 81.957215 214.850722 
L 82.282195 212.147185 
L 82.607174 212.036469 
L 82.932154 214.34965 
L 83.257133 209.287483 
L 83.582113 209.852905 
L 84.232072 207.746958 
L 84.557052 208.419629 
L 84.882031 207.268501 
L 85.207011 207.178484 
L 85.53199 208.598729 
L 85.85697 207.975945 
L 86.181949 205.587152 
L 86.506929 206.663165 
L 86.831908 209.687386 
L 87.156888 204.712316 
L 87.481867 208.454729 
L 87.806847 207.66991 
L 88.131826 205.490984 
L 88.456806 209.425633 
L 88.781785 209.028945 
L 89.106765 203.950318 
L 89.431744 204.579365 
L 89.756724 208.520484 
L 90.081704 208.736309 
L 90.406683 206.458185 
L 90.731663 205.92521 
L 91.056642 209.000994 
L 91.381622 206.50554 
L 91.706601 206.268067 
L 92.031581 203.927184 
L 92.35656 203.838219 
L 92.68154 203.490399 
L 93.006519 205.978619 
L 93.331499 206.845021 
L 93.656478 207.394883 
L 93.981458 209.713558 
L 94.631417 204.578457 
L 94.956396 208.730347 
L 95.281376 206.107701 
L 95.606355 205.838614 
L 95.931335 205.295347 
L 96.256314 205.986368 
L 96.581294 211.163248 
L 96.906274 209.243392 
L 97.231253 206.134375 
L 97.556233 211.867684 
L 97.881212 210.19422 
L 98.206192 207.583507 
L 98.531171 212.101315 
L 98.856151 212.347366 
L 99.18113 211.086727 
L 99.50611 212.802754 
L 99.831089 213.654734 
L 100.156069 210.856442 
L 100.481048 210.998027 
L 100.806028 210.646581 
L 101.131007 211.576324 
L 101.455987 213.808942 
L 101.780966 211.90428 
L 102.105946 211.271886 
L 102.430925 215.45419 
L 102.755905 213.974963 
L 103.080885 211.594171 
L 103.405864 214.248788 
L 103.730844 215.885351 
L 104.380803 217.84332 
L 104.705782 215.897545 
L 105.030762 215.519425 
L 105.355741 216.239036 
L 105.680721 219.217683 
L 106.0057 219.154131 
L 106.33068 218.052343 
L 106.655659 217.930468 
L 106.980639 219.946301 
L 107.305618 216.805462 
L 107.630598 217.136273 
L 107.955577 219.681273 
L 108.280557 216.968222 
L 108.605536 217.673015 
L 108.930516 216.834213 
L 109.255495 219.055537 
L 109.905455 221.231263 
L 110.230434 216.724453 
L 110.555414 218.37817 
L 110.880393 217.214001 
L 111.205373 222.486679 
L 111.530352 219.263744 
L 111.855332 217.708492 
L 112.180311 220.52542 
L 112.505291 220.009691 
L 112.83027 218.503076 
L 113.15525 222.121689 
L 113.480229 222.068064 
L 113.805209 219.635111 
L 114.130188 218.546321 
L 114.455168 221.249618 
L 114.780147 217.470724 
L 115.105127 217.662132 
L 115.430106 219.479422 
L 115.755086 218.520661 
L 116.080066 221.753739 
L 116.405045 219.44352 
L 116.730025 220.216933 
L 117.055004 221.799455 
L 117.379984 216.520747 
L 117.704963 220.024305 
L 118.029943 219.522245 
L 118.354922 218.659819 
L 118.679902 218.765637 
L 119.004881 217.001783 
L 119.329861 220.328272 
L 119.65484 218.255727 
L 119.97982 219.361037 
L 120.629779 219.056731 
L 120.954758 218.107075 
L 121.279738 215.212966 
L 121.604717 218.136714 
L 121.929697 214.638194 
L 122.254676 214.06264 
L 122.579656 212.51526 
L 122.904636 213.945432 
L 123.229615 213.399376 
L 123.554595 212.586838 
L 123.879574 213.620363 
L 124.204554 213.308351 
L 124.529533 210.562625 
L 124.854513 210.426711 
L 125.179492 213.413471 
L 125.504472 208.168685 
L 125.829451 208.644297 
L 126.154431 211.710876 
L 126.47941 209.158222 
L 126.80439 207.935244 
L 127.129369 206.273069 
L 127.454349 207.056754 
L 127.779328 209.601808 
L 128.429287 203.760093 
L 128.754267 204.444066 
L 129.079247 205.94939 
L 129.404226 206.644643 
L 130.054185 203.983513 
L 130.379165 205.341877 
L 130.704144 201.036782 
L 131.029124 203.293471 
L 131.354103 201.796422 
L 131.679083 201.647492 
L 132.004062 202.951834 
L 132.329042 201.476447 
L 132.654021 201.637289 
L 132.979001 198.285625 
L 133.30398 199.370773 
L 133.62896 199.627827 
L 133.953939 201.568158 
L 134.278919 195.874063 
L 134.603898 200.83273 
L 134.928878 195.238672 
L 135.253857 195.910253 
L 135.578837 199.451285 
L 135.903817 195.906266 
L 136.228796 194.407517 
L 136.553776 198.320513 
L 136.878755 196.68774 
L 137.203735 197.971786 
L 137.528714 197.801963 
L 137.853694 195.092123 
L 138.178673 196.647448 
L 138.503653 194.63485 
L 138.828632 196.189152 
L 139.153612 196.436152 
L 139.478591 196.904248 
L 139.803571 196.784777 
L 140.12855 196.175587 
L 140.45353 191.722105 
L 140.778509 192.824774 
L 141.103489 191.464061 
L 141.428468 196.381032 
L 141.753448 191.533282 
L 142.078428 191.182188 
L 142.403407 193.608775 
L 142.728387 193.75844 
L 143.053366 191.551154 
L 143.378346 194.215687 
L 143.703325 194.767876 
L 144.028305 196.499312 
L 144.353284 196.381612 
L 144.678264 192.342662 
L 145.003243 191.204933 
L 145.328223 192.201655 
L 145.653202 194.843323 
L 145.978182 193.742284 
L 146.628141 197.359272 
L 146.95312 197.22098 
L 147.2781 194.227113 
L 147.603079 195.688489 
L 147.928059 192.88712 
L 148.253038 193.014626 
L 148.578018 196.771883 
L 148.902998 197.890179 
L 149.227977 196.485592 
L 149.552957 197.644094 
L 149.877936 195.259093 
L 150.202916 198.381759 
L 150.527895 195.169415 
L 150.852875 198.733737 
L 151.177854 197.734815 
L 151.502834 200.374458 
L 151.827813 198.081216 
L 152.152793 198.157204 
L 152.477772 196.069123 
L 152.802752 198.340558 
L 153.127731 198.812773 
L 153.452711 198.819993 
L 153.77769 201.770804 
L 154.10267 198.471488 
L 154.427649 197.785879 
L 154.752629 203.669143 
L 155.077609 203.656929 
L 155.402588 200.752952 
L 155.727568 199.356437 
L 156.052547 202.784847 
L 156.377527 204.400174 
L 156.702506 203.06336 
L 157.027486 205.197818 
L 157.352465 202.878784 
L 157.677445 201.45334 
L 158.002424 206.271343 
L 158.652383 204.167126 
L 158.977363 205.217673 
L 159.302342 204.557261 
L 159.627322 204.86696 
L 159.952301 205.770395 
L 160.277281 202.668308 
L 160.60226 207.109958 
L 160.92724 204.356381 
L 161.252219 205.200505 
L 161.577199 204.891653 
L 161.902179 206.198813 
L 162.227158 206.774766 
L 162.552138 208.431121 
L 162.877117 208.181836 
L 163.202097 203.417198 
L 163.527076 207.314345 
L 163.852056 204.473002 
L 164.177035 207.643135 
L 164.502015 207.978819 
L 164.826994 205.970937 
L 165.151974 205.352022 
L 165.476953 203.702816 
L 165.801933 207.513197 
L 166.126912 203.938647 
L 166.451892 204.527679 
L 166.776871 203.630402 
L 167.101851 205.622277 
L 167.75181 206.11995 
L 168.07679 202.655658 
L 168.401769 202.708927 
L 168.726749 204.189519 
L 169.051728 201.92006 
L 169.376708 205.389121 
L 169.701687 202.300406 
L 170.026667 205.937772 
L 170.351646 201.54946 
L 170.676626 202.213223 
L 171.001605 200.548308 
L 171.326585 201.679 
L 171.651564 203.721752 
L 171.976544 202.339774 
L 172.301523 201.855353 
L 172.626503 199.744317 
L 172.951482 200.14566 
L 173.276462 197.516231 
L 173.926421 200.400427 
L 174.2514 199.583885 
L 174.57638 200.188503 
L 174.90136 196.711232 
L 175.226339 198.032945 
L 175.551319 196.787421 
L 175.876298 194.415842 
L 176.201278 194.977596 
L 176.526257 192.429029 
L 176.851237 193.9524 
L 177.176216 191.569598 
L 177.501196 191.145048 
L 177.826175 189.807446 
L 178.151155 189.958705 
L 178.476134 188.712866 
L 178.801114 189.332491 
L 179.126093 190.298168 
L 179.451073 185.727479 
L 179.776052 190.509751 
L 180.101032 186.382291 
L 180.426011 186.441944 
L 180.750991 183.99339 
L 181.075971 185.313079 
L 181.40095 183.984764 
L 181.72593 185.969402 
L 182.050909 181.925133 
L 182.375889 182.482041 
L 182.700868 180.537974 
L 183.025848 182.474695 
L 183.350827 179.536514 
L 183.675807 179.529896 
L 184.000786 178.915487 
L 184.325766 180.724611 
L 184.650745 175.796266 
L 184.975725 176.844526 
L 185.625684 173.596122 
L 185.950663 177.089702 
L 186.275643 171.891923 
L 186.600622 171.958015 
L 187.250581 172.925318 
L 187.575561 169.989342 
L 187.900541 169.790843 
L 188.22552 168.59512 
L 188.5505 170.219319 
L 188.875479 167.168723 
L 189.200459 171.265349 
L 189.525438 166.312578 
L 189.850418 167.010547 
L 190.175397 168.121285 
L 190.500377 168.662975 
L 190.825356 166.099922 
L 191.150336 165.339759 
L 191.475315 163.039591 
L 191.800295 164.45756 
L 192.125274 164.372281 
L 192.450254 164.651458 
L 192.775233 165.793229 
L 193.100213 164.12545 
L 193.425192 163.079554 
L 193.750172 163.707539 
L 194.075152 159.661573 
L 194.400131 158.864027 
L 194.725111 160.708088 
L 195.05009 163.748875 
L 195.37507 162.354424 
L 195.700049 163.085274 
L 196.025029 159.272645 
L 196.350008 158.413771 
L 196.674988 161.095938 
L 196.999967 159.70605 
L 197.324947 160.422935 
L 197.649926 160.332404 
L 197.974906 160.791931 
L 198.624865 160.444177 
L 198.949844 157.886905 
L 199.274824 160.18594 
L 200.249762 156.425031 
L 200.574742 159.88624 
L 200.899722 158.092204 
L 201.224701 160.562048 
L 201.549681 159.057312 
L 201.87466 160.049137 
L 202.19964 160.135825 
L 202.524619 160.433074 
L 202.849599 158.099579 
L 203.174578 156.743298 
L 203.499558 158.949697 
L 203.824537 162.090578 
L 204.149517 159.502518 
L 204.474496 159.106871 
L 204.799476 162.968566 
L 205.124455 159.895107 
L 205.449435 159.902039 
L 205.774414 162.763163 
L 206.099394 159.368738 
L 206.424373 161.227671 
L 206.749353 163.921987 
L 207.074333 161.391579 
L 207.724292 164.155929 
L 208.049271 161.992403 
L 208.374251 162.98685 
L 208.69923 163.526323 
L 209.02421 161.696641 
L 209.349189 166.409853 
L 209.674169 164.748946 
L 209.999148 164.989227 
L 210.324128 167.024189 
L 210.649107 163.35148 
L 210.974087 164.602251 
L 211.299066 167.261252 
L 211.624046 165.281756 
L 211.949025 166.325195 
L 212.274005 165.080782 
L 212.598984 168.622593 
L 212.923964 165.757227 
L 213.248943 165.620033 
L 213.573923 167.490498 
L 213.898903 166.970453 
L 214.223882 170.702308 
L 214.548862 167.731115 
L 214.873841 166.122049 
L 215.198821 166.518191 
L 215.84878 169.434074 
L 216.173759 166.335051 
L 216.498739 167.231071 
L 216.823718 171.527609 
L 217.148698 167.071128 
L 217.473677 168.149327 
L 217.798657 168.740045 
L 218.123636 168.103365 
L 218.448616 172.790271 
L 218.773595 168.39042 
L 219.098575 169.675085 
L 219.423554 173.082262 
L 219.748534 170.250537 
L 220.073514 173.087764 
L 220.398493 171.787214 
L 220.723473 172.189136 
L 221.373432 169.302004 
L 221.698411 172.455865 
L 222.023391 168.55843 
L 222.34837 167.662218 
L 222.67335 170.628283 
L 222.998329 168.913654 
L 223.323309 169.595195 
L 223.648288 172.218971 
L 223.973268 168.096463 
L 224.298247 172.207401 
L 224.623227 166.496931 
L 224.948206 171.121216 
L 225.273186 169.612125 
L 225.598165 166.419679 
L 225.923145 170.551996 
L 226.573104 165.269311 
L 226.898084 164.794598 
L 227.223063 164.522851 
L 227.548043 168.728539 
L 227.873022 165.65139 
L 228.198002 163.874548 
L 228.522981 163.512294 
L 228.847961 167.972844 
L 229.49792 162.333756 
L 229.822899 166.842282 
L 230.147879 161.462737 
L 230.472858 163.746105 
L 230.797838 161.396371 
L 231.447797 164.489136 
L 231.772776 163.792635 
L 232.097756 161.860149 
L 232.422735 160.786099 
L 232.747715 161.011354 
L 233.072695 157.644705 
L 233.397674 161.251215 
L 233.722654 160.213365 
L 234.047633 157.515058 
L 234.372613 156.811231 
L 234.697592 157.069421 
L 235.022572 159.610545 
L 235.347551 155.08936 
L 235.672531 158.319499 
L 235.99751 154.434051 
L 236.32249 153.214678 
L 236.647469 155.335062 
L 236.972449 156.612752 
L 237.297428 155.289145 
L 237.947387 153.779074 
L 238.272367 150.141947 
L 238.597346 150.7619 
L 238.922326 149.397507 
L 239.247305 149.269488 
L 239.572285 152.693591 
L 239.897265 151.976897 
L 240.547224 147.8995 
L 240.872203 146.63465 
L 241.197183 146.086152 
L 241.522162 146.861759 
L 241.847142 146.344763 
L 242.172121 144.017291 
L 242.497101 147.591556 
L 242.82208 144.07724 
L 243.14706 146.561825 
L 243.472039 142.878005 
L 243.797019 144.593338 
L 244.121998 142.827973 
L 244.446978 144.625253 
L 244.771957 144.565125 
L 245.096937 145.207723 
L 245.421916 140.447357 
L 245.746896 142.386952 
L 246.071876 143.37779 
L 246.396855 143.632058 
L 246.721835 139.829674 
L 247.046814 140.220306 
L 247.371794 141.348829 
L 247.696773 139.51941 
L 248.021753 143.853034 
L 248.346732 142.871794 
L 248.671712 139.286089 
L 248.996691 141.702953 
L 249.64665 139.04161 
L 249.97163 139.260116 
L 250.296609 142.219287 
L 250.621589 141.882336 
L 250.946568 138.998493 
L 251.271548 142.666825 
L 251.596527 139.663801 
L 251.921507 142.914201 
L 252.246486 139.319694 
L 252.571466 138.772552 
L 253.221425 142.410279 
L 253.546405 141.990011 
L 253.871384 140.991738 
L 254.196364 139.121032 
L 254.521343 143.010662 
L 254.846323 142.968687 
L 255.171302 138.751414 
L 255.496282 141.921082 
L 255.821261 142.418825 
L 256.146241 139.354003 
L 256.47122 143.48566 
L 256.7962 138.775286 
L 257.121179 141.924731 
L 257.446159 139.271653 
L 257.771138 143.386987 
L 258.096118 141.412044 
L 258.421097 144.469949 
L 258.746077 144.982114 
L 259.071057 140.537833 
L 259.396036 145.288682 
L 259.721016 144.044619 
L 260.045995 144.467292 
L 260.370975 145.600076 
L 260.695954 144.829701 
L 261.020934 142.214693 
L 261.345913 145.959317 
L 261.670893 143.787491 
L 261.995872 147.819309 
L 262.320852 148.140071 
L 262.970811 147.362114 
L 263.29579 145.928975 
L 263.62077 149.095018 
L 264.270729 146.445537 
L 264.595708 147.955003 
L 264.920688 148.736294 
L 265.245667 147.142116 
L 265.895627 150.03204 
L 266.220606 148.639119 
L 266.545586 148.7957 
L 266.870565 151.593278 
L 267.195545 147.969972 
L 267.520524 148.797756 
L 267.845504 148.024421 
L 268.170483 148.034014 
L 268.495463 149.543418 
L 268.820442 152.122288 
L 269.145422 152.11573 
L 269.470401 151.565802 
L 269.795381 148.152606 
L 270.12036 147.410603 
L 270.44534 152.932786 
L 270.770319 147.89783 
L 271.420278 150.257671 
L 271.745258 148.836376 
L 272.070238 150.307539 
L 272.395217 149.892301 
L 272.720197 147.920261 
L 273.045176 152.628435 
L 273.370156 152.487553 
L 273.695135 147.606191 
L 274.020115 149.356377 
L 274.345094 152.366642 
L 274.670074 147.075713 
L 274.995053 147.045454 
L 275.320033 148.320613 
L 275.645012 151.979198 
L 275.969992 150.874641 
L 276.294971 151.578065 
L 276.619951 149.642373 
L 276.94493 146.422148 
L 277.26991 146.966945 
L 277.594889 149.63246 
L 277.919869 147.089378 
L 278.244848 147.879222 
L 278.569828 144.15081 
L 278.894808 146.079346 
L 279.219787 145.811782 
L 279.544767 143.196695 
L 279.869746 146.81018 
L 280.194726 143.76522 
L 280.519705 145.463093 
L 280.844685 145.692496 
L 281.169664 142.489803 
L 281.494644 141.375215 
L 281.819623 142.900122 
L 282.144603 140.559779 
L 282.469582 142.050031 
L 283.119541 139.708467 
L 283.444521 139.270902 
L 283.7695 137.130753 
L 284.09448 136.030512 
L 284.419459 139.67618 
L 284.744439 135.511146 
L 285.069419 136.021167 
L 285.394398 135.27804 
L 285.719378 132.740094 
L 286.044357 134.153251 
L 286.694316 130.178431 
L 287.019296 133.248098 
L 287.344275 128.432823 
L 287.669255 131.209757 
L 287.994234 127.724561 
L 288.319214 126.367119 
L 288.644193 126.803903 
L 288.969173 130.070824 
L 289.619132 125.193973 
L 289.944111 125.351797 
L 290.269091 123.394217 
L 290.59407 124.48474 
L 290.91905 124.6709 
L 291.244029 123.372223 
L 291.569009 123.544396 
L 291.893989 122.582534 
L 292.218968 119.45733 
L 292.543948 122.415283 
L 292.868927 118.654095 
L 293.193907 119.005033 
L 293.518886 117.970039 
L 293.843866 116.455266 
L 294.168845 116.858046 
L 294.493825 113.201297 
L 294.818804 113.256037 
L 295.468763 115.626733 
L 295.793743 114.565948 
L 296.118722 109.766527 
L 296.443702 112.939481 
L 296.768681 110.07075 
L 297.093661 111.849962 
L 297.41864 106.919274 
L 297.74362 108.719376 
L 298.0686 105.872578 
L 298.393579 109.571783 
L 298.718559 110.021365 
L 299.043538 109.286618 
L 299.368518 105.515604 
L 299.693497 104.694431 
L 300.018477 102.571986 
L 300.343456 104.892991 
L 300.668436 104.575479 
L 300.993415 101.337706 
L 301.318395 103.101624 
L 301.643374 102.36491 
L 301.968354 103.298554 
L 302.293333 103.368808 
L 302.618313 99.317756 
L 302.943292 104.248942 
L 303.268272 104.158027 
L 303.593251 99.506341 
L 303.918231 103.216393 
L 304.24321 98.708388 
L 304.56819 99.984626 
L 304.89317 98.507316 
L 305.218149 99.778733 
L 305.543129 97.939769 
L 305.868108 102.080235 
L 306.193088 101.486889 
L 306.518067 101.816545 
L 306.843047 98.43862 
L 307.168026 97.438439 
L 307.493006 96.880592 
L 307.817985 99.057723 
L 308.142965 98.1799 
L 308.467944 100.014089 
L 308.792924 98.279252 
L 309.117903 99.011267 
L 309.442883 97.490166 
L 309.767862 98.903936 
L 310.092842 101.541082 
L 310.417821 100.561152 
L 310.742801 97.343408 
L 311.067781 97.101777 
L 311.39276 99.77352 
L 311.71774 98.490243 
L 312.042719 98.71534 
L 312.367699 100.162493 
L 312.692678 97.474195 
L 313.017658 98.953895 
L 313.342637 98.313066 
L 313.667617 98.307565 
L 313.992596 100.666711 
L 314.317576 101.583369 
L 314.642555 99.354543 
L 314.967535 100.948838 
L 315.292514 98.410144 
L 315.617494 101.546208 
L 315.942473 102.084155 
L 316.267453 99.898808 
L 316.592432 101.793811 
L 316.917412 102.054137 
L 317.242391 104.676692 
L 317.567371 104.722753 
L 318.21733 101.055656 
L 318.54231 102.970747 
L 318.867289 103.288061 
L 319.517248 101.380084 
L 319.842228 104.473369 
L 320.167207 103.375651 
L 320.492187 102.678818 
L 320.817166 106.524022 
L 321.142146 107.539422 
L 321.467125 103.896819 
L 321.792105 104.506814 
L 322.117084 105.481969 
L 322.442064 103.515747 
L 322.767043 105.723406 
L 323.092023 104.851697 
L 323.417002 107.684418 
L 323.741982 104.842809 
L 324.391941 108.505593 
L 325.0419 106.419131 
L 325.36688 109.966091 
L 325.691859 104.57663 
L 326.016839 110.127076 
L 326.341818 105.055825 
L 326.666798 105.723492 
L 326.991777 109.13656 
L 327.316757 106.173413 
L 327.641736 108.044783 
L 327.966716 109.177797 
L 328.291695 109.814923 
L 328.941654 105.080154 
L 329.591613 108.544197 
L 329.916593 109.415172 
L 330.241572 106.293707 
L 330.566552 105.68835 
L 330.891532 107.246938 
L 331.216511 107.72241 
L 331.541491 104.782745 
L 331.86647 104.581263 
L 332.19145 104.794788 
L 332.516429 108.950256 
L 332.841409 108.734203 
L 333.166388 108.214559 
L 333.491368 104.029474 
L 333.816347 104.771091 
L 334.141327 102.945669 
L 334.466306 106.531302 
L 334.791286 106.273284 
L 335.116265 102.455316 
L 335.766224 105.936231 
L 336.091204 103.724727 
L 336.416183 100.580231 
L 337.066143 104.104739 
L 337.391122 99.127178 
L 337.716102 99.663481 
L 338.041081 102.999906 
L 338.366061 101.031755 
L 338.69104 102.643588 
L 339.01602 97.79944 
L 339.340999 100.704588 
L 339.665979 100.17878 
L 339.990958 98.942981 
L 340.315938 100.174077 
L 340.965897 95.219277 
L 341.290876 94.654435 
L 341.615856 93.20207 
L 341.940835 94.461548 
L 342.265815 96.570477 
L 342.590794 91.942511 
L 342.915774 92.036549 
L 343.240753 93.773089 
L 343.565733 93.243494 
L 343.890713 90.435377 
L 344.215692 91.902697 
L 344.540672 91.057302 
L 344.865651 87.941459 
L 345.190631 89.228356 
L 345.51561 89.876101 
L 345.84059 86.835747 
L 346.165569 89.718447 
L 346.490549 89.845453 
L 346.815528 86.02055 
L 347.140508 87.436996 
L 347.465487 86.029047 
L 347.790467 86.454444 
L 348.115446 84.182846 
L 348.440426 85.127447 
L 348.765405 81.037469 
L 349.090385 80.850152 
L 349.415364 81.425656 
L 349.740344 79.839694 
L 350.065324 79.423678 
L 350.390303 79.735756 
L 350.715283 83.399 
L 351.365242 81.806474 
L 351.690221 77.068826 
L 352.015201 80.561315 
L 352.34018 76.798556 
L 352.66516 78.188863 
L 352.990139 80.886832 
L 353.315119 76.909426 
L 353.640098 79.168902 
L 353.965078 74.98856 
L 354.290057 77.770544 
L 354.615037 75.331139 
L 354.940016 74.07806 
L 355.264996 75.493811 
L 355.589975 78.472381 
L 356.239934 74.891886 
L 356.564914 73.137348 
L 356.889894 76.497368 
L 357.214873 76.737036 
L 357.539853 71.801931 
L 357.864832 76.348145 
L 358.189812 72.053384 
L 358.514791 74.404155 
L 358.839771 74.057611 
L 359.16475 73.52606 
L 359.48973 72.300496 
L 359.814709 74.17537 
L 360.139689 72.70932 
L 360.464668 72.968454 
L 361.114627 74.592605 
L 361.439607 71.858289 
L 361.764586 76.49812 
L 362.089566 75.499971 
L 362.414545 71.644719 
L 362.739525 73.560633 
L 363.064505 72.657615 
L 363.389484 72.673244 
L 363.714464 71.699592 
L 364.039443 71.80431 
L 364.364423 74.774601 
L 364.689402 74.719165 
L 365.014382 76.496469 
L 365.339361 76.106148 
L 365.664341 76.205751 
L 365.98932 76.721864 
L 366.3143 72.776039 
L 366.639279 72.725247 
L 366.964259 77.528537 
L 367.289238 73.89773 
L 367.614218 73.398929 
L 367.939197 73.372403 
L 368.264177 75.586119 
L 368.589156 76.173113 
L 368.914136 74.759052 
L 369.239115 78.960773 
L 369.564095 78.275847 
L 369.889075 75.023541 
L 370.214054 77.465819 
L 370.539034 78.894325 
L 370.864013 79.532247 
L 371.188993 77.089146 
L 371.513972 79.873844 
L 371.838952 77.758739 
L 372.163931 81.120264 
L 372.81389 76.936026 
L 373.13887 80.587046 
L 373.463849 81.829381 
L 373.788829 77.316264 
L 374.113808 77.448916 
L 374.438788 80.762038 
L 374.763767 77.657831 
L 375.088747 82.148046 
L 375.413726 79.088427 
L 375.738706 83.184742 
L 376.063686 81.010934 
L 376.388665 82.681637 
L 376.713645 80.348673 
L 377.038624 83.499239 
L 377.363604 83.849807 
L 378.013563 80.181166 
L 378.338542 83.756497 
L 378.663522 80.15067 
L 378.988501 79.372648 
L 379.313481 80.920314 
L 379.63846 84.466449 
L 379.96344 83.669896 
L 380.288419 81.004161 
L 380.613399 84.233597 
L 380.938378 79.902785 
L 381.263358 84.01235 
L 381.588337 82.737643 
L 381.913317 80.7017 
L 382.238296 83.272002 
L 382.563276 80.892376 
L 382.888256 83.438427 
L 383.213235 81.802536 
L 383.538215 77.746717 
L 383.863194 80.070444 
L 384.188174 78.939673 
L 384.513153 79.10677 
L 384.838133 82.04596 
L 385.163112 81.246433 
L 385.488092 76.029711 
L 385.813071 77.565545 
L 386.138051 75.717079 
L 386.46303 77.126377 
L 386.78801 74.998303 
L 387.112989 77.905539 
L 387.762948 74.981823 
L 388.087928 78.216841 
L 388.412907 73.729178 
L 388.737887 74.716444 
L 389.062867 76.257036 
L 389.387846 70.404682 
L 389.712826 71.190003 
L 390.037805 71.617918 
L 390.362785 73.798121 
L 390.687764 73.288411 
L 391.012744 71.45518 
L 391.337723 68.333271 
L 391.662703 67.721718 
L 391.987682 69.386174 
L 392.312662 66.351992 
L 392.637641 68.80591 
L 392.962621 65.526374 
L 393.2876 67.567687 
L 393.61258 63.546079 
L 393.937559 63.090431 
L 394.262539 64.62897 
L 394.587518 60.689982 
L 394.912498 62.455479 
L 395.237477 59.838418 
L 395.562457 60.159365 
L 396.212416 58.2314 
L 396.537396 60.968735 
L 396.862375 57.110092 
L 397.187355 57.896133 
L 397.512334 56.666259 
L 397.837314 53.568 
L 398.487273 56.137531 
L 398.487273 56.137531 
" clip-path="url(#p15a57f6613)" style="fill: none; stroke: #1f77b4; stroke-width: 1.5; stroke-linecap: square"/>
   </g>
   <g id="line2d_13">
    <path d="M 73.832727 220.699315 
L 81.957215 218.094382 
L 111.205373 208.771691 
L 129.729206 202.980333 
L 138.178673 200.096453 
L 146.628141 196.974546 
L 156.052547 193.238338 
L 168.726749 187.94978 
L 184.975725 180.932102 
L 200.249762 174.092802 
L 221.048452 164.49951 
L 235.99751 157.451899 
L 235.99751 157.451899 
" clip-path="url(#p15a57f6613)" style="fill: none; stroke: #ff7f0e; stroke-width: 1.5; stroke-linecap: square"/>
   </g>
   <g id="line2d_14">
    <path d="M 73.832727 292.569615 
L 77.732482 290.549114 
L 81.307256 288.819722 
L 83.907093 287.828298 
L 86.181949 287.221292 
L 88.131826 286.929051 
L 90.081704 286.86283 
L 92.031581 287.019773 
L 93.981458 287.387019 
L 96.256314 288.045171 
L 99.18113 289.159343 
L 107.630598 292.608563 
L 109.905455 293.217005 
L 111.855332 293.534005 
L 113.805209 293.636183 
L 115.755086 293.511453 
L 117.704963 293.16134 
L 119.65484 292.598087 
L 121.929697 291.705686 
L 124.854513 290.279088 
L 133.62896 285.738172 
L 135.903817 284.910786 
L 137.853694 284.422824 
L 139.803571 284.168941 
L 141.753448 284.164976 
L 143.703325 284.413817 
L 145.653202 284.905736 
L 147.603079 285.617486 
L 149.877936 286.679728 
L 152.802752 288.30069 
L 159.627322 292.211157 
L 161.902179 293.237427 
L 163.852056 293.905613 
L 165.801933 294.34133 
L 167.75181 294.520774 
L 169.376708 294.465939 
L 171.326585 294.156212 
L 173.276462 293.59378 
L 175.226339 292.80513 
L 177.501196 291.650542 
L 180.750991 289.713089 
L 186.600622 286.166555 
L 188.875479 285.045833 
L 190.825356 284.296295 
L 192.775233 283.781709 
L 194.725111 283.528401 
L 196.350008 283.526485 
L 197.974906 283.715045 
L 199.924783 284.182035 
L 201.87466 284.888248 
L 204.149517 285.966707 
L 207.074333 287.637365 
L 214.223882 291.892396 
L 216.498739 292.943199 
L 218.448616 293.619709 
L 220.398493 294.052168 
L 222.023391 294.209648 
L 223.648288 294.175818 
L 225.273186 293.951909 
L 227.223063 293.44364 
L 229.17294 292.698615 
L 231.447797 291.580729 
L 234.372613 289.872053 
L 235.99751 288.856243 
L 235.99751 288.856243 
" clip-path="url(#p15a57f6613)" style="fill: none; stroke: #2ca02c; stroke-width: 1.5; stroke-linecap: square"/>
   </g>
   <g id="line2d_15">
    <path d="M 73.832727 283.957706 
L 77.407502 281.751151 
L 79.682359 280.64914 
L 81.632236 279.972448 
L 83.257133 279.63133 
L 84.882031 279.507555 
L 86.506929 279.607278 
L 88.131826 279.936333 
L 89.756724 280.490176 
L 91.381622 281.253427 
L 93.331499 282.419062 
L 95.606355 284.059291 
L 98.856151 286.737901 
L 104.380803 291.328528 
L 106.655659 292.915404 
L 108.605536 294.019407 
L 110.230434 294.721467 
L 111.855332 295.203683 
L 113.480229 295.452792 
L 115.105127 295.463723 
L 116.730025 295.240113 
L 118.354922 294.792951 
L 120.304799 293.986916 
L 122.254676 292.929638 
L 124.854513 291.230279 
L 133.953939 284.954372 
L 135.903817 283.998896 
L 137.853694 283.30585 
L 139.478591 282.954052 
L 141.103489 282.820685 
L 142.728387 282.909445 
L 144.353284 283.21675 
L 145.978182 283.730976 
L 147.928059 284.593491 
L 150.202916 285.880465 
L 153.127731 287.836908 
L 159.627322 292.308541 
L 161.902179 293.554194 
L 163.852056 294.372843 
L 165.476953 294.847031 
L 167.101851 295.11379 
L 168.726749 295.16278 
L 170.351646 294.992526 
L 171.976544 294.608392 
L 173.926421 293.884478 
L 175.876298 292.90797 
L 178.151155 291.515959 
L 181.40095 289.239003 
L 186.275643 285.827156 
L 188.5505 284.497374 
L 190.500377 283.591442 
L 192.450254 282.949469 
L 194.075152 282.640067 
L 195.700049 282.547447 
L 197.324947 282.67466 
L 198.949844 283.016351 
L 200.574742 283.559618 
L 202.524619 284.449962 
L 204.799476 285.758939 
L 207.724292 287.726165 
L 213.573923 291.75272 
L 215.84878 293.039232 
L 217.798657 293.906174 
L 219.748534 294.508928 
L 221.373432 294.78752 
L 222.998329 294.852013 
L 224.623227 294.700618 
L 226.248124 294.339044 
L 228.198002 293.64725 
L 230.147879 292.707813 
L 232.422735 291.364568 
L 235.99751 288.939354 
L 235.99751 288.939354 
" clip-path="url(#p15a57f6613)" style="fill: none; stroke: #d62728; stroke-width: 1.5; stroke-linecap: square"/>
   </g>
   <g id="patch_3">
    <path d="M 57.6 307.584 
L 57.6 41.472 
" style="fill: none; stroke: #000000; stroke-width: 0.8; stroke-linejoin: miter; stroke-linecap: square"/>
   </g>
   <g id="patch_4">
    <path d="M 414.72 307.584 
L 414.72 41.472 
" style="fill: none; stroke: #000000; stroke-width: 0.8; stroke-linejoin: miter; stroke-linecap: square"/>
   </g>
   <g id="patch_5">
    <path d="M 57.6 307.584 
L 414.72 307.584 
" style="fill: none; stroke: #000000; stroke-width: 0.8; stroke-linejoin: miter; stroke-linecap: square"/>
   </g>
   <g id="patch_6">
    <path d="M 57.6 41.472 
L 414.72 41.472 
" style="fill: none; stroke: #000000; stroke-width: 0.8; stroke-linejoin: miter; stroke-linecap: square"/>
   </g>
   <g id="text_12">
    <!-- Serie timp descompusa cu SSA, L = 500 -->
    <g transform="translate(115.290937 35.472) scale(0.12 -0.12)">
     <defs>
      <path id="DejaVuSans-53" d="M 3425 4513 
L 3425 3897 
Q 3066 4069 2747 4153 
Q 2428 4238 2131 4238 
Q 1616 4238 1336 4038 
Q 1056 3838 1056 3469 
Q 1056 3159 1242 3001 
Q 1428 2844 1947 2747 
L 2328 2669 
Q 3034 2534 3370 2195 
Q 3706 1856 3706 1288 
Q 3706 609 3251 259 
Q 2797 -91 1919 -91 
Q 1588 -91 1214 -16 
Q 841 59 441 206 
L 441 856 
Q 825 641 1194 531 
Q 1563 422 1919 422 
Q 2459 422 2753 634 
Q 3047 847 3047 1241 
Q 3047 1584 2836 1778 
Q 2625 1972 2144 2069 
L 1759 2144 
Q 1053 2284 737 2584 
Q 422 2884 422 3419 
Q 422 4038 858 4394 
Q 1294 4750 2059 4750 
Q 2388 4750 2728 4690 
Q 3069 4631 3425 4513 
z
" transform="scale(0.015625)"/>
      <path id="DejaVuSans-65" d="M 3597 1894 
L 3597 1613 
L 953 1613 
Q 991 1019 1311 708 
Q 1631 397 2203 397 
Q 2534 397 2845 478 
Q 3156 559 3463 722 
L 3463 178 
Q 3153 47 2828 -22 
Q 2503 -91 2169 -91 
Q 1331 -91 842 396 
Q 353 884 353 1716 
Q 353 2575 817 3079 
Q 1281 3584 2069 3584 
Q 2775 3584 3186 3129 
Q 3597 2675 3597 1894 
z
M 3022 2063 
Q 3016 2534 2758 2815 
Q 2500 3097 2075 3097 
Q 1594 3097 1305 2825 
Q 1016 2553 972 2059 
L 3022 2063 
z
" transform="scale(0.015625)"/>
      <path id="DejaVuSans-72" d="M 2631 2963 
Q 2534 3019 2420 3045 
Q 2306 3072 2169 3072 
Q 1681 3072 1420 2755 
Q 1159 2438 1159 1844 
L 1159 0 
L 581 0 
L 581 3500 
L 1159 3500 
L 1159 2956 
Q 1341 3275 1631 3429 
Q 1922 3584 2338 3584 
Q 2397 3584 2469 3576 
Q 2541 3569 2628 3553 
L 2631 2963 
z
" transform="scale(0.015625)"/>
      <path id="DejaVuSans-69" d="M 603 3500 
L 1178 3500 
L 1178 0 
L 603 0 
L 603 3500 
z
M 603 4863 
L 1178 4863 
L 1178 4134 
L 603 4134 
L 603 4863 
z
" transform="scale(0.015625)"/>
      <path id="DejaVuSans-20" transform="scale(0.015625)"/>
      <path id="DejaVuSans-74" d="M 1172 4494 
L 1172 3500 
L 2356 3500 
L 2356 3053 
L 1172 3053 
L 1172 1153 
Q 1172 725 1289 603 
Q 1406 481 1766 481 
L 2356 481 
L 2356 0 
L 1766 0 
Q 1100 0 847 248 
Q 594 497 594 1153 
L 594 3053 
L 172 3053 
L 172 3500 
L 594 3500 
L 594 4494 
L 1172 4494 
z
" transform="scale(0.015625)"/>
      <path id="DejaVuSans-6d" d="M 3328 2828 
Q 3544 3216 3844 3400 
Q 4144 3584 4550 3584 
Q 5097 3584 5394 3201 
Q 5691 2819 5691 2113 
L 5691 0 
L 5113 0 
L 5113 2094 
Q 5113 2597 4934 2840 
Q 4756 3084 4391 3084 
Q 3944 3084 3684 2787 
Q 3425 2491 3425 1978 
L 3425 0 
L 2847 0 
L 2847 2094 
Q 2847 2600 2669 2842 
Q 2491 3084 2119 3084 
Q 1678 3084 1418 2786 
Q 1159 2488 1159 1978 
L 1159 0 
L 581 0 
L 581 3500 
L 1159 3500 
L 1159 2956 
Q 1356 3278 1631 3431 
Q 1906 3584 2284 3584 
Q 2666 3584 2933 3390 
Q 3200 3197 3328 2828 
z
" transform="scale(0.015625)"/>
      <path id="DejaVuSans-70" d="M 1159 525 
L 1159 -1331 
L 581 -1331 
L 581 3500 
L 1159 3500 
L 1159 2969 
Q 1341 3281 1617 3432 
Q 1894 3584 2278 3584 
Q 2916 3584 3314 3078 
Q 3713 2572 3713 1747 
Q 3713 922 3314 415 
Q 2916 -91 2278 -91 
Q 1894 -91 1617 61 
Q 1341 213 1159 525 
z
M 3116 1747 
Q 3116 2381 2855 2742 
Q 2594 3103 2138 3103 
Q 1681 3103 1420 2742 
Q 1159 2381 1159 1747 
Q 1159 1113 1420 752 
Q 1681 391 2138 391 
Q 2594 391 2855 752 
Q 3116 1113 3116 1747 
z
" transform="scale(0.015625)"/>
      <path id="DejaVuSans-64" d="M 2906 2969 
L 2906 4863 
L 3481 4863 
L 3481 0 
L 2906 0 
L 2906 525 
Q 2725 213 2448 61 
Q 2172 -91 1784 -91 
Q 1150 -91 751 415 
Q 353 922 353 1747 
Q 353 2572 751 3078 
Q 1150 3584 1784 3584 
Q 2172 3584 2448 3432 
Q 2725 3281 2906 2969 
z
M 947 1747 
Q 947 1113 1208 752 
Q 1469 391 1925 391 
Q 2381 391 2643 752 
Q 2906 1113 2906 1747 
Q 2906 2381 2643 2742 
Q 2381 3103 1925 3103 
Q 1469 3103 1208 2742 
Q 947 2381 947 1747 
z
" transform="scale(0.015625)"/>
      <path id="DejaVuSans-73" d="M 2834 3397 
L 2834 2853 
Q 2591 2978 2328 3040 
Q 2066 3103 1784 3103 
Q 1356 3103 1142 2972 
Q 928 2841 928 2578 
Q 928 2378 1081 2264 
Q 1234 2150 1697 2047 
L 1894 2003 
Q 2506 1872 2764 1633 
Q 3022 1394 3022 966 
Q 3022 478 2636 193 
Q 2250 -91 1575 -91 
Q 1294 -91 989 -36 
Q 684 19 347 128 
L 347 722 
Q 666 556 975 473 
Q 1284 391 1588 391 
Q 1994 391 2212 530 
Q 2431 669 2431 922 
Q 2431 1156 2273 1281 
Q 2116 1406 1581 1522 
L 1381 1569 
Q 847 1681 609 1914 
Q 372 2147 372 2553 
Q 372 3047 722 3315 
Q 1072 3584 1716 3584 
Q 2034 3584 2315 3537 
Q 2597 3491 2834 3397 
z
" transform="scale(0.015625)"/>
      <path id="DejaVuSans-63" d="M 3122 3366 
L 3122 2828 
Q 2878 2963 2633 3030 
Q 2388 3097 2138 3097 
Q 1578 3097 1268 2742 
Q 959 2388 959 1747 
Q 959 1106 1268 751 
Q 1578 397 2138 397 
Q 2388 397 2633 464 
Q 2878 531 3122 666 
L 3122 134 
Q 2881 22 2623 -34 
Q 2366 -91 2075 -91 
Q 1284 -91 818 406 
Q 353 903 353 1747 
Q 353 2603 823 3093 
Q 1294 3584 2113 3584 
Q 2378 3584 2631 3529 
Q 2884 3475 3122 3366 
z
" transform="scale(0.015625)"/>
      <path id="DejaVuSans-6f" d="M 1959 3097 
Q 1497 3097 1228 2736 
Q 959 2375 959 1747 
Q 959 1119 1226 758 
Q 1494 397 1959 397 
Q 2419 397 2687 759 
Q 2956 1122 2956 1747 
Q 2956 2369 2687 2733 
Q 2419 3097 1959 3097 
z
M 1959 3584 
Q 2709 3584 3137 3096 
Q 3566 2609 3566 1747 
Q 3566 888 3137 398 
Q 2709 -91 1959 -91 
Q 1206 -91 779 398 
Q 353 888 353 1747 
Q 353 2609 779 3096 
Q 1206 3584 1959 3584 
z
" transform="scale(0.015625)"/>
      <path id="DejaVuSans-75" d="M 544 1381 
L 544 3500 
L 1119 3500 
L 1119 1403 
Q 1119 906 1312 657 
Q 1506 409 1894 409 
Q 2359 409 2629 706 
Q 2900 1003 2900 1516 
L 2900 3500 
L 3475 3500 
L 3475 0 
L 2900 0 
L 2900 538 
Q 2691 219 2414 64 
Q 2138 -91 1772 -91 
Q 1169 -91 856 284 
Q 544 659 544 1381 
z
M 1991 3584 
L 1991 3584 
z
" transform="scale(0.015625)"/>
      <path id="DejaVuSans-61" d="M 2194 1759 
Q 1497 1759 1228 1600 
Q 959 1441 959 1056 
Q 959 750 1161 570 
Q 1363 391 1709 391 
Q 2188 391 2477 730 
Q 2766 1069 2766 1631 
L 2766 1759 
L 2194 1759 
z
M 3341 1997 
L 3341 0 
L 2766 0 
L 2766 531 
Q 2569 213 2275 61 
Q 1981 -91 1556 -91 
Q 1019 -91 701 211 
Q 384 513 384 1019 
Q 384 1609 779 1909 
Q 1175 2209 1959 2209 
L 2766 2209 
L 2766 2266 
Q 2766 2663 2505 2880 
Q 2244 3097 1772 3097 
Q 1472 3097 1187 3025 
Q 903 2953 641 2809 
L 641 3341 
Q 956 3463 1253 3523 
Q 1550 3584 1831 3584 
Q 2591 3584 2966 3190 
Q 3341 2797 3341 1997 
z
" transform="scale(0.015625)"/>
      <path id="DejaVuSans-41" d="M 2188 4044 
L 1331 1722 
L 3047 1722 
L 2188 4044 
z
M 1831 4666 
L 2547 4666 
L 4325 0 
L 3669 0 
L 3244 1197 
L 1141 1197 
L 716 0 
L 50 0 
L 1831 4666 
z
" transform="scale(0.015625)"/>
      <path id="DejaVuSans-2c" d="M 750 794 
L 1409 794 
L 1409 256 
L 897 -744 
L 494 -744 
L 750 256 
L 750 794 
z
" transform="scale(0.015625)"/>
      <path id="DejaVuSans-4c" d="M 628 4666 
L 1259 4666 
L 1259 531 
L 3531 531 
L 3531 0 
L 628 0 
L 628 4666 
z
" transform="scale(0.015625)"/>
      <path id="DejaVuSans-3d" d="M 678 2906 
L 4684 2906 
L 4684 2381 
L 678 2381 
L 678 2906 
z
M 678 1631 
L 4684 1631 
L 4684 1100 
L 678 1100 
L 678 1631 
z
" transform="scale(0.015625)"/>
      <path id="DejaVuSans-35" d="M 691 4666 
L 3169 4666 
L 3169 4134 
L 1269 4134 
L 1269 2991 
Q 1406 3038 1543 3061 
Q 1681 3084 1819 3084 
Q 2600 3084 3056 2656 
Q 3513 2228 3513 1497 
Q 3513 744 3044 326 
Q 2575 -91 1722 -91 
Q 1428 -91 1123 -41 
Q 819 9 494 109 
L 494 744 
Q 775 591 1075 516 
Q 1375 441 1709 441 
Q 2250 441 2565 725 
Q 2881 1009 2881 1497 
Q 2881 1984 2565 2268 
Q 2250 2553 1709 2553 
Q 1456 2553 1204 2497 
Q 953 2441 691 2322 
L 691 4666 
z
" transform="scale(0.015625)"/>
     </defs>
     <use xlink:href="#DejaVuSans-53"/>
     <use xlink:href="#DejaVuSans-65" x="63.476562"/>
     <use xlink:href="#DejaVuSans-72" x="125"/>
     <use xlink:href="#DejaVuSans-69" x="166.113281"/>
     <use xlink:href="#DejaVuSans-65" x="193.896484"/>
     <use xlink:href="#DejaVuSans-20" x="255.419922"/>
     <use xlink:href="#DejaVuSans-74" x="287.207031"/>
     <use xlink:href="#DejaVuSans-69" x="326.416016"/>
     <use xlink:href="#DejaVuSans-6d" x="354.199219"/>
     <use xlink:href="#DejaVuSans-70" x="451.611328"/>
     <use xlink:href="#DejaVuSans-20" x="515.087891"/>
     <use xlink:href="#DejaVuSans-64" x="546.875"/>
     <use xlink:href="#DejaVuSans-65" x="610.351562"/>
     <use xlink:href="#DejaVuSans-73" x="671.875"/>
     <use xlink:href="#DejaVuSans-63" x="723.974609"/>
     <use xlink:href="#DejaVuSans-6f" x="778.955078"/>
     <use xlink:href="#DejaVuSans-6d" x="840.136719"/>
     <use xlink:href="#DejaVuSans-70" x="937.548828"/>
     <use xlink:href="#DejaVuSans-75" x="1001.025391"/>
     <use xlink:href="#DejaVuSans-73" x="1064.404297"/>
     <use xlink:href="#DejaVuSans-61" x="1116.503906"/>
     <use xlink:href="#DejaVuSans-20" x="1177.783203"/>
     <use xlink:href="#DejaVuSans-63" x="1209.570312"/>
     <use xlink:href="#DejaVuSans-75" x="1264.550781"/>
     <use xlink:href="#DejaVuSans-20" x="1327.929688"/>
     <use xlink:href="#DejaVuSans-53" x="1359.716797"/>
     <use xlink:href="#DejaVuSans-53" x="1423.193359"/>
     <use xlink:href="#DejaVuSans-41" x="1488.544922"/>
     <use xlink:href="#DejaVuSans-2c" x="1556.953125"/>
     <use xlink:href="#DejaVuSans-20" x="1588.740234"/>
     <use xlink:href="#DejaVuSans-4c" x="1620.527344"/>
     <use xlink:href="#DejaVuSans-20" x="1676.240234"/>
     <use xlink:href="#DejaVuSans-3d" x="1708.027344"/>
     <use xlink:href="#DejaVuSans-20" x="1791.816406"/>
     <use xlink:href="#DejaVuSans-35" x="1823.603516"/>
     <use xlink:href="#DejaVuSans-30" x="1887.226562"/>
     <use xlink:href="#DejaVuSans-30" x="1950.849609"/>
    </g>
   </g>
   <g id="legend_1">
    <g id="patch_7">
     <path d="M 64.6 108.1845 
L 214.703125 108.1845 
Q 216.703125 108.1845 216.703125 106.1845 
L 216.703125 48.472 
Q 216.703125 46.472 214.703125 46.472 
L 64.6 46.472 
Q 62.6 46.472 62.6 48.472 
L 62.6 106.1845 
Q 62.6 108.1845 64.6 108.1845 
z
" style="fill: #ffffff; opacity: 0.8; stroke: #cccccc; stroke-linejoin: miter"/>
    </g>
    <g id="line2d_16">
     <path d="M 66.6 54.570438 
L 76.6 54.570438 
L 86.6 54.570438 
" style="fill: none; stroke: #1f77b4; stroke-width: 1.5; stroke-linecap: square"/>
    </g>
    <g id="text_13">
     <!-- Serie timp originala -->
     <g transform="translate(94.6 58.070438) scale(0.1 -0.1)">
      <defs>
       <path id="DejaVuSans-67" d="M 2906 1791 
Q 2906 2416 2648 2759 
Q 2391 3103 1925 3103 
Q 1463 3103 1205 2759 
Q 947 2416 947 1791 
Q 947 1169 1205 825 
Q 1463 481 1925 481 
Q 2391 481 2648 825 
Q 2906 1169 2906 1791 
z
M 3481 434 
Q 3481 -459 3084 -895 
Q 2688 -1331 1869 -1331 
Q 1566 -1331 1297 -1286 
Q 1028 -1241 775 -1147 
L 775 -588 
Q 1028 -725 1275 -790 
Q 1522 -856 1778 -856 
Q 2344 -856 2625 -561 
Q 2906 -266 2906 331 
L 2906 616 
Q 2728 306 2450 153 
Q 2172 0 1784 0 
Q 1141 0 747 490 
Q 353 981 353 1791 
Q 353 2603 747 3093 
Q 1141 3584 1784 3584 
Q 2172 3584 2450 3431 
Q 2728 3278 2906 2969 
L 2906 3500 
L 3481 3500 
L 3481 434 
z
" transform="scale(0.015625)"/>
       <path id="DejaVuSans-6e" d="M 3513 2113 
L 3513 0 
L 2938 0 
L 2938 2094 
Q 2938 2591 2744 2837 
Q 2550 3084 2163 3084 
Q 1697 3084 1428 2787 
Q 1159 2491 1159 1978 
L 1159 0 
L 581 0 
L 581 3500 
L 1159 3500 
L 1159 2956 
Q 1366 3272 1645 3428 
Q 1925 3584 2291 3584 
Q 2894 3584 3203 3211 
Q 3513 2838 3513 2113 
z
" transform="scale(0.015625)"/>
       <path id="DejaVuSans-6c" d="M 603 4863 
L 1178 4863 
L 1178 0 
L 603 0 
L 603 4863 
z
" transform="scale(0.015625)"/>
      </defs>
      <use xlink:href="#DejaVuSans-53"/>
      <use xlink:href="#DejaVuSans-65" x="63.476562"/>
      <use xlink:href="#DejaVuSans-72" x="125"/>
      <use xlink:href="#DejaVuSans-69" x="166.113281"/>
      <use xlink:href="#DejaVuSans-65" x="193.896484"/>
      <use xlink:href="#DejaVuSans-20" x="255.419922"/>
      <use xlink:href="#DejaVuSans-74" x="287.207031"/>
      <use xlink:href="#DejaVuSans-69" x="326.416016"/>
      <use xlink:href="#DejaVuSans-6d" x="354.199219"/>
      <use xlink:href="#DejaVuSans-70" x="451.611328"/>
      <use xlink:href="#DejaVuSans-20" x="515.087891"/>
      <use xlink:href="#DejaVuSans-6f" x="546.875"/>
      <use xlink:href="#DejaVuSans-72" x="608.056641"/>
      <use xlink:href="#DejaVuSans-69" x="649.169922"/>
      <use xlink:href="#DejaVuSans-67" x="676.953125"/>
      <use xlink:href="#DejaVuSans-69" x="740.429688"/>
      <use xlink:href="#DejaVuSans-6e" x="768.212891"/>
      <use xlink:href="#DejaVuSans-61" x="831.591797"/>
      <use xlink:href="#DejaVuSans-6c" x="892.871094"/>
      <use xlink:href="#DejaVuSans-61" x="920.654297"/>
     </g>
    </g>
    <g id="line2d_17">
     <path d="M 66.6 69.248563 
L 76.6 69.248563 
L 86.6 69.248563 
" style="fill: none; stroke: #ff7f0e; stroke-width: 1.5; stroke-linecap: square"/>
    </g>
    <g id="text_14">
     <!-- Componenta de ordin 1 -->
     <g transform="translate(94.6 72.748563) scale(0.1 -0.1)">
      <defs>
       <path id="DejaVuSans-43" d="M 4122 4306 
L 4122 3641 
Q 3803 3938 3442 4084 
Q 3081 4231 2675 4231 
Q 1875 4231 1450 3742 
Q 1025 3253 1025 2328 
Q 1025 1406 1450 917 
Q 1875 428 2675 428 
Q 3081 428 3442 575 
Q 3803 722 4122 1019 
L 4122 359 
Q 3791 134 3420 21 
Q 3050 -91 2638 -91 
Q 1578 -91 968 557 
Q 359 1206 359 2328 
Q 359 3453 968 4101 
Q 1578 4750 2638 4750 
Q 3056 4750 3426 4639 
Q 3797 4528 4122 4306 
z
" transform="scale(0.015625)"/>
      </defs>
      <use xlink:href="#DejaVuSans-43"/>
      <use xlink:href="#DejaVuSans-6f" x="69.824219"/>
      <use xlink:href="#DejaVuSans-6d" x="131.005859"/>
      <use xlink:href="#DejaVuSans-70" x="228.417969"/>
      <use xlink:href="#DejaVuSans-6f" x="291.894531"/>
      <use xlink:href="#DejaVuSans-6e" x="353.076172"/>
      <use xlink:href="#DejaVuSans-65" x="416.455078"/>
      <use xlink:href="#DejaVuSans-6e" x="477.978516"/>
      <use xlink:href="#DejaVuSans-74" x="541.357422"/>
      <use xlink:href="#DejaVuSans-61" x="580.566406"/>
      <use xlink:href="#DejaVuSans-20" x="641.845703"/>
      <use xlink:href="#DejaVuSans-64" x="673.632812"/>
      <use xlink:href="#DejaVuSans-65" x="737.109375"/>
      <use xlink:href="#DejaVuSans-20" x="798.632812"/>
      <use xlink:href="#DejaVuSans-6f" x="830.419922"/>
      <use xlink:href="#DejaVuSans-72" x="891.601562"/>
      <use xlink:href="#DejaVuSans-64" x="930.964844"/>
      <use xlink:href="#DejaVuSans-69" x="994.441406"/>
      <use xlink:href="#DejaVuSans-6e" x="1022.224609"/>
      <use xlink:href="#DejaVuSans-20" x="1085.603516"/>
      <use xlink:href="#DejaVuSans-31" x="1117.390625"/>
     </g>
    </g>
    <g id="line2d_18">
     <path d="M 66.6 83.926688 
L 76.6 83.926688 
L 86.6 83.926688 
" style="fill: none; stroke: #2ca02c; stroke-width: 1.5; stroke-linecap: square"/>
    </g>
    <g id="text_15">
     <!-- Componenta de ordin 2 -->
     <g transform="translate(94.6 87.426688) scale(0.1 -0.1)">
      <use xlink:href="#DejaVuSans-43"/>
      <use xlink:href="#DejaVuSans-6f" x="69.824219"/>
      <use xlink:href="#DejaVuSans-6d" x="131.005859"/>
      <use xlink:href="#DejaVuSans-70" x="228.417969"/>
      <use xlink:href="#DejaVuSans-6f" x="291.894531"/>
      <use xlink:href="#DejaVuSans-6e" x="353.076172"/>
      <use xlink:href="#DejaVuSans-65" x="416.455078"/>
      <use xlink:href="#DejaVuSans-6e" x="477.978516"/>
      <use xlink:href="#DejaVuSans-74" x="541.357422"/>
      <use xlink:href="#DejaVuSans-61" x="580.566406"/>
      <use xlink:href="#DejaVuSans-20" x="641.845703"/>
      <use xlink:href="#DejaVuSans-64" x="673.632812"/>
      <use xlink:href="#DejaVuSans-65" x="737.109375"/>
      <use xlink:href="#DejaVuSans-20" x="798.632812"/>
      <use xlink:href="#DejaVuSans-6f" x="830.419922"/>
      <use xlink:href="#DejaVuSans-72" x="891.601562"/>
      <use xlink:href="#DejaVuSans-64" x="930.964844"/>
      <use xlink:href="#DejaVuSans-69" x="994.441406"/>
      <use xlink:href="#DejaVuSans-6e" x="1022.224609"/>
      <use xlink:href="#DejaVuSans-20" x="1085.603516"/>
      <use xlink:href="#DejaVuSans-32" x="1117.390625"/>
     </g>
    </g>
    <g id="line2d_19">
     <path d="M 66.6 98.604813 
L 76.6 98.604813 
L 86.6 98.604813 
" style="fill: none; stroke: #d62728; stroke-width: 1.5; stroke-linecap: square"/>
    </g>
    <g id="text_16">
     <!-- Componenta de ordin 3 -->
     <g transform="translate(94.6 102.104813) scale(0.1 -0.1)">
      <use xlink:href="#DejaVuSans-43"/>
      <use xlink:href="#DejaVuSans-6f" x="69.824219"/>
      <use xlink:href="#DejaVuSans-6d" x="131.005859"/>
      <use xlink:href="#DejaVuSans-70" x="228.417969"/>
      <use xlink:href="#DejaVuSans-6f" x="291.894531"/>
      <use xlink:href="#DejaVuSans-6e" x="353.076172"/>
      <use xlink:href="#DejaVuSans-65" x="416.455078"/>
      <use xlink:href="#DejaVuSans-6e" x="477.978516"/>
      <use xlink:href="#DejaVuSans-74" x="541.357422"/>
      <use xlink:href="#DejaVuSans-61" x="580.566406"/>
      <use xlink:href="#DejaVuSans-20" x="641.845703"/>
      <use xlink:href="#DejaVuSans-64" x="673.632812"/>
      <use xlink:href="#DejaVuSans-65" x="737.109375"/>
      <use xlink:href="#DejaVuSans-20" x="798.632812"/>
      <use xlink:href="#DejaVuSans-6f" x="830.419922"/>
      <use xlink:href="#DejaVuSans-72" x="891.601562"/>
      <use xlink:href="#DejaVuSans-64" x="930.964844"/>
      <use xlink:href="#DejaVuSans-69" x="994.441406"/>
      <use xlink:href="#DejaVuSans-6e" x="1022.224609"/>
      <use xlink:href="#DejaVuSans-20" x="1085.603516"/>
      <use xlink:href="#DejaVuSans-33" x="1117.390625"/>
     </g>
    </g>
   </g>
  </g>
 </g>
 <defs>
  <clipPath id="p15a57f6613">
   <rect x="57.6" y="41.472" width="357.12" height="266.112"/>
  </clipPath>
 </defs>
</svg>
