<?xml version="1.0" encoding="utf-8" standalone="no"?>
<!DOCTYPE svg PUBLIC "-//W3C//DTD SVG 1.1//EN"
  "http://www.w3.org/Graphics/SVG/1.1/DTD/svg11.dtd">
<svg xmlns:xlink="http://www.w3.org/1999/xlink" width="460.8pt" height="345.6pt" viewBox="0 0 460.8 345.6" xmlns="http://www.w3.org/2000/svg" version="1.1">
 <metadata>
  <rdf:RDF xmlns:dc="http://purl.org/dc/elements/1.1/" xmlns:cc="http://creativecommons.org/ns#" xmlns:rdf="http://www.w3.org/1999/02/22-rdf-syntax-ns#">
   <cc:Work>
    <dc:type rdf:resource="http://purl.org/dc/dcmitype/StillImage"/>
    <dc:date>2024-12-27T17:25:50.519426</dc:date>
    <dc:format>image/svg+xml</dc:format>
    <dc:creator>
     <cc:Agent>
      <dc:title>Matplotlib v3.9.2, https://matplotlib.org/</dc:title>
     </cc:Agent>
    </dc:creator>
   </cc:Work>
  </rdf:RDF>
 </metadata>
 <defs>
  <style type="text/css">*{stroke-linejoin: round; stroke-linecap: butt}</style>
 </defs>
 <g id="figure_1">
  <g id="patch_1">
   <path d="M 0 345.6 
L 460.8 345.6 
L 460.8 0 
L 0 0 
z
" style="fill: #ffffff"/>
  </g>
  <g id="axes_1">
   <g id="patch_2">
    <path d="M 57.6 307.584 
L 414.72 307.584 
L 414.72 41.472 
L 57.6 41.472 
z
" style="fill: #ffffff"/>
   </g>
   <g id="matplotlib.axis_1">
    <g id="xtick_1">
     <g id="line2d_1">
      <defs>
       <path id="m79b06d999e" d="M 0 0 
L 0 3.5 
" style="stroke: #000000; stroke-width: 0.8"/>
      </defs>
      <g>
       <use xlink:href="#m79b06d999e" x="73.832727" y="307.584" style="stroke: #000000; stroke-width: 0.8"/>
      </g>
     </g>
     <g id="text_1">
      <!-- 0 -->
      <g transform="translate(70.651477 322.182437) scale(0.1 -0.1)">
       <defs>
        <path id="DejaVuSans-30" d="M 2034 4250 
Q 1547 4250 1301 3770 
Q 1056 3291 1056 2328 
Q 1056 1369 1301 889 
Q 1547 409 2034 409 
Q 2525 409 2770 889 
Q 3016 1369 3016 2328 
Q 3016 3291 2770 3770 
Q 2525 4250 2034 4250 
z
M 2034 4750 
Q 2819 4750 3233 4129 
Q 3647 3509 3647 2328 
Q 3647 1150 3233 529 
Q 2819 -91 2034 -91 
Q 1250 -91 836 529 
Q 422 1150 422 2328 
Q 422 3509 836 4129 
Q 1250 4750 2034 4750 
z
" transform="scale(0.015625)"/>
       </defs>
       <use xlink:href="#DejaVuSans-30"/>
      </g>
     </g>
    </g>
    <g id="xtick_2">
     <g id="line2d_2">
      <g>
       <use xlink:href="#m79b06d999e" x="138.828632" y="307.584" style="stroke: #000000; stroke-width: 0.8"/>
      </g>
     </g>
     <g id="text_2">
      <!-- 200 -->
      <g transform="translate(129.284882 322.182437) scale(0.1 -0.1)">
       <defs>
        <path id="DejaVuSans-32" d="M 1228 531 
L 3431 531 
L 3431 0 
L 469 0 
L 469 531 
Q 828 903 1448 1529 
Q 2069 2156 2228 2338 
Q 2531 2678 2651 2914 
Q 2772 3150 2772 3378 
Q 2772 3750 2511 3984 
Q 2250 4219 1831 4219 
Q 1534 4219 1204 4116 
Q 875 4013 500 3803 
L 500 4441 
Q 881 4594 1212 4672 
Q 1544 4750 1819 4750 
Q 2544 4750 2975 4387 
Q 3406 4025 3406 3419 
Q 3406 3131 3298 2873 
Q 3191 2616 2906 2266 
Q 2828 2175 2409 1742 
Q 1991 1309 1228 531 
z
" transform="scale(0.015625)"/>
       </defs>
       <use xlink:href="#DejaVuSans-32"/>
       <use xlink:href="#DejaVuSans-30" x="63.623047"/>
       <use xlink:href="#DejaVuSans-30" x="127.246094"/>
      </g>
     </g>
    </g>
    <g id="xtick_3">
     <g id="line2d_3">
      <g>
       <use xlink:href="#m79b06d999e" x="203.824537" y="307.584" style="stroke: #000000; stroke-width: 0.8"/>
      </g>
     </g>
     <g id="text_3">
      <!-- 400 -->
      <g transform="translate(194.280787 322.182437) scale(0.1 -0.1)">
       <defs>
        <path id="DejaVuSans-34" d="M 2419 4116 
L 825 1625 
L 2419 1625 
L 2419 4116 
z
M 2253 4666 
L 3047 4666 
L 3047 1625 
L 3713 1625 
L 3713 1100 
L 3047 1100 
L 3047 0 
L 2419 0 
L 2419 1100 
L 313 1100 
L 313 1709 
L 2253 4666 
z
" transform="scale(0.015625)"/>
       </defs>
       <use xlink:href="#DejaVuSans-34"/>
       <use xlink:href="#DejaVuSans-30" x="63.623047"/>
       <use xlink:href="#DejaVuSans-30" x="127.246094"/>
      </g>
     </g>
    </g>
    <g id="xtick_4">
     <g id="line2d_4">
      <g>
       <use xlink:href="#m79b06d999e" x="268.820442" y="307.584" style="stroke: #000000; stroke-width: 0.8"/>
      </g>
     </g>
     <g id="text_4">
      <!-- 600 -->
      <g transform="translate(259.276692 322.182437) scale(0.1 -0.1)">
       <defs>
        <path id="DejaVuSans-36" d="M 2113 2584 
Q 1688 2584 1439 2293 
Q 1191 2003 1191 1497 
Q 1191 994 1439 701 
Q 1688 409 2113 409 
Q 2538 409 2786 701 
Q 3034 994 3034 1497 
Q 3034 2003 2786 2293 
Q 2538 2584 2113 2584 
z
M 3366 4563 
L 3366 3988 
Q 3128 4100 2886 4159 
Q 2644 4219 2406 4219 
Q 1781 4219 1451 3797 
Q 1122 3375 1075 2522 
Q 1259 2794 1537 2939 
Q 1816 3084 2150 3084 
Q 2853 3084 3261 2657 
Q 3669 2231 3669 1497 
Q 3669 778 3244 343 
Q 2819 -91 2113 -91 
Q 1303 -91 875 529 
Q 447 1150 447 2328 
Q 447 3434 972 4092 
Q 1497 4750 2381 4750 
Q 2619 4750 2861 4703 
Q 3103 4656 3366 4563 
z
" transform="scale(0.015625)"/>
       </defs>
       <use xlink:href="#DejaVuSans-36"/>
       <use xlink:href="#DejaVuSans-30" x="63.623047"/>
       <use xlink:href="#DejaVuSans-30" x="127.246094"/>
      </g>
     </g>
    </g>
    <g id="xtick_5">
     <g id="line2d_5">
      <g>
       <use xlink:href="#m79b06d999e" x="333.816347" y="307.584" style="stroke: #000000; stroke-width: 0.8"/>
      </g>
     </g>
     <g id="text_5">
      <!-- 800 -->
      <g transform="translate(324.272597 322.182437) scale(0.1 -0.1)">
       <defs>
        <path id="DejaVuSans-38" d="M 2034 2216 
Q 1584 2216 1326 1975 
Q 1069 1734 1069 1313 
Q 1069 891 1326 650 
Q 1584 409 2034 409 
Q 2484 409 2743 651 
Q 3003 894 3003 1313 
Q 3003 1734 2745 1975 
Q 2488 2216 2034 2216 
z
M 1403 2484 
Q 997 2584 770 2862 
Q 544 3141 544 3541 
Q 544 4100 942 4425 
Q 1341 4750 2034 4750 
Q 2731 4750 3128 4425 
Q 3525 4100 3525 3541 
Q 3525 3141 3298 2862 
Q 3072 2584 2669 2484 
Q 3125 2378 3379 2068 
Q 3634 1759 3634 1313 
Q 3634 634 3220 271 
Q 2806 -91 2034 -91 
Q 1263 -91 848 271 
Q 434 634 434 1313 
Q 434 1759 690 2068 
Q 947 2378 1403 2484 
z
M 1172 3481 
Q 1172 3119 1398 2916 
Q 1625 2713 2034 2713 
Q 2441 2713 2670 2916 
Q 2900 3119 2900 3481 
Q 2900 3844 2670 4047 
Q 2441 4250 2034 4250 
Q 1625 4250 1398 4047 
Q 1172 3844 1172 3481 
z
" transform="scale(0.015625)"/>
       </defs>
       <use xlink:href="#DejaVuSans-38"/>
       <use xlink:href="#DejaVuSans-30" x="63.623047"/>
       <use xlink:href="#DejaVuSans-30" x="127.246094"/>
      </g>
     </g>
    </g>
    <g id="xtick_6">
     <g id="line2d_6">
      <g>
       <use xlink:href="#m79b06d999e" x="398.812252" y="307.584" style="stroke: #000000; stroke-width: 0.8"/>
      </g>
     </g>
     <g id="text_6">
      <!-- 1000 -->
      <g transform="translate(386.087252 322.182437) scale(0.1 -0.1)">
       <defs>
        <path id="DejaVuSans-31" d="M 794 531 
L 1825 531 
L 1825 4091 
L 703 3866 
L 703 4441 
L 1819 4666 
L 2450 4666 
L 2450 531 
L 3481 531 
L 3481 0 
L 794 0 
L 794 531 
z
" transform="scale(0.015625)"/>
       </defs>
       <use xlink:href="#DejaVuSans-31"/>
       <use xlink:href="#DejaVuSans-30" x="63.623047"/>
       <use xlink:href="#DejaVuSans-30" x="127.246094"/>
       <use xlink:href="#DejaVuSans-30" x="190.869141"/>
      </g>
     </g>
    </g>
   </g>
   <g id="matplotlib.axis_2">
    <g id="ytick_1">
     <g id="line2d_7">
      <defs>
       <path id="m6cd1586e31" d="M 0 0 
L -3.5 0 
" style="stroke: #000000; stroke-width: 0.8"/>
      </defs>
      <g>
       <use xlink:href="#m6cd1586e31" x="57.6" y="289.082029" style="stroke: #000000; stroke-width: 0.8"/>
      </g>
     </g>
     <g id="text_7">
      <!-- 0 -->
      <g transform="translate(44.2375 292.881248) scale(0.1 -0.1)">
       <use xlink:href="#DejaVuSans-30"/>
      </g>
     </g>
    </g>
    <g id="ytick_2">
     <g id="line2d_8">
      <g>
       <use xlink:href="#m6cd1586e31" x="57.6" y="230.568182" style="stroke: #000000; stroke-width: 0.8"/>
      </g>
     </g>
     <g id="text_8">
      <!-- 1 -->
      <g transform="translate(44.2375 234.367401) scale(0.1 -0.1)">
       <use xlink:href="#DejaVuSans-31"/>
      </g>
     </g>
    </g>
    <g id="ytick_3">
     <g id="line2d_9">
      <g>
       <use xlink:href="#m6cd1586e31" x="57.6" y="172.054336" style="stroke: #000000; stroke-width: 0.8"/>
      </g>
     </g>
     <g id="text_9">
      <!-- 2 -->
      <g transform="translate(44.2375 175.853554) scale(0.1 -0.1)">
       <use xlink:href="#DejaVuSans-32"/>
      </g>
     </g>
    </g>
    <g id="ytick_4">
     <g id="line2d_10">
      <g>
       <use xlink:href="#m6cd1586e31" x="57.6" y="113.540489" style="stroke: #000000; stroke-width: 0.8"/>
      </g>
     </g>
     <g id="text_10">
      <!-- 3 -->
      <g transform="translate(44.2375 117.339708) scale(0.1 -0.1)">
       <defs>
        <path id="DejaVuSans-33" d="M 2597 2516 
Q 3050 2419 3304 2112 
Q 3559 1806 3559 1356 
Q 3559 666 3084 287 
Q 2609 -91 1734 -91 
Q 1441 -91 1130 -33 
Q 819 25 488 141 
L 488 750 
Q 750 597 1062 519 
Q 1375 441 1716 441 
Q 2309 441 2620 675 
Q 2931 909 2931 1356 
Q 2931 1769 2642 2001 
Q 2353 2234 1838 2234 
L 1294 2234 
L 1294 2753 
L 1863 2753 
Q 2328 2753 2575 2939 
Q 2822 3125 2822 3475 
Q 2822 3834 2567 4026 
Q 2313 4219 1838 4219 
Q 1578 4219 1281 4162 
Q 984 4106 628 3988 
L 628 4550 
Q 988 4650 1302 4700 
Q 1616 4750 1894 4750 
Q 2613 4750 3031 4423 
Q 3450 4097 3450 3541 
Q 3450 3153 3228 2886 
Q 3006 2619 2597 2516 
z
" transform="scale(0.015625)"/>
       </defs>
       <use xlink:href="#DejaVuSans-33"/>
      </g>
     </g>
    </g>
    <g id="ytick_5">
     <g id="line2d_11">
      <g>
       <use xlink:href="#m6cd1586e31" x="57.6" y="55.026642" style="stroke: #000000; stroke-width: 0.8"/>
      </g>
     </g>
     <g id="text_11">
      <!-- 4 -->
      <g transform="translate(44.2375 58.825861) scale(0.1 -0.1)">
       <use xlink:href="#DejaVuSans-34"/>
      </g>
     </g>
    </g>
   </g>
   <g id="line2d_12">
    <path d="M 73.832727 227.154814 
L 74.157707 226.215096 
L 74.482686 224.059262 
L 74.807666 223.631549 
L 75.132645 227.129103 
L 75.457625 226.647566 
L 75.782604 224.720873 
L 76.107584 220.180585 
L 76.757543 223.766193 
L 77.407502 221.178752 
L 77.732482 221.529447 
L 78.057461 216.326335 
L 78.382441 219.390235 
L 78.70742 219.346539 
L 79.0324 216.415687 
L 79.357379 218.932129 
L 79.682359 217.875794 
L 80.007338 214.340476 
L 80.332318 213.581201 
L 80.657297 216.91959 
L 80.982277 214.943717 
L 81.307256 216.282113 
L 81.632236 210.903105 
L 81.957215 213.552649 
L 82.282195 211.977562 
L 82.607174 209.370962 
L 82.932154 209.749374 
L 83.257133 212.564094 
L 83.582113 211.773025 
L 83.907093 208.674739 
L 84.232072 209.868172 
L 84.557052 207.127272 
L 84.882031 210.107784 
L 85.207011 210.813771 
L 86.181949 209.793027 
L 87.156888 204.645551 
L 87.481867 208.121257 
L 87.806847 207.277087 
L 88.456806 204.618346 
L 88.781785 203.30651 
L 89.106765 206.842051 
L 89.431744 206.386659 
L 89.756724 205.142136 
L 90.081704 206.192565 
L 90.406683 203.213675 
L 90.731663 202.788146 
L 91.056642 203.135513 
L 91.381622 203.774635 
L 92.031581 206.825004 
L 92.35656 203.522384 
L 92.68154 208.514938 
L 93.006519 206.077711 
L 93.331499 206.465612 
L 93.656478 208.514255 
L 93.981458 204.585147 
L 94.306437 209.368824 
L 94.631417 204.635195 
L 94.956396 204.476403 
L 95.281376 205.268337 
L 95.606355 206.476909 
L 95.931335 208.531996 
L 96.256314 207.622136 
L 96.906274 208.745045 
L 97.231253 210.40472 
L 97.556233 209.314864 
L 97.881212 211.277875 
L 98.206192 211.601196 
L 98.531171 208.703229 
L 98.856151 211.028618 
L 99.50611 208.343351 
L 99.831089 212.645897 
L 100.156069 211.016687 
L 100.481048 212.033252 
L 100.806028 212.51724 
L 101.131007 212.16203 
L 101.455987 213.611943 
L 101.780966 210.924088 
L 102.105946 214.182196 
L 102.430925 212.49414 
L 102.755905 213.666521 
L 103.080885 212.453257 
L 103.405864 215.956434 
L 103.730844 211.600488 
L 104.055823 216.986062 
L 104.380803 212.264813 
L 104.705782 215.991993 
L 105.030762 216.214099 
L 105.355741 218.777684 
L 105.680721 214.658941 
L 106.0057 216.325442 
L 106.33068 216.980246 
L 106.655659 218.269487 
L 106.980639 217.307525 
L 107.305618 219.894995 
L 107.630598 219.924034 
L 107.955577 216.728086 
L 108.280557 216.762414 
L 108.605536 218.756092 
L 108.930516 215.808264 
L 109.905455 219.032529 
L 110.230434 216.295277 
L 110.555414 217.683183 
L 110.880393 218.42009 
L 111.205373 220.048927 
L 111.530352 218.2578 
L 111.855332 217.803331 
L 112.180311 218.765433 
L 112.505291 221.508854 
L 113.15525 219.680379 
L 113.480229 220.537085 
L 113.805209 219.986528 
L 114.130188 221.207587 
L 115.105127 216.925301 
L 115.430106 221.403842 
L 115.755086 219.0786 
L 116.080066 220.984258 
L 116.405045 221.855733 
L 116.730025 217.227531 
L 117.055004 221.568536 
L 117.379984 220.785843 
L 117.704963 217.310855 
L 118.029943 219.096697 
L 118.354922 216.193295 
L 118.679902 217.193189 
L 119.004881 218.583724 
L 119.65484 216.911831 
L 119.97982 218.124442 
L 120.304799 214.782938 
L 120.629779 217.042743 
L 120.954758 217.280255 
L 121.279738 213.151745 
L 121.604717 217.151743 
L 121.929697 214.263833 
L 122.254676 213.506484 
L 122.579656 214.199418 
L 122.904636 216.08023 
L 123.229615 214.557079 
L 123.554595 212.339697 
L 123.879574 212.906528 
L 124.204554 211.851602 
L 124.854513 210.93135 
L 125.504472 212.200546 
L 125.829451 209.510084 
L 126.154431 211.612731 
L 126.47941 206.372073 
L 126.80439 205.917501 
L 127.129369 209.171694 
L 127.454349 205.582482 
L 127.779328 204.192546 
L 128.104308 205.955759 
L 128.429287 204.039588 
L 128.754267 203.308232 
L 129.079247 203.558034 
L 129.404226 203.993245 
L 129.729206 206.064631 
L 130.054185 200.909627 
L 130.379165 203.878222 
L 130.704144 202.951479 
L 131.029124 204.043616 
L 131.679083 198.956501 
L 132.004062 199.222336 
L 132.329042 199.909734 
L 132.654021 199.206083 
L 132.979001 202.370888 
L 133.30398 198.5839 
L 133.62896 198.732479 
L 133.953939 198.608051 
L 134.278919 200.38914 
L 134.928878 198.5358 
L 135.253857 195.29926 
L 135.578837 199.026931 
L 135.903817 194.303797 
L 136.228796 198.510183 
L 136.553776 198.643467 
L 136.878755 195.513161 
L 137.203735 197.255091 
L 137.528714 192.92204 
L 137.853694 193.677492 
L 138.178673 196.649076 
L 138.503653 194.631911 
L 138.828632 196.475148 
L 139.153612 193.106378 
L 139.803571 196.424909 
L 140.12855 190.848342 
L 140.45353 190.966383 
L 140.778509 194.835831 
L 141.103489 194.328199 
L 141.428468 193.090714 
L 141.753448 191.358785 
L 142.078428 191.416175 
L 142.403407 193.340507 
L 142.728387 193.273261 
L 143.053366 193.722007 
L 143.378346 190.984065 
L 143.703325 195.985127 
L 144.028305 192.22969 
L 144.353284 192.54922 
L 145.003243 194.44635 
L 145.328223 193.92819 
L 145.653202 195.74637 
L 145.978182 194.274761 
L 146.303161 196.395528 
L 146.628141 194.300221 
L 146.95312 195.509408 
L 147.2781 192.548358 
L 147.603079 195.388922 
L 147.928059 194.221651 
L 148.253038 195.048845 
L 148.578018 194.205529 
L 148.902998 194.23336 
L 149.227977 192.895437 
L 149.552957 198.343043 
L 149.877936 195.473047 
L 150.202916 195.615554 
L 150.527895 195.330072 
L 150.852875 195.57924 
L 151.177854 198.007171 
L 151.502834 196.729168 
L 151.827813 197.015905 
L 152.152793 197.49932 
L 152.477772 196.6316 
L 153.127731 200.139586 
L 153.452711 196.55138 
L 153.77769 197.036634 
L 154.10267 201.352804 
L 154.427649 202.743688 
L 155.077609 199.579641 
L 155.402588 203.086957 
L 155.727568 199.75253 
L 156.052547 199.75555 
L 156.377527 203.064714 
L 156.702506 203.32 
L 157.027486 199.700309 
L 157.352465 205.065561 
L 157.677445 204.437162 
L 158.002424 205.844309 
L 158.327404 202.645719 
L 158.652383 200.840197 
L 159.302342 206.710356 
L 159.627322 202.894005 
L 159.952301 206.332885 
L 160.277281 203.987168 
L 160.60226 202.887626 
L 160.92724 202.252538 
L 161.577199 205.199148 
L 161.902179 207.930597 
L 162.227158 202.792813 
L 162.552138 202.793827 
L 162.877117 203.18624 
L 163.202097 204.641457 
L 163.527076 203.521286 
L 163.852056 205.15855 
L 164.177035 205.033473 
L 164.502015 204.775565 
L 164.826994 203.418024 
L 165.151974 205.632529 
L 165.476953 205.657425 
L 165.801933 203.356924 
L 166.126912 203.559023 
L 166.451892 204.897797 
L 166.776871 203.441554 
L 167.101851 206.041617 
L 167.75181 202.345959 
L 168.401769 205.880048 
L 168.726749 204.98336 
L 169.051728 202.580987 
L 169.376708 201.972921 
L 169.701687 205.722263 
L 170.026667 205.115109 
L 170.351646 200.183889 
L 170.676626 203.765993 
L 171.001605 200.399191 
L 171.326585 204.234998 
L 171.651564 198.885571 
L 171.976544 199.238818 
L 172.301523 198.182017 
L 172.626503 199.343616 
L 172.951482 201.649024 
L 173.276462 200.921042 
L 173.601441 199.159139 
L 173.926421 200.126953 
L 174.2514 194.920089 
L 174.57638 198.352847 
L 174.90136 197.82062 
L 175.226339 194.878085 
L 175.551319 194.670883 
L 175.876298 197.380822 
L 176.201278 195.535849 
L 176.526257 191.087413 
L 176.851237 191.773674 
L 177.176216 194.331624 
L 177.501196 194.28077 
L 177.826175 189.363289 
L 178.476134 192.551334 
L 178.801114 187.859324 
L 179.126093 190.272066 
L 179.451073 188.625819 
L 179.776052 185.912392 
L 180.101032 189.054042 
L 180.426011 186.193586 
L 180.750991 187.621842 
L 181.40095 182.762739 
L 181.72593 183.177787 
L 182.050909 182.425933 
L 182.375889 183.389482 
L 182.700868 183.375698 
L 183.025848 181.666367 
L 183.350827 177.299096 
L 183.675807 179.641297 
L 184.000786 175.842273 
L 184.325766 179.879067 
L 184.975725 178.653333 
L 185.300704 177.120937 
L 185.625684 172.277593 
L 185.950663 171.065088 
L 186.275643 174.796688 
L 186.925602 172.174053 
L 187.250581 169.04177 
L 187.900541 172.901976 
L 188.22552 168.975338 
L 188.5505 168.987344 
L 188.875479 170.390694 
L 189.200459 165.236061 
L 189.525438 166.074309 
L 189.850418 163.669058 
L 190.175397 167.262118 
L 190.500377 164.177981 
L 190.825356 166.070864 
L 191.150336 164.820081 
L 191.475315 165.117463 
L 192.125274 162.524715 
L 192.450254 164.211044 
L 192.775233 163.625415 
L 193.100213 163.979593 
L 193.425192 158.814519 
L 193.750172 161.846763 
L 194.075152 158.822599 
L 194.400131 157.772999 
L 195.05009 162.260426 
L 195.37507 158.008881 
L 195.700049 158.105892 
L 196.350008 157.366789 
L 196.674988 157.424783 
L 196.999967 159.19963 
L 197.324947 157.05654 
L 197.649926 159.39779 
L 197.974906 158.925834 
L 198.624865 160.11846 
L 198.949844 156.733289 
L 199.274824 156.105565 
L 199.599803 157.361742 
L 199.924783 160.289004 
L 200.249762 156.223578 
L 200.574742 159.319318 
L 200.899722 156.476 
L 201.224701 157.260677 
L 201.549681 159.769686 
L 201.87466 157.000793 
L 202.19964 157.284174 
L 202.524619 158.973399 
L 202.849599 157.817858 
L 203.174578 160.366042 
L 203.499558 159.98014 
L 203.824537 160.958666 
L 204.149517 159.932271 
L 204.474496 158.364463 
L 204.799476 158.351187 
L 205.124455 159.172767 
L 205.449435 158.192103 
L 205.774414 162.170373 
L 206.099394 158.930942 
L 206.424373 162.465889 
L 206.749353 159.864474 
L 207.074333 163.003935 
L 207.399312 159.592391 
L 207.724292 164.387968 
L 208.049271 164.135969 
L 208.374251 162.109379 
L 208.69923 164.807396 
L 209.02421 164.847448 
L 209.349189 162.789581 
L 209.674169 161.621761 
L 209.999148 163.770242 
L 210.324128 164.702558 
L 210.649107 164.073998 
L 211.299066 167.404095 
L 211.624046 163.237154 
L 211.949025 167.376967 
L 212.274005 167.106147 
L 212.598984 167.532316 
L 212.923964 167.683153 
L 213.248943 168.3139 
L 213.573923 165.683475 
L 213.898903 168.469259 
L 214.223882 165.031712 
L 214.548862 169.099195 
L 214.873841 168.083332 
L 215.198821 165.871789 
L 215.5238 170.449303 
L 215.84878 169.118961 
L 216.173759 170.562695 
L 216.823718 165.979055 
L 217.798657 169.449492 
L 218.123636 168.425803 
L 218.448616 170.296464 
L 218.773595 169.10332 
L 219.098575 170.664001 
L 219.423554 166.613549 
L 219.748534 170.516864 
L 220.073514 172.003844 
L 220.398493 170.93802 
L 220.723473 167.649029 
L 221.048452 170.931023 
L 221.373432 168.025162 
L 221.698411 171.761371 
L 222.023391 169.352457 
L 222.34837 168.072503 
L 222.67335 172.002832 
L 222.998329 167.754406 
L 223.323309 169.571252 
L 223.648288 166.559414 
L 224.298247 169.666726 
L 224.623227 166.629566 
L 224.948206 166.815784 
L 225.273186 167.223747 
L 225.598165 169.48333 
L 225.923145 168.823236 
L 226.248124 168.956396 
L 226.573104 169.34757 
L 226.898084 167.439143 
L 227.223063 167.608872 
L 227.548043 164.574725 
L 227.873022 165.779693 
L 228.198002 165.661119 
L 228.522981 164.752888 
L 228.847961 162.735095 
L 229.49792 164.600848 
L 229.822899 161.069801 
L 230.147879 165.055628 
L 230.472858 164.398965 
L 230.797838 163.140629 
L 231.122817 159.460873 
L 231.772776 161.890462 
L 232.097756 160.743988 
L 232.422735 162.774632 
L 233.072695 159.673562 
L 233.397674 159.698752 
L 233.722654 155.822359 
L 234.047633 157.573934 
L 234.372613 160.143033 
L 234.697592 155.979532 
L 235.022572 154.126441 
L 235.347551 154.580426 
L 235.672531 155.339108 
L 235.99751 152.985358 
L 236.32249 156.033816 
L 236.647469 152.937981 
L 237.297428 152.976536 
L 237.622408 154.50315 
L 237.947387 152.923902 
L 238.272367 153.720855 
L 238.597346 150.432033 
L 238.922326 150.812643 
L 239.572285 147.149877 
L 239.897265 147.280675 
L 240.222244 148.817952 
L 240.547224 146.13412 
L 240.872203 149.57553 
L 241.197183 149.356851 
L 241.522162 145.463986 
L 241.847142 143.988238 
L 242.172121 147.029928 
L 242.497101 146.713759 
L 242.82208 143.304016 
L 243.14706 141.958514 
L 243.472039 143.781938 
L 243.797019 143.60635 
L 244.121998 142.656051 
L 244.446978 142.870924 
L 245.096937 140.66717 
L 245.421916 140.578445 
L 245.746896 139.470505 
L 246.071876 142.608609 
L 246.396855 140.814256 
L 246.721835 139.885832 
L 247.046814 143.393209 
L 247.371794 142.579893 
L 247.696773 142.416588 
L 248.021753 141.727491 
L 248.346732 137.887496 
L 248.671712 138.306978 
L 248.996691 138.148316 
L 249.321671 138.293925 
L 249.64665 139.266958 
L 249.97163 141.822078 
L 250.296609 139.4608 
L 250.621589 140.732242 
L 250.946568 139.692807 
L 251.271548 140.919789 
L 251.596527 139.161697 
L 251.921507 138.332847 
L 252.246486 136.674917 
L 252.571466 137.03876 
L 252.896446 136.777512 
L 253.221425 137.91677 
L 253.546405 141.211926 
L 253.871384 140.796368 
L 254.196364 137.331302 
L 254.521343 139.496279 
L 254.846323 140.780052 
L 255.171302 137.51978 
L 255.496282 139.382398 
L 255.821261 142.932132 
L 256.146241 138.095112 
L 256.47122 142.157216 
L 256.7962 138.834593 
L 257.121179 141.926113 
L 257.446159 143.815473 
L 257.771138 138.968384 
L 258.096118 142.255145 
L 258.421097 140.073304 
L 258.746077 139.305498 
L 259.071057 144.931147 
L 259.396036 144.062375 
L 259.721016 144.092553 
L 260.045995 142.62547 
L 260.370975 143.034142 
L 260.695954 145.394703 
L 261.020934 142.102712 
L 261.345913 143.648523 
L 261.670893 146.893328 
L 261.995872 146.320684 
L 262.320852 146.879109 
L 262.645831 145.325896 
L 262.970811 143.1084 
L 263.29579 146.579376 
L 263.62077 143.696453 
L 263.945749 147.026427 
L 264.270729 147.60898 
L 264.595708 144.108818 
L 264.920688 147.640185 
L 265.245667 145.163509 
L 265.570647 145.856718 
L 265.895627 145.139194 
L 266.220606 149.612535 
L 266.870565 145.085174 
L 267.195545 149.812294 
L 267.520524 150.253552 
L 267.845504 145.678686 
L 268.170483 145.972727 
L 268.820442 150.880655 
L 269.145422 149.025031 
L 269.470401 151.691701 
L 269.795381 146.412125 
L 270.12036 148.612459 
L 270.44534 148.052919 
L 270.770319 149.733412 
L 271.095299 150.085256 
L 271.420278 147.601019 
L 271.745258 147.050804 
L 272.070238 151.199777 
L 272.395217 146.536577 
L 272.720197 151.768757 
L 273.045176 146.747977 
L 273.370156 151.926294 
L 273.695135 146.395166 
L 274.020115 149.324199 
L 274.345094 146.768411 
L 274.670074 147.821417 
L 274.995053 146.589642 
L 275.320033 149.514213 
L 275.645012 150.221389 
L 275.969992 150.507362 
L 276.294971 150.452021 
L 276.94493 147.899981 
L 277.26991 147.668346 
L 277.594889 148.08541 
L 277.919869 148.872218 
L 278.244848 145.245081 
L 278.569828 146.821352 
L 278.894808 146.85765 
L 279.219787 146.073958 
L 279.544767 146.839414 
L 279.869746 141.617435 
L 280.194726 143.051226 
L 280.519705 143.468606 
L 280.844685 140.372105 
L 281.169664 141.552096 
L 281.494644 139.953888 
L 281.819623 143.166323 
L 282.144603 140.253118 
L 282.469582 141.521583 
L 282.794562 139.171124 
L 283.119541 139.298371 
L 283.444521 137.846027 
L 283.7695 135.34759 
L 284.419459 133.609748 
L 284.744439 136.521609 
L 285.069419 134.05788 
L 285.394398 135.941029 
L 285.719378 136.534261 
L 286.369337 131.408035 
L 286.694316 129.358512 
L 287.019296 128.699501 
L 287.344275 129.23119 
L 287.669255 128.20263 
L 287.994234 130.914378 
L 288.319214 126.52639 
L 288.644193 127.978464 
L 288.969173 125.584753 
L 289.294152 128.63522 
L 289.619132 127.304619 
L 289.944111 124.082974 
L 290.269091 124.887702 
L 290.59407 121.813555 
L 290.91905 124.117008 
L 291.244029 119.107323 
L 291.569009 122.345618 
L 291.893989 122.366346 
L 292.218968 121.139935 
L 292.543948 117.638496 
L 292.868927 115.384905 
L 293.193907 118.33745 
L 293.518886 117.638171 
L 293.843866 115.588337 
L 294.168845 116.633124 
L 294.493825 114.479678 
L 294.818804 113.545009 
L 295.143784 112.201343 
L 295.468763 113.403178 
L 295.793743 113.465452 
L 296.118722 108.089378 
L 296.443702 107.277073 
L 296.768681 109.428293 
L 297.093661 106.490688 
L 297.41864 106.254086 
L 297.74362 109.27599 
L 298.0686 104.393378 
L 298.393579 104.940888 
L 298.718559 108.577732 
L 299.043538 104.039759 
L 299.368518 103.459088 
L 299.693497 104.035221 
L 300.018477 106.25922 
L 300.668436 101.252352 
L 300.993415 101.184332 
L 301.318395 104.46628 
L 301.643374 101.528432 
L 301.968354 103.202581 
L 302.293333 102.786844 
L 302.618313 98.287633 
L 302.943292 98.024625 
L 303.593251 101.267786 
L 303.918231 97.229601 
L 304.24321 99.770815 
L 304.56819 97.469431 
L 304.89317 96.580669 
L 305.543129 99.223409 
L 305.868108 99.884482 
L 306.193088 95.364483 
L 306.518067 95.579282 
L 307.168026 100.313711 
L 307.493006 97.394352 
L 307.817985 96.431413 
L 308.142965 95.89146 
L 308.467944 100.22211 
L 308.792924 97.713758 
L 309.117903 96.227101 
L 309.442883 99.278738 
L 309.767862 99.888657 
L 310.092842 99.535343 
L 310.417821 96.801879 
L 310.742801 96.136542 
L 311.067781 100.487335 
L 311.39276 96.343897 
L 311.71774 95.758355 
L 312.042719 100.335773 
L 312.367699 100.791132 
L 312.692678 100.196833 
L 313.017658 98.837041 
L 313.342637 98.1461 
L 313.667617 95.881666 
L 314.317576 97.762118 
L 314.642555 96.773996 
L 314.967535 97.355215 
L 315.292514 102.066216 
L 315.617494 101.525255 
L 315.942473 98.230808 
L 316.267453 98.500515 
L 316.592432 98.002904 
L 316.917412 100.195106 
L 317.242391 100.74443 
L 317.567371 101.691485 
L 317.892351 104.166279 
L 318.21733 99.024409 
L 318.54231 103.716652 
L 318.867289 100.085279 
L 319.192269 105.095127 
L 319.517248 100.517785 
L 319.842228 105.576514 
L 320.167207 103.634344 
L 320.492187 104.791011 
L 320.817166 102.093938 
L 321.467125 104.734832 
L 321.792105 103.86904 
L 322.117084 103.872888 
L 322.442064 103.729743 
L 322.767043 107.726327 
L 323.092023 103.363987 
L 323.417002 104.034933 
L 323.741982 108.115791 
L 324.066962 103.030011 
L 324.391941 107.601954 
L 324.716921 106.940911 
L 325.0419 104.147347 
L 325.36688 107.993622 
L 325.691859 107.996672 
L 326.016839 107.745438 
L 326.341818 107.208316 
L 326.666798 105.391678 
L 326.991777 105.734029 
L 327.316757 108.200546 
L 327.641736 106.020478 
L 327.966716 108.676708 
L 328.291695 103.997511 
L 328.616675 104.65095 
L 328.941654 106.77318 
L 329.266634 104.202356 
L 329.591613 106.568662 
L 330.241572 103.404881 
L 330.566552 106.247163 
L 330.891532 108.010695 
L 331.216511 104.296547 
L 331.541491 107.463611 
L 331.86647 107.506308 
L 332.19145 104.223131 
L 332.516429 104.849371 
L 332.841409 102.520447 
L 333.166388 104.673877 
L 333.491368 105.959429 
L 333.816347 101.566027 
L 334.141327 106.038612 
L 334.466306 104.987068 
L 335.116265 100.446532 
L 335.441245 105.073723 
L 335.766224 105.059278 
L 336.091204 100.915165 
L 336.416183 100.440508 
L 336.741163 101.714728 
L 337.066143 98.959469 
L 337.391122 102.931565 
L 337.716102 101.64669 
L 338.041081 99.239945 
L 338.69104 99.087432 
L 339.01602 95.938452 
L 339.340999 99.547423 
L 339.665979 95.593474 
L 339.990958 94.27651 
L 340.315938 97.649373 
L 340.640917 98.467753 
L 340.965897 94.935096 
L 341.290876 94.886677 
L 341.615856 93.056444 
L 341.940835 92.514255 
L 342.265815 90.395217 
L 342.590794 95.363536 
L 343.240753 88.542282 
L 343.565733 93.05221 
L 343.890713 89.974636 
L 344.215692 91.718858 
L 344.540672 89.534666 
L 344.865651 89.976074 
L 345.190631 85.306817 
L 345.51561 88.814811 
L 345.84059 89.507387 
L 346.165569 86.373059 
L 346.490549 84.998951 
L 346.815528 82.557793 
L 347.140508 87.687002 
L 347.465487 82.567542 
L 347.790467 85.284817 
L 348.115446 84.558164 
L 348.440426 84.871354 
L 348.765405 84.179415 
L 349.090385 79.953566 
L 349.415364 79.258328 
L 349.740344 80.666787 
L 350.065324 80.290481 
L 350.390303 77.345615 
L 350.715283 81.140124 
L 351.040262 81.864961 
L 351.365242 76.035936 
L 351.690221 78.878459 
L 352.015201 74.97394 
L 352.34018 78.918795 
L 352.66516 74.178944 
L 352.990139 75.767247 
L 353.315119 74.535158 
L 353.640098 78.468528 
L 353.965078 73.750578 
L 354.290057 75.438026 
L 354.615037 72.94458 
L 354.940016 76.802928 
L 355.264996 74.241046 
L 355.589975 74.208942 
L 355.914955 73.848514 
L 356.239934 72.386564 
L 356.564914 72.587121 
L 356.889894 72.589693 
L 357.214873 72.408996 
L 357.539853 71.301629 
L 357.864832 75.121702 
L 358.189812 75.378037 
L 358.514791 71.216315 
L 358.839771 75.004573 
L 359.16475 72.929391 
L 359.48973 74.993892 
L 359.814709 72.746314 
L 360.139689 73.017937 
L 360.464668 72.194433 
L 361.114627 70.266946 
L 361.439607 74.341893 
L 361.764586 69.59168 
L 362.089566 70.528594 
L 362.414545 71.812935 
L 362.739525 72.228868 
L 363.389484 74.225887 
L 363.714464 71.023768 
L 364.039443 74.448229 
L 364.364423 70.126367 
L 364.689402 70.964033 
L 365.014382 72.512429 
L 365.339361 75.691816 
L 365.664341 72.175248 
L 365.98932 74.919421 
L 366.3143 71.03848 
L 366.639279 76.173962 
L 367.289238 71.798925 
L 367.614218 72.239843 
L 367.939197 75.867437 
L 368.264177 72.606665 
L 368.589156 73.517923 
L 369.239115 76.676904 
L 369.889075 74.657619 
L 370.539034 77.247148 
L 370.864013 77.173136 
L 371.188993 76.478022 
L 371.513972 78.635222 
L 371.838952 76.847188 
L 372.163931 77.687836 
L 372.488911 79.603638 
L 373.13887 78.469967 
L 373.463849 81.193661 
L 373.788829 76.586185 
L 374.113808 80.785475 
L 374.438788 79.366322 
L 374.763767 78.80032 
L 375.088747 79.163014 
L 375.413726 82.000578 
L 375.738706 76.724313 
L 376.063686 77.859553 
L 376.388665 77.363212 
L 376.713645 78.684532 
L 377.363604 82.155826 
L 377.688583 81.635656 
L 378.013563 77.369117 
L 378.338542 79.296568 
L 378.988501 78.058943 
L 379.313481 79.851812 
L 379.63846 80.863862 
L 379.96344 82.542907 
L 380.613399 77.465899 
L 380.938378 82.42874 
L 381.263358 81.177772 
L 381.588337 81.933349 
L 381.913317 78.689259 
L 382.238296 81.223673 
L 382.563276 76.652622 
L 382.888256 78.275698 
L 383.213235 78.310263 
L 383.538215 76.292059 
L 383.863194 76.802969 
L 384.188174 77.039986 
L 384.513153 80.833955 
L 384.838133 76.897784 
L 385.163112 74.73588 
L 385.488092 74.235446 
L 385.813071 75.860323 
L 386.138051 76.13639 
L 386.46303 75.470202 
L 386.78801 77.546456 
L 387.112989 75.381018 
L 387.437969 76.028284 
L 387.762948 73.271524 
L 388.087928 73.490557 
L 388.412907 72.104793 
L 388.737887 73.438073 
L 389.062867 69.779131 
L 389.387846 74.066245 
L 389.712826 71.127751 
L 390.037805 72.224889 
L 390.362785 67.587107 
L 390.687764 72.374017 
L 391.012744 71.23167 
L 391.337723 67.216354 
L 391.987682 64.181782 
L 392.312662 68.592424 
L 392.637641 66.398338 
L 392.962621 67.523027 
L 393.2876 65.424806 
L 393.61258 62.1711 
L 393.937559 64.901374 
L 394.262539 60.771756 
L 394.912498 58.116054 
L 395.237477 60.014352 
L 395.562457 56.81555 
L 395.887437 61.03059 
L 396.212416 55.475855 
L 396.537396 58.723185 
L 396.862375 53.591083 
L 397.187355 53.676755 
L 397.512334 56.133383 
L 397.837314 55.994464 
L 398.162293 53.568 
L 398.487273 54.853859 
L 398.487273 54.853859 
" clip-path="url(#pfb9ab597c1)" style="fill: none; stroke: #1f77b4; stroke-width: 1.5; stroke-linecap: square"/>
   </g>
   <g id="line2d_13">
    <path d="M 73.832727 219.630851 
L 81.957215 217.150025 
L 88.781785 215.34113 
L 104.380803 211.27702 
L 110.555414 209.388219 
L 117.055004 207.154175 
L 125.504472 203.987573 
L 146.95312 195.848971 
L 162.552138 190.00067 
L 171.001605 186.571285 
L 180.426011 182.488723 
L 204.799476 171.554801 
L 221.373432 163.540726 
L 230.147879 159.011166 
L 242.82208 152.173773 
L 263.29579 141.188333 
L 268.495463 138.3642 
L 268.495463 138.3642 
" clip-path="url(#pfb9ab597c1)" style="fill: none; stroke: #ff7f0e; stroke-width: 1.5; stroke-linecap: square"/>
   </g>
   <g id="line2d_14">
    <path d="M 73.832727 286.866716 
L 78.057461 284.070001 
L 80.332318 282.845887 
L 82.282195 282.050636 
L 83.907093 281.603105 
L 85.53199 281.366928 
L 87.156888 281.353444 
L 88.781785 281.563016 
L 90.406683 281.989696 
L 92.031581 282.623064 
L 93.981458 283.629931 
L 96.256314 285.083224 
L 99.18113 287.243242 
L 105.355741 291.905765 
L 107.630598 293.324982 
L 109.580475 294.297012 
L 111.530352 294.999081 
L 113.15525 295.353934 
L 114.780147 295.488 
L 116.405045 295.39934 
L 118.029943 295.095097 
L 119.65484 294.58796 
L 121.604717 293.738161 
L 123.879574 292.47285 
L 126.80439 290.55633 
L 132.979001 286.408595 
L 135.253857 285.174378 
L 137.203735 284.352412 
L 139.153612 283.792125 
L 140.778509 283.546125 
L 142.403407 283.509722 
L 144.028305 283.683712 
L 145.653202 284.061806 
L 147.603079 284.764789 
L 149.552957 285.704237 
L 152.152793 287.238004 
L 156.702506 290.283456 
L 159.952301 292.338448 
L 162.227158 293.531301 
L 164.177035 294.316423 
L 166.126912 294.839135 
L 167.75181 295.053592 
L 169.376708 295.057843 
L 171.001605 294.851483 
L 172.626503 294.440972 
L 174.57638 293.700228 
L 176.526257 292.72483 
L 179.126093 291.145485 
L 183.675807 288.026649 
L 186.925602 285.922847 
L 189.200459 284.696993 
L 191.150336 283.883872 
L 193.100213 283.333769 
L 194.725111 283.096943 
L 196.350008 283.070393 
L 197.974906 283.255167 
L 199.599803 283.645252 
L 201.549681 284.363594 
L 203.499558 285.319678 
L 206.099394 286.856888 
L 210.324128 289.688675 
L 213.898903 291.979143 
L 216.173759 293.192514 
L 218.123636 294.002458 
L 220.073514 294.556096 
L 221.698411 294.801002 
L 223.323309 294.839633 
L 224.948206 294.670815 
L 226.573104 294.300785 
L 228.522981 293.610499 
L 230.472858 292.685871 
L 233.072695 291.172556 
L 237.297428 288.372983 
L 240.872203 286.10874 
L 243.14706 284.912232 
L 245.096937 284.117197 
L 247.046814 283.579081 
L 248.671712 283.347716 
L 250.296609 283.32325 
L 251.921507 283.506921 
L 253.546405 283.892554 
L 255.496282 284.60248 
L 257.446159 285.54769 
L 260.045995 287.08963 
L 264.270729 289.93695 
L 267.845504 292.240505 
L 268.495463 292.614473 
L 268.495463 292.614473 
" clip-path="url(#pfb9ab597c1)" style="fill: none; stroke: #2ca02c; stroke-width: 1.5; stroke-linecap: square"/>
   </g>
   <g id="line2d_15">
    <path d="M 73.832727 292.824215 
L 81.957215 287.788709 
L 84.232072 286.759202 
L 86.181949 286.123003 
L 88.131826 285.736113 
L 90.081704 285.610105 
L 92.031581 285.749358 
L 93.981458 286.135918 
L 95.931335 286.740679 
L 98.206192 287.664158 
L 101.455987 289.238553 
L 106.655659 291.770655 
L 109.255495 292.758967 
L 111.205373 293.288537 
L 113.15525 293.597884 
L 115.105127 293.665705 
L 117.055004 293.484077 
L 119.004881 293.06238 
L 120.954758 292.417154 
L 123.229615 291.426669 
L 126.154431 289.881987 
L 133.62896 285.781221 
L 135.903817 284.845889 
L 137.853694 284.264086 
L 139.803571 283.919202 
L 141.753448 283.833895 
L 143.703325 284.014847 
L 145.653202 284.454751 
L 147.603079 285.135118 
L 149.877936 286.188256 
L 152.477772 287.645933 
L 161.252219 292.809056 
L 163.527076 293.751485 
L 165.476953 294.310601 
L 167.42683 294.609031 
L 169.051728 294.646979 
L 170.676626 294.49021 
L 172.626503 294.052657 
L 174.57638 293.363759 
L 176.851237 292.289704 
L 179.451073 290.795306 
L 188.22552 285.47091 
L 190.500377 284.486184 
L 192.450254 283.892994 
L 194.400131 283.564018 
L 196.025029 283.504176 
L 197.649926 283.641464 
L 199.274824 283.971849 
L 201.224701 284.605486 
L 203.174578 285.466588 
L 205.449435 286.709011 
L 209.02421 288.962383 
L 213.573923 291.81147 
L 215.84878 293.001898 
L 217.798657 293.809232 
L 219.748534 294.375168 
L 221.373432 294.642011 
L 222.998329 294.711378 
L 224.623227 294.580804 
L 226.248124 294.25465 
L 228.198002 293.621356 
L 230.147879 292.755468 
L 232.422735 291.510344 
L 235.672531 289.460166 
L 240.547224 286.371311 
L 242.82208 285.167226 
L 244.771957 284.348407 
L 246.721835 283.770108 
L 248.346732 283.4952 
L 249.97163 283.418642 
L 251.596527 283.542714 
L 253.221425 283.864003 
L 255.171302 284.492742 
L 257.121179 285.355762 
L 259.396036 286.600828 
L 262.645831 288.654595 
L 267.845504 291.939128 
L 268.495463 292.299373 
L 268.495463 292.299373 
" clip-path="url(#pfb9ab597c1)" style="fill: none; stroke: #d62728; stroke-width: 1.5; stroke-linecap: square"/>
   </g>
   <g id="patch_3">
    <path d="M 57.6 307.584 
L 57.6 41.472 
" style="fill: none; stroke: #000000; stroke-width: 0.8; stroke-linejoin: miter; stroke-linecap: square"/>
   </g>
   <g id="patch_4">
    <path d="M 414.72 307.584 
L 414.72 41.472 
" style="fill: none; stroke: #000000; stroke-width: 0.8; stroke-linejoin: miter; stroke-linecap: square"/>
   </g>
   <g id="patch_5">
    <path d="M 57.6 307.584 
L 414.72 307.584 
" style="fill: none; stroke: #000000; stroke-width: 0.8; stroke-linejoin: miter; stroke-linecap: square"/>
   </g>
   <g id="patch_6">
    <path d="M 57.6 41.472 
L 414.72 41.472 
" style="fill: none; stroke: #000000; stroke-width: 0.8; stroke-linejoin: miter; stroke-linecap: square"/>
   </g>
   <g id="text_12">
    <!-- Serie timp descompusa cu SSA, L = 600 -->
    <g transform="translate(115.290937 35.472) scale(0.12 -0.12)">
     <defs>
      <path id="DejaVuSans-53" d="M 3425 4513 
L 3425 3897 
Q 3066 4069 2747 4153 
Q 2428 4238 2131 4238 
Q 1616 4238 1336 4038 
Q 1056 3838 1056 3469 
Q 1056 3159 1242 3001 
Q 1428 2844 1947 2747 
L 2328 2669 
Q 3034 2534 3370 2195 
Q 3706 1856 3706 1288 
Q 3706 609 3251 259 
Q 2797 -91 1919 -91 
Q 1588 -91 1214 -16 
Q 841 59 441 206 
L 441 856 
Q 825 641 1194 531 
Q 1563 422 1919 422 
Q 2459 422 2753 634 
Q 3047 847 3047 1241 
Q 3047 1584 2836 1778 
Q 2625 1972 2144 2069 
L 1759 2144 
Q 1053 2284 737 2584 
Q 422 2884 422 3419 
Q 422 4038 858 4394 
Q 1294 4750 2059 4750 
Q 2388 4750 2728 4690 
Q 3069 4631 3425 4513 
z
" transform="scale(0.015625)"/>
      <path id="DejaVuSans-65" d="M 3597 1894 
L 3597 1613 
L 953 1613 
Q 991 1019 1311 708 
Q 1631 397 2203 397 
Q 2534 397 2845 478 
Q 3156 559 3463 722 
L 3463 178 
Q 3153 47 2828 -22 
Q 2503 -91 2169 -91 
Q 1331 -91 842 396 
Q 353 884 353 1716 
Q 353 2575 817 3079 
Q 1281 3584 2069 3584 
Q 2775 3584 3186 3129 
Q 3597 2675 3597 1894 
z
M 3022 2063 
Q 3016 2534 2758 2815 
Q 2500 3097 2075 3097 
Q 1594 3097 1305 2825 
Q 1016 2553 972 2059 
L 3022 2063 
z
" transform="scale(0.015625)"/>
      <path id="DejaVuSans-72" d="M 2631 2963 
Q 2534 3019 2420 3045 
Q 2306 3072 2169 3072 
Q 1681 3072 1420 2755 
Q 1159 2438 1159 1844 
L 1159 0 
L 581 0 
L 581 3500 
L 1159 3500 
L 1159 2956 
Q 1341 3275 1631 3429 
Q 1922 3584 2338 3584 
Q 2397 3584 2469 3576 
Q 2541 3569 2628 3553 
L 2631 2963 
z
" transform="scale(0.015625)"/>
      <path id="DejaVuSans-69" d="M 603 3500 
L 1178 3500 
L 1178 0 
L 603 0 
L 603 3500 
z
M 603 4863 
L 1178 4863 
L 1178 4134 
L 603 4134 
L 603 4863 
z
" transform="scale(0.015625)"/>
      <path id="DejaVuSans-20" transform="scale(0.015625)"/>
      <path id="DejaVuSans-74" d="M 1172 4494 
L 1172 3500 
L 2356 3500 
L 2356 3053 
L 1172 3053 
L 1172 1153 
Q 1172 725 1289 603 
Q 1406 481 1766 481 
L 2356 481 
L 2356 0 
L 1766 0 
Q 1100 0 847 248 
Q 594 497 594 1153 
L 594 3053 
L 172 3053 
L 172 3500 
L 594 3500 
L 594 4494 
L 1172 4494 
z
" transform="scale(0.015625)"/>
      <path id="DejaVuSans-6d" d="M 3328 2828 
Q 3544 3216 3844 3400 
Q 4144 3584 4550 3584 
Q 5097 3584 5394 3201 
Q 5691 2819 5691 2113 
L 5691 0 
L 5113 0 
L 5113 2094 
Q 5113 2597 4934 2840 
Q 4756 3084 4391 3084 
Q 3944 3084 3684 2787 
Q 3425 2491 3425 1978 
L 3425 0 
L 2847 0 
L 2847 2094 
Q 2847 2600 2669 2842 
Q 2491 3084 2119 3084 
Q 1678 3084 1418 2786 
Q 1159 2488 1159 1978 
L 1159 0 
L 581 0 
L 581 3500 
L 1159 3500 
L 1159 2956 
Q 1356 3278 1631 3431 
Q 1906 3584 2284 3584 
Q 2666 3584 2933 3390 
Q 3200 3197 3328 2828 
z
" transform="scale(0.015625)"/>
      <path id="DejaVuSans-70" d="M 1159 525 
L 1159 -1331 
L 581 -1331 
L 581 3500 
L 1159 3500 
L 1159 2969 
Q 1341 3281 1617 3432 
Q 1894 3584 2278 3584 
Q 2916 3584 3314 3078 
Q 3713 2572 3713 1747 
Q 3713 922 3314 415 
Q 2916 -91 2278 -91 
Q 1894 -91 1617 61 
Q 1341 213 1159 525 
z
M 3116 1747 
Q 3116 2381 2855 2742 
Q 2594 3103 2138 3103 
Q 1681 3103 1420 2742 
Q 1159 2381 1159 1747 
Q 1159 1113 1420 752 
Q 1681 391 2138 391 
Q 2594 391 2855 752 
Q 3116 1113 3116 1747 
z
" transform="scale(0.015625)"/>
      <path id="DejaVuSans-64" d="M 2906 2969 
L 2906 4863 
L 3481 4863 
L 3481 0 
L 2906 0 
L 2906 525 
Q 2725 213 2448 61 
Q 2172 -91 1784 -91 
Q 1150 -91 751 415 
Q 353 922 353 1747 
Q 353 2572 751 3078 
Q 1150 3584 1784 3584 
Q 2172 3584 2448 3432 
Q 2725 3281 2906 2969 
z
M 947 1747 
Q 947 1113 1208 752 
Q 1469 391 1925 391 
Q 2381 391 2643 752 
Q 2906 1113 2906 1747 
Q 2906 2381 2643 2742 
Q 2381 3103 1925 3103 
Q 1469 3103 1208 2742 
Q 947 2381 947 1747 
z
" transform="scale(0.015625)"/>
      <path id="DejaVuSans-73" d="M 2834 3397 
L 2834 2853 
Q 2591 2978 2328 3040 
Q 2066 3103 1784 3103 
Q 1356 3103 1142 2972 
Q 928 2841 928 2578 
Q 928 2378 1081 2264 
Q 1234 2150 1697 2047 
L 1894 2003 
Q 2506 1872 2764 1633 
Q 3022 1394 3022 966 
Q 3022 478 2636 193 
Q 2250 -91 1575 -91 
Q 1294 -91 989 -36 
Q 684 19 347 128 
L 347 722 
Q 666 556 975 473 
Q 1284 391 1588 391 
Q 1994 391 2212 530 
Q 2431 669 2431 922 
Q 2431 1156 2273 1281 
Q 2116 1406 1581 1522 
L 1381 1569 
Q 847 1681 609 1914 
Q 372 2147 372 2553 
Q 372 3047 722 3315 
Q 1072 3584 1716 3584 
Q 2034 3584 2315 3537 
Q 2597 3491 2834 3397 
z
" transform="scale(0.015625)"/>
      <path id="DejaVuSans-63" d="M 3122 3366 
L 3122 2828 
Q 2878 2963 2633 3030 
Q 2388 3097 2138 3097 
Q 1578 3097 1268 2742 
Q 959 2388 959 1747 
Q 959 1106 1268 751 
Q 1578 397 2138 397 
Q 2388 397 2633 464 
Q 2878 531 3122 666 
L 3122 134 
Q 2881 22 2623 -34 
Q 2366 -91 2075 -91 
Q 1284 -91 818 406 
Q 353 903 353 1747 
Q 353 2603 823 3093 
Q 1294 3584 2113 3584 
Q 2378 3584 2631 3529 
Q 2884 3475 3122 3366 
z
" transform="scale(0.015625)"/>
      <path id="DejaVuSans-6f" d="M 1959 3097 
Q 1497 3097 1228 2736 
Q 959 2375 959 1747 
Q 959 1119 1226 758 
Q 1494 397 1959 397 
Q 2419 397 2687 759 
Q 2956 1122 2956 1747 
Q 2956 2369 2687 2733 
Q 2419 3097 1959 3097 
z
M 1959 3584 
Q 2709 3584 3137 3096 
Q 3566 2609 3566 1747 
Q 3566 888 3137 398 
Q 2709 -91 1959 -91 
Q 1206 -91 779 398 
Q 353 888 353 1747 
Q 353 2609 779 3096 
Q 1206 3584 1959 3584 
z
" transform="scale(0.015625)"/>
      <path id="DejaVuSans-75" d="M 544 1381 
L 544 3500 
L 1119 3500 
L 1119 1403 
Q 1119 906 1312 657 
Q 1506 409 1894 409 
Q 2359 409 2629 706 
Q 2900 1003 2900 1516 
L 2900 3500 
L 3475 3500 
L 3475 0 
L 2900 0 
L 2900 538 
Q 2691 219 2414 64 
Q 2138 -91 1772 -91 
Q 1169 -91 856 284 
Q 544 659 544 1381 
z
M 1991 3584 
L 1991 3584 
z
" transform="scale(0.015625)"/>
      <path id="DejaVuSans-61" d="M 2194 1759 
Q 1497 1759 1228 1600 
Q 959 1441 959 1056 
Q 959 750 1161 570 
Q 1363 391 1709 391 
Q 2188 391 2477 730 
Q 2766 1069 2766 1631 
L 2766 1759 
L 2194 1759 
z
M 3341 1997 
L 3341 0 
L 2766 0 
L 2766 531 
Q 2569 213 2275 61 
Q 1981 -91 1556 -91 
Q 1019 -91 701 211 
Q 384 513 384 1019 
Q 384 1609 779 1909 
Q 1175 2209 1959 2209 
L 2766 2209 
L 2766 2266 
Q 2766 2663 2505 2880 
Q 2244 3097 1772 3097 
Q 1472 3097 1187 3025 
Q 903 2953 641 2809 
L 641 3341 
Q 956 3463 1253 3523 
Q 1550 3584 1831 3584 
Q 2591 3584 2966 3190 
Q 3341 2797 3341 1997 
z
" transform="scale(0.015625)"/>
      <path id="DejaVuSans-41" d="M 2188 4044 
L 1331 1722 
L 3047 1722 
L 2188 4044 
z
M 1831 4666 
L 2547 4666 
L 4325 0 
L 3669 0 
L 3244 1197 
L 1141 1197 
L 716 0 
L 50 0 
L 1831 4666 
z
" transform="scale(0.015625)"/>
      <path id="DejaVuSans-2c" d="M 750 794 
L 1409 794 
L 1409 256 
L 897 -744 
L 494 -744 
L 750 256 
L 750 794 
z
" transform="scale(0.015625)"/>
      <path id="DejaVuSans-4c" d="M 628 4666 
L 1259 4666 
L 1259 531 
L 3531 531 
L 3531 0 
L 628 0 
L 628 4666 
z
" transform="scale(0.015625)"/>
      <path id="DejaVuSans-3d" d="M 678 2906 
L 4684 2906 
L 4684 2381 
L 678 2381 
L 678 2906 
z
M 678 1631 
L 4684 1631 
L 4684 1100 
L 678 1100 
L 678 1631 
z
" transform="scale(0.015625)"/>
     </defs>
     <use xlink:href="#DejaVuSans-53"/>
     <use xlink:href="#DejaVuSans-65" x="63.476562"/>
     <use xlink:href="#DejaVuSans-72" x="125"/>
     <use xlink:href="#DejaVuSans-69" x="166.113281"/>
     <use xlink:href="#DejaVuSans-65" x="193.896484"/>
     <use xlink:href="#DejaVuSans-20" x="255.419922"/>
     <use xlink:href="#DejaVuSans-74" x="287.207031"/>
     <use xlink:href="#DejaVuSans-69" x="326.416016"/>
     <use xlink:href="#DejaVuSans-6d" x="354.199219"/>
     <use xlink:href="#DejaVuSans-70" x="451.611328"/>
     <use xlink:href="#DejaVuSans-20" x="515.087891"/>
     <use xlink:href="#DejaVuSans-64" x="546.875"/>
     <use xlink:href="#DejaVuSans-65" x="610.351562"/>
     <use xlink:href="#DejaVuSans-73" x="671.875"/>
     <use xlink:href="#DejaVuSans-63" x="723.974609"/>
     <use xlink:href="#DejaVuSans-6f" x="778.955078"/>
     <use xlink:href="#DejaVuSans-6d" x="840.136719"/>
     <use xlink:href="#DejaVuSans-70" x="937.548828"/>
     <use xlink:href="#DejaVuSans-75" x="1001.025391"/>
     <use xlink:href="#DejaVuSans-73" x="1064.404297"/>
     <use xlink:href="#DejaVuSans-61" x="1116.503906"/>
     <use xlink:href="#DejaVuSans-20" x="1177.783203"/>
     <use xlink:href="#DejaVuSans-63" x="1209.570312"/>
     <use xlink:href="#DejaVuSans-75" x="1264.550781"/>
     <use xlink:href="#DejaVuSans-20" x="1327.929688"/>
     <use xlink:href="#DejaVuSans-53" x="1359.716797"/>
     <use xlink:href="#DejaVuSans-53" x="1423.193359"/>
     <use xlink:href="#DejaVuSans-41" x="1488.544922"/>
     <use xlink:href="#DejaVuSans-2c" x="1556.953125"/>
     <use xlink:href="#DejaVuSans-20" x="1588.740234"/>
     <use xlink:href="#DejaVuSans-4c" x="1620.527344"/>
     <use xlink:href="#DejaVuSans-20" x="1676.240234"/>
     <use xlink:href="#DejaVuSans-3d" x="1708.027344"/>
     <use xlink:href="#DejaVuSans-20" x="1791.816406"/>
     <use xlink:href="#DejaVuSans-36" x="1823.603516"/>
     <use xlink:href="#DejaVuSans-30" x="1887.226562"/>
     <use xlink:href="#DejaVuSans-30" x="1950.849609"/>
    </g>
   </g>
   <g id="legend_1">
    <g id="patch_7">
     <path d="M 64.6 108.1845 
L 214.703125 108.1845 
Q 216.703125 108.1845 216.703125 106.1845 
L 216.703125 48.472 
Q 216.703125 46.472 214.703125 46.472 
L 64.6 46.472 
Q 62.6 46.472 62.6 48.472 
L 62.6 106.1845 
Q 62.6 108.1845 64.6 108.1845 
z
" style="fill: #ffffff; opacity: 0.8; stroke: #cccccc; stroke-linejoin: miter"/>
    </g>
    <g id="line2d_16">
     <path d="M 66.6 54.570438 
L 76.6 54.570438 
L 86.6 54.570438 
" style="fill: none; stroke: #1f77b4; stroke-width: 1.5; stroke-linecap: square"/>
    </g>
    <g id="text_13">
     <!-- Serie timp originala -->
     <g transform="translate(94.6 58.070438) scale(0.1 -0.1)">
      <defs>
       <path id="DejaVuSans-67" d="M 2906 1791 
Q 2906 2416 2648 2759 
Q 2391 3103 1925 3103 
Q 1463 3103 1205 2759 
Q 947 2416 947 1791 
Q 947 1169 1205 825 
Q 1463 481 1925 481 
Q 2391 481 2648 825 
Q 2906 1169 2906 1791 
z
M 3481 434 
Q 3481 -459 3084 -895 
Q 2688 -1331 1869 -1331 
Q 1566 -1331 1297 -1286 
Q 1028 -1241 775 -1147 
L 775 -588 
Q 1028 -725 1275 -790 
Q 1522 -856 1778 -856 
Q 2344 -856 2625 -561 
Q 2906 -266 2906 331 
L 2906 616 
Q 2728 306 2450 153 
Q 2172 0 1784 0 
Q 1141 0 747 490 
Q 353 981 353 1791 
Q 353 2603 747 3093 
Q 1141 3584 1784 3584 
Q 2172 3584 2450 3431 
Q 2728 3278 2906 2969 
L 2906 3500 
L 3481 3500 
L 3481 434 
z
" transform="scale(0.015625)"/>
       <path id="DejaVuSans-6e" d="M 3513 2113 
L 3513 0 
L 2938 0 
L 2938 2094 
Q 2938 2591 2744 2837 
Q 2550 3084 2163 3084 
Q 1697 3084 1428 2787 
Q 1159 2491 1159 1978 
L 1159 0 
L 581 0 
L 581 3500 
L 1159 3500 
L 1159 2956 
Q 1366 3272 1645 3428 
Q 1925 3584 2291 3584 
Q 2894 3584 3203 3211 
Q 3513 2838 3513 2113 
z
" transform="scale(0.015625)"/>
       <path id="DejaVuSans-6c" d="M 603 4863 
L 1178 4863 
L 1178 0 
L 603 0 
L 603 4863 
z
" transform="scale(0.015625)"/>
      </defs>
      <use xlink:href="#DejaVuSans-53"/>
      <use xlink:href="#DejaVuSans-65" x="63.476562"/>
      <use xlink:href="#DejaVuSans-72" x="125"/>
      <use xlink:href="#DejaVuSans-69" x="166.113281"/>
      <use xlink:href="#DejaVuSans-65" x="193.896484"/>
      <use xlink:href="#DejaVuSans-20" x="255.419922"/>
      <use xlink:href="#DejaVuSans-74" x="287.207031"/>
      <use xlink:href="#DejaVuSans-69" x="326.416016"/>
      <use xlink:href="#DejaVuSans-6d" x="354.199219"/>
      <use xlink:href="#DejaVuSans-70" x="451.611328"/>
      <use xlink:href="#DejaVuSans-20" x="515.087891"/>
      <use xlink:href="#DejaVuSans-6f" x="546.875"/>
      <use xlink:href="#DejaVuSans-72" x="608.056641"/>
      <use xlink:href="#DejaVuSans-69" x="649.169922"/>
      <use xlink:href="#DejaVuSans-67" x="676.953125"/>
      <use xlink:href="#DejaVuSans-69" x="740.429688"/>
      <use xlink:href="#DejaVuSans-6e" x="768.212891"/>
      <use xlink:href="#DejaVuSans-61" x="831.591797"/>
      <use xlink:href="#DejaVuSans-6c" x="892.871094"/>
      <use xlink:href="#DejaVuSans-61" x="920.654297"/>
     </g>
    </g>
    <g id="line2d_17">
     <path d="M 66.6 69.248563 
L 76.6 69.248563 
L 86.6 69.248563 
" style="fill: none; stroke: #ff7f0e; stroke-width: 1.5; stroke-linecap: square"/>
    </g>
    <g id="text_14">
     <!-- Componenta de ordin 1 -->
     <g transform="translate(94.6 72.748563) scale(0.1 -0.1)">
      <defs>
       <path id="DejaVuSans-43" d="M 4122 4306 
L 4122 3641 
Q 3803 3938 3442 4084 
Q 3081 4231 2675 4231 
Q 1875 4231 1450 3742 
Q 1025 3253 1025 2328 
Q 1025 1406 1450 917 
Q 1875 428 2675 428 
Q 3081 428 3442 575 
Q 3803 722 4122 1019 
L 4122 359 
Q 3791 134 3420 21 
Q 3050 -91 2638 -91 
Q 1578 -91 968 557 
Q 359 1206 359 2328 
Q 359 3453 968 4101 
Q 1578 4750 2638 4750 
Q 3056 4750 3426 4639 
Q 3797 4528 4122 4306 
z
" transform="scale(0.015625)"/>
      </defs>
      <use xlink:href="#DejaVuSans-43"/>
      <use xlink:href="#DejaVuSans-6f" x="69.824219"/>
      <use xlink:href="#DejaVuSans-6d" x="131.005859"/>
      <use xlink:href="#DejaVuSans-70" x="228.417969"/>
      <use xlink:href="#DejaVuSans-6f" x="291.894531"/>
      <use xlink:href="#DejaVuSans-6e" x="353.076172"/>
      <use xlink:href="#DejaVuSans-65" x="416.455078"/>
      <use xlink:href="#DejaVuSans-6e" x="477.978516"/>
      <use xlink:href="#DejaVuSans-74" x="541.357422"/>
      <use xlink:href="#DejaVuSans-61" x="580.566406"/>
      <use xlink:href="#DejaVuSans-20" x="641.845703"/>
      <use xlink:href="#DejaVuSans-64" x="673.632812"/>
      <use xlink:href="#DejaVuSans-65" x="737.109375"/>
      <use xlink:href="#DejaVuSans-20" x="798.632812"/>
      <use xlink:href="#DejaVuSans-6f" x="830.419922"/>
      <use xlink:href="#DejaVuSans-72" x="891.601562"/>
      <use xlink:href="#DejaVuSans-64" x="930.964844"/>
      <use xlink:href="#DejaVuSans-69" x="994.441406"/>
      <use xlink:href="#DejaVuSans-6e" x="1022.224609"/>
      <use xlink:href="#DejaVuSans-20" x="1085.603516"/>
      <use xlink:href="#DejaVuSans-31" x="1117.390625"/>
     </g>
    </g>
    <g id="line2d_18">
     <path d="M 66.6 83.926688 
L 76.6 83.926688 
L 86.6 83.926688 
" style="fill: none; stroke: #2ca02c; stroke-width: 1.5; stroke-linecap: square"/>
    </g>
    <g id="text_15">
     <!-- Componenta de ordin 2 -->
     <g transform="translate(94.6 87.426688) scale(0.1 -0.1)">
      <use xlink:href="#DejaVuSans-43"/>
      <use xlink:href="#DejaVuSans-6f" x="69.824219"/>
      <use xlink:href="#DejaVuSans-6d" x="131.005859"/>
      <use xlink:href="#DejaVuSans-70" x="228.417969"/>
      <use xlink:href="#DejaVuSans-6f" x="291.894531"/>
      <use xlink:href="#DejaVuSans-6e" x="353.076172"/>
      <use xlink:href="#DejaVuSans-65" x="416.455078"/>
      <use xlink:href="#DejaVuSans-6e" x="477.978516"/>
      <use xlink:href="#DejaVuSans-74" x="541.357422"/>
      <use xlink:href="#DejaVuSans-61" x="580.566406"/>
      <use xlink:href="#DejaVuSans-20" x="641.845703"/>
      <use xlink:href="#DejaVuSans-64" x="673.632812"/>
      <use xlink:href="#DejaVuSans-65" x="737.109375"/>
      <use xlink:href="#DejaVuSans-20" x="798.632812"/>
      <use xlink:href="#DejaVuSans-6f" x="830.419922"/>
      <use xlink:href="#DejaVuSans-72" x="891.601562"/>
      <use xlink:href="#DejaVuSans-64" x="930.964844"/>
      <use xlink:href="#DejaVuSans-69" x="994.441406"/>
      <use xlink:href="#DejaVuSans-6e" x="1022.224609"/>
      <use xlink:href="#DejaVuSans-20" x="1085.603516"/>
      <use xlink:href="#DejaVuSans-32" x="1117.390625"/>
     </g>
    </g>
    <g id="line2d_19">
     <path d="M 66.6 98.604813 
L 76.6 98.604813 
L 86.6 98.604813 
" style="fill: none; stroke: #d62728; stroke-width: 1.5; stroke-linecap: square"/>
    </g>
    <g id="text_16">
     <!-- Componenta de ordin 3 -->
     <g transform="translate(94.6 102.104813) scale(0.1 -0.1)">
      <use xlink:href="#DejaVuSans-43"/>
      <use xlink:href="#DejaVuSans-6f" x="69.824219"/>
      <use xlink:href="#DejaVuSans-6d" x="131.005859"/>
      <use xlink:href="#DejaVuSans-70" x="228.417969"/>
      <use xlink:href="#DejaVuSans-6f" x="291.894531"/>
      <use xlink:href="#DejaVuSans-6e" x="353.076172"/>
      <use xlink:href="#DejaVuSans-65" x="416.455078"/>
      <use xlink:href="#DejaVuSans-6e" x="477.978516"/>
      <use xlink:href="#DejaVuSans-74" x="541.357422"/>
      <use xlink:href="#DejaVuSans-61" x="580.566406"/>
      <use xlink:href="#DejaVuSans-20" x="641.845703"/>
      <use xlink:href="#DejaVuSans-64" x="673.632812"/>
      <use xlink:href="#DejaVuSans-65" x="737.109375"/>
      <use xlink:href="#DejaVuSans-20" x="798.632812"/>
      <use xlink:href="#DejaVuSans-6f" x="830.419922"/>
      <use xlink:href="#DejaVuSans-72" x="891.601562"/>
      <use xlink:href="#DejaVuSans-64" x="930.964844"/>
      <use xlink:href="#DejaVuSans-69" x="994.441406"/>
      <use xlink:href="#DejaVuSans-6e" x="1022.224609"/>
      <use xlink:href="#DejaVuSans-20" x="1085.603516"/>
      <use xlink:href="#DejaVuSans-33" x="1117.390625"/>
     </g>
    </g>
   </g>
  </g>
 </g>
 <defs>
  <clipPath id="pfb9ab597c1">
   <rect x="57.6" y="41.472" width="357.12" height="266.112"/>
  </clipPath>
 </defs>
</svg>
