<?xml version="1.0" encoding="utf-8" standalone="no"?>
<!DOCTYPE svg PUBLIC "-//W3C//DTD SVG 1.1//EN"
  "http://www.w3.org/Graphics/SVG/1.1/DTD/svg11.dtd">
<svg xmlns:xlink="http://www.w3.org/1999/xlink" width="460.8pt" height="345.6pt" viewBox="0 0 460.8 345.6" xmlns="http://www.w3.org/2000/svg" version="1.1">
 <metadata>
  <rdf:RDF xmlns:dc="http://purl.org/dc/elements/1.1/" xmlns:cc="http://creativecommons.org/ns#" xmlns:rdf="http://www.w3.org/1999/02/22-rdf-syntax-ns#">
   <cc:Work>
    <dc:type rdf:resource="http://purl.org/dc/dcmitype/StillImage"/>
    <dc:date>2024-12-27T17:26:36.576233</dc:date>
    <dc:format>image/svg+xml</dc:format>
    <dc:creator>
     <cc:Agent>
      <dc:title>Matplotlib v3.9.2, https://matplotlib.org/</dc:title>
     </cc:Agent>
    </dc:creator>
   </cc:Work>
  </rdf:RDF>
 </metadata>
 <defs>
  <style type="text/css">*{stroke-linejoin: round; stroke-linecap: butt}</style>
 </defs>
 <g id="figure_1">
  <g id="patch_1">
   <path d="M 0 345.6 
L 460.8 345.6 
L 460.8 0 
L 0 0 
z
" style="fill: #ffffff"/>
  </g>
  <g id="axes_1">
   <g id="patch_2">
    <path d="M 57.6 99.322435 
L 414.72 99.322435 
L 414.72 41.472 
L 57.6 41.472 
z
" style="fill: #ffffff"/>
   </g>
   <g id="matplotlib.axis_1">
    <g id="xtick_1">
     <g id="line2d_1">
      <defs>
       <path id="md9160c7847" d="M 0 0 
L 0 3.5 
" style="stroke: #000000; stroke-width: 0.8"/>
      </defs>
      <g>
       <use xlink:href="#md9160c7847" x="73.832727" y="99.322435" style="stroke: #000000; stroke-width: 0.8"/>
      </g>
     </g>
     <g id="text_1">
      <!-- 0 -->
      <g transform="translate(70.651477 113.920872) scale(0.1 -0.1)">
       <defs>
        <path id="DejaVuSans-30" d="M 2034 4250 
Q 1547 4250 1301 3770 
Q 1056 3291 1056 2328 
Q 1056 1369 1301 889 
Q 1547 409 2034 409 
Q 2525 409 2770 889 
Q 3016 1369 3016 2328 
Q 3016 3291 2770 3770 
Q 2525 4250 2034 4250 
z
M 2034 4750 
Q 2819 4750 3233 4129 
Q 3647 3509 3647 2328 
Q 3647 1150 3233 529 
Q 2819 -91 2034 -91 
Q 1250 -91 836 529 
Q 422 1150 422 2328 
Q 422 3509 836 4129 
Q 1250 4750 2034 4750 
z
" transform="scale(0.015625)"/>
       </defs>
       <use xlink:href="#DejaVuSans-30"/>
      </g>
     </g>
    </g>
    <g id="xtick_2">
     <g id="line2d_2">
      <g>
       <use xlink:href="#md9160c7847" x="138.828632" y="99.322435" style="stroke: #000000; stroke-width: 0.8"/>
      </g>
     </g>
     <g id="text_2">
      <!-- 200 -->
      <g transform="translate(129.284882 113.920872) scale(0.1 -0.1)">
       <defs>
        <path id="DejaVuSans-32" d="M 1228 531 
L 3431 531 
L 3431 0 
L 469 0 
L 469 531 
Q 828 903 1448 1529 
Q 2069 2156 2228 2338 
Q 2531 2678 2651 2914 
Q 2772 3150 2772 3378 
Q 2772 3750 2511 3984 
Q 2250 4219 1831 4219 
Q 1534 4219 1204 4116 
Q 875 4013 500 3803 
L 500 4441 
Q 881 4594 1212 4672 
Q 1544 4750 1819 4750 
Q 2544 4750 2975 4387 
Q 3406 4025 3406 3419 
Q 3406 3131 3298 2873 
Q 3191 2616 2906 2266 
Q 2828 2175 2409 1742 
Q 1991 1309 1228 531 
z
" transform="scale(0.015625)"/>
       </defs>
       <use xlink:href="#DejaVuSans-32"/>
       <use xlink:href="#DejaVuSans-30" x="63.623047"/>
       <use xlink:href="#DejaVuSans-30" x="127.246094"/>
      </g>
     </g>
    </g>
    <g id="xtick_3">
     <g id="line2d_3">
      <g>
       <use xlink:href="#md9160c7847" x="203.824537" y="99.322435" style="stroke: #000000; stroke-width: 0.8"/>
      </g>
     </g>
     <g id="text_3">
      <!-- 400 -->
      <g transform="translate(194.280787 113.920872) scale(0.1 -0.1)">
       <defs>
        <path id="DejaVuSans-34" d="M 2419 4116 
L 825 1625 
L 2419 1625 
L 2419 4116 
z
M 2253 4666 
L 3047 4666 
L 3047 1625 
L 3713 1625 
L 3713 1100 
L 3047 1100 
L 3047 0 
L 2419 0 
L 2419 1100 
L 313 1100 
L 313 1709 
L 2253 4666 
z
" transform="scale(0.015625)"/>
       </defs>
       <use xlink:href="#DejaVuSans-34"/>
       <use xlink:href="#DejaVuSans-30" x="63.623047"/>
       <use xlink:href="#DejaVuSans-30" x="127.246094"/>
      </g>
     </g>
    </g>
    <g id="xtick_4">
     <g id="line2d_4">
      <g>
       <use xlink:href="#md9160c7847" x="268.820442" y="99.322435" style="stroke: #000000; stroke-width: 0.8"/>
      </g>
     </g>
     <g id="text_4">
      <!-- 600 -->
      <g transform="translate(259.276692 113.920872) scale(0.1 -0.1)">
       <defs>
        <path id="DejaVuSans-36" d="M 2113 2584 
Q 1688 2584 1439 2293 
Q 1191 2003 1191 1497 
Q 1191 994 1439 701 
Q 1688 409 2113 409 
Q 2538 409 2786 701 
Q 3034 994 3034 1497 
Q 3034 2003 2786 2293 
Q 2538 2584 2113 2584 
z
M 3366 4563 
L 3366 3988 
Q 3128 4100 2886 4159 
Q 2644 4219 2406 4219 
Q 1781 4219 1451 3797 
Q 1122 3375 1075 2522 
Q 1259 2794 1537 2939 
Q 1816 3084 2150 3084 
Q 2853 3084 3261 2657 
Q 3669 2231 3669 1497 
Q 3669 778 3244 343 
Q 2819 -91 2113 -91 
Q 1303 -91 875 529 
Q 447 1150 447 2328 
Q 447 3434 972 4092 
Q 1497 4750 2381 4750 
Q 2619 4750 2861 4703 
Q 3103 4656 3366 4563 
z
" transform="scale(0.015625)"/>
       </defs>
       <use xlink:href="#DejaVuSans-36"/>
       <use xlink:href="#DejaVuSans-30" x="63.623047"/>
       <use xlink:href="#DejaVuSans-30" x="127.246094"/>
      </g>
     </g>
    </g>
    <g id="xtick_5">
     <g id="line2d_5">
      <g>
       <use xlink:href="#md9160c7847" x="333.816347" y="99.322435" style="stroke: #000000; stroke-width: 0.8"/>
      </g>
     </g>
     <g id="text_5">
      <!-- 800 -->
      <g transform="translate(324.272597 113.920872) scale(0.1 -0.1)">
       <defs>
        <path id="DejaVuSans-38" d="M 2034 2216 
Q 1584 2216 1326 1975 
Q 1069 1734 1069 1313 
Q 1069 891 1326 650 
Q 1584 409 2034 409 
Q 2484 409 2743 651 
Q 3003 894 3003 1313 
Q 3003 1734 2745 1975 
Q 2488 2216 2034 2216 
z
M 1403 2484 
Q 997 2584 770 2862 
Q 544 3141 544 3541 
Q 544 4100 942 4425 
Q 1341 4750 2034 4750 
Q 2731 4750 3128 4425 
Q 3525 4100 3525 3541 
Q 3525 3141 3298 2862 
Q 3072 2584 2669 2484 
Q 3125 2378 3379 2068 
Q 3634 1759 3634 1313 
Q 3634 634 3220 271 
Q 2806 -91 2034 -91 
Q 1263 -91 848 271 
Q 434 634 434 1313 
Q 434 1759 690 2068 
Q 947 2378 1403 2484 
z
M 1172 3481 
Q 1172 3119 1398 2916 
Q 1625 2713 2034 2713 
Q 2441 2713 2670 2916 
Q 2900 3119 2900 3481 
Q 2900 3844 2670 4047 
Q 2441 4250 2034 4250 
Q 1625 4250 1398 4047 
Q 1172 3844 1172 3481 
z
" transform="scale(0.015625)"/>
       </defs>
       <use xlink:href="#DejaVuSans-38"/>
       <use xlink:href="#DejaVuSans-30" x="63.623047"/>
       <use xlink:href="#DejaVuSans-30" x="127.246094"/>
      </g>
     </g>
    </g>
    <g id="xtick_6">
     <g id="line2d_6">
      <g>
       <use xlink:href="#md9160c7847" x="398.812252" y="99.322435" style="stroke: #000000; stroke-width: 0.8"/>
      </g>
     </g>
     <g id="text_6">
      <!-- 1000 -->
      <g transform="translate(386.087252 113.920872) scale(0.1 -0.1)">
       <defs>
        <path id="DejaVuSans-31" d="M 794 531 
L 1825 531 
L 1825 4091 
L 703 3866 
L 703 4441 
L 1819 4666 
L 2450 4666 
L 2450 531 
L 3481 531 
L 3481 0 
L 794 0 
L 794 531 
z
" transform="scale(0.015625)"/>
       </defs>
       <use xlink:href="#DejaVuSans-31"/>
       <use xlink:href="#DejaVuSans-30" x="63.623047"/>
       <use xlink:href="#DejaVuSans-30" x="127.246094"/>
       <use xlink:href="#DejaVuSans-30" x="190.869141"/>
      </g>
     </g>
    </g>
   </g>
   <g id="matplotlib.axis_2">
    <g id="ytick_1">
     <g id="line2d_7">
      <defs>
       <path id="m404727e86c" d="M 0 0 
L -3.5 0 
" style="stroke: #000000; stroke-width: 0.8"/>
      </defs>
      <g>
       <use xlink:href="#m404727e86c" x="57.6" y="79.162435" style="stroke: #000000; stroke-width: 0.8"/>
      </g>
     </g>
     <g id="text_7">
      <!-- 2 -->
      <g transform="translate(44.2375 82.961654) scale(0.1 -0.1)">
       <use xlink:href="#DejaVuSans-32"/>
      </g>
     </g>
    </g>
    <g id="ytick_2">
     <g id="line2d_8">
      <g>
       <use xlink:href="#m404727e86c" x="57.6" y="44.101565" style="stroke: #000000; stroke-width: 0.8"/>
      </g>
     </g>
     <g id="text_8">
      <!-- 4 -->
      <g transform="translate(44.2375 47.900784) scale(0.1 -0.1)">
       <use xlink:href="#DejaVuSans-34"/>
      </g>
     </g>
    </g>
   </g>
   <g id="line2d_9">
    <path d="M 73.832727 96.69287 
L 99.831089 93.772773 
L 125.829451 90.627837 
L 151.827813 87.258062 
L 177.826175 83.663448 
L 203.824537 79.843996 
L 229.822899 75.799704 
L 255.821261 71.530573 
L 281.819623 67.036603 
L 307.817985 62.317794 
L 333.816347 57.374146 
L 359.814709 52.205659 
L 385.813071 46.812333 
L 398.487273 44.101565 
L 398.487273 44.101565 
" clip-path="url(#p45cb0fa3c3)" style="fill: none; stroke: #1f77b4; stroke-width: 1.5; stroke-linecap: square"/>
   </g>
   <g id="patch_3">
    <path d="M 57.6 99.322435 
L 57.6 41.472 
" style="fill: none; stroke: #000000; stroke-width: 0.8; stroke-linejoin: miter; stroke-linecap: square"/>
   </g>
   <g id="patch_4">
    <path d="M 414.72 99.322435 
L 414.72 41.472 
" style="fill: none; stroke: #000000; stroke-width: 0.8; stroke-linejoin: miter; stroke-linecap: square"/>
   </g>
   <g id="patch_5">
    <path d="M 57.6 99.322435 
L 414.72 99.322435 
" style="fill: none; stroke: #000000; stroke-width: 0.8; stroke-linejoin: miter; stroke-linecap: square"/>
   </g>
   <g id="patch_6">
    <path d="M 57.6 41.472 
L 414.72 41.472 
" style="fill: none; stroke: #000000; stroke-width: 0.8; stroke-linejoin: miter; stroke-linecap: square"/>
   </g>
   <g id="text_9">
    <!-- Ecuatie grad 2 -->
    <g transform="translate(192.486562 35.472) scale(0.12 -0.12)">
     <defs>
      <path id="DejaVuSans-45" d="M 628 4666 
L 3578 4666 
L 3578 4134 
L 1259 4134 
L 1259 2753 
L 3481 2753 
L 3481 2222 
L 1259 2222 
L 1259 531 
L 3634 531 
L 3634 0 
L 628 0 
L 628 4666 
z
" transform="scale(0.015625)"/>
      <path id="DejaVuSans-63" d="M 3122 3366 
L 3122 2828 
Q 2878 2963 2633 3030 
Q 2388 3097 2138 3097 
Q 1578 3097 1268 2742 
Q 959 2388 959 1747 
Q 959 1106 1268 751 
Q 1578 397 2138 397 
Q 2388 397 2633 464 
Q 2878 531 3122 666 
L 3122 134 
Q 2881 22 2623 -34 
Q 2366 -91 2075 -91 
Q 1284 -91 818 406 
Q 353 903 353 1747 
Q 353 2603 823 3093 
Q 1294 3584 2113 3584 
Q 2378 3584 2631 3529 
Q 2884 3475 3122 3366 
z
" transform="scale(0.015625)"/>
      <path id="DejaVuSans-75" d="M 544 1381 
L 544 3500 
L 1119 3500 
L 1119 1403 
Q 1119 906 1312 657 
Q 1506 409 1894 409 
Q 2359 409 2629 706 
Q 2900 1003 2900 1516 
L 2900 3500 
L 3475 3500 
L 3475 0 
L 2900 0 
L 2900 538 
Q 2691 219 2414 64 
Q 2138 -91 1772 -91 
Q 1169 -91 856 284 
Q 544 659 544 1381 
z
M 1991 3584 
L 1991 3584 
z
" transform="scale(0.015625)"/>
      <path id="DejaVuSans-61" d="M 2194 1759 
Q 1497 1759 1228 1600 
Q 959 1441 959 1056 
Q 959 750 1161 570 
Q 1363 391 1709 391 
Q 2188 391 2477 730 
Q 2766 1069 2766 1631 
L 2766 1759 
L 2194 1759 
z
M 3341 1997 
L 3341 0 
L 2766 0 
L 2766 531 
Q 2569 213 2275 61 
Q 1981 -91 1556 -91 
Q 1019 -91 701 211 
Q 384 513 384 1019 
Q 384 1609 779 1909 
Q 1175 2209 1959 2209 
L 2766 2209 
L 2766 2266 
Q 2766 2663 2505 2880 
Q 2244 3097 1772 3097 
Q 1472 3097 1187 3025 
Q 903 2953 641 2809 
L 641 3341 
Q 956 3463 1253 3523 
Q 1550 3584 1831 3584 
Q 2591 3584 2966 3190 
Q 3341 2797 3341 1997 
z
" transform="scale(0.015625)"/>
      <path id="DejaVuSans-74" d="M 1172 4494 
L 1172 3500 
L 2356 3500 
L 2356 3053 
L 1172 3053 
L 1172 1153 
Q 1172 725 1289 603 
Q 1406 481 1766 481 
L 2356 481 
L 2356 0 
L 1766 0 
Q 1100 0 847 248 
Q 594 497 594 1153 
L 594 3053 
L 172 3053 
L 172 3500 
L 594 3500 
L 594 4494 
L 1172 4494 
z
" transform="scale(0.015625)"/>
      <path id="DejaVuSans-69" d="M 603 3500 
L 1178 3500 
L 1178 0 
L 603 0 
L 603 3500 
z
M 603 4863 
L 1178 4863 
L 1178 4134 
L 603 4134 
L 603 4863 
z
" transform="scale(0.015625)"/>
      <path id="DejaVuSans-65" d="M 3597 1894 
L 3597 1613 
L 953 1613 
Q 991 1019 1311 708 
Q 1631 397 2203 397 
Q 2534 397 2845 478 
Q 3156 559 3463 722 
L 3463 178 
Q 3153 47 2828 -22 
Q 2503 -91 2169 -91 
Q 1331 -91 842 396 
Q 353 884 353 1716 
Q 353 2575 817 3079 
Q 1281 3584 2069 3584 
Q 2775 3584 3186 3129 
Q 3597 2675 3597 1894 
z
M 3022 2063 
Q 3016 2534 2758 2815 
Q 2500 3097 2075 3097 
Q 1594 3097 1305 2825 
Q 1016 2553 972 2059 
L 3022 2063 
z
" transform="scale(0.015625)"/>
      <path id="DejaVuSans-20" transform="scale(0.015625)"/>
      <path id="DejaVuSans-67" d="M 2906 1791 
Q 2906 2416 2648 2759 
Q 2391 3103 1925 3103 
Q 1463 3103 1205 2759 
Q 947 2416 947 1791 
Q 947 1169 1205 825 
Q 1463 481 1925 481 
Q 2391 481 2648 825 
Q 2906 1169 2906 1791 
z
M 3481 434 
Q 3481 -459 3084 -895 
Q 2688 -1331 1869 -1331 
Q 1566 -1331 1297 -1286 
Q 1028 -1241 775 -1147 
L 775 -588 
Q 1028 -725 1275 -790 
Q 1522 -856 1778 -856 
Q 2344 -856 2625 -561 
Q 2906 -266 2906 331 
L 2906 616 
Q 2728 306 2450 153 
Q 2172 0 1784 0 
Q 1141 0 747 490 
Q 353 981 353 1791 
Q 353 2603 747 3093 
Q 1141 3584 1784 3584 
Q 2172 3584 2450 3431 
Q 2728 3278 2906 2969 
L 2906 3500 
L 3481 3500 
L 3481 434 
z
" transform="scale(0.015625)"/>
      <path id="DejaVuSans-72" d="M 2631 2963 
Q 2534 3019 2420 3045 
Q 2306 3072 2169 3072 
Q 1681 3072 1420 2755 
Q 1159 2438 1159 1844 
L 1159 0 
L 581 0 
L 581 3500 
L 1159 3500 
L 1159 2956 
Q 1341 3275 1631 3429 
Q 1922 3584 2338 3584 
Q 2397 3584 2469 3576 
Q 2541 3569 2628 3553 
L 2631 2963 
z
" transform="scale(0.015625)"/>
      <path id="DejaVuSans-64" d="M 2906 2969 
L 2906 4863 
L 3481 4863 
L 3481 0 
L 2906 0 
L 2906 525 
Q 2725 213 2448 61 
Q 2172 -91 1784 -91 
Q 1150 -91 751 415 
Q 353 922 353 1747 
Q 353 2572 751 3078 
Q 1150 3584 1784 3584 
Q 2172 3584 2448 3432 
Q 2725 3281 2906 2969 
z
M 947 1747 
Q 947 1113 1208 752 
Q 1469 391 1925 391 
Q 2381 391 2643 752 
Q 2906 1113 2906 1747 
Q 2906 2381 2643 2742 
Q 2381 3103 1925 3103 
Q 1469 3103 1208 2742 
Q 947 2381 947 1747 
z
" transform="scale(0.015625)"/>
     </defs>
     <use xlink:href="#DejaVuSans-45"/>
     <use xlink:href="#DejaVuSans-63" x="63.183594"/>
     <use xlink:href="#DejaVuSans-75" x="118.164062"/>
     <use xlink:href="#DejaVuSans-61" x="181.542969"/>
     <use xlink:href="#DejaVuSans-74" x="242.822266"/>
     <use xlink:href="#DejaVuSans-69" x="282.03125"/>
     <use xlink:href="#DejaVuSans-65" x="309.814453"/>
     <use xlink:href="#DejaVuSans-20" x="371.337891"/>
     <use xlink:href="#DejaVuSans-67" x="403.125"/>
     <use xlink:href="#DejaVuSans-72" x="466.601562"/>
     <use xlink:href="#DejaVuSans-61" x="507.714844"/>
     <use xlink:href="#DejaVuSans-64" x="568.994141"/>
     <use xlink:href="#DejaVuSans-20" x="632.470703"/>
     <use xlink:href="#DejaVuSans-32" x="664.257812"/>
    </g>
   </g>
  </g>
  <g id="axes_2">
   <g id="patch_7">
    <path d="M 57.6 168.742957 
L 414.72 168.742957 
L 414.72 110.892522 
L 57.6 110.892522 
z
" style="fill: #ffffff"/>
   </g>
   <g id="matplotlib.axis_3">
    <g id="xtick_7">
     <g id="line2d_10">
      <g>
       <use xlink:href="#md9160c7847" x="73.832727" y="168.742957" style="stroke: #000000; stroke-width: 0.8"/>
      </g>
     </g>
     <g id="text_10">
      <!-- 0 -->
      <g transform="translate(70.651477 183.341394) scale(0.1 -0.1)">
       <use xlink:href="#DejaVuSans-30"/>
      </g>
     </g>
    </g>
    <g id="xtick_8">
     <g id="line2d_11">
      <g>
       <use xlink:href="#md9160c7847" x="138.828632" y="168.742957" style="stroke: #000000; stroke-width: 0.8"/>
      </g>
     </g>
     <g id="text_11">
      <!-- 200 -->
      <g transform="translate(129.284882 183.341394) scale(0.1 -0.1)">
       <use xlink:href="#DejaVuSans-32"/>
       <use xlink:href="#DejaVuSans-30" x="63.623047"/>
       <use xlink:href="#DejaVuSans-30" x="127.246094"/>
      </g>
     </g>
    </g>
    <g id="xtick_9">
     <g id="line2d_12">
      <g>
       <use xlink:href="#md9160c7847" x="203.824537" y="168.742957" style="stroke: #000000; stroke-width: 0.8"/>
      </g>
     </g>
     <g id="text_12">
      <!-- 400 -->
      <g transform="translate(194.280787 183.341394) scale(0.1 -0.1)">
       <use xlink:href="#DejaVuSans-34"/>
       <use xlink:href="#DejaVuSans-30" x="63.623047"/>
       <use xlink:href="#DejaVuSans-30" x="127.246094"/>
      </g>
     </g>
    </g>
    <g id="xtick_10">
     <g id="line2d_13">
      <g>
       <use xlink:href="#md9160c7847" x="268.820442" y="168.742957" style="stroke: #000000; stroke-width: 0.8"/>
      </g>
     </g>
     <g id="text_13">
      <!-- 600 -->
      <g transform="translate(259.276692 183.341394) scale(0.1 -0.1)">
       <use xlink:href="#DejaVuSans-36"/>
       <use xlink:href="#DejaVuSans-30" x="63.623047"/>
       <use xlink:href="#DejaVuSans-30" x="127.246094"/>
      </g>
     </g>
    </g>
    <g id="xtick_11">
     <g id="line2d_14">
      <g>
       <use xlink:href="#md9160c7847" x="333.816347" y="168.742957" style="stroke: #000000; stroke-width: 0.8"/>
      </g>
     </g>
     <g id="text_14">
      <!-- 800 -->
      <g transform="translate(324.272597 183.341394) scale(0.1 -0.1)">
       <use xlink:href="#DejaVuSans-38"/>
       <use xlink:href="#DejaVuSans-30" x="63.623047"/>
       <use xlink:href="#DejaVuSans-30" x="127.246094"/>
      </g>
     </g>
    </g>
    <g id="xtick_12">
     <g id="line2d_15">
      <g>
       <use xlink:href="#md9160c7847" x="398.812252" y="168.742957" style="stroke: #000000; stroke-width: 0.8"/>
      </g>
     </g>
     <g id="text_15">
      <!-- 1000 -->
      <g transform="translate(386.087252 183.341394) scale(0.1 -0.1)">
       <use xlink:href="#DejaVuSans-31"/>
       <use xlink:href="#DejaVuSans-30" x="63.623047"/>
       <use xlink:href="#DejaVuSans-30" x="127.246094"/>
       <use xlink:href="#DejaVuSans-30" x="190.869141"/>
      </g>
     </g>
    </g>
   </g>
   <g id="matplotlib.axis_4">
    <g id="ytick_3">
     <g id="line2d_16">
      <g>
       <use xlink:href="#m404727e86c" x="57.6" y="166.152515" style="stroke: #000000; stroke-width: 0.8"/>
      </g>
     </g>
     <g id="text_16">
      <!-- 0.0 -->
      <g transform="translate(34.696875 169.951734) scale(0.1 -0.1)">
       <defs>
        <path id="DejaVuSans-2e" d="M 684 794 
L 1344 794 
L 1344 0 
L 684 0 
L 684 794 
z
" transform="scale(0.015625)"/>
       </defs>
       <use xlink:href="#DejaVuSans-30"/>
       <use xlink:href="#DejaVuSans-2e" x="63.623047"/>
       <use xlink:href="#DejaVuSans-30" x="95.410156"/>
      </g>
     </g>
    </g>
    <g id="ytick_4">
     <g id="line2d_17">
      <g>
       <use xlink:href="#m404727e86c" x="57.6" y="113.510081" style="stroke: #000000; stroke-width: 0.8"/>
      </g>
     </g>
     <g id="text_17">
      <!-- 0.1 -->
      <g transform="translate(34.696875 117.3093) scale(0.1 -0.1)">
       <use xlink:href="#DejaVuSans-30"/>
       <use xlink:href="#DejaVuSans-2e" x="63.623047"/>
       <use xlink:href="#DejaVuSans-31" x="95.410156"/>
      </g>
     </g>
    </g>
   </g>
   <g id="line2d_18">
    <path d="M 73.832727 153.096513 
L 74.157707 135.909888 
L 74.482686 144.74546 
L 74.807666 141.393488 
L 75.132645 147.230294 
L 75.457625 138.031448 
L 75.782604 149.199911 
L 76.107584 116.996679 
L 76.432563 163.668275 
L 76.757543 135.82112 
L 77.082523 151.575361 
L 77.407502 131.954091 
L 77.732482 128.813383 
L 78.057461 165.169473 
L 78.382441 157.534205 
L 78.70742 130.704489 
L 79.0324 161.975649 
L 79.357379 155.014985 
L 79.682359 157.435411 
L 80.007338 148.243041 
L 80.332318 123.208219 
L 80.657297 131.352326 
L 80.982277 117.098382 
L 81.632236 138.713587 
L 81.957215 128.737622 
L 82.282195 155.970547 
L 82.607174 150.549882 
L 82.932154 157.505467 
L 83.582113 146.010757 
L 83.907093 156.130943 
L 84.232072 161.946634 
L 84.557052 123.030326 
L 84.882031 115.99717 
L 85.207011 138.3068 
L 85.53199 139.51528 
L 85.85697 143.631536 
L 86.181949 137.431644 
L 86.506929 149.668778 
L 86.831908 146.183793 
L 87.156888 122.131845 
L 87.481867 115.416798 
L 87.806847 120.311027 
L 88.131826 157.822984 
L 88.456806 156.856397 
L 88.781785 117.78272 
L 89.106765 124.345175 
L 89.431744 147.592655 
L 90.081704 165.965904 
L 90.406683 125.139389 
L 90.731663 128.054342 
L 91.056642 147.567792 
L 91.381622 146.737811 
L 92.031581 121.200195 
L 92.35656 141.945347 
L 92.68154 119.392543 
L 93.006519 161.671501 
L 93.331499 161.432505 
L 93.656478 120.690143 
L 93.981458 147.17539 
L 94.306437 156.072764 
L 94.631417 123.567189 
L 94.956396 117.568222 
L 95.606355 137.862834 
L 95.931335 164.726995 
L 96.256314 131.90535 
L 96.581294 140.247326 
L 96.906274 161.48241 
L 97.231253 123.03576 
L 97.556233 145.462091 
L 97.881212 143.052141 
L 98.206192 155.968686 
L 98.531171 162.385472 
L 98.856151 116.236945 
L 99.18113 144.259213 
L 99.50611 121.482314 
L 99.831089 123.294801 
L 100.156069 139.070369 
L 100.481048 164.915056 
L 100.806028 131.829464 
L 101.131007 136.909183 
L 101.455987 151.546514 
L 101.780966 140.133808 
L 102.105946 138.277648 
L 102.430925 124.171191 
L 102.755905 163.493954 
L 103.080885 124.343687 
L 103.405864 117.303281 
L 103.730844 149.588113 
L 104.380803 114.242135 
L 104.705782 163.501894 
L 105.030762 116.178013 
L 105.355741 145.659978 
L 105.680721 120.595653 
L 106.0057 129.93017 
L 106.33068 151.550002 
L 106.655659 160.900845 
L 106.980639 157.424842 
L 107.630598 160.260744 
L 107.955577 119.184171 
L 108.280557 135.982235 
L 108.605536 142.137773 
L 108.930516 127.324296 
L 109.255495 120.862702 
L 109.580475 157.645771 
L 109.905455 122.873436 
L 110.230434 154.698753 
L 110.555414 161.784881 
L 110.880393 151.627308 
L 111.205373 114.09625 
L 111.530352 115.966906 
L 112.180311 137.364926 
L 112.505291 145.690176 
L 112.83027 160.659239 
L 113.15525 119.925832 
L 113.480229 132.821269 
L 113.805209 114.988659 
L 114.130188 122.141918 
L 114.455168 123.18974 
L 114.780147 122.783992 
L 115.105127 123.736993 
L 115.430106 156.134758 
L 115.755086 159.347337 
L 116.080066 155.883814 
L 116.405045 166.113391 
L 116.730025 137.055751 
L 117.055004 129.43429 
L 117.379984 151.166758 
L 117.704963 126.915364 
L 118.029943 149.00023 
L 118.354922 117.966276 
L 118.679902 152.779223 
L 119.004881 138.051296 
L 119.329861 145.805085 
L 119.65484 113.802147 
L 119.97982 142.511507 
L 120.304799 126.668613 
L 120.629779 154.207472 
L 121.279738 129.827275 
L 121.604717 139.033127 
L 121.929697 164.738903 
L 122.254676 127.453117 
L 122.579656 163.85648 
L 122.904636 162.092288 
L 123.229615 163.123873 
L 123.554595 134.249226 
L 123.879574 153.057533 
L 124.204554 130.232451 
L 124.529533 160.774748 
L 124.854513 152.109843 
L 125.179492 157.247704 
L 125.504472 143.951161 
L 125.829451 139.445275 
L 126.154431 141.947928 
L 126.47941 148.013035 
L 126.80439 144.266372 
L 127.129369 115.132356 
L 127.454349 139.363021 
L 127.779328 114.652877 
L 128.104308 144.90059 
L 128.429287 156.74893 
L 128.754267 143.793705 
L 129.079247 165.061203 
L 129.404226 150.501251 
L 129.729206 152.249792 
L 130.054185 132.101302 
L 130.379165 132.496901 
L 130.704144 151.866234 
L 131.029124 152.745059 
L 131.679083 124.896206 
L 132.004062 122.323574 
L 132.329042 156.123071 
L 132.654021 126.143743 
L 132.979001 162.739683 
L 133.62896 122.322966 
L 133.953939 144.43696 
L 134.278919 132.695385 
L 134.603898 134.017664 
L 134.928878 132.443647 
L 135.253857 159.978386 
L 135.578837 153.480375 
L 135.903817 141.039932 
L 136.228796 114.500031 
L 136.553776 134.910744 
L 136.878755 122.529022 
L 137.203735 147.863758 
L 137.528714 147.572762 
L 137.853694 117.418556 
L 138.178673 125.732986 
L 138.503653 140.026186 
L 138.828632 149.111657 
L 139.153612 139.057179 
L 139.478591 146.657584 
L 139.803571 118.0073 
L 140.12855 152.673144 
L 140.45353 126.625738 
L 140.778509 136.509594 
L 141.103489 135.091498 
L 141.428468 157.057501 
L 141.753448 152.390613 
L 142.078428 127.479467 
L 142.403407 160.493048 
L 143.053366 132.080792 
L 143.378346 153.448705 
L 143.703325 156.750383 
L 144.028305 156.049796 
L 144.353284 118.250686 
L 145.003243 164.935037 
L 145.328223 135.314438 
L 145.653202 163.787565 
L 145.978182 150.536311 
L 146.303161 126.874536 
L 146.628141 151.4093 
L 146.95312 164.891284 
L 147.2781 155.552625 
L 147.603079 160.38751 
L 147.928059 148.019639 
L 148.253038 160.357679 
L 148.578018 146.934002 
L 148.902998 140.439764 
L 149.227977 166.008611 
L 149.552957 136.091248 
L 149.877936 120.386782 
L 150.202916 144.524154 
L 150.527895 159.48292 
L 150.852875 152.362556 
L 151.177854 121.69736 
L 151.502834 140.180976 
L 152.152793 124.670537 
L 152.477772 122.340639 
L 152.802752 155.922463 
L 153.77769 123.658785 
L 154.10267 123.483202 
L 154.427649 144.63841 
L 154.752629 126.325894 
L 155.077609 124.344619 
L 155.402588 165.398201 
L 155.727568 117.104036 
L 156.052547 150.358525 
L 156.377527 138.786617 
L 156.702506 139.931311 
L 157.027486 123.663046 
L 157.677445 157.752093 
L 158.002424 134.61215 
L 158.327404 160.733859 
L 158.652383 120.683296 
L 158.977363 118.73237 
L 159.302342 119.265183 
L 159.627322 145.397868 
L 159.952301 149.194229 
L 160.277281 158.112741 
L 160.60226 129.455647 
L 160.92724 162.479912 
L 161.252219 114.219628 
L 161.577199 131.320845 
L 161.902179 162.376817 
L 162.227158 118.811386 
L 162.552138 148.034633 
L 162.877117 113.525247 
L 163.202097 151.351758 
L 163.527076 124.113871 
L 163.852056 152.684593 
L 164.177035 162.472542 
L 164.502015 129.1495 
L 164.826994 134.674951 
L 165.151974 156.121419 
L 165.476953 157.843855 
L 165.801933 146.540102 
L 166.126912 150.927082 
L 166.451892 161.143527 
L 167.101851 127.017445 
L 167.42683 141.988934 
L 167.75181 163.558181 
L 168.07679 128.346919 
L 168.401769 143.946765 
L 168.726749 142.356744 
L 169.051728 162.965553 
L 169.701687 125.516603 
L 170.026667 157.62113 
L 170.351646 139.828428 
L 170.676626 154.035611 
L 171.001605 153.937569 
L 171.326585 157.952856 
L 171.651564 132.466016 
L 171.976544 120.383442 
L 172.301523 120.375358 
L 172.626503 143.514513 
L 172.951482 127.06592 
L 173.276462 145.340275 
L 173.601441 151.717067 
L 173.926421 165.914363 
L 174.2514 157.340892 
L 174.57638 131.692511 
L 174.90136 144.53495 
L 175.551319 116.228568 
L 175.876298 115.450096 
L 176.201278 159.171746 
L 176.526257 123.650703 
L 176.851237 153.255789 
L 177.176216 159.280007 
L 177.501196 160.877475 
L 177.826175 159.34632 
L 178.151155 135.618013 
L 178.476134 154.962704 
L 178.801114 118.588153 
L 179.126093 122.238988 
L 179.451073 145.639751 
L 179.776052 118.975586 
L 180.101032 120.264245 
L 180.426011 163.373638 
L 180.750991 165.429761 
L 181.075971 144.021763 
L 181.40095 158.75004 
L 181.72593 146.79929 
L 182.050909 160.081802 
L 182.375889 126.78569 
L 182.700868 137.115384 
L 183.025848 162.598263 
L 183.350827 135.173915 
L 183.675807 128.091175 
L 184.000786 163.494611 
L 184.325766 160.953913 
L 184.650745 135.435132 
L 184.975725 129.454293 
L 185.300704 165.873572 
L 185.625684 161.242863 
L 185.950663 158.355392 
L 186.275643 166.047611 
L 186.600622 123.303708 
L 186.925602 130.628024 
L 187.250581 142.266793 
L 187.575561 163.468956 
L 187.900541 116.192578 
L 188.5505 153.612852 
L 188.875479 113.879725 
L 189.200459 161.348724 
L 189.850418 117.16469 
L 190.175397 130.49444 
L 190.500377 151.528266 
L 190.825356 131.773818 
L 191.150336 165.667182 
L 191.475315 116.04299 
L 191.800295 156.170386 
L 192.125274 130.854842 
L 192.450254 153.015318 
L 192.775233 133.585289 
L 193.100213 153.827267 
L 193.425192 139.685041 
L 193.750172 140.754077 
L 194.075152 133.254278 
L 194.400131 145.040305 
L 195.05009 125.856626 
L 195.37507 141.856858 
L 195.700049 142.484344 
L 196.025029 117.266489 
L 196.350008 115.807843 
L 196.674988 140.59766 
L 196.999967 138.6494 
L 197.324947 127.119334 
L 197.649926 123.742548 
L 197.974906 149.112839 
L 198.624865 160.839391 
L 198.949844 140.861917 
L 199.274824 138.2757 
L 199.599803 139.261496 
L 199.924783 121.587143 
L 200.249762 113.522087 
L 200.574742 144.608913 
L 200.899722 146.983317 
L 201.224701 142.157577 
L 202.19964 132.070621 
L 202.524619 117.539053 
L 202.849599 119.446018 
L 203.174578 145.033574 
L 203.499558 141.504171 
L 203.824537 140.895827 
L 204.149517 135.144344 
L 204.474496 136.777411 
L 204.799476 149.483175 
L 205.124455 137.802011 
L 205.449435 147.906746 
L 205.774414 149.291644 
L 206.424373 163.455964 
L 206.749353 137.115009 
L 207.074333 166.072439 
L 207.399312 153.781127 
L 207.724292 134.201398 
L 208.049271 156.135977 
L 208.374251 123.276551 
L 208.69923 145.604894 
L 209.02421 157.691911 
L 209.349189 163.564892 
L 209.674169 151.220182 
L 209.999148 147.482449 
L 210.324128 132.272245 
L 210.649107 164.25861 
L 210.974087 129.469546 
L 211.299066 151.782256 
L 211.624046 133.191495 
L 211.949025 139.703799 
L 212.274005 154.097589 
L 212.598984 142.156618 
L 212.923964 143.936484 
L 213.248943 148.762084 
L 213.573923 114.620322 
L 213.898903 161.315065 
L 214.223882 137.326365 
L 214.548862 163.961613 
L 214.873841 139.925039 
L 215.198821 157.030133 
L 215.84878 118.162684 
L 216.173759 148.401571 
L 216.498739 144.746513 
L 216.823718 132.503275 
L 217.148698 145.759291 
L 217.473677 150.07198 
L 217.798657 162.029135 
L 218.448616 120.74124 
L 218.773595 121.34077 
L 219.423554 153.727465 
L 219.748534 147.990168 
L 220.073514 122.926619 
L 220.398493 155.14434 
L 221.048452 125.328242 
L 221.373432 114.874619 
L 221.698411 158.65281 
L 222.023391 160.29704 
L 222.34837 147.442802 
L 222.67335 159.551717 
L 222.998329 114.948819 
L 223.323309 146.136013 
L 223.648288 163.383938 
L 223.973268 155.026038 
L 224.298247 155.026257 
L 224.623227 122.728304 
L 224.948206 158.973452 
L 225.273186 152.978366 
L 225.598165 132.062408 
L 225.923145 135.86125 
L 226.248124 141.15604 
L 226.573104 160.225179 
L 226.898084 124.479873 
L 227.223063 162.174891 
L 227.548043 156.573905 
L 227.873022 120.698867 
L 228.198002 123.598871 
L 228.522981 163.553914 
L 228.847961 129.990707 
L 229.17294 131.597302 
L 229.49792 122.077805 
L 229.822899 119.735456 
L 230.147879 159.241744 
L 230.472858 162.324632 
L 230.797838 148.92105 
L 231.122817 122.621712 
L 231.447797 157.97962 
L 231.772776 165.182572 
L 232.097756 135.495694 
L 232.422735 133.207214 
L 232.747715 115.748075 
L 233.072695 160.5589 
L 233.397674 150.143914 
L 233.722654 144.298867 
L 234.047633 120.412155 
L 234.697592 139.621012 
L 235.022572 115.03488 
L 235.347551 115.255867 
L 235.672531 114.726075 
L 235.99751 116.276665 
L 236.32249 149.083564 
L 236.647469 144.218001 
L 236.972449 145.057353 
L 237.297428 164.917873 
L 237.622408 140.943151 
L 237.947387 132.688925 
L 238.272367 161.438739 
L 238.597346 126.253694 
L 238.922326 152.193763 
L 239.247305 148.52418 
L 239.572285 130.484094 
L 239.897265 156.855566 
L 240.222244 142.294525 
L 240.547224 119.304184 
L 240.872203 119.860085 
L 241.197183 157.249301 
L 241.847142 118.269753 
L 242.172121 126.894893 
L 242.497101 158.019034 
L 242.82208 123.41411 
L 243.14706 150.5162 
L 243.472039 125.247533 
L 243.797019 150.206898 
L 244.121998 161.968591 
L 244.446978 164.890122 
L 244.771957 134.421699 
L 245.096937 121.181445 
L 245.421916 120.742372 
L 245.746896 145.851296 
L 246.071876 147.677637 
L 246.396855 165.729262 
L 246.721835 114.552242 
L 247.046814 138.521374 
L 247.371794 119.883782 
L 247.696773 136.485014 
L 248.021753 143.034238 
L 248.346732 116.371286 
L 248.671712 119.361251 
L 248.996691 161.093799 
L 249.321671 126.543785 
L 249.64665 130.065112 
L 249.97163 149.678614 
L 250.296609 151.368217 
L 250.621589 146.30066 
L 250.946568 115.877799 
L 251.271548 164.04833 
L 251.596527 113.748587 
L 251.921507 158.745814 
L 252.246486 137.892622 
L 252.571466 156.606322 
L 252.896446 123.243964 
L 253.221425 120.078011 
L 253.546405 123.327214 
L 253.871384 148.153138 
L 254.196364 146.331334 
L 254.521343 116.066772 
L 254.846323 159.047084 
L 255.496282 114.939368 
L 255.821261 128.767407 
L 256.146241 118.045521 
L 256.47122 138.631547 
L 256.7962 149.526522 
L 257.121179 121.774315 
L 257.446159 147.971809 
L 257.771138 114.920129 
L 258.096118 154.631196 
L 258.746077 115.320608 
L 259.071057 116.794942 
L 259.396036 131.539047 
L 259.721016 117.830899 
L 260.045995 152.535988 
L 260.695954 132.094592 
L 261.020934 126.744561 
L 261.345913 164.709793 
L 261.670893 158.643355 
L 261.995872 113.923566 
L 262.320852 133.225108 
L 262.645831 136.987009 
L 262.970811 115.916595 
L 263.29579 153.505076 
L 263.62077 158.026122 
L 263.945749 142.282527 
L 264.270729 163.421075 
L 264.595708 148.228121 
L 264.920688 149.763389 
L 265.245667 136.216384 
L 265.570647 159.284547 
L 265.895627 152.033218 
L 266.220606 115.737896 
L 266.545586 135.634543 
L 266.870565 125.315728 
L 267.520524 148.185735 
L 267.845504 120.45252 
L 268.170483 113.823358 
L 268.820442 130.499735 
L 269.145422 127.791076 
L 269.470401 114.457809 
L 269.795381 138.742011 
L 270.12036 121.204333 
L 270.44534 122.115395 
L 270.770319 143.509099 
L 271.095299 154.519849 
L 271.420278 141.636499 
L 271.745258 146.479455 
L 272.070238 127.717153 
L 272.395217 115.577306 
L 272.720197 125.689133 
L 273.045176 130.499565 
L 273.370156 140.564097 
L 273.695135 119.306149 
L 274.020115 142.443298 
L 274.670074 132.214398 
L 274.995053 133.610545 
L 275.320033 124.350727 
L 275.645012 128.967295 
L 275.969992 135.256223 
L 276.294971 120.507584 
L 276.619951 123.443767 
L 276.94493 154.229043 
L 277.26991 140.275966 
L 277.594889 143.008961 
L 277.919869 124.229328 
L 278.569828 136.124458 
L 278.894808 119.700487 
L 279.219787 122.470777 
L 279.544767 162.025875 
L 279.869746 128.704214 
L 280.194726 145.343679 
L 280.519705 140.584465 
L 280.844685 128.022093 
L 281.169664 164.58341 
L 281.494644 126.242355 
L 281.819623 119.261687 
L 282.144603 137.667762 
L 282.469582 134.721292 
L 282.794562 128.449818 
L 283.119541 156.811345 
L 283.444521 146.006313 
L 283.7695 159.624918 
L 284.09448 146.851335 
L 284.419459 139.24363 
L 284.744439 123.263168 
L 285.069419 157.442389 
L 285.394398 141.634204 
L 285.719378 145.753367 
L 286.044357 138.583044 
L 286.369337 159.157547 
L 286.694316 130.75551 
L 287.019296 130.19015 
L 287.344275 124.837493 
L 287.669255 137.530299 
L 287.994234 121.057796 
L 288.319214 123.21783 
L 288.969173 138.89942 
L 289.294152 116.730996 
L 289.619132 149.892833 
L 289.944111 154.736835 
L 290.269091 163.69659 
L 290.59407 119.532578 
L 290.91905 115.396071 
L 291.244029 148.500959 
L 291.569009 142.992097 
L 291.893989 130.530944 
L 292.868927 154.18477 
L 293.193907 132.056198 
L 293.518886 122.144113 
L 293.843866 135.857996 
L 294.168845 144.391877 
L 294.493825 156.565787 
L 294.818804 152.743844 
L 295.793743 114.898249 
L 296.118722 113.543365 
L 296.443702 130.39061 
L 296.768681 155.607804 
L 297.093661 153.167259 
L 297.41864 157.695172 
L 297.74362 125.132795 
L 298.0686 116.059712 
L 298.393579 137.290726 
L 299.043538 147.415818 
L 299.368518 143.695847 
L 299.693497 152.548411 
L 300.018477 123.517773 
L 300.343456 165.212687 
L 300.668436 163.283581 
L 300.993415 125.464508 
L 301.318395 113.736966 
L 301.643374 146.591598 
L 301.968354 138.667646 
L 302.293333 152.608766 
L 302.618313 133.258362 
L 302.943292 141.080798 
L 303.268272 122.655867 
L 303.593251 122.800683 
L 303.918231 165.803182 
L 304.24321 158.250485 
L 304.56819 158.71315 
L 304.89317 153.810463 
L 305.218149 137.201856 
L 305.543129 144.579642 
L 305.868108 120.891519 
L 306.193088 139.165908 
L 306.518067 127.924828 
L 306.843047 126.520374 
L 307.168026 126.729326 
L 307.493006 130.014303 
L 307.817985 156.95865 
L 308.142965 165.267846 
L 308.467944 164.669499 
L 308.792924 132.913286 
L 309.442883 126.108866 
L 309.767862 125.026075 
L 310.092842 159.98569 
L 310.417821 164.304548 
L 310.742801 131.085039 
L 311.067781 148.421768 
L 311.39276 124.1479 
L 311.71774 116.394938 
L 312.042719 160.724186 
L 312.367699 156.0163 
L 312.692678 139.087398 
L 313.017658 149.239485 
L 313.342637 135.423049 
L 313.667617 154.745934 
L 313.992596 122.174407 
L 314.642555 162.844672 
L 314.967535 157.677851 
L 315.292514 143.292322 
L 315.617494 122.082319 
L 315.942473 157.182801 
L 316.267453 157.224585 
L 316.592432 143.305429 
L 316.917412 114.358306 
L 317.242391 149.756789 
L 317.567371 153.112474 
L 317.892351 140.224724 
L 318.21733 134.118309 
L 318.54231 118.013174 
L 318.867289 133.284912 
L 319.192269 128.717792 
L 319.517248 135.609309 
L 319.842228 127.273527 
L 320.167207 148.573008 
L 320.492187 132.610135 
L 320.817166 131.512651 
L 321.142146 149.226439 
L 321.467125 131.784768 
L 321.792105 145.595641 
L 322.117084 141.179588 
L 322.442064 163.860577 
L 322.767043 152.989811 
L 323.092023 150.992633 
L 323.417002 113.656349 
L 324.066962 157.965885 
L 324.391941 148.386905 
L 324.716921 115.360615 
L 325.0419 114.215811 
L 325.36688 130.102099 
L 325.691859 119.821188 
L 326.016839 139.404079 
L 326.341818 119.724162 
L 326.991777 160.911683 
L 327.641736 137.491277 
L 327.966716 144.144419 
L 328.291695 125.577482 
L 328.616675 121.730336 
L 328.941654 159.890865 
L 329.266634 142.18613 
L 329.591613 146.258166 
L 329.916593 161.849455 
L 330.241572 116.330083 
L 330.566552 153.583959 
L 330.891532 122.688699 
L 331.216511 133.971845 
L 331.541491 127.431677 
L 331.86647 156.451085 
L 332.19145 136.509076 
L 332.516429 140.322092 
L 332.841409 150.057555 
L 333.166388 118.87875 
L 333.491368 130.046422 
L 333.816347 165.721965 
L 334.466306 124.095959 
L 334.791286 165.344613 
L 335.116265 138.044469 
L 335.441245 120.840408 
L 335.766224 116.283416 
L 336.091204 146.440815 
L 336.416183 144.143929 
L 336.741163 125.163471 
L 337.066143 127.353477 
L 337.716102 155.467774 
L 338.041081 124.594492 
L 338.366061 148.679363 
L 338.69104 142.196788 
L 339.01602 129.609037 
L 339.340999 135.481067 
L 339.665979 138.13694 
L 339.990958 134.918067 
L 340.315938 138.393119 
L 340.640917 123.602182 
L 340.965897 160.40518 
L 341.290876 135.057432 
L 341.615856 131.430314 
L 341.940835 144.46295 
L 342.265815 162.349161 
L 342.590794 131.893705 
L 342.915774 160.204643 
L 343.240753 127.225036 
L 343.565733 153.225397 
L 343.890713 127.207843 
L 344.215692 124.056126 
L 344.540672 156.584741 
L 344.865651 151.094078 
L 345.190631 139.868737 
L 345.51561 162.207113 
L 345.84059 126.565337 
L 346.165569 161.51872 
L 346.490549 151.938408 
L 346.815528 163.64174 
L 347.140508 135.115021 
L 347.465487 161.210208 
L 347.790467 131.453842 
L 348.115446 119.483215 
L 348.440426 141.4024 
L 349.090385 131.635511 
L 349.415364 155.596069 
L 349.740344 147.291106 
L 350.065324 146.122835 
L 350.390303 137.503377 
L 350.715283 136.904903 
L 351.040262 151.278718 
L 351.365242 159.636723 
L 351.690221 151.468351 
L 352.015201 164.336117 
L 352.990139 114.552501 
L 353.315119 120.140404 
L 353.640098 116.209729 
L 354.290057 162.609641 
L 354.940016 145.937474 
L 355.264996 149.436552 
L 355.589975 165.022662 
L 355.914955 118.078368 
L 356.239934 162.233187 
L 356.564914 114.630143 
L 357.214873 135.848743 
L 357.539853 113.53606 
L 357.864832 143.952384 
L 358.189812 126.097659 
L 358.514791 143.444375 
L 358.839771 131.912241 
L 359.16475 151.368513 
L 359.48973 125.878434 
L 359.814709 127.504185 
L 360.139689 158.216904 
L 360.464668 133.157457 
L 360.789648 163.913341 
L 361.114627 158.186871 
L 361.439607 139.089783 
L 361.764586 154.359024 
L 362.089566 113.612423 
L 362.414545 158.446269 
L 362.739525 124.139909 
L 363.064505 156.647599 
L 363.389484 142.625961 
L 363.714464 114.89378 
L 364.039443 128.42249 
L 364.364423 147.612851 
L 364.689402 132.630016 
L 365.014382 158.081414 
L 365.339361 122.511285 
L 365.664341 129.307829 
L 365.98932 147.767771 
L 366.3143 155.231571 
L 366.639279 120.692137 
L 366.964259 165.538157 
L 367.289238 158.003455 
L 367.614218 157.749824 
L 367.939197 140.396138 
L 368.264177 113.951904 
L 368.589156 148.605315 
L 368.914136 153.400932 
L 369.239115 118.241977 
L 370.214054 147.378339 
L 370.864013 137.089601 
L 371.188993 132.905618 
L 371.513972 151.268423 
L 371.838952 149.562033 
L 372.163931 159.151485 
L 372.488911 159.864301 
L 372.81389 132.627789 
L 373.463849 154.505306 
L 373.788829 154.273118 
L 374.113808 154.413673 
L 374.438788 135.710185 
L 374.763767 155.94911 
L 375.088747 155.068052 
L 375.413726 147.926523 
L 375.738706 127.157866 
L 376.063686 133.025636 
L 376.388665 131.170139 
L 376.713645 164.551763 
L 377.038624 139.189952 
L 377.363604 156.464983 
L 377.688583 161.265269 
L 378.013563 138.96284 
L 378.338542 133.866588 
L 378.663522 117.398718 
L 378.988501 133.582492 
L 379.313481 137.159181 
L 379.63846 155.235065 
L 379.96344 120.705024 
L 380.288419 163.690263 
L 380.613399 120.570996 
L 380.938378 151.087953 
L 381.263358 135.985507 
L 381.588337 138.11913 
L 381.913317 114.227988 
L 382.238296 137.808959 
L 382.563276 142.494171 
L 382.888256 155.25059 
L 383.213235 141.217934 
L 383.538215 143.442123 
L 383.863194 125.672113 
L 384.188174 161.976557 
L 384.513153 124.323872 
L 384.838133 162.924348 
L 385.163112 121.842554 
L 385.813071 161.382701 
L 386.138051 159.017767 
L 386.46303 120.416203 
L 386.78801 143.294857 
L 387.112989 147.888635 
L 387.437969 163.948817 
L 387.762948 159.040539 
L 388.087928 163.996239 
L 388.412907 165.689056 
L 388.737887 114.883967 
L 389.062867 127.256793 
L 389.387846 115.922733 
L 390.362785 160.643988 
L 390.687764 166.056486 
L 391.012744 131.847724 
L 391.337723 130.378366 
L 391.987682 149.941135 
L 392.637641 119.192216 
L 392.962621 132.551263 
L 393.2876 151.155628 
L 393.61258 161.437184 
L 393.937559 139.839878 
L 394.262539 146.199175 
L 394.587518 141.709335 
L 394.912498 120.962748 
L 395.237477 147.389167 
L 395.887437 156.466097 
L 396.212416 131.886739 
L 396.537396 146.099009 
L 396.862375 118.628245 
L 397.187355 121.341822 
L 397.512334 160.091114 
L 397.837314 151.209854 
L 398.162293 115.210338 
L 398.487273 151.511789 
L 398.487273 151.511789 
" clip-path="url(#p5d42300438)" style="fill: none; stroke: #1f77b4; stroke-width: 1.5; stroke-linecap: square"/>
   </g>
   <g id="patch_8">
    <path d="M 57.6 168.742957 
L 57.6 110.892522 
" style="fill: none; stroke: #000000; stroke-width: 0.8; stroke-linejoin: miter; stroke-linecap: square"/>
   </g>
   <g id="patch_9">
    <path d="M 414.72 168.742957 
L 414.72 110.892522 
" style="fill: none; stroke: #000000; stroke-width: 0.8; stroke-linejoin: miter; stroke-linecap: square"/>
   </g>
   <g id="patch_10">
    <path d="M 57.6 168.742957 
L 414.72 168.742957 
" style="fill: none; stroke: #000000; stroke-width: 0.8; stroke-linejoin: miter; stroke-linecap: square"/>
   </g>
   <g id="patch_11">
    <path d="M 57.6 110.892522 
L 414.72 110.892522 
" style="fill: none; stroke: #000000; stroke-width: 0.8; stroke-linejoin: miter; stroke-linecap: square"/>
   </g>
   <g id="text_18">
    <!-- Zgomot -->
    <g transform="translate(212.701875 104.892522) scale(0.12 -0.12)">
     <defs>
      <path id="DejaVuSans-5a" d="M 359 4666 
L 4025 4666 
L 4025 4184 
L 1075 531 
L 4097 531 
L 4097 0 
L 288 0 
L 288 481 
L 3238 4134 
L 359 4134 
L 359 4666 
z
" transform="scale(0.015625)"/>
      <path id="DejaVuSans-6f" d="M 1959 3097 
Q 1497 3097 1228 2736 
Q 959 2375 959 1747 
Q 959 1119 1226 758 
Q 1494 397 1959 397 
Q 2419 397 2687 759 
Q 2956 1122 2956 1747 
Q 2956 2369 2687 2733 
Q 2419 3097 1959 3097 
z
M 1959 3584 
Q 2709 3584 3137 3096 
Q 3566 2609 3566 1747 
Q 3566 888 3137 398 
Q 2709 -91 1959 -91 
Q 1206 -91 779 398 
Q 353 888 353 1747 
Q 353 2609 779 3096 
Q 1206 3584 1959 3584 
z
" transform="scale(0.015625)"/>
      <path id="DejaVuSans-6d" d="M 3328 2828 
Q 3544 3216 3844 3400 
Q 4144 3584 4550 3584 
Q 5097 3584 5394 3201 
Q 5691 2819 5691 2113 
L 5691 0 
L 5113 0 
L 5113 2094 
Q 5113 2597 4934 2840 
Q 4756 3084 4391 3084 
Q 3944 3084 3684 2787 
Q 3425 2491 3425 1978 
L 3425 0 
L 2847 0 
L 2847 2094 
Q 2847 2600 2669 2842 
Q 2491 3084 2119 3084 
Q 1678 3084 1418 2786 
Q 1159 2488 1159 1978 
L 1159 0 
L 581 0 
L 581 3500 
L 1159 3500 
L 1159 2956 
Q 1356 3278 1631 3431 
Q 1906 3584 2284 3584 
Q 2666 3584 2933 3390 
Q 3200 3197 3328 2828 
z
" transform="scale(0.015625)"/>
     </defs>
     <use xlink:href="#DejaVuSans-5a"/>
     <use xlink:href="#DejaVuSans-67" x="68.505859"/>
     <use xlink:href="#DejaVuSans-6f" x="131.982422"/>
     <use xlink:href="#DejaVuSans-6d" x="193.164062"/>
     <use xlink:href="#DejaVuSans-6f" x="290.576172"/>
     <use xlink:href="#DejaVuSans-74" x="351.757812"/>
    </g>
   </g>
  </g>
  <g id="axes_3">
   <g id="patch_12">
    <path d="M 57.6 238.163478 
L 414.72 238.163478 
L 414.72 180.313043 
L 57.6 180.313043 
z
" style="fill: #ffffff"/>
   </g>
   <g id="matplotlib.axis_5">
    <g id="xtick_13">
     <g id="line2d_19">
      <g>
       <use xlink:href="#md9160c7847" x="73.832727" y="238.163478" style="stroke: #000000; stroke-width: 0.8"/>
      </g>
     </g>
     <g id="text_19">
      <!-- 0 -->
      <g transform="translate(70.651477 252.761916) scale(0.1 -0.1)">
       <use xlink:href="#DejaVuSans-30"/>
      </g>
     </g>
    </g>
    <g id="xtick_14">
     <g id="line2d_20">
      <g>
       <use xlink:href="#md9160c7847" x="138.828632" y="238.163478" style="stroke: #000000; stroke-width: 0.8"/>
      </g>
     </g>
     <g id="text_20">
      <!-- 200 -->
      <g transform="translate(129.284882 252.761916) scale(0.1 -0.1)">
       <use xlink:href="#DejaVuSans-32"/>
       <use xlink:href="#DejaVuSans-30" x="63.623047"/>
       <use xlink:href="#DejaVuSans-30" x="127.246094"/>
      </g>
     </g>
    </g>
    <g id="xtick_15">
     <g id="line2d_21">
      <g>
       <use xlink:href="#md9160c7847" x="203.824537" y="238.163478" style="stroke: #000000; stroke-width: 0.8"/>
      </g>
     </g>
     <g id="text_21">
      <!-- 400 -->
      <g transform="translate(194.280787 252.761916) scale(0.1 -0.1)">
       <use xlink:href="#DejaVuSans-34"/>
       <use xlink:href="#DejaVuSans-30" x="63.623047"/>
       <use xlink:href="#DejaVuSans-30" x="127.246094"/>
      </g>
     </g>
    </g>
    <g id="xtick_16">
     <g id="line2d_22">
      <g>
       <use xlink:href="#md9160c7847" x="268.820442" y="238.163478" style="stroke: #000000; stroke-width: 0.8"/>
      </g>
     </g>
     <g id="text_22">
      <!-- 600 -->
      <g transform="translate(259.276692 252.761916) scale(0.1 -0.1)">
       <use xlink:href="#DejaVuSans-36"/>
       <use xlink:href="#DejaVuSans-30" x="63.623047"/>
       <use xlink:href="#DejaVuSans-30" x="127.246094"/>
      </g>
     </g>
    </g>
    <g id="xtick_17">
     <g id="line2d_23">
      <g>
       <use xlink:href="#md9160c7847" x="333.816347" y="238.163478" style="stroke: #000000; stroke-width: 0.8"/>
      </g>
     </g>
     <g id="text_23">
      <!-- 800 -->
      <g transform="translate(324.272597 252.761916) scale(0.1 -0.1)">
       <use xlink:href="#DejaVuSans-38"/>
       <use xlink:href="#DejaVuSans-30" x="63.623047"/>
       <use xlink:href="#DejaVuSans-30" x="127.246094"/>
      </g>
     </g>
    </g>
    <g id="xtick_18">
     <g id="line2d_24">
      <g>
       <use xlink:href="#md9160c7847" x="398.812252" y="238.163478" style="stroke: #000000; stroke-width: 0.8"/>
      </g>
     </g>
     <g id="text_24">
      <!-- 1000 -->
      <g transform="translate(386.087252 252.761916) scale(0.1 -0.1)">
       <use xlink:href="#DejaVuSans-31"/>
       <use xlink:href="#DejaVuSans-30" x="63.623047"/>
       <use xlink:href="#DejaVuSans-30" x="127.246094"/>
       <use xlink:href="#DejaVuSans-30" x="190.869141"/>
      </g>
     </g>
    </g>
   </g>
   <g id="matplotlib.axis_6">
    <g id="ytick_5">
     <g id="line2d_25">
      <g>
       <use xlink:href="#m404727e86c" x="57.6" y="233.267406" style="stroke: #000000; stroke-width: 0.8"/>
      </g>
     </g>
     <g id="text_25">
      <!-- −0.25 -->
      <g transform="translate(19.954687 237.066625) scale(0.1 -0.1)">
       <defs>
        <path id="DejaVuSans-2212" d="M 678 2272 
L 4684 2272 
L 4684 1741 
L 678 1741 
L 678 2272 
z
" transform="scale(0.015625)"/>
        <path id="DejaVuSans-35" d="M 691 4666 
L 3169 4666 
L 3169 4134 
L 1269 4134 
L 1269 2991 
Q 1406 3038 1543 3061 
Q 1681 3084 1819 3084 
Q 2600 3084 3056 2656 
Q 3513 2228 3513 1497 
Q 3513 744 3044 326 
Q 2575 -91 1722 -91 
Q 1428 -91 1123 -41 
Q 819 9 494 109 
L 494 744 
Q 775 591 1075 516 
Q 1375 441 1709 441 
Q 2250 441 2565 725 
Q 2881 1009 2881 1497 
Q 2881 1984 2565 2268 
Q 2250 2553 1709 2553 
Q 1456 2553 1204 2497 
Q 953 2441 691 2322 
L 691 4666 
z
" transform="scale(0.015625)"/>
       </defs>
       <use xlink:href="#DejaVuSans-2212"/>
       <use xlink:href="#DejaVuSans-30" x="83.789062"/>
       <use xlink:href="#DejaVuSans-2e" x="147.412109"/>
       <use xlink:href="#DejaVuSans-32" x="179.199219"/>
       <use xlink:href="#DejaVuSans-35" x="242.822266"/>
      </g>
     </g>
    </g>
    <g id="ytick_6">
     <g id="line2d_26">
      <g>
       <use xlink:href="#m404727e86c" x="57.6" y="209.238261" style="stroke: #000000; stroke-width: 0.8"/>
      </g>
     </g>
     <g id="text_26">
      <!-- 0.00 -->
      <g transform="translate(28.334375 213.03748) scale(0.1 -0.1)">
       <use xlink:href="#DejaVuSans-30"/>
       <use xlink:href="#DejaVuSans-2e" x="63.623047"/>
       <use xlink:href="#DejaVuSans-30" x="95.410156"/>
       <use xlink:href="#DejaVuSans-30" x="159.033203"/>
      </g>
     </g>
    </g>
    <g id="ytick_7">
     <g id="line2d_27">
      <g>
       <use xlink:href="#m404727e86c" x="57.6" y="185.209116" style="stroke: #000000; stroke-width: 0.8"/>
      </g>
     </g>
     <g id="text_27">
      <!-- 0.25 -->
      <g transform="translate(28.334375 189.008334) scale(0.1 -0.1)">
       <use xlink:href="#DejaVuSans-30"/>
       <use xlink:href="#DejaVuSans-2e" x="63.623047"/>
       <use xlink:href="#DejaVuSans-32" x="95.410156"/>
       <use xlink:href="#DejaVuSans-35" x="159.033203"/>
      </g>
     </g>
    </g>
   </g>
   <g id="line2d_28">
    <path d="M 73.832727 209.238261 
L 77.732482 198.669883 
L 79.682359 193.959763 
L 81.307256 190.529292 
L 82.932154 187.655404 
L 84.232072 185.811926 
L 85.53199 184.408172 
L 86.506929 183.657539 
L 87.481867 183.172482 
L 88.456806 182.95544 
L 89.431744 183.005631 
L 90.406683 183.319077 
L 91.381622 183.888658 
L 92.35656 184.704219 
L 93.656478 186.151314 
L 94.956396 187.973816 
L 96.581294 190.70905 
L 98.531171 194.522414 
L 101.131007 200.171563 
L 105.680721 210.152474 
L 107.630598 213.914755 
L 109.255495 216.614682 
L 110.555414 218.426787 
L 111.855332 219.891211 
L 113.15525 220.981622 
L 114.130188 221.543352 
L 115.105127 221.88123 
L 116.080066 221.994664 
L 117.055004 221.886139 
L 118.029943 221.561169 
L 119.004881 221.028212 
L 120.304799 220.013959 
L 121.604717 218.684346 
L 123.229615 216.642868 
L 125.179492 213.764265 
L 128.104308 208.966246 
L 131.354103 203.710844 
L 133.30398 200.971574 
L 134.928878 199.090383 
L 136.228796 197.913701 
L 137.528714 197.070396 
L 138.503653 196.675015 
L 139.478591 196.493581 
L 140.45353 196.532602 
L 141.428468 196.795578 
L 142.403407 197.282947 
L 143.378346 197.992065 
L 144.678264 199.272206 
L 145.978182 200.914321 
L 147.2781 202.887647 
L 148.902998 205.759773 
L 150.852875 209.676678 
L 153.77769 216.114587 
L 157.677445 224.622265 
L 159.627322 228.350853 
L 161.252219 230.991129 
L 162.552138 232.723814 
L 163.852056 234.07074 
L 164.826994 234.805618 
L 165.801933 235.290801 
L 166.776871 235.517133 
L 167.75181 235.478532 
L 168.726749 235.172079 
L 169.701687 234.598067 
L 170.676626 233.760007 
L 171.651564 232.664596 
L 172.951482 230.821118 
L 174.2514 228.569405 
L 175.876298 225.242852 
L 177.826175 220.629139 
L 180.426011 213.749354 
L 186.600622 197.03861 
L 188.5505 192.526763 
L 190.175397 189.307978 
L 191.475315 187.154876 
L 192.775233 185.418737 
L 193.750172 184.408172 
L 194.725111 183.657539 
L 195.700049 183.172482 
L 196.674988 182.95544 
L 197.649926 183.005631 
L 198.624865 183.319077 
L 199.599803 183.888658 
L 200.574742 184.704219 
L 201.87466 186.151314 
L 203.174578 187.973816 
L 204.799476 190.70905 
L 206.749353 194.522414 
L 209.349189 200.171563 
L 213.898903 210.152474 
L 215.84878 213.914755 
L 217.473677 216.614682 
L 218.773595 218.426787 
L 220.073514 219.891211 
L 221.373432 220.981622 
L 222.34837 221.543352 
L 223.323309 221.88123 
L 224.298247 221.994664 
L 225.273186 221.886139 
L 226.248124 221.561169 
L 227.223063 221.028212 
L 228.522981 220.013959 
L 229.822899 218.684346 
L 231.447797 216.642868 
L 233.397674 213.764265 
L 236.32249 208.966246 
L 239.572285 203.710844 
L 241.522162 200.971574 
L 243.14706 199.090383 
L 244.446978 197.913701 
L 245.746896 197.070396 
L 246.721835 196.675015 
L 247.696773 196.493581 
L 248.671712 196.532602 
L 249.64665 196.795578 
L 250.621589 197.282947 
L 251.596527 197.992065 
L 252.896446 199.272206 
L 254.196364 200.914321 
L 255.496282 202.887647 
L 257.121179 205.759773 
L 259.071057 209.676678 
L 261.995872 216.114587 
L 265.895627 224.622265 
L 267.845504 228.350853 
L 269.470401 230.991129 
L 270.770319 232.723814 
L 272.070238 234.07074 
L 273.045176 234.805618 
L 274.020115 235.290801 
L 274.995053 235.517133 
L 275.969992 235.478532 
L 276.94493 235.172079 
L 277.919869 234.598067 
L 278.894808 233.760007 
L 279.869746 232.664596 
L 281.169664 230.821118 
L 282.469582 228.569405 
L 284.09448 225.242852 
L 286.044357 220.629139 
L 288.644193 213.749354 
L 294.818804 197.03861 
L 296.768681 192.526763 
L 298.393579 189.307978 
L 299.693497 187.154876 
L 300.993415 185.418737 
L 301.968354 184.408172 
L 302.943292 183.657539 
L 303.918231 183.172482 
L 304.89317 182.95544 
L 305.868108 183.005631 
L 306.843047 183.319077 
L 307.817985 183.888658 
L 308.792924 184.704219 
L 310.092842 186.151314 
L 311.39276 187.973816 
L 313.017658 190.70905 
L 314.967535 194.522414 
L 317.567371 200.171563 
L 322.117084 210.152474 
L 324.066962 213.914755 
L 325.691859 216.614682 
L 326.991777 218.426787 
L 328.291695 219.891211 
L 329.591613 220.981622 
L 330.566552 221.543352 
L 331.541491 221.88123 
L 332.516429 221.994664 
L 333.491368 221.886139 
L 334.466306 221.561169 
L 335.441245 221.028212 
L 336.741163 220.013959 
L 338.041081 218.684346 
L 339.665979 216.642868 
L 341.615856 213.764265 
L 344.540672 208.966246 
L 347.790467 203.710844 
L 349.740344 200.971574 
L 351.365242 199.090383 
L 352.66516 197.913701 
L 353.965078 197.070396 
L 354.940016 196.675015 
L 355.914955 196.493581 
L 356.889894 196.532602 
L 357.864832 196.795578 
L 358.839771 197.282947 
L 359.814709 197.992065 
L 361.114627 199.272206 
L 362.414545 200.914321 
L 363.714464 202.887647 
L 365.339361 205.759773 
L 367.289238 209.676678 
L 370.214054 216.114587 
L 374.113808 224.622265 
L 376.063686 228.350853 
L 377.688583 230.991129 
L 378.988501 232.723814 
L 380.288419 234.07074 
L 381.263358 234.805618 
L 382.238296 235.290801 
L 383.213235 235.517133 
L 384.188174 235.478532 
L 385.163112 235.172079 
L 386.138051 234.598067 
L 387.112989 233.760007 
L 388.087928 232.664596 
L 389.387846 230.821118 
L 390.687764 228.569405 
L 392.312662 225.242852 
L 394.262539 220.629139 
L 396.862375 213.749354 
L 398.487273 209.238261 
L 398.487273 209.238261 
" clip-path="url(#pc7d12e1086)" style="fill: none; stroke: #1f77b4; stroke-width: 1.5; stroke-linecap: square"/>
   </g>
   <g id="patch_13">
    <path d="M 57.6 238.163478 
L 57.6 180.313043 
" style="fill: none; stroke: #000000; stroke-width: 0.8; stroke-linejoin: miter; stroke-linecap: square"/>
   </g>
   <g id="patch_14">
    <path d="M 414.72 238.163478 
L 414.72 180.313043 
" style="fill: none; stroke: #000000; stroke-width: 0.8; stroke-linejoin: miter; stroke-linecap: square"/>
   </g>
   <g id="patch_15">
    <path d="M 57.6 238.163478 
L 414.72 238.163478 
" style="fill: none; stroke: #000000; stroke-width: 0.8; stroke-linejoin: miter; stroke-linecap: square"/>
   </g>
   <g id="patch_16">
    <path d="M 57.6 180.313043 
L 414.72 180.313043 
" style="fill: none; stroke: #000000; stroke-width: 0.8; stroke-linejoin: miter; stroke-linecap: square"/>
   </g>
   <g id="text_28">
    <!-- Semnal -->
    <g transform="translate(213.668437 174.313043) scale(0.12 -0.12)">
     <defs>
      <path id="DejaVuSans-53" d="M 3425 4513 
L 3425 3897 
Q 3066 4069 2747 4153 
Q 2428 4238 2131 4238 
Q 1616 4238 1336 4038 
Q 1056 3838 1056 3469 
Q 1056 3159 1242 3001 
Q 1428 2844 1947 2747 
L 2328 2669 
Q 3034 2534 3370 2195 
Q 3706 1856 3706 1288 
Q 3706 609 3251 259 
Q 2797 -91 1919 -91 
Q 1588 -91 1214 -16 
Q 841 59 441 206 
L 441 856 
Q 825 641 1194 531 
Q 1563 422 1919 422 
Q 2459 422 2753 634 
Q 3047 847 3047 1241 
Q 3047 1584 2836 1778 
Q 2625 1972 2144 2069 
L 1759 2144 
Q 1053 2284 737 2584 
Q 422 2884 422 3419 
Q 422 4038 858 4394 
Q 1294 4750 2059 4750 
Q 2388 4750 2728 4690 
Q 3069 4631 3425 4513 
z
" transform="scale(0.015625)"/>
      <path id="DejaVuSans-6e" d="M 3513 2113 
L 3513 0 
L 2938 0 
L 2938 2094 
Q 2938 2591 2744 2837 
Q 2550 3084 2163 3084 
Q 1697 3084 1428 2787 
Q 1159 2491 1159 1978 
L 1159 0 
L 581 0 
L 581 3500 
L 1159 3500 
L 1159 2956 
Q 1366 3272 1645 3428 
Q 1925 3584 2291 3584 
Q 2894 3584 3203 3211 
Q 3513 2838 3513 2113 
z
" transform="scale(0.015625)"/>
      <path id="DejaVuSans-6c" d="M 603 4863 
L 1178 4863 
L 1178 0 
L 603 0 
L 603 4863 
z
" transform="scale(0.015625)"/>
     </defs>
     <use xlink:href="#DejaVuSans-53"/>
     <use xlink:href="#DejaVuSans-65" x="63.476562"/>
     <use xlink:href="#DejaVuSans-6d" x="125"/>
     <use xlink:href="#DejaVuSans-6e" x="222.412109"/>
     <use xlink:href="#DejaVuSans-61" x="285.791016"/>
     <use xlink:href="#DejaVuSans-6c" x="347.070312"/>
    </g>
   </g>
  </g>
  <g id="axes_4">
   <g id="patch_17">
    <path d="M 57.6 307.584 
L 414.72 307.584 
L 414.72 249.733565 
L 57.6 249.733565 
z
" style="fill: #ffffff"/>
   </g>
   <g id="matplotlib.axis_7">
    <g id="xtick_19">
     <g id="line2d_29">
      <g>
       <use xlink:href="#md9160c7847" x="73.832727" y="307.584" style="stroke: #000000; stroke-width: 0.8"/>
      </g>
     </g>
     <g id="text_29">
      <!-- 0 -->
      <g transform="translate(70.651477 322.182437) scale(0.1 -0.1)">
       <use xlink:href="#DejaVuSans-30"/>
      </g>
     </g>
    </g>
    <g id="xtick_20">
     <g id="line2d_30">
      <g>
       <use xlink:href="#md9160c7847" x="138.828632" y="307.584" style="stroke: #000000; stroke-width: 0.8"/>
      </g>
     </g>
     <g id="text_30">
      <!-- 200 -->
      <g transform="translate(129.284882 322.182437) scale(0.1 -0.1)">
       <use xlink:href="#DejaVuSans-32"/>
       <use xlink:href="#DejaVuSans-30" x="63.623047"/>
       <use xlink:href="#DejaVuSans-30" x="127.246094"/>
      </g>
     </g>
    </g>
    <g id="xtick_21">
     <g id="line2d_31">
      <g>
       <use xlink:href="#md9160c7847" x="203.824537" y="307.584" style="stroke: #000000; stroke-width: 0.8"/>
      </g>
     </g>
     <g id="text_31">
      <!-- 400 -->
      <g transform="translate(194.280787 322.182437) scale(0.1 -0.1)">
       <use xlink:href="#DejaVuSans-34"/>
       <use xlink:href="#DejaVuSans-30" x="63.623047"/>
       <use xlink:href="#DejaVuSans-30" x="127.246094"/>
      </g>
     </g>
    </g>
    <g id="xtick_22">
     <g id="line2d_32">
      <g>
       <use xlink:href="#md9160c7847" x="268.820442" y="307.584" style="stroke: #000000; stroke-width: 0.8"/>
      </g>
     </g>
     <g id="text_32">
      <!-- 600 -->
      <g transform="translate(259.276692 322.182437) scale(0.1 -0.1)">
       <use xlink:href="#DejaVuSans-36"/>
       <use xlink:href="#DejaVuSans-30" x="63.623047"/>
       <use xlink:href="#DejaVuSans-30" x="127.246094"/>
      </g>
     </g>
    </g>
    <g id="xtick_23">
     <g id="line2d_33">
      <g>
       <use xlink:href="#md9160c7847" x="333.816347" y="307.584" style="stroke: #000000; stroke-width: 0.8"/>
      </g>
     </g>
     <g id="text_33">
      <!-- 800 -->
      <g transform="translate(324.272597 322.182437) scale(0.1 -0.1)">
       <use xlink:href="#DejaVuSans-38"/>
       <use xlink:href="#DejaVuSans-30" x="63.623047"/>
       <use xlink:href="#DejaVuSans-30" x="127.246094"/>
      </g>
     </g>
    </g>
    <g id="xtick_24">
     <g id="line2d_34">
      <g>
       <use xlink:href="#md9160c7847" x="398.812252" y="307.584" style="stroke: #000000; stroke-width: 0.8"/>
      </g>
     </g>
     <g id="text_34">
      <!-- 1000 -->
      <g transform="translate(386.087252 322.182437) scale(0.1 -0.1)">
       <use xlink:href="#DejaVuSans-31"/>
       <use xlink:href="#DejaVuSans-30" x="63.623047"/>
       <use xlink:href="#DejaVuSans-30" x="127.246094"/>
       <use xlink:href="#DejaVuSans-30" x="190.869141"/>
      </g>
     </g>
    </g>
    <g id="text_35">
     <!-- Ordin esantion -->
     <g transform="translate(199.443594 335.860562) scale(0.1 -0.1)">
      <defs>
       <path id="DejaVuSans-4f" d="M 2522 4238 
Q 1834 4238 1429 3725 
Q 1025 3213 1025 2328 
Q 1025 1447 1429 934 
Q 1834 422 2522 422 
Q 3209 422 3611 934 
Q 4013 1447 4013 2328 
Q 4013 3213 3611 3725 
Q 3209 4238 2522 4238 
z
M 2522 4750 
Q 3503 4750 4090 4092 
Q 4678 3434 4678 2328 
Q 4678 1225 4090 567 
Q 3503 -91 2522 -91 
Q 1538 -91 948 565 
Q 359 1222 359 2328 
Q 359 3434 948 4092 
Q 1538 4750 2522 4750 
z
" transform="scale(0.015625)"/>
       <path id="DejaVuSans-73" d="M 2834 3397 
L 2834 2853 
Q 2591 2978 2328 3040 
Q 2066 3103 1784 3103 
Q 1356 3103 1142 2972 
Q 928 2841 928 2578 
Q 928 2378 1081 2264 
Q 1234 2150 1697 2047 
L 1894 2003 
Q 2506 1872 2764 1633 
Q 3022 1394 3022 966 
Q 3022 478 2636 193 
Q 2250 -91 1575 -91 
Q 1294 -91 989 -36 
Q 684 19 347 128 
L 347 722 
Q 666 556 975 473 
Q 1284 391 1588 391 
Q 1994 391 2212 530 
Q 2431 669 2431 922 
Q 2431 1156 2273 1281 
Q 2116 1406 1581 1522 
L 1381 1569 
Q 847 1681 609 1914 
Q 372 2147 372 2553 
Q 372 3047 722 3315 
Q 1072 3584 1716 3584 
Q 2034 3584 2315 3537 
Q 2597 3491 2834 3397 
z
" transform="scale(0.015625)"/>
      </defs>
      <use xlink:href="#DejaVuSans-4f"/>
      <use xlink:href="#DejaVuSans-72" x="78.710938"/>
      <use xlink:href="#DejaVuSans-64" x="118.074219"/>
      <use xlink:href="#DejaVuSans-69" x="181.550781"/>
      <use xlink:href="#DejaVuSans-6e" x="209.333984"/>
      <use xlink:href="#DejaVuSans-20" x="272.712891"/>
      <use xlink:href="#DejaVuSans-65" x="304.5"/>
      <use xlink:href="#DejaVuSans-73" x="366.023438"/>
      <use xlink:href="#DejaVuSans-61" x="418.123047"/>
      <use xlink:href="#DejaVuSans-6e" x="479.402344"/>
      <use xlink:href="#DejaVuSans-74" x="542.78125"/>
      <use xlink:href="#DejaVuSans-69" x="581.990234"/>
      <use xlink:href="#DejaVuSans-6f" x="609.773438"/>
      <use xlink:href="#DejaVuSans-6e" x="670.955078"/>
     </g>
    </g>
   </g>
   <g id="matplotlib.axis_8">
    <g id="ytick_8">
     <g id="line2d_35">
      <g>
       <use xlink:href="#m404727e86c" x="57.6" y="288.185951" style="stroke: #000000; stroke-width: 0.8"/>
      </g>
     </g>
     <g id="text_36">
      <!-- 2 -->
      <g transform="translate(44.2375 291.985169) scale(0.1 -0.1)">
       <use xlink:href="#DejaVuSans-32"/>
      </g>
     </g>
    </g>
    <g id="ytick_9">
     <g id="line2d_36">
      <g>
       <use xlink:href="#m404727e86c" x="57.6" y="253.796069" style="stroke: #000000; stroke-width: 0.8"/>
      </g>
     </g>
     <g id="text_37">
      <!-- 4 -->
      <g transform="translate(44.2375 257.595287) scale(0.1 -0.1)">
       <use xlink:href="#DejaVuSans-34"/>
      </g>
     </g>
    </g>
    <g id="text_38">
     <!-- Valoare -->
     <g transform="translate(38.157812 297.287689) rotate(-90) scale(0.1 -0.1)">
      <defs>
       <path id="DejaVuSans-56" d="M 1831 0 
L 50 4666 
L 709 4666 
L 2188 738 
L 3669 4666 
L 4325 4666 
L 2547 0 
L 1831 0 
z
" transform="scale(0.015625)"/>
      </defs>
      <use xlink:href="#DejaVuSans-56"/>
      <use xlink:href="#DejaVuSans-61" x="60.658203"/>
      <use xlink:href="#DejaVuSans-6c" x="121.9375"/>
      <use xlink:href="#DejaVuSans-6f" x="149.720703"/>
      <use xlink:href="#DejaVuSans-61" x="210.902344"/>
      <use xlink:href="#DejaVuSans-72" x="272.181641"/>
      <use xlink:href="#DejaVuSans-65" x="311.044922"/>
     </g>
    </g>
   </g>
   <g id="line2d_37">
    <path d="M 73.832727 304.954435 
L 74.157707 304.196427 
L 74.482686 304.288562 
L 74.807666 303.982964 
L 75.132645 303.978059 
L 75.457625 303.482783 
L 75.782604 303.653719 
L 76.107584 302.409111 
L 76.432563 303.742168 
L 76.757543 302.642683 
L 77.082523 302.96908 
L 77.407502 302.141868 
L 77.732482 301.855038 
L 78.057461 302.860563 
L 78.382441 302.431591 
L 78.70742 301.378252 
L 79.0324 302.225462 
L 79.357379 301.82681 
L 79.682359 301.737666 
L 80.007338 301.272452 
L 80.332318 300.293164 
L 80.657297 300.401167 
L 80.982277 299.781256 
L 81.632236 300.19025 
L 81.957215 299.721946 
L 82.282195 300.473228 
L 82.607174 300.162249 
L 82.932154 300.259957 
L 83.582113 299.639235 
L 83.907093 299.85421 
L 84.232072 299.933397 
L 84.557052 298.556364 
L 84.882031 298.225713 
L 85.207011 298.858532 
L 85.85697 298.855976 
L 86.181949 298.572974 
L 86.506929 298.897411 
L 86.831908 298.713556 
L 87.156888 297.863182 
L 87.481867 297.584382 
L 87.806847 297.690081 
L 88.131826 298.866495 
L 88.456806 298.791353 
L 88.781785 297.476776 
L 89.106765 297.658105 
L 89.431744 298.389664 
L 90.081704 298.949793 
L 90.406683 297.603943 
L 90.731663 297.69191 
L 91.056642 298.327045 
L 91.381622 298.302622 
L 92.031581 297.488343 
L 92.35656 298.182974 
L 92.68154 297.467934 
L 93.006519 298.875038 
L 93.331499 298.897746 
L 93.656478 297.601752 
L 93.981458 298.505827 
L 94.306437 298.839466 
L 94.631417 297.824655 
L 94.956396 297.679438 
L 95.606355 298.454615 
L 95.931335 299.393361 
L 96.256314 298.385768 
L 96.581294 298.725793 
L 96.906274 299.48986 
L 97.231253 298.30725 
L 97.556233 299.115554 
L 97.881212 299.115028 
L 98.206192 299.617364 
L 98.531171 299.909465 
L 98.856151 298.486486 
L 99.18113 299.487914 
L 99.50611 298.831593 
L 99.831089 298.97981 
L 100.156069 299.585288 
L 100.481048 300.520652 
L 100.806028 299.531946 
L 101.131007 299.790483 
L 101.455987 300.361645 
L 101.780966 300.082172 
L 102.105946 300.114921 
L 102.430925 299.747415 
L 102.755905 301.124805 
L 103.080885 299.9385 
L 103.405864 299.800358 
L 103.730844 300.945882 
L 104.380803 299.970089 
L 104.705782 301.666496 
L 105.030762 300.206591 
L 105.355741 301.253739 
L 105.680721 300.517335 
L 106.0057 300.90249 
L 106.33068 301.686736 
L 106.655659 302.067887 
L 106.980639 302.02757 
L 107.630598 302.258573 
L 107.955577 300.981733 
L 108.280557 301.592234 
L 108.605536 301.851926 
L 108.930516 301.423387 
L 109.255495 301.264227 
L 109.580475 302.514057 
L 109.905455 301.422983 
L 110.230434 302.503486 
L 110.555414 302.772077 
L 110.880393 302.473496 
L 111.205373 301.276785 
L 111.530352 301.362987 
L 112.83027 302.880991 
L 113.15525 301.554212 
L 113.480229 301.97473 
L 113.805209 301.387112 
L 114.130188 301.611152 
L 115.105127 301.607452 
L 115.430106 302.638078 
L 115.755086 302.710919 
L 116.080066 302.56122 
L 116.405045 302.854337 
L 116.730025 301.859769 
L 117.055004 301.561001 
L 117.379984 302.216698 
L 117.704963 301.366102 
L 118.029943 302.024783 
L 118.354922 300.944236 
L 118.679902 302.010385 
L 119.004881 301.454319 
L 119.329861 301.62864 
L 119.65484 300.500499 
L 119.97982 301.351675 
L 120.304799 300.743941 
L 120.629779 301.549646 
L 121.279738 300.555409 
L 121.604717 300.752264 
L 121.929697 301.484965 
L 122.254676 300.15716 
L 122.579656 301.233471 
L 123.229615 300.976063 
L 123.554595 299.912474 
L 123.879574 300.404117 
L 124.204554 299.533745 
L 124.529533 300.404585 
L 124.854513 299.99297 
L 125.179492 300.03056 
L 125.504472 299.464536 
L 125.829451 299.18433 
L 126.154431 299.1319 
L 126.47941 299.194853 
L 126.80439 298.936507 
L 127.129369 297.848279 
L 127.454349 298.50267 
L 127.779328 297.55818 
L 128.104308 298.408694 
L 128.429287 298.658269 
L 128.754267 298.097895 
L 129.079247 298.655757 
L 129.404226 298.043935 
L 129.729206 297.965548 
L 130.054185 297.172836 
L 130.379165 297.052248 
L 130.704144 297.552659 
L 131.029124 297.450513 
L 131.679083 296.28405 
L 132.004062 296.07437 
L 132.329042 297.054784 
L 132.654021 295.954148 
L 132.979001 297.030451 
L 133.62896 295.479805 
L 133.953939 296.090973 
L 134.278919 295.599197 
L 134.928878 295.38369 
L 135.253857 296.184286 
L 135.578837 295.876637 
L 135.903817 295.378385 
L 136.228796 294.423195 
L 136.553776 295.005284 
L 136.878755 294.520045 
L 137.203735 295.270642 
L 137.528714 295.18817 
L 137.853694 294.134291 
L 138.178673 294.341043 
L 138.828632 294.987574 
L 139.153612 294.606991 
L 139.478591 294.807397 
L 139.803571 293.828075 
L 140.12855 294.92127 
L 140.45353 294.035754 
L 140.778509 294.328307 
L 141.103489 294.256127 
L 141.428468 294.952192 
L 141.753448 294.78276 
L 142.078428 293.956497 
L 142.403407 295.026668 
L 143.053366 294.095378 
L 143.378346 294.798193 
L 143.703325 294.915163 
L 144.028305 294.905618 
L 144.353284 293.688455 
L 145.003243 295.260528 
L 145.328223 294.322561 
L 145.653202 295.286007 
L 145.978182 294.890355 
L 146.303161 294.158333 
L 146.628141 295.004161 
L 146.95312 295.492433 
L 147.2781 295.238655 
L 147.603079 295.451076 
L 147.928059 295.104706 
L 148.253038 295.568309 
L 148.578018 295.193295 
L 148.902998 295.047337 
L 149.227977 295.951251 
L 149.552957 295.045211 
L 149.877936 294.605692 
L 150.527895 296.035817 
L 150.852875 295.882575 
L 151.177854 294.96191 
L 151.502834 295.648094 
L 152.152793 295.310071 
L 152.477772 295.319783 
L 152.802752 296.503274 
L 153.77769 295.712011 
L 154.10267 295.794139 
L 154.427649 296.572871 
L 154.752629 296.06212 
L 155.077609 296.084299 
L 155.402588 297.51146 
L 155.727568 296.019321 
L 156.052547 297.189796 
L 156.377527 296.894834 
L 156.702506 297.013816 
L 157.027486 296.562419 
L 157.677445 297.830323 
L 158.002424 297.148583 
L 158.327404 298.073596 
L 158.652383 296.834698 
L 159.302342 296.918863 
L 159.627322 297.833313 
L 159.952301 298.015044 
L 160.277281 298.360797 
L 160.60226 297.475756 
L 160.92724 298.601873 
L 161.252219 297.069217 
L 161.577199 297.667647 
L 161.902179 298.717899 
L 162.227158 297.326627 
L 162.552138 298.308659 
L 162.877117 297.204597 
L 163.202097 298.458825 
L 163.527076 297.583242 
L 163.852056 298.525903 
L 164.177035 298.850289 
L 164.502015 297.761665 
L 164.826994 297.937046 
L 165.151974 298.627464 
L 165.476953 298.668553 
L 165.801933 298.27903 
L 166.126912 298.396838 
L 166.451892 298.699827 
L 167.101851 297.50786 
L 167.42683 297.950257 
L 167.75181 298.60281 
L 168.07679 297.39534 
L 168.401769 297.842178 
L 168.726749 297.722166 
L 169.051728 298.321891 
L 169.701687 296.935803 
L 170.026667 297.895073 
L 170.351646 297.219267 
L 170.676626 297.583488 
L 171.001605 297.475293 
L 171.326585 297.496359 
L 171.651564 296.548746 
L 171.976544 296.034007 
L 172.301523 295.908783 
L 172.626503 296.534837 
L 172.951482 295.863106 
L 173.276462 296.320947 
L 173.601441 296.385667 
L 173.926421 296.70144 
L 174.2514 296.269161 
L 174.57638 295.274997 
L 174.90136 295.534055 
L 175.551319 294.277072 
L 175.876298 294.079954 
L 176.201278 295.332905 
L 176.526257 293.994186 
L 176.851237 294.779567 
L 177.176216 294.791713 
L 177.826175 294.4163 
L 178.151155 293.448636 
L 178.476134 293.885579 
L 178.801114 292.500393 
L 179.126093 292.420628 
L 179.451073 292.984199 
L 179.776052 291.910884 
L 180.101032 291.749217 
L 180.426011 292.952365 
L 180.750991 292.813552 
L 181.075971 291.907499 
L 181.40095 292.181166 
L 181.72593 291.582971 
L 182.050909 291.808757 
L 182.375889 290.51308 
L 182.700868 290.642543 
L 183.025848 291.267322 
L 183.350827 290.164512 
L 183.675807 289.72688 
L 184.000786 290.677944 
L 184.325766 290.390748 
L 184.650745 289.354329 
L 184.975725 288.957604 
L 185.300704 289.947521 
L 185.950663 289.308448 
L 186.275643 289.366232 
L 186.600622 287.779008 
L 186.925602 287.82979 
L 187.250581 288.02426 
L 187.575561 288.534033 
L 187.900541 286.810136 
L 188.5505 287.682952 
L 188.875479 286.215635 
L 189.200459 287.600346 
L 189.850418 285.837147 
L 190.175397 286.118618 
L 190.500377 286.65594 
L 190.825356 285.865292 
L 191.150336 286.831412 
L 191.475315 285.07408 
L 191.800295 286.252999 
L 192.125274 285.299039 
L 192.450254 285.900632 
L 192.775233 285.148617 
L 193.100213 285.697397 
L 193.425192 285.128091 
L 193.750172 285.060725 
L 194.075152 284.718607 
L 194.400131 285.011616 
L 195.05009 284.216763 
L 195.37507 284.663164 
L 195.700049 284.612724 
L 196.025029 283.723378 
L 196.350008 283.615394 
L 196.674988 284.370075 
L 196.999967 284.256676 
L 197.324947 283.835562 
L 197.649926 283.686001 
L 197.974906 284.480627 
L 198.624865 284.810979 
L 198.949844 284.139721 
L 199.274824 284.041525 
L 199.599803 284.064938 
L 199.924783 283.483701 
L 200.249762 283.221118 
L 200.574742 284.242071 
L 200.899722 284.32977 
L 201.87466 284.011184 
L 202.19964 283.927171 
L 202.524619 283.484061 
L 202.849599 283.581815 
L 203.174578 284.456853 
L 204.149517 284.272956 
L 204.474496 284.379305 
L 204.799476 284.850393 
L 205.124455 284.52782 
L 205.449435 284.919601 
L 205.774414 285.02914 
L 206.424373 285.627475 
L 206.749353 284.838114 
L 207.074333 285.856895 
L 207.399312 285.530059 
L 207.724292 284.966696 
L 208.049271 285.760698 
L 208.374251 284.766105 
L 208.69923 285.575137 
L 209.02421 286.050459 
L 209.349189 286.323432 
L 209.674169 286.001788 
L 209.999148 285.961533 
L 210.324128 285.546614 
L 210.649107 286.673194 
L 210.974087 285.618346 
L 211.299066 286.428171 
L 211.624046 285.901278 
L 211.949025 286.193502 
L 212.274005 286.742146 
L 212.598984 286.429407 
L 213.248943 286.795485 
L 213.573923 285.752975 
L 213.898903 287.349009 
L 214.223882 286.634231 
L 214.548862 287.570825 
L 214.873841 286.849946 
L 215.198821 287.470408 
L 215.84878 286.316278 
L 216.173759 287.357386 
L 216.498739 287.288338 
L 216.823718 286.935585 
L 217.148698 287.412424 
L 217.473677 287.593715 
L 217.798657 288.021166 
L 218.448616 286.735293 
L 218.773595 286.780533 
L 219.423554 287.877843 
L 219.748534 287.704068 
L 220.073514 286.894866 
L 220.398493 287.952455 
L 221.048452 286.976136 
L 221.373432 286.62693 
L 221.698411 288.044718 
L 222.023391 288.081809 
L 222.34837 287.640857 
L 222.67335 288.010804 
L 222.998329 286.523836 
L 223.323309 287.507947 
L 223.648288 288.03225 
L 223.973268 287.715682 
L 224.298247 287.667647 
L 224.623227 286.560184 
L 224.948206 287.687169 
L 225.273186 287.430049 
L 225.598165 286.681218 
L 226.248124 286.834151 
L 226.573104 287.37868 
L 226.898084 286.128664 
L 227.223063 287.273448 
L 227.548043 287.000078 
L 227.873022 285.733986 
L 228.198002 285.730659 
L 228.522981 286.934014 
L 228.847961 285.732428 
L 229.17294 285.676158 
L 229.49792 285.253124 
L 229.822899 285.061298 
L 230.147879 286.233299 
L 230.472858 286.212607 
L 230.797838 285.650567 
L 231.122817 284.664601 
L 231.447797 285.690025 
L 231.772776 285.793388 
L 232.097756 284.689526 
L 232.422735 284.47848 
L 232.747715 283.769942 
L 233.072695 285.093565 
L 233.722654 284.277562 
L 234.047633 283.352833 
L 234.697592 283.687983 
L 235.022572 282.73747 
L 235.99751 282.332564 
L 236.32249 283.255196 
L 236.647469 282.947359 
L 236.972449 282.826091 
L 237.297428 283.326522 
L 237.622408 282.395704 
L 237.947387 281.979116 
L 238.272367 282.772126 
L 238.597346 281.477869 
L 238.922326 282.181429 
L 239.247305 281.919242 
L 239.572285 281.189235 
L 239.897265 281.911608 
L 240.222244 281.298867 
L 240.547224 280.412843 
L 240.872203 280.298124 
L 241.197183 281.388864 
L 241.847142 279.862212 
L 242.172121 280.021309 
L 242.497101 280.91821 
L 242.82208 279.671192 
L 243.14706 280.442906 
L 243.472039 279.507275 
L 243.797019 280.215664 
L 244.121998 280.496468 
L 244.446978 280.492121 
L 244.771957 279.400837 
L 245.096937 278.87608 
L 245.421916 278.773336 
L 245.746896 279.509043 
L 246.071876 279.488291 
L 246.396855 280.00162 
L 246.721835 278.257855 
L 247.046814 278.97286 
L 247.371794 278.300447 
L 247.696773 278.783377 
L 248.021753 278.942325 
L 248.346732 278.020823 
L 248.671712 278.072299 
L 248.996691 279.393671 
L 249.321671 278.227808 
L 249.64665 278.309927 
L 249.97163 278.922107 
L 250.296609 278.953246 
L 250.621589 278.768074 
L 250.946568 277.759083 
L 251.271548 279.321585 
L 251.596527 277.671998 
L 251.921507 279.139423 
L 252.246486 278.460145 
L 252.571466 279.077422 
L 252.896446 277.997796 
L 253.221425 277.908516 
L 253.546405 278.032722 
L 253.871384 278.865563 
L 254.196364 278.831763 
L 254.521343 277.872595 
L 254.846323 279.309447 
L 255.496282 277.944937 
L 255.821261 278.439632 
L 256.146241 278.135552 
L 256.47122 278.85709 
L 256.7962 279.264936 
L 257.121179 278.413141 
L 257.446159 279.326114 
L 257.771138 278.306221 
L 258.096118 279.665301 
L 258.746077 278.511426 
L 259.071057 278.627443 
L 259.396036 279.178537 
L 259.721016 278.801746 
L 260.045995 280.007606 
L 260.695954 279.487645 
L 261.020934 279.388005 
L 261.345913 280.703792 
L 261.670893 280.581755 
L 261.995872 279.197387 
L 262.320852 279.904235 
L 262.645831 280.103363 
L 262.970811 279.491054 
L 263.29579 280.79425 
L 263.62077 281.016651 
L 263.945749 280.576257 
L 264.270729 281.339508 
L 264.595708 280.914794 
L 264.920688 281.035058 
L 265.245667 280.661073 
L 265.570647 281.481287 
L 265.895627 281.309191 
L 266.220606 280.186273 
L 266.545586 280.896478 
L 266.870565 280.617253 
L 267.520524 281.471807 
L 267.845504 280.615325 
L 268.170483 280.445045 
L 268.820442 281.072254 
L 269.145422 281.019728 
L 269.470401 280.616441 
L 269.795381 281.438018 
L 270.12036 280.88955 
L 270.44534 280.939567 
L 270.770319 281.654384 
L 271.095299 282.025701 
L 271.420278 281.612084 
L 271.745258 281.772904 
L 272.395217 280.754691 
L 272.720197 281.073333 
L 273.045176 281.213885 
L 273.370156 281.521052 
L 273.695135 280.800044 
L 274.020115 281.524011 
L 274.670074 281.110744 
L 274.995053 281.108883 
L 275.320033 280.753654 
L 275.969992 280.988313 
L 276.294971 280.437753 
L 276.619951 280.459475 
L 276.94493 281.385483 
L 277.26991 280.844816 
L 277.594889 280.843836 
L 277.919869 280.134856 
L 278.569828 280.316432 
L 278.894808 279.668653 
L 279.219787 279.642674 
L 279.544767 280.813125 
L 279.869746 279.598124 
L 280.194726 280.010076 
L 280.519705 279.718188 
L 280.844685 279.166625 
L 281.169664 280.214917 
L 281.494644 278.812017 
L 281.819623 278.428959 
L 282.144603 278.870731 
L 282.794562 278.238057 
L 283.119541 278.992551 
L 283.444521 278.463827 
L 283.7695 278.72911 
L 284.744439 276.981658 
L 285.069419 277.904972 
L 285.394398 277.192517 
L 285.719378 277.128131 
L 286.044357 276.692327 
L 286.369337 277.16028 
L 286.694316 276.026165 
L 287.019296 275.799163 
L 287.344275 275.413837 
L 287.669255 275.616172 
L 287.994234 274.864279 
L 288.319214 274.719599 
L 288.969173 274.797932 
L 289.294152 273.855566 
L 289.619132 274.719865 
L 289.944111 274.658774 
L 290.269091 274.731888 
L 290.59407 273.069751 
L 290.91905 272.71522 
L 291.244029 273.577488 
L 291.569009 273.179042 
L 291.893989 272.554257 
L 292.868927 272.680021 
L 293.193907 271.744377 
L 293.518886 271.209469 
L 293.843866 271.448155 
L 294.168845 271.51971 
L 294.493825 271.712408 
L 294.818804 271.385043 
L 295.793743 269.557524 
L 296.118722 269.322116 
L 296.443702 269.684501 
L 296.768681 270.323678 
L 297.093661 270.062998 
L 297.41864 270.033622 
L 297.74362 268.796568 
L 298.0686 268.330719 
L 298.393579 268.858799 
L 299.043538 268.871457 
L 299.368518 268.597513 
L 299.693497 268.738771 
L 300.018477 267.647262 
L 300.343456 268.870633 
L 300.668436 268.673897 
L 300.993415 267.309754 
L 301.318395 266.802818 
L 301.643374 267.757126 
L 301.968354 267.384542 
L 302.293333 267.731288 
L 302.618313 266.995793 
L 302.943292 267.153081 
L 303.268272 266.458283 
L 303.593251 266.375313 
L 303.918231 267.697521 
L 304.24321 267.373709 
L 304.56819 267.317007 
L 304.89317 267.090348 
L 305.218149 266.486613 
L 305.543129 266.671624 
L 305.868108 265.847146 
L 306.193088 266.398519 
L 306.518067 265.990972 
L 307.168026 265.88647 
L 307.493006 265.968574 
L 307.817985 266.828413 
L 308.142965 267.084419 
L 308.467944 267.054251 
L 308.792924 266.011046 
L 309.767862 265.762823 
L 310.092842 266.916582 
L 310.417821 267.073672 
L 310.742801 266.008671 
L 311.067781 266.598942 
L 311.39276 265.83385 
L 311.71774 265.612045 
L 312.042719 267.094947 
L 312.367699 266.979485 
L 312.692678 266.468058 
L 313.017658 266.844258 
L 313.342637 266.440465 
L 313.667617 267.121869 
L 313.992596 266.110793 
L 314.642555 267.55196 
L 314.967535 267.442748 
L 315.292514 267.034315 
L 315.617494 266.404687 
L 315.942473 267.615904 
L 316.267453 267.683334 
L 316.592432 267.295924 
L 316.917412 266.418638 
L 317.242391 267.643922 
L 317.567371 267.823196 
L 317.892351 267.472339 
L 318.21733 267.34324 
L 318.54231 266.887615 
L 318.867289 267.456759 
L 319.192269 267.377596 
L 319.517248 267.672234 
L 319.842228 267.468831 
L 320.167207 268.232583 
L 320.492187 267.778193 
L 320.817166 267.808167 
L 321.142146 268.451218 
L 321.467125 267.944425 
L 321.792105 268.456748 
L 322.117084 268.371843 
L 322.442064 269.169992 
L 322.767043 268.870028 
L 323.092023 268.857562 
L 323.417002 267.688295 
L 324.066962 269.228079 
L 324.391941 268.957115 
L 324.716921 267.917221 
L 325.0419 267.915509 
L 325.36688 268.466787 
L 325.691859 268.159923 
L 326.016839 268.824984 
L 326.341818 268.203934 
L 326.991777 269.581474 
L 327.641736 268.832971 
L 327.966716 269.052437 
L 328.291695 268.443964 
L 328.616675 268.312068 
L 328.941654 269.548014 
L 329.266634 268.954863 
L 329.591613 269.068644 
L 329.916593 269.554269 
L 330.241572 268.039351 
L 330.566552 269.223637 
L 330.891532 268.177436 
L 331.216511 268.504436 
L 331.541491 268.244758 
L 331.86647 269.142086 
L 332.19145 268.435664 
L 332.516429 268.500694 
L 332.841409 268.754722 
L 333.166388 267.667919 
L 333.491368 267.959923 
L 333.816347 269.048102 
L 334.466306 267.521397 
L 334.791286 268.778915 
L 335.441245 267.133379 
L 335.766224 266.882635 
L 336.091204 267.761929 
L 336.416183 267.577378 
L 336.741163 266.844209 
L 337.066143 266.798979 
L 337.716102 267.473505 
L 338.041081 266.33828 
L 338.366061 266.995087 
L 338.69104 266.650477 
L 339.01602 266.10361 
L 339.665979 266.102785 
L 339.990958 265.854258 
L 340.315938 265.822111 
L 340.640917 265.191214 
L 340.965897 266.243601 
L 341.290876 265.264115 
L 341.615856 264.992459 
L 341.940835 265.263492 
L 342.265815 265.691744 
L 342.590794 264.539833 
L 342.915774 265.306466 
L 343.240753 264.070316 
L 343.565733 264.760029 
L 343.890713 263.750179 
L 344.215692 263.486917 
L 344.540672 264.388984 
L 344.865651 264.049255 
L 345.190631 263.522435 
L 345.51561 264.092327 
L 345.84059 262.768946 
L 346.165569 263.752201 
L 346.490549 263.281734 
L 346.815528 263.507549 
L 347.140508 262.42055 
L 347.465487 263.119113 
L 347.790467 261.994936 
L 348.115446 261.45344 
L 348.440426 262.020803 
L 349.090385 261.410879 
L 349.415364 262.051515 
L 349.740344 261.640734 
L 350.065324 261.465697 
L 350.390303 261.050048 
L 350.715283 260.899297 
L 351.040262 261.240629 
L 351.365242 261.388618 
L 351.690221 261.00007 
L 352.015201 261.302029 
L 352.990139 259.342265 
L 353.315119 259.42103 
L 353.640098 259.192762 
L 354.290057 260.520554 
L 354.940016 259.804591 
L 355.264996 259.839495 
L 355.589975 260.273478 
L 355.914955 258.669305 
L 356.239934 260.045113 
L 356.564914 258.428157 
L 357.214873 259.010332 
L 357.539853 258.23271 
L 357.864832 259.181844 
L 358.189812 258.558699 
L 358.514791 259.089782 
L 358.839771 258.681978 
L 359.16475 259.290747 
L 359.48973 258.435751 
L 359.814709 258.470765 
L 360.139689 259.46013 
L 360.464668 258.631986 
L 360.789648 259.63113 
L 361.114627 259.442719 
L 361.439607 258.821595 
L 361.764586 259.326944 
L 362.089566 258.006472 
L 362.414545 259.485142 
L 362.739525 258.382479 
L 363.064505 259.465782 
L 363.389484 259.032736 
L 363.714464 258.15521 
L 364.364423 259.290141 
L 364.689402 258.838395 
L 365.014382 259.710232 
L 365.339361 258.591601 
L 365.664341 258.859393 
L 365.98932 259.510582 
L 366.3143 259.804874 
L 366.639279 258.72931 
L 366.964259 260.248728 
L 367.289238 260.059003 
L 367.614218 260.108741 
L 367.939197 259.601398 
L 368.264177 258.798424 
L 368.589156 259.992246 
L 368.914136 260.211753 
L 369.239115 259.12697 
L 370.214054 260.272408 
L 371.188993 259.993819 
L 371.513972 260.65756 
L 371.838952 260.665075 
L 372.163931 261.040676 
L 372.488911 261.125273 
L 372.81389 260.295698 
L 373.463849 261.125974 
L 374.113808 261.231514 
L 374.438788 260.671734 
L 374.763767 261.381645 
L 375.088747 261.399216 
L 375.413726 261.209649 
L 375.738706 260.572155 
L 376.063686 260.801729 
L 376.388665 260.7759 
L 376.713645 261.897758 
L 377.038624 261.097404 
L 377.363604 261.686143 
L 377.688583 261.86369 
L 378.013563 261.152103 
L 378.338542 260.998542 
L 378.663522 260.469425 
L 378.988501 261.002592 
L 379.313481 261.119611 
L 379.63846 261.705761 
L 379.96344 260.56904 
L 380.288419 261.959582 
L 380.613399 260.532876 
L 380.938378 261.50655 
L 381.263358 260.985199 
L 381.588337 261.02184 
L 381.913317 260.203347 
L 382.238296 260.930336 
L 382.563276 261.034936 
L 382.888256 261.39794 
L 383.213235 260.880643 
L 383.538215 260.889049 
L 383.863194 260.239039 
L 384.188174 261.349948 
L 384.513153 260.039783 
L 384.838133 261.214956 
L 385.163112 259.782049 
L 385.813071 260.875466 
L 386.138051 260.691176 
L 386.46303 259.317977 
L 386.78801 259.947696 
L 387.112989 259.974959 
L 387.437969 260.371601 
L 387.762948 260.078241 
L 388.087928 260.102044 
L 388.412907 260.014309 
L 388.737887 258.20692 
L 389.062867 258.458357 
L 389.387846 257.930736 
L 390.362785 258.892049 
L 390.687764 258.893653 
L 391.012744 257.596926 
L 391.337723 257.365559 
L 391.987682 257.626258 
L 392.637641 256.22914 
L 392.962621 256.464073 
L 393.2876 256.86718 
L 393.61258 256.995437 
L 393.937559 256.079583 
L 394.262539 256.074231 
L 394.587518 255.712016 
L 394.912498 254.816481 
L 395.237477 255.459655 
L 395.887437 255.310443 
L 396.212416 254.282276 
L 396.537396 254.519792 
L 396.862375 253.394584 
L 397.187355 253.254297 
L 397.512334 254.290251 
L 397.837314 253.769795 
L 398.162293 252.36313 
L 398.487273 253.317849 
L 398.487273 253.317849 
" clip-path="url(#p26aa422c9c)" style="fill: none; stroke: #1f77b4; stroke-width: 1.5; stroke-linecap: square"/>
   </g>
   <g id="patch_18">
    <path d="M 57.6 307.584 
L 57.6 249.733565 
" style="fill: none; stroke: #000000; stroke-width: 0.8; stroke-linejoin: miter; stroke-linecap: square"/>
   </g>
   <g id="patch_19">
    <path d="M 414.72 307.584 
L 414.72 249.733565 
" style="fill: none; stroke: #000000; stroke-width: 0.8; stroke-linejoin: miter; stroke-linecap: square"/>
   </g>
   <g id="patch_20">
    <path d="M 57.6 307.584 
L 414.72 307.584 
" style="fill: none; stroke: #000000; stroke-width: 0.8; stroke-linejoin: miter; stroke-linecap: square"/>
   </g>
   <g id="patch_21">
    <path d="M 57.6 249.733565 
L 414.72 249.733565 
" style="fill: none; stroke: #000000; stroke-width: 0.8; stroke-linejoin: miter; stroke-linecap: square"/>
   </g>
   <g id="text_39">
    <!-- Serie timp -->
    <g transform="translate(205.254375 243.733565) scale(0.12 -0.12)">
     <defs>
      <path id="DejaVuSans-70" d="M 1159 525 
L 1159 -1331 
L 581 -1331 
L 581 3500 
L 1159 3500 
L 1159 2969 
Q 1341 3281 1617 3432 
Q 1894 3584 2278 3584 
Q 2916 3584 3314 3078 
Q 3713 2572 3713 1747 
Q 3713 922 3314 415 
Q 2916 -91 2278 -91 
Q 1894 -91 1617 61 
Q 1341 213 1159 525 
z
M 3116 1747 
Q 3116 2381 2855 2742 
Q 2594 3103 2138 3103 
Q 1681 3103 1420 2742 
Q 1159 2381 1159 1747 
Q 1159 1113 1420 752 
Q 1681 391 2138 391 
Q 2594 391 2855 752 
Q 3116 1113 3116 1747 
z
" transform="scale(0.015625)"/>
     </defs>
     <use xlink:href="#DejaVuSans-53"/>
     <use xlink:href="#DejaVuSans-65" x="63.476562"/>
     <use xlink:href="#DejaVuSans-72" x="125"/>
     <use xlink:href="#DejaVuSans-69" x="166.113281"/>
     <use xlink:href="#DejaVuSans-65" x="193.896484"/>
     <use xlink:href="#DejaVuSans-20" x="255.419922"/>
     <use xlink:href="#DejaVuSans-74" x="287.207031"/>
     <use xlink:href="#DejaVuSans-69" x="326.416016"/>
     <use xlink:href="#DejaVuSans-6d" x="354.199219"/>
     <use xlink:href="#DejaVuSans-70" x="451.611328"/>
    </g>
   </g>
  </g>
 </g>
 <defs>
  <clipPath id="p45cb0fa3c3">
   <rect x="57.6" y="41.472" width="357.12" height="57.850435"/>
  </clipPath>
  <clipPath id="p5d42300438">
   <rect x="57.6" y="110.892522" width="357.12" height="57.850435"/>
  </clipPath>
  <clipPath id="pc7d12e1086">
   <rect x="57.6" y="180.313043" width="357.12" height="57.850435"/>
  </clipPath>
  <clipPath id="p26aa422c9c">
   <rect x="57.6" y="249.733565" width="357.12" height="57.850435"/>
  </clipPath>
 </defs>
</svg>
