<?xml version="1.0" encoding="utf-8" standalone="no"?>
<!DOCTYPE svg PUBLIC "-//W3C//DTD SVG 1.1//EN"
  "http://www.w3.org/Graphics/SVG/1.1/DTD/svg11.dtd">
<svg xmlns:xlink="http://www.w3.org/1999/xlink" width="460.8pt" height="345.6pt" viewBox="0 0 460.8 345.6" xmlns="http://www.w3.org/2000/svg" version="1.1">
 <metadata>
  <rdf:RDF xmlns:dc="http://purl.org/dc/elements/1.1/" xmlns:cc="http://creativecommons.org/ns#" xmlns:rdf="http://www.w3.org/1999/02/22-rdf-syntax-ns#">
   <cc:Work>
    <dc:type rdf:resource="http://purl.org/dc/dcmitype/StillImage"/>
    <dc:date>2024-11-06T19:54:30.522576</dc:date>
    <dc:format>image/svg+xml</dc:format>
    <dc:creator>
     <cc:Agent>
      <dc:title>Matplotlib v3.9.2, https://matplotlib.org/</dc:title>
     </cc:Agent>
    </dc:creator>
   </cc:Work>
  </rdf:RDF>
 </metadata>
 <defs>
  <style type="text/css">*{stroke-linejoin: round; stroke-linecap: butt}</style>
 </defs>
 <g id="figure_1">
  <g id="patch_1">
   <path d="M 0 345.6 
L 460.8 345.6 
L 460.8 0 
L 0 0 
z
" style="fill: #ffffff"/>
  </g>
  <g id="axes_1">
   <g id="patch_2">
    <path d="M 57.6 307.584 
L 414.72 307.584 
L 414.72 41.472 
L 57.6 41.472 
z
" style="fill: #ffffff"/>
   </g>
   <g id="matplotlib.axis_1">
    <g id="xtick_1">
     <g id="line2d_1">
      <defs>
       <path id="m0f1dc6d186" d="M 0 0 
L 0 3.5 
" style="stroke: #000000; stroke-width: 0.8"/>
      </defs>
      <g>
       <use xlink:href="#m0f1dc6d186" x="73.832727" y="307.584" style="stroke: #000000; stroke-width: 0.8"/>
      </g>
     </g>
     <g id="text_1">
      <!-- 0 -->
      <g transform="translate(70.651477 322.182437) scale(0.1 -0.1)">
       <defs>
        <path id="DejaVuSans-30" d="M 2034 4250 
Q 1547 4250 1301 3770 
Q 1056 3291 1056 2328 
Q 1056 1369 1301 889 
Q 1547 409 2034 409 
Q 2525 409 2770 889 
Q 3016 1369 3016 2328 
Q 3016 3291 2770 3770 
Q 2525 4250 2034 4250 
z
M 2034 4750 
Q 2819 4750 3233 4129 
Q 3647 3509 3647 2328 
Q 3647 1150 3233 529 
Q 2819 -91 2034 -91 
Q 1250 -91 836 529 
Q 422 1150 422 2328 
Q 422 3509 836 4129 
Q 1250 4750 2034 4750 
z
" transform="scale(0.015625)"/>
       </defs>
       <use xlink:href="#DejaVuSans-30"/>
      </g>
     </g>
    </g>
    <g id="xtick_2">
     <g id="line2d_2">
      <g>
       <use xlink:href="#m0f1dc6d186" x="117.469091" y="307.584" style="stroke: #000000; stroke-width: 0.8"/>
      </g>
     </g>
     <g id="text_2">
      <!-- 100 -->
      <g transform="translate(107.925341 322.182437) scale(0.1 -0.1)">
       <defs>
        <path id="DejaVuSans-31" d="M 794 531 
L 1825 531 
L 1825 4091 
L 703 3866 
L 703 4441 
L 1819 4666 
L 2450 4666 
L 2450 531 
L 3481 531 
L 3481 0 
L 794 0 
L 794 531 
z
" transform="scale(0.015625)"/>
       </defs>
       <use xlink:href="#DejaVuSans-31"/>
       <use xlink:href="#DejaVuSans-30" x="63.623047"/>
       <use xlink:href="#DejaVuSans-30" x="127.246094"/>
      </g>
     </g>
    </g>
    <g id="xtick_3">
     <g id="line2d_3">
      <g>
       <use xlink:href="#m0f1dc6d186" x="161.105455" y="307.584" style="stroke: #000000; stroke-width: 0.8"/>
      </g>
     </g>
     <g id="text_3">
      <!-- 200 -->
      <g transform="translate(151.561705 322.182437) scale(0.1 -0.1)">
       <defs>
        <path id="DejaVuSans-32" d="M 1228 531 
L 3431 531 
L 3431 0 
L 469 0 
L 469 531 
Q 828 903 1448 1529 
Q 2069 2156 2228 2338 
Q 2531 2678 2651 2914 
Q 2772 3150 2772 3378 
Q 2772 3750 2511 3984 
Q 2250 4219 1831 4219 
Q 1534 4219 1204 4116 
Q 875 4013 500 3803 
L 500 4441 
Q 881 4594 1212 4672 
Q 1544 4750 1819 4750 
Q 2544 4750 2975 4387 
Q 3406 4025 3406 3419 
Q 3406 3131 3298 2873 
Q 3191 2616 2906 2266 
Q 2828 2175 2409 1742 
Q 1991 1309 1228 531 
z
" transform="scale(0.015625)"/>
       </defs>
       <use xlink:href="#DejaVuSans-32"/>
       <use xlink:href="#DejaVuSans-30" x="63.623047"/>
       <use xlink:href="#DejaVuSans-30" x="127.246094"/>
      </g>
     </g>
    </g>
    <g id="xtick_4">
     <g id="line2d_4">
      <g>
       <use xlink:href="#m0f1dc6d186" x="204.741818" y="307.584" style="stroke: #000000; stroke-width: 0.8"/>
      </g>
     </g>
     <g id="text_4">
      <!-- 300 -->
      <g transform="translate(195.198068 322.182437) scale(0.1 -0.1)">
       <defs>
        <path id="DejaVuSans-33" d="M 2597 2516 
Q 3050 2419 3304 2112 
Q 3559 1806 3559 1356 
Q 3559 666 3084 287 
Q 2609 -91 1734 -91 
Q 1441 -91 1130 -33 
Q 819 25 488 141 
L 488 750 
Q 750 597 1062 519 
Q 1375 441 1716 441 
Q 2309 441 2620 675 
Q 2931 909 2931 1356 
Q 2931 1769 2642 2001 
Q 2353 2234 1838 2234 
L 1294 2234 
L 1294 2753 
L 1863 2753 
Q 2328 2753 2575 2939 
Q 2822 3125 2822 3475 
Q 2822 3834 2567 4026 
Q 2313 4219 1838 4219 
Q 1578 4219 1281 4162 
Q 984 4106 628 3988 
L 628 4550 
Q 988 4650 1302 4700 
Q 1616 4750 1894 4750 
Q 2613 4750 3031 4423 
Q 3450 4097 3450 3541 
Q 3450 3153 3228 2886 
Q 3006 2619 2597 2516 
z
" transform="scale(0.015625)"/>
       </defs>
       <use xlink:href="#DejaVuSans-33"/>
       <use xlink:href="#DejaVuSans-30" x="63.623047"/>
       <use xlink:href="#DejaVuSans-30" x="127.246094"/>
      </g>
     </g>
    </g>
    <g id="xtick_5">
     <g id="line2d_5">
      <g>
       <use xlink:href="#m0f1dc6d186" x="248.378182" y="307.584" style="stroke: #000000; stroke-width: 0.8"/>
      </g>
     </g>
     <g id="text_5">
      <!-- 400 -->
      <g transform="translate(238.834432 322.182437) scale(0.1 -0.1)">
       <defs>
        <path id="DejaVuSans-34" d="M 2419 4116 
L 825 1625 
L 2419 1625 
L 2419 4116 
z
M 2253 4666 
L 3047 4666 
L 3047 1625 
L 3713 1625 
L 3713 1100 
L 3047 1100 
L 3047 0 
L 2419 0 
L 2419 1100 
L 313 1100 
L 313 1709 
L 2253 4666 
z
" transform="scale(0.015625)"/>
       </defs>
       <use xlink:href="#DejaVuSans-34"/>
       <use xlink:href="#DejaVuSans-30" x="63.623047"/>
       <use xlink:href="#DejaVuSans-30" x="127.246094"/>
      </g>
     </g>
    </g>
    <g id="xtick_6">
     <g id="line2d_6">
      <g>
       <use xlink:href="#m0f1dc6d186" x="292.014545" y="307.584" style="stroke: #000000; stroke-width: 0.8"/>
      </g>
     </g>
     <g id="text_6">
      <!-- 500 -->
      <g transform="translate(282.470795 322.182437) scale(0.1 -0.1)">
       <defs>
        <path id="DejaVuSans-35" d="M 691 4666 
L 3169 4666 
L 3169 4134 
L 1269 4134 
L 1269 2991 
Q 1406 3038 1543 3061 
Q 1681 3084 1819 3084 
Q 2600 3084 3056 2656 
Q 3513 2228 3513 1497 
Q 3513 744 3044 326 
Q 2575 -91 1722 -91 
Q 1428 -91 1123 -41 
Q 819 9 494 109 
L 494 744 
Q 775 591 1075 516 
Q 1375 441 1709 441 
Q 2250 441 2565 725 
Q 2881 1009 2881 1497 
Q 2881 1984 2565 2268 
Q 2250 2553 1709 2553 
Q 1456 2553 1204 2497 
Q 953 2441 691 2322 
L 691 4666 
z
" transform="scale(0.015625)"/>
       </defs>
       <use xlink:href="#DejaVuSans-35"/>
       <use xlink:href="#DejaVuSans-30" x="63.623047"/>
       <use xlink:href="#DejaVuSans-30" x="127.246094"/>
      </g>
     </g>
    </g>
    <g id="xtick_7">
     <g id="line2d_7">
      <g>
       <use xlink:href="#m0f1dc6d186" x="335.650909" y="307.584" style="stroke: #000000; stroke-width: 0.8"/>
      </g>
     </g>
     <g id="text_7">
      <!-- 600 -->
      <g transform="translate(326.107159 322.182437) scale(0.1 -0.1)">
       <defs>
        <path id="DejaVuSans-36" d="M 2113 2584 
Q 1688 2584 1439 2293 
Q 1191 2003 1191 1497 
Q 1191 994 1439 701 
Q 1688 409 2113 409 
Q 2538 409 2786 701 
Q 3034 994 3034 1497 
Q 3034 2003 2786 2293 
Q 2538 2584 2113 2584 
z
M 3366 4563 
L 3366 3988 
Q 3128 4100 2886 4159 
Q 2644 4219 2406 4219 
Q 1781 4219 1451 3797 
Q 1122 3375 1075 2522 
Q 1259 2794 1537 2939 
Q 1816 3084 2150 3084 
Q 2853 3084 3261 2657 
Q 3669 2231 3669 1497 
Q 3669 778 3244 343 
Q 2819 -91 2113 -91 
Q 1303 -91 875 529 
Q 447 1150 447 2328 
Q 447 3434 972 4092 
Q 1497 4750 2381 4750 
Q 2619 4750 2861 4703 
Q 3103 4656 3366 4563 
z
" transform="scale(0.015625)"/>
       </defs>
       <use xlink:href="#DejaVuSans-36"/>
       <use xlink:href="#DejaVuSans-30" x="63.623047"/>
       <use xlink:href="#DejaVuSans-30" x="127.246094"/>
      </g>
     </g>
    </g>
    <g id="xtick_8">
     <g id="line2d_8">
      <g>
       <use xlink:href="#m0f1dc6d186" x="379.287273" y="307.584" style="stroke: #000000; stroke-width: 0.8"/>
      </g>
     </g>
     <g id="text_8">
      <!-- 700 -->
      <g transform="translate(369.743523 322.182437) scale(0.1 -0.1)">
       <defs>
        <path id="DejaVuSans-37" d="M 525 4666 
L 3525 4666 
L 3525 4397 
L 1831 0 
L 1172 0 
L 2766 4134 
L 525 4134 
L 525 4666 
z
" transform="scale(0.015625)"/>
       </defs>
       <use xlink:href="#DejaVuSans-37"/>
       <use xlink:href="#DejaVuSans-30" x="63.623047"/>
       <use xlink:href="#DejaVuSans-30" x="127.246094"/>
      </g>
     </g>
    </g>
    <g id="text_9">
     <!-- Esantionul -->
     <g transform="translate(210.027969 335.860562) scale(0.1 -0.1)">
      <defs>
       <path id="DejaVuSans-45" d="M 628 4666 
L 3578 4666 
L 3578 4134 
L 1259 4134 
L 1259 2753 
L 3481 2753 
L 3481 2222 
L 1259 2222 
L 1259 531 
L 3634 531 
L 3634 0 
L 628 0 
L 628 4666 
z
" transform="scale(0.015625)"/>
       <path id="DejaVuSans-73" d="M 2834 3397 
L 2834 2853 
Q 2591 2978 2328 3040 
Q 2066 3103 1784 3103 
Q 1356 3103 1142 2972 
Q 928 2841 928 2578 
Q 928 2378 1081 2264 
Q 1234 2150 1697 2047 
L 1894 2003 
Q 2506 1872 2764 1633 
Q 3022 1394 3022 966 
Q 3022 478 2636 193 
Q 2250 -91 1575 -91 
Q 1294 -91 989 -36 
Q 684 19 347 128 
L 347 722 
Q 666 556 975 473 
Q 1284 391 1588 391 
Q 1994 391 2212 530 
Q 2431 669 2431 922 
Q 2431 1156 2273 1281 
Q 2116 1406 1581 1522 
L 1381 1569 
Q 847 1681 609 1914 
Q 372 2147 372 2553 
Q 372 3047 722 3315 
Q 1072 3584 1716 3584 
Q 2034 3584 2315 3537 
Q 2597 3491 2834 3397 
z
" transform="scale(0.015625)"/>
       <path id="DejaVuSans-61" d="M 2194 1759 
Q 1497 1759 1228 1600 
Q 959 1441 959 1056 
Q 959 750 1161 570 
Q 1363 391 1709 391 
Q 2188 391 2477 730 
Q 2766 1069 2766 1631 
L 2766 1759 
L 2194 1759 
z
M 3341 1997 
L 3341 0 
L 2766 0 
L 2766 531 
Q 2569 213 2275 61 
Q 1981 -91 1556 -91 
Q 1019 -91 701 211 
Q 384 513 384 1019 
Q 384 1609 779 1909 
Q 1175 2209 1959 2209 
L 2766 2209 
L 2766 2266 
Q 2766 2663 2505 2880 
Q 2244 3097 1772 3097 
Q 1472 3097 1187 3025 
Q 903 2953 641 2809 
L 641 3341 
Q 956 3463 1253 3523 
Q 1550 3584 1831 3584 
Q 2591 3584 2966 3190 
Q 3341 2797 3341 1997 
z
" transform="scale(0.015625)"/>
       <path id="DejaVuSans-6e" d="M 3513 2113 
L 3513 0 
L 2938 0 
L 2938 2094 
Q 2938 2591 2744 2837 
Q 2550 3084 2163 3084 
Q 1697 3084 1428 2787 
Q 1159 2491 1159 1978 
L 1159 0 
L 581 0 
L 581 3500 
L 1159 3500 
L 1159 2956 
Q 1366 3272 1645 3428 
Q 1925 3584 2291 3584 
Q 2894 3584 3203 3211 
Q 3513 2838 3513 2113 
z
" transform="scale(0.015625)"/>
       <path id="DejaVuSans-74" d="M 1172 4494 
L 1172 3500 
L 2356 3500 
L 2356 3053 
L 1172 3053 
L 1172 1153 
Q 1172 725 1289 603 
Q 1406 481 1766 481 
L 2356 481 
L 2356 0 
L 1766 0 
Q 1100 0 847 248 
Q 594 497 594 1153 
L 594 3053 
L 172 3053 
L 172 3500 
L 594 3500 
L 594 4494 
L 1172 4494 
z
" transform="scale(0.015625)"/>
       <path id="DejaVuSans-69" d="M 603 3500 
L 1178 3500 
L 1178 0 
L 603 0 
L 603 3500 
z
M 603 4863 
L 1178 4863 
L 1178 4134 
L 603 4134 
L 603 4863 
z
" transform="scale(0.015625)"/>
       <path id="DejaVuSans-6f" d="M 1959 3097 
Q 1497 3097 1228 2736 
Q 959 2375 959 1747 
Q 959 1119 1226 758 
Q 1494 397 1959 397 
Q 2419 397 2687 759 
Q 2956 1122 2956 1747 
Q 2956 2369 2687 2733 
Q 2419 3097 1959 3097 
z
M 1959 3584 
Q 2709 3584 3137 3096 
Q 3566 2609 3566 1747 
Q 3566 888 3137 398 
Q 2709 -91 1959 -91 
Q 1206 -91 779 398 
Q 353 888 353 1747 
Q 353 2609 779 3096 
Q 1206 3584 1959 3584 
z
" transform="scale(0.015625)"/>
       <path id="DejaVuSans-75" d="M 544 1381 
L 544 3500 
L 1119 3500 
L 1119 1403 
Q 1119 906 1312 657 
Q 1506 409 1894 409 
Q 2359 409 2629 706 
Q 2900 1003 2900 1516 
L 2900 3500 
L 3475 3500 
L 3475 0 
L 2900 0 
L 2900 538 
Q 2691 219 2414 64 
Q 2138 -91 1772 -91 
Q 1169 -91 856 284 
Q 544 659 544 1381 
z
M 1991 3584 
L 1991 3584 
z
" transform="scale(0.015625)"/>
       <path id="DejaVuSans-6c" d="M 603 4863 
L 1178 4863 
L 1178 0 
L 603 0 
L 603 4863 
z
" transform="scale(0.015625)"/>
      </defs>
      <use xlink:href="#DejaVuSans-45"/>
      <use xlink:href="#DejaVuSans-73" x="63.183594"/>
      <use xlink:href="#DejaVuSans-61" x="115.283203"/>
      <use xlink:href="#DejaVuSans-6e" x="176.5625"/>
      <use xlink:href="#DejaVuSans-74" x="239.941406"/>
      <use xlink:href="#DejaVuSans-69" x="279.150391"/>
      <use xlink:href="#DejaVuSans-6f" x="306.933594"/>
      <use xlink:href="#DejaVuSans-6e" x="368.115234"/>
      <use xlink:href="#DejaVuSans-75" x="431.494141"/>
      <use xlink:href="#DejaVuSans-6c" x="494.873047"/>
     </g>
    </g>
   </g>
   <g id="matplotlib.axis_2">
    <g id="ytick_1">
     <g id="line2d_9">
      <defs>
       <path id="m2b178005b8" d="M 0 0 
L -3.5 0 
" style="stroke: #000000; stroke-width: 0.8"/>
      </defs>
      <g>
       <use xlink:href="#m2b178005b8" x="57.6" y="297.931636" style="stroke: #000000; stroke-width: 0.8"/>
      </g>
     </g>
     <g id="text_10">
      <!-- 0 -->
      <g transform="translate(44.2375 301.730855) scale(0.1 -0.1)">
       <use xlink:href="#DejaVuSans-30"/>
      </g>
     </g>
    </g>
    <g id="ytick_2">
     <g id="line2d_10">
      <g>
       <use xlink:href="#m2b178005b8" x="57.6" y="267.386182" style="stroke: #000000; stroke-width: 0.8"/>
      </g>
     </g>
     <g id="text_11">
      <!-- 25 -->
      <g transform="translate(37.875 271.185401) scale(0.1 -0.1)">
       <use xlink:href="#DejaVuSans-32"/>
       <use xlink:href="#DejaVuSans-35" x="63.623047"/>
      </g>
     </g>
    </g>
    <g id="ytick_3">
     <g id="line2d_11">
      <g>
       <use xlink:href="#m2b178005b8" x="57.6" y="236.840727" style="stroke: #000000; stroke-width: 0.8"/>
      </g>
     </g>
     <g id="text_12">
      <!-- 50 -->
      <g transform="translate(37.875 240.639946) scale(0.1 -0.1)">
       <use xlink:href="#DejaVuSans-35"/>
       <use xlink:href="#DejaVuSans-30" x="63.623047"/>
      </g>
     </g>
    </g>
    <g id="ytick_4">
     <g id="line2d_12">
      <g>
       <use xlink:href="#m2b178005b8" x="57.6" y="206.295273" style="stroke: #000000; stroke-width: 0.8"/>
      </g>
     </g>
     <g id="text_13">
      <!-- 75 -->
      <g transform="translate(37.875 210.094491) scale(0.1 -0.1)">
       <use xlink:href="#DejaVuSans-37"/>
       <use xlink:href="#DejaVuSans-35" x="63.623047"/>
      </g>
     </g>
    </g>
    <g id="ytick_5">
     <g id="line2d_13">
      <g>
       <use xlink:href="#m2b178005b8" x="57.6" y="175.749818" style="stroke: #000000; stroke-width: 0.8"/>
      </g>
     </g>
     <g id="text_14">
      <!-- 100 -->
      <g transform="translate(31.5125 179.549037) scale(0.1 -0.1)">
       <use xlink:href="#DejaVuSans-31"/>
       <use xlink:href="#DejaVuSans-30" x="63.623047"/>
       <use xlink:href="#DejaVuSans-30" x="127.246094"/>
      </g>
     </g>
    </g>
    <g id="ytick_6">
     <g id="line2d_14">
      <g>
       <use xlink:href="#m2b178005b8" x="57.6" y="145.204364" style="stroke: #000000; stroke-width: 0.8"/>
      </g>
     </g>
     <g id="text_15">
      <!-- 125 -->
      <g transform="translate(31.5125 149.003582) scale(0.1 -0.1)">
       <use xlink:href="#DejaVuSans-31"/>
       <use xlink:href="#DejaVuSans-32" x="63.623047"/>
       <use xlink:href="#DejaVuSans-35" x="127.246094"/>
      </g>
     </g>
    </g>
    <g id="ytick_7">
     <g id="line2d_15">
      <g>
       <use xlink:href="#m2b178005b8" x="57.6" y="114.658909" style="stroke: #000000; stroke-width: 0.8"/>
      </g>
     </g>
     <g id="text_16">
      <!-- 150 -->
      <g transform="translate(31.5125 118.458128) scale(0.1 -0.1)">
       <use xlink:href="#DejaVuSans-31"/>
       <use xlink:href="#DejaVuSans-35" x="63.623047"/>
       <use xlink:href="#DejaVuSans-30" x="127.246094"/>
      </g>
     </g>
    </g>
    <g id="ytick_8">
     <g id="line2d_16">
      <g>
       <use xlink:href="#m2b178005b8" x="57.6" y="84.113455" style="stroke: #000000; stroke-width: 0.8"/>
      </g>
     </g>
     <g id="text_17">
      <!-- 175 -->
      <g transform="translate(31.5125 87.912673) scale(0.1 -0.1)">
       <use xlink:href="#DejaVuSans-31"/>
       <use xlink:href="#DejaVuSans-37" x="63.623047"/>
       <use xlink:href="#DejaVuSans-35" x="127.246094"/>
      </g>
     </g>
    </g>
    <g id="ytick_9">
     <g id="line2d_17">
      <g>
       <use xlink:href="#m2b178005b8" x="57.6" y="53.568" style="stroke: #000000; stroke-width: 0.8"/>
      </g>
     </g>
     <g id="text_18">
      <!-- 200 -->
      <g transform="translate(31.5125 57.367219) scale(0.1 -0.1)">
       <use xlink:href="#DejaVuSans-32"/>
       <use xlink:href="#DejaVuSans-30" x="63.623047"/>
       <use xlink:href="#DejaVuSans-30" x="127.246094"/>
      </g>
     </g>
    </g>
    <g id="text_19">
     <!-- Nr. masini -->
     <g transform="translate(25.432812 199.531906) rotate(-90) scale(0.1 -0.1)">
      <defs>
       <path id="DejaVuSans-4e" d="M 628 4666 
L 1478 4666 
L 3547 763 
L 3547 4666 
L 4159 4666 
L 4159 0 
L 3309 0 
L 1241 3903 
L 1241 0 
L 628 0 
L 628 4666 
z
" transform="scale(0.015625)"/>
       <path id="DejaVuSans-72" d="M 2631 2963 
Q 2534 3019 2420 3045 
Q 2306 3072 2169 3072 
Q 1681 3072 1420 2755 
Q 1159 2438 1159 1844 
L 1159 0 
L 581 0 
L 581 3500 
L 1159 3500 
L 1159 2956 
Q 1341 3275 1631 3429 
Q 1922 3584 2338 3584 
Q 2397 3584 2469 3576 
Q 2541 3569 2628 3553 
L 2631 2963 
z
" transform="scale(0.015625)"/>
       <path id="DejaVuSans-2e" d="M 684 794 
L 1344 794 
L 1344 0 
L 684 0 
L 684 794 
z
" transform="scale(0.015625)"/>
       <path id="DejaVuSans-20" transform="scale(0.015625)"/>
       <path id="DejaVuSans-6d" d="M 3328 2828 
Q 3544 3216 3844 3400 
Q 4144 3584 4550 3584 
Q 5097 3584 5394 3201 
Q 5691 2819 5691 2113 
L 5691 0 
L 5113 0 
L 5113 2094 
Q 5113 2597 4934 2840 
Q 4756 3084 4391 3084 
Q 3944 3084 3684 2787 
Q 3425 2491 3425 1978 
L 3425 0 
L 2847 0 
L 2847 2094 
Q 2847 2600 2669 2842 
Q 2491 3084 2119 3084 
Q 1678 3084 1418 2786 
Q 1159 2488 1159 1978 
L 1159 0 
L 581 0 
L 581 3500 
L 1159 3500 
L 1159 2956 
Q 1356 3278 1631 3431 
Q 1906 3584 2284 3584 
Q 2666 3584 2933 3390 
Q 3200 3197 3328 2828 
z
" transform="scale(0.015625)"/>
      </defs>
      <use xlink:href="#DejaVuSans-4e"/>
      <use xlink:href="#DejaVuSans-72" x="74.804688"/>
      <use xlink:href="#DejaVuSans-2e" x="106.792969"/>
      <use xlink:href="#DejaVuSans-20" x="138.580078"/>
      <use xlink:href="#DejaVuSans-6d" x="170.367188"/>
      <use xlink:href="#DejaVuSans-61" x="267.779297"/>
      <use xlink:href="#DejaVuSans-73" x="329.058594"/>
      <use xlink:href="#DejaVuSans-69" x="381.158203"/>
      <use xlink:href="#DejaVuSans-6e" x="408.941406"/>
      <use xlink:href="#DejaVuSans-69" x="472.320312"/>
     </g>
    </g>
   </g>
   <g id="line2d_18">
    <path d="M 73.832727 293.044364 
L 74.269091 285.713455 
L 74.705455 293.044364 
L 75.141818 295.488 
L 75.578182 283.269818 
L 76.014545 293.044364 
L 76.450909 290.600727 
L 76.887273 278.382545 
L 77.323636 285.713455 
L 77.76 275.938909 
L 78.196364 275.938909 
L 78.632727 258.833455 
L 79.069091 251.502545 
L 79.505455 268.608 
L 79.941818 275.938909 
L 80.378182 266.164364 
L 80.814545 268.608 
L 81.250909 273.495273 
L 81.687273 273.495273 
L 82.123636 251.502545 
L 82.56 271.051636 
L 82.996364 275.938909 
L 83.869091 280.826182 
L 84.305455 275.938909 
L 85.178182 295.488 
L 85.614545 295.488 
L 86.487273 290.600727 
L 86.923636 293.044364 
L 87.36 293.044364 
L 87.796364 288.157091 
L 88.232727 288.157091 
L 88.669091 293.044364 
L 89.541818 293.044364 
L 89.978182 295.488 
L 90.414545 295.488 
L 90.850909 290.600727 
L 91.287273 293.044364 
L 92.596364 285.713455 
L 93.032727 295.488 
L 93.469091 295.488 
L 93.905455 280.826182 
L 94.341818 290.600727 
L 96.087273 290.600727 
L 96.523636 293.044364 
L 97.832727 293.044364 
L 98.269091 278.382545 
L 98.705455 278.382545 
L 99.141818 241.728 
L 100.014545 273.495273 
L 100.450909 266.164364 
L 100.887273 280.826182 
L 101.323636 288.157091 
L 101.76 275.938909 
L 102.196364 273.495273 
L 102.632727 283.269818 
L 103.069091 263.720727 
L 103.505455 288.157091 
L 103.941818 285.713455 
L 104.378182 278.382545 
L 105.250909 293.044364 
L 106.123636 293.044364 
L 106.56 295.488 
L 107.432727 290.600727 
L 107.869091 293.044364 
L 108.305455 290.600727 
L 108.741818 290.600727 
L 109.178182 295.488 
L 109.614545 290.600727 
L 110.050909 290.600727 
L 110.487273 283.269818 
L 110.923636 293.044364 
L 111.36 288.157091 
L 111.796364 271.051636 
L 112.232727 290.600727 
L 113.105455 290.600727 
L 113.541818 268.608 
L 113.978182 293.044364 
L 114.414545 295.488 
L 114.850909 283.269818 
L 115.287273 283.269818 
L 115.723636 278.382545 
L 116.16 293.044364 
L 116.596364 295.488 
L 117.032727 295.488 
L 117.469091 290.600727 
L 117.905455 295.488 
L 118.341818 290.600727 
L 119.214545 295.488 
L 119.650909 295.488 
L 120.087273 288.157091 
L 120.523636 295.488 
L 120.96 290.600727 
L 121.396364 293.044364 
L 121.832727 290.600727 
L 122.269091 283.269818 
L 122.705455 293.044364 
L 123.141818 290.600727 
L 123.578182 293.044364 
L 124.014545 285.713455 
L 124.450909 283.269818 
L 124.887273 290.600727 
L 125.323636 258.833455 
L 125.76 273.495273 
L 126.196364 278.382545 
L 126.632727 273.495273 
L 127.069091 285.713455 
L 127.505455 288.157091 
L 127.941818 293.044364 
L 128.378182 293.044364 
L 128.814545 288.157091 
L 129.250909 293.044364 
L 129.687273 285.713455 
L 130.123636 295.488 
L 130.56 293.044364 
L 130.996364 288.157091 
L 131.432727 290.600727 
L 131.869091 295.488 
L 132.305455 288.157091 
L 132.741818 293.044364 
L 133.178182 293.044364 
L 133.614545 290.600727 
L 134.050909 295.488 
L 134.487273 288.157091 
L 134.923636 295.488 
L 135.36 285.713455 
L 136.232727 290.600727 
L 136.669091 288.157091 
L 137.105455 295.488 
L 137.978182 290.600727 
L 138.414545 280.826182 
L 138.850909 295.488 
L 139.287273 295.488 
L 139.723636 293.044364 
L 140.16 285.713455 
L 140.596364 285.713455 
L 141.032727 290.600727 
L 141.469091 280.826182 
L 141.905455 288.157091 
L 142.341818 288.157091 
L 142.778182 290.600727 
L 143.214545 280.826182 
L 143.650909 278.382545 
L 144.087273 268.608 
L 144.523636 275.938909 
L 144.96 249.058909 
L 145.396364 253.946182 
L 145.832727 256.389818 
L 146.269091 268.608 
L 146.705455 273.495273 
L 147.141818 283.269818 
L 147.578182 266.164364 
L 148.014545 283.269818 
L 148.450909 285.713455 
L 148.887273 285.713455 
L 149.323636 293.044364 
L 150.196364 293.044364 
L 150.632727 285.713455 
L 151.069091 285.713455 
L 151.505455 266.164364 
L 151.941818 278.382545 
L 152.378182 271.051636 
L 152.814545 278.382545 
L 153.250909 278.382545 
L 153.687273 273.495273 
L 154.123636 290.600727 
L 154.56 280.826182 
L 154.996364 283.269818 
L 155.432727 280.826182 
L 156.305455 280.826182 
L 156.741818 290.600727 
L 157.178182 268.608 
L 158.050909 285.713455 
L 158.487273 278.382545 
L 158.923636 295.488 
L 159.796364 285.713455 
L 160.232727 293.044364 
L 160.669091 290.600727 
L 161.105455 283.269818 
L 161.541818 278.382545 
L 161.978182 263.720727 
L 162.414545 278.382545 
L 162.850909 275.938909 
L 163.287273 280.826182 
L 163.723636 280.826182 
L 164.16 293.044364 
L 164.596364 258.833455 
L 165.032727 285.713455 
L 165.469091 278.382545 
L 166.341818 268.608 
L 166.778182 268.608 
L 167.214545 271.051636 
L 167.650909 290.600727 
L 168.087273 295.488 
L 168.96 285.713455 
L 169.396364 293.044364 
L 170.269091 293.044364 
L 170.705455 295.488 
L 171.141818 290.600727 
L 171.578182 290.600727 
L 172.014545 295.488 
L 172.450909 280.826182 
L 172.887273 288.157091 
L 173.323636 290.600727 
L 173.76 295.488 
L 174.196364 290.600727 
L 174.632727 290.600727 
L 175.069091 288.157091 
L 175.505455 290.600727 
L 175.941818 285.713455 
L 176.378182 290.600727 
L 176.814545 293.044364 
L 177.250909 288.157091 
L 178.123636 293.044364 
L 178.56 290.600727 
L 178.996364 290.600727 
L 179.432727 283.269818 
L 179.869091 290.600727 
L 180.741818 290.600727 
L 181.178182 280.826182 
L 181.614545 290.600727 
L 182.050909 290.600727 
L 182.487273 275.938909 
L 182.923636 249.058909 
L 183.36 268.608 
L 183.796364 278.382545 
L 184.232727 283.269818 
L 184.669091 285.713455 
L 185.105455 285.713455 
L 185.541818 288.157091 
L 185.978182 285.713455 
L 186.414545 285.713455 
L 186.850909 288.157091 
L 187.287273 285.713455 
L 187.723636 271.051636 
L 188.16 285.713455 
L 188.596364 278.382545 
L 189.032727 290.600727 
L 189.469091 288.157091 
L 189.905455 295.488 
L 190.341818 290.600727 
L 190.778182 290.600727 
L 191.214545 295.488 
L 191.650909 288.157091 
L 192.087273 293.044364 
L 192.523636 285.713455 
L 193.396364 285.713455 
L 193.832727 268.608 
L 194.269091 293.044364 
L 194.705455 283.269818 
L 195.141818 285.713455 
L 195.578182 271.051636 
L 196.014545 214.848 
L 196.450909 241.728 
L 196.887273 234.397091 
L 197.323636 195.298909 
L 197.76 229.509818 
L 198.196364 241.728 
L 198.632727 258.833455 
L 199.069091 258.833455 
L 199.505455 256.389818 
L 199.941818 285.713455 
L 200.814545 285.713455 
L 201.687273 290.600727 
L 202.123636 290.600727 
L 202.56 288.157091 
L 202.996364 288.157091 
L 203.432727 278.382545 
L 203.869091 288.157091 
L 204.305455 290.600727 
L 204.741818 283.269818 
L 205.178182 278.382545 
L 205.614545 293.044364 
L 206.050909 280.826182 
L 206.487273 273.495273 
L 206.923636 268.608 
L 207.36 273.495273 
L 207.796364 261.277091 
L 208.232727 244.171636 
L 208.669091 236.840727 
L 209.105455 263.720727 
L 209.541818 268.608 
L 209.978182 261.277091 
L 210.414545 285.713455 
L 210.850909 290.600727 
L 211.287273 293.044364 
L 211.723636 290.600727 
L 212.16 285.713455 
L 212.596364 288.157091 
L 213.032727 293.044364 
L 213.905455 271.051636 
L 214.341818 283.269818 
L 214.778182 266.164364 
L 215.214545 268.608 
L 215.650909 278.382545 
L 216.087273 273.495273 
L 216.523636 275.938909 
L 216.96 288.157091 
L 217.396364 285.713455 
L 217.832727 268.608 
L 218.269091 271.051636 
L 218.705455 280.826182 
L 219.141818 273.495273 
L 219.578182 275.938909 
L 220.014545 268.608 
L 221.76 288.157091 
L 222.196364 288.157091 
L 222.632727 278.382545 
L 223.069091 285.713455 
L 223.941818 280.826182 
L 224.378182 273.495273 
L 224.814545 271.051636 
L 225.250909 283.269818 
L 225.687273 268.608 
L 226.123636 278.382545 
L 226.56 273.495273 
L 226.996364 271.051636 
L 227.432727 283.269818 
L 227.869091 275.938909 
L 228.305455 285.713455 
L 229.178182 271.051636 
L 229.614545 285.713455 
L 230.050909 271.051636 
L 230.487273 273.495273 
L 230.923636 278.382545 
L 231.36 280.826182 
L 231.796364 278.382545 
L 232.232727 280.826182 
L 232.669091 293.044364 
L 233.105455 295.488 
L 233.541818 295.488 
L 233.978182 280.826182 
L 234.414545 288.157091 
L 234.850909 285.713455 
L 235.287273 280.826182 
L 235.723636 285.713455 
L 236.16 283.269818 
L 236.596364 290.600727 
L 237.032727 288.157091 
L 237.469091 288.157091 
L 237.905455 285.713455 
L 238.341818 290.600727 
L 238.778182 285.713455 
L 239.214545 285.713455 
L 239.650909 280.826182 
L 240.087273 285.713455 
L 240.523636 275.938909 
L 240.96 273.495273 
L 241.396364 273.495273 
L 241.832727 278.382545 
L 242.269091 293.044364 
L 242.705455 290.600727 
L 243.141818 293.044364 
L 243.578182 288.157091 
L 244.014545 290.600727 
L 244.450909 285.713455 
L 244.887273 293.044364 
L 245.323636 288.157091 
L 245.76 293.044364 
L 246.196364 290.600727 
L 247.069091 280.826182 
L 247.505455 290.600727 
L 247.941818 275.938909 
L 248.378182 290.600727 
L 248.814545 275.938909 
L 249.250909 285.713455 
L 249.687273 278.382545 
L 250.123636 280.826182 
L 250.56 288.157091 
L 250.996364 290.600727 
L 251.869091 285.713455 
L 252.305455 288.157091 
L 252.741818 278.382545 
L 253.178182 278.382545 
L 253.614545 285.713455 
L 254.487273 290.600727 
L 254.923636 290.600727 
L 255.36 293.044364 
L 255.796364 288.157091 
L 256.232727 278.382545 
L 256.669091 285.713455 
L 257.105455 275.938909 
L 257.541818 290.600727 
L 257.978182 288.157091 
L 258.850909 293.044364 
L 259.287273 278.382545 
L 259.723636 285.713455 
L 260.16 280.826182 
L 261.032727 290.600727 
L 261.905455 263.720727 
L 262.341818 280.826182 
L 262.778182 283.269818 
L 263.214545 290.600727 
L 263.650909 288.157091 
L 264.523636 293.044364 
L 265.396364 293.044364 
L 265.832727 295.488 
L 266.269091 288.157091 
L 266.705455 293.044364 
L 267.141818 290.600727 
L 268.014545 280.826182 
L 268.887273 290.600727 
L 269.323636 283.269818 
L 269.76 278.382545 
L 270.196364 268.608 
L 271.069091 285.713455 
L 271.505455 278.382545 
L 271.941818 288.157091 
L 272.378182 283.269818 
L 272.814545 288.157091 
L 273.250909 288.157091 
L 273.687273 293.044364 
L 274.123636 293.044364 
L 274.56 290.600727 
L 274.996364 290.600727 
L 275.432727 285.713455 
L 275.869091 295.488 
L 276.305455 295.488 
L 276.741818 290.600727 
L 277.178182 293.044364 
L 277.614545 293.044364 
L 278.050909 290.600727 
L 278.923636 295.488 
L 279.36 290.600727 
L 279.796364 293.044364 
L 280.232727 283.269818 
L 280.669091 280.826182 
L 281.105455 288.157091 
L 281.541818 290.600727 
L 281.978182 290.600727 
L 282.414545 293.044364 
L 282.850909 293.044364 
L 283.287273 285.713455 
L 283.723636 285.713455 
L 284.16 278.382545 
L 284.596364 293.044364 
L 285.469091 293.044364 
L 285.905455 285.713455 
L 286.341818 293.044364 
L 286.778182 288.157091 
L 287.214545 293.044364 
L 287.650909 283.269818 
L 288.087273 293.044364 
L 288.523636 293.044364 
L 288.96 290.600727 
L 289.396364 290.600727 
L 289.832727 285.713455 
L 290.269091 290.600727 
L 290.705455 283.269818 
L 291.141818 280.826182 
L 291.578182 253.946182 
L 292.014545 275.938909 
L 292.450909 273.495273 
L 292.887273 263.720727 
L 293.323636 290.600727 
L 293.76 283.269818 
L 294.196364 280.826182 
L 294.632727 290.600727 
L 295.069091 280.826182 
L 295.505455 295.488 
L 295.941818 293.044364 
L 296.378182 288.157091 
L 296.814545 293.044364 
L 297.687273 271.051636 
L 298.123636 280.826182 
L 298.56 273.495273 
L 298.996364 278.382545 
L 299.432727 290.600727 
L 299.869091 273.495273 
L 300.305455 271.051636 
L 300.741818 275.938909 
L 301.178182 273.495273 
L 301.614545 280.826182 
L 302.050909 268.608 
L 302.487273 268.608 
L 302.923636 273.495273 
L 303.36 285.713455 
L 303.796364 278.382545 
L 304.232727 280.826182 
L 304.669091 288.157091 
L 305.105455 290.600727 
L 305.541818 295.488 
L 306.414545 290.600727 
L 306.850909 293.044364 
L 307.287273 290.600727 
L 307.723636 290.600727 
L 308.16 283.269818 
L 308.596364 271.051636 
L 309.032727 285.713455 
L 309.469091 293.044364 
L 310.341818 271.051636 
L 310.778182 261.277091 
L 311.214545 266.164364 
L 311.650909 258.833455 
L 312.087273 285.713455 
L 312.523636 268.608 
L 312.96 268.608 
L 313.832727 278.382545 
L 314.269091 253.946182 
L 314.705455 256.389818 
L 315.578182 285.713455 
L 316.887273 293.044364 
L 317.323636 288.157091 
L 317.76 288.157091 
L 318.196364 283.269818 
L 318.632727 288.157091 
L 319.069091 249.058909 
L 319.505455 258.833455 
L 319.941818 258.833455 
L 320.814545 273.495273 
L 321.250909 273.495273 
L 321.687273 263.720727 
L 322.123636 275.938909 
L 322.56 273.495273 
L 322.996364 285.713455 
L 323.432727 288.157091 
L 323.869091 271.051636 
L 324.305455 283.269818 
L 324.741818 280.826182 
L 325.178182 283.269818 
L 325.614545 288.157091 
L 326.050909 283.269818 
L 326.487273 295.488 
L 326.923636 290.600727 
L 327.796364 290.600727 
L 328.232727 285.713455 
L 328.669091 283.269818 
L 329.105455 283.269818 
L 329.541818 278.382545 
L 329.978182 290.600727 
L 330.414545 273.495273 
L 330.850909 278.382545 
L 331.287273 273.495273 
L 331.723636 283.269818 
L 332.16 280.826182 
L 332.596364 268.608 
L 333.032727 288.157091 
L 333.469091 278.382545 
L 333.905455 278.382545 
L 334.341818 273.495273 
L 334.778182 283.269818 
L 335.214545 275.938909 
L 335.650909 278.382545 
L 336.087273 290.600727 
L 336.523636 293.044364 
L 336.96 285.713455 
L 337.396364 290.600727 
L 337.832727 293.044364 
L 338.269091 293.044364 
L 338.705455 290.600727 
L 339.141818 295.488 
L 339.578182 285.713455 
L 340.014545 285.713455 
L 340.450909 278.382545 
L 340.887273 288.157091 
L 341.323636 285.713455 
L 342.196364 271.051636 
L 342.632727 200.186182 
L 343.069091 53.568 
L 343.505455 68.229818 
L 344.378182 178.193455 
L 344.814545 205.073455 
L 345.250909 156.200727 
L 345.687273 219.735273 
L 346.123636 227.066182 
L 346.996364 263.720727 
L 347.432727 261.277091 
L 347.869091 268.608 
L 348.305455 280.826182 
L 348.741818 278.382545 
L 349.178182 283.269818 
L 349.614545 273.495273 
L 350.050909 280.826182 
L 350.487273 280.826182 
L 350.923636 258.833455 
L 351.36 285.713455 
L 351.796364 280.826182 
L 352.232727 285.713455 
L 352.669091 275.938909 
L 353.105455 275.938909 
L 353.541818 288.157091 
L 353.978182 268.608 
L 354.414545 278.382545 
L 354.850909 246.615273 
L 355.287273 227.066182 
L 355.723636 258.833455 
L 356.16 263.720727 
L 356.596364 251.502545 
L 357.469091 278.382545 
L 357.905455 268.608 
L 358.341818 280.826182 
L 358.778182 283.269818 
L 359.214545 293.044364 
L 359.650909 285.713455 
L 360.087273 283.269818 
L 360.523636 268.608 
L 360.96 280.826182 
L 361.396364 288.157091 
L 361.832727 278.382545 
L 362.269091 288.157091 
L 362.705455 280.826182 
L 363.141818 290.600727 
L 363.578182 278.382545 
L 364.014545 283.269818 
L 364.450909 244.171636 
L 364.887273 266.164364 
L 365.323636 263.720727 
L 365.76 268.608 
L 366.196364 258.833455 
L 366.632727 271.051636 
L 367.069091 263.720727 
L 367.505455 261.277091 
L 367.941818 271.051636 
L 368.378182 285.713455 
L 368.814545 278.382545 
L 369.250909 263.720727 
L 369.687273 271.051636 
L 370.123636 273.495273 
L 370.56 278.382545 
L 370.996364 275.938909 
L 371.869091 266.164364 
L 372.305455 266.164364 
L 372.741818 256.389818 
L 373.178182 256.389818 
L 373.614545 271.051636 
L 374.050909 271.051636 
L 374.487273 256.389818 
L 374.923636 251.502545 
L 375.36 263.720727 
L 375.796364 214.848 
L 376.232727 244.171636 
L 376.669091 258.833455 
L 377.105455 251.502545 
L 377.541818 263.720727 
L 378.414545 278.382545 
L 378.850909 288.157091 
L 379.287273 288.157091 
L 379.723636 283.269818 
L 380.16 288.157091 
L 380.596364 290.600727 
L 381.469091 268.608 
L 381.905455 246.615273 
L 382.341818 263.720727 
L 382.778182 275.938909 
L 383.650909 266.164364 
L 384.087273 275.938909 
L 384.523636 266.164364 
L 384.96 271.051636 
L 385.396364 268.608 
L 385.832727 268.608 
L 386.269091 275.938909 
L 386.705455 280.826182 
L 387.141818 263.720727 
L 388.014545 285.713455 
L 388.887273 285.713455 
L 389.323636 283.269818 
L 390.196364 283.269818 
L 390.632727 295.488 
L 391.069091 288.157091 
L 391.505455 278.382545 
L 391.941818 273.495273 
L 392.378182 275.938909 
L 392.814545 263.720727 
L 393.250909 283.269818 
L 393.687273 280.826182 
L 394.123636 280.826182 
L 394.56 271.051636 
L 394.996364 285.713455 
L 395.869091 275.938909 
L 396.305455 280.826182 
L 396.741818 271.051636 
L 397.178182 280.826182 
L 397.614545 280.826182 
L 398.050909 288.157091 
L 398.050909 288.157091 
" clip-path="url(#pa8fa88567f)" style="fill: none; stroke: #1f77b4; stroke-width: 1.5; stroke-linecap: square"/>
   </g>
   <g id="line2d_19">
    <path d="M 84.305455 276.855273 
L 94.778182 290.804364 
L 105.250909 280.520727 
L 115.723636 289.175273 
L 126.196364 288.869818 
L 136.669091 289.582545 
L 147.141818 281.131636 
L 157.614545 281.538909 
L 168.087273 280.317091 
L 178.56 290.804364 
L 189.032727 283.066182 
L 199.505455 269.422545 
L 209.978182 276.753455 
L 220.450909 279.197091 
L 230.923636 278.484364 
L 241.396364 284.898909 
L 251.869091 286.222545 
L 262.341818 284.593455 
L 272.814545 286.120727 
L 283.287273 290.804364 
L 293.76 284.898909 
L 304.232727 280.520727 
L 314.705455 279.706182 
L 325.178182 276.448 
L 335.650909 282.455273 
L 346.123636 241.320727 
L 356.596364 268.200727 
L 367.069091 275.022545 
L 377.541818 263.415273 
L 388.014545 273.800727 
L 398.487273 280.928 
" clip-path="url(#pa8fa88567f)" style="fill: none; stroke: #ff7f0e; stroke-width: 1.5; stroke-linecap: square"/>
   </g>
   <g id="patch_3">
    <path d="M 57.6 307.584 
L 57.6 41.472 
" style="fill: none; stroke: #000000; stroke-width: 0.8; stroke-linejoin: miter; stroke-linecap: square"/>
   </g>
   <g id="patch_4">
    <path d="M 414.72 307.584 
L 414.72 41.472 
" style="fill: none; stroke: #000000; stroke-width: 0.8; stroke-linejoin: miter; stroke-linecap: square"/>
   </g>
   <g id="patch_5">
    <path d="M 57.6 307.584 
L 414.72 307.584 
" style="fill: none; stroke: #000000; stroke-width: 0.8; stroke-linejoin: miter; stroke-linecap: square"/>
   </g>
   <g id="patch_6">
    <path d="M 57.6 41.472 
L 414.72 41.472 
" style="fill: none; stroke: #000000; stroke-width: 0.8; stroke-linejoin: miter; stroke-linecap: square"/>
   </g>
   <g id="text_20">
    <!-- Luna de trafic -->
    <g transform="translate(194.751563 35.472) scale(0.12 -0.12)">
     <defs>
      <path id="DejaVuSans-4c" d="M 628 4666 
L 1259 4666 
L 1259 531 
L 3531 531 
L 3531 0 
L 628 0 
L 628 4666 
z
" transform="scale(0.015625)"/>
      <path id="DejaVuSans-64" d="M 2906 2969 
L 2906 4863 
L 3481 4863 
L 3481 0 
L 2906 0 
L 2906 525 
Q 2725 213 2448 61 
Q 2172 -91 1784 -91 
Q 1150 -91 751 415 
Q 353 922 353 1747 
Q 353 2572 751 3078 
Q 1150 3584 1784 3584 
Q 2172 3584 2448 3432 
Q 2725 3281 2906 2969 
z
M 947 1747 
Q 947 1113 1208 752 
Q 1469 391 1925 391 
Q 2381 391 2643 752 
Q 2906 1113 2906 1747 
Q 2906 2381 2643 2742 
Q 2381 3103 1925 3103 
Q 1469 3103 1208 2742 
Q 947 2381 947 1747 
z
" transform="scale(0.015625)"/>
      <path id="DejaVuSans-65" d="M 3597 1894 
L 3597 1613 
L 953 1613 
Q 991 1019 1311 708 
Q 1631 397 2203 397 
Q 2534 397 2845 478 
Q 3156 559 3463 722 
L 3463 178 
Q 3153 47 2828 -22 
Q 2503 -91 2169 -91 
Q 1331 -91 842 396 
Q 353 884 353 1716 
Q 353 2575 817 3079 
Q 1281 3584 2069 3584 
Q 2775 3584 3186 3129 
Q 3597 2675 3597 1894 
z
M 3022 2063 
Q 3016 2534 2758 2815 
Q 2500 3097 2075 3097 
Q 1594 3097 1305 2825 
Q 1016 2553 972 2059 
L 3022 2063 
z
" transform="scale(0.015625)"/>
      <path id="DejaVuSans-66" d="M 2375 4863 
L 2375 4384 
L 1825 4384 
Q 1516 4384 1395 4259 
Q 1275 4134 1275 3809 
L 1275 3500 
L 2222 3500 
L 2222 3053 
L 1275 3053 
L 1275 0 
L 697 0 
L 697 3053 
L 147 3053 
L 147 3500 
L 697 3500 
L 697 3744 
Q 697 4328 969 4595 
Q 1241 4863 1831 4863 
L 2375 4863 
z
" transform="scale(0.015625)"/>
      <path id="DejaVuSans-63" d="M 3122 3366 
L 3122 2828 
Q 2878 2963 2633 3030 
Q 2388 3097 2138 3097 
Q 1578 3097 1268 2742 
Q 959 2388 959 1747 
Q 959 1106 1268 751 
Q 1578 397 2138 397 
Q 2388 397 2633 464 
Q 2878 531 3122 666 
L 3122 134 
Q 2881 22 2623 -34 
Q 2366 -91 2075 -91 
Q 1284 -91 818 406 
Q 353 903 353 1747 
Q 353 2603 823 3093 
Q 1294 3584 2113 3584 
Q 2378 3584 2631 3529 
Q 2884 3475 3122 3366 
z
" transform="scale(0.015625)"/>
     </defs>
     <use xlink:href="#DejaVuSans-4c"/>
     <use xlink:href="#DejaVuSans-75" x="53.962891"/>
     <use xlink:href="#DejaVuSans-6e" x="117.341797"/>
     <use xlink:href="#DejaVuSans-61" x="180.720703"/>
     <use xlink:href="#DejaVuSans-20" x="242"/>
     <use xlink:href="#DejaVuSans-64" x="273.787109"/>
     <use xlink:href="#DejaVuSans-65" x="337.263672"/>
     <use xlink:href="#DejaVuSans-20" x="398.787109"/>
     <use xlink:href="#DejaVuSans-74" x="430.574219"/>
     <use xlink:href="#DejaVuSans-72" x="469.783203"/>
     <use xlink:href="#DejaVuSans-61" x="510.896484"/>
     <use xlink:href="#DejaVuSans-66" x="572.175781"/>
     <use xlink:href="#DejaVuSans-69" x="607.380859"/>
     <use xlink:href="#DejaVuSans-63" x="635.164062"/>
    </g>
   </g>
  </g>
 </g>
 <defs>
  <clipPath id="pa8fa88567f">
   <rect x="57.6" y="41.472" width="357.12" height="266.112"/>
  </clipPath>
 </defs>
</svg>
