<?xml version="1.0" encoding="utf-8" standalone="no"?>
<!DOCTYPE svg PUBLIC "-//W3C//DTD SVG 1.1//EN"
  "http://www.w3.org/Graphics/SVG/1.1/DTD/svg11.dtd">
<svg xmlns:xlink="http://www.w3.org/1999/xlink" width="460.8pt" height="345.6pt" viewBox="0 0 460.8 345.6" xmlns="http://www.w3.org/2000/svg" version="1.1">
 <metadata>
  <rdf:RDF xmlns:dc="http://purl.org/dc/elements/1.1/" xmlns:cc="http://creativecommons.org/ns#" xmlns:rdf="http://www.w3.org/1999/02/22-rdf-syntax-ns#">
   <cc:Work>
    <dc:type rdf:resource="http://purl.org/dc/dcmitype/StillImage"/>
    <dc:date>2024-11-02T21:08:19.892051</dc:date>
    <dc:format>image/svg+xml</dc:format>
    <dc:creator>
     <cc:Agent>
      <dc:title>Matplotlib v3.9.2, https://matplotlib.org/</dc:title>
     </cc:Agent>
    </dc:creator>
   </cc:Work>
  </rdf:RDF>
 </metadata>
 <defs>
  <style type="text/css">*{stroke-linejoin: round; stroke-linecap: butt}</style>
 </defs>
 <g id="figure_1">
  <g id="patch_1">
   <path d="M 0 345.6 
L 460.8 345.6 
L 460.8 0 
L 0 0 
z
" style="fill: #ffffff"/>
  </g>
  <g id="axes_1">
   <g id="patch_2">
    <path d="M 57.6 307.584 
L 414.72 307.584 
L 414.72 41.472 
L 57.6 41.472 
z
" style="fill: #ffffff"/>
   </g>
   <g id="matplotlib.axis_1">
    <g id="xtick_1">
     <g id="line2d_1">
      <defs>
       <path id="m7ace4dfb5a" d="M 0 0 
L 0 3.5 
" style="stroke: #000000; stroke-width: 0.8"/>
      </defs>
      <g>
       <use xlink:href="#m7ace4dfb5a" x="73.832727" y="307.584" style="stroke: #000000; stroke-width: 0.8"/>
      </g>
     </g>
     <g id="text_1">
      <!-- 0 -->
      <g transform="translate(70.651477 322.182437) scale(0.1 -0.1)">
       <defs>
        <path id="DejaVuSans-30" d="M 2034 4250 
Q 1547 4250 1301 3770 
Q 1056 3291 1056 2328 
Q 1056 1369 1301 889 
Q 1547 409 2034 409 
Q 2525 409 2770 889 
Q 3016 1369 3016 2328 
Q 3016 3291 2770 3770 
Q 2525 4250 2034 4250 
z
M 2034 4750 
Q 2819 4750 3233 4129 
Q 3647 3509 3647 2328 
Q 3647 1150 3233 529 
Q 2819 -91 2034 -91 
Q 1250 -91 836 529 
Q 422 1150 422 2328 
Q 422 3509 836 4129 
Q 1250 4750 2034 4750 
z
" transform="scale(0.015625)"/>
       </defs>
       <use xlink:href="#DejaVuSans-30"/>
      </g>
     </g>
    </g>
    <g id="xtick_2">
     <g id="line2d_2">
      <g>
       <use xlink:href="#m7ace4dfb5a" x="117.527821" y="307.584" style="stroke: #000000; stroke-width: 0.8"/>
      </g>
     </g>
     <g id="text_2">
      <!-- 100 -->
      <g transform="translate(107.984071 322.182437) scale(0.1 -0.1)">
       <defs>
        <path id="DejaVuSans-31" d="M 794 531 
L 1825 531 
L 1825 4091 
L 703 3866 
L 703 4441 
L 1819 4666 
L 2450 4666 
L 2450 531 
L 3481 531 
L 3481 0 
L 794 0 
L 794 531 
z
" transform="scale(0.015625)"/>
       </defs>
       <use xlink:href="#DejaVuSans-31"/>
       <use xlink:href="#DejaVuSans-30" x="63.623047"/>
       <use xlink:href="#DejaVuSans-30" x="127.246094"/>
      </g>
     </g>
    </g>
    <g id="xtick_3">
     <g id="line2d_3">
      <g>
       <use xlink:href="#m7ace4dfb5a" x="161.222914" y="307.584" style="stroke: #000000; stroke-width: 0.8"/>
      </g>
     </g>
     <g id="text_3">
      <!-- 200 -->
      <g transform="translate(151.679164 322.182437) scale(0.1 -0.1)">
       <defs>
        <path id="DejaVuSans-32" d="M 1228 531 
L 3431 531 
L 3431 0 
L 469 0 
L 469 531 
Q 828 903 1448 1529 
Q 2069 2156 2228 2338 
Q 2531 2678 2651 2914 
Q 2772 3150 2772 3378 
Q 2772 3750 2511 3984 
Q 2250 4219 1831 4219 
Q 1534 4219 1204 4116 
Q 875 4013 500 3803 
L 500 4441 
Q 881 4594 1212 4672 
Q 1544 4750 1819 4750 
Q 2544 4750 2975 4387 
Q 3406 4025 3406 3419 
Q 3406 3131 3298 2873 
Q 3191 2616 2906 2266 
Q 2828 2175 2409 1742 
Q 1991 1309 1228 531 
z
" transform="scale(0.015625)"/>
       </defs>
       <use xlink:href="#DejaVuSans-32"/>
       <use xlink:href="#DejaVuSans-30" x="63.623047"/>
       <use xlink:href="#DejaVuSans-30" x="127.246094"/>
      </g>
     </g>
    </g>
    <g id="xtick_4">
     <g id="line2d_4">
      <g>
       <use xlink:href="#m7ace4dfb5a" x="204.918008" y="307.584" style="stroke: #000000; stroke-width: 0.8"/>
      </g>
     </g>
     <g id="text_4">
      <!-- 300 -->
      <g transform="translate(195.374258 322.182437) scale(0.1 -0.1)">
       <defs>
        <path id="DejaVuSans-33" d="M 2597 2516 
Q 3050 2419 3304 2112 
Q 3559 1806 3559 1356 
Q 3559 666 3084 287 
Q 2609 -91 1734 -91 
Q 1441 -91 1130 -33 
Q 819 25 488 141 
L 488 750 
Q 750 597 1062 519 
Q 1375 441 1716 441 
Q 2309 441 2620 675 
Q 2931 909 2931 1356 
Q 2931 1769 2642 2001 
Q 2353 2234 1838 2234 
L 1294 2234 
L 1294 2753 
L 1863 2753 
Q 2328 2753 2575 2939 
Q 2822 3125 2822 3475 
Q 2822 3834 2567 4026 
Q 2313 4219 1838 4219 
Q 1578 4219 1281 4162 
Q 984 4106 628 3988 
L 628 4550 
Q 988 4650 1302 4700 
Q 1616 4750 1894 4750 
Q 2613 4750 3031 4423 
Q 3450 4097 3450 3541 
Q 3450 3153 3228 2886 
Q 3006 2619 2597 2516 
z
" transform="scale(0.015625)"/>
       </defs>
       <use xlink:href="#DejaVuSans-33"/>
       <use xlink:href="#DejaVuSans-30" x="63.623047"/>
       <use xlink:href="#DejaVuSans-30" x="127.246094"/>
      </g>
     </g>
    </g>
    <g id="xtick_5">
     <g id="line2d_5">
      <g>
       <use xlink:href="#m7ace4dfb5a" x="248.613102" y="307.584" style="stroke: #000000; stroke-width: 0.8"/>
      </g>
     </g>
     <g id="text_5">
      <!-- 400 -->
      <g transform="translate(239.069352 322.182437) scale(0.1 -0.1)">
       <defs>
        <path id="DejaVuSans-34" d="M 2419 4116 
L 825 1625 
L 2419 1625 
L 2419 4116 
z
M 2253 4666 
L 3047 4666 
L 3047 1625 
L 3713 1625 
L 3713 1100 
L 3047 1100 
L 3047 0 
L 2419 0 
L 2419 1100 
L 313 1100 
L 313 1709 
L 2253 4666 
z
" transform="scale(0.015625)"/>
       </defs>
       <use xlink:href="#DejaVuSans-34"/>
       <use xlink:href="#DejaVuSans-30" x="63.623047"/>
       <use xlink:href="#DejaVuSans-30" x="127.246094"/>
      </g>
     </g>
    </g>
    <g id="xtick_6">
     <g id="line2d_6">
      <g>
       <use xlink:href="#m7ace4dfb5a" x="292.308195" y="307.584" style="stroke: #000000; stroke-width: 0.8"/>
      </g>
     </g>
     <g id="text_6">
      <!-- 500 -->
      <g transform="translate(282.764445 322.182437) scale(0.1 -0.1)">
       <defs>
        <path id="DejaVuSans-35" d="M 691 4666 
L 3169 4666 
L 3169 4134 
L 1269 4134 
L 1269 2991 
Q 1406 3038 1543 3061 
Q 1681 3084 1819 3084 
Q 2600 3084 3056 2656 
Q 3513 2228 3513 1497 
Q 3513 744 3044 326 
Q 2575 -91 1722 -91 
Q 1428 -91 1123 -41 
Q 819 9 494 109 
L 494 744 
Q 775 591 1075 516 
Q 1375 441 1709 441 
Q 2250 441 2565 725 
Q 2881 1009 2881 1497 
Q 2881 1984 2565 2268 
Q 2250 2553 1709 2553 
Q 1456 2553 1204 2497 
Q 953 2441 691 2322 
L 691 4666 
z
" transform="scale(0.015625)"/>
       </defs>
       <use xlink:href="#DejaVuSans-35"/>
       <use xlink:href="#DejaVuSans-30" x="63.623047"/>
       <use xlink:href="#DejaVuSans-30" x="127.246094"/>
      </g>
     </g>
    </g>
    <g id="xtick_7">
     <g id="line2d_7">
      <g>
       <use xlink:href="#m7ace4dfb5a" x="336.003289" y="307.584" style="stroke: #000000; stroke-width: 0.8"/>
      </g>
     </g>
     <g id="text_7">
      <!-- 600 -->
      <g transform="translate(326.459539 322.182437) scale(0.1 -0.1)">
       <defs>
        <path id="DejaVuSans-36" d="M 2113 2584 
Q 1688 2584 1439 2293 
Q 1191 2003 1191 1497 
Q 1191 994 1439 701 
Q 1688 409 2113 409 
Q 2538 409 2786 701 
Q 3034 994 3034 1497 
Q 3034 2003 2786 2293 
Q 2538 2584 2113 2584 
z
M 3366 4563 
L 3366 3988 
Q 3128 4100 2886 4159 
Q 2644 4219 2406 4219 
Q 1781 4219 1451 3797 
Q 1122 3375 1075 2522 
Q 1259 2794 1537 2939 
Q 1816 3084 2150 3084 
Q 2853 3084 3261 2657 
Q 3669 2231 3669 1497 
Q 3669 778 3244 343 
Q 2819 -91 2113 -91 
Q 1303 -91 875 529 
Q 447 1150 447 2328 
Q 447 3434 972 4092 
Q 1497 4750 2381 4750 
Q 2619 4750 2861 4703 
Q 3103 4656 3366 4563 
z
" transform="scale(0.015625)"/>
       </defs>
       <use xlink:href="#DejaVuSans-36"/>
       <use xlink:href="#DejaVuSans-30" x="63.623047"/>
       <use xlink:href="#DejaVuSans-30" x="127.246094"/>
      </g>
     </g>
    </g>
    <g id="xtick_8">
     <g id="line2d_8">
      <g>
       <use xlink:href="#m7ace4dfb5a" x="379.698382" y="307.584" style="stroke: #000000; stroke-width: 0.8"/>
      </g>
     </g>
     <g id="text_8">
      <!-- 700 -->
      <g transform="translate(370.154632 322.182437) scale(0.1 -0.1)">
       <defs>
        <path id="DejaVuSans-37" d="M 525 4666 
L 3525 4666 
L 3525 4397 
L 1831 0 
L 1172 0 
L 2766 4134 
L 525 4134 
L 525 4666 
z
" transform="scale(0.015625)"/>
       </defs>
       <use xlink:href="#DejaVuSans-37"/>
       <use xlink:href="#DejaVuSans-30" x="63.623047"/>
       <use xlink:href="#DejaVuSans-30" x="127.246094"/>
      </g>
     </g>
    </g>
    <g id="text_9">
     <!-- Esantionul -->
     <g transform="translate(210.027969 335.860562) scale(0.1 -0.1)">
      <defs>
       <path id="DejaVuSans-45" d="M 628 4666 
L 3578 4666 
L 3578 4134 
L 1259 4134 
L 1259 2753 
L 3481 2753 
L 3481 2222 
L 1259 2222 
L 1259 531 
L 3634 531 
L 3634 0 
L 628 0 
L 628 4666 
z
" transform="scale(0.015625)"/>
       <path id="DejaVuSans-73" d="M 2834 3397 
L 2834 2853 
Q 2591 2978 2328 3040 
Q 2066 3103 1784 3103 
Q 1356 3103 1142 2972 
Q 928 2841 928 2578 
Q 928 2378 1081 2264 
Q 1234 2150 1697 2047 
L 1894 2003 
Q 2506 1872 2764 1633 
Q 3022 1394 3022 966 
Q 3022 478 2636 193 
Q 2250 -91 1575 -91 
Q 1294 -91 989 -36 
Q 684 19 347 128 
L 347 722 
Q 666 556 975 473 
Q 1284 391 1588 391 
Q 1994 391 2212 530 
Q 2431 669 2431 922 
Q 2431 1156 2273 1281 
Q 2116 1406 1581 1522 
L 1381 1569 
Q 847 1681 609 1914 
Q 372 2147 372 2553 
Q 372 3047 722 3315 
Q 1072 3584 1716 3584 
Q 2034 3584 2315 3537 
Q 2597 3491 2834 3397 
z
" transform="scale(0.015625)"/>
       <path id="DejaVuSans-61" d="M 2194 1759 
Q 1497 1759 1228 1600 
Q 959 1441 959 1056 
Q 959 750 1161 570 
Q 1363 391 1709 391 
Q 2188 391 2477 730 
Q 2766 1069 2766 1631 
L 2766 1759 
L 2194 1759 
z
M 3341 1997 
L 3341 0 
L 2766 0 
L 2766 531 
Q 2569 213 2275 61 
Q 1981 -91 1556 -91 
Q 1019 -91 701 211 
Q 384 513 384 1019 
Q 384 1609 779 1909 
Q 1175 2209 1959 2209 
L 2766 2209 
L 2766 2266 
Q 2766 2663 2505 2880 
Q 2244 3097 1772 3097 
Q 1472 3097 1187 3025 
Q 903 2953 641 2809 
L 641 3341 
Q 956 3463 1253 3523 
Q 1550 3584 1831 3584 
Q 2591 3584 2966 3190 
Q 3341 2797 3341 1997 
z
" transform="scale(0.015625)"/>
       <path id="DejaVuSans-6e" d="M 3513 2113 
L 3513 0 
L 2938 0 
L 2938 2094 
Q 2938 2591 2744 2837 
Q 2550 3084 2163 3084 
Q 1697 3084 1428 2787 
Q 1159 2491 1159 1978 
L 1159 0 
L 581 0 
L 581 3500 
L 1159 3500 
L 1159 2956 
Q 1366 3272 1645 3428 
Q 1925 3584 2291 3584 
Q 2894 3584 3203 3211 
Q 3513 2838 3513 2113 
z
" transform="scale(0.015625)"/>
       <path id="DejaVuSans-74" d="M 1172 4494 
L 1172 3500 
L 2356 3500 
L 2356 3053 
L 1172 3053 
L 1172 1153 
Q 1172 725 1289 603 
Q 1406 481 1766 481 
L 2356 481 
L 2356 0 
L 1766 0 
Q 1100 0 847 248 
Q 594 497 594 1153 
L 594 3053 
L 172 3053 
L 172 3500 
L 594 3500 
L 594 4494 
L 1172 4494 
z
" transform="scale(0.015625)"/>
       <path id="DejaVuSans-69" d="M 603 3500 
L 1178 3500 
L 1178 0 
L 603 0 
L 603 3500 
z
M 603 4863 
L 1178 4863 
L 1178 4134 
L 603 4134 
L 603 4863 
z
" transform="scale(0.015625)"/>
       <path id="DejaVuSans-6f" d="M 1959 3097 
Q 1497 3097 1228 2736 
Q 959 2375 959 1747 
Q 959 1119 1226 758 
Q 1494 397 1959 397 
Q 2419 397 2687 759 
Q 2956 1122 2956 1747 
Q 2956 2369 2687 2733 
Q 2419 3097 1959 3097 
z
M 1959 3584 
Q 2709 3584 3137 3096 
Q 3566 2609 3566 1747 
Q 3566 888 3137 398 
Q 2709 -91 1959 -91 
Q 1206 -91 779 398 
Q 353 888 353 1747 
Q 353 2609 779 3096 
Q 1206 3584 1959 3584 
z
" transform="scale(0.015625)"/>
       <path id="DejaVuSans-75" d="M 544 1381 
L 544 3500 
L 1119 3500 
L 1119 1403 
Q 1119 906 1312 657 
Q 1506 409 1894 409 
Q 2359 409 2629 706 
Q 2900 1003 2900 1516 
L 2900 3500 
L 3475 3500 
L 3475 0 
L 2900 0 
L 2900 538 
Q 2691 219 2414 64 
Q 2138 -91 1772 -91 
Q 1169 -91 856 284 
Q 544 659 544 1381 
z
M 1991 3584 
L 1991 3584 
z
" transform="scale(0.015625)"/>
       <path id="DejaVuSans-6c" d="M 603 4863 
L 1178 4863 
L 1178 0 
L 603 0 
L 603 4863 
z
" transform="scale(0.015625)"/>
      </defs>
      <use xlink:href="#DejaVuSans-45"/>
      <use xlink:href="#DejaVuSans-73" x="63.183594"/>
      <use xlink:href="#DejaVuSans-61" x="115.283203"/>
      <use xlink:href="#DejaVuSans-6e" x="176.5625"/>
      <use xlink:href="#DejaVuSans-74" x="239.941406"/>
      <use xlink:href="#DejaVuSans-69" x="279.150391"/>
      <use xlink:href="#DejaVuSans-6f" x="306.933594"/>
      <use xlink:href="#DejaVuSans-6e" x="368.115234"/>
      <use xlink:href="#DejaVuSans-75" x="431.494141"/>
      <use xlink:href="#DejaVuSans-6c" x="494.873047"/>
     </g>
    </g>
   </g>
   <g id="matplotlib.axis_2">
    <g id="ytick_1">
     <g id="line2d_9">
      <defs>
       <path id="m6c9e89ed2f" d="M 0 0 
L -3.5 0 
" style="stroke: #000000; stroke-width: 0.8"/>
      </defs>
      <g>
       <use xlink:href="#m6c9e89ed2f" x="57.6" y="297.931636" style="stroke: #000000; stroke-width: 0.8"/>
      </g>
     </g>
     <g id="text_10">
      <!-- 0 -->
      <g transform="translate(44.2375 301.730855) scale(0.1 -0.1)">
       <use xlink:href="#DejaVuSans-30"/>
      </g>
     </g>
    </g>
    <g id="ytick_2">
     <g id="line2d_10">
      <g>
       <use xlink:href="#m6c9e89ed2f" x="57.6" y="267.386182" style="stroke: #000000; stroke-width: 0.8"/>
      </g>
     </g>
     <g id="text_11">
      <!-- 25 -->
      <g transform="translate(37.875 271.185401) scale(0.1 -0.1)">
       <use xlink:href="#DejaVuSans-32"/>
       <use xlink:href="#DejaVuSans-35" x="63.623047"/>
      </g>
     </g>
    </g>
    <g id="ytick_3">
     <g id="line2d_11">
      <g>
       <use xlink:href="#m6c9e89ed2f" x="57.6" y="236.840727" style="stroke: #000000; stroke-width: 0.8"/>
      </g>
     </g>
     <g id="text_12">
      <!-- 50 -->
      <g transform="translate(37.875 240.639946) scale(0.1 -0.1)">
       <use xlink:href="#DejaVuSans-35"/>
       <use xlink:href="#DejaVuSans-30" x="63.623047"/>
      </g>
     </g>
    </g>
    <g id="ytick_4">
     <g id="line2d_12">
      <g>
       <use xlink:href="#m6c9e89ed2f" x="57.6" y="206.295273" style="stroke: #000000; stroke-width: 0.8"/>
      </g>
     </g>
     <g id="text_13">
      <!-- 75 -->
      <g transform="translate(37.875 210.094491) scale(0.1 -0.1)">
       <use xlink:href="#DejaVuSans-37"/>
       <use xlink:href="#DejaVuSans-35" x="63.623047"/>
      </g>
     </g>
    </g>
    <g id="ytick_5">
     <g id="line2d_13">
      <g>
       <use xlink:href="#m6c9e89ed2f" x="57.6" y="175.749818" style="stroke: #000000; stroke-width: 0.8"/>
      </g>
     </g>
     <g id="text_14">
      <!-- 100 -->
      <g transform="translate(31.5125 179.549037) scale(0.1 -0.1)">
       <use xlink:href="#DejaVuSans-31"/>
       <use xlink:href="#DejaVuSans-30" x="63.623047"/>
       <use xlink:href="#DejaVuSans-30" x="127.246094"/>
      </g>
     </g>
    </g>
    <g id="ytick_6">
     <g id="line2d_14">
      <g>
       <use xlink:href="#m6c9e89ed2f" x="57.6" y="145.204364" style="stroke: #000000; stroke-width: 0.8"/>
      </g>
     </g>
     <g id="text_15">
      <!-- 125 -->
      <g transform="translate(31.5125 149.003582) scale(0.1 -0.1)">
       <use xlink:href="#DejaVuSans-31"/>
       <use xlink:href="#DejaVuSans-32" x="63.623047"/>
       <use xlink:href="#DejaVuSans-35" x="127.246094"/>
      </g>
     </g>
    </g>
    <g id="ytick_7">
     <g id="line2d_15">
      <g>
       <use xlink:href="#m6c9e89ed2f" x="57.6" y="114.658909" style="stroke: #000000; stroke-width: 0.8"/>
      </g>
     </g>
     <g id="text_16">
      <!-- 150 -->
      <g transform="translate(31.5125 118.458128) scale(0.1 -0.1)">
       <use xlink:href="#DejaVuSans-31"/>
       <use xlink:href="#DejaVuSans-35" x="63.623047"/>
       <use xlink:href="#DejaVuSans-30" x="127.246094"/>
      </g>
     </g>
    </g>
    <g id="ytick_8">
     <g id="line2d_16">
      <g>
       <use xlink:href="#m6c9e89ed2f" x="57.6" y="84.113455" style="stroke: #000000; stroke-width: 0.8"/>
      </g>
     </g>
     <g id="text_17">
      <!-- 175 -->
      <g transform="translate(31.5125 87.912673) scale(0.1 -0.1)">
       <use xlink:href="#DejaVuSans-31"/>
       <use xlink:href="#DejaVuSans-37" x="63.623047"/>
       <use xlink:href="#DejaVuSans-35" x="127.246094"/>
      </g>
     </g>
    </g>
    <g id="ytick_9">
     <g id="line2d_17">
      <g>
       <use xlink:href="#m6c9e89ed2f" x="57.6" y="53.568" style="stroke: #000000; stroke-width: 0.8"/>
      </g>
     </g>
     <g id="text_18">
      <!-- 200 -->
      <g transform="translate(31.5125 57.367219) scale(0.1 -0.1)">
       <use xlink:href="#DejaVuSans-32"/>
       <use xlink:href="#DejaVuSans-30" x="63.623047"/>
       <use xlink:href="#DejaVuSans-30" x="127.246094"/>
      </g>
     </g>
    </g>
    <g id="text_19">
     <!-- Nr. masini -->
     <g transform="translate(25.432812 199.531906) rotate(-90) scale(0.1 -0.1)">
      <defs>
       <path id="DejaVuSans-4e" d="M 628 4666 
L 1478 4666 
L 3547 763 
L 3547 4666 
L 4159 4666 
L 4159 0 
L 3309 0 
L 1241 3903 
L 1241 0 
L 628 0 
L 628 4666 
z
" transform="scale(0.015625)"/>
       <path id="DejaVuSans-72" d="M 2631 2963 
Q 2534 3019 2420 3045 
Q 2306 3072 2169 3072 
Q 1681 3072 1420 2755 
Q 1159 2438 1159 1844 
L 1159 0 
L 581 0 
L 581 3500 
L 1159 3500 
L 1159 2956 
Q 1341 3275 1631 3429 
Q 1922 3584 2338 3584 
Q 2397 3584 2469 3576 
Q 2541 3569 2628 3553 
L 2631 2963 
z
" transform="scale(0.015625)"/>
       <path id="DejaVuSans-2e" d="M 684 794 
L 1344 794 
L 1344 0 
L 684 0 
L 684 794 
z
" transform="scale(0.015625)"/>
       <path id="DejaVuSans-20" transform="scale(0.015625)"/>
       <path id="DejaVuSans-6d" d="M 3328 2828 
Q 3544 3216 3844 3400 
Q 4144 3584 4550 3584 
Q 5097 3584 5394 3201 
Q 5691 2819 5691 2113 
L 5691 0 
L 5113 0 
L 5113 2094 
Q 5113 2597 4934 2840 
Q 4756 3084 4391 3084 
Q 3944 3084 3684 2787 
Q 3425 2491 3425 1978 
L 3425 0 
L 2847 0 
L 2847 2094 
Q 2847 2600 2669 2842 
Q 2491 3084 2119 3084 
Q 1678 3084 1418 2786 
Q 1159 2488 1159 1978 
L 1159 0 
L 581 0 
L 581 3500 
L 1159 3500 
L 1159 2956 
Q 1356 3278 1631 3431 
Q 1906 3584 2284 3584 
Q 2666 3584 2933 3390 
Q 3200 3197 3328 2828 
z
" transform="scale(0.015625)"/>
      </defs>
      <use xlink:href="#DejaVuSans-4e"/>
      <use xlink:href="#DejaVuSans-72" x="74.804688"/>
      <use xlink:href="#DejaVuSans-2e" x="106.792969"/>
      <use xlink:href="#DejaVuSans-20" x="138.580078"/>
      <use xlink:href="#DejaVuSans-6d" x="170.367188"/>
      <use xlink:href="#DejaVuSans-61" x="267.779297"/>
      <use xlink:href="#DejaVuSans-73" x="329.058594"/>
      <use xlink:href="#DejaVuSans-69" x="381.158203"/>
      <use xlink:href="#DejaVuSans-6e" x="408.941406"/>
      <use xlink:href="#DejaVuSans-69" x="472.320312"/>
     </g>
    </g>
   </g>
   <g id="line2d_18">
    <path d="M 73.832727 293.044364 
L 74.269678 285.713455 
L 74.706629 293.044364 
L 75.14358 295.488 
L 75.580531 283.269818 
L 76.017482 293.044364 
L 76.454433 290.600727 
L 76.891384 278.382545 
L 77.328335 285.713455 
L 77.765286 275.938909 
L 78.202237 275.938909 
L 78.639188 258.833455 
L 79.076139 251.502545 
L 79.513089 268.608 
L 79.95004 275.938909 
L 80.386991 266.164364 
L 80.823942 268.608 
L 81.260893 273.495273 
L 81.697844 273.495273 
L 82.134795 251.502545 
L 82.571746 271.051636 
L 83.008697 275.938909 
L 83.882599 280.826182 
L 84.31955 275.938909 
L 85.193452 295.488 
L 85.630403 295.488 
L 86.504304 290.600727 
L 86.941255 293.044364 
L 87.378206 293.044364 
L 87.815157 288.157091 
L 88.252108 288.157091 
L 88.689059 293.044364 
L 89.562961 293.044364 
L 89.999912 295.488 
L 90.436863 295.488 
L 90.873814 290.600727 
L 91.310765 293.044364 
L 92.621618 285.713455 
L 93.058568 295.488 
L 93.495519 295.488 
L 93.93247 280.826182 
L 94.369421 290.600727 
L 96.117225 290.600727 
L 96.554176 293.044364 
L 97.865029 293.044364 
L 98.30198 278.382545 
L 98.738931 278.382545 
L 99.175882 241.728 
L 100.049783 273.495273 
L 100.486734 266.164364 
L 100.923685 280.826182 
L 101.360636 288.157091 
L 101.797587 275.938909 
L 102.234538 273.495273 
L 102.671489 283.269818 
L 103.10844 263.720727 
L 103.545391 288.157091 
L 103.982342 285.713455 
L 104.419293 278.382545 
L 105.293195 293.044364 
L 106.167097 293.044364 
L 106.604047 295.488 
L 107.477949 290.600727 
L 107.9149 293.044364 
L 108.351851 290.600727 
L 108.788802 290.600727 
L 109.225753 295.488 
L 109.662704 290.600727 
L 110.099655 290.600727 
L 110.536606 283.269818 
L 110.973557 293.044364 
L 111.410508 288.157091 
L 111.847459 271.051636 
L 112.28441 290.600727 
L 113.158312 290.600727 
L 113.595262 268.608 
L 114.032213 293.044364 
L 114.469164 295.488 
L 114.906115 283.269818 
L 115.343066 283.269818 
L 115.780017 278.382545 
L 116.216968 293.044364 
L 116.653919 295.488 
L 117.09087 295.488 
L 117.527821 290.600727 
L 117.964772 295.488 
L 118.401723 290.600727 
L 119.275625 295.488 
L 119.712576 295.488 
L 120.149526 288.157091 
L 120.586477 295.488 
L 121.023428 290.600727 
L 121.460379 293.044364 
L 121.89733 290.600727 
L 122.334281 283.269818 
L 122.771232 293.044364 
L 123.208183 290.600727 
L 123.645134 293.044364 
L 124.082085 285.713455 
L 124.519036 283.269818 
L 124.955987 290.600727 
L 125.392938 258.833455 
L 125.829889 273.495273 
L 126.26684 278.382545 
L 126.703791 273.495273 
L 127.140741 285.713455 
L 127.577692 288.157091 
L 128.014643 293.044364 
L 128.451594 293.044364 
L 128.888545 288.157091 
L 129.325496 293.044364 
L 129.762447 285.713455 
L 130.199398 295.488 
L 130.636349 293.044364 
L 131.0733 288.157091 
L 131.510251 290.600727 
L 131.947202 295.488 
L 132.384153 288.157091 
L 132.821104 293.044364 
L 133.258055 293.044364 
L 133.695006 290.600727 
L 134.131956 295.488 
L 134.568907 288.157091 
L 135.005858 295.488 
L 135.442809 285.713455 
L 136.316711 290.600727 
L 136.753662 288.157091 
L 137.190613 295.488 
L 138.064515 290.600727 
L 138.501466 280.826182 
L 138.938417 295.488 
L 139.375368 295.488 
L 139.812319 293.044364 
L 140.24927 285.713455 
L 140.68622 285.713455 
L 141.123171 290.600727 
L 141.560122 280.826182 
L 141.997073 288.157091 
L 142.434024 288.157091 
L 142.870975 290.600727 
L 143.307926 280.826182 
L 143.744877 278.382545 
L 144.181828 268.608 
L 144.618779 275.938909 
L 145.05573 249.058909 
L 145.492681 253.946182 
L 145.929632 256.389818 
L 146.366583 268.608 
L 146.803534 273.495273 
L 147.240485 283.269818 
L 147.677435 266.164364 
L 148.114386 283.269818 
L 148.551337 285.713455 
L 148.988288 285.713455 
L 149.425239 293.044364 
L 150.299141 293.044364 
L 150.736092 285.713455 
L 151.173043 285.713455 
L 151.609994 266.164364 
L 152.046945 278.382545 
L 152.483896 271.051636 
L 152.920847 278.382545 
L 153.357798 278.382545 
L 153.794749 273.495273 
L 154.231699 290.600727 
L 154.66865 280.826182 
L 155.105601 283.269818 
L 155.542552 280.826182 
L 156.416454 280.826182 
L 156.853405 290.600727 
L 157.290356 268.608 
L 158.164258 285.713455 
L 158.601209 278.382545 
L 159.03816 295.488 
L 159.912062 285.713455 
L 160.349013 293.044364 
L 160.785964 290.600727 
L 161.222914 283.269818 
L 161.659865 278.382545 
L 162.096816 263.720727 
L 162.533767 278.382545 
L 162.970718 275.938909 
L 163.407669 280.826182 
L 163.84462 280.826182 
L 164.281571 293.044364 
L 164.718522 258.833455 
L 165.155473 285.713455 
L 165.592424 278.382545 
L 166.466326 268.608 
L 166.903277 268.608 
L 167.340228 271.051636 
L 167.777179 290.600727 
L 168.214129 295.488 
L 169.088031 285.713455 
L 169.524982 293.044364 
L 170.398884 293.044364 
L 170.835835 295.488 
L 171.272786 290.600727 
L 171.709737 290.600727 
L 172.146688 295.488 
L 172.583639 280.826182 
L 173.02059 288.157091 
L 173.457541 290.600727 
L 173.894492 295.488 
L 174.331443 290.600727 
L 174.768393 290.600727 
L 175.205344 288.157091 
L 175.642295 290.600727 
L 176.079246 285.713455 
L 176.516197 290.600727 
L 176.953148 293.044364 
L 177.390099 288.157091 
L 178.264001 293.044364 
L 178.700952 290.600727 
L 179.137903 290.600727 
L 179.574854 283.269818 
L 180.011805 290.600727 
L 180.885707 290.600727 
L 181.322658 280.826182 
L 181.759608 290.600727 
L 182.196559 290.600727 
L 182.63351 275.938909 
L 183.070461 249.058909 
L 183.507412 268.608 
L 183.944363 278.382545 
L 184.381314 283.269818 
L 184.818265 285.713455 
L 185.255216 285.713455 
L 185.692167 288.157091 
L 186.129118 285.713455 
L 186.566069 285.713455 
L 187.00302 288.157091 
L 187.439971 285.713455 
L 187.876922 271.051636 
L 188.313873 285.713455 
L 188.750823 278.382545 
L 189.187774 290.600727 
L 189.624725 288.157091 
L 190.061676 295.488 
L 190.498627 290.600727 
L 190.935578 290.600727 
L 191.372529 295.488 
L 191.80948 288.157091 
L 192.246431 293.044364 
L 192.683382 285.713455 
L 193.557284 285.713455 
L 193.994235 268.608 
L 194.431186 293.044364 
L 194.868137 283.269818 
L 195.305087 285.713455 
L 195.742038 271.051636 
L 196.178989 214.848 
L 196.61594 241.728 
L 197.052891 234.397091 
L 197.489842 195.298909 
L 197.926793 229.509818 
L 198.363744 241.728 
L 198.800695 258.833455 
L 199.237646 258.833455 
L 199.674597 256.389818 
L 200.111548 285.713455 
L 200.98545 285.713455 
L 201.859352 290.600727 
L 202.296302 290.600727 
L 202.733253 288.157091 
L 203.170204 288.157091 
L 203.607155 278.382545 
L 204.044106 288.157091 
L 204.481057 290.600727 
L 204.918008 283.269818 
L 205.354959 278.382545 
L 205.79191 293.044364 
L 206.228861 280.826182 
L 206.665812 273.495273 
L 207.102763 268.608 
L 207.539714 273.495273 
L 207.976665 261.277091 
L 208.413616 244.171636 
L 208.850566 236.840727 
L 209.287517 263.720727 
L 209.724468 268.608 
L 210.161419 261.277091 
L 210.59837 285.713455 
L 211.035321 290.600727 
L 211.472272 293.044364 
L 211.909223 290.600727 
L 212.346174 285.713455 
L 212.783125 288.157091 
L 213.220076 293.044364 
L 214.093978 271.051636 
L 214.530929 283.269818 
L 214.96788 266.164364 
L 215.404831 268.608 
L 215.841781 278.382545 
L 216.278732 273.495273 
L 216.715683 275.938909 
L 217.152634 288.157091 
L 217.589585 285.713455 
L 218.026536 268.608 
L 218.463487 271.051636 
L 218.900438 280.826182 
L 219.337389 273.495273 
L 219.77434 275.938909 
L 220.211291 268.608 
L 221.959095 288.157091 
L 222.396046 288.157091 
L 222.832996 278.382545 
L 223.269947 285.713455 
L 224.143849 280.826182 
L 224.5808 273.495273 
L 225.017751 271.051636 
L 225.454702 283.269818 
L 225.891653 268.608 
L 226.328604 278.382545 
L 226.765555 273.495273 
L 227.202506 271.051636 
L 227.639457 283.269818 
L 228.076408 275.938909 
L 228.513359 285.713455 
L 229.38726 271.051636 
L 229.824211 285.713455 
L 230.261162 271.051636 
L 230.698113 273.495273 
L 231.135064 278.382545 
L 231.572015 280.826182 
L 232.008966 278.382545 
L 232.445917 280.826182 
L 232.882868 293.044364 
L 233.319819 295.488 
L 233.75677 295.488 
L 234.193721 280.826182 
L 234.630672 288.157091 
L 235.067623 285.713455 
L 235.504574 280.826182 
L 235.941525 285.713455 
L 236.378475 283.269818 
L 236.815426 290.600727 
L 237.252377 288.157091 
L 237.689328 288.157091 
L 238.126279 285.713455 
L 238.56323 290.600727 
L 239.000181 285.713455 
L 239.437132 285.713455 
L 239.874083 280.826182 
L 240.311034 285.713455 
L 240.747985 275.938909 
L 241.184936 273.495273 
L 241.621887 273.495273 
L 242.058838 278.382545 
L 242.495789 293.044364 
L 242.93274 290.600727 
L 243.36969 293.044364 
L 243.806641 288.157091 
L 244.243592 290.600727 
L 244.680543 285.713455 
L 245.117494 293.044364 
L 245.554445 288.157091 
L 245.991396 293.044364 
L 246.428347 290.600727 
L 247.302249 280.826182 
L 247.7392 290.600727 
L 248.176151 275.938909 
L 248.613102 290.600727 
L 249.050053 275.938909 
L 249.487004 285.713455 
L 249.923954 278.382545 
L 250.360905 280.826182 
L 250.797856 288.157091 
L 251.234807 290.600727 
L 252.108709 285.713455 
L 252.54566 288.157091 
L 252.982611 278.382545 
L 253.419562 278.382545 
L 253.856513 285.713455 
L 254.730415 290.600727 
L 255.167366 290.600727 
L 255.604317 293.044364 
L 256.041268 288.157091 
L 256.478219 278.382545 
L 256.915169 285.713455 
L 257.35212 275.938909 
L 257.789071 290.600727 
L 258.226022 288.157091 
L 259.099924 293.044364 
L 259.536875 278.382545 
L 259.973826 285.713455 
L 260.410777 280.826182 
L 261.284679 290.600727 
L 262.158581 263.720727 
L 262.595532 280.826182 
L 263.032483 283.269818 
L 263.469434 290.600727 
L 263.906384 288.157091 
L 264.780286 293.044364 
L 265.654188 293.044364 
L 266.091139 295.488 
L 266.52809 288.157091 
L 266.965041 293.044364 
L 267.401992 290.600727 
L 268.275894 280.826182 
L 269.149796 290.600727 
L 269.586747 283.269818 
L 270.023698 278.382545 
L 270.460648 268.608 
L 271.33455 285.713455 
L 271.771501 278.382545 
L 272.208452 288.157091 
L 272.645403 283.269818 
L 273.082354 288.157091 
L 273.519305 288.157091 
L 273.956256 293.044364 
L 274.393207 293.044364 
L 274.830158 290.600727 
L 275.267109 290.600727 
L 275.70406 285.713455 
L 276.141011 295.488 
L 276.577962 295.488 
L 277.014913 290.600727 
L 277.451863 293.044364 
L 277.888814 293.044364 
L 278.325765 290.600727 
L 279.199667 295.488 
L 279.636618 290.600727 
L 280.073569 293.044364 
L 280.51052 283.269818 
L 280.947471 280.826182 
L 281.384422 288.157091 
L 281.821373 290.600727 
L 282.258324 290.600727 
L 282.695275 293.044364 
L 283.132226 293.044364 
L 283.569177 285.713455 
L 284.006127 285.713455 
L 284.443078 278.382545 
L 284.880029 293.044364 
L 285.753931 293.044364 
L 286.190882 285.713455 
L 286.627833 293.044364 
L 287.064784 288.157091 
L 287.501735 293.044364 
L 287.938686 283.269818 
L 288.375637 293.044364 
L 288.812588 293.044364 
L 289.249539 290.600727 
L 289.68649 290.600727 
L 290.123441 285.713455 
L 290.560392 290.600727 
L 290.997342 283.269818 
L 291.434293 280.826182 
L 291.871244 253.946182 
L 292.308195 275.938909 
L 292.745146 273.495273 
L 293.182097 263.720727 
L 293.619048 290.600727 
L 294.055999 283.269818 
L 294.49295 280.826182 
L 294.929901 290.600727 
L 295.366852 280.826182 
L 295.803803 295.488 
L 296.240754 293.044364 
L 296.677705 288.157091 
L 297.114656 293.044364 
L 297.988557 271.051636 
L 298.425508 280.826182 
L 298.862459 273.495273 
L 299.29941 278.382545 
L 299.736361 290.600727 
L 300.173312 273.495273 
L 300.610263 271.051636 
L 301.047214 275.938909 
L 301.484165 273.495273 
L 301.921116 280.826182 
L 302.358067 268.608 
L 302.795018 268.608 
L 303.231969 273.495273 
L 303.66892 285.713455 
L 304.105871 278.382545 
L 304.542821 280.826182 
L 304.979772 288.157091 
L 305.416723 290.600727 
L 305.853674 295.488 
L 306.727576 290.600727 
L 307.164527 293.044364 
L 307.601478 290.600727 
L 308.038429 290.600727 
L 308.47538 283.269818 
L 308.912331 271.051636 
L 309.349282 285.713455 
L 309.786233 293.044364 
L 310.660135 271.051636 
L 311.097086 261.277091 
L 311.534036 266.164364 
L 311.970987 258.833455 
L 312.407938 285.713455 
L 312.844889 268.608 
L 313.28184 268.608 
L 314.155742 278.382545 
L 314.592693 253.946182 
L 315.029644 256.389818 
L 315.903546 285.713455 
L 317.214399 293.044364 
L 317.65135 288.157091 
L 318.088301 288.157091 
L 318.525251 283.269818 
L 318.962202 288.157091 
L 319.399153 249.058909 
L 319.836104 258.833455 
L 320.273055 258.833455 
L 321.146957 273.495273 
L 321.583908 273.495273 
L 322.020859 263.720727 
L 322.45781 275.938909 
L 322.894761 273.495273 
L 323.331712 285.713455 
L 323.768663 288.157091 
L 324.205614 271.051636 
L 324.642565 283.269818 
L 325.079515 280.826182 
L 325.516466 283.269818 
L 325.953417 288.157091 
L 326.390368 283.269818 
L 326.827319 295.488 
L 327.26427 290.600727 
L 328.138172 290.600727 
L 328.575123 285.713455 
L 329.012074 283.269818 
L 329.449025 283.269818 
L 329.885976 278.382545 
L 330.322927 290.600727 
L 330.759878 273.495273 
L 331.196829 278.382545 
L 331.63378 273.495273 
L 332.07073 283.269818 
L 332.507681 280.826182 
L 332.944632 268.608 
L 333.381583 288.157091 
L 333.818534 278.382545 
L 334.255485 278.382545 
L 334.692436 273.495273 
L 335.129387 283.269818 
L 335.566338 275.938909 
L 336.003289 278.382545 
L 336.44024 290.600727 
L 336.877191 293.044364 
L 337.314142 285.713455 
L 337.751093 290.600727 
L 338.188044 293.044364 
L 338.624994 293.044364 
L 339.061945 290.600727 
L 339.498896 295.488 
L 339.935847 285.713455 
L 340.372798 285.713455 
L 340.809749 278.382545 
L 341.2467 288.157091 
L 341.683651 285.713455 
L 342.557553 271.051636 
L 342.994504 200.186182 
L 343.431455 53.568 
L 343.868406 68.229818 
L 344.742308 178.193455 
L 345.179259 205.073455 
L 345.616209 156.200727 
L 346.05316 219.735273 
L 346.490111 227.066182 
L 347.364013 263.720727 
L 347.800964 261.277091 
L 348.237915 268.608 
L 348.674866 280.826182 
L 349.111817 278.382545 
L 349.548768 283.269818 
L 349.985719 273.495273 
L 350.42267 280.826182 
L 350.859621 280.826182 
L 351.296572 258.833455 
L 351.733523 285.713455 
L 352.170474 280.826182 
L 352.607424 285.713455 
L 353.044375 275.938909 
L 353.481326 275.938909 
L 353.918277 288.157091 
L 354.355228 268.608 
L 354.792179 278.382545 
L 355.22913 246.615273 
L 355.666081 227.066182 
L 356.103032 258.833455 
L 356.539983 263.720727 
L 356.976934 251.502545 
L 357.850836 278.382545 
L 358.287787 268.608 
L 358.724738 280.826182 
L 359.161688 283.269818 
L 359.598639 293.044364 
L 360.03559 285.713455 
L 360.472541 283.269818 
L 360.909492 268.608 
L 361.346443 280.826182 
L 361.783394 288.157091 
L 362.220345 278.382545 
L 362.657296 288.157091 
L 363.094247 280.826182 
L 363.531198 290.600727 
L 363.968149 278.382545 
L 364.4051 283.269818 
L 364.842051 244.171636 
L 365.279002 266.164364 
L 365.715953 263.720727 
L 366.152903 268.608 
L 366.589854 258.833455 
L 367.026805 271.051636 
L 367.463756 263.720727 
L 367.900707 261.277091 
L 368.337658 271.051636 
L 368.774609 285.713455 
L 369.21156 278.382545 
L 369.648511 263.720727 
L 370.085462 271.051636 
L 370.522413 273.495273 
L 370.959364 278.382545 
L 371.396315 275.938909 
L 372.270217 266.164364 
L 372.707168 266.164364 
L 373.144118 256.389818 
L 373.581069 256.389818 
L 374.01802 271.051636 
L 374.454971 271.051636 
L 374.891922 256.389818 
L 375.328873 251.502545 
L 375.765824 263.720727 
L 376.202775 214.848 
L 376.639726 244.171636 
L 377.076677 258.833455 
L 377.513628 251.502545 
L 377.950579 263.720727 
L 378.824481 278.382545 
L 379.261432 288.157091 
L 379.698382 288.157091 
L 380.135333 283.269818 
L 380.572284 288.157091 
L 381.009235 290.600727 
L 381.883137 268.608 
L 382.320088 246.615273 
L 382.757039 263.720727 
L 383.19399 275.938909 
L 384.067892 266.164364 
L 384.504843 275.938909 
L 384.941794 266.164364 
L 385.378745 271.051636 
L 385.815696 268.608 
L 386.252647 268.608 
L 386.689597 275.938909 
L 387.126548 280.826182 
L 387.563499 263.720727 
L 388.437401 285.713455 
L 389.311303 285.713455 
L 389.748254 283.269818 
L 390.622156 283.269818 
L 391.059107 295.488 
L 391.496058 288.157091 
L 391.933009 278.382545 
L 392.36996 273.495273 
L 392.806911 275.938909 
L 393.243861 263.720727 
L 393.680812 283.269818 
L 394.117763 280.826182 
L 394.554714 280.826182 
L 394.991665 271.051636 
L 395.428616 285.713455 
L 396.302518 275.938909 
L 396.739469 280.826182 
L 397.17642 271.051636 
L 397.613371 280.826182 
L 398.050322 280.826182 
L 398.487273 288.157091 
L 398.487273 288.157091 
" clip-path="url(#p01b12d04a5)" style="fill: none; stroke: #1f77b4; stroke-width: 1.5; stroke-linecap: square"/>
   </g>
   <g id="patch_3">
    <path d="M 57.6 307.584 
L 57.6 41.472 
" style="fill: none; stroke: #000000; stroke-width: 0.8; stroke-linejoin: miter; stroke-linecap: square"/>
   </g>
   <g id="patch_4">
    <path d="M 414.72 307.584 
L 414.72 41.472 
" style="fill: none; stroke: #000000; stroke-width: 0.8; stroke-linejoin: miter; stroke-linecap: square"/>
   </g>
   <g id="patch_5">
    <path d="M 57.6 307.584 
L 414.72 307.584 
" style="fill: none; stroke: #000000; stroke-width: 0.8; stroke-linejoin: miter; stroke-linecap: square"/>
   </g>
   <g id="patch_6">
    <path d="M 57.6 41.472 
L 414.72 41.472 
" style="fill: none; stroke: #000000; stroke-width: 0.8; stroke-linejoin: miter; stroke-linecap: square"/>
   </g>
   <g id="text_20">
    <!-- Luna de trafic -->
    <g transform="translate(194.751563 35.472) scale(0.12 -0.12)">
     <defs>
      <path id="DejaVuSans-4c" d="M 628 4666 
L 1259 4666 
L 1259 531 
L 3531 531 
L 3531 0 
L 628 0 
L 628 4666 
z
" transform="scale(0.015625)"/>
      <path id="DejaVuSans-64" d="M 2906 2969 
L 2906 4863 
L 3481 4863 
L 3481 0 
L 2906 0 
L 2906 525 
Q 2725 213 2448 61 
Q 2172 -91 1784 -91 
Q 1150 -91 751 415 
Q 353 922 353 1747 
Q 353 2572 751 3078 
Q 1150 3584 1784 3584 
Q 2172 3584 2448 3432 
Q 2725 3281 2906 2969 
z
M 947 1747 
Q 947 1113 1208 752 
Q 1469 391 1925 391 
Q 2381 391 2643 752 
Q 2906 1113 2906 1747 
Q 2906 2381 2643 2742 
Q 2381 3103 1925 3103 
Q 1469 3103 1208 2742 
Q 947 2381 947 1747 
z
" transform="scale(0.015625)"/>
      <path id="DejaVuSans-65" d="M 3597 1894 
L 3597 1613 
L 953 1613 
Q 991 1019 1311 708 
Q 1631 397 2203 397 
Q 2534 397 2845 478 
Q 3156 559 3463 722 
L 3463 178 
Q 3153 47 2828 -22 
Q 2503 -91 2169 -91 
Q 1331 -91 842 396 
Q 353 884 353 1716 
Q 353 2575 817 3079 
Q 1281 3584 2069 3584 
Q 2775 3584 3186 3129 
Q 3597 2675 3597 1894 
z
M 3022 2063 
Q 3016 2534 2758 2815 
Q 2500 3097 2075 3097 
Q 1594 3097 1305 2825 
Q 1016 2553 972 2059 
L 3022 2063 
z
" transform="scale(0.015625)"/>
      <path id="DejaVuSans-66" d="M 2375 4863 
L 2375 4384 
L 1825 4384 
Q 1516 4384 1395 4259 
Q 1275 4134 1275 3809 
L 1275 3500 
L 2222 3500 
L 2222 3053 
L 1275 3053 
L 1275 0 
L 697 0 
L 697 3053 
L 147 3053 
L 147 3500 
L 697 3500 
L 697 3744 
Q 697 4328 969 4595 
Q 1241 4863 1831 4863 
L 2375 4863 
z
" transform="scale(0.015625)"/>
      <path id="DejaVuSans-63" d="M 3122 3366 
L 3122 2828 
Q 2878 2963 2633 3030 
Q 2388 3097 2138 3097 
Q 1578 3097 1268 2742 
Q 959 2388 959 1747 
Q 959 1106 1268 751 
Q 1578 397 2138 397 
Q 2388 397 2633 464 
Q 2878 531 3122 666 
L 3122 134 
Q 2881 22 2623 -34 
Q 2366 -91 2075 -91 
Q 1284 -91 818 406 
Q 353 903 353 1747 
Q 353 2603 823 3093 
Q 1294 3584 2113 3584 
Q 2378 3584 2631 3529 
Q 2884 3475 3122 3366 
z
" transform="scale(0.015625)"/>
     </defs>
     <use xlink:href="#DejaVuSans-4c"/>
     <use xlink:href="#DejaVuSans-75" x="53.962891"/>
     <use xlink:href="#DejaVuSans-6e" x="117.341797"/>
     <use xlink:href="#DejaVuSans-61" x="180.720703"/>
     <use xlink:href="#DejaVuSans-20" x="242"/>
     <use xlink:href="#DejaVuSans-64" x="273.787109"/>
     <use xlink:href="#DejaVuSans-65" x="337.263672"/>
     <use xlink:href="#DejaVuSans-20" x="398.787109"/>
     <use xlink:href="#DejaVuSans-74" x="430.574219"/>
     <use xlink:href="#DejaVuSans-72" x="469.783203"/>
     <use xlink:href="#DejaVuSans-61" x="510.896484"/>
     <use xlink:href="#DejaVuSans-66" x="572.175781"/>
     <use xlink:href="#DejaVuSans-69" x="607.380859"/>
     <use xlink:href="#DejaVuSans-63" x="635.164062"/>
    </g>
   </g>
  </g>
 </g>
 <defs>
  <clipPath id="p01b12d04a5">
   <rect x="57.6" y="41.472" width="357.12" height="266.112"/>
  </clipPath>
 </defs>
</svg>
