<?xml version="1.0" encoding="utf-8" standalone="no"?>
<!DOCTYPE svg PUBLIC "-//W3C//DTD SVG 1.1//EN"
  "http://www.w3.org/Graphics/SVG/1.1/DTD/svg11.dtd">
<svg xmlns:xlink="http://www.w3.org/1999/xlink" width="460.8pt" height="345.6pt" viewBox="0 0 460.8 345.6" xmlns="http://www.w3.org/2000/svg" version="1.1">
 <metadata>
  <rdf:RDF xmlns:dc="http://purl.org/dc/elements/1.1/" xmlns:cc="http://creativecommons.org/ns#" xmlns:rdf="http://www.w3.org/1999/02/22-rdf-syntax-ns#">
   <cc:Work>
    <dc:type rdf:resource="http://purl.org/dc/dcmitype/StillImage"/>
    <dc:date>2024-11-02T21:08:19.764817</dc:date>
    <dc:format>image/svg+xml</dc:format>
    <dc:creator>
     <cc:Agent>
      <dc:title>Matplotlib v3.9.2, https://matplotlib.org/</dc:title>
     </cc:Agent>
    </dc:creator>
   </cc:Work>
  </rdf:RDF>
 </metadata>
 <defs>
  <style type="text/css">*{stroke-linejoin: round; stroke-linecap: butt}</style>
 </defs>
 <g id="figure_1">
  <g id="patch_1">
   <path d="M 0 345.6 
L 460.8 345.6 
L 460.8 0 
L 0 0 
z
" style="fill: #ffffff"/>
  </g>
  <g id="axes_1">
   <g id="patch_2">
    <path d="M 57.6 307.584 
L 414.72 307.584 
L 414.72 41.472 
L 57.6 41.472 
z
" style="fill: #ffffff"/>
   </g>
   <g id="matplotlib.axis_1">
    <g id="xtick_1">
     <g id="line2d_1">
      <defs>
       <path id="m50e18d2f88" d="M 0 0 
L 0 3.5 
" style="stroke: #000000; stroke-width: 0.8"/>
      </defs>
      <g>
       <use xlink:href="#m50e18d2f88" x="58.95036" y="307.584" style="stroke: #000000; stroke-width: 0.8"/>
      </g>
     </g>
     <g id="text_1">
      <!-- $\mathdefault{10^{-8}}$ -->
      <g transform="translate(47.20036 322.182437) scale(0.1 -0.1)">
       <defs>
        <path id="DejaVuSans-31" d="M 794 531 
L 1825 531 
L 1825 4091 
L 703 3866 
L 703 4441 
L 1819 4666 
L 2450 4666 
L 2450 531 
L 3481 531 
L 3481 0 
L 794 0 
L 794 531 
z
" transform="scale(0.015625)"/>
        <path id="DejaVuSans-30" d="M 2034 4250 
Q 1547 4250 1301 3770 
Q 1056 3291 1056 2328 
Q 1056 1369 1301 889 
Q 1547 409 2034 409 
Q 2525 409 2770 889 
Q 3016 1369 3016 2328 
Q 3016 3291 2770 3770 
Q 2525 4250 2034 4250 
z
M 2034 4750 
Q 2819 4750 3233 4129 
Q 3647 3509 3647 2328 
Q 3647 1150 3233 529 
Q 2819 -91 2034 -91 
Q 1250 -91 836 529 
Q 422 1150 422 2328 
Q 422 3509 836 4129 
Q 1250 4750 2034 4750 
z
" transform="scale(0.015625)"/>
        <path id="DejaVuSans-2212" d="M 678 2272 
L 4684 2272 
L 4684 1741 
L 678 1741 
L 678 2272 
z
" transform="scale(0.015625)"/>
        <path id="DejaVuSans-38" d="M 2034 2216 
Q 1584 2216 1326 1975 
Q 1069 1734 1069 1313 
Q 1069 891 1326 650 
Q 1584 409 2034 409 
Q 2484 409 2743 651 
Q 3003 894 3003 1313 
Q 3003 1734 2745 1975 
Q 2488 2216 2034 2216 
z
M 1403 2484 
Q 997 2584 770 2862 
Q 544 3141 544 3541 
Q 544 4100 942 4425 
Q 1341 4750 2034 4750 
Q 2731 4750 3128 4425 
Q 3525 4100 3525 3541 
Q 3525 3141 3298 2862 
Q 3072 2584 2669 2484 
Q 3125 2378 3379 2068 
Q 3634 1759 3634 1313 
Q 3634 634 3220 271 
Q 2806 -91 2034 -91 
Q 1263 -91 848 271 
Q 434 634 434 1313 
Q 434 1759 690 2068 
Q 947 2378 1403 2484 
z
M 1172 3481 
Q 1172 3119 1398 2916 
Q 1625 2713 2034 2713 
Q 2441 2713 2670 2916 
Q 2900 3119 2900 3481 
Q 2900 3844 2670 4047 
Q 2441 4250 2034 4250 
Q 1625 4250 1398 4047 
Q 1172 3844 1172 3481 
z
" transform="scale(0.015625)"/>
       </defs>
       <use xlink:href="#DejaVuSans-31" transform="translate(0 0.765625)"/>
       <use xlink:href="#DejaVuSans-30" transform="translate(63.623047 0.765625)"/>
       <use xlink:href="#DejaVuSans-2212" transform="translate(128.203125 39.046875) scale(0.7)"/>
       <use xlink:href="#DejaVuSans-38" transform="translate(186.855469 39.046875) scale(0.7)"/>
      </g>
     </g>
    </g>
    <g id="xtick_2">
     <g id="line2d_2">
      <g>
       <use xlink:href="#m50e18d2f88" x="140.911298" y="307.584" style="stroke: #000000; stroke-width: 0.8"/>
      </g>
     </g>
     <g id="text_2">
      <!-- $\mathdefault{10^{-7}}$ -->
      <g transform="translate(129.161298 322.182437) scale(0.1 -0.1)">
       <defs>
        <path id="DejaVuSans-37" d="M 525 4666 
L 3525 4666 
L 3525 4397 
L 1831 0 
L 1172 0 
L 2766 4134 
L 525 4134 
L 525 4666 
z
" transform="scale(0.015625)"/>
       </defs>
       <use xlink:href="#DejaVuSans-31" transform="translate(0 0.684375)"/>
       <use xlink:href="#DejaVuSans-30" transform="translate(63.623047 0.684375)"/>
       <use xlink:href="#DejaVuSans-2212" transform="translate(128.203125 38.965625) scale(0.7)"/>
       <use xlink:href="#DejaVuSans-37" transform="translate(186.855469 38.965625) scale(0.7)"/>
      </g>
     </g>
    </g>
    <g id="xtick_3">
     <g id="line2d_3">
      <g>
       <use xlink:href="#m50e18d2f88" x="222.872235" y="307.584" style="stroke: #000000; stroke-width: 0.8"/>
      </g>
     </g>
     <g id="text_3">
      <!-- $\mathdefault{10^{-6}}$ -->
      <g transform="translate(211.122235 322.182437) scale(0.1 -0.1)">
       <defs>
        <path id="DejaVuSans-36" d="M 2113 2584 
Q 1688 2584 1439 2293 
Q 1191 2003 1191 1497 
Q 1191 994 1439 701 
Q 1688 409 2113 409 
Q 2538 409 2786 701 
Q 3034 994 3034 1497 
Q 3034 2003 2786 2293 
Q 2538 2584 2113 2584 
z
M 3366 4563 
L 3366 3988 
Q 3128 4100 2886 4159 
Q 2644 4219 2406 4219 
Q 1781 4219 1451 3797 
Q 1122 3375 1075 2522 
Q 1259 2794 1537 2939 
Q 1816 3084 2150 3084 
Q 2853 3084 3261 2657 
Q 3669 2231 3669 1497 
Q 3669 778 3244 343 
Q 2819 -91 2113 -91 
Q 1303 -91 875 529 
Q 447 1150 447 2328 
Q 447 3434 972 4092 
Q 1497 4750 2381 4750 
Q 2619 4750 2861 4703 
Q 3103 4656 3366 4563 
z
" transform="scale(0.015625)"/>
       </defs>
       <use xlink:href="#DejaVuSans-31" transform="translate(0 0.765625)"/>
       <use xlink:href="#DejaVuSans-30" transform="translate(63.623047 0.765625)"/>
       <use xlink:href="#DejaVuSans-2212" transform="translate(128.203125 39.046875) scale(0.7)"/>
       <use xlink:href="#DejaVuSans-36" transform="translate(186.855469 39.046875) scale(0.7)"/>
      </g>
     </g>
    </g>
    <g id="xtick_4">
     <g id="line2d_4">
      <g>
       <use xlink:href="#m50e18d2f88" x="304.833173" y="307.584" style="stroke: #000000; stroke-width: 0.8"/>
      </g>
     </g>
     <g id="text_4">
      <!-- $\mathdefault{10^{-5}}$ -->
      <g transform="translate(293.083173 322.182437) scale(0.1 -0.1)">
       <defs>
        <path id="DejaVuSans-35" d="M 691 4666 
L 3169 4666 
L 3169 4134 
L 1269 4134 
L 1269 2991 
Q 1406 3038 1543 3061 
Q 1681 3084 1819 3084 
Q 2600 3084 3056 2656 
Q 3513 2228 3513 1497 
Q 3513 744 3044 326 
Q 2575 -91 1722 -91 
Q 1428 -91 1123 -41 
Q 819 9 494 109 
L 494 744 
Q 775 591 1075 516 
Q 1375 441 1709 441 
Q 2250 441 2565 725 
Q 2881 1009 2881 1497 
Q 2881 1984 2565 2268 
Q 2250 2553 1709 2553 
Q 1456 2553 1204 2497 
Q 953 2441 691 2322 
L 691 4666 
z
" transform="scale(0.015625)"/>
       </defs>
       <use xlink:href="#DejaVuSans-31" transform="translate(0 0.684375)"/>
       <use xlink:href="#DejaVuSans-30" transform="translate(63.623047 0.684375)"/>
       <use xlink:href="#DejaVuSans-2212" transform="translate(128.203125 38.965625) scale(0.7)"/>
       <use xlink:href="#DejaVuSans-35" transform="translate(186.855469 38.965625) scale(0.7)"/>
      </g>
     </g>
    </g>
    <g id="xtick_5">
     <g id="line2d_5">
      <g>
       <use xlink:href="#m50e18d2f88" x="386.79411" y="307.584" style="stroke: #000000; stroke-width: 0.8"/>
      </g>
     </g>
     <g id="text_5">
      <!-- $\mathdefault{10^{-4}}$ -->
      <g transform="translate(375.04411 322.182437) scale(0.1 -0.1)">
       <defs>
        <path id="DejaVuSans-34" d="M 2419 4116 
L 825 1625 
L 2419 1625 
L 2419 4116 
z
M 2253 4666 
L 3047 4666 
L 3047 1625 
L 3713 1625 
L 3713 1100 
L 3047 1100 
L 3047 0 
L 2419 0 
L 2419 1100 
L 313 1100 
L 313 1709 
L 2253 4666 
z
" transform="scale(0.015625)"/>
       </defs>
       <use xlink:href="#DejaVuSans-31" transform="translate(0 0.684375)"/>
       <use xlink:href="#DejaVuSans-30" transform="translate(63.623047 0.684375)"/>
       <use xlink:href="#DejaVuSans-2212" transform="translate(128.203125 38.965625) scale(0.7)"/>
       <use xlink:href="#DejaVuSans-34" transform="translate(186.855469 38.965625) scale(0.7)"/>
      </g>
     </g>
    </g>
    <g id="xtick_6">
     <g id="line2d_6">
      <defs>
       <path id="m9a678fe480" d="M 0 0 
L 0 2 
" style="stroke: #000000; stroke-width: 0.6"/>
      </defs>
      <g>
       <use xlink:href="#m9a678fe480" x="83.623061" y="307.584" style="stroke: #000000; stroke-width: 0.6"/>
      </g>
     </g>
    </g>
    <g id="xtick_7">
     <g id="line2d_7">
      <g>
       <use xlink:href="#m9a678fe480" x="98.055665" y="307.584" style="stroke: #000000; stroke-width: 0.6"/>
      </g>
     </g>
    </g>
    <g id="xtick_8">
     <g id="line2d_8">
      <g>
       <use xlink:href="#m9a678fe480" x="108.295761" y="307.584" style="stroke: #000000; stroke-width: 0.6"/>
      </g>
     </g>
    </g>
    <g id="xtick_9">
     <g id="line2d_9">
      <g>
       <use xlink:href="#m9a678fe480" x="116.238597" y="307.584" style="stroke: #000000; stroke-width: 0.6"/>
      </g>
     </g>
    </g>
    <g id="xtick_10">
     <g id="line2d_10">
      <g>
       <use xlink:href="#m9a678fe480" x="122.728366" y="307.584" style="stroke: #000000; stroke-width: 0.6"/>
      </g>
     </g>
    </g>
    <g id="xtick_11">
     <g id="line2d_11">
      <g>
       <use xlink:href="#m9a678fe480" x="128.215388" y="307.584" style="stroke: #000000; stroke-width: 0.6"/>
      </g>
     </g>
    </g>
    <g id="xtick_12">
     <g id="line2d_12">
      <g>
       <use xlink:href="#m9a678fe480" x="132.968462" y="307.584" style="stroke: #000000; stroke-width: 0.6"/>
      </g>
     </g>
    </g>
    <g id="xtick_13">
     <g id="line2d_13">
      <g>
       <use xlink:href="#m9a678fe480" x="137.160971" y="307.584" style="stroke: #000000; stroke-width: 0.6"/>
      </g>
     </g>
    </g>
    <g id="xtick_14">
     <g id="line2d_14">
      <g>
       <use xlink:href="#m9a678fe480" x="165.583998" y="307.584" style="stroke: #000000; stroke-width: 0.6"/>
      </g>
     </g>
    </g>
    <g id="xtick_15">
     <g id="line2d_15">
      <g>
       <use xlink:href="#m9a678fe480" x="180.016603" y="307.584" style="stroke: #000000; stroke-width: 0.6"/>
      </g>
     </g>
    </g>
    <g id="xtick_16">
     <g id="line2d_16">
      <g>
       <use xlink:href="#m9a678fe480" x="190.256699" y="307.584" style="stroke: #000000; stroke-width: 0.6"/>
      </g>
     </g>
    </g>
    <g id="xtick_17">
     <g id="line2d_17">
      <g>
       <use xlink:href="#m9a678fe480" x="198.199534" y="307.584" style="stroke: #000000; stroke-width: 0.6"/>
      </g>
     </g>
    </g>
    <g id="xtick_18">
     <g id="line2d_18">
      <g>
       <use xlink:href="#m9a678fe480" x="204.689304" y="307.584" style="stroke: #000000; stroke-width: 0.6"/>
      </g>
     </g>
    </g>
    <g id="xtick_19">
     <g id="line2d_19">
      <g>
       <use xlink:href="#m9a678fe480" x="210.176325" y="307.584" style="stroke: #000000; stroke-width: 0.6"/>
      </g>
     </g>
    </g>
    <g id="xtick_20">
     <g id="line2d_20">
      <g>
       <use xlink:href="#m9a678fe480" x="214.9294" y="307.584" style="stroke: #000000; stroke-width: 0.6"/>
      </g>
     </g>
    </g>
    <g id="xtick_21">
     <g id="line2d_21">
      <g>
       <use xlink:href="#m9a678fe480" x="219.121908" y="307.584" style="stroke: #000000; stroke-width: 0.6"/>
      </g>
     </g>
    </g>
    <g id="xtick_22">
     <g id="line2d_22">
      <g>
       <use xlink:href="#m9a678fe480" x="247.544936" y="307.584" style="stroke: #000000; stroke-width: 0.6"/>
      </g>
     </g>
    </g>
    <g id="xtick_23">
     <g id="line2d_23">
      <g>
       <use xlink:href="#m9a678fe480" x="261.977541" y="307.584" style="stroke: #000000; stroke-width: 0.6"/>
      </g>
     </g>
    </g>
    <g id="xtick_24">
     <g id="line2d_24">
      <g>
       <use xlink:href="#m9a678fe480" x="272.217637" y="307.584" style="stroke: #000000; stroke-width: 0.6"/>
      </g>
     </g>
    </g>
    <g id="xtick_25">
     <g id="line2d_25">
      <g>
       <use xlink:href="#m9a678fe480" x="280.160472" y="307.584" style="stroke: #000000; stroke-width: 0.6"/>
      </g>
     </g>
    </g>
    <g id="xtick_26">
     <g id="line2d_26">
      <g>
       <use xlink:href="#m9a678fe480" x="286.650241" y="307.584" style="stroke: #000000; stroke-width: 0.6"/>
      </g>
     </g>
    </g>
    <g id="xtick_27">
     <g id="line2d_27">
      <g>
       <use xlink:href="#m9a678fe480" x="292.137263" y="307.584" style="stroke: #000000; stroke-width: 0.6"/>
      </g>
     </g>
    </g>
    <g id="xtick_28">
     <g id="line2d_28">
      <g>
       <use xlink:href="#m9a678fe480" x="296.890337" y="307.584" style="stroke: #000000; stroke-width: 0.6"/>
      </g>
     </g>
    </g>
    <g id="xtick_29">
     <g id="line2d_29">
      <g>
       <use xlink:href="#m9a678fe480" x="301.082846" y="307.584" style="stroke: #000000; stroke-width: 0.6"/>
      </g>
     </g>
    </g>
    <g id="xtick_30">
     <g id="line2d_30">
      <g>
       <use xlink:href="#m9a678fe480" x="329.505873" y="307.584" style="stroke: #000000; stroke-width: 0.6"/>
      </g>
     </g>
    </g>
    <g id="xtick_31">
     <g id="line2d_31">
      <g>
       <use xlink:href="#m9a678fe480" x="343.938478" y="307.584" style="stroke: #000000; stroke-width: 0.6"/>
      </g>
     </g>
    </g>
    <g id="xtick_32">
     <g id="line2d_32">
      <g>
       <use xlink:href="#m9a678fe480" x="354.178574" y="307.584" style="stroke: #000000; stroke-width: 0.6"/>
      </g>
     </g>
    </g>
    <g id="xtick_33">
     <g id="line2d_33">
      <g>
       <use xlink:href="#m9a678fe480" x="362.12141" y="307.584" style="stroke: #000000; stroke-width: 0.6"/>
      </g>
     </g>
    </g>
    <g id="xtick_34">
     <g id="line2d_34">
      <g>
       <use xlink:href="#m9a678fe480" x="368.611179" y="307.584" style="stroke: #000000; stroke-width: 0.6"/>
      </g>
     </g>
    </g>
    <g id="xtick_35">
     <g id="line2d_35">
      <g>
       <use xlink:href="#m9a678fe480" x="374.0982" y="307.584" style="stroke: #000000; stroke-width: 0.6"/>
      </g>
     </g>
    </g>
    <g id="xtick_36">
     <g id="line2d_36">
      <g>
       <use xlink:href="#m9a678fe480" x="378.851275" y="307.584" style="stroke: #000000; stroke-width: 0.6"/>
      </g>
     </g>
    </g>
    <g id="xtick_37">
     <g id="line2d_37">
      <g>
       <use xlink:href="#m9a678fe480" x="383.043784" y="307.584" style="stroke: #000000; stroke-width: 0.6"/>
      </g>
     </g>
    </g>
    <g id="xtick_38">
     <g id="line2d_38">
      <g>
       <use xlink:href="#m9a678fe480" x="411.466811" y="307.584" style="stroke: #000000; stroke-width: 0.6"/>
      </g>
     </g>
    </g>
    <g id="text_6">
     <!-- Frecventa (Hz) -->
     <g transform="translate(199.774062 335.860562) scale(0.1 -0.1)">
      <defs>
       <path id="DejaVuSans-46" d="M 628 4666 
L 3309 4666 
L 3309 4134 
L 1259 4134 
L 1259 2759 
L 3109 2759 
L 3109 2228 
L 1259 2228 
L 1259 0 
L 628 0 
L 628 4666 
z
" transform="scale(0.015625)"/>
       <path id="DejaVuSans-72" d="M 2631 2963 
Q 2534 3019 2420 3045 
Q 2306 3072 2169 3072 
Q 1681 3072 1420 2755 
Q 1159 2438 1159 1844 
L 1159 0 
L 581 0 
L 581 3500 
L 1159 3500 
L 1159 2956 
Q 1341 3275 1631 3429 
Q 1922 3584 2338 3584 
Q 2397 3584 2469 3576 
Q 2541 3569 2628 3553 
L 2631 2963 
z
" transform="scale(0.015625)"/>
       <path id="DejaVuSans-65" d="M 3597 1894 
L 3597 1613 
L 953 1613 
Q 991 1019 1311 708 
Q 1631 397 2203 397 
Q 2534 397 2845 478 
Q 3156 559 3463 722 
L 3463 178 
Q 3153 47 2828 -22 
Q 2503 -91 2169 -91 
Q 1331 -91 842 396 
Q 353 884 353 1716 
Q 353 2575 817 3079 
Q 1281 3584 2069 3584 
Q 2775 3584 3186 3129 
Q 3597 2675 3597 1894 
z
M 3022 2063 
Q 3016 2534 2758 2815 
Q 2500 3097 2075 3097 
Q 1594 3097 1305 2825 
Q 1016 2553 972 2059 
L 3022 2063 
z
" transform="scale(0.015625)"/>
       <path id="DejaVuSans-63" d="M 3122 3366 
L 3122 2828 
Q 2878 2963 2633 3030 
Q 2388 3097 2138 3097 
Q 1578 3097 1268 2742 
Q 959 2388 959 1747 
Q 959 1106 1268 751 
Q 1578 397 2138 397 
Q 2388 397 2633 464 
Q 2878 531 3122 666 
L 3122 134 
Q 2881 22 2623 -34 
Q 2366 -91 2075 -91 
Q 1284 -91 818 406 
Q 353 903 353 1747 
Q 353 2603 823 3093 
Q 1294 3584 2113 3584 
Q 2378 3584 2631 3529 
Q 2884 3475 3122 3366 
z
" transform="scale(0.015625)"/>
       <path id="DejaVuSans-76" d="M 191 3500 
L 800 3500 
L 1894 563 
L 2988 3500 
L 3597 3500 
L 2284 0 
L 1503 0 
L 191 3500 
z
" transform="scale(0.015625)"/>
       <path id="DejaVuSans-6e" d="M 3513 2113 
L 3513 0 
L 2938 0 
L 2938 2094 
Q 2938 2591 2744 2837 
Q 2550 3084 2163 3084 
Q 1697 3084 1428 2787 
Q 1159 2491 1159 1978 
L 1159 0 
L 581 0 
L 581 3500 
L 1159 3500 
L 1159 2956 
Q 1366 3272 1645 3428 
Q 1925 3584 2291 3584 
Q 2894 3584 3203 3211 
Q 3513 2838 3513 2113 
z
" transform="scale(0.015625)"/>
       <path id="DejaVuSans-74" d="M 1172 4494 
L 1172 3500 
L 2356 3500 
L 2356 3053 
L 1172 3053 
L 1172 1153 
Q 1172 725 1289 603 
Q 1406 481 1766 481 
L 2356 481 
L 2356 0 
L 1766 0 
Q 1100 0 847 248 
Q 594 497 594 1153 
L 594 3053 
L 172 3053 
L 172 3500 
L 594 3500 
L 594 4494 
L 1172 4494 
z
" transform="scale(0.015625)"/>
       <path id="DejaVuSans-61" d="M 2194 1759 
Q 1497 1759 1228 1600 
Q 959 1441 959 1056 
Q 959 750 1161 570 
Q 1363 391 1709 391 
Q 2188 391 2477 730 
Q 2766 1069 2766 1631 
L 2766 1759 
L 2194 1759 
z
M 3341 1997 
L 3341 0 
L 2766 0 
L 2766 531 
Q 2569 213 2275 61 
Q 1981 -91 1556 -91 
Q 1019 -91 701 211 
Q 384 513 384 1019 
Q 384 1609 779 1909 
Q 1175 2209 1959 2209 
L 2766 2209 
L 2766 2266 
Q 2766 2663 2505 2880 
Q 2244 3097 1772 3097 
Q 1472 3097 1187 3025 
Q 903 2953 641 2809 
L 641 3341 
Q 956 3463 1253 3523 
Q 1550 3584 1831 3584 
Q 2591 3584 2966 3190 
Q 3341 2797 3341 1997 
z
" transform="scale(0.015625)"/>
       <path id="DejaVuSans-20" transform="scale(0.015625)"/>
       <path id="DejaVuSans-28" d="M 1984 4856 
Q 1566 4138 1362 3434 
Q 1159 2731 1159 2009 
Q 1159 1288 1364 580 
Q 1569 -128 1984 -844 
L 1484 -844 
Q 1016 -109 783 600 
Q 550 1309 550 2009 
Q 550 2706 781 3412 
Q 1013 4119 1484 4856 
L 1984 4856 
z
" transform="scale(0.015625)"/>
       <path id="DejaVuSans-48" d="M 628 4666 
L 1259 4666 
L 1259 2753 
L 3553 2753 
L 3553 4666 
L 4184 4666 
L 4184 0 
L 3553 0 
L 3553 2222 
L 1259 2222 
L 1259 0 
L 628 0 
L 628 4666 
z
" transform="scale(0.015625)"/>
       <path id="DejaVuSans-7a" d="M 353 3500 
L 3084 3500 
L 3084 2975 
L 922 459 
L 3084 459 
L 3084 0 
L 275 0 
L 275 525 
L 2438 3041 
L 353 3041 
L 353 3500 
z
" transform="scale(0.015625)"/>
       <path id="DejaVuSans-29" d="M 513 4856 
L 1013 4856 
Q 1481 4119 1714 3412 
Q 1947 2706 1947 2009 
Q 1947 1309 1714 600 
Q 1481 -109 1013 -844 
L 513 -844 
Q 928 -128 1133 580 
Q 1338 1288 1338 2009 
Q 1338 2731 1133 3434 
Q 928 4138 513 4856 
z
" transform="scale(0.015625)"/>
      </defs>
      <use xlink:href="#DejaVuSans-46"/>
      <use xlink:href="#DejaVuSans-72" x="50.269531"/>
      <use xlink:href="#DejaVuSans-65" x="89.132812"/>
      <use xlink:href="#DejaVuSans-63" x="150.65625"/>
      <use xlink:href="#DejaVuSans-76" x="205.636719"/>
      <use xlink:href="#DejaVuSans-65" x="264.816406"/>
      <use xlink:href="#DejaVuSans-6e" x="326.339844"/>
      <use xlink:href="#DejaVuSans-74" x="389.71875"/>
      <use xlink:href="#DejaVuSans-61" x="428.927734"/>
      <use xlink:href="#DejaVuSans-20" x="490.207031"/>
      <use xlink:href="#DejaVuSans-28" x="521.994141"/>
      <use xlink:href="#DejaVuSans-48" x="561.007812"/>
      <use xlink:href="#DejaVuSans-7a" x="636.203125"/>
      <use xlink:href="#DejaVuSans-29" x="688.693359"/>
     </g>
    </g>
   </g>
   <g id="matplotlib.axis_2">
    <g id="ytick_1">
     <g id="line2d_39">
      <defs>
       <path id="mbe76405ce8" d="M 0 0 
L -3.5 0 
" style="stroke: #000000; stroke-width: 0.8"/>
      </defs>
      <g>
       <use xlink:href="#mbe76405ce8" x="57.6" y="295.488" style="stroke: #000000; stroke-width: 0.8"/>
      </g>
     </g>
     <g id="text_7">
      <!-- 0 -->
      <g transform="translate(44.2375 299.287219) scale(0.1 -0.1)">
       <use xlink:href="#DejaVuSans-30"/>
      </g>
     </g>
    </g>
    <g id="ytick_2">
     <g id="line2d_40">
      <g>
       <use xlink:href="#mbe76405ce8" x="57.6" y="259.301607" style="stroke: #000000; stroke-width: 0.8"/>
      </g>
     </g>
     <g id="text_8">
      <!-- 10 -->
      <g transform="translate(37.875 263.100825) scale(0.1 -0.1)">
       <use xlink:href="#DejaVuSans-31"/>
       <use xlink:href="#DejaVuSans-30" x="63.623047"/>
      </g>
     </g>
    </g>
    <g id="ytick_3">
     <g id="line2d_41">
      <g>
       <use xlink:href="#mbe76405ce8" x="57.6" y="223.115213" style="stroke: #000000; stroke-width: 0.8"/>
      </g>
     </g>
     <g id="text_9">
      <!-- 20 -->
      <g transform="translate(37.875 226.914432) scale(0.1 -0.1)">
       <defs>
        <path id="DejaVuSans-32" d="M 1228 531 
L 3431 531 
L 3431 0 
L 469 0 
L 469 531 
Q 828 903 1448 1529 
Q 2069 2156 2228 2338 
Q 2531 2678 2651 2914 
Q 2772 3150 2772 3378 
Q 2772 3750 2511 3984 
Q 2250 4219 1831 4219 
Q 1534 4219 1204 4116 
Q 875 4013 500 3803 
L 500 4441 
Q 881 4594 1212 4672 
Q 1544 4750 1819 4750 
Q 2544 4750 2975 4387 
Q 3406 4025 3406 3419 
Q 3406 3131 3298 2873 
Q 3191 2616 2906 2266 
Q 2828 2175 2409 1742 
Q 1991 1309 1228 531 
z
" transform="scale(0.015625)"/>
       </defs>
       <use xlink:href="#DejaVuSans-32"/>
       <use xlink:href="#DejaVuSans-30" x="63.623047"/>
      </g>
     </g>
    </g>
    <g id="ytick_4">
     <g id="line2d_42">
      <g>
       <use xlink:href="#mbe76405ce8" x="57.6" y="186.92882" style="stroke: #000000; stroke-width: 0.8"/>
      </g>
     </g>
     <g id="text_10">
      <!-- 30 -->
      <g transform="translate(37.875 190.728038) scale(0.1 -0.1)">
       <defs>
        <path id="DejaVuSans-33" d="M 2597 2516 
Q 3050 2419 3304 2112 
Q 3559 1806 3559 1356 
Q 3559 666 3084 287 
Q 2609 -91 1734 -91 
Q 1441 -91 1130 -33 
Q 819 25 488 141 
L 488 750 
Q 750 597 1062 519 
Q 1375 441 1716 441 
Q 2309 441 2620 675 
Q 2931 909 2931 1356 
Q 2931 1769 2642 2001 
Q 2353 2234 1838 2234 
L 1294 2234 
L 1294 2753 
L 1863 2753 
Q 2328 2753 2575 2939 
Q 2822 3125 2822 3475 
Q 2822 3834 2567 4026 
Q 2313 4219 1838 4219 
Q 1578 4219 1281 4162 
Q 984 4106 628 3988 
L 628 4550 
Q 988 4650 1302 4700 
Q 1616 4750 1894 4750 
Q 2613 4750 3031 4423 
Q 3450 4097 3450 3541 
Q 3450 3153 3228 2886 
Q 3006 2619 2597 2516 
z
" transform="scale(0.015625)"/>
       </defs>
       <use xlink:href="#DejaVuSans-33"/>
       <use xlink:href="#DejaVuSans-30" x="63.623047"/>
      </g>
     </g>
    </g>
    <g id="ytick_5">
     <g id="line2d_43">
      <g>
       <use xlink:href="#mbe76405ce8" x="57.6" y="150.742426" style="stroke: #000000; stroke-width: 0.8"/>
      </g>
     </g>
     <g id="text_11">
      <!-- 40 -->
      <g transform="translate(37.875 154.541645) scale(0.1 -0.1)">
       <use xlink:href="#DejaVuSans-34"/>
       <use xlink:href="#DejaVuSans-30" x="63.623047"/>
      </g>
     </g>
    </g>
    <g id="ytick_6">
     <g id="line2d_44">
      <g>
       <use xlink:href="#mbe76405ce8" x="57.6" y="114.556033" style="stroke: #000000; stroke-width: 0.8"/>
      </g>
     </g>
     <g id="text_12">
      <!-- 50 -->
      <g transform="translate(37.875 118.355251) scale(0.1 -0.1)">
       <use xlink:href="#DejaVuSans-35"/>
       <use xlink:href="#DejaVuSans-30" x="63.623047"/>
      </g>
     </g>
    </g>
    <g id="ytick_7">
     <g id="line2d_45">
      <g>
       <use xlink:href="#mbe76405ce8" x="57.6" y="78.369639" style="stroke: #000000; stroke-width: 0.8"/>
      </g>
     </g>
     <g id="text_13">
      <!-- 60 -->
      <g transform="translate(37.875 82.168858) scale(0.1 -0.1)">
       <use xlink:href="#DejaVuSans-36"/>
       <use xlink:href="#DejaVuSans-30" x="63.623047"/>
      </g>
     </g>
    </g>
    <g id="ytick_8">
     <g id="line2d_46">
      <g>
       <use xlink:href="#mbe76405ce8" x="57.6" y="42.183246" style="stroke: #000000; stroke-width: 0.8"/>
      </g>
     </g>
     <g id="text_14">
      <!-- 70 -->
      <g transform="translate(37.875 45.982464) scale(0.1 -0.1)">
       <use xlink:href="#DejaVuSans-37"/>
       <use xlink:href="#DejaVuSans-30" x="63.623047"/>
      </g>
     </g>
    </g>
    <g id="text_15">
     <!-- |X(ω)| -->
     <g transform="translate(31.517187 189.410031) rotate(-90) scale(0.1 -0.1)">
      <defs>
       <path id="DejaVuSans-7c" d="M 1344 4891 
L 1344 -1509 
L 813 -1509 
L 813 4891 
L 1344 4891 
z
" transform="scale(0.015625)"/>
       <path id="DejaVuSans-58" d="M 403 4666 
L 1081 4666 
L 2241 2931 
L 3406 4666 
L 4084 4666 
L 2584 2425 
L 4184 0 
L 3506 0 
L 2194 1984 
L 872 0 
L 191 0 
L 1856 2491 
L 403 4666 
z
" transform="scale(0.015625)"/>
       <path id="DejaVuSans-3c9" d="M 1719 -91 
Q 422 -91 422 1766 
Q 422 2500 906 3500 
L 1525 3500 
Q 1078 2500 1078 1750 
Q 1078 397 1772 397 
Q 2406 397 2406 2078 
L 2938 2078 
Q 2938 397 3572 397 
Q 4266 397 4266 1750 
Q 4266 2500 3819 3500 
L 4438 3500 
Q 4922 2500 4922 1766 
Q 4922 -91 3625 -91 
Q 2775 -91 2672 844 
Q 2544 -91 1719 -91 
z
" transform="scale(0.015625)"/>
      </defs>
      <use xlink:href="#DejaVuSans-7c"/>
      <use xlink:href="#DejaVuSans-58" x="33.691406"/>
      <use xlink:href="#DejaVuSans-28" x="102.197266"/>
      <use xlink:href="#DejaVuSans-3c9" x="141.210938"/>
      <use xlink:href="#DejaVuSans-29" x="224.951172"/>
      <use xlink:href="#DejaVuSans-7c" x="263.964844"/>
     </g>
    </g>
   </g>
   <g id="line2d_47">
    <path d="M -1 53.790621 
L 73.832727 53.568 
L 98.505428 168.042515 
L 112.938033 204.226218 
L 123.178129 231.357073 
L 131.120964 245.747941 
L 137.610733 254.180436 
L 143.097755 250.366539 
L 147.850829 253.508181 
L 152.043338 263.583001 
L 155.793665 266.859495 
L 159.186248 267.265889 
L 162.283434 277.353869 
L 165.132569 279.094379 
L 167.770456 271.42629 
L 170.22627 275.174617 
L 172.52353 277.356448 
L 174.681475 289.777167 
L 176.716039 286.094528 
L 178.640571 277.46635 
L 180.466366 276.991256 
L 182.20306 278.775738 
L 183.858949 284.017593 
L 185.441217 279.918777 
L 186.956135 275.440917 
L 188.409201 284.848653 
L 189.80527 283.636783 
L 191.148643 276.524714 
L 192.443156 285.500723 
L 193.692238 283.979397 
L 194.89897 291.081122 
L 196.06613 287.539562 
L 197.196231 284.997162 
L 198.291554 289.173764 
L 199.354175 285.733505 
L 200.385992 283.693239 
L 201.388739 281.316388 
L 202.364011 283.351465 
L 203.313272 279.164429 
L 204.237874 286.680949 
L 206.018004 281.371556 
L 206.875761 282.336532 
L 207.713333 286.454476 
L 208.53165 284.405157 
L 209.331575 291.49568 
L 210.879435 288.124697 
L 211.628835 287.867928 
L 212.362783 286.547926 
L 213.081902 282.051697 
L 213.78678 282.210915 
L 214.47797 283.927992 
L 215.155994 294.053667 
L 215.821344 293.658148 
L 216.474485 285.751177 
L 217.115857 289.225176 
L 217.745877 282.860309 
L 218.364939 289.31116 
L 218.973419 289.637916 
L 219.571671 285.490936 
L 220.160035 289.549491 
L 220.738831 291.036355 
L 221.308366 291.337662 
L 221.868931 291.839897 
L 222.420806 291.571855 
L 222.964254 292.304128 
L 223.49953 287.538048 
L 224.026876 285.891264 
L 224.546523 288.26296 
L 225.058693 286.468391 
L 225.563597 289.205477 
L 226.06144 288.103763 
L 226.552416 289.910251 
L 227.036712 287.386159 
L 228.451276 294.420836 
L 228.910575 291.385991 
L 229.364023 293.714349 
L 229.811767 293.074402 
L 230.253949 290.224194 
L 230.690705 288.596418 
L 231.122167 285.379754 
L 231.548462 289.564954 
L 231.969711 291.173712 
L 232.386034 290.488173 
L 232.797544 287.725586 
L 233.20435 292.311893 
L 233.60656 289.839407 
L 234.004276 284.954965 
L 234.397597 285.744182 
L 234.786619 290.150351 
L 235.171435 291.665907 
L 235.552136 290.022619 
L 235.928808 291.743649 
L 236.301536 289.105794 
L 236.670401 293.493805 
L 237.035483 292.162384 
L 237.396859 288.408419 
L 237.754603 288.72091 
L 238.108786 280.832729 
L 238.459481 286.441173 
L 238.806753 283.073145 
L 239.491297 281.1703 
L 239.828695 285.623259 
L 240.162924 279.951596 
L 240.494045 259.328359 
L 240.822113 226.732146 
L 241.147186 267.621914 
L 242.104962 288.747274 
L 242.418577 288.301707 
L 242.729454 285.989479 
L 243.03764 285.58301 
L 243.34318 285.468708 
L 243.646119 288.126832 
L 243.946502 292.25478 
L 244.244372 293.593022 
L 244.539769 292.025865 
L 244.832735 292.513922 
L 245.12331 290.18673 
L 245.697438 288.051095 
L 245.981066 294.844492 
L 246.541632 286.766554 
L 246.818639 288.09315 
L 247.093506 288.352373 
L 247.366268 291.898572 
L 247.636955 290.504448 
L 247.905599 287.871558 
L 248.172231 290.947422 
L 248.43688 292.352447 
L 248.699577 292.959498 
L 248.960348 292.450519 
L 249.219224 292.577088 
L 249.47623 293.782937 
L 249.984741 290.496706 
L 250.236298 292.618815 
L 250.48609 291.731931 
L 250.734141 294.06277 
L 250.980475 290.213139 
L 251.225117 292.89574 
L 251.468088 293.897158 
L 251.709412 292.163063 
L 251.949111 294.248539 
L 252.423721 290.573879 
L 252.658673 291.398249 
L 252.892085 294.37546 
L 253.123977 290.90535 
L 253.354367 294.901102 
L 253.583276 290.572905 
L 253.810722 293.443068 
L 254.036724 287.115676 
L 254.2613 292.333206 
L 254.484468 288.051397 
L 255.145698 294.690562 
L 255.363406 291.418387 
L 255.57979 292.567549 
L 255.794868 291.922467 
L 256.008653 290.901372 
L 256.221162 291.127827 
L 256.43241 293.063509 
L 256.851182 292.43955 
L 257.058735 292.259342 
L 257.265084 293.123707 
L 257.470244 290.080161 
L 257.674229 290.75333 
L 257.877051 294.433553 
L 258.279261 288.482287 
L 258.676976 292.304924 
L 258.87418 289.57841 
L 259.45932 294.687468 
L 259.652248 294.321748 
L 259.844136 290.950616 
L 260.034995 291.182783 
L 260.224837 293.000395 
L 260.413671 293.073251 
L 260.601509 289.659277 
L 260.788361 288.587574 
L 260.974237 286.472457 
L 261.159147 291.421777 
L 261.343102 291.222198 
L 261.526111 292.655562 
L 261.708184 291.190946 
L 261.88933 293.581811 
L 262.06956 293.595861 
L 262.427303 290.882192 
L 262.781487 295.032363 
L 262.957266 293.624742 
L 263.132181 290.513821 
L 263.479454 292.260023 
L 263.651828 292.315943 
L 263.823372 295.380348 
L 264.333097 288.951179 
L 264.501396 291.028664 
L 264.668903 286.737059 
L 264.835625 288.886772 
L 265.166746 286.06929 
L 265.494814 264.766341 
L 265.657721 289.566279 
L 265.981316 294.34187 
L 266.142017 293.244581 
L 266.301996 291.184579 
L 266.461258 292.839324 
L 266.619812 289.523207 
L 266.777662 292.916731 
L 266.934816 286.571088 
L 267.091278 290.475729 
L 267.247056 289.744201 
L 267.402155 291.669262 
L 267.71034 289.409754 
L 268.01588 293.546017 
L 268.167672 289.774702 
L 268.31882 289.739346 
L 268.469328 287.004927 
L 268.619203 292.459636 
L 268.768449 293.490355 
L 268.917072 290.720807 
L 269.065078 293.926418 
L 269.21247 289.606215 
L 269.359254 292.686336 
L 269.505436 292.900343 
L 269.65102 290.451609 
L 269.79601 293.820111 
L 269.940413 292.420726 
L 270.084232 293.85057 
L 270.227472 290.622755 
L 270.370139 291.969686 
L 270.512235 294.472657 
L 270.794738 290.576286 
L 271.075017 294.535959 
L 271.214333 293.683562 
L 271.49134 290.955654 
L 271.629039 291.30148 
L 271.766207 291.964339 
L 271.902849 291.070916 
L 272.038969 291.717285 
L 272.309656 293.172119 
L 272.444231 289.574501 
L 272.5783 291.777379 
L 272.844932 285.942005 
L 273.109581 291.45599 
L 273.241172 291.252584 
L 273.372277 294.337024 
L 273.502902 291.716804 
L 273.633049 293.503165 
L 273.762722 290.113966 
L 273.891924 291.293825 
L 274.020659 291.263739 
L 274.14893 290.984804 
L 274.276741 291.811727 
L 274.404094 293.595608 
L 274.530993 292.840644 
L 274.783442 294.507533 
L 274.908999 292.137973 
L 275.034114 292.698088 
L 275.15879 291.251472 
L 275.283032 291.448654 
L 275.530222 293.742982 
L 275.653176 291.627947 
L 275.775707 294.012353 
L 275.897817 290.855782 
L 276.01951 291.584141 
L 276.382113 289.488201 
L 276.502164 293.593126 
L 276.621812 293.361524 
L 276.741059 293.58194 
L 276.859908 293.072612 
L 276.978361 293.802513 
L 277.096422 293.454813 
L 277.214092 291.768524 
L 277.331374 294.338453 
L 277.448271 292.346056 
L 277.564786 294.138994 
L 277.796677 291.725148 
L 277.912059 292.768159 
L 278.027068 292.521379 
L 278.141706 295.137635 
L 278.255976 291.820799 
L 278.369881 293.403414 
L 278.596603 291.813472 
L 278.709424 293.670544 
L 278.934 290.488804 
L 279.045759 293.795848 
L 279.26823 293.434155 
L 279.378946 293.534378 
L 279.489319 291.977212 
L 279.59935 294.448887 
L 279.927419 280.716709 
L 280.144463 292.005883 
L 280.252491 291.985192 
L 280.360192 291.29237 
L 280.574622 294.872531 
L 280.681354 293.362256 
L 280.787767 293.454495 
L 280.893863 293.373262 
L 280.999644 293.483676 
L 281.105111 292.314924 
L 281.210267 294.787979 
L 281.419651 291.549059 
L 281.523883 294.285616 
L 281.62781 293.605981 
L 281.731436 294.423575 
L 281.83476 293.03743 
L 281.937785 294.875347 
L 282.142945 293.739876 
L 282.245083 294.545051 
L 282.34693 294.132814 
L 282.448485 292.659013 
L 282.549752 293.991499 
L 282.650731 293.764426 
L 282.851834 294.967092 
L 283.151375 292.776878 
L 283.349677 294.476068 
L 283.448416 294.650876 
L 283.645074 293.013856 
L 283.742998 294.689627 
L 283.938041 292.769885 
L 284.035163 294.809048 
L 284.324949 291.089564 
L 284.421022 293.460896 
L 284.516837 293.3633 
L 284.612394 293.330466 
L 284.802743 294.570045 
L 284.897538 292.585047 
L 285.086372 294.486538 
L 285.180415 294.37737 
L 285.27421 294.157981 
L 285.367758 293.566791 
L 285.554121 294.286878 
L 285.646938 293.761605 
L 285.739513 294.7026 
L 285.831848 292.064713 
L 286.015803 294.401253 
L 286.107425 292.758979 
L 286.198812 294.168956 
L 286.289965 293.121395 
L 286.380885 293.981699 
L 286.471573 293.933614 
L 286.562031 294.547109 
L 286.74226 291.999364 
L 286.832034 291.966644 
L 287.010905 294.225242 
L 287.100004 293.821124 
L 287.188881 293.887091 
L 287.277536 294.613774 
L 287.365972 291.908966 
L 287.454188 293.872012 
L 287.542186 292.562745 
L 287.629967 293.4369 
L 287.804882 291.916437 
L 287.892018 294.592034 
L 287.978942 292.018232 
L 288.065654 294.294762 
L 288.152155 293.59531 
L 288.238446 294.961862 
L 288.410404 292.495791 
L 288.496072 294.202501 
L 288.581535 293.307916 
L 288.751847 294.777765 
L 288.921348 293.704602 
L 289.005797 295.15984 
L 289.174096 292.345432 
L 289.257948 292.363325 
L 289.508326 295.158766 
L 289.591395 294.375589 
L 289.674271 292.454707 
L 289.756954 292.500516 
L 289.921747 294.187487 
L 290.085781 286.536284 
L 290.249062 290.405439 
L 290.411597 292.426375 
L 290.492587 291.045495 
L 290.573394 294.137705 
L 290.654017 290.419108 
L 290.734458 295.042943 
L 290.814718 291.569179 
L 290.894797 294.506294 
L 290.974696 290.869038 
L 291.054417 291.894866 
L 291.133959 293.617917 
L 291.213324 293.596258 
L 291.292513 292.698951 
L 291.371525 294.196187 
L 291.450363 293.772539 
L 291.529026 293.169116 
L 291.685834 294.166364 
L 291.763979 292.82401 
L 291.841953 294.098878 
L 291.919757 293.814071 
L 291.997391 294.570409 
L 292.152153 292.722091 
L 292.229282 294.404755 
L 292.383041 292.009593 
L 292.459672 293.928999 
L 292.536139 293.528089 
L 292.612442 294.47102 
L 292.688581 294.109337 
L 292.764558 294.493146 
L 292.840373 293.93091 
L 292.916027 295.058621 
L 292.991521 293.996735 
L 293.066854 294.624029 
L 293.217045 293.541509 
L 293.291904 293.639429 
L 293.366605 295.050998 
L 293.44115 292.750767 
L 293.515539 293.700513 
L 293.589773 295.143056 
L 293.737778 293.321626 
L 293.811551 294.745824 
L 293.88517 293.756841 
L 293.958638 294.884088 
L 294.178137 292.671534 
L 294.32372 293.929572 
L 294.39629 294.132703 
L 294.468711 293.2619 
L 294.540986 294.287033 
L 294.613114 292.238154 
L 294.685096 294.644324 
L 294.756933 292.654372 
L 294.828625 292.967763 
L 294.900173 292.641804 
L 295.042839 294.851833 
L 295.113959 294.821276 
L 295.184936 293.71621 
L 295.255772 293.872005 
L 295.326468 293.321987 
L 295.397023 293.807445 
L 295.467439 295.113385 
L 295.537716 294.401415 
L 295.607854 294.606416 
L 295.747718 294.110225 
L 295.817444 294.295199 
L 295.887034 294.028315 
L 295.956488 294.717933 
L 296.09499 292.802467 
L 296.232956 293.929606 
L 296.301739 295.334338 
L 296.37039 295.233553 
L 296.507294 291.654046 
L 296.643675 295.015268 
L 296.711669 293.253384 
L 296.779534 293.326537 
L 296.84727 293.702238 
L 296.914877 295.05826 
L 296.982356 294.243216 
L 297.049708 294.795603 
L 297.116932 292.651053 
L 297.184029 293.645274 
L 297.251001 293.416533 
L 297.317846 292.633437 
L 297.384566 293.535413 
L 297.451161 292.752554 
L 297.517632 295.333987 
L 297.583979 292.951339 
L 297.650203 293.544118 
L 297.782282 294.152067 
L 297.848138 293.953306 
L 297.979485 292.12015 
L 298.11035 278.621506 
L 298.240736 290.796487 
L 298.30575 290.444176 
L 298.370645 290.657133 
L 298.435423 293.639356 
L 298.500082 290.719074 
L 298.564625 293.934298 
L 298.629051 292.241983 
L 298.69336 294.340141 
L 298.757553 290.941527 
L 298.821631 292.123227 
L 298.885594 293.113046 
L 298.949442 291.651476 
L 299.076795 294.987634 
L 299.140301 292.739935 
L 299.203694 294.956274 
L 299.330142 291.005799 
L 299.518977 294.590551 
L 299.581699 293.539749 
L 299.644312 291.367617 
L 299.706814 293.116484 
L 299.769207 292.666889 
L 300.017691 294.615187 
L 300.141286 293.831033 
L 300.202923 294.958908 
L 300.387195 292.544121 
L 300.448408 294.008142 
L 300.509515 293.2314 
L 300.570518 292.901732 
L 300.631417 294.496334 
L 300.692211 293.935296 
L 300.752902 293.095878 
L 300.81349 293.385761 
L 300.934356 294.280976 
L 300.994636 294.731766 
L 301.054814 294.713782 
L 301.11489 294.486223 
L 301.174865 294.938125 
L 301.354186 293.382702 
L 301.473234 295.244579 
L 301.651062 292.181724 
L 301.710141 293.519143 
L 301.769122 292.295033 
L 301.828006 293.379749 
L 301.886792 292.987383 
L 302.004075 294.387051 
L 302.062571 293.236779 
L 302.120972 293.311855 
L 302.237487 294.393596 
L 302.353621 293.833154 
L 302.411547 294.87611 
L 302.469378 294.701956 
L 302.527116 294.869886 
L 302.58476 294.587389 
L 302.64231 294.99264 
L 302.699768 294.751909 
L 302.871588 293.454005 
L 303.042582 294.863324 
L 303.156123 294.088478 
L 303.212758 294.711595 
L 303.382125 292.341409 
L 303.438402 290.424304 
L 303.49459 290.900382 
L 303.71846 294.249019 
L 303.774208 294.812831 
L 303.829869 294.590898 
L 303.885443 294.458334 
L 303.940931 293.091419 
L 303.996332 294.167407 
L 304.162019 292.289429 
L 304.217078 293.970136 
L 304.272051 293.038972 
L 304.381743 290.145604 
L 304.436463 287.601564 
L 304.491099 289.372821 
L 304.545651 271.456063 
L 304.600119 281.643203 
L 304.763027 291.423846 
L 304.817164 293.420556 
L 304.871219 291.760589 
L 304.925192 292.129966 
L 304.979083 290.215635 
L 305.032893 292.908884 
L 305.086622 292.478075 
L 305.140269 292.3307 
L 305.193836 293.781238 
L 305.247322 293.111846 
L 305.300729 293.235688 
L 305.460468 294.006463 
L 305.672345 292.76517 
L 305.725117 293.627994 
L 305.777812 292.841985 
L 305.882968 292.795201 
L 305.935429 294.041745 
L 305.987814 293.616227 
L 306.040121 295.089079 
L 306.092352 293.485011 
L 306.144506 294.863182 
L 306.196584 293.138048 
L 306.248585 293.924039 
L 306.300511 294.918452 
L 306.352361 294.13061 
L 306.507461 292.552838 
L 306.55901 293.658822 
L 306.610486 293.027638 
L 306.764467 294.473535 
L 306.815646 293.355822 
L 306.866752 293.573446 
L 306.917784 294.955929 
L 306.968744 294.012014 
L 307.01963 293.294434 
L 307.121186 294.610336 
L 307.272978 293.080338 
L 307.323432 292.158958 
L 307.424125 294.818692 
L 307.474366 293.871331 
L 307.524535 293.885188 
L 307.574634 294.610881 
L 307.67462 291.388167 
L 307.724508 292.058443 
L 307.774327 291.695845 
L 307.873755 293.453171 
L 308.022378 292.448684 
L 308.121116 293.851699 
L 308.219581 292.024222 
L 308.268712 293.503201 
L 308.317775 293.341184 
L 308.366771 292.671629 
L 308.415699 294.9739 
L 308.46456 294.378737 
L 308.610741 292.310205 
L 308.659335 293.551637 
L 308.707863 292.782343 
L 308.804721 290.542512 
L 308.853051 291.0418 
L 308.997649 289.517 
L 309.045718 289.63708 
L 309.237348 294.000896 
L 309.427952 291.404013 
L 309.711958 285.140742 
L 309.759073 285.518909 
L 309.993715 253.550124 
L 310.040459 197.415556 
L 310.087141 244.993598 
L 310.27326 285.25953 
L 310.504549 292.422443 
L 310.550627 289.306183 
L 310.596645 290.97962 
L 310.734344 292.47621 
L 310.780126 288.982572 
L 310.871513 289.777949 
L 310.917118 289.52629 
L 310.962665 292.526481 
L 311.053586 292.395551 
L 311.098959 292.274061 
L 311.144274 291.090949 
L 311.279875 293.491936 
L 311.414961 294.900557 
L 311.504735 292.540012 
L 311.549537 293.148494 
L 311.594282 293.970009 
L 311.638972 292.470836 
L 311.728183 292.869511 
L 311.772705 292.80597 
L 311.905937 294.324186 
L 311.950237 293.34409 
L 312.038672 293.202589 
L 312.214886 295.294041 
L 312.258804 293.711593 
L 312.346477 293.891928 
L 312.433934 293.402111 
L 312.477583 295.324022 
L 312.521178 293.033328 
L 312.564719 294.891029 
L 312.608207 293.366139 
L 312.651643 293.729729 
L 312.738354 295.319094 
L 312.781631 294.44707 
L 312.868027 294.850983 
L 312.954214 293.512637 
L 312.99723 294.268777 
L 313.040193 295.188234 
L 313.168773 293.241235 
L 313.29689 294.803376 
L 313.339494 293.064437 
L 313.382046 294.692846 
L 313.424548 295.221168 
L 313.551749 293.154995 
L 313.594049 293.253104 
L 313.636299 294.804944 
L 313.678498 293.750037 
L 313.720647 292.964586 
L 313.762747 293.152896 
L 313.846797 295.015258 
L 313.888748 294.739879 
L 313.930649 293.881537 
L 313.972501 295.196229 
L 314.014304 294.272516 
L 314.056058 294.589465 
L 314.222585 293.120856 
L 314.305558 294.009737 
L 314.346972 292.320925 
L 314.388337 292.462668 
L 314.429655 293.712669 
L 314.470925 292.694644 
L 314.553321 292.713079 
L 314.594448 290.993158 
L 314.676559 293.10154 
L 314.717544 291.56456 
L 314.799372 279.388534 
L 314.840215 287.435764 
L 315.043733 294.825042 
L 315.084298 294.737472 
L 315.165288 292.2128 
L 315.205714 293.337298 
L 315.366961 294.80134 
L 315.447311 293.479923 
L 315.487418 293.978438 
L 315.527481 293.961215 
L 315.567498 295.232919 
L 315.647397 294.358694 
L 315.68728 292.716971 
L 315.727118 293.948098 
L 315.766911 295.201952 
L 315.80666 294.621546 
L 315.965213 293.795179 
L 316.083667 295.32576 
L 316.201727 294.290689 
L 316.240994 295.047879 
L 316.280217 294.762785 
L 316.319397 293.888663 
L 316.358534 294.899265 
L 316.397628 294.93068 
L 316.475688 293.610232 
L 316.514654 294.966674 
L 316.592457 294.951807 
L 316.708845 293.171883 
L 316.747556 293.36426 
L 316.978945 295.194422 
L 317.017364 293.668741 
L 317.094078 294.540582 
L 317.132373 294.449525 
L 317.170627 295.035793 
L 317.20884 293.423085 
L 317.247011 295.335082 
L 317.285142 293.849107 
L 317.361282 293.513121 
L 317.39929 295.263111 
L 317.550921 294.339234 
L 317.588728 294.150493 
L 317.626495 294.69008 
L 317.664221 293.501825 
L 317.739555 294.119505 
L 317.81473 293.821325 
L 317.852258 295.146698 
L 317.927195 294.055276 
L 317.964604 294.84535 
L 318.001975 294.344671 
L 318.076598 293.197636 
L 318.151065 293.227815 
L 318.225376 294.69281 
L 318.299533 294.336293 
L 318.336553 293.611707 
L 318.373535 294.021991 
L 318.447384 294.692957 
L 318.484251 294.64439 
L 318.52108 293.847263 
L 318.594624 294.508903 
L 318.668016 294.481334 
L 318.741257 294.963048 
L 318.777822 294.901802 
L 318.887289 293.097193 
L 318.923704 294.733983 
L 318.996421 286.451279 
L 319.032724 291.878014 
L 319.105219 293.795832 
L 319.177567 293.030534 
L 319.285814 295.301075 
L 319.321824 292.98316 
L 319.393733 293.09464 
L 319.501326 295.093367 
L 319.71554 293.188397 
L 319.751118 294.84714 
L 319.822166 294.226778 
L 319.857637 293.820194 
L 319.893073 294.112424 
L 319.928473 295.203694 
L 319.999169 294.070857 
L 320.034464 293.908326 
L 320.069724 295.265069 
L 320.14014 294.76171 
L 320.210417 293.782632 
L 320.245503 294.101171 
L 320.280555 295.033252 
L 320.315572 294.315551 
L 320.350555 293.358844 
L 320.385504 294.347039 
L 320.420418 293.548616 
L 320.455298 293.964584 
L 320.490144 292.556484 
L 320.559734 294.121994 
L 320.594478 294.537209 
L 320.698507 293.539767 
L 320.733116 294.969196 
L 320.802233 294.53767 
L 320.905657 293.625047 
L 320.97444 295.451422 
L 321.077366 294.933008 
L 321.145818 293.266616 
L 321.179995 294.718288 
L 321.214139 294.298579 
L 321.248251 294.750645 
L 321.282329 295.008223 
L 321.350389 293.843225 
L 321.38437 294.603455 
L 321.418319 294.791565 
L 321.452235 294.501598 
L 321.486119 294.357943 
L 321.621334 295.078187 
L 321.722408 294.462606 
L 321.756036 294.794466 
L 321.789633 294.336256 
L 321.823197 294.031452 
L 321.890231 295.025835 
L 321.923701 294.7482 
L 322.023922 293.76962 
L 322.057267 293.778791 
L 322.123862 293.637893 
L 322.157113 295.113584 
L 322.190333 293.665179 
L 322.25668 294.387931 
L 322.289807 294.947463 
L 322.322904 294.919107 
L 322.389004 295.02217 
L 322.487926 293.382584 
L 322.586573 294.773804 
L 322.619395 293.912253 
L 322.652186 293.697327 
L 322.684948 294.21939 
L 322.717679 293.959572 
L 322.75038 291.488999 
L 322.815692 294.624945 
L 322.848303 294.68814 
L 322.913436 293.275187 
L 322.945958 295.084971 
L 322.97845 293.314029 
L 323.043346 295.425737 
L 323.108123 294.117939 
L 323.172783 293.537834 
L 323.269553 294.616973 
L 323.301751 294.298345 
L 323.430254 294.838508 
L 323.462307 294.617242 
L 323.526327 295.213744 
L 323.590233 294.079304 
L 323.654023 294.041532 
L 323.7177 295.005113 
L 323.781263 292.05974 
L 323.813002 295.030436 
L 323.844712 292.937316 
L 323.876395 294.986268 
L 323.971273 294.578688 
L 324.002843 294.90141 
L 324.034385 294.634332 
L 324.128844 294.690071 
L 324.160274 293.389744 
L 324.2544 295.221795 
L 324.317013 294.830572 
L 324.379515 294.941162 
L 324.410725 294.8113 
L 324.473064 294.552046 
L 324.504192 294.766772 
L 324.566367 295.34343 
L 324.628433 294.425049 
L 324.690392 294.536411 
L 324.721331 295.344147 
L 324.783128 294.396586 
L 324.844818 294.886396 
L 324.875623 293.614694 
L 324.937153 294.626863 
L 324.967879 295.1312 
L 324.998577 294.298996 
L 325.02925 294.134987 
L 325.090515 294.961974 
L 325.121108 294.395306 
L 325.151675 293.465259 
L 325.21273 294.32552 
L 325.243219 294.322337 
L 325.304117 293.505574 
L 325.39527 295.230374 
L 325.48619 293.221011 
L 325.516445 294.272478 
L 325.546675 294.246703 
L 325.576879 295.091936 
L 325.607057 294.199246 
L 325.637209 294.94141 
L 325.667337 293.698215 
L 325.727514 294.713928 
L 325.757565 294.874413 
L 325.787591 294.59294 
L 325.847566 293.691145 
L 325.90744 294.163447 
L 325.967214 294.933561 
L 325.997063 294.734126 
L 326.11621 291.000755 
L 326.145934 291.009501 
L 326.294186 294.790163 
L 326.323763 294.666199 
L 326.353314 294.616808 
L 326.412345 295.262879 
L 326.441823 293.510766 
L 326.530112 294.242032 
L 326.559493 294.721802 
L 326.618183 293.99445 
L 326.647491 294.417341 
L 326.706036 295.266554 
L 326.735272 294.327488 
L 326.851978 295.02718 
L 326.793673 294.191041 
L 326.881095 294.538729 
L 326.910187 294.577108 
L 327.055296 293.636241 
L 327.142079 295.340589 
L 327.199816 294.994112 
L 327.22865 294.060497 
L 327.25746 295.210298 
L 327.315011 294.686046 
L 327.372469 295.169133 
L 327.401163 294.062824 
L 327.458482 293.844369 
L 327.515709 295.367303 
L 327.572845 293.120491 
L 327.658376 293.973453 
L 327.68684 295.065909 
L 327.772098 294.900176 
L 327.800472 294.410253 
L 327.857153 295.098901 
L 327.885459 294.728558 
L 327.913743 294.657492 
L 327.942004 294.814362 
L 327.970243 295.007274 
L 327.99846 294.201261 
L 328.054826 295.291407 
L 328.082975 294.88514 
L 328.111103 295.226774 
L 328.139208 294.899392 
L 328.195352 293.822431 
L 328.22339 294.737348 
L 328.251407 295.057142 
L 328.279402 294.369554 
L 328.307374 294.827851 
L 328.446909 294.145877 
L 328.47475 295.196898 
L 328.530368 294.787416 
L 328.613631 293.907666 
L 328.585898 295.285633 
L 328.641343 294.470879 
L 328.696701 293.795213 
L 328.724347 293.971202 
L 328.86226 294.875943 
L 328.889778 294.921632 
L 328.917276 293.730909 
L 328.972206 295.036667 
L 328.99964 294.74848 
L 329.027053 294.061158 
L 329.054444 295.138911 
L 329.136492 294.090415 
L 329.1638 294.551452 
L 329.191086 294.360117 
L 329.218352 290.936597 
L 329.300023 293.334532 
L 329.327205 294.672392 
L 329.408628 293.511537 
L 329.516902 295.298083 
L 329.597893 293.355419 
L 329.624848 293.681761 
L 329.651784 294.89686 
L 329.732468 294.859619 
L 329.759322 293.296224 
L 329.786156 295.00178 
L 329.839763 294.479939 
L 329.920023 294.315474 
L 329.973429 293.914927 
L 330.053389 295.190103 
L 330.106595 293.381966 
L 330.159722 294.258764 
L 330.21277 294.731262 
L 330.239265 294.563044 
L 330.345045 293.214083 
L 330.292194 294.949507 
L 330.371441 293.46859 
L 330.397818 294.853569 
L 330.476831 294.553646 
L 330.529408 294.369589 
L 330.555668 294.112952 
L 330.581909 295.027329 
L 330.660514 294.881146 
L 330.817206 292.713605 
L 330.947258 295.033312 
L 331.050959 294.048973 
L 331.076837 295.318515 
L 331.102696 293.967994 
L 331.180161 295.257024 
L 331.283186 294.087239 
L 331.308896 295.306975 
L 331.385914 294.763193 
L 331.41155 294.661031 
L 331.564978 293.133216 
L 331.590485 292.770256 
L 331.615974 295.315473 
L 331.717747 294.398586 
L 331.743145 293.752891 
L 331.793886 294.177207 
L 331.81923 295.109702 
L 331.895153 294.561567 
L 331.920425 294.252416 
L 331.945679 294.296803 
L 331.970914 295.060313 
L 332.021332 293.468225 
L 332.071679 289.98742 
L 332.121955 293.628793 
L 332.222294 294.97036 
L 332.197236 293.473832 
L 332.297363 294.58758 
L 332.322351 293.929793 
L 332.372274 294.396642 
L 332.397209 294.981955 
L 332.47191 294.459768 
L 332.496776 294.619572 
L 332.546455 293.24521 
L 332.596065 293.97114 
L 332.695078 294.694625 
L 332.719789 293.295013 
L 332.769158 294.750656 
L 332.818459 293.725914 
L 332.990476 295.312796 
L 333.039471 294.435692 
L 333.088399 294.616859 
L 333.112838 295.322282 
L 333.13726 294.276545 
L 333.210426 295.058421 
L 333.332036 293.657332 
L 333.429026 295.281267 
L 333.453232 295.202692 
L 333.501595 293.503797 
L 333.574017 294.469346 
L 333.694393 295.326345 
L 333.742429 293.983001 
L 333.838309 294.079747 
L 333.862238 293.774705 
L 333.886152 294.324983 
L 333.93393 295.173494 
L 334.005479 294.829126 
L 334.053098 294.891609 
L 334.148145 292.510881 
L 334.219264 294.249388 
L 334.242939 293.313338 
L 334.313869 291.980921 
L 334.290242 294.416128 
L 334.337481 293.293335 
L 334.384659 294.847352 
L 334.455307 293.877394 
L 334.478826 293.907214 
L 334.502329 293.702895 
L 334.689796 276.297456 
L 334.71316 251.24137 
L 334.78316 287.009422 
L 335.015505 294.030652 
L 335.061793 292.519487 
L 335.084914 294.07733 
L 335.10802 293.661016 
L 335.131112 294.637733 
L 335.154188 291.542424 
L 335.177249 292.266006 
L 335.200296 292.1997 
L 335.223327 293.45016 
L 335.269346 291.89262 
L 335.315305 292.832991 
L 335.338262 291.533887 
L 335.361204 293.503445 
L 335.384132 292.923437 
L 335.429943 295.173799 
L 335.521389 294.190363 
L 335.6126 293.327246 
L 335.589819 294.256647 
L 335.635366 293.359859 
L 335.658118 292.604819 
L 335.703578 294.514267 
L 335.726286 293.59056 
L 335.74898 294.354882 
L 335.794324 292.551776 
L 335.816975 293.197398 
L 335.88484 292.595959 
L 335.862232 293.663754 
L 335.907433 292.910863 
L 335.930011 293.940532 
L 335.997661 293.764548 
L 336.020183 292.633598 
L 336.087662 294.391203 
L 336.110126 294.317537 
L 336.199843 295.080012 
L 336.244617 294.994847 
L 336.333996 295.337772 
L 336.400883 293.210531 
L 336.489871 295.017787 
L 336.556467 294.827299 
L 336.622938 295.388717 
L 336.689285 293.770679 
L 336.711373 294.630729 
L 336.733448 293.353112 
L 336.777556 293.958697 
L 336.843615 292.983289 
L 336.865608 293.054771 
L 336.887587 294.853614 
L 336.975368 294.493699 
L 336.99728 293.679011 
L 337.041062 295.109662 
L 337.084791 294.349065 
L 337.106635 295.061608 
L 337.150283 293.574296 
L 337.172088 290.963342 
L 337.23742 294.622502 
L 337.302632 293.163528 
L 337.367726 294.020314 
L 337.389397 295.218521 
L 337.475951 294.006496 
L 337.497556 293.675828 
L 337.519149 294.524815 
L 337.540728 294.124033 
L 337.562294 295.075536 
L 337.626915 293.754665 
L 337.648429 293.080265 
L 337.712894 294.466995 
L 337.777242 294.825426 
L 337.798665 294.196137 
L 337.884231 294.635467 
L 337.90559 294.530698 
L 337.926936 294.950358 
L 337.94827 295.259262 
L 337.969591 294.287961 
L 338.033477 294.94629 
L 338.076004 295.013678 
L 338.097249 294.488651 
L 338.11848 295.256377 
L 338.1397 293.647767 
L 338.203281 295.130784 
L 338.26675 293.881379 
L 338.308999 294.264775 
L 338.414404 295.013598 
L 338.456479 293.539524 
L 338.540479 294.323375 
L 338.561448 294.966287 
L 338.582405 293.786007 
L 338.624282 294.167262 
L 338.645202 293.748159 
L 338.666109 294.921122 
L 338.707888 294.00823 
L 338.83293 294.984764 
L 338.916047 294.264898 
L 338.957534 294.49876 
L 338.978259 295.163319 
L 339.040361 294.240636 
L 339.061038 293.36926 
L 339.081703 295.05193 
L 339.122997 294.164194 
L 339.267149 295.345829 
L 339.369758 292.760342 
L 339.390245 294.604094 
L 339.451633 292.138305 
L 339.4925 294.617858 
L 339.512916 295.258874 
L 339.53332 294.090714 
L 339.553713 294.672276 
L 339.574094 293.664094 
L 339.594463 295.029201 
L 339.675823 293.785445 
L 339.777263 295.02212 
L 339.797517 294.229378 
L 339.837989 294.711329 
L 339.858207 294.127036 
L 339.878415 294.5681 
L 339.898611 293.682933 
L 339.959129 294.912041 
L 339.97928 294.109001 
L 339.999418 295.300457 
L 340.059766 293.927076 
L 340.099941 294.763914 
L 340.120012 293.876172 
L 340.200181 294.799391 
L 340.240198 295.32467 
L 340.28017 294.978327 
L 340.340045 293.58596 
L 340.35998 295.218477 
L 340.379905 294.710713 
L 340.399818 294.950913 
L 340.439612 294.241257 
L 340.459492 294.390122 
L 340.499218 293.920639 
L 340.519065 295.392648 
L 340.598342 294.100629 
L 340.657684 293.096127 
L 340.637914 294.210261 
L 340.677442 293.856212 
L 340.716927 295.108275 
L 340.756367 293.90983 
L 340.776071 293.389342 
L 340.795764 295.07592 
L 340.835118 294.65414 
L 340.854778 294.28151 
L 340.894066 295.21029 
L 340.913694 295.104598 
L 340.992098 294.471494 
L 340.972513 295.142735 
L 341.050787 294.854579 
L 341.070329 295.185661 
L 341.12889 294.762592 
L 341.187354 294.231042 
L 341.167877 295.147015 
L 341.226278 294.800135 
L 341.265158 294.111572 
L 341.323399 295.443544 
L 341.381546 293.613634 
L 341.439597 294.906997 
L 341.458927 293.935582 
L 341.478246 294.938968 
L 341.555417 294.664893 
L 341.651646 293.244287 
L 341.59394 294.683356 
L 341.670861 294.030328 
L 341.785931 295.185561 
L 341.709259 293.963289 
L 341.805074 294.972306 
L 341.88154 294.212891 
L 341.862439 295.192326 
L 341.919712 294.857562 
L 341.938783 294.504005 
L 341.995933 295.391608 
L 342.033982 295.204236 
L 342.128928 293.880958 
L 342.185775 294.204084 
L 342.280317 295.326668 
L 342.299195 294.88444 
L 342.336922 294.312236 
L 342.393437 295.19646 
L 342.412256 295.276196 
L 342.431064 294.933555 
L 342.468652 294.210259 
L 342.524958 294.376947 
L 342.618605 295.213895 
L 342.599896 293.833107 
L 342.637305 294.436734 
L 342.655995 294.43779 
L 342.674675 294.24658 
L 342.730657 294.434609 
L 342.786551 295.40208 
L 342.842358 294.506546 
L 342.91663 293.529577 
L 342.935174 294.516959 
L 342.972233 294.942476 
L 342.990749 294.8543 
L 343.009254 293.987883 
L 343.08318 294.876534 
L 343.101637 294.304342 
L 343.120085 294.358082 
L 343.212181 295.229472 
L 343.248953 294.961616 
L 343.340717 294.387093 
L 343.322383 295.069119 
L 343.359041 294.396478 
L 343.432245 293.828717 
L 343.46879 295.101052 
L 343.55999 294.31627 
L 343.578202 294.689245 
L 343.596404 295.311438 
L 343.650956 294.100443 
L 343.687278 295.029714 
L 343.705425 294.120024 
L 343.796021 295.027277 
L 343.868332 294.234421 
L 343.904433 294.919691 
L 343.922469 295.166739 
L 343.976524 294.396921 
L 343.994524 293.926165 
L 344.030497 295.111963 
L 344.066434 294.198154 
L 344.174026 295.276418 
L 344.191927 294.378059 
L 344.281295 295.109246 
L 344.370439 293.625263 
L 344.352628 295.214821 
L 344.388241 293.863587 
L 344.406034 295.410814 
L 344.494867 295.037664 
L 344.565773 295.229756 
L 344.618861 294.198768 
L 344.636539 295.329378 
L 344.724799 294.623889 
L 344.742425 294.380384 
L 344.760042 295.283504 
L 344.81284 294.686545 
L 344.883117 294.143314 
L 344.918204 295.397083 
L 345.005769 294.251999 
L 345.023256 294.386589 
L 345.162845 295.259159 
L 345.21505 293.991919 
L 345.284538 294.9298 
L 345.319231 294.462832 
L 345.336565 295.108345 
L 345.388516 294.871526 
L 345.405817 295.342941 
L 345.457667 294.380724 
L 345.492192 294.878699 
L 345.595566 294.416569 
L 345.561141 295.131941 
L 345.612766 294.534076 
L 345.664316 295.193872 
L 345.698641 295.129113 
L 345.801418 294.151746 
L 345.732933 295.31551 
L 345.818519 294.426387 
L 345.95503 295.361916 
L 345.9039 294.317209 
L 345.972057 295.271188 
L 346.006087 293.832924 
L 346.074049 295.133564 
L 346.091019 295.214808 
L 346.107982 294.799472 
L 346.141882 295.09392 
L 346.260279 293.648984 
L 346.17575 295.278458 
L 346.27716 294.687144 
L 346.344608 295.025896 
L 346.327758 294.367893 
L 346.395109 295.02059 
L 346.428737 294.27677 
L 346.462333 295.174959 
L 346.512668 294.298604 
L 346.546185 293.700731 
L 346.646548 294.917212 
L 346.679939 294.518164 
L 346.713299 294.66695 
L 346.779926 295.256213 
L 346.746628 293.860541 
L 346.829814 294.867959 
L 346.846428 294.073727 
L 346.929381 295.097935 
L 346.945948 294.183186 
L 346.995604 295.142339 
L 347.061705 294.541164 
L 347.1112 293.569085 
L 347.127683 295.102942 
L 347.226422 294.092741 
L 347.308495 295.328258 
L 347.390379 294.86523 
L 347.423081 293.740007 
L 347.43942 294.972138 
L 347.504702 294.213978 
L 347.537299 293.874911 
L 347.634909 295.226646 
L 347.716047 294.615581 
L 347.732252 295.385688 
L 347.74845 294.740946 
L 347.797 294.390516 
L 347.780824 294.794228 
L 347.82933 294.581879 
L 347.845484 294.050271 
L 347.893902 295.201065 
L 347.942254 294.492562 
L 347.974452 295.404326 
L 348.086917 295.060148 
L 348.199028 293.999951 
L 348.151024 295.169884 
L 348.215015 294.409986 
L 348.262933 295.24098 
L 348.326724 294.895211 
L 348.342654 294.012971 
L 348.438083 294.837513 
L 348.453963 294.81644 
L 348.533258 294.136843 
L 348.485702 294.990266 
L 348.564926 294.486052 
L 348.628178 294.231888 
L 348.691318 295.058706 
L 348.770086 293.439896 
L 348.801544 294.017153 
L 348.880069 294.675541 
L 348.84868 293.165984 
L 348.91143 294.200102 
L 348.927101 293.951393 
L 348.958421 294.798777 
L 348.97407 294.520738 
L 348.989713 295.093971 
L 349.005349 293.769808 
L 349.0366 293.983597 
L 349.145764 283.349898 
L 349.176893 290.919368 
L 349.301134 294.947231 
L 349.332127 293.763732 
L 349.394032 295.405878 
L 349.502106 294.922308 
L 349.548324 293.999841 
L 349.62522 294.459279 
L 349.640579 294.461783 
L 349.686617 294.996113 
L 349.717277 294.216369 
L 349.839649 295.308868 
L 349.885431 294.009943 
L 349.870177 295.325569 
L 349.946382 294.642703 
L 350.037612 295.455824 
L 350.067971 295.194113 
L 350.12861 293.920554 
L 350.158891 294.713678 
L 350.174022 295.290498 
L 350.249579 294.290785 
L 350.264672 295.110338 
L 350.294837 295.29734 
L 350.370139 294.404416 
L 350.38518 295.131555 
L 350.475295 294.570136 
L 350.520266 295.362369 
L 350.61004 295.263398 
L 350.684679 293.763987 
L 350.729387 294.816114 
L 350.759161 294.719017 
L 350.774039 295.18373 
L 350.803776 291.072663 
L 350.87801 294.725934 
L 350.892838 294.778339 
L 350.922476 293.558096 
L 350.966887 295.239198 
L 350.981678 294.87299 
L 350.996463 295.131197 
L 351.040782 294.410836 
L 351.055542 294.967621 
L 351.143978 293.853895 
L 351.173407 294.209648 
L 351.305541 295.359812 
L 351.320192 295.424425 
L 351.334837 295.078609 
L 351.349476 295.342806 
L 351.364109 294.63613 
L 351.451782 294.751135 
L 351.53924 294.390582 
L 351.568345 295.325939 
L 351.641003 294.345911 
L 351.684526 294.714905 
L 351.713513 295.013726 
L 351.742476 294.288975 
L 351.756948 294.153405 
L 351.771415 295.413529 
L 351.872517 294.779018 
L 351.901351 294.271607 
L 351.944557 294.778858 
L 352.05952 295.324454 
L 351.987712 294.670539 
L 352.073864 295.127861 
L 352.116862 293.754317 
L 352.202702 294.584256 
L 352.274078 295.325503 
L 352.288336 294.569214 
L 352.302589 294.944263 
L 352.345312 293.584235 
L 352.359541 295.114754 
L 352.387983 294.210264 
L 352.402196 295.180923 
L 352.501524 294.391387 
L 352.55816 293.780362 
L 352.657055 295.202692 
L 352.68526 295.134585 
L 352.713443 294.546509 
L 352.741604 295.158993 
L 352.797859 294.950619 
L 352.811909 295.40103 
L 352.825953 294.496004 
L 352.882075 294.596097 
L 352.896091 294.459843 
L 352.910102 294.738488 
L 352.938108 295.378731 
L 353.008026 294.468531 
L 353.077807 295.17762 
L 353.091746 294.149777 
L 353.105681 294.812283 
L 353.119609 293.839193 
L 353.147451 295.061447 
L 353.216959 294.718283 
L 353.230845 294.028572 
L 353.30019 295.057639 
L 353.327891 294.488736 
L 353.369401 295.120389 
L 353.35557 294.421992 
L 353.466071 294.873139 
L 353.507421 294.109059 
L 353.493643 295.061508 
L 353.57623 294.510571 
L 353.644907 295.325703 
L 353.672341 294.982137 
L 353.699753 293.590429 
L 353.713452 295.061861 
L 353.781865 294.594368 
L 353.795531 294.531996 
L 353.822849 294.910845 
L 353.8365 295.218927 
L 353.863787 294.707692 
L 353.891052 293.600707 
L 353.945521 295.248541 
L 353.972724 294.396143 
L 353.986318 294.375717 
L 353.999906 293.942869 
L 354.040641 294.823291 
L 354.067771 294.090857 
L 354.081329 295.181973 
L 354.094881 294.039724 
L 354.176087 294.855068 
L 354.21662 293.490874 
L 354.243617 294.726233 
L 354.297549 295.310369 
L 354.284074 294.632619 
L 354.3514 294.897814 
L 354.36485 294.954576 
L 354.378294 294.764957 
L 354.445442 294.007267 
L 354.405169 294.947611 
L 354.485671 294.364909 
L 354.565991 295.237361 
L 354.525853 294.340406 
L 354.592724 294.799391 
L 354.686132 293.68259 
L 354.672803 294.890423 
L 354.699456 294.229699 
L 354.779296 295.129105 
L 354.819149 295.032664 
L 354.925205 293.865814 
L 354.872216 295.156441 
L 354.964895 294.464117 
L 355.057333 295.431284 
L 355.017746 294.150202 
L 355.0837 294.969455 
L 355.149531 294.47116 
L 355.17583 295.01409 
L 355.188972 294.86806 
L 355.228369 294.794429 
L 355.267722 295.337965 
L 355.333215 294.044486 
L 355.385522 294.528026 
L 355.424703 295.334523 
L 355.437753 294.143989 
L 355.489907 295.037678 
L 355.502934 293.970429 
L 355.593987 294.748407 
L 355.658882 294.596098 
L 355.632938 295.179138 
L 355.684807 294.696971 
L 355.775397 295.183755 
L 355.749538 294.38289 
L 355.801237 295.094502 
L 355.827059 294.267294 
L 355.904412 295.424056 
L 355.981597 293.823469 
L 356.020127 294.672347 
L 356.084251 295.366611 
L 356.058615 294.632503 
L 356.135467 295.359593 
L 356.161047 294.294778 
L 356.263186 294.992723 
L 356.288674 295.387374 
L 356.415846 294.123318 
L 356.479261 295.283038 
L 356.466587 293.878619 
L 356.529913 295.063114 
L 356.555211 294.264218 
L 356.605755 295.180189 
L 356.656226 294.341527 
L 356.668833 294.276279 
L 356.756956 293.1291 
L 356.706627 295.399408 
L 356.782093 294.003458 
L 356.807214 293.653183 
L 356.84486 295.017591 
L 356.857401 294.681553 
L 356.869936 295.306093 
L 356.920035 294.304197 
L 356.957563 294.747027 
L 356.98256 294.309015 
L 356.995051 293.988613 
L 357.044974 294.918969 
L 357.06991 294.603018 
L 357.10728 295.304606 
L 357.094828 294.450925 
L 357.169477 294.942562 
L 357.181903 294.027155 
L 357.219156 295.242799 
L 357.281158 294.09473 
L 357.392489 295.067327 
L 357.429523 293.91161 
L 357.491159 294.701552 
L 357.503474 295.101185 
L 357.55269 293.7835 
L 357.601837 294.90315 
L 357.614114 294.857214 
L 357.638654 295.119173 
L 357.650917 295.033692 
L 357.663177 295.383119 
L 357.687683 293.879341 
L 357.736644 294.505216 
L 357.822166 293.428373 
L 357.834366 294.991991 
L 357.846563 293.471537 
L 357.907482 294.54239 
L 357.870943 293.426421 
L 357.968297 294.403067 
L 358.065386 294.162022 
L 358.077504 295.182063 
L 358.089617 293.397566 
L 358.186376 294.664022 
L 358.258773 295.216124 
L 358.222593 294.122145 
L 358.294917 294.760083 
L 358.306956 294.726204 
L 358.355074 295.186891 
L 358.379109 294.538992 
L 358.41513 295.084718 
L 358.534939 294.070421 
L 358.558852 295.175635 
L 358.654346 295.036375 
L 358.701997 294.485305 
L 358.713899 295.262992 
L 358.761471 294.920407 
L 358.773354 295.179376 
L 358.797107 293.940874 
L 358.868274 294.998671 
L 358.891965 295.081623 
L 358.962942 293.87681 
L 358.98657 295.341634 
L 359.069144 294.396573 
L 359.116243 293.735216 
L 359.151526 295.014586 
L 359.16328 293.715827 
L 359.245445 295.174032 
L 359.268886 294.086526 
L 359.304019 295.174433 
L 359.315722 293.895475 
L 359.38586 285.200113 
L 359.432542 291.167934 
L 359.525724 295.349023 
L 359.560604 294.955426 
L 359.641858 293.94477 
L 359.59545 294.981537 
L 359.66504 294.543358 
L 359.699784 294.360563 
L 359.722927 295.238852 
L 359.757615 293.810057 
L 359.746056 295.254486 
L 359.838421 294.728137 
L 359.84995 293.818589 
L 359.884514 295.415774 
L 359.942046 294.766542 
L 360.033905 295.349131 
L 360.045371 294.28187 
L 360.148396 294.927026 
L 360.159825 295.324514 
L 360.216914 294.376009 
L 360.251124 294.881534 
L 360.296686 295.266457 
L 360.364919 293.964646 
L 360.387635 295.153766 
L 360.478352 294.854179 
L 360.500995 295.382269 
L 360.613996 293.452887 
L 360.647826 295.238666 
L 360.726639 294.629556 
L 360.737884 293.77335 
L 360.827714 295.070284 
L 360.838927 295.094128 
L 360.917318 295.40894 
L 360.950861 294.156105 
L 360.995537 295.351521 
L 361.029007 293.775531 
L 361.073584 294.990902 
L 361.140346 294.113776 
L 361.17368 295.204012 
L 361.184784 294.811521 
L 361.195885 295.266618 
L 361.240255 294.667769 
L 361.295638 295.20876 
L 361.373031 294.287248 
L 361.406148 294.973843 
L 361.41718 295.04966 
L 361.428209 294.607949 
L 361.483301 293.996523 
L 361.47229 294.911265 
L 361.516316 294.662236 
L 361.527314 295.337867 
L 361.560288 294.341898 
L 361.626144 295.270315 
L 361.66998 294.157358 
L 361.702822 295.307476 
L 361.735634 295.23639 
L 361.833888 293.944017 
L 361.855685 294.505143 
L 361.866579 295.18554 
L 361.89924 293.443638 
L 361.964473 294.438823 
L 361.975333 294.204603 
L 362.007895 295.475259 
L 362.051264 294.808632 
L 362.09458 295.086485 
L 362.137844 294.840024 
L 362.148651 294.520843 
L 362.191849 295.366522 
L 362.245773 294.849694 
L 362.310374 294.322631 
L 362.342631 295.033704 
L 362.417783 294.221515 
L 362.407057 295.279704 
L 362.449943 295.088804 
L 362.482073 294.46003 
L 362.492777 295.433866 
L 362.599637 295.047181 
L 362.695538 294.22621 
L 362.652947 295.323332 
L 362.706178 294.759171 
L 362.738078 294.606605 
L 362.801792 295.312147 
L 362.844205 294.253688 
L 362.918307 294.750741 
L 362.9817 295.167309 
L 363.002806 293.950854 
L 363.034441 295.199201 
L 363.087105 294.218273 
L 363.202691 295.322975 
L 363.13969 294.123383 
L 363.21318 295.278225 
L 363.328358 294.443831 
L 363.296983 295.298463 
L 363.33881 294.790558 
L 363.370149 295.358131 
L 363.41189 294.644998 
L 363.453583 294.86758 
L 363.48482 295.105921 
L 363.567987 294.054005 
L 363.661317 294.981878 
L 363.682024 294.625807 
L 363.806013 295.451998 
L 363.775057 294.442253 
L 363.826636 295.427414 
L 363.898723 294.673209 
L 363.939849 295.224673 
L 364.052703 293.956313 
L 363.991191 295.27238 
L 364.08342 294.622455 
L 364.11411 295.068068 
L 364.134555 293.669629 
L 364.19582 295.009202 
L 364.216219 294.516814 
L 364.277344 295.43317 
L 364.307867 294.784685 
L 364.318036 294.805003 
L 364.328201 295.27529 
L 364.419562 294.616871 
L 364.490459 295.258045 
L 364.460092 294.339954 
L 364.541013 295.065007 
L 364.601584 294.436151 
L 364.561215 295.311876 
L 364.662051 294.757492 
L 364.722416 294.191593 
L 364.762602 295.329895 
L 364.772642 294.524974 
L 364.872882 295.017983 
L 364.912899 295.086258 
L 365.012745 293.927439 
L 365.052606 295.380433 
L 365.132192 295.129708 
L 365.142128 295.141099 
L 365.231426 293.936943 
L 365.161992 295.149553 
L 365.25124 294.480896 
L 365.310615 295.070796 
L 365.320501 294.389574 
L 365.360018 294.629837 
L 365.369891 294.635974 
L 365.37976 293.989902 
L 365.448772 295.054269 
L 365.478307 294.812962 
L 365.566767 294.263595 
L 365.507818 294.875992 
L 365.586395 294.356858 
L 365.713713 295.459821 
L 365.772322 294.20164 
L 365.830835 294.814672 
L 365.879522 295.389497 
L 365.928143 294.401771 
L 366.005798 295.328566 
L 366.044562 294.689414 
L 366.083284 293.946074 
L 366.131627 295.049348 
L 366.141288 295.207003 
L 366.150946 294.113645 
L 366.199198 295.008486 
L 366.295505 293.507074 
L 366.257014 295.03167 
L 366.305122 293.660719 
L 366.362766 295.311918 
L 366.420316 294.811361 
L 366.468205 295.365475 
L 366.516028 295.221152 
L 366.621015 294.259308 
L 366.592413 295.311195 
L 366.630544 294.642426 
L 366.649594 295.2142 
L 366.697175 294.280643 
L 366.735194 295.072506 
L 366.801629 294.381371 
L 366.830063 295.315243 
L 366.839537 295.156599 
L 366.877404 294.520113 
L 366.867941 295.415095 
L 366.962458 294.537368 
L 367.04731 295.401517 
L 366.981331 294.343186 
L 367.075548 294.886862 
L 367.160131 293.639436 
L 367.169517 295.064912 
L 367.1789 294.532594 
L 367.197659 295.141275 
L 367.263238 294.308735 
L 367.272596 294.564362 
L 367.328696 288.69782 
L 367.384707 293.93143 
L 367.421999 295.373944 
L 367.515058 294.912257 
L 367.524351 294.916528 
L 367.552214 293.564295 
L 367.542929 295.087104 
L 367.626409 294.626682 
L 367.663449 295.4066 
L 367.737413 294.979937 
L 367.774338 294.325291 
L 367.838864 295.176728 
L 367.848072 294.959699 
L 367.884882 293.858582 
L 367.866482 295.150455 
L 367.985913 293.899466 
L 368.004252 295.43874 
L 368.095803 294.823364 
L 368.104946 294.380231 
L 368.196239 295.230371 
L 368.205355 295.234622 
L 368.332741 293.946826 
L 368.423452 295.280142 
L 368.441567 294.62765 
L 368.459672 295.407334 
L 368.541033 294.147812 
L 368.631216 295.300799 
L 368.649225 294.940842 
L 368.667225 293.922512 
L 368.712186 295.301082 
L 368.757089 294.795557 
L 368.801936 295.198444 
L 368.828818 294.505872 
L 368.873575 294.973364 
L 368.918275 293.992359 
L 368.927209 295.272644 
L 368.971842 294.913175 
L 369.078735 295.198466 
L 368.98968 294.007052 
L 369.087628 295.182879 
L 369.140941 294.51834 
L 369.158694 295.358245 
L 369.176438 295.074995 
L 369.220761 295.445822 
L 369.256179 294.818517 
L 369.282719 295.144581 
L 369.291561 295.103973 
L 369.30924 294.188505 
L 369.34457 295.264501 
L 369.406314 294.343911 
L 369.485541 295.384632 
L 369.520697 294.981588 
L 369.573366 294.178942 
L 369.555818 295.285799 
L 369.634714 294.457418 
L 369.704697 295.264165 
L 369.652223 294.248669 
L 369.739637 294.735389 
L 369.8007 294.419859 
L 369.774543 295.333064 
L 369.826837 294.83943 
L 369.844252 295.453842 
L 369.913825 294.044143 
L 369.93988 295.167098 
L 369.983262 294.239531 
L 369.97459 295.231396 
L 370.052564 295.08794 
L 370.147634 293.9671 
L 370.121731 295.482147 
L 370.173518 294.777617 
L 370.216617 295.118975 
L 370.242451 294.360622 
L 370.251058 294.716141 
L 370.259664 293.590892 
L 370.302658 295.400442 
L 370.354183 294.602591 
L 370.379918 293.935061 
L 370.465565 295.161651 
L 370.48267 294.247103 
L 370.508312 295.308258 
L 370.568071 294.588165 
L 370.619214 295.353547 
L 370.678788 294.906879 
L 370.729771 294.487721 
L 370.755236 295.1875 
L 370.78916 294.724581 
L 370.797636 295.376117 
L 370.89074 294.527982 
L 370.899192 295.339098 
L 370.924536 294.152745 
L 370.958299 295.410703 
L 371.008884 295.095111 
L 371.03415 294.196954 
L 371.10984 295.399978 
L 371.126638 294.793287 
L 371.135034 295.375664 
L 371.168598 294.121549 
L 371.244003 295.261758 
L 371.335948 294.495907 
L 371.285826 295.358955 
L 371.360983 294.815144 
L 371.377663 295.41907 
L 371.435981 294.519404 
L 371.477579 295.033821 
L 371.568923 294.146207 
L 371.502514 295.138355 
L 371.577216 294.418746 
L 371.668305 295.356274 
L 371.684842 294.380654 
L 371.74266 295.225216 
L 371.783901 294.273172 
L 371.833327 294.863647 
L 371.899122 294.518864 
L 371.890905 295.405183 
L 371.948389 294.672531 
L 371.997588 295.356154 
L 372.038535 294.454983 
L 372.071258 295.307018 
L 372.087609 294.344118 
L 372.128452 295.341878 
L 372.177403 295.08586 
L 372.185555 295.42024 
L 372.201853 294.706074 
L 372.275102 294.714098 
L 372.348202 295.279767 
L 372.29136 294.38206 
L 372.380642 295.19329 
L 372.453525 294.357334 
L 372.469701 295.346459 
L 372.485869 295.056584 
L 372.493951 295.265728 
L 372.526259 294.544789 
L 372.574666 294.730798 
L 372.590787 294.229651 
L 372.614954 295.460759 
L 372.679322 294.945432 
L 372.735548 294.32535 
L 372.719493 295.38905 
L 372.775655 294.427547 
L 372.799698 295.229226 
L 372.83173 293.779593 
L 372.887716 294.943252 
L 372.903696 295.066276 
L 372.919668 294.780811 
L 372.959569 293.409206 
L 372.991457 295.18223 
L 373.015354 295.052708 
L 373.094897 295.317511 
L 373.047193 294.431811 
L 373.102841 294.509399 
L 373.110784 294.425722 
L 373.142537 295.224495 
L 373.174262 294.720615 
L 373.261359 295.365614 
L 373.221796 294.616834 
L 373.277172 294.640002 
L 373.364019 294.269235 
L 373.324569 295.349602 
L 373.379786 294.481558 
L 373.403425 295.173121 
L 373.482105 294.03995 
L 373.489964 294.961507 
L 373.576293 294.256348 
L 373.568454 295.361558 
L 373.623294 294.319182 
L 373.662414 295.128096 
L 373.724916 294.279005 
L 373.732722 294.873451 
L 373.818465 285.322282 
L 373.857371 293.592537 
L 373.911768 295.232566 
L 373.973835 294.493112 
L 374.051266 295.349173 
L 374.11309 295.082782 
L 374.182514 294.57494 
L 374.205625 295.293545 
L 374.213326 295.283673 
L 374.328633 293.67405 
L 374.251803 295.304637 
L 374.351649 294.277822 
L 374.458864 295.34975 
L 374.374651 293.960856 
L 374.46651 294.740028 
L 374.558132 294.534064 
L 374.527617 295.424763 
L 374.565756 294.784627 
L 374.626694 295.320572 
L 374.649519 293.91765 
L 374.657124 293.146378 
L 374.733084 295.274046 
L 374.748257 294.957102 
L 374.755841 294.952268 
L 374.771004 294.520008 
L 374.793736 295.245735 
L 374.861847 294.778611 
L 374.982611 295.339555 
L 374.997678 294.391626 
L 375.095456 294.984557 
L 375.185476 295.250029 
L 375.125488 294.486453 
L 375.192967 294.676413 
L 375.2304 294.347653 
L 375.252841 295.302921 
L 375.282741 295.016976 
L 375.335004 295.389031 
L 375.305149 294.450763 
L 375.37974 295.127236 
L 375.476477 294.304973 
L 375.402088 295.312185 
L 375.491336 294.999515 
L 375.580361 295.266639 
L 375.550711 294.227759 
L 375.595177 295.161238 
L 375.669164 294.26045 
L 375.698716 294.811271 
L 375.787224 295.347332 
L 375.713483 294.552021 
L 375.801954 294.625365 
L 375.816678 294.114062 
L 375.838753 295.300891 
L 375.897552 294.965198 
L 375.904895 295.39222 
L 375.941587 294.570715 
L 376.007538 295.082707 
L 376.014858 295.081536 
L 376.109886 294.654258 
L 376.051437 295.44262 
L 376.124483 294.787431 
L 376.146368 295.426101 
L 376.175526 294.027828 
L 376.241045 295.279292 
L 376.306444 293.730772 
L 376.357227 295.018903 
L 376.386213 295.332635 
L 376.429649 294.732027 
L 376.501923 295.244137 
L 376.530792 294.233977 
L 376.566845 295.40402 
L 376.646034 295.119986 
L 376.739393 294.586568 
L 376.674786 295.338998 
L 376.746565 294.924861 
L 376.760903 295.404943 
L 376.832509 294.239665 
L 376.861111 295.339932 
L 376.982414 294.440815 
L 376.996657 294.787374 
L 377.053575 294.609822 
L 377.110403 295.377334 
L 377.181309 294.592543 
L 377.223786 295.166877 
L 377.294467 294.331784 
L 377.280342 295.250446 
L 377.322701 295.186801 
L 377.329756 295.382891 
L 377.414305 294.71753 
L 377.421341 294.739746 
L 377.456504 295.318525 
L 377.512692 294.676529 
L 377.53374 294.873426 
L 377.575798 294.574926 
L 377.610809 295.227941 
L 377.617807 294.565097 
L 377.645785 295.32652 
L 377.722611 294.840284 
L 377.736562 294.620388 
L 377.764447 295.394934 
L 377.834064 294.73559 
L 377.875769 295.332936 
L 377.882715 294.513344 
L 377.945169 294.803283 
L 377.972891 294.52219 
L 377.959033 295.211476 
L 377.979818 295.140048 
L 377.986744 295.392529 
L 378.049016 294.499062 
L 378.09047 295.365834 
L 378.104277 294.016766 
L 378.193894 295.368685 
L 378.207661 294.823961 
L 378.297019 295.354557 
L 378.242056 294.129245 
L 378.317608 295.097447 
L 378.345042 295.402295 
L 378.420375 294.57588 
L 378.427216 295.379717 
L 378.529668 294.91719 
L 378.638626 295.3209 
L 378.570566 294.535097 
L 378.645425 294.951275 
L 378.720126 294.148034 
L 378.679399 295.317815 
L 378.754029 294.679822 
L 378.767582 295.36879 
L 378.842027 294.421732 
L 378.862304 295.226222 
L 378.889321 294.264078 
L 378.950035 295.395132 
L 378.963513 295.148865 
L 378.97025 295.407138 
L 379.010645 294.55387 
L 379.064435 295.357782 
L 379.158371 295.433924 
L 379.185165 294.318242 
L 379.25206 295.363177 
L 379.298813 295.112885 
L 379.305487 293.760597 
L 379.345504 295.215477 
L 379.405445 294.674662 
L 379.511759 295.433002 
L 379.47857 293.98547 
L 379.518393 295.057704 
L 379.531657 294.576691 
L 379.584666 295.433635 
L 379.597906 295.41463 
L 379.677241 294.002281 
L 379.730034 294.468179 
L 379.74981 295.372408 
L 379.782748 294.378578 
L 379.848531 295.241621 
L 379.933867 294.555746 
L 379.920752 295.351913 
L 379.966635 294.667095 
L 380.084348 295.319779 
L 380.005916 294.330756 
L 380.090876 294.939101 
L 380.149576 294.374916 
L 380.13654 295.360368 
L 380.182146 295.162077 
L 380.188656 295.130621 
L 380.195165 294.391452 
L 380.253694 295.145727 
L 380.29915 295.08602 
L 380.305639 295.389482 
L 380.363986 294.468568 
L 380.402832 295.179313 
L 380.46102 294.73778 
L 380.454559 295.436994 
L 380.506212 295.343681 
L 380.512663 295.334213 
L 380.635017 294.225135 
L 380.583551 295.445703 
L 380.641445 294.278105 
L 380.667145 295.38991 
L 380.763357 295.165404 
L 380.846531 294.346604 
L 380.85931 295.242999 
L 380.865698 295.177006 
L 380.872084 295.437329 
L 380.929511 294.642299 
L 380.974113 295.162936 
L 380.999574 295.352125 
L 381.037732 294.529368 
L 381.044088 294.286886 
L 381.082199 295.191398 
L 381.126609 294.769246 
L 381.145625 295.407596 
L 381.234234 295.250445 
L 381.316316 294.463445 
L 381.29108 295.278085 
L 381.341534 295.161128 
L 381.385622 295.259921 
L 381.360436 294.709 
L 381.391916 294.889903 
L 381.410791 294.48141 
L 381.461076 295.402171 
L 381.492468 295.102122 
L 381.517561 294.674874 
L 381.605249 295.41071 
L 381.636514 294.27059 
L 381.723911 295.065046 
L 381.74261 295.21705 
L 381.736378 294.621871 
L 381.755072 294.755029 
L 381.798651 294.402258 
L 381.792429 295.413699 
L 381.854604 295.126153 
L 381.91667 295.329161 
L 381.922871 294.668817 
L 381.941467 295.282549 
L 381.978629 295.396179 
L 382.059014 294.279365 
L 382.18233 295.271281 
L 382.213093 294.079886 
L 382.219242 295.438842 
L 382.299086 294.996146 
L 382.305221 295.425961 
L 382.311354 294.714206 
L 382.403229 295.04718 
L 382.409345 294.679253 
L 382.494866 295.43933 
L 382.513166 294.873285 
L 382.549736 295.375244 
L 382.568007 294.495969 
L 382.622764 295.043199 
L 382.719903 294.293378 
L 382.695643 295.178779 
L 382.744146 294.733164 
L 382.834912 295.455433 
L 382.792583 294.504262 
L 382.859077 295.315296 
L 382.925446 294.624536 
L 382.973638 294.639229 
L 382.991692 295.405105 
L 383.087831 295.280154 
L 383.09983 294.471415 
L 383.171739 295.449284 
L 383.201659 295.013882 
L 383.231553 294.763315 
L 383.213619 295.118708 
L 383.249478 294.993068 
L 383.333006 295.468368 
L 383.291267 294.521729 
L 383.362791 295.133412 
L 383.368745 295.155382 
L 383.374697 295.144789 
L 383.380649 294.480509 
L 383.475744 295.253348 
L 383.481679 294.974318 
L 383.564665 295.396223 
L 383.523197 294.547865 
L 383.582423 294.969753 
L 383.600172 294.158975 
L 383.612 295.301564 
L 383.688783 295.099298 
L 383.700582 295.452738 
L 383.771289 294.319311 
L 383.800709 295.146206 
L 383.90642 293.923905 
L 383.818349 295.156386 
L 383.918146 294.532449 
L 383.924008 295.399905 
L 383.970866 294.149973 
L 384.029353 295.168203 
L 384.058561 294.114296 
L 384.116904 295.413452 
L 384.140215 295.176006 
L 384.157688 294.226977 
L 384.210055 295.33272 
L 384.262345 294.675979 
L 384.331946 295.428375 
L 384.349325 294.447529 
L 384.378272 295.361416 
L 384.482284 294.65309 
L 384.430316 295.38076 
L 384.488053 294.931489 
L 384.516887 295.378726 
L 384.585993 294.671105 
L 384.597497 294.863033 
L 384.614747 295.429909 
L 384.672186 294.307614 
L 384.683663 294.545499 
L 384.6894 293.899856 
L 384.706606 295.443579 
L 384.792508 294.699053 
L 384.815381 295.388411 
L 384.878204 294.478134 
L 384.901022 295.177563 
L 384.929523 294.269542 
L 385.003519 295.456244 
L 385.009205 295.149647 
L 385.031939 294.696817 
L 385.020574 295.239765 
L 385.03762 294.806834 
L 385.0433 294.061394 
L 385.077362 295.340574 
L 385.14539 295.189044 
L 385.190669 294.334054 
L 385.224591 295.317582 
L 385.25848 294.725924 
L 385.314891 295.399459 
L 385.269769 294.627148 
L 385.371212 295.302443 
L 385.410584 294.597918 
L 385.416205 295.452773 
L 385.489198 295.03108 
L 385.500414 295.319803 
L 385.545245 294.359488 
L 385.595611 295.30783 
L 385.640322 294.8137 
L 385.696131 295.448223 
L 385.701707 295.065309 
L 385.757421 294.135091 
L 385.813047 295.381863 
L 385.840827 294.418291 
L 385.890778 295.41491 
L 385.924039 294.864109 
L 385.957269 295.416837 
L 386.018111 294.47327 
L 386.04021 295.309191 
L 386.051254 294.599738 
L 386.139483 295.424001 
L 386.156002 295.148581 
L 386.161507 295.185374 
L 386.178015 294.649292 
L 386.189017 294.773382 
L 386.194516 294.521733 
L 386.200015 295.351497 
L 386.293361 294.743348 
L 386.298845 295.353426 
L 386.337204 294.518271 
L 386.402868 295.346569 
L 386.512039 294.717587 
L 386.484778 295.427046 
L 386.517489 294.899303 
L 386.593698 295.445306 
L 386.610008 294.724785 
L 386.67517 293.996501 
L 386.696865 295.318197 
L 386.718546 294.832916 
L 386.772692 295.430982 
L 386.745629 294.469368 
L 386.821352 295.333992 
L 386.875341 294.224564 
L 386.923862 295.427057 
L 386.934635 295.005703 
L 386.945405 295.169999 
L 386.972316 294.682294 
L 386.993831 295.144592 
L 386.999207 294.288319 
L 387.026077 295.394865 
L 387.101207 294.652662 
L 387.213604 295.327164 
L 387.293671 294.504717 
L 387.245653 295.3615 
L 387.325648 294.871186 
L 387.421405 295.382504 
L 387.410778 294.568934 
L 387.426718 295.118588 
L 387.463882 294.418611 
L 387.469188 295.247798 
L 387.532798 294.621806 
L 387.559269 295.315682 
L 387.643843 295.214524 
L 387.6966 294.043108 
L 387.717681 295.47533 
L 387.759806 294.748891 
L 387.822899 295.428037 
L 387.828152 294.725041 
L 387.875391 295.192011 
L 387.885881 294.441108 
L 387.91733 295.261466 
L 387.980145 295.026227 
L 387.985374 295.366928 
L 388.037628 294.523098 
L 388.095019 295.275393 
L 388.17313 294.637357 
L 388.188731 295.423664 
L 388.204326 295.287402 
L 388.209523 295.36445 
L 388.235495 294.5334 
L 388.245879 293.394916 
L 388.313299 295.246442 
L 388.344373 294.739807 
L 388.380592 295.354431 
L 388.396103 294.695565 
L 388.463239 295.268132 
L 388.555989 294.703588 
L 388.509644 295.423193 
L 388.576567 295.025563 
L 388.586851 295.093488 
L 388.597133 294.663739 
L 388.602273 294.678807 
L 388.607412 294.473089 
L 388.694661 295.32208 
L 388.699787 294.969983 
L 388.756121 295.3726 
L 388.802146 294.803652 
L 388.812365 295.093962 
L 388.827689 294.245961 
L 388.88892 295.370548 
L 388.919495 295.344105 
L 388.960222 294.56841 
L 389.031382 294.880511 
L 389.071981 295.409768 
L 389.082123 294.459214 
L 389.137856 294.91644 
L 389.173276 295.405742 
L 389.238964 294.657101 
L 389.254106 295.414529 
L 389.264196 294.367745 
L 389.354885 295.316619 
L 389.400142 294.461598 
L 389.470429 294.805738 
L 389.520549 295.35467 
L 389.550587 294.695475 
L 389.5856 295.223334 
L 389.670487 294.431401 
L 389.655522 295.380022 
L 389.695415 295.225694 
L 389.740242 294.446979 
L 389.785013 295.338013 
L 389.799924 295.140928 
L 389.904127 295.451805 
L 389.894216 294.643875 
L 389.909081 295.1418 
L 389.993202 294.642976 
L 389.983315 295.441955 
L 390.008026 294.883191 
L 390.06726 295.425334 
L 390.042591 294.748649 
L 390.121473 295.173319 
L 390.126397 295.36021 
L 390.155928 294.199639 
L 390.22474 295.213899 
L 390.283615 294.084627 
L 390.268906 295.373334 
L 390.337499 294.706463 
L 390.401075 295.399728 
L 390.410846 294.579821 
L 390.449903 295.018594 
L 390.469415 295.400666 
L 390.513278 294.244402 
L 390.557088 295.378415 
L 390.639692 294.526292 
L 390.581403 295.421386 
L 390.668801 294.915955 
L 390.67365 295.377518 
L 390.765659 294.511192 
L 390.77533 295.272713 
L 390.85743 294.439445 
L 390.804328 295.469275 
L 390.886361 294.5794 
L 390.9249 295.336142 
L 390.968206 294.48925 
L 390.992242 294.781166 
L 390.997047 294.433018 
L 391.064253 295.42822 
L 391.093017 294.77771 
L 391.11218 295.413961 
L 391.183949 294.142168 
L 391.20784 295.396833 
L 391.312771 294.650529 
L 391.322295 295.066436 
L 391.346093 294.600302 
L 391.355608 295.44156 
L 391.431635 295.06293 
L 391.512237 295.43498 
L 391.493289 294.550332 
L 391.535909 295.046707 
L 391.540641 294.515036 
L 391.597382 295.387658 
L 391.639878 295.305404 
L 391.644597 295.381428 
L 391.663465 294.605865 
L 391.715302 294.965102 
L 391.72001 294.007925 
L 391.790566 295.415901 
L 391.823444 294.950323 
L 391.917214 295.411577 
L 391.851601 294.712045 
L 391.935938 295.294432 
L 392.001397 291.266253 
L 392.057408 294.72872 
L 392.159867 295.350295 
L 392.071397 294.560712 
L 392.164517 294.753998 
L 392.206342 294.52531 
L 392.248118 295.223358 
L 392.257394 294.997082 
L 392.280576 294.618386 
L 392.368528 295.386113 
L 392.451651 294.554375 
L 392.479316 294.858633 
L 392.580569 295.319809 
L 392.520773 294.495296 
L 392.594354 295.196904 
L 392.621908 294.683406 
L 392.631088 295.435292 
L 392.699863 294.765536 
L 392.805059 295.401965 
L 392.745638 294.160171 
L 392.814192 295.344997 
L 392.823322 294.400866 
L 392.932706 294.739551 
L 393.0009 295.294712 
L 392.950903 294.556875 
L 393.041754 295.074805 
L 393.091623 294.345918 
L 393.059896 295.263192 
L 393.150469 295.083395 
L 393.222762 293.906021 
L 393.164035 295.442556 
L 393.267871 294.784931 
L 393.35342 295.378197 
L 393.317424 294.580538 
L 393.380393 295.294989 
L 393.434277 294.038166 
L 393.48808 295.349586 
L 393.49256 294.96106 
L 393.541802 295.422437 
L 393.537328 294.576223 
L 393.58204 294.87721 
L 393.590976 294.341248 
L 393.595443 295.465526 
L 393.684665 294.782195 
L 393.791437 295.421322 
L 393.755882 294.703247 
L 393.795879 295.084387 
L 393.858008 294.488836 
L 393.88017 295.354139 
L 393.893461 295.239503 
L 393.99961 295.433602 
L 393.968683 294.524568 
L 394.004026 295.418386 
L 394.056975 294.649659 
L 394.11865 295.021549 
L 394.158242 295.325301 
L 394.19779 294.645321 
L 394.219742 295.235881 
L 394.246066 295.382326 
L 394.333674 294.640864 
L 394.394872 295.399803 
L 394.447244 294.945965 
L 394.508246 295.278049 
L 394.490828 294.399131 
L 394.534359 295.264696 
L 394.573491 294.581365 
L 394.62994 295.448487 
L 394.642953 295.130799 
L 394.703622 295.404746 
L 394.668967 294.547462 
L 394.712281 295.371253 
L 394.790113 294.326637 
L 394.781473 295.427553 
L 394.820335 295.177076 
L 394.867775 295.43981 
L 394.837593 294.573034 
L 394.919456 295.105017 
L 395.001131 294.363103 
L 394.945268 295.35307 
L 395.026884 295.056892 
L 395.035464 295.406128 
L 395.039753 294.655491 
L 395.129711 295.170002 
L 395.133989 294.350724 
L 395.202367 295.410897 
L 395.236507 294.667976 
L 395.245037 295.368727 
L 395.304689 294.365951 
L 395.347236 294.797432 
L 395.39398 293.222389 
L 395.410962 295.305747 
L 395.444903 295.269699 
L 395.449143 295.463374 
L 395.495753 294.327131 
L 395.554987 295.23508 
L 395.559214 295.399638 
L 395.609901 294.679515 
L 395.647869 294.82612 
L 395.736305 294.400093 
L 395.690009 295.364029 
L 395.753125 294.656128 
L 395.769937 295.373848 
L 395.853878 294.328217 
L 395.862261 294.497667 
L 395.916704 294.328694 
L 395.979419 295.336748 
L 396.054532 294.625619 
L 395.987773 295.357732 
L 396.087865 295.280011 
L 396.175215 294.54747 
L 396.183523 295.385751 
L 396.208435 294.955848 
L 396.249917 295.38745 
L 396.29549 294.515959 
L 396.316186 295.038893 
L 396.423612 294.332633 
L 396.345141 295.335741 
L 396.427738 294.518649 
L 396.473085 295.380329 
L 396.534828 294.513277 
L 396.543053 295.240003 
L 396.608779 294.591567 
L 396.633396 295.340276 
L 396.653896 294.958873 
L 396.686673 294.1263 
L 396.72351 295.360423 
L 396.756223 294.457925 
L 396.801153 295.431321 
L 396.846027 294.417272 
L 396.87048 295.049468 
L 396.874554 294.617313 
L 396.972186 295.36582 
L 396.976248 294.999711 
L 396.992493 295.453678 
L 396.996553 294.349661 
L 397.085753 294.929761 
L 397.15857 295.393068 
L 397.142401 294.635917 
L 397.17877 294.72463 
L 397.198959 294.355338 
L 397.243335 295.305672 
L 397.263487 294.521814 
L 397.33192 295.410931 
L 397.37613 295.15563 
L 397.448356 295.474534 
L 397.408249 294.500241 
L 397.484414 295.377838 
L 397.50443 294.520167 
L 397.520435 295.435378 
L 397.596361 295.119423 
L 397.636257 294.336113 
L 397.660173 295.403356 
L 397.707957 295.029361 
L 397.783485 295.286731 
L 397.77157 294.499904 
L 397.815238 295.138964 
L 397.839034 294.472212 
L 397.894497 295.462336 
L 397.922196 295.136665 
L 398.005164 295.436215 
L 398.017 294.737028 
L 398.020945 294.991234 
L 398.107618 294.319166 
L 398.040662 295.365736 
L 398.13122 294.725356 
L 398.194081 295.479567 
L 398.22547 294.645248 
L 398.241155 294.86753 
L 398.280335 294.723792 
L 398.307735 295.297716 
L 398.335115 295.010923 
L 398.350751 295.43895 
L 398.393714 294.553775 
L 398.440524 295.019979 
L 398.483379 293.99106 
L 398.463906 295.38108 
L 398.487273 294.12463 
" clip-path="url(#p396c7b9bae)" style="fill: none; stroke: #1f77b4; stroke-width: 1.5; stroke-linecap: square"/>
   </g>
   <g id="patch_3">
    <path d="M 57.6 307.584 
L 57.6 41.472 
" style="fill: none; stroke: #000000; stroke-width: 0.8; stroke-linejoin: miter; stroke-linecap: square"/>
   </g>
   <g id="patch_4">
    <path d="M 414.72 307.584 
L 414.72 41.472 
" style="fill: none; stroke: #000000; stroke-width: 0.8; stroke-linejoin: miter; stroke-linecap: square"/>
   </g>
   <g id="patch_5">
    <path d="M 57.6 307.584 
L 414.72 307.584 
" style="fill: none; stroke: #000000; stroke-width: 0.8; stroke-linejoin: miter; stroke-linecap: square"/>
   </g>
   <g id="patch_6">
    <path d="M 57.6 41.472 
L 414.72 41.472 
" style="fill: none; stroke: #000000; stroke-width: 0.8; stroke-linejoin: miter; stroke-linecap: square"/>
   </g>
   <g id="text_16">
    <!-- Transformata centrata in 0 -->
    <g transform="translate(156.287813 35.472) scale(0.12 -0.12)">
     <defs>
      <path id="DejaVuSans-54" d="M -19 4666 
L 3928 4666 
L 3928 4134 
L 2272 4134 
L 2272 0 
L 1638 0 
L 1638 4134 
L -19 4134 
L -19 4666 
z
" transform="scale(0.015625)"/>
      <path id="DejaVuSans-73" d="M 2834 3397 
L 2834 2853 
Q 2591 2978 2328 3040 
Q 2066 3103 1784 3103 
Q 1356 3103 1142 2972 
Q 928 2841 928 2578 
Q 928 2378 1081 2264 
Q 1234 2150 1697 2047 
L 1894 2003 
Q 2506 1872 2764 1633 
Q 3022 1394 3022 966 
Q 3022 478 2636 193 
Q 2250 -91 1575 -91 
Q 1294 -91 989 -36 
Q 684 19 347 128 
L 347 722 
Q 666 556 975 473 
Q 1284 391 1588 391 
Q 1994 391 2212 530 
Q 2431 669 2431 922 
Q 2431 1156 2273 1281 
Q 2116 1406 1581 1522 
L 1381 1569 
Q 847 1681 609 1914 
Q 372 2147 372 2553 
Q 372 3047 722 3315 
Q 1072 3584 1716 3584 
Q 2034 3584 2315 3537 
Q 2597 3491 2834 3397 
z
" transform="scale(0.015625)"/>
      <path id="DejaVuSans-66" d="M 2375 4863 
L 2375 4384 
L 1825 4384 
Q 1516 4384 1395 4259 
Q 1275 4134 1275 3809 
L 1275 3500 
L 2222 3500 
L 2222 3053 
L 1275 3053 
L 1275 0 
L 697 0 
L 697 3053 
L 147 3053 
L 147 3500 
L 697 3500 
L 697 3744 
Q 697 4328 969 4595 
Q 1241 4863 1831 4863 
L 2375 4863 
z
" transform="scale(0.015625)"/>
      <path id="DejaVuSans-6f" d="M 1959 3097 
Q 1497 3097 1228 2736 
Q 959 2375 959 1747 
Q 959 1119 1226 758 
Q 1494 397 1959 397 
Q 2419 397 2687 759 
Q 2956 1122 2956 1747 
Q 2956 2369 2687 2733 
Q 2419 3097 1959 3097 
z
M 1959 3584 
Q 2709 3584 3137 3096 
Q 3566 2609 3566 1747 
Q 3566 888 3137 398 
Q 2709 -91 1959 -91 
Q 1206 -91 779 398 
Q 353 888 353 1747 
Q 353 2609 779 3096 
Q 1206 3584 1959 3584 
z
" transform="scale(0.015625)"/>
      <path id="DejaVuSans-6d" d="M 3328 2828 
Q 3544 3216 3844 3400 
Q 4144 3584 4550 3584 
Q 5097 3584 5394 3201 
Q 5691 2819 5691 2113 
L 5691 0 
L 5113 0 
L 5113 2094 
Q 5113 2597 4934 2840 
Q 4756 3084 4391 3084 
Q 3944 3084 3684 2787 
Q 3425 2491 3425 1978 
L 3425 0 
L 2847 0 
L 2847 2094 
Q 2847 2600 2669 2842 
Q 2491 3084 2119 3084 
Q 1678 3084 1418 2786 
Q 1159 2488 1159 1978 
L 1159 0 
L 581 0 
L 581 3500 
L 1159 3500 
L 1159 2956 
Q 1356 3278 1631 3431 
Q 1906 3584 2284 3584 
Q 2666 3584 2933 3390 
Q 3200 3197 3328 2828 
z
" transform="scale(0.015625)"/>
      <path id="DejaVuSans-69" d="M 603 3500 
L 1178 3500 
L 1178 0 
L 603 0 
L 603 3500 
z
M 603 4863 
L 1178 4863 
L 1178 4134 
L 603 4134 
L 603 4863 
z
" transform="scale(0.015625)"/>
     </defs>
     <use xlink:href="#DejaVuSans-54"/>
     <use xlink:href="#DejaVuSans-72" x="46.333984"/>
     <use xlink:href="#DejaVuSans-61" x="87.447266"/>
     <use xlink:href="#DejaVuSans-6e" x="148.726562"/>
     <use xlink:href="#DejaVuSans-73" x="212.105469"/>
     <use xlink:href="#DejaVuSans-66" x="264.205078"/>
     <use xlink:href="#DejaVuSans-6f" x="299.410156"/>
     <use xlink:href="#DejaVuSans-72" x="360.591797"/>
     <use xlink:href="#DejaVuSans-6d" x="399.955078"/>
     <use xlink:href="#DejaVuSans-61" x="497.367188"/>
     <use xlink:href="#DejaVuSans-74" x="558.646484"/>
     <use xlink:href="#DejaVuSans-61" x="597.855469"/>
     <use xlink:href="#DejaVuSans-20" x="659.134766"/>
     <use xlink:href="#DejaVuSans-63" x="690.921875"/>
     <use xlink:href="#DejaVuSans-65" x="745.902344"/>
     <use xlink:href="#DejaVuSans-6e" x="807.425781"/>
     <use xlink:href="#DejaVuSans-74" x="870.804688"/>
     <use xlink:href="#DejaVuSans-72" x="910.013672"/>
     <use xlink:href="#DejaVuSans-61" x="951.126953"/>
     <use xlink:href="#DejaVuSans-74" x="1012.40625"/>
     <use xlink:href="#DejaVuSans-61" x="1051.615234"/>
     <use xlink:href="#DejaVuSans-20" x="1112.894531"/>
     <use xlink:href="#DejaVuSans-69" x="1144.681641"/>
     <use xlink:href="#DejaVuSans-6e" x="1172.464844"/>
     <use xlink:href="#DejaVuSans-20" x="1235.84375"/>
     <use xlink:href="#DejaVuSans-30" x="1267.630859"/>
    </g>
   </g>
  </g>
 </g>
 <defs>
  <clipPath id="p396c7b9bae">
   <rect x="57.6" y="41.472" width="357.12" height="266.112"/>
  </clipPath>
 </defs>
</svg>
