<?xml version="1.0" encoding="utf-8" standalone="no"?>
<!DOCTYPE svg PUBLIC "-//W3C//DTD SVG 1.1//EN"
  "http://www.w3.org/Graphics/SVG/1.1/DTD/svg11.dtd">
<svg xmlns:xlink="http://www.w3.org/1999/xlink" width="460.8pt" height="345.6pt" viewBox="0 0 460.8 345.6" xmlns="http://www.w3.org/2000/svg" version="1.1">
 <metadata>
  <rdf:RDF xmlns:dc="http://purl.org/dc/elements/1.1/" xmlns:cc="http://creativecommons.org/ns#" xmlns:rdf="http://www.w3.org/1999/02/22-rdf-syntax-ns#">
   <cc:Work>
    <dc:type rdf:resource="http://purl.org/dc/dcmitype/StillImage"/>
    <dc:date>2024-10-28T20:06:49.572978</dc:date>
    <dc:format>image/svg+xml</dc:format>
    <dc:creator>
     <cc:Agent>
      <dc:title>Matplotlib v3.9.2, https://matplotlib.org/</dc:title>
     </cc:Agent>
    </dc:creator>
   </cc:Work>
  </rdf:RDF>
 </metadata>
 <defs>
  <style type="text/css">*{stroke-linejoin: round; stroke-linecap: butt}</style>
 </defs>
 <g id="figure_1">
  <g id="patch_1">
   <path d="M 0 345.6 
L 460.8 345.6 
L 460.8 0 
L 0 0 
z
" style="fill: #ffffff"/>
  </g>
  <g id="axes_1">
   <g id="patch_2">
    <path d="M 57.6 99.322435 
L 414.72 99.322435 
L 414.72 41.472 
L 57.6 41.472 
z
" style="fill: #ffffff"/>
   </g>
   <g id="matplotlib.axis_1">
    <g id="xtick_1">
     <g id="line2d_1">
      <defs>
       <path id="m507a1ae47f" d="M 0 0 
L 0 3.5 
" style="stroke: #000000; stroke-width: 0.8"/>
      </defs>
      <g>
       <use xlink:href="#m507a1ae47f" x="73.832727" y="99.322435" style="stroke: #000000; stroke-width: 0.8"/>
      </g>
     </g>
     <g id="text_1">
      <!-- 0.00 -->
      <g transform="translate(62.699915 113.920872) scale(0.1 -0.1)">
       <defs>
        <path id="DejaVuSans-30" d="M 2034 4250 
Q 1547 4250 1301 3770 
Q 1056 3291 1056 2328 
Q 1056 1369 1301 889 
Q 1547 409 2034 409 
Q 2525 409 2770 889 
Q 3016 1369 3016 2328 
Q 3016 3291 2770 3770 
Q 2525 4250 2034 4250 
z
M 2034 4750 
Q 2819 4750 3233 4129 
Q 3647 3509 3647 2328 
Q 3647 1150 3233 529 
Q 2819 -91 2034 -91 
Q 1250 -91 836 529 
Q 422 1150 422 2328 
Q 422 3509 836 4129 
Q 1250 4750 2034 4750 
z
" transform="scale(0.015625)"/>
        <path id="DejaVuSans-2e" d="M 684 794 
L 1344 794 
L 1344 0 
L 684 0 
L 684 794 
z
" transform="scale(0.015625)"/>
       </defs>
       <use xlink:href="#DejaVuSans-30"/>
       <use xlink:href="#DejaVuSans-2e" x="63.623047"/>
       <use xlink:href="#DejaVuSans-30" x="95.410156"/>
       <use xlink:href="#DejaVuSans-30" x="159.033203"/>
      </g>
     </g>
    </g>
    <g id="xtick_2">
     <g id="line2d_2">
      <g>
       <use xlink:href="#m507a1ae47f" x="138.763636" y="99.322435" style="stroke: #000000; stroke-width: 0.8"/>
      </g>
     </g>
     <g id="text_2">
      <!-- 0.02 -->
      <g transform="translate(127.630824 113.920872) scale(0.1 -0.1)">
       <defs>
        <path id="DejaVuSans-32" d="M 1228 531 
L 3431 531 
L 3431 0 
L 469 0 
L 469 531 
Q 828 903 1448 1529 
Q 2069 2156 2228 2338 
Q 2531 2678 2651 2914 
Q 2772 3150 2772 3378 
Q 2772 3750 2511 3984 
Q 2250 4219 1831 4219 
Q 1534 4219 1204 4116 
Q 875 4013 500 3803 
L 500 4441 
Q 881 4594 1212 4672 
Q 1544 4750 1819 4750 
Q 2544 4750 2975 4387 
Q 3406 4025 3406 3419 
Q 3406 3131 3298 2873 
Q 3191 2616 2906 2266 
Q 2828 2175 2409 1742 
Q 1991 1309 1228 531 
z
" transform="scale(0.015625)"/>
       </defs>
       <use xlink:href="#DejaVuSans-30"/>
       <use xlink:href="#DejaVuSans-2e" x="63.623047"/>
       <use xlink:href="#DejaVuSans-30" x="95.410156"/>
       <use xlink:href="#DejaVuSans-32" x="159.033203"/>
      </g>
     </g>
    </g>
    <g id="xtick_3">
     <g id="line2d_3">
      <g>
       <use xlink:href="#m507a1ae47f" x="203.694545" y="99.322435" style="stroke: #000000; stroke-width: 0.8"/>
      </g>
     </g>
     <g id="text_3">
      <!-- 0.04 -->
      <g transform="translate(192.561733 113.920872) scale(0.1 -0.1)">
       <defs>
        <path id="DejaVuSans-34" d="M 2419 4116 
L 825 1625 
L 2419 1625 
L 2419 4116 
z
M 2253 4666 
L 3047 4666 
L 3047 1625 
L 3713 1625 
L 3713 1100 
L 3047 1100 
L 3047 0 
L 2419 0 
L 2419 1100 
L 313 1100 
L 313 1709 
L 2253 4666 
z
" transform="scale(0.015625)"/>
       </defs>
       <use xlink:href="#DejaVuSans-30"/>
       <use xlink:href="#DejaVuSans-2e" x="63.623047"/>
       <use xlink:href="#DejaVuSans-30" x="95.410156"/>
       <use xlink:href="#DejaVuSans-34" x="159.033203"/>
      </g>
     </g>
    </g>
    <g id="xtick_4">
     <g id="line2d_4">
      <g>
       <use xlink:href="#m507a1ae47f" x="268.625455" y="99.322435" style="stroke: #000000; stroke-width: 0.8"/>
      </g>
     </g>
     <g id="text_4">
      <!-- 0.06 -->
      <g transform="translate(257.492642 113.920872) scale(0.1 -0.1)">
       <defs>
        <path id="DejaVuSans-36" d="M 2113 2584 
Q 1688 2584 1439 2293 
Q 1191 2003 1191 1497 
Q 1191 994 1439 701 
Q 1688 409 2113 409 
Q 2538 409 2786 701 
Q 3034 994 3034 1497 
Q 3034 2003 2786 2293 
Q 2538 2584 2113 2584 
z
M 3366 4563 
L 3366 3988 
Q 3128 4100 2886 4159 
Q 2644 4219 2406 4219 
Q 1781 4219 1451 3797 
Q 1122 3375 1075 2522 
Q 1259 2794 1537 2939 
Q 1816 3084 2150 3084 
Q 2853 3084 3261 2657 
Q 3669 2231 3669 1497 
Q 3669 778 3244 343 
Q 2819 -91 2113 -91 
Q 1303 -91 875 529 
Q 447 1150 447 2328 
Q 447 3434 972 4092 
Q 1497 4750 2381 4750 
Q 2619 4750 2861 4703 
Q 3103 4656 3366 4563 
z
" transform="scale(0.015625)"/>
       </defs>
       <use xlink:href="#DejaVuSans-30"/>
       <use xlink:href="#DejaVuSans-2e" x="63.623047"/>
       <use xlink:href="#DejaVuSans-30" x="95.410156"/>
       <use xlink:href="#DejaVuSans-36" x="159.033203"/>
      </g>
     </g>
    </g>
    <g id="xtick_5">
     <g id="line2d_5">
      <g>
       <use xlink:href="#m507a1ae47f" x="333.556364" y="99.322435" style="stroke: #000000; stroke-width: 0.8"/>
      </g>
     </g>
     <g id="text_5">
      <!-- 0.08 -->
      <g transform="translate(322.423551 113.920872) scale(0.1 -0.1)">
       <defs>
        <path id="DejaVuSans-38" d="M 2034 2216 
Q 1584 2216 1326 1975 
Q 1069 1734 1069 1313 
Q 1069 891 1326 650 
Q 1584 409 2034 409 
Q 2484 409 2743 651 
Q 3003 894 3003 1313 
Q 3003 1734 2745 1975 
Q 2488 2216 2034 2216 
z
M 1403 2484 
Q 997 2584 770 2862 
Q 544 3141 544 3541 
Q 544 4100 942 4425 
Q 1341 4750 2034 4750 
Q 2731 4750 3128 4425 
Q 3525 4100 3525 3541 
Q 3525 3141 3298 2862 
Q 3072 2584 2669 2484 
Q 3125 2378 3379 2068 
Q 3634 1759 3634 1313 
Q 3634 634 3220 271 
Q 2806 -91 2034 -91 
Q 1263 -91 848 271 
Q 434 634 434 1313 
Q 434 1759 690 2068 
Q 947 2378 1403 2484 
z
M 1172 3481 
Q 1172 3119 1398 2916 
Q 1625 2713 2034 2713 
Q 2441 2713 2670 2916 
Q 2900 3119 2900 3481 
Q 2900 3844 2670 4047 
Q 2441 4250 2034 4250 
Q 1625 4250 1398 4047 
Q 1172 3844 1172 3481 
z
" transform="scale(0.015625)"/>
       </defs>
       <use xlink:href="#DejaVuSans-30"/>
       <use xlink:href="#DejaVuSans-2e" x="63.623047"/>
       <use xlink:href="#DejaVuSans-30" x="95.410156"/>
       <use xlink:href="#DejaVuSans-38" x="159.033203"/>
      </g>
     </g>
    </g>
    <g id="xtick_6">
     <g id="line2d_6">
      <g>
       <use xlink:href="#m507a1ae47f" x="398.487273" y="99.322435" style="stroke: #000000; stroke-width: 0.8"/>
      </g>
     </g>
     <g id="text_6">
      <!-- 0.10 -->
      <g transform="translate(387.35446 113.920872) scale(0.1 -0.1)">
       <defs>
        <path id="DejaVuSans-31" d="M 794 531 
L 1825 531 
L 1825 4091 
L 703 3866 
L 703 4441 
L 1819 4666 
L 2450 4666 
L 2450 531 
L 3481 531 
L 3481 0 
L 794 0 
L 794 531 
z
" transform="scale(0.015625)"/>
       </defs>
       <use xlink:href="#DejaVuSans-30"/>
       <use xlink:href="#DejaVuSans-2e" x="63.623047"/>
       <use xlink:href="#DejaVuSans-31" x="95.410156"/>
       <use xlink:href="#DejaVuSans-30" x="159.033203"/>
      </g>
     </g>
    </g>
   </g>
   <g id="matplotlib.axis_2">
    <g id="ytick_1">
     <g id="line2d_7">
      <defs>
       <path id="m7e00509b12" d="M 0 0 
L -3.5 0 
" style="stroke: #000000; stroke-width: 0.8"/>
      </defs>
      <g>
       <use xlink:href="#m7e00509b12" x="57.6" y="96.692872" style="stroke: #000000; stroke-width: 0.8"/>
      </g>
     </g>
     <g id="text_7">
      <!-- −1 -->
      <g transform="translate(35.857813 100.492091) scale(0.1 -0.1)">
       <defs>
        <path id="DejaVuSans-2212" d="M 678 2272 
L 4684 2272 
L 4684 1741 
L 678 1741 
L 678 2272 
z
" transform="scale(0.015625)"/>
       </defs>
       <use xlink:href="#DejaVuSans-2212"/>
       <use xlink:href="#DejaVuSans-31" x="83.789062"/>
      </g>
     </g>
    </g>
    <g id="ytick_2">
     <g id="line2d_8">
      <g>
       <use xlink:href="#m7e00509b12" x="57.6" y="70.397217" style="stroke: #000000; stroke-width: 0.8"/>
      </g>
     </g>
     <g id="text_8">
      <!-- 0 -->
      <g transform="translate(44.2375 74.196436) scale(0.1 -0.1)">
       <use xlink:href="#DejaVuSans-30"/>
      </g>
     </g>
    </g>
    <g id="ytick_3">
     <g id="line2d_9">
      <g>
       <use xlink:href="#m7e00509b12" x="57.6" y="44.101562" style="stroke: #000000; stroke-width: 0.8"/>
      </g>
     </g>
     <g id="text_9">
      <!-- 1 -->
      <g transform="translate(44.2375 47.900781) scale(0.1 -0.1)">
       <use xlink:href="#DejaVuSans-31"/>
      </g>
     </g>
    </g>
   </g>
   <g id="line2d_10">
    <path d="M 73.832727 70.397217 
L 80.001781 61.178806 
L 83.281119 56.68473 
L 85.976022 53.355864 
L 88.346237 50.769732 
L 90.489171 48.749821 
L 92.469762 47.17992 
L 94.320478 45.989783 
L 96.073788 45.121806 
L 97.76216 44.533233 
L 99.385595 44.201445 
L 100.976562 44.101916 
L 102.567528 44.226594 
L 104.158494 44.574417 
L 105.781929 45.156272 
L 107.470302 45.999017 
L 109.256081 47.145102 
L 111.139265 48.623963 
L 113.152325 50.49186 
L 115.360196 52.851779 
L 117.827818 55.828087 
L 120.652595 59.597755 
L 124.159214 64.668497 
L 136.919414 83.491346 
L 139.679254 86.961977 
L 142.081938 89.640752 
L 144.257341 91.744903 
L 146.2704 93.389704 
L 148.153585 94.644739 
L 149.906895 95.553159 
L 151.595267 96.181851 
L 153.218702 96.552938 
L 154.809669 96.691328 
L 156.400635 96.60552 
L 157.991601 96.296247 
L 159.615036 95.753055 
L 161.303409 94.949434 
L 163.056719 93.865514 
L 164.907435 92.458031 
L 166.920494 90.638763 
L 169.095897 88.363112 
L 171.498581 85.518675 
L 174.258421 81.892533 
L 177.635166 77.065274 
L 183.122376 68.762426 
L 188.414775 60.90085 
L 191.629176 56.515932 
L 194.324078 53.20534 
L 196.694293 50.638337 
L 198.837228 48.63787 
L 200.817819 47.087486 
L 202.668534 45.916696 
L 204.421844 45.067829 
L 206.077748 44.506811 
L 207.701183 44.188915 
L 209.29215 44.103107 
L 210.883116 44.241497 
L 212.474082 44.602905 
L 214.097517 45.198371 
L 215.78589 46.054873 
L 217.571668 47.214923 
L 219.454853 48.707695 
L 221.500381 50.621991 
L 223.708253 52.999967 
L 226.175874 55.993568 
L 229.03312 59.82422 
L 232.604677 65.007649 
L 244.812909 83.059164 
L 247.637686 86.652113 
L 250.072839 89.402603 
L 252.28071 91.569877 
L 254.29377 93.243915 
L 256.176954 94.528109 
L 257.962733 95.479863 
L 259.651105 96.13208 
L 261.274541 96.52624 
L 262.865507 96.687473 
L 264.456473 96.624541 
L 266.04744 96.337982 
L 267.670875 95.817599 
L 269.359247 95.037089 
L 271.112557 93.976276 
L 272.963273 92.591933 
L 274.943864 90.827319 
L 277.086798 88.614921 
L 279.457013 85.841382 
L 282.151916 82.336299 
L 285.431254 77.68657 
L 290.366497 70.248505 
L 296.438144 61.178806 
L 299.717483 56.68473 
L 302.412385 53.355864 
L 304.7826 50.769732 
L 306.925535 48.749821 
L 308.906126 47.17992 
L 310.756842 45.989783 
L 312.510151 45.121806 
L 314.198524 44.533233 
L 315.821959 44.201445 
L 317.412925 44.101916 
L 319.003892 44.226594 
L 320.594858 44.574417 
L 322.218293 45.156272 
L 323.906666 45.999017 
L 325.692444 47.145102 
L 327.575629 48.623963 
L 329.588688 50.49186 
L 331.79656 52.851779 
L 334.264181 55.828087 
L 337.088958 59.597755 
L 340.595578 64.668497 
L 353.355778 83.491346 
L 356.115617 86.961977 
L 358.518301 89.640752 
L 360.693704 91.744903 
L 362.706764 93.389704 
L 364.589948 94.644739 
L 366.343258 95.553159 
L 368.031631 96.181851 
L 369.655066 96.552938 
L 371.246032 96.691328 
L 372.836999 96.60552 
L 374.427965 96.296247 
L 376.0514 95.753055 
L 377.739773 94.949434 
L 379.493082 93.865514 
L 381.343798 92.458031 
L 383.356858 90.638763 
L 385.532261 88.363112 
L 387.934945 85.518675 
L 390.694784 81.892533 
L 394.071529 77.065274 
L 398.487273 70.397217 
L 398.487273 70.397217 
" clip-path="url(#p9548416d08)" style="fill: none; stroke: #1f77b4; stroke-width: 1.5; stroke-linecap: square"/>
   </g>
   <g id="patch_3">
    <path d="M 57.6 99.322435 
L 57.6 41.472 
" style="fill: none; stroke: #000000; stroke-width: 0.8; stroke-linejoin: miter; stroke-linecap: square"/>
   </g>
   <g id="patch_4">
    <path d="M 414.72 99.322435 
L 414.72 41.472 
" style="fill: none; stroke: #000000; stroke-width: 0.8; stroke-linejoin: miter; stroke-linecap: square"/>
   </g>
   <g id="patch_5">
    <path d="M 57.6 99.322435 
L 414.72 99.322435 
" style="fill: none; stroke: #000000; stroke-width: 0.8; stroke-linejoin: miter; stroke-linecap: square"/>
   </g>
   <g id="patch_6">
    <path d="M 57.6 41.472 
L 414.72 41.472 
" style="fill: none; stroke: #000000; stroke-width: 0.8; stroke-linejoin: miter; stroke-linecap: square"/>
   </g>
  </g>
  <g id="axes_2">
   <g id="patch_7">
    <path d="M 57.6 168.742957 
L 414.72 168.742957 
L 414.72 110.892522 
L 57.6 110.892522 
z
" style="fill: #ffffff"/>
   </g>
   <g id="PathCollection_1">
    <defs>
     <path id="m1d142af1ee" d="M 0 3 
C 0.795609 3 1.55874 2.683901 2.12132 2.12132 
C 2.683901 1.55874 3 0.795609 3 0 
C 3 -0.795609 2.683901 -1.55874 2.12132 -2.12132 
C 1.55874 -2.683901 0.795609 -3 0 -3 
C -0.795609 -3 -1.55874 -2.683901 -2.12132 -2.12132 
C -2.683901 -1.55874 -3 -0.795609 -3 0 
C -3 0.795609 -2.683901 1.55874 -2.12132 2.12132 
C -1.55874 2.683901 -0.795609 3 0 3 
z
" style="stroke: #ffff00"/>
    </defs>
    <g clip-path="url(#p78cfdd5714)">
     <use xlink:href="#m1d142af1ee" x="73.832727" y="139.817739" style="fill: #ffff00; stroke: #ffff00"/>
     <use xlink:href="#m1d142af1ee" x="106.298182" y="114.809085" style="fill: #ffff00; stroke: #ffff00"/>
     <use xlink:href="#m1d142af1ee" x="138.763636" y="155.273937" style="fill: #ffff00; stroke: #ffff00"/>
     <use xlink:href="#m1d142af1ee" x="171.229091" y="155.273937" style="fill: #ffff00; stroke: #ffff00"/>
     <use xlink:href="#m1d142af1ee" x="203.694545" y="114.809085" style="fill: #ffff00; stroke: #ffff00"/>
     <use xlink:href="#m1d142af1ee" x="236.16" y="139.817739" style="fill: #ffff00; stroke: #ffff00"/>
     <use xlink:href="#m1d142af1ee" x="268.625455" y="164.826393" style="fill: #ffff00; stroke: #ffff00"/>
     <use xlink:href="#m1d142af1ee" x="301.090909" y="124.361541" style="fill: #ffff00; stroke: #ffff00"/>
     <use xlink:href="#m1d142af1ee" x="333.556364" y="124.361541" style="fill: #ffff00; stroke: #ffff00"/>
     <use xlink:href="#m1d142af1ee" x="366.021818" y="164.826393" style="fill: #ffff00; stroke: #ffff00"/>
     <use xlink:href="#m1d142af1ee" x="398.487273" y="139.817739" style="fill: #ffff00; stroke: #ffff00"/>
    </g>
   </g>
   <g id="matplotlib.axis_3">
    <g id="xtick_7">
     <g id="line2d_11">
      <g>
       <use xlink:href="#m507a1ae47f" x="73.832727" y="168.742957" style="stroke: #000000; stroke-width: 0.8"/>
      </g>
     </g>
     <g id="text_10">
      <!-- 0.00 -->
      <g transform="translate(62.699915 183.341394) scale(0.1 -0.1)">
       <use xlink:href="#DejaVuSans-30"/>
       <use xlink:href="#DejaVuSans-2e" x="63.623047"/>
       <use xlink:href="#DejaVuSans-30" x="95.410156"/>
       <use xlink:href="#DejaVuSans-30" x="159.033203"/>
      </g>
     </g>
    </g>
    <g id="xtick_8">
     <g id="line2d_12">
      <g>
       <use xlink:href="#m507a1ae47f" x="138.763636" y="168.742957" style="stroke: #000000; stroke-width: 0.8"/>
      </g>
     </g>
     <g id="text_11">
      <!-- 0.02 -->
      <g transform="translate(127.630824 183.341394) scale(0.1 -0.1)">
       <use xlink:href="#DejaVuSans-30"/>
       <use xlink:href="#DejaVuSans-2e" x="63.623047"/>
       <use xlink:href="#DejaVuSans-30" x="95.410156"/>
       <use xlink:href="#DejaVuSans-32" x="159.033203"/>
      </g>
     </g>
    </g>
    <g id="xtick_9">
     <g id="line2d_13">
      <g>
       <use xlink:href="#m507a1ae47f" x="203.694545" y="168.742957" style="stroke: #000000; stroke-width: 0.8"/>
      </g>
     </g>
     <g id="text_12">
      <!-- 0.04 -->
      <g transform="translate(192.561733 183.341394) scale(0.1 -0.1)">
       <use xlink:href="#DejaVuSans-30"/>
       <use xlink:href="#DejaVuSans-2e" x="63.623047"/>
       <use xlink:href="#DejaVuSans-30" x="95.410156"/>
       <use xlink:href="#DejaVuSans-34" x="159.033203"/>
      </g>
     </g>
    </g>
    <g id="xtick_10">
     <g id="line2d_14">
      <g>
       <use xlink:href="#m507a1ae47f" x="268.625455" y="168.742957" style="stroke: #000000; stroke-width: 0.8"/>
      </g>
     </g>
     <g id="text_13">
      <!-- 0.06 -->
      <g transform="translate(257.492642 183.341394) scale(0.1 -0.1)">
       <use xlink:href="#DejaVuSans-30"/>
       <use xlink:href="#DejaVuSans-2e" x="63.623047"/>
       <use xlink:href="#DejaVuSans-30" x="95.410156"/>
       <use xlink:href="#DejaVuSans-36" x="159.033203"/>
      </g>
     </g>
    </g>
    <g id="xtick_11">
     <g id="line2d_15">
      <g>
       <use xlink:href="#m507a1ae47f" x="333.556364" y="168.742957" style="stroke: #000000; stroke-width: 0.8"/>
      </g>
     </g>
     <g id="text_14">
      <!-- 0.08 -->
      <g transform="translate(322.423551 183.341394) scale(0.1 -0.1)">
       <use xlink:href="#DejaVuSans-30"/>
       <use xlink:href="#DejaVuSans-2e" x="63.623047"/>
       <use xlink:href="#DejaVuSans-30" x="95.410156"/>
       <use xlink:href="#DejaVuSans-38" x="159.033203"/>
      </g>
     </g>
    </g>
    <g id="xtick_12">
     <g id="line2d_16">
      <g>
       <use xlink:href="#m507a1ae47f" x="398.487273" y="168.742957" style="stroke: #000000; stroke-width: 0.8"/>
      </g>
     </g>
     <g id="text_15">
      <!-- 0.10 -->
      <g transform="translate(387.35446 183.341394) scale(0.1 -0.1)">
       <use xlink:href="#DejaVuSans-30"/>
       <use xlink:href="#DejaVuSans-2e" x="63.623047"/>
       <use xlink:href="#DejaVuSans-31" x="95.410156"/>
       <use xlink:href="#DejaVuSans-30" x="159.033203"/>
      </g>
     </g>
    </g>
   </g>
   <g id="matplotlib.axis_4">
    <g id="ytick_4">
     <g id="line2d_17">
      <g>
       <use xlink:href="#m7e00509b12" x="57.6" y="166.113394" style="stroke: #000000; stroke-width: 0.8"/>
      </g>
     </g>
     <g id="text_16">
      <!-- −1 -->
      <g transform="translate(35.857813 169.912613) scale(0.1 -0.1)">
       <use xlink:href="#DejaVuSans-2212"/>
       <use xlink:href="#DejaVuSans-31" x="83.789062"/>
      </g>
     </g>
    </g>
    <g id="ytick_5">
     <g id="line2d_18">
      <g>
       <use xlink:href="#m7e00509b12" x="57.6" y="139.817739" style="stroke: #000000; stroke-width: 0.8"/>
      </g>
     </g>
     <g id="text_17">
      <!-- 0 -->
      <g transform="translate(44.2375 143.616958) scale(0.1 -0.1)">
       <use xlink:href="#DejaVuSans-30"/>
      </g>
     </g>
    </g>
    <g id="ytick_6">
     <g id="line2d_19">
      <g>
       <use xlink:href="#m7e00509b12" x="57.6" y="113.522084" style="stroke: #000000; stroke-width: 0.8"/>
      </g>
     </g>
     <g id="text_18">
      <!-- 1 -->
      <g transform="translate(44.2375 117.321303) scale(0.1 -0.1)">
       <use xlink:href="#DejaVuSans-31"/>
      </g>
     </g>
    </g>
   </g>
   <g id="line2d_20">
    <path d="M 73.832727 139.817739 
L 80.001781 130.599327 
L 83.281119 126.105252 
L 85.976022 122.776386 
L 88.346237 120.190253 
L 90.489171 118.170343 
L 92.469762 116.600442 
L 94.320478 115.410305 
L 96.073788 114.542328 
L 97.76216 113.953755 
L 99.385595 113.621967 
L 100.976562 113.522437 
L 102.567528 113.647116 
L 104.158494 113.994938 
L 105.781929 114.576794 
L 107.470302 115.419538 
L 109.256081 116.565624 
L 111.139265 118.044485 
L 113.152325 119.912382 
L 115.360196 122.2723 
L 117.827818 125.248609 
L 120.652595 129.018277 
L 124.159214 134.089018 
L 136.919414 152.911868 
L 139.679254 156.382498 
L 142.081938 159.061274 
L 144.257341 161.165425 
L 146.2704 162.810226 
L 148.153585 164.065261 
L 149.906895 164.973681 
L 151.595267 165.602372 
L 153.218702 165.973459 
L 154.809669 166.111849 
L 156.400635 166.026042 
L 157.991601 165.716768 
L 159.615036 165.173577 
L 161.303409 164.369956 
L 163.056719 163.286036 
L 164.907435 161.878553 
L 166.920494 160.059285 
L 169.095897 157.783634 
L 171.498581 154.939197 
L 174.258421 151.313055 
L 177.635166 146.485795 
L 183.122376 138.182948 
L 188.414775 130.321372 
L 191.629176 125.936454 
L 194.324078 122.625862 
L 196.694293 120.058858 
L 198.837228 118.058392 
L 200.817819 116.508008 
L 202.668534 115.337218 
L 204.421844 114.48835 
L 206.077748 113.927333 
L 207.701183 113.609436 
L 209.29215 113.523629 
L 210.883116 113.662019 
L 212.474082 114.023426 
L 214.097517 114.618893 
L 215.78589 115.475395 
L 217.571668 116.635445 
L 219.454853 118.128217 
L 221.500381 120.042513 
L 223.708253 122.420489 
L 226.175874 125.41409 
L 229.03312 129.244741 
L 232.604677 134.42817 
L 244.812909 152.479686 
L 247.637686 156.072635 
L 250.072839 158.823125 
L 252.28071 160.990399 
L 254.29377 162.664437 
L 256.176954 163.948631 
L 257.962733 164.900385 
L 259.651105 165.552601 
L 261.274541 165.946762 
L 262.865507 166.107995 
L 264.456473 166.045063 
L 266.04744 165.758503 
L 267.670875 165.238121 
L 269.359247 164.457611 
L 271.112557 163.396797 
L 272.963273 162.012455 
L 274.943864 160.247841 
L 277.086798 158.035442 
L 279.457013 155.261904 
L 282.151916 151.756821 
L 285.431254 147.107092 
L 290.366497 139.669027 
L 296.438144 130.599327 
L 299.717483 126.105252 
L 302.412385 122.776386 
L 304.7826 120.190253 
L 306.925535 118.170343 
L 308.906126 116.600442 
L 310.756842 115.410305 
L 312.510151 114.542328 
L 314.198524 113.953755 
L 315.821959 113.621967 
L 317.412925 113.522437 
L 319.003892 113.647116 
L 320.594858 113.994938 
L 322.218293 114.576794 
L 323.906666 115.419538 
L 325.692444 116.565624 
L 327.575629 118.044485 
L 329.588688 119.912382 
L 331.79656 122.2723 
L 334.264181 125.248609 
L 337.088958 129.018277 
L 340.595578 134.089018 
L 353.355778 152.911868 
L 356.115617 156.382498 
L 358.518301 159.061274 
L 360.693704 161.165425 
L 362.706764 162.810226 
L 364.589948 164.065261 
L 366.343258 164.973681 
L 368.031631 165.602372 
L 369.655066 165.973459 
L 371.246032 166.111849 
L 372.836999 166.026042 
L 374.427965 165.716768 
L 376.0514 165.173577 
L 377.739773 164.369956 
L 379.493082 163.286036 
L 381.343798 161.878553 
L 383.356858 160.059285 
L 385.532261 157.783634 
L 387.934945 154.939197 
L 390.694784 151.313055 
L 394.071529 146.485795 
L 398.487273 139.817739 
L 398.487273 139.817739 
" clip-path="url(#p78cfdd5714)" style="fill: none; stroke: #1f77b4; stroke-width: 1.5; stroke-linecap: square"/>
   </g>
   <g id="line2d_21">
    <path d="M 73.832727 139.817739 
L 106.298182 114.809085 
L 138.763636 155.273937 
L 171.229091 155.273937 
L 203.694545 114.809085 
L 236.16 139.817739 
L 268.625455 164.826393 
L 301.090909 124.361541 
L 333.556364 124.361541 
L 366.021818 164.826393 
L 398.487273 139.817739 
" clip-path="url(#p78cfdd5714)" style="fill: none; stroke-dasharray: 1.5,2.475; stroke-dashoffset: 0; stroke: #000000; stroke-width: 1.5"/>
   </g>
   <g id="patch_8">
    <path d="M 57.6 168.742957 
L 57.6 110.892522 
" style="fill: none; stroke: #000000; stroke-width: 0.8; stroke-linejoin: miter; stroke-linecap: square"/>
   </g>
   <g id="patch_9">
    <path d="M 414.72 168.742957 
L 414.72 110.892522 
" style="fill: none; stroke: #000000; stroke-width: 0.8; stroke-linejoin: miter; stroke-linecap: square"/>
   </g>
   <g id="patch_10">
    <path d="M 57.6 168.742957 
L 414.72 168.742957 
" style="fill: none; stroke: #000000; stroke-width: 0.8; stroke-linejoin: miter; stroke-linecap: square"/>
   </g>
   <g id="patch_11">
    <path d="M 57.6 110.892522 
L 414.72 110.892522 
" style="fill: none; stroke: #000000; stroke-width: 0.8; stroke-linejoin: miter; stroke-linecap: square"/>
   </g>
  </g>
  <g id="axes_3">
   <g id="patch_12">
    <path d="M 57.6 238.163478 
L 414.72 238.163478 
L 414.72 180.313043 
L 57.6 180.313043 
z
" style="fill: #ffffff"/>
   </g>
   <g id="PathCollection_2">
    <g clip-path="url(#pbbd00b8598)">
     <use xlink:href="#m1d142af1ee" x="73.832727" y="209.238261" style="fill: #ffff00; stroke: #ffff00"/>
     <use xlink:href="#m1d142af1ee" x="106.298182" y="184.229609" style="fill: #ffff00; stroke: #ffff00"/>
     <use xlink:href="#m1d142af1ee" x="138.763636" y="224.694458" style="fill: #ffff00; stroke: #ffff00"/>
     <use xlink:href="#m1d142af1ee" x="171.229091" y="224.694458" style="fill: #ffff00; stroke: #ffff00"/>
     <use xlink:href="#m1d142af1ee" x="203.694545" y="184.229609" style="fill: #ffff00; stroke: #ffff00"/>
     <use xlink:href="#m1d142af1ee" x="236.16" y="209.238261" style="fill: #ffff00; stroke: #ffff00"/>
     <use xlink:href="#m1d142af1ee" x="268.625455" y="234.246913" style="fill: #ffff00; stroke: #ffff00"/>
     <use xlink:href="#m1d142af1ee" x="301.090909" y="193.782064" style="fill: #ffff00; stroke: #ffff00"/>
     <use xlink:href="#m1d142af1ee" x="333.556364" y="193.782064" style="fill: #ffff00; stroke: #ffff00"/>
     <use xlink:href="#m1d142af1ee" x="366.021818" y="234.246913" style="fill: #ffff00; stroke: #ffff00"/>
     <use xlink:href="#m1d142af1ee" x="398.487273" y="209.238261" style="fill: #ffff00; stroke: #ffff00"/>
    </g>
   </g>
   <g id="matplotlib.axis_5">
    <g id="xtick_13">
     <g id="line2d_22">
      <g>
       <use xlink:href="#m507a1ae47f" x="73.832727" y="238.163478" style="stroke: #000000; stroke-width: 0.8"/>
      </g>
     </g>
     <g id="text_19">
      <!-- 0.00 -->
      <g transform="translate(62.699915 252.761916) scale(0.1 -0.1)">
       <use xlink:href="#DejaVuSans-30"/>
       <use xlink:href="#DejaVuSans-2e" x="63.623047"/>
       <use xlink:href="#DejaVuSans-30" x="95.410156"/>
       <use xlink:href="#DejaVuSans-30" x="159.033203"/>
      </g>
     </g>
    </g>
    <g id="xtick_14">
     <g id="line2d_23">
      <g>
       <use xlink:href="#m507a1ae47f" x="138.763636" y="238.163478" style="stroke: #000000; stroke-width: 0.8"/>
      </g>
     </g>
     <g id="text_20">
      <!-- 0.02 -->
      <g transform="translate(127.630824 252.761916) scale(0.1 -0.1)">
       <use xlink:href="#DejaVuSans-30"/>
       <use xlink:href="#DejaVuSans-2e" x="63.623047"/>
       <use xlink:href="#DejaVuSans-30" x="95.410156"/>
       <use xlink:href="#DejaVuSans-32" x="159.033203"/>
      </g>
     </g>
    </g>
    <g id="xtick_15">
     <g id="line2d_24">
      <g>
       <use xlink:href="#m507a1ae47f" x="203.694545" y="238.163478" style="stroke: #000000; stroke-width: 0.8"/>
      </g>
     </g>
     <g id="text_21">
      <!-- 0.04 -->
      <g transform="translate(192.561733 252.761916) scale(0.1 -0.1)">
       <use xlink:href="#DejaVuSans-30"/>
       <use xlink:href="#DejaVuSans-2e" x="63.623047"/>
       <use xlink:href="#DejaVuSans-30" x="95.410156"/>
       <use xlink:href="#DejaVuSans-34" x="159.033203"/>
      </g>
     </g>
    </g>
    <g id="xtick_16">
     <g id="line2d_25">
      <g>
       <use xlink:href="#m507a1ae47f" x="268.625455" y="238.163478" style="stroke: #000000; stroke-width: 0.8"/>
      </g>
     </g>
     <g id="text_22">
      <!-- 0.06 -->
      <g transform="translate(257.492642 252.761916) scale(0.1 -0.1)">
       <use xlink:href="#DejaVuSans-30"/>
       <use xlink:href="#DejaVuSans-2e" x="63.623047"/>
       <use xlink:href="#DejaVuSans-30" x="95.410156"/>
       <use xlink:href="#DejaVuSans-36" x="159.033203"/>
      </g>
     </g>
    </g>
    <g id="xtick_17">
     <g id="line2d_26">
      <g>
       <use xlink:href="#m507a1ae47f" x="333.556364" y="238.163478" style="stroke: #000000; stroke-width: 0.8"/>
      </g>
     </g>
     <g id="text_23">
      <!-- 0.08 -->
      <g transform="translate(322.423551 252.761916) scale(0.1 -0.1)">
       <use xlink:href="#DejaVuSans-30"/>
       <use xlink:href="#DejaVuSans-2e" x="63.623047"/>
       <use xlink:href="#DejaVuSans-30" x="95.410156"/>
       <use xlink:href="#DejaVuSans-38" x="159.033203"/>
      </g>
     </g>
    </g>
    <g id="xtick_18">
     <g id="line2d_27">
      <g>
       <use xlink:href="#m507a1ae47f" x="398.487273" y="238.163478" style="stroke: #000000; stroke-width: 0.8"/>
      </g>
     </g>
     <g id="text_24">
      <!-- 0.10 -->
      <g transform="translate(387.35446 252.761916) scale(0.1 -0.1)">
       <use xlink:href="#DejaVuSans-30"/>
       <use xlink:href="#DejaVuSans-2e" x="63.623047"/>
       <use xlink:href="#DejaVuSans-31" x="95.410156"/>
       <use xlink:href="#DejaVuSans-30" x="159.033203"/>
      </g>
     </g>
    </g>
   </g>
   <g id="matplotlib.axis_6">
    <g id="ytick_7">
     <g id="line2d_28">
      <g>
       <use xlink:href="#m7e00509b12" x="57.6" y="235.533913" style="stroke: #000000; stroke-width: 0.8"/>
      </g>
     </g>
     <g id="text_25">
      <!-- −1 -->
      <g transform="translate(35.857813 239.333132) scale(0.1 -0.1)">
       <use xlink:href="#DejaVuSans-2212"/>
       <use xlink:href="#DejaVuSans-31" x="83.789062"/>
      </g>
     </g>
    </g>
    <g id="ytick_8">
     <g id="line2d_29">
      <g>
       <use xlink:href="#m7e00509b12" x="57.6" y="209.238261" style="stroke: #000000; stroke-width: 0.8"/>
      </g>
     </g>
     <g id="text_26">
      <!-- 0 -->
      <g transform="translate(44.2375 213.03748) scale(0.1 -0.1)">
       <use xlink:href="#DejaVuSans-30"/>
      </g>
     </g>
    </g>
    <g id="ytick_9">
     <g id="line2d_30">
      <g>
       <use xlink:href="#m7e00509b12" x="57.6" y="182.942608" style="stroke: #000000; stroke-width: 0.8"/>
      </g>
     </g>
     <g id="text_27">
      <!-- 1 -->
      <g transform="translate(44.2375 186.741827) scale(0.1 -0.1)">
       <use xlink:href="#DejaVuSans-31"/>
      </g>
     </g>
    </g>
   </g>
   <g id="line2d_31">
    <path d="M 73.832727 209.238261 
L 76.040599 195.371013 
L 77.144535 189.776589 
L 78.02119 186.379305 
L 78.735501 184.424183 
L 79.319938 183.417024 
L 79.7745 183.018268 
L 80.164124 182.949059 
L 80.52128 183.107389 
L 80.943373 183.566144 
L 81.430403 184.454406 
L 82.01484 186.009339 
L 82.729151 188.586369 
L 83.605806 192.64785 
L 84.742211 199.075254 
L 86.625396 211.260415 
L 88.541049 223.182641 
L 89.644985 228.760932 
L 90.52164 232.142 
L 91.235951 234.082265 
L 91.820388 235.076529 
L 92.27495 235.464986 
L 92.664574 235.525293 
L 93.02173 235.358819 
L 93.443823 234.890551 
L 93.930853 233.991597 
L 94.51529 232.424451 
L 95.229602 229.833772 
L 96.106256 225.758063 
L 97.242661 219.317389 
L 99.158314 206.911467 
L 101.041499 195.216914 
L 102.145435 189.654824 
L 103.02209 186.290012 
L 103.736401 184.364627 
L 104.320838 183.38327 
L 104.7754 183.005117 
L 105.165024 182.953713 
L 105.52218 183.128329 
L 105.944273 183.606104 
L 106.431303 184.515739 
L 107.048209 186.197832 
L 107.76252 188.834194 
L 108.639175 192.957403 
L 109.77558 199.442148 
L 111.788639 212.509716 
L 113.574418 223.51726 
L 114.678354 229.024373 
L 115.555009 232.33421 
L 116.236851 234.141227 
L 116.821288 235.109665 
L 117.27585 235.477511 
L 117.665474 235.520011 
L 118.02263 235.337255 
L 118.444723 234.849978 
L 118.964222 233.854969 
L 119.581128 232.129814 
L 120.327908 229.310025 
L 121.237031 224.935413 
L 122.438373 217.944049 
L 126.951523 190.410779 
L 127.860646 186.738798 
L 128.607427 184.592626 
L 129.191863 183.515343 
L 129.678894 183.041058 
L 130.068518 182.944337 
L 130.425674 183.077482 
L 130.815298 183.463401 
L 131.302329 184.293161 
L 131.886765 185.781157 
L 132.601077 188.283201 
L 133.445263 192.102718 
L 134.549199 198.228298 
L 136.27004 209.263046 
L 138.477912 223.126561 
L 139.581848 228.716592 
L 140.458503 232.109458 
L 141.172814 234.06053 
L 141.757251 235.064174 
L 142.211812 235.460121 
L 142.601437 235.526902 
L 142.958593 235.366351 
L 143.380686 234.905001 
L 143.867716 234.013822 
L 144.452153 232.455556 
L 145.166464 229.8748 
L 146.043119 225.809434 
L 147.179524 219.378404 
L 149.095177 206.977309 
L 151.010831 195.091331 
L 152.114766 189.555893 
L 152.991421 186.217769 
L 153.705733 184.316784 
L 154.257701 183.395401 
L 154.712262 183.009754 
L 155.101887 182.951875 
L 155.459043 183.12057 
L 155.881136 183.591431 
L 156.368166 184.493299 
L 156.952603 186.063773 
L 157.666914 188.658169 
L 158.543569 192.73775 
L 159.679974 199.18203 
L 161.595627 211.589742 
L 163.478812 223.280569 
L 164.582748 228.83823 
L 165.459403 232.198601 
L 166.173714 234.119924 
L 166.758151 235.097758 
L 167.212713 235.473101 
L 167.602337 235.522077 
L 167.959493 235.34524 
L 168.381586 234.864874 
L 168.868616 233.952327 
L 169.485522 232.266734 
L 170.232302 229.490348 
L 171.141425 225.159875 
L 172.310299 218.41023 
L 174.648045 203.195506 
L 176.206543 193.874448 
L 177.245541 188.881179 
L 178.089728 185.829892 
L 178.77157 184.128483 
L 179.323538 183.289428 
L 179.7781 182.973184 
L 180.135256 182.965391 
L 180.52488 183.198631 
L 180.946973 183.733325 
L 181.466472 184.784987 
L 182.083378 186.57372 
L 182.830158 189.463036 
L 183.77175 194.083027 
L 185.005561 201.371398 
L 189.194023 227.16188 
L 190.135616 231.176884 
L 190.882396 233.498548 
L 191.499301 234.775048 
L 191.986332 235.350148 
L 192.408425 235.53199 
L 192.765581 235.454449 
L 193.155205 235.128664 
L 193.609767 234.434742 
L 194.161735 233.150759 
L 194.843577 230.932451 
L 195.655295 227.467874 
L 196.661825 222.138473 
L 198.090448 213.254265 
L 201.077568 194.429293 
L 202.149035 189.177175 
L 202.993222 186.044281 
L 203.675064 184.269737 
L 204.227032 183.368336 
L 204.681594 182.999553 
L 205.071218 182.956243 
L 205.428374 183.13826 
L 205.850467 183.624673 
L 206.337498 184.544009 
L 206.954403 186.237763 
L 207.701183 189.023111 
L 208.610307 193.362712 
L 209.77918 200.120515 
L 212.149395 215.546031 
L 213.675424 224.648971 
L 214.714423 229.631901 
L 215.558609 232.67292 
L 216.240452 234.365149 
L 216.79242 235.196392 
L 217.246981 235.506062 
L 217.604137 235.50866 
L 217.993762 235.269777 
L 218.415855 234.72906 
L 218.935354 233.67021 
L 219.552259 231.873422 
L 220.299039 228.975318 
L 221.240632 224.346196 
L 222.474442 217.04992 
L 226.630436 191.42982 
L 227.572028 187.386568 
L 228.351277 184.955723 
L 228.968183 183.687742 
L 229.455213 183.119612 
L 229.877306 182.943896 
L 230.234462 183.026629 
L 230.624086 183.358034 
L 231.078648 184.058386 
L 231.630616 185.349878 
L 232.312459 187.576805 
L 233.124176 191.050371 
L 234.163175 196.576316 
L 235.624266 205.70465 
L 238.481512 223.738539 
L 239.585448 229.197503 
L 240.429634 232.357868 
L 241.111477 234.157101 
L 241.663445 235.079592 
L 242.118007 235.466176 
L 242.507631 235.524865 
L 242.864787 235.35691 
L 243.28688 234.886913 
L 243.77391 233.986016 
L 244.358347 232.416652 
L 245.072659 229.823495 
L 245.949313 225.745204 
L 247.085718 219.302126 
L 249.001371 206.895008 
L 250.884556 195.202938 
L 251.988492 189.6438 
L 252.865147 186.281948 
L 253.579458 184.359272 
L 254.163895 183.380263 
L 254.618457 183.003983 
L 255.008081 182.954198 
L 255.365237 183.130295 
L 255.78733 183.609798 
L 256.274361 184.521374 
L 256.891266 186.2058 
L 257.638046 188.980905 
L 258.54717 193.310072 
L 259.716043 200.058549 
L 262.021321 215.063701 
L 263.612287 224.595368 
L 264.651285 229.590112 
L 265.495472 232.642865 
L 266.177314 234.345584 
L 266.729282 235.185755 
L 267.183844 235.502938 
L 267.573469 235.501724 
L 267.963093 235.248336 
L 268.417655 234.637376 
L 268.937154 233.533461 
L 269.586528 231.573629 
L 270.365777 228.442334 
L 271.339838 223.510321 
L 272.638586 215.66627 
L 276.340018 192.615821 
L 277.346548 188.041132 
L 278.158265 185.325763 
L 278.807639 183.864994 
L 279.327139 183.181669 
L 279.749232 182.953474 
L 280.106387 182.991693 
L 280.496012 183.274872 
L 280.950574 183.920001 
L 281.502542 185.146935 
L 282.151916 187.181947 
L 282.931164 190.393484 
L 283.905225 195.406128 
L 285.236442 203.525669 
L 288.710593 225.258327 
L 289.749592 230.103148 
L 290.561309 232.915211 
L 291.210683 234.460593 
L 291.762651 235.24712 
L 292.184744 235.51113 
L 292.5419 235.503338 
L 292.931524 235.253172 
L 293.353618 234.700415 
L 293.873117 233.627204 
L 294.490022 231.814335 
L 295.236802 228.898698 
L 296.178395 224.25138 
L 297.412205 216.939401 
L 301.53573 191.502891 
L 302.477323 187.441874 
L 303.256571 184.993939 
L 303.873477 183.711358 
L 304.360507 183.131281 
L 304.7826 182.945064 
L 305.139756 183.018896 
L 305.529381 183.340665 
L 305.983942 184.029992 
L 306.53591 185.308608 
L 307.217753 187.520753 
L 308.029471 190.978899 
L 309.036 196.302068 
L 310.464623 205.181437 
L 313.451744 224.013075 
L 314.523211 229.272615 
L 315.367397 232.412749 
L 316.04924 234.193796 
L 316.601208 235.10075 
L 317.05577 235.474219 
L 317.445394 235.521576 
L 317.80255 235.343259 
L 318.224643 234.861165 
L 318.711673 233.946678 
L 319.328579 232.258753 
L 320.075359 229.479805 
L 320.984482 225.146722 
L 322.153356 218.394742 
L 324.491102 203.179426 
L 326.0496 193.861041 
L 327.088598 188.870724 
L 327.932785 185.822369 
L 328.614627 184.123582 
L 329.166595 183.286759 
L 329.621157 182.972392 
L 329.978313 182.966084 
L 330.367937 183.200936 
L 330.79003 183.737351 
L 331.309529 184.791068 
L 331.926435 186.582103 
L 332.673215 189.473932 
L 333.614807 194.096534 
L 334.848618 201.387167 
L 339.03708 227.173967 
L 339.978673 231.18599 
L 340.725453 233.504917 
L 341.342358 234.778984 
L 341.829389 235.352093 
L 342.251482 235.532184 
L 342.608638 235.45316 
L 342.998262 235.125769 
L 343.452824 234.43001 
L 344.004792 233.14388 
L 344.686634 230.923109 
L 345.498352 227.455962 
L 346.53735 221.936395 
L 347.998442 212.812802 
L 350.888156 194.593563 
L 351.959624 189.305938 
L 352.80381 186.138363 
L 353.485653 184.332643 
L 354.03762 183.404607 
L 354.492182 183.013341 
L 354.881807 182.950606 
L 355.238962 183.114859 
L 355.661056 183.580533 
L 356.148086 184.476572 
L 356.732523 186.040389 
L 357.446834 188.627349 
L 358.323489 192.699182 
L 359.459894 199.136244 
L 361.375547 211.540366 
L 363.258732 223.238633 
L 364.362668 228.805149 
L 365.239322 232.174398 
L 365.953634 234.103843 
L 366.538071 235.088721 
L 366.992632 235.469685 
L 367.382257 235.523518 
L 367.739412 235.351122 
L 368.161506 234.875939 
L 368.648536 233.969216 
L 369.232973 232.3932 
L 369.947284 229.792614 
L 370.823939 225.706588 
L 371.960344 219.256311 
L 373.908466 206.631804 
L 375.759182 195.161044 
L 376.863118 189.610777 
L 377.739773 186.257813 
L 378.454084 184.343265 
L 379.038521 183.371303 
L 379.493082 183.000645 
L 379.882707 182.955716 
L 380.239863 183.136253 
L 380.661956 183.620939 
L 381.148986 184.538335 
L 381.765891 186.229759 
L 382.512672 189.012547 
L 383.421795 193.349542 
L 384.590669 200.105018 
L 386.960884 215.529988 
L 388.486913 224.63558 
L 389.525911 229.621466 
L 390.370097 232.66542 
L 391.05194 234.360273 
L 391.603908 235.193748 
L 392.05847 235.505297 
L 392.415626 235.509379 
L 392.80525 235.272108 
L 393.227343 234.733112 
L 393.746842 233.676315 
L 394.363748 231.881827 
L 395.110528 228.986233 
L 396.05212 224.359717 
L 397.285931 217.065697 
L 398.487273 209.238261 
L 398.487273 209.238261 
" clip-path="url(#pbbd00b8598)" style="fill: none; stroke: #800080; stroke-width: 1.5; stroke-linecap: square"/>
   </g>
   <g id="line2d_32">
    <path d="M 73.832727 209.238261 
L 106.298182 184.229609 
L 138.763636 224.694458 
L 171.229091 224.694458 
L 203.694545 184.229609 
L 236.16 209.238261 
L 268.625455 234.246913 
L 301.090909 193.782064 
L 333.556364 193.782064 
L 366.021818 234.246913 
L 398.487273 209.238261 
" clip-path="url(#pbbd00b8598)" style="fill: none; stroke-dasharray: 1.5,2.475; stroke-dashoffset: 0; stroke: #000000; stroke-width: 1.5"/>
   </g>
   <g id="patch_13">
    <path d="M 57.6 238.163478 
L 57.6 180.313043 
" style="fill: none; stroke: #000000; stroke-width: 0.8; stroke-linejoin: miter; stroke-linecap: square"/>
   </g>
   <g id="patch_14">
    <path d="M 414.72 238.163478 
L 414.72 180.313043 
" style="fill: none; stroke: #000000; stroke-width: 0.8; stroke-linejoin: miter; stroke-linecap: square"/>
   </g>
   <g id="patch_15">
    <path d="M 57.6 238.163478 
L 414.72 238.163478 
" style="fill: none; stroke: #000000; stroke-width: 0.8; stroke-linejoin: miter; stroke-linecap: square"/>
   </g>
   <g id="patch_16">
    <path d="M 57.6 180.313043 
L 414.72 180.313043 
" style="fill: none; stroke: #000000; stroke-width: 0.8; stroke-linejoin: miter; stroke-linecap: square"/>
   </g>
  </g>
  <g id="axes_4">
   <g id="patch_17">
    <path d="M 57.6 307.584 
L 414.72 307.584 
L 414.72 249.733565 
L 57.6 249.733565 
z
" style="fill: #ffffff"/>
   </g>
   <g id="PathCollection_3">
    <g clip-path="url(#pe8370fa85e)">
     <use xlink:href="#m1d142af1ee" x="73.832727" y="278.658783" style="fill: #ffff00; stroke: #ffff00"/>
     <use xlink:href="#m1d142af1ee" x="106.298182" y="253.650131" style="fill: #ffff00; stroke: #ffff00"/>
     <use xlink:href="#m1d142af1ee" x="138.763636" y="294.114979" style="fill: #ffff00; stroke: #ffff00"/>
     <use xlink:href="#m1d142af1ee" x="171.229091" y="294.114979" style="fill: #ffff00; stroke: #ffff00"/>
     <use xlink:href="#m1d142af1ee" x="203.694545" y="253.650131" style="fill: #ffff00; stroke: #ffff00"/>
     <use xlink:href="#m1d142af1ee" x="236.16" y="278.658783" style="fill: #ffff00; stroke: #ffff00"/>
     <use xlink:href="#m1d142af1ee" x="268.625455" y="303.667434" style="fill: #ffff00; stroke: #ffff00"/>
     <use xlink:href="#m1d142af1ee" x="301.090909" y="263.202586" style="fill: #ffff00; stroke: #ffff00"/>
     <use xlink:href="#m1d142af1ee" x="333.556364" y="263.202586" style="fill: #ffff00; stroke: #ffff00"/>
     <use xlink:href="#m1d142af1ee" x="366.021818" y="303.667434" style="fill: #ffff00; stroke: #ffff00"/>
     <use xlink:href="#m1d142af1ee" x="398.487273" y="278.658783" style="fill: #ffff00; stroke: #ffff00"/>
    </g>
   </g>
   <g id="matplotlib.axis_7">
    <g id="xtick_19">
     <g id="line2d_33">
      <g>
       <use xlink:href="#m507a1ae47f" x="73.832727" y="307.584" style="stroke: #000000; stroke-width: 0.8"/>
      </g>
     </g>
     <g id="text_28">
      <!-- 0.00 -->
      <g transform="translate(62.699915 322.182437) scale(0.1 -0.1)">
       <use xlink:href="#DejaVuSans-30"/>
       <use xlink:href="#DejaVuSans-2e" x="63.623047"/>
       <use xlink:href="#DejaVuSans-30" x="95.410156"/>
       <use xlink:href="#DejaVuSans-30" x="159.033203"/>
      </g>
     </g>
    </g>
    <g id="xtick_20">
     <g id="line2d_34">
      <g>
       <use xlink:href="#m507a1ae47f" x="138.763636" y="307.584" style="stroke: #000000; stroke-width: 0.8"/>
      </g>
     </g>
     <g id="text_29">
      <!-- 0.02 -->
      <g transform="translate(127.630824 322.182437) scale(0.1 -0.1)">
       <use xlink:href="#DejaVuSans-30"/>
       <use xlink:href="#DejaVuSans-2e" x="63.623047"/>
       <use xlink:href="#DejaVuSans-30" x="95.410156"/>
       <use xlink:href="#DejaVuSans-32" x="159.033203"/>
      </g>
     </g>
    </g>
    <g id="xtick_21">
     <g id="line2d_35">
      <g>
       <use xlink:href="#m507a1ae47f" x="203.694545" y="307.584" style="stroke: #000000; stroke-width: 0.8"/>
      </g>
     </g>
     <g id="text_30">
      <!-- 0.04 -->
      <g transform="translate(192.561733 322.182437) scale(0.1 -0.1)">
       <use xlink:href="#DejaVuSans-30"/>
       <use xlink:href="#DejaVuSans-2e" x="63.623047"/>
       <use xlink:href="#DejaVuSans-30" x="95.410156"/>
       <use xlink:href="#DejaVuSans-34" x="159.033203"/>
      </g>
     </g>
    </g>
    <g id="xtick_22">
     <g id="line2d_36">
      <g>
       <use xlink:href="#m507a1ae47f" x="268.625455" y="307.584" style="stroke: #000000; stroke-width: 0.8"/>
      </g>
     </g>
     <g id="text_31">
      <!-- 0.06 -->
      <g transform="translate(257.492642 322.182437) scale(0.1 -0.1)">
       <use xlink:href="#DejaVuSans-30"/>
       <use xlink:href="#DejaVuSans-2e" x="63.623047"/>
       <use xlink:href="#DejaVuSans-30" x="95.410156"/>
       <use xlink:href="#DejaVuSans-36" x="159.033203"/>
      </g>
     </g>
    </g>
    <g id="xtick_23">
     <g id="line2d_37">
      <g>
       <use xlink:href="#m507a1ae47f" x="333.556364" y="307.584" style="stroke: #000000; stroke-width: 0.8"/>
      </g>
     </g>
     <g id="text_32">
      <!-- 0.08 -->
      <g transform="translate(322.423551 322.182437) scale(0.1 -0.1)">
       <use xlink:href="#DejaVuSans-30"/>
       <use xlink:href="#DejaVuSans-2e" x="63.623047"/>
       <use xlink:href="#DejaVuSans-30" x="95.410156"/>
       <use xlink:href="#DejaVuSans-38" x="159.033203"/>
      </g>
     </g>
    </g>
    <g id="xtick_24">
     <g id="line2d_38">
      <g>
       <use xlink:href="#m507a1ae47f" x="398.487273" y="307.584" style="stroke: #000000; stroke-width: 0.8"/>
      </g>
     </g>
     <g id="text_33">
      <!-- 0.10 -->
      <g transform="translate(387.35446 322.182437) scale(0.1 -0.1)">
       <use xlink:href="#DejaVuSans-30"/>
       <use xlink:href="#DejaVuSans-2e" x="63.623047"/>
       <use xlink:href="#DejaVuSans-31" x="95.410156"/>
       <use xlink:href="#DejaVuSans-30" x="159.033203"/>
      </g>
     </g>
    </g>
   </g>
   <g id="matplotlib.axis_8">
    <g id="ytick_10">
     <g id="line2d_39">
      <g>
       <use xlink:href="#m7e00509b12" x="57.6" y="304.954435" style="stroke: #000000; stroke-width: 0.8"/>
      </g>
     </g>
     <g id="text_34">
      <!-- −1 -->
      <g transform="translate(35.857813 308.753654) scale(0.1 -0.1)">
       <use xlink:href="#DejaVuSans-2212"/>
       <use xlink:href="#DejaVuSans-31" x="83.789062"/>
      </g>
     </g>
    </g>
    <g id="ytick_11">
     <g id="line2d_40">
      <g>
       <use xlink:href="#m7e00509b12" x="57.6" y="278.658783" style="stroke: #000000; stroke-width: 0.8"/>
      </g>
     </g>
     <g id="text_35">
      <!-- 0 -->
      <g transform="translate(44.2375 282.458001) scale(0.1 -0.1)">
       <use xlink:href="#DejaVuSans-30"/>
      </g>
     </g>
    </g>
    <g id="ytick_12">
     <g id="line2d_41">
      <g>
       <use xlink:href="#m7e00509b12" x="57.6" y="252.36313" style="stroke: #000000; stroke-width: 0.8"/>
      </g>
     </g>
     <g id="text_36">
      <!-- 1 -->
      <g transform="translate(44.2375 256.162349) scale(0.1 -0.1)">
       <use xlink:href="#DejaVuSans-31"/>
      </g>
     </g>
    </g>
   </g>
   <g id="line2d_42">
    <path d="M 73.832727 278.658783 
L 75.326288 262.43638 
L 76.073068 256.571034 
L 76.625036 253.763787 
L 77.047129 252.620304 
L 77.339347 252.364418 
L 77.534159 252.440681 
L 77.793909 252.848544 
L 78.118596 253.841972 
L 78.540689 255.902621 
L 79.092657 259.790973 
L 79.839437 266.800746 
L 81.138185 281.552817 
L 82.436933 295.364306 
L 83.183713 301.076598 
L 83.735681 303.746382 
L 84.125306 304.729607 
L 84.385055 304.951382 
L 84.579867 304.887289 
L 84.807148 304.563507 
L 85.131835 303.642811 
L 85.553928 301.671284 
L 86.105896 297.885415 
L 86.852677 290.979034 
L 88.086487 277.040483 
L 89.450173 262.358468 
L 90.196953 256.517394 
L 90.748921 253.732039 
L 91.171014 252.606657 
L 91.463232 252.363624 
L 91.658044 252.448476 
L 91.917794 252.867689 
L 92.242481 253.874928 
L 92.664574 255.952462 
L 93.216542 259.860162 
L 93.963322 266.88932 
L 95.294539 282.028587 
L 96.560818 295.440752 
L 97.307598 301.128258 
L 97.859566 303.775908 
L 98.249191 304.742358 
L 98.50894 304.952706 
L 98.703753 304.880022 
L 98.963502 304.47689 
L 99.288189 303.48922 
L 99.710282 301.435615 
L 100.26225 297.555343 
L 101.00903 290.553675 
L 102.307778 275.80581 
L 103.606526 261.985181 
L 104.353307 256.262587 
L 104.905275 253.583591 
L 105.294899 252.593381 
L 105.554649 252.366845 
L 105.749461 252.427358 
L 105.976742 252.746994 
L 106.301429 253.661901 
L 106.723522 255.626322 
L 107.27549 259.403993 
L 108.02227 266.302051 
L 109.256081 280.235849 
L 110.619766 294.926662 
L 111.366546 300.77786 
L 111.918514 303.572341 
L 112.340607 304.705267 
L 112.632825 304.953656 
L 112.827638 304.872383 
L 113.087387 304.457898 
L 113.412074 303.456412 
L 113.834167 301.38591 
L 114.386135 297.486265 
L 115.132915 290.465172 
L 116.464132 275.329951 
L 117.730412 261.908637 
L 118.477192 256.210794 
L 119.02916 253.553916 
L 119.418784 252.580475 
L 119.678534 252.365365 
L 119.873346 252.43447 
L 120.133095 252.83287 
L 120.457783 253.814779 
L 120.879876 255.861334 
L 121.431844 259.733519 
L 122.178624 266.727064 
L 123.477372 281.470686 
L 124.77612 295.30042 
L 125.5229 301.033304 
L 126.074868 303.721504 
L 126.464492 304.718698 
L 126.756711 304.954232 
L 126.951523 304.864371 
L 127.211272 304.438539 
L 127.535959 303.423251 
L 127.990521 301.141123 
L 128.574958 296.876484 
L 129.354207 289.34513 
L 131.172454 268.640733 
L 132.114046 259.613476 
L 132.76342 255.235377 
L 133.250451 253.213218 
L 133.607607 252.48417 
L 133.867356 252.3682 
L 134.094637 252.554778 
L 134.386855 253.186341 
L 134.77648 254.694998 
L 135.26351 257.584534 
L 135.912884 262.941753 
L 136.822008 272.511549 
L 139.062348 296.79888 
L 139.744191 301.659281 
L 140.26369 303.968096 
L 140.653315 304.819561 
L 140.913064 304.951748 
L 141.107877 304.820395 
L 141.367626 304.33981 
L 141.724782 303.12116 
L 142.179344 300.683555 
L 142.76378 296.247254 
L 143.575498 288.201358 
L 146.432744 258.053002 
L 147.049649 254.39531 
L 147.504211 252.853296 
L 147.828898 252.394507 
L 148.056179 252.399103 
L 148.28346 252.672243 
L 148.575678 253.413212 
L 148.965302 255.06147 
L 149.484802 258.348849 
L 150.166644 264.268962 
L 151.173174 275.22344 
L 153.02389 295.45347 
L 153.738201 300.937281 
L 154.290169 303.665902 
L 154.679794 304.693792 
L 154.972012 304.95289 
L 155.166824 304.878775 
L 155.426574 304.47375 
L 155.751261 303.483777 
L 156.173354 301.427354 
L 156.725322 297.543848 
L 157.472102 290.538936 
L 158.77085 275.789384 
L 160.069598 261.972407 
L 160.816378 256.253932 
L 161.368346 253.578621 
L 161.757971 252.591204 
L 162.01772 252.366572 
L 162.212533 252.428517 
L 162.439813 252.749812 
L 162.7645 253.667035 
L 163.186594 255.634299 
L 163.738561 259.41525 
L 164.485342 266.31664 
L 165.719152 280.252342 
L 167.082838 294.939641 
L 167.829618 300.786791 
L 168.381586 303.577623 
L 168.803679 304.707531 
L 169.095897 304.953778 
L 169.290709 304.871073 
L 169.550459 304.454697 
L 169.875146 303.450909 
L 170.297239 301.377594 
L 170.849207 297.474726 
L 171.595987 290.450405 
L 172.927204 275.313561 
L 174.193483 261.895902 
L 174.940263 256.202192 
L 175.492231 253.549005 
L 175.881856 252.57836 
L 176.141605 252.365155 
L 176.336418 252.435691 
L 176.596167 252.835984 
L 176.920854 253.820198 
L 177.342947 255.869574 
L 177.894915 259.744995 
L 178.641695 266.741791 
L 179.940443 281.487115 
L 181.239192 295.313211 
L 181.985972 301.041981 
L 182.53794 303.726499 
L 182.927564 304.7209 
L 183.219782 304.954292 
L 183.414595 304.862999 
L 183.674344 304.435277 
L 183.999031 303.41769 
L 184.453593 301.132548 
L 185.03803 296.864565 
L 185.817278 289.33003 
L 188.934274 256.973935 
L 189.51871 253.87769 
L 189.940804 252.670981 
L 190.233022 252.370141 
L 190.427834 252.416334 
L 190.655115 252.719375 
L 190.979802 253.611107 
L 191.401895 255.547053 
L 191.953863 259.29184 
L 192.668174 265.823416 
L 193.837048 278.931419 
L 195.298139 294.796521 
L 196.044919 300.688068 
L 196.596887 303.518985 
L 197.01898 304.68206 
L 197.311199 304.951865 
L 197.506011 304.884908 
L 197.733292 304.557809 
L 198.057979 303.632485 
L 198.480072 301.655275 
L 199.03204 297.862855 
L 199.77882 290.949829 
L 201.012631 277.0075 
L 202.376316 262.332549 
L 203.123096 256.499584 
L 203.675064 253.721535 
L 204.097157 252.602191 
L 204.389376 252.363442 
L 204.584188 252.451157 
L 204.843937 252.874152 
L 205.168624 253.885991 
L 205.623186 256.163597 
L 206.207623 260.423216 
L 206.986872 267.949793 
L 208.740182 287.946794 
L 209.714243 297.422708 
L 210.396085 302.070914 
L 210.883116 304.098085 
L 211.240272 304.831008 
L 211.500021 304.94984 
L 211.727302 304.765762 
L 212.01952 304.137366 
L 212.409145 302.632761 
L 212.896175 299.747846 
L 213.545549 294.395676 
L 214.454673 284.830113 
L 216.695014 260.536637 
L 217.376856 255.670308 
L 217.896355 253.356205 
L 218.28598 252.500523 
L 218.545729 252.365474 
L 218.740542 252.494682 
L 219.000291 252.972439 
L 219.357447 254.187324 
L 219.812009 256.620479 
L 220.396445 261.051894 
L 221.208163 269.093116 
L 224.097877 299.483378 
L 224.714783 303.056981 
L 225.169345 304.530187 
L 225.494032 304.93801 
L 225.721312 304.897491 
L 225.948593 304.58864 
L 226.27328 303.688793 
L 226.695374 301.742872 
L 227.247341 297.986559 
L 227.961653 291.443643 
L 229.130526 278.328317 
L 230.591618 262.475422 
L 231.338398 256.597971 
L 231.890366 253.779794 
L 232.312459 252.627266 
L 232.604677 252.364955 
L 232.799489 252.436923 
L 233.059239 252.839109 
L 233.383926 253.825627 
L 233.806019 255.877822 
L 234.357987 259.756478 
L 235.104767 266.756523 
L 236.403515 281.503542 
L 237.702263 295.325994 
L 238.449043 301.050648 
L 239.001011 303.731485 
L 239.390636 304.723092 
L 239.682854 304.954341 
L 239.877666 304.861617 
L 240.137416 304.432005 
L 240.462103 303.412119 
L 240.916665 301.123965 
L 241.501101 296.852638 
L 242.28035 289.314926 
L 245.397346 256.964592 
L 245.981782 253.872168 
L 246.403875 252.668465 
L 246.696094 252.369765 
L 246.890906 252.41739 
L 247.118187 252.722091 
L 247.442874 253.616142 
L 247.864967 255.554939 
L 248.416935 259.303021 
L 249.131246 265.83784 
L 250.300119 278.947941 
L 251.761211 294.809564 
L 252.507991 300.697086 
L 253.059959 303.524365 
L 253.482052 304.684427 
L 253.774271 304.952091 
L 253.969083 304.883703 
L 254.196364 304.554945 
L 254.521051 303.627306 
L 254.943144 301.647257 
L 255.495112 297.851564 
L 256.241892 290.935219 
L 257.475702 276.991009 
L 258.839388 262.319599 
L 259.586168 256.490692 
L 260.138136 253.716297 
L 260.560229 252.599973 
L 260.852447 252.363367 
L 261.04726 252.452513 
L 261.307009 252.877399 
L 261.631696 253.891538 
L 262.086258 256.172158 
L 262.670695 260.435124 
L 263.449944 267.964887 
L 265.235722 288.316731 
L 266.209783 297.698391 
L 266.859157 302.078433 
L 267.346188 304.102263 
L 267.703343 304.832602 
L 267.963093 304.949526 
L 268.190374 304.763781 
L 268.482592 304.133274 
L 268.872217 302.625967 
L 269.359247 299.737972 
L 270.008621 294.382435 
L 270.917745 284.814049 
L 273.158085 260.524667 
L 273.839928 255.66229 
L 274.359427 253.351712 
L 274.749052 252.498841 
L 275.008801 252.3657 
L 275.203613 252.496338 
L 275.463363 252.97598 
L 275.820519 254.193375 
L 276.275081 256.629497 
L 276.859517 261.064171 
L 277.671235 269.108509 
L 280.560949 299.493463 
L 281.145386 302.91907 
L 281.599948 304.46268 
L 281.924635 304.922653 
L 282.151916 304.918893 
L 282.379196 304.646584 
L 282.671415 303.906664 
L 283.061039 302.25974 
L 283.580538 298.973963 
L 284.262381 293.055517 
L 285.268911 282.102317 
L 287.119627 261.870454 
L 287.833938 256.384674 
L 288.385906 253.654219 
L 288.775531 252.624935 
L 289.067749 252.364766 
L 289.262561 252.438165 
L 289.522311 252.842244 
L 289.846998 253.831065 
L 290.269091 255.88608 
L 290.821059 259.767969 
L 291.567839 266.771259 
L 292.866587 281.519968 
L 294.165335 295.338772 
L 294.912115 301.059307 
L 295.464083 303.73646 
L 295.853708 304.725274 
L 296.113457 304.950858 
L 296.308269 304.889629 
L 296.53555 304.569164 
L 296.860237 303.653098 
L 297.28233 301.687256 
L 297.834298 297.907945 
L 298.581078 291.00822 
L 299.814889 277.07347 
L 301.178575 262.384413 
L 301.925355 256.535239 
L 302.477323 253.742582 
L 302.899416 252.611165 
L 303.191634 252.363847 
L 303.386446 252.445836 
L 303.646196 252.861266 
L 303.970883 253.863903 
L 304.392976 255.935812 
L 304.944944 259.837069 
L 305.691724 266.859776 
L 307.022941 281.995809 
L 308.28922 295.415296 
L 309.036 301.111073 
L 309.587968 303.766106 
L 309.977593 304.738149 
L 310.237342 304.952306 
L 310.432154 304.882486 
L 310.691904 304.483139 
L 311.016591 303.500078 
L 311.438684 301.452112 
L 311.990652 297.578309 
L 312.737432 290.583138 
L 314.03618 275.838664 
L 315.334928 262.010749 
L 316.081709 256.279922 
L 316.633676 253.593562 
L 317.023301 252.597765 
L 317.315519 252.363302 
L 317.510331 252.453879 
L 317.770081 252.880656 
L 318.094768 253.897094 
L 318.54933 256.180728 
L 319.133766 260.44704 
L 319.913015 267.979984 
L 323.030011 300.338956 
L 323.614447 303.437111 
L 324.03654 304.645322 
L 324.328759 304.947232 
L 324.523571 304.901755 
L 324.750852 304.599544 
L 325.075539 303.708972 
L 325.497632 301.774452 
L 326.0496 298.031313 
L 326.763911 291.501359 
L 327.932785 278.394408 
L 329.393876 262.527568 
L 330.140656 256.63401 
L 330.692624 253.801274 
L 331.114717 252.636693 
L 331.406936 252.365817 
L 331.601748 252.432058 
L 331.829029 252.758328 
L 332.153716 253.682495 
L 332.575809 255.658285 
L 333.127777 259.449067 
L 333.874557 266.360433 
L 335.108368 280.30182 
L 336.472053 294.978539 
L 337.218833 300.813532 
L 337.770801 303.593408 
L 338.192894 304.714262 
L 338.485113 304.954082 
L 338.679925 304.867083 
L 338.939674 304.445033 
L 339.264361 303.434343 
L 339.718923 301.158245 
L 340.30336 296.900301 
L 341.082609 289.375317 
L 342.835919 269.378501 
L 343.80998 259.900646 
L 344.491822 255.250414 
L 344.978853 253.221573 
L 345.336009 252.487358 
L 345.595758 252.367572 
L 345.823039 252.550816 
L 346.115257 253.178157 
L 346.504882 254.681412 
L 346.991912 257.564785 
L 347.641286 262.915271 
L 348.55041 272.479422 
L 350.79075 296.774941 
L 351.472593 301.643245 
L 351.992092 303.95911 
L 352.381717 304.816198 
L 352.641466 304.9522 
L 352.836279 304.823707 
L 353.096028 304.346894 
L 353.453184 303.133264 
L 353.907746 300.701592 
L 354.492182 296.271806 
L 355.3039 288.232145 
L 358.193614 257.839233 
L 358.81052 254.263667 
L 359.265081 252.788858 
L 359.589768 252.379848 
L 359.817049 252.419532 
L 360.04433 252.727553 
L 360.369017 253.626241 
L 360.79111 255.570738 
L 361.343078 259.325406 
L 362.05739 265.866703 
L 363.226263 278.980987 
L 364.687355 294.83563 
L 365.434135 300.715097 
L 365.986103 303.535095 
L 366.408196 304.68913 
L 366.700414 304.952511 
L 366.895226 304.88126 
L 367.154976 304.48002 
L 367.479663 303.494654 
L 367.901756 301.443868 
L 368.453724 297.56683 
L 369.200504 290.568409 
L 370.499252 275.822237 
L 371.798 261.997962 
L 372.54478 256.27125 
L 373.096748 253.588572 
L 373.486373 252.595568 
L 373.778591 252.363247 
L 373.973403 252.455256 
L 374.233153 252.883923 
L 374.55784 253.90266 
L 375.012402 256.189307 
L 375.596838 260.458963 
L 376.376087 267.995086 
L 379.493082 300.348303 
L 380.077519 303.442637 
L 380.499612 304.647843 
L 380.79183 304.947613 
L 380.986643 304.900705 
L 381.213924 304.596834 
L 381.538611 303.703942 
L 381.960704 301.766571 
L 382.512672 298.020136 
L 383.226983 291.486938 
L 384.395856 278.377885 
L 385.856948 262.514522 
L 386.603728 256.624987 
L 387.155696 253.795889 
L 387.577789 252.634321 
L 387.870007 252.365586 
L 388.06482 252.433258 
L 388.2921 252.761187 
L 388.616787 253.687668 
L 389.038881 255.666298 
L 389.590849 259.460355 
L 390.337629 266.375041 
L 391.571439 280.318311 
L 392.935125 294.991492 
L 393.681905 300.822428 
L 394.233873 303.59865 
L 394.655966 304.716485 
L 394.948184 304.954162 
L 395.142996 304.865732 
L 395.402746 304.441791 
L 395.727433 303.428802 
L 396.181995 301.149689 
L 396.766432 296.888396 
L 397.54568 289.360226 
L 398.487273 278.658783 
L 398.487273 278.658783 
" clip-path="url(#pe8370fa85e)" style="fill: none; stroke: #008000; stroke-width: 1.5; stroke-linecap: square"/>
   </g>
   <g id="line2d_43">
    <path d="M 73.832727 278.658783 
L 106.298182 253.650131 
L 138.763636 294.114979 
L 171.229091 294.114979 
L 203.694545 253.650131 
L 236.16 278.658783 
L 268.625455 303.667434 
L 301.090909 263.202586 
L 333.556364 263.202586 
L 366.021818 303.667434 
L 398.487273 278.658783 
" clip-path="url(#pe8370fa85e)" style="fill: none; stroke-dasharray: 1.5,2.475; stroke-dashoffset: 0; stroke: #000000; stroke-width: 1.5"/>
   </g>
   <g id="patch_18">
    <path d="M 57.6 307.584 
L 57.6 249.733565 
" style="fill: none; stroke: #000000; stroke-width: 0.8; stroke-linejoin: miter; stroke-linecap: square"/>
   </g>
   <g id="patch_19">
    <path d="M 414.72 307.584 
L 414.72 249.733565 
" style="fill: none; stroke: #000000; stroke-width: 0.8; stroke-linejoin: miter; stroke-linecap: square"/>
   </g>
   <g id="patch_20">
    <path d="M 57.6 307.584 
L 414.72 307.584 
" style="fill: none; stroke: #000000; stroke-width: 0.8; stroke-linejoin: miter; stroke-linecap: square"/>
   </g>
   <g id="patch_21">
    <path d="M 57.6 249.733565 
L 414.72 249.733565 
" style="fill: none; stroke: #000000; stroke-width: 0.8; stroke-linejoin: miter; stroke-linecap: square"/>
   </g>
  </g>
  <g id="text_37">
   <!-- Esantionare cu frecventa sub-Nyquist -->
   <g transform="translate(117.780938 16.030125) scale(0.12 -0.12)">
    <defs>
     <path id="DejaVuSans-45" d="M 628 4666 
L 3578 4666 
L 3578 4134 
L 1259 4134 
L 1259 2753 
L 3481 2753 
L 3481 2222 
L 1259 2222 
L 1259 531 
L 3634 531 
L 3634 0 
L 628 0 
L 628 4666 
z
" transform="scale(0.015625)"/>
     <path id="DejaVuSans-73" d="M 2834 3397 
L 2834 2853 
Q 2591 2978 2328 3040 
Q 2066 3103 1784 3103 
Q 1356 3103 1142 2972 
Q 928 2841 928 2578 
Q 928 2378 1081 2264 
Q 1234 2150 1697 2047 
L 1894 2003 
Q 2506 1872 2764 1633 
Q 3022 1394 3022 966 
Q 3022 478 2636 193 
Q 2250 -91 1575 -91 
Q 1294 -91 989 -36 
Q 684 19 347 128 
L 347 722 
Q 666 556 975 473 
Q 1284 391 1588 391 
Q 1994 391 2212 530 
Q 2431 669 2431 922 
Q 2431 1156 2273 1281 
Q 2116 1406 1581 1522 
L 1381 1569 
Q 847 1681 609 1914 
Q 372 2147 372 2553 
Q 372 3047 722 3315 
Q 1072 3584 1716 3584 
Q 2034 3584 2315 3537 
Q 2597 3491 2834 3397 
z
" transform="scale(0.015625)"/>
     <path id="DejaVuSans-61" d="M 2194 1759 
Q 1497 1759 1228 1600 
Q 959 1441 959 1056 
Q 959 750 1161 570 
Q 1363 391 1709 391 
Q 2188 391 2477 730 
Q 2766 1069 2766 1631 
L 2766 1759 
L 2194 1759 
z
M 3341 1997 
L 3341 0 
L 2766 0 
L 2766 531 
Q 2569 213 2275 61 
Q 1981 -91 1556 -91 
Q 1019 -91 701 211 
Q 384 513 384 1019 
Q 384 1609 779 1909 
Q 1175 2209 1959 2209 
L 2766 2209 
L 2766 2266 
Q 2766 2663 2505 2880 
Q 2244 3097 1772 3097 
Q 1472 3097 1187 3025 
Q 903 2953 641 2809 
L 641 3341 
Q 956 3463 1253 3523 
Q 1550 3584 1831 3584 
Q 2591 3584 2966 3190 
Q 3341 2797 3341 1997 
z
" transform="scale(0.015625)"/>
     <path id="DejaVuSans-6e" d="M 3513 2113 
L 3513 0 
L 2938 0 
L 2938 2094 
Q 2938 2591 2744 2837 
Q 2550 3084 2163 3084 
Q 1697 3084 1428 2787 
Q 1159 2491 1159 1978 
L 1159 0 
L 581 0 
L 581 3500 
L 1159 3500 
L 1159 2956 
Q 1366 3272 1645 3428 
Q 1925 3584 2291 3584 
Q 2894 3584 3203 3211 
Q 3513 2838 3513 2113 
z
" transform="scale(0.015625)"/>
     <path id="DejaVuSans-74" d="M 1172 4494 
L 1172 3500 
L 2356 3500 
L 2356 3053 
L 1172 3053 
L 1172 1153 
Q 1172 725 1289 603 
Q 1406 481 1766 481 
L 2356 481 
L 2356 0 
L 1766 0 
Q 1100 0 847 248 
Q 594 497 594 1153 
L 594 3053 
L 172 3053 
L 172 3500 
L 594 3500 
L 594 4494 
L 1172 4494 
z
" transform="scale(0.015625)"/>
     <path id="DejaVuSans-69" d="M 603 3500 
L 1178 3500 
L 1178 0 
L 603 0 
L 603 3500 
z
M 603 4863 
L 1178 4863 
L 1178 4134 
L 603 4134 
L 603 4863 
z
" transform="scale(0.015625)"/>
     <path id="DejaVuSans-6f" d="M 1959 3097 
Q 1497 3097 1228 2736 
Q 959 2375 959 1747 
Q 959 1119 1226 758 
Q 1494 397 1959 397 
Q 2419 397 2687 759 
Q 2956 1122 2956 1747 
Q 2956 2369 2687 2733 
Q 2419 3097 1959 3097 
z
M 1959 3584 
Q 2709 3584 3137 3096 
Q 3566 2609 3566 1747 
Q 3566 888 3137 398 
Q 2709 -91 1959 -91 
Q 1206 -91 779 398 
Q 353 888 353 1747 
Q 353 2609 779 3096 
Q 1206 3584 1959 3584 
z
" transform="scale(0.015625)"/>
     <path id="DejaVuSans-72" d="M 2631 2963 
Q 2534 3019 2420 3045 
Q 2306 3072 2169 3072 
Q 1681 3072 1420 2755 
Q 1159 2438 1159 1844 
L 1159 0 
L 581 0 
L 581 3500 
L 1159 3500 
L 1159 2956 
Q 1341 3275 1631 3429 
Q 1922 3584 2338 3584 
Q 2397 3584 2469 3576 
Q 2541 3569 2628 3553 
L 2631 2963 
z
" transform="scale(0.015625)"/>
     <path id="DejaVuSans-65" d="M 3597 1894 
L 3597 1613 
L 953 1613 
Q 991 1019 1311 708 
Q 1631 397 2203 397 
Q 2534 397 2845 478 
Q 3156 559 3463 722 
L 3463 178 
Q 3153 47 2828 -22 
Q 2503 -91 2169 -91 
Q 1331 -91 842 396 
Q 353 884 353 1716 
Q 353 2575 817 3079 
Q 1281 3584 2069 3584 
Q 2775 3584 3186 3129 
Q 3597 2675 3597 1894 
z
M 3022 2063 
Q 3016 2534 2758 2815 
Q 2500 3097 2075 3097 
Q 1594 3097 1305 2825 
Q 1016 2553 972 2059 
L 3022 2063 
z
" transform="scale(0.015625)"/>
     <path id="DejaVuSans-20" transform="scale(0.015625)"/>
     <path id="DejaVuSans-63" d="M 3122 3366 
L 3122 2828 
Q 2878 2963 2633 3030 
Q 2388 3097 2138 3097 
Q 1578 3097 1268 2742 
Q 959 2388 959 1747 
Q 959 1106 1268 751 
Q 1578 397 2138 397 
Q 2388 397 2633 464 
Q 2878 531 3122 666 
L 3122 134 
Q 2881 22 2623 -34 
Q 2366 -91 2075 -91 
Q 1284 -91 818 406 
Q 353 903 353 1747 
Q 353 2603 823 3093 
Q 1294 3584 2113 3584 
Q 2378 3584 2631 3529 
Q 2884 3475 3122 3366 
z
" transform="scale(0.015625)"/>
     <path id="DejaVuSans-75" d="M 544 1381 
L 544 3500 
L 1119 3500 
L 1119 1403 
Q 1119 906 1312 657 
Q 1506 409 1894 409 
Q 2359 409 2629 706 
Q 2900 1003 2900 1516 
L 2900 3500 
L 3475 3500 
L 3475 0 
L 2900 0 
L 2900 538 
Q 2691 219 2414 64 
Q 2138 -91 1772 -91 
Q 1169 -91 856 284 
Q 544 659 544 1381 
z
M 1991 3584 
L 1991 3584 
z
" transform="scale(0.015625)"/>
     <path id="DejaVuSans-66" d="M 2375 4863 
L 2375 4384 
L 1825 4384 
Q 1516 4384 1395 4259 
Q 1275 4134 1275 3809 
L 1275 3500 
L 2222 3500 
L 2222 3053 
L 1275 3053 
L 1275 0 
L 697 0 
L 697 3053 
L 147 3053 
L 147 3500 
L 697 3500 
L 697 3744 
Q 697 4328 969 4595 
Q 1241 4863 1831 4863 
L 2375 4863 
z
" transform="scale(0.015625)"/>
     <path id="DejaVuSans-76" d="M 191 3500 
L 800 3500 
L 1894 563 
L 2988 3500 
L 3597 3500 
L 2284 0 
L 1503 0 
L 191 3500 
z
" transform="scale(0.015625)"/>
     <path id="DejaVuSans-62" d="M 3116 1747 
Q 3116 2381 2855 2742 
Q 2594 3103 2138 3103 
Q 1681 3103 1420 2742 
Q 1159 2381 1159 1747 
Q 1159 1113 1420 752 
Q 1681 391 2138 391 
Q 2594 391 2855 752 
Q 3116 1113 3116 1747 
z
M 1159 2969 
Q 1341 3281 1617 3432 
Q 1894 3584 2278 3584 
Q 2916 3584 3314 3078 
Q 3713 2572 3713 1747 
Q 3713 922 3314 415 
Q 2916 -91 2278 -91 
Q 1894 -91 1617 61 
Q 1341 213 1159 525 
L 1159 0 
L 581 0 
L 581 4863 
L 1159 4863 
L 1159 2969 
z
" transform="scale(0.015625)"/>
     <path id="DejaVuSans-2d" d="M 313 2009 
L 1997 2009 
L 1997 1497 
L 313 1497 
L 313 2009 
z
" transform="scale(0.015625)"/>
     <path id="DejaVuSans-4e" d="M 628 4666 
L 1478 4666 
L 3547 763 
L 3547 4666 
L 4159 4666 
L 4159 0 
L 3309 0 
L 1241 3903 
L 1241 0 
L 628 0 
L 628 4666 
z
" transform="scale(0.015625)"/>
     <path id="DejaVuSans-79" d="M 2059 -325 
Q 1816 -950 1584 -1140 
Q 1353 -1331 966 -1331 
L 506 -1331 
L 506 -850 
L 844 -850 
Q 1081 -850 1212 -737 
Q 1344 -625 1503 -206 
L 1606 56 
L 191 3500 
L 800 3500 
L 1894 763 
L 2988 3500 
L 3597 3500 
L 2059 -325 
z
" transform="scale(0.015625)"/>
     <path id="DejaVuSans-71" d="M 947 1747 
Q 947 1113 1208 752 
Q 1469 391 1925 391 
Q 2381 391 2643 752 
Q 2906 1113 2906 1747 
Q 2906 2381 2643 2742 
Q 2381 3103 1925 3103 
Q 1469 3103 1208 2742 
Q 947 2381 947 1747 
z
M 2906 525 
Q 2725 213 2448 61 
Q 2172 -91 1784 -91 
Q 1150 -91 751 415 
Q 353 922 353 1747 
Q 353 2572 751 3078 
Q 1150 3584 1784 3584 
Q 2172 3584 2448 3432 
Q 2725 3281 2906 2969 
L 2906 3500 
L 3481 3500 
L 3481 -1331 
L 2906 -1331 
L 2906 525 
z
" transform="scale(0.015625)"/>
    </defs>
    <use xlink:href="#DejaVuSans-45"/>
    <use xlink:href="#DejaVuSans-73" x="63.183594"/>
    <use xlink:href="#DejaVuSans-61" x="115.283203"/>
    <use xlink:href="#DejaVuSans-6e" x="176.5625"/>
    <use xlink:href="#DejaVuSans-74" x="239.941406"/>
    <use xlink:href="#DejaVuSans-69" x="279.150391"/>
    <use xlink:href="#DejaVuSans-6f" x="306.933594"/>
    <use xlink:href="#DejaVuSans-6e" x="368.115234"/>
    <use xlink:href="#DejaVuSans-61" x="431.494141"/>
    <use xlink:href="#DejaVuSans-72" x="492.773438"/>
    <use xlink:href="#DejaVuSans-65" x="531.636719"/>
    <use xlink:href="#DejaVuSans-20" x="593.160156"/>
    <use xlink:href="#DejaVuSans-63" x="624.947266"/>
    <use xlink:href="#DejaVuSans-75" x="679.927734"/>
    <use xlink:href="#DejaVuSans-20" x="743.306641"/>
    <use xlink:href="#DejaVuSans-66" x="775.09375"/>
    <use xlink:href="#DejaVuSans-72" x="810.298828"/>
    <use xlink:href="#DejaVuSans-65" x="849.162109"/>
    <use xlink:href="#DejaVuSans-63" x="910.685547"/>
    <use xlink:href="#DejaVuSans-76" x="965.666016"/>
    <use xlink:href="#DejaVuSans-65" x="1024.845703"/>
    <use xlink:href="#DejaVuSans-6e" x="1086.369141"/>
    <use xlink:href="#DejaVuSans-74" x="1149.748047"/>
    <use xlink:href="#DejaVuSans-61" x="1188.957031"/>
    <use xlink:href="#DejaVuSans-20" x="1250.236328"/>
    <use xlink:href="#DejaVuSans-73" x="1282.023438"/>
    <use xlink:href="#DejaVuSans-75" x="1334.123047"/>
    <use xlink:href="#DejaVuSans-62" x="1397.501953"/>
    <use xlink:href="#DejaVuSans-2d" x="1460.978516"/>
    <use xlink:href="#DejaVuSans-4e" x="1497.0625"/>
    <use xlink:href="#DejaVuSans-79" x="1571.867188"/>
    <use xlink:href="#DejaVuSans-71" x="1631.046875"/>
    <use xlink:href="#DejaVuSans-75" x="1694.523438"/>
    <use xlink:href="#DejaVuSans-69" x="1757.902344"/>
    <use xlink:href="#DejaVuSans-73" x="1785.685547"/>
    <use xlink:href="#DejaVuSans-74" x="1837.785156"/>
   </g>
  </g>
 </g>
 <defs>
  <clipPath id="p9548416d08">
   <rect x="57.6" y="41.472" width="357.12" height="57.850435"/>
  </clipPath>
  <clipPath id="p78cfdd5714">
   <rect x="57.6" y="110.892522" width="357.12" height="57.850435"/>
  </clipPath>
  <clipPath id="pbbd00b8598">
   <rect x="57.6" y="180.313043" width="357.12" height="57.850435"/>
  </clipPath>
  <clipPath id="pe8370fa85e">
   <rect x="57.6" y="249.733565" width="357.12" height="57.850435"/>
  </clipPath>
 </defs>
</svg>
