<?xml version="1.0" encoding="utf-8" standalone="no"?>
<!DOCTYPE svg PUBLIC "-//W3C//DTD SVG 1.1//EN"
  "http://www.w3.org/Graphics/SVG/1.1/DTD/svg11.dtd">
<svg xmlns:xlink="http://www.w3.org/1999/xlink" width="460.8pt" height="345.6pt" viewBox="0 0 460.8 345.6" xmlns="http://www.w3.org/2000/svg" version="1.1">
 <metadata>
  <rdf:RDF xmlns:dc="http://purl.org/dc/elements/1.1/" xmlns:cc="http://creativecommons.org/ns#" xmlns:rdf="http://www.w3.org/1999/02/22-rdf-syntax-ns#">
   <cc:Work>
    <dc:type rdf:resource="http://purl.org/dc/dcmitype/StillImage"/>
    <dc:date>2024-10-26T16:09:54.113711</dc:date>
    <dc:format>image/svg+xml</dc:format>
    <dc:creator>
     <cc:Agent>
      <dc:title>Matplotlib v3.9.2, https://matplotlib.org/</dc:title>
     </cc:Agent>
    </dc:creator>
   </cc:Work>
  </rdf:RDF>
 </metadata>
 <defs>
  <style type="text/css">*{stroke-linejoin: round; stroke-linecap: butt}</style>
 </defs>
 <g id="figure_1">
  <g id="patch_1">
   <path d="M 0 345.6 
L 460.8 345.6 
L 460.8 0 
L 0 0 
z
" style="fill: #ffffff"/>
  </g>
  <g id="axes_1">
   <g id="patch_2">
    <path d="M 57.6 307.584 
L 414.72 307.584 
L 414.72 41.472 
L 57.6 41.472 
z
" style="fill: #ffffff"/>
   </g>
   <g id="PathCollection_1">
    <defs>
     <path id="m36b606724e" d="M 0 3 
C 0.795609 3 1.55874 2.683901 2.12132 2.12132 
C 2.683901 1.55874 3 0.795609 3 0 
C 3 -0.795609 2.683901 -1.55874 2.12132 -2.12132 
C 1.55874 -2.683901 0.795609 -3 0 -3 
C -0.795609 -3 -1.55874 -2.683901 -2.12132 -2.12132 
C -2.683901 -1.55874 -3 -0.795609 -3 0 
C -3 0.795609 -2.683901 1.55874 -2.12132 2.12132 
C -1.55874 2.683901 -0.795609 3 0 3 
z
" style="stroke: #ffa500"/>
    </defs>
    <g clip-path="url(#pfbd04fe94c)">
     <use xlink:href="#m36b606724e" x="73.832727" y="174.528" style="fill: #ffa500; stroke: #ffa500"/>
     <use xlink:href="#m36b606724e" x="76.429964" y="110.340495" style="fill: #ffa500; stroke: #ffa500"/>
     <use xlink:href="#m36b606724e" x="79.0272" y="187.667571" style="fill: #ffa500; stroke: #ffa500"/>
     <use xlink:href="#m36b606724e" x="81.624436" y="160.218863" style="fill: #ffa500; stroke: #ffa500"/>
     <use xlink:href="#m36b606724e" x="84.221673" y="223.375603" style="fill: #ffa500; stroke: #ffa500"/>
     <use xlink:href="#m36b606724e" x="86.818909" y="203.825103" style="fill: #ffa500; stroke: #ffa500"/>
     <use xlink:href="#m36b606724e" x="89.416145" y="103.963662" style="fill: #ffa500; stroke: #ffa500"/>
     <use xlink:href="#m36b606724e" x="92.013382" y="178.317517" style="fill: #ffa500; stroke: #ffa500"/>
     <use xlink:href="#m36b606724e" x="94.610618" y="165.991075" style="fill: #ffa500; stroke: #ffa500"/>
     <use xlink:href="#m36b606724e" x="97.207855" y="203.306335" style="fill: #ffa500; stroke: #ffa500"/>
     <use xlink:href="#m36b606724e" x="99.805091" y="227.715339" style="fill: #ffa500; stroke: #ffa500"/>
     <use xlink:href="#m36b606724e" x="102.402327" y="109.000822" style="fill: #ffa500; stroke: #ffa500"/>
     <use xlink:href="#m36b606724e" x="104.999564" y="161.881777" style="fill: #ffa500; stroke: #ffa500"/>
     <use xlink:href="#m36b606724e" x="107.5968" y="175.535298" style="fill: #ffa500; stroke: #ffa500"/>
     <use xlink:href="#m36b606724e" x="110.194036" y="183.449256" style="fill: #ffa500; stroke: #ffa500"/>
     <use xlink:href="#m36b606724e" x="112.791273" y="242.013761" style="fill: #ffa500; stroke: #ffa500"/>
     <use xlink:href="#m36b606724e" x="115.388509" y="125.458912" style="fill: #ffa500; stroke: #ffa500"/>
     <use xlink:href="#m36b606724e" x="117.985745" y="141.594366" style="fill: #ffa500; stroke: #ffa500"/>
     <use xlink:href="#m36b606724e" x="120.582982" y="184.644311" style="fill: #ffa500; stroke: #ffa500"/>
     <use xlink:href="#m36b606724e" x="123.180218" y="168.232755" style="fill: #ffa500; stroke: #ffa500"/>
     <use xlink:href="#m36b606724e" x="125.777455" y="244.68424" style="fill: #ffa500; stroke: #ffa500"/>
     <use xlink:href="#m36b606724e" x="128.374691" y="150.820434" style="fill: #ffa500; stroke: #ffa500"/>
     <use xlink:href="#m36b606724e" x="130.971927" y="122.080747" style="fill: #ffa500; stroke: #ffa500"/>
     <use xlink:href="#m36b606724e" x="133.569164" y="189.230248" style="fill: #ffa500; stroke: #ffa500"/>
     <use xlink:href="#m36b606724e" x="136.1664" y="160.506949" style="fill: #ffa500; stroke: #ffa500"/>
     <use xlink:href="#m36b606724e" x="138.763636" y="236.248862" style="fill: #ffa500; stroke: #ffa500"/>
     <use xlink:href="#m36b606724e" x="141.360873" y="180.568604" style="fill: #ffa500; stroke: #ffa500"/>
     <use xlink:href="#m36b606724e" x="143.958109" y="108.238261" style="fill: #ffa500; stroke: #ffa500"/>
     <use xlink:href="#m36b606724e" x="146.555345" y="186.451141" style="fill: #ffa500; stroke: #ffa500"/>
     <use xlink:href="#m36b606724e" x="149.152582" y="160.896041" style="fill: #ffa500; stroke: #ffa500"/>
     <use xlink:href="#m36b606724e" x="151.749818" y="219.584449" style="fill: #ffa500; stroke: #ffa500"/>
     <use xlink:href="#m36b606724e" x="154.347055" y="209.194326" style="fill: #ffa500; stroke: #ffa500"/>
     <use xlink:href="#m36b606724e" x="156.944291" y="104.0202" style="fill: #ffa500; stroke: #ffa500"/>
     <use xlink:href="#m36b606724e" x="159.541527" y="175.521273" style="fill: #ffa500; stroke: #ffa500"/>
     <use xlink:href="#m36b606724e" x="162.138764" y="167.724777" style="fill: #ffa500; stroke: #ffa500"/>
     <use xlink:href="#m36b606724e" x="164.736" y="199.161235" style="fill: #ffa500; stroke: #ffa500"/>
     <use xlink:href="#m36b606724e" x="167.333236" y="231.442815" style="fill: #ffa500; stroke: #ffa500"/>
     <use xlink:href="#m36b606724e" x="169.930473" y="111.424586" style="fill: #ffa500; stroke: #ffa500"/>
     <use xlink:href="#m36b606724e" x="172.527709" y="157.998126" style="fill: #ffa500; stroke: #ffa500"/>
     <use xlink:href="#m36b606724e" x="175.124945" y="177.532089" style="fill: #ffa500; stroke: #ffa500"/>
     <use xlink:href="#m36b606724e" x="177.722182" y="179.915145" style="fill: #ffa500; stroke: #ffa500"/>
     <use xlink:href="#m36b606724e" x="180.319418" y="243.49877" style="fill: #ffa500; stroke: #ffa500"/>
     <use xlink:href="#m36b606724e" x="182.916655" y="88.064962" style="fill: #ffa500; stroke: #ffa500"/>
     <use xlink:href="#m36b606724e" x="185.513891" y="139.48273" style="fill: #ffa500; stroke: #ffa500"/>
     <use xlink:href="#m36b606724e" x="188.111127" y="119.007751" style="fill: #ffa500; stroke: #ffa500"/>
     <use xlink:href="#m36b606724e" x="190.708364" y="153.317913" style="fill: #ffa500; stroke: #ffa500"/>
     <use xlink:href="#m36b606724e" x="193.3056" y="204.301994" style="fill: #ffa500; stroke: #ffa500"/>
     <use xlink:href="#m36b606724e" x="195.902836" y="174.374953" style="fill: #ffa500; stroke: #ffa500"/>
     <use xlink:href="#m36b606724e" x="198.500073" y="133.91229" style="fill: #ffa500; stroke: #ffa500"/>
     <use xlink:href="#m36b606724e" x="201.097309" y="232.793906" style="fill: #ffa500; stroke: #ffa500"/>
     <use xlink:href="#m36b606724e" x="203.694545" y="198.103271" style="fill: #ffa500; stroke: #ffa500"/>
     <use xlink:href="#m36b606724e" x="206.291782" y="252.804113" style="fill: #ffa500; stroke: #ffa500"/>
     <use xlink:href="#m36b606724e" x="208.889018" y="198.553317" style="fill: #ffa500; stroke: #ffa500"/>
     <use xlink:href="#m36b606724e" x="211.486255" y="70.69844" style="fill: #ffa500; stroke: #ffa500"/>
     <use xlink:href="#m36b606724e" x="214.083491" y="167.514321" style="fill: #ffa500; stroke: #ffa500"/>
     <use xlink:href="#m36b606724e" x="216.680727" y="98.863235" style="fill: #ffa500; stroke: #ffa500"/>
     <use xlink:href="#m36b606724e" x="219.277964" y="214.915333" style="fill: #ffa500; stroke: #ffa500"/>
     <use xlink:href="#m36b606724e" x="221.8752" y="176.379519" style="fill: #ffa500; stroke: #ffa500"/>
     <use xlink:href="#m36b606724e" x="224.472436" y="155.034824" style="fill: #ffa500; stroke: #ffa500"/>
     <use xlink:href="#m36b606724e" x="227.069673" y="170.557415" style="fill: #ffa500; stroke: #ffa500"/>
     <use xlink:href="#m36b606724e" x="229.666909" y="247.755424" style="fill: #ffa500; stroke: #ffa500"/>
     <use xlink:href="#m36b606724e" x="232.264145" y="187.204461" style="fill: #ffa500; stroke: #ffa500"/>
     <use xlink:href="#m36b606724e" x="234.861382" y="286.698499" style="fill: #ffa500; stroke: #ffa500"/>
     <use xlink:href="#m36b606724e" x="237.458618" y="62.357501" style="fill: #ffa500; stroke: #ffa500"/>
     <use xlink:href="#m36b606724e" x="240.055855" y="161.851539" style="fill: #ffa500; stroke: #ffa500"/>
     <use xlink:href="#m36b606724e" x="242.653091" y="101.300576" style="fill: #ffa500; stroke: #ffa500"/>
     <use xlink:href="#m36b606724e" x="245.250327" y="178.498585" style="fill: #ffa500; stroke: #ffa500"/>
     <use xlink:href="#m36b606724e" x="247.847564" y="194.021176" style="fill: #ffa500; stroke: #ffa500"/>
     <use xlink:href="#m36b606724e" x="250.4448" y="172.676481" style="fill: #ffa500; stroke: #ffa500"/>
     <use xlink:href="#m36b606724e" x="253.042036" y="134.140667" style="fill: #ffa500; stroke: #ffa500"/>
     <use xlink:href="#m36b606724e" x="255.639273" y="250.192765" style="fill: #ffa500; stroke: #ffa500"/>
     <use xlink:href="#m36b606724e" x="258.236509" y="181.541679" style="fill: #ffa500; stroke: #ffa500"/>
     <use xlink:href="#m36b606724e" x="260.833745" y="278.35756" style="fill: #ffa500; stroke: #ffa500"/>
     <use xlink:href="#m36b606724e" x="263.430982" y="150.502683" style="fill: #ffa500; stroke: #ffa500"/>
     <use xlink:href="#m36b606724e" x="266.028218" y="96.251887" style="fill: #ffa500; stroke: #ffa500"/>
     <use xlink:href="#m36b606724e" x="268.625455" y="150.952729" style="fill: #ffa500; stroke: #ffa500"/>
     <use xlink:href="#m36b606724e" x="271.222691" y="116.262094" style="fill: #ffa500; stroke: #ffa500"/>
     <use xlink:href="#m36b606724e" x="273.819927" y="215.14371" style="fill: #ffa500; stroke: #ffa500"/>
     <use xlink:href="#m36b606724e" x="276.417164" y="174.681047" style="fill: #ffa500; stroke: #ffa500"/>
     <use xlink:href="#m36b606724e" x="279.0144" y="144.754006" style="fill: #ffa500; stroke: #ffa500"/>
     <use xlink:href="#m36b606724e" x="281.611636" y="195.738087" style="fill: #ffa500; stroke: #ffa500"/>
     <use xlink:href="#m36b606724e" x="284.208873" y="230.048249" style="fill: #ffa500; stroke: #ffa500"/>
     <use xlink:href="#m36b606724e" x="286.806109" y="209.57327" style="fill: #ffa500; stroke: #ffa500"/>
     <use xlink:href="#m36b606724e" x="289.403345" y="260.991038" style="fill: #ffa500; stroke: #ffa500"/>
     <use xlink:href="#m36b606724e" x="292.000582" y="122.539142" style="fill: #ffa500; stroke: #ffa500"/>
     <use xlink:href="#m36b606724e" x="294.597818" y="178.808739" style="fill: #ffa500; stroke: #ffa500"/>
     <use xlink:href="#m36b606724e" x="297.195055" y="95.049638" style="fill: #ffa500; stroke: #ffa500"/>
     <use xlink:href="#m36b606724e" x="299.792291" y="182.407735" style="fill: #ffa500; stroke: #ffa500"/>
     <use xlink:href="#m36b606724e" x="302.389527" y="121.625884" style="fill: #ffa500; stroke: #ffa500"/>
     <use xlink:href="#m36b606724e" x="304.986764" y="224.873946" style="fill: #ffa500; stroke: #ffa500"/>
     <use xlink:href="#m36b606724e" x="307.584" y="167.286653" style="fill: #ffa500; stroke: #ffa500"/>
     <use xlink:href="#m36b606724e" x="310.181236" y="250.772961" style="fill: #ffa500; stroke: #ffa500"/>
     <use xlink:href="#m36b606724e" x="312.778473" y="175.565042" style="fill: #ffa500; stroke: #ffa500"/>
     <use xlink:href="#m36b606724e" x="315.375709" y="222.964366" style="fill: #ffa500; stroke: #ffa500"/>
     <use xlink:href="#m36b606724e" x="317.972945" y="141.046396" style="fill: #ffa500; stroke: #ffa500"/>
     <use xlink:href="#m36b606724e" x="320.570182" y="170.647013" style="fill: #ffa500; stroke: #ffa500"/>
     <use xlink:href="#m36b606724e" x="323.167418" y="116.008609" style="fill: #ffa500; stroke: #ffa500"/>
     <use xlink:href="#m36b606724e" x="325.764655" y="152.189382" style="fill: #ffa500; stroke: #ffa500"/>
     <use xlink:href="#m36b606724e" x="328.361891" y="142.638247" style="fill: #ffa500; stroke: #ffa500"/>
     <use xlink:href="#m36b606724e" x="330.959127" y="180.562881" style="fill: #ffa500; stroke: #ffa500"/>
     <use xlink:href="#m36b606724e" x="333.556364" y="198.103271" style="fill: #ffa500; stroke: #ffa500"/>
     <use xlink:href="#m36b606724e" x="336.1536" y="207.323129" style="fill: #ffa500; stroke: #ffa500"/>
     <use xlink:href="#m36b606724e" x="338.750836" y="223.222767" style="fill: #ffa500; stroke: #ffa500"/>
     <use xlink:href="#m36b606724e" x="341.348073" y="185.715562" style="fill: #ffa500; stroke: #ffa500"/>
     <use xlink:href="#m36b606724e" x="343.945309" y="197.875861" style="fill: #ffa500; stroke: #ffa500"/>
     <use xlink:href="#m36b606724e" x="346.542545" y="131.63024" style="fill: #ffa500; stroke: #ffa500"/>
     <use xlink:href="#m36b606724e" x="349.139782" y="166.133488" style="fill: #ffa500; stroke: #ffa500"/>
     <use xlink:href="#m36b606724e" x="351.737018" y="103.897688" style="fill: #ffa500; stroke: #ffa500"/>
     <use xlink:href="#m36b606724e" x="354.334255" y="178.812197" style="fill: #ffa500; stroke: #ffa500"/>
     <use xlink:href="#m36b606724e" x="356.931491" y="129.241414" style="fill: #ffa500; stroke: #ffa500"/>
     <use xlink:href="#m36b606724e" x="359.528727" y="227.438568" style="fill: #ffa500; stroke: #ffa500"/>
     <use xlink:href="#m36b606724e" x="362.125964" y="168.443865" style="fill: #ffa500; stroke: #ffa500"/>
     <use xlink:href="#m36b606724e" x="364.7232" y="254.662983" style="fill: #ffa500; stroke: #ffa500"/>
     <use xlink:href="#m36b606724e" x="367.320436" y="167.240761" style="fill: #ffa500; stroke: #ffa500"/>
     <use xlink:href="#m36b606724e" x="369.917673" y="227.749375" style="fill: #ffa500; stroke: #ffa500"/>
     <use xlink:href="#m36b606724e" x="372.514909" y="126.407794" style="fill: #ffa500; stroke: #ffa500"/>
     <use xlink:href="#m36b606724e" x="375.112145" y="180.567387" style="fill: #ffa500; stroke: #ffa500"/>
     <use xlink:href="#m36b606724e" x="377.709382" y="100.810743" style="fill: #ffa500; stroke: #ffa500"/>
     <use xlink:href="#m36b606724e" x="380.306618" y="170.044736" style="fill: #ffa500; stroke: #ffa500"/>
     <use xlink:href="#m36b606724e" x="382.903855" y="128.638615" style="fill: #ffa500; stroke: #ffa500"/>
     <use xlink:href="#m36b606724e" x="385.501091" y="203.130218" style="fill: #ffa500; stroke: #ffa500"/>
     <use xlink:href="#m36b606724e" x="388.098327" y="181.918347" style="fill: #ffa500; stroke: #ffa500"/>
     <use xlink:href="#m36b606724e" x="390.695564" y="228.263813" style="fill: #ffa500; stroke: #ffa500"/>
     <use xlink:href="#m36b606724e" x="393.2928" y="202.028055" style="fill: #ffa500; stroke: #ffa500"/>
     <use xlink:href="#m36b606724e" x="395.890036" y="202.307337" style="fill: #ffa500; stroke: #ffa500"/>
     <use xlink:href="#m36b606724e" x="398.487273" y="174.528" style="fill: #ffa500; stroke: #ffa500"/>
    </g>
   </g>
   <g id="matplotlib.axis_1">
    <g id="xtick_1">
     <g id="line2d_1">
      <defs>
       <path id="m9a217b0f8f" d="M 0 0 
L 0 3.5 
" style="stroke: #000000; stroke-width: 0.8"/>
      </defs>
      <g>
       <use xlink:href="#m9a217b0f8f" x="73.832727" y="307.584" style="stroke: #000000; stroke-width: 0.8"/>
      </g>
     </g>
     <g id="text_1">
      <!-- 0.00 -->
      <g transform="translate(62.699915 322.182437) scale(0.1 -0.1)">
       <defs>
        <path id="DejaVuSans-30" d="M 2034 4250 
Q 1547 4250 1301 3770 
Q 1056 3291 1056 2328 
Q 1056 1369 1301 889 
Q 1547 409 2034 409 
Q 2525 409 2770 889 
Q 3016 1369 3016 2328 
Q 3016 3291 2770 3770 
Q 2525 4250 2034 4250 
z
M 2034 4750 
Q 2819 4750 3233 4129 
Q 3647 3509 3647 2328 
Q 3647 1150 3233 529 
Q 2819 -91 2034 -91 
Q 1250 -91 836 529 
Q 422 1150 422 2328 
Q 422 3509 836 4129 
Q 1250 4750 2034 4750 
z
" transform="scale(0.015625)"/>
        <path id="DejaVuSans-2e" d="M 684 794 
L 1344 794 
L 1344 0 
L 684 0 
L 684 794 
z
" transform="scale(0.015625)"/>
       </defs>
       <use xlink:href="#DejaVuSans-30"/>
       <use xlink:href="#DejaVuSans-2e" x="63.623047"/>
       <use xlink:href="#DejaVuSans-30" x="95.410156"/>
       <use xlink:href="#DejaVuSans-30" x="159.033203"/>
      </g>
     </g>
    </g>
    <g id="xtick_2">
     <g id="line2d_2">
      <g>
       <use xlink:href="#m9a217b0f8f" x="127.941818" y="307.584" style="stroke: #000000; stroke-width: 0.8"/>
      </g>
     </g>
     <g id="text_2">
      <!-- 0.05 -->
      <g transform="translate(116.809006 322.182437) scale(0.1 -0.1)">
       <defs>
        <path id="DejaVuSans-35" d="M 691 4666 
L 3169 4666 
L 3169 4134 
L 1269 4134 
L 1269 2991 
Q 1406 3038 1543 3061 
Q 1681 3084 1819 3084 
Q 2600 3084 3056 2656 
Q 3513 2228 3513 1497 
Q 3513 744 3044 326 
Q 2575 -91 1722 -91 
Q 1428 -91 1123 -41 
Q 819 9 494 109 
L 494 744 
Q 775 591 1075 516 
Q 1375 441 1709 441 
Q 2250 441 2565 725 
Q 2881 1009 2881 1497 
Q 2881 1984 2565 2268 
Q 2250 2553 1709 2553 
Q 1456 2553 1204 2497 
Q 953 2441 691 2322 
L 691 4666 
z
" transform="scale(0.015625)"/>
       </defs>
       <use xlink:href="#DejaVuSans-30"/>
       <use xlink:href="#DejaVuSans-2e" x="63.623047"/>
       <use xlink:href="#DejaVuSans-30" x="95.410156"/>
       <use xlink:href="#DejaVuSans-35" x="159.033203"/>
      </g>
     </g>
    </g>
    <g id="xtick_3">
     <g id="line2d_3">
      <g>
       <use xlink:href="#m9a217b0f8f" x="182.050909" y="307.584" style="stroke: #000000; stroke-width: 0.8"/>
      </g>
     </g>
     <g id="text_3">
      <!-- 0.10 -->
      <g transform="translate(170.918097 322.182437) scale(0.1 -0.1)">
       <defs>
        <path id="DejaVuSans-31" d="M 794 531 
L 1825 531 
L 1825 4091 
L 703 3866 
L 703 4441 
L 1819 4666 
L 2450 4666 
L 2450 531 
L 3481 531 
L 3481 0 
L 794 0 
L 794 531 
z
" transform="scale(0.015625)"/>
       </defs>
       <use xlink:href="#DejaVuSans-30"/>
       <use xlink:href="#DejaVuSans-2e" x="63.623047"/>
       <use xlink:href="#DejaVuSans-31" x="95.410156"/>
       <use xlink:href="#DejaVuSans-30" x="159.033203"/>
      </g>
     </g>
    </g>
    <g id="xtick_4">
     <g id="line2d_4">
      <g>
       <use xlink:href="#m9a217b0f8f" x="236.16" y="307.584" style="stroke: #000000; stroke-width: 0.8"/>
      </g>
     </g>
     <g id="text_4">
      <!-- 0.15 -->
      <g transform="translate(225.027188 322.182437) scale(0.1 -0.1)">
       <use xlink:href="#DejaVuSans-30"/>
       <use xlink:href="#DejaVuSans-2e" x="63.623047"/>
       <use xlink:href="#DejaVuSans-31" x="95.410156"/>
       <use xlink:href="#DejaVuSans-35" x="159.033203"/>
      </g>
     </g>
    </g>
    <g id="xtick_5">
     <g id="line2d_5">
      <g>
       <use xlink:href="#m9a217b0f8f" x="290.269091" y="307.584" style="stroke: #000000; stroke-width: 0.8"/>
      </g>
     </g>
     <g id="text_5">
      <!-- 0.20 -->
      <g transform="translate(279.136278 322.182437) scale(0.1 -0.1)">
       <defs>
        <path id="DejaVuSans-32" d="M 1228 531 
L 3431 531 
L 3431 0 
L 469 0 
L 469 531 
Q 828 903 1448 1529 
Q 2069 2156 2228 2338 
Q 2531 2678 2651 2914 
Q 2772 3150 2772 3378 
Q 2772 3750 2511 3984 
Q 2250 4219 1831 4219 
Q 1534 4219 1204 4116 
Q 875 4013 500 3803 
L 500 4441 
Q 881 4594 1212 4672 
Q 1544 4750 1819 4750 
Q 2544 4750 2975 4387 
Q 3406 4025 3406 3419 
Q 3406 3131 3298 2873 
Q 3191 2616 2906 2266 
Q 2828 2175 2409 1742 
Q 1991 1309 1228 531 
z
" transform="scale(0.015625)"/>
       </defs>
       <use xlink:href="#DejaVuSans-30"/>
       <use xlink:href="#DejaVuSans-2e" x="63.623047"/>
       <use xlink:href="#DejaVuSans-32" x="95.410156"/>
       <use xlink:href="#DejaVuSans-30" x="159.033203"/>
      </g>
     </g>
    </g>
    <g id="xtick_6">
     <g id="line2d_6">
      <g>
       <use xlink:href="#m9a217b0f8f" x="344.378182" y="307.584" style="stroke: #000000; stroke-width: 0.8"/>
      </g>
     </g>
     <g id="text_6">
      <!-- 0.25 -->
      <g transform="translate(333.245369 322.182437) scale(0.1 -0.1)">
       <use xlink:href="#DejaVuSans-30"/>
       <use xlink:href="#DejaVuSans-2e" x="63.623047"/>
       <use xlink:href="#DejaVuSans-32" x="95.410156"/>
       <use xlink:href="#DejaVuSans-35" x="159.033203"/>
      </g>
     </g>
    </g>
    <g id="xtick_7">
     <g id="line2d_7">
      <g>
       <use xlink:href="#m9a217b0f8f" x="398.487273" y="307.584" style="stroke: #000000; stroke-width: 0.8"/>
      </g>
     </g>
     <g id="text_7">
      <!-- 0.30 -->
      <g transform="translate(387.35446 322.182437) scale(0.1 -0.1)">
       <defs>
        <path id="DejaVuSans-33" d="M 2597 2516 
Q 3050 2419 3304 2112 
Q 3559 1806 3559 1356 
Q 3559 666 3084 287 
Q 2609 -91 1734 -91 
Q 1441 -91 1130 -33 
Q 819 25 488 141 
L 488 750 
Q 750 597 1062 519 
Q 1375 441 1716 441 
Q 2309 441 2620 675 
Q 2931 909 2931 1356 
Q 2931 1769 2642 2001 
Q 2353 2234 1838 2234 
L 1294 2234 
L 1294 2753 
L 1863 2753 
Q 2328 2753 2575 2939 
Q 2822 3125 2822 3475 
Q 2822 3834 2567 4026 
Q 2313 4219 1838 4219 
Q 1578 4219 1281 4162 
Q 984 4106 628 3988 
L 628 4550 
Q 988 4650 1302 4700 
Q 1616 4750 1894 4750 
Q 2613 4750 3031 4423 
Q 3450 4097 3450 3541 
Q 3450 3153 3228 2886 
Q 3006 2619 2597 2516 
z
" transform="scale(0.015625)"/>
       </defs>
       <use xlink:href="#DejaVuSans-30"/>
       <use xlink:href="#DejaVuSans-2e" x="63.623047"/>
       <use xlink:href="#DejaVuSans-33" x="95.410156"/>
       <use xlink:href="#DejaVuSans-30" x="159.033203"/>
      </g>
     </g>
    </g>
   </g>
   <g id="matplotlib.axis_2">
    <g id="ytick_1">
     <g id="line2d_8">
      <defs>
       <path id="m63092ecedb" d="M 0 0 
L -3.5 0 
" style="stroke: #000000; stroke-width: 0.8"/>
      </defs>
      <g>
       <use xlink:href="#m63092ecedb" x="57.6" y="294.853942" style="stroke: #000000; stroke-width: 0.8"/>
      </g>
     </g>
     <g id="text_8">
      <!-- −3 -->
      <g transform="translate(35.857813 298.653161) scale(0.1 -0.1)">
       <defs>
        <path id="DejaVuSans-2212" d="M 678 2272 
L 4684 2272 
L 4684 1741 
L 678 1741 
L 678 2272 
z
" transform="scale(0.015625)"/>
       </defs>
       <use xlink:href="#DejaVuSans-2212"/>
       <use xlink:href="#DejaVuSans-33" x="83.789062"/>
      </g>
     </g>
    </g>
    <g id="ytick_2">
     <g id="line2d_9">
      <g>
       <use xlink:href="#m63092ecedb" x="57.6" y="254.745295" style="stroke: #000000; stroke-width: 0.8"/>
      </g>
     </g>
     <g id="text_9">
      <!-- −2 -->
      <g transform="translate(35.857813 258.544514) scale(0.1 -0.1)">
       <use xlink:href="#DejaVuSans-2212"/>
       <use xlink:href="#DejaVuSans-32" x="83.789062"/>
      </g>
     </g>
    </g>
    <g id="ytick_3">
     <g id="line2d_10">
      <g>
       <use xlink:href="#m63092ecedb" x="57.6" y="214.636647" style="stroke: #000000; stroke-width: 0.8"/>
      </g>
     </g>
     <g id="text_10">
      <!-- −1 -->
      <g transform="translate(35.857813 218.435866) scale(0.1 -0.1)">
       <use xlink:href="#DejaVuSans-2212"/>
       <use xlink:href="#DejaVuSans-31" x="83.789062"/>
      </g>
     </g>
    </g>
    <g id="ytick_4">
     <g id="line2d_11">
      <g>
       <use xlink:href="#m63092ecedb" x="57.6" y="174.528" style="stroke: #000000; stroke-width: 0.8"/>
      </g>
     </g>
     <g id="text_11">
      <!-- 0 -->
      <g transform="translate(44.2375 178.327219) scale(0.1 -0.1)">
       <use xlink:href="#DejaVuSans-30"/>
      </g>
     </g>
    </g>
    <g id="ytick_5">
     <g id="line2d_12">
      <g>
       <use xlink:href="#m63092ecedb" x="57.6" y="134.419353" style="stroke: #000000; stroke-width: 0.8"/>
      </g>
     </g>
     <g id="text_12">
      <!-- 1 -->
      <g transform="translate(44.2375 138.218571) scale(0.1 -0.1)">
       <use xlink:href="#DejaVuSans-31"/>
      </g>
     </g>
    </g>
    <g id="ytick_6">
     <g id="line2d_13">
      <g>
       <use xlink:href="#m63092ecedb" x="57.6" y="94.310705" style="stroke: #000000; stroke-width: 0.8"/>
      </g>
     </g>
     <g id="text_13">
      <!-- 2 -->
      <g transform="translate(44.2375 98.109924) scale(0.1 -0.1)">
       <use xlink:href="#DejaVuSans-32"/>
      </g>
     </g>
    </g>
    <g id="ytick_7">
     <g id="line2d_14">
      <g>
       <use xlink:href="#m63092ecedb" x="57.6" y="54.202058" style="stroke: #000000; stroke-width: 0.8"/>
      </g>
     </g>
     <g id="text_14">
      <!-- 3 -->
      <g transform="translate(44.2375 58.001276) scale(0.1 -0.1)">
       <use xlink:href="#DejaVuSans-33"/>
      </g>
     </g>
    </g>
   </g>
   <g id="line2d_15">
    <path d="M 73.832727 174.528 
L 74.850012 123.762527 
L 75.33701 109.219328 
L 75.672498 104.548624 
L 75.856475 103.931439 
L 75.867297 103.937625 
L 75.953874 104.154374 
L 76.116207 105.344514 
L 76.375939 109.247009 
L 76.765538 119.04547 
L 77.425691 142.438107 
L 78.442975 177.244631 
L 78.908329 186.31773 
L 79.222172 189.017021 
L 79.384505 189.326823 
L 79.406149 189.314247 
L 79.514371 189.068291 
L 79.70917 187.899566 
L 80.012191 184.485581 
L 80.5533 175.321548 
L 81.364964 162.27353 
L 81.689629 159.945086 
L 81.830317 159.729483 
L 81.862784 159.754123 
L 81.981828 160.091545 
L 82.176627 161.503344 
L 82.458004 165.451795 
L 82.847602 174.452472 
L 83.432 193.888208 
L 84.719839 237.795419 
L 85.109438 244.041901 
L 85.336703 245.125006 
L 85.412459 245.032648 
L 85.542325 244.333507 
L 85.758768 241.639663 
L 86.072612 234.407585 
L 86.505499 218.594327 
L 87.176474 184.698749 
L 88.410202 122.481878 
L 88.886378 108.754046 
L 89.211044 104.465316 
L 89.373376 103.929865 
L 89.395021 103.938727 
L 89.481598 104.160103 
L 89.643931 105.358616 
L 89.903663 109.273344 
L 90.293261 119.086363 
L 90.953414 142.490017 
L 91.970699 177.279208 
L 92.436053 186.335402 
L 92.749896 189.022605 
L 92.912229 189.326401 
L 92.933873 189.313049 
L 93.042095 189.063325 
L 93.236894 187.888393 
L 93.539915 184.466674 
L 94.081024 175.296378 
L 94.892687 162.25908 
L 95.217353 159.94058 
L 95.358041 159.729942 
L 95.390508 159.755769 
L 95.509552 160.097642 
L 95.704351 161.516933 
L 95.985728 165.476156 
L 96.375326 174.490215 
L 96.959724 193.938605 
L 98.236741 237.581494 
L 98.626339 243.953689 
L 98.853605 245.12036 
L 98.92936 245.056836 
L 99.048404 244.488042 
L 99.254026 242.144184 
L 99.546224 235.889388 
L 99.957467 221.739061 
L 100.574331 191.7375 
L 102.013681 119.703313 
L 102.468213 107.71879 
L 102.771234 104.265614 
L 102.9011 103.92987 
L 102.933566 103.951925 
L 103.030966 104.26841 
L 103.214943 105.861773 
L 103.49632 110.635118 
L 103.918385 122.177894 
L 104.730048 152.068098 
L 105.520067 177.860206 
L 105.974599 186.492098 
L 106.288442 189.070565 
L 106.439952 189.325931 
L 106.461597 189.311804 
L 106.569819 189.058314 
L 106.764618 187.87718 
L 107.078461 184.295245 
L 107.630392 174.868219 
L 108.409589 162.360978 
L 108.745076 159.936121 
L 108.885765 159.730451 
L 108.918231 159.757464 
L 109.037275 160.10379 
L 109.232075 161.530575 
L 109.513451 165.500569 
L 109.90305 174.528 
L 110.487447 193.989017 
L 111.764464 237.61222 
L 112.154063 243.966497 
L 112.381329 245.121243 
L 112.457084 245.053602 
L 112.576128 244.478263 
L 112.781749 242.123063 
L 113.08477 235.556705 
L 113.506835 220.784245 
L 114.145344 189.309475 
L 115.508938 120.800446 
L 115.974292 108.08324 
L 116.288135 104.316834 
L 116.428824 103.929948 
L 116.46129 103.953756 
L 116.569512 104.334074 
L 116.753489 106.011626 
L 117.045688 111.139552 
L 117.478575 123.281917 
L 118.39846 157.368993 
L 119.101902 179.207647 
L 119.545611 187.030426 
L 119.83781 189.149886 
L 119.967676 189.325412 
L 120.000143 189.298423 
L 120.119187 188.966144 
L 120.324808 187.583961 
L 120.649473 183.64769 
L 121.266337 172.830331 
L 121.948135 162.23029 
L 122.2728 159.931707 
L 122.413488 159.731008 
L 122.435133 159.746639 
L 122.543355 160.016948 
L 122.727332 161.230073 
L 122.997886 164.767345 
L 123.376662 173.085321 
L 123.928593 190.845829 
L 125.357121 239.049437 
L 125.725075 244.35051 
L 125.930697 245.125062 
L 126.006452 244.987309 
L 126.14714 244.113619 
L 126.374406 240.997571 
L 126.699071 232.989854 
L 127.153603 215.53958 
L 127.900333 176.644769 
L 128.960907 123.555142 
L 129.447905 109.107958 
L 129.783392 104.510851 
L 129.956547 103.9301 
L 129.978192 103.94247 
L 130.075591 104.227831 
L 130.248746 105.639386 
L 130.5193 110.006563 
L 130.930543 120.882697 
L 131.666451 147.632893 
L 132.55387 177.382673 
L 133.019224 186.388103 
L 133.333067 189.039052 
L 133.484577 189.328022 
L 133.517044 189.309167 
L 133.636088 189.005688 
L 133.841709 187.668545 
L 134.166375 183.787479 
L 134.772417 173.206495 
L 135.475858 162.215949 
L 135.800524 159.92734 
L 135.941212 159.731615 
L 135.962856 159.748036 
L 136.071078 160.022379 
L 136.255055 161.242562 
L 136.52561 164.790235 
L 136.904386 173.121509 
L 137.456317 190.895155 
L 138.884845 239.077349 
L 139.252799 244.36097 
L 139.45842 245.124627 
L 139.534176 244.982743 
L 139.674864 244.101298 
L 139.90213 240.97276 
L 140.226795 232.948143 
L 140.681326 215.47841 
L 141.428057 176.569192 
L 142.48863 123.503442 
L 142.975628 109.080298 
L 143.311116 104.501595 
L 143.484271 103.930325 
L 143.505915 103.943864 
L 143.603315 104.234417 
L 143.77647 105.654836 
L 144.047024 110.034533 
L 144.458267 120.92533 
L 145.194175 147.684747 
L 146.070772 177.140634 
L 146.536125 186.264402 
L 146.849968 188.99996 
L 147.012301 189.327796 
L 147.033945 189.31755 
L 147.142167 189.082913 
L 147.326144 188.019807 
L 147.629165 184.691662 
L 148.14863 176.000083 
L 148.99276 162.317093 
L 149.328247 159.92302 
L 149.458114 159.7284 
L 149.49058 159.749483 
L 149.598802 160.027862 
L 149.782779 161.255103 
L 150.053333 164.813175 
L 150.43211 173.157741 
L 150.984041 190.944501 
L 152.412568 239.105204 
L 152.780523 244.37136 
L 152.975322 245.12613 
L 152.986144 245.124119 
L 153.061899 244.978102 
L 153.202587 244.088903 
L 153.429853 240.947875 
L 153.754519 232.906365 
L 154.20905 215.417192 
L 154.95578 176.493613 
L 156.005532 123.866571 
L 156.49253 109.275448 
L 156.828017 104.567958 
L 157.011994 103.930623 
L 157.022817 103.93564 
L 157.109394 104.143132 
L 157.271727 105.316514 
L 157.531459 109.194516 
L 157.921057 118.963806 
L 158.570388 141.919201 
L 159.598495 177.175344 
L 160.063849 186.28223 
L 160.377692 189.005698 
L 160.540025 189.32752 
L 160.561669 189.316498 
L 160.669891 189.078085 
L 160.853868 188.009078 
L 161.156889 184.673072 
L 161.676354 175.974996 
L 162.520484 162.302536 
L 162.855971 159.918745 
L 162.985837 159.728712 
L 163.018304 159.75098 
L 163.137348 160.079505 
L 163.332147 161.476323 
L 163.613524 165.403223 
L 164.003122 174.377108 
L 164.58752 193.787459 
L 165.875359 237.734573 
L 166.264957 244.017041 
L 166.492223 245.124044 
L 166.567978 245.039929 
L 166.697845 244.355084 
L 166.914288 241.685088 
L 167.228131 234.486104 
L 167.661019 218.711461 
L 168.331994 184.848317 
L 169.565722 122.582963 
L 170.041898 108.807692 
L 170.366563 104.483306 
L 170.539718 103.930994 
L 170.561362 103.94687 
L 170.658762 104.2478 
L 170.831917 105.685938 
L 171.102471 110.090645 
L 171.513714 121.010711 
L 172.260445 148.20303 
L 173.126219 177.21001 
L 173.591573 186.300006 
L 173.905416 189.011385 
L 174.067748 189.327196 
L 174.089393 189.315396 
L 174.197615 189.073211 
L 174.392414 187.910698 
L 174.695435 184.504459 
L 175.225722 175.547972 
L 176.048207 162.288015 
L 176.372873 159.949637 
L 176.513561 159.729073 
L 176.546027 159.752527 
L 176.665071 160.085499 
L 176.859871 161.489807 
L 177.141247 165.427483 
L 177.530846 174.414769 
L 178.115243 193.837826 
L 179.403083 237.765023 
L 179.792681 244.029505 
L 180.019947 245.124561 
L 180.095702 245.036325 
L 180.225568 244.344333 
L 180.442012 241.662412 
L 180.755855 234.446879 
L 181.188742 218.65292 
L 181.859717 184.773539 
L 182.162738 162.451312 
L 182.985224 83.213442 
L 183.418111 59.9214 
L 183.699488 53.931496 
L 183.786065 53.568329 
L 183.840176 53.68709 
L 183.95922 54.859468 
L 184.164841 59.671452 
L 184.489507 73.45955 
L 185.063082 109.432455 
L 185.918034 160.52323 
L 186.307633 172.301259 
L 186.545721 174.517557 
L 186.578187 174.520539 
L 186.610654 174.452651 
L 186.718876 173.722371 
L 186.913675 170.538332 
L 187.227518 160.9769 
L 187.768627 136.164453 
L 188.601935 99.586527 
L 188.959067 92.251042 
L 189.132221 91.348826 
L 189.153866 91.364649 
L 189.240443 91.715996 
L 189.402776 93.61106 
L 189.662508 99.876096 
L 190.041285 115.239109 
L 190.71226 153.370297 
L 191.567212 198.54905 
L 192.010921 211.765379 
L 192.313942 215.59307 
L 192.45463 215.986446 
L 192.487097 215.960544 
L 192.595319 215.57575 
L 192.790118 213.822664 
L 193.114783 208.476091 
L 193.883158 190.748755 
L 194.478378 179.861675 
L 194.878799 176.014893 
L 195.192642 174.78857 
L 195.441552 174.54021 
L 195.950194 174.303398 
L 196.155816 173.697541 
L 196.404726 172.172124 
L 196.729391 168.56507 
L 197.162278 160.846782 
L 198.558339 133.526973 
L 198.70985 133.06932 
L 198.742316 133.08992 
L 198.839716 133.417262 
L 199.012871 135.027151 
L 199.272603 140.023726 
L 199.629735 151.92423 
L 200.1492 177.892927 
L 201.512794 249.599483 
L 201.859104 256.803158 
L 202.032259 257.707129 
L 202.053903 257.690602 
L 202.140481 257.3383 
L 202.302813 255.4658 
L 202.562546 249.388145 
L 202.962966 233.971979 
L 204.315739 177.150144 
L 204.564649 174.566483 
L 204.607937 174.531026 
L 204.651226 174.62218 
L 204.77027 175.531752 
L 204.965069 179.105308 
L 205.257268 189.110795 
L 205.700977 213.074974 
L 207.042928 290.751665 
L 207.313482 295.328475 
L 207.378415 295.486679 
L 207.421704 295.380222 
L 207.529926 294.359758 
L 207.713903 290.118063 
L 207.995279 277.58073 
L 208.3957 248.265809 
L 209.045031 181.480178 
L 210.029849 83.801342 
L 210.462736 60.203913 
L 210.754935 53.909727 
L 210.841512 53.568 
L 210.884801 53.652528 
L 210.993023 54.590801 
L 211.187822 58.768456 
L 211.490843 70.843819 
L 211.999486 101.516126 
L 212.995126 161.537054 
L 213.373902 172.530989 
L 213.601168 174.520525 
L 213.644457 174.500836 
L 213.666101 174.443811 
L 213.785145 173.577494 
L 213.990766 169.980856 
L 214.315432 159.619375 
L 214.89983 132.202599 
L 215.657382 99.505554 
L 216.014514 92.223034 
L 216.187669 91.34923 
L 216.209313 91.368651 
L 216.295891 91.7344 
L 216.458223 93.65615 
L 216.717956 99.961187 
L 217.096732 115.371 
L 217.778529 154.188524 
L 218.622659 198.655965 
L 219.066368 211.818267 
L 219.369389 215.608612 
L 219.510078 215.985914 
L 219.542544 215.956475 
L 219.650766 215.560445 
L 219.845565 213.789592 
L 220.170231 208.42172 
L 220.96025 190.204817 
L 221.544647 179.68406 
L 221.945068 175.933358 
L 222.248089 174.783216 
L 222.496999 174.539513 
L 222.994819 174.317755 
L 223.200441 173.731449 
L 223.449351 172.237864 
L 223.763194 168.828914 
L 224.185259 161.470231 
L 225.646253 133.342138 
L 225.765297 133.069384 
L 225.808586 133.111375 
L 225.916808 133.562904 
L 226.100785 135.520373 
L 226.371339 141.23544 
L 226.739293 154.318898 
L 227.291224 183.066025 
L 228.492486 247.218891 
L 228.86044 256.181405 
L 229.076884 257.705916 
L 229.141817 257.602566 
L 229.260861 256.747637 
L 229.466482 253.312455 
L 229.780326 243.791326 
L 230.310612 219.716905 
L 231.176387 181.712256 
L 231.511874 175.175315 
L 231.652562 174.528062 
L 231.685029 174.566658 
L 231.782429 175.112748 
L 231.955583 177.684632 
L 232.226138 185.699231 
L 232.626559 205.344371 
L 234.239063 293.941998 
L 234.42304 295.487666 
L 234.444685 295.471754 
L 234.52044 295.078937 
L 234.67195 292.696985 
L 234.910038 284.626174 
L 235.245526 264.661639 
L 235.743346 219.916465 
L 237.30174 69.813198 
L 237.669694 55.887419 
L 237.886138 53.570976 
L 237.940248 53.663395 
L 238.04847 54.627307 
L 238.243269 58.847773 
L 238.557113 71.518165 
L 239.087399 103.896813 
L 240.039751 161.202944 
L 240.418527 172.394646 
L 240.656615 174.522997 
L 240.699904 174.495421 
L 240.721548 174.434484 
L 240.840592 173.547112 
L 241.046214 169.916833 
L 241.370879 159.512908 
L 241.955277 132.065993 
L 242.712829 99.424938 
L 243.059139 92.308363 
L 243.243116 91.350084 
L 243.253938 91.357995 
L 243.329694 91.61501 
L 243.481204 93.184293 
L 243.719292 98.411886 
L 244.076424 111.907742 
L 244.671644 144.534656 
L 245.688929 199.185979 
L 246.132638 212.077583 
L 246.435659 215.681538 
L 246.565525 215.985085 
L 246.597992 215.952116 
L 246.706213 215.54487 
L 246.901013 213.756297 
L 247.225678 208.367218 
L 248.037341 189.667114 
L 248.610917 179.509845 
L 249.000515 175.917398 
L 249.303536 174.777934 
L 249.552446 174.538843 
L 250.039444 174.331494 
L 250.245066 173.764454 
L 250.493976 172.302463 
L 250.807819 168.939961 
L 251.229884 161.63823 
L 252.7017 133.329834 
L 252.820744 133.069748 
L 252.864033 133.116583 
L 252.972255 133.58069 
L 253.156232 135.560676 
L 253.426786 141.309757 
L 253.805563 154.90774 
L 254.368316 184.498805 
L 255.526289 246.556478 
L 255.905065 256.068582 
L 256.132331 257.70677 
L 256.197264 257.592664 
L 256.316308 256.718324 
L 256.52193 253.251443 
L 256.846595 243.280638 
L 257.398526 217.945726 
L 258.221012 181.949516 
L 258.556499 175.252347 
L 258.70801 174.528556 
L 258.729654 174.550318 
L 258.816232 174.95581 
L 258.978564 177.097266 
L 259.227474 183.81686 
L 259.595428 200.581532 
L 260.255581 243.134746 
L 260.980667 285.018612 
L 261.326977 294.465199 
L 261.478488 295.488 
L 261.510954 295.440175 
L 261.608354 294.716654 
L 261.781509 291.250283 
L 262.041241 280.827263 
L 262.420017 255.173138 
L 263.004415 197.666497 
L 264.184032 80.351752 
L 264.606097 58.937937 
L 264.876652 53.793297 
L 264.952407 53.56933 
L 264.995696 53.674916 
L 265.103918 54.66444 
L 265.298717 58.927648 
L 265.61256 71.654255 
L 266.142847 104.080515 
L 267.095198 161.314742 
L 267.473975 172.440592 
L 267.70124 174.514095 
L 267.733707 174.523005 
L 267.766174 174.461002 
L 267.874395 173.749937 
L 268.069195 170.598176 
L 268.372216 161.485549 
L 268.89168 137.934946 
L 269.768277 99.344678 
L 270.114586 92.279485 
L 270.287741 91.348871 
L 270.309386 91.361097 
L 270.395963 91.69804 
L 270.558296 93.566409 
L 270.807206 99.456517 
L 271.185982 114.583728 
L 271.846135 151.896412 
L 272.722731 198.441832 
L 273.166441 211.712151 
L 273.469462 215.577209 
L 273.61015 215.98668 
L 273.642617 215.96432 
L 273.750838 215.590786 
L 273.945638 213.855514 
L 274.270303 208.530332 
L 275.027856 191.053498 
L 275.633898 179.897605 
L 276.034318 176.031549 
L 276.348161 174.793997 
L 276.597072 174.540934 
L 277.105714 174.308253 
L 277.311335 173.708944 
L 277.560245 172.194164 
L 277.874089 168.754206 
L 278.296154 161.357741 
L 279.746326 133.367573 
L 279.876192 133.07041 
L 279.908658 133.101878 
L 280.01688 133.528296 
L 280.200857 135.440782 
L 280.471412 141.087816 
L 280.839366 154.085347 
L 281.391297 182.748783 
L 282.603381 247.404785 
L 282.971335 256.254407 
L 283.187779 257.707174 
L 283.252712 257.582316 
L 283.382578 256.565251 
L 283.599021 252.684615 
L 283.934509 241.919186 
L 284.529729 213.983633 
L 285.276459 181.870051 
L 285.611947 175.226196 
L 285.763457 174.529544 
L 285.785101 174.555268 
L 285.871679 174.976726 
L 286.034012 177.148186 
L 286.293744 184.29646 
L 286.67252 201.933732 
L 287.375962 247.72237 
L 288.046937 285.554965 
L 288.382424 294.501077 
L 288.533935 295.487671 
L 288.566401 295.431856 
L 288.663801 294.68403 
L 288.836956 291.173856 
L 289.096688 280.686452 
L 289.475464 254.950103 
L 290.059862 197.369797 
L 290.481927 163.126675 
L 291.163724 131.923288 
L 291.542501 122.995302 
L 291.780589 121.309877 
L 291.845522 121.384694 
L 291.964566 122.100309 
L 292.170187 125.005581 
L 292.494852 133.281012 
L 293.122539 156.439465 
L 293.771869 177.281969 
L 294.096535 182.020106 
L 294.237223 182.473186 
L 294.26969 182.432465 
L 294.377912 181.898871 
L 294.561889 179.593678 
L 294.843265 172.82736 
L 295.276152 156.148735 
L 296.672213 98.049737 
L 296.964412 94.469154 
L 297.040168 94.310718 
L 297.094278 94.395104 
L 297.213322 95.157842 
L 297.418944 98.297802 
L 297.732787 107.141736 
L 298.241429 128.988643 
L 299.280359 174.145846 
L 299.648313 181.416789 
L 299.853934 182.474307 
L 299.918867 182.350652 
L 300.048733 181.458887 
L 300.265177 178.163114 
L 300.611487 168.899044 
L 301.379861 140.209054 
L 301.910148 124.979977 
L 302.202347 121.500201 
L 302.288924 121.306685 
L 302.332213 121.360858 
L 302.440435 121.942531 
L 302.624412 124.399218 
L 302.905788 131.612187 
L 303.327853 149.101454 
L 304.972825 224.50619 
L 305.243379 227.598912 
L 305.319134 227.749339 
L 305.373245 227.667351 
L 305.492289 226.943349 
L 305.697911 224.024734 
L 306.022576 215.732717 
L 306.650262 192.564322 
L 307.299593 171.744456 
L 307.624259 167.026727 
L 307.754125 166.581276 
L 307.797413 166.626425 
L 307.905635 167.167676 
L 308.089612 169.485692 
L 308.370989 176.269948 
L 308.803876 192.968281 
L 310.189115 250.81398 
L 310.481314 254.544389 
L 310.567891 254.745179 
L 310.61118 254.687544 
L 310.719402 254.083915 
L 310.914201 251.376982 
L 311.2064 243.708347 
L 311.671753 224.657054 
L 312.873015 173.116932 
L 313.208503 167.313483 
L 313.381658 166.582044 
L 313.403302 166.600569 
L 313.500702 166.982276 
L 313.673857 168.831077 
L 313.955233 174.734056 
L 314.409765 189.820647 
L 315.405405 223.466614 
L 315.708426 227.452977 
L 315.816648 227.749155 
L 315.859937 227.691813 
L 315.968158 227.102145 
L 316.152135 224.631928 
L 316.433512 217.399628 
L 316.855577 199.888324 
L 318.500548 124.524467 
L 318.771103 121.451667 
L 318.846858 121.306797 
L 318.900969 121.392702 
L 319.020013 122.125086 
L 319.225634 125.057033 
L 319.5503 133.365608 
L 320.177986 156.543876 
L 320.827317 177.341043 
L 321.151982 182.038348 
L 321.281848 182.474789 
L 321.314315 182.447798 
L 321.411714 182.036483 
L 321.584869 180.084407 
L 321.855424 174.029606 
L 322.266667 158.908053 
L 323.792594 96.811578 
L 324.052326 94.35549 
L 324.106437 94.31638 
L 324.149726 94.403642 
L 324.26877 95.184327 
L 324.474391 98.353957 
L 324.788234 107.236769 
L 325.296877 129.119723 
L 326.335806 174.222931 
L 326.692938 181.329759 
L 326.909381 182.47351 
L 326.985137 182.29757 
L 327.125825 181.198238 
L 327.363913 177.19279 
L 327.731867 166.641735 
L 329.127928 122.495774 
L 329.344372 121.307103 
L 329.409305 121.436005 
L 329.539171 122.383741 
L 329.755614 126.001619 
L 330.08028 135.924053 
L 330.5781 159.251736 
L 331.801006 218.976418 
L 332.158138 226.520462 
L 332.374582 227.748969 
L 332.439515 227.622455 
L 332.569381 226.705344 
L 332.796647 223.10344 
L 333.153779 213.191486 
L 334.625595 167.439499 
L 334.809572 166.58124 
L 334.820394 166.584901 
L 334.896149 166.781584 
L 335.036838 167.942602 
L 335.264103 171.960754 
L 335.610413 182.683455 
L 336.194811 209.153065 
L 337.049763 245.958215 
L 337.417717 253.615178 
L 337.623338 254.744664 
L 337.688272 254.608851 
L 337.818138 253.630282 
L 338.034581 249.968775 
L 338.370069 239.808649 
L 338.932822 214.571521 
L 339.820241 176.064196 
L 340.199017 167.958767 
L 340.426283 166.581365 
L 340.491216 166.682325 
L 340.621082 167.529863 
L 340.837526 170.757766 
L 341.183835 179.937865 
L 341.919744 207.412513 
L 342.471675 223.736823 
L 342.774696 227.523927 
L 342.872095 227.74854 
L 342.915384 227.684857 
L 343.023606 227.079197 
L 343.218405 224.378005 
L 343.510604 216.589641 
L 343.943491 198.148649 
L 345.501885 125.555992 
L 345.794084 121.593981 
L 345.902305 121.307364 
L 345.945594 121.369845 
L 346.064638 122.051872 
L 346.270259 124.903657 
L 346.594925 133.11248 
L 347.211789 155.81189 
L 347.871942 177.162912 
L 348.196607 181.982516 
L 348.337296 182.474635 
L 348.369762 182.443069 
L 348.467162 182.017973 
L 348.640317 180.04165 
L 348.910871 173.951707 
L 349.322114 158.790102 
L 350.848041 96.767049 
L 351.107773 94.349625 
L 351.151062 94.311747 
L 351.194351 94.37926 
L 351.302573 95.007415 
L 351.497372 97.756897 
L 351.800393 105.842132 
L 352.276569 125.613695 
L 353.434542 175.482897 
L 353.780852 181.682138 
L 353.954006 182.47476 
L 353.975651 182.463828 
L 354.062228 182.178473 
L 354.224561 180.62763 
L 354.484293 175.608492 
L 354.906358 162.315817 
L 356.042687 124.485206 
L 356.324064 121.433545 
L 356.399819 121.307916 
L 356.443108 121.374771 
L 356.562152 122.085028 
L 356.756951 124.914876 
L 357.04915 132.881675 
L 357.492859 152.062755 
L 358.997142 222.807894 
L 359.300163 227.337238 
L 359.430029 227.748205 
L 359.462496 227.708387 
L 359.570717 227.172441 
L 359.765517 224.712735 
L 360.068538 217.538924 
L 360.609647 198.25114 
L 361.388843 172.104334 
L 361.724331 167.063948 
L 361.865019 166.581584 
L 361.897486 166.615439 
L 361.994885 167.047426 
L 362.16804 169.035867 
L 362.438595 175.143364 
L 362.849838 190.324945 
L 364.375765 252.311069 
L 364.635497 254.709154 
L 364.678786 254.743738 
L 364.722074 254.672933 
L 364.841118 253.93713 
L 365.04674 250.84173 
L 365.360583 242.056269 
L 365.858403 220.786756 
L 366.918977 174.718053 
L 367.276109 167.682298 
L 367.48173 166.581211 
L 367.492552 166.584398 
L 367.568308 166.77618 
L 367.719818 168.031242 
L 367.968728 172.443676 
L 368.358327 184.060201 
L 369.646166 225.795181 
L 369.895076 227.733649 
L 369.938365 227.739534 
L 369.970831 227.677503 
L 370.089875 226.958446 
L 370.284674 224.114317 
L 370.576873 216.127758 
L 371.020583 196.924856 
L 372.524865 126.21696 
L 372.827887 121.709742 
L 372.957753 121.308325 
L 372.990219 121.350496 
L 373.098441 121.894123 
L 373.29324 124.366712 
L 373.596261 131.556867 
L 374.13737 150.857668 
L 374.916567 176.982069 
L 375.252055 182.001495 
L 375.392743 182.474101 
L 375.425209 182.437958 
L 375.522609 181.99908 
L 375.695764 179.998522 
L 375.966318 173.873484 
L 376.377561 158.671961 
L 377.892666 96.9018 
L 378.152399 94.368456 
L 378.206509 94.31288 
L 378.249798 94.386976 
L 378.368842 95.13176 
L 378.574464 98.24202 
L 378.888307 107.046993 
L 379.386127 128.334533 
L 380.4467 174.376121 
L 380.803832 181.388159 
L 381.009454 182.474724 
L 381.074387 182.360143 
L 381.204253 181.486057 
L 381.420697 178.217399 
L 381.767006 168.986832 
L 382.513737 141.096253 
L 383.054846 125.239683 
L 383.357867 121.512661 
L 383.455266 121.309124 
L 383.498555 121.382324 
L 383.617599 122.110181 
L 383.812398 124.968588 
L 384.104597 132.974893 
L 384.548306 152.199578 
L 386.041767 222.619023 
L 386.35561 227.355177 
L 386.474654 227.749315 
L 386.517943 227.702523 
L 386.626165 227.151219 
L 386.820964 224.665757 
L 387.123985 217.459282 
L 387.665094 198.145522 
L 388.444291 172.043603 
L 388.779778 167.045153 
L 388.920467 166.582309 
L 388.952933 166.620741 
L 389.061155 167.146677 
L 389.245132 169.439045 
L 389.526509 176.18741 
L 389.959396 192.846291 
L 391.355457 250.979076 
L 391.647656 254.581089 
L 391.723411 254.745282 
L 391.777522 254.665011 
L 391.896566 253.91125 
L 392.102187 250.786136 
L 392.41603 241.961672 
L 392.924673 220.132865 
L 393.963602 174.948819 
L 394.331556 167.653479 
L 394.537177 166.581437 
L 394.60211 166.700556 
L 394.731977 167.583483 
L 394.94842 170.865704 
L 395.29473 180.113037 
L 396.052282 208.40467 
L 396.593391 224.050419 
L 396.88559 227.549617 
L 396.972168 227.749377 
L 397.026279 227.669751 
L 397.145323 226.933093 
L 397.340122 224.06041 
L 397.632321 216.034372 
L 398.07603 196.787942 
L 398.487273 174.528 
L 398.487273 174.528 
" clip-path="url(#pfbd04fe94c)" style="fill: none; stroke: #1f77b4; stroke-width: 1.5; stroke-linecap: square"/>
   </g>
   <g id="line2d_16">
    <path d="M 73.832727 174.528 
L 76.429964 110.340495 
L 79.0272 187.667571 
L 81.624436 160.218863 
L 84.221673 223.375603 
L 86.818909 203.825103 
L 89.416145 103.963662 
L 92.013382 178.317517 
L 94.610618 165.991075 
L 97.207855 203.306335 
L 99.805091 227.715339 
L 102.402327 109.000822 
L 104.999564 161.881777 
L 107.5968 175.535298 
L 110.194036 183.449256 
L 112.791273 242.013761 
L 115.388509 125.458912 
L 117.985745 141.594366 
L 120.582982 184.644311 
L 123.180218 168.232755 
L 125.777455 244.68424 
L 128.374691 150.820434 
L 130.971927 122.080747 
L 133.569164 189.230248 
L 136.1664 160.506949 
L 138.763636 236.248862 
L 141.360873 180.568604 
L 143.958109 108.238261 
L 146.555345 186.451141 
L 149.152582 160.896041 
L 151.749818 219.584449 
L 154.347055 209.194326 
L 156.944291 104.0202 
L 159.541527 175.521273 
L 162.138764 167.724777 
L 164.736 199.161235 
L 167.333236 231.442815 
L 169.930473 111.424586 
L 172.527709 157.998126 
L 175.124945 177.532089 
L 177.722182 179.915145 
L 180.319418 243.49877 
L 182.916655 88.064962 
L 185.513891 139.48273 
L 188.111127 119.007751 
L 190.708364 153.317913 
L 193.3056 204.301994 
L 195.902836 174.374953 
L 198.500073 133.91229 
L 201.097309 232.793906 
L 203.694545 198.103271 
L 206.291782 252.804113 
L 208.889018 198.553317 
L 211.486255 70.69844 
L 214.083491 167.514321 
L 216.680727 98.863235 
L 219.277964 214.915333 
L 221.8752 176.379519 
L 224.472436 155.034824 
L 227.069673 170.557415 
L 229.666909 247.755424 
L 232.264145 187.204461 
L 234.861382 286.698499 
L 237.458618 62.357501 
L 240.055855 161.851539 
L 242.653091 101.300576 
L 245.250327 178.498585 
L 247.847564 194.021176 
L 250.4448 172.676481 
L 253.042036 134.140667 
L 255.639273 250.192765 
L 258.236509 181.541679 
L 260.833745 278.35756 
L 263.430982 150.502683 
L 266.028218 96.251887 
L 268.625455 150.952729 
L 271.222691 116.262094 
L 273.819927 215.14371 
L 276.417164 174.681047 
L 279.0144 144.754006 
L 281.611636 195.738087 
L 284.208873 230.048249 
L 286.806109 209.57327 
L 289.403345 260.991038 
L 292.000582 122.539142 
L 294.597818 178.808739 
L 297.195055 95.049638 
L 299.792291 182.407735 
L 302.389527 121.625884 
L 304.986764 224.873946 
L 307.584 167.286653 
L 310.181236 250.772961 
L 312.778473 175.565042 
L 315.375709 222.964366 
L 317.972945 141.046396 
L 320.570182 170.647013 
L 323.167418 116.008609 
L 325.764655 152.189382 
L 328.361891 142.638247 
L 330.959127 180.562881 
L 333.556364 198.103271 
L 336.1536 207.323129 
L 338.750836 223.222767 
L 341.348073 185.715562 
L 343.945309 197.875861 
L 346.542545 131.63024 
L 349.139782 166.133488 
L 351.737018 103.897688 
L 354.334255 178.812197 
L 356.931491 129.241414 
L 359.528727 227.438568 
L 362.125964 168.443865 
L 364.7232 254.662983 
L 367.320436 167.240761 
L 369.917673 227.749375 
L 372.514909 126.407794 
L 375.112145 180.567387 
L 377.709382 100.810743 
L 380.306618 170.044736 
L 382.903855 128.638615 
L 385.501091 203.130218 
L 388.098327 181.918347 
L 390.695564 228.263813 
L 393.2928 202.028055 
L 395.890036 202.307337 
L 398.487273 174.528 
" clip-path="url(#pfbd04fe94c)" style="fill: none; stroke-dasharray: 1.5,2.475; stroke-dashoffset: 0; stroke: #000000; stroke-width: 1.5"/>
   </g>
   <g id="patch_3">
    <path d="M 57.6 307.584 
L 57.6 41.472 
" style="fill: none; stroke: #000000; stroke-width: 0.8; stroke-linejoin: miter; stroke-linecap: square"/>
   </g>
   <g id="patch_4">
    <path d="M 414.72 307.584 
L 414.72 41.472 
" style="fill: none; stroke: #000000; stroke-width: 0.8; stroke-linejoin: miter; stroke-linecap: square"/>
   </g>
   <g id="patch_5">
    <path d="M 57.6 307.584 
L 414.72 307.584 
" style="fill: none; stroke: #000000; stroke-width: 0.8; stroke-linejoin: miter; stroke-linecap: square"/>
   </g>
   <g id="patch_6">
    <path d="M 57.6 41.472 
L 414.72 41.472 
" style="fill: none; stroke: #000000; stroke-width: 0.8; stroke-linejoin: miter; stroke-linecap: square"/>
   </g>
  </g>
 </g>
 <defs>
  <clipPath id="pfbd04fe94c">
   <rect x="57.6" y="41.472" width="357.12" height="266.112"/>
  </clipPath>
 </defs>
</svg>
