<?xml version="1.0" encoding="utf-8" standalone="no"?>
<!DOCTYPE svg PUBLIC "-//W3C//DTD SVG 1.1//EN"
  "http://www.w3.org/Graphics/SVG/1.1/DTD/svg11.dtd">
<svg xmlns:xlink="http://www.w3.org/1999/xlink" width="460.8pt" height="345.6pt" viewBox="0 0 460.8 345.6" xmlns="http://www.w3.org/2000/svg" version="1.1">
 <metadata>
  <rdf:RDF xmlns:dc="http://purl.org/dc/elements/1.1/" xmlns:cc="http://creativecommons.org/ns#" xmlns:rdf="http://www.w3.org/1999/02/22-rdf-syntax-ns#">
   <cc:Work>
    <dc:type rdf:resource="http://purl.org/dc/dcmitype/StillImage"/>
    <dc:date>2024-10-18T20:56:12.896893</dc:date>
    <dc:format>image/svg+xml</dc:format>
    <dc:creator>
     <cc:Agent>
      <dc:title>Matplotlib v3.9.2, https://matplotlib.org/</dc:title>
     </cc:Agent>
    </dc:creator>
   </cc:Work>
  </rdf:RDF>
 </metadata>
 <defs>
  <style type="text/css">*{stroke-linejoin: round; stroke-linecap: butt}</style>
 </defs>
 <g id="figure_1">
  <g id="patch_1">
   <path d="M 0 345.6 
L 460.8 345.6 
L 460.8 0 
L 0 0 
z
" style="fill: #ffffff"/>
  </g>
  <g id="axes_1">
   <g id="patch_2">
    <path d="M 57.6 307.584 
L 414.72 307.584 
L 414.72 41.472 
L 57.6 41.472 
z
" style="fill: #ffffff"/>
   </g>
   <g id="matplotlib.axis_1">
    <g id="xtick_1">
     <g id="line2d_1">
      <defs>
       <path id="mcbd3aa57cb" d="M 0 0 
L 0 3.5 
" style="stroke: #000000; stroke-width: 0.8"/>
      </defs>
      <g>
       <use xlink:href="#mcbd3aa57cb" x="57.6" y="307.584" style="stroke: #000000; stroke-width: 0.8"/>
      </g>
     </g>
     <g id="text_1">
      <!-- −1.00 -->
      <g transform="translate(42.277344 322.182437) scale(0.1 -0.1)">
       <defs>
        <path id="DejaVuSans-2212" d="M 678 2272 
L 4684 2272 
L 4684 1741 
L 678 1741 
L 678 2272 
z
" transform="scale(0.015625)"/>
        <path id="DejaVuSans-31" d="M 794 531 
L 1825 531 
L 1825 4091 
L 703 3866 
L 703 4441 
L 1819 4666 
L 2450 4666 
L 2450 531 
L 3481 531 
L 3481 0 
L 794 0 
L 794 531 
z
" transform="scale(0.015625)"/>
        <path id="DejaVuSans-2e" d="M 684 794 
L 1344 794 
L 1344 0 
L 684 0 
L 684 794 
z
" transform="scale(0.015625)"/>
        <path id="DejaVuSans-30" d="M 2034 4250 
Q 1547 4250 1301 3770 
Q 1056 3291 1056 2328 
Q 1056 1369 1301 889 
Q 1547 409 2034 409 
Q 2525 409 2770 889 
Q 3016 1369 3016 2328 
Q 3016 3291 2770 3770 
Q 2525 4250 2034 4250 
z
M 2034 4750 
Q 2819 4750 3233 4129 
Q 3647 3509 3647 2328 
Q 3647 1150 3233 529 
Q 2819 -91 2034 -91 
Q 1250 -91 836 529 
Q 422 1150 422 2328 
Q 422 3509 836 4129 
Q 1250 4750 2034 4750 
z
" transform="scale(0.015625)"/>
       </defs>
       <use xlink:href="#DejaVuSans-2212"/>
       <use xlink:href="#DejaVuSans-31" x="83.789062"/>
       <use xlink:href="#DejaVuSans-2e" x="147.412109"/>
       <use xlink:href="#DejaVuSans-30" x="179.199219"/>
       <use xlink:href="#DejaVuSans-30" x="242.822266"/>
      </g>
     </g>
    </g>
    <g id="xtick_2">
     <g id="line2d_2">
      <g>
       <use xlink:href="#mcbd3aa57cb" x="102.24" y="307.584" style="stroke: #000000; stroke-width: 0.8"/>
      </g>
     </g>
     <g id="text_2">
      <!-- −0.75 -->
      <g transform="translate(86.917344 322.182437) scale(0.1 -0.1)">
       <defs>
        <path id="DejaVuSans-37" d="M 525 4666 
L 3525 4666 
L 3525 4397 
L 1831 0 
L 1172 0 
L 2766 4134 
L 525 4134 
L 525 4666 
z
" transform="scale(0.015625)"/>
        <path id="DejaVuSans-35" d="M 691 4666 
L 3169 4666 
L 3169 4134 
L 1269 4134 
L 1269 2991 
Q 1406 3038 1543 3061 
Q 1681 3084 1819 3084 
Q 2600 3084 3056 2656 
Q 3513 2228 3513 1497 
Q 3513 744 3044 326 
Q 2575 -91 1722 -91 
Q 1428 -91 1123 -41 
Q 819 9 494 109 
L 494 744 
Q 775 591 1075 516 
Q 1375 441 1709 441 
Q 2250 441 2565 725 
Q 2881 1009 2881 1497 
Q 2881 1984 2565 2268 
Q 2250 2553 1709 2553 
Q 1456 2553 1204 2497 
Q 953 2441 691 2322 
L 691 4666 
z
" transform="scale(0.015625)"/>
       </defs>
       <use xlink:href="#DejaVuSans-2212"/>
       <use xlink:href="#DejaVuSans-30" x="83.789062"/>
       <use xlink:href="#DejaVuSans-2e" x="147.412109"/>
       <use xlink:href="#DejaVuSans-37" x="179.199219"/>
       <use xlink:href="#DejaVuSans-35" x="242.822266"/>
      </g>
     </g>
    </g>
    <g id="xtick_3">
     <g id="line2d_3">
      <g>
       <use xlink:href="#mcbd3aa57cb" x="146.88" y="307.584" style="stroke: #000000; stroke-width: 0.8"/>
      </g>
     </g>
     <g id="text_3">
      <!-- −0.50 -->
      <g transform="translate(131.557344 322.182437) scale(0.1 -0.1)">
       <use xlink:href="#DejaVuSans-2212"/>
       <use xlink:href="#DejaVuSans-30" x="83.789062"/>
       <use xlink:href="#DejaVuSans-2e" x="147.412109"/>
       <use xlink:href="#DejaVuSans-35" x="179.199219"/>
       <use xlink:href="#DejaVuSans-30" x="242.822266"/>
      </g>
     </g>
    </g>
    <g id="xtick_4">
     <g id="line2d_4">
      <g>
       <use xlink:href="#mcbd3aa57cb" x="191.52" y="307.584" style="stroke: #000000; stroke-width: 0.8"/>
      </g>
     </g>
     <g id="text_4">
      <!-- −0.25 -->
      <g transform="translate(176.197344 322.182437) scale(0.1 -0.1)">
       <defs>
        <path id="DejaVuSans-32" d="M 1228 531 
L 3431 531 
L 3431 0 
L 469 0 
L 469 531 
Q 828 903 1448 1529 
Q 2069 2156 2228 2338 
Q 2531 2678 2651 2914 
Q 2772 3150 2772 3378 
Q 2772 3750 2511 3984 
Q 2250 4219 1831 4219 
Q 1534 4219 1204 4116 
Q 875 4013 500 3803 
L 500 4441 
Q 881 4594 1212 4672 
Q 1544 4750 1819 4750 
Q 2544 4750 2975 4387 
Q 3406 4025 3406 3419 
Q 3406 3131 3298 2873 
Q 3191 2616 2906 2266 
Q 2828 2175 2409 1742 
Q 1991 1309 1228 531 
z
" transform="scale(0.015625)"/>
       </defs>
       <use xlink:href="#DejaVuSans-2212"/>
       <use xlink:href="#DejaVuSans-30" x="83.789062"/>
       <use xlink:href="#DejaVuSans-2e" x="147.412109"/>
       <use xlink:href="#DejaVuSans-32" x="179.199219"/>
       <use xlink:href="#DejaVuSans-35" x="242.822266"/>
      </g>
     </g>
    </g>
    <g id="xtick_5">
     <g id="line2d_5">
      <g>
       <use xlink:href="#mcbd3aa57cb" x="236.16" y="307.584" style="stroke: #000000; stroke-width: 0.8"/>
      </g>
     </g>
     <g id="text_5">
      <!-- 0.00 -->
      <g transform="translate(225.027187 322.182437) scale(0.1 -0.1)">
       <use xlink:href="#DejaVuSans-30"/>
       <use xlink:href="#DejaVuSans-2e" x="63.623047"/>
       <use xlink:href="#DejaVuSans-30" x="95.410156"/>
       <use xlink:href="#DejaVuSans-30" x="159.033203"/>
      </g>
     </g>
    </g>
    <g id="xtick_6">
     <g id="line2d_6">
      <g>
       <use xlink:href="#mcbd3aa57cb" x="280.8" y="307.584" style="stroke: #000000; stroke-width: 0.8"/>
      </g>
     </g>
     <g id="text_6">
      <!-- 0.25 -->
      <g transform="translate(269.667188 322.182437) scale(0.1 -0.1)">
       <use xlink:href="#DejaVuSans-30"/>
       <use xlink:href="#DejaVuSans-2e" x="63.623047"/>
       <use xlink:href="#DejaVuSans-32" x="95.410156"/>
       <use xlink:href="#DejaVuSans-35" x="159.033203"/>
      </g>
     </g>
    </g>
    <g id="xtick_7">
     <g id="line2d_7">
      <g>
       <use xlink:href="#mcbd3aa57cb" x="325.44" y="307.584" style="stroke: #000000; stroke-width: 0.8"/>
      </g>
     </g>
     <g id="text_7">
      <!-- 0.50 -->
      <g transform="translate(314.307187 322.182437) scale(0.1 -0.1)">
       <use xlink:href="#DejaVuSans-30"/>
       <use xlink:href="#DejaVuSans-2e" x="63.623047"/>
       <use xlink:href="#DejaVuSans-35" x="95.410156"/>
       <use xlink:href="#DejaVuSans-30" x="159.033203"/>
      </g>
     </g>
    </g>
    <g id="xtick_8">
     <g id="line2d_8">
      <g>
       <use xlink:href="#mcbd3aa57cb" x="370.08" y="307.584" style="stroke: #000000; stroke-width: 0.8"/>
      </g>
     </g>
     <g id="text_8">
      <!-- 0.75 -->
      <g transform="translate(358.947188 322.182437) scale(0.1 -0.1)">
       <use xlink:href="#DejaVuSans-30"/>
       <use xlink:href="#DejaVuSans-2e" x="63.623047"/>
       <use xlink:href="#DejaVuSans-37" x="95.410156"/>
       <use xlink:href="#DejaVuSans-35" x="159.033203"/>
      </g>
     </g>
    </g>
    <g id="xtick_9">
     <g id="line2d_9">
      <g>
       <use xlink:href="#mcbd3aa57cb" x="414.72" y="307.584" style="stroke: #000000; stroke-width: 0.8"/>
      </g>
     </g>
     <g id="text_9">
      <!-- 1.00 -->
      <g transform="translate(403.587188 322.182437) scale(0.1 -0.1)">
       <use xlink:href="#DejaVuSans-31"/>
       <use xlink:href="#DejaVuSans-2e" x="63.623047"/>
       <use xlink:href="#DejaVuSans-30" x="95.410156"/>
       <use xlink:href="#DejaVuSans-30" x="159.033203"/>
      </g>
     </g>
    </g>
    <g id="text_10">
     <!-- Real -->
     <g transform="translate(225.381094 335.860562) scale(0.1 -0.1)">
      <defs>
       <path id="DejaVuSans-52" d="M 2841 2188 
Q 3044 2119 3236 1894 
Q 3428 1669 3622 1275 
L 4263 0 
L 3584 0 
L 2988 1197 
Q 2756 1666 2539 1819 
Q 2322 1972 1947 1972 
L 1259 1972 
L 1259 0 
L 628 0 
L 628 4666 
L 2053 4666 
Q 2853 4666 3247 4331 
Q 3641 3997 3641 3322 
Q 3641 2881 3436 2590 
Q 3231 2300 2841 2188 
z
M 1259 4147 
L 1259 2491 
L 2053 2491 
Q 2509 2491 2742 2702 
Q 2975 2913 2975 3322 
Q 2975 3731 2742 3939 
Q 2509 4147 2053 4147 
L 1259 4147 
z
" transform="scale(0.015625)"/>
       <path id="DejaVuSans-65" d="M 3597 1894 
L 3597 1613 
L 953 1613 
Q 991 1019 1311 708 
Q 1631 397 2203 397 
Q 2534 397 2845 478 
Q 3156 559 3463 722 
L 3463 178 
Q 3153 47 2828 -22 
Q 2503 -91 2169 -91 
Q 1331 -91 842 396 
Q 353 884 353 1716 
Q 353 2575 817 3079 
Q 1281 3584 2069 3584 
Q 2775 3584 3186 3129 
Q 3597 2675 3597 1894 
z
M 3022 2063 
Q 3016 2534 2758 2815 
Q 2500 3097 2075 3097 
Q 1594 3097 1305 2825 
Q 1016 2553 972 2059 
L 3022 2063 
z
" transform="scale(0.015625)"/>
       <path id="DejaVuSans-61" d="M 2194 1759 
Q 1497 1759 1228 1600 
Q 959 1441 959 1056 
Q 959 750 1161 570 
Q 1363 391 1709 391 
Q 2188 391 2477 730 
Q 2766 1069 2766 1631 
L 2766 1759 
L 2194 1759 
z
M 3341 1997 
L 3341 0 
L 2766 0 
L 2766 531 
Q 2569 213 2275 61 
Q 1981 -91 1556 -91 
Q 1019 -91 701 211 
Q 384 513 384 1019 
Q 384 1609 779 1909 
Q 1175 2209 1959 2209 
L 2766 2209 
L 2766 2266 
Q 2766 2663 2505 2880 
Q 2244 3097 1772 3097 
Q 1472 3097 1187 3025 
Q 903 2953 641 2809 
L 641 3341 
Q 956 3463 1253 3523 
Q 1550 3584 1831 3584 
Q 2591 3584 2966 3190 
Q 3341 2797 3341 1997 
z
" transform="scale(0.015625)"/>
       <path id="DejaVuSans-6c" d="M 603 4863 
L 1178 4863 
L 1178 0 
L 603 0 
L 603 4863 
z
" transform="scale(0.015625)"/>
      </defs>
      <use xlink:href="#DejaVuSans-52"/>
      <use xlink:href="#DejaVuSans-65" x="64.982422"/>
      <use xlink:href="#DejaVuSans-61" x="126.505859"/>
      <use xlink:href="#DejaVuSans-6c" x="187.785156"/>
     </g>
    </g>
   </g>
   <g id="matplotlib.axis_2">
    <g id="ytick_1">
     <g id="line2d_10">
      <defs>
       <path id="m0d47af4c11" d="M 0 0 
L -3.5 0 
" style="stroke: #000000; stroke-width: 0.8"/>
      </defs>
      <g>
       <use xlink:href="#m0d47af4c11" x="57.6" y="307.584" style="stroke: #000000; stroke-width: 0.8"/>
      </g>
     </g>
     <g id="text_11">
      <!-- −1.00 -->
      <g transform="translate(19.954687 311.383219) scale(0.1 -0.1)">
       <use xlink:href="#DejaVuSans-2212"/>
       <use xlink:href="#DejaVuSans-31" x="83.789062"/>
       <use xlink:href="#DejaVuSans-2e" x="147.412109"/>
       <use xlink:href="#DejaVuSans-30" x="179.199219"/>
       <use xlink:href="#DejaVuSans-30" x="242.822266"/>
      </g>
     </g>
    </g>
    <g id="ytick_2">
     <g id="line2d_11">
      <g>
       <use xlink:href="#m0d47af4c11" x="57.6" y="274.32" style="stroke: #000000; stroke-width: 0.8"/>
      </g>
     </g>
     <g id="text_12">
      <!-- −0.75 -->
      <g transform="translate(19.954687 278.119219) scale(0.1 -0.1)">
       <use xlink:href="#DejaVuSans-2212"/>
       <use xlink:href="#DejaVuSans-30" x="83.789062"/>
       <use xlink:href="#DejaVuSans-2e" x="147.412109"/>
       <use xlink:href="#DejaVuSans-37" x="179.199219"/>
       <use xlink:href="#DejaVuSans-35" x="242.822266"/>
      </g>
     </g>
    </g>
    <g id="ytick_3">
     <g id="line2d_12">
      <g>
       <use xlink:href="#m0d47af4c11" x="57.6" y="241.056" style="stroke: #000000; stroke-width: 0.8"/>
      </g>
     </g>
     <g id="text_13">
      <!-- −0.50 -->
      <g transform="translate(19.954687 244.855219) scale(0.1 -0.1)">
       <use xlink:href="#DejaVuSans-2212"/>
       <use xlink:href="#DejaVuSans-30" x="83.789062"/>
       <use xlink:href="#DejaVuSans-2e" x="147.412109"/>
       <use xlink:href="#DejaVuSans-35" x="179.199219"/>
       <use xlink:href="#DejaVuSans-30" x="242.822266"/>
      </g>
     </g>
    </g>
    <g id="ytick_4">
     <g id="line2d_13">
      <g>
       <use xlink:href="#m0d47af4c11" x="57.6" y="207.792" style="stroke: #000000; stroke-width: 0.8"/>
      </g>
     </g>
     <g id="text_14">
      <!-- −0.25 -->
      <g transform="translate(19.954687 211.591219) scale(0.1 -0.1)">
       <use xlink:href="#DejaVuSans-2212"/>
       <use xlink:href="#DejaVuSans-30" x="83.789062"/>
       <use xlink:href="#DejaVuSans-2e" x="147.412109"/>
       <use xlink:href="#DejaVuSans-32" x="179.199219"/>
       <use xlink:href="#DejaVuSans-35" x="242.822266"/>
      </g>
     </g>
    </g>
    <g id="ytick_5">
     <g id="line2d_14">
      <g>
       <use xlink:href="#m0d47af4c11" x="57.6" y="174.528" style="stroke: #000000; stroke-width: 0.8"/>
      </g>
     </g>
     <g id="text_15">
      <!-- 0.00 -->
      <g transform="translate(28.334375 178.327219) scale(0.1 -0.1)">
       <use xlink:href="#DejaVuSans-30"/>
       <use xlink:href="#DejaVuSans-2e" x="63.623047"/>
       <use xlink:href="#DejaVuSans-30" x="95.410156"/>
       <use xlink:href="#DejaVuSans-30" x="159.033203"/>
      </g>
     </g>
    </g>
    <g id="ytick_6">
     <g id="line2d_15">
      <g>
       <use xlink:href="#m0d47af4c11" x="57.6" y="141.264" style="stroke: #000000; stroke-width: 0.8"/>
      </g>
     </g>
     <g id="text_16">
      <!-- 0.25 -->
      <g transform="translate(28.334375 145.063219) scale(0.1 -0.1)">
       <use xlink:href="#DejaVuSans-30"/>
       <use xlink:href="#DejaVuSans-2e" x="63.623047"/>
       <use xlink:href="#DejaVuSans-32" x="95.410156"/>
       <use xlink:href="#DejaVuSans-35" x="159.033203"/>
      </g>
     </g>
    </g>
    <g id="ytick_7">
     <g id="line2d_16">
      <g>
       <use xlink:href="#m0d47af4c11" x="57.6" y="108" style="stroke: #000000; stroke-width: 0.8"/>
      </g>
     </g>
     <g id="text_17">
      <!-- 0.50 -->
      <g transform="translate(28.334375 111.799219) scale(0.1 -0.1)">
       <use xlink:href="#DejaVuSans-30"/>
       <use xlink:href="#DejaVuSans-2e" x="63.623047"/>
       <use xlink:href="#DejaVuSans-35" x="95.410156"/>
       <use xlink:href="#DejaVuSans-30" x="159.033203"/>
      </g>
     </g>
    </g>
    <g id="ytick_8">
     <g id="line2d_17">
      <g>
       <use xlink:href="#m0d47af4c11" x="57.6" y="74.736" style="stroke: #000000; stroke-width: 0.8"/>
      </g>
     </g>
     <g id="text_18">
      <!-- 0.75 -->
      <g transform="translate(28.334375 78.535219) scale(0.1 -0.1)">
       <use xlink:href="#DejaVuSans-30"/>
       <use xlink:href="#DejaVuSans-2e" x="63.623047"/>
       <use xlink:href="#DejaVuSans-37" x="95.410156"/>
       <use xlink:href="#DejaVuSans-35" x="159.033203"/>
      </g>
     </g>
    </g>
    <g id="ytick_9">
     <g id="line2d_18">
      <g>
       <use xlink:href="#m0d47af4c11" x="57.6" y="41.472" style="stroke: #000000; stroke-width: 0.8"/>
      </g>
     </g>
     <g id="text_19">
      <!-- 1.00 -->
      <g transform="translate(28.334375 45.271219) scale(0.1 -0.1)">
       <use xlink:href="#DejaVuSans-31"/>
       <use xlink:href="#DejaVuSans-2e" x="63.623047"/>
       <use xlink:href="#DejaVuSans-30" x="95.410156"/>
       <use xlink:href="#DejaVuSans-30" x="159.033203"/>
      </g>
     </g>
    </g>
    <g id="text_20">
     <!-- Imaginar -->
     <g transform="translate(13.875 196.788938) rotate(-90) scale(0.1 -0.1)">
      <defs>
       <path id="DejaVuSans-49" d="M 628 4666 
L 1259 4666 
L 1259 0 
L 628 0 
L 628 4666 
z
" transform="scale(0.015625)"/>
       <path id="DejaVuSans-6d" d="M 3328 2828 
Q 3544 3216 3844 3400 
Q 4144 3584 4550 3584 
Q 5097 3584 5394 3201 
Q 5691 2819 5691 2113 
L 5691 0 
L 5113 0 
L 5113 2094 
Q 5113 2597 4934 2840 
Q 4756 3084 4391 3084 
Q 3944 3084 3684 2787 
Q 3425 2491 3425 1978 
L 3425 0 
L 2847 0 
L 2847 2094 
Q 2847 2600 2669 2842 
Q 2491 3084 2119 3084 
Q 1678 3084 1418 2786 
Q 1159 2488 1159 1978 
L 1159 0 
L 581 0 
L 581 3500 
L 1159 3500 
L 1159 2956 
Q 1356 3278 1631 3431 
Q 1906 3584 2284 3584 
Q 2666 3584 2933 3390 
Q 3200 3197 3328 2828 
z
" transform="scale(0.015625)"/>
       <path id="DejaVuSans-67" d="M 2906 1791 
Q 2906 2416 2648 2759 
Q 2391 3103 1925 3103 
Q 1463 3103 1205 2759 
Q 947 2416 947 1791 
Q 947 1169 1205 825 
Q 1463 481 1925 481 
Q 2391 481 2648 825 
Q 2906 1169 2906 1791 
z
M 3481 434 
Q 3481 -459 3084 -895 
Q 2688 -1331 1869 -1331 
Q 1566 -1331 1297 -1286 
Q 1028 -1241 775 -1147 
L 775 -588 
Q 1028 -725 1275 -790 
Q 1522 -856 1778 -856 
Q 2344 -856 2625 -561 
Q 2906 -266 2906 331 
L 2906 616 
Q 2728 306 2450 153 
Q 2172 0 1784 0 
Q 1141 0 747 490 
Q 353 981 353 1791 
Q 353 2603 747 3093 
Q 1141 3584 1784 3584 
Q 2172 3584 2450 3431 
Q 2728 3278 2906 2969 
L 2906 3500 
L 3481 3500 
L 3481 434 
z
" transform="scale(0.015625)"/>
       <path id="DejaVuSans-69" d="M 603 3500 
L 1178 3500 
L 1178 0 
L 603 0 
L 603 3500 
z
M 603 4863 
L 1178 4863 
L 1178 4134 
L 603 4134 
L 603 4863 
z
" transform="scale(0.015625)"/>
       <path id="DejaVuSans-6e" d="M 3513 2113 
L 3513 0 
L 2938 0 
L 2938 2094 
Q 2938 2591 2744 2837 
Q 2550 3084 2163 3084 
Q 1697 3084 1428 2787 
Q 1159 2491 1159 1978 
L 1159 0 
L 581 0 
L 581 3500 
L 1159 3500 
L 1159 2956 
Q 1366 3272 1645 3428 
Q 1925 3584 2291 3584 
Q 2894 3584 3203 3211 
Q 3513 2838 3513 2113 
z
" transform="scale(0.015625)"/>
       <path id="DejaVuSans-72" d="M 2631 2963 
Q 2534 3019 2420 3045 
Q 2306 3072 2169 3072 
Q 1681 3072 1420 2755 
Q 1159 2438 1159 1844 
L 1159 0 
L 581 0 
L 581 3500 
L 1159 3500 
L 1159 2956 
Q 1341 3275 1631 3429 
Q 1922 3584 2338 3584 
Q 2397 3584 2469 3576 
Q 2541 3569 2628 3553 
L 2631 2963 
z
" transform="scale(0.015625)"/>
      </defs>
      <use xlink:href="#DejaVuSans-49"/>
      <use xlink:href="#DejaVuSans-6d" x="29.492188"/>
      <use xlink:href="#DejaVuSans-61" x="126.904297"/>
      <use xlink:href="#DejaVuSans-67" x="188.183594"/>
      <use xlink:href="#DejaVuSans-69" x="251.660156"/>
      <use xlink:href="#DejaVuSans-6e" x="279.443359"/>
      <use xlink:href="#DejaVuSans-61" x="342.822266"/>
      <use xlink:href="#DejaVuSans-72" x="404.101562"/>
     </g>
    </g>
   </g>
   <g id="line2d_19">
    <path d="M 57.6 174.528 
L 414.72 174.528 
" clip-path="url(#p416853a2bd)" style="fill: none; stroke: #000000; stroke-width: 1.5; stroke-linecap: square"/>
   </g>
   <g id="line2d_20">
    <path d="M 236.16 307.584 
L 236.16 41.472 
" clip-path="url(#p416853a2bd)" style="fill: none; stroke: #000000; stroke-width: 1.5; stroke-linecap: square"/>
   </g>
   <g id="line2d_21">
    <path d="M 236.16 174.528 
L 241.543587 174.618766 
L 246.914015 174.890805 
L 252.258161 175.343344 
L 257.562976 175.975098 
L 262.81552 176.784269 
L 268.002998 177.768558 
L 273.112795 178.925166 
L 278.132512 180.250804 
L 283.050002 181.741703 
L 287.853399 183.393621 
L 292.531157 185.20186 
L 297.072076 187.161274 
L 301.465337 189.266286 
L 305.700533 191.510905 
L 309.767693 193.888739 
L 313.657315 196.393015 
L 317.360388 199.016598 
L 320.868419 201.752009 
L 324.173459 204.59145 
L 327.268121 207.52682 
L 330.145601 210.549742 
L 332.799699 213.651586 
L 335.224834 216.823491 
L 337.416064 220.056389 
L 339.369091 223.341034 
L 341.080281 226.668025 
L 342.546672 230.027834 
L 343.765979 233.41083 
L 344.736602 236.807307 
L 345.457634 240.207514 
L 345.928857 243.601676 
L 346.150747 246.980027 
L 346.124473 250.332834 
L 345.851888 253.650427 
L 345.335531 256.923222 
L 344.578616 260.14175 
L 343.585022 263.296684 
L 342.359286 266.378864 
L 340.906584 269.379322 
L 339.232725 272.28931 
L 337.344126 275.100319 
L 335.2478 277.804108 
L 332.951334 280.392724 
L 330.462869 282.858525 
L 327.791076 285.194202 
L 324.94513 287.392797 
L 321.93469 289.447727 
L 318.769867 291.352797 
L 315.461195 293.10222 
L 312.019608 294.690634 
L 308.456402 296.113115 
L 304.783208 297.365193 
L 301.011958 298.442861 
L 297.154851 299.342589 
L 293.224321 300.061334 
L 289.233001 300.596547 
L 285.193687 300.946181 
L 281.119304 301.108696 
L 277.022866 301.083065 
L 272.917447 300.868774 
L 268.816138 300.465826 
L 264.73201 299.874742 
L 260.678085 299.096555 
L 256.66729 298.132811 
L 252.712429 296.985564 
L 248.826141 295.65737 
L 245.020869 294.15128 
L 241.308824 292.470831 
L 237.70195 290.620036 
L 234.21189 288.603376 
L 230.849958 286.425782 
L 227.627101 284.092627 
L 224.553873 281.609707 
L 221.640404 278.983226 
L 218.896371 276.219779 
L 216.330972 273.326337 
L 213.9529 270.310219 
L 211.77032 267.179081 
L 209.790843 263.94089 
L 208.021508 260.603902 
L 206.468759 257.17664 
L 205.13843 253.667869 
L 204.035729 250.086575 
L 203.165219 246.441934 
L 202.53081 242.743294 
L 202.135745 239.000142 
L 201.982595 235.222083 
L 202.073244 231.418809 
L 202.408891 227.600075 
L 202.990046 223.775672 
L 203.816523 219.955396 
L 204.887445 216.149027 
L 206.201247 212.366294 
L 207.755676 208.616857 
L 209.547803 204.910272 
L 211.574024 201.255969 
L 213.830077 197.663224 
L 216.311049 194.141134 
L 219.011392 190.698592 
L 221.924937 187.344261 
L 225.044913 184.086552 
L 228.363963 180.933598 
L 231.874165 177.893233 
L 235.567059 174.972971 
L 239.433662 172.179983 
L 243.464499 169.521078 
L 247.649629 167.002685 
L 251.978669 164.630834 
L 256.440827 162.41114 
L 261.024928 160.348787 
L 265.71945 158.448513 
L 270.512552 156.714599 
L 275.392106 155.150853 
L 280.345736 153.760607 
L 285.360848 152.546697 
L 290.424665 151.511465 
L 295.524266 150.656748 
L 300.646619 149.983873 
L 305.778616 149.493654 
L 310.907114 149.186389 
L 316.018967 149.061862 
L 321.101066 149.119339 
L 326.140374 149.357575 
L 331.123959 149.774813 
L 336.039038 150.368794 
L 340.873005 151.136758 
L 345.613467 152.075456 
L 350.248284 153.181157 
L 354.765596 154.449657 
L 359.153861 155.876295 
L 363.401883 157.455964 
L 367.498847 159.183122 
L 371.434345 161.051814 
L 375.198411 163.055683 
L 378.78154 165.187991 
L 382.174723 167.441635 
L 385.369466 169.80917 
L 388.357817 172.28283 
L 391.132388 174.854544 
L 393.686372 177.515966 
L 396.013567 180.258494 
L 398.108388 183.073295 
L 399.965889 185.951329 
L 401.581768 188.883376 
L 402.952388 191.860059 
L 404.074781 194.871875 
L 404.946658 197.909215 
L 405.566417 200.962397 
L 405.933144 204.021687 
L 406.046618 207.077332 
L 405.907312 210.119585 
L 405.516389 213.138731 
L 404.875701 216.125113 
L 403.987784 219.069165 
L 402.855848 221.961432 
L 401.483772 224.792599 
L 399.876089 227.55352 
L 398.037979 230.235237 
L 395.975247 232.829012 
L 393.694313 235.326345 
L 391.202192 237.719004 
L 388.506473 239.999042 
L 385.615302 242.158825 
L 382.537352 244.191047 
L 379.281807 246.088757 
L 375.85833 247.845375 
L 372.277042 249.454708 
L 368.548487 250.910972 
L 364.683607 252.208807 
L 360.693712 253.34329 
L 356.590445 254.30995 
L 352.385753 255.104781 
L 348.091851 255.724252 
L 343.72119 256.165319 
L 339.286421 256.425431 
L 334.800361 256.502539 
L 330.275956 256.395101 
L 325.726244 256.102086 
L 321.164322 255.622979 
L 316.603307 254.95778 
L 312.056299 254.107005 
L 307.536347 253.071686 
L 303.05641 251.853364 
L 298.629322 250.454091 
L 294.267756 248.876419 
L 289.98419 247.123397 
L 285.79087 245.198558 
L 281.699777 243.105914 
L 277.722594 240.849942 
L 273.870673 238.435572 
L 270.155004 235.868175 
L 266.586182 233.153545 
L 263.174381 230.297887 
L 259.929323 227.307795 
L 256.860251 224.190238 
L 253.975906 220.952539 
L 251.284498 217.602354 
L 248.79369 214.147651 
L 246.510567 210.596689 
L 244.441626 206.957995 
L 242.592752 203.240338 
L 240.969203 199.452707 
L 239.575595 195.604286 
L 238.415892 191.704427 
L 237.493389 187.762625 
L 236.81071 183.788491 
L 236.369795 179.791728 
L 236.171898 175.782099 
L 236.21758 171.769404 
L 236.506712 167.763453 
L 237.038472 163.774034 
L 237.811349 159.810892 
L 238.823146 155.883698 
L 240.070986 152.002022 
L 241.551321 148.17531 
L 243.259943 144.412853 
L 245.191993 140.723765 
L 247.341974 137.116955 
L 249.703773 133.601106 
L 252.270668 130.184644 
L 255.035354 126.875724 
L 257.989963 123.682198 
L 261.126082 120.611601 
L 264.434779 117.671125 
L 267.906627 114.8676 
L 271.531732 112.207477 
L 275.299759 109.696808 
L 279.19996 107.341232 
L 283.221208 105.145954 
L 287.352022 103.115737 
L 291.580604 101.254885 
L 295.894868 99.56723 
L 300.282478 98.056128 
L 304.730879 96.724439 
L 309.227334 95.57453 
L 313.758956 94.608261 
L 318.312749 93.826984 
L 322.875641 93.231537 
L 327.434521 92.822242 
L 331.976276 92.598907 
L 336.487825 92.560822 
L 340.956162 92.706764 
L 345.368384 93.035002 
L 349.711733 93.543296 
L 353.973628 94.22891 
L 358.141704 95.088616 
L 362.203841 96.118704 
L 366.148202 97.314993 
L 369.963267 98.67284 
L 373.637858 100.187156 
L 377.161181 101.852421 
L 380.522845 103.662695 
L 383.712899 105.611639 
L 386.721856 107.69253 
L 389.540722 109.898283 
L 392.161016 112.221466 
L 394.574801 114.654324 
L 396.7747 117.188803 
L 398.753919 119.816565 
L 400.506266 122.52902 
L 402.026168 125.317344 
L 403.308688 128.172505 
L 404.349536 131.085291 
L 405.145082 134.046332 
L 405.692369 137.046127 
L 405.989116 140.075072 
L 406.033729 143.123488 
L 405.825303 146.181644 
L 405.363626 149.239786 
L 404.649178 152.288165 
L 403.683133 155.317065 
L 402.46735 158.316827 
L 401.004374 161.27788 
L 399.297424 164.190763 
L 397.35039 167.046155 
L 395.167814 169.834903 
L 392.754885 172.548039 
L 390.117421 175.176816 
L 387.261854 177.712723 
L 384.195209 180.147516 
L 380.925089 182.473235 
L 377.459653 184.682233 
L 373.80759 186.767189 
L 369.978098 188.721136 
L 365.980857 190.537477 
L 361.826004 192.210003 
L 357.524103 193.732911 
L 353.086114 195.100823 
L 348.523367 196.308795 
L 343.847528 197.352337 
L 339.070564 198.227421 
L 334.204716 198.930496 
L 329.26246 199.458496 
L 324.256472 199.808846 
L 319.199595 199.979476 
L 314.104806 199.96882 
L 308.985172 199.775824 
L 303.85382 199.399949 
L 298.723901 198.841171 
L 293.608548 198.099982 
L 288.520843 197.177389 
L 283.473784 196.074911 
L 278.480239 194.794574 
L 273.552923 193.338906 
L 268.70435 191.710931 
L 263.94681 189.91416 
L 259.292324 187.95258 
L 254.752619 185.830644 
L 250.339091 183.55326 
L 246.062774 181.125775 
L 241.93431 178.553962 
L 237.96392 175.844002 
L 234.161374 173.002468 
L 230.535964 170.036308 
L 227.096481 166.952824 
L 223.851186 163.759653 
L 220.80779 160.464742 
L 217.973434 157.076332 
L 215.354665 153.602932 
L 212.957421 150.053293 
L 210.787014 146.436387 
L 208.848114 142.761382 
L 207.144738 139.037615 
L 205.680237 135.274566 
L 204.457287 131.481834 
L 203.477886 127.669106 
L 202.743339 123.846135 
L 202.254265 120.022709 
L 202.010589 116.208627 
L 202.011542 112.413668 
L 202.255668 108.647567 
L 202.740824 104.919987 
L 203.464187 101.240492 
L 204.422263 97.61852 
L 205.610894 94.063356 
L 207.025274 90.584109 
L 208.65996 87.189685 
L 210.508886 83.888761 
L 212.565383 80.689762 
L 214.822195 77.60084 
L 217.271499 74.629846 
L 219.904933 71.784312 
L 222.713609 69.071431 
L 225.688147 66.498032 
L 228.818696 64.070568 
L 232.094965 61.795092 
L 235.506248 59.677242 
L 239.041457 57.722228 
L 242.689151 55.934813 
L 246.437571 54.319303 
L 250.274668 52.879536 
L 254.188141 51.618866 
L 258.165468 50.54016 
L 262.193944 49.645786 
L 266.260716 48.937608 
L 270.352817 48.416982 
L 274.457201 48.084748 
L 278.560786 47.941231 
L 282.650483 47.986243 
L 286.713236 48.219075 
L 290.736061 48.638509 
L 294.706076 49.242814 
L 298.610543 50.029753 
L 302.436898 50.996591 
L 306.172794 52.140102 
L 309.806125 53.456576 
L 313.32507 54.941831 
L 316.718119 56.591224 
L 319.974108 58.399666 
L 323.08225 60.361634 
L 326.032166 62.471186 
L 328.813911 64.721979 
L 331.418005 67.107287 
L 333.835458 69.620018 
L 336.057796 72.252736 
L 338.077083 74.997681 
L 339.885945 77.846788 
L 341.47759 80.791712 
L 342.845826 83.823854 
L 343.985082 86.934379 
L 344.890418 90.114244 
L 345.557543 93.354223 
L 345.982825 96.644933 
L 346.163305 99.97686 
L 346.096698 103.340383 
L 345.781408 106.725806 
L 345.216525 110.12338 
L 344.401834 113.523333 
L 343.33781 116.915896 
L 342.025623 120.291331 
L 340.467128 123.639957 
L 338.664865 126.952179 
L 336.622051 130.218513 
L 334.342568 133.429612 
L 331.830957 136.576296 
L 329.092404 139.649571 
L 326.132721 142.64066 
L 322.958339 145.541024 
L 319.576281 148.342387 
L 315.994147 151.03676 
L 312.220095 153.616461 
L 308.262814 156.074138 
L 304.131501 158.40279 
L 299.835838 160.595784 
L 295.385962 162.646878 
L 290.79244 164.550232 
L 286.066236 166.300429 
L 281.218683 167.892492 
L 276.261451 169.32189 
L 271.206516 170.584558 
L 266.066124 171.676905 
L 260.852758 172.595826 
L 255.579104 173.338709 
L 250.258016 173.90344 
L 244.902481 174.288415 
L 239.525578 174.49254 
L 234.140448 174.515233 
L 228.760255 174.356432 
L 223.398148 174.016587 
L 218.067226 173.496664 
L 212.780503 172.798142 
L 207.550869 171.923005 
L 202.391054 170.873742 
L 197.313597 169.653336 
L 192.330806 168.265258 
L 187.454727 166.713455 
L 182.697109 165.002341 
L 178.069373 163.136786 
L 173.582579 161.122096 
L 169.247395 158.964007 
L 165.074069 156.668662 
L 161.072398 154.242599 
L 157.251704 151.692728 
L 153.620805 149.026316 
L 150.187993 146.250963 
L 146.96101 143.374584 
L 143.947027 140.405386 
L 141.152622 137.351844 
L 138.583764 134.222677 
L 136.245799 131.026827 
L 134.143427 127.773432 
L 132.280699 124.471798 
L 130.660997 121.131377 
L 129.287032 117.76174 
L 128.160831 114.372548 
L 127.283735 110.973527 
L 126.656394 107.574442 
L 126.278763 104.185066 
L 126.150108 100.815156 
L 126.269004 97.474425 
L 126.633337 94.172514 
L 127.240315 90.918967 
L 128.086475 87.723202 
L 129.167689 84.594487 
L 130.479178 81.541913 
L 132.015528 78.574368 
L 133.770699 75.700514 
L 135.738049 72.928761 
L 137.910346 70.267247 
L 140.279795 67.723808 
L 142.838051 65.305966 
L 145.576254 63.020899 
L 148.485041 60.875427 
L 151.554584 58.87599 
L 154.774607 57.028632 
L 158.134423 55.338982 
L 161.62296 53.81224 
L 165.228791 52.453161 
L 168.94017 51.266043 
L 172.745059 50.254715 
L 176.631168 49.422525 
L 180.585984 48.772333 
L 184.596809 48.306499 
L 188.650794 48.026882 
L 192.734977 47.934828 
L 196.836316 48.031175 
L 200.941728 48.31624 
L 205.038125 48.789827 
L 209.112448 49.451224 
L 213.151708 50.299204 
L 217.143021 51.332029 
L 221.073638 52.547457 
L 224.930992 53.942746 
L 228.702721 55.514661 
L 232.376711 57.259486 
L 235.941127 59.173029 
L 239.384445 61.250641 
L 242.695487 63.487223 
L 245.863448 65.877242 
L 248.877929 68.414746 
L 251.728969 71.093382 
L 254.407066 73.906413 
L 256.903208 76.846736 
L 259.208898 79.9069 
L 261.316176 83.079132 
L 263.217643 86.355355 
L 264.906481 89.727208 
L 266.376473 93.186075 
L 267.622017 96.723106 
L 268.638147 100.329241 
L 269.420542 103.995235 
L 269.96554 107.711685 
L 270.270152 111.469058 
L 270.332062 115.257713 
L 270.149642 119.06793 
L 269.721951 122.889938 
L 269.048742 126.713941 
L 268.130458 130.530146 
L 266.968236 134.328789 
L 265.563898 138.100162 
L 263.919953 141.834643 
L 262.039583 145.52272 
L 259.92664 149.155017 
L 257.585632 152.722322 
L 255.021712 156.215612 
L 252.240662 159.626077 
L 249.24888 162.945146 
L 246.053359 166.164509 
L 242.661669 169.276143 
L 239.081937 172.272332 
L 235.322823 175.145688 
L 231.393496 177.889173 
L 227.30361 180.496118 
L 223.063275 182.960243 
L 218.68303 185.27567 
L 214.173814 187.436945 
L 209.546936 189.43905 
L 204.814043 191.277415 
L 199.987087 192.947937 
L 195.078291 194.446984 
L 190.100119 195.771411 
L 185.065237 196.918564 
L 179.98648 197.88629 
L 174.876815 198.672944 
L 169.749307 199.277391 
L 164.617081 199.69901 
L 159.493286 199.937695 
L 154.391057 199.993857 
L 149.323482 199.868422 
L 144.303562 199.562827 
L 139.344176 199.079019 
L 134.458048 198.419444 
L 129.657707 197.587048 
L 124.955453 196.585261 
L 120.363327 195.417993 
L 115.893073 194.089621 
L 111.556107 192.604974 
L 107.363485 190.969325 
L 103.325874 189.188371 
L 99.453519 187.268222 
L 95.756217 185.215379 
L 92.24329 183.036719 
L 88.923555 180.739476 
L 85.805306 178.331217 
L 82.896288 175.819826 
L 80.203671 173.213479 
L 77.734039 170.520621 
L 75.493364 167.749944 
L 73.486993 164.910361 
L 71.719632 162.010983 
L 70.195334 159.061091 
L 68.917488 156.070113 
L 67.888807 153.047595 
L 67.111323 150.003176 
L 66.586381 146.946562 
L 66.314635 143.887495 
L 66.296046 140.83573 
L 66.529882 137.801007 
L 67.014721 134.793021 
L 67.748453 131.821396 
L 68.72829 128.895663 
L 69.950769 126.025225 
L 71.411763 123.219338 
L 73.106497 120.48708 
L 75.029554 117.837329 
L 77.174897 115.278738 
L 79.535879 112.819708 
L 82.105269 110.468367 
L 84.875266 108.232547 
L 87.837524 106.119762 
L 90.983175 104.137187 
L 94.302851 102.291636 
L 97.786716 100.589546 
L 101.424488 99.036958 
L 105.205467 97.6395 
L 109.118572 96.402369 
L 113.152363 95.33032 
L 117.295079 94.427652 
L 121.53467 93.698193 
L 125.858827 93.145293 
L 130.255021 92.771812 
L 134.710533 92.580114 
L 139.212496 92.572057 
L 143.747923 92.748994 
L 148.30375 93.11176 
L 152.866869 93.660679 
L 157.424165 94.395557 
L 161.962552 95.315685 
L 166.469011 96.419838 
L 170.930626 97.706284 
L 175.334619 99.172783 
L 179.668385 100.816594 
L 183.919531 102.634488 
L 188.075904 104.622749 
L 192.125633 106.77719 
L 196.057154 109.093163 
L 199.859248 111.565571 
L 203.521069 114.188882 
L 207.032176 116.957146 
L 210.382563 119.86401 
L 213.562683 122.902738 
L 216.563479 126.066224 
L 219.376406 129.34702 
L 221.993456 132.737349 
L 224.407181 136.229132 
L 226.610715 139.814006 
L 228.597787 143.483351 
L 230.362746 147.228313 
L 231.900573 151.039826 
L 233.206896 154.908641 
L 234.277999 158.825348 
L 235.110839 162.780406 
L 235.703047 166.764167 
L 236.05294 170.766901 
L 236.159524 174.778829 
L 236.022496 178.790144 
L 235.642245 182.791041 
L 235.019851 186.771745 
L 234.157085 190.722535 
L 233.056399 194.633775 
L 231.720922 198.495938 
L 230.154451 202.299635 
L 228.36144 206.035636 
L 226.346988 209.694902 
L 224.116826 213.268606 
L 221.677297 216.748159 
L 219.035343 220.125232 
L 216.198483 223.391783 
L 213.174794 226.540075 
L 209.972885 229.562701 
L 206.601876 232.452601 
L 203.071373 235.203085 
L 199.391438 237.80785 
L 195.572565 240.260997 
L 191.625647 242.557048 
L 187.561949 244.690962 
L 183.393074 246.658146 
L 179.130931 248.454473 
L 174.787703 250.076287 
L 170.375815 251.520419 
L 165.907892 252.78419 
L 161.396733 253.865425 
L 156.855269 254.762453 
L 152.296529 255.474114 
L 147.733604 255.999764 
L 143.17961 256.339274 
L 138.647653 256.49303 
L 134.150789 256.461934 
L 129.70199 256.2474 
L 125.314109 255.851352 
L 120.999842 255.276216 
L 116.771692 254.524913 
L 112.641938 253.600853 
L 108.622596 252.507925 
L 104.725388 251.250483 
L 100.961711 249.833341 
L 97.342602 248.261749 
L 93.878707 246.541388 
L 90.580254 244.678349 
L 87.457026 242.679117 
L 84.518326 240.550553 
L 81.772959 238.299875 
L 79.229205 235.934639 
L 76.894794 233.462713 
L 74.776886 230.892262 
L 72.882052 228.23172 
L 71.216252 225.489769 
L 69.784824 222.675312 
L 68.592464 219.797453 
L 67.643214 216.865466 
L 66.940455 213.888773 
L 66.48689 210.876916 
L 66.284544 207.839532 
L 66.334752 204.786321 
L 66.638159 201.727027 
L 67.194718 198.671405 
L 68.003689 195.629195 
L 69.063641 192.610093 
L 70.372456 189.623731 
L 71.927336 186.679641 
L 73.724808 183.787232 
L 75.760739 180.955768 
L 78.030339 178.194336 
L 80.528183 175.511821 
L 83.248222 172.916887 
L 86.183799 170.417946 
L 89.327668 168.02314 
L 92.672016 165.740312 
L 96.208484 163.57699 
L 99.928187 161.540366 
L 103.821744 159.637268 
L 107.879301 157.874152 
L 112.090557 156.257075 
L 116.444796 154.791683 
L 120.930916 153.483193 
L 125.537456 152.336381 
L 130.252635 151.355564 
L 135.064378 150.544593 
L 139.960352 149.906838 
L 144.928004 149.445182 
L 149.954588 149.162012 
L 155.027208 149.059208 
L 160.13285 149.138145 
L 165.258418 149.399685 
L 170.390773 149.844174 
L 175.516768 150.471441 
L 180.623282 151.280802 
L 185.697261 152.271058 
L 190.725754 153.440498 
L 195.695942 154.786907 
L 200.595185 156.307571 
L 205.411047 157.999281 
L 210.131336 159.858348 
L 214.744136 161.880608 
L 219.237841 164.061436 
L 223.601188 166.395757 
L 227.823285 168.878064 
L 231.893645 171.502429 
L 235.802214 174.26252 
L 239.539396 177.151622 
L 243.096086 180.162653 
L 246.463688 183.288181 
L 249.634144 186.520453 
L 252.599955 189.851406 
L 255.354201 193.272698 
L 257.89056 196.775726 
L 260.203329 200.351653 
L 262.287433 203.99143 
L 264.138447 207.685823 
L 265.752602 211.425438 
L 267.126798 215.200749 
L 268.258614 219.002119 
L 269.146312 222.819833 
L 269.788841 226.644123 
L 270.185845 230.465193 
L 270.337658 234.273248 
L 270.245307 238.058523 
L 269.910507 241.811306 
L 269.335656 245.521968 
L 268.523831 249.180991 
L 267.478775 252.778989 
L 266.20489 256.306741 
L 264.707223 259.755211 
L 262.991453 263.115577 
L 261.063875 266.379252 
L 258.931379 269.537912 
L 256.601436 272.583514 
L 254.082074 275.508326 
L 251.381857 278.304939 
L 248.509857 280.966294 
L 245.475637 283.485702 
L 242.289214 285.856858 
L 238.961039 288.073863 
L 235.501964 290.131236 
L 231.923215 292.023935 
L 228.236354 293.747365 
L 224.453254 295.297395 
L 220.586062 296.670368 
L 216.647166 297.863111 
L 212.64916 298.872943 
L 208.604809 299.697684 
L 204.527015 300.335662 
L 200.428777 300.785712 
L 196.323158 301.047187 
L 192.223248 301.119956 
L 188.142128 301.004401 
L 184.092831 300.701422 
L 180.088307 300.212432 
L 176.141389 299.53935 
L 172.264752 298.684602 
L 168.470884 297.651107 
L 164.772046 296.442275 
L 161.180241 295.061993 
L 157.707176 293.514618 
L 154.364236 291.804961 
L 151.162447 289.938277 
L 148.112446 287.920247 
L 145.224453 285.756966 
L 142.508242 283.454921 
L 139.973112 281.02098 
L 137.627862 278.462364 
L 135.480768 275.786634 
L 133.539557 273.001668 
L 131.811388 270.115638 
L 130.302828 267.136986 
L 129.01984 264.074403 
L 127.96776 260.936806 
L 127.151285 257.733308 
L 126.574462 254.473198 
L 126.240669 251.16591 
L 126.152616 247.821002 
L 126.312329 244.448127 
L 126.721148 241.057003 
L 127.37972 237.657391 
L 128.288004 234.259066 
L 129.445263 230.871787 
L 130.85007 227.505276 
L 132.500312 224.169182 
L 134.393195 220.873063 
L 136.525251 217.626355 
L 138.892348 214.438345 
L 141.489704 211.318147 
L 144.311896 208.274675 
L 147.352876 205.316621 
L 150.605992 202.452428 
L 154.063999 199.690266 
L 157.719087 197.038012 
L 161.562896 194.503227 
L 165.586544 192.093133 
L 169.780648 189.814596 
L 174.135352 187.674104 
L 178.640356 185.677751 
L 183.284939 183.831219 
L 188.057996 182.139762 
L 192.948063 180.608193 
L 197.943352 179.240868 
L 203.031782 178.041675 
L 208.201014 177.014025 
L 213.438485 176.160839 
L 218.73144 175.484543 
L 224.066973 174.987059 
L 229.432059 174.669803 
L 234.813589 174.533674 
L 240.19841 174.579061 
L 245.57336 174.805834 
L 250.925304 175.213349 
L 256.24117 175.800448 
L 261.507987 176.56546 
L 266.712922 177.506213 
L 271.84331 178.62003 
L 276.886697 179.903746 
L 281.830867 181.353709 
L 286.663883 182.965795 
L 291.374115 184.735419 
L 295.950273 186.657545 
L 300.381441 188.726704 
L 304.657106 190.937005 
L 308.767185 193.282156 
L 312.702055 195.755476 
L 316.452582 198.34992 
L 320.010141 201.058093 
L 323.366644 203.872275 
L 326.514561 206.784437 
L 329.446941 209.786271 
L 332.157432 212.869207 
L 334.640297 216.024439 
L 336.890431 219.242949 
L 338.903376 222.515533 
L 340.67533 225.832827 
L 342.203161 229.18533 
L 343.484415 232.563437 
L 344.517322 235.957457 
L 345.300799 239.357647 
L 345.834456 242.754236 
L 346.118598 246.137454 
L 346.154217 249.497557 
L 345.942999 252.824856 
L 345.48731 256.109743 
L 344.790196 259.342718 
L 343.855373 262.514416 
L 342.687211 265.615633 
L 341.290731 268.637352 
L 339.671582 271.570764 
L 337.836034 274.407302 
L 335.79095 277.138653 
L 333.543778 279.756791 
L 331.10252 282.253994 
L 328.475718 284.622868 
L 325.672423 286.856366 
L 322.702176 288.947809 
L 319.574977 290.890902 
L 316.301258 292.679757 
L 312.891854 294.308902 
L 309.357975 295.773304 
L 305.71117 297.068376 
L 301.9633 298.189996 
L 298.1265 299.134513 
L 294.213149 299.898763 
L 290.235833 300.48007 
L 286.20731 300.876263 
L 282.140477 301.085675 
L 278.048329 301.107148 
L 273.943928 300.940042 
L 269.840364 300.58423 
L 265.750718 300.040103 
L 261.688026 299.308567 
L 257.665243 298.391039 
L 253.695206 297.289448 
L 249.7906 296.006224 
L 245.963919 294.544295 
L 242.227437 292.907078 
L 238.593166 291.098468 
L 235.072829 289.122829 
L 231.677824 286.984982 
L 228.419193 284.69019 
L 225.307591 282.244145 
L 222.353257 279.652951 
L 219.565983 276.923107 
L 216.95509 274.06149 
L 214.5294 271.075336 
L 212.297212 267.972218 
L 210.266277 264.760027 
L 208.443778 261.44695 
L 206.836311 258.041443 
L 205.449865 254.552216 
L 204.289803 250.988199 
L 203.360853 247.358525 
L 202.667089 243.6725 
L 202.211921 239.93958 
L 201.998088 236.169341 
L 202.027648 232.371459 
L 202.301971 228.555673 
L 202.821739 224.731768 
L 203.586941 220.909543 
L 204.596871 217.098782 
L 205.850138 213.309232 
L 207.344659 209.550571 
L 209.077672 205.832383 
L 211.045744 202.164133 
L 213.244774 198.555138 
L 215.670012 195.014542 
L 218.316067 191.551292 
L 221.176924 188.174109 
L 224.245959 184.891471 
L 227.515961 181.711582 
L 230.979148 178.642353 
L 234.627191 175.691379 
L 238.451236 172.865919 
L 242.441929 170.172876 
L 246.589442 167.618774 
L 250.883501 165.209744 
L 255.313412 162.951508 
L 259.868095 160.849358 
L 264.53611 158.908144 
L 269.305693 157.132264 
L 274.164786 155.525646 
L 279.101069 154.091739 
L 284.102002 152.833506 
L 289.154849 151.753413 
L 294.246722 150.853423 
L 299.364613 150.134991 
L 304.495431 149.59906 
L 309.626036 149.246056 
L 314.743282 149.075893 
L 319.834045 149.087966 
L 324.885268 149.281157 
L 329.883989 149.653837 
L 334.817384 150.203872 
L 339.672799 150.928626 
L 344.437786 151.824971 
L 349.100138 152.889297 
L 353.647921 154.117516 
L 358.069511 155.505082 
L 362.353623 157.046996 
L 366.489344 158.737824 
L 370.466161 160.571713 
L 374.273994 162.542405 
L 377.903222 164.643255 
L 381.344708 166.86725 
L 384.589828 169.207029 
L 387.630493 171.654902 
L 390.45917 174.202875 
L 393.068906 176.842667 
L 395.453346 179.565738 
L 397.60675 182.36331 
L 399.524009 185.226393 
L 401.200661 188.14581 
L 402.6329 191.112222 
L 403.817591 194.116152 
L 404.752274 197.148016 
L 405.435175 200.198148 
L 405.865208 203.256825 
L 406.041978 206.314296 
L 405.965785 209.36081 
L 405.637619 212.38664 
L 405.059162 215.382114 
L 404.232777 218.33764 
L 403.161508 221.243732 
L 401.849067 224.091039 
L 400.299826 226.870369 
L 398.518802 229.572715 
L 396.511647 232.189282 
L 394.284629 234.711508 
L 391.844616 237.131092 
L 389.199054 239.440014 
L 386.355953 241.630558 
L 383.323856 243.695337 
L 380.111822 245.627307 
L 376.729397 247.419793 
L 373.186589 249.066506 
L 369.49384 250.561557 
L 365.661995 251.899478 
L 361.702275 253.075236 
L 357.626242 254.084246 
L 353.445771 254.922383 
L 349.173013 255.585999 
L 344.820363 256.071926 
L 340.400425 256.377488 
L 335.925979 256.500512 
L 331.40994 256.439327 
L 326.865329 256.192775 
L 322.30523 255.760211 
L 317.742759 255.141507 
L 313.191023 254.337049 
L 308.663088 253.347741 
L 304.171939 252.174997 
L 299.730443 250.820742 
L 295.351319 249.287404 
L 291.047095 247.577907 
L 286.830079 245.695664 
L 282.712322 243.64457 
L 278.705584 241.428985 
L 274.821303 239.053728 
L 271.070561 236.524061 
L 267.464057 233.845673 
L 264.012071 231.024669 
L 260.724441 228.067546 
L 257.610533 224.981182 
L 254.679216 221.772814 
L 251.938834 218.450015 
L 249.397188 215.020678 
L 247.061512 211.492992 
L 244.93845 207.875418 
L 243.034041 204.176667 
L 241.353702 200.405676 
L 239.902212 196.571582 
L 238.683697 192.683697 
L 237.701622 188.751483 
L 236.958779 184.784526 
L 236.457278 180.792507 
L 236.198547 176.785177 
L 236.183319 172.772329 
L 236.411639 168.763773 
L 236.882857 164.769305 
L 237.595634 160.798684 
L 238.547944 156.861601 
L 239.73708 152.967655 
L 241.15966 149.126324 
L 242.811641 145.346942 
L 244.688324 141.638668 
L 246.784372 138.010465 
L 249.093823 134.471075 
L 251.610106 131.028991 
L 254.326061 127.692437 
L 257.233957 124.469344 
L 260.325516 121.367327 
L 263.591932 118.393665 
L 267.023902 115.555282 
L 270.611646 112.858726 
L 274.344934 110.310149 
L 278.213121 107.915294 
L 282.20517 105.679477 
L 286.309687 103.607573 
L 290.514949 101.704002 
L 294.80894 99.972715 
L 299.179383 98.417187 
L 303.613774 97.040403 
L 308.099418 95.844855 
L 312.623463 94.832529 
L 317.172936 94.004906 
L 321.734782 93.36295 
L 326.295895 92.907116 
L 330.843159 92.637337 
L 335.363482 92.553034 
L 339.843837 92.653112 
L 344.27129 92.935966 
L 348.633044 93.399483 
L 352.916471 94.041051 
L 357.109148 94.857563 
L 361.198891 95.84543 
L 365.173789 97.000586 
L 369.02224 98.318503 
L 372.732977 99.794203 
L 376.295107 101.422271 
L 379.698136 103.196872 
L 382.932001 105.111764 
L 385.987095 107.160319 
L 388.854299 109.33554 
L 391.525002 111.630079 
L 393.991128 114.036263 
L 396.245159 116.546107 
L 398.280152 119.151345 
L 400.089763 121.843445 
L 401.668265 124.613641 
L 403.010558 127.45295 
L 404.112191 130.352202 
L 404.969366 133.302065 
L 405.578958 136.293068 
L 405.938516 139.315631 
L 406.046274 142.360091 
L 405.901155 145.416725 
L 405.502773 148.475785 
L 404.851435 151.527518 
L 403.948142 154.562195 
L 402.794581 157.570143 
L 401.393128 160.541765 
L 399.746833 163.46757 
L 397.859419 166.338201 
L 395.735267 169.144458 
L 393.379405 171.877326 
L 390.797496 174.528 
L 387.995818 177.087908 
L 384.981252 179.548737 
L 381.761258 181.902455 
L 378.343857 184.141332 
L 374.737607 186.257966 
L 370.951583 188.245299 
L 366.995347 190.096639 
L 362.878923 191.805678 
L 358.612771 193.366512 
L 354.207756 194.773654 
L 349.675117 196.02205 
L 345.02644 197.107095 
L 340.27362 198.024645 
L 335.428833 198.771029 
L 330.504497 199.343058 
L 325.513244 199.738035 
L 320.467877 199.953762 
L 315.381344 199.988546 
L 310.266692 199.841206 
L 305.137038 199.511073 
L 300.005528 198.997995 
L 294.885304 198.302334 
L 289.789465 197.42497 
L 284.731032 196.367293 
L 279.72291 195.131203 
L 274.777855 193.719103 
L 269.908435 192.133895 
L 265.126998 190.378967 
L 260.445637 188.45819 
L 255.876155 186.375901 
L 251.430034 184.136895 
L 247.1184 181.74641 
L 242.951998 179.210115 
L 238.941156 176.53409 
L 235.095758 173.724812 
L 231.425221 170.789138 
L 227.93846 167.734282 
L 224.643873 164.567799 
L 221.549311 161.297562 
L 218.662057 157.931739 
L 215.988811 154.478775 
L 213.535663 150.947363 
L 211.308083 147.346421 
L 209.310904 143.685072 
L 207.548307 139.972612 
L 206.023809 136.218488 
L 204.740258 132.432271 
L 203.69982 128.62363 
L 202.903975 124.802303 
L 202.353513 120.978072 
L 202.048532 117.160736 
L 201.988438 113.360081 
L 202.171945 109.585857 
L 202.597082 105.847746 
L 203.261194 102.155339 
L 204.160956 98.518109 
L 205.292373 94.945382 
L 206.650802 91.446313 
L 208.230956 88.02986 
L 210.026924 84.704761 
L 212.032186 81.479506 
L 214.23963 78.362316 
L 216.641575 75.361121 
L 219.22979 72.483534 
L 221.995515 69.736835 
L 224.929493 67.127946 
L 228.021988 64.663415 
L 231.262815 62.349397 
L 234.641369 60.191635 
L 238.146656 58.195447 
L 241.76732 56.365711 
L 245.491678 54.706846 
L 249.307749 53.22281 
L 253.203294 51.917078 
L 257.165842 50.792639 
L 261.182731 49.851988 
L 265.241141 49.097114 
L 269.328129 48.529501 
L 273.430668 48.150118 
L 277.535681 47.95942 
L 281.630075 47.957345 
L 285.700785 48.143317 
L 289.734805 48.516243 
L 293.719223 49.07452 
L 297.641262 49.816037 
L 301.488312 50.738184 
L 305.247967 51.837856 
L 308.908059 53.111463 
L 312.456693 54.55494 
L 315.882276 56.163759 
L 319.173556 57.93294 
L 322.31965 59.857067 
L 325.310072 61.930302 
L 328.134767 64.1464 
L 330.784136 66.49873 
L 333.249065 68.98029 
L 335.520947 71.583727 
L 337.59171 74.30136 
L 339.453838 77.125197 
L 341.100391 80.046964 
L 342.525027 83.058121 
L 343.722016 86.14989 
L 344.68626 89.313278 
L 345.413304 92.539103 
L 345.899351 95.818018 
L 346.141272 99.140538 
L 346.136613 102.497069 
L 345.883606 105.87793 
L 345.381168 109.273382 
L 344.628912 112.673657 
L 343.627139 116.068981 
L 342.376845 119.449608 
L 340.879716 122.80584 
L 339.13812 126.128057 
L 337.155105 129.406745 
L 334.934389 132.632521 
L 332.480349 135.796159 
L 329.798011 138.888618 
L 326.893032 141.901064 
L 323.771689 144.824896 
L 320.440859 147.651769 
L 316.908001 150.373622 
L 313.181134 152.982694 
L 309.268817 155.471547 
L 305.180123 157.833092 
L 300.924615 160.060602 
L 296.512318 162.147734 
L 291.953694 164.088547 
L 287.259612 165.877518 
L 282.441315 167.509557 
L 277.510391 168.98002 
L 272.478744 170.284726 
L 267.358555 171.419964 
L 262.16225 172.382506 
L 256.902469 173.169616 
L 251.592027 173.779055 
L 246.24388 174.209092 
L 240.871089 174.458504 
L 235.486782 174.526581 
L 230.10412 174.413132 
L 224.736261 174.118477 
L 219.39632 173.643455 
L 214.097333 172.989416 
L 208.852226 172.158219 
L 203.673773 171.152227 
L 198.574563 169.974301 
L 193.566965 168.627789 
L 188.663094 167.116521 
L 183.874777 165.444797 
L 179.213519 163.617371 
L 174.690474 161.639443 
L 170.31641 159.516644 
L 166.101683 157.255015 
L 162.056205 154.860998 
L 158.18942 152.341412 
L 154.510274 149.703435 
L 151.027193 146.954587 
L 147.748058 144.102706 
L 144.680184 141.155928 
L 141.8303 138.122664 
L 139.204531 135.011573 
L 136.808376 131.831545 
L 134.6467 128.591669 
L 132.723718 125.301214 
L 131.042979 121.969597 
L 129.607363 118.606361 
L 128.419068 115.221148 
L 127.479608 111.82367 
L 126.789805 108.423685 
L 126.349789 105.030966 
L 126.158997 101.655276 
L 126.216176 98.306343 
L 126.519385 94.993828 
L 127.066001 91.727302 
L 127.852726 88.516216 
L 128.875599 85.369879 
L 130.130003 82.297428 
L 131.610679 79.307805 
L 133.311745 76.409729 
L 135.226705 73.611678 
L 137.348475 70.921857 
L 139.669397 68.348181 
L 142.181262 65.898253 
L 144.875337 63.579338 
L 147.742382 61.398349 
L 150.772682 59.361821 
L 153.956071 57.475899 
L 157.281963 55.746318 
L 160.739377 54.178385 
L 164.316974 52.776969 
L 168.003084 51.546483 
L 171.785738 50.490875 
L 175.652707 49.613613 
L 179.59153 48.917681 
L 183.589552 48.405563 
L 187.633959 48.079246 
L 191.711813 47.940203 
L 195.810088 47.989399 
L 199.915709 48.227283 
L 204.015586 48.653787 
L 208.096648 49.268326 
L 212.145887 50.069803 
L 216.150387 51.056607 
L 220.097365 52.226623 
L 223.974202 53.57723 
L 227.768483 55.105319 
L 231.468029 56.80729 
L 235.060931 58.679072 
L 238.535586 60.716128 
L 241.880725 62.91347 
L 245.085447 65.265671 
L 248.13925 67.766884 
L 251.03206 70.410854 
L 253.754257 73.190939 
L 256.296704 76.100123 
L 258.650775 79.131044 
L 260.808372 82.276005 
L 262.761954 85.527003 
L 264.504556 88.875746 
L 266.029809 92.313681 
L 267.331956 95.832013 
L 268.40587 99.421731 
L 269.247067 103.073636 
L 269.851722 106.778362 
L 270.216673 110.526404 
L 270.339438 114.308147 
L 270.218216 118.113888 
L 269.851893 121.933866 
L 269.240049 125.758289 
L 268.382955 129.577361 
L 267.281573 133.381307 
L 265.937555 137.160403 
L 264.35324 140.905004 
L 262.531641 144.605567 
L 260.476444 148.252679 
L 258.191994 151.837086 
L 255.683284 155.349714 
L 252.955941 158.781699 
L 250.016209 162.124406 
L 246.870935 165.36946 
L 243.527547 168.508762 
L 239.994035 171.534518 
L 236.278926 174.439256 
L 232.391266 177.215848 
L 228.340589 179.857533 
L 224.136894 182.35793 
L 219.790616 184.711059 
L 215.312596 186.91136 
L 210.714055 188.953703 
L 206.006557 190.833407 
L 201.20198 192.546249 
L 196.312485 194.088479 
L 191.350477 195.456828 
L 186.328575 196.648521 
L 181.259575 197.661278 
L 176.156416 198.493327 
L 171.03214 199.143404 
L 165.899861 199.61076 
L 160.772725 199.89516 
L 155.663875 199.996886 
L 150.586414 199.916736 
L 145.553367 199.656018 
L 140.577649 199.216553 
L 135.672024 198.600663 
L 130.849073 197.811169 
L 126.121157 196.851382 
L 121.500386 195.725093 
L 116.998581 194.436561 
L 112.627241 192.990506 
L 108.397518 191.392089 
L 104.320177 189.646905 
L 100.405572 187.76096 
L 96.663614 185.74066 
L 93.103745 183.59279 
L 89.734914 181.324495 
L 86.565546 178.943263 
L 83.603525 176.4569 
L 80.856168 173.87351 
L 78.330205 171.201474 
L 76.031765 168.449425 
L 73.966351 165.626222 
L 72.138832 162.740928 
L 70.553425 159.802786 
L 69.213684 156.821189 
L 68.122495 153.805655 
L 67.282059 150.765804 
L 66.693893 147.711326 
L 66.358825 144.651958 
L 66.276988 141.597454 
L 66.447825 138.557559 
L 66.870083 135.541983 
L 67.541828 132.560371 
L 68.460437 129.622277 
L 69.622616 126.737142 
L 71.024404 123.914258 
L 72.661186 121.162752 
L 74.527705 118.491555 
L 76.618075 115.909376 
L 78.925803 113.424682 
L 81.4438 111.045673 
L 84.164407 108.780255 
L 87.079411 106.636026 
L 90.180073 104.620244 
L 93.457147 102.739819 
L 96.900913 101.001282 
L 100.501194 99.410774 
L 104.247396 97.974029 
L 108.128529 96.696353 
L 112.133239 95.582613 
L 116.249843 94.637222 
L 120.466359 93.864128 
L 124.770542 93.266801 
L 129.149912 92.848224 
L 133.591795 92.610886 
L 138.083359 92.556773 
L 142.611642 92.687362 
L 147.163597 93.00362 
L 151.726123 93.505999 
L 156.286103 94.194434 
L 160.830441 95.068344 
L 165.346098 96.126634 
L 169.820128 97.367697 
L 174.239715 98.78942 
L 178.592209 100.389187 
L 182.865159 102.163889 
L 187.04635 104.109933 
L 191.123837 106.223247 
L 195.085975 108.499298 
L 198.921458 110.933099 
L 202.619342 113.519225 
L 206.169084 116.251831 
L 209.560564 119.124662 
L 212.78412 122.131076 
L 215.830568 125.264058 
L 218.691234 128.516243 
L 221.357974 131.879935 
L 223.823197 135.347128 
L 226.07989 138.909527 
L 228.121632 142.558576 
L 229.942615 146.285476 
L 231.537661 150.081211 
L 232.902233 153.936577 
L 234.032453 157.842201 
L 234.925107 161.788572 
L 235.577658 165.766067 
L 235.98825 169.764973 
L 236.155717 173.775522 
L 236.079582 177.787909 
L 235.760062 181.792329 
L 235.198065 185.778995 
L 234.395189 189.73817 
L 233.353716 193.660196 
L 232.076607 197.535514 
L 230.567492 201.3547 
L 228.830663 205.10848 
L 226.871058 208.787766 
L 224.694252 212.383676 
L 222.306437 215.887557 
L 219.714407 219.291016 
L 216.925538 222.585935 
L 213.94777 225.7645 
L 210.78958 228.819218 
L 207.459964 231.742941 
L 203.968409 234.528886 
L 200.324864 237.17065 
L 196.53972 239.662231 
L 192.623771 241.998046 
L 188.588193 244.172943 
L 184.444507 246.182215 
L 180.204548 248.021617 
L 175.880436 249.687376 
L 171.484536 251.176199 
L 167.029429 252.485284 
L 162.527871 253.612329 
L 157.992765 254.555537 
L 153.437118 255.313621 
L 148.87401 255.885806 
L 144.316554 256.271835 
L 139.777861 256.471964 
L 135.271004 256.486969 
L 130.808978 256.318134 
L 126.404671 255.967257 
L 122.07082 255.436638 
L 117.81998 254.729076 
L 113.66449 253.847859 
L 109.616434 252.796758 
L 105.687611 251.580011 
L 101.889502 250.202318 
L 98.233237 248.668823 
L 94.729562 246.985099 
L 91.388814 245.157136 
L 88.220888 243.191324 
L 85.235211 241.09443 
L 82.440714 238.873585 
L 79.84581 236.536263 
L 77.45837 234.090255 
L 75.285697 231.543655 
L 73.334511 228.904831 
L 71.610927 226.182405 
L 70.120441 223.385229 
L 68.867909 220.522357 
L 67.857539 217.603024 
L 67.092877 214.636617 
L 66.576797 211.632652 
L 66.311494 208.600741 
L 66.298476 205.550575 
L 66.53856 202.491888 
L 67.031874 199.434433 
L 67.77785 196.387959 
L 68.775228 193.362174 
L 70.022063 190.366729 
L 71.515726 187.411183 
L 73.252912 184.50498 
L 75.229651 181.657421 
L 77.441318 178.877639 
L 79.882645 176.174573 
L 82.547736 173.556945 
L 85.430084 171.033232 
L 88.522591 168.611644 
L 91.817582 166.300103 
L 95.306833 164.106218 
L 98.981588 162.037264 
L 102.832587 160.100165 
L 106.850093 158.301469 
L 111.023913 156.647337 
L 115.343432 155.143518 
L 119.797643 153.795337 
L 124.375171 152.607683 
L 129.064311 151.584988 
L 133.853059 150.73122 
L 138.729145 150.049872 
L 143.680065 149.543948 
L 148.69312 149.21596 
L 153.755447 149.067916 
L 158.854059 149.101317 
L 163.975876 149.317154 
L 169.107767 149.715901 
L 174.236584 150.297518 
L 179.349195 151.061448 
L 184.432527 152.00662 
L 189.473599 153.131452 
L 194.459556 154.433854 
L 199.37771 155.911235 
L 204.21557 157.560512 
L 208.96088 159.378112 
L 213.601653 161.359989 
L 218.126202 163.501633 
L 222.523175 165.798081 
L 226.781584 168.243931 
L 230.890838 170.833359 
L 234.840773 173.560134 
L 238.621675 176.417633 
L 242.224314 179.398865 
L 245.639964 182.496484 
L 248.860432 185.702814 
L 251.878076 189.009868 
L 254.68583 192.409372 
L 257.27722 195.892786 
L 259.646387 199.451328 
L 261.788098 203.076002 
L 263.697763 206.757616 
L 265.37145 210.486814 
L 266.805889 214.2541 
L 267.99849 218.049863 
L 268.947343 221.864406 
L 269.651224 225.68797 
L 270.109605 229.510763 
L 270.322647 233.322989 
L 270.291203 237.114872 
L 270.016817 240.876684 
L 269.501717 244.598774 
L 268.74881 248.271592 
L 267.761675 251.885718 
L 266.544549 255.431886 
L 265.102319 258.901013 
L 263.440509 262.284219 
L 261.56526 265.572858 
L 259.483315 268.758537 
L 257.202003 271.833141 
L 254.729214 274.788858 
L 252.073379 277.618196 
L 249.243447 280.314008 
L 246.24886 282.869509 
L 243.099524 285.278298 
L 239.805785 287.53437 
L 236.378397 289.632142 
L 232.828495 291.566457 
L 229.16756 293.33261 
L 225.407391 294.926352 
L 221.56007 296.343906 
L 217.637927 297.581977 
L 213.653508 298.637761 
L 209.619538 299.508952 
L 205.548889 300.193749 
L 201.454539 300.690862 
L 197.349539 300.999514 
L 193.246974 301.119443 
L 189.159933 301.050905 
L 185.101462 300.79467 
L 181.084536 300.352022 
L 177.122021 299.724755 
L 173.226636 298.915169 
L 169.410917 297.92606 
L 165.687186 296.760716 
L 162.067512 295.422907 
L 158.563682 293.916871 
L 155.187162 292.247309 
L 151.949072 290.419366 
L 148.860149 288.438617 
L 145.93072 286.311055 
L 143.170673 284.043072 
L 140.589428 281.641441 
L 138.195912 279.113298 
L 135.998532 276.46612 
L 134.005157 273.707709 
L 132.223088 270.846163 
L 130.659043 267.889861 
L 129.319137 264.847433 
L 128.208864 261.727743 
L 127.333083 258.539856 
L 126.696004 255.293019 
L 126.301174 251.996634 
L 126.151469 248.66023 
L 126.249088 245.293437 
L 126.595542 241.905961 
L 127.191653 238.507555 
L 128.037551 235.107992 
L 129.132673 231.717039 
L 130.475765 228.344427 
L 132.064883 224.999829 
L 133.897405 221.692827 
L 135.970029 218.432889 
L 138.278789 215.229343 
L 140.819064 212.091348 
L 143.58559 209.027871 
L 146.572473 206.047661 
L 149.773211 203.159225 
L 153.180707 200.370805 
L 156.787287 197.690353 
L 160.584729 195.12551 
L 164.564277 192.683585 
L 168.716673 190.371535 
L 173.032176 188.195945 
L 177.500594 186.163008 
L 182.111309 184.278512 
L 186.853308 182.547817 
L 191.715216 180.97585 
L 196.685321 179.567081 
L 201.751613 178.325516 
L 206.901815 177.254687 
L 212.123414 176.357638 
L 217.403703 175.63692 
L 222.729809 175.094581 
L 228.088733 174.732162 
L 233.467384 174.550695 
L 238.852616 174.550695 
L 244.231267 174.732162 
L 249.590191 175.094581 
L 254.916297 175.63692 
L 260.196586 176.357638 
L 265.418185 177.254687 
L 270.568387 178.325516 
L 275.634679 179.567081 
L 280.604784 180.97585 
L 285.466692 182.547817 
L 290.208691 184.278512 
L 294.819406 186.163008 
L 299.287824 188.195945 
L 303.603327 190.371535 
L 307.755723 192.683585 
L 311.735271 195.12551 
L 315.532713 197.690353 
L 319.139293 200.370805 
L 322.546789 203.159225 
L 325.747527 206.047661 
L 328.73441 209.027871 
L 331.500936 212.091348 
L 334.041211 215.229343 
L 336.349971 218.432889 
L 338.422595 221.692827 
L 340.255117 224.999829 
L 341.844235 228.344427 
L 343.187327 231.717039 
L 344.282449 235.107992 
L 345.128347 238.507555 
L 345.724458 241.905961 
L 346.070912 245.293437 
L 346.168531 248.66023 
L 346.018826 251.996634 
L 345.623996 255.293019 
L 344.986917 258.539856 
L 344.111136 261.727743 
L 343.000863 264.847433 
L 341.660957 267.889861 
L 340.096912 270.846163 
L 338.314843 273.707709 
L 336.321468 276.46612 
L 334.124088 279.113298 
L 331.730572 281.641441 
L 329.149327 284.043072 
L 326.38928 286.311055 
L 323.459851 288.438617 
L 320.370928 290.419366 
L 317.132838 292.247309 
L 313.756318 293.916871 
L 310.252488 295.422907 
L 306.632814 296.760716 
L 302.909083 297.92606 
L 299.093364 298.915169 
L 295.197979 299.724755 
L 291.235464 300.352022 
L 287.218538 300.79467 
L 283.160067 301.050905 
L 279.073026 301.119443 
L 274.970461 300.999514 
L 270.865461 300.690862 
L 266.771111 300.193749 
L 262.700462 299.508952 
L 258.666492 298.637761 
L 254.682073 297.581977 
L 250.75993 296.343906 
L 246.912609 294.926352 
L 243.15244 293.33261 
L 239.491505 291.566457 
L 235.941603 289.632142 
L 232.514215 287.53437 
L 229.220476 285.278298 
L 226.07114 282.869509 
L 223.076553 280.314008 
L 220.246621 277.618196 
L 217.590786 274.788858 
L 215.117997 271.833141 
L 212.836685 268.758537 
L 210.75474 265.572858 
L 208.879491 262.284219 
L 207.217681 258.901013 
L 205.775451 255.431886 
L 204.558325 251.885718 
L 203.57119 248.271592 
L 202.818283 244.598774 
L 202.303183 240.876684 
L 202.028797 237.114872 
L 201.997353 233.322989 
L 202.210395 229.510763 
L 202.668776 225.68797 
L 203.372657 221.864406 
L 204.32151 218.049863 
L 205.514111 214.2541 
L 206.94855 210.486814 
L 208.622237 206.757616 
L 210.531902 203.076002 
L 212.673613 199.451328 
L 215.04278 195.892786 
L 217.63417 192.409372 
L 220.441924 189.009868 
L 223.459568 185.702814 
L 226.680036 182.496484 
L 230.095686 179.398865 
L 233.698325 176.417633 
L 237.479227 173.560134 
L 241.429162 170.833359 
L 245.538416 168.243931 
L 249.796825 165.798081 
L 254.193798 163.501633 
L 258.718347 161.359989 
L 263.35912 159.378112 
L 268.10443 157.560512 
L 272.94229 155.911235 
L 277.860444 154.433854 
L 282.846401 153.131452 
L 287.887473 152.00662 
L 292.970805 151.061448 
L 298.083416 150.297518 
L 303.212233 149.715901 
L 308.344124 149.317154 
L 313.465941 149.101317 
L 318.564553 149.067916 
L 323.62688 149.21596 
L 328.639935 149.543948 
L 333.590855 150.049872 
L 338.466941 150.73122 
L 343.255689 151.584988 
L 347.944829 152.607683 
L 352.522357 153.795337 
L 356.976568 155.143518 
L 361.296087 156.647337 
L 365.469907 158.301469 
L 369.487413 160.100165 
L 373.338412 162.037264 
L 377.013167 164.106218 
L 380.502418 166.300103 
L 383.797409 168.611644 
L 386.889916 171.033232 
L 389.772264 173.556945 
L 392.437355 176.174573 
L 394.878682 178.877639 
L 397.090349 181.657421 
L 399.067088 184.50498 
L 400.804274 187.411183 
L 402.297937 190.366729 
L 403.544772 193.362174 
L 404.54215 196.387959 
L 405.288126 199.434433 
L 405.78144 202.491888 
L 406.021524 205.550575 
L 406.008506 208.600741 
L 405.743203 211.632652 
L 405.227123 214.636617 
L 404.462461 217.603024 
L 403.452091 220.522357 
L 402.199559 223.385229 
L 400.709073 226.182405 
L 398.985489 228.904831 
L 397.034303 231.543655 
L 394.86163 234.090255 
L 392.47419 236.536263 
L 389.879286 238.873585 
L 387.084789 241.09443 
L 384.099112 243.191324 
L 380.931186 245.157136 
L 377.590438 246.985099 
L 374.086763 248.668823 
L 370.430498 250.202318 
L 366.632389 251.580011 
L 362.703566 252.796758 
L 358.65551 253.847859 
L 354.50002 254.729076 
L 350.24918 255.436638 
L 345.915329 255.967257 
L 341.511022 256.318134 
L 337.048996 256.486969 
L 332.542139 256.471964 
L 328.003446 256.271835 
L 323.44599 255.885806 
L 318.882882 255.313621 
L 314.327235 254.555537 
L 309.792129 253.612329 
L 305.290571 252.485284 
L 300.835464 251.176199 
L 296.439564 249.687376 
L 292.115452 248.021617 
L 287.875493 246.182215 
L 283.731807 244.172943 
L 279.696229 241.998046 
L 275.78028 239.662231 
L 271.995136 237.17065 
L 268.351591 234.528886 
L 264.860036 231.742941 
L 261.53042 228.819218 
L 258.37223 225.7645 
L 255.394462 222.585935 
L 252.605593 219.291016 
L 250.013563 215.887557 
L 247.625748 212.383676 
L 245.448942 208.787766 
L 243.489337 205.10848 
L 241.752508 201.3547 
L 240.243393 197.535514 
L 238.966284 193.660196 
L 237.924811 189.73817 
L 237.121935 185.778995 
L 236.559938 181.792329 
L 236.240418 177.787909 
L 236.164283 173.775522 
L 236.33175 169.764973 
L 236.742342 165.766067 
L 237.394893 161.788572 
L 238.287547 157.842201 
L 239.417767 153.936577 
L 240.782339 150.081211 
L 242.377385 146.285476 
L 244.198368 142.558576 
L 246.24011 138.909527 
L 248.496803 135.347128 
L 250.962026 131.879935 
L 253.628766 128.516243 
L 256.489432 125.264058 
L 259.53588 122.131076 
L 262.759436 119.124662 
L 266.150916 116.251831 
L 269.700658 113.519225 
L 273.398542 110.933099 
L 277.234025 108.499298 
L 281.196163 106.223247 
L 285.27365 104.109933 
L 289.454841 102.163889 
L 293.727791 100.389187 
L 298.080285 98.78942 
L 302.499872 97.367697 
L 306.973902 96.126634 
L 311.489559 95.068344 
L 316.033897 94.194434 
L 320.593877 93.505999 
L 325.156403 93.00362 
L 329.708358 92.687362 
L 334.236641 92.556773 
L 338.728205 92.610886 
L 343.170088 92.848224 
L 347.549458 93.266801 
L 351.853641 93.864128 
L 356.070157 94.637222 
L 360.186761 95.582613 
L 364.191471 96.696353 
L 368.072604 97.974029 
L 371.818806 99.410774 
L 375.419087 101.001282 
L 378.862853 102.739819 
L 382.139927 104.620244 
L 385.240589 106.636026 
L 388.155593 108.780255 
L 390.8762 111.045673 
L 393.394197 113.424682 
L 395.701925 115.909376 
L 397.792295 118.491555 
L 399.658814 121.162752 
L 401.295596 123.914258 
L 402.697384 126.737142 
L 403.859563 129.622277 
L 404.778172 132.560371 
L 405.449917 135.541983 
L 405.872175 138.557559 
L 406.043012 141.597454 
L 405.961175 144.651958 
L 405.626107 147.711326 
L 405.037941 150.765804 
L 404.197505 153.805655 
L 403.106316 156.821189 
L 401.766575 159.802786 
L 400.181168 162.740928 
L 398.353649 165.626222 
L 396.288235 168.449425 
L 393.989795 171.201474 
L 391.463832 173.87351 
L 388.716475 176.4569 
L 385.754454 178.943263 
L 382.585086 181.324495 
L 379.216255 183.59279 
L 375.656386 185.74066 
L 371.914428 187.76096 
L 367.999823 189.646905 
L 363.922482 191.392089 
L 359.692759 192.990506 
L 355.321419 194.436561 
L 350.819614 195.725093 
L 346.198843 196.851382 
L 341.470927 197.811169 
L 336.647976 198.600663 
L 331.742351 199.216553 
L 326.766633 199.656018 
L 321.733586 199.916736 
L 316.656125 199.996886 
L 311.547275 199.89516 
L 306.420139 199.61076 
L 301.28786 199.143404 
L 296.163584 198.493327 
L 291.060425 197.661278 
L 285.991425 196.648521 
L 280.969523 195.456828 
L 276.007515 194.088479 
L 271.11802 192.546249 
L 266.313443 190.833407 
L 261.605945 188.953703 
L 257.007404 186.91136 
L 252.529384 184.711059 
L 248.183106 182.35793 
L 243.979411 179.857533 
L 239.928734 177.215848 
L 236.041074 174.439256 
L 232.325965 171.534518 
L 228.792453 168.508762 
L 225.449065 165.36946 
L 222.303791 162.124406 
L 219.364059 158.781699 
L 216.636716 155.349714 
L 214.128006 151.837086 
L 211.843556 148.252679 
L 209.788359 144.605567 
L 207.96676 140.905004 
L 206.382445 137.160403 
L 205.038427 133.381307 
L 203.937045 129.577361 
L 203.079951 125.758289 
L 202.468107 121.933866 
L 202.101784 118.113888 
L 201.980562 114.308147 
L 202.103327 110.526404 
L 202.468278 106.778362 
L 203.072933 103.073636 
L 203.91413 99.421731 
L 204.988044 95.832013 
L 206.290191 92.313681 
L 207.815444 88.875746 
L 209.558046 85.527003 
L 211.511628 82.276005 
L 213.669225 79.131044 
L 216.023296 76.100123 
L 218.565743 73.190939 
L 221.28794 70.410854 
L 224.18075 67.766884 
L 227.234553 65.265671 
L 230.439275 62.91347 
L 233.784414 60.716128 
L 237.259069 58.679072 
L 240.851971 56.80729 
L 244.551517 55.105319 
L 248.345798 53.57723 
L 252.222635 52.226623 
L 256.169613 51.056607 
L 260.174113 50.069803 
L 264.223352 49.268326 
L 268.304414 48.653787 
L 272.404291 48.227283 
L 276.509912 47.989399 
L 280.608187 47.940203 
L 284.686041 48.079246 
L 288.730448 48.405563 
L 292.72847 48.917681 
L 296.667293 49.613613 
L 300.534262 50.490875 
L 304.316916 51.546483 
L 308.003026 52.776969 
L 311.580623 54.178385 
L 315.038037 55.746318 
L 318.363929 57.475899 
L 321.547318 59.361821 
L 324.577618 61.398349 
L 327.444663 63.579338 
L 330.138738 65.898253 
L 332.650603 68.348181 
L 334.971525 70.921857 
L 337.093295 73.611678 
L 339.008255 76.409729 
L 340.709321 79.307805 
L 342.189997 82.297428 
L 343.444401 85.369879 
L 344.467274 88.516216 
L 345.253999 91.727302 
L 345.800615 94.993828 
L 346.103824 98.306343 
L 346.161003 101.655276 
L 345.970211 105.030966 
L 345.530195 108.423685 
L 344.840392 111.82367 
L 343.900932 115.221148 
L 342.712637 118.606361 
L 341.277021 121.969597 
L 339.596282 125.301214 
L 337.6733 128.591669 
L 335.511624 131.831545 
L 333.115469 135.011573 
L 330.4897 138.122664 
L 327.639816 141.155928 
L 324.571942 144.102706 
L 321.292807 146.954587 
L 317.809726 149.703435 
L 314.13058 152.341412 
L 310.263795 154.860998 
L 306.218317 157.255015 
L 302.00359 159.516644 
L 297.629526 161.639443 
L 293.106481 163.617371 
L 288.445223 165.444797 
L 283.656906 167.116521 
L 278.753035 168.627789 
L 273.745437 169.974301 
L 268.646227 171.152227 
L 263.467774 172.158219 
L 258.222667 172.989416 
L 252.92368 173.643455 
L 247.583739 174.118477 
L 242.21588 174.413132 
L 236.833218 174.526581 
L 231.448911 174.458504 
L 226.07612 174.209092 
L 220.727973 173.779055 
L 215.417531 173.169616 
L 210.15775 172.382506 
L 204.961445 171.419964 
L 199.841256 170.284726 
L 194.809609 168.98002 
L 189.878685 167.509557 
L 185.060388 165.877518 
L 180.366306 164.088547 
L 175.807682 162.147734 
L 171.395385 160.060602 
L 167.139877 157.833092 
L 163.051183 155.471547 
L 159.138866 152.982694 
L 155.411999 150.373622 
L 151.879141 147.651769 
L 148.548311 144.824896 
L 145.426968 141.901064 
L 142.521989 138.888618 
L 139.839651 135.796159 
L 137.385611 132.632521 
L 135.164895 129.406745 
L 133.18188 126.128057 
L 131.440284 122.80584 
L 129.943155 119.449608 
L 128.692861 116.068981 
L 127.691088 112.673657 
L 126.938832 109.273382 
L 126.436394 105.87793 
L 126.183387 102.497069 
L 126.178728 99.140538 
L 126.420649 95.818018 
L 126.906696 92.539103 
L 127.63374 89.313278 
L 128.597984 86.14989 
L 129.794973 83.058121 
L 131.219609 80.046964 
L 132.866162 77.125197 
L 134.72829 74.30136 
L 136.799053 71.583727 
L 139.070935 68.98029 
L 141.535864 66.49873 
L 144.185233 64.1464 
L 147.009928 61.930302 
L 150.00035 59.857067 
L 153.146444 57.93294 
L 156.437724 56.163759 
L 159.863307 54.55494 
L 163.411941 53.111463 
L 167.072033 51.837856 
L 170.831688 50.738184 
L 174.678738 49.816037 
L 178.600777 49.07452 
L 182.585195 48.516243 
L 186.619215 48.143317 
L 190.689925 47.957345 
L 194.784319 47.95942 
L 198.889332 48.150118 
L 202.991871 48.529501 
L 207.078859 49.097114 
L 211.137269 49.851988 
L 215.154158 50.792639 
L 219.116706 51.917078 
L 223.012251 53.22281 
L 226.828322 54.706846 
L 230.55268 56.365711 
L 234.173344 58.195447 
L 237.678631 60.191635 
L 241.057185 62.349397 
L 244.298012 64.663415 
L 247.390507 67.127946 
L 250.324485 69.736835 
L 253.09021 72.483534 
L 255.678425 75.361121 
L 258.08037 78.362316 
L 260.287814 81.479506 
L 262.293076 84.704761 
L 264.089044 88.02986 
L 265.669198 91.446313 
L 267.027627 94.945382 
L 268.159044 98.518109 
L 269.058806 102.155339 
L 269.722918 105.847746 
L 270.148055 109.585857 
L 270.331562 113.360081 
L 270.271468 117.160736 
L 269.966487 120.978072 
L 269.416025 124.802303 
L 268.62018 128.62363 
L 267.579742 132.432271 
L 266.296191 136.218488 
L 264.771693 139.972612 
L 263.009096 143.685072 
L 261.011917 147.346421 
L 258.784337 150.947363 
L 256.331189 154.478775 
L 253.657943 157.931739 
L 250.770689 161.297562 
L 247.676127 164.567799 
L 244.38154 167.734282 
L 240.894779 170.789138 
L 237.224242 173.724812 
L 233.378844 176.53409 
L 229.368002 179.210115 
L 225.2016 181.74641 
L 220.889966 184.136895 
L 216.443845 186.375901 
L 211.874363 188.45819 
L 207.193002 190.378967 
L 202.411565 192.133895 
L 197.542145 193.719103 
L 192.59709 195.131203 
L 187.588968 196.367293 
L 182.530535 197.42497 
L 177.434696 198.302334 
L 172.314472 198.997995 
L 167.182962 199.511073 
L 162.053308 199.841206 
L 156.938656 199.988546 
L 151.852123 199.953762 
L 146.806756 199.738035 
L 141.815503 199.343058 
L 136.891167 198.771029 
L 132.04638 198.024645 
L 127.29356 197.107095 
L 122.644883 196.02205 
L 118.112244 194.773654 
L 113.707229 193.366512 
L 109.441077 191.805678 
L 105.324653 190.096639 
L 101.368417 188.245299 
L 97.582393 186.257966 
L 93.976143 184.141332 
L 90.558742 181.902455 
L 87.338748 179.548737 
L 84.324182 177.087908 
L 81.522504 174.528 
L 78.940595 171.877326 
L 76.584733 169.144458 
L 74.460581 166.338201 
L 72.573167 163.46757 
L 70.926872 160.541765 
L 69.525419 157.570143 
L 68.371858 154.562195 
L 67.468565 151.527518 
L 66.817227 148.475785 
L 66.418845 145.416725 
L 66.273726 142.360091 
L 66.381484 139.315631 
L 66.741042 136.293068 
L 67.350634 133.302065 
L 68.207809 130.352202 
L 69.309442 127.45295 
L 70.651735 124.613641 
L 72.230237 121.843445 
L 74.039848 119.151345 
L 76.074841 116.546107 
L 78.328872 114.036263 
L 80.794998 111.630079 
L 83.465701 109.33554 
L 86.332905 107.160319 
L 89.387999 105.111764 
L 92.621864 103.196872 
L 96.024893 101.422271 
L 99.587023 99.794203 
L 103.29776 98.318503 
L 107.146211 97.000586 
L 111.121109 95.84543 
L 115.210852 94.857563 
L 119.403529 94.041051 
L 123.686956 93.399483 
L 128.04871 92.935966 
L 132.476163 92.653112 
L 136.956518 92.553034 
L 141.476841 92.637337 
L 146.024105 92.907116 
L 150.585218 93.36295 
L 155.147064 94.004906 
L 159.696537 94.832529 
L 164.220582 95.844855 
L 168.706226 97.040403 
L 173.140617 98.417187 
L 177.51106 99.972715 
L 181.805051 101.704002 
L 186.010313 103.607573 
L 190.11483 105.679477 
L 194.106879 107.915294 
L 197.975066 110.310149 
L 201.708354 112.858726 
L 205.296098 115.555282 
L 208.728068 118.393665 
L 211.994484 121.367327 
L 215.086043 124.469344 
L 217.993939 127.692437 
L 220.709894 131.028991 
L 223.226177 134.471075 
L 225.535628 138.010465 
L 227.631676 141.638668 
L 229.508359 145.346942 
L 231.16034 149.126324 
L 232.58292 152.967655 
L 233.772056 156.861601 
L 234.724366 160.798684 
L 235.437143 164.769305 
L 235.908361 168.763773 
L 236.136681 172.772329 
L 236.121453 176.785177 
L 235.862722 180.792507 
L 235.361221 184.784526 
L 234.618378 188.751483 
L 233.636303 192.683697 
L 232.417788 196.571582 
L 230.966298 200.405676 
L 229.285959 204.176667 
L 227.38155 207.875418 
L 225.258488 211.492992 
L 222.922812 215.020678 
L 220.381166 218.450015 
L 217.640784 221.772814 
L 214.709467 224.981182 
L 211.595559 228.067546 
L 208.307929 231.024669 
L 204.855943 233.845673 
L 201.249439 236.524061 
L 197.498697 239.053728 
L 193.614416 241.428985 
L 189.607678 243.64457 
L 185.489921 245.695664 
L 181.272905 247.577907 
L 176.968681 249.287404 
L 172.589557 250.820742 
L 168.148061 252.174997 
L 163.656912 253.347741 
L 159.128977 254.337049 
L 154.577241 255.141507 
L 150.01477 255.760211 
L 145.454671 256.192775 
L 140.91006 256.439327 
L 136.394021 256.500512 
L 131.919575 256.377488 
L 127.499637 256.071926 
L 123.146987 255.585999 
L 118.874229 254.922383 
L 114.693758 254.084246 
L 110.617725 253.075236 
L 106.658005 251.899478 
L 102.82616 250.561557 
L 99.133411 249.066506 
L 95.590603 247.419793 
L 92.208178 245.627307 
L 88.996144 243.695337 
L 85.964047 241.630558 
L 83.120946 239.440014 
L 80.475384 237.131092 
L 78.035371 234.711508 
L 75.808353 232.189282 
L 73.801198 229.572715 
L 72.020174 226.870369 
L 70.470933 224.091039 
L 69.158492 221.243732 
L 68.087223 218.33764 
L 67.260838 215.382114 
L 66.682381 212.38664 
L 66.354215 209.36081 
L 66.278022 206.314296 
L 66.454792 203.256825 
L 66.884825 200.198148 
L 67.567726 197.148016 
L 68.502409 194.116152 
L 69.6871 191.112222 
L 71.119339 188.14581 
L 72.795991 185.226393 
L 74.71325 182.36331 
L 76.866654 179.565738 
L 79.251094 176.842667 
L 81.86083 174.202875 
L 84.689507 171.654902 
L 87.730172 169.207029 
L 90.975292 166.86725 
L 94.416778 164.643255 
L 98.046006 162.542405 
L 101.853839 160.571713 
L 105.830656 158.737824 
L 109.966377 157.046996 
L 114.250489 155.505082 
L 118.672079 154.117516 
L 123.219862 152.889297 
L 127.882214 151.824971 
L 132.647201 150.928626 
L 137.502616 150.203872 
L 142.436011 149.653837 
L 147.434732 149.281157 
L 152.485955 149.087966 
L 157.576718 149.075893 
L 162.693964 149.246056 
L 167.824569 149.59906 
L 172.955387 150.134991 
L 178.073278 150.853423 
L 183.165151 151.753413 
L 188.217998 152.833506 
L 193.218931 154.091739 
L 198.155214 155.525646 
L 203.014307 157.132264 
L 207.78389 158.908144 
L 212.451905 160.849358 
L 217.006588 162.951508 
L 221.436499 165.209744 
L 225.730558 167.618774 
L 229.878071 170.172876 
L 233.868764 172.865919 
L 237.692809 175.691379 
L 241.340852 178.642353 
L 244.804039 181.711582 
L 248.074041 184.891471 
L 251.143076 188.174109 
L 254.003933 191.551292 
L 256.649988 195.014542 
L 259.075226 198.555138 
L 261.274256 202.164133 
L 263.242328 205.832383 
L 264.975341 209.550571 
L 266.469862 213.309232 
L 267.723129 217.098782 
L 268.733059 220.909543 
L 269.498261 224.731768 
L 270.018029 228.555673 
L 270.292352 232.371459 
L 270.321912 236.169341 
L 270.108079 239.93958 
L 269.652911 243.6725 
L 268.959147 247.358525 
L 268.030197 250.988199 
L 266.870135 254.552216 
L 265.483689 258.041443 
L 263.876222 261.44695 
L 262.053723 264.760027 
L 260.022788 267.972218 
L 257.7906 271.075336 
L 255.36491 274.06149 
L 252.754017 276.923107 
L 249.966743 279.652951 
L 247.012409 282.244145 
L 243.900807 284.69019 
L 240.642176 286.984982 
L 237.247171 289.122829 
L 233.726834 291.098468 
L 230.092563 292.907078 
L 226.356081 294.544295 
L 222.5294 296.006224 
L 218.624794 297.289448 
L 214.654757 298.391039 
L 210.631974 299.308567 
L 206.569282 300.040103 
L 202.479636 300.58423 
L 198.376072 300.940042 
L 194.271671 301.107148 
L 190.179523 301.085675 
L 186.11269 300.876263 
L 182.084167 300.48007 
L 178.106851 299.898763 
L 174.1935 299.134513 
L 170.3567 298.189996 
L 166.60883 297.068376 
L 162.962025 295.773304 
L 159.428146 294.308902 
L 156.018742 292.679757 
L 152.745023 290.890902 
L 149.617824 288.947809 
L 146.647577 286.856366 
L 143.844282 284.622868 
L 141.21748 282.253994 
L 138.776222 279.756791 
L 136.52905 277.138653 
L 134.483966 274.407302 
L 132.648418 271.570764 
L 131.029269 268.637352 
L 129.632789 265.615633 
L 128.464627 262.514416 
L 127.529804 259.342718 
L 126.83269 256.109743 
L 126.377001 252.824856 
L 126.165783 249.497557 
L 126.201402 246.137454 
L 126.485544 242.754236 
L 127.019201 239.357647 
L 127.802678 235.957457 
L 128.835585 232.563437 
L 130.116839 229.18533 
L 131.64467 225.832827 
L 133.416624 222.515533 
L 135.429569 219.242949 
L 137.679703 216.024439 
L 140.162568 212.869207 
L 142.873059 209.786271 
L 145.805439 206.784437 
L 148.953356 203.872275 
L 152.309859 201.058093 
L 155.867418 198.34992 
L 159.617945 195.755476 
L 163.552815 193.282156 
L 167.662894 190.937005 
L 171.938559 188.726704 
L 176.369727 186.657545 
L 180.945885 184.735419 
L 185.656117 182.965795 
L 190.489133 181.353709 
L 195.433303 179.903746 
L 200.47669 178.62003 
L 205.607078 177.506213 
L 210.812013 176.56546 
L 216.07883 175.800448 
L 221.394696 175.213349 
L 226.74664 174.805834 
L 232.12159 174.579061 
L 236.16 174.528 
L 236.16 174.528 
" clip-path="url(#p416853a2bd)" style="fill: none; stroke: #800080; stroke-width: 1.5; stroke-linecap: square"/>
   </g>
   <g id="patch_3">
    <path d="M 57.6 307.584 
L 57.6 41.472 
" style="fill: none; stroke: #000000; stroke-width: 0.8; stroke-linejoin: miter; stroke-linecap: square"/>
   </g>
   <g id="patch_4">
    <path d="M 414.72 307.584 
L 414.72 41.472 
" style="fill: none; stroke: #000000; stroke-width: 0.8; stroke-linejoin: miter; stroke-linecap: square"/>
   </g>
   <g id="patch_5">
    <path d="M 57.6 307.584 
L 414.72 307.584 
" style="fill: none; stroke: #000000; stroke-width: 0.8; stroke-linejoin: miter; stroke-linecap: square"/>
   </g>
   <g id="patch_6">
    <path d="M 57.6 41.472 
L 414.72 41.472 
" style="fill: none; stroke: #000000; stroke-width: 0.8; stroke-linejoin: miter; stroke-linecap: square"/>
   </g>
   <g id="text_21">
    <!-- Reprezentarea pe planul complex al semnalului cu f = 12 Hz, ω = 9 -->
    <g transform="translate(32.815313 35.472) scale(0.12 -0.12)">
     <defs>
      <path id="DejaVuSans-70" d="M 1159 525 
L 1159 -1331 
L 581 -1331 
L 581 3500 
L 1159 3500 
L 1159 2969 
Q 1341 3281 1617 3432 
Q 1894 3584 2278 3584 
Q 2916 3584 3314 3078 
Q 3713 2572 3713 1747 
Q 3713 922 3314 415 
Q 2916 -91 2278 -91 
Q 1894 -91 1617 61 
Q 1341 213 1159 525 
z
M 3116 1747 
Q 3116 2381 2855 2742 
Q 2594 3103 2138 3103 
Q 1681 3103 1420 2742 
Q 1159 2381 1159 1747 
Q 1159 1113 1420 752 
Q 1681 391 2138 391 
Q 2594 391 2855 752 
Q 3116 1113 3116 1747 
z
" transform="scale(0.015625)"/>
      <path id="DejaVuSans-7a" d="M 353 3500 
L 3084 3500 
L 3084 2975 
L 922 459 
L 3084 459 
L 3084 0 
L 275 0 
L 275 525 
L 2438 3041 
L 353 3041 
L 353 3500 
z
" transform="scale(0.015625)"/>
      <path id="DejaVuSans-74" d="M 1172 4494 
L 1172 3500 
L 2356 3500 
L 2356 3053 
L 1172 3053 
L 1172 1153 
Q 1172 725 1289 603 
Q 1406 481 1766 481 
L 2356 481 
L 2356 0 
L 1766 0 
Q 1100 0 847 248 
Q 594 497 594 1153 
L 594 3053 
L 172 3053 
L 172 3500 
L 594 3500 
L 594 4494 
L 1172 4494 
z
" transform="scale(0.015625)"/>
      <path id="DejaVuSans-20" transform="scale(0.015625)"/>
      <path id="DejaVuSans-75" d="M 544 1381 
L 544 3500 
L 1119 3500 
L 1119 1403 
Q 1119 906 1312 657 
Q 1506 409 1894 409 
Q 2359 409 2629 706 
Q 2900 1003 2900 1516 
L 2900 3500 
L 3475 3500 
L 3475 0 
L 2900 0 
L 2900 538 
Q 2691 219 2414 64 
Q 2138 -91 1772 -91 
Q 1169 -91 856 284 
Q 544 659 544 1381 
z
M 1991 3584 
L 1991 3584 
z
" transform="scale(0.015625)"/>
      <path id="DejaVuSans-63" d="M 3122 3366 
L 3122 2828 
Q 2878 2963 2633 3030 
Q 2388 3097 2138 3097 
Q 1578 3097 1268 2742 
Q 959 2388 959 1747 
Q 959 1106 1268 751 
Q 1578 397 2138 397 
Q 2388 397 2633 464 
Q 2878 531 3122 666 
L 3122 134 
Q 2881 22 2623 -34 
Q 2366 -91 2075 -91 
Q 1284 -91 818 406 
Q 353 903 353 1747 
Q 353 2603 823 3093 
Q 1294 3584 2113 3584 
Q 2378 3584 2631 3529 
Q 2884 3475 3122 3366 
z
" transform="scale(0.015625)"/>
      <path id="DejaVuSans-6f" d="M 1959 3097 
Q 1497 3097 1228 2736 
Q 959 2375 959 1747 
Q 959 1119 1226 758 
Q 1494 397 1959 397 
Q 2419 397 2687 759 
Q 2956 1122 2956 1747 
Q 2956 2369 2687 2733 
Q 2419 3097 1959 3097 
z
M 1959 3584 
Q 2709 3584 3137 3096 
Q 3566 2609 3566 1747 
Q 3566 888 3137 398 
Q 2709 -91 1959 -91 
Q 1206 -91 779 398 
Q 353 888 353 1747 
Q 353 2609 779 3096 
Q 1206 3584 1959 3584 
z
" transform="scale(0.015625)"/>
      <path id="DejaVuSans-78" d="M 3513 3500 
L 2247 1797 
L 3578 0 
L 2900 0 
L 1881 1375 
L 863 0 
L 184 0 
L 1544 1831 
L 300 3500 
L 978 3500 
L 1906 2253 
L 2834 3500 
L 3513 3500 
z
" transform="scale(0.015625)"/>
      <path id="DejaVuSans-73" d="M 2834 3397 
L 2834 2853 
Q 2591 2978 2328 3040 
Q 2066 3103 1784 3103 
Q 1356 3103 1142 2972 
Q 928 2841 928 2578 
Q 928 2378 1081 2264 
Q 1234 2150 1697 2047 
L 1894 2003 
Q 2506 1872 2764 1633 
Q 3022 1394 3022 966 
Q 3022 478 2636 193 
Q 2250 -91 1575 -91 
Q 1294 -91 989 -36 
Q 684 19 347 128 
L 347 722 
Q 666 556 975 473 
Q 1284 391 1588 391 
Q 1994 391 2212 530 
Q 2431 669 2431 922 
Q 2431 1156 2273 1281 
Q 2116 1406 1581 1522 
L 1381 1569 
Q 847 1681 609 1914 
Q 372 2147 372 2553 
Q 372 3047 722 3315 
Q 1072 3584 1716 3584 
Q 2034 3584 2315 3537 
Q 2597 3491 2834 3397 
z
" transform="scale(0.015625)"/>
      <path id="DejaVuSans-66" d="M 2375 4863 
L 2375 4384 
L 1825 4384 
Q 1516 4384 1395 4259 
Q 1275 4134 1275 3809 
L 1275 3500 
L 2222 3500 
L 2222 3053 
L 1275 3053 
L 1275 0 
L 697 0 
L 697 3053 
L 147 3053 
L 147 3500 
L 697 3500 
L 697 3744 
Q 697 4328 969 4595 
Q 1241 4863 1831 4863 
L 2375 4863 
z
" transform="scale(0.015625)"/>
      <path id="DejaVuSans-3d" d="M 678 2906 
L 4684 2906 
L 4684 2381 
L 678 2381 
L 678 2906 
z
M 678 1631 
L 4684 1631 
L 4684 1100 
L 678 1100 
L 678 1631 
z
" transform="scale(0.015625)"/>
      <path id="DejaVuSans-48" d="M 628 4666 
L 1259 4666 
L 1259 2753 
L 3553 2753 
L 3553 4666 
L 4184 4666 
L 4184 0 
L 3553 0 
L 3553 2222 
L 1259 2222 
L 1259 0 
L 628 0 
L 628 4666 
z
" transform="scale(0.015625)"/>
      <path id="DejaVuSans-2c" d="M 750 794 
L 1409 794 
L 1409 256 
L 897 -744 
L 494 -744 
L 750 256 
L 750 794 
z
" transform="scale(0.015625)"/>
      <path id="DejaVuSans-3c9" d="M 1719 -91 
Q 422 -91 422 1766 
Q 422 2500 906 3500 
L 1525 3500 
Q 1078 2500 1078 1750 
Q 1078 397 1772 397 
Q 2406 397 2406 2078 
L 2938 2078 
Q 2938 397 3572 397 
Q 4266 397 4266 1750 
Q 4266 2500 3819 3500 
L 4438 3500 
Q 4922 2500 4922 1766 
Q 4922 -91 3625 -91 
Q 2775 -91 2672 844 
Q 2544 -91 1719 -91 
z
" transform="scale(0.015625)"/>
      <path id="DejaVuSans-39" d="M 703 97 
L 703 672 
Q 941 559 1184 500 
Q 1428 441 1663 441 
Q 2288 441 2617 861 
Q 2947 1281 2994 2138 
Q 2813 1869 2534 1725 
Q 2256 1581 1919 1581 
Q 1219 1581 811 2004 
Q 403 2428 403 3163 
Q 403 3881 828 4315 
Q 1253 4750 1959 4750 
Q 2769 4750 3195 4129 
Q 3622 3509 3622 2328 
Q 3622 1225 3098 567 
Q 2575 -91 1691 -91 
Q 1453 -91 1209 -44 
Q 966 3 703 97 
z
M 1959 2075 
Q 2384 2075 2632 2365 
Q 2881 2656 2881 3163 
Q 2881 3666 2632 3958 
Q 2384 4250 1959 4250 
Q 1534 4250 1286 3958 
Q 1038 3666 1038 3163 
Q 1038 2656 1286 2365 
Q 1534 2075 1959 2075 
z
" transform="scale(0.015625)"/>
     </defs>
     <use xlink:href="#DejaVuSans-52"/>
     <use xlink:href="#DejaVuSans-65" x="64.982422"/>
     <use xlink:href="#DejaVuSans-70" x="126.505859"/>
     <use xlink:href="#DejaVuSans-72" x="189.982422"/>
     <use xlink:href="#DejaVuSans-65" x="228.845703"/>
     <use xlink:href="#DejaVuSans-7a" x="290.369141"/>
     <use xlink:href="#DejaVuSans-65" x="342.859375"/>
     <use xlink:href="#DejaVuSans-6e" x="404.382812"/>
     <use xlink:href="#DejaVuSans-74" x="467.761719"/>
     <use xlink:href="#DejaVuSans-61" x="506.970703"/>
     <use xlink:href="#DejaVuSans-72" x="568.25"/>
     <use xlink:href="#DejaVuSans-65" x="607.113281"/>
     <use xlink:href="#DejaVuSans-61" x="668.636719"/>
     <use xlink:href="#DejaVuSans-20" x="729.916016"/>
     <use xlink:href="#DejaVuSans-70" x="761.703125"/>
     <use xlink:href="#DejaVuSans-65" x="825.179688"/>
     <use xlink:href="#DejaVuSans-20" x="886.703125"/>
     <use xlink:href="#DejaVuSans-70" x="918.490234"/>
     <use xlink:href="#DejaVuSans-6c" x="981.966797"/>
     <use xlink:href="#DejaVuSans-61" x="1009.75"/>
     <use xlink:href="#DejaVuSans-6e" x="1071.029297"/>
     <use xlink:href="#DejaVuSans-75" x="1134.408203"/>
     <use xlink:href="#DejaVuSans-6c" x="1197.787109"/>
     <use xlink:href="#DejaVuSans-20" x="1225.570312"/>
     <use xlink:href="#DejaVuSans-63" x="1257.357422"/>
     <use xlink:href="#DejaVuSans-6f" x="1312.337891"/>
     <use xlink:href="#DejaVuSans-6d" x="1373.519531"/>
     <use xlink:href="#DejaVuSans-70" x="1470.931641"/>
     <use xlink:href="#DejaVuSans-6c" x="1534.408203"/>
     <use xlink:href="#DejaVuSans-65" x="1562.191406"/>
     <use xlink:href="#DejaVuSans-78" x="1621.964844"/>
     <use xlink:href="#DejaVuSans-20" x="1681.144531"/>
     <use xlink:href="#DejaVuSans-61" x="1712.931641"/>
     <use xlink:href="#DejaVuSans-6c" x="1774.210938"/>
     <use xlink:href="#DejaVuSans-20" x="1801.994141"/>
     <use xlink:href="#DejaVuSans-73" x="1833.78125"/>
     <use xlink:href="#DejaVuSans-65" x="1885.880859"/>
     <use xlink:href="#DejaVuSans-6d" x="1947.404297"/>
     <use xlink:href="#DejaVuSans-6e" x="2044.816406"/>
     <use xlink:href="#DejaVuSans-61" x="2108.195312"/>
     <use xlink:href="#DejaVuSans-6c" x="2169.474609"/>
     <use xlink:href="#DejaVuSans-75" x="2197.257812"/>
     <use xlink:href="#DejaVuSans-6c" x="2260.636719"/>
     <use xlink:href="#DejaVuSans-75" x="2288.419922"/>
     <use xlink:href="#DejaVuSans-69" x="2351.798828"/>
     <use xlink:href="#DejaVuSans-20" x="2379.582031"/>
     <use xlink:href="#DejaVuSans-63" x="2411.369141"/>
     <use xlink:href="#DejaVuSans-75" x="2466.349609"/>
     <use xlink:href="#DejaVuSans-20" x="2529.728516"/>
     <use xlink:href="#DejaVuSans-66" x="2561.515625"/>
     <use xlink:href="#DejaVuSans-20" x="2596.720703"/>
     <use xlink:href="#DejaVuSans-3d" x="2628.507812"/>
     <use xlink:href="#DejaVuSans-20" x="2712.296875"/>
     <use xlink:href="#DejaVuSans-31" x="2744.083984"/>
     <use xlink:href="#DejaVuSans-32" x="2807.707031"/>
     <use xlink:href="#DejaVuSans-20" x="2871.330078"/>
     <use xlink:href="#DejaVuSans-48" x="2903.117188"/>
     <use xlink:href="#DejaVuSans-7a" x="2978.3125"/>
     <use xlink:href="#DejaVuSans-2c" x="3030.802734"/>
     <use xlink:href="#DejaVuSans-20" x="3062.589844"/>
     <use xlink:href="#DejaVuSans-3c9" x="3094.376953"/>
     <use xlink:href="#DejaVuSans-20" x="3178.117188"/>
     <use xlink:href="#DejaVuSans-3d" x="3209.904297"/>
     <use xlink:href="#DejaVuSans-20" x="3293.693359"/>
     <use xlink:href="#DejaVuSans-39" x="3325.480469"/>
    </g>
   </g>
  </g>
 </g>
 <defs>
  <clipPath id="p416853a2bd">
   <rect x="57.6" y="41.472" width="357.12" height="266.112"/>
  </clipPath>
 </defs>
</svg>
