<?xml version="1.0" encoding="utf-8" standalone="no"?>
<!DOCTYPE svg PUBLIC "-//W3C//DTD SVG 1.1//EN"
  "http://www.w3.org/Graphics/SVG/1.1/DTD/svg11.dtd">
<svg xmlns:xlink="http://www.w3.org/1999/xlink" width="460.8pt" height="345.6pt" viewBox="0 0 460.8 345.6" xmlns="http://www.w3.org/2000/svg" version="1.1">
 <metadata>
  <rdf:RDF xmlns:dc="http://purl.org/dc/elements/1.1/" xmlns:cc="http://creativecommons.org/ns#" xmlns:rdf="http://www.w3.org/1999/02/22-rdf-syntax-ns#">
   <cc:Work>
    <dc:type rdf:resource="http://purl.org/dc/dcmitype/StillImage"/>
    <dc:date>2024-10-22T20:24:30.504322</dc:date>
    <dc:format>image/svg+xml</dc:format>
    <dc:creator>
     <cc:Agent>
      <dc:title>Matplotlib v3.9.2, https://matplotlib.org/</dc:title>
     </cc:Agent>
    </dc:creator>
   </cc:Work>
  </rdf:RDF>
 </metadata>
 <defs>
  <style type="text/css">*{stroke-linejoin: round; stroke-linecap: butt}</style>
 </defs>
 <g id="figure_1">
  <g id="patch_1">
   <path d="M 0 345.6 
L 460.8 345.6 
L 460.8 0 
L 0 0 
z
" style="fill: #ffffff"/>
  </g>
  <g id="axes_1">
   <g id="patch_2">
    <path d="M 57.6 307.584 
L 414.72 307.584 
L 414.72 41.472 
L 57.6 41.472 
z
" style="fill: #ffffff"/>
   </g>
   <g id="matplotlib.axis_1">
    <g id="xtick_1">
     <g id="line2d_1">
      <defs>
       <path id="m13904c0902" d="M 0 0 
L 0 3.5 
" style="stroke: #000000; stroke-width: 0.8"/>
      </defs>
      <g>
       <use xlink:href="#m13904c0902" x="73.832727" y="307.584" style="stroke: #000000; stroke-width: 0.8"/>
      </g>
     </g>
     <g id="text_1">
      <!-- 0.0 -->
      <g transform="translate(65.881165 322.182437) scale(0.1 -0.1)">
       <defs>
        <path id="DejaVuSans-30" d="M 2034 4250 
Q 1547 4250 1301 3770 
Q 1056 3291 1056 2328 
Q 1056 1369 1301 889 
Q 1547 409 2034 409 
Q 2525 409 2770 889 
Q 3016 1369 3016 2328 
Q 3016 3291 2770 3770 
Q 2525 4250 2034 4250 
z
M 2034 4750 
Q 2819 4750 3233 4129 
Q 3647 3509 3647 2328 
Q 3647 1150 3233 529 
Q 2819 -91 2034 -91 
Q 1250 -91 836 529 
Q 422 1150 422 2328 
Q 422 3509 836 4129 
Q 1250 4750 2034 4750 
z
" transform="scale(0.015625)"/>
        <path id="DejaVuSans-2e" d="M 684 794 
L 1344 794 
L 1344 0 
L 684 0 
L 684 794 
z
" transform="scale(0.015625)"/>
       </defs>
       <use xlink:href="#DejaVuSans-30"/>
       <use xlink:href="#DejaVuSans-2e" x="63.623047"/>
       <use xlink:href="#DejaVuSans-30" x="95.410156"/>
      </g>
     </g>
    </g>
    <g id="xtick_2">
     <g id="line2d_2">
      <g>
       <use xlink:href="#m13904c0902" x="138.763636" y="307.584" style="stroke: #000000; stroke-width: 0.8"/>
      </g>
     </g>
     <g id="text_2">
      <!-- 0.2 -->
      <g transform="translate(130.812074 322.182437) scale(0.1 -0.1)">
       <defs>
        <path id="DejaVuSans-32" d="M 1228 531 
L 3431 531 
L 3431 0 
L 469 0 
L 469 531 
Q 828 903 1448 1529 
Q 2069 2156 2228 2338 
Q 2531 2678 2651 2914 
Q 2772 3150 2772 3378 
Q 2772 3750 2511 3984 
Q 2250 4219 1831 4219 
Q 1534 4219 1204 4116 
Q 875 4013 500 3803 
L 500 4441 
Q 881 4594 1212 4672 
Q 1544 4750 1819 4750 
Q 2544 4750 2975 4387 
Q 3406 4025 3406 3419 
Q 3406 3131 3298 2873 
Q 3191 2616 2906 2266 
Q 2828 2175 2409 1742 
Q 1991 1309 1228 531 
z
" transform="scale(0.015625)"/>
       </defs>
       <use xlink:href="#DejaVuSans-30"/>
       <use xlink:href="#DejaVuSans-2e" x="63.623047"/>
       <use xlink:href="#DejaVuSans-32" x="95.410156"/>
      </g>
     </g>
    </g>
    <g id="xtick_3">
     <g id="line2d_3">
      <g>
       <use xlink:href="#m13904c0902" x="203.694545" y="307.584" style="stroke: #000000; stroke-width: 0.8"/>
      </g>
     </g>
     <g id="text_3">
      <!-- 0.4 -->
      <g transform="translate(195.742983 322.182437) scale(0.1 -0.1)">
       <defs>
        <path id="DejaVuSans-34" d="M 2419 4116 
L 825 1625 
L 2419 1625 
L 2419 4116 
z
M 2253 4666 
L 3047 4666 
L 3047 1625 
L 3713 1625 
L 3713 1100 
L 3047 1100 
L 3047 0 
L 2419 0 
L 2419 1100 
L 313 1100 
L 313 1709 
L 2253 4666 
z
" transform="scale(0.015625)"/>
       </defs>
       <use xlink:href="#DejaVuSans-30"/>
       <use xlink:href="#DejaVuSans-2e" x="63.623047"/>
       <use xlink:href="#DejaVuSans-34" x="95.410156"/>
      </g>
     </g>
    </g>
    <g id="xtick_4">
     <g id="line2d_4">
      <g>
       <use xlink:href="#m13904c0902" x="268.625455" y="307.584" style="stroke: #000000; stroke-width: 0.8"/>
      </g>
     </g>
     <g id="text_4">
      <!-- 0.6 -->
      <g transform="translate(260.673892 322.182437) scale(0.1 -0.1)">
       <defs>
        <path id="DejaVuSans-36" d="M 2113 2584 
Q 1688 2584 1439 2293 
Q 1191 2003 1191 1497 
Q 1191 994 1439 701 
Q 1688 409 2113 409 
Q 2538 409 2786 701 
Q 3034 994 3034 1497 
Q 3034 2003 2786 2293 
Q 2538 2584 2113 2584 
z
M 3366 4563 
L 3366 3988 
Q 3128 4100 2886 4159 
Q 2644 4219 2406 4219 
Q 1781 4219 1451 3797 
Q 1122 3375 1075 2522 
Q 1259 2794 1537 2939 
Q 1816 3084 2150 3084 
Q 2853 3084 3261 2657 
Q 3669 2231 3669 1497 
Q 3669 778 3244 343 
Q 2819 -91 2113 -91 
Q 1303 -91 875 529 
Q 447 1150 447 2328 
Q 447 3434 972 4092 
Q 1497 4750 2381 4750 
Q 2619 4750 2861 4703 
Q 3103 4656 3366 4563 
z
" transform="scale(0.015625)"/>
       </defs>
       <use xlink:href="#DejaVuSans-30"/>
       <use xlink:href="#DejaVuSans-2e" x="63.623047"/>
       <use xlink:href="#DejaVuSans-36" x="95.410156"/>
      </g>
     </g>
    </g>
    <g id="xtick_5">
     <g id="line2d_5">
      <g>
       <use xlink:href="#m13904c0902" x="333.556364" y="307.584" style="stroke: #000000; stroke-width: 0.8"/>
      </g>
     </g>
     <g id="text_5">
      <!-- 0.8 -->
      <g transform="translate(325.604801 322.182437) scale(0.1 -0.1)">
       <defs>
        <path id="DejaVuSans-38" d="M 2034 2216 
Q 1584 2216 1326 1975 
Q 1069 1734 1069 1313 
Q 1069 891 1326 650 
Q 1584 409 2034 409 
Q 2484 409 2743 651 
Q 3003 894 3003 1313 
Q 3003 1734 2745 1975 
Q 2488 2216 2034 2216 
z
M 1403 2484 
Q 997 2584 770 2862 
Q 544 3141 544 3541 
Q 544 4100 942 4425 
Q 1341 4750 2034 4750 
Q 2731 4750 3128 4425 
Q 3525 4100 3525 3541 
Q 3525 3141 3298 2862 
Q 3072 2584 2669 2484 
Q 3125 2378 3379 2068 
Q 3634 1759 3634 1313 
Q 3634 634 3220 271 
Q 2806 -91 2034 -91 
Q 1263 -91 848 271 
Q 434 634 434 1313 
Q 434 1759 690 2068 
Q 947 2378 1403 2484 
z
M 1172 3481 
Q 1172 3119 1398 2916 
Q 1625 2713 2034 2713 
Q 2441 2713 2670 2916 
Q 2900 3119 2900 3481 
Q 2900 3844 2670 4047 
Q 2441 4250 2034 4250 
Q 1625 4250 1398 4047 
Q 1172 3844 1172 3481 
z
" transform="scale(0.015625)"/>
       </defs>
       <use xlink:href="#DejaVuSans-30"/>
       <use xlink:href="#DejaVuSans-2e" x="63.623047"/>
       <use xlink:href="#DejaVuSans-38" x="95.410156"/>
      </g>
     </g>
    </g>
    <g id="xtick_6">
     <g id="line2d_6">
      <g>
       <use xlink:href="#m13904c0902" x="398.487273" y="307.584" style="stroke: #000000; stroke-width: 0.8"/>
      </g>
     </g>
     <g id="text_6">
      <!-- 1.0 -->
      <g transform="translate(390.53571 322.182437) scale(0.1 -0.1)">
       <defs>
        <path id="DejaVuSans-31" d="M 794 531 
L 1825 531 
L 1825 4091 
L 703 3866 
L 703 4441 
L 1819 4666 
L 2450 4666 
L 2450 531 
L 3481 531 
L 3481 0 
L 794 0 
L 794 531 
z
" transform="scale(0.015625)"/>
       </defs>
       <use xlink:href="#DejaVuSans-31"/>
       <use xlink:href="#DejaVuSans-2e" x="63.623047"/>
       <use xlink:href="#DejaVuSans-30" x="95.410156"/>
      </g>
     </g>
    </g>
   </g>
   <g id="matplotlib.axis_2">
    <g id="ytick_1">
     <g id="line2d_7">
      <defs>
       <path id="m3410f2f5ca" d="M 0 0 
L -3.5 0 
" style="stroke: #000000; stroke-width: 0.8"/>
      </defs>
      <g>
       <use xlink:href="#m3410f2f5ca" x="57.6" y="306.731686" style="stroke: #000000; stroke-width: 0.8"/>
      </g>
     </g>
     <g id="text_7">
      <!-- −6 -->
      <g transform="translate(35.857813 310.530904) scale(0.1 -0.1)">
       <defs>
        <path id="DejaVuSans-2212" d="M 678 2272 
L 4684 2272 
L 4684 1741 
L 678 1741 
L 678 2272 
z
" transform="scale(0.015625)"/>
       </defs>
       <use xlink:href="#DejaVuSans-2212"/>
       <use xlink:href="#DejaVuSans-36" x="83.789062"/>
      </g>
     </g>
    </g>
    <g id="ytick_2">
     <g id="line2d_8">
      <g>
       <use xlink:href="#m3410f2f5ca" x="57.6" y="262.66379" style="stroke: #000000; stroke-width: 0.8"/>
      </g>
     </g>
     <g id="text_8">
      <!-- −4 -->
      <g transform="translate(35.857813 266.463009) scale(0.1 -0.1)">
       <use xlink:href="#DejaVuSans-2212"/>
       <use xlink:href="#DejaVuSans-34" x="83.789062"/>
      </g>
     </g>
    </g>
    <g id="ytick_3">
     <g id="line2d_9">
      <g>
       <use xlink:href="#m3410f2f5ca" x="57.6" y="218.595895" style="stroke: #000000; stroke-width: 0.8"/>
      </g>
     </g>
     <g id="text_9">
      <!-- −2 -->
      <g transform="translate(35.857813 222.395114) scale(0.1 -0.1)">
       <use xlink:href="#DejaVuSans-2212"/>
       <use xlink:href="#DejaVuSans-32" x="83.789062"/>
      </g>
     </g>
    </g>
    <g id="ytick_4">
     <g id="line2d_10">
      <g>
       <use xlink:href="#m3410f2f5ca" x="57.6" y="174.528" style="stroke: #000000; stroke-width: 0.8"/>
      </g>
     </g>
     <g id="text_10">
      <!-- 0 -->
      <g transform="translate(44.2375 178.327219) scale(0.1 -0.1)">
       <use xlink:href="#DejaVuSans-30"/>
      </g>
     </g>
    </g>
    <g id="ytick_5">
     <g id="line2d_11">
      <g>
       <use xlink:href="#m3410f2f5ca" x="57.6" y="130.460105" style="stroke: #000000; stroke-width: 0.8"/>
      </g>
     </g>
     <g id="text_11">
      <!-- 2 -->
      <g transform="translate(44.2375 134.259324) scale(0.1 -0.1)">
       <use xlink:href="#DejaVuSans-32"/>
      </g>
     </g>
    </g>
    <g id="ytick_6">
     <g id="line2d_12">
      <g>
       <use xlink:href="#m3410f2f5ca" x="57.6" y="86.39221" style="stroke: #000000; stroke-width: 0.8"/>
      </g>
     </g>
     <g id="text_12">
      <!-- 4 -->
      <g transform="translate(44.2375 90.191428) scale(0.1 -0.1)">
       <use xlink:href="#DejaVuSans-34"/>
      </g>
     </g>
    </g>
    <g id="ytick_7">
     <g id="line2d_13">
      <g>
       <use xlink:href="#m3410f2f5ca" x="57.6" y="42.324314" style="stroke: #000000; stroke-width: 0.8"/>
      </g>
     </g>
     <g id="text_13">
      <!-- 6 -->
      <g transform="translate(44.2375 46.123533) scale(0.1 -0.1)">
       <use xlink:href="#DejaVuSans-36"/>
      </g>
     </g>
    </g>
   </g>
   <g id="line2d_14">
    <path d="M 73.832727 174.528 
L 74.904194 88.678675 
L 75.423694 63.297455 
L 75.780849 55.028409 
L 75.975662 53.907928 
L 76.040599 54.069214 
L 76.170474 55.185238 
L 76.397755 59.621111 
L 76.722442 71.081585 
L 77.209472 97.736267 
L 78.086127 161.545466 
L 78.995251 222.382315 
L 79.51475 243.921356 
L 79.871906 251.045692 
L 80.066718 252.157275 
L 80.131655 252.096815 
L 80.26153 251.34342 
L 80.488811 248.071769 
L 80.813498 239.465433 
L 81.300529 219.646367 
L 83.313588 129.21765 
L 83.670744 123.38969 
L 83.898025 122.104817 
L 83.962962 122.07776 
L 83.995431 122.119608 
L 84.125306 122.647802 
L 84.352587 124.891576 
L 84.677274 130.661437 
L 85.196773 144.411984 
L 86.495521 180.484724 
L 86.917614 186.245327 
L 87.177364 187.4946 
L 87.27477 187.498962 
L 87.404644 187.117449 
L 87.631925 185.427947 
L 87.956612 180.992944 
L 88.476112 170.326628 
L 89.547579 147.71415 
L 89.904734 144.27119 
L 90.067078 143.867269 
L 90.099547 143.882275 
L 90.196953 144.125876 
L 90.391765 145.532653 
L 90.651515 149.366577 
L 91.00867 158.252407 
L 91.52817 177.76548 
L 92.567168 228.415521 
L 93.249011 256.074834 
L 93.671104 265.569452 
L 93.930853 267.518696 
L 93.995791 267.499741 
L 94.125666 266.835112 
L 94.320478 264.250905 
L 94.612696 256.810753 
L 95.002321 240.576556 
L 95.554289 207.353059 
L 97.502411 79.961771 
L 97.892035 70.098865 
L 98.119316 68.485539 
L 98.184253 68.607119 
L 98.314128 69.63216 
L 98.541409 73.916491 
L 98.866096 85.329884 
L 99.320658 110.569756 
L 100.034969 165.138633 
L 101.26878 258.965598 
L 101.75581 280.704969 
L 102.080498 287.524279 
L 102.242841 288.443604 
L 102.27531 288.425328 
L 102.372716 287.96656 
L 102.535059 285.865535 
L 102.794809 279.12471 
L 103.184433 261.837987 
L 103.736401 225.62326 
L 105.716992 84.853898 
L 106.139085 72.30612 
L 106.398835 69.428128 
L 106.463772 69.289476 
L 106.52871 69.380234 
L 106.658584 70.239394 
L 106.885865 73.83968 
L 107.210552 83.22322 
L 107.697583 104.8333 
L 108.931394 174.668984 
L 109.580768 203.035387 
L 110.035329 214.473464 
L 110.327548 217.685209 
L 110.489891 218.086663 
L 110.587297 217.873188 
L 110.749641 216.798877 
L 111.00939 213.373039 
L 111.431484 204.198301 
L 113.249731 159.28089 
L 113.541949 157.403187 
L 113.639355 157.294523 
L 113.671824 157.316061 
L 113.801699 157.688755 
L 113.996511 159.087615 
L 114.321198 163.489014 
L 114.808228 173.924533 
L 116.236851 207.162636 
L 116.561538 209.988385 
L 116.691413 210.26785 
L 116.723882 210.257126 
L 116.821288 210.027528 
L 116.983631 208.977174 
L 117.243381 205.550148 
L 117.600537 197.461467 
L 118.120036 179.834257 
L 119.873346 114.77604 
L 120.198033 110.719625 
L 120.327908 110.342889 
L 120.360376 110.365927 
L 120.457783 110.721788 
L 120.652595 112.743937 
L 120.912344 118.179889 
L 121.301969 132.012322 
L 121.821468 159.587053 
L 122.892935 232.306459 
L 123.607247 273.023365 
L 124.061808 287.980897 
L 124.354027 291.61908 
L 124.418964 291.739694 
L 124.451433 291.704227 
L 124.548839 291.212565 
L 124.743651 288.490355 
L 125.035869 280.11515 
L 125.425494 261.435976 
L 125.977462 222.947602 
L 128.02299 67.94454 
L 128.412614 56.445905 
L 128.639895 54.165073 
L 128.704833 54.126749 
L 128.737301 54.209771 
L 128.867176 55.219427 
L 129.094457 59.548068 
L 129.419144 71.072954 
L 129.873706 96.274501 
L 130.620486 152.228949 
L 131.724422 232.707233 
L 132.243921 255.858408 
L 132.601077 263.525398 
L 132.795889 264.686554 
L 132.860826 264.600111 
L 132.990701 263.728033 
L 133.217982 260.026689 
L 133.542669 250.299129 
L 134.0297 227.68492 
L 135.003761 168.484685 
L 135.815478 125.813537 
L 136.302509 110.447052 
L 136.627196 105.594008 
L 136.822008 104.798619 
L 136.919414 104.98054 
L 137.081758 106.108127 
L 137.341507 109.910604 
L 137.731132 119.530482 
L 138.380506 142.170847 
L 139.419504 177.733899 
L 139.906535 187.443075 
L 140.231222 190.327414 
L 140.393565 190.668816 
L 140.426034 190.651449 
L 140.555909 190.305994 
L 140.78319 188.69945 
L 141.107877 184.501893 
L 141.692313 173.3762 
L 142.536499 158.021049 
L 142.893655 154.914917 
L 143.055999 154.543066 
L 143.088467 154.55444 
L 143.185873 154.766037 
L 143.380686 156.008873 
L 143.640435 159.400588 
L 143.997591 167.22314 
L 144.51709 184.183379 
L 146.302869 248.332335 
L 146.627556 252.190425 
L 146.757431 252.527433 
L 146.789899 252.498282 
L 146.919774 251.918698 
L 147.114586 249.639338 
L 147.406805 243.037389 
L 147.796429 228.564619 
L 148.348397 198.848951 
L 150.231582 88.680734 
L 150.588737 80.305856 
L 150.816018 78.625229 
L 150.880956 78.69164 
L 151.010831 79.563256 
L 151.205643 82.718087 
L 151.497861 91.518333 
L 151.919954 112.150341 
L 152.53686 155.221312 
L 154.127826 272.171911 
L 154.582388 289.062137 
L 154.874606 293.342728 
L 154.972012 293.554406 
L 155.004481 293.488413 
L 155.134356 292.54181 
L 155.329168 289.090976 
L 155.621386 279.501064 
L 156.043479 257.213173 
L 156.660385 211.245628 
L 158.251351 87.247906 
L 158.738381 67.022635 
L 159.063068 61.051427 
L 159.225412 60.410519 
L 159.322818 60.769968 
L 159.485162 62.581835 
L 159.744911 68.492396 
L 160.134536 83.556452 
L 160.718972 116.485105 
L 162.342407 212.878693 
L 162.796969 226.788646 
L 163.121656 231.282038 
L 163.284 231.817347 
L 163.316468 231.791024 
L 163.446343 231.253744 
L 163.641155 229.206568 
L 163.965842 222.825344 
L 164.452873 207.911486 
L 166.108777 152.634219 
L 166.498401 147.262675 
L 166.725682 146.214111 
L 166.823088 146.234505 
L 166.952963 146.687922 
L 167.180244 148.594607 
L 167.504931 153.493336 
L 168.056899 165.95236 
L 169.160835 191.450646 
L 169.550459 195.837063 
L 169.77774 196.58052 
L 169.875146 196.457492 
L 170.03749 195.652386 
L 170.297239 192.817583 
L 170.654395 186.009748 
L 171.206363 170.30323 
L 172.570048 129.350081 
L 172.927204 124.756571 
L 173.122016 124.148471 
L 173.219422 124.392613 
L 173.381766 125.642758 
L 173.641515 129.880704 
L 173.998671 140.158446 
L 174.485702 161.651272 
L 175.297419 209.743824 
L 176.27148 264.445802 
L 176.726042 279.702944 
L 177.01826 284.16483 
L 177.148135 284.651872 
L 177.180604 284.624967 
L 177.27801 284.183371 
L 177.472822 281.665391 
L 177.765041 273.82815 
L 178.154665 256.207349 
L 178.706633 219.614072 
L 180.78463 69.2806 
L 181.141785 59.651905 
L 181.369066 57.691846 
L 181.434004 57.742784 
L 181.563879 58.659597 
L 181.758691 62.048627 
L 182.050909 71.485425 
L 182.473002 93.360166 
L 183.122376 140.770348 
L 184.550999 248.400613 
L 185.03803 268.85945 
L 185.362717 275.035028 
L 185.52506 275.751616 
L 185.622466 275.421544 
L 185.78481 273.623457 
L 186.044559 267.618974 
L 186.434184 252.073907 
L 186.986152 219.685461 
L 188.804399 105.27136 
L 189.226492 92.804696 
L 189.51871 89.083304 
L 189.648585 88.726587 
L 189.681054 88.759823 
L 189.810929 89.371974 
L 190.005741 91.676502 
L 190.330428 98.884059 
L 190.817458 115.969747 
L 192.798049 193.096751 
L 193.155205 198.205438 
L 193.414955 199.44129 
L 193.512361 199.388028 
L 193.674704 198.711521 
L 193.934454 196.24208 
L 194.324078 189.991297 
L 195.882576 161.904673 
L 196.142326 160.823957 
L 196.239732 160.867528 
L 196.369606 161.321679 
L 196.596887 163.21785 
L 196.921574 168.300117 
L 197.376136 179.526741 
L 198.252791 208.450806 
L 198.967103 228.701676 
L 199.356727 234.590947 
L 199.584008 235.67345 
L 199.648945 235.632568 
L 199.77882 235.066575 
L 199.973632 232.983952 
L 200.265851 227.07217 
L 200.655475 214.233469 
L 201.239912 186.339036 
L 202.928284 100.253485 
L 203.317909 91.879556 
L 203.545189 90.481601 
L 203.610127 90.583859 
L 203.740002 91.470308 
L 203.967283 95.219988 
L 204.29197 105.336808 
L 204.746531 128.061268 
L 205.428374 175.726091 
L 206.759591 270.553878 
L 207.246621 289.915518 
L 207.53884 294.964484 
L 207.668715 295.488 
L 207.701183 295.450138 
L 207.798589 294.929878 
L 207.993402 292.063199 
L 208.28562 283.296605 
L 208.675244 263.896838 
L 209.259681 221.681522 
L 211.142866 74.577431 
L 211.564959 59.468825 
L 211.857177 55.349493 
L 211.954583 55.16052 
L 211.987052 55.228572 
L 212.116927 56.149698 
L 212.344208 60.20044 
L 212.668895 71.015903 
L 213.123456 94.534294 
L 213.935174 150.803577 
L 214.941704 216.55702 
L 215.461203 237.365619 
L 215.818359 244.335854 
L 216.045639 245.517926 
L 216.143046 245.263979 
L 216.305389 243.862573 
L 216.565139 239.227889 
L 216.954763 227.497242 
L 217.571668 200.960731 
L 218.805479 147.057177 
L 219.29251 134.906412 
L 219.617197 131.16749 
L 219.812009 130.640634 
L 219.909415 130.845639 
L 220.071758 131.849897 
L 220.331508 135.046786 
L 220.753601 143.658901 
L 221.662725 168.712054 
L 222.312099 183.266592 
L 222.701723 187.828357 
L 222.929004 188.68481 
L 223.02641 188.628431 
L 223.188754 187.973477 
L 223.416035 185.917616 
L 223.77319 180.273559 
L 224.325158 167.38876 
L 225.396625 142.159282 
L 225.753781 138.176359 
L 225.948593 137.590534 
L 226.046 137.764371 
L 226.208343 138.779021 
L 226.468093 142.34321 
L 226.825248 151.142758 
L 227.312279 169.752554 
L 228.091528 209.85045 
L 229.065589 257.460613 
L 229.520151 270.409567 
L 229.812369 273.843488 
L 229.909775 274.039669 
L 229.942244 273.996105 
L 230.072118 273.270019 
L 230.266931 270.510278 
L 230.559149 262.632349 
L 230.948773 245.532562 
L 231.53321 208.332442 
L 233.416395 78.326121 
L 233.806019 66.853027 
L 234.065769 64.261083 
L 234.098237 64.233607 
L 234.130706 64.272553 
L 234.228112 64.788142 
L 234.422924 67.605292 
L 234.715143 76.177528 
L 235.104767 95.044258 
L 235.689204 135.750333 
L 237.442514 265.985606 
L 237.864607 280.752108 
L 238.156825 284.678037 
L 238.221763 284.822393 
L 238.254231 284.794917 
L 238.351637 284.315026 
L 238.54645 281.586552 
L 238.838668 273.239879 
L 239.260761 253.119506 
L 239.877666 211.097646 
L 241.436164 100.185874 
L 241.923195 81.499168 
L 242.247882 75.785981 
L 242.410225 75.016331 
L 242.442694 75.027458 
L 242.5401 75.385716 
L 242.734912 77.526269 
L 243.02713 84.063804 
L 243.449223 99.485484 
L 244.163535 135.64962 
L 245.267471 190.094273 
L 245.78697 205.445149 
L 246.144126 210.553651 
L 246.371407 211.465466 
L 246.468813 211.324241 
L 246.631156 210.421412 
L 246.890906 207.397555 
L 247.312999 199.182988 
L 249.001371 162.099408 
L 249.29359 160.427569 
L 249.390996 160.37119 
L 249.423465 160.40896 
L 249.553339 160.842517 
L 249.78062 162.670991 
L 250.105307 167.488495 
L 250.592338 178.610029 
L 252.085898 215.423473 
L 252.410585 218.210361 
L 252.54046 218.415221 
L 252.572929 218.38033 
L 252.702803 217.88851 
L 252.897616 216.077077 
L 253.189834 210.941482 
L 253.611927 198.71157 
L 254.228832 172.969044 
L 255.592518 114.08409 
L 256.014611 105.193427 
L 256.241892 103.572821 
L 256.306829 103.553697 
L 256.339298 103.620001 
L 256.469173 104.397005 
L 256.696454 107.747976 
L 257.021141 116.894092 
L 257.443234 135.898821 
L 258.092608 177.098649 
L 259.553699 273.747528 
L 260.008261 289.619323 
L 260.30048 293.694197 
L 260.397886 293.898127 
L 260.430354 293.835184 
L 260.560229 292.925254 
L 260.755041 289.587175 
L 261.04726 280.234287 
L 261.469353 258.244559 
L 262.086258 212.131612 
L 263.807099 76.076849 
L 264.261661 58.484448 
L 264.553879 53.884892 
L 264.651285 53.568 
L 264.683754 53.597793 
L 264.78116 54.091516 
L 264.975973 56.87387 
L 265.268191 65.345251 
L 265.690284 85.6676 
L 266.307189 127.8223 
L 267.80075 233.507066 
L 268.28778 252.253895 
L 268.612467 257.892894 
L 268.774811 258.574399 
L 268.807279 258.540971 
L 268.904685 258.10591 
L 269.099498 255.764932 
L 269.391716 248.802515 
L 269.813809 232.498051 
L 270.52812 194.221178 
L 271.632056 136.127144 
L 272.151556 119.645072 
L 272.508711 114.233148 
L 272.703523 113.383044 
L 272.768461 113.421622 
L 272.898336 113.966033 
L 273.125617 116.341234 
L 273.450304 122.515518 
L 273.969803 137.387248 
L 275.398426 180.755883 
L 275.820519 186.822317 
L 276.080268 188.188472 
L 276.177674 188.232043 
L 276.210143 188.190898 
L 276.340018 187.754678 
L 276.567299 185.999048 
L 276.924455 181.041026 
L 277.54136 168.560905 
L 278.353077 153.229978 
L 278.710233 149.988419 
L 278.872577 149.602098 
L 278.905045 149.61471 
L 279.002452 149.838942 
L 279.197264 151.150442 
L 279.457013 154.734889 
L 279.814169 163.039019 
L 280.333668 181.205563 
L 282.28179 256.840818 
L 282.574009 260.085134 
L 282.671415 260.329413 
L 282.703883 260.313983 
L 282.80129 259.972696 
L 282.963633 258.407599 
L 283.223383 253.293644 
L 283.580538 241.156573 
L 284.067569 216.194516 
L 284.911755 158.808197 
L 285.885816 96.982093 
L 286.372847 78.747912 
L 286.665065 73.870093 
L 286.79494 73.304384 
L 286.827409 73.320696 
L 286.924815 73.750539 
L 287.087158 75.73746 
L 287.346908 82.17537 
L 287.704063 97.214059 
L 288.223563 129.826924 
L 289.29503 216.10164 
L 290.04181 266.897383 
L 290.496372 285.351683 
L 290.78859 290.727169 
L 290.918465 291.372707 
L 290.950934 291.364154 
L 291.04834 290.930407 
L 291.210683 288.854626 
L 291.470433 282.099923 
L 291.827589 266.394778 
L 292.347088 232.663733 
L 294.522491 76.392668 
L 294.912115 66.308696 
L 295.139396 64.431033 
L 295.204334 64.436991 
L 295.30174 64.89117 
L 295.496552 67.363276 
L 295.78877 74.748969 
L 296.210863 92.114412 
L 296.892706 131.159399 
L 298.094048 199.843417 
L 298.613547 217.684554 
L 298.970703 223.74869 
L 299.197984 224.907529 
L 299.262921 224.86454 
L 299.392796 224.299429 
L 299.620077 221.859826 
L 299.944764 215.566185 
L 300.464263 200.560986 
L 301.79548 160.20698 
L 302.217573 153.935525 
L 302.477323 152.527595 
L 302.574729 152.494054 
L 302.607197 152.542186 
L 302.737072 153.026269 
L 302.964353 154.951611 
L 303.321509 160.436792 
L 303.873477 173.056476 
L 304.944944 197.799445 
L 305.334568 202.180539 
L 305.561849 202.86602 
L 305.659255 202.699935 
L 305.821599 201.793325 
L 306.081348 198.703984 
L 306.438504 191.320027 
L 306.958003 175.261399 
L 308.54897 121.985619 
L 308.873657 117.802256 
L 309.036 117.238653 
L 309.068469 117.256348 
L 309.165875 117.576946 
L 309.328219 119.018673 
L 309.587968 123.71858 
L 309.945124 134.902248 
L 310.432154 158.004109 
L 311.243872 209.170093 
L 312.217933 267.006273 
L 312.704964 283.967343 
L 312.997182 288.286032 
L 313.127057 288.641903 
L 313.159525 288.576201 
L 313.2894 287.688797 
L 313.484212 284.478618 
L 313.776431 275.500849 
L 314.198524 254.342788 
L 314.78296 212.386146 
L 316.568739 75.418493 
L 316.990832 59.965024 
L 317.28305 55.701901 
L 317.380457 55.503917 
L 317.412925 55.574507 
L 317.5428 56.53706 
L 317.770081 60.800005 
L 318.094768 72.291759 
L 318.54933 97.623582 
L 319.29611 154.347392 
L 320.432515 238.792405 
L 320.952014 262.038441 
L 321.309169 269.492744 
L 321.503982 270.430771 
L 321.601388 270.072089 
L 321.763731 268.271509 
L 322.023481 262.391054 
L 322.413105 247.354554 
L 322.997542 214.30881 
L 324.653446 114.986472 
L 325.108008 101.195237 
L 325.432695 96.922462 
L 325.562569 96.528567 
L 325.595038 96.545137 
L 325.692444 96.865575 
L 325.887256 98.684917 
L 326.179475 104.126515 
L 326.601568 116.710132 
L 327.413285 149.279605 
L 328.257472 180.04319 
L 328.744502 190.68927 
L 329.069189 193.998398 
L 329.264001 194.512934 
L 329.361407 194.374057 
L 329.523751 193.589699 
L 329.783501 191.034951 
L 330.205594 184.235541 
L 331.569279 160.053562 
L 331.861497 158.449848 
L 331.958904 158.398037 
L 331.991372 158.437379 
L 332.121247 158.884002 
L 332.348528 160.799346 
L 332.673215 166.025156 
L 333.127777 177.801014 
L 333.874557 204.419419 
L 334.783681 234.855735 
L 335.205774 242.602982 
L 335.465523 244.238938 
L 335.530461 244.233154 
L 335.627867 243.901449 
L 335.822679 242.053055 
L 336.082429 237.108228 
L 336.472053 224.549782 
L 336.991552 199.570302 
L 339.069549 89.775535 
L 339.394236 84.776263 
L 339.524111 84.369446 
L 339.55658 84.414596 
L 339.686454 85.188382 
L 339.881267 88.133739 
L 340.173485 96.503223 
L 340.595578 116.348767 
L 341.212483 158.179364 
L 342.835919 274.981239 
L 343.258012 290.321738 
L 343.55023 294.69525 
L 343.647636 294.944182 
L 343.680105 294.890927 
L 343.80998 293.995685 
L 344.004792 290.61822 
L 344.29701 281.11146 
L 344.719103 258.833784 
L 345.336009 212.526564 
L 346.991912 82.20015 
L 347.446474 63.661116 
L 347.771161 57.843435 
L 347.901036 57.316306 
L 347.933505 57.344765 
L 348.030911 57.8112 
L 348.225723 60.426541 
L 348.517941 68.337365 
L 348.940034 87.132968 
L 349.589408 127.775427 
L 350.920625 212.59645 
L 351.407656 230.876111 
L 351.764811 237.543016 
L 351.992092 238.713111 
L 352.05703 238.617746 
L 352.186905 237.872533 
L 352.414185 234.874467 
L 352.771341 226.298889 
L 353.323309 206.245049 
L 354.784401 149.849347 
L 355.206494 141.524843 
L 355.498712 139.028472 
L 355.628587 138.78815 
L 355.661056 138.809947 
L 355.79093 139.216513 
L 356.018211 141.099578 
L 356.342898 146.072782 
L 356.862398 158.024776 
L 358.063739 186.638172 
L 358.453364 191.011116 
L 358.680645 191.761477 
L 358.778051 191.652813 
L 358.940394 190.894444 
L 359.200144 188.214389 
L 359.5573 181.837928 
L 360.109268 167.449834 
L 361.278141 136.244633 
L 361.635297 131.722742 
L 361.830109 130.969337 
L 361.895046 131.01444 
L 362.024921 131.567816 
L 362.219733 133.587236 
L 362.511952 139.335845 
L 362.901576 151.914398 
L 363.453544 177.826544 
L 365.30426 272.027621 
L 365.661416 278.816606 
L 365.856228 279.766524 
L 365.953634 279.471895 
L 366.115977 277.819306 
L 366.375727 272.14909 
L 366.732883 258.469549 
L 367.219913 230.16763 
L 368.031631 167.418358 
L 369.070629 90.846687 
L 369.55766 68.868203 
L 369.882347 61.730541 
L 370.077159 60.612396 
L 370.142096 60.778118 
L 370.271971 61.917119 
L 370.499252 66.467325 
L 370.823939 78.349304 
L 371.278501 104.257156 
L 372.025281 162.15528 
L 373.161686 248.607827 
L 373.681185 272.352225 
L 374.005872 279.42384 
L 374.200684 280.570461 
L 374.265621 280.431924 
L 374.395496 279.380003 
L 374.622777 275.107233 
L 374.947464 263.960225 
L 375.402026 239.875353 
L 376.181275 184.541917 
L 377.252742 111.826897 
L 377.772241 90.227509 
L 378.129397 82.869857 
L 378.356678 81.520891 
L 378.421615 81.605173 
L 378.55149 82.383484 
L 378.778771 85.621336 
L 379.103458 93.998479 
L 379.590489 113.075187 
L 381.538611 196.932287 
L 381.928235 203.523347 
L 382.187985 205.125851 
L 382.285391 205.171245 
L 382.317859 205.121668 
L 382.447734 204.611409 
L 382.675015 202.598344 
L 383.032171 197.025565 
L 383.681545 182.544943 
L 384.460794 166.507496 
L 384.850418 162.291562 
L 385.077699 161.530558 
L 385.175105 161.618935 
L 385.337449 162.329531 
L 385.597198 164.916623 
L 385.954354 171.19134 
L 386.506322 185.672237 
L 387.80507 221.62285 
L 388.162226 226.188016 
L 388.389507 226.983276 
L 388.486913 226.774484 
L 388.649256 225.66631 
L 388.909006 221.887916 
L 389.266162 212.749045 
L 389.753192 193.814938 
L 390.662316 147.326898 
L 391.474033 110.679324 
L 391.896126 99.804005 
L 392.155876 97.069031 
L 392.253282 96.898725 
L 392.285751 96.948731 
L 392.415626 97.689232 
L 392.610438 100.434669 
L 392.902656 108.203107 
L 393.324749 126.673685 
L 393.909186 163.542873 
L 395.630027 279.372805 
L 396.05212 292.350067 
L 396.31187 295.100702 
L 396.376807 295.128714 
L 396.474213 294.66909 
L 396.636557 292.563702 
L 396.896306 285.758545 
L 397.253462 269.867255 
L 397.772961 235.343059 
L 398.487273 174.528 
L 398.487273 174.528 
" clip-path="url(#pd08a6825b8)" style="fill: none; stroke: #1f77b4; stroke-width: 1.5; stroke-linecap: square"/>
   </g>
   <g id="line2d_15">
    <path d="M 57.6 174.528 
L 414.72 174.528 
" clip-path="url(#pd08a6825b8)" style="fill: none; stroke: #000000; stroke-width: 1.5; stroke-linecap: square"/>
   </g>
   <g id="patch_3">
    <path d="M 57.6 307.584 
L 57.6 41.472 
" style="fill: none; stroke: #000000; stroke-width: 0.8; stroke-linejoin: miter; stroke-linecap: square"/>
   </g>
   <g id="patch_4">
    <path d="M 414.72 307.584 
L 414.72 41.472 
" style="fill: none; stroke: #000000; stroke-width: 0.8; stroke-linejoin: miter; stroke-linecap: square"/>
   </g>
   <g id="patch_5">
    <path d="M 57.6 307.584 
L 414.72 307.584 
" style="fill: none; stroke: #000000; stroke-width: 0.8; stroke-linejoin: miter; stroke-linecap: square"/>
   </g>
   <g id="patch_6">
    <path d="M 57.6 41.472 
L 414.72 41.472 
" style="fill: none; stroke: #000000; stroke-width: 0.8; stroke-linejoin: miter; stroke-linecap: square"/>
   </g>
   <g id="text_14">
    <!-- Semnalul sinusoidal de frecvente 12, 43, 31 Hz -->
    <g transform="translate(94.431563 35.472) scale(0.12 -0.12)">
     <defs>
      <path id="DejaVuSans-53" d="M 3425 4513 
L 3425 3897 
Q 3066 4069 2747 4153 
Q 2428 4238 2131 4238 
Q 1616 4238 1336 4038 
Q 1056 3838 1056 3469 
Q 1056 3159 1242 3001 
Q 1428 2844 1947 2747 
L 2328 2669 
Q 3034 2534 3370 2195 
Q 3706 1856 3706 1288 
Q 3706 609 3251 259 
Q 2797 -91 1919 -91 
Q 1588 -91 1214 -16 
Q 841 59 441 206 
L 441 856 
Q 825 641 1194 531 
Q 1563 422 1919 422 
Q 2459 422 2753 634 
Q 3047 847 3047 1241 
Q 3047 1584 2836 1778 
Q 2625 1972 2144 2069 
L 1759 2144 
Q 1053 2284 737 2584 
Q 422 2884 422 3419 
Q 422 4038 858 4394 
Q 1294 4750 2059 4750 
Q 2388 4750 2728 4690 
Q 3069 4631 3425 4513 
z
" transform="scale(0.015625)"/>
      <path id="DejaVuSans-65" d="M 3597 1894 
L 3597 1613 
L 953 1613 
Q 991 1019 1311 708 
Q 1631 397 2203 397 
Q 2534 397 2845 478 
Q 3156 559 3463 722 
L 3463 178 
Q 3153 47 2828 -22 
Q 2503 -91 2169 -91 
Q 1331 -91 842 396 
Q 353 884 353 1716 
Q 353 2575 817 3079 
Q 1281 3584 2069 3584 
Q 2775 3584 3186 3129 
Q 3597 2675 3597 1894 
z
M 3022 2063 
Q 3016 2534 2758 2815 
Q 2500 3097 2075 3097 
Q 1594 3097 1305 2825 
Q 1016 2553 972 2059 
L 3022 2063 
z
" transform="scale(0.015625)"/>
      <path id="DejaVuSans-6d" d="M 3328 2828 
Q 3544 3216 3844 3400 
Q 4144 3584 4550 3584 
Q 5097 3584 5394 3201 
Q 5691 2819 5691 2113 
L 5691 0 
L 5113 0 
L 5113 2094 
Q 5113 2597 4934 2840 
Q 4756 3084 4391 3084 
Q 3944 3084 3684 2787 
Q 3425 2491 3425 1978 
L 3425 0 
L 2847 0 
L 2847 2094 
Q 2847 2600 2669 2842 
Q 2491 3084 2119 3084 
Q 1678 3084 1418 2786 
Q 1159 2488 1159 1978 
L 1159 0 
L 581 0 
L 581 3500 
L 1159 3500 
L 1159 2956 
Q 1356 3278 1631 3431 
Q 1906 3584 2284 3584 
Q 2666 3584 2933 3390 
Q 3200 3197 3328 2828 
z
" transform="scale(0.015625)"/>
      <path id="DejaVuSans-6e" d="M 3513 2113 
L 3513 0 
L 2938 0 
L 2938 2094 
Q 2938 2591 2744 2837 
Q 2550 3084 2163 3084 
Q 1697 3084 1428 2787 
Q 1159 2491 1159 1978 
L 1159 0 
L 581 0 
L 581 3500 
L 1159 3500 
L 1159 2956 
Q 1366 3272 1645 3428 
Q 1925 3584 2291 3584 
Q 2894 3584 3203 3211 
Q 3513 2838 3513 2113 
z
" transform="scale(0.015625)"/>
      <path id="DejaVuSans-61" d="M 2194 1759 
Q 1497 1759 1228 1600 
Q 959 1441 959 1056 
Q 959 750 1161 570 
Q 1363 391 1709 391 
Q 2188 391 2477 730 
Q 2766 1069 2766 1631 
L 2766 1759 
L 2194 1759 
z
M 3341 1997 
L 3341 0 
L 2766 0 
L 2766 531 
Q 2569 213 2275 61 
Q 1981 -91 1556 -91 
Q 1019 -91 701 211 
Q 384 513 384 1019 
Q 384 1609 779 1909 
Q 1175 2209 1959 2209 
L 2766 2209 
L 2766 2266 
Q 2766 2663 2505 2880 
Q 2244 3097 1772 3097 
Q 1472 3097 1187 3025 
Q 903 2953 641 2809 
L 641 3341 
Q 956 3463 1253 3523 
Q 1550 3584 1831 3584 
Q 2591 3584 2966 3190 
Q 3341 2797 3341 1997 
z
" transform="scale(0.015625)"/>
      <path id="DejaVuSans-6c" d="M 603 4863 
L 1178 4863 
L 1178 0 
L 603 0 
L 603 4863 
z
" transform="scale(0.015625)"/>
      <path id="DejaVuSans-75" d="M 544 1381 
L 544 3500 
L 1119 3500 
L 1119 1403 
Q 1119 906 1312 657 
Q 1506 409 1894 409 
Q 2359 409 2629 706 
Q 2900 1003 2900 1516 
L 2900 3500 
L 3475 3500 
L 3475 0 
L 2900 0 
L 2900 538 
Q 2691 219 2414 64 
Q 2138 -91 1772 -91 
Q 1169 -91 856 284 
Q 544 659 544 1381 
z
M 1991 3584 
L 1991 3584 
z
" transform="scale(0.015625)"/>
      <path id="DejaVuSans-20" transform="scale(0.015625)"/>
      <path id="DejaVuSans-73" d="M 2834 3397 
L 2834 2853 
Q 2591 2978 2328 3040 
Q 2066 3103 1784 3103 
Q 1356 3103 1142 2972 
Q 928 2841 928 2578 
Q 928 2378 1081 2264 
Q 1234 2150 1697 2047 
L 1894 2003 
Q 2506 1872 2764 1633 
Q 3022 1394 3022 966 
Q 3022 478 2636 193 
Q 2250 -91 1575 -91 
Q 1294 -91 989 -36 
Q 684 19 347 128 
L 347 722 
Q 666 556 975 473 
Q 1284 391 1588 391 
Q 1994 391 2212 530 
Q 2431 669 2431 922 
Q 2431 1156 2273 1281 
Q 2116 1406 1581 1522 
L 1381 1569 
Q 847 1681 609 1914 
Q 372 2147 372 2553 
Q 372 3047 722 3315 
Q 1072 3584 1716 3584 
Q 2034 3584 2315 3537 
Q 2597 3491 2834 3397 
z
" transform="scale(0.015625)"/>
      <path id="DejaVuSans-69" d="M 603 3500 
L 1178 3500 
L 1178 0 
L 603 0 
L 603 3500 
z
M 603 4863 
L 1178 4863 
L 1178 4134 
L 603 4134 
L 603 4863 
z
" transform="scale(0.015625)"/>
      <path id="DejaVuSans-6f" d="M 1959 3097 
Q 1497 3097 1228 2736 
Q 959 2375 959 1747 
Q 959 1119 1226 758 
Q 1494 397 1959 397 
Q 2419 397 2687 759 
Q 2956 1122 2956 1747 
Q 2956 2369 2687 2733 
Q 2419 3097 1959 3097 
z
M 1959 3584 
Q 2709 3584 3137 3096 
Q 3566 2609 3566 1747 
Q 3566 888 3137 398 
Q 2709 -91 1959 -91 
Q 1206 -91 779 398 
Q 353 888 353 1747 
Q 353 2609 779 3096 
Q 1206 3584 1959 3584 
z
" transform="scale(0.015625)"/>
      <path id="DejaVuSans-64" d="M 2906 2969 
L 2906 4863 
L 3481 4863 
L 3481 0 
L 2906 0 
L 2906 525 
Q 2725 213 2448 61 
Q 2172 -91 1784 -91 
Q 1150 -91 751 415 
Q 353 922 353 1747 
Q 353 2572 751 3078 
Q 1150 3584 1784 3584 
Q 2172 3584 2448 3432 
Q 2725 3281 2906 2969 
z
M 947 1747 
Q 947 1113 1208 752 
Q 1469 391 1925 391 
Q 2381 391 2643 752 
Q 2906 1113 2906 1747 
Q 2906 2381 2643 2742 
Q 2381 3103 1925 3103 
Q 1469 3103 1208 2742 
Q 947 2381 947 1747 
z
" transform="scale(0.015625)"/>
      <path id="DejaVuSans-66" d="M 2375 4863 
L 2375 4384 
L 1825 4384 
Q 1516 4384 1395 4259 
Q 1275 4134 1275 3809 
L 1275 3500 
L 2222 3500 
L 2222 3053 
L 1275 3053 
L 1275 0 
L 697 0 
L 697 3053 
L 147 3053 
L 147 3500 
L 697 3500 
L 697 3744 
Q 697 4328 969 4595 
Q 1241 4863 1831 4863 
L 2375 4863 
z
" transform="scale(0.015625)"/>
      <path id="DejaVuSans-72" d="M 2631 2963 
Q 2534 3019 2420 3045 
Q 2306 3072 2169 3072 
Q 1681 3072 1420 2755 
Q 1159 2438 1159 1844 
L 1159 0 
L 581 0 
L 581 3500 
L 1159 3500 
L 1159 2956 
Q 1341 3275 1631 3429 
Q 1922 3584 2338 3584 
Q 2397 3584 2469 3576 
Q 2541 3569 2628 3553 
L 2631 2963 
z
" transform="scale(0.015625)"/>
      <path id="DejaVuSans-63" d="M 3122 3366 
L 3122 2828 
Q 2878 2963 2633 3030 
Q 2388 3097 2138 3097 
Q 1578 3097 1268 2742 
Q 959 2388 959 1747 
Q 959 1106 1268 751 
Q 1578 397 2138 397 
Q 2388 397 2633 464 
Q 2878 531 3122 666 
L 3122 134 
Q 2881 22 2623 -34 
Q 2366 -91 2075 -91 
Q 1284 -91 818 406 
Q 353 903 353 1747 
Q 353 2603 823 3093 
Q 1294 3584 2113 3584 
Q 2378 3584 2631 3529 
Q 2884 3475 3122 3366 
z
" transform="scale(0.015625)"/>
      <path id="DejaVuSans-76" d="M 191 3500 
L 800 3500 
L 1894 563 
L 2988 3500 
L 3597 3500 
L 2284 0 
L 1503 0 
L 191 3500 
z
" transform="scale(0.015625)"/>
      <path id="DejaVuSans-74" d="M 1172 4494 
L 1172 3500 
L 2356 3500 
L 2356 3053 
L 1172 3053 
L 1172 1153 
Q 1172 725 1289 603 
Q 1406 481 1766 481 
L 2356 481 
L 2356 0 
L 1766 0 
Q 1100 0 847 248 
Q 594 497 594 1153 
L 594 3053 
L 172 3053 
L 172 3500 
L 594 3500 
L 594 4494 
L 1172 4494 
z
" transform="scale(0.015625)"/>
      <path id="DejaVuSans-2c" d="M 750 794 
L 1409 794 
L 1409 256 
L 897 -744 
L 494 -744 
L 750 256 
L 750 794 
z
" transform="scale(0.015625)"/>
      <path id="DejaVuSans-33" d="M 2597 2516 
Q 3050 2419 3304 2112 
Q 3559 1806 3559 1356 
Q 3559 666 3084 287 
Q 2609 -91 1734 -91 
Q 1441 -91 1130 -33 
Q 819 25 488 141 
L 488 750 
Q 750 597 1062 519 
Q 1375 441 1716 441 
Q 2309 441 2620 675 
Q 2931 909 2931 1356 
Q 2931 1769 2642 2001 
Q 2353 2234 1838 2234 
L 1294 2234 
L 1294 2753 
L 1863 2753 
Q 2328 2753 2575 2939 
Q 2822 3125 2822 3475 
Q 2822 3834 2567 4026 
Q 2313 4219 1838 4219 
Q 1578 4219 1281 4162 
Q 984 4106 628 3988 
L 628 4550 
Q 988 4650 1302 4700 
Q 1616 4750 1894 4750 
Q 2613 4750 3031 4423 
Q 3450 4097 3450 3541 
Q 3450 3153 3228 2886 
Q 3006 2619 2597 2516 
z
" transform="scale(0.015625)"/>
      <path id="DejaVuSans-48" d="M 628 4666 
L 1259 4666 
L 1259 2753 
L 3553 2753 
L 3553 4666 
L 4184 4666 
L 4184 0 
L 3553 0 
L 3553 2222 
L 1259 2222 
L 1259 0 
L 628 0 
L 628 4666 
z
" transform="scale(0.015625)"/>
      <path id="DejaVuSans-7a" d="M 353 3500 
L 3084 3500 
L 3084 2975 
L 922 459 
L 3084 459 
L 3084 0 
L 275 0 
L 275 525 
L 2438 3041 
L 353 3041 
L 353 3500 
z
" transform="scale(0.015625)"/>
     </defs>
     <use xlink:href="#DejaVuSans-53"/>
     <use xlink:href="#DejaVuSans-65" x="63.476562"/>
     <use xlink:href="#DejaVuSans-6d" x="125"/>
     <use xlink:href="#DejaVuSans-6e" x="222.412109"/>
     <use xlink:href="#DejaVuSans-61" x="285.791016"/>
     <use xlink:href="#DejaVuSans-6c" x="347.070312"/>
     <use xlink:href="#DejaVuSans-75" x="374.853516"/>
     <use xlink:href="#DejaVuSans-6c" x="438.232422"/>
     <use xlink:href="#DejaVuSans-20" x="466.015625"/>
     <use xlink:href="#DejaVuSans-73" x="497.802734"/>
     <use xlink:href="#DejaVuSans-69" x="549.902344"/>
     <use xlink:href="#DejaVuSans-6e" x="577.685547"/>
     <use xlink:href="#DejaVuSans-75" x="641.064453"/>
     <use xlink:href="#DejaVuSans-73" x="704.443359"/>
     <use xlink:href="#DejaVuSans-6f" x="756.542969"/>
     <use xlink:href="#DejaVuSans-69" x="817.724609"/>
     <use xlink:href="#DejaVuSans-64" x="845.507812"/>
     <use xlink:href="#DejaVuSans-61" x="908.984375"/>
     <use xlink:href="#DejaVuSans-6c" x="970.263672"/>
     <use xlink:href="#DejaVuSans-20" x="998.046875"/>
     <use xlink:href="#DejaVuSans-64" x="1029.833984"/>
     <use xlink:href="#DejaVuSans-65" x="1093.310547"/>
     <use xlink:href="#DejaVuSans-20" x="1154.833984"/>
     <use xlink:href="#DejaVuSans-66" x="1186.621094"/>
     <use xlink:href="#DejaVuSans-72" x="1221.826172"/>
     <use xlink:href="#DejaVuSans-65" x="1260.689453"/>
     <use xlink:href="#DejaVuSans-63" x="1322.212891"/>
     <use xlink:href="#DejaVuSans-76" x="1377.193359"/>
     <use xlink:href="#DejaVuSans-65" x="1436.373047"/>
     <use xlink:href="#DejaVuSans-6e" x="1497.896484"/>
     <use xlink:href="#DejaVuSans-74" x="1561.275391"/>
     <use xlink:href="#DejaVuSans-65" x="1600.484375"/>
     <use xlink:href="#DejaVuSans-20" x="1662.007812"/>
     <use xlink:href="#DejaVuSans-31" x="1693.794922"/>
     <use xlink:href="#DejaVuSans-32" x="1757.417969"/>
     <use xlink:href="#DejaVuSans-2c" x="1821.041016"/>
     <use xlink:href="#DejaVuSans-20" x="1852.828125"/>
     <use xlink:href="#DejaVuSans-34" x="1884.615234"/>
     <use xlink:href="#DejaVuSans-33" x="1948.238281"/>
     <use xlink:href="#DejaVuSans-2c" x="2011.861328"/>
     <use xlink:href="#DejaVuSans-20" x="2043.648438"/>
     <use xlink:href="#DejaVuSans-33" x="2075.435547"/>
     <use xlink:href="#DejaVuSans-31" x="2139.058594"/>
     <use xlink:href="#DejaVuSans-20" x="2202.681641"/>
     <use xlink:href="#DejaVuSans-48" x="2234.46875"/>
     <use xlink:href="#DejaVuSans-7a" x="2309.664062"/>
    </g>
   </g>
  </g>
 </g>
 <defs>
  <clipPath id="pd08a6825b8">
   <rect x="57.6" y="41.472" width="357.12" height="266.112"/>
  </clipPath>
 </defs>
</svg>
