<?xml version="1.0" encoding="utf-8" standalone="no"?>
<!DOCTYPE svg PUBLIC "-//W3C//DTD SVG 1.1//EN"
  "http://www.w3.org/Graphics/SVG/1.1/DTD/svg11.dtd">
<svg xmlns:xlink="http://www.w3.org/1999/xlink" width="460.8pt" height="345.6pt" viewBox="0 0 460.8 345.6" xmlns="http://www.w3.org/2000/svg" version="1.1">
 <metadata>
  <rdf:RDF xmlns:dc="http://purl.org/dc/elements/1.1/" xmlns:cc="http://creativecommons.org/ns#" xmlns:rdf="http://www.w3.org/1999/02/22-rdf-syntax-ns#">
   <cc:Work>
    <dc:type rdf:resource="http://purl.org/dc/dcmitype/StillImage"/>
    <dc:date>2024-10-18T20:56:12.787124</dc:date>
    <dc:format>image/svg+xml</dc:format>
    <dc:creator>
     <cc:Agent>
      <dc:title>Matplotlib v3.9.2, https://matplotlib.org/</dc:title>
     </cc:Agent>
    </dc:creator>
   </cc:Work>
  </rdf:RDF>
 </metadata>
 <defs>
  <style type="text/css">*{stroke-linejoin: round; stroke-linecap: butt}</style>
 </defs>
 <g id="figure_1">
  <g id="patch_1">
   <path d="M 0 345.6 
L 460.8 345.6 
L 460.8 0 
L 0 0 
z
" style="fill: #ffffff"/>
  </g>
  <g id="axes_1">
   <g id="patch_2">
    <path d="M 57.6 307.584 
L 414.72 307.584 
L 414.72 41.472 
L 57.6 41.472 
z
" style="fill: #ffffff"/>
   </g>
   <g id="matplotlib.axis_1">
    <g id="xtick_1">
     <g id="line2d_1">
      <defs>
       <path id="maf665153e7" d="M 0 0 
L 0 3.5 
" style="stroke: #000000; stroke-width: 0.8"/>
      </defs>
      <g>
       <use xlink:href="#maf665153e7" x="57.6" y="307.584" style="stroke: #000000; stroke-width: 0.8"/>
      </g>
     </g>
     <g id="text_1">
      <!-- −1.00 -->
      <g transform="translate(42.277344 322.182437) scale(0.1 -0.1)">
       <defs>
        <path id="DejaVuSans-2212" d="M 678 2272 
L 4684 2272 
L 4684 1741 
L 678 1741 
L 678 2272 
z
" transform="scale(0.015625)"/>
        <path id="DejaVuSans-31" d="M 794 531 
L 1825 531 
L 1825 4091 
L 703 3866 
L 703 4441 
L 1819 4666 
L 2450 4666 
L 2450 531 
L 3481 531 
L 3481 0 
L 794 0 
L 794 531 
z
" transform="scale(0.015625)"/>
        <path id="DejaVuSans-2e" d="M 684 794 
L 1344 794 
L 1344 0 
L 684 0 
L 684 794 
z
" transform="scale(0.015625)"/>
        <path id="DejaVuSans-30" d="M 2034 4250 
Q 1547 4250 1301 3770 
Q 1056 3291 1056 2328 
Q 1056 1369 1301 889 
Q 1547 409 2034 409 
Q 2525 409 2770 889 
Q 3016 1369 3016 2328 
Q 3016 3291 2770 3770 
Q 2525 4250 2034 4250 
z
M 2034 4750 
Q 2819 4750 3233 4129 
Q 3647 3509 3647 2328 
Q 3647 1150 3233 529 
Q 2819 -91 2034 -91 
Q 1250 -91 836 529 
Q 422 1150 422 2328 
Q 422 3509 836 4129 
Q 1250 4750 2034 4750 
z
" transform="scale(0.015625)"/>
       </defs>
       <use xlink:href="#DejaVuSans-2212"/>
       <use xlink:href="#DejaVuSans-31" x="83.789062"/>
       <use xlink:href="#DejaVuSans-2e" x="147.412109"/>
       <use xlink:href="#DejaVuSans-30" x="179.199219"/>
       <use xlink:href="#DejaVuSans-30" x="242.822266"/>
      </g>
     </g>
    </g>
    <g id="xtick_2">
     <g id="line2d_2">
      <g>
       <use xlink:href="#maf665153e7" x="102.24" y="307.584" style="stroke: #000000; stroke-width: 0.8"/>
      </g>
     </g>
     <g id="text_2">
      <!-- −0.75 -->
      <g transform="translate(86.917344 322.182437) scale(0.1 -0.1)">
       <defs>
        <path id="DejaVuSans-37" d="M 525 4666 
L 3525 4666 
L 3525 4397 
L 1831 0 
L 1172 0 
L 2766 4134 
L 525 4134 
L 525 4666 
z
" transform="scale(0.015625)"/>
        <path id="DejaVuSans-35" d="M 691 4666 
L 3169 4666 
L 3169 4134 
L 1269 4134 
L 1269 2991 
Q 1406 3038 1543 3061 
Q 1681 3084 1819 3084 
Q 2600 3084 3056 2656 
Q 3513 2228 3513 1497 
Q 3513 744 3044 326 
Q 2575 -91 1722 -91 
Q 1428 -91 1123 -41 
Q 819 9 494 109 
L 494 744 
Q 775 591 1075 516 
Q 1375 441 1709 441 
Q 2250 441 2565 725 
Q 2881 1009 2881 1497 
Q 2881 1984 2565 2268 
Q 2250 2553 1709 2553 
Q 1456 2553 1204 2497 
Q 953 2441 691 2322 
L 691 4666 
z
" transform="scale(0.015625)"/>
       </defs>
       <use xlink:href="#DejaVuSans-2212"/>
       <use xlink:href="#DejaVuSans-30" x="83.789062"/>
       <use xlink:href="#DejaVuSans-2e" x="147.412109"/>
       <use xlink:href="#DejaVuSans-37" x="179.199219"/>
       <use xlink:href="#DejaVuSans-35" x="242.822266"/>
      </g>
     </g>
    </g>
    <g id="xtick_3">
     <g id="line2d_3">
      <g>
       <use xlink:href="#maf665153e7" x="146.88" y="307.584" style="stroke: #000000; stroke-width: 0.8"/>
      </g>
     </g>
     <g id="text_3">
      <!-- −0.50 -->
      <g transform="translate(131.557344 322.182437) scale(0.1 -0.1)">
       <use xlink:href="#DejaVuSans-2212"/>
       <use xlink:href="#DejaVuSans-30" x="83.789062"/>
       <use xlink:href="#DejaVuSans-2e" x="147.412109"/>
       <use xlink:href="#DejaVuSans-35" x="179.199219"/>
       <use xlink:href="#DejaVuSans-30" x="242.822266"/>
      </g>
     </g>
    </g>
    <g id="xtick_4">
     <g id="line2d_4">
      <g>
       <use xlink:href="#maf665153e7" x="191.52" y="307.584" style="stroke: #000000; stroke-width: 0.8"/>
      </g>
     </g>
     <g id="text_4">
      <!-- −0.25 -->
      <g transform="translate(176.197344 322.182437) scale(0.1 -0.1)">
       <defs>
        <path id="DejaVuSans-32" d="M 1228 531 
L 3431 531 
L 3431 0 
L 469 0 
L 469 531 
Q 828 903 1448 1529 
Q 2069 2156 2228 2338 
Q 2531 2678 2651 2914 
Q 2772 3150 2772 3378 
Q 2772 3750 2511 3984 
Q 2250 4219 1831 4219 
Q 1534 4219 1204 4116 
Q 875 4013 500 3803 
L 500 4441 
Q 881 4594 1212 4672 
Q 1544 4750 1819 4750 
Q 2544 4750 2975 4387 
Q 3406 4025 3406 3419 
Q 3406 3131 3298 2873 
Q 3191 2616 2906 2266 
Q 2828 2175 2409 1742 
Q 1991 1309 1228 531 
z
" transform="scale(0.015625)"/>
       </defs>
       <use xlink:href="#DejaVuSans-2212"/>
       <use xlink:href="#DejaVuSans-30" x="83.789062"/>
       <use xlink:href="#DejaVuSans-2e" x="147.412109"/>
       <use xlink:href="#DejaVuSans-32" x="179.199219"/>
       <use xlink:href="#DejaVuSans-35" x="242.822266"/>
      </g>
     </g>
    </g>
    <g id="xtick_5">
     <g id="line2d_5">
      <g>
       <use xlink:href="#maf665153e7" x="236.16" y="307.584" style="stroke: #000000; stroke-width: 0.8"/>
      </g>
     </g>
     <g id="text_5">
      <!-- 0.00 -->
      <g transform="translate(225.027187 322.182437) scale(0.1 -0.1)">
       <use xlink:href="#DejaVuSans-30"/>
       <use xlink:href="#DejaVuSans-2e" x="63.623047"/>
       <use xlink:href="#DejaVuSans-30" x="95.410156"/>
       <use xlink:href="#DejaVuSans-30" x="159.033203"/>
      </g>
     </g>
    </g>
    <g id="xtick_6">
     <g id="line2d_6">
      <g>
       <use xlink:href="#maf665153e7" x="280.8" y="307.584" style="stroke: #000000; stroke-width: 0.8"/>
      </g>
     </g>
     <g id="text_6">
      <!-- 0.25 -->
      <g transform="translate(269.667188 322.182437) scale(0.1 -0.1)">
       <use xlink:href="#DejaVuSans-30"/>
       <use xlink:href="#DejaVuSans-2e" x="63.623047"/>
       <use xlink:href="#DejaVuSans-32" x="95.410156"/>
       <use xlink:href="#DejaVuSans-35" x="159.033203"/>
      </g>
     </g>
    </g>
    <g id="xtick_7">
     <g id="line2d_7">
      <g>
       <use xlink:href="#maf665153e7" x="325.44" y="307.584" style="stroke: #000000; stroke-width: 0.8"/>
      </g>
     </g>
     <g id="text_7">
      <!-- 0.50 -->
      <g transform="translate(314.307187 322.182437) scale(0.1 -0.1)">
       <use xlink:href="#DejaVuSans-30"/>
       <use xlink:href="#DejaVuSans-2e" x="63.623047"/>
       <use xlink:href="#DejaVuSans-35" x="95.410156"/>
       <use xlink:href="#DejaVuSans-30" x="159.033203"/>
      </g>
     </g>
    </g>
    <g id="xtick_8">
     <g id="line2d_8">
      <g>
       <use xlink:href="#maf665153e7" x="370.08" y="307.584" style="stroke: #000000; stroke-width: 0.8"/>
      </g>
     </g>
     <g id="text_8">
      <!-- 0.75 -->
      <g transform="translate(358.947188 322.182437) scale(0.1 -0.1)">
       <use xlink:href="#DejaVuSans-30"/>
       <use xlink:href="#DejaVuSans-2e" x="63.623047"/>
       <use xlink:href="#DejaVuSans-37" x="95.410156"/>
       <use xlink:href="#DejaVuSans-35" x="159.033203"/>
      </g>
     </g>
    </g>
    <g id="xtick_9">
     <g id="line2d_9">
      <g>
       <use xlink:href="#maf665153e7" x="414.72" y="307.584" style="stroke: #000000; stroke-width: 0.8"/>
      </g>
     </g>
     <g id="text_9">
      <!-- 1.00 -->
      <g transform="translate(403.587188 322.182437) scale(0.1 -0.1)">
       <use xlink:href="#DejaVuSans-31"/>
       <use xlink:href="#DejaVuSans-2e" x="63.623047"/>
       <use xlink:href="#DejaVuSans-30" x="95.410156"/>
       <use xlink:href="#DejaVuSans-30" x="159.033203"/>
      </g>
     </g>
    </g>
    <g id="text_10">
     <!-- Real -->
     <g transform="translate(225.381094 335.860562) scale(0.1 -0.1)">
      <defs>
       <path id="DejaVuSans-52" d="M 2841 2188 
Q 3044 2119 3236 1894 
Q 3428 1669 3622 1275 
L 4263 0 
L 3584 0 
L 2988 1197 
Q 2756 1666 2539 1819 
Q 2322 1972 1947 1972 
L 1259 1972 
L 1259 0 
L 628 0 
L 628 4666 
L 2053 4666 
Q 2853 4666 3247 4331 
Q 3641 3997 3641 3322 
Q 3641 2881 3436 2590 
Q 3231 2300 2841 2188 
z
M 1259 4147 
L 1259 2491 
L 2053 2491 
Q 2509 2491 2742 2702 
Q 2975 2913 2975 3322 
Q 2975 3731 2742 3939 
Q 2509 4147 2053 4147 
L 1259 4147 
z
" transform="scale(0.015625)"/>
       <path id="DejaVuSans-65" d="M 3597 1894 
L 3597 1613 
L 953 1613 
Q 991 1019 1311 708 
Q 1631 397 2203 397 
Q 2534 397 2845 478 
Q 3156 559 3463 722 
L 3463 178 
Q 3153 47 2828 -22 
Q 2503 -91 2169 -91 
Q 1331 -91 842 396 
Q 353 884 353 1716 
Q 353 2575 817 3079 
Q 1281 3584 2069 3584 
Q 2775 3584 3186 3129 
Q 3597 2675 3597 1894 
z
M 3022 2063 
Q 3016 2534 2758 2815 
Q 2500 3097 2075 3097 
Q 1594 3097 1305 2825 
Q 1016 2553 972 2059 
L 3022 2063 
z
" transform="scale(0.015625)"/>
       <path id="DejaVuSans-61" d="M 2194 1759 
Q 1497 1759 1228 1600 
Q 959 1441 959 1056 
Q 959 750 1161 570 
Q 1363 391 1709 391 
Q 2188 391 2477 730 
Q 2766 1069 2766 1631 
L 2766 1759 
L 2194 1759 
z
M 3341 1997 
L 3341 0 
L 2766 0 
L 2766 531 
Q 2569 213 2275 61 
Q 1981 -91 1556 -91 
Q 1019 -91 701 211 
Q 384 513 384 1019 
Q 384 1609 779 1909 
Q 1175 2209 1959 2209 
L 2766 2209 
L 2766 2266 
Q 2766 2663 2505 2880 
Q 2244 3097 1772 3097 
Q 1472 3097 1187 3025 
Q 903 2953 641 2809 
L 641 3341 
Q 956 3463 1253 3523 
Q 1550 3584 1831 3584 
Q 2591 3584 2966 3190 
Q 3341 2797 3341 1997 
z
" transform="scale(0.015625)"/>
       <path id="DejaVuSans-6c" d="M 603 4863 
L 1178 4863 
L 1178 0 
L 603 0 
L 603 4863 
z
" transform="scale(0.015625)"/>
      </defs>
      <use xlink:href="#DejaVuSans-52"/>
      <use xlink:href="#DejaVuSans-65" x="64.982422"/>
      <use xlink:href="#DejaVuSans-61" x="126.505859"/>
      <use xlink:href="#DejaVuSans-6c" x="187.785156"/>
     </g>
    </g>
   </g>
   <g id="matplotlib.axis_2">
    <g id="ytick_1">
     <g id="line2d_10">
      <defs>
       <path id="mf2292674e1" d="M 0 0 
L -3.5 0 
" style="stroke: #000000; stroke-width: 0.8"/>
      </defs>
      <g>
       <use xlink:href="#mf2292674e1" x="57.6" y="307.584" style="stroke: #000000; stroke-width: 0.8"/>
      </g>
     </g>
     <g id="text_11">
      <!-- −1.00 -->
      <g transform="translate(19.954687 311.383219) scale(0.1 -0.1)">
       <use xlink:href="#DejaVuSans-2212"/>
       <use xlink:href="#DejaVuSans-31" x="83.789062"/>
       <use xlink:href="#DejaVuSans-2e" x="147.412109"/>
       <use xlink:href="#DejaVuSans-30" x="179.199219"/>
       <use xlink:href="#DejaVuSans-30" x="242.822266"/>
      </g>
     </g>
    </g>
    <g id="ytick_2">
     <g id="line2d_11">
      <g>
       <use xlink:href="#mf2292674e1" x="57.6" y="274.32" style="stroke: #000000; stroke-width: 0.8"/>
      </g>
     </g>
     <g id="text_12">
      <!-- −0.75 -->
      <g transform="translate(19.954687 278.119219) scale(0.1 -0.1)">
       <use xlink:href="#DejaVuSans-2212"/>
       <use xlink:href="#DejaVuSans-30" x="83.789062"/>
       <use xlink:href="#DejaVuSans-2e" x="147.412109"/>
       <use xlink:href="#DejaVuSans-37" x="179.199219"/>
       <use xlink:href="#DejaVuSans-35" x="242.822266"/>
      </g>
     </g>
    </g>
    <g id="ytick_3">
     <g id="line2d_12">
      <g>
       <use xlink:href="#mf2292674e1" x="57.6" y="241.056" style="stroke: #000000; stroke-width: 0.8"/>
      </g>
     </g>
     <g id="text_13">
      <!-- −0.50 -->
      <g transform="translate(19.954687 244.855219) scale(0.1 -0.1)">
       <use xlink:href="#DejaVuSans-2212"/>
       <use xlink:href="#DejaVuSans-30" x="83.789062"/>
       <use xlink:href="#DejaVuSans-2e" x="147.412109"/>
       <use xlink:href="#DejaVuSans-35" x="179.199219"/>
       <use xlink:href="#DejaVuSans-30" x="242.822266"/>
      </g>
     </g>
    </g>
    <g id="ytick_4">
     <g id="line2d_13">
      <g>
       <use xlink:href="#mf2292674e1" x="57.6" y="207.792" style="stroke: #000000; stroke-width: 0.8"/>
      </g>
     </g>
     <g id="text_14">
      <!-- −0.25 -->
      <g transform="translate(19.954687 211.591219) scale(0.1 -0.1)">
       <use xlink:href="#DejaVuSans-2212"/>
       <use xlink:href="#DejaVuSans-30" x="83.789062"/>
       <use xlink:href="#DejaVuSans-2e" x="147.412109"/>
       <use xlink:href="#DejaVuSans-32" x="179.199219"/>
       <use xlink:href="#DejaVuSans-35" x="242.822266"/>
      </g>
     </g>
    </g>
    <g id="ytick_5">
     <g id="line2d_14">
      <g>
       <use xlink:href="#mf2292674e1" x="57.6" y="174.528" style="stroke: #000000; stroke-width: 0.8"/>
      </g>
     </g>
     <g id="text_15">
      <!-- 0.00 -->
      <g transform="translate(28.334375 178.327219) scale(0.1 -0.1)">
       <use xlink:href="#DejaVuSans-30"/>
       <use xlink:href="#DejaVuSans-2e" x="63.623047"/>
       <use xlink:href="#DejaVuSans-30" x="95.410156"/>
       <use xlink:href="#DejaVuSans-30" x="159.033203"/>
      </g>
     </g>
    </g>
    <g id="ytick_6">
     <g id="line2d_15">
      <g>
       <use xlink:href="#mf2292674e1" x="57.6" y="141.264" style="stroke: #000000; stroke-width: 0.8"/>
      </g>
     </g>
     <g id="text_16">
      <!-- 0.25 -->
      <g transform="translate(28.334375 145.063219) scale(0.1 -0.1)">
       <use xlink:href="#DejaVuSans-30"/>
       <use xlink:href="#DejaVuSans-2e" x="63.623047"/>
       <use xlink:href="#DejaVuSans-32" x="95.410156"/>
       <use xlink:href="#DejaVuSans-35" x="159.033203"/>
      </g>
     </g>
    </g>
    <g id="ytick_7">
     <g id="line2d_16">
      <g>
       <use xlink:href="#mf2292674e1" x="57.6" y="108" style="stroke: #000000; stroke-width: 0.8"/>
      </g>
     </g>
     <g id="text_17">
      <!-- 0.50 -->
      <g transform="translate(28.334375 111.799219) scale(0.1 -0.1)">
       <use xlink:href="#DejaVuSans-30"/>
       <use xlink:href="#DejaVuSans-2e" x="63.623047"/>
       <use xlink:href="#DejaVuSans-35" x="95.410156"/>
       <use xlink:href="#DejaVuSans-30" x="159.033203"/>
      </g>
     </g>
    </g>
    <g id="ytick_8">
     <g id="line2d_17">
      <g>
       <use xlink:href="#mf2292674e1" x="57.6" y="74.736" style="stroke: #000000; stroke-width: 0.8"/>
      </g>
     </g>
     <g id="text_18">
      <!-- 0.75 -->
      <g transform="translate(28.334375 78.535219) scale(0.1 -0.1)">
       <use xlink:href="#DejaVuSans-30"/>
       <use xlink:href="#DejaVuSans-2e" x="63.623047"/>
       <use xlink:href="#DejaVuSans-37" x="95.410156"/>
       <use xlink:href="#DejaVuSans-35" x="159.033203"/>
      </g>
     </g>
    </g>
    <g id="ytick_9">
     <g id="line2d_18">
      <g>
       <use xlink:href="#mf2292674e1" x="57.6" y="41.472" style="stroke: #000000; stroke-width: 0.8"/>
      </g>
     </g>
     <g id="text_19">
      <!-- 1.00 -->
      <g transform="translate(28.334375 45.271219) scale(0.1 -0.1)">
       <use xlink:href="#DejaVuSans-31"/>
       <use xlink:href="#DejaVuSans-2e" x="63.623047"/>
       <use xlink:href="#DejaVuSans-30" x="95.410156"/>
       <use xlink:href="#DejaVuSans-30" x="159.033203"/>
      </g>
     </g>
    </g>
    <g id="text_20">
     <!-- Imaginar -->
     <g transform="translate(13.875 196.788938) rotate(-90) scale(0.1 -0.1)">
      <defs>
       <path id="DejaVuSans-49" d="M 628 4666 
L 1259 4666 
L 1259 0 
L 628 0 
L 628 4666 
z
" transform="scale(0.015625)"/>
       <path id="DejaVuSans-6d" d="M 3328 2828 
Q 3544 3216 3844 3400 
Q 4144 3584 4550 3584 
Q 5097 3584 5394 3201 
Q 5691 2819 5691 2113 
L 5691 0 
L 5113 0 
L 5113 2094 
Q 5113 2597 4934 2840 
Q 4756 3084 4391 3084 
Q 3944 3084 3684 2787 
Q 3425 2491 3425 1978 
L 3425 0 
L 2847 0 
L 2847 2094 
Q 2847 2600 2669 2842 
Q 2491 3084 2119 3084 
Q 1678 3084 1418 2786 
Q 1159 2488 1159 1978 
L 1159 0 
L 581 0 
L 581 3500 
L 1159 3500 
L 1159 2956 
Q 1356 3278 1631 3431 
Q 1906 3584 2284 3584 
Q 2666 3584 2933 3390 
Q 3200 3197 3328 2828 
z
" transform="scale(0.015625)"/>
       <path id="DejaVuSans-67" d="M 2906 1791 
Q 2906 2416 2648 2759 
Q 2391 3103 1925 3103 
Q 1463 3103 1205 2759 
Q 947 2416 947 1791 
Q 947 1169 1205 825 
Q 1463 481 1925 481 
Q 2391 481 2648 825 
Q 2906 1169 2906 1791 
z
M 3481 434 
Q 3481 -459 3084 -895 
Q 2688 -1331 1869 -1331 
Q 1566 -1331 1297 -1286 
Q 1028 -1241 775 -1147 
L 775 -588 
Q 1028 -725 1275 -790 
Q 1522 -856 1778 -856 
Q 2344 -856 2625 -561 
Q 2906 -266 2906 331 
L 2906 616 
Q 2728 306 2450 153 
Q 2172 0 1784 0 
Q 1141 0 747 490 
Q 353 981 353 1791 
Q 353 2603 747 3093 
Q 1141 3584 1784 3584 
Q 2172 3584 2450 3431 
Q 2728 3278 2906 2969 
L 2906 3500 
L 3481 3500 
L 3481 434 
z
" transform="scale(0.015625)"/>
       <path id="DejaVuSans-69" d="M 603 3500 
L 1178 3500 
L 1178 0 
L 603 0 
L 603 3500 
z
M 603 4863 
L 1178 4863 
L 1178 4134 
L 603 4134 
L 603 4863 
z
" transform="scale(0.015625)"/>
       <path id="DejaVuSans-6e" d="M 3513 2113 
L 3513 0 
L 2938 0 
L 2938 2094 
Q 2938 2591 2744 2837 
Q 2550 3084 2163 3084 
Q 1697 3084 1428 2787 
Q 1159 2491 1159 1978 
L 1159 0 
L 581 0 
L 581 3500 
L 1159 3500 
L 1159 2956 
Q 1366 3272 1645 3428 
Q 1925 3584 2291 3584 
Q 2894 3584 3203 3211 
Q 3513 2838 3513 2113 
z
" transform="scale(0.015625)"/>
       <path id="DejaVuSans-72" d="M 2631 2963 
Q 2534 3019 2420 3045 
Q 2306 3072 2169 3072 
Q 1681 3072 1420 2755 
Q 1159 2438 1159 1844 
L 1159 0 
L 581 0 
L 581 3500 
L 1159 3500 
L 1159 2956 
Q 1341 3275 1631 3429 
Q 1922 3584 2338 3584 
Q 2397 3584 2469 3576 
Q 2541 3569 2628 3553 
L 2631 2963 
z
" transform="scale(0.015625)"/>
      </defs>
      <use xlink:href="#DejaVuSans-49"/>
      <use xlink:href="#DejaVuSans-6d" x="29.492188"/>
      <use xlink:href="#DejaVuSans-61" x="126.904297"/>
      <use xlink:href="#DejaVuSans-67" x="188.183594"/>
      <use xlink:href="#DejaVuSans-69" x="251.660156"/>
      <use xlink:href="#DejaVuSans-6e" x="279.443359"/>
      <use xlink:href="#DejaVuSans-61" x="342.822266"/>
      <use xlink:href="#DejaVuSans-72" x="404.101562"/>
     </g>
    </g>
   </g>
   <g id="line2d_19">
    <path d="M 57.6 174.528 
L 414.72 174.528 
" clip-path="url(#p6553633fb5)" style="fill: none; stroke: #000000; stroke-width: 1.5; stroke-linecap: square"/>
   </g>
   <g id="line2d_20">
    <path d="M 236.16 307.584 
L 236.16 41.472 
" clip-path="url(#p6553633fb5)" style="fill: none; stroke: #000000; stroke-width: 1.5; stroke-linecap: square"/>
   </g>
   <g id="line2d_21">
    <path d="M 236.16 174.528 
L 246.923807 174.648972 
L 257.641124 175.010952 
L 268.265696 175.61114 
L 278.751736 176.444891 
L 289.054152 177.50574 
L 299.128777 178.785444 
L 308.93259 180.274035 
L 318.423932 181.95988 
L 327.56271 183.829755 
L 336.310602 185.868926 
L 344.631242 188.061243 
L 352.490405 190.389241 
L 358.963463 192.522887 
L 365.03888 194.732936 
L 370.698327 197.005615 
L 375.92506 199.326643 
L 380.703975 201.6813 
L 385.021669 204.054497 
L 388.866481 206.43085 
L 392.228535 208.794756 
L 394.719899 210.799119 
L 396.846631 212.77281 
L 398.605733 214.70587 
L 399.995213 216.588374 
L 400.870024 218.111399 
L 401.487421 219.586828 
L 401.847856 221.009081 
L 401.952262 222.372661 
L 401.802055 223.672164 
L 401.399122 224.902294 
L 400.74582 226.057879 
L 399.84497 227.133882 
L 398.699847 228.125413 
L 397.314174 229.027747 
L 395.692112 229.836331 
L 393.440094 230.676748 
L 390.863025 231.368724 
L 387.970457 231.90553 
L 384.772747 232.280907 
L 381.281019 232.489082 
L 376.851586 232.513649 
L 372.058141 232.296084 
L 366.921892 231.830007 
L 361.465147 231.11011 
L 355.711224 230.132201 
L 349.684341 228.893227 
L 343.409519 227.391301 
L 336.912471 225.625722 
L 330.219495 223.596988 
L 323.35736 221.306809 
L 316.353197 218.758105 
L 309.234382 215.955008 
L 302.028421 212.902854 
L 294.762841 209.608171 
L 287.465069 206.07866 
L 280.162326 202.323174 
L 272.881511 198.351688 
L 265.649093 194.175264 
L 258.491004 189.806017 
L 251.432537 185.257069 
L 244.49824 180.542499 
L 237.711824 175.677296 
L 231.096068 170.677299 
L 224.67273 165.559135 
L 218.462461 160.340158 
L 212.484734 155.038382 
L 206.757763 149.672403 
L 201.298439 144.261335 
L 196.122272 138.824724 
L 191.243332 133.382478 
L 186.674203 127.954777 
L 182.425941 122.561999 
L 178.508042 117.224632 
L 174.928411 111.96319 
L 171.693345 106.798129 
L 168.80752 101.749759 
L 166.273984 96.838166 
L 164.094158 92.083117 
L 162.267847 87.503986 
L 160.982489 83.73337 
L 159.953507 80.117465 
L 159.178009 76.667505 
L 158.65228 73.394354 
L 158.371802 70.308464 
L 158.331276 67.419845 
L 158.524647 64.738035 
L 158.945126 62.272065 
L 159.585227 60.030432 
L 160.280542 58.339515 
L 161.117656 56.81419 
L 162.091212 55.458442 
L 163.195576 54.275956 
L 164.424851 53.270104 
L 165.772891 52.443938 
L 167.23332 51.800181 
L 168.799547 51.341225 
L 170.464782 51.069119 
L 172.222059 50.985569 
L 174.064248 51.091928 
L 176.376712 51.471621 
L 178.788172 52.127254 
L 181.285619 53.059126 
L 183.855883 54.266788 
L 186.485676 55.749039 
L 189.161646 57.503926 
L 191.870422 59.528746 
L 194.598664 61.820055 
L 197.333109 64.373673 
L 200.51362 67.677838 
L 203.664147 71.323312 
L 206.764557 75.299785 
L 209.795232 79.595694 
L 212.737169 84.198261 
L 215.572072 89.093542 
L 218.282434 94.266474 
L 220.851629 99.700936 
L 223.263986 105.379803 
L 225.50487 111.285016 
L 227.560745 117.397648 
L 229.419244 123.697975 
L 231.069229 130.165551 
L 232.50084 136.779287 
L 233.705543 143.517533 
L 234.676176 150.358158 
L 235.406975 157.278636 
L 235.893608 164.256135 
L 236.133193 171.267601 
L 236.124311 178.289851 
L 235.867015 185.299658 
L 235.362829 192.273846 
L 234.614738 199.189375 
L 233.627179 206.02343 
L 232.406013 212.753511 
L 230.958506 219.357519 
L 229.293285 225.813841 
L 227.420302 232.101431 
L 225.350788 238.199893 
L 223.097195 244.089556 
L 220.673136 249.751554 
L 218.093327 255.167891 
L 215.373506 260.321513 
L 212.530368 265.196373 
L 209.581476 269.777485 
L 206.545182 274.050987 
L 203.440536 278.004186 
L 200.287193 281.625606 
L 197.105323 284.905032 
L 193.915505 287.83354 
L 191.190883 290.05859 
L 188.489056 292.016221 
L 185.823377 293.703172 
L 183.207216 295.11693 
L 180.653914 296.255728 
L 178.176734 297.118553 
L 175.788811 297.705143 
L 173.503106 298.015987 
L 171.332358 298.052318 
L 169.62022 297.874299 
L 168.003629 297.508533 
L 166.489464 296.956899 
L 165.084419 296.221618 
L 163.794978 295.305247 
L 162.627406 294.210677 
L 161.587724 292.941119 
L 160.681702 291.500103 
L 159.914836 289.891464 
L 159.292337 288.11934 
L 158.819113 286.188152 
L 158.454735 283.667404 
L 158.319231 280.933024 
L 158.419206 277.994175 
L 158.76053 274.860513 
L 159.348309 271.542163 
L 160.186861 268.049684 
L 161.279699 264.394033 
L 162.629505 260.586535 
L 164.238125 256.638844 
L 166.443228 251.871966 
L 169.001994 246.949942 
L 171.912885 241.892569 
L 175.172737 236.719947 
L 178.776758 231.452402 
L 182.718536 226.110397 
L 186.99005 220.714446 
L 191.581694 215.285032 
L 196.4823 209.842522 
L 201.679176 204.407079 
L 207.158148 198.998588 
L 212.903607 193.636568 
L 218.898564 188.340095 
L 225.124711 183.127729 
L 231.562493 178.017439 
L 238.191173 173.026527 
L 244.988918 168.171568 
L 251.932881 163.468342 
L 258.999288 158.931773 
L 266.163533 154.575876 
L 273.400275 150.413701 
L 280.68354 146.457289 
L 287.986824 142.717627 
L 295.283202 139.204609 
L 302.545436 135.927008 
L 309.746085 132.892442 
L 316.857622 130.107353 
L 323.852546 127.576992 
L 330.703494 125.305405 
L 337.383358 123.295426 
L 343.865398 121.548677 
L 350.123356 120.06557 
L 356.131562 118.84532 
L 361.865052 117.885955 
L 367.299665 117.184341 
L 372.412156 116.736204 
L 377.18029 116.536158 
L 381.582941 116.577748 
L 385.600186 116.853479 
L 388.722624 117.269774 
L 391.537257 117.845978 
L 394.033928 118.575712 
L 396.203287 119.452137 
L 397.754894 120.289313 
L 399.068819 121.218892 
L 400.141031 122.236269 
L 400.96794 123.336666 
L 401.546407 124.51515 
L 401.873748 125.766641 
L 401.947748 127.085928 
L 401.76666 128.467682 
L 401.329213 129.90647 
L 400.634617 131.396767 
L 399.682566 132.932972 
L 398.473238 134.509424 
L 396.68341 136.446249 
L 394.526164 138.422877 
L 392.00458 140.429347 
L 389.122744 142.455701 
L 385.312108 144.831685 
L 381.027826 147.20562 
L 376.28143 149.562105 
L 371.086204 151.886029 
L 365.457128 154.162641 
L 359.410834 156.377626 
L 352.965539 158.517175 
L 346.140982 160.568045 
L 338.95835 162.51763 
L 331.440201 164.354018 
L 322.467832 166.299859 
L 313.125903 168.067935 
L 303.453758 169.644352 
L 293.492394 171.016771 
L 283.284265 172.174486 
L 272.873062 173.108493 
L 262.303499 173.811545 
L 251.621088 174.278195 
L 240.871909 174.504833 
L 230.102377 174.489707 
L 219.35901 174.232933 
L 208.688194 173.736498 
L 198.135952 173.004241 
L 187.747707 172.041838 
L 177.568057 170.856757 
L 167.640552 169.458219 
L 158.007473 167.857137 
L 148.709625 166.066049 
L 139.786126 164.099039 
L 131.274221 161.971649 
L 123.209094 159.700783 
L 116.544567 157.610326 
L 110.267942 155.436791 
L 104.398316 153.193672 
L 98.953234 150.895004 
L 93.948627 148.555297 
L 89.398755 146.189464 
L 85.316155 143.81275 
L 81.7116 141.440659 
L 79.009318 139.423004 
L 76.669455 137.43021 
L 74.695595 135.47224 
L 73.090319 133.559042 
L 71.855196 131.700515 
L 71.109118 130.200587 
L 70.620289 128.751053 
L 70.388015 127.357454 
L 70.411122 126.025244 
L 70.687957 124.759773 
L 71.216399 123.566277 
L 71.993856 122.449863 
L 73.01728 121.415494 
L 74.283171 120.467982 
L 75.787585 119.611965 
L 77.526147 118.851905 
L 79.914712 118.072492 
L 82.624447 117.444379 
L 85.645461 116.974102 
L 88.967073 116.66772 
L 93.206916 116.524808 
L 97.820933 116.620444 
L 102.788503 116.961533 
L 108.087854 117.553926 
L 113.696161 118.402375 
L 119.589644 119.510507 
L 125.74367 120.880795 
L 132.132858 122.514535 
L 138.731189 124.411829 
L 145.512116 126.571575 
L 152.448674 128.991457 
L 159.513596 131.66795 
L 166.679426 134.596318 
L 173.918634 137.770626 
L 181.203728 141.183758 
L 188.507371 144.827433 
L 195.802488 148.692235 
L 203.062383 152.76764 
L 210.26084 157.042053 
L 217.372235 161.502852 
L 224.371636 166.136429 
L 231.2349 170.928244 
L 237.938771 175.862875 
L 244.460971 180.924081 
L 250.780284 186.094863 
L 256.876639 191.357529 
L 262.731184 196.693766 
L 268.326357 202.084707 
L 273.645952 207.511014 
L 278.675173 212.95295 
L 283.400686 218.390461 
L 287.810667 223.803256 
L 291.894836 229.170893 
L 295.644489 234.47286 
L 299.052523 239.688662 
L 302.113451 244.797904 
L 304.823411 249.780378 
L 307.180168 254.616148 
L 309.183112 259.285631 
L 310.833239 263.769684 
L 311.968741 267.451438 
L 312.849452 270.971884 
L 313.478748 274.32 
L 313.860814 277.485159 
L 314.000627 280.457161 
L 313.90393 283.226268 
L 313.577209 285.783236 
L 313.027663 288.11934 
L 312.405164 289.891464 
L 311.638298 291.500103 
L 310.732276 292.941119 
L 309.692594 294.210677 
L 308.525022 295.305247 
L 307.235581 296.221618 
L 305.830536 296.956899 
L 304.316371 297.508533 
L 302.69978 297.874299 
L 300.987642 298.052318 
L 299.187009 298.041061 
L 297.305082 297.839351 
L 294.949802 297.344767 
L 292.500922 296.574028 
L 289.971526 295.527146 
L 287.374839 294.204882 
L 284.724181 292.608753 
L 282.032917 290.741023 
L 279.314413 288.604705 
L 276.581981 286.20355 
L 273.848837 283.542043 
L 270.676694 280.114879 
L 267.54178 276.349943 
L 264.464053 272.257994 
L 261.462923 267.851035 
L 258.557151 263.142268 
L 255.764762 258.14604 
L 253.102956 252.877801 
L 250.588028 247.354036 
L 248.235286 241.592211 
L 246.058983 235.610704 
L 244.072242 229.428735 
L 242.286999 223.066294 
L 240.713941 216.544066 
L 239.36246 209.883349 
L 238.240603 203.105977 
L 237.355037 196.234229 
L 236.711018 189.290752 
L 236.312361 182.298467 
L 236.161428 175.280484 
L 236.259111 168.260013 
L 236.604833 161.260271 
L 237.196547 154.304398 
L 238.030746 147.415362 
L 239.102483 140.615877 
L 240.40539 133.928308 
L 241.931713 127.374592 
L 243.672344 120.976147 
L 245.61687 114.753798 
L 247.753618 108.727689 
L 250.069713 102.917213 
L 252.551141 97.340933 
L 255.182812 92.016516 
L 257.948638 86.960663 
L 260.831604 82.189051 
L 263.813856 77.716268 
L 266.876782 73.555765 
L 270.001105 69.719805 
L 273.166975 66.219419 
L 276.354065 63.064365 
L 279.54167 60.263097 
L 282.258414 58.149028 
L 284.946804 56.303827 
L 287.593475 54.730443 
L 290.185063 53.43108 
L 292.708252 52.407191 
L 295.14983 51.659475 
L 297.496725 51.187882 
L 299.736065 50.991611 
L 301.5109 51.037277 
L 303.195106 51.271796 
L 304.781684 51.693535 
L 306.263806 52.300512 
L 307.634841 53.090404 
L 308.888369 54.060553 
L 310.018195 55.207972 
L 311.018372 56.529352 
L 311.883211 58.021071 
L 312.607301 59.679203 
L 313.18552 61.499524 
L 313.61305 63.477526 
L 313.920868 66.052512 
L 313.998094 68.838888 
L 313.838302 71.827365 
L 313.435813 75.008166 
L 312.785714 78.371054 
L 311.883888 81.905368 
L 310.727027 85.600055 
L 309.312657 89.443706 
L 307.639146 93.424591 
L 305.35821 98.226362 
L 302.723803 103.179067 
L 299.737813 108.262838 
L 296.403752 113.457517 
L 292.72676 118.742743 
L 288.713595 124.098036 
L 284.372619 129.502879 
L 279.713776 134.936808 
L 274.748564 140.379493 
L 269.489996 145.810823 
L 263.952558 151.210986 
L 258.152159 156.56055 
L 252.106076 161.840543 
L 245.832891 167.032526 
L 239.352419 172.118669 
L 232.685636 177.081817 
L 225.854602 181.905562 
L 218.88237 186.574302 
L 211.7929 191.073303 
L 204.610964 195.388753 
L 197.362046 199.507814 
L 190.072244 203.418668 
L 182.768161 207.110559 
L 175.476798 210.573829 
L 168.225446 213.799953 
L 161.041574 216.781562 
L 153.952713 219.512468 
L 146.986345 221.987677 
L 140.169787 224.203402 
L 133.530077 226.15707 
L 127.093862 227.847318 
L 120.887284 229.273991 
L 114.93587 230.438131 
L 109.264421 231.34196 
L 103.89691 231.98886 
L 98.856374 232.383345 
L 94.164819 232.531031 
L 89.843121 232.438604 
L 85.910933 232.11377 
L 82.864451 231.656926 
L 80.128387 231.041722 
L 77.7127 230.274657 
L 75.626531 229.362679 
L 74.14578 228.497309 
L 72.903965 227.540899 
L 71.904988 226.498107 
L 71.152303 225.373759 
L 70.648913 224.172834 
L 70.397362 222.900451 
L 70.399727 221.561859 
L 70.657611 220.16242 
L 71.172142 218.707596 
L 71.943964 217.202936 
L 72.97324 215.654059 
L 74.547716 213.74504 
L 76.490945 211.790422 
L 78.800431 209.800149 
L 81.472673 207.784185 
L 84.503174 205.752476 
L 88.484181 203.375441 
L 92.93492 201.005983 
L 97.843226 198.659409 
L 103.195205 196.350711 
L 108.97528 194.09449 
L 115.166247 191.904889 
L 121.749335 189.795523 
L 128.704281 187.779414 
L 136.009398 185.868926 
L 144.75729 183.829755 
L 153.896068 181.95988 
L 163.38741 180.274035 
L 173.191223 178.785444 
L 183.265848 177.50574 
L 193.568264 176.444891 
L 204.054304 175.61114 
L 214.678876 175.010952 
L 225.396193 174.648972 
L 236.16 174.528 
L 246.923807 174.648972 
L 257.641124 175.010952 
L 268.265696 175.61114 
L 278.751736 176.444891 
L 289.054152 177.50574 
L 299.128777 178.785444 
L 308.93259 180.274035 
L 318.423932 181.95988 
L 327.56271 183.829755 
L 336.310602 185.868926 
L 344.631242 188.061243 
L 352.490405 190.389241 
L 358.963463 192.522887 
L 365.03888 194.732936 
L 370.698327 197.005615 
L 375.92506 199.326643 
L 380.703975 201.6813 
L 385.021669 204.054497 
L 388.866481 206.43085 
L 392.228535 208.794756 
L 394.719899 210.799119 
L 396.846631 212.77281 
L 398.605733 214.70587 
L 399.995213 216.588374 
L 400.870024 218.111399 
L 401.487421 219.586828 
L 401.847856 221.009081 
L 401.952262 222.372661 
L 401.802055 223.672164 
L 401.399122 224.902294 
L 400.74582 226.057879 
L 399.84497 227.133882 
L 398.699847 228.125413 
L 397.314174 229.027747 
L 395.692112 229.836331 
L 393.440094 230.676748 
L 390.863025 231.368724 
L 387.970457 231.90553 
L 384.772747 232.280907 
L 381.281019 232.489082 
L 376.851586 232.513649 
L 372.058141 232.296084 
L 366.921892 231.830007 
L 361.465147 231.11011 
L 355.711224 230.132201 
L 349.684341 228.893227 
L 343.409519 227.391301 
L 336.912471 225.625722 
L 330.219495 223.596988 
L 323.35736 221.306809 
L 316.353197 218.758105 
L 309.234382 215.955008 
L 302.028421 212.902854 
L 294.762841 209.608171 
L 287.465069 206.07866 
L 280.162326 202.323174 
L 272.881511 198.351688 
L 265.649093 194.175264 
L 258.491004 189.806017 
L 251.432537 185.257069 
L 244.49824 180.542499 
L 237.711824 175.677296 
L 231.096068 170.677299 
L 224.67273 165.559135 
L 218.462461 160.340158 
L 212.484734 155.038382 
L 206.757763 149.672403 
L 201.298439 144.261335 
L 196.122272 138.824724 
L 191.243332 133.382478 
L 186.674203 127.954777 
L 182.425941 122.561999 
L 178.508042 117.224632 
L 174.928411 111.96319 
L 171.693345 106.798129 
L 168.80752 101.749759 
L 166.273984 96.838166 
L 164.094158 92.083117 
L 162.267847 87.503986 
L 160.982489 83.73337 
L 159.953507 80.117465 
L 159.178009 76.667505 
L 158.65228 73.394354 
L 158.371802 70.308464 
L 158.331276 67.419845 
L 158.524647 64.738035 
L 158.945126 62.272065 
L 159.585227 60.030432 
L 160.280542 58.339515 
L 161.117656 56.81419 
L 162.091212 55.458442 
L 163.195576 54.275956 
L 164.424851 53.270104 
L 165.772891 52.443938 
L 167.23332 51.800181 
L 168.799547 51.341225 
L 170.464782 51.069119 
L 172.222059 50.985569 
L 174.064248 51.091928 
L 176.376712 51.471621 
L 178.788172 52.127254 
L 181.285619 53.059126 
L 183.855883 54.266788 
L 186.485676 55.749039 
L 189.161646 57.503926 
L 191.870422 59.528746 
L 194.598664 61.820055 
L 197.333109 64.373673 
L 200.51362 67.677838 
L 203.664147 71.323312 
L 206.764557 75.299785 
L 209.795232 79.595694 
L 212.737169 84.198261 
L 215.572072 89.093542 
L 218.282434 94.266474 
L 220.851629 99.700936 
L 223.263986 105.379803 
L 225.50487 111.285016 
L 227.560745 117.397648 
L 229.419244 123.697975 
L 231.069229 130.165551 
L 232.50084 136.779287 
L 233.705543 143.517533 
L 234.676176 150.358158 
L 235.406975 157.278636 
L 235.893608 164.256135 
L 236.133193 171.267601 
L 236.124311 178.289851 
L 235.867015 185.299658 
L 235.362829 192.273846 
L 234.614738 199.189375 
L 233.627179 206.02343 
L 232.406013 212.753511 
L 230.958506 219.357519 
L 229.293285 225.813841 
L 227.420302 232.101431 
L 225.350788 238.199893 
L 223.097195 244.089556 
L 220.673136 249.751554 
L 218.093327 255.167891 
L 215.373506 260.321513 
L 212.530368 265.196373 
L 209.581476 269.777485 
L 206.545182 274.050987 
L 203.440536 278.004186 
L 200.287193 281.625606 
L 197.105323 284.905032 
L 193.915505 287.83354 
L 191.190883 290.05859 
L 188.489056 292.016221 
L 185.823377 293.703172 
L 183.207216 295.11693 
L 180.653914 296.255728 
L 178.176734 297.118553 
L 175.788811 297.705143 
L 173.503106 298.015987 
L 171.332358 298.052318 
L 169.62022 297.874299 
L 168.003629 297.508533 
L 166.489464 296.956899 
L 165.084419 296.221618 
L 163.794978 295.305247 
L 162.627406 294.210677 
L 161.587724 292.941119 
L 160.681702 291.500103 
L 159.914836 289.891464 
L 159.292337 288.11934 
L 158.819113 286.188152 
L 158.454735 283.667404 
L 158.319231 280.933024 
L 158.419206 277.994175 
L 158.76053 274.860513 
L 159.348309 271.542163 
L 160.186861 268.049684 
L 161.279699 264.394033 
L 162.629505 260.586535 
L 164.238125 256.638844 
L 166.443228 251.871966 
L 169.001994 246.949942 
L 171.912885 241.892569 
L 175.172737 236.719947 
L 178.776758 231.452402 
L 182.718536 226.110397 
L 186.99005 220.714446 
L 191.581694 215.285032 
L 196.4823 209.842522 
L 201.679176 204.407079 
L 207.158148 198.998588 
L 212.903607 193.636568 
L 218.898564 188.340095 
L 225.124711 183.127729 
L 231.562493 178.017439 
L 238.191173 173.026527 
L 244.988918 168.171568 
L 251.932881 163.468342 
L 258.999288 158.931773 
L 266.163533 154.575876 
L 273.400275 150.413701 
L 280.68354 146.457289 
L 287.986824 142.717627 
L 295.283202 139.204609 
L 302.545436 135.927008 
L 309.746085 132.892442 
L 316.857622 130.107353 
L 323.852546 127.576992 
L 330.703494 125.305405 
L 337.383358 123.295426 
L 343.865398 121.548677 
L 350.123356 120.06557 
L 356.131562 118.84532 
L 361.865052 117.885955 
L 367.299665 117.184341 
L 372.412156 116.736204 
L 377.18029 116.536158 
L 381.582941 116.577748 
L 385.600186 116.853479 
L 388.722624 117.269774 
L 391.537257 117.845978 
L 394.033928 118.575712 
L 396.203287 119.452137 
L 397.754894 120.289313 
L 399.068819 121.218892 
L 400.141031 122.236269 
L 400.96794 123.336666 
L 401.546407 124.51515 
L 401.873748 125.766641 
L 401.947748 127.085928 
L 401.76666 128.467682 
L 401.329213 129.90647 
L 400.634617 131.396767 
L 399.682566 132.932972 
L 398.473238 134.509424 
L 396.68341 136.446249 
L 394.526164 138.422877 
L 392.00458 140.429347 
L 389.122744 142.455701 
L 385.312108 144.831685 
L 381.027826 147.20562 
L 376.28143 149.562105 
L 371.086204 151.886029 
L 365.457128 154.162641 
L 359.410834 156.377626 
L 352.965539 158.517175 
L 346.140982 160.568045 
L 338.95835 162.51763 
L 331.440201 164.354018 
L 322.467832 166.299859 
L 313.125903 168.067935 
L 303.453758 169.644352 
L 293.492394 171.016771 
L 283.284265 172.174486 
L 272.873062 173.108493 
L 262.303499 173.811545 
L 251.621088 174.278195 
L 240.871909 174.504833 
L 230.102377 174.489707 
L 219.35901 174.232933 
L 208.688194 173.736498 
L 198.135952 173.004241 
L 187.747707 172.041838 
L 177.568057 170.856757 
L 167.640552 169.458219 
L 158.007473 167.857137 
L 148.709625 166.066049 
L 139.786126 164.099039 
L 131.274221 161.971649 
L 123.209094 159.700783 
L 116.544567 157.610326 
L 110.267942 155.436791 
L 104.398316 153.193672 
L 98.953234 150.895004 
L 93.948627 148.555297 
L 89.398755 146.189464 
L 85.316155 143.81275 
L 81.7116 141.440659 
L 79.009318 139.423004 
L 76.669455 137.43021 
L 74.695595 135.47224 
L 73.090319 133.559042 
L 71.855196 131.700515 
L 71.109118 130.200587 
L 70.620289 128.751053 
L 70.388015 127.357454 
L 70.411122 126.025244 
L 70.687957 124.759773 
L 71.216399 123.566277 
L 71.993856 122.449863 
L 73.01728 121.415494 
L 74.283171 120.467982 
L 75.787585 119.611965 
L 77.526147 118.851905 
L 79.914712 118.072492 
L 82.624447 117.444379 
L 85.645461 116.974102 
L 88.967073 116.66772 
L 93.206916 116.524808 
L 97.820933 116.620444 
L 102.788503 116.961533 
L 108.087854 117.553926 
L 113.696161 118.402375 
L 119.589644 119.510507 
L 125.74367 120.880795 
L 132.132858 122.514535 
L 138.731189 124.411829 
L 145.512116 126.571575 
L 152.448674 128.991457 
L 159.513596 131.66795 
L 166.679426 134.596318 
L 173.918634 137.770626 
L 181.203728 141.183758 
L 188.507371 144.827433 
L 195.802488 148.692235 
L 203.062383 152.76764 
L 210.26084 157.042053 
L 217.372235 161.502852 
L 224.371636 166.136429 
L 231.2349 170.928244 
L 237.938771 175.862875 
L 244.460971 180.924081 
L 250.780284 186.094863 
L 256.876639 191.357529 
L 262.731184 196.693766 
L 268.326357 202.084707 
L 273.645952 207.511014 
L 278.675173 212.95295 
L 283.400686 218.390461 
L 287.810667 223.803256 
L 291.894836 229.170893 
L 295.644489 234.47286 
L 299.052523 239.688662 
L 302.113451 244.797904 
L 304.823411 249.780378 
L 307.180168 254.616148 
L 309.183112 259.285631 
L 310.833239 263.769684 
L 311.968741 267.451438 
L 312.849452 270.971884 
L 313.478748 274.32 
L 313.860814 277.485159 
L 314.000627 280.457161 
L 313.90393 283.226268 
L 313.577209 285.783236 
L 313.027663 288.11934 
L 312.405164 289.891464 
L 311.638298 291.500103 
L 310.732276 292.941119 
L 309.692594 294.210677 
L 308.525022 295.305247 
L 307.235581 296.221618 
L 305.830536 296.956899 
L 304.316371 297.508533 
L 302.69978 297.874299 
L 300.987642 298.052318 
L 299.187009 298.041061 
L 297.305082 297.839351 
L 294.949802 297.344767 
L 292.500922 296.574028 
L 289.971526 295.527146 
L 287.374839 294.204882 
L 284.724181 292.608753 
L 282.032917 290.741023 
L 279.314413 288.604705 
L 276.581981 286.20355 
L 273.848837 283.542043 
L 270.676694 280.114879 
L 267.54178 276.349943 
L 264.464053 272.257994 
L 261.462923 267.851035 
L 258.557151 263.142268 
L 255.764762 258.14604 
L 253.102956 252.877801 
L 250.588028 247.354036 
L 248.235286 241.592211 
L 246.058983 235.610704 
L 244.072242 229.428735 
L 242.286999 223.066294 
L 240.713941 216.544066 
L 239.36246 209.883349 
L 238.240603 203.105977 
L 237.355037 196.234229 
L 236.711018 189.290752 
L 236.312361 182.298467 
L 236.161428 175.280484 
L 236.259111 168.260013 
L 236.604833 161.260271 
L 237.196547 154.304398 
L 238.030746 147.415362 
L 239.102483 140.615877 
L 240.40539 133.928308 
L 241.931713 127.374592 
L 243.672344 120.976147 
L 245.61687 114.753798 
L 247.753618 108.727689 
L 250.069713 102.917213 
L 252.551141 97.340933 
L 255.182812 92.016516 
L 257.948638 86.960663 
L 260.831604 82.189051 
L 263.813856 77.716268 
L 266.876782 73.555765 
L 270.001105 69.719805 
L 273.166975 66.219419 
L 276.354065 63.064365 
L 279.54167 60.263097 
L 282.258414 58.149028 
L 284.946804 56.303827 
L 287.593475 54.730443 
L 290.185063 53.43108 
L 292.708252 52.407191 
L 295.14983 51.659475 
L 297.496725 51.187882 
L 299.736065 50.991611 
L 301.5109 51.037277 
L 303.195106 51.271796 
L 304.781684 51.693535 
L 306.263806 52.300512 
L 307.634841 53.090404 
L 308.888369 54.060553 
L 310.018195 55.207972 
L 311.018372 56.529352 
L 311.883211 58.021071 
L 312.607301 59.679203 
L 313.18552 61.499524 
L 313.61305 63.477526 
L 313.920868 66.052512 
L 313.998094 68.838888 
L 313.838302 71.827365 
L 313.435813 75.008166 
L 312.785714 78.371054 
L 311.883888 81.905368 
L 310.727027 85.600055 
L 309.312657 89.443706 
L 307.639146 93.424591 
L 305.35821 98.226362 
L 302.723803 103.179067 
L 299.737813 108.262838 
L 296.403752 113.457517 
L 292.72676 118.742743 
L 288.713595 124.098036 
L 284.372619 129.502879 
L 279.713776 134.936808 
L 274.748564 140.379493 
L 269.489996 145.810823 
L 263.952558 151.210986 
L 258.152159 156.56055 
L 252.106076 161.840543 
L 245.832891 167.032526 
L 239.352419 172.118669 
L 232.685636 177.081817 
L 225.854602 181.905562 
L 218.88237 186.574302 
L 211.7929 191.073303 
L 204.610964 195.388753 
L 197.362046 199.507814 
L 190.072244 203.418668 
L 182.768161 207.110559 
L 175.476798 210.573829 
L 168.225446 213.799953 
L 161.041574 216.781562 
L 153.952713 219.512468 
L 146.986345 221.987677 
L 140.169787 224.203402 
L 133.530077 226.15707 
L 127.093862 227.847318 
L 120.887284 229.273991 
L 114.93587 230.438131 
L 109.264421 231.34196 
L 103.89691 231.98886 
L 98.856374 232.383345 
L 94.164819 232.531031 
L 89.843121 232.438604 
L 85.910933 232.11377 
L 82.864451 231.656926 
L 80.128387 231.041722 
L 77.7127 230.274657 
L 75.626531 229.362679 
L 74.14578 228.497309 
L 72.903965 227.540899 
L 71.904988 226.498107 
L 71.152303 225.373759 
L 70.648913 224.172834 
L 70.397362 222.900451 
L 70.399727 221.561859 
L 70.657611 220.16242 
L 71.172142 218.707596 
L 71.943964 217.202936 
L 72.97324 215.654059 
L 74.547716 213.74504 
L 76.490945 211.790422 
L 78.800431 209.800149 
L 81.472673 207.784185 
L 84.503174 205.752476 
L 88.484181 203.375441 
L 92.93492 201.005983 
L 97.843226 198.659409 
L 103.195205 196.350711 
L 108.97528 194.09449 
L 115.166247 191.904889 
L 121.749335 189.795523 
L 128.704281 187.779414 
L 136.009398 185.868926 
L 144.75729 183.829755 
L 153.896068 181.95988 
L 163.38741 180.274035 
L 173.191223 178.785444 
L 183.265848 177.50574 
L 193.568264 176.444891 
L 204.054304 175.61114 
L 214.678876 175.010952 
L 225.396193 174.648972 
L 236.16 174.528 
L 246.923807 174.648972 
L 257.641124 175.010952 
L 268.265696 175.61114 
L 278.751736 176.444891 
L 289.054152 177.50574 
L 299.128777 178.785444 
L 308.93259 180.274035 
L 318.423932 181.95988 
L 327.56271 183.829755 
L 336.310602 185.868926 
L 344.631242 188.061243 
L 352.490405 190.389241 
L 358.963463 192.522887 
L 365.03888 194.732936 
L 370.698327 197.005615 
L 375.92506 199.326643 
L 380.703975 201.6813 
L 385.021669 204.054497 
L 388.866481 206.43085 
L 392.228535 208.794756 
L 394.719899 210.799119 
L 396.846631 212.77281 
L 398.605733 214.70587 
L 399.995213 216.588374 
L 400.870024 218.111399 
L 401.487421 219.586828 
L 401.847856 221.009081 
L 401.952262 222.372661 
L 401.802055 223.672164 
L 401.399122 224.902294 
L 400.74582 226.057879 
L 399.84497 227.133882 
L 398.699847 228.125413 
L 397.314174 229.027747 
L 395.692112 229.836331 
L 393.440094 230.676748 
L 390.863025 231.368724 
L 387.970457 231.90553 
L 384.772747 232.280907 
L 381.281019 232.489082 
L 376.851586 232.513649 
L 372.058141 232.296084 
L 366.921892 231.830007 
L 361.465147 231.11011 
L 355.711224 230.132201 
L 349.684341 228.893227 
L 343.409519 227.391301 
L 336.912471 225.625722 
L 330.219495 223.596988 
L 323.35736 221.306809 
L 316.353197 218.758105 
L 309.234382 215.955008 
L 302.028421 212.902854 
L 294.762841 209.608171 
L 287.465069 206.07866 
L 280.162326 202.323174 
L 272.881511 198.351688 
L 265.649093 194.175264 
L 258.491004 189.806017 
L 251.432537 185.257069 
L 244.49824 180.542499 
L 237.711824 175.677296 
L 231.096068 170.677299 
L 224.67273 165.559135 
L 218.462461 160.340158 
L 212.484734 155.038382 
L 206.757763 149.672403 
L 201.298439 144.261335 
L 196.122272 138.824724 
L 191.243332 133.382478 
L 186.674203 127.954777 
L 182.425941 122.561999 
L 178.508042 117.224632 
L 174.928411 111.96319 
L 171.693345 106.798129 
L 168.80752 101.749759 
L 166.273984 96.838166 
L 164.094158 92.083117 
L 162.267847 87.503986 
L 160.982489 83.73337 
L 159.953507 80.117465 
L 159.178009 76.667505 
L 158.65228 73.394354 
L 158.371802 70.308464 
L 158.331276 67.419845 
L 158.524647 64.738035 
L 158.945126 62.272065 
L 159.585227 60.030432 
L 160.280542 58.339515 
L 161.117656 56.81419 
L 162.091212 55.458442 
L 163.195576 54.275956 
L 164.424851 53.270104 
L 165.772891 52.443938 
L 167.23332 51.800181 
L 168.799547 51.341225 
L 170.464782 51.069119 
L 172.222059 50.985569 
L 174.064248 51.091928 
L 176.376712 51.471621 
L 178.788172 52.127254 
L 181.285619 53.059126 
L 183.855883 54.266788 
L 186.485676 55.749039 
L 189.161646 57.503926 
L 191.870422 59.528746 
L 194.598664 61.820055 
L 197.333109 64.373673 
L 200.51362 67.677838 
L 203.664147 71.323312 
L 206.764557 75.299785 
L 209.795232 79.595694 
L 212.737169 84.198261 
L 215.572072 89.093542 
L 218.282434 94.266474 
L 220.851629 99.700936 
L 223.263986 105.379803 
L 225.50487 111.285016 
L 227.560745 117.397648 
L 229.419244 123.697975 
L 231.069229 130.165551 
L 232.50084 136.779287 
L 233.705543 143.517533 
L 234.676176 150.358158 
L 235.406975 157.278636 
L 235.893608 164.256135 
L 236.133193 171.267601 
L 236.124311 178.289851 
L 235.867015 185.299658 
L 235.362829 192.273846 
L 234.614738 199.189375 
L 233.627179 206.02343 
L 232.406013 212.753511 
L 230.958506 219.357519 
L 229.293285 225.813841 
L 227.420302 232.101431 
L 225.350788 238.199893 
L 223.097195 244.089556 
L 220.673136 249.751554 
L 218.093327 255.167891 
L 215.373506 260.321513 
L 212.530368 265.196373 
L 209.581476 269.777485 
L 206.545182 274.050987 
L 203.440536 278.004186 
L 200.287193 281.625606 
L 197.105323 284.905032 
L 193.915505 287.83354 
L 191.190883 290.05859 
L 188.489056 292.016221 
L 185.823377 293.703172 
L 183.207216 295.11693 
L 180.653914 296.255728 
L 178.176734 297.118553 
L 175.788811 297.705143 
L 173.503106 298.015987 
L 171.332358 298.052318 
L 169.62022 297.874299 
L 168.003629 297.508533 
L 166.489464 296.956899 
L 165.084419 296.221618 
L 163.794978 295.305247 
L 162.627406 294.210677 
L 161.587724 292.941119 
L 160.681702 291.500103 
L 159.914836 289.891464 
L 159.292337 288.11934 
L 158.819113 286.188152 
L 158.454735 283.667404 
L 158.319231 280.933024 
L 158.419206 277.994175 
L 158.76053 274.860513 
L 159.348309 271.542163 
L 160.186861 268.049684 
L 161.279699 264.394033 
L 162.629505 260.586535 
L 164.238125 256.638844 
L 166.443228 251.871966 
L 169.001994 246.949942 
L 171.912885 241.892569 
L 175.172737 236.719947 
L 178.776758 231.452402 
L 182.718536 226.110397 
L 186.99005 220.714446 
L 191.581694 215.285032 
L 196.4823 209.842522 
L 201.679176 204.407079 
L 207.158148 198.998588 
L 212.903607 193.636568 
L 218.898564 188.340095 
L 225.124711 183.127729 
L 231.562493 178.017439 
L 238.191173 173.026527 
L 244.988918 168.171568 
L 251.932881 163.468342 
L 258.999288 158.931773 
L 266.163533 154.575876 
L 273.400275 150.413701 
L 280.68354 146.457289 
L 287.986824 142.717627 
L 295.283202 139.204609 
L 302.545436 135.927008 
L 309.746085 132.892442 
L 316.857622 130.107353 
L 323.852546 127.576992 
L 330.703494 125.305405 
L 337.383358 123.295426 
L 343.865398 121.548677 
L 350.123356 120.06557 
L 356.131562 118.84532 
L 361.865052 117.885955 
L 367.299665 117.184341 
L 372.412156 116.736204 
L 377.18029 116.536158 
L 381.582941 116.577748 
L 385.600186 116.853479 
L 388.722624 117.269774 
L 391.537257 117.845978 
L 394.033928 118.575712 
L 396.203287 119.452137 
L 397.754894 120.289313 
L 399.068819 121.218892 
L 400.141031 122.236269 
L 400.96794 123.336666 
L 401.546407 124.51515 
L 401.873748 125.766641 
L 401.947748 127.085928 
L 401.76666 128.467682 
L 401.329213 129.90647 
L 400.634617 131.396767 
L 399.682566 132.932972 
L 398.473238 134.509424 
L 396.68341 136.446249 
L 394.526164 138.422877 
L 392.00458 140.429347 
L 389.122744 142.455701 
L 385.312108 144.831685 
L 381.027826 147.20562 
L 376.28143 149.562105 
L 371.086204 151.886029 
L 365.457128 154.162641 
L 359.410834 156.377626 
L 352.965539 158.517175 
L 346.140982 160.568045 
L 338.95835 162.51763 
L 331.440201 164.354018 
L 322.467832 166.299859 
L 313.125903 168.067935 
L 303.453758 169.644352 
L 293.492394 171.016771 
L 283.284265 172.174486 
L 272.873062 173.108493 
L 262.303499 173.811545 
L 251.621088 174.278195 
L 240.871909 174.504833 
L 230.102377 174.489707 
L 219.35901 174.232933 
L 208.688194 173.736498 
L 198.135952 173.004241 
L 187.747707 172.041838 
L 177.568057 170.856757 
L 167.640552 169.458219 
L 158.007473 167.857137 
L 148.709625 166.066049 
L 139.786126 164.099039 
L 131.274221 161.971649 
L 123.209094 159.700783 
L 116.544567 157.610326 
L 110.267942 155.436791 
L 104.398316 153.193672 
L 98.953234 150.895004 
L 93.948627 148.555297 
L 89.398755 146.189464 
L 85.316155 143.81275 
L 81.7116 141.440659 
L 79.009318 139.423004 
L 76.669455 137.43021 
L 74.695595 135.47224 
L 73.090319 133.559042 
L 71.855196 131.700515 
L 71.109118 130.200587 
L 70.620289 128.751053 
L 70.388015 127.357454 
L 70.411122 126.025244 
L 70.687957 124.759773 
L 71.216399 123.566277 
L 71.993856 122.449863 
L 73.01728 121.415494 
L 74.283171 120.467982 
L 75.787585 119.611965 
L 77.526147 118.851905 
L 79.914712 118.072492 
L 82.624447 117.444379 
L 85.645461 116.974102 
L 88.967073 116.66772 
L 93.206916 116.524808 
L 97.820933 116.620444 
L 102.788503 116.961533 
L 108.087854 117.553926 
L 113.696161 118.402375 
L 119.589644 119.510507 
L 125.74367 120.880795 
L 132.132858 122.514535 
L 138.731189 124.411829 
L 145.512116 126.571575 
L 152.448674 128.991457 
L 159.513596 131.66795 
L 166.679426 134.596318 
L 173.918634 137.770626 
L 181.203728 141.183758 
L 188.507371 144.827433 
L 195.802488 148.692235 
L 203.062383 152.76764 
L 210.26084 157.042053 
L 217.372235 161.502852 
L 224.371636 166.136429 
L 231.2349 170.928244 
L 237.938771 175.862875 
L 244.460971 180.924081 
L 250.780284 186.094863 
L 256.876639 191.357529 
L 262.731184 196.693766 
L 268.326357 202.084707 
L 273.645952 207.511014 
L 278.675173 212.95295 
L 283.400686 218.390461 
L 287.810667 223.803256 
L 291.894836 229.170893 
L 295.644489 234.47286 
L 299.052523 239.688662 
L 302.113451 244.797904 
L 304.823411 249.780378 
L 307.180168 254.616148 
L 309.183112 259.285631 
L 310.833239 263.769684 
L 311.968741 267.451438 
L 312.849452 270.971884 
L 313.478748 274.32 
L 313.860814 277.485159 
L 314.000627 280.457161 
L 313.90393 283.226268 
L 313.577209 285.783236 
L 313.027663 288.11934 
L 312.405164 289.891464 
L 311.638298 291.500103 
L 310.732276 292.941119 
L 309.692594 294.210677 
L 308.525022 295.305247 
L 307.235581 296.221618 
L 305.830536 296.956899 
L 304.316371 297.508533 
L 302.69978 297.874299 
L 300.987642 298.052318 
L 299.187009 298.041061 
L 297.305082 297.839351 
L 294.949802 297.344767 
L 292.500922 296.574028 
L 289.971526 295.527146 
L 287.374839 294.204882 
L 284.724181 292.608753 
L 282.032917 290.741023 
L 279.314413 288.604705 
L 276.581981 286.20355 
L 273.848837 283.542043 
L 270.676694 280.114879 
L 267.54178 276.349943 
L 264.464053 272.257994 
L 261.462923 267.851035 
L 258.557151 263.142268 
L 255.764762 258.14604 
L 253.102956 252.877801 
L 250.588028 247.354036 
L 248.235286 241.592211 
L 246.058983 235.610704 
L 244.072242 229.428735 
L 242.286999 223.066294 
L 240.713941 216.544066 
L 239.36246 209.883349 
L 238.240603 203.105977 
L 237.355037 196.234229 
L 236.711018 189.290752 
L 236.312361 182.298467 
L 236.161428 175.280484 
L 236.259111 168.260013 
L 236.604833 161.260271 
L 237.196547 154.304398 
L 238.030746 147.415362 
L 239.102483 140.615877 
L 240.40539 133.928308 
L 241.931713 127.374592 
L 243.672344 120.976147 
L 245.61687 114.753798 
L 247.753618 108.727689 
L 250.069713 102.917213 
L 252.551141 97.340933 
L 255.182812 92.016516 
L 257.948638 86.960663 
L 260.831604 82.189051 
L 263.813856 77.716268 
L 266.876782 73.555765 
L 270.001105 69.719805 
L 273.166975 66.219419 
L 276.354065 63.064365 
L 279.54167 60.263097 
L 282.258414 58.149028 
L 284.946804 56.303827 
L 287.593475 54.730443 
L 290.185063 53.43108 
L 292.708252 52.407191 
L 295.14983 51.659475 
L 297.496725 51.187882 
L 299.736065 50.991611 
L 301.5109 51.037277 
L 303.195106 51.271796 
L 304.781684 51.693535 
L 306.263806 52.300512 
L 307.634841 53.090404 
L 308.888369 54.060553 
L 310.018195 55.207972 
L 311.018372 56.529352 
L 311.883211 58.021071 
L 312.607301 59.679203 
L 313.18552 61.499524 
L 313.61305 63.477526 
L 313.920868 66.052512 
L 313.998094 68.838888 
L 313.838302 71.827365 
L 313.435813 75.008166 
L 312.785714 78.371054 
L 311.883888 81.905368 
L 310.727027 85.600055 
L 309.312657 89.443706 
L 307.639146 93.424591 
L 305.35821 98.226362 
L 302.723803 103.179067 
L 299.737813 108.262838 
L 296.403752 113.457517 
L 292.72676 118.742743 
L 288.713595 124.098036 
L 284.372619 129.502879 
L 279.713776 134.936808 
L 274.748564 140.379493 
L 269.489996 145.810823 
L 263.952558 151.210986 
L 258.152159 156.56055 
L 252.106076 161.840543 
L 245.832891 167.032526 
L 239.352419 172.118669 
L 232.685636 177.081817 
L 225.854602 181.905562 
L 218.88237 186.574302 
L 211.7929 191.073303 
L 204.610964 195.388753 
L 197.362046 199.507814 
L 190.072244 203.418668 
L 182.768161 207.110559 
L 175.476798 210.573829 
L 168.225446 213.799953 
L 161.041574 216.781562 
L 153.952713 219.512468 
L 146.986345 221.987677 
L 140.169787 224.203402 
L 133.530077 226.15707 
L 127.093862 227.847318 
L 120.887284 229.273991 
L 114.93587 230.438131 
L 109.264421 231.34196 
L 103.89691 231.98886 
L 98.856374 232.383345 
L 94.164819 232.531031 
L 89.843121 232.438604 
L 85.910933 232.11377 
L 82.864451 231.656926 
L 80.128387 231.041722 
L 77.7127 230.274657 
L 75.626531 229.362679 
L 74.14578 228.497309 
L 72.903965 227.540899 
L 71.904988 226.498107 
L 71.152303 225.373759 
L 70.648913 224.172834 
L 70.397362 222.900451 
L 70.399727 221.561859 
L 70.657611 220.16242 
L 71.172142 218.707596 
L 71.943964 217.202936 
L 72.97324 215.654059 
L 74.547716 213.74504 
L 76.490945 211.790422 
L 78.800431 209.800149 
L 81.472673 207.784185 
L 84.503174 205.752476 
L 88.484181 203.375441 
L 92.93492 201.005983 
L 97.843226 198.659409 
L 103.195205 196.350711 
L 108.97528 194.09449 
L 115.166247 191.904889 
L 121.749335 189.795523 
L 128.704281 187.779414 
L 136.009398 185.868926 
L 144.75729 183.829755 
L 153.896068 181.95988 
L 163.38741 180.274035 
L 173.191223 178.785444 
L 183.265848 177.50574 
L 193.568264 176.444891 
L 204.054304 175.61114 
L 214.678876 175.010952 
L 225.396193 174.648972 
L 236.16 174.528 
L 236.16 174.528 
" clip-path="url(#p6553633fb5)" style="fill: none; stroke: #800080; stroke-width: 1.5; stroke-linecap: square"/>
   </g>
   <g id="patch_3">
    <path d="M 57.6 307.584 
L 57.6 41.472 
" style="fill: none; stroke: #000000; stroke-width: 0.8; stroke-linejoin: miter; stroke-linecap: square"/>
   </g>
   <g id="patch_4">
    <path d="M 414.72 307.584 
L 414.72 41.472 
" style="fill: none; stroke: #000000; stroke-width: 0.8; stroke-linejoin: miter; stroke-linecap: square"/>
   </g>
   <g id="patch_5">
    <path d="M 57.6 307.584 
L 414.72 307.584 
" style="fill: none; stroke: #000000; stroke-width: 0.8; stroke-linejoin: miter; stroke-linecap: square"/>
   </g>
   <g id="patch_6">
    <path d="M 57.6 41.472 
L 414.72 41.472 
" style="fill: none; stroke: #000000; stroke-width: 0.8; stroke-linejoin: miter; stroke-linecap: square"/>
   </g>
   <g id="text_21">
    <!-- Reprezentarea pe planul complex al semnalului cu f = 12 Hz, ω = 3 -->
    <g transform="translate(32.815313 35.472) scale(0.12 -0.12)">
     <defs>
      <path id="DejaVuSans-70" d="M 1159 525 
L 1159 -1331 
L 581 -1331 
L 581 3500 
L 1159 3500 
L 1159 2969 
Q 1341 3281 1617 3432 
Q 1894 3584 2278 3584 
Q 2916 3584 3314 3078 
Q 3713 2572 3713 1747 
Q 3713 922 3314 415 
Q 2916 -91 2278 -91 
Q 1894 -91 1617 61 
Q 1341 213 1159 525 
z
M 3116 1747 
Q 3116 2381 2855 2742 
Q 2594 3103 2138 3103 
Q 1681 3103 1420 2742 
Q 1159 2381 1159 1747 
Q 1159 1113 1420 752 
Q 1681 391 2138 391 
Q 2594 391 2855 752 
Q 3116 1113 3116 1747 
z
" transform="scale(0.015625)"/>
      <path id="DejaVuSans-7a" d="M 353 3500 
L 3084 3500 
L 3084 2975 
L 922 459 
L 3084 459 
L 3084 0 
L 275 0 
L 275 525 
L 2438 3041 
L 353 3041 
L 353 3500 
z
" transform="scale(0.015625)"/>
      <path id="DejaVuSans-74" d="M 1172 4494 
L 1172 3500 
L 2356 3500 
L 2356 3053 
L 1172 3053 
L 1172 1153 
Q 1172 725 1289 603 
Q 1406 481 1766 481 
L 2356 481 
L 2356 0 
L 1766 0 
Q 1100 0 847 248 
Q 594 497 594 1153 
L 594 3053 
L 172 3053 
L 172 3500 
L 594 3500 
L 594 4494 
L 1172 4494 
z
" transform="scale(0.015625)"/>
      <path id="DejaVuSans-20" transform="scale(0.015625)"/>
      <path id="DejaVuSans-75" d="M 544 1381 
L 544 3500 
L 1119 3500 
L 1119 1403 
Q 1119 906 1312 657 
Q 1506 409 1894 409 
Q 2359 409 2629 706 
Q 2900 1003 2900 1516 
L 2900 3500 
L 3475 3500 
L 3475 0 
L 2900 0 
L 2900 538 
Q 2691 219 2414 64 
Q 2138 -91 1772 -91 
Q 1169 -91 856 284 
Q 544 659 544 1381 
z
M 1991 3584 
L 1991 3584 
z
" transform="scale(0.015625)"/>
      <path id="DejaVuSans-63" d="M 3122 3366 
L 3122 2828 
Q 2878 2963 2633 3030 
Q 2388 3097 2138 3097 
Q 1578 3097 1268 2742 
Q 959 2388 959 1747 
Q 959 1106 1268 751 
Q 1578 397 2138 397 
Q 2388 397 2633 464 
Q 2878 531 3122 666 
L 3122 134 
Q 2881 22 2623 -34 
Q 2366 -91 2075 -91 
Q 1284 -91 818 406 
Q 353 903 353 1747 
Q 353 2603 823 3093 
Q 1294 3584 2113 3584 
Q 2378 3584 2631 3529 
Q 2884 3475 3122 3366 
z
" transform="scale(0.015625)"/>
      <path id="DejaVuSans-6f" d="M 1959 3097 
Q 1497 3097 1228 2736 
Q 959 2375 959 1747 
Q 959 1119 1226 758 
Q 1494 397 1959 397 
Q 2419 397 2687 759 
Q 2956 1122 2956 1747 
Q 2956 2369 2687 2733 
Q 2419 3097 1959 3097 
z
M 1959 3584 
Q 2709 3584 3137 3096 
Q 3566 2609 3566 1747 
Q 3566 888 3137 398 
Q 2709 -91 1959 -91 
Q 1206 -91 779 398 
Q 353 888 353 1747 
Q 353 2609 779 3096 
Q 1206 3584 1959 3584 
z
" transform="scale(0.015625)"/>
      <path id="DejaVuSans-78" d="M 3513 3500 
L 2247 1797 
L 3578 0 
L 2900 0 
L 1881 1375 
L 863 0 
L 184 0 
L 1544 1831 
L 300 3500 
L 978 3500 
L 1906 2253 
L 2834 3500 
L 3513 3500 
z
" transform="scale(0.015625)"/>
      <path id="DejaVuSans-73" d="M 2834 3397 
L 2834 2853 
Q 2591 2978 2328 3040 
Q 2066 3103 1784 3103 
Q 1356 3103 1142 2972 
Q 928 2841 928 2578 
Q 928 2378 1081 2264 
Q 1234 2150 1697 2047 
L 1894 2003 
Q 2506 1872 2764 1633 
Q 3022 1394 3022 966 
Q 3022 478 2636 193 
Q 2250 -91 1575 -91 
Q 1294 -91 989 -36 
Q 684 19 347 128 
L 347 722 
Q 666 556 975 473 
Q 1284 391 1588 391 
Q 1994 391 2212 530 
Q 2431 669 2431 922 
Q 2431 1156 2273 1281 
Q 2116 1406 1581 1522 
L 1381 1569 
Q 847 1681 609 1914 
Q 372 2147 372 2553 
Q 372 3047 722 3315 
Q 1072 3584 1716 3584 
Q 2034 3584 2315 3537 
Q 2597 3491 2834 3397 
z
" transform="scale(0.015625)"/>
      <path id="DejaVuSans-66" d="M 2375 4863 
L 2375 4384 
L 1825 4384 
Q 1516 4384 1395 4259 
Q 1275 4134 1275 3809 
L 1275 3500 
L 2222 3500 
L 2222 3053 
L 1275 3053 
L 1275 0 
L 697 0 
L 697 3053 
L 147 3053 
L 147 3500 
L 697 3500 
L 697 3744 
Q 697 4328 969 4595 
Q 1241 4863 1831 4863 
L 2375 4863 
z
" transform="scale(0.015625)"/>
      <path id="DejaVuSans-3d" d="M 678 2906 
L 4684 2906 
L 4684 2381 
L 678 2381 
L 678 2906 
z
M 678 1631 
L 4684 1631 
L 4684 1100 
L 678 1100 
L 678 1631 
z
" transform="scale(0.015625)"/>
      <path id="DejaVuSans-48" d="M 628 4666 
L 1259 4666 
L 1259 2753 
L 3553 2753 
L 3553 4666 
L 4184 4666 
L 4184 0 
L 3553 0 
L 3553 2222 
L 1259 2222 
L 1259 0 
L 628 0 
L 628 4666 
z
" transform="scale(0.015625)"/>
      <path id="DejaVuSans-2c" d="M 750 794 
L 1409 794 
L 1409 256 
L 897 -744 
L 494 -744 
L 750 256 
L 750 794 
z
" transform="scale(0.015625)"/>
      <path id="DejaVuSans-3c9" d="M 1719 -91 
Q 422 -91 422 1766 
Q 422 2500 906 3500 
L 1525 3500 
Q 1078 2500 1078 1750 
Q 1078 397 1772 397 
Q 2406 397 2406 2078 
L 2938 2078 
Q 2938 397 3572 397 
Q 4266 397 4266 1750 
Q 4266 2500 3819 3500 
L 4438 3500 
Q 4922 2500 4922 1766 
Q 4922 -91 3625 -91 
Q 2775 -91 2672 844 
Q 2544 -91 1719 -91 
z
" transform="scale(0.015625)"/>
      <path id="DejaVuSans-33" d="M 2597 2516 
Q 3050 2419 3304 2112 
Q 3559 1806 3559 1356 
Q 3559 666 3084 287 
Q 2609 -91 1734 -91 
Q 1441 -91 1130 -33 
Q 819 25 488 141 
L 488 750 
Q 750 597 1062 519 
Q 1375 441 1716 441 
Q 2309 441 2620 675 
Q 2931 909 2931 1356 
Q 2931 1769 2642 2001 
Q 2353 2234 1838 2234 
L 1294 2234 
L 1294 2753 
L 1863 2753 
Q 2328 2753 2575 2939 
Q 2822 3125 2822 3475 
Q 2822 3834 2567 4026 
Q 2313 4219 1838 4219 
Q 1578 4219 1281 4162 
Q 984 4106 628 3988 
L 628 4550 
Q 988 4650 1302 4700 
Q 1616 4750 1894 4750 
Q 2613 4750 3031 4423 
Q 3450 4097 3450 3541 
Q 3450 3153 3228 2886 
Q 3006 2619 2597 2516 
z
" transform="scale(0.015625)"/>
     </defs>
     <use xlink:href="#DejaVuSans-52"/>
     <use xlink:href="#DejaVuSans-65" x="64.982422"/>
     <use xlink:href="#DejaVuSans-70" x="126.505859"/>
     <use xlink:href="#DejaVuSans-72" x="189.982422"/>
     <use xlink:href="#DejaVuSans-65" x="228.845703"/>
     <use xlink:href="#DejaVuSans-7a" x="290.369141"/>
     <use xlink:href="#DejaVuSans-65" x="342.859375"/>
     <use xlink:href="#DejaVuSans-6e" x="404.382812"/>
     <use xlink:href="#DejaVuSans-74" x="467.761719"/>
     <use xlink:href="#DejaVuSans-61" x="506.970703"/>
     <use xlink:href="#DejaVuSans-72" x="568.25"/>
     <use xlink:href="#DejaVuSans-65" x="607.113281"/>
     <use xlink:href="#DejaVuSans-61" x="668.636719"/>
     <use xlink:href="#DejaVuSans-20" x="729.916016"/>
     <use xlink:href="#DejaVuSans-70" x="761.703125"/>
     <use xlink:href="#DejaVuSans-65" x="825.179688"/>
     <use xlink:href="#DejaVuSans-20" x="886.703125"/>
     <use xlink:href="#DejaVuSans-70" x="918.490234"/>
     <use xlink:href="#DejaVuSans-6c" x="981.966797"/>
     <use xlink:href="#DejaVuSans-61" x="1009.75"/>
     <use xlink:href="#DejaVuSans-6e" x="1071.029297"/>
     <use xlink:href="#DejaVuSans-75" x="1134.408203"/>
     <use xlink:href="#DejaVuSans-6c" x="1197.787109"/>
     <use xlink:href="#DejaVuSans-20" x="1225.570312"/>
     <use xlink:href="#DejaVuSans-63" x="1257.357422"/>
     <use xlink:href="#DejaVuSans-6f" x="1312.337891"/>
     <use xlink:href="#DejaVuSans-6d" x="1373.519531"/>
     <use xlink:href="#DejaVuSans-70" x="1470.931641"/>
     <use xlink:href="#DejaVuSans-6c" x="1534.408203"/>
     <use xlink:href="#DejaVuSans-65" x="1562.191406"/>
     <use xlink:href="#DejaVuSans-78" x="1621.964844"/>
     <use xlink:href="#DejaVuSans-20" x="1681.144531"/>
     <use xlink:href="#DejaVuSans-61" x="1712.931641"/>
     <use xlink:href="#DejaVuSans-6c" x="1774.210938"/>
     <use xlink:href="#DejaVuSans-20" x="1801.994141"/>
     <use xlink:href="#DejaVuSans-73" x="1833.78125"/>
     <use xlink:href="#DejaVuSans-65" x="1885.880859"/>
     <use xlink:href="#DejaVuSans-6d" x="1947.404297"/>
     <use xlink:href="#DejaVuSans-6e" x="2044.816406"/>
     <use xlink:href="#DejaVuSans-61" x="2108.195312"/>
     <use xlink:href="#DejaVuSans-6c" x="2169.474609"/>
     <use xlink:href="#DejaVuSans-75" x="2197.257812"/>
     <use xlink:href="#DejaVuSans-6c" x="2260.636719"/>
     <use xlink:href="#DejaVuSans-75" x="2288.419922"/>
     <use xlink:href="#DejaVuSans-69" x="2351.798828"/>
     <use xlink:href="#DejaVuSans-20" x="2379.582031"/>
     <use xlink:href="#DejaVuSans-63" x="2411.369141"/>
     <use xlink:href="#DejaVuSans-75" x="2466.349609"/>
     <use xlink:href="#DejaVuSans-20" x="2529.728516"/>
     <use xlink:href="#DejaVuSans-66" x="2561.515625"/>
     <use xlink:href="#DejaVuSans-20" x="2596.720703"/>
     <use xlink:href="#DejaVuSans-3d" x="2628.507812"/>
     <use xlink:href="#DejaVuSans-20" x="2712.296875"/>
     <use xlink:href="#DejaVuSans-31" x="2744.083984"/>
     <use xlink:href="#DejaVuSans-32" x="2807.707031"/>
     <use xlink:href="#DejaVuSans-20" x="2871.330078"/>
     <use xlink:href="#DejaVuSans-48" x="2903.117188"/>
     <use xlink:href="#DejaVuSans-7a" x="2978.3125"/>
     <use xlink:href="#DejaVuSans-2c" x="3030.802734"/>
     <use xlink:href="#DejaVuSans-20" x="3062.589844"/>
     <use xlink:href="#DejaVuSans-3c9" x="3094.376953"/>
     <use xlink:href="#DejaVuSans-20" x="3178.117188"/>
     <use xlink:href="#DejaVuSans-3d" x="3209.904297"/>
     <use xlink:href="#DejaVuSans-20" x="3293.693359"/>
     <use xlink:href="#DejaVuSans-33" x="3325.480469"/>
    </g>
   </g>
  </g>
 </g>
 <defs>
  <clipPath id="p6553633fb5">
   <rect x="57.6" y="41.472" width="357.12" height="266.112"/>
  </clipPath>
 </defs>
</svg>
