<?xml version="1.0" encoding="utf-8" standalone="no"?>
<!DOCTYPE svg PUBLIC "-//W3C//DTD SVG 1.1//EN"
  "http://www.w3.org/Graphics/SVG/1.1/DTD/svg11.dtd">
<svg xmlns:xlink="http://www.w3.org/1999/xlink" width="460.8pt" height="345.6pt" viewBox="0 0 460.8 345.6" xmlns="http://www.w3.org/2000/svg" version="1.1">
 <metadata>
  <rdf:RDF xmlns:dc="http://purl.org/dc/elements/1.1/" xmlns:cc="http://creativecommons.org/ns#" xmlns:rdf="http://www.w3.org/1999/02/22-rdf-syntax-ns#">
   <cc:Work>
    <dc:type rdf:resource="http://purl.org/dc/dcmitype/StillImage"/>
    <dc:date>2024-10-22T20:24:32.701604</dc:date>
    <dc:format>image/svg+xml</dc:format>
    <dc:creator>
     <cc:Agent>
      <dc:title>Matplotlib v3.9.2, https://matplotlib.org/</dc:title>
     </cc:Agent>
    </dc:creator>
   </cc:Work>
  </rdf:RDF>
 </metadata>
 <defs>
  <style type="text/css">*{stroke-linejoin: round; stroke-linecap: butt}</style>
 </defs>
 <g id="figure_1">
  <g id="patch_1">
   <path d="M 0 345.6 
L 460.8 345.6 
L 460.8 0 
L 0 0 
z
" style="fill: #ffffff"/>
  </g>
  <g id="axes_1">
   <g id="patch_2">
    <path d="M 57.6 307.584 
L 414.72 307.584 
L 414.72 41.472 
L 57.6 41.472 
z
" style="fill: #ffffff"/>
   </g>
   <g id="matplotlib.axis_1">
    <g id="xtick_1">
     <g id="line2d_1">
      <defs>
       <path id="m53d0e2e18c" d="M 0 0 
L 0 3.5 
" style="stroke: #000000; stroke-width: 0.8"/>
      </defs>
      <g>
       <use xlink:href="#m53d0e2e18c" x="73.832727" y="307.584" style="stroke: #000000; stroke-width: 0.8"/>
      </g>
     </g>
     <g id="text_1">
      <!-- 0 -->
      <g transform="translate(70.651477 322.182437) scale(0.1 -0.1)">
       <defs>
        <path id="DejaVuSans-30" d="M 2034 4250 
Q 1547 4250 1301 3770 
Q 1056 3291 1056 2328 
Q 1056 1369 1301 889 
Q 1547 409 2034 409 
Q 2525 409 2770 889 
Q 3016 1369 3016 2328 
Q 3016 3291 2770 3770 
Q 2525 4250 2034 4250 
z
M 2034 4750 
Q 2819 4750 3233 4129 
Q 3647 3509 3647 2328 
Q 3647 1150 3233 529 
Q 2819 -91 2034 -91 
Q 1250 -91 836 529 
Q 422 1150 422 2328 
Q 422 3509 836 4129 
Q 1250 4750 2034 4750 
z
" transform="scale(0.015625)"/>
       </defs>
       <use xlink:href="#DejaVuSans-30"/>
      </g>
     </g>
    </g>
    <g id="xtick_2">
     <g id="line2d_2">
      <g>
       <use xlink:href="#m53d0e2e18c" x="138.763636" y="307.584" style="stroke: #000000; stroke-width: 0.8"/>
      </g>
     </g>
     <g id="text_2">
      <!-- 20 -->
      <g transform="translate(132.401136 322.182437) scale(0.1 -0.1)">
       <defs>
        <path id="DejaVuSans-32" d="M 1228 531 
L 3431 531 
L 3431 0 
L 469 0 
L 469 531 
Q 828 903 1448 1529 
Q 2069 2156 2228 2338 
Q 2531 2678 2651 2914 
Q 2772 3150 2772 3378 
Q 2772 3750 2511 3984 
Q 2250 4219 1831 4219 
Q 1534 4219 1204 4116 
Q 875 4013 500 3803 
L 500 4441 
Q 881 4594 1212 4672 
Q 1544 4750 1819 4750 
Q 2544 4750 2975 4387 
Q 3406 4025 3406 3419 
Q 3406 3131 3298 2873 
Q 3191 2616 2906 2266 
Q 2828 2175 2409 1742 
Q 1991 1309 1228 531 
z
" transform="scale(0.015625)"/>
       </defs>
       <use xlink:href="#DejaVuSans-32"/>
       <use xlink:href="#DejaVuSans-30" x="63.623047"/>
      </g>
     </g>
    </g>
    <g id="xtick_3">
     <g id="line2d_3">
      <g>
       <use xlink:href="#m53d0e2e18c" x="203.694545" y="307.584" style="stroke: #000000; stroke-width: 0.8"/>
      </g>
     </g>
     <g id="text_3">
      <!-- 40 -->
      <g transform="translate(197.332045 322.182437) scale(0.1 -0.1)">
       <defs>
        <path id="DejaVuSans-34" d="M 2419 4116 
L 825 1625 
L 2419 1625 
L 2419 4116 
z
M 2253 4666 
L 3047 4666 
L 3047 1625 
L 3713 1625 
L 3713 1100 
L 3047 1100 
L 3047 0 
L 2419 0 
L 2419 1100 
L 313 1100 
L 313 1709 
L 2253 4666 
z
" transform="scale(0.015625)"/>
       </defs>
       <use xlink:href="#DejaVuSans-34"/>
       <use xlink:href="#DejaVuSans-30" x="63.623047"/>
      </g>
     </g>
    </g>
    <g id="xtick_4">
     <g id="line2d_4">
      <g>
       <use xlink:href="#m53d0e2e18c" x="268.625455" y="307.584" style="stroke: #000000; stroke-width: 0.8"/>
      </g>
     </g>
     <g id="text_4">
      <!-- 60 -->
      <g transform="translate(262.262955 322.182437) scale(0.1 -0.1)">
       <defs>
        <path id="DejaVuSans-36" d="M 2113 2584 
Q 1688 2584 1439 2293 
Q 1191 2003 1191 1497 
Q 1191 994 1439 701 
Q 1688 409 2113 409 
Q 2538 409 2786 701 
Q 3034 994 3034 1497 
Q 3034 2003 2786 2293 
Q 2538 2584 2113 2584 
z
M 3366 4563 
L 3366 3988 
Q 3128 4100 2886 4159 
Q 2644 4219 2406 4219 
Q 1781 4219 1451 3797 
Q 1122 3375 1075 2522 
Q 1259 2794 1537 2939 
Q 1816 3084 2150 3084 
Q 2853 3084 3261 2657 
Q 3669 2231 3669 1497 
Q 3669 778 3244 343 
Q 2819 -91 2113 -91 
Q 1303 -91 875 529 
Q 447 1150 447 2328 
Q 447 3434 972 4092 
Q 1497 4750 2381 4750 
Q 2619 4750 2861 4703 
Q 3103 4656 3366 4563 
z
" transform="scale(0.015625)"/>
       </defs>
       <use xlink:href="#DejaVuSans-36"/>
       <use xlink:href="#DejaVuSans-30" x="63.623047"/>
      </g>
     </g>
    </g>
    <g id="xtick_5">
     <g id="line2d_5">
      <g>
       <use xlink:href="#m53d0e2e18c" x="333.556364" y="307.584" style="stroke: #000000; stroke-width: 0.8"/>
      </g>
     </g>
     <g id="text_5">
      <!-- 80 -->
      <g transform="translate(327.193864 322.182437) scale(0.1 -0.1)">
       <defs>
        <path id="DejaVuSans-38" d="M 2034 2216 
Q 1584 2216 1326 1975 
Q 1069 1734 1069 1313 
Q 1069 891 1326 650 
Q 1584 409 2034 409 
Q 2484 409 2743 651 
Q 3003 894 3003 1313 
Q 3003 1734 2745 1975 
Q 2488 2216 2034 2216 
z
M 1403 2484 
Q 997 2584 770 2862 
Q 544 3141 544 3541 
Q 544 4100 942 4425 
Q 1341 4750 2034 4750 
Q 2731 4750 3128 4425 
Q 3525 4100 3525 3541 
Q 3525 3141 3298 2862 
Q 3072 2584 2669 2484 
Q 3125 2378 3379 2068 
Q 3634 1759 3634 1313 
Q 3634 634 3220 271 
Q 2806 -91 2034 -91 
Q 1263 -91 848 271 
Q 434 634 434 1313 
Q 434 1759 690 2068 
Q 947 2378 1403 2484 
z
M 1172 3481 
Q 1172 3119 1398 2916 
Q 1625 2713 2034 2713 
Q 2441 2713 2670 2916 
Q 2900 3119 2900 3481 
Q 2900 3844 2670 4047 
Q 2441 4250 2034 4250 
Q 1625 4250 1398 4047 
Q 1172 3844 1172 3481 
z
" transform="scale(0.015625)"/>
       </defs>
       <use xlink:href="#DejaVuSans-38"/>
       <use xlink:href="#DejaVuSans-30" x="63.623047"/>
      </g>
     </g>
    </g>
    <g id="xtick_6">
     <g id="line2d_6">
      <g>
       <use xlink:href="#m53d0e2e18c" x="398.487273" y="307.584" style="stroke: #000000; stroke-width: 0.8"/>
      </g>
     </g>
     <g id="text_6">
      <!-- 100 -->
      <g transform="translate(388.943523 322.182437) scale(0.1 -0.1)">
       <defs>
        <path id="DejaVuSans-31" d="M 794 531 
L 1825 531 
L 1825 4091 
L 703 3866 
L 703 4441 
L 1819 4666 
L 2450 4666 
L 2450 531 
L 3481 531 
L 3481 0 
L 794 0 
L 794 531 
z
" transform="scale(0.015625)"/>
       </defs>
       <use xlink:href="#DejaVuSans-31"/>
       <use xlink:href="#DejaVuSans-30" x="63.623047"/>
       <use xlink:href="#DejaVuSans-30" x="127.246094"/>
      </g>
     </g>
    </g>
    <g id="text_7">
     <!-- Frecventa (Hz) -->
     <g transform="translate(199.774062 335.860562) scale(0.1 -0.1)">
      <defs>
       <path id="DejaVuSans-46" d="M 628 4666 
L 3309 4666 
L 3309 4134 
L 1259 4134 
L 1259 2759 
L 3109 2759 
L 3109 2228 
L 1259 2228 
L 1259 0 
L 628 0 
L 628 4666 
z
" transform="scale(0.015625)"/>
       <path id="DejaVuSans-72" d="M 2631 2963 
Q 2534 3019 2420 3045 
Q 2306 3072 2169 3072 
Q 1681 3072 1420 2755 
Q 1159 2438 1159 1844 
L 1159 0 
L 581 0 
L 581 3500 
L 1159 3500 
L 1159 2956 
Q 1341 3275 1631 3429 
Q 1922 3584 2338 3584 
Q 2397 3584 2469 3576 
Q 2541 3569 2628 3553 
L 2631 2963 
z
" transform="scale(0.015625)"/>
       <path id="DejaVuSans-65" d="M 3597 1894 
L 3597 1613 
L 953 1613 
Q 991 1019 1311 708 
Q 1631 397 2203 397 
Q 2534 397 2845 478 
Q 3156 559 3463 722 
L 3463 178 
Q 3153 47 2828 -22 
Q 2503 -91 2169 -91 
Q 1331 -91 842 396 
Q 353 884 353 1716 
Q 353 2575 817 3079 
Q 1281 3584 2069 3584 
Q 2775 3584 3186 3129 
Q 3597 2675 3597 1894 
z
M 3022 2063 
Q 3016 2534 2758 2815 
Q 2500 3097 2075 3097 
Q 1594 3097 1305 2825 
Q 1016 2553 972 2059 
L 3022 2063 
z
" transform="scale(0.015625)"/>
       <path id="DejaVuSans-63" d="M 3122 3366 
L 3122 2828 
Q 2878 2963 2633 3030 
Q 2388 3097 2138 3097 
Q 1578 3097 1268 2742 
Q 959 2388 959 1747 
Q 959 1106 1268 751 
Q 1578 397 2138 397 
Q 2388 397 2633 464 
Q 2878 531 3122 666 
L 3122 134 
Q 2881 22 2623 -34 
Q 2366 -91 2075 -91 
Q 1284 -91 818 406 
Q 353 903 353 1747 
Q 353 2603 823 3093 
Q 1294 3584 2113 3584 
Q 2378 3584 2631 3529 
Q 2884 3475 3122 3366 
z
" transform="scale(0.015625)"/>
       <path id="DejaVuSans-76" d="M 191 3500 
L 800 3500 
L 1894 563 
L 2988 3500 
L 3597 3500 
L 2284 0 
L 1503 0 
L 191 3500 
z
" transform="scale(0.015625)"/>
       <path id="DejaVuSans-6e" d="M 3513 2113 
L 3513 0 
L 2938 0 
L 2938 2094 
Q 2938 2591 2744 2837 
Q 2550 3084 2163 3084 
Q 1697 3084 1428 2787 
Q 1159 2491 1159 1978 
L 1159 0 
L 581 0 
L 581 3500 
L 1159 3500 
L 1159 2956 
Q 1366 3272 1645 3428 
Q 1925 3584 2291 3584 
Q 2894 3584 3203 3211 
Q 3513 2838 3513 2113 
z
" transform="scale(0.015625)"/>
       <path id="DejaVuSans-74" d="M 1172 4494 
L 1172 3500 
L 2356 3500 
L 2356 3053 
L 1172 3053 
L 1172 1153 
Q 1172 725 1289 603 
Q 1406 481 1766 481 
L 2356 481 
L 2356 0 
L 1766 0 
Q 1100 0 847 248 
Q 594 497 594 1153 
L 594 3053 
L 172 3053 
L 172 3500 
L 594 3500 
L 594 4494 
L 1172 4494 
z
" transform="scale(0.015625)"/>
       <path id="DejaVuSans-61" d="M 2194 1759 
Q 1497 1759 1228 1600 
Q 959 1441 959 1056 
Q 959 750 1161 570 
Q 1363 391 1709 391 
Q 2188 391 2477 730 
Q 2766 1069 2766 1631 
L 2766 1759 
L 2194 1759 
z
M 3341 1997 
L 3341 0 
L 2766 0 
L 2766 531 
Q 2569 213 2275 61 
Q 1981 -91 1556 -91 
Q 1019 -91 701 211 
Q 384 513 384 1019 
Q 384 1609 779 1909 
Q 1175 2209 1959 2209 
L 2766 2209 
L 2766 2266 
Q 2766 2663 2505 2880 
Q 2244 3097 1772 3097 
Q 1472 3097 1187 3025 
Q 903 2953 641 2809 
L 641 3341 
Q 956 3463 1253 3523 
Q 1550 3584 1831 3584 
Q 2591 3584 2966 3190 
Q 3341 2797 3341 1997 
z
" transform="scale(0.015625)"/>
       <path id="DejaVuSans-20" transform="scale(0.015625)"/>
       <path id="DejaVuSans-28" d="M 1984 4856 
Q 1566 4138 1362 3434 
Q 1159 2731 1159 2009 
Q 1159 1288 1364 580 
Q 1569 -128 1984 -844 
L 1484 -844 
Q 1016 -109 783 600 
Q 550 1309 550 2009 
Q 550 2706 781 3412 
Q 1013 4119 1484 4856 
L 1984 4856 
z
" transform="scale(0.015625)"/>
       <path id="DejaVuSans-48" d="M 628 4666 
L 1259 4666 
L 1259 2753 
L 3553 2753 
L 3553 4666 
L 4184 4666 
L 4184 0 
L 3553 0 
L 3553 2222 
L 1259 2222 
L 1259 0 
L 628 0 
L 628 4666 
z
" transform="scale(0.015625)"/>
       <path id="DejaVuSans-7a" d="M 353 3500 
L 3084 3500 
L 3084 2975 
L 922 459 
L 3084 459 
L 3084 0 
L 275 0 
L 275 525 
L 2438 3041 
L 353 3041 
L 353 3500 
z
" transform="scale(0.015625)"/>
       <path id="DejaVuSans-29" d="M 513 4856 
L 1013 4856 
Q 1481 4119 1714 3412 
Q 1947 2706 1947 2009 
Q 1947 1309 1714 600 
Q 1481 -109 1013 -844 
L 513 -844 
Q 928 -128 1133 580 
Q 1338 1288 1338 2009 
Q 1338 2731 1133 3434 
Q 928 4138 513 4856 
z
" transform="scale(0.015625)"/>
      </defs>
      <use xlink:href="#DejaVuSans-46"/>
      <use xlink:href="#DejaVuSans-72" x="50.269531"/>
      <use xlink:href="#DejaVuSans-65" x="89.132812"/>
      <use xlink:href="#DejaVuSans-63" x="150.65625"/>
      <use xlink:href="#DejaVuSans-76" x="205.636719"/>
      <use xlink:href="#DejaVuSans-65" x="264.816406"/>
      <use xlink:href="#DejaVuSans-6e" x="326.339844"/>
      <use xlink:href="#DejaVuSans-74" x="389.71875"/>
      <use xlink:href="#DejaVuSans-61" x="428.927734"/>
      <use xlink:href="#DejaVuSans-20" x="490.207031"/>
      <use xlink:href="#DejaVuSans-28" x="521.994141"/>
      <use xlink:href="#DejaVuSans-48" x="561.007812"/>
      <use xlink:href="#DejaVuSans-7a" x="636.203125"/>
      <use xlink:href="#DejaVuSans-29" x="688.693359"/>
     </g>
    </g>
   </g>
   <g id="matplotlib.axis_2">
    <g id="ytick_1">
     <g id="line2d_7">
      <defs>
       <path id="m6352123680" d="M 0 0 
L -3.5 0 
" style="stroke: #000000; stroke-width: 0.8"/>
      </defs>
      <g>
       <use xlink:href="#m6352123680" x="57.6" y="295.488" style="stroke: #000000; stroke-width: 0.8"/>
      </g>
     </g>
     <g id="text_8">
      <!-- 0 -->
      <g transform="translate(44.2375 299.287219) scale(0.1 -0.1)">
       <use xlink:href="#DejaVuSans-30"/>
      </g>
     </g>
    </g>
    <g id="ytick_2">
     <g id="line2d_8">
      <g>
       <use xlink:href="#m6352123680" x="57.6" y="263.221327" style="stroke: #000000; stroke-width: 0.8"/>
      </g>
     </g>
     <g id="text_9">
      <!-- 2000 -->
      <g transform="translate(25.15 267.020546) scale(0.1 -0.1)">
       <use xlink:href="#DejaVuSans-32"/>
       <use xlink:href="#DejaVuSans-30" x="63.623047"/>
       <use xlink:href="#DejaVuSans-30" x="127.246094"/>
       <use xlink:href="#DejaVuSans-30" x="190.869141"/>
      </g>
     </g>
    </g>
    <g id="ytick_3">
     <g id="line2d_9">
      <g>
       <use xlink:href="#m6352123680" x="57.6" y="230.954654" style="stroke: #000000; stroke-width: 0.8"/>
      </g>
     </g>
     <g id="text_10">
      <!-- 4000 -->
      <g transform="translate(25.15 234.753873) scale(0.1 -0.1)">
       <use xlink:href="#DejaVuSans-34"/>
       <use xlink:href="#DejaVuSans-30" x="63.623047"/>
       <use xlink:href="#DejaVuSans-30" x="127.246094"/>
       <use xlink:href="#DejaVuSans-30" x="190.869141"/>
      </g>
     </g>
    </g>
    <g id="ytick_4">
     <g id="line2d_10">
      <g>
       <use xlink:href="#m6352123680" x="57.6" y="198.687981" style="stroke: #000000; stroke-width: 0.8"/>
      </g>
     </g>
     <g id="text_11">
      <!-- 6000 -->
      <g transform="translate(25.15 202.4872) scale(0.1 -0.1)">
       <use xlink:href="#DejaVuSans-36"/>
       <use xlink:href="#DejaVuSans-30" x="63.623047"/>
       <use xlink:href="#DejaVuSans-30" x="127.246094"/>
       <use xlink:href="#DejaVuSans-30" x="190.869141"/>
      </g>
     </g>
    </g>
    <g id="ytick_5">
     <g id="line2d_11">
      <g>
       <use xlink:href="#m6352123680" x="57.6" y="166.421308" style="stroke: #000000; stroke-width: 0.8"/>
      </g>
     </g>
     <g id="text_12">
      <!-- 8000 -->
      <g transform="translate(25.15 170.220527) scale(0.1 -0.1)">
       <use xlink:href="#DejaVuSans-38"/>
       <use xlink:href="#DejaVuSans-30" x="63.623047"/>
       <use xlink:href="#DejaVuSans-30" x="127.246094"/>
       <use xlink:href="#DejaVuSans-30" x="190.869141"/>
      </g>
     </g>
    </g>
    <g id="ytick_6">
     <g id="line2d_12">
      <g>
       <use xlink:href="#m6352123680" x="57.6" y="134.154635" style="stroke: #000000; stroke-width: 0.8"/>
      </g>
     </g>
     <g id="text_13">
      <!-- 10000 -->
      <g transform="translate(18.7875 137.953854) scale(0.1 -0.1)">
       <use xlink:href="#DejaVuSans-31"/>
       <use xlink:href="#DejaVuSans-30" x="63.623047"/>
       <use xlink:href="#DejaVuSans-30" x="127.246094"/>
       <use xlink:href="#DejaVuSans-30" x="190.869141"/>
       <use xlink:href="#DejaVuSans-30" x="254.492188"/>
      </g>
     </g>
    </g>
    <g id="ytick_7">
     <g id="line2d_13">
      <g>
       <use xlink:href="#m6352123680" x="57.6" y="101.887962" style="stroke: #000000; stroke-width: 0.8"/>
      </g>
     </g>
     <g id="text_14">
      <!-- 12000 -->
      <g transform="translate(18.7875 105.687181) scale(0.1 -0.1)">
       <use xlink:href="#DejaVuSans-31"/>
       <use xlink:href="#DejaVuSans-32" x="63.623047"/>
       <use xlink:href="#DejaVuSans-30" x="127.246094"/>
       <use xlink:href="#DejaVuSans-30" x="190.869141"/>
       <use xlink:href="#DejaVuSans-30" x="254.492188"/>
      </g>
     </g>
    </g>
    <g id="ytick_8">
     <g id="line2d_14">
      <g>
       <use xlink:href="#m6352123680" x="57.6" y="69.621289" style="stroke: #000000; stroke-width: 0.8"/>
      </g>
     </g>
     <g id="text_15">
      <!-- 14000 -->
      <g transform="translate(18.7875 73.420508) scale(0.1 -0.1)">
       <use xlink:href="#DejaVuSans-31"/>
       <use xlink:href="#DejaVuSans-34" x="63.623047"/>
       <use xlink:href="#DejaVuSans-30" x="127.246094"/>
       <use xlink:href="#DejaVuSans-30" x="190.869141"/>
       <use xlink:href="#DejaVuSans-30" x="254.492188"/>
      </g>
     </g>
    </g>
    <g id="text_16">
     <!-- |X(ω)| -->
     <g transform="translate(12.429688 189.410031) rotate(-90) scale(0.1 -0.1)">
      <defs>
       <path id="DejaVuSans-7c" d="M 1344 4891 
L 1344 -1509 
L 813 -1509 
L 813 4891 
L 1344 4891 
z
" transform="scale(0.015625)"/>
       <path id="DejaVuSans-58" d="M 403 4666 
L 1081 4666 
L 2241 2931 
L 3406 4666 
L 4084 4666 
L 2584 2425 
L 4184 0 
L 3506 0 
L 2194 1984 
L 872 0 
L 191 0 
L 1856 2491 
L 403 4666 
z
" transform="scale(0.015625)"/>
       <path id="DejaVuSans-3c9" d="M 1719 -91 
Q 422 -91 422 1766 
Q 422 2500 906 3500 
L 1525 3500 
Q 1078 2500 1078 1750 
Q 1078 397 1772 397 
Q 2406 397 2406 2078 
L 2938 2078 
Q 2938 397 3572 397 
Q 4266 397 4266 1750 
Q 4266 2500 3819 3500 
L 4438 3500 
Q 4922 2500 4922 1766 
Q 4922 -91 3625 -91 
Q 2775 -91 2672 844 
Q 2544 -91 1719 -91 
z
" transform="scale(0.015625)"/>
      </defs>
      <use xlink:href="#DejaVuSans-7c"/>
      <use xlink:href="#DejaVuSans-58" x="33.691406"/>
      <use xlink:href="#DejaVuSans-28" x="102.197266"/>
      <use xlink:href="#DejaVuSans-3c9" x="141.210938"/>
      <use xlink:href="#DejaVuSans-29" x="224.951172"/>
      <use xlink:href="#DejaVuSans-7c" x="263.964844"/>
     </g>
    </g>
   </g>
   <g id="LineCollection_1">
    <path d="M 73.832727 295.488 
L 73.832727 295.488 
" clip-path="url(#pd4f0977ded)" style="fill: none; stroke: #1f77b4; stroke-width: 1.5"/>
    <path d="M 77.079273 295.488 
L 77.079273 295.484947 
" clip-path="url(#pd4f0977ded)" style="fill: none; stroke: #1f77b4; stroke-width: 1.5"/>
    <path d="M 80.325818 295.488 
L 80.325818 295.481853 
" clip-path="url(#pd4f0977ded)" style="fill: none; stroke: #1f77b4; stroke-width: 1.5"/>
    <path d="M 83.572364 295.488 
L 83.572364 295.478674 
" clip-path="url(#pd4f0977ded)" style="fill: none; stroke: #1f77b4; stroke-width: 1.5"/>
    <path d="M 86.818909 295.488 
L 86.818909 295.475354 
" clip-path="url(#pd4f0977ded)" style="fill: none; stroke: #1f77b4; stroke-width: 1.5"/>
    <path d="M 90.065455 295.488 
L 90.065455 295.471818 
" clip-path="url(#pd4f0977ded)" style="fill: none; stroke: #1f77b4; stroke-width: 1.5"/>
    <path d="M 93.312 295.488 
L 93.312 295.467952 
" clip-path="url(#pd4f0977ded)" style="fill: none; stroke: #1f77b4; stroke-width: 1.5"/>
    <path d="M 96.558545 295.488 
L 96.558545 295.463565 
" clip-path="url(#pd4f0977ded)" style="fill: none; stroke: #1f77b4; stroke-width: 1.5"/>
    <path d="M 99.805091 295.488 
L 99.805091 295.458293 
" clip-path="url(#pd4f0977ded)" style="fill: none; stroke: #1f77b4; stroke-width: 1.5"/>
    <path d="M 103.051636 295.488 
L 103.051636 295.45131 
" clip-path="url(#pd4f0977ded)" style="fill: none; stroke: #1f77b4; stroke-width: 1.5"/>
    <path d="M 106.298182 295.488 
L 106.298182 295.440176 
" clip-path="url(#pd4f0977ded)" style="fill: none; stroke: #1f77b4; stroke-width: 1.5"/>
    <path d="M 109.544727 295.488 
L 109.544727 295.412796 
" clip-path="url(#pd4f0977ded)" style="fill: none; stroke: #1f77b4; stroke-width: 1.5"/>
    <path d="M 112.791273 295.488 
L 112.791273 255.124499 
" clip-path="url(#pd4f0977ded)" style="fill: none; stroke: #1f77b4; stroke-width: 1.5"/>
    <path d="M 116.037818 295.488 
L 116.037818 295.473401 
" clip-path="url(#pd4f0977ded)" style="fill: none; stroke: #1f77b4; stroke-width: 1.5"/>
    <path d="M 119.284364 295.488 
L 119.284364 295.474492 
" clip-path="url(#pd4f0977ded)" style="fill: none; stroke: #1f77b4; stroke-width: 1.5"/>
    <path d="M 122.530909 295.488 
L 122.530909 295.462256 
" clip-path="url(#pd4f0977ded)" style="fill: none; stroke: #1f77b4; stroke-width: 1.5"/>
    <path d="M 125.777455 295.488 
L 125.777455 295.453698 
" clip-path="url(#pd4f0977ded)" style="fill: none; stroke: #1f77b4; stroke-width: 1.5"/>
    <path d="M 129.024 295.488 
L 129.024 295.446318 
" clip-path="url(#pd4f0977ded)" style="fill: none; stroke: #1f77b4; stroke-width: 1.5"/>
    <path d="M 132.270545 295.488 
L 132.270545 295.439212 
" clip-path="url(#pd4f0977ded)" style="fill: none; stroke: #1f77b4; stroke-width: 1.5"/>
    <path d="M 135.517091 295.488 
L 135.517091 295.431908 
" clip-path="url(#pd4f0977ded)" style="fill: none; stroke: #1f77b4; stroke-width: 1.5"/>
    <path d="M 138.763636 295.488 
L 138.763636 295.424063 
" clip-path="url(#pd4f0977ded)" style="fill: none; stroke: #1f77b4; stroke-width: 1.5"/>
    <path d="M 142.010182 295.488 
L 142.010182 295.415352 
" clip-path="url(#pd4f0977ded)" style="fill: none; stroke: #1f77b4; stroke-width: 1.5"/>
    <path d="M 145.256727 295.488 
L 145.256727 295.405386 
" clip-path="url(#pd4f0977ded)" style="fill: none; stroke: #1f77b4; stroke-width: 1.5"/>
    <path d="M 148.503273 295.488 
L 148.503273 295.393647 
" clip-path="url(#pd4f0977ded)" style="fill: none; stroke: #1f77b4; stroke-width: 1.5"/>
    <path d="M 151.749818 295.488 
L 151.749818 295.379357 
" clip-path="url(#pd4f0977ded)" style="fill: none; stroke: #1f77b4; stroke-width: 1.5"/>
    <path d="M 154.996364 295.488 
L 154.996364 295.361269 
" clip-path="url(#pd4f0977ded)" style="fill: none; stroke: #1f77b4; stroke-width: 1.5"/>
    <path d="M 158.242909 295.488 
L 158.242909 295.337175 
" clip-path="url(#pd4f0977ded)" style="fill: none; stroke: #1f77b4; stroke-width: 1.5"/>
    <path d="M 161.489455 295.488 
L 161.489455 295.302723 
" clip-path="url(#pd4f0977ded)" style="fill: none; stroke: #1f77b4; stroke-width: 1.5"/>
    <path d="M 164.736 295.488 
L 164.736 295.247844 
" clip-path="url(#pd4f0977ded)" style="fill: none; stroke: #1f77b4; stroke-width: 1.5"/>
    <path d="M 167.982545 295.488 
L 167.982545 295.142534 
" clip-path="url(#pd4f0977ded)" style="fill: none; stroke: #1f77b4; stroke-width: 1.5"/>
    <path d="M 171.229091 295.488 
L 171.229091 294.837557 
" clip-path="url(#pd4f0977ded)" style="fill: none; stroke: #1f77b4; stroke-width: 1.5"/>
    <path d="M 174.475636 295.488 
L 174.475636 101.831749 
" clip-path="url(#pd4f0977ded)" style="fill: none; stroke: #1f77b4; stroke-width: 1.5"/>
    <path d="M 177.722182 295.488 
L 177.722182 294.953569 
" clip-path="url(#pd4f0977ded)" style="fill: none; stroke: #1f77b4; stroke-width: 1.5"/>
    <path d="M 180.968727 295.488 
L 180.968727 295.264999 
" clip-path="url(#pd4f0977ded)" style="fill: none; stroke: #1f77b4; stroke-width: 1.5"/>
    <path d="M 184.215273 295.488 
L 184.215273 295.377295 
" clip-path="url(#pd4f0977ded)" style="fill: none; stroke: #1f77b4; stroke-width: 1.5"/>
    <path d="M 187.461818 295.488 
L 187.461818 295.442274 
" clip-path="url(#pd4f0977ded)" style="fill: none; stroke: #1f77b4; stroke-width: 1.5"/>
    <path d="M 190.708364 295.488 
L 190.708364 295.484698 
" clip-path="url(#pd4f0977ded)" style="fill: none; stroke: #1f77b4; stroke-width: 1.5"/>
    <path d="M 193.954909 295.488 
L 193.954909 295.439526 
" clip-path="url(#pd4f0977ded)" style="fill: none; stroke: #1f77b4; stroke-width: 1.5"/>
    <path d="M 197.201455 295.488 
L 197.201455 295.390204 
" clip-path="url(#pd4f0977ded)" style="fill: none; stroke: #1f77b4; stroke-width: 1.5"/>
    <path d="M 200.448 295.488 
L 200.448 295.327175 
" clip-path="url(#pd4f0977ded)" style="fill: none; stroke: #1f77b4; stroke-width: 1.5"/>
    <path d="M 203.694545 295.488 
L 203.694545 295.231971 
" clip-path="url(#pd4f0977ded)" style="fill: none; stroke: #1f77b4; stroke-width: 1.5"/>
    <path d="M 206.941091 295.488 
L 206.941091 295.052129 
" clip-path="url(#pd4f0977ded)" style="fill: none; stroke: #1f77b4; stroke-width: 1.5"/>
    <path d="M 210.187636 295.488 
L 210.187636 294.52934 
" clip-path="url(#pd4f0977ded)" style="fill: none; stroke: #1f77b4; stroke-width: 1.5"/>
    <path d="M 213.434182 295.488 
L 213.434182 53.568 
" clip-path="url(#pd4f0977ded)" style="fill: none; stroke: #1f77b4; stroke-width: 1.5"/>
    <path d="M 216.680727 295.488 
L 216.680727 294.374309 
" clip-path="url(#pd4f0977ded)" style="fill: none; stroke: #1f77b4; stroke-width: 1.5"/>
    <path d="M 219.927273 295.488 
L 219.927273 294.90162 
" clip-path="url(#pd4f0977ded)" style="fill: none; stroke: #1f77b4; stroke-width: 1.5"/>
    <path d="M 223.173818 295.488 
L 223.173818 295.078841 
" clip-path="url(#pd4f0977ded)" style="fill: none; stroke: #1f77b4; stroke-width: 1.5"/>
    <path d="M 226.420364 295.488 
L 226.420364 295.168568 
" clip-path="url(#pd4f0977ded)" style="fill: none; stroke: #1f77b4; stroke-width: 1.5"/>
    <path d="M 229.666909 295.488 
L 229.666909 295.223187 
" clip-path="url(#pd4f0977ded)" style="fill: none; stroke: #1f77b4; stroke-width: 1.5"/>
    <path d="M 232.913455 295.488 
L 232.913455 295.260161 
" clip-path="url(#pd4f0977ded)" style="fill: none; stroke: #1f77b4; stroke-width: 1.5"/>
    <path d="M 236.16 295.488 
L 236.16 295.286989 
" clip-path="url(#pd4f0977ded)" style="fill: none; stroke: #1f77b4; stroke-width: 1.5"/>
    <path d="M 239.406545 295.488 
L 239.406545 295.307429 
" clip-path="url(#pd4f0977ded)" style="fill: none; stroke: #1f77b4; stroke-width: 1.5"/>
    <path d="M 242.653091 295.488 
L 242.653091 295.323574 
" clip-path="url(#pd4f0977ded)" style="fill: none; stroke: #1f77b4; stroke-width: 1.5"/>
    <path d="M 245.899636 295.488 
L 245.899636 295.336689 
" clip-path="url(#pd4f0977ded)" style="fill: none; stroke: #1f77b4; stroke-width: 1.5"/>
    <path d="M 249.146182 295.488 
L 249.146182 295.347579 
" clip-path="url(#pd4f0977ded)" style="fill: none; stroke: #1f77b4; stroke-width: 1.5"/>
    <path d="M 252.392727 295.488 
L 252.392727 295.356785 
" clip-path="url(#pd4f0977ded)" style="fill: none; stroke: #1f77b4; stroke-width: 1.5"/>
    <path d="M 255.639273 295.488 
L 255.639273 295.364685 
" clip-path="url(#pd4f0977ded)" style="fill: none; stroke: #1f77b4; stroke-width: 1.5"/>
    <path d="M 258.885818 295.488 
L 258.885818 295.371549 
" clip-path="url(#pd4f0977ded)" style="fill: none; stroke: #1f77b4; stroke-width: 1.5"/>
    <path d="M 262.132364 295.488 
L 262.132364 295.377575 
" clip-path="url(#pd4f0977ded)" style="fill: none; stroke: #1f77b4; stroke-width: 1.5"/>
    <path d="M 265.378909 295.488 
L 265.378909 295.382916 
" clip-path="url(#pd4f0977ded)" style="fill: none; stroke: #1f77b4; stroke-width: 1.5"/>
    <path d="M 268.625455 295.488 
L 268.625455 295.387687 
" clip-path="url(#pd4f0977ded)" style="fill: none; stroke: #1f77b4; stroke-width: 1.5"/>
    <path d="M 271.872 295.488 
L 271.872 295.391978 
" clip-path="url(#pd4f0977ded)" style="fill: none; stroke: #1f77b4; stroke-width: 1.5"/>
    <path d="M 275.118545 295.488 
L 275.118545 295.395862 
" clip-path="url(#pd4f0977ded)" style="fill: none; stroke: #1f77b4; stroke-width: 1.5"/>
    <path d="M 278.365091 295.488 
L 278.365091 295.399396 
" clip-path="url(#pd4f0977ded)" style="fill: none; stroke: #1f77b4; stroke-width: 1.5"/>
    <path d="M 281.611636 295.488 
L 281.611636 295.402629 
" clip-path="url(#pd4f0977ded)" style="fill: none; stroke: #1f77b4; stroke-width: 1.5"/>
    <path d="M 284.858182 295.488 
L 284.858182 295.4056 
" clip-path="url(#pd4f0977ded)" style="fill: none; stroke: #1f77b4; stroke-width: 1.5"/>
    <path d="M 288.104727 295.488 
L 288.104727 295.408339 
" clip-path="url(#pd4f0977ded)" style="fill: none; stroke: #1f77b4; stroke-width: 1.5"/>
    <path d="M 291.351273 295.488 
L 291.351273 295.410876 
" clip-path="url(#pd4f0977ded)" style="fill: none; stroke: #1f77b4; stroke-width: 1.5"/>
    <path d="M 294.597818 295.488 
L 294.597818 295.413232 
" clip-path="url(#pd4f0977ded)" style="fill: none; stroke: #1f77b4; stroke-width: 1.5"/>
    <path d="M 297.844364 295.488 
L 297.844364 295.415427 
" clip-path="url(#pd4f0977ded)" style="fill: none; stroke: #1f77b4; stroke-width: 1.5"/>
    <path d="M 301.090909 295.488 
L 301.090909 295.417479 
" clip-path="url(#pd4f0977ded)" style="fill: none; stroke: #1f77b4; stroke-width: 1.5"/>
    <path d="M 304.337455 295.488 
L 304.337455 295.419401 
" clip-path="url(#pd4f0977ded)" style="fill: none; stroke: #1f77b4; stroke-width: 1.5"/>
    <path d="M 307.584 295.488 
L 307.584 295.421206 
" clip-path="url(#pd4f0977ded)" style="fill: none; stroke: #1f77b4; stroke-width: 1.5"/>
    <path d="M 310.830545 295.488 
L 310.830545 295.422905 
" clip-path="url(#pd4f0977ded)" style="fill: none; stroke: #1f77b4; stroke-width: 1.5"/>
    <path d="M 314.077091 295.488 
L 314.077091 295.424508 
" clip-path="url(#pd4f0977ded)" style="fill: none; stroke: #1f77b4; stroke-width: 1.5"/>
    <path d="M 317.323636 295.488 
L 317.323636 295.426022 
" clip-path="url(#pd4f0977ded)" style="fill: none; stroke: #1f77b4; stroke-width: 1.5"/>
    <path d="M 320.570182 295.488 
L 320.570182 295.427457 
" clip-path="url(#pd4f0977ded)" style="fill: none; stroke: #1f77b4; stroke-width: 1.5"/>
    <path d="M 323.816727 295.488 
L 323.816727 295.428817 
" clip-path="url(#pd4f0977ded)" style="fill: none; stroke: #1f77b4; stroke-width: 1.5"/>
    <path d="M 327.063273 295.488 
L 327.063273 295.430109 
" clip-path="url(#pd4f0977ded)" style="fill: none; stroke: #1f77b4; stroke-width: 1.5"/>
    <path d="M 330.309818 295.488 
L 330.309818 295.431339 
" clip-path="url(#pd4f0977ded)" style="fill: none; stroke: #1f77b4; stroke-width: 1.5"/>
    <path d="M 333.556364 295.488 
L 333.556364 295.43251 
" clip-path="url(#pd4f0977ded)" style="fill: none; stroke: #1f77b4; stroke-width: 1.5"/>
    <path d="M 336.802909 295.488 
L 336.802909 295.433628 
" clip-path="url(#pd4f0977ded)" style="fill: none; stroke: #1f77b4; stroke-width: 1.5"/>
    <path d="M 340.049455 295.488 
L 340.049455 295.434696 
" clip-path="url(#pd4f0977ded)" style="fill: none; stroke: #1f77b4; stroke-width: 1.5"/>
    <path d="M 343.296 295.488 
L 343.296 295.435717 
" clip-path="url(#pd4f0977ded)" style="fill: none; stroke: #1f77b4; stroke-width: 1.5"/>
    <path d="M 346.542545 295.488 
L 346.542545 295.436695 
" clip-path="url(#pd4f0977ded)" style="fill: none; stroke: #1f77b4; stroke-width: 1.5"/>
    <path d="M 349.789091 295.488 
L 349.789091 295.437633 
" clip-path="url(#pd4f0977ded)" style="fill: none; stroke: #1f77b4; stroke-width: 1.5"/>
    <path d="M 353.035636 295.488 
L 353.035636 295.438533 
" clip-path="url(#pd4f0977ded)" style="fill: none; stroke: #1f77b4; stroke-width: 1.5"/>
    <path d="M 356.282182 295.488 
L 356.282182 295.439397 
" clip-path="url(#pd4f0977ded)" style="fill: none; stroke: #1f77b4; stroke-width: 1.5"/>
    <path d="M 359.528727 295.488 
L 359.528727 295.440228 
" clip-path="url(#pd4f0977ded)" style="fill: none; stroke: #1f77b4; stroke-width: 1.5"/>
    <path d="M 362.775273 295.488 
L 362.775273 295.441027 
" clip-path="url(#pd4f0977ded)" style="fill: none; stroke: #1f77b4; stroke-width: 1.5"/>
    <path d="M 366.021818 295.488 
L 366.021818 295.441798 
" clip-path="url(#pd4f0977ded)" style="fill: none; stroke: #1f77b4; stroke-width: 1.5"/>
    <path d="M 369.268364 295.488 
L 369.268364 295.44254 
" clip-path="url(#pd4f0977ded)" style="fill: none; stroke: #1f77b4; stroke-width: 1.5"/>
    <path d="M 372.514909 295.488 
L 372.514909 295.443256 
" clip-path="url(#pd4f0977ded)" style="fill: none; stroke: #1f77b4; stroke-width: 1.5"/>
    <path d="M 375.761455 295.488 
L 375.761455 295.443948 
" clip-path="url(#pd4f0977ded)" style="fill: none; stroke: #1f77b4; stroke-width: 1.5"/>
    <path d="M 379.008 295.488 
L 379.008 295.444616 
" clip-path="url(#pd4f0977ded)" style="fill: none; stroke: #1f77b4; stroke-width: 1.5"/>
    <path d="M 382.254545 295.488 
L 382.254545 295.445261 
" clip-path="url(#pd4f0977ded)" style="fill: none; stroke: #1f77b4; stroke-width: 1.5"/>
    <path d="M 385.501091 295.488 
L 385.501091 295.445886 
" clip-path="url(#pd4f0977ded)" style="fill: none; stroke: #1f77b4; stroke-width: 1.5"/>
    <path d="M 388.747636 295.488 
L 388.747636 295.446491 
" clip-path="url(#pd4f0977ded)" style="fill: none; stroke: #1f77b4; stroke-width: 1.5"/>
    <path d="M 391.994182 295.488 
L 391.994182 295.447077 
" clip-path="url(#pd4f0977ded)" style="fill: none; stroke: #1f77b4; stroke-width: 1.5"/>
    <path d="M 395.240727 295.488 
L 395.240727 295.447645 
" clip-path="url(#pd4f0977ded)" style="fill: none; stroke: #1f77b4; stroke-width: 1.5"/>
    <path d="M 398.487273 295.488 
L 398.487273 295.448195 
" clip-path="url(#pd4f0977ded)" style="fill: none; stroke: #1f77b4; stroke-width: 1.5"/>
   </g>
   <g id="line2d_15">
    <defs>
     <path id="m0f37e075d2" d="M 0 3 
C 0.795609 3 1.55874 2.683901 2.12132 2.12132 
C 2.683901 1.55874 3 0.795609 3 0 
C 3 -0.795609 2.683901 -1.55874 2.12132 -2.12132 
C 1.55874 -2.683901 0.795609 -3 0 -3 
C -0.795609 -3 -1.55874 -2.683901 -2.12132 -2.12132 
C -2.683901 -1.55874 -3 -0.795609 -3 0 
C -3 0.795609 -2.683901 1.55874 -2.12132 2.12132 
C -1.55874 2.683901 -0.795609 3 0 3 
z
" style="stroke: #1f77b4"/>
    </defs>
    <g clip-path="url(#pd4f0977ded)">
     <use xlink:href="#m0f37e075d2" x="73.832727" y="295.488" style="fill: #1f77b4; stroke: #1f77b4"/>
     <use xlink:href="#m0f37e075d2" x="77.079273" y="295.484947" style="fill: #1f77b4; stroke: #1f77b4"/>
     <use xlink:href="#m0f37e075d2" x="80.325818" y="295.481853" style="fill: #1f77b4; stroke: #1f77b4"/>
     <use xlink:href="#m0f37e075d2" x="83.572364" y="295.478674" style="fill: #1f77b4; stroke: #1f77b4"/>
     <use xlink:href="#m0f37e075d2" x="86.818909" y="295.475354" style="fill: #1f77b4; stroke: #1f77b4"/>
     <use xlink:href="#m0f37e075d2" x="90.065455" y="295.471818" style="fill: #1f77b4; stroke: #1f77b4"/>
     <use xlink:href="#m0f37e075d2" x="93.312" y="295.467952" style="fill: #1f77b4; stroke: #1f77b4"/>
     <use xlink:href="#m0f37e075d2" x="96.558545" y="295.463565" style="fill: #1f77b4; stroke: #1f77b4"/>
     <use xlink:href="#m0f37e075d2" x="99.805091" y="295.458293" style="fill: #1f77b4; stroke: #1f77b4"/>
     <use xlink:href="#m0f37e075d2" x="103.051636" y="295.45131" style="fill: #1f77b4; stroke: #1f77b4"/>
     <use xlink:href="#m0f37e075d2" x="106.298182" y="295.440176" style="fill: #1f77b4; stroke: #1f77b4"/>
     <use xlink:href="#m0f37e075d2" x="109.544727" y="295.412796" style="fill: #1f77b4; stroke: #1f77b4"/>
     <use xlink:href="#m0f37e075d2" x="112.791273" y="255.124499" style="fill: #1f77b4; stroke: #1f77b4"/>
     <use xlink:href="#m0f37e075d2" x="116.037818" y="295.473401" style="fill: #1f77b4; stroke: #1f77b4"/>
     <use xlink:href="#m0f37e075d2" x="119.284364" y="295.474492" style="fill: #1f77b4; stroke: #1f77b4"/>
     <use xlink:href="#m0f37e075d2" x="122.530909" y="295.462256" style="fill: #1f77b4; stroke: #1f77b4"/>
     <use xlink:href="#m0f37e075d2" x="125.777455" y="295.453698" style="fill: #1f77b4; stroke: #1f77b4"/>
     <use xlink:href="#m0f37e075d2" x="129.024" y="295.446318" style="fill: #1f77b4; stroke: #1f77b4"/>
     <use xlink:href="#m0f37e075d2" x="132.270545" y="295.439212" style="fill: #1f77b4; stroke: #1f77b4"/>
     <use xlink:href="#m0f37e075d2" x="135.517091" y="295.431908" style="fill: #1f77b4; stroke: #1f77b4"/>
     <use xlink:href="#m0f37e075d2" x="138.763636" y="295.424063" style="fill: #1f77b4; stroke: #1f77b4"/>
     <use xlink:href="#m0f37e075d2" x="142.010182" y="295.415352" style="fill: #1f77b4; stroke: #1f77b4"/>
     <use xlink:href="#m0f37e075d2" x="145.256727" y="295.405386" style="fill: #1f77b4; stroke: #1f77b4"/>
     <use xlink:href="#m0f37e075d2" x="148.503273" y="295.393647" style="fill: #1f77b4; stroke: #1f77b4"/>
     <use xlink:href="#m0f37e075d2" x="151.749818" y="295.379357" style="fill: #1f77b4; stroke: #1f77b4"/>
     <use xlink:href="#m0f37e075d2" x="154.996364" y="295.361269" style="fill: #1f77b4; stroke: #1f77b4"/>
     <use xlink:href="#m0f37e075d2" x="158.242909" y="295.337175" style="fill: #1f77b4; stroke: #1f77b4"/>
     <use xlink:href="#m0f37e075d2" x="161.489455" y="295.302723" style="fill: #1f77b4; stroke: #1f77b4"/>
     <use xlink:href="#m0f37e075d2" x="164.736" y="295.247844" style="fill: #1f77b4; stroke: #1f77b4"/>
     <use xlink:href="#m0f37e075d2" x="167.982545" y="295.142534" style="fill: #1f77b4; stroke: #1f77b4"/>
     <use xlink:href="#m0f37e075d2" x="171.229091" y="294.837557" style="fill: #1f77b4; stroke: #1f77b4"/>
     <use xlink:href="#m0f37e075d2" x="174.475636" y="101.831749" style="fill: #1f77b4; stroke: #1f77b4"/>
     <use xlink:href="#m0f37e075d2" x="177.722182" y="294.953569" style="fill: #1f77b4; stroke: #1f77b4"/>
     <use xlink:href="#m0f37e075d2" x="180.968727" y="295.264999" style="fill: #1f77b4; stroke: #1f77b4"/>
     <use xlink:href="#m0f37e075d2" x="184.215273" y="295.377295" style="fill: #1f77b4; stroke: #1f77b4"/>
     <use xlink:href="#m0f37e075d2" x="187.461818" y="295.442274" style="fill: #1f77b4; stroke: #1f77b4"/>
     <use xlink:href="#m0f37e075d2" x="190.708364" y="295.484698" style="fill: #1f77b4; stroke: #1f77b4"/>
     <use xlink:href="#m0f37e075d2" x="193.954909" y="295.439526" style="fill: #1f77b4; stroke: #1f77b4"/>
     <use xlink:href="#m0f37e075d2" x="197.201455" y="295.390204" style="fill: #1f77b4; stroke: #1f77b4"/>
     <use xlink:href="#m0f37e075d2" x="200.448" y="295.327175" style="fill: #1f77b4; stroke: #1f77b4"/>
     <use xlink:href="#m0f37e075d2" x="203.694545" y="295.231971" style="fill: #1f77b4; stroke: #1f77b4"/>
     <use xlink:href="#m0f37e075d2" x="206.941091" y="295.052129" style="fill: #1f77b4; stroke: #1f77b4"/>
     <use xlink:href="#m0f37e075d2" x="210.187636" y="294.52934" style="fill: #1f77b4; stroke: #1f77b4"/>
     <use xlink:href="#m0f37e075d2" x="213.434182" y="53.568" style="fill: #1f77b4; stroke: #1f77b4"/>
     <use xlink:href="#m0f37e075d2" x="216.680727" y="294.374309" style="fill: #1f77b4; stroke: #1f77b4"/>
     <use xlink:href="#m0f37e075d2" x="219.927273" y="294.90162" style="fill: #1f77b4; stroke: #1f77b4"/>
     <use xlink:href="#m0f37e075d2" x="223.173818" y="295.078841" style="fill: #1f77b4; stroke: #1f77b4"/>
     <use xlink:href="#m0f37e075d2" x="226.420364" y="295.168568" style="fill: #1f77b4; stroke: #1f77b4"/>
     <use xlink:href="#m0f37e075d2" x="229.666909" y="295.223187" style="fill: #1f77b4; stroke: #1f77b4"/>
     <use xlink:href="#m0f37e075d2" x="232.913455" y="295.260161" style="fill: #1f77b4; stroke: #1f77b4"/>
     <use xlink:href="#m0f37e075d2" x="236.16" y="295.286989" style="fill: #1f77b4; stroke: #1f77b4"/>
     <use xlink:href="#m0f37e075d2" x="239.406545" y="295.307429" style="fill: #1f77b4; stroke: #1f77b4"/>
     <use xlink:href="#m0f37e075d2" x="242.653091" y="295.323574" style="fill: #1f77b4; stroke: #1f77b4"/>
     <use xlink:href="#m0f37e075d2" x="245.899636" y="295.336689" style="fill: #1f77b4; stroke: #1f77b4"/>
     <use xlink:href="#m0f37e075d2" x="249.146182" y="295.347579" style="fill: #1f77b4; stroke: #1f77b4"/>
     <use xlink:href="#m0f37e075d2" x="252.392727" y="295.356785" style="fill: #1f77b4; stroke: #1f77b4"/>
     <use xlink:href="#m0f37e075d2" x="255.639273" y="295.364685" style="fill: #1f77b4; stroke: #1f77b4"/>
     <use xlink:href="#m0f37e075d2" x="258.885818" y="295.371549" style="fill: #1f77b4; stroke: #1f77b4"/>
     <use xlink:href="#m0f37e075d2" x="262.132364" y="295.377575" style="fill: #1f77b4; stroke: #1f77b4"/>
     <use xlink:href="#m0f37e075d2" x="265.378909" y="295.382916" style="fill: #1f77b4; stroke: #1f77b4"/>
     <use xlink:href="#m0f37e075d2" x="268.625455" y="295.387687" style="fill: #1f77b4; stroke: #1f77b4"/>
     <use xlink:href="#m0f37e075d2" x="271.872" y="295.391978" style="fill: #1f77b4; stroke: #1f77b4"/>
     <use xlink:href="#m0f37e075d2" x="275.118545" y="295.395862" style="fill: #1f77b4; stroke: #1f77b4"/>
     <use xlink:href="#m0f37e075d2" x="278.365091" y="295.399396" style="fill: #1f77b4; stroke: #1f77b4"/>
     <use xlink:href="#m0f37e075d2" x="281.611636" y="295.402629" style="fill: #1f77b4; stroke: #1f77b4"/>
     <use xlink:href="#m0f37e075d2" x="284.858182" y="295.4056" style="fill: #1f77b4; stroke: #1f77b4"/>
     <use xlink:href="#m0f37e075d2" x="288.104727" y="295.408339" style="fill: #1f77b4; stroke: #1f77b4"/>
     <use xlink:href="#m0f37e075d2" x="291.351273" y="295.410876" style="fill: #1f77b4; stroke: #1f77b4"/>
     <use xlink:href="#m0f37e075d2" x="294.597818" y="295.413232" style="fill: #1f77b4; stroke: #1f77b4"/>
     <use xlink:href="#m0f37e075d2" x="297.844364" y="295.415427" style="fill: #1f77b4; stroke: #1f77b4"/>
     <use xlink:href="#m0f37e075d2" x="301.090909" y="295.417479" style="fill: #1f77b4; stroke: #1f77b4"/>
     <use xlink:href="#m0f37e075d2" x="304.337455" y="295.419401" style="fill: #1f77b4; stroke: #1f77b4"/>
     <use xlink:href="#m0f37e075d2" x="307.584" y="295.421206" style="fill: #1f77b4; stroke: #1f77b4"/>
     <use xlink:href="#m0f37e075d2" x="310.830545" y="295.422905" style="fill: #1f77b4; stroke: #1f77b4"/>
     <use xlink:href="#m0f37e075d2" x="314.077091" y="295.424508" style="fill: #1f77b4; stroke: #1f77b4"/>
     <use xlink:href="#m0f37e075d2" x="317.323636" y="295.426022" style="fill: #1f77b4; stroke: #1f77b4"/>
     <use xlink:href="#m0f37e075d2" x="320.570182" y="295.427457" style="fill: #1f77b4; stroke: #1f77b4"/>
     <use xlink:href="#m0f37e075d2" x="323.816727" y="295.428817" style="fill: #1f77b4; stroke: #1f77b4"/>
     <use xlink:href="#m0f37e075d2" x="327.063273" y="295.430109" style="fill: #1f77b4; stroke: #1f77b4"/>
     <use xlink:href="#m0f37e075d2" x="330.309818" y="295.431339" style="fill: #1f77b4; stroke: #1f77b4"/>
     <use xlink:href="#m0f37e075d2" x="333.556364" y="295.43251" style="fill: #1f77b4; stroke: #1f77b4"/>
     <use xlink:href="#m0f37e075d2" x="336.802909" y="295.433628" style="fill: #1f77b4; stroke: #1f77b4"/>
     <use xlink:href="#m0f37e075d2" x="340.049455" y="295.434696" style="fill: #1f77b4; stroke: #1f77b4"/>
     <use xlink:href="#m0f37e075d2" x="343.296" y="295.435717" style="fill: #1f77b4; stroke: #1f77b4"/>
     <use xlink:href="#m0f37e075d2" x="346.542545" y="295.436695" style="fill: #1f77b4; stroke: #1f77b4"/>
     <use xlink:href="#m0f37e075d2" x="349.789091" y="295.437633" style="fill: #1f77b4; stroke: #1f77b4"/>
     <use xlink:href="#m0f37e075d2" x="353.035636" y="295.438533" style="fill: #1f77b4; stroke: #1f77b4"/>
     <use xlink:href="#m0f37e075d2" x="356.282182" y="295.439397" style="fill: #1f77b4; stroke: #1f77b4"/>
     <use xlink:href="#m0f37e075d2" x="359.528727" y="295.440228" style="fill: #1f77b4; stroke: #1f77b4"/>
     <use xlink:href="#m0f37e075d2" x="362.775273" y="295.441027" style="fill: #1f77b4; stroke: #1f77b4"/>
     <use xlink:href="#m0f37e075d2" x="366.021818" y="295.441798" style="fill: #1f77b4; stroke: #1f77b4"/>
     <use xlink:href="#m0f37e075d2" x="369.268364" y="295.44254" style="fill: #1f77b4; stroke: #1f77b4"/>
     <use xlink:href="#m0f37e075d2" x="372.514909" y="295.443256" style="fill: #1f77b4; stroke: #1f77b4"/>
     <use xlink:href="#m0f37e075d2" x="375.761455" y="295.443948" style="fill: #1f77b4; stroke: #1f77b4"/>
     <use xlink:href="#m0f37e075d2" x="379.008" y="295.444616" style="fill: #1f77b4; stroke: #1f77b4"/>
     <use xlink:href="#m0f37e075d2" x="382.254545" y="295.445261" style="fill: #1f77b4; stroke: #1f77b4"/>
     <use xlink:href="#m0f37e075d2" x="385.501091" y="295.445886" style="fill: #1f77b4; stroke: #1f77b4"/>
     <use xlink:href="#m0f37e075d2" x="388.747636" y="295.446491" style="fill: #1f77b4; stroke: #1f77b4"/>
     <use xlink:href="#m0f37e075d2" x="391.994182" y="295.447077" style="fill: #1f77b4; stroke: #1f77b4"/>
     <use xlink:href="#m0f37e075d2" x="395.240727" y="295.447645" style="fill: #1f77b4; stroke: #1f77b4"/>
     <use xlink:href="#m0f37e075d2" x="398.487273" y="295.448195" style="fill: #1f77b4; stroke: #1f77b4"/>
    </g>
   </g>
   <g id="line2d_16">
    <path d="M 73.832727 295.488 
L 398.487273 295.488 
" clip-path="url(#pd4f0977ded)" style="fill: none; stroke: #d62728; stroke-width: 1.5; stroke-linecap: square"/>
   </g>
   <g id="patch_3">
    <path d="M 57.6 307.584 
L 57.6 41.472 
" style="fill: none; stroke: #000000; stroke-width: 0.8; stroke-linejoin: miter; stroke-linecap: square"/>
   </g>
   <g id="patch_4">
    <path d="M 414.72 307.584 
L 414.72 41.472 
" style="fill: none; stroke: #000000; stroke-width: 0.8; stroke-linejoin: miter; stroke-linecap: square"/>
   </g>
   <g id="patch_5">
    <path d="M 57.6 307.584 
L 414.72 307.584 
" style="fill: none; stroke: #000000; stroke-width: 0.8; stroke-linejoin: miter; stroke-linecap: square"/>
   </g>
   <g id="patch_6">
    <path d="M 57.6 41.472 
L 414.72 41.472 
" style="fill: none; stroke: #000000; stroke-width: 0.8; stroke-linejoin: miter; stroke-linecap: square"/>
   </g>
   <g id="text_17">
    <!-- Transformata Fourier -->
    <g transform="translate(173.7075 35.472) scale(0.12 -0.12)">
     <defs>
      <path id="DejaVuSans-54" d="M -19 4666 
L 3928 4666 
L 3928 4134 
L 2272 4134 
L 2272 0 
L 1638 0 
L 1638 4134 
L -19 4134 
L -19 4666 
z
" transform="scale(0.015625)"/>
      <path id="DejaVuSans-73" d="M 2834 3397 
L 2834 2853 
Q 2591 2978 2328 3040 
Q 2066 3103 1784 3103 
Q 1356 3103 1142 2972 
Q 928 2841 928 2578 
Q 928 2378 1081 2264 
Q 1234 2150 1697 2047 
L 1894 2003 
Q 2506 1872 2764 1633 
Q 3022 1394 3022 966 
Q 3022 478 2636 193 
Q 2250 -91 1575 -91 
Q 1294 -91 989 -36 
Q 684 19 347 128 
L 347 722 
Q 666 556 975 473 
Q 1284 391 1588 391 
Q 1994 391 2212 530 
Q 2431 669 2431 922 
Q 2431 1156 2273 1281 
Q 2116 1406 1581 1522 
L 1381 1569 
Q 847 1681 609 1914 
Q 372 2147 372 2553 
Q 372 3047 722 3315 
Q 1072 3584 1716 3584 
Q 2034 3584 2315 3537 
Q 2597 3491 2834 3397 
z
" transform="scale(0.015625)"/>
      <path id="DejaVuSans-66" d="M 2375 4863 
L 2375 4384 
L 1825 4384 
Q 1516 4384 1395 4259 
Q 1275 4134 1275 3809 
L 1275 3500 
L 2222 3500 
L 2222 3053 
L 1275 3053 
L 1275 0 
L 697 0 
L 697 3053 
L 147 3053 
L 147 3500 
L 697 3500 
L 697 3744 
Q 697 4328 969 4595 
Q 1241 4863 1831 4863 
L 2375 4863 
z
" transform="scale(0.015625)"/>
      <path id="DejaVuSans-6f" d="M 1959 3097 
Q 1497 3097 1228 2736 
Q 959 2375 959 1747 
Q 959 1119 1226 758 
Q 1494 397 1959 397 
Q 2419 397 2687 759 
Q 2956 1122 2956 1747 
Q 2956 2369 2687 2733 
Q 2419 3097 1959 3097 
z
M 1959 3584 
Q 2709 3584 3137 3096 
Q 3566 2609 3566 1747 
Q 3566 888 3137 398 
Q 2709 -91 1959 -91 
Q 1206 -91 779 398 
Q 353 888 353 1747 
Q 353 2609 779 3096 
Q 1206 3584 1959 3584 
z
" transform="scale(0.015625)"/>
      <path id="DejaVuSans-6d" d="M 3328 2828 
Q 3544 3216 3844 3400 
Q 4144 3584 4550 3584 
Q 5097 3584 5394 3201 
Q 5691 2819 5691 2113 
L 5691 0 
L 5113 0 
L 5113 2094 
Q 5113 2597 4934 2840 
Q 4756 3084 4391 3084 
Q 3944 3084 3684 2787 
Q 3425 2491 3425 1978 
L 3425 0 
L 2847 0 
L 2847 2094 
Q 2847 2600 2669 2842 
Q 2491 3084 2119 3084 
Q 1678 3084 1418 2786 
Q 1159 2488 1159 1978 
L 1159 0 
L 581 0 
L 581 3500 
L 1159 3500 
L 1159 2956 
Q 1356 3278 1631 3431 
Q 1906 3584 2284 3584 
Q 2666 3584 2933 3390 
Q 3200 3197 3328 2828 
z
" transform="scale(0.015625)"/>
      <path id="DejaVuSans-75" d="M 544 1381 
L 544 3500 
L 1119 3500 
L 1119 1403 
Q 1119 906 1312 657 
Q 1506 409 1894 409 
Q 2359 409 2629 706 
Q 2900 1003 2900 1516 
L 2900 3500 
L 3475 3500 
L 3475 0 
L 2900 0 
L 2900 538 
Q 2691 219 2414 64 
Q 2138 -91 1772 -91 
Q 1169 -91 856 284 
Q 544 659 544 1381 
z
M 1991 3584 
L 1991 3584 
z
" transform="scale(0.015625)"/>
      <path id="DejaVuSans-69" d="M 603 3500 
L 1178 3500 
L 1178 0 
L 603 0 
L 603 3500 
z
M 603 4863 
L 1178 4863 
L 1178 4134 
L 603 4134 
L 603 4863 
z
" transform="scale(0.015625)"/>
     </defs>
     <use xlink:href="#DejaVuSans-54"/>
     <use xlink:href="#DejaVuSans-72" x="46.333984"/>
     <use xlink:href="#DejaVuSans-61" x="87.447266"/>
     <use xlink:href="#DejaVuSans-6e" x="148.726562"/>
     <use xlink:href="#DejaVuSans-73" x="212.105469"/>
     <use xlink:href="#DejaVuSans-66" x="264.205078"/>
     <use xlink:href="#DejaVuSans-6f" x="299.410156"/>
     <use xlink:href="#DejaVuSans-72" x="360.591797"/>
     <use xlink:href="#DejaVuSans-6d" x="399.955078"/>
     <use xlink:href="#DejaVuSans-61" x="497.367188"/>
     <use xlink:href="#DejaVuSans-74" x="558.646484"/>
     <use xlink:href="#DejaVuSans-61" x="597.855469"/>
     <use xlink:href="#DejaVuSans-20" x="659.134766"/>
     <use xlink:href="#DejaVuSans-46" x="690.921875"/>
     <use xlink:href="#DejaVuSans-6f" x="744.816406"/>
     <use xlink:href="#DejaVuSans-75" x="805.998047"/>
     <use xlink:href="#DejaVuSans-72" x="869.376953"/>
     <use xlink:href="#DejaVuSans-69" x="910.490234"/>
     <use xlink:href="#DejaVuSans-65" x="938.273438"/>
     <use xlink:href="#DejaVuSans-72" x="999.796875"/>
    </g>
   </g>
  </g>
 </g>
 <defs>
  <clipPath id="pd4f0977ded">
   <rect x="57.6" y="41.472" width="357.12" height="266.112"/>
  </clipPath>
 </defs>
</svg>
