<?xml version="1.0" encoding="utf-8" standalone="no"?>
<!DOCTYPE svg PUBLIC "-//W3C//DTD SVG 1.1//EN"
  "http://www.w3.org/Graphics/SVG/1.1/DTD/svg11.dtd">
<svg xmlns:xlink="http://www.w3.org/1999/xlink" width="460.8pt" height="345.6pt" viewBox="0 0 460.8 345.6" xmlns="http://www.w3.org/2000/svg" version="1.1">
 <metadata>
  <rdf:RDF xmlns:dc="http://purl.org/dc/elements/1.1/" xmlns:cc="http://creativecommons.org/ns#" xmlns:rdf="http://www.w3.org/1999/02/22-rdf-syntax-ns#">
   <cc:Work>
    <dc:type rdf:resource="http://purl.org/dc/dcmitype/StillImage"/>
    <dc:date>2024-10-18T20:56:12.841452</dc:date>
    <dc:format>image/svg+xml</dc:format>
    <dc:creator>
     <cc:Agent>
      <dc:title>Matplotlib v3.9.2, https://matplotlib.org/</dc:title>
     </cc:Agent>
    </dc:creator>
   </cc:Work>
  </rdf:RDF>
 </metadata>
 <defs>
  <style type="text/css">*{stroke-linejoin: round; stroke-linecap: butt}</style>
 </defs>
 <g id="figure_1">
  <g id="patch_1">
   <path d="M 0 345.6 
L 460.8 345.6 
L 460.8 0 
L 0 0 
z
" style="fill: #ffffff"/>
  </g>
  <g id="axes_1">
   <g id="patch_2">
    <path d="M 57.6 307.584 
L 414.72 307.584 
L 414.72 41.472 
L 57.6 41.472 
z
" style="fill: #ffffff"/>
   </g>
   <g id="matplotlib.axis_1">
    <g id="xtick_1">
     <g id="line2d_1">
      <defs>
       <path id="mfc7976ca79" d="M 0 0 
L 0 3.5 
" style="stroke: #000000; stroke-width: 0.8"/>
      </defs>
      <g>
       <use xlink:href="#mfc7976ca79" x="57.6" y="307.584" style="stroke: #000000; stroke-width: 0.8"/>
      </g>
     </g>
     <g id="text_1">
      <!-- −1.00 -->
      <g transform="translate(42.277344 322.182437) scale(0.1 -0.1)">
       <defs>
        <path id="DejaVuSans-2212" d="M 678 2272 
L 4684 2272 
L 4684 1741 
L 678 1741 
L 678 2272 
z
" transform="scale(0.015625)"/>
        <path id="DejaVuSans-31" d="M 794 531 
L 1825 531 
L 1825 4091 
L 703 3866 
L 703 4441 
L 1819 4666 
L 2450 4666 
L 2450 531 
L 3481 531 
L 3481 0 
L 794 0 
L 794 531 
z
" transform="scale(0.015625)"/>
        <path id="DejaVuSans-2e" d="M 684 794 
L 1344 794 
L 1344 0 
L 684 0 
L 684 794 
z
" transform="scale(0.015625)"/>
        <path id="DejaVuSans-30" d="M 2034 4250 
Q 1547 4250 1301 3770 
Q 1056 3291 1056 2328 
Q 1056 1369 1301 889 
Q 1547 409 2034 409 
Q 2525 409 2770 889 
Q 3016 1369 3016 2328 
Q 3016 3291 2770 3770 
Q 2525 4250 2034 4250 
z
M 2034 4750 
Q 2819 4750 3233 4129 
Q 3647 3509 3647 2328 
Q 3647 1150 3233 529 
Q 2819 -91 2034 -91 
Q 1250 -91 836 529 
Q 422 1150 422 2328 
Q 422 3509 836 4129 
Q 1250 4750 2034 4750 
z
" transform="scale(0.015625)"/>
       </defs>
       <use xlink:href="#DejaVuSans-2212"/>
       <use xlink:href="#DejaVuSans-31" x="83.789062"/>
       <use xlink:href="#DejaVuSans-2e" x="147.412109"/>
       <use xlink:href="#DejaVuSans-30" x="179.199219"/>
       <use xlink:href="#DejaVuSans-30" x="242.822266"/>
      </g>
     </g>
    </g>
    <g id="xtick_2">
     <g id="line2d_2">
      <g>
       <use xlink:href="#mfc7976ca79" x="102.24" y="307.584" style="stroke: #000000; stroke-width: 0.8"/>
      </g>
     </g>
     <g id="text_2">
      <!-- −0.75 -->
      <g transform="translate(86.917344 322.182437) scale(0.1 -0.1)">
       <defs>
        <path id="DejaVuSans-37" d="M 525 4666 
L 3525 4666 
L 3525 4397 
L 1831 0 
L 1172 0 
L 2766 4134 
L 525 4134 
L 525 4666 
z
" transform="scale(0.015625)"/>
        <path id="DejaVuSans-35" d="M 691 4666 
L 3169 4666 
L 3169 4134 
L 1269 4134 
L 1269 2991 
Q 1406 3038 1543 3061 
Q 1681 3084 1819 3084 
Q 2600 3084 3056 2656 
Q 3513 2228 3513 1497 
Q 3513 744 3044 326 
Q 2575 -91 1722 -91 
Q 1428 -91 1123 -41 
Q 819 9 494 109 
L 494 744 
Q 775 591 1075 516 
Q 1375 441 1709 441 
Q 2250 441 2565 725 
Q 2881 1009 2881 1497 
Q 2881 1984 2565 2268 
Q 2250 2553 1709 2553 
Q 1456 2553 1204 2497 
Q 953 2441 691 2322 
L 691 4666 
z
" transform="scale(0.015625)"/>
       </defs>
       <use xlink:href="#DejaVuSans-2212"/>
       <use xlink:href="#DejaVuSans-30" x="83.789062"/>
       <use xlink:href="#DejaVuSans-2e" x="147.412109"/>
       <use xlink:href="#DejaVuSans-37" x="179.199219"/>
       <use xlink:href="#DejaVuSans-35" x="242.822266"/>
      </g>
     </g>
    </g>
    <g id="xtick_3">
     <g id="line2d_3">
      <g>
       <use xlink:href="#mfc7976ca79" x="146.88" y="307.584" style="stroke: #000000; stroke-width: 0.8"/>
      </g>
     </g>
     <g id="text_3">
      <!-- −0.50 -->
      <g transform="translate(131.557344 322.182437) scale(0.1 -0.1)">
       <use xlink:href="#DejaVuSans-2212"/>
       <use xlink:href="#DejaVuSans-30" x="83.789062"/>
       <use xlink:href="#DejaVuSans-2e" x="147.412109"/>
       <use xlink:href="#DejaVuSans-35" x="179.199219"/>
       <use xlink:href="#DejaVuSans-30" x="242.822266"/>
      </g>
     </g>
    </g>
    <g id="xtick_4">
     <g id="line2d_4">
      <g>
       <use xlink:href="#mfc7976ca79" x="191.52" y="307.584" style="stroke: #000000; stroke-width: 0.8"/>
      </g>
     </g>
     <g id="text_4">
      <!-- −0.25 -->
      <g transform="translate(176.197344 322.182437) scale(0.1 -0.1)">
       <defs>
        <path id="DejaVuSans-32" d="M 1228 531 
L 3431 531 
L 3431 0 
L 469 0 
L 469 531 
Q 828 903 1448 1529 
Q 2069 2156 2228 2338 
Q 2531 2678 2651 2914 
Q 2772 3150 2772 3378 
Q 2772 3750 2511 3984 
Q 2250 4219 1831 4219 
Q 1534 4219 1204 4116 
Q 875 4013 500 3803 
L 500 4441 
Q 881 4594 1212 4672 
Q 1544 4750 1819 4750 
Q 2544 4750 2975 4387 
Q 3406 4025 3406 3419 
Q 3406 3131 3298 2873 
Q 3191 2616 2906 2266 
Q 2828 2175 2409 1742 
Q 1991 1309 1228 531 
z
" transform="scale(0.015625)"/>
       </defs>
       <use xlink:href="#DejaVuSans-2212"/>
       <use xlink:href="#DejaVuSans-30" x="83.789062"/>
       <use xlink:href="#DejaVuSans-2e" x="147.412109"/>
       <use xlink:href="#DejaVuSans-32" x="179.199219"/>
       <use xlink:href="#DejaVuSans-35" x="242.822266"/>
      </g>
     </g>
    </g>
    <g id="xtick_5">
     <g id="line2d_5">
      <g>
       <use xlink:href="#mfc7976ca79" x="236.16" y="307.584" style="stroke: #000000; stroke-width: 0.8"/>
      </g>
     </g>
     <g id="text_5">
      <!-- 0.00 -->
      <g transform="translate(225.027187 322.182437) scale(0.1 -0.1)">
       <use xlink:href="#DejaVuSans-30"/>
       <use xlink:href="#DejaVuSans-2e" x="63.623047"/>
       <use xlink:href="#DejaVuSans-30" x="95.410156"/>
       <use xlink:href="#DejaVuSans-30" x="159.033203"/>
      </g>
     </g>
    </g>
    <g id="xtick_6">
     <g id="line2d_6">
      <g>
       <use xlink:href="#mfc7976ca79" x="280.8" y="307.584" style="stroke: #000000; stroke-width: 0.8"/>
      </g>
     </g>
     <g id="text_6">
      <!-- 0.25 -->
      <g transform="translate(269.667188 322.182437) scale(0.1 -0.1)">
       <use xlink:href="#DejaVuSans-30"/>
       <use xlink:href="#DejaVuSans-2e" x="63.623047"/>
       <use xlink:href="#DejaVuSans-32" x="95.410156"/>
       <use xlink:href="#DejaVuSans-35" x="159.033203"/>
      </g>
     </g>
    </g>
    <g id="xtick_7">
     <g id="line2d_7">
      <g>
       <use xlink:href="#mfc7976ca79" x="325.44" y="307.584" style="stroke: #000000; stroke-width: 0.8"/>
      </g>
     </g>
     <g id="text_7">
      <!-- 0.50 -->
      <g transform="translate(314.307187 322.182437) scale(0.1 -0.1)">
       <use xlink:href="#DejaVuSans-30"/>
       <use xlink:href="#DejaVuSans-2e" x="63.623047"/>
       <use xlink:href="#DejaVuSans-35" x="95.410156"/>
       <use xlink:href="#DejaVuSans-30" x="159.033203"/>
      </g>
     </g>
    </g>
    <g id="xtick_8">
     <g id="line2d_8">
      <g>
       <use xlink:href="#mfc7976ca79" x="370.08" y="307.584" style="stroke: #000000; stroke-width: 0.8"/>
      </g>
     </g>
     <g id="text_8">
      <!-- 0.75 -->
      <g transform="translate(358.947188 322.182437) scale(0.1 -0.1)">
       <use xlink:href="#DejaVuSans-30"/>
       <use xlink:href="#DejaVuSans-2e" x="63.623047"/>
       <use xlink:href="#DejaVuSans-37" x="95.410156"/>
       <use xlink:href="#DejaVuSans-35" x="159.033203"/>
      </g>
     </g>
    </g>
    <g id="xtick_9">
     <g id="line2d_9">
      <g>
       <use xlink:href="#mfc7976ca79" x="414.72" y="307.584" style="stroke: #000000; stroke-width: 0.8"/>
      </g>
     </g>
     <g id="text_9">
      <!-- 1.00 -->
      <g transform="translate(403.587188 322.182437) scale(0.1 -0.1)">
       <use xlink:href="#DejaVuSans-31"/>
       <use xlink:href="#DejaVuSans-2e" x="63.623047"/>
       <use xlink:href="#DejaVuSans-30" x="95.410156"/>
       <use xlink:href="#DejaVuSans-30" x="159.033203"/>
      </g>
     </g>
    </g>
    <g id="text_10">
     <!-- Real -->
     <g transform="translate(225.381094 335.860562) scale(0.1 -0.1)">
      <defs>
       <path id="DejaVuSans-52" d="M 2841 2188 
Q 3044 2119 3236 1894 
Q 3428 1669 3622 1275 
L 4263 0 
L 3584 0 
L 2988 1197 
Q 2756 1666 2539 1819 
Q 2322 1972 1947 1972 
L 1259 1972 
L 1259 0 
L 628 0 
L 628 4666 
L 2053 4666 
Q 2853 4666 3247 4331 
Q 3641 3997 3641 3322 
Q 3641 2881 3436 2590 
Q 3231 2300 2841 2188 
z
M 1259 4147 
L 1259 2491 
L 2053 2491 
Q 2509 2491 2742 2702 
Q 2975 2913 2975 3322 
Q 2975 3731 2742 3939 
Q 2509 4147 2053 4147 
L 1259 4147 
z
" transform="scale(0.015625)"/>
       <path id="DejaVuSans-65" d="M 3597 1894 
L 3597 1613 
L 953 1613 
Q 991 1019 1311 708 
Q 1631 397 2203 397 
Q 2534 397 2845 478 
Q 3156 559 3463 722 
L 3463 178 
Q 3153 47 2828 -22 
Q 2503 -91 2169 -91 
Q 1331 -91 842 396 
Q 353 884 353 1716 
Q 353 2575 817 3079 
Q 1281 3584 2069 3584 
Q 2775 3584 3186 3129 
Q 3597 2675 3597 1894 
z
M 3022 2063 
Q 3016 2534 2758 2815 
Q 2500 3097 2075 3097 
Q 1594 3097 1305 2825 
Q 1016 2553 972 2059 
L 3022 2063 
z
" transform="scale(0.015625)"/>
       <path id="DejaVuSans-61" d="M 2194 1759 
Q 1497 1759 1228 1600 
Q 959 1441 959 1056 
Q 959 750 1161 570 
Q 1363 391 1709 391 
Q 2188 391 2477 730 
Q 2766 1069 2766 1631 
L 2766 1759 
L 2194 1759 
z
M 3341 1997 
L 3341 0 
L 2766 0 
L 2766 531 
Q 2569 213 2275 61 
Q 1981 -91 1556 -91 
Q 1019 -91 701 211 
Q 384 513 384 1019 
Q 384 1609 779 1909 
Q 1175 2209 1959 2209 
L 2766 2209 
L 2766 2266 
Q 2766 2663 2505 2880 
Q 2244 3097 1772 3097 
Q 1472 3097 1187 3025 
Q 903 2953 641 2809 
L 641 3341 
Q 956 3463 1253 3523 
Q 1550 3584 1831 3584 
Q 2591 3584 2966 3190 
Q 3341 2797 3341 1997 
z
" transform="scale(0.015625)"/>
       <path id="DejaVuSans-6c" d="M 603 4863 
L 1178 4863 
L 1178 0 
L 603 0 
L 603 4863 
z
" transform="scale(0.015625)"/>
      </defs>
      <use xlink:href="#DejaVuSans-52"/>
      <use xlink:href="#DejaVuSans-65" x="64.982422"/>
      <use xlink:href="#DejaVuSans-61" x="126.505859"/>
      <use xlink:href="#DejaVuSans-6c" x="187.785156"/>
     </g>
    </g>
   </g>
   <g id="matplotlib.axis_2">
    <g id="ytick_1">
     <g id="line2d_10">
      <defs>
       <path id="mcc187ee99f" d="M 0 0 
L -3.5 0 
" style="stroke: #000000; stroke-width: 0.8"/>
      </defs>
      <g>
       <use xlink:href="#mcc187ee99f" x="57.6" y="307.584" style="stroke: #000000; stroke-width: 0.8"/>
      </g>
     </g>
     <g id="text_11">
      <!-- −1.00 -->
      <g transform="translate(19.954687 311.383219) scale(0.1 -0.1)">
       <use xlink:href="#DejaVuSans-2212"/>
       <use xlink:href="#DejaVuSans-31" x="83.789062"/>
       <use xlink:href="#DejaVuSans-2e" x="147.412109"/>
       <use xlink:href="#DejaVuSans-30" x="179.199219"/>
       <use xlink:href="#DejaVuSans-30" x="242.822266"/>
      </g>
     </g>
    </g>
    <g id="ytick_2">
     <g id="line2d_11">
      <g>
       <use xlink:href="#mcc187ee99f" x="57.6" y="274.32" style="stroke: #000000; stroke-width: 0.8"/>
      </g>
     </g>
     <g id="text_12">
      <!-- −0.75 -->
      <g transform="translate(19.954687 278.119219) scale(0.1 -0.1)">
       <use xlink:href="#DejaVuSans-2212"/>
       <use xlink:href="#DejaVuSans-30" x="83.789062"/>
       <use xlink:href="#DejaVuSans-2e" x="147.412109"/>
       <use xlink:href="#DejaVuSans-37" x="179.199219"/>
       <use xlink:href="#DejaVuSans-35" x="242.822266"/>
      </g>
     </g>
    </g>
    <g id="ytick_3">
     <g id="line2d_12">
      <g>
       <use xlink:href="#mcc187ee99f" x="57.6" y="241.056" style="stroke: #000000; stroke-width: 0.8"/>
      </g>
     </g>
     <g id="text_13">
      <!-- −0.50 -->
      <g transform="translate(19.954687 244.855219) scale(0.1 -0.1)">
       <use xlink:href="#DejaVuSans-2212"/>
       <use xlink:href="#DejaVuSans-30" x="83.789062"/>
       <use xlink:href="#DejaVuSans-2e" x="147.412109"/>
       <use xlink:href="#DejaVuSans-35" x="179.199219"/>
       <use xlink:href="#DejaVuSans-30" x="242.822266"/>
      </g>
     </g>
    </g>
    <g id="ytick_4">
     <g id="line2d_13">
      <g>
       <use xlink:href="#mcc187ee99f" x="57.6" y="207.792" style="stroke: #000000; stroke-width: 0.8"/>
      </g>
     </g>
     <g id="text_14">
      <!-- −0.25 -->
      <g transform="translate(19.954687 211.591219) scale(0.1 -0.1)">
       <use xlink:href="#DejaVuSans-2212"/>
       <use xlink:href="#DejaVuSans-30" x="83.789062"/>
       <use xlink:href="#DejaVuSans-2e" x="147.412109"/>
       <use xlink:href="#DejaVuSans-32" x="179.199219"/>
       <use xlink:href="#DejaVuSans-35" x="242.822266"/>
      </g>
     </g>
    </g>
    <g id="ytick_5">
     <g id="line2d_14">
      <g>
       <use xlink:href="#mcc187ee99f" x="57.6" y="174.528" style="stroke: #000000; stroke-width: 0.8"/>
      </g>
     </g>
     <g id="text_15">
      <!-- 0.00 -->
      <g transform="translate(28.334375 178.327219) scale(0.1 -0.1)">
       <use xlink:href="#DejaVuSans-30"/>
       <use xlink:href="#DejaVuSans-2e" x="63.623047"/>
       <use xlink:href="#DejaVuSans-30" x="95.410156"/>
       <use xlink:href="#DejaVuSans-30" x="159.033203"/>
      </g>
     </g>
    </g>
    <g id="ytick_6">
     <g id="line2d_15">
      <g>
       <use xlink:href="#mcc187ee99f" x="57.6" y="141.264" style="stroke: #000000; stroke-width: 0.8"/>
      </g>
     </g>
     <g id="text_16">
      <!-- 0.25 -->
      <g transform="translate(28.334375 145.063219) scale(0.1 -0.1)">
       <use xlink:href="#DejaVuSans-30"/>
       <use xlink:href="#DejaVuSans-2e" x="63.623047"/>
       <use xlink:href="#DejaVuSans-32" x="95.410156"/>
       <use xlink:href="#DejaVuSans-35" x="159.033203"/>
      </g>
     </g>
    </g>
    <g id="ytick_7">
     <g id="line2d_16">
      <g>
       <use xlink:href="#mcc187ee99f" x="57.6" y="108" style="stroke: #000000; stroke-width: 0.8"/>
      </g>
     </g>
     <g id="text_17">
      <!-- 0.50 -->
      <g transform="translate(28.334375 111.799219) scale(0.1 -0.1)">
       <use xlink:href="#DejaVuSans-30"/>
       <use xlink:href="#DejaVuSans-2e" x="63.623047"/>
       <use xlink:href="#DejaVuSans-35" x="95.410156"/>
       <use xlink:href="#DejaVuSans-30" x="159.033203"/>
      </g>
     </g>
    </g>
    <g id="ytick_8">
     <g id="line2d_17">
      <g>
       <use xlink:href="#mcc187ee99f" x="57.6" y="74.736" style="stroke: #000000; stroke-width: 0.8"/>
      </g>
     </g>
     <g id="text_18">
      <!-- 0.75 -->
      <g transform="translate(28.334375 78.535219) scale(0.1 -0.1)">
       <use xlink:href="#DejaVuSans-30"/>
       <use xlink:href="#DejaVuSans-2e" x="63.623047"/>
       <use xlink:href="#DejaVuSans-37" x="95.410156"/>
       <use xlink:href="#DejaVuSans-35" x="159.033203"/>
      </g>
     </g>
    </g>
    <g id="ytick_9">
     <g id="line2d_18">
      <g>
       <use xlink:href="#mcc187ee99f" x="57.6" y="41.472" style="stroke: #000000; stroke-width: 0.8"/>
      </g>
     </g>
     <g id="text_19">
      <!-- 1.00 -->
      <g transform="translate(28.334375 45.271219) scale(0.1 -0.1)">
       <use xlink:href="#DejaVuSans-31"/>
       <use xlink:href="#DejaVuSans-2e" x="63.623047"/>
       <use xlink:href="#DejaVuSans-30" x="95.410156"/>
       <use xlink:href="#DejaVuSans-30" x="159.033203"/>
      </g>
     </g>
    </g>
    <g id="text_20">
     <!-- Imaginar -->
     <g transform="translate(13.875 196.788938) rotate(-90) scale(0.1 -0.1)">
      <defs>
       <path id="DejaVuSans-49" d="M 628 4666 
L 1259 4666 
L 1259 0 
L 628 0 
L 628 4666 
z
" transform="scale(0.015625)"/>
       <path id="DejaVuSans-6d" d="M 3328 2828 
Q 3544 3216 3844 3400 
Q 4144 3584 4550 3584 
Q 5097 3584 5394 3201 
Q 5691 2819 5691 2113 
L 5691 0 
L 5113 0 
L 5113 2094 
Q 5113 2597 4934 2840 
Q 4756 3084 4391 3084 
Q 3944 3084 3684 2787 
Q 3425 2491 3425 1978 
L 3425 0 
L 2847 0 
L 2847 2094 
Q 2847 2600 2669 2842 
Q 2491 3084 2119 3084 
Q 1678 3084 1418 2786 
Q 1159 2488 1159 1978 
L 1159 0 
L 581 0 
L 581 3500 
L 1159 3500 
L 1159 2956 
Q 1356 3278 1631 3431 
Q 1906 3584 2284 3584 
Q 2666 3584 2933 3390 
Q 3200 3197 3328 2828 
z
" transform="scale(0.015625)"/>
       <path id="DejaVuSans-67" d="M 2906 1791 
Q 2906 2416 2648 2759 
Q 2391 3103 1925 3103 
Q 1463 3103 1205 2759 
Q 947 2416 947 1791 
Q 947 1169 1205 825 
Q 1463 481 1925 481 
Q 2391 481 2648 825 
Q 2906 1169 2906 1791 
z
M 3481 434 
Q 3481 -459 3084 -895 
Q 2688 -1331 1869 -1331 
Q 1566 -1331 1297 -1286 
Q 1028 -1241 775 -1147 
L 775 -588 
Q 1028 -725 1275 -790 
Q 1522 -856 1778 -856 
Q 2344 -856 2625 -561 
Q 2906 -266 2906 331 
L 2906 616 
Q 2728 306 2450 153 
Q 2172 0 1784 0 
Q 1141 0 747 490 
Q 353 981 353 1791 
Q 353 2603 747 3093 
Q 1141 3584 1784 3584 
Q 2172 3584 2450 3431 
Q 2728 3278 2906 2969 
L 2906 3500 
L 3481 3500 
L 3481 434 
z
" transform="scale(0.015625)"/>
       <path id="DejaVuSans-69" d="M 603 3500 
L 1178 3500 
L 1178 0 
L 603 0 
L 603 3500 
z
M 603 4863 
L 1178 4863 
L 1178 4134 
L 603 4134 
L 603 4863 
z
" transform="scale(0.015625)"/>
       <path id="DejaVuSans-6e" d="M 3513 2113 
L 3513 0 
L 2938 0 
L 2938 2094 
Q 2938 2591 2744 2837 
Q 2550 3084 2163 3084 
Q 1697 3084 1428 2787 
Q 1159 2491 1159 1978 
L 1159 0 
L 581 0 
L 581 3500 
L 1159 3500 
L 1159 2956 
Q 1366 3272 1645 3428 
Q 1925 3584 2291 3584 
Q 2894 3584 3203 3211 
Q 3513 2838 3513 2113 
z
" transform="scale(0.015625)"/>
       <path id="DejaVuSans-72" d="M 2631 2963 
Q 2534 3019 2420 3045 
Q 2306 3072 2169 3072 
Q 1681 3072 1420 2755 
Q 1159 2438 1159 1844 
L 1159 0 
L 581 0 
L 581 3500 
L 1159 3500 
L 1159 2956 
Q 1341 3275 1631 3429 
Q 1922 3584 2338 3584 
Q 2397 3584 2469 3576 
Q 2541 3569 2628 3553 
L 2631 2963 
z
" transform="scale(0.015625)"/>
      </defs>
      <use xlink:href="#DejaVuSans-49"/>
      <use xlink:href="#DejaVuSans-6d" x="29.492188"/>
      <use xlink:href="#DejaVuSans-61" x="126.904297"/>
      <use xlink:href="#DejaVuSans-67" x="188.183594"/>
      <use xlink:href="#DejaVuSans-69" x="251.660156"/>
      <use xlink:href="#DejaVuSans-6e" x="279.443359"/>
      <use xlink:href="#DejaVuSans-61" x="342.822266"/>
      <use xlink:href="#DejaVuSans-72" x="404.101562"/>
     </g>
    </g>
   </g>
   <g id="line2d_19">
    <path d="M 57.6 174.528 
L 414.72 174.528 
" clip-path="url(#p03fe203af5)" style="fill: none; stroke: #000000; stroke-width: 1.5; stroke-linecap: square"/>
   </g>
   <g id="line2d_20">
    <path d="M 236.16 307.584 
L 236.16 41.472 
" clip-path="url(#p03fe203af5)" style="fill: none; stroke: #000000; stroke-width: 1.5; stroke-linecap: square"/>
   </g>
   <g id="line2d_21">
    <path d="M 236.16 174.528 
L 244.234481 174.641439 
L 252.283837 174.98121 
L 260.28304 175.545681 
L 268.207257 176.332139 
L 276.031946 177.336802 
L 283.732952 178.554835 
L 291.2866 179.980369 
L 298.669785 181.606528 
L 305.860066 183.425457 
L 312.835748 185.428353 
L 319.575967 187.605506 
L 326.060772 189.946336 
L 332.271199 192.43944 
L 338.189345 195.072641 
L 343.798437 197.833037 
L 349.082894 200.707054 
L 354.028386 203.680509 
L 358.621889 206.738664 
L 362.85173 209.866293 
L 366.091347 212.514438 
L 369.066074 215.190713 
L 371.77143 217.885718 
L 374.203647 220.589938 
L 376.359682 223.293763 
L 378.237223 225.987525 
L 379.834693 228.66152 
L 381.151254 231.306039 
L 382.186806 233.911397 
L 382.941988 236.467962 
L 383.418172 238.966182 
L 383.617456 241.396614 
L 383.542662 243.749953 
L 383.197322 246.017058 
L 382.729076 247.762634 
L 382.092856 249.442807 
L 381.291423 251.053194 
L 380.061937 252.961537 
L 378.58555 254.746066 
L 376.869382 256.398987 
L 374.921155 257.912835 
L 372.749172 259.280495 
L 370.362291 260.495226 
L 367.769899 261.550677 
L 364.981882 262.440915 
L 362.008598 263.160433 
L 358.860846 263.704175 
L 355.549832 264.067548 
L 352.087138 264.246439 
L 348.484686 264.237225 
L 344.754707 264.036788 
L 340.128013 263.54022 
L 335.357729 262.761064 
L 330.466285 261.69692 
L 325.476408 260.346501 
L 320.41103 258.709649 
L 315.293188 256.787334 
L 310.145933 254.581659 
L 304.992228 252.09585 
L 299.854856 249.334251 
L 294.756326 246.302309 
L 289.718777 243.006554 
L 284.763889 239.45458 
L 279.912788 235.655015 
L 275.185967 231.617489 
L 271.356172 228.078728 
L 267.637442 224.388689 
L 264.040376 220.554433 
L 260.575124 216.58343 
L 257.251356 212.483544 
L 254.078238 208.263013 
L 251.064404 203.930422 
L 248.217932 199.494684 
L 245.546319 194.965018 
L 243.056466 190.350918 
L 240.754651 185.662135 
L 238.646519 180.908645 
L 236.737058 176.100625 
L 235.030593 171.248425 
L 233.530771 166.362542 
L 232.240549 161.453588 
L 231.162192 156.532262 
L 230.29726 151.609326 
L 229.646609 146.69557 
L 229.21039 141.801784 
L 228.988046 136.938732 
L 228.978316 132.117119 
L 229.179241 127.347564 
L 229.588167 122.640572 
L 230.201759 118.006503 
L 231.016004 113.455545 
L 232.026233 108.997688 
L 233.227126 104.642696 
L 234.612734 100.400078 
L 236.176496 96.279067 
L 237.911261 92.288591 
L 239.809303 88.437251 
L 241.862353 84.733298 
L 244.061617 81.184609 
L 246.397808 77.798667 
L 248.861169 74.582542 
L 251.441506 71.54287 
L 254.128216 68.685837 
L 256.910322 66.01716 
L 259.776503 63.542076 
L 262.715129 61.265324 
L 265.714294 59.191136 
L 268.761856 57.323225 
L 271.84547 55.664771 
L 274.952625 54.218423 
L 278.070684 52.986281 
L 281.186917 51.969899 
L 284.288546 51.17028 
L 287.362776 50.58787 
L 290.39684 50.222564 
L 293.378032 50.073699 
L 296.29375 50.140067 
L 299.13153 50.419911 
L 301.879084 50.910932 
L 304.524339 51.6103 
L 307.055475 52.51466 
L 309.460955 53.620142 
L 311.729564 54.922375 
L 313.850444 56.416497 
L 315.813124 58.09717 
L 317.607555 59.9586 
L 319.224138 61.994548 
L 320.653756 64.198351 
L 321.8878 66.562942 
L 322.918197 69.080869 
L 323.737436 71.744319 
L 324.338591 74.545137 
L 324.715341 77.474854 
L 324.861993 80.524707 
L 324.7735 83.685666 
L 324.445475 86.948461 
L 323.874209 90.303608 
L 323.056685 93.741434 
L 321.990582 97.252109 
L 320.674291 100.825669 
L 319.10692 104.452047 
L 317.288295 108.121103 
L 315.218969 111.822651 
L 312.900217 115.546487 
L 310.334038 119.282421 
L 307.52315 123.020301 
L 304.470987 126.750049 
L 301.181685 130.46168 
L 297.660083 134.145341 
L 293.911699 137.791328 
L 289.942727 141.390123 
L 284.898472 145.633285 
L 279.55951 149.779451 
L 273.940164 153.813526 
L 268.055978 157.721028 
L 261.923658 161.488139 
L 255.561014 165.101766 
L 248.986887 168.549589 
L 242.221079 171.820111 
L 235.284275 174.902706 
L 228.197965 177.787656 
L 220.984359 180.466192 
L 213.666301 182.930527 
L 206.26718 185.173887 
L 198.810841 187.190534 
L 191.321486 188.975789 
L 183.823584 190.526049 
L 176.341774 191.838796 
L 168.900767 192.912611 
L 161.525247 193.747168 
L 154.23978 194.343243 
L 147.068708 194.7027 
L 140.036063 194.828481 
L 133.165462 194.724595 
L 126.480022 194.396097 
L 120.002264 193.84906 
L 113.754026 193.090553 
L 107.756374 192.128604 
L 102.029523 190.972164 
L 96.592752 189.63107 
L 91.464332 188.115998 
L 86.661451 186.438416 
L 82.200149 184.610533 
L 78.75406 182.981772 
L 75.563403 181.265382 
L 72.635453 179.469447 
L 69.976826 177.602305 
L 67.593468 175.672524 
L 65.490635 173.688879 
L 63.672879 171.66032 
L 62.144039 169.595951 
L 60.907225 167.504999 
L 59.964814 165.396783 
L 59.423982 163.70409 
L 59.073125 162.011183 
L 58.912433 160.322895 
L 58.94179 158.644057 
L 59.160773 156.979487 
L 59.568656 155.333981 
L 60.164408 153.712304 
L 60.946699 152.119183 
L 62.184369 150.175056 
L 63.707103 148.291853 
L 65.510357 146.478408 
L 67.588889 144.743356 
L 69.936774 143.095114 
L 72.547421 141.541845 
L 75.413592 140.091443 
L 78.527423 138.751502 
L 81.880445 137.529296 
L 85.463608 136.431754 
L 89.267308 135.465443 
L 94.108555 134.487768 
L 99.234307 133.717849 
L 104.625151 133.164711 
L 110.260794 132.836453 
L 116.120144 132.740212 
L 122.181391 132.88213 
L 128.422104 133.267324 
L 134.81931 133.899864 
L 141.349598 134.782748 
L 147.989204 135.917887 
L 154.714111 137.306096 
L 161.500145 138.947083 
L 168.323072 140.83945 
L 175.158692 142.980692 
L 181.98294 145.367206 
L 188.771981 147.994301 
L 195.502301 150.856213 
L 202.150805 153.946126 
L 208.694909 157.256199 
L 215.112626 160.777588 
L 221.382655 164.500488 
L 227.484464 168.414162 
L 233.398371 172.506986 
L 239.105624 176.766496 
L 244.588469 181.179429 
L 249.830221 185.731781 
L 254.815331 190.408859 
L 258.76315 194.390662 
L 262.515104 198.439274 
L 266.064169 202.545272 
L 269.40396 206.699006 
L 272.528746 210.890631 
L 275.433472 215.110128 
L 278.113764 219.347338 
L 280.565944 223.591985 
L 282.787035 227.833707 
L 284.774771 232.062084 
L 286.5276 236.266667 
L 288.044688 240.437007 
L 289.325915 244.562684 
L 290.371879 248.633335 
L 291.183887 252.638687 
L 291.763954 256.568579 
L 292.114791 260.412997 
L 292.239797 264.162096 
L 292.143049 267.806232 
L 291.829286 271.335989 
L 291.30389 274.742202 
L 290.572878 278.015984 
L 289.642873 281.148753 
L 288.521087 284.132254 
L 287.215299 286.958583 
L 285.733829 289.62021 
L 284.085514 292.109997 
L 282.279678 294.421222 
L 280.326103 296.547597 
L 278.235002 298.483285 
L 276.016987 300.222914 
L 273.683032 301.7616 
L 271.244445 303.094952 
L 268.712832 304.21909 
L 266.100058 305.130653 
L 263.418217 305.826814 
L 260.67959 306.305279 
L 257.896611 306.564304 
L 255.081828 306.602693 
L 252.247863 306.419803 
L 249.407379 306.015548 
L 246.573038 305.390399 
L 243.757461 304.545382 
L 240.973193 303.482076 
L 238.232667 302.202608 
L 235.548158 300.70965 
L 232.931757 299.006407 
L 230.395324 297.096616 
L 227.95046 294.984526 
L 225.608466 292.674896 
L 223.380312 290.172976 
L 221.276604 287.484494 
L 219.30755 284.615641 
L 217.482927 281.573056 
L 215.812057 278.363803 
L 214.303773 274.995356 
L 212.966393 271.475575 
L 211.807696 267.812688 
L 210.834897 264.015266 
L 210.054626 260.0922 
L 209.472901 256.052677 
L 209.095119 251.906154 
L 208.926031 247.662332 
L 208.969728 243.331131 
L 209.229631 238.922662 
L 209.708476 234.447197 
L 210.408306 229.915144 
L 211.330464 225.337016 
L 212.475586 220.723405 
L 213.843598 216.08495 
L 215.433717 211.432308 
L 217.244449 206.77613 
L 219.273592 202.127023 
L 221.518241 197.49553 
L 223.974797 192.892094 
L 226.638974 188.327035 
L 229.505809 183.810518 
L 232.569677 179.352528 
L 235.824306 174.962842 
L 239.26279 170.651003 
L 242.877612 166.426291 
L 246.660662 162.297704 
L 250.60326 158.273929 
L 254.696178 154.36332 
L 259.792342 149.831206 
L 265.073123 145.486653 
L 270.519787 141.341936 
L 276.112719 137.408451 
L 281.831506 133.696674 
L 287.655014 130.216123 
L 293.561474 126.975323 
L 299.528575 123.981773 
L 305.533549 121.241921 
L 311.553262 118.761141 
L 317.564315 116.543713 
L 323.543134 114.592816 
L 329.466064 112.91051 
L 335.309471 111.497739 
L 341.049837 110.354328 
L 346.663853 109.478989 
L 352.128519 108.869328 
L 357.421234 108.521863 
L 362.519893 108.43204 
L 367.402975 108.594256 
L 372.049635 109.001886 
L 376.439786 109.647315 
L 379.888391 110.360671 
L 383.134836 111.227783 
L 386.168948 112.242782 
L 388.981058 113.399389 
L 391.562034 114.690941 
L 393.9033 116.110409 
L 395.996868 117.650419 
L 397.835358 119.303277 
L 399.41202 121.060988 
L 400.720755 122.915286 
L 401.571164 124.462553 
L 402.244145 126.061728 
L 402.737518 127.708263 
L 403.049392 129.397539 
L 403.178171 131.124872 
L 403.122553 132.88552 
L 402.881538 134.674698 
L 402.454425 136.487581 
L 401.658259 138.779626 
L 400.570612 141.09161 
L 399.192121 143.414 
L 397.524169 145.737275 
L 395.568876 148.051953 
L 393.329101 150.34862 
L 390.808431 152.61796 
L 388.011173 154.85078 
L 384.942344 157.038039 
L 381.607655 159.170878 
L 378.013503 161.24064 
L 373.368013 163.62925 
L 368.372519 165.90085 
L 363.041731 168.041968 
L 357.391594 170.039787 
L 351.439224 171.882194 
L 345.202841 173.557836 
L 338.701699 175.05617 
L 331.956014 176.367505 
L 324.986881 177.483049 
L 317.816196 178.394943 
L 310.466566 179.0963 
L 302.961229 179.581231 
L 295.323953 179.844876 
L 287.578952 179.88342 
L 279.750787 179.694118 
L 271.864273 179.275302 
L 263.944378 178.62639 
L 256.016129 177.747894 
L 248.104516 176.641417 
L 240.234389 175.309647 
L 232.430367 173.756349 
L 224.716737 171.986347 
L 217.117367 170.005513 
L 209.655604 167.820734 
L 202.354191 165.439892 
L 195.235178 162.871831 
L 188.319833 160.126317 
L 181.628563 157.214005 
L 175.180837 154.14639 
L 168.995109 150.935765 
L 163.08875 147.595165 
L 157.477981 144.138318 
L 152.17781 140.57959 
L 147.201983 136.933919 
L 142.562923 133.216761 
L 138.271693 129.444022 
L 134.968383 126.269357 
L 131.918185 123.077 
L 129.12522 119.876676 
L 126.592901 116.678208 
L 124.323913 113.491486 
L 122.320219 110.326443 
L 120.583048 107.193023 
L 119.112898 104.101153 
L 117.909535 101.060715 
L 116.971998 98.081514 
L 116.298601 95.173256 
L 115.886942 92.345513 
L 115.73391 89.607699 
L 115.8357 86.96904 
L 116.187819 84.438552 
L 116.785109 82.025005 
L 117.621757 79.73691 
L 118.691317 77.582482 
L 119.98673 75.569622 
L 121.500344 73.705894 
L 123.223942 71.998501 
L 125.148762 70.454261 
L 127.265529 69.079592 
L 129.56448 67.880488 
L 132.035392 66.862504 
L 134.66762 66.030738 
L 137.45012 65.389815 
L 140.37149 64.943871 
L 143.419999 64.696546 
L 146.583626 64.650966 
L 149.850092 64.809737 
L 153.206898 65.174932 
L 156.641366 65.748091 
L 160.140669 66.530208 
L 163.691878 67.521731 
L 167.281991 68.722558 
L 170.897981 70.132037 
L 174.526825 71.748967 
L 178.155551 73.571595 
L 181.771271 75.597629 
L 185.361219 77.824234 
L 188.912792 80.248043 
L 192.413584 82.865165 
L 195.851425 85.671195 
L 199.214413 88.661223 
L 202.490953 91.829848 
L 205.66979 95.171193 
L 208.740039 98.678916 
L 211.691221 102.346233 
L 214.513292 106.16593 
L 217.196672 110.130384 
L 219.732274 114.231586 
L 222.111529 118.461156 
L 224.326413 122.810373 
L 226.36947 127.27019 
L 228.233834 131.831265 
L 229.913247 136.483983 
L 231.402079 141.218483 
L 232.695347 146.024682 
L 233.788724 150.892304 
L 234.678555 155.810909 
L 235.361869 160.769918 
L 235.836385 165.758643 
L 236.100519 170.766316 
L 236.15339 175.78212 
L 235.994822 180.795214 
L 235.625343 185.794763 
L 235.046186 190.769972 
L 234.259285 195.710108 
L 233.267266 200.604536 
L 232.073445 205.442742 
L 230.681812 210.214364 
L 229.097026 214.90922 
L 227.324394 219.517335 
L 225.369863 224.028967 
L 223.239997 228.434633 
L 220.941959 232.725137 
L 218.483493 236.891593 
L 215.872898 240.925446 
L 213.119006 244.818499 
L 210.231152 248.562934 
L 207.219153 252.151329 
L 204.093274 255.576684 
L 200.864201 258.832433 
L 197.543008 261.912465 
L 194.141124 264.811138 
L 190.670302 267.523297 
L 187.142583 270.044281 
L 182.851538 272.811306 
L 178.51792 275.290912 
L 174.163733 277.478016 
L 169.811242 279.368654 
L 166.201647 280.715639 
L 162.621838 281.853718 
L 159.084838 282.782405 
L 155.603632 283.501762 
L 152.191122 284.012403 
L 148.860094 284.315485 
L 145.623177 284.412708 
L 142.492807 284.306307 
L 139.48119 283.999045 
L 136.600263 283.494202 
L 133.861663 282.795569 
L 131.276688 281.90743 
L 128.856265 280.834554 
L 126.610917 279.582177 
L 124.55073 278.155988 
L 122.685325 276.562109 
L 121.023827 274.807082 
L 119.574835 272.897842 
L 118.346402 270.841701 
L 117.346002 268.646328 
L 116.580513 266.319721 
L 116.056193 263.870187 
L 115.778661 261.306314 
L 115.752877 258.636952 
L 115.983129 255.871182 
L 116.473015 253.018288 
L 117.225434 250.087735 
L 118.242575 247.089139 
L 119.525906 244.032237 
L 121.076171 240.926862 
L 122.893384 237.782912 
L 124.976829 234.610321 
L 127.325055 231.419034 
L 129.935883 228.218973 
L 132.806408 225.020012 
L 135.933006 221.831947 
L 139.311339 218.664468 
L 142.936369 215.527131 
L 146.80237 212.42933 
L 151.75059 208.777105 
L 157.024238 205.210553 
L 162.609681 201.74466 
L 168.49201 198.393839 
L 174.655105 195.171874 
L 181.081689 192.091862 
L 187.753393 189.166158 
L 194.650833 186.406326 
L 201.753675 183.823091 
L 209.040719 181.426297 
L 216.489979 179.224865 
L 224.078767 177.226758 
L 231.783779 175.438949 
L 239.581192 173.867393 
L 247.446746 172.517003 
L 255.355849 171.391635 
L 263.283664 170.494064 
L 271.205211 169.825986 
L 279.095463 169.388002 
L 286.92944 169.179622 
L 294.682314 169.19927 
L 302.329497 169.444287 
L 309.846744 169.910949 
L 317.210245 170.594481 
L 324.396715 171.48908 
L 331.383491 172.58794 
L 338.148614 173.883282 
L 344.670919 175.366391 
L 350.930114 177.027649 
L 356.906863 178.856581 
L 362.582855 180.841902 
L 367.940881 182.971559 
L 372.964896 185.232791 
L 377.640084 187.61218 
L 381.952911 190.095709 
L 385.26129 192.234382 
L 388.303208 194.4266 
L 391.073021 196.663481 
L 393.565784 198.93597 
L 395.77726 201.234859 
L 397.703935 203.550821 
L 399.343025 205.874435 
L 400.692481 208.196214 
L 401.750996 210.506633 
L 402.518008 212.79616 
L 402.993696 215.055281 
L 403.165089 216.834324 
L 403.151425 218.583038 
L 402.953817 220.296652 
L 402.573677 221.970446 
L 402.012714 223.599759 
L 401.272927 225.179996 
L 400.356603 226.706643 
L 398.966889 228.532848 
L 397.311008 230.259959 
L 395.395257 231.879789 
L 393.226576 233.38443 
L 390.812531 234.766282 
L 388.161289 236.018073 
L 385.281594 237.13288 
L 382.182744 238.104153 
L 378.874561 238.925736 
L 375.367363 239.591883 
L 371.671939 240.097277 
L 367.004799 240.484734 
L 362.102946 240.626185 
L 356.987285 240.515092 
L 351.679389 240.145937 
L 346.201408 239.514254 
L 340.575979 238.616652 
L 334.826133 237.450828 
L 328.975198 236.015587 
L 323.046707 234.310847 
L 317.0643 232.337645 
L 311.051626 230.098135 
L 305.03225 227.595586 
L 299.029554 224.834372 
L 293.066642 221.819957 
L 287.166249 218.558877 
L 281.350645 215.058718 
L 275.641548 211.328089 
L 270.060035 207.376587 
L 264.626458 203.21477 
L 259.360358 198.854106 
L 254.280396 194.306942 
L 249.404267 189.586447 
L 245.508589 185.530336 
L 241.775121 181.371985 
L 238.212375 177.120177 
L 234.828286 172.783996 
L 231.630189 168.372806 
L 228.624801 163.896222 
L 225.818203 159.364085 
L 223.215822 154.786438 
L 220.822419 150.173495 
L 218.642075 145.535616 
L 216.678183 140.883277 
L 214.933436 136.227044 
L 213.409824 131.577539 
L 212.108628 126.945418 
L 211.03042 122.341337 
L 210.17506 117.775922 
L 209.541698 113.259746 
L 209.128782 108.803292 
L 208.934059 104.416932 
L 208.954588 100.110892 
L 209.186745 95.895227 
L 209.626238 91.779796 
L 210.268122 87.774229 
L 211.106812 83.887904 
L 212.136103 80.129923 
L 213.349188 76.509083 
L 214.738681 73.033855 
L 216.296639 69.712357 
L 218.014585 66.552338 
L 219.883537 63.561151 
L 221.894035 60.745732 
L 224.036167 58.11259 
L 226.299603 55.667776 
L 228.673626 53.416879 
L 231.147162 51.365002 
L 233.708816 49.516752 
L 236.346906 47.876227 
L 239.049498 46.447003 
L 241.804444 45.232128 
L 244.599415 44.23411 
L 247.421943 43.454913 
L 250.259455 42.89595 
L 253.099313 42.55808 
L 255.928852 42.441608 
L 258.735417 42.54628 
L 261.506404 42.871288 
L 264.229294 43.41527 
L 266.891697 44.176317 
L 269.481382 45.151974 
L 271.986323 46.339253 
L 274.394725 47.734636 
L 276.695071 49.334088 
L 278.876149 51.133071 
L 280.927088 53.12655 
L 282.837395 55.309014 
L 284.596982 57.674488 
L 286.196201 60.216552 
L 287.62587 62.928357 
L 288.877307 65.802646 
L 289.94235 68.831774 
L 290.813389 72.007729 
L 291.483384 75.322155 
L 291.945893 78.766377 
L 292.195089 82.331423 
L 292.225778 86.008048 
L 292.03342 89.786764 
L 291.61414 93.657866 
L 290.964744 97.611455 
L 290.082729 101.637469 
L 288.966291 105.725712 
L 287.614336 109.865878 
L 286.02648 114.047587 
L 284.203058 118.260406 
L 282.14512 122.493883 
L 279.854433 126.737575 
L 277.333475 130.981075 
L 274.585434 135.214046 
L 271.6142 139.426242 
L 268.42435 143.607544 
L 265.021146 147.747983 
L 261.410514 151.837768 
L 257.599034 155.867316 
L 253.59392 159.827276 
L 249.403004 163.708552 
L 244.14055 168.249838 
L 238.638353 172.650511 
L 232.913186 176.896626 
L 226.982891 180.974987 
L 220.8663 184.873195 
L 214.583169 188.579699 
L 208.154096 192.08384 
L 201.600443 195.37589 
L 194.94425 198.447089 
L 188.208148 201.289679 
L 181.415271 203.896931 
L 174.58916 206.26317 
L 167.753676 208.383795 
L 160.932899 210.255294 
L 154.151033 211.875254 
L 147.432312 213.24237 
L 140.800902 214.356441 
L 134.280801 215.218375 
L 127.895747 215.830173 
L 121.66912 216.194925 
L 115.623848 216.316787 
L 109.782317 216.200962 
L 104.166279 215.853678 
L 98.796762 215.282152 
L 93.69399 214.494563 
L 88.877299 213.50001 
L 84.365056 212.308471 
L 80.849951 211.172824 
L 77.567762 209.914553 
L 74.527367 208.540695 
L 71.737055 207.058622 
L 69.204506 205.476019 
L 66.936765 203.800865 
L 64.940225 202.041401 
L 63.220608 200.206112 
L 61.782948 198.303696 
L 60.631577 196.343041 
L 59.919063 194.738661 
L 59.393622 193.107492 
L 59.056472 191.454276 
L 58.90853 189.783792 
L 58.950408 188.100845 
L 59.182415 186.410259 
L 59.604551 184.716866 
L 60.216513 183.025497 
L 61.24745 180.921477 
L 62.572156 178.837525 
L 64.18803 176.782935 
L 66.091745 174.766901 
L 68.279246 172.798483 
L 70.745768 170.886581 
L 73.485847 169.039911 
L 76.493335 167.266976 
L 79.761414 165.576038 
L 83.28262 163.9751 
L 87.048858 162.471872 
L 91.879496 160.807376 
L 97.034284 159.306374 
L 102.49594 157.980272 
L 108.246108 156.839676 
L 114.265427 155.89435 
L 120.533607 155.153172 
L 127.029516 154.624091 
L 133.731255 154.314092 
L 140.61625 154.229167 
L 147.66134 154.374282 
L 154.842867 154.753359 
L 162.136772 155.369251 
L 169.518689 156.223733 
L 176.964041 157.317486 
L 184.448135 158.650095 
L 191.946264 160.220049 
L 199.433799 162.02474 
L 206.886291 164.060473 
L 214.279561 166.322481 
L 221.589801 168.804939 
L 228.793664 171.500988 
L 235.868354 174.402756 
L 242.791719 177.501395 
L 249.542332 180.787111 
L 256.099578 184.249201 
L 262.443734 187.8761 
L 268.556042 191.655421 
L 274.418781 195.574008 
L 280.015339 199.617986 
L 285.330271 203.772819 
L 290.34936 208.023366 
L 295.05967 212.353942 
L 298.74064 216.01224 
L 302.193101 219.705318 
L 305.411737 223.423426 
L 308.39192 227.156666 
L 311.129724 230.895024 
L 313.621927 234.628397 
L 315.866029 238.346618 
L 317.860245 242.039489 
L 319.603519 245.69681 
L 321.095515 249.308405 
L 322.336623 252.864152 
L 323.327951 256.354013 
L 324.071322 259.768061 
L 324.569267 263.09651 
L 324.825012 266.329741 
L 324.842471 269.458331 
L 324.62623 272.473079 
L 324.181532 275.365034 
L 323.51426 278.125517 
L 322.630919 280.746151 
L 321.538613 283.218882 
L 320.245024 285.536002 
L 318.75839 287.690172 
L 317.087472 289.674445 
L 315.241538 291.482284 
L 313.230322 293.10758 
L 311.064006 294.544674 
L 308.753179 295.78837 
L 306.308809 296.833952 
L 303.742213 297.677198 
L 301.065014 298.31439 
L 298.289114 298.742331 
L 295.426654 298.958348 
L 292.489978 298.960306 
L 289.491596 298.746612 
L 286.444144 298.316218 
L 283.360352 297.668631 
L 280.252999 296.803911 
L 277.134878 295.722671 
L 274.018757 294.426079 
L 270.917342 292.915854 
L 267.843237 291.194261 
L 264.808906 289.264107 
L 261.826638 287.128737 
L 258.908508 284.792018 
L 256.066341 282.258336 
L 253.31168 279.53258 
L 250.655745 276.620133 
L 248.109406 273.526854 
L 245.683145 270.259068 
L 243.387029 266.82354 
L 241.230675 263.227468 
L 239.223228 259.478454 
L 237.373325 255.584491 
L 235.689076 251.553936 
L 234.178035 247.395491 
L 232.84718 243.118178 
L 231.70289 238.731316 
L 230.750927 234.244493 
L 229.996417 229.667543 
L 229.443834 225.010519 
L 229.096989 220.283663 
L 228.959013 215.497382 
L 229.032354 210.662218 
L 229.31876 205.788818 
L 229.819282 200.887909 
L 230.534265 195.970265 
L 231.463347 191.046681 
L 232.60546 186.127939 
L 233.958831 181.224786 
L 235.520988 176.347898 
L 237.288765 171.507857 
L 239.258312 166.715116 
L 241.425103 161.979978 
L 243.783951 157.312562 
L 246.32902 152.722779 
L 249.053843 148.220307 
L 251.951338 143.814559 
L 255.013831 139.514664 
L 258.233075 135.32944 
L 261.600274 131.267372 
L 265.106108 127.336584 
L 268.74076 123.544827 
L 272.493942 119.899449 
L 277.139087 115.727948 
L 281.920137 111.788339 
L 286.817011 108.090823 
L 291.808943 104.644617 
L 296.874564 101.457922 
L 301.991992 98.537891 
L 307.138922 95.890605 
L 312.292721 93.521055 
L 317.430519 91.433119 
L 322.529303 89.629556 
L 327.566018 88.111998 
L 332.517659 86.880945 
L 337.361367 85.935766 
L 342.074527 85.27471 
L 346.634862 84.894916 
L 351.020526 84.792423 
L 354.526414 84.91524 
L 357.884164 85.223678 
L 361.08209 85.71377 
L 364.108867 86.381065 
L 366.953572 87.220645 
L 369.605712 88.227136 
L 372.055255 89.394731 
L 374.292662 90.717203 
L 376.308913 92.187925 
L 378.095537 93.799893 
L 379.644634 95.545743 
L 380.9489 97.417779 
L 382.001653 99.407989 
L 382.65868 101.079677 
L 383.148065 102.817321 
L 383.467289 104.61645 
L 383.614115 106.472505 
L 383.552267 108.865544 
L 383.214841 111.331042 
L 382.599375 113.859622 
L 381.704133 116.441783 
L 380.52811 119.06793 
L 379.071036 121.7284 
L 377.33338 124.413492 
L 375.316349 127.113497 
L 373.021888 129.818725 
L 370.452676 132.519533 
L 367.612119 135.206356 
L 364.504342 137.869733 
L 361.134182 140.500334 
L 357.507174 143.08899 
L 352.824526 146.12738 
L 347.79302 149.077337 
L 342.426011 151.924255 
L 336.738147 154.654099 
L 330.745313 157.253458 
L 324.46457 159.709607 
L 317.914094 162.010555 
L 311.113102 164.145102 
L 304.081781 166.102882 
L 296.841209 167.874407 
L 289.413277 169.451109 
L 281.8206 170.825373 
L 274.086433 171.990574 
L 266.23458 172.941098 
L 258.289303 173.672373 
L 250.275225 174.180881 
L 242.217236 174.46418 
L 234.140398 174.520907 
L 226.069844 174.350792 
L 218.030686 173.954651 
L 210.047912 173.334387 
L 202.146289 172.492981 
L 194.350274 171.434482 
L 186.683908 170.163983 
L 179.170735 168.687609 
L 171.833699 167.012484 
L 164.695065 165.146702 
L 157.776327 163.099297 
L 151.098128 160.8802 
L 144.68018 158.500201 
L 138.541188 155.970901 
L 132.698778 153.304665 
L 127.169432 150.514567 
L 121.968423 147.614338 
L 117.10976 144.618306 
L 112.606132 141.541337 
L 108.468866 138.398771 
L 105.308204 135.741208 
L 102.41385 133.058321 
L 99.790073 130.359548 
L 97.440424 127.654434 
L 95.367728 124.95261 
L 93.574077 122.263759 
L 92.060825 119.597588 
L 90.828589 116.963802 
L 89.877248 114.372074 
L 89.205943 111.832014 
L 88.813083 109.353145 
L 88.696351 106.944871 
L 88.852711 104.61645 
L 89.171935 102.817321 
L 89.66132 101.079677 
L 90.318347 99.407989 
L 91.140225 97.806628 
L 92.394704 95.910307 
L 93.895399 94.138594 
L 95.635131 92.49925 
L 97.606116 90.999706 
L 99.799997 89.647042 
L 102.20786 88.44796 
L 104.820267 87.40877 
L 107.627284 86.535364 
L 110.618508 85.833204 
L 113.783097 85.3073 
L 117.109806 84.962198 
L 120.587018 84.801962 
L 124.202777 84.830167 
L 127.944825 85.049877 
L 132.584333 85.569876 
L 137.365575 86.372704 
L 142.266094 87.460671 
L 147.263141 88.834969 
L 152.333771 90.495662 
L 157.454944 92.441686 
L 162.603612 94.670845 
L 167.756823 97.179817 
L 172.891813 99.964168 
L 177.986101 103.018359 
L 183.017582 106.33577 
L 187.964621 109.90872 
L 192.806138 113.728497 
L 197.521699 117.785387 
L 201.340877 121.339582 
L 205.04791 125.044367 
L 208.632244 128.892641 
L 212.083775 132.876892 
L 215.392881 136.989219 
L 218.550451 141.221348 
L 221.547903 145.56466 
L 224.377217 150.01021 
L 227.030954 154.548751 
L 229.502275 159.170762 
L 231.784965 163.866469 
L 233.873444 168.625873 
L 235.762789 173.438779 
L 237.448742 178.294822 
L 238.927726 183.183491 
L 240.196851 188.094165 
L 241.253925 193.016137 
L 242.097456 197.93864 
L 242.726659 202.850885 
L 243.141454 207.742081 
L 243.342468 212.60147 
L 243.331033 217.418353 
L 243.109177 222.182122 
L 242.679623 226.882286 
L 242.045774 231.5085 
L 241.211709 236.050593 
L 240.182164 240.498599 
L 238.962522 244.842777 
L 237.558794 249.073645 
L 235.977599 253.181999 
L 234.22615 257.158943 
L 232.312226 260.99591 
L 230.244151 264.684684 
L 228.030768 268.217429 
L 225.681414 271.5867 
L 223.20589 274.785471 
L 220.614432 277.80715 
L 217.917682 280.645597 
L 215.126653 283.295142 
L 212.2527 285.750598 
L 209.307481 288.007275 
L 206.302926 290.060994 
L 203.2512 291.908094 
L 200.164666 293.545447 
L 197.05585 294.970461 
L 193.9374 296.181087 
L 190.822052 297.175829 
L 187.722587 297.953738 
L 184.6518 298.514423 
L 181.622453 298.858047 
L 178.647243 298.985324 
L 175.73876 298.897521 
L 172.909454 298.596448 
L 170.17159 298.084456 
L 167.537219 297.364429 
L 165.018135 296.439774 
L 162.625843 295.314412 
L 160.371524 293.992764 
L 158.266 292.479739 
L 156.319699 290.780721 
L 154.542629 288.901551 
L 152.94434 286.848512 
L 151.533901 284.628305 
L 150.319868 282.24804 
L 149.310258 279.715203 
L 148.512525 277.037643 
L 147.933537 274.223549 
L 147.579551 271.28142 
L 147.456197 268.220046 
L 147.568457 265.048482 
L 147.920651 261.776022 
L 148.516418 258.412169 
L 149.358707 254.966613 
L 150.449768 251.4492 
L 151.791139 247.869904 
L 153.38364 244.2388 
L 155.227371 240.566036 
L 157.321709 236.8618 
L 159.665306 233.136296 
L 162.25609 229.399712 
L 165.091271 225.662192 
L 168.167347 221.933809 
L 171.480107 218.224534 
L 175.024648 214.544207 
L 178.79538 210.902513 
L 182.786045 207.308954 
L 187.855375 203.073284 
L 193.218266 198.935891 
L 198.860292 194.911819 
L 204.76581 191.015499 
L 210.918018 187.260688 
L 217.299019 183.660419 
L 223.889888 180.226943 
L 230.670748 176.971688 
L 237.620842 173.905205 
L 244.718618 171.037135 
L 251.941809 168.376166 
L 259.267523 165.93 
L 266.672328 163.705328 
L 274.132347 161.7078 
L 281.623352 159.942005 
L 289.120855 158.411457 
L 296.600209 157.118582 
L 304.036701 156.064708 
L 311.405652 155.250068 
L 318.682513 154.673798 
L 325.842961 154.333942 
L 332.862999 154.227467 
L 339.719045 154.350278 
L 346.388029 154.697234 
L 352.847485 155.262176 
L 359.075634 156.037956 
L 365.051479 157.016468 
L 370.75488 158.188683 
L 376.166638 159.544694 
L 381.268571 161.073757 
L 386.043583 162.764341 
L 390.475734 164.604175 
L 393.896625 166.242055 
L 397.061328 167.966767 
L 399.962633 169.770202 
L 402.593989 171.643998 
L 404.94952 173.579563 
L 407.024038 175.568105 
L 408.813063 177.600657 
L 410.312829 179.668101 
L 411.520297 181.761201 
L 412.433165 183.870627 
L 412.950271 185.563611 
L 413.277362 187.256205 
L 413.414285 188.943575 
L 413.361195 190.620893 
L 413.118554 192.283342 
L 412.687125 193.92613 
L 412.067976 195.544494 
L 411.262477 197.133716 
L 409.996116 199.072153 
L 408.445114 200.948775 
L 406.614085 202.754766 
L 404.50834 204.481511 
L 402.133872 206.12062 
L 399.497336 207.663952 
L 396.606034 209.103645 
L 393.467893 210.432134 
L 390.091441 211.64218 
L 386.485783 212.726887 
L 382.660578 213.679729 
L 377.794904 214.640458 
L 372.646307 215.392643 
L 367.234276 215.927338 
L 361.579175 216.23652 
L 355.702158 216.313136 
L 349.62509 216.151126 
L 343.370453 215.74546 
L 336.961256 215.092157 
L 330.420947 214.18831 
L 323.773313 213.032098 
L 317.042387 211.622798 
L 310.252353 209.960794 
L 303.427445 208.047577 
L 296.591856 205.885742 
L 289.769635 203.478986 
L 282.984595 200.832088 
L 276.260217 197.950901 
L 269.619558 194.842328 
L 263.085155 191.514294 
L 256.678942 187.975725 
L 250.422159 184.236505 
L 244.335269 180.307446 
L 238.43788 176.200243 
L 232.748664 171.927431 
L 227.285288 167.502335 
L 222.064345 162.939019 
L 217.101286 158.252231 
L 213.17272 154.26333 
L 209.440749 150.208551 
L 205.912335 146.097342 
L 202.593798 141.939372 
L 199.490801 137.744507 
L 196.608333 133.522779 
L 193.950698 129.284361 
L 191.521505 125.039539 
L 189.32366 120.798682 
L 187.359356 116.572214 
L 185.630075 112.370586 
L 184.13658 108.204244 
L 182.878917 104.083605 
L 181.85642 100.019022 
L 181.067708 96.020762 
L 180.510698 92.098969 
L 180.182608 88.263643 
L 180.079972 84.52461 
L 180.198645 80.891492 
L 180.533825 77.373681 
L 181.080063 73.980317 
L 181.831282 70.720255 
L 182.7808 67.602047 
L 183.921345 64.633913 
L 185.245084 61.823721 
L 186.743644 59.178964 
L 188.408139 56.706738 
L 190.229197 54.413722 
L 192.196991 52.306161 
L 194.301266 50.389845 
L 196.531375 48.670098 
L 198.876307 47.151757 
L 201.324724 45.83916 
L 203.864991 44.736137 
L 206.485219 43.845995 
L 209.173294 43.17151 
L 211.916918 42.714919 
L 214.703644 42.477913 
L 217.520914 42.461633 
L 220.356101 42.666665 
L 223.19654 43.093039 
L 226.029572 43.74023 
L 228.842581 44.607156 
L 231.623032 45.692183 
L 234.358506 46.993129 
L 237.036744 48.507269 
L 239.645678 50.231343 
L 242.173472 52.161565 
L 244.608552 54.293631 
L 246.93965 56.622734 
L 249.15583 59.143576 
L 251.246525 61.850381 
L 253.201569 64.736912 
L 255.011228 67.796489 
L 256.666229 71.022004 
L 258.157789 74.405945 
L 259.477641 77.940413 
L 260.618063 81.617144 
L 261.571898 85.427536 
L 262.332575 89.362666 
L 262.894138 93.413319 
L 263.251254 97.570012 
L 263.399237 101.823022 
L 263.334062 106.162407 
L 263.052376 110.57804 
L 262.551513 115.059635 
L 261.829499 119.59677 
L 260.885062 124.178923 
L 259.717636 128.795498 
L 258.327366 133.435852 
L 256.715106 138.089326 
L 254.882423 142.745274 
L 252.831587 147.393092 
L 250.565574 152.022248 
L 248.088052 156.622308 
L 245.403375 161.182968 
L 242.516572 165.694078 
L 239.433335 170.145674 
L 236.16 174.528 
L 232.703534 178.83154 
L 229.071514 183.047039 
L 225.27211 187.16553 
L 221.314056 191.178359 
L 217.206633 195.077205 
L 212.094392 199.594179 
L 206.799059 203.922535 
L 201.339446 208.050073 
L 195.735235 211.96547 
L 190.006905 215.658328 
L 184.175645 219.119211 
L 178.263272 222.339679 
L 172.29214 225.312319 
L 166.28505 228.030772 
L 160.265162 230.489755 
L 154.255893 232.685077 
L 148.280828 234.613656 
L 142.363623 236.273521 
L 136.527906 237.663823 
L 130.797183 238.78483 
L 125.194739 239.637923 
L 119.743546 240.225586 
L 114.466165 240.551392 
L 109.384658 240.619984 
L 104.520491 240.43705 
L 99.894451 240.009299 
L 95.526556 239.344427 
L 92.097696 238.615443 
L 88.872034 237.733271 
L 85.859696 236.703823 
L 83.070297 235.533415 
L 80.512916 234.228749 
L 78.196071 232.79689 
L 76.127688 231.245243 
L 74.315088 229.581536 
L 72.764955 227.81379 
L 71.483322 225.950297 
L 70.654963 224.396296 
L 70.00432 222.790951 
L 69.533536 221.13882 
L 69.244468 219.444529 
L 69.138673 217.712772 
L 69.217417 215.948294 
L 69.481663 214.155888 
L 69.932072 212.340383 
L 70.757394 210.045916 
L 71.874166 207.732462 
L 73.281678 205.409555 
L 74.978472 203.086714 
L 76.962353 200.773415 
L 79.230391 198.479063 
L 81.778925 196.212964 
L 84.603578 193.984297 
L 87.699262 191.802083 
L 91.060195 189.675167 
L 94.679916 187.61218 
L 99.355104 185.232791 
L 104.379119 182.971559 
L 109.737145 180.841902 
L 115.413137 178.856581 
L 121.389886 177.027649 
L 127.649081 175.366391 
L 134.171386 173.883282 
L 140.936509 172.58794 
L 147.923285 171.48908 
L 155.109755 170.594481 
L 162.473256 169.910949 
L 169.990503 169.444287 
L 177.637686 169.19927 
L 185.39056 169.179622 
L 193.224537 169.388002 
L 201.114789 169.825986 
L 209.036336 170.494064 
L 216.964151 171.391635 
L 224.873254 172.517003 
L 232.738808 173.867393 
L 240.536221 175.438949 
L 248.241233 177.226758 
L 255.830021 179.224865 
L 263.279281 181.426297 
L 270.566325 183.823091 
L 277.669167 186.406326 
L 284.566607 189.166158 
L 291.238311 192.091862 
L 297.664895 195.171874 
L 303.82799 198.393839 
L 309.710319 201.74466 
L 315.295762 205.210553 
L 320.56941 208.777105 
L 325.51763 212.42933 
L 330.128107 216.151733 
L 334.389896 219.928374 
L 337.6681 223.105242 
L 340.692749 226.298835 
L 343.459791 229.499417 
L 345.965886 232.697156 
L 348.20842 235.882158 
L 350.185505 239.044486 
L 351.895985 242.174197 
L 353.339434 245.261367 
L 354.516158 248.296122 
L 355.427194 251.268663 
L 356.074297 254.169298 
L 356.459942 256.988469 
L 356.587309 259.71678 
L 356.460273 262.345023 
L 356.083393 264.864208 
L 355.461896 267.265587 
L 354.601656 269.540681 
L 353.509183 271.681302 
L 352.191597 273.679583 
L 350.656605 275.527996 
L 348.912482 277.219374 
L 346.968041 278.746939 
L 344.832609 280.104314 
L 342.515995 281.285548 
L 340.028465 282.285132 
L 337.380707 283.098014 
L 334.583801 283.719618 
L 331.649184 284.145855 
L 328.588617 284.373137 
L 325.41415 284.398391 
L 322.138085 284.219062 
L 318.772939 283.833131 
L 315.331409 283.239112 
L 311.826331 282.436066 
L 308.270647 281.423599 
L 304.677359 280.201868 
L 301.059499 278.77158 
L 297.430083 277.133993 
L 293.80208 275.290912 
L 290.188365 273.244685 
L 286.601691 270.998199 
L 283.054641 268.554875 
L 279.5596 265.918656 
L 276.128714 263.093997 
L 272.773854 260.085858 
L 269.506584 256.899689 
L 266.338122 253.541414 
L 263.279315 250.017418 
L 260.3406 246.334532 
L 257.531975 242.50001 
L 254.862972 238.521514 
L 252.342628 234.407092 
L 249.979459 230.165159 
L 247.781431 225.804471 
L 245.755944 221.334103 
L 243.909804 216.763426 
L 242.249207 212.102082 
L 240.779717 207.359955 
L 239.506255 202.547149 
L 238.433079 197.673956 
L 237.563777 192.750833 
L 236.901251 187.78837 
L 236.447714 182.797265 
L 236.204678 177.78829 
L 236.172955 172.772269 
L 236.35265 167.760043 
L 236.743164 162.762443 
L 237.343194 157.79026 
L 238.150736 152.854218 
L 239.163096 147.964941 
L 240.376889 143.13293 
L 241.788057 138.36853 
L 243.391877 133.681902 
L 245.182977 129.083001 
L 247.155347 124.581544 
L 249.302363 120.186985 
L 251.616801 115.908491 
L 254.090862 111.754917 
L 256.716193 107.734781 
L 259.48391 103.856244 
L 262.384627 100.127086 
L 265.408484 96.554687 
L 268.545169 93.146005 
L 271.783959 89.90756 
L 275.113741 86.845418 
L 278.523052 83.965172 
L 282.00011 81.271929 
L 285.532847 78.770299 
L 289.828272 76.027004 
L 294.164449 73.571595 
L 298.519348 71.409061 
L 302.870686 69.543272 
L 306.477889 68.21714 
L 310.054003 67.099987 
L 313.586007 66.192245 
L 317.060923 65.493796 
L 320.465857 65.003973 
L 323.78804 64.721562 
L 327.014858 64.644811 
L 330.133898 64.77143 
L 333.132979 65.098607 
L 336.000191 65.623007 
L 338.723931 66.340792 
L 341.292936 67.247627 
L 343.696318 68.338696 
L 345.923597 69.608718 
L 347.96473 71.051959 
L 349.810147 72.662253 
L 351.450773 74.43302 
L 352.878061 76.357286 
L 354.084018 78.4277 
L 355.061227 80.636561 
L 355.80287 82.97584 
L 356.302753 85.4372 
L 356.555322 88.012023 
L 356.555684 90.691438 
L 356.29962 93.466342 
L 355.783599 96.32743 
L 355.004794 99.265222 
L 353.961089 102.270089 
L 352.651086 105.332282 
L 351.074114 108.441961 
L 349.230233 111.589223 
L 347.120233 114.76413 
L 344.745637 117.956741 
L 342.108696 121.157135 
L 339.212389 124.355446 
L 336.060411 127.541886 
L 332.65717 130.706779 
L 329.007774 133.840582 
L 325.118017 136.933919 
L 320.14219 140.57959 
L 314.842019 144.138318 
L 309.23125 147.595165 
L 303.324891 150.935765 
L 297.139163 154.14639 
L 290.691437 157.214005 
L 284.000167 160.126317 
L 277.084822 162.871831 
L 269.965809 165.439892 
L 262.664396 167.820734 
L 255.202633 170.005513 
L 247.603263 171.986347 
L 239.889633 173.756349 
L 232.085611 175.309647 
L 224.215484 176.641417 
L 216.303871 177.747894 
L 208.375622 178.62639 
L 200.455727 179.275302 
L 192.569213 179.694118 
L 184.741048 179.88342 
L 176.996047 179.844876 
L 169.358771 179.581231 
L 161.853434 179.0963 
L 154.503804 178.394943 
L 147.333119 177.483049 
L 140.363986 176.367505 
L 133.618301 175.05617 
L 127.117159 173.557836 
L 120.880776 171.882194 
L 114.928406 170.039787 
L 109.278269 168.041968 
L 103.947481 165.90085 
L 98.951987 163.62925 
L 94.306497 161.24064 
L 90.024435 158.749082 
L 86.742429 156.60466 
L 83.727479 154.407574 
L 80.98516 152.166721 
L 78.520347 149.891176 
L 76.337205 147.590158 
L 74.439175 145.273005 
L 72.828969 142.949147 
L 71.50856 140.628075 
L 70.479182 138.319317 
L 69.741323 136.032403 
L 69.294729 133.776844 
L 69.146519 132.00133 
L 69.183243 130.256743 
L 69.403751 128.54785 
L 69.806593 126.879362 
L 70.390024 125.255935 
L 71.152009 123.682151 
L 72.090225 122.162516 
L 73.50682 120.345844 
L 75.188983 118.629097 
L 77.13035 117.020436 
L 79.323917 115.527737 
L 81.762059 114.158569 
L 84.436549 112.920171 
L 87.338587 111.819429 
L 90.458821 110.862854 
L 93.787378 110.056563 
L 97.313891 109.40626 
L 101.027528 108.917216 
L 105.715008 108.549986 
L 110.635486 108.429344 
L 115.767999 108.561746 
L 121.090922 108.952622 
L 126.582061 109.60635 
L 132.218742 110.526232 
L 137.977907 111.714477 
L 143.836206 113.172188 
L 149.770094 114.899355 
L 155.755926 116.894848 
L 161.770057 119.156418 
L 167.788932 121.680704 
L 173.789191 124.463241 
L 179.747756 127.498476 
L 185.641927 130.779783 
L 191.449476 134.299491 
L 197.148737 138.048907 
L 202.718688 142.01835 
L 208.139044 146.197189 
L 213.390332 150.573877 
L 218.45397 155.135999 
L 222.517588 159.069893 
L 226.428997 163.11531 
L 230.179079 167.263827 
L 233.759263 171.506693 
L 237.161558 175.834854 
L 240.378567 180.238971 
L 243.40351 184.709456 
L 246.230243 189.236486 
L 248.853271 193.810039 
L 251.267767 198.419917 
L 253.46958 203.055772 
L 255.455251 207.707139 
L 257.222013 212.36346 
L 258.767808 217.014117 
L 260.091283 221.648456 
L 261.191795 226.25582 
L 262.069414 230.825578 
L 262.724917 235.347152 
L 263.159788 239.810046 
L 263.376209 244.203879 
L 263.377053 248.518407 
L 263.165877 252.743556 
L 262.746906 256.869448 
L 262.12502 260.886428 
L 261.305742 264.785091 
L 260.295214 268.556308 
L 259.100185 272.191248 
L 257.727984 275.681409 
L 256.1865 279.018634 
L 254.484157 282.195139 
L 252.629887 285.203529 
L 250.633106 288.036824 
L 248.503679 290.688475 
L 246.251897 293.15238 
L 243.88844 295.422907 
L 241.424348 297.494901 
L 238.870984 299.363707 
L 236.240005 301.025174 
L 233.543319 302.475674 
L 230.793057 303.712106 
L 228.001529 304.731907 
L 225.181192 305.533059 
L 222.34461 306.114094 
L 219.504417 306.474095 
L 216.673276 306.612705 
L 213.863846 306.53012 
L 211.088736 306.227093 
L 208.360476 305.704932 
L 205.691472 304.96549 
L 203.093969 304.011168 
L 200.58002 302.844902 
L 198.16144 301.470156 
L 195.849779 299.890915 
L 193.656279 298.111667 
L 191.591847 296.137397 
L 189.667016 293.97357 
L 187.891916 291.626115 
L 186.276239 289.101409 
L 184.829215 286.406258 
L 183.559579 283.54788 
L 182.475545 280.533881 
L 181.584779 277.372238 
L 180.89438 274.071274 
L 180.41085 270.639632 
L 180.140079 267.086258 
L 180.087324 263.420367 
L 180.257192 259.651426 
L 180.653624 255.789121 
L 181.279884 251.84333 
L 182.138545 247.824102 
L 183.23148 243.74162 
L 184.559854 239.606179 
L 186.124123 235.428156 
L 187.924023 231.217978 
L 189.958578 226.986096 
L 192.22609 222.742957 
L 194.724153 218.498971 
L 197.449648 214.264485 
L 200.398758 210.049753 
L 203.566972 205.864911 
L 206.949097 201.719942 
L 210.539271 197.624656 
L 214.330981 193.588659 
L 218.317073 189.621327 
L 222.489779 185.731781 
L 227.731531 181.179429 
L 233.214376 176.766496 
L 238.921629 172.506986 
L 244.835536 168.414162 
L 250.937345 164.500488 
L 257.207374 160.777588 
L 263.625091 157.256199 
L 270.169195 153.946126 
L 276.817699 150.856213 
L 283.548019 147.994301 
L 290.33706 145.367206 
L 297.161308 142.980692 
L 303.996928 140.83945 
L 310.819855 138.947083 
L 317.605889 137.306096 
L 324.330796 135.917887 
L 330.970402 134.782748 
L 337.50069 133.899864 
L 343.897896 133.267324 
L 350.138609 132.88213 
L 356.199856 132.740212 
L 362.059206 132.836453 
L 367.694849 133.164711 
L 373.085693 133.717849 
L 378.211445 134.487768 
L 383.052692 135.465443 
L 387.590982 136.640969 
L 391.128868 137.76398 
L 394.434758 139.010299 
L 397.499715 140.372925 
L 400.315391 141.844518 
L 402.874045 143.417422 
L 405.168565 145.083688 
L 407.192493 146.835099 
L 408.940041 148.663193 
L 410.406103 150.559293 
L 411.586278 152.514529 
L 412.322075 154.11523 
L 412.870973 155.743309 
L 413.231716 157.394029 
L 413.403348 159.062617 
L 413.385221 160.74427 
L 413.176987 162.434165 
L 412.778606 164.127472 
L 412.190345 165.819357 
L 411.188899 167.92487 
L 409.893466 170.011249 
L 408.30657 172.06919 
L 406.431469 174.08949 
L 404.272144 176.063073 
L 401.83329 177.981022 
L 399.120301 179.834601 
L 396.139258 181.615286 
L 392.896913 183.314788 
L 389.400666 184.925079 
L 385.658549 186.438416 
L 380.855668 188.115998 
L 375.727248 189.63107 
L 370.290477 190.972164 
L 364.563626 192.128604 
L 358.565974 193.090553 
L 352.317736 193.84906 
L 345.839978 194.396097 
L 339.154538 194.724595 
L 332.283937 194.828481 
L 325.251292 194.7027 
L 318.08022 194.343243 
L 310.794753 193.747168 
L 303.419233 192.912611 
L 295.978226 191.838796 
L 288.496416 190.526049 
L 280.998514 188.975789 
L 273.509159 187.190534 
L 266.05282 185.173887 
L 258.653699 182.930527 
L 251.335641 180.466192 
L 244.122035 177.787656 
L 237.035725 174.902706 
L 230.098921 171.820111 
L 223.333113 168.549589 
L 216.758986 165.101766 
L 210.396342 161.488139 
L 204.264022 157.721028 
L 198.379836 153.813526 
L 192.76049 149.779451 
L 187.421528 145.633285 
L 182.377273 141.390123 
L 177.64077 137.065605 
L 173.223738 132.675858 
L 169.794432 128.979835 
L 166.599444 125.259767 
L 163.643333 121.525563 
L 160.929957 117.787247 
L 158.462463 114.054931 
L 156.243282 110.338786 
L 154.274124 106.649011 
L 152.555975 102.995805 
L 151.089097 99.389341 
L 149.873029 95.839732 
L 148.90659 92.357008 
L 148.187887 88.951082 
L 147.714319 85.631725 
L 147.48259 82.408538 
L 147.488718 79.290922 
L 147.728052 76.288054 
L 148.195282 73.408861 
L 148.884464 70.661991 
L 149.789031 68.05579 
L 150.90182 65.598279 
L 152.215093 63.297131 
L 153.720558 61.159644 
L 155.409402 59.192727 
L 157.272311 57.402876 
L 159.299501 55.796152 
L 161.480752 54.378172 
L 163.805433 53.154083 
L 166.26254 52.128553 
L 168.840725 51.305754 
L 171.528333 50.689351 
L 174.313439 50.282491 
L 177.183879 50.087793 
L 180.127291 50.107337 
L 183.131151 50.342664 
L 186.18281 50.794764 
L 189.269534 51.464075 
L 192.37854 52.350484 
L 195.497035 53.453321 
L 198.612255 54.771363 
L 201.711504 56.302836 
L 204.78219 58.045421 
L 207.811865 59.996255 
L 210.788259 62.151943 
L 213.69932 64.508564 
L 216.53325 67.061682 
L 219.278538 69.806357 
L 221.923996 72.737159 
L 224.458793 75.84818 
L 226.872485 79.133052 
L 229.155051 82.584965 
L 231.296917 86.19668 
L 233.28899 89.960555 
L 235.122683 93.868559 
L 236.789942 97.9123 
L 238.283269 102.083043 
L 239.595744 106.371734 
L 240.72105 110.769029 
L 241.653488 115.265311 
L 242.387996 119.850723 
L 242.920165 124.515195 
L 243.246253 129.248464 
L 243.363196 134.04011 
L 243.268617 138.879578 
L 242.960834 143.756212 
L 242.43887 148.65928 
L 241.702449 153.578004 
L 240.752004 158.501589 
L 239.588675 163.419255 
L 238.214302 168.320261 
L 236.631429 173.193938 
L 234.84329 178.029717 
L 232.853804 182.817158 
L 230.667563 187.545977 
L 228.28982 192.206072 
L 225.726474 196.787554 
L 222.984056 201.280774 
L 220.069706 205.676342 
L 216.991157 209.965161 
L 213.756713 214.138445 
L 210.375223 218.187746 
L 206.856057 222.104972 
L 203.209082 225.882416 
L 199.44463 229.512767 
L 194.787411 233.665357 
L 189.995932 237.585168 
L 185.090334 241.262079 
L 180.091438 244.686958 
L 175.020657 247.85169 
L 169.899914 250.74921 
L 164.751543 253.373526 
L 159.598201 255.719742 
L 154.462775 257.78407 
L 149.368282 259.563845 
L 144.337779 261.057531 
L 139.394263 262.264722 
L 134.560574 263.186142 
L 129.859303 263.823634 
L 125.312696 264.180154 
L 121.65775 264.265512 
L 118.137705 264.161456 
L 114.764609 263.87141 
L 111.550185 263.39929 
L 108.505795 262.749502 
L 105.642403 261.926916 
L 102.970547 260.936862 
L 100.500307 259.785104 
L 98.241272 258.477828 
L 96.202514 257.021622 
L 94.392562 255.423453 
L 92.819374 253.69065 
L 91.490314 251.830877 
L 90.412127 249.852115 
L 89.734335 248.188982 
L 89.223852 246.45934 
L 88.88323 244.667648 
L 88.714741 242.818457 
L 88.749194 240.433174 
L 89.05894 237.974502 
L 89.646511 235.451805 
L 90.513718 232.874571 
L 91.661639 230.252389 
L 93.090617 227.594916 
L 94.800257 224.911849 
L 96.789426 222.212898 
L 99.056252 219.507758 
L 101.59813 216.806075 
L 104.411727 214.117426 
L 107.492988 211.451283 
L 110.837147 208.816989 
L 114.438739 206.22373 
L 119.091754 203.178647 
L 124.09468 200.220756 
L 129.434273 197.364706 
L 135.095989 194.624585 
L 141.064045 192.013856 
L 147.321474 189.545305 
L 153.850193 187.230984 
L 160.631067 185.082163 
L 167.643987 183.109277 
L 174.867947 181.321891 
L 182.28112 179.72865 
L 189.860949 178.337248 
L 197.584227 177.154397 
L 205.427193 176.185794 
L 213.365621 175.4361 
L 221.374913 174.908919 
L 229.430199 174.606786 
L 236.16 174.528 
L 236.16 174.528 
" clip-path="url(#p03fe203af5)" style="fill: none; stroke: #800080; stroke-width: 1.5; stroke-linecap: square"/>
   </g>
   <g id="patch_3">
    <path d="M 57.6 307.584 
L 57.6 41.472 
" style="fill: none; stroke: #000000; stroke-width: 0.8; stroke-linejoin: miter; stroke-linecap: square"/>
   </g>
   <g id="patch_4">
    <path d="M 414.72 307.584 
L 414.72 41.472 
" style="fill: none; stroke: #000000; stroke-width: 0.8; stroke-linejoin: miter; stroke-linecap: square"/>
   </g>
   <g id="patch_5">
    <path d="M 57.6 307.584 
L 414.72 307.584 
" style="fill: none; stroke: #000000; stroke-width: 0.8; stroke-linejoin: miter; stroke-linecap: square"/>
   </g>
   <g id="patch_6">
    <path d="M 57.6 41.472 
L 414.72 41.472 
" style="fill: none; stroke: #000000; stroke-width: 0.8; stroke-linejoin: miter; stroke-linecap: square"/>
   </g>
   <g id="text_21">
    <!-- Reprezentarea pe planul complex al semnalului cu f = 12 Hz, ω = 5 -->
    <g transform="translate(32.815313 35.472) scale(0.12 -0.12)">
     <defs>
      <path id="DejaVuSans-70" d="M 1159 525 
L 1159 -1331 
L 581 -1331 
L 581 3500 
L 1159 3500 
L 1159 2969 
Q 1341 3281 1617 3432 
Q 1894 3584 2278 3584 
Q 2916 3584 3314 3078 
Q 3713 2572 3713 1747 
Q 3713 922 3314 415 
Q 2916 -91 2278 -91 
Q 1894 -91 1617 61 
Q 1341 213 1159 525 
z
M 3116 1747 
Q 3116 2381 2855 2742 
Q 2594 3103 2138 3103 
Q 1681 3103 1420 2742 
Q 1159 2381 1159 1747 
Q 1159 1113 1420 752 
Q 1681 391 2138 391 
Q 2594 391 2855 752 
Q 3116 1113 3116 1747 
z
" transform="scale(0.015625)"/>
      <path id="DejaVuSans-7a" d="M 353 3500 
L 3084 3500 
L 3084 2975 
L 922 459 
L 3084 459 
L 3084 0 
L 275 0 
L 275 525 
L 2438 3041 
L 353 3041 
L 353 3500 
z
" transform="scale(0.015625)"/>
      <path id="DejaVuSans-74" d="M 1172 4494 
L 1172 3500 
L 2356 3500 
L 2356 3053 
L 1172 3053 
L 1172 1153 
Q 1172 725 1289 603 
Q 1406 481 1766 481 
L 2356 481 
L 2356 0 
L 1766 0 
Q 1100 0 847 248 
Q 594 497 594 1153 
L 594 3053 
L 172 3053 
L 172 3500 
L 594 3500 
L 594 4494 
L 1172 4494 
z
" transform="scale(0.015625)"/>
      <path id="DejaVuSans-20" transform="scale(0.015625)"/>
      <path id="DejaVuSans-75" d="M 544 1381 
L 544 3500 
L 1119 3500 
L 1119 1403 
Q 1119 906 1312 657 
Q 1506 409 1894 409 
Q 2359 409 2629 706 
Q 2900 1003 2900 1516 
L 2900 3500 
L 3475 3500 
L 3475 0 
L 2900 0 
L 2900 538 
Q 2691 219 2414 64 
Q 2138 -91 1772 -91 
Q 1169 -91 856 284 
Q 544 659 544 1381 
z
M 1991 3584 
L 1991 3584 
z
" transform="scale(0.015625)"/>
      <path id="DejaVuSans-63" d="M 3122 3366 
L 3122 2828 
Q 2878 2963 2633 3030 
Q 2388 3097 2138 3097 
Q 1578 3097 1268 2742 
Q 959 2388 959 1747 
Q 959 1106 1268 751 
Q 1578 397 2138 397 
Q 2388 397 2633 464 
Q 2878 531 3122 666 
L 3122 134 
Q 2881 22 2623 -34 
Q 2366 -91 2075 -91 
Q 1284 -91 818 406 
Q 353 903 353 1747 
Q 353 2603 823 3093 
Q 1294 3584 2113 3584 
Q 2378 3584 2631 3529 
Q 2884 3475 3122 3366 
z
" transform="scale(0.015625)"/>
      <path id="DejaVuSans-6f" d="M 1959 3097 
Q 1497 3097 1228 2736 
Q 959 2375 959 1747 
Q 959 1119 1226 758 
Q 1494 397 1959 397 
Q 2419 397 2687 759 
Q 2956 1122 2956 1747 
Q 2956 2369 2687 2733 
Q 2419 3097 1959 3097 
z
M 1959 3584 
Q 2709 3584 3137 3096 
Q 3566 2609 3566 1747 
Q 3566 888 3137 398 
Q 2709 -91 1959 -91 
Q 1206 -91 779 398 
Q 353 888 353 1747 
Q 353 2609 779 3096 
Q 1206 3584 1959 3584 
z
" transform="scale(0.015625)"/>
      <path id="DejaVuSans-78" d="M 3513 3500 
L 2247 1797 
L 3578 0 
L 2900 0 
L 1881 1375 
L 863 0 
L 184 0 
L 1544 1831 
L 300 3500 
L 978 3500 
L 1906 2253 
L 2834 3500 
L 3513 3500 
z
" transform="scale(0.015625)"/>
      <path id="DejaVuSans-73" d="M 2834 3397 
L 2834 2853 
Q 2591 2978 2328 3040 
Q 2066 3103 1784 3103 
Q 1356 3103 1142 2972 
Q 928 2841 928 2578 
Q 928 2378 1081 2264 
Q 1234 2150 1697 2047 
L 1894 2003 
Q 2506 1872 2764 1633 
Q 3022 1394 3022 966 
Q 3022 478 2636 193 
Q 2250 -91 1575 -91 
Q 1294 -91 989 -36 
Q 684 19 347 128 
L 347 722 
Q 666 556 975 473 
Q 1284 391 1588 391 
Q 1994 391 2212 530 
Q 2431 669 2431 922 
Q 2431 1156 2273 1281 
Q 2116 1406 1581 1522 
L 1381 1569 
Q 847 1681 609 1914 
Q 372 2147 372 2553 
Q 372 3047 722 3315 
Q 1072 3584 1716 3584 
Q 2034 3584 2315 3537 
Q 2597 3491 2834 3397 
z
" transform="scale(0.015625)"/>
      <path id="DejaVuSans-66" d="M 2375 4863 
L 2375 4384 
L 1825 4384 
Q 1516 4384 1395 4259 
Q 1275 4134 1275 3809 
L 1275 3500 
L 2222 3500 
L 2222 3053 
L 1275 3053 
L 1275 0 
L 697 0 
L 697 3053 
L 147 3053 
L 147 3500 
L 697 3500 
L 697 3744 
Q 697 4328 969 4595 
Q 1241 4863 1831 4863 
L 2375 4863 
z
" transform="scale(0.015625)"/>
      <path id="DejaVuSans-3d" d="M 678 2906 
L 4684 2906 
L 4684 2381 
L 678 2381 
L 678 2906 
z
M 678 1631 
L 4684 1631 
L 4684 1100 
L 678 1100 
L 678 1631 
z
" transform="scale(0.015625)"/>
      <path id="DejaVuSans-48" d="M 628 4666 
L 1259 4666 
L 1259 2753 
L 3553 2753 
L 3553 4666 
L 4184 4666 
L 4184 0 
L 3553 0 
L 3553 2222 
L 1259 2222 
L 1259 0 
L 628 0 
L 628 4666 
z
" transform="scale(0.015625)"/>
      <path id="DejaVuSans-2c" d="M 750 794 
L 1409 794 
L 1409 256 
L 897 -744 
L 494 -744 
L 750 256 
L 750 794 
z
" transform="scale(0.015625)"/>
      <path id="DejaVuSans-3c9" d="M 1719 -91 
Q 422 -91 422 1766 
Q 422 2500 906 3500 
L 1525 3500 
Q 1078 2500 1078 1750 
Q 1078 397 1772 397 
Q 2406 397 2406 2078 
L 2938 2078 
Q 2938 397 3572 397 
Q 4266 397 4266 1750 
Q 4266 2500 3819 3500 
L 4438 3500 
Q 4922 2500 4922 1766 
Q 4922 -91 3625 -91 
Q 2775 -91 2672 844 
Q 2544 -91 1719 -91 
z
" transform="scale(0.015625)"/>
     </defs>
     <use xlink:href="#DejaVuSans-52"/>
     <use xlink:href="#DejaVuSans-65" x="64.982422"/>
     <use xlink:href="#DejaVuSans-70" x="126.505859"/>
     <use xlink:href="#DejaVuSans-72" x="189.982422"/>
     <use xlink:href="#DejaVuSans-65" x="228.845703"/>
     <use xlink:href="#DejaVuSans-7a" x="290.369141"/>
     <use xlink:href="#DejaVuSans-65" x="342.859375"/>
     <use xlink:href="#DejaVuSans-6e" x="404.382812"/>
     <use xlink:href="#DejaVuSans-74" x="467.761719"/>
     <use xlink:href="#DejaVuSans-61" x="506.970703"/>
     <use xlink:href="#DejaVuSans-72" x="568.25"/>
     <use xlink:href="#DejaVuSans-65" x="607.113281"/>
     <use xlink:href="#DejaVuSans-61" x="668.636719"/>
     <use xlink:href="#DejaVuSans-20" x="729.916016"/>
     <use xlink:href="#DejaVuSans-70" x="761.703125"/>
     <use xlink:href="#DejaVuSans-65" x="825.179688"/>
     <use xlink:href="#DejaVuSans-20" x="886.703125"/>
     <use xlink:href="#DejaVuSans-70" x="918.490234"/>
     <use xlink:href="#DejaVuSans-6c" x="981.966797"/>
     <use xlink:href="#DejaVuSans-61" x="1009.75"/>
     <use xlink:href="#DejaVuSans-6e" x="1071.029297"/>
     <use xlink:href="#DejaVuSans-75" x="1134.408203"/>
     <use xlink:href="#DejaVuSans-6c" x="1197.787109"/>
     <use xlink:href="#DejaVuSans-20" x="1225.570312"/>
     <use xlink:href="#DejaVuSans-63" x="1257.357422"/>
     <use xlink:href="#DejaVuSans-6f" x="1312.337891"/>
     <use xlink:href="#DejaVuSans-6d" x="1373.519531"/>
     <use xlink:href="#DejaVuSans-70" x="1470.931641"/>
     <use xlink:href="#DejaVuSans-6c" x="1534.408203"/>
     <use xlink:href="#DejaVuSans-65" x="1562.191406"/>
     <use xlink:href="#DejaVuSans-78" x="1621.964844"/>
     <use xlink:href="#DejaVuSans-20" x="1681.144531"/>
     <use xlink:href="#DejaVuSans-61" x="1712.931641"/>
     <use xlink:href="#DejaVuSans-6c" x="1774.210938"/>
     <use xlink:href="#DejaVuSans-20" x="1801.994141"/>
     <use xlink:href="#DejaVuSans-73" x="1833.78125"/>
     <use xlink:href="#DejaVuSans-65" x="1885.880859"/>
     <use xlink:href="#DejaVuSans-6d" x="1947.404297"/>
     <use xlink:href="#DejaVuSans-6e" x="2044.816406"/>
     <use xlink:href="#DejaVuSans-61" x="2108.195312"/>
     <use xlink:href="#DejaVuSans-6c" x="2169.474609"/>
     <use xlink:href="#DejaVuSans-75" x="2197.257812"/>
     <use xlink:href="#DejaVuSans-6c" x="2260.636719"/>
     <use xlink:href="#DejaVuSans-75" x="2288.419922"/>
     <use xlink:href="#DejaVuSans-69" x="2351.798828"/>
     <use xlink:href="#DejaVuSans-20" x="2379.582031"/>
     <use xlink:href="#DejaVuSans-63" x="2411.369141"/>
     <use xlink:href="#DejaVuSans-75" x="2466.349609"/>
     <use xlink:href="#DejaVuSans-20" x="2529.728516"/>
     <use xlink:href="#DejaVuSans-66" x="2561.515625"/>
     <use xlink:href="#DejaVuSans-20" x="2596.720703"/>
     <use xlink:href="#DejaVuSans-3d" x="2628.507812"/>
     <use xlink:href="#DejaVuSans-20" x="2712.296875"/>
     <use xlink:href="#DejaVuSans-31" x="2744.083984"/>
     <use xlink:href="#DejaVuSans-32" x="2807.707031"/>
     <use xlink:href="#DejaVuSans-20" x="2871.330078"/>
     <use xlink:href="#DejaVuSans-48" x="2903.117188"/>
     <use xlink:href="#DejaVuSans-7a" x="2978.3125"/>
     <use xlink:href="#DejaVuSans-2c" x="3030.802734"/>
     <use xlink:href="#DejaVuSans-20" x="3062.589844"/>
     <use xlink:href="#DejaVuSans-3c9" x="3094.376953"/>
     <use xlink:href="#DejaVuSans-20" x="3178.117188"/>
     <use xlink:href="#DejaVuSans-3d" x="3209.904297"/>
     <use xlink:href="#DejaVuSans-20" x="3293.693359"/>
     <use xlink:href="#DejaVuSans-35" x="3325.480469"/>
    </g>
   </g>
  </g>
 </g>
 <defs>
  <clipPath id="p03fe203af5">
   <rect x="57.6" y="41.472" width="357.12" height="266.112"/>
  </clipPath>
 </defs>
</svg>
