<?xml version="1.0" encoding="utf-8" standalone="no"?>
<!DOCTYPE svg PUBLIC "-//W3C//DTD SVG 1.1//EN"
  "http://www.w3.org/Graphics/SVG/1.1/DTD/svg11.dtd">
<svg xmlns:xlink="http://www.w3.org/1999/xlink" width="460.8pt" height="345.6pt" viewBox="0 0 460.8 345.6" xmlns="http://www.w3.org/2000/svg" version="1.1">
 <metadata>
  <rdf:RDF xmlns:dc="http://purl.org/dc/elements/1.1/" xmlns:cc="http://creativecommons.org/ns#" xmlns:rdf="http://www.w3.org/1999/02/22-rdf-syntax-ns#">
   <cc:Work>
    <dc:type rdf:resource="http://purl.org/dc/dcmitype/StillImage"/>
    <dc:date>2024-10-18T20:56:12.952209</dc:date>
    <dc:format>image/svg+xml</dc:format>
    <dc:creator>
     <cc:Agent>
      <dc:title>Matplotlib v3.9.2, https://matplotlib.org/</dc:title>
     </cc:Agent>
    </dc:creator>
   </cc:Work>
  </rdf:RDF>
 </metadata>
 <defs>
  <style type="text/css">*{stroke-linejoin: round; stroke-linecap: butt}</style>
 </defs>
 <g id="figure_1">
  <g id="patch_1">
   <path d="M 0 345.6 
L 460.8 345.6 
L 460.8 0 
L 0 0 
z
" style="fill: #ffffff"/>
  </g>
  <g id="axes_1">
   <g id="patch_2">
    <path d="M 57.6 307.584 
L 414.72 307.584 
L 414.72 41.472 
L 57.6 41.472 
z
" style="fill: #ffffff"/>
   </g>
   <g id="matplotlib.axis_1">
    <g id="xtick_1">
     <g id="line2d_1">
      <defs>
       <path id="m1f3f09d2d0" d="M 0 0 
L 0 3.5 
" style="stroke: #000000; stroke-width: 0.8"/>
      </defs>
      <g>
       <use xlink:href="#m1f3f09d2d0" x="57.6" y="307.584" style="stroke: #000000; stroke-width: 0.8"/>
      </g>
     </g>
     <g id="text_1">
      <!-- −1.00 -->
      <g transform="translate(42.277344 322.182437) scale(0.1 -0.1)">
       <defs>
        <path id="DejaVuSans-2212" d="M 678 2272 
L 4684 2272 
L 4684 1741 
L 678 1741 
L 678 2272 
z
" transform="scale(0.015625)"/>
        <path id="DejaVuSans-31" d="M 794 531 
L 1825 531 
L 1825 4091 
L 703 3866 
L 703 4441 
L 1819 4666 
L 2450 4666 
L 2450 531 
L 3481 531 
L 3481 0 
L 794 0 
L 794 531 
z
" transform="scale(0.015625)"/>
        <path id="DejaVuSans-2e" d="M 684 794 
L 1344 794 
L 1344 0 
L 684 0 
L 684 794 
z
" transform="scale(0.015625)"/>
        <path id="DejaVuSans-30" d="M 2034 4250 
Q 1547 4250 1301 3770 
Q 1056 3291 1056 2328 
Q 1056 1369 1301 889 
Q 1547 409 2034 409 
Q 2525 409 2770 889 
Q 3016 1369 3016 2328 
Q 3016 3291 2770 3770 
Q 2525 4250 2034 4250 
z
M 2034 4750 
Q 2819 4750 3233 4129 
Q 3647 3509 3647 2328 
Q 3647 1150 3233 529 
Q 2819 -91 2034 -91 
Q 1250 -91 836 529 
Q 422 1150 422 2328 
Q 422 3509 836 4129 
Q 1250 4750 2034 4750 
z
" transform="scale(0.015625)"/>
       </defs>
       <use xlink:href="#DejaVuSans-2212"/>
       <use xlink:href="#DejaVuSans-31" x="83.789062"/>
       <use xlink:href="#DejaVuSans-2e" x="147.412109"/>
       <use xlink:href="#DejaVuSans-30" x="179.199219"/>
       <use xlink:href="#DejaVuSans-30" x="242.822266"/>
      </g>
     </g>
    </g>
    <g id="xtick_2">
     <g id="line2d_2">
      <g>
       <use xlink:href="#m1f3f09d2d0" x="102.24" y="307.584" style="stroke: #000000; stroke-width: 0.8"/>
      </g>
     </g>
     <g id="text_2">
      <!-- −0.75 -->
      <g transform="translate(86.917344 322.182437) scale(0.1 -0.1)">
       <defs>
        <path id="DejaVuSans-37" d="M 525 4666 
L 3525 4666 
L 3525 4397 
L 1831 0 
L 1172 0 
L 2766 4134 
L 525 4134 
L 525 4666 
z
" transform="scale(0.015625)"/>
        <path id="DejaVuSans-35" d="M 691 4666 
L 3169 4666 
L 3169 4134 
L 1269 4134 
L 1269 2991 
Q 1406 3038 1543 3061 
Q 1681 3084 1819 3084 
Q 2600 3084 3056 2656 
Q 3513 2228 3513 1497 
Q 3513 744 3044 326 
Q 2575 -91 1722 -91 
Q 1428 -91 1123 -41 
Q 819 9 494 109 
L 494 744 
Q 775 591 1075 516 
Q 1375 441 1709 441 
Q 2250 441 2565 725 
Q 2881 1009 2881 1497 
Q 2881 1984 2565 2268 
Q 2250 2553 1709 2553 
Q 1456 2553 1204 2497 
Q 953 2441 691 2322 
L 691 4666 
z
" transform="scale(0.015625)"/>
       </defs>
       <use xlink:href="#DejaVuSans-2212"/>
       <use xlink:href="#DejaVuSans-30" x="83.789062"/>
       <use xlink:href="#DejaVuSans-2e" x="147.412109"/>
       <use xlink:href="#DejaVuSans-37" x="179.199219"/>
       <use xlink:href="#DejaVuSans-35" x="242.822266"/>
      </g>
     </g>
    </g>
    <g id="xtick_3">
     <g id="line2d_3">
      <g>
       <use xlink:href="#m1f3f09d2d0" x="146.88" y="307.584" style="stroke: #000000; stroke-width: 0.8"/>
      </g>
     </g>
     <g id="text_3">
      <!-- −0.50 -->
      <g transform="translate(131.557344 322.182437) scale(0.1 -0.1)">
       <use xlink:href="#DejaVuSans-2212"/>
       <use xlink:href="#DejaVuSans-30" x="83.789062"/>
       <use xlink:href="#DejaVuSans-2e" x="147.412109"/>
       <use xlink:href="#DejaVuSans-35" x="179.199219"/>
       <use xlink:href="#DejaVuSans-30" x="242.822266"/>
      </g>
     </g>
    </g>
    <g id="xtick_4">
     <g id="line2d_4">
      <g>
       <use xlink:href="#m1f3f09d2d0" x="191.52" y="307.584" style="stroke: #000000; stroke-width: 0.8"/>
      </g>
     </g>
     <g id="text_4">
      <!-- −0.25 -->
      <g transform="translate(176.197344 322.182437) scale(0.1 -0.1)">
       <defs>
        <path id="DejaVuSans-32" d="M 1228 531 
L 3431 531 
L 3431 0 
L 469 0 
L 469 531 
Q 828 903 1448 1529 
Q 2069 2156 2228 2338 
Q 2531 2678 2651 2914 
Q 2772 3150 2772 3378 
Q 2772 3750 2511 3984 
Q 2250 4219 1831 4219 
Q 1534 4219 1204 4116 
Q 875 4013 500 3803 
L 500 4441 
Q 881 4594 1212 4672 
Q 1544 4750 1819 4750 
Q 2544 4750 2975 4387 
Q 3406 4025 3406 3419 
Q 3406 3131 3298 2873 
Q 3191 2616 2906 2266 
Q 2828 2175 2409 1742 
Q 1991 1309 1228 531 
z
" transform="scale(0.015625)"/>
       </defs>
       <use xlink:href="#DejaVuSans-2212"/>
       <use xlink:href="#DejaVuSans-30" x="83.789062"/>
       <use xlink:href="#DejaVuSans-2e" x="147.412109"/>
       <use xlink:href="#DejaVuSans-32" x="179.199219"/>
       <use xlink:href="#DejaVuSans-35" x="242.822266"/>
      </g>
     </g>
    </g>
    <g id="xtick_5">
     <g id="line2d_5">
      <g>
       <use xlink:href="#m1f3f09d2d0" x="236.16" y="307.584" style="stroke: #000000; stroke-width: 0.8"/>
      </g>
     </g>
     <g id="text_5">
      <!-- 0.00 -->
      <g transform="translate(225.027187 322.182437) scale(0.1 -0.1)">
       <use xlink:href="#DejaVuSans-30"/>
       <use xlink:href="#DejaVuSans-2e" x="63.623047"/>
       <use xlink:href="#DejaVuSans-30" x="95.410156"/>
       <use xlink:href="#DejaVuSans-30" x="159.033203"/>
      </g>
     </g>
    </g>
    <g id="xtick_6">
     <g id="line2d_6">
      <g>
       <use xlink:href="#m1f3f09d2d0" x="280.8" y="307.584" style="stroke: #000000; stroke-width: 0.8"/>
      </g>
     </g>
     <g id="text_6">
      <!-- 0.25 -->
      <g transform="translate(269.667188 322.182437) scale(0.1 -0.1)">
       <use xlink:href="#DejaVuSans-30"/>
       <use xlink:href="#DejaVuSans-2e" x="63.623047"/>
       <use xlink:href="#DejaVuSans-32" x="95.410156"/>
       <use xlink:href="#DejaVuSans-35" x="159.033203"/>
      </g>
     </g>
    </g>
    <g id="xtick_7">
     <g id="line2d_7">
      <g>
       <use xlink:href="#m1f3f09d2d0" x="325.44" y="307.584" style="stroke: #000000; stroke-width: 0.8"/>
      </g>
     </g>
     <g id="text_7">
      <!-- 0.50 -->
      <g transform="translate(314.307187 322.182437) scale(0.1 -0.1)">
       <use xlink:href="#DejaVuSans-30"/>
       <use xlink:href="#DejaVuSans-2e" x="63.623047"/>
       <use xlink:href="#DejaVuSans-35" x="95.410156"/>
       <use xlink:href="#DejaVuSans-30" x="159.033203"/>
      </g>
     </g>
    </g>
    <g id="xtick_8">
     <g id="line2d_8">
      <g>
       <use xlink:href="#m1f3f09d2d0" x="370.08" y="307.584" style="stroke: #000000; stroke-width: 0.8"/>
      </g>
     </g>
     <g id="text_8">
      <!-- 0.75 -->
      <g transform="translate(358.947188 322.182437) scale(0.1 -0.1)">
       <use xlink:href="#DejaVuSans-30"/>
       <use xlink:href="#DejaVuSans-2e" x="63.623047"/>
       <use xlink:href="#DejaVuSans-37" x="95.410156"/>
       <use xlink:href="#DejaVuSans-35" x="159.033203"/>
      </g>
     </g>
    </g>
    <g id="xtick_9">
     <g id="line2d_9">
      <g>
       <use xlink:href="#m1f3f09d2d0" x="414.72" y="307.584" style="stroke: #000000; stroke-width: 0.8"/>
      </g>
     </g>
     <g id="text_9">
      <!-- 1.00 -->
      <g transform="translate(403.587188 322.182437) scale(0.1 -0.1)">
       <use xlink:href="#DejaVuSans-31"/>
       <use xlink:href="#DejaVuSans-2e" x="63.623047"/>
       <use xlink:href="#DejaVuSans-30" x="95.410156"/>
       <use xlink:href="#DejaVuSans-30" x="159.033203"/>
      </g>
     </g>
    </g>
    <g id="text_10">
     <!-- Real -->
     <g transform="translate(225.381094 335.860562) scale(0.1 -0.1)">
      <defs>
       <path id="DejaVuSans-52" d="M 2841 2188 
Q 3044 2119 3236 1894 
Q 3428 1669 3622 1275 
L 4263 0 
L 3584 0 
L 2988 1197 
Q 2756 1666 2539 1819 
Q 2322 1972 1947 1972 
L 1259 1972 
L 1259 0 
L 628 0 
L 628 4666 
L 2053 4666 
Q 2853 4666 3247 4331 
Q 3641 3997 3641 3322 
Q 3641 2881 3436 2590 
Q 3231 2300 2841 2188 
z
M 1259 4147 
L 1259 2491 
L 2053 2491 
Q 2509 2491 2742 2702 
Q 2975 2913 2975 3322 
Q 2975 3731 2742 3939 
Q 2509 4147 2053 4147 
L 1259 4147 
z
" transform="scale(0.015625)"/>
       <path id="DejaVuSans-65" d="M 3597 1894 
L 3597 1613 
L 953 1613 
Q 991 1019 1311 708 
Q 1631 397 2203 397 
Q 2534 397 2845 478 
Q 3156 559 3463 722 
L 3463 178 
Q 3153 47 2828 -22 
Q 2503 -91 2169 -91 
Q 1331 -91 842 396 
Q 353 884 353 1716 
Q 353 2575 817 3079 
Q 1281 3584 2069 3584 
Q 2775 3584 3186 3129 
Q 3597 2675 3597 1894 
z
M 3022 2063 
Q 3016 2534 2758 2815 
Q 2500 3097 2075 3097 
Q 1594 3097 1305 2825 
Q 1016 2553 972 2059 
L 3022 2063 
z
" transform="scale(0.015625)"/>
       <path id="DejaVuSans-61" d="M 2194 1759 
Q 1497 1759 1228 1600 
Q 959 1441 959 1056 
Q 959 750 1161 570 
Q 1363 391 1709 391 
Q 2188 391 2477 730 
Q 2766 1069 2766 1631 
L 2766 1759 
L 2194 1759 
z
M 3341 1997 
L 3341 0 
L 2766 0 
L 2766 531 
Q 2569 213 2275 61 
Q 1981 -91 1556 -91 
Q 1019 -91 701 211 
Q 384 513 384 1019 
Q 384 1609 779 1909 
Q 1175 2209 1959 2209 
L 2766 2209 
L 2766 2266 
Q 2766 2663 2505 2880 
Q 2244 3097 1772 3097 
Q 1472 3097 1187 3025 
Q 903 2953 641 2809 
L 641 3341 
Q 956 3463 1253 3523 
Q 1550 3584 1831 3584 
Q 2591 3584 2966 3190 
Q 3341 2797 3341 1997 
z
" transform="scale(0.015625)"/>
       <path id="DejaVuSans-6c" d="M 603 4863 
L 1178 4863 
L 1178 0 
L 603 0 
L 603 4863 
z
" transform="scale(0.015625)"/>
      </defs>
      <use xlink:href="#DejaVuSans-52"/>
      <use xlink:href="#DejaVuSans-65" x="64.982422"/>
      <use xlink:href="#DejaVuSans-61" x="126.505859"/>
      <use xlink:href="#DejaVuSans-6c" x="187.785156"/>
     </g>
    </g>
   </g>
   <g id="matplotlib.axis_2">
    <g id="ytick_1">
     <g id="line2d_10">
      <defs>
       <path id="md1eebdfc32" d="M 0 0 
L -3.5 0 
" style="stroke: #000000; stroke-width: 0.8"/>
      </defs>
      <g>
       <use xlink:href="#md1eebdfc32" x="57.6" y="307.584" style="stroke: #000000; stroke-width: 0.8"/>
      </g>
     </g>
     <g id="text_11">
      <!-- −1.00 -->
      <g transform="translate(19.954687 311.383219) scale(0.1 -0.1)">
       <use xlink:href="#DejaVuSans-2212"/>
       <use xlink:href="#DejaVuSans-31" x="83.789062"/>
       <use xlink:href="#DejaVuSans-2e" x="147.412109"/>
       <use xlink:href="#DejaVuSans-30" x="179.199219"/>
       <use xlink:href="#DejaVuSans-30" x="242.822266"/>
      </g>
     </g>
    </g>
    <g id="ytick_2">
     <g id="line2d_11">
      <g>
       <use xlink:href="#md1eebdfc32" x="57.6" y="274.32" style="stroke: #000000; stroke-width: 0.8"/>
      </g>
     </g>
     <g id="text_12">
      <!-- −0.75 -->
      <g transform="translate(19.954687 278.119219) scale(0.1 -0.1)">
       <use xlink:href="#DejaVuSans-2212"/>
       <use xlink:href="#DejaVuSans-30" x="83.789062"/>
       <use xlink:href="#DejaVuSans-2e" x="147.412109"/>
       <use xlink:href="#DejaVuSans-37" x="179.199219"/>
       <use xlink:href="#DejaVuSans-35" x="242.822266"/>
      </g>
     </g>
    </g>
    <g id="ytick_3">
     <g id="line2d_12">
      <g>
       <use xlink:href="#md1eebdfc32" x="57.6" y="241.056" style="stroke: #000000; stroke-width: 0.8"/>
      </g>
     </g>
     <g id="text_13">
      <!-- −0.50 -->
      <g transform="translate(19.954687 244.855219) scale(0.1 -0.1)">
       <use xlink:href="#DejaVuSans-2212"/>
       <use xlink:href="#DejaVuSans-30" x="83.789062"/>
       <use xlink:href="#DejaVuSans-2e" x="147.412109"/>
       <use xlink:href="#DejaVuSans-35" x="179.199219"/>
       <use xlink:href="#DejaVuSans-30" x="242.822266"/>
      </g>
     </g>
    </g>
    <g id="ytick_4">
     <g id="line2d_13">
      <g>
       <use xlink:href="#md1eebdfc32" x="57.6" y="207.792" style="stroke: #000000; stroke-width: 0.8"/>
      </g>
     </g>
     <g id="text_14">
      <!-- −0.25 -->
      <g transform="translate(19.954687 211.591219) scale(0.1 -0.1)">
       <use xlink:href="#DejaVuSans-2212"/>
       <use xlink:href="#DejaVuSans-30" x="83.789062"/>
       <use xlink:href="#DejaVuSans-2e" x="147.412109"/>
       <use xlink:href="#DejaVuSans-32" x="179.199219"/>
       <use xlink:href="#DejaVuSans-35" x="242.822266"/>
      </g>
     </g>
    </g>
    <g id="ytick_5">
     <g id="line2d_14">
      <g>
       <use xlink:href="#md1eebdfc32" x="57.6" y="174.528" style="stroke: #000000; stroke-width: 0.8"/>
      </g>
     </g>
     <g id="text_15">
      <!-- 0.00 -->
      <g transform="translate(28.334375 178.327219) scale(0.1 -0.1)">
       <use xlink:href="#DejaVuSans-30"/>
       <use xlink:href="#DejaVuSans-2e" x="63.623047"/>
       <use xlink:href="#DejaVuSans-30" x="95.410156"/>
       <use xlink:href="#DejaVuSans-30" x="159.033203"/>
      </g>
     </g>
    </g>
    <g id="ytick_6">
     <g id="line2d_15">
      <g>
       <use xlink:href="#md1eebdfc32" x="57.6" y="141.264" style="stroke: #000000; stroke-width: 0.8"/>
      </g>
     </g>
     <g id="text_16">
      <!-- 0.25 -->
      <g transform="translate(28.334375 145.063219) scale(0.1 -0.1)">
       <use xlink:href="#DejaVuSans-30"/>
       <use xlink:href="#DejaVuSans-2e" x="63.623047"/>
       <use xlink:href="#DejaVuSans-32" x="95.410156"/>
       <use xlink:href="#DejaVuSans-35" x="159.033203"/>
      </g>
     </g>
    </g>
    <g id="ytick_7">
     <g id="line2d_16">
      <g>
       <use xlink:href="#md1eebdfc32" x="57.6" y="108" style="stroke: #000000; stroke-width: 0.8"/>
      </g>
     </g>
     <g id="text_17">
      <!-- 0.50 -->
      <g transform="translate(28.334375 111.799219) scale(0.1 -0.1)">
       <use xlink:href="#DejaVuSans-30"/>
       <use xlink:href="#DejaVuSans-2e" x="63.623047"/>
       <use xlink:href="#DejaVuSans-35" x="95.410156"/>
       <use xlink:href="#DejaVuSans-30" x="159.033203"/>
      </g>
     </g>
    </g>
    <g id="ytick_8">
     <g id="line2d_17">
      <g>
       <use xlink:href="#md1eebdfc32" x="57.6" y="74.736" style="stroke: #000000; stroke-width: 0.8"/>
      </g>
     </g>
     <g id="text_18">
      <!-- 0.75 -->
      <g transform="translate(28.334375 78.535219) scale(0.1 -0.1)">
       <use xlink:href="#DejaVuSans-30"/>
       <use xlink:href="#DejaVuSans-2e" x="63.623047"/>
       <use xlink:href="#DejaVuSans-37" x="95.410156"/>
       <use xlink:href="#DejaVuSans-35" x="159.033203"/>
      </g>
     </g>
    </g>
    <g id="ytick_9">
     <g id="line2d_18">
      <g>
       <use xlink:href="#md1eebdfc32" x="57.6" y="41.472" style="stroke: #000000; stroke-width: 0.8"/>
      </g>
     </g>
     <g id="text_19">
      <!-- 1.00 -->
      <g transform="translate(28.334375 45.271219) scale(0.1 -0.1)">
       <use xlink:href="#DejaVuSans-31"/>
       <use xlink:href="#DejaVuSans-2e" x="63.623047"/>
       <use xlink:href="#DejaVuSans-30" x="95.410156"/>
       <use xlink:href="#DejaVuSans-30" x="159.033203"/>
      </g>
     </g>
    </g>
    <g id="text_20">
     <!-- Imaginar -->
     <g transform="translate(13.875 196.788938) rotate(-90) scale(0.1 -0.1)">
      <defs>
       <path id="DejaVuSans-49" d="M 628 4666 
L 1259 4666 
L 1259 0 
L 628 0 
L 628 4666 
z
" transform="scale(0.015625)"/>
       <path id="DejaVuSans-6d" d="M 3328 2828 
Q 3544 3216 3844 3400 
Q 4144 3584 4550 3584 
Q 5097 3584 5394 3201 
Q 5691 2819 5691 2113 
L 5691 0 
L 5113 0 
L 5113 2094 
Q 5113 2597 4934 2840 
Q 4756 3084 4391 3084 
Q 3944 3084 3684 2787 
Q 3425 2491 3425 1978 
L 3425 0 
L 2847 0 
L 2847 2094 
Q 2847 2600 2669 2842 
Q 2491 3084 2119 3084 
Q 1678 3084 1418 2786 
Q 1159 2488 1159 1978 
L 1159 0 
L 581 0 
L 581 3500 
L 1159 3500 
L 1159 2956 
Q 1356 3278 1631 3431 
Q 1906 3584 2284 3584 
Q 2666 3584 2933 3390 
Q 3200 3197 3328 2828 
z
" transform="scale(0.015625)"/>
       <path id="DejaVuSans-67" d="M 2906 1791 
Q 2906 2416 2648 2759 
Q 2391 3103 1925 3103 
Q 1463 3103 1205 2759 
Q 947 2416 947 1791 
Q 947 1169 1205 825 
Q 1463 481 1925 481 
Q 2391 481 2648 825 
Q 2906 1169 2906 1791 
z
M 3481 434 
Q 3481 -459 3084 -895 
Q 2688 -1331 1869 -1331 
Q 1566 -1331 1297 -1286 
Q 1028 -1241 775 -1147 
L 775 -588 
Q 1028 -725 1275 -790 
Q 1522 -856 1778 -856 
Q 2344 -856 2625 -561 
Q 2906 -266 2906 331 
L 2906 616 
Q 2728 306 2450 153 
Q 2172 0 1784 0 
Q 1141 0 747 490 
Q 353 981 353 1791 
Q 353 2603 747 3093 
Q 1141 3584 1784 3584 
Q 2172 3584 2450 3431 
Q 2728 3278 2906 2969 
L 2906 3500 
L 3481 3500 
L 3481 434 
z
" transform="scale(0.015625)"/>
       <path id="DejaVuSans-69" d="M 603 3500 
L 1178 3500 
L 1178 0 
L 603 0 
L 603 3500 
z
M 603 4863 
L 1178 4863 
L 1178 4134 
L 603 4134 
L 603 4863 
z
" transform="scale(0.015625)"/>
       <path id="DejaVuSans-6e" d="M 3513 2113 
L 3513 0 
L 2938 0 
L 2938 2094 
Q 2938 2591 2744 2837 
Q 2550 3084 2163 3084 
Q 1697 3084 1428 2787 
Q 1159 2491 1159 1978 
L 1159 0 
L 581 0 
L 581 3500 
L 1159 3500 
L 1159 2956 
Q 1366 3272 1645 3428 
Q 1925 3584 2291 3584 
Q 2894 3584 3203 3211 
Q 3513 2838 3513 2113 
z
" transform="scale(0.015625)"/>
       <path id="DejaVuSans-72" d="M 2631 2963 
Q 2534 3019 2420 3045 
Q 2306 3072 2169 3072 
Q 1681 3072 1420 2755 
Q 1159 2438 1159 1844 
L 1159 0 
L 581 0 
L 581 3500 
L 1159 3500 
L 1159 2956 
Q 1341 3275 1631 3429 
Q 1922 3584 2338 3584 
Q 2397 3584 2469 3576 
Q 2541 3569 2628 3553 
L 2631 2963 
z
" transform="scale(0.015625)"/>
      </defs>
      <use xlink:href="#DejaVuSans-49"/>
      <use xlink:href="#DejaVuSans-6d" x="29.492188"/>
      <use xlink:href="#DejaVuSans-61" x="126.904297"/>
      <use xlink:href="#DejaVuSans-67" x="188.183594"/>
      <use xlink:href="#DejaVuSans-69" x="251.660156"/>
      <use xlink:href="#DejaVuSans-6e" x="279.443359"/>
      <use xlink:href="#DejaVuSans-61" x="342.822266"/>
      <use xlink:href="#DejaVuSans-72" x="404.101562"/>
     </g>
    </g>
   </g>
   <g id="line2d_19">
    <path d="M 57.6 174.528 
L 414.72 174.528 
" clip-path="url(#p5af77e2d57)" style="fill: none; stroke: #000000; stroke-width: 1.5; stroke-linecap: square"/>
   </g>
   <g id="line2d_20">
    <path d="M 236.16 307.584 
L 236.16 41.472 
" clip-path="url(#p5af77e2d57)" style="fill: none; stroke: #000000; stroke-width: 1.5; stroke-linecap: square"/>
   </g>
   <g id="line2d_21">
    <path d="M 236.16 174.528 
L 241.542515 174.649013 
L 246.905449 175.011612 
L 252.229292 175.614477 
L 257.494675 176.455415 
L 262.682444 177.531368 
L 267.773725 178.83842 
L 272.749997 180.371817 
L 277.593156 182.12598 
L 282.285583 184.094529 
L 286.810207 186.2703 
L 291.150568 188.645379 
L 295.290876 191.211126 
L 299.216068 193.958207 
L 302.911866 196.876627 
L 306.364822 199.955769 
L 309.562377 203.184433 
L 312.492898 206.550871 
L 315.145722 210.042838 
L 316.947258 212.736564 
L 318.583454 215.48825 
L 320.050959 218.292263 
L 321.346772 221.142865 
L 322.468239 224.034222 
L 323.413066 226.960416 
L 324.17932 229.915458 
L 324.765431 232.8933 
L 325.1702 235.887849 
L 325.392799 238.892975 
L 325.432772 241.902528 
L 325.290038 244.910348 
L 324.964888 247.910279 
L 324.457988 250.896183 
L 323.770376 253.861948 
L 322.903458 256.801503 
L 321.85901 259.708834 
L 320.639168 262.577989 
L 319.246429 265.403097 
L 317.683644 268.178376 
L 315.95401 270.898145 
L 314.061069 273.556839 
L 312.008693 276.149016 
L 309.03149 279.492632 
L 305.789184 282.696418 
L 302.29357 285.748718 
L 298.557365 288.638427 
L 294.594161 291.355034 
L 290.418376 293.888656 
L 286.045201 296.230074 
L 281.490547 298.370772 
L 276.770982 300.302961 
L 271.903676 302.019612 
L 266.906336 303.514481 
L 261.797142 304.782128 
L 256.594682 305.817942 
L 251.317881 306.618156 
L 245.985936 307.179857 
L 240.618245 307.501003 
L 235.234335 307.580424 
L 229.853793 307.417833 
L 224.496193 307.01382 
L 219.181024 306.369856 
L 213.927625 305.488283 
L 208.755106 304.372308 
L 203.682285 303.025991 
L 198.727616 301.45423 
L 193.909124 299.662743 
L 189.24434 297.658048 
L 184.750232 295.447436 
L 180.443151 293.038951 
L 176.338765 290.441355 
L 172.452007 287.664096 
L 168.797015 284.71728 
L 165.387086 281.611625 
L 162.234627 278.358432 
L 159.351104 274.969533 
L 156.747009 271.457259 
L 154.98305 268.749758 
L 153.385229 265.985579 
L 151.956817 263.170379 
L 150.700738 260.309919 
L 149.61956 257.410053 
L 148.715499 254.476717 
L 147.990403 251.515914 
L 147.445757 248.533703 
L 147.082675 245.536188 
L 146.901901 242.529504 
L 146.903805 239.519804 
L 147.088382 236.513249 
L 147.455255 233.51599 
L 148.003673 230.534163 
L 148.732514 227.573871 
L 149.640285 224.641171 
L 150.72513 221.742066 
L 151.984828 218.882489 
L 153.4168 216.068293 
L 155.018116 213.305238 
L 156.785499 210.598978 
L 158.715332 207.955051 
L 161.534268 204.536113 
L 164.624689 201.250033 
L 167.975352 198.108765 
L 171.574068 195.123737 
L 175.407745 192.305808 
L 179.462436 189.665231 
L 183.72339 187.211611 
L 188.175106 184.953874 
L 192.801389 182.900235 
L 197.585408 181.058163 
L 202.50976 179.434361 
L 207.556531 178.034736 
L 212.707359 176.864379 
L 217.943507 175.927549 
L 223.245926 175.227652 
L 228.595326 174.767237 
L 233.972245 174.547977 
L 239.357124 174.57067 
L 244.730372 174.835234 
L 250.072441 175.340706 
L 255.363897 176.085248 
L 260.58549 177.06615 
L 265.718224 178.279844 
L 270.743427 179.721915 
L 275.642817 181.387117 
L 280.39857 183.269391 
L 284.993385 185.361891 
L 289.410547 187.657003 
L 293.633986 190.146379 
L 297.648336 192.820961 
L 301.438995 195.671021 
L 304.992172 198.686189 
L 308.29494 201.855496 
L 311.335285 205.167413 
L 314.102145 208.609891 
L 315.991723 211.269913 
L 317.717915 213.990896 
L 319.277189 216.767271 
L 320.666354 219.593356 
L 321.882566 222.463367 
L 322.923337 225.37143 
L 323.786536 228.311593 
L 324.470396 231.277839 
L 324.973519 234.264097 
L 325.294874 237.264256 
L 325.433803 240.272175 
L 325.390023 243.281698 
L 325.163623 246.286667 
L 324.755066 249.28093 
L 324.165189 252.258359 
L 323.395198 255.212862 
L 322.44667 258.138391 
L 321.321545 261.028958 
L 320.022128 263.878649 
L 318.551076 266.68163 
L 316.911401 269.432166 
L 315.106458 272.124626 
L 313.139942 274.7535 
L 310.273586 278.150476 
L 307.137609 281.412503 
L 303.743419 284.527715 
L 300.103363 287.484779 
L 296.230684 290.272938 
L 292.13947 292.882047 
L 287.844606 295.302616 
L 283.361715 297.525837 
L 278.707107 299.543624 
L 273.897714 301.348636 
L 268.951033 302.934306 
L 263.88506 304.294865 
L 258.718224 305.425364 
L 253.469322 306.32169 
L 248.15745 306.980582 
L 242.801932 307.399644 
L 237.42225 307.577351 
L 232.037977 307.513056 
L 226.668699 307.206993 
L 221.333951 306.660275 
L 216.053138 305.874893 
L 210.845474 304.853702 
L 205.729903 303.600418 
L 200.725035 302.1196 
L 195.849078 300.416635 
L 191.11977 298.497719 
L 186.554317 296.369833 
L 182.169326 294.040717 
L 177.980752 291.518846 
L 174.003831 288.813393 
L 170.253031 285.9342 
L 166.741998 282.891743 
L 163.483505 279.697089 
L 160.489405 276.36186 
L 157.770592 272.898191 
L 155.918127 270.223713 
L 154.229887 267.48954 
L 152.709327 264.701267 
L 151.359559 261.864602 
L 150.183345 258.985349 
L 149.183093 256.069402 
L 148.36085 253.122727 
L 147.718298 250.151357 
L 147.256753 247.161372 
L 146.977159 244.158892 
L 146.880089 241.150061 
L 146.965741 238.141038 
L 147.23394 235.13798 
L 147.684137 232.147035 
L 148.31541 229.174323 
L 149.126468 226.225928 
L 150.115651 223.307884 
L 151.280934 220.426165 
L 152.619932 217.586666 
L 154.129906 214.795201 
L 155.807763 212.057481 
L 157.650072 209.379111 
L 159.65306 206.765571 
L 162.566526 203.390923 
L 165.747722 200.153299 
L 169.185075 197.064478 
L 172.86608 194.135695 
L 176.777345 191.377607 
L 180.904642 188.800246 
L 185.232955 186.412989 
L 189.746538 184.224522 
L 194.428972 182.242804 
L 199.263221 180.475047 
L 204.231699 178.92768 
L 209.31633 177.606333 
L 214.498618 176.515813 
L 219.759709 175.660088 
L 225.080463 175.04227 
L 230.441525 174.664607 
L 235.823389 174.528473 
L 241.206479 174.634363 
L 246.571209 174.981892 
L 251.898064 175.569796 
L 257.167665 176.395935 
L 262.360841 177.457305 
L 267.458699 178.750044 
L 272.442694 180.26945 
L 277.294694 182.009994 
L 281.997048 183.965345 
L 286.532649 186.128389 
L 290.884996 188.491258 
L 295.038256 191.045354 
L 298.97732 193.781388 
L 302.687857 196.689404 
L 306.156369 199.758823 
L 309.370238 202.97848 
L 312.31777 206.336662 
L 314.988244 209.82115 
L 316.803397 212.509796 
L 318.453503 215.256866 
L 319.935186 218.056736 
L 321.245412 220.903677 
L 322.381501 223.791863 
L 323.341127 226.715381 
L 324.122326 229.66825 
L 324.7235 232.644425 
L 325.143418 235.637815 
L 325.38122 238.642294 
L 325.436421 241.651713 
L 325.308906 244.659912 
L 324.998937 247.660736 
L 324.507149 250.648043 
L 323.834547 253.615718 
L 322.982509 256.557689 
L 321.952778 259.467933 
L 320.747462 262.340495 
L 319.369027 265.169495 
L 317.820295 267.949145 
L 316.104435 270.673754 
L 314.224959 273.337747 
L 312.185714 275.935672 
L 309.22545 279.287629 
L 305.999376 282.500501 
L 302.519231 285.5626 
L 298.797673 288.462786 
L 294.848242 291.190508 
L 290.685307 293.735843 
L 286.32401 296.089531 
L 281.780219 298.24301 
L 277.070464 300.188445 
L 272.211878 301.918758 
L 267.222137 303.427656 
L 262.119394 304.709648 
L 256.922211 305.760072 
L 251.649497 306.575104 
L 246.320432 307.151781 
L 240.954404 307.488005 
L 235.570934 307.582552 
L 230.189608 307.435078 
L 224.830001 307.04612 
L 219.511612 306.417094 
L 214.25379 305.550286 
L 209.075661 304.448851 
L 203.996064 303.116796 
L 199.033478 301.558966 
L 194.205956 299.781029 
L 189.531062 297.789453 
L 185.025801 295.591484 
L 180.706564 293.195116 
L 176.589065 290.609069 
L 172.688281 287.84275 
L 169.018406 284.906223 
L 165.592788 281.810171 
L 162.42389 278.565857 
L 159.523242 275.185084 
L 156.901394 271.680151 
L 155.123748 268.977625 
L 153.511953 266.217955 
L 152.069308 263.406788 
L 150.798764 260.549877 
L 149.702922 257.65307 
L 148.784025 254.722294 
L 148.043954 251.763549 
L 147.484222 248.78289 
L 147.105977 245.786416 
L 146.909991 242.780261 
L 146.896667 239.770578 
L 147.06603 236.763525 
L 147.417736 233.765257 
L 147.951063 230.78191 
L 148.66492 227.819591 
L 149.557847 224.884362 
L 150.628015 221.982229 
L 151.873235 219.119134 
L 153.290958 216.300935 
L 154.878283 213.5334 
L 156.631961 210.822194 
L 158.548402 208.172865 
L 160.623685 205.590835 
L 163.630429 202.261929 
L 166.901033 199.074154 
L 170.423597 196.039107 
L 174.185307 193.167829 
L 178.172479 190.470766 
L 182.370607 187.957731 
L 186.764418 185.637864 
L 191.337928 183.519606 
L 196.074499 181.610663 
L 200.956899 179.917979 
L 205.967366 178.447713 
L 211.087673 177.205213 
L 216.299191 176.194999 
L 221.582963 175.420747 
L 226.919765 174.885273 
L 232.290182 174.590525 
L 237.674678 174.537575 
L 243.053664 174.726616 
L 248.407571 175.156961 
L 253.716921 175.827044 
L 258.9624 176.734426 
L 264.124926 177.875808 
L 269.185716 179.247036 
L 274.12636 180.843122 
L 278.928884 182.658261 
L 283.575816 184.685847 
L 288.050252 186.918506 
L 292.335914 189.348115 
L 296.41721 191.965834 
L 300.279294 194.762141 
L 303.908114 197.726864 
L 307.290469 200.849215 
L 310.414055 204.117838 
L 313.267508 207.520839 
L 315.22404 210.153847 
L 317.018759 212.850099 
L 318.64799 215.604079 
L 320.108399 218.410148 
L 321.396997 221.262566 
L 322.511148 224.155492 
L 323.448571 227.083008 
L 324.207347 230.039122 
L 324.785923 233.017782 
L 325.183116 236.012894 
L 325.398112 239.018327 
L 325.430472 242.027931 
L 325.280128 245.035545 
L 324.94739 248.035015 
L 324.432937 251.020201 
L 323.737823 253.984994 
L 322.863471 256.923327 
L 321.811669 259.829185 
L 320.584571 262.696622 
L 319.184687 265.519768 
L 317.614884 268.292847 
L 315.878373 271.010181 
L 313.978708 273.666211 
L 311.919779 276.255501 
L 308.934122 279.594929 
L 305.683716 282.794155 
L 302.180387 285.841538 
L 298.436878 288.725995 
L 294.466808 291.43703 
L 290.284621 293.964781 
L 285.905531 296.300052 
L 281.345469 298.434348 
L 276.621024 300.359903 
L 271.749384 302.069714 
L 266.748271 303.55756 
L 261.635879 304.818028 
L 256.430808 305.846533 
L 251.151992 306.639332 
L 245.818636 307.193542 
L 240.450142 307.507147 
L 235.066041 307.579006 
L 229.685919 307.408856 
L 224.32935 306.997318 
L 219.015821 306.345889 
L 213.764661 305.456938 
L 208.594974 304.333699 
L 203.525568 302.980258 
L 198.574884 301.40154 
L 193.760933 299.603288 
L 189.101229 297.592043 
L 184.612722 295.375122 
L 180.311741 292.960591 
L 176.213934 290.357234 
L 172.334208 287.57452 
L 168.686678 284.622575 
L 165.284612 281.512136 
L 162.140388 278.25452 
L 159.265445 274.861577 
L 157.292281 272.235469 
L 155.48053 269.54555 
L 153.8339 266.797322 
L 152.355759 263.996413 
L 151.049135 261.148552 
L 149.9167 258.25957 
L 148.960772 255.335379 
L 148.183308 252.381963 
L 147.585899 249.405368 
L 147.169768 246.411684 
L 146.935766 243.407039 
L 146.884372 240.397583 
L 147.015692 237.389474 
L 147.329457 234.388869 
L 147.825024 231.401909 
L 148.501379 228.434708 
L 149.357138 225.493337 
L 150.39055 222.583817 
L 151.599499 219.712103 
L 152.981512 216.884072 
L 154.533759 214.105512 
L 156.253065 211.382109 
L 158.135909 208.719437 
L 160.17844 206.122946 
L 163.142943 202.773069 
L 166.373079 199.562464 
L 169.857096 196.502811 
L 173.582321 193.60524 
L 177.5352 190.880293 
L 181.701354 188.337883 
L 186.065625 185.98726 
L 190.612138 183.836973 
L 195.324352 181.894847 
L 200.185125 180.167947 
L 205.176772 178.662555 
L 210.281135 177.384147 
L 215.479644 176.337374 
L 220.753387 175.526046 
L 226.083179 174.953112 
L 231.449629 174.620657 
L 236.833216 174.529891 
L 242.214354 174.681145 
L 247.573466 175.073867 
L 252.891057 175.706629 
L 258.147781 176.577129 
L 263.324514 177.6822 
L 268.402424 179.017823 
L 273.363037 180.579137 
L 278.188308 182.360464 
L 282.860681 184.355323 
L 287.36316 186.556456 
L 291.679363 188.955856 
L 295.79359 191.544793 
L 299.690872 194.313851 
L 303.357032 197.252954 
L 306.778732 200.351411 
L 309.943524 203.597949 
L 312.839895 206.980758 
L 315.457308 210.487532 
L 317.231534 213.191304 
L 318.839838 215.952105 
L 320.278927 218.764285 
L 321.545857 221.622087 
L 322.638034 224.519663 
L 323.553223 227.451082 
L 324.289552 230.410346 
L 324.845512 233.391397 
L 325.219967 236.388135 
L 325.41215 239.394426 
L 325.421668 242.404118 
L 325.248501 245.41105 
L 324.893003 248.40907 
L 324.355902 251.39204 
L 323.638298 254.353857 
L 322.741659 257.288458 
L 321.66782 260.189837 
L 320.418979 263.052057 
L 318.997692 265.869258 
L 317.406867 268.635677 
L 315.64976 271.34565 
L 313.729969 273.993632 
L 311.651421 276.574203 
L 308.640467 279.900996 
L 305.365833 283.086473 
L 301.839431 286.119045 
L 298.07409 288.987679 
L 294.083509 291.68194 
L 289.882204 294.192026 
L 285.48546 296.508805 
L 280.909273 298.62385 
L 276.17029 300.529465 
L 271.285751 302.218719 
L 266.273426 303.685465 
L 261.15155 304.924369 
L 255.938756 305.930921 
L 250.654007 306.701462 
L 245.31653 307.233188 
L 239.945742 307.524164 
L 234.561182 307.573332 
L 229.182438 307.380512 
L 223.829078 306.946407 
L 218.520577 306.272596 
L 213.276248 305.36153 
L 208.115169 304.216523 
L 203.056115 302.84174 
L 198.117493 301.242184 
L 193.317267 299.423674 
L 188.672901 297.392824 
L 184.201291 295.157024 
L 179.918704 292.724406 
L 175.840721 290.103821 
L 171.982177 287.304803 
L 168.357108 284.337533 
L 164.978704 281.212807 
L 161.859254 277.941992 
L 159.010107 274.536988 
L 157.056906 271.902607 
L 155.265599 269.205096 
L 153.639852 266.449973 
L 152.182993 263.642879 
L 150.898003 260.789558 
L 149.787512 257.89585 
L 148.853793 254.967677 
L 148.098757 252.011032 
L 147.523948 249.031966 
L 147.130544 246.036577 
L 146.91935 243.030994 
L 146.890797 240.021369 
L 147.044945 237.013862 
L 147.381477 234.014627 
L 147.899706 231.029803 
L 148.59857 228.0655 
L 149.476639 225.127782 
L 150.532116 222.222664 
L 151.762841 219.356091 
L 153.166295 216.533929 
L 154.739605 213.761954 
L 156.479553 211.04584 
L 158.382576 208.391146 
L 160.44478 205.803304 
L 163.434659 202.465974 
L 166.68911 199.269033 
L 170.196293 196.224111 
L 173.943449 193.342285 
L 177.916946 190.63404 
L 182.102329 188.109228 
L 186.484371 185.777033 
L 191.047131 183.645941 
L 195.774009 181.723704 
L 200.64781 180.017316 
L 205.650802 178.532983 
L 210.764786 177.276107 
L 215.971156 176.251259 
L 221.250973 175.462167 
L 226.585028 174.911703 
L 231.953916 174.601869 
L 237.338105 174.533792 
L 242.718009 174.70772 
L 248.074055 175.12302 
L 253.386759 175.778182 
L 258.636792 176.670821 
L 263.805055 177.79769 
L 268.872747 179.154691 
L 273.821432 180.736885 
L 278.633106 182.538518 
L 283.290264 184.553035 
L 287.775965 186.773107 
L 292.073889 189.190658 
L 296.168401 191.796892 
L 300.044606 194.582329 
L 303.6884 197.536836 
L 307.08653 200.649663 
L 310.226632 203.909486 
L 313.097283 207.304447 
L 315.067123 209.931939 
L 316.875471 212.62313 
L 318.518625 215.372512 
L 319.993221 218.174459 
L 321.296243 221.023236 
L 322.425023 223.913012 
L 323.377252 226.837873 
L 324.150979 229.791834 
L 324.744623 232.768848 
L 325.156967 235.762822 
L 325.387168 238.76763 
L 325.434755 241.777121 
L 325.29963 244.785137 
L 324.98207 247.78552 
L 324.482726 250.77213 
L 323.802617 253.738856 
L 322.943138 256.679624 
L 321.906046 259.588416 
L 320.693465 262.45928 
L 319.307876 265.286339 
L 317.752114 268.063808 
L 316.029365 270.786002 
L 314.143153 273.447351 
L 312.097339 276.042406 
L 309.1286 279.390199 
L 305.894404 282.598533 
L 302.406518 285.655738 
L 298.67763 288.550691 
L 294.721306 291.27286 
L 290.551938 293.812343 
L 286.184695 296.159901 
L 281.635464 298.306993 
L 276.920795 300.245808 
L 272.057841 301.969294 
L 267.064292 303.471179 
L 261.958314 304.746001 
L 256.758483 305.789122 
L 251.483716 306.596746 
L 246.153202 307.165937 
L 240.786333 307.494622 
L 235.402634 307.581606 
L 230.02169 307.426573 
L 224.663076 307.030088 
L 219.346288 306.393591 
L 214.090668 305.519399 
L 208.915335 304.410692 
L 203.839117 303.071503 
L 198.880481 301.506705 
L 194.057465 299.72199 
L 189.387618 297.723851 
L 184.887925 295.519557 
L 180.574759 293.117126 
L 176.463809 290.5253 
L 172.570031 287.753506 
L 168.907591 284.811829 
L 165.489811 281.710971 
L 162.329127 278.462211 
L 159.437037 275.077369 
L 156.82406 271.568759 
L 155.053255 268.863741 
L 153.448444 266.101812 
L 152.012913 263.288623 
L 150.749599 260.429932 
L 149.661087 257.531591 
L 148.749607 254.59953 
L 148.017022 251.63975 
L 147.464832 248.65831 
L 147.094168 245.66131 
L 146.905788 242.654886 
L 146.900077 239.645189 
L 147.077048 236.638379 
L 147.436338 233.64061 
L 147.977211 230.658018 
L 148.698561 227.696707 
L 149.598912 224.762737 
L 150.676421 221.862113 
L 151.928882 219.000772 
L 153.353732 216.18457 
L 154.948055 213.41927 
L 156.708589 210.710532 
L 158.631729 208.0639 
L 161.442011 204.641008 
L 164.524113 201.350592 
L 167.866824 198.204623 
L 171.457982 195.214545 
L 175.284523 192.391236 
L 179.332526 189.744967 
L 183.587265 187.285366 
L 188.033261 185.02138 
L 192.654341 182.961245 
L 197.433691 181.112457 
L 202.353927 179.48174 
L 207.397147 178.075028 
L 212.545006 176.897438 
L 217.778775 175.953254 
L 223.079413 175.24591 
L 228.427639 174.777981 
L 233.803994 174.551168 
L 239.188921 174.566297 
L 244.562828 174.823313 
L 249.906166 175.32128 
L 255.199497 176.058387 
L 260.423562 177.031952 
L 265.559358 178.238434 
L 270.5882 179.673444 
L 275.491794 181.33176 
L 280.2523 183.207351 
L 284.852401 185.293392 
L 289.275361 187.582295 
L 293.50509 190.065734 
L 297.5262 192.734672 
L 301.324062 195.579402 
L 304.88486 198.589573 
L 308.195641 201.754235 
L 311.244359 205.061875 
L 314.019923 208.500461 
L 315.916227 211.157824 
L 317.6493 213.876377 
L 319.215595 216.650557 
L 320.611907 219.474685 
L 321.835377 222.342982 
L 322.883503 225.249578 
L 323.754139 228.188523 
L 324.445502 231.153804 
L 324.956178 234.13935 
L 325.285123 237.139052 
L 325.431662 240.146771 
L 325.395495 243.15635 
L 325.176698 246.161631 
L 324.775716 249.156462 
L 324.193372 252.134715 
L 323.430857 255.090294 
L 322.489732 258.01715 
L 321.371922 260.909293 
L 320.079716 263.760804 
L 318.615758 266.565847 
L 316.983044 269.318681 
L 315.184916 272.013672 
L 313.225054 274.645304 
L 310.367298 278.0463 
L 307.239579 281.312727 
L 303.853275 284.432701 
L 300.220707 287.394873 
L 296.355088 290.188467 
L 292.270483 292.803319 
L 287.98175 295.229916 
L 283.504491 297.459431 
L 278.854996 299.483753 
L 274.050178 301.295517 
L 269.107517 302.888133 
L 264.044995 304.255806 
L 258.881028 305.393561 
L 253.634404 306.297259 
L 248.324208 306.963612 
L 242.969759 307.390196 
L 237.590537 307.575459 
L 232.20611 307.518728 
L 226.836068 307.220208 
L 221.499946 306.680985 
L 216.217156 305.903022 
L 211.006917 304.889149 
L 205.888185 303.643053 
L 200.879579 302.169268 
L 195.999323 300.473156 
L 191.265169 298.560887 
L 186.69434 296.439417 
L 182.303465 294.116466 
L 178.108518 291.600483 
L 174.12476 288.900621 
L 170.366683 286.026702 
L 166.847959 282.989182 
L 163.58139 279.799111 
L 160.578858 276.468095 
L 157.851287 273.008251 
L 155.992059 270.33638 
L 154.296905 267.604583 
L 152.769294 264.818451 
L 151.412352 261.983687 
L 150.228856 259.106092 
L 149.221229 256.191554 
L 148.391533 253.246041 
L 147.741465 250.275578 
L 147.272357 247.286247 
L 146.985168 244.284165 
L 146.880486 241.275476 
L 146.958525 238.266337 
L 147.219126 235.262908 
L 147.661756 232.271336 
L 148.285508 229.297742 
L 149.089105 226.348213 
L 150.070904 223.428785 
L 151.228895 220.545434 
L 152.560707 217.70406 
L 154.063616 214.910478 
L 155.734544 212.170407 
L 157.570073 209.489453 
L 159.566446 206.873104 
L 162.47137 203.49437 
L 165.64437 200.252283 
L 169.073903 197.158638 
L 172.747491 194.22469 
L 176.651772 191.461112 
L 180.772541 188.877958 
L 185.094807 186.484626 
L 189.602846 184.289821 
L 194.280257 182.30153 
L 199.110026 180.526985 
L 204.07458 178.972641 
L 209.15586 177.644154 
L 214.33538 176.546357 
L 219.594297 175.683242 
L 224.913479 175.057951 
L 230.273575 174.672758 
L 235.655086 174.529064 
L 241.038433 174.627392 
L 246.404034 174.967384 
L 251.732366 175.547804 
L 257.004048 176.36654 
L 262.199899 177.420613 
L 267.301019 178.706189 
L 272.288849 180.21859 
L 277.145244 181.952316 
L 281.852536 183.901058 
L 286.393601 186.057727 
L 290.751918 188.414477 
L 294.911633 190.962735 
L 298.857611 193.69323 
L 302.575499 196.596028 
L 306.051769 199.66057 
L 309.273777 202.875707 
L 312.2298 206.229742 
L 314.909085 209.710473 
L 316.731036 212.396564 
L 318.388089 215.141311 
L 319.876852 217.939095 
L 321.194279 220.784191 
L 322.337672 223.670775 
L 323.304693 226.59294 
L 324.093361 229.544706 
L 324.702063 232.520031 
L 325.129553 235.512826 
L 325.374955 238.516966 
L 325.437769 241.526302 
L 325.317865 244.534675 
L 325.015488 247.535929 
L 324.531258 250.523922 
L 323.866166 253.492536 
L 323.021572 256.435698 
L 321.999205 259.347384 
L 320.801158 262.221634 
L 319.429883 265.052566 
L 317.888185 267.834386 
L 316.179221 270.561401 
L 314.306488 273.228029 
L 312.273819 275.828814 
L 309.32204 279.184923 
L 306.1041 282.402322 
L 302.631708 285.469304 
L 298.917494 288.374712 
L 294.974971 291.107978 
L 290.818482 293.659156 
L 286.463147 296.018966 
L 281.924812 298.178824 
L 277.219987 300.130871 
L 272.365787 301.868007 
L 267.379873 303.383911 
L 262.280382 304.673069 
L 257.085866 305.730791 
L 251.815222 306.553229 
L 246.487626 307.137391 
L 241.122458 307.481152 
L 235.739237 307.583261 
L 230.357547 307.443347 
L 224.996966 307.061919 
L 219.676995 306.440364 
L 214.416989 305.580944 
L 209.236083 304.486785 
L 204.153125 303.161867 
L 199.186607 301.611011 
L 194.354596 299.839859 
L 189.674671 297.854854 
L 185.163858 295.663217 
L 180.838567 293.272921 
L 176.714532 290.692663 
L 172.806758 287.931828 
L 169.129459 285.000462 
L 165.696015 281.909227 
L 162.518916 278.66937 
L 159.609719 275.292678 
L 156.979009 271.791434 
L 155.19453 269.09141 
L 153.575756 266.334009 
L 152.126001 263.524873 
L 150.848232 260.669752 
L 149.745063 257.774489 
L 148.818754 254.84501 
L 148.071199 251.88731 
L 147.503928 248.907442 
L 147.118102 245.911505 
L 146.914512 242.905631 
L 146.893573 239.895971 
L 147.055329 236.888686 
L 147.399449 233.889929 
L 147.925227 230.905839 
L 148.631589 227.942522 
L 149.517089 225.006043 
L 150.579913 222.102413 
L 151.817888 219.237574 
L 153.228479 216.417388 
L 154.8088 213.647629 
L 156.555615 210.933964 
L 158.465351 208.281947 
L 160.534098 205.697007 
L 163.532415 202.363883 
L 166.794948 199.171519 
L 170.309828 196.131529 
L 174.064268 193.254972 
L 178.044609 190.552313 
L 182.236372 188.033385 
L 186.624306 185.70735 
L 191.192449 183.582672 
L 195.924182 181.667078 
L 200.802291 179.967539 
L 205.80903 178.490237 
L 210.926184 177.240547 
L 216.135138 176.223014 
L 221.416942 175.44134 
L 226.75238 174.89837 
L 232.122042 174.596079 
L 237.506394 174.535565 
L 242.885849 174.71705 
L 248.240834 175.139874 
L 253.551871 175.802497 
L 258.799636 176.702509 
L 263.96504 177.836637 
L 269.02929 179.200753 
L 273.973963 180.789897 
L 278.78107 182.598285 
L 283.433124 184.619341 
L 287.913201 186.84571 
L 292.205001 189.269294 
L 296.292913 191.881276 
L 300.162063 194.672153 
L 303.798377 197.631772 
L 307.188626 200.749367 
L 310.320475 204.013596 
L 313.182532 207.412583 
L 315.145722 210.042838 
L 316.947258 212.736564 
L 318.583454 215.48825 
L 320.050959 218.292263 
L 321.346772 221.142865 
L 322.468239 224.034222 
L 323.413066 226.960416 
L 324.17932 229.915458 
L 324.765431 232.8933 
L 325.1702 235.887849 
L 325.392799 238.892975 
L 325.432772 241.902528 
L 325.290038 244.910348 
L 324.964888 247.910279 
L 324.457988 250.896183 
L 323.770376 253.861948 
L 322.903458 256.801503 
L 321.85901 259.708834 
L 320.639168 262.577989 
L 319.246429 265.403097 
L 317.683644 268.178376 
L 315.95401 270.898145 
L 314.061069 273.556839 
L 312.008693 276.149016 
L 309.03149 279.492632 
L 305.789184 282.696418 
L 302.29357 285.748718 
L 298.557365 288.638427 
L 294.594161 291.355034 
L 290.418376 293.888656 
L 286.045201 296.230074 
L 281.490547 298.370772 
L 276.770982 300.302961 
L 271.903676 302.019612 
L 266.906336 303.514481 
L 261.797142 304.782128 
L 256.594682 305.817942 
L 251.317881 306.618156 
L 245.985936 307.179857 
L 240.618245 307.501003 
L 235.234335 307.580424 
L 229.853793 307.417833 
L 224.496193 307.01382 
L 219.181024 306.369856 
L 213.927625 305.488283 
L 208.755106 304.372308 
L 203.682285 303.025991 
L 198.727616 301.45423 
L 193.909124 299.662743 
L 189.24434 297.658048 
L 184.750232 295.447436 
L 180.443151 293.038951 
L 176.338765 290.441355 
L 172.452007 287.664096 
L 168.797015 284.71728 
L 165.387086 281.611625 
L 162.234627 278.358432 
L 159.351104 274.969533 
L 156.747009 271.457259 
L 154.98305 268.749758 
L 153.385229 265.985579 
L 151.956817 263.170379 
L 150.700738 260.309919 
L 149.61956 257.410053 
L 148.715499 254.476717 
L 147.990403 251.515914 
L 147.445757 248.533703 
L 147.082675 245.536188 
L 146.901901 242.529504 
L 146.903805 239.519804 
L 147.088382 236.513249 
L 147.455255 233.51599 
L 148.003673 230.534163 
L 148.732514 227.573871 
L 149.640285 224.641171 
L 150.72513 221.742066 
L 151.984828 218.882489 
L 153.4168 216.068293 
L 155.018116 213.305238 
L 156.785499 210.598978 
L 158.715332 207.955051 
L 161.534268 204.536113 
L 164.624689 201.250033 
L 167.975352 198.108765 
L 171.574068 195.123737 
L 175.407745 192.305808 
L 179.462436 189.665231 
L 183.72339 187.211611 
L 188.175106 184.953874 
L 192.801389 182.900235 
L 197.585408 181.058163 
L 202.50976 179.434361 
L 207.556531 178.034736 
L 212.707359 176.864379 
L 217.943507 175.927549 
L 223.245926 175.227652 
L 228.595326 174.767237 
L 233.972245 174.547977 
L 239.357124 174.57067 
L 244.730372 174.835234 
L 250.072441 175.340706 
L 255.363897 176.085248 
L 260.58549 177.06615 
L 265.718224 178.279844 
L 270.743427 179.721915 
L 275.642817 181.387117 
L 280.39857 183.269391 
L 284.993385 185.361891 
L 289.410547 187.657003 
L 293.633986 190.146379 
L 297.648336 192.820961 
L 301.438995 195.671021 
L 304.992172 198.686189 
L 308.29494 201.855496 
L 311.335285 205.167413 
L 314.102145 208.609891 
L 315.991723 211.269913 
L 317.717915 213.990896 
L 319.277189 216.767271 
L 320.666354 219.593356 
L 321.882566 222.463367 
L 322.923337 225.37143 
L 323.786536 228.311593 
L 324.470396 231.277839 
L 324.973519 234.264097 
L 325.294874 237.264256 
L 325.433803 240.272175 
L 325.390023 243.281698 
L 325.163623 246.286667 
L 324.755066 249.28093 
L 324.165189 252.258359 
L 323.395198 255.212862 
L 322.44667 258.138391 
L 321.321545 261.028958 
L 320.022128 263.878649 
L 318.551076 266.68163 
L 316.911401 269.432166 
L 315.106458 272.124626 
L 313.139942 274.7535 
L 310.273586 278.150476 
L 307.137609 281.412503 
L 303.743419 284.527715 
L 300.103363 287.484779 
L 296.230684 290.272938 
L 292.13947 292.882047 
L 287.844606 295.302616 
L 283.361715 297.525837 
L 278.707107 299.543624 
L 273.897714 301.348636 
L 268.951033 302.934306 
L 263.88506 304.294865 
L 258.718224 305.425364 
L 253.469322 306.32169 
L 248.15745 306.980582 
L 242.801932 307.399644 
L 237.42225 307.577351 
L 232.037977 307.513056 
L 226.668699 307.206993 
L 221.333951 306.660275 
L 216.053138 305.874893 
L 210.845474 304.853702 
L 205.729903 303.600418 
L 200.725035 302.1196 
L 195.849078 300.416635 
L 191.11977 298.497719 
L 186.554317 296.369833 
L 182.169326 294.040717 
L 177.980752 291.518846 
L 174.003831 288.813393 
L 170.253031 285.9342 
L 166.741998 282.891743 
L 163.483505 279.697089 
L 160.489405 276.36186 
L 157.770592 272.898191 
L 155.918127 270.223713 
L 154.229887 267.48954 
L 152.709327 264.701267 
L 151.359559 261.864602 
L 150.183345 258.985349 
L 149.183093 256.069402 
L 148.36085 253.122727 
L 147.718298 250.151357 
L 147.256753 247.161372 
L 146.977159 244.158892 
L 146.880089 241.150061 
L 146.965741 238.141038 
L 147.23394 235.13798 
L 147.684137 232.147035 
L 148.31541 229.174323 
L 149.126468 226.225928 
L 150.115651 223.307884 
L 151.280934 220.426165 
L 152.619932 217.586666 
L 154.129906 214.795201 
L 155.807763 212.057481 
L 157.650072 209.379111 
L 159.65306 206.765571 
L 162.566526 203.390923 
L 165.747722 200.153299 
L 169.185075 197.064478 
L 172.86608 194.135695 
L 176.777345 191.377607 
L 180.904642 188.800246 
L 185.232955 186.412989 
L 189.746538 184.224522 
L 194.428972 182.242804 
L 199.263221 180.475047 
L 204.231699 178.92768 
L 209.31633 177.606333 
L 214.498618 176.515813 
L 219.759709 175.660088 
L 225.080463 175.04227 
L 230.441525 174.664607 
L 235.823389 174.528473 
L 241.206479 174.634363 
L 246.571209 174.981892 
L 251.898064 175.569796 
L 257.167665 176.395935 
L 262.360841 177.457305 
L 267.458699 178.750044 
L 272.442694 180.26945 
L 277.294694 182.009994 
L 281.997048 183.965345 
L 286.532649 186.128389 
L 290.884996 188.491258 
L 295.038256 191.045354 
L 298.97732 193.781388 
L 302.687857 196.689404 
L 306.156369 199.758823 
L 309.370238 202.97848 
L 312.31777 206.336662 
L 314.988244 209.82115 
L 316.803397 212.509796 
L 318.453503 215.256866 
L 319.935186 218.056736 
L 321.245412 220.903677 
L 322.381501 223.791863 
L 323.341127 226.715381 
L 324.122326 229.66825 
L 324.7235 232.644425 
L 325.143418 235.637815 
L 325.38122 238.642294 
L 325.436421 241.651713 
L 325.308906 244.659912 
L 324.998937 247.660736 
L 324.507149 250.648043 
L 323.834547 253.615718 
L 322.982509 256.557689 
L 321.952778 259.467933 
L 320.747462 262.340495 
L 319.369027 265.169495 
L 317.820295 267.949145 
L 316.104435 270.673754 
L 314.224959 273.337747 
L 312.185714 275.935672 
L 309.22545 279.287629 
L 305.999376 282.500501 
L 302.519231 285.5626 
L 298.797673 288.462786 
L 294.848242 291.190508 
L 290.685307 293.735843 
L 286.32401 296.089531 
L 281.780219 298.24301 
L 277.070464 300.188445 
L 272.211878 301.918758 
L 267.222137 303.427656 
L 262.119394 304.709648 
L 256.922211 305.760072 
L 251.649497 306.575104 
L 246.320432 307.151781 
L 240.954404 307.488005 
L 235.570934 307.582552 
L 230.189608 307.435078 
L 224.830001 307.04612 
L 219.511612 306.417094 
L 214.25379 305.550286 
L 209.075661 304.448851 
L 203.996064 303.116796 
L 199.033478 301.558966 
L 194.205956 299.781029 
L 189.531062 297.789453 
L 185.025801 295.591484 
L 180.706564 293.195116 
L 176.589065 290.609069 
L 172.688281 287.84275 
L 169.018406 284.906223 
L 165.592788 281.810171 
L 162.42389 278.565857 
L 159.523242 275.185084 
L 156.901394 271.680151 
L 155.123748 268.977625 
L 153.511953 266.217955 
L 152.069308 263.406788 
L 150.798764 260.549877 
L 149.702922 257.65307 
L 148.784025 254.722294 
L 148.043954 251.763549 
L 147.484222 248.78289 
L 147.105977 245.786416 
L 146.909991 242.780261 
L 146.896667 239.770578 
L 147.06603 236.763525 
L 147.417736 233.765257 
L 147.951063 230.78191 
L 148.66492 227.819591 
L 149.557847 224.884362 
L 150.628015 221.982229 
L 151.873235 219.119134 
L 153.290958 216.300935 
L 154.878283 213.5334 
L 156.631961 210.822194 
L 158.548402 208.172865 
L 160.623685 205.590835 
L 163.630429 202.261929 
L 166.901033 199.074154 
L 170.423597 196.039107 
L 174.185307 193.167829 
L 178.172479 190.470766 
L 182.370607 187.957731 
L 186.764418 185.637864 
L 191.337928 183.519606 
L 196.074499 181.610663 
L 200.956899 179.917979 
L 205.967366 178.447713 
L 211.087673 177.205213 
L 216.299191 176.194999 
L 221.582963 175.420747 
L 226.919765 174.885273 
L 232.290182 174.590525 
L 237.674678 174.537575 
L 243.053664 174.726616 
L 248.407571 175.156961 
L 253.716921 175.827044 
L 258.9624 176.734426 
L 264.124926 177.875808 
L 269.185716 179.247036 
L 274.12636 180.843122 
L 278.928884 182.658261 
L 283.575816 184.685847 
L 288.050252 186.918506 
L 292.335914 189.348115 
L 296.41721 191.965834 
L 300.279294 194.762141 
L 303.908114 197.726864 
L 307.290469 200.849215 
L 310.414055 204.117838 
L 313.267508 207.520839 
L 315.22404 210.153847 
L 317.018759 212.850099 
L 318.64799 215.604079 
L 320.108399 218.410148 
L 321.396997 221.262566 
L 322.511148 224.155492 
L 323.448571 227.083008 
L 324.207347 230.039122 
L 324.785923 233.017782 
L 325.183116 236.012894 
L 325.398112 239.018327 
L 325.430472 242.027931 
L 325.280128 245.035545 
L 324.94739 248.035015 
L 324.432937 251.020201 
L 323.737823 253.984994 
L 322.863471 256.923327 
L 321.811669 259.829185 
L 320.584571 262.696622 
L 319.184687 265.519768 
L 317.614884 268.292847 
L 315.878373 271.010181 
L 313.978708 273.666211 
L 311.919779 276.255501 
L 308.934122 279.594929 
L 305.683716 282.794155 
L 302.180387 285.841538 
L 298.436878 288.725995 
L 294.466808 291.43703 
L 290.284621 293.964781 
L 285.905531 296.300052 
L 281.345469 298.434348 
L 276.621024 300.359903 
L 271.749384 302.069714 
L 266.748271 303.55756 
L 261.635879 304.818028 
L 256.430808 305.846533 
L 251.151992 306.639332 
L 245.818636 307.193542 
L 240.450142 307.507147 
L 235.066041 307.579006 
L 229.685919 307.408856 
L 224.32935 306.997318 
L 219.015821 306.345889 
L 213.764661 305.456938 
L 208.594974 304.333699 
L 203.525568 302.980258 
L 198.574884 301.40154 
L 193.760933 299.603288 
L 189.101229 297.592043 
L 184.612722 295.375122 
L 180.311741 292.960591 
L 176.213934 290.357234 
L 172.334208 287.57452 
L 168.686678 284.622575 
L 165.284612 281.512136 
L 162.140388 278.25452 
L 159.265445 274.861577 
L 157.292281 272.235469 
L 155.48053 269.54555 
L 153.8339 266.797322 
L 152.355759 263.996413 
L 151.049135 261.148552 
L 149.9167 258.25957 
L 148.960772 255.335379 
L 148.183308 252.381963 
L 147.585899 249.405368 
L 147.169768 246.411684 
L 146.935766 243.407039 
L 146.884372 240.397583 
L 147.015692 237.389474 
L 147.329457 234.388869 
L 147.825024 231.401909 
L 148.501379 228.434708 
L 149.357138 225.493337 
L 150.39055 222.583817 
L 151.599499 219.712103 
L 152.981512 216.884072 
L 154.533759 214.105512 
L 156.253065 211.382109 
L 158.135909 208.719437 
L 160.17844 206.122946 
L 163.142943 202.773069 
L 166.373079 199.562464 
L 169.857096 196.502811 
L 173.582321 193.60524 
L 177.5352 190.880293 
L 181.701354 188.337883 
L 186.065625 185.98726 
L 190.612138 183.836973 
L 195.324352 181.894847 
L 200.185125 180.167947 
L 205.176772 178.662555 
L 210.281135 177.384147 
L 215.479644 176.337374 
L 220.753387 175.526046 
L 226.083179 174.953112 
L 231.449629 174.620657 
L 236.833216 174.529891 
L 242.214354 174.681145 
L 247.573466 175.073867 
L 252.891057 175.706629 
L 258.147781 176.577129 
L 263.324514 177.6822 
L 268.402424 179.017823 
L 273.363037 180.579137 
L 278.188308 182.360464 
L 282.860681 184.355323 
L 287.36316 186.556456 
L 291.679363 188.955856 
L 295.79359 191.544793 
L 299.690872 194.313851 
L 303.357032 197.252954 
L 306.778732 200.351411 
L 309.943524 203.597949 
L 312.839895 206.980758 
L 315.457308 210.487532 
L 317.231534 213.191304 
L 318.839838 215.952105 
L 320.278927 218.764285 
L 321.545857 221.622087 
L 322.638034 224.519663 
L 323.553223 227.451082 
L 324.289552 230.410346 
L 324.845512 233.391397 
L 325.219967 236.388135 
L 325.41215 239.394426 
L 325.421668 242.404118 
L 325.248501 245.41105 
L 324.893003 248.40907 
L 324.355902 251.39204 
L 323.638298 254.353857 
L 322.741659 257.288458 
L 321.66782 260.189837 
L 320.418979 263.052057 
L 318.997692 265.869258 
L 317.406867 268.635677 
L 315.64976 271.34565 
L 313.729969 273.993632 
L 311.651421 276.574203 
L 308.640467 279.900996 
L 305.365833 283.086473 
L 301.839431 286.119045 
L 298.07409 288.987679 
L 294.083509 291.68194 
L 289.882204 294.192026 
L 285.48546 296.508805 
L 280.909273 298.62385 
L 276.17029 300.529465 
L 271.285751 302.218719 
L 266.273426 303.685465 
L 261.15155 304.924369 
L 255.938756 305.930921 
L 250.654007 306.701462 
L 245.31653 307.233188 
L 239.945742 307.524164 
L 234.561182 307.573332 
L 229.182438 307.380512 
L 223.829078 306.946407 
L 218.520577 306.272596 
L 213.276248 305.36153 
L 208.115169 304.216523 
L 203.056115 302.84174 
L 198.117493 301.242184 
L 193.317267 299.423674 
L 188.672901 297.392824 
L 184.201291 295.157024 
L 179.918704 292.724406 
L 175.840721 290.103821 
L 171.982177 287.304803 
L 168.357108 284.337533 
L 164.978704 281.212807 
L 161.859254 277.941992 
L 159.010107 274.536988 
L 157.056906 271.902607 
L 155.265599 269.205096 
L 153.639852 266.449973 
L 152.182993 263.642879 
L 150.898003 260.789558 
L 149.787512 257.89585 
L 148.853793 254.967677 
L 148.098757 252.011032 
L 147.523948 249.031966 
L 147.130544 246.036577 
L 146.91935 243.030994 
L 146.890797 240.021369 
L 147.044945 237.013862 
L 147.381477 234.014627 
L 147.899706 231.029803 
L 148.59857 228.0655 
L 149.476639 225.127782 
L 150.532116 222.222664 
L 151.762841 219.356091 
L 153.166295 216.533929 
L 154.739605 213.761954 
L 156.479553 211.04584 
L 158.382576 208.391146 
L 160.44478 205.803304 
L 163.434659 202.465974 
L 166.68911 199.269033 
L 170.196293 196.224111 
L 173.943449 193.342285 
L 177.916946 190.63404 
L 182.102329 188.109228 
L 186.484371 185.777033 
L 191.047131 183.645941 
L 195.774009 181.723704 
L 200.64781 180.017316 
L 205.650802 178.532983 
L 210.764786 177.276107 
L 215.971156 176.251259 
L 221.250973 175.462167 
L 226.585028 174.911703 
L 231.953916 174.601869 
L 237.338105 174.533792 
L 242.718009 174.70772 
L 248.074055 175.12302 
L 253.386759 175.778182 
L 258.636792 176.670821 
L 263.805055 177.79769 
L 268.872747 179.154691 
L 273.821432 180.736885 
L 278.633106 182.538518 
L 283.290264 184.553035 
L 287.775965 186.773107 
L 292.073889 189.190658 
L 296.168401 191.796892 
L 300.044606 194.582329 
L 303.6884 197.536836 
L 307.08653 200.649663 
L 310.226632 203.909486 
L 313.097283 207.304447 
L 315.067123 209.931939 
L 316.875471 212.62313 
L 318.518625 215.372512 
L 319.993221 218.174459 
L 321.296243 221.023236 
L 322.425023 223.913012 
L 323.377252 226.837873 
L 324.150979 229.791834 
L 324.744623 232.768848 
L 325.156967 235.762822 
L 325.387168 238.76763 
L 325.434755 241.777121 
L 325.29963 244.785137 
L 324.98207 247.78552 
L 324.482726 250.77213 
L 323.802617 253.738856 
L 322.943138 256.679624 
L 321.906046 259.588416 
L 320.693465 262.45928 
L 319.307876 265.286339 
L 317.752114 268.063808 
L 316.029365 270.786002 
L 314.143153 273.447351 
L 312.097339 276.042406 
L 309.1286 279.390199 
L 305.894404 282.598533 
L 302.406518 285.655738 
L 298.67763 288.550691 
L 294.721306 291.27286 
L 290.551938 293.812343 
L 286.184695 296.159901 
L 281.635464 298.306993 
L 276.920795 300.245808 
L 272.057841 301.969294 
L 267.064292 303.471179 
L 261.958314 304.746001 
L 256.758483 305.789122 
L 251.483716 306.596746 
L 246.153202 307.165937 
L 240.786333 307.494622 
L 235.402634 307.581606 
L 230.02169 307.426573 
L 224.663076 307.030088 
L 219.346288 306.393591 
L 214.090668 305.519399 
L 208.915335 304.410692 
L 203.839117 303.071503 
L 198.880481 301.506705 
L 194.057465 299.72199 
L 189.387618 297.723851 
L 184.887925 295.519557 
L 180.574759 293.117126 
L 176.463809 290.5253 
L 172.570031 287.753506 
L 168.907591 284.811829 
L 165.489811 281.710971 
L 162.329127 278.462211 
L 159.437037 275.077369 
L 156.82406 271.568759 
L 155.053255 268.863741 
L 153.448444 266.101812 
L 152.012913 263.288623 
L 150.749599 260.429932 
L 149.661087 257.531591 
L 148.749607 254.59953 
L 148.017022 251.63975 
L 147.464832 248.65831 
L 147.094168 245.66131 
L 146.905788 242.654886 
L 146.900077 239.645189 
L 147.077048 236.638379 
L 147.436338 233.64061 
L 147.977211 230.658018 
L 148.698561 227.696707 
L 149.598912 224.762737 
L 150.676421 221.862113 
L 151.928882 219.000772 
L 153.353732 216.18457 
L 154.948055 213.41927 
L 156.708589 210.710532 
L 158.631729 208.0639 
L 161.442011 204.641008 
L 164.524113 201.350592 
L 167.866824 198.204623 
L 171.457982 195.214545 
L 175.284523 192.391236 
L 179.332526 189.744967 
L 183.587265 187.285366 
L 188.033261 185.02138 
L 192.654341 182.961245 
L 197.433691 181.112457 
L 202.353927 179.48174 
L 207.397147 178.075028 
L 212.545006 176.897438 
L 217.778775 175.953254 
L 223.079413 175.24591 
L 228.427639 174.777981 
L 233.803994 174.551168 
L 239.188921 174.566297 
L 244.562828 174.823313 
L 249.906166 175.32128 
L 255.199497 176.058387 
L 260.423562 177.031952 
L 265.559358 178.238434 
L 270.5882 179.673444 
L 275.491794 181.33176 
L 280.2523 183.207351 
L 284.852401 185.293392 
L 289.275361 187.582295 
L 293.50509 190.065734 
L 297.5262 192.734672 
L 301.324062 195.579402 
L 304.88486 198.589573 
L 308.195641 201.754235 
L 311.244359 205.061875 
L 314.019923 208.500461 
L 315.916227 211.157824 
L 317.6493 213.876377 
L 319.215595 216.650557 
L 320.611907 219.474685 
L 321.835377 222.342982 
L 322.883503 225.249578 
L 323.754139 228.188523 
L 324.445502 231.153804 
L 324.956178 234.13935 
L 325.285123 237.139052 
L 325.431662 240.146771 
L 325.395495 243.15635 
L 325.176698 246.161631 
L 324.775716 249.156462 
L 324.193372 252.134715 
L 323.430857 255.090294 
L 322.489732 258.01715 
L 321.371922 260.909293 
L 320.079716 263.760804 
L 318.615758 266.565847 
L 316.983044 269.318681 
L 315.184916 272.013672 
L 313.225054 274.645304 
L 310.367298 278.0463 
L 307.239579 281.312727 
L 303.853275 284.432701 
L 300.220707 287.394873 
L 296.355088 290.188467 
L 292.270483 292.803319 
L 287.98175 295.229916 
L 283.504491 297.459431 
L 278.854996 299.483753 
L 274.050178 301.295517 
L 269.107517 302.888133 
L 264.044995 304.255806 
L 258.881028 305.393561 
L 253.634404 306.297259 
L 248.324208 306.963612 
L 242.969759 307.390196 
L 237.590537 307.575459 
L 232.20611 307.518728 
L 226.836068 307.220208 
L 221.499946 306.680985 
L 216.217156 305.903022 
L 211.006917 304.889149 
L 205.888185 303.643053 
L 200.879579 302.169268 
L 195.999323 300.473156 
L 191.265169 298.560887 
L 186.69434 296.439417 
L 182.303465 294.116466 
L 178.108518 291.600483 
L 174.12476 288.900621 
L 170.366683 286.026702 
L 166.847959 282.989182 
L 163.58139 279.799111 
L 160.578858 276.468095 
L 157.851287 273.008251 
L 155.992059 270.33638 
L 154.296905 267.604583 
L 152.769294 264.818451 
L 151.412352 261.983687 
L 150.228856 259.106092 
L 149.221229 256.191554 
L 148.391533 253.246041 
L 147.741465 250.275578 
L 147.272357 247.286247 
L 146.985168 244.284165 
L 146.880486 241.275476 
L 146.958525 238.266337 
L 147.219126 235.262908 
L 147.661756 232.271336 
L 148.285508 229.297742 
L 149.089105 226.348213 
L 150.070904 223.428785 
L 151.228895 220.545434 
L 152.560707 217.70406 
L 154.063616 214.910478 
L 155.734544 212.170407 
L 157.570073 209.489453 
L 159.566446 206.873104 
L 162.47137 203.49437 
L 165.64437 200.252283 
L 169.073903 197.158638 
L 172.747491 194.22469 
L 176.651772 191.461112 
L 180.772541 188.877958 
L 185.094807 186.484626 
L 189.602846 184.289821 
L 194.280257 182.30153 
L 199.110026 180.526985 
L 204.07458 178.972641 
L 209.15586 177.644154 
L 214.33538 176.546357 
L 219.594297 175.683242 
L 224.913479 175.057951 
L 230.273575 174.672758 
L 235.655086 174.529064 
L 241.038433 174.627392 
L 246.404034 174.967384 
L 251.732366 175.547804 
L 257.004048 176.36654 
L 262.199899 177.420613 
L 267.301019 178.706189 
L 272.288849 180.21859 
L 277.145244 181.952316 
L 281.852536 183.901058 
L 286.393601 186.057727 
L 290.751918 188.414477 
L 294.911633 190.962735 
L 298.857611 193.69323 
L 302.575499 196.596028 
L 306.051769 199.66057 
L 309.273777 202.875707 
L 312.2298 206.229742 
L 314.909085 209.710473 
L 316.731036 212.396564 
L 318.388089 215.141311 
L 319.876852 217.939095 
L 321.194279 220.784191 
L 322.337672 223.670775 
L 323.304693 226.59294 
L 324.093361 229.544706 
L 324.702063 232.520031 
L 325.129553 235.512826 
L 325.374955 238.516966 
L 325.437769 241.526302 
L 325.317865 244.534675 
L 325.015488 247.535929 
L 324.531258 250.523922 
L 323.866166 253.492536 
L 323.021572 256.435698 
L 321.999205 259.347384 
L 320.801158 262.221634 
L 319.429883 265.052566 
L 317.888185 267.834386 
L 316.179221 270.561401 
L 314.306488 273.228029 
L 312.273819 275.828814 
L 309.32204 279.184923 
L 306.1041 282.402322 
L 302.631708 285.469304 
L 298.917494 288.374712 
L 294.974971 291.107978 
L 290.818482 293.659156 
L 286.463147 296.018966 
L 281.924812 298.178824 
L 277.219987 300.130871 
L 272.365787 301.868007 
L 267.379873 303.383911 
L 262.280382 304.673069 
L 257.085866 305.730791 
L 251.815222 306.553229 
L 246.487626 307.137391 
L 241.122458 307.481152 
L 235.739237 307.583261 
L 230.357547 307.443347 
L 224.996966 307.061919 
L 219.676995 306.440364 
L 214.416989 305.580944 
L 209.236083 304.486785 
L 204.153125 303.161867 
L 199.186607 301.611011 
L 194.354596 299.839859 
L 189.674671 297.854854 
L 185.163858 295.663217 
L 180.838567 293.272921 
L 176.714532 290.692663 
L 172.806758 287.931828 
L 169.129459 285.000462 
L 165.696015 281.909227 
L 162.518916 278.66937 
L 159.609719 275.292678 
L 156.979009 271.791434 
L 155.19453 269.09141 
L 153.575756 266.334009 
L 152.126001 263.524873 
L 150.848232 260.669752 
L 149.745063 257.774489 
L 148.818754 254.84501 
L 148.071199 251.88731 
L 147.503928 248.907442 
L 147.118102 245.911505 
L 146.914512 242.905631 
L 146.893573 239.895971 
L 147.055329 236.888686 
L 147.399449 233.889929 
L 147.925227 230.905839 
L 148.631589 227.942522 
L 149.517089 225.006043 
L 150.579913 222.102413 
L 151.817888 219.237574 
L 153.228479 216.417388 
L 154.8088 213.647629 
L 156.555615 210.933964 
L 158.465351 208.281947 
L 160.534098 205.697007 
L 163.532415 202.363883 
L 166.794948 199.171519 
L 170.309828 196.131529 
L 174.064268 193.254972 
L 178.044609 190.552313 
L 182.236372 188.033385 
L 186.624306 185.70735 
L 191.192449 183.582672 
L 195.924182 181.667078 
L 200.802291 179.967539 
L 205.80903 178.490237 
L 210.926184 177.240547 
L 216.135138 176.223014 
L 221.416942 175.44134 
L 226.75238 174.89837 
L 232.122042 174.596079 
L 237.506394 174.535565 
L 242.885849 174.71705 
L 248.240834 175.139874 
L 253.551871 175.802497 
L 258.799636 176.702509 
L 263.96504 177.836637 
L 269.02929 179.200753 
L 273.973963 180.789897 
L 278.78107 182.598285 
L 283.433124 184.619341 
L 287.913201 186.84571 
L 292.205001 189.269294 
L 296.292913 191.881276 
L 300.162063 194.672153 
L 303.798377 197.631772 
L 307.188626 200.749367 
L 310.320475 204.013596 
L 313.182532 207.412583 
L 315.145722 210.042838 
L 316.947258 212.736564 
L 318.583454 215.48825 
L 320.050959 218.292263 
L 321.346772 221.142865 
L 322.468239 224.034222 
L 323.413066 226.960416 
L 324.17932 229.915458 
L 324.765431 232.8933 
L 325.1702 235.887849 
L 325.392799 238.892975 
L 325.432772 241.902528 
L 325.290038 244.910348 
L 324.964888 247.910279 
L 324.457988 250.896183 
L 323.770376 253.861948 
L 322.903458 256.801503 
L 321.85901 259.708834 
L 320.639168 262.577989 
L 319.246429 265.403097 
L 317.683644 268.178376 
L 315.95401 270.898145 
L 314.061069 273.556839 
L 312.008693 276.149016 
L 309.03149 279.492632 
L 305.789184 282.696418 
L 302.29357 285.748718 
L 298.557365 288.638427 
L 294.594161 291.355034 
L 290.418376 293.888656 
L 286.045201 296.230074 
L 281.490547 298.370772 
L 276.770982 300.302961 
L 271.903676 302.019612 
L 266.906336 303.514481 
L 261.797142 304.782128 
L 256.594682 305.817942 
L 251.317881 306.618156 
L 245.985936 307.179857 
L 240.618245 307.501003 
L 235.234335 307.580424 
L 229.853793 307.417833 
L 224.496193 307.01382 
L 219.181024 306.369856 
L 213.927625 305.488283 
L 208.755106 304.372308 
L 203.682285 303.025991 
L 198.727616 301.45423 
L 193.909124 299.662743 
L 189.24434 297.658048 
L 184.750232 295.447436 
L 180.443151 293.038951 
L 176.338765 290.441355 
L 172.452007 287.664096 
L 168.797015 284.71728 
L 165.387086 281.611625 
L 162.234627 278.358432 
L 159.351104 274.969533 
L 156.747009 271.457259 
L 154.98305 268.749758 
L 153.385229 265.985579 
L 151.956817 263.170379 
L 150.700738 260.309919 
L 149.61956 257.410053 
L 148.715499 254.476717 
L 147.990403 251.515914 
L 147.445757 248.533703 
L 147.082675 245.536188 
L 146.901901 242.529504 
L 146.903805 239.519804 
L 147.088382 236.513249 
L 147.455255 233.51599 
L 148.003673 230.534163 
L 148.732514 227.573871 
L 149.640285 224.641171 
L 150.72513 221.742066 
L 151.984828 218.882489 
L 153.4168 216.068293 
L 155.018116 213.305238 
L 156.785499 210.598978 
L 158.715332 207.955051 
L 161.534268 204.536113 
L 164.624689 201.250033 
L 167.975352 198.108765 
L 171.574068 195.123737 
L 175.407745 192.305808 
L 179.462436 189.665231 
L 183.72339 187.211611 
L 188.175106 184.953874 
L 192.801389 182.900235 
L 197.585408 181.058163 
L 202.50976 179.434361 
L 207.556531 178.034736 
L 212.707359 176.864379 
L 217.943507 175.927549 
L 223.245926 175.227652 
L 228.595326 174.767237 
L 233.972245 174.547977 
L 239.357124 174.57067 
L 244.730372 174.835234 
L 250.072441 175.340706 
L 255.363897 176.085248 
L 260.58549 177.06615 
L 265.718224 178.279844 
L 270.743427 179.721915 
L 275.642817 181.387117 
L 280.39857 183.269391 
L 284.993385 185.361891 
L 289.410547 187.657003 
L 293.633986 190.146379 
L 297.648336 192.820961 
L 301.438995 195.671021 
L 304.992172 198.686189 
L 308.29494 201.855496 
L 311.335285 205.167413 
L 314.102145 208.609891 
L 315.991723 211.269913 
L 317.717915 213.990896 
L 319.277189 216.767271 
L 320.666354 219.593356 
L 321.882566 222.463367 
L 322.923337 225.37143 
L 323.786536 228.311593 
L 324.470396 231.277839 
L 324.973519 234.264097 
L 325.294874 237.264256 
L 325.433803 240.272175 
L 325.390023 243.281698 
L 325.163623 246.286667 
L 324.755066 249.28093 
L 324.165189 252.258359 
L 323.395198 255.212862 
L 322.44667 258.138391 
L 321.321545 261.028958 
L 320.022128 263.878649 
L 318.551076 266.68163 
L 316.911401 269.432166 
L 315.106458 272.124626 
L 313.139942 274.7535 
L 310.273586 278.150476 
L 307.137609 281.412503 
L 303.743419 284.527715 
L 300.103363 287.484779 
L 296.230684 290.272938 
L 292.13947 292.882047 
L 287.844606 295.302616 
L 283.361715 297.525837 
L 278.707107 299.543624 
L 273.897714 301.348636 
L 268.951033 302.934306 
L 263.88506 304.294865 
L 258.718224 305.425364 
L 253.469322 306.32169 
L 248.15745 306.980582 
L 242.801932 307.399644 
L 237.42225 307.577351 
L 232.037977 307.513056 
L 226.668699 307.206993 
L 221.333951 306.660275 
L 216.053138 305.874893 
L 210.845474 304.853702 
L 205.729903 303.600418 
L 200.725035 302.1196 
L 195.849078 300.416635 
L 191.11977 298.497719 
L 186.554317 296.369833 
L 182.169326 294.040717 
L 177.980752 291.518846 
L 174.003831 288.813393 
L 170.253031 285.9342 
L 166.741998 282.891743 
L 163.483505 279.697089 
L 160.489405 276.36186 
L 157.770592 272.898191 
L 155.918127 270.223713 
L 154.229887 267.48954 
L 152.709327 264.701267 
L 151.359559 261.864602 
L 150.183345 258.985349 
L 149.183093 256.069402 
L 148.36085 253.122727 
L 147.718298 250.151357 
L 147.256753 247.161372 
L 146.977159 244.158892 
L 146.880089 241.150061 
L 146.965741 238.141038 
L 147.23394 235.13798 
L 147.684137 232.147035 
L 148.31541 229.174323 
L 149.126468 226.225928 
L 150.115651 223.307884 
L 151.280934 220.426165 
L 152.619932 217.586666 
L 154.129906 214.795201 
L 155.807763 212.057481 
L 157.650072 209.379111 
L 159.65306 206.765571 
L 162.566526 203.390923 
L 165.747722 200.153299 
L 169.185075 197.064478 
L 172.86608 194.135695 
L 176.777345 191.377607 
L 180.904642 188.800246 
L 185.232955 186.412989 
L 189.746538 184.224522 
L 194.428972 182.242804 
L 199.263221 180.475047 
L 204.231699 178.92768 
L 209.31633 177.606333 
L 214.498618 176.515813 
L 219.759709 175.660088 
L 225.080463 175.04227 
L 230.441525 174.664607 
L 235.823389 174.528473 
L 241.206479 174.634363 
L 246.571209 174.981892 
L 251.898064 175.569796 
L 257.167665 176.395935 
L 262.360841 177.457305 
L 267.458699 178.750044 
L 272.442694 180.26945 
L 277.294694 182.009994 
L 281.997048 183.965345 
L 286.532649 186.128389 
L 290.884996 188.491258 
L 295.038256 191.045354 
L 298.97732 193.781388 
L 302.687857 196.689404 
L 306.156369 199.758823 
L 309.370238 202.97848 
L 312.31777 206.336662 
L 314.988244 209.82115 
L 316.803397 212.509796 
L 318.453503 215.256866 
L 319.935186 218.056736 
L 321.245412 220.903677 
L 322.381501 223.791863 
L 323.341127 226.715381 
L 324.122326 229.66825 
L 324.7235 232.644425 
L 325.143418 235.637815 
L 325.38122 238.642294 
L 325.436421 241.651713 
L 325.308906 244.659912 
L 324.998937 247.660736 
L 324.507149 250.648043 
L 323.834547 253.615718 
L 322.982509 256.557689 
L 321.952778 259.467933 
L 320.747462 262.340495 
L 319.369027 265.169495 
L 317.820295 267.949145 
L 316.104435 270.673754 
L 314.224959 273.337747 
L 312.185714 275.935672 
L 309.22545 279.287629 
L 305.999376 282.500501 
L 302.519231 285.5626 
L 298.797673 288.462786 
L 294.848242 291.190508 
L 290.685307 293.735843 
L 286.32401 296.089531 
L 281.780219 298.24301 
L 277.070464 300.188445 
L 272.211878 301.918758 
L 267.222137 303.427656 
L 262.119394 304.709648 
L 256.922211 305.760072 
L 251.649497 306.575104 
L 246.320432 307.151781 
L 240.954404 307.488005 
L 235.570934 307.582552 
L 230.189608 307.435078 
L 224.830001 307.04612 
L 219.511612 306.417094 
L 214.25379 305.550286 
L 209.075661 304.448851 
L 203.996064 303.116796 
L 199.033478 301.558966 
L 194.205956 299.781029 
L 189.531062 297.789453 
L 185.025801 295.591484 
L 180.706564 293.195116 
L 176.589065 290.609069 
L 172.688281 287.84275 
L 169.018406 284.906223 
L 165.592788 281.810171 
L 162.42389 278.565857 
L 159.523242 275.185084 
L 156.901394 271.680151 
L 155.123748 268.977625 
L 153.511953 266.217955 
L 152.069308 263.406788 
L 150.798764 260.549877 
L 149.702922 257.65307 
L 148.784025 254.722294 
L 148.043954 251.763549 
L 147.484222 248.78289 
L 147.105977 245.786416 
L 146.909991 242.780261 
L 146.896667 239.770578 
L 147.06603 236.763525 
L 147.417736 233.765257 
L 147.951063 230.78191 
L 148.66492 227.819591 
L 149.557847 224.884362 
L 150.628015 221.982229 
L 151.873235 219.119134 
L 153.290958 216.300935 
L 154.878283 213.5334 
L 156.631961 210.822194 
L 158.548402 208.172865 
L 160.623685 205.590835 
L 163.630429 202.261929 
L 166.901033 199.074154 
L 170.423597 196.039107 
L 174.185307 193.167829 
L 178.172479 190.470766 
L 182.370607 187.957731 
L 186.764418 185.637864 
L 191.337928 183.519606 
L 196.074499 181.610663 
L 200.956899 179.917979 
L 205.967366 178.447713 
L 211.087673 177.205213 
L 216.299191 176.194999 
L 221.582963 175.420747 
L 226.919765 174.885273 
L 232.290182 174.590525 
L 237.674678 174.537575 
L 243.053664 174.726616 
L 248.407571 175.156961 
L 253.716921 175.827044 
L 258.9624 176.734426 
L 264.124926 177.875808 
L 269.185716 179.247036 
L 274.12636 180.843122 
L 278.928884 182.658261 
L 283.575816 184.685847 
L 288.050252 186.918506 
L 292.335914 189.348115 
L 296.41721 191.965834 
L 300.279294 194.762141 
L 303.908114 197.726864 
L 307.290469 200.849215 
L 310.414055 204.117838 
L 313.267508 207.520839 
L 315.22404 210.153847 
L 317.018759 212.850099 
L 318.64799 215.604079 
L 320.108399 218.410148 
L 321.396997 221.262566 
L 322.511148 224.155492 
L 323.448571 227.083008 
L 324.207347 230.039122 
L 324.785923 233.017782 
L 325.183116 236.012894 
L 325.398112 239.018327 
L 325.430472 242.027931 
L 325.280128 245.035545 
L 324.94739 248.035015 
L 324.432937 251.020201 
L 323.737823 253.984994 
L 322.863471 256.923327 
L 321.811669 259.829185 
L 320.584571 262.696622 
L 319.184687 265.519768 
L 317.614884 268.292847 
L 315.878373 271.010181 
L 313.978708 273.666211 
L 311.919779 276.255501 
L 308.934122 279.594929 
L 305.683716 282.794155 
L 302.180387 285.841538 
L 298.436878 288.725995 
L 294.466808 291.43703 
L 290.284621 293.964781 
L 285.905531 296.300052 
L 281.345469 298.434348 
L 276.621024 300.359903 
L 271.749384 302.069714 
L 266.748271 303.55756 
L 261.635879 304.818028 
L 256.430808 305.846533 
L 251.151992 306.639332 
L 245.818636 307.193542 
L 240.450142 307.507147 
L 235.066041 307.579006 
L 229.685919 307.408856 
L 224.32935 306.997318 
L 219.015821 306.345889 
L 213.764661 305.456938 
L 208.594974 304.333699 
L 203.525568 302.980258 
L 198.574884 301.40154 
L 193.760933 299.603288 
L 189.101229 297.592043 
L 184.612722 295.375122 
L 180.311741 292.960591 
L 176.213934 290.357234 
L 172.334208 287.57452 
L 168.686678 284.622575 
L 165.284612 281.512136 
L 162.140388 278.25452 
L 159.265445 274.861577 
L 157.292281 272.235469 
L 155.48053 269.54555 
L 153.8339 266.797322 
L 152.355759 263.996413 
L 151.049135 261.148552 
L 149.9167 258.25957 
L 148.960772 255.335379 
L 148.183308 252.381963 
L 147.585899 249.405368 
L 147.169768 246.411684 
L 146.935766 243.407039 
L 146.884372 240.397583 
L 147.015692 237.389474 
L 147.329457 234.388869 
L 147.825024 231.401909 
L 148.501379 228.434708 
L 149.357138 225.493337 
L 150.39055 222.583817 
L 151.599499 219.712103 
L 152.981512 216.884072 
L 154.533759 214.105512 
L 156.253065 211.382109 
L 158.135909 208.719437 
L 160.17844 206.122946 
L 163.142943 202.773069 
L 166.373079 199.562464 
L 169.857096 196.502811 
L 173.582321 193.60524 
L 177.5352 190.880293 
L 181.701354 188.337883 
L 186.065625 185.98726 
L 190.612138 183.836973 
L 195.324352 181.894847 
L 200.185125 180.167947 
L 205.176772 178.662555 
L 210.281135 177.384147 
L 215.479644 176.337374 
L 220.753387 175.526046 
L 226.083179 174.953112 
L 231.449629 174.620657 
L 236.833216 174.529891 
L 242.214354 174.681145 
L 247.573466 175.073867 
L 252.891057 175.706629 
L 258.147781 176.577129 
L 263.324514 177.6822 
L 268.402424 179.017823 
L 273.363037 180.579137 
L 278.188308 182.360464 
L 282.860681 184.355323 
L 287.36316 186.556456 
L 291.679363 188.955856 
L 295.79359 191.544793 
L 299.690872 194.313851 
L 303.357032 197.252954 
L 306.778732 200.351411 
L 309.943524 203.597949 
L 312.839895 206.980758 
L 315.457308 210.487532 
L 317.231534 213.191304 
L 318.839838 215.952105 
L 320.278927 218.764285 
L 321.545857 221.622087 
L 322.638034 224.519663 
L 323.553223 227.451082 
L 324.289552 230.410346 
L 324.845512 233.391397 
L 325.219967 236.388135 
L 325.41215 239.394426 
L 325.421668 242.404118 
L 325.248501 245.41105 
L 324.893003 248.40907 
L 324.355902 251.39204 
L 323.638298 254.353857 
L 322.741659 257.288458 
L 321.66782 260.189837 
L 320.418979 263.052057 
L 318.997692 265.869258 
L 317.406867 268.635677 
L 315.64976 271.34565 
L 313.729969 273.993632 
L 311.651421 276.574203 
L 308.640467 279.900996 
L 305.365833 283.086473 
L 301.839431 286.119045 
L 298.07409 288.987679 
L 294.083509 291.68194 
L 289.882204 294.192026 
L 285.48546 296.508805 
L 280.909273 298.62385 
L 276.17029 300.529465 
L 271.285751 302.218719 
L 266.273426 303.685465 
L 261.15155 304.924369 
L 255.938756 305.930921 
L 250.654007 306.701462 
L 245.31653 307.233188 
L 239.945742 307.524164 
L 234.561182 307.573332 
L 229.182438 307.380512 
L 223.829078 306.946407 
L 218.520577 306.272596 
L 213.276248 305.36153 
L 208.115169 304.216523 
L 203.056115 302.84174 
L 198.117493 301.242184 
L 193.317267 299.423674 
L 188.672901 297.392824 
L 184.201291 295.157024 
L 179.918704 292.724406 
L 175.840721 290.103821 
L 171.982177 287.304803 
L 168.357108 284.337533 
L 164.978704 281.212807 
L 161.859254 277.941992 
L 159.010107 274.536988 
L 157.056906 271.902607 
L 155.265599 269.205096 
L 153.639852 266.449973 
L 152.182993 263.642879 
L 150.898003 260.789558 
L 149.787512 257.89585 
L 148.853793 254.967677 
L 148.098757 252.011032 
L 147.523948 249.031966 
L 147.130544 246.036577 
L 146.91935 243.030994 
L 146.890797 240.021369 
L 147.044945 237.013862 
L 147.381477 234.014627 
L 147.899706 231.029803 
L 148.59857 228.0655 
L 149.476639 225.127782 
L 150.532116 222.222664 
L 151.762841 219.356091 
L 153.166295 216.533929 
L 154.739605 213.761954 
L 156.479553 211.04584 
L 158.382576 208.391146 
L 160.44478 205.803304 
L 163.434659 202.465974 
L 166.68911 199.269033 
L 170.196293 196.224111 
L 173.943449 193.342285 
L 177.916946 190.63404 
L 182.102329 188.109228 
L 186.484371 185.777033 
L 191.047131 183.645941 
L 195.774009 181.723704 
L 200.64781 180.017316 
L 205.650802 178.532983 
L 210.764786 177.276107 
L 215.971156 176.251259 
L 221.250973 175.462167 
L 226.585028 174.911703 
L 231.953916 174.601869 
L 237.338105 174.533792 
L 242.718009 174.70772 
L 248.074055 175.12302 
L 253.386759 175.778182 
L 258.636792 176.670821 
L 263.805055 177.79769 
L 268.872747 179.154691 
L 273.821432 180.736885 
L 278.633106 182.538518 
L 283.290264 184.553035 
L 287.775965 186.773107 
L 292.073889 189.190658 
L 296.168401 191.796892 
L 300.044606 194.582329 
L 303.6884 197.536836 
L 307.08653 200.649663 
L 310.226632 203.909486 
L 313.097283 207.304447 
L 315.067123 209.931939 
L 316.875471 212.62313 
L 318.518625 215.372512 
L 319.993221 218.174459 
L 321.296243 221.023236 
L 322.425023 223.913012 
L 323.377252 226.837873 
L 324.150979 229.791834 
L 324.744623 232.768848 
L 325.156967 235.762822 
L 325.387168 238.76763 
L 325.434755 241.777121 
L 325.29963 244.785137 
L 324.98207 247.78552 
L 324.482726 250.77213 
L 323.802617 253.738856 
L 322.943138 256.679624 
L 321.906046 259.588416 
L 320.693465 262.45928 
L 319.307876 265.286339 
L 317.752114 268.063808 
L 316.029365 270.786002 
L 314.143153 273.447351 
L 312.097339 276.042406 
L 309.1286 279.390199 
L 305.894404 282.598533 
L 302.406518 285.655738 
L 298.67763 288.550691 
L 294.721306 291.27286 
L 290.551938 293.812343 
L 286.184695 296.159901 
L 281.635464 298.306993 
L 276.920795 300.245808 
L 272.057841 301.969294 
L 267.064292 303.471179 
L 261.958314 304.746001 
L 256.758483 305.789122 
L 251.483716 306.596746 
L 246.153202 307.165937 
L 240.786333 307.494622 
L 235.402634 307.581606 
L 230.02169 307.426573 
L 224.663076 307.030088 
L 219.346288 306.393591 
L 214.090668 305.519399 
L 208.915335 304.410692 
L 203.839117 303.071503 
L 198.880481 301.506705 
L 194.057465 299.72199 
L 189.387618 297.723851 
L 184.887925 295.519557 
L 180.574759 293.117126 
L 176.463809 290.5253 
L 172.570031 287.753506 
L 168.907591 284.811829 
L 165.489811 281.710971 
L 162.329127 278.462211 
L 159.437037 275.077369 
L 156.82406 271.568759 
L 155.053255 268.863741 
L 153.448444 266.101812 
L 152.012913 263.288623 
L 150.749599 260.429932 
L 149.661087 257.531591 
L 148.749607 254.59953 
L 148.017022 251.63975 
L 147.464832 248.65831 
L 147.094168 245.66131 
L 146.905788 242.654886 
L 146.900077 239.645189 
L 147.077048 236.638379 
L 147.436338 233.64061 
L 147.977211 230.658018 
L 148.698561 227.696707 
L 149.598912 224.762737 
L 150.676421 221.862113 
L 151.928882 219.000772 
L 153.353732 216.18457 
L 154.948055 213.41927 
L 156.708589 210.710532 
L 158.631729 208.0639 
L 161.442011 204.641008 
L 164.524113 201.350592 
L 167.866824 198.204623 
L 171.457982 195.214545 
L 175.284523 192.391236 
L 179.332526 189.744967 
L 183.587265 187.285366 
L 188.033261 185.02138 
L 192.654341 182.961245 
L 197.433691 181.112457 
L 202.353927 179.48174 
L 207.397147 178.075028 
L 212.545006 176.897438 
L 217.778775 175.953254 
L 223.079413 175.24591 
L 228.427639 174.777981 
L 233.803994 174.551168 
L 239.188921 174.566297 
L 244.562828 174.823313 
L 249.906166 175.32128 
L 255.199497 176.058387 
L 260.423562 177.031952 
L 265.559358 178.238434 
L 270.5882 179.673444 
L 275.491794 181.33176 
L 280.2523 183.207351 
L 284.852401 185.293392 
L 289.275361 187.582295 
L 293.50509 190.065734 
L 297.5262 192.734672 
L 301.324062 195.579402 
L 304.88486 198.589573 
L 308.195641 201.754235 
L 311.244359 205.061875 
L 314.019923 208.500461 
L 315.916227 211.157824 
L 317.6493 213.876377 
L 319.215595 216.650557 
L 320.611907 219.474685 
L 321.835377 222.342982 
L 322.883503 225.249578 
L 323.754139 228.188523 
L 324.445502 231.153804 
L 324.956178 234.13935 
L 325.285123 237.139052 
L 325.431662 240.146771 
L 325.395495 243.15635 
L 325.176698 246.161631 
L 324.775716 249.156462 
L 324.193372 252.134715 
L 323.430857 255.090294 
L 322.489732 258.01715 
L 321.371922 260.909293 
L 320.079716 263.760804 
L 318.615758 266.565847 
L 316.983044 269.318681 
L 315.184916 272.013672 
L 313.225054 274.645304 
L 310.367298 278.0463 
L 307.239579 281.312727 
L 303.853275 284.432701 
L 300.220707 287.394873 
L 296.355088 290.188467 
L 292.270483 292.803319 
L 287.98175 295.229916 
L 283.504491 297.459431 
L 278.854996 299.483753 
L 274.050178 301.295517 
L 269.107517 302.888133 
L 264.044995 304.255806 
L 258.881028 305.393561 
L 253.634404 306.297259 
L 248.324208 306.963612 
L 242.969759 307.390196 
L 237.590537 307.575459 
L 232.20611 307.518728 
L 226.836068 307.220208 
L 221.499946 306.680985 
L 216.217156 305.903022 
L 211.006917 304.889149 
L 205.888185 303.643053 
L 200.879579 302.169268 
L 195.999323 300.473156 
L 191.265169 298.560887 
L 186.69434 296.439417 
L 182.303465 294.116466 
L 178.108518 291.600483 
L 174.12476 288.900621 
L 170.366683 286.026702 
L 166.847959 282.989182 
L 163.58139 279.799111 
L 160.578858 276.468095 
L 157.851287 273.008251 
L 155.992059 270.33638 
L 154.296905 267.604583 
L 152.769294 264.818451 
L 151.412352 261.983687 
L 150.228856 259.106092 
L 149.221229 256.191554 
L 148.391533 253.246041 
L 147.741465 250.275578 
L 147.272357 247.286247 
L 146.985168 244.284165 
L 146.880486 241.275476 
L 146.958525 238.266337 
L 147.219126 235.262908 
L 147.661756 232.271336 
L 148.285508 229.297742 
L 149.089105 226.348213 
L 150.070904 223.428785 
L 151.228895 220.545434 
L 152.560707 217.70406 
L 154.063616 214.910478 
L 155.734544 212.170407 
L 157.570073 209.489453 
L 159.566446 206.873104 
L 162.47137 203.49437 
L 165.64437 200.252283 
L 169.073903 197.158638 
L 172.747491 194.22469 
L 176.651772 191.461112 
L 180.772541 188.877958 
L 185.094807 186.484626 
L 189.602846 184.289821 
L 194.280257 182.30153 
L 199.110026 180.526985 
L 204.07458 178.972641 
L 209.15586 177.644154 
L 214.33538 176.546357 
L 219.594297 175.683242 
L 224.913479 175.057951 
L 230.273575 174.672758 
L 235.655086 174.529064 
L 241.038433 174.627392 
L 246.404034 174.967384 
L 251.732366 175.547804 
L 257.004048 176.36654 
L 262.199899 177.420613 
L 267.301019 178.706189 
L 272.288849 180.21859 
L 277.145244 181.952316 
L 281.852536 183.901058 
L 286.393601 186.057727 
L 290.751918 188.414477 
L 294.911633 190.962735 
L 298.857611 193.69323 
L 302.575499 196.596028 
L 306.051769 199.66057 
L 309.273777 202.875707 
L 312.2298 206.229742 
L 314.909085 209.710473 
L 316.731036 212.396564 
L 318.388089 215.141311 
L 319.876852 217.939095 
L 321.194279 220.784191 
L 322.337672 223.670775 
L 323.304693 226.59294 
L 324.093361 229.544706 
L 324.702063 232.520031 
L 325.129553 235.512826 
L 325.374955 238.516966 
L 325.437769 241.526302 
L 325.317865 244.534675 
L 325.015488 247.535929 
L 324.531258 250.523922 
L 323.866166 253.492536 
L 323.021572 256.435698 
L 321.999205 259.347384 
L 320.801158 262.221634 
L 319.429883 265.052566 
L 317.888185 267.834386 
L 316.179221 270.561401 
L 314.306488 273.228029 
L 312.273819 275.828814 
L 309.32204 279.184923 
L 306.1041 282.402322 
L 302.631708 285.469304 
L 298.917494 288.374712 
L 294.974971 291.107978 
L 290.818482 293.659156 
L 286.463147 296.018966 
L 281.924812 298.178824 
L 277.219987 300.130871 
L 272.365787 301.868007 
L 267.379873 303.383911 
L 262.280382 304.673069 
L 257.085866 305.730791 
L 251.815222 306.553229 
L 246.487626 307.137391 
L 241.122458 307.481152 
L 235.739237 307.583261 
L 230.357547 307.443347 
L 224.996966 307.061919 
L 219.676995 306.440364 
L 214.416989 305.580944 
L 209.236083 304.486785 
L 204.153125 303.161867 
L 199.186607 301.611011 
L 194.354596 299.839859 
L 189.674671 297.854854 
L 185.163858 295.663217 
L 180.838567 293.272921 
L 176.714532 290.692663 
L 172.806758 287.931828 
L 169.129459 285.000462 
L 165.696015 281.909227 
L 162.518916 278.66937 
L 159.609719 275.292678 
L 156.979009 271.791434 
L 155.19453 269.09141 
L 153.575756 266.334009 
L 152.126001 263.524873 
L 150.848232 260.669752 
L 149.745063 257.774489 
L 148.818754 254.84501 
L 148.071199 251.88731 
L 147.503928 248.907442 
L 147.118102 245.911505 
L 146.914512 242.905631 
L 146.893573 239.895971 
L 147.055329 236.888686 
L 147.399449 233.889929 
L 147.925227 230.905839 
L 148.631589 227.942522 
L 149.517089 225.006043 
L 150.579913 222.102413 
L 151.817888 219.237574 
L 153.228479 216.417388 
L 154.8088 213.647629 
L 156.555615 210.933964 
L 158.465351 208.281947 
L 160.534098 205.697007 
L 163.532415 202.363883 
L 166.794948 199.171519 
L 170.309828 196.131529 
L 174.064268 193.254972 
L 178.044609 190.552313 
L 182.236372 188.033385 
L 186.624306 185.70735 
L 191.192449 183.582672 
L 195.924182 181.667078 
L 200.802291 179.967539 
L 205.80903 178.490237 
L 210.926184 177.240547 
L 216.135138 176.223014 
L 221.416942 175.44134 
L 226.75238 174.89837 
L 232.122042 174.596079 
L 236.16 174.528 
L 236.16 174.528 
" clip-path="url(#p5af77e2d57)" style="fill: none; stroke: #800080; stroke-width: 1.5; stroke-linecap: square"/>
   </g>
   <g id="patch_3">
    <path d="M 57.6 307.584 
L 57.6 41.472 
" style="fill: none; stroke: #000000; stroke-width: 0.8; stroke-linejoin: miter; stroke-linecap: square"/>
   </g>
   <g id="patch_4">
    <path d="M 414.72 307.584 
L 414.72 41.472 
" style="fill: none; stroke: #000000; stroke-width: 0.8; stroke-linejoin: miter; stroke-linecap: square"/>
   </g>
   <g id="patch_5">
    <path d="M 57.6 307.584 
L 414.72 307.584 
" style="fill: none; stroke: #000000; stroke-width: 0.8; stroke-linejoin: miter; stroke-linecap: square"/>
   </g>
   <g id="patch_6">
    <path d="M 57.6 41.472 
L 414.72 41.472 
" style="fill: none; stroke: #000000; stroke-width: 0.8; stroke-linejoin: miter; stroke-linecap: square"/>
   </g>
   <g id="text_21">
    <!-- Reprezentarea pe planul complex al semnalului cu f = 12 Hz, ω = 12 -->
    <g transform="translate(28.997813 35.472) scale(0.12 -0.12)">
     <defs>
      <path id="DejaVuSans-70" d="M 1159 525 
L 1159 -1331 
L 581 -1331 
L 581 3500 
L 1159 3500 
L 1159 2969 
Q 1341 3281 1617 3432 
Q 1894 3584 2278 3584 
Q 2916 3584 3314 3078 
Q 3713 2572 3713 1747 
Q 3713 922 3314 415 
Q 2916 -91 2278 -91 
Q 1894 -91 1617 61 
Q 1341 213 1159 525 
z
M 3116 1747 
Q 3116 2381 2855 2742 
Q 2594 3103 2138 3103 
Q 1681 3103 1420 2742 
Q 1159 2381 1159 1747 
Q 1159 1113 1420 752 
Q 1681 391 2138 391 
Q 2594 391 2855 752 
Q 3116 1113 3116 1747 
z
" transform="scale(0.015625)"/>
      <path id="DejaVuSans-7a" d="M 353 3500 
L 3084 3500 
L 3084 2975 
L 922 459 
L 3084 459 
L 3084 0 
L 275 0 
L 275 525 
L 2438 3041 
L 353 3041 
L 353 3500 
z
" transform="scale(0.015625)"/>
      <path id="DejaVuSans-74" d="M 1172 4494 
L 1172 3500 
L 2356 3500 
L 2356 3053 
L 1172 3053 
L 1172 1153 
Q 1172 725 1289 603 
Q 1406 481 1766 481 
L 2356 481 
L 2356 0 
L 1766 0 
Q 1100 0 847 248 
Q 594 497 594 1153 
L 594 3053 
L 172 3053 
L 172 3500 
L 594 3500 
L 594 4494 
L 1172 4494 
z
" transform="scale(0.015625)"/>
      <path id="DejaVuSans-20" transform="scale(0.015625)"/>
      <path id="DejaVuSans-75" d="M 544 1381 
L 544 3500 
L 1119 3500 
L 1119 1403 
Q 1119 906 1312 657 
Q 1506 409 1894 409 
Q 2359 409 2629 706 
Q 2900 1003 2900 1516 
L 2900 3500 
L 3475 3500 
L 3475 0 
L 2900 0 
L 2900 538 
Q 2691 219 2414 64 
Q 2138 -91 1772 -91 
Q 1169 -91 856 284 
Q 544 659 544 1381 
z
M 1991 3584 
L 1991 3584 
z
" transform="scale(0.015625)"/>
      <path id="DejaVuSans-63" d="M 3122 3366 
L 3122 2828 
Q 2878 2963 2633 3030 
Q 2388 3097 2138 3097 
Q 1578 3097 1268 2742 
Q 959 2388 959 1747 
Q 959 1106 1268 751 
Q 1578 397 2138 397 
Q 2388 397 2633 464 
Q 2878 531 3122 666 
L 3122 134 
Q 2881 22 2623 -34 
Q 2366 -91 2075 -91 
Q 1284 -91 818 406 
Q 353 903 353 1747 
Q 353 2603 823 3093 
Q 1294 3584 2113 3584 
Q 2378 3584 2631 3529 
Q 2884 3475 3122 3366 
z
" transform="scale(0.015625)"/>
      <path id="DejaVuSans-6f" d="M 1959 3097 
Q 1497 3097 1228 2736 
Q 959 2375 959 1747 
Q 959 1119 1226 758 
Q 1494 397 1959 397 
Q 2419 397 2687 759 
Q 2956 1122 2956 1747 
Q 2956 2369 2687 2733 
Q 2419 3097 1959 3097 
z
M 1959 3584 
Q 2709 3584 3137 3096 
Q 3566 2609 3566 1747 
Q 3566 888 3137 398 
Q 2709 -91 1959 -91 
Q 1206 -91 779 398 
Q 353 888 353 1747 
Q 353 2609 779 3096 
Q 1206 3584 1959 3584 
z
" transform="scale(0.015625)"/>
      <path id="DejaVuSans-78" d="M 3513 3500 
L 2247 1797 
L 3578 0 
L 2900 0 
L 1881 1375 
L 863 0 
L 184 0 
L 1544 1831 
L 300 3500 
L 978 3500 
L 1906 2253 
L 2834 3500 
L 3513 3500 
z
" transform="scale(0.015625)"/>
      <path id="DejaVuSans-73" d="M 2834 3397 
L 2834 2853 
Q 2591 2978 2328 3040 
Q 2066 3103 1784 3103 
Q 1356 3103 1142 2972 
Q 928 2841 928 2578 
Q 928 2378 1081 2264 
Q 1234 2150 1697 2047 
L 1894 2003 
Q 2506 1872 2764 1633 
Q 3022 1394 3022 966 
Q 3022 478 2636 193 
Q 2250 -91 1575 -91 
Q 1294 -91 989 -36 
Q 684 19 347 128 
L 347 722 
Q 666 556 975 473 
Q 1284 391 1588 391 
Q 1994 391 2212 530 
Q 2431 669 2431 922 
Q 2431 1156 2273 1281 
Q 2116 1406 1581 1522 
L 1381 1569 
Q 847 1681 609 1914 
Q 372 2147 372 2553 
Q 372 3047 722 3315 
Q 1072 3584 1716 3584 
Q 2034 3584 2315 3537 
Q 2597 3491 2834 3397 
z
" transform="scale(0.015625)"/>
      <path id="DejaVuSans-66" d="M 2375 4863 
L 2375 4384 
L 1825 4384 
Q 1516 4384 1395 4259 
Q 1275 4134 1275 3809 
L 1275 3500 
L 2222 3500 
L 2222 3053 
L 1275 3053 
L 1275 0 
L 697 0 
L 697 3053 
L 147 3053 
L 147 3500 
L 697 3500 
L 697 3744 
Q 697 4328 969 4595 
Q 1241 4863 1831 4863 
L 2375 4863 
z
" transform="scale(0.015625)"/>
      <path id="DejaVuSans-3d" d="M 678 2906 
L 4684 2906 
L 4684 2381 
L 678 2381 
L 678 2906 
z
M 678 1631 
L 4684 1631 
L 4684 1100 
L 678 1100 
L 678 1631 
z
" transform="scale(0.015625)"/>
      <path id="DejaVuSans-48" d="M 628 4666 
L 1259 4666 
L 1259 2753 
L 3553 2753 
L 3553 4666 
L 4184 4666 
L 4184 0 
L 3553 0 
L 3553 2222 
L 1259 2222 
L 1259 0 
L 628 0 
L 628 4666 
z
" transform="scale(0.015625)"/>
      <path id="DejaVuSans-2c" d="M 750 794 
L 1409 794 
L 1409 256 
L 897 -744 
L 494 -744 
L 750 256 
L 750 794 
z
" transform="scale(0.015625)"/>
      <path id="DejaVuSans-3c9" d="M 1719 -91 
Q 422 -91 422 1766 
Q 422 2500 906 3500 
L 1525 3500 
Q 1078 2500 1078 1750 
Q 1078 397 1772 397 
Q 2406 397 2406 2078 
L 2938 2078 
Q 2938 397 3572 397 
Q 4266 397 4266 1750 
Q 4266 2500 3819 3500 
L 4438 3500 
Q 4922 2500 4922 1766 
Q 4922 -91 3625 -91 
Q 2775 -91 2672 844 
Q 2544 -91 1719 -91 
z
" transform="scale(0.015625)"/>
     </defs>
     <use xlink:href="#DejaVuSans-52"/>
     <use xlink:href="#DejaVuSans-65" x="64.982422"/>
     <use xlink:href="#DejaVuSans-70" x="126.505859"/>
     <use xlink:href="#DejaVuSans-72" x="189.982422"/>
     <use xlink:href="#DejaVuSans-65" x="228.845703"/>
     <use xlink:href="#DejaVuSans-7a" x="290.369141"/>
     <use xlink:href="#DejaVuSans-65" x="342.859375"/>
     <use xlink:href="#DejaVuSans-6e" x="404.382812"/>
     <use xlink:href="#DejaVuSans-74" x="467.761719"/>
     <use xlink:href="#DejaVuSans-61" x="506.970703"/>
     <use xlink:href="#DejaVuSans-72" x="568.25"/>
     <use xlink:href="#DejaVuSans-65" x="607.113281"/>
     <use xlink:href="#DejaVuSans-61" x="668.636719"/>
     <use xlink:href="#DejaVuSans-20" x="729.916016"/>
     <use xlink:href="#DejaVuSans-70" x="761.703125"/>
     <use xlink:href="#DejaVuSans-65" x="825.179688"/>
     <use xlink:href="#DejaVuSans-20" x="886.703125"/>
     <use xlink:href="#DejaVuSans-70" x="918.490234"/>
     <use xlink:href="#DejaVuSans-6c" x="981.966797"/>
     <use xlink:href="#DejaVuSans-61" x="1009.75"/>
     <use xlink:href="#DejaVuSans-6e" x="1071.029297"/>
     <use xlink:href="#DejaVuSans-75" x="1134.408203"/>
     <use xlink:href="#DejaVuSans-6c" x="1197.787109"/>
     <use xlink:href="#DejaVuSans-20" x="1225.570312"/>
     <use xlink:href="#DejaVuSans-63" x="1257.357422"/>
     <use xlink:href="#DejaVuSans-6f" x="1312.337891"/>
     <use xlink:href="#DejaVuSans-6d" x="1373.519531"/>
     <use xlink:href="#DejaVuSans-70" x="1470.931641"/>
     <use xlink:href="#DejaVuSans-6c" x="1534.408203"/>
     <use xlink:href="#DejaVuSans-65" x="1562.191406"/>
     <use xlink:href="#DejaVuSans-78" x="1621.964844"/>
     <use xlink:href="#DejaVuSans-20" x="1681.144531"/>
     <use xlink:href="#DejaVuSans-61" x="1712.931641"/>
     <use xlink:href="#DejaVuSans-6c" x="1774.210938"/>
     <use xlink:href="#DejaVuSans-20" x="1801.994141"/>
     <use xlink:href="#DejaVuSans-73" x="1833.78125"/>
     <use xlink:href="#DejaVuSans-65" x="1885.880859"/>
     <use xlink:href="#DejaVuSans-6d" x="1947.404297"/>
     <use xlink:href="#DejaVuSans-6e" x="2044.816406"/>
     <use xlink:href="#DejaVuSans-61" x="2108.195312"/>
     <use xlink:href="#DejaVuSans-6c" x="2169.474609"/>
     <use xlink:href="#DejaVuSans-75" x="2197.257812"/>
     <use xlink:href="#DejaVuSans-6c" x="2260.636719"/>
     <use xlink:href="#DejaVuSans-75" x="2288.419922"/>
     <use xlink:href="#DejaVuSans-69" x="2351.798828"/>
     <use xlink:href="#DejaVuSans-20" x="2379.582031"/>
     <use xlink:href="#DejaVuSans-63" x="2411.369141"/>
     <use xlink:href="#DejaVuSans-75" x="2466.349609"/>
     <use xlink:href="#DejaVuSans-20" x="2529.728516"/>
     <use xlink:href="#DejaVuSans-66" x="2561.515625"/>
     <use xlink:href="#DejaVuSans-20" x="2596.720703"/>
     <use xlink:href="#DejaVuSans-3d" x="2628.507812"/>
     <use xlink:href="#DejaVuSans-20" x="2712.296875"/>
     <use xlink:href="#DejaVuSans-31" x="2744.083984"/>
     <use xlink:href="#DejaVuSans-32" x="2807.707031"/>
     <use xlink:href="#DejaVuSans-20" x="2871.330078"/>
     <use xlink:href="#DejaVuSans-48" x="2903.117188"/>
     <use xlink:href="#DejaVuSans-7a" x="2978.3125"/>
     <use xlink:href="#DejaVuSans-2c" x="3030.802734"/>
     <use xlink:href="#DejaVuSans-20" x="3062.589844"/>
     <use xlink:href="#DejaVuSans-3c9" x="3094.376953"/>
     <use xlink:href="#DejaVuSans-20" x="3178.117188"/>
     <use xlink:href="#DejaVuSans-3d" x="3209.904297"/>
     <use xlink:href="#DejaVuSans-20" x="3293.693359"/>
     <use xlink:href="#DejaVuSans-31" x="3325.480469"/>
     <use xlink:href="#DejaVuSans-32" x="3389.103516"/>
    </g>
   </g>
  </g>
 </g>
 <defs>
  <clipPath id="p5af77e2d57">
   <rect x="57.6" y="41.472" width="357.12" height="266.112"/>
  </clipPath>
 </defs>
</svg>
