<?xml version="1.0" encoding="utf-8" standalone="no"?>
<!DOCTYPE svg PUBLIC "-//W3C//DTD SVG 1.1//EN"
  "http://www.w3.org/Graphics/SVG/1.1/DTD/svg11.dtd">
<svg xmlns:xlink="http://www.w3.org/1999/xlink" width="460.8pt" height="345.6pt" viewBox="0 0 460.8 345.6" xmlns="http://www.w3.org/2000/svg" version="1.1">
 <metadata>
  <rdf:RDF xmlns:dc="http://purl.org/dc/elements/1.1/" xmlns:cc="http://creativecommons.org/ns#" xmlns:rdf="http://www.w3.org/1999/02/22-rdf-syntax-ns#">
   <cc:Work>
    <dc:type rdf:resource="http://purl.org/dc/dcmitype/StillImage"/>
    <dc:date>2024-12-28T16:34:09.870997</dc:date>
    <dc:format>image/svg+xml</dc:format>
    <dc:creator>
     <cc:Agent>
      <dc:title>Matplotlib v3.9.2, https://matplotlib.org/</dc:title>
     </cc:Agent>
    </dc:creator>
   </cc:Work>
  </rdf:RDF>
 </metadata>
 <defs>
  <style type="text/css">*{stroke-linejoin: round; stroke-linecap: butt}</style>
 </defs>
 <g id="figure_1">
  <g id="patch_1">
   <path d="M 0 345.6 
L 460.8 345.6 
L 460.8 0 
L 0 0 
z
" style="fill: #ffffff"/>
  </g>
  <g id="axes_1">
   <g id="patch_2">
    <path d="M 57.6 99.322435 
L 414.72 99.322435 
L 414.72 41.472 
L 57.6 41.472 
z
" style="fill: #ffffff"/>
   </g>
   <g id="matplotlib.axis_1">
    <g id="xtick_1">
     <g id="line2d_1">
      <defs>
       <path id="md67b897fef" d="M 0 0 
L 0 3.5 
" style="stroke: #000000; stroke-width: 0.8"/>
      </defs>
      <g>
       <use xlink:href="#md67b897fef" x="73.832727" y="99.322435" style="stroke: #000000; stroke-width: 0.8"/>
      </g>
     </g>
     <g id="text_1">
      <!-- 0 -->
      <g transform="translate(70.651477 113.920872) scale(0.1 -0.1)">
       <defs>
        <path id="DejaVuSans-30" d="M 2034 4250 
Q 1547 4250 1301 3770 
Q 1056 3291 1056 2328 
Q 1056 1369 1301 889 
Q 1547 409 2034 409 
Q 2525 409 2770 889 
Q 3016 1369 3016 2328 
Q 3016 3291 2770 3770 
Q 2525 4250 2034 4250 
z
M 2034 4750 
Q 2819 4750 3233 4129 
Q 3647 3509 3647 2328 
Q 3647 1150 3233 529 
Q 2819 -91 2034 -91 
Q 1250 -91 836 529 
Q 422 1150 422 2328 
Q 422 3509 836 4129 
Q 1250 4750 2034 4750 
z
" transform="scale(0.015625)"/>
       </defs>
       <use xlink:href="#DejaVuSans-30"/>
      </g>
     </g>
    </g>
    <g id="xtick_2">
     <g id="line2d_2">
      <g>
       <use xlink:href="#md67b897fef" x="138.828632" y="99.322435" style="stroke: #000000; stroke-width: 0.8"/>
      </g>
     </g>
     <g id="text_2">
      <!-- 200 -->
      <g transform="translate(129.284882 113.920872) scale(0.1 -0.1)">
       <defs>
        <path id="DejaVuSans-32" d="M 1228 531 
L 3431 531 
L 3431 0 
L 469 0 
L 469 531 
Q 828 903 1448 1529 
Q 2069 2156 2228 2338 
Q 2531 2678 2651 2914 
Q 2772 3150 2772 3378 
Q 2772 3750 2511 3984 
Q 2250 4219 1831 4219 
Q 1534 4219 1204 4116 
Q 875 4013 500 3803 
L 500 4441 
Q 881 4594 1212 4672 
Q 1544 4750 1819 4750 
Q 2544 4750 2975 4387 
Q 3406 4025 3406 3419 
Q 3406 3131 3298 2873 
Q 3191 2616 2906 2266 
Q 2828 2175 2409 1742 
Q 1991 1309 1228 531 
z
" transform="scale(0.015625)"/>
       </defs>
       <use xlink:href="#DejaVuSans-32"/>
       <use xlink:href="#DejaVuSans-30" x="63.623047"/>
       <use xlink:href="#DejaVuSans-30" x="127.246094"/>
      </g>
     </g>
    </g>
    <g id="xtick_3">
     <g id="line2d_3">
      <g>
       <use xlink:href="#md67b897fef" x="203.824537" y="99.322435" style="stroke: #000000; stroke-width: 0.8"/>
      </g>
     </g>
     <g id="text_3">
      <!-- 400 -->
      <g transform="translate(194.280787 113.920872) scale(0.1 -0.1)">
       <defs>
        <path id="DejaVuSans-34" d="M 2419 4116 
L 825 1625 
L 2419 1625 
L 2419 4116 
z
M 2253 4666 
L 3047 4666 
L 3047 1625 
L 3713 1625 
L 3713 1100 
L 3047 1100 
L 3047 0 
L 2419 0 
L 2419 1100 
L 313 1100 
L 313 1709 
L 2253 4666 
z
" transform="scale(0.015625)"/>
       </defs>
       <use xlink:href="#DejaVuSans-34"/>
       <use xlink:href="#DejaVuSans-30" x="63.623047"/>
       <use xlink:href="#DejaVuSans-30" x="127.246094"/>
      </g>
     </g>
    </g>
    <g id="xtick_4">
     <g id="line2d_4">
      <g>
       <use xlink:href="#md67b897fef" x="268.820442" y="99.322435" style="stroke: #000000; stroke-width: 0.8"/>
      </g>
     </g>
     <g id="text_4">
      <!-- 600 -->
      <g transform="translate(259.276692 113.920872) scale(0.1 -0.1)">
       <defs>
        <path id="DejaVuSans-36" d="M 2113 2584 
Q 1688 2584 1439 2293 
Q 1191 2003 1191 1497 
Q 1191 994 1439 701 
Q 1688 409 2113 409 
Q 2538 409 2786 701 
Q 3034 994 3034 1497 
Q 3034 2003 2786 2293 
Q 2538 2584 2113 2584 
z
M 3366 4563 
L 3366 3988 
Q 3128 4100 2886 4159 
Q 2644 4219 2406 4219 
Q 1781 4219 1451 3797 
Q 1122 3375 1075 2522 
Q 1259 2794 1537 2939 
Q 1816 3084 2150 3084 
Q 2853 3084 3261 2657 
Q 3669 2231 3669 1497 
Q 3669 778 3244 343 
Q 2819 -91 2113 -91 
Q 1303 -91 875 529 
Q 447 1150 447 2328 
Q 447 3434 972 4092 
Q 1497 4750 2381 4750 
Q 2619 4750 2861 4703 
Q 3103 4656 3366 4563 
z
" transform="scale(0.015625)"/>
       </defs>
       <use xlink:href="#DejaVuSans-36"/>
       <use xlink:href="#DejaVuSans-30" x="63.623047"/>
       <use xlink:href="#DejaVuSans-30" x="127.246094"/>
      </g>
     </g>
    </g>
    <g id="xtick_5">
     <g id="line2d_5">
      <g>
       <use xlink:href="#md67b897fef" x="333.816347" y="99.322435" style="stroke: #000000; stroke-width: 0.8"/>
      </g>
     </g>
     <g id="text_5">
      <!-- 800 -->
      <g transform="translate(324.272597 113.920872) scale(0.1 -0.1)">
       <defs>
        <path id="DejaVuSans-38" d="M 2034 2216 
Q 1584 2216 1326 1975 
Q 1069 1734 1069 1313 
Q 1069 891 1326 650 
Q 1584 409 2034 409 
Q 2484 409 2743 651 
Q 3003 894 3003 1313 
Q 3003 1734 2745 1975 
Q 2488 2216 2034 2216 
z
M 1403 2484 
Q 997 2584 770 2862 
Q 544 3141 544 3541 
Q 544 4100 942 4425 
Q 1341 4750 2034 4750 
Q 2731 4750 3128 4425 
Q 3525 4100 3525 3541 
Q 3525 3141 3298 2862 
Q 3072 2584 2669 2484 
Q 3125 2378 3379 2068 
Q 3634 1759 3634 1313 
Q 3634 634 3220 271 
Q 2806 -91 2034 -91 
Q 1263 -91 848 271 
Q 434 634 434 1313 
Q 434 1759 690 2068 
Q 947 2378 1403 2484 
z
M 1172 3481 
Q 1172 3119 1398 2916 
Q 1625 2713 2034 2713 
Q 2441 2713 2670 2916 
Q 2900 3119 2900 3481 
Q 2900 3844 2670 4047 
Q 2441 4250 2034 4250 
Q 1625 4250 1398 4047 
Q 1172 3844 1172 3481 
z
" transform="scale(0.015625)"/>
       </defs>
       <use xlink:href="#DejaVuSans-38"/>
       <use xlink:href="#DejaVuSans-30" x="63.623047"/>
       <use xlink:href="#DejaVuSans-30" x="127.246094"/>
      </g>
     </g>
    </g>
    <g id="xtick_6">
     <g id="line2d_6">
      <g>
       <use xlink:href="#md67b897fef" x="398.812252" y="99.322435" style="stroke: #000000; stroke-width: 0.8"/>
      </g>
     </g>
     <g id="text_6">
      <!-- 1000 -->
      <g transform="translate(386.087252 113.920872) scale(0.1 -0.1)">
       <defs>
        <path id="DejaVuSans-31" d="M 794 531 
L 1825 531 
L 1825 4091 
L 703 3866 
L 703 4441 
L 1819 4666 
L 2450 4666 
L 2450 531 
L 3481 531 
L 3481 0 
L 794 0 
L 794 531 
z
" transform="scale(0.015625)"/>
       </defs>
       <use xlink:href="#DejaVuSans-31"/>
       <use xlink:href="#DejaVuSans-30" x="63.623047"/>
       <use xlink:href="#DejaVuSans-30" x="127.246094"/>
       <use xlink:href="#DejaVuSans-30" x="190.869141"/>
      </g>
     </g>
    </g>
   </g>
   <g id="matplotlib.axis_2">
    <g id="ytick_1">
     <g id="line2d_7">
      <defs>
       <path id="maae39c4eb8" d="M 0 0 
L -3.5 0 
" style="stroke: #000000; stroke-width: 0.8"/>
      </defs>
      <g>
       <use xlink:href="#maae39c4eb8" x="57.6" y="79.162435" style="stroke: #000000; stroke-width: 0.8"/>
      </g>
     </g>
     <g id="text_7">
      <!-- 2 -->
      <g transform="translate(44.2375 82.961654) scale(0.1 -0.1)">
       <use xlink:href="#DejaVuSans-32"/>
      </g>
     </g>
    </g>
    <g id="ytick_2">
     <g id="line2d_8">
      <g>
       <use xlink:href="#maae39c4eb8" x="57.6" y="44.101565" style="stroke: #000000; stroke-width: 0.8"/>
      </g>
     </g>
     <g id="text_8">
      <!-- 4 -->
      <g transform="translate(44.2375 47.900784) scale(0.1 -0.1)">
       <use xlink:href="#DejaVuSans-34"/>
      </g>
     </g>
    </g>
   </g>
   <g id="line2d_9">
    <path d="M 73.832727 96.69287 
L 99.831089 93.772773 
L 125.829451 90.627837 
L 151.827813 87.258062 
L 177.826175 83.663448 
L 203.824537 79.843996 
L 229.822899 75.799704 
L 255.821261 71.530573 
L 281.819623 67.036603 
L 307.817985 62.317794 
L 333.816347 57.374146 
L 359.814709 52.205659 
L 385.813071 46.812333 
L 398.487273 44.101565 
L 398.487273 44.101565 
" clip-path="url(#p6771cb0e6d)" style="fill: none; stroke: #1f77b4; stroke-width: 1.5; stroke-linecap: square"/>
   </g>
   <g id="patch_3">
    <path d="M 57.6 99.322435 
L 57.6 41.472 
" style="fill: none; stroke: #000000; stroke-width: 0.8; stroke-linejoin: miter; stroke-linecap: square"/>
   </g>
   <g id="patch_4">
    <path d="M 414.72 99.322435 
L 414.72 41.472 
" style="fill: none; stroke: #000000; stroke-width: 0.8; stroke-linejoin: miter; stroke-linecap: square"/>
   </g>
   <g id="patch_5">
    <path d="M 57.6 99.322435 
L 414.72 99.322435 
" style="fill: none; stroke: #000000; stroke-width: 0.8; stroke-linejoin: miter; stroke-linecap: square"/>
   </g>
   <g id="patch_6">
    <path d="M 57.6 41.472 
L 414.72 41.472 
" style="fill: none; stroke: #000000; stroke-width: 0.8; stroke-linejoin: miter; stroke-linecap: square"/>
   </g>
   <g id="text_9">
    <!-- Ecuatie grad 2 -->
    <g transform="translate(192.486562 35.472) scale(0.12 -0.12)">
     <defs>
      <path id="DejaVuSans-45" d="M 628 4666 
L 3578 4666 
L 3578 4134 
L 1259 4134 
L 1259 2753 
L 3481 2753 
L 3481 2222 
L 1259 2222 
L 1259 531 
L 3634 531 
L 3634 0 
L 628 0 
L 628 4666 
z
" transform="scale(0.015625)"/>
      <path id="DejaVuSans-63" d="M 3122 3366 
L 3122 2828 
Q 2878 2963 2633 3030 
Q 2388 3097 2138 3097 
Q 1578 3097 1268 2742 
Q 959 2388 959 1747 
Q 959 1106 1268 751 
Q 1578 397 2138 397 
Q 2388 397 2633 464 
Q 2878 531 3122 666 
L 3122 134 
Q 2881 22 2623 -34 
Q 2366 -91 2075 -91 
Q 1284 -91 818 406 
Q 353 903 353 1747 
Q 353 2603 823 3093 
Q 1294 3584 2113 3584 
Q 2378 3584 2631 3529 
Q 2884 3475 3122 3366 
z
" transform="scale(0.015625)"/>
      <path id="DejaVuSans-75" d="M 544 1381 
L 544 3500 
L 1119 3500 
L 1119 1403 
Q 1119 906 1312 657 
Q 1506 409 1894 409 
Q 2359 409 2629 706 
Q 2900 1003 2900 1516 
L 2900 3500 
L 3475 3500 
L 3475 0 
L 2900 0 
L 2900 538 
Q 2691 219 2414 64 
Q 2138 -91 1772 -91 
Q 1169 -91 856 284 
Q 544 659 544 1381 
z
M 1991 3584 
L 1991 3584 
z
" transform="scale(0.015625)"/>
      <path id="DejaVuSans-61" d="M 2194 1759 
Q 1497 1759 1228 1600 
Q 959 1441 959 1056 
Q 959 750 1161 570 
Q 1363 391 1709 391 
Q 2188 391 2477 730 
Q 2766 1069 2766 1631 
L 2766 1759 
L 2194 1759 
z
M 3341 1997 
L 3341 0 
L 2766 0 
L 2766 531 
Q 2569 213 2275 61 
Q 1981 -91 1556 -91 
Q 1019 -91 701 211 
Q 384 513 384 1019 
Q 384 1609 779 1909 
Q 1175 2209 1959 2209 
L 2766 2209 
L 2766 2266 
Q 2766 2663 2505 2880 
Q 2244 3097 1772 3097 
Q 1472 3097 1187 3025 
Q 903 2953 641 2809 
L 641 3341 
Q 956 3463 1253 3523 
Q 1550 3584 1831 3584 
Q 2591 3584 2966 3190 
Q 3341 2797 3341 1997 
z
" transform="scale(0.015625)"/>
      <path id="DejaVuSans-74" d="M 1172 4494 
L 1172 3500 
L 2356 3500 
L 2356 3053 
L 1172 3053 
L 1172 1153 
Q 1172 725 1289 603 
Q 1406 481 1766 481 
L 2356 481 
L 2356 0 
L 1766 0 
Q 1100 0 847 248 
Q 594 497 594 1153 
L 594 3053 
L 172 3053 
L 172 3500 
L 594 3500 
L 594 4494 
L 1172 4494 
z
" transform="scale(0.015625)"/>
      <path id="DejaVuSans-69" d="M 603 3500 
L 1178 3500 
L 1178 0 
L 603 0 
L 603 3500 
z
M 603 4863 
L 1178 4863 
L 1178 4134 
L 603 4134 
L 603 4863 
z
" transform="scale(0.015625)"/>
      <path id="DejaVuSans-65" d="M 3597 1894 
L 3597 1613 
L 953 1613 
Q 991 1019 1311 708 
Q 1631 397 2203 397 
Q 2534 397 2845 478 
Q 3156 559 3463 722 
L 3463 178 
Q 3153 47 2828 -22 
Q 2503 -91 2169 -91 
Q 1331 -91 842 396 
Q 353 884 353 1716 
Q 353 2575 817 3079 
Q 1281 3584 2069 3584 
Q 2775 3584 3186 3129 
Q 3597 2675 3597 1894 
z
M 3022 2063 
Q 3016 2534 2758 2815 
Q 2500 3097 2075 3097 
Q 1594 3097 1305 2825 
Q 1016 2553 972 2059 
L 3022 2063 
z
" transform="scale(0.015625)"/>
      <path id="DejaVuSans-20" transform="scale(0.015625)"/>
      <path id="DejaVuSans-67" d="M 2906 1791 
Q 2906 2416 2648 2759 
Q 2391 3103 1925 3103 
Q 1463 3103 1205 2759 
Q 947 2416 947 1791 
Q 947 1169 1205 825 
Q 1463 481 1925 481 
Q 2391 481 2648 825 
Q 2906 1169 2906 1791 
z
M 3481 434 
Q 3481 -459 3084 -895 
Q 2688 -1331 1869 -1331 
Q 1566 -1331 1297 -1286 
Q 1028 -1241 775 -1147 
L 775 -588 
Q 1028 -725 1275 -790 
Q 1522 -856 1778 -856 
Q 2344 -856 2625 -561 
Q 2906 -266 2906 331 
L 2906 616 
Q 2728 306 2450 153 
Q 2172 0 1784 0 
Q 1141 0 747 490 
Q 353 981 353 1791 
Q 353 2603 747 3093 
Q 1141 3584 1784 3584 
Q 2172 3584 2450 3431 
Q 2728 3278 2906 2969 
L 2906 3500 
L 3481 3500 
L 3481 434 
z
" transform="scale(0.015625)"/>
      <path id="DejaVuSans-72" d="M 2631 2963 
Q 2534 3019 2420 3045 
Q 2306 3072 2169 3072 
Q 1681 3072 1420 2755 
Q 1159 2438 1159 1844 
L 1159 0 
L 581 0 
L 581 3500 
L 1159 3500 
L 1159 2956 
Q 1341 3275 1631 3429 
Q 1922 3584 2338 3584 
Q 2397 3584 2469 3576 
Q 2541 3569 2628 3553 
L 2631 2963 
z
" transform="scale(0.015625)"/>
      <path id="DejaVuSans-64" d="M 2906 2969 
L 2906 4863 
L 3481 4863 
L 3481 0 
L 2906 0 
L 2906 525 
Q 2725 213 2448 61 
Q 2172 -91 1784 -91 
Q 1150 -91 751 415 
Q 353 922 353 1747 
Q 353 2572 751 3078 
Q 1150 3584 1784 3584 
Q 2172 3584 2448 3432 
Q 2725 3281 2906 2969 
z
M 947 1747 
Q 947 1113 1208 752 
Q 1469 391 1925 391 
Q 2381 391 2643 752 
Q 2906 1113 2906 1747 
Q 2906 2381 2643 2742 
Q 2381 3103 1925 3103 
Q 1469 3103 1208 2742 
Q 947 2381 947 1747 
z
" transform="scale(0.015625)"/>
     </defs>
     <use xlink:href="#DejaVuSans-45"/>
     <use xlink:href="#DejaVuSans-63" x="63.183594"/>
     <use xlink:href="#DejaVuSans-75" x="118.164062"/>
     <use xlink:href="#DejaVuSans-61" x="181.542969"/>
     <use xlink:href="#DejaVuSans-74" x="242.822266"/>
     <use xlink:href="#DejaVuSans-69" x="282.03125"/>
     <use xlink:href="#DejaVuSans-65" x="309.814453"/>
     <use xlink:href="#DejaVuSans-20" x="371.337891"/>
     <use xlink:href="#DejaVuSans-67" x="403.125"/>
     <use xlink:href="#DejaVuSans-72" x="466.601562"/>
     <use xlink:href="#DejaVuSans-61" x="507.714844"/>
     <use xlink:href="#DejaVuSans-64" x="568.994141"/>
     <use xlink:href="#DejaVuSans-20" x="632.470703"/>
     <use xlink:href="#DejaVuSans-32" x="664.257812"/>
    </g>
   </g>
  </g>
  <g id="axes_2">
   <g id="patch_7">
    <path d="M 57.6 168.742957 
L 414.72 168.742957 
L 414.72 110.892522 
L 57.6 110.892522 
z
" style="fill: #ffffff"/>
   </g>
   <g id="matplotlib.axis_3">
    <g id="xtick_7">
     <g id="line2d_10">
      <g>
       <use xlink:href="#md67b897fef" x="73.832727" y="168.742957" style="stroke: #000000; stroke-width: 0.8"/>
      </g>
     </g>
     <g id="text_10">
      <!-- 0 -->
      <g transform="translate(70.651477 183.341394) scale(0.1 -0.1)">
       <use xlink:href="#DejaVuSans-30"/>
      </g>
     </g>
    </g>
    <g id="xtick_8">
     <g id="line2d_11">
      <g>
       <use xlink:href="#md67b897fef" x="138.828632" y="168.742957" style="stroke: #000000; stroke-width: 0.8"/>
      </g>
     </g>
     <g id="text_11">
      <!-- 200 -->
      <g transform="translate(129.284882 183.341394) scale(0.1 -0.1)">
       <use xlink:href="#DejaVuSans-32"/>
       <use xlink:href="#DejaVuSans-30" x="63.623047"/>
       <use xlink:href="#DejaVuSans-30" x="127.246094"/>
      </g>
     </g>
    </g>
    <g id="xtick_9">
     <g id="line2d_12">
      <g>
       <use xlink:href="#md67b897fef" x="203.824537" y="168.742957" style="stroke: #000000; stroke-width: 0.8"/>
      </g>
     </g>
     <g id="text_12">
      <!-- 400 -->
      <g transform="translate(194.280787 183.341394) scale(0.1 -0.1)">
       <use xlink:href="#DejaVuSans-34"/>
       <use xlink:href="#DejaVuSans-30" x="63.623047"/>
       <use xlink:href="#DejaVuSans-30" x="127.246094"/>
      </g>
     </g>
    </g>
    <g id="xtick_10">
     <g id="line2d_13">
      <g>
       <use xlink:href="#md67b897fef" x="268.820442" y="168.742957" style="stroke: #000000; stroke-width: 0.8"/>
      </g>
     </g>
     <g id="text_13">
      <!-- 600 -->
      <g transform="translate(259.276692 183.341394) scale(0.1 -0.1)">
       <use xlink:href="#DejaVuSans-36"/>
       <use xlink:href="#DejaVuSans-30" x="63.623047"/>
       <use xlink:href="#DejaVuSans-30" x="127.246094"/>
      </g>
     </g>
    </g>
    <g id="xtick_11">
     <g id="line2d_14">
      <g>
       <use xlink:href="#md67b897fef" x="333.816347" y="168.742957" style="stroke: #000000; stroke-width: 0.8"/>
      </g>
     </g>
     <g id="text_14">
      <!-- 800 -->
      <g transform="translate(324.272597 183.341394) scale(0.1 -0.1)">
       <use xlink:href="#DejaVuSans-38"/>
       <use xlink:href="#DejaVuSans-30" x="63.623047"/>
       <use xlink:href="#DejaVuSans-30" x="127.246094"/>
      </g>
     </g>
    </g>
    <g id="xtick_12">
     <g id="line2d_15">
      <g>
       <use xlink:href="#md67b897fef" x="398.812252" y="168.742957" style="stroke: #000000; stroke-width: 0.8"/>
      </g>
     </g>
     <g id="text_15">
      <!-- 1000 -->
      <g transform="translate(386.087252 183.341394) scale(0.1 -0.1)">
       <use xlink:href="#DejaVuSans-31"/>
       <use xlink:href="#DejaVuSans-30" x="63.623047"/>
       <use xlink:href="#DejaVuSans-30" x="127.246094"/>
       <use xlink:href="#DejaVuSans-30" x="190.869141"/>
      </g>
     </g>
    </g>
   </g>
   <g id="matplotlib.axis_4">
    <g id="ytick_3">
     <g id="line2d_16">
      <g>
       <use xlink:href="#maae39c4eb8" x="57.6" y="166.179239" style="stroke: #000000; stroke-width: 0.8"/>
      </g>
     </g>
     <g id="text_16">
      <!-- 0.0 -->
      <g transform="translate(34.696875 169.978458) scale(0.1 -0.1)">
       <defs>
        <path id="DejaVuSans-2e" d="M 684 794 
L 1344 794 
L 1344 0 
L 684 0 
L 684 794 
z
" transform="scale(0.015625)"/>
       </defs>
       <use xlink:href="#DejaVuSans-30"/>
       <use xlink:href="#DejaVuSans-2e" x="63.623047"/>
       <use xlink:href="#DejaVuSans-30" x="95.410156"/>
      </g>
     </g>
    </g>
    <g id="ytick_4">
     <g id="line2d_17">
      <g>
       <use xlink:href="#maae39c4eb8" x="57.6" y="113.448179" style="stroke: #000000; stroke-width: 0.8"/>
      </g>
     </g>
     <g id="text_17">
      <!-- 0.1 -->
      <g transform="translate(34.696875 117.247398) scale(0.1 -0.1)">
       <use xlink:href="#DejaVuSans-30"/>
       <use xlink:href="#DejaVuSans-2e" x="63.623047"/>
       <use xlink:href="#DejaVuSans-31" x="95.410156"/>
      </g>
     </g>
    </g>
   </g>
   <g id="line2d_18">
    <path d="M 73.832727 127.604076 
L 74.157707 138.057737 
L 74.482686 131.289539 
L 74.807666 145.186234 
L 75.457625 138.059331 
L 75.782604 117.764093 
L 76.107584 144.8318 
L 76.432563 126.475235 
L 76.757543 129.692994 
L 77.082523 164.671251 
L 77.407502 129.829419 
L 77.732482 156.091671 
L 78.057461 160.117715 
L 78.382441 157.646297 
L 78.70742 147.632035 
L 79.0324 126.73498 
L 79.357379 129.779098 
L 79.682359 159.926243 
L 80.332318 117.986687 
L 80.657297 149.066523 
L 81.307256 130.659075 
L 81.957215 138.938006 
L 82.282195 126.159018 
L 82.607174 150.597429 
L 82.932154 128.292339 
L 83.257133 125.672466 
L 83.582113 134.146375 
L 83.907093 132.133059 
L 84.232072 119.477359 
L 84.557052 131.154917 
L 85.207011 145.034789 
L 85.53199 139.369663 
L 85.85697 152.557352 
L 86.181949 143.138031 
L 86.831908 158.901952 
L 87.481867 115.151477 
L 87.806847 132.927025 
L 88.131826 129.577975 
L 88.456806 155.332987 
L 88.781785 143.546783 
L 89.106765 147.582532 
L 89.431744 163.177198 
L 89.756724 130.225561 
L 90.081704 149.049593 
L 90.406683 141.3375 
L 90.731663 119.982527 
L 91.056642 122.194175 
L 91.381622 144.768932 
L 91.706601 131.58506 
L 92.031581 161.452415 
L 92.35656 122.302634 
L 92.68154 133.517829 
L 93.006519 151.694272 
L 93.331499 134.732493 
L 93.656478 150.426512 
L 93.981458 123.803081 
L 94.306437 126.513739 
L 94.631417 149.582507 
L 94.956396 115.91406 
L 95.281376 123.307033 
L 95.606355 145.769122 
L 95.931335 148.335737 
L 96.256314 164.153443 
L 96.581294 151.209629 
L 96.906274 146.697318 
L 97.231253 129.379871 
L 97.556233 135.548095 
L 97.881212 160.402747 
L 98.206192 143.799277 
L 98.531171 145.938085 
L 98.856151 117.449383 
L 99.18113 130.983336 
L 99.50611 119.148993 
L 99.831089 121.771514 
L 100.156069 159.540061 
L 100.481048 130.196345 
L 100.806028 127.232171 
L 101.131007 154.172152 
L 101.455987 163.896854 
L 101.780966 118.531359 
L 102.105946 139.941506 
L 102.430925 136.286129 
L 102.755905 120.588251 
L 103.080885 143.24845 
L 103.405864 138.340415 
L 103.730844 123.847872 
L 104.055823 138.764476 
L 104.380803 119.333528 
L 104.705782 135.137406 
L 105.030762 144.363651 
L 105.355741 139.801034 
L 105.680721 159.449272 
L 106.0057 154.155004 
L 106.33068 123.809528 
L 106.655659 144.140243 
L 107.305618 160.760575 
L 107.630598 140.009923 
L 107.955577 163.198564 
L 108.280557 139.632119 
L 108.605536 149.331142 
L 108.930516 147.521026 
L 109.255495 159.222663 
L 109.580475 120.013477 
L 109.905455 153.22829 
L 110.230434 136.968506 
L 110.555414 156.843193 
L 110.880393 122.954692 
L 111.205373 119.145831 
L 111.530352 149.779633 
L 111.855332 148.731346 
L 112.180311 157.770658 
L 112.505291 126.5757 
L 112.83027 124.742036 
L 113.15525 133.317736 
L 113.480229 119.446693 
L 113.805209 123.709387 
L 114.130188 164.800381 
L 114.455168 119.853959 
L 115.105127 131.751347 
L 115.430106 158.749414 
L 116.080066 142.017048 
L 116.405045 127.792281 
L 116.730025 151.757566 
L 117.055004 149.127098 
L 117.379984 122.470147 
L 117.704963 144.21036 
L 118.029943 127.405114 
L 118.354922 131.644944 
L 118.679902 149.203371 
L 119.004881 146.982893 
L 119.329861 155.963998 
L 119.65484 127.994348 
L 119.97982 155.972643 
L 120.304799 155.907401 
L 120.954758 151.50693 
L 121.279738 150.787278 
L 121.604717 158.444228 
L 121.929697 143.693644 
L 122.254676 164.986731 
L 122.579656 160.264351 
L 122.904636 162.142917 
L 123.229615 158.164012 
L 123.554595 126.614626 
L 123.879574 157.121334 
L 124.204554 130.249271 
L 124.529533 125.363147 
L 124.854513 145.494498 
L 125.179492 147.029302 
L 125.504472 161.814186 
L 126.154431 143.146721 
L 126.47941 156.610062 
L 126.80439 124.020287 
L 127.129369 159.081037 
L 127.454349 116.270104 
L 127.779328 141.538024 
L 128.104308 133.944999 
L 128.429287 118.468044 
L 128.754267 121.310033 
L 129.079247 150.188679 
L 129.404226 135.022402 
L 129.729206 113.895549 
L 130.054185 145.054455 
L 130.379165 128.033744 
L 130.704144 164.163529 
L 131.029124 145.214853 
L 131.354103 150.133291 
L 131.679083 127.287564 
L 132.654021 155.123106 
L 132.979001 123.553209 
L 133.30398 154.470124 
L 133.62896 125.731063 
L 133.953939 127.771433 
L 134.278919 120.692386 
L 134.603898 132.181671 
L 134.928878 118.552248 
L 135.253857 125.001746 
L 135.578837 134.910401 
L 135.903817 161.121998 
L 136.228796 165.666801 
L 136.553776 140.810777 
L 136.878755 139.972225 
L 137.203735 128.153528 
L 137.528714 165.786079 
L 137.853694 122.793139 
L 138.178673 150.26208 
L 138.503653 145.224677 
L 138.828632 120.464043 
L 139.153612 146.070534 
L 139.478591 118.896189 
L 139.803571 128.287043 
L 140.12855 143.047494 
L 140.45353 145.574208 
L 140.778509 155.197819 
L 141.103489 137.79643 
L 141.428468 159.860525 
L 142.078428 145.602253 
L 142.403407 124.956082 
L 143.053366 140.014627 
L 143.378346 128.31931 
L 143.703325 123.737376 
L 144.028305 115.632487 
L 144.353284 160.225292 
L 144.678264 145.554434 
L 145.003243 158.680148 
L 145.328223 161.405355 
L 145.653202 122.527369 
L 145.978182 156.040141 
L 146.303161 153.142847 
L 146.628141 140.462944 
L 146.95312 142.094602 
L 147.2781 130.063785 
L 147.603079 165.629894 
L 147.928059 132.255587 
L 148.253038 121.778834 
L 148.578018 117.516866 
L 148.902998 151.046604 
L 149.227977 119.643618 
L 149.552957 122.126453 
L 149.877936 150.792192 
L 150.202916 146.848294 
L 150.527895 147.128602 
L 150.852875 130.952814 
L 151.177854 139.143644 
L 151.502834 161.031961 
L 151.827813 162.471832 
L 152.152793 122.44003 
L 152.477772 124.011634 
L 153.127731 163.287423 
L 153.452711 127.156861 
L 153.77769 121.413876 
L 154.10267 162.641782 
L 154.427649 119.778815 
L 154.752629 121.938349 
L 155.077609 146.094631 
L 155.402588 134.129944 
L 155.727568 146.108618 
L 156.052547 163.251629 
L 156.377527 157.604596 
L 156.702506 120.616674 
L 157.027486 121.284068 
L 157.677445 147.742012 
L 158.002424 153.709475 
L 158.327404 143.06377 
L 158.652383 143.642561 
L 158.977363 118.545833 
L 159.302342 141.270573 
L 159.627322 135.99745 
L 159.952301 122.667288 
L 160.277281 164.935156 
L 160.60226 149.789427 
L 160.92724 158.872597 
L 161.252219 116.86356 
L 161.577199 118.315312 
L 161.902179 157.672255 
L 162.227158 157.016786 
L 162.552138 149.588522 
L 162.877117 157.610812 
L 163.202097 136.828111 
L 163.527076 129.117204 
L 163.852056 113.582445 
L 164.177035 163.551484 
L 164.502015 115.828481 
L 164.826994 140.617789 
L 165.151974 114.9451 
L 165.476953 129.85111 
L 165.801933 159.978272 
L 166.126912 128.040502 
L 166.451892 130.980082 
L 166.776871 123.707264 
L 167.101851 128.150416 
L 167.42683 153.234704 
L 167.75181 154.122348 
L 168.07679 159.405092 
L 168.401769 146.670662 
L 168.726749 161.873771 
L 169.051728 125.234952 
L 169.376708 145.359606 
L 169.701687 127.234188 
L 170.026667 145.799494 
L 170.351646 124.240545 
L 170.676626 128.428893 
L 171.001605 129.079852 
L 171.326585 115.030427 
L 171.651564 154.249141 
L 172.626503 124.541438 
L 172.951482 135.916142 
L 173.276462 154.329431 
L 173.601441 143.33762 
L 173.926421 149.539133 
L 174.2514 158.334707 
L 174.57638 123.950506 
L 174.90136 159.384551 
L 175.226339 135.171618 
L 175.551319 159.668676 
L 175.876298 160.525749 
L 176.201278 146.587415 
L 176.526257 117.373403 
L 176.851237 137.633234 
L 177.176216 124.764568 
L 177.501196 159.41098 
L 177.826175 129.055687 
L 178.151155 160.525332 
L 178.476134 143.845299 
L 178.801114 145.404194 
L 179.451073 120.177744 
L 179.776052 119.68688 
L 180.101032 156.894476 
L 180.426011 157.456792 
L 180.750991 150.784775 
L 181.075971 122.071328 
L 181.40095 120.341888 
L 181.72593 123.484176 
L 182.050909 159.079422 
L 182.375889 113.989168 
L 182.700868 148.562571 
L 183.025848 136.386687 
L 183.350827 135.423777 
L 183.675807 122.333923 
L 184.000786 155.747154 
L 184.325766 150.942129 
L 184.650745 130.083107 
L 184.975725 160.104664 
L 185.300704 124.430084 
L 185.625684 114.816158 
L 185.950663 161.598389 
L 186.275643 152.57319 
L 186.600622 138.6315 
L 186.925602 135.406381 
L 187.250581 155.374768 
L 187.575561 158.443375 
L 188.5505 120.402567 
L 188.875479 138.656704 
L 189.200459 124.423047 
L 189.525438 157.603046 
L 189.850418 126.914118 
L 190.175397 133.862004 
L 190.500377 151.74416 
L 190.825356 142.668198 
L 191.150336 141.626547 
L 191.800295 128.888468 
L 192.125274 163.308147 
L 192.450254 121.254431 
L 192.775233 162.912448 
L 193.100213 127.62147 
L 193.425192 123.302632 
L 194.075152 151.180133 
L 194.400131 149.94377 
L 194.725111 119.750144 
L 195.05009 135.446829 
L 195.37507 129.129317 
L 195.700049 126.674464 
L 196.025029 148.357627 
L 196.350008 121.565308 
L 196.674988 148.64093 
L 196.999967 134.6845 
L 197.324947 163.553163 
L 197.649926 134.296497 
L 197.974906 128.502052 
L 198.299885 150.711732 
L 198.624865 141.735028 
L 198.949844 137.172892 
L 199.274824 159.440558 
L 199.599803 114.317739 
L 199.924783 152.098353 
L 200.249762 115.243474 
L 200.574742 127.809248 
L 200.899722 134.346761 
L 201.224701 131.276369 
L 201.549681 120.903542 
L 201.87466 127.837987 
L 202.19964 148.113249 
L 202.524619 116.507451 
L 202.849599 134.051447 
L 203.174578 163.83199 
L 203.499558 154.914728 
L 203.824537 123.555809 
L 204.474496 149.736673 
L 204.799476 132.304382 
L 205.124455 136.194788 
L 205.449435 118.977696 
L 205.774414 113.675103 
L 206.099394 148.210464 
L 206.424373 136.288538 
L 206.749353 130.555049 
L 207.074333 136.668523 
L 207.399312 134.082465 
L 207.724292 153.552022 
L 208.049271 119.689769 
L 208.374251 163.718901 
L 208.69923 128.902226 
L 209.02421 145.710305 
L 209.349189 115.820808 
L 209.674169 123.186985 
L 209.999148 141.619036 
L 210.324128 117.277246 
L 210.974087 138.096705 
L 211.299066 149.180153 
L 211.624046 150.182217 
L 211.949025 136.440502 
L 212.274005 144.057002 
L 212.598984 118.337128 
L 212.923964 160.87698 
L 213.248943 162.711541 
L 213.573923 124.10038 
L 213.898903 157.294005 
L 214.223882 153.424122 
L 214.548862 153.666891 
L 215.198821 135.421029 
L 215.5238 150.748538 
L 215.84878 153.906784 
L 216.173759 146.302164 
L 216.498739 121.452137 
L 216.823718 145.227881 
L 217.148698 135.975544 
L 217.473677 143.998278 
L 217.798657 115.918489 
L 218.123636 124.969995 
L 218.448616 116.004917 
L 218.773595 132.312288 
L 219.098575 116.845137 
L 219.748534 157.671741 
L 220.073514 165.038278 
L 220.398493 159.142221 
L 221.048452 117.78632 
L 221.373432 141.358978 
L 221.698411 121.040094 
L 222.023391 115.871729 
L 222.34837 143.305462 
L 222.67335 146.466763 
L 222.998329 160.745433 
L 223.323309 118.535036 
L 223.648288 117.306093 
L 223.973268 120.002653 
L 224.298247 114.88634 
L 224.623227 113.98847 
L 224.948206 152.523713 
L 225.598165 132.843218 
L 225.923145 159.996155 
L 226.248124 153.344374 
L 226.573104 151.24571 
L 226.898084 148.311497 
L 227.223063 119.356067 
L 227.548043 153.995079 
L 227.873022 152.98323 
L 228.198002 118.516239 
L 228.522981 121.394155 
L 228.847961 151.748388 
L 229.17294 165.811048 
L 229.49792 143.245828 
L 230.147879 129.460124 
L 230.472858 142.835888 
L 230.797838 143.419775 
L 231.122817 156.651603 
L 231.772776 125.135126 
L 232.422735 153.758981 
L 232.747715 124.69834 
L 233.072695 161.693193 
L 233.397674 163.833747 
L 233.722654 161.206869 
L 234.047633 125.822284 
L 234.372613 125.193405 
L 234.697592 132.591394 
L 235.022572 153.478607 
L 235.347551 165.28012 
L 235.672531 127.794388 
L 235.99751 145.162595 
L 236.32249 143.182853 
L 236.647469 157.180935 
L 236.972449 114.561019 
L 237.297428 117.406576 
L 237.622408 122.480899 
L 237.947387 121.716893 
L 238.272367 148.321772 
L 238.597346 139.035969 
L 238.922326 148.122905 
L 239.247305 162.980634 
L 239.572285 124.28306 
L 239.897265 157.421926 
L 240.222244 159.606022 
L 241.197183 119.084731 
L 241.522162 113.813414 
L 241.847142 134.918303 
L 242.497101 158.987439 
L 242.82208 125.20104 
L 243.14706 154.645422 
L 243.472039 114.232056 
L 244.121998 147.696289 
L 244.446978 159.974254 
L 244.771957 117.468768 
L 245.096937 119.115276 
L 245.421916 142.343902 
L 245.746896 122.514393 
L 246.071876 117.497564 
L 246.721835 152.269474 
L 247.046814 142.240069 
L 247.371794 143.186166 
L 247.696773 120.929069 
L 248.021753 144.224748 
L 248.346732 126.969533 
L 248.671712 120.933992 
L 248.996691 122.747089 
L 249.321671 131.941858 
L 249.64665 149.73765 
L 249.97163 157.79032 
L 250.296609 127.255348 
L 250.621589 137.473191 
L 250.946568 160.149008 
L 251.271548 145.082078 
L 251.596527 124.366331 
L 251.921507 140.906865 
L 252.246486 142.441103 
L 252.571466 135.361175 
L 252.896446 132.598396 
L 253.221425 121.007887 
L 253.546405 142.670254 
L 253.871384 129.667594 
L 254.196364 149.662396 
L 254.521343 154.879541 
L 254.846323 146.168669 
L 255.171302 150.076188 
L 255.821261 125.079199 
L 256.146241 123.145055 
L 256.47122 134.876384 
L 256.7962 117.221997 
L 257.121179 133.037536 
L 257.446159 137.380358 
L 257.771138 131.23996 
L 258.096118 133.201309 
L 258.421097 115.725309 
L 258.746077 123.193841 
L 259.071057 159.520522 
L 259.396036 132.59694 
L 259.721016 143.006359 
L 260.045995 118.501384 
L 260.370975 156.746916 
L 260.695954 140.342301 
L 261.020934 152.70467 
L 261.670893 118.848482 
L 261.995872 158.285259 
L 262.320852 131.975809 
L 262.645831 138.871898 
L 262.970811 130.06452 
L 263.29579 153.692947 
L 263.62077 138.256801 
L 263.945749 131.971316 
L 264.270729 120.684843 
L 264.595708 156.532591 
L 264.920688 118.719391 
L 265.245667 145.287303 
L 265.570647 139.114307 
L 265.895627 143.871926 
L 266.220606 161.789136 
L 266.545586 141.483646 
L 266.870565 143.647034 
L 267.195545 152.842017 
L 267.845504 162.377288 
L 268.170483 140.8836 
L 268.495463 151.277991 
L 268.820442 157.961154 
L 269.145422 130.639098 
L 269.470401 146.686308 
L 269.795381 137.688689 
L 270.12036 160.8727 
L 270.44534 142.16391 
L 270.770319 139.970473 
L 271.095299 135.483442 
L 271.420278 139.267014 
L 271.745258 164.887154 
L 272.070238 156.594779 
L 272.395217 164.178068 
L 272.720197 149.08387 
L 273.045176 119.894574 
L 273.370156 127.209839 
L 273.695135 130.603203 
L 274.020115 161.161759 
L 274.345094 144.711775 
L 274.670074 163.772675 
L 274.995053 134.286912 
L 275.320033 146.531174 
L 275.645012 119.891119 
L 275.969992 163.29543 
L 276.294971 138.166964 
L 276.619951 155.72238 
L 276.94493 152.170778 
L 277.26991 120.344914 
L 277.594889 116.551154 
L 277.919869 157.302832 
L 278.244848 121.351617 
L 278.569828 165.996284 
L 278.894808 141.139942 
L 279.219787 152.897703 
L 279.544767 144.726225 
L 279.869746 141.531875 
L 280.194726 157.381381 
L 280.519705 119.416838 
L 280.844685 136.710198 
L 281.169664 117.219889 
L 281.494644 121.071399 
L 281.819623 150.707717 
L 282.144603 128.869404 
L 282.469582 152.428589 
L 282.794562 151.363091 
L 283.119541 135.827885 
L 283.444521 159.407702 
L 283.7695 159.9065 
L 284.09448 140.67689 
L 284.419459 160.940145 
L 284.744439 152.624799 
L 285.069419 136.857891 
L 285.394398 135.605088 
L 285.719378 143.868825 
L 286.044357 135.674485 
L 286.369337 149.406251 
L 286.694316 141.539633 
L 287.019296 120.068548 
L 287.344275 118.426193 
L 287.994234 127.557436 
L 288.319214 138.069054 
L 288.644193 129.370597 
L 288.969173 113.958261 
L 289.294152 129.040404 
L 289.619132 137.44706 
L 289.944111 160.931618 
L 290.269091 143.42758 
L 290.59407 151.362827 
L 290.91905 139.228783 
L 291.569009 126.447786 
L 291.893989 117.491476 
L 292.218968 150.045926 
L 292.543948 127.0481 
L 292.868927 134.335735 
L 293.193907 151.082913 
L 293.518886 127.576868 
L 293.843866 119.273578 
L 294.493825 148.530602 
L 295.143784 122.347026 
L 295.468763 125.271915 
L 295.793743 123.719312 
L 296.118722 165.928397 
L 296.443702 150.838356 
L 296.768681 159.764559 
L 297.41864 117.938564 
L 297.74362 137.372029 
L 298.0686 149.281411 
L 298.393579 165.723981 
L 298.718559 159.174366 
L 299.043538 161.260185 
L 299.368518 128.727554 
L 299.693497 125.983582 
L 300.018477 154.483746 
L 300.343456 133.871432 
L 300.668436 137.739223 
L 300.993415 116.858606 
L 301.318395 121.38279 
L 301.643374 115.244523 
L 301.968354 120.545228 
L 302.293333 131.883544 
L 302.618313 158.512557 
L 302.943292 130.697595 
L 303.268272 151.640622 
L 303.593251 122.352274 
L 303.918231 165.471916 
L 304.24321 119.060686 
L 304.56819 156.413409 
L 304.89317 147.448777 
L 305.218149 160.640375 
L 305.543129 139.713923 
L 305.868108 160.496508 
L 306.193088 125.634004 
L 306.518067 127.392354 
L 306.843047 155.341561 
L 307.168026 166.076694 
L 307.493006 128.397916 
L 307.817985 139.750973 
L 308.142965 136.101007 
L 308.467944 141.385507 
L 308.792924 152.980206 
L 309.117903 116.171241 
L 309.767862 138.757914 
L 310.092842 125.00138 
L 310.417821 155.495608 
L 310.742801 149.46246 
L 311.067781 162.219189 
L 311.39276 113.692336 
L 311.71774 149.073183 
L 312.042719 152.832613 
L 312.367699 159.282009 
L 312.692678 118.593139 
L 313.017658 151.67204 
L 313.342637 140.86775 
L 313.667617 149.80471 
L 313.992596 117.948909 
L 314.317576 164.21608 
L 314.642555 127.501091 
L 314.967535 159.246176 
L 315.292514 118.998478 
L 315.617494 114.717262 
L 315.942473 152.661801 
L 316.267453 141.260024 
L 316.592432 164.213655 
L 316.917412 161.092883 
L 317.242391 149.123908 
L 317.567371 124.698676 
L 317.892351 125.52689 
L 318.21733 129.303383 
L 318.54231 123.453988 
L 318.867289 151.727086 
L 319.192269 155.322748 
L 319.517248 163.878136 
L 319.842228 125.951833 
L 320.167207 152.401755 
L 320.492187 151.31774 
L 320.817166 139.318404 
L 321.142146 163.804407 
L 321.467125 120.913363 
L 321.792105 131.654315 
L 322.117084 116.387368 
L 322.767043 162.083094 
L 323.092023 144.453046 
L 323.417002 113.937947 
L 323.741982 149.591247 
L 324.066962 141.669332 
L 324.391941 156.881175 
L 324.716921 158.747216 
L 325.0419 116.428895 
L 325.36688 127.467041 
L 325.691859 128.848474 
L 326.016839 125.915111 
L 326.341818 153.566575 
L 326.666798 114.756907 
L 326.991777 120.413359 
L 327.316757 139.481168 
L 327.641736 130.785806 
L 327.966716 127.433337 
L 328.291695 113.987273 
L 328.616675 117.608548 
L 328.941654 119.624991 
L 329.266634 154.917948 
L 329.591613 125.964529 
L 329.916593 145.824182 
L 330.241572 156.453866 
L 330.566552 126.980245 
L 330.891532 152.183931 
L 331.216511 116.252401 
L 331.541491 129.587096 
L 331.86647 132.53946 
L 332.19145 162.967838 
L 332.516429 141.986134 
L 332.841409 135.766321 
L 333.166388 132.337987 
L 333.491368 137.53893 
L 333.816347 136.792273 
L 334.141327 114.095686 
L 334.466306 150.62686 
L 335.116265 155.56136 
L 335.441245 115.506943 
L 335.766224 140.384433 
L 336.091204 125.033639 
L 336.416183 150.114262 
L 336.741163 113.681084 
L 337.066143 157.67268 
L 337.391122 133.344441 
L 337.716102 135.571245 
L 338.041081 131.013767 
L 338.366061 157.220956 
L 338.69104 123.419144 
L 339.01602 137.130419 
L 339.340999 135.516033 
L 339.665979 125.282991 
L 339.990958 151.529774 
L 340.315938 142.000336 
L 340.640917 128.854755 
L 340.965897 155.207439 
L 341.290876 129.057712 
L 341.615856 145.342926 
L 342.265815 117.041156 
L 342.590794 137.718161 
L 342.915774 121.59068 
L 343.240753 160.912496 
L 343.890713 124.714474 
L 344.540672 166.113391 
L 344.865651 162.6765 
L 345.190631 146.491081 
L 345.51561 162.323239 
L 345.84059 117.756713 
L 346.165569 132.780246 
L 346.490549 135.170657 
L 346.815528 161.199771 
L 347.140508 136.089911 
L 347.465487 125.793011 
L 347.790467 159.458531 
L 348.115446 164.961224 
L 348.440426 130.755162 
L 348.765405 156.696808 
L 349.090385 149.10693 
L 349.415364 155.68783 
L 349.740344 145.18872 
L 350.065324 164.895713 
L 350.390303 122.596519 
L 350.715283 135.951103 
L 351.040262 158.145973 
L 351.365242 117.7271 
L 351.690221 156.830301 
L 352.015201 117.120828 
L 352.34018 155.360572 
L 352.66516 126.221733 
L 352.990139 165.313359 
L 353.315119 155.38661 
L 353.640098 120.333213 
L 353.965078 130.040289 
L 354.290057 118.320419 
L 354.615037 153.051444 
L 354.940016 116.980085 
L 355.264996 114.956744 
L 355.589975 114.972131 
L 355.914955 135.390251 
L 356.239934 143.933771 
L 356.564914 118.873889 
L 356.889894 144.79723 
L 357.214873 114.750837 
L 357.539853 158.535969 
L 357.864832 152.205877 
L 358.189812 141.610545 
L 358.514791 127.377662 
L 358.839771 142.857135 
L 359.16475 117.516522 
L 359.814709 152.408896 
L 360.139689 128.965133 
L 360.464668 117.860319 
L 360.789648 144.212568 
L 361.114627 144.664878 
L 361.439607 155.497279 
L 361.764586 154.13348 
L 362.089566 143.784652 
L 362.414545 142.058664 
L 362.739525 135.931386 
L 363.064505 115.078297 
L 363.389484 145.485 
L 363.714464 158.694185 
L 364.039443 127.212983 
L 364.364423 164.847258 
L 364.689402 126.659205 
L 365.014382 151.825992 
L 365.339361 147.455503 
L 365.98932 124.853924 
L 366.3143 158.176647 
L 366.639279 161.190259 
L 366.964259 116.885347 
L 367.289238 154.848257 
L 367.939197 132.88706 
L 368.264177 129.15315 
L 368.589156 123.31917 
L 368.914136 130.97318 
L 369.239115 154.651721 
L 369.564095 134.411717 
L 369.889075 154.664524 
L 370.214054 140.63293 
L 370.539034 148.893846 
L 370.864013 121.05447 
L 371.188993 161.641893 
L 371.513972 125.315695 
L 371.838952 113.541303 
L 372.163931 126.515122 
L 372.488911 165.485221 
L 372.81389 140.201002 
L 373.13887 135.865618 
L 373.463849 138.13241 
L 373.788829 137.574982 
L 374.113808 117.101257 
L 374.438788 147.76905 
L 374.763767 113.522087 
L 375.088747 160.216766 
L 375.413726 120.461464 
L 375.738706 130.065422 
L 376.063686 120.74745 
L 376.388665 159.211655 
L 376.713645 149.701019 
L 377.038624 161.677191 
L 377.363604 132.8982 
L 377.688583 163.250798 
L 378.013563 138.445486 
L 378.338542 128.13802 
L 378.663522 113.875504 
L 378.988501 166.068314 
L 379.63846 128.710906 
L 379.96344 158.245136 
L 380.288419 141.441562 
L 380.613399 156.699058 
L 380.938378 113.940303 
L 381.263358 119.121802 
L 381.588337 156.147684 
L 381.913317 113.999674 
L 382.238296 132.449932 
L 382.563276 130.60444 
L 382.888256 141.645644 
L 383.213235 145.965176 
L 383.538215 114.531497 
L 383.863194 125.238292 
L 384.188174 144.813317 
L 384.513153 125.80947 
L 384.838133 165.965596 
L 385.163112 134.666901 
L 385.488092 124.369396 
L 385.813071 137.940671 
L 386.138051 157.826351 
L 386.46303 162.957151 
L 386.78801 148.796133 
L 387.112989 121.107602 
L 387.437969 133.015471 
L 387.762948 140.121969 
L 388.087928 161.820433 
L 388.737887 119.263225 
L 389.062867 155.311924 
L 389.387846 158.108651 
L 389.712826 130.736634 
L 390.362785 134.111452 
L 390.687764 134.805293 
L 391.012744 136.832837 
L 391.337723 156.360198 
L 391.662703 131.606932 
L 391.987682 142.85828 
L 392.312662 124.429392 
L 392.637641 130.884413 
L 392.962621 151.42926 
L 393.2876 123.229577 
L 393.61258 120.27032 
L 394.262539 125.461956 
L 394.587518 132.103304 
L 394.912498 162.349457 
L 395.237477 115.72495 
L 395.887437 147.166416 
L 396.212416 136.553682 
L 396.537396 150.525089 
L 396.862375 140.95496 
L 397.187355 117.977826 
L 397.512334 120.198388 
L 398.162293 147.138854 
L 398.487273 127.059647 
L 398.487273 127.059647 
" clip-path="url(#p5d9b34d38d)" style="fill: none; stroke: #1f77b4; stroke-width: 1.5; stroke-linecap: square"/>
   </g>
   <g id="patch_8">
    <path d="M 57.6 168.742957 
L 57.6 110.892522 
" style="fill: none; stroke: #000000; stroke-width: 0.8; stroke-linejoin: miter; stroke-linecap: square"/>
   </g>
   <g id="patch_9">
    <path d="M 414.72 168.742957 
L 414.72 110.892522 
" style="fill: none; stroke: #000000; stroke-width: 0.8; stroke-linejoin: miter; stroke-linecap: square"/>
   </g>
   <g id="patch_10">
    <path d="M 57.6 168.742957 
L 414.72 168.742957 
" style="fill: none; stroke: #000000; stroke-width: 0.8; stroke-linejoin: miter; stroke-linecap: square"/>
   </g>
   <g id="patch_11">
    <path d="M 57.6 110.892522 
L 414.72 110.892522 
" style="fill: none; stroke: #000000; stroke-width: 0.8; stroke-linejoin: miter; stroke-linecap: square"/>
   </g>
   <g id="text_18">
    <!-- Zgomot -->
    <g transform="translate(212.701875 104.892522) scale(0.12 -0.12)">
     <defs>
      <path id="DejaVuSans-5a" d="M 359 4666 
L 4025 4666 
L 4025 4184 
L 1075 531 
L 4097 531 
L 4097 0 
L 288 0 
L 288 481 
L 3238 4134 
L 359 4134 
L 359 4666 
z
" transform="scale(0.015625)"/>
      <path id="DejaVuSans-6f" d="M 1959 3097 
Q 1497 3097 1228 2736 
Q 959 2375 959 1747 
Q 959 1119 1226 758 
Q 1494 397 1959 397 
Q 2419 397 2687 759 
Q 2956 1122 2956 1747 
Q 2956 2369 2687 2733 
Q 2419 3097 1959 3097 
z
M 1959 3584 
Q 2709 3584 3137 3096 
Q 3566 2609 3566 1747 
Q 3566 888 3137 398 
Q 2709 -91 1959 -91 
Q 1206 -91 779 398 
Q 353 888 353 1747 
Q 353 2609 779 3096 
Q 1206 3584 1959 3584 
z
" transform="scale(0.015625)"/>
      <path id="DejaVuSans-6d" d="M 3328 2828 
Q 3544 3216 3844 3400 
Q 4144 3584 4550 3584 
Q 5097 3584 5394 3201 
Q 5691 2819 5691 2113 
L 5691 0 
L 5113 0 
L 5113 2094 
Q 5113 2597 4934 2840 
Q 4756 3084 4391 3084 
Q 3944 3084 3684 2787 
Q 3425 2491 3425 1978 
L 3425 0 
L 2847 0 
L 2847 2094 
Q 2847 2600 2669 2842 
Q 2491 3084 2119 3084 
Q 1678 3084 1418 2786 
Q 1159 2488 1159 1978 
L 1159 0 
L 581 0 
L 581 3500 
L 1159 3500 
L 1159 2956 
Q 1356 3278 1631 3431 
Q 1906 3584 2284 3584 
Q 2666 3584 2933 3390 
Q 3200 3197 3328 2828 
z
" transform="scale(0.015625)"/>
     </defs>
     <use xlink:href="#DejaVuSans-5a"/>
     <use xlink:href="#DejaVuSans-67" x="68.505859"/>
     <use xlink:href="#DejaVuSans-6f" x="131.982422"/>
     <use xlink:href="#DejaVuSans-6d" x="193.164062"/>
     <use xlink:href="#DejaVuSans-6f" x="290.576172"/>
     <use xlink:href="#DejaVuSans-74" x="351.757812"/>
    </g>
   </g>
  </g>
  <g id="axes_3">
   <g id="patch_12">
    <path d="M 57.6 238.163478 
L 414.72 238.163478 
L 414.72 180.313043 
L 57.6 180.313043 
z
" style="fill: #ffffff"/>
   </g>
   <g id="matplotlib.axis_5">
    <g id="xtick_13">
     <g id="line2d_19">
      <g>
       <use xlink:href="#md67b897fef" x="73.832727" y="238.163478" style="stroke: #000000; stroke-width: 0.8"/>
      </g>
     </g>
     <g id="text_19">
      <!-- 0 -->
      <g transform="translate(70.651477 252.761916) scale(0.1 -0.1)">
       <use xlink:href="#DejaVuSans-30"/>
      </g>
     </g>
    </g>
    <g id="xtick_14">
     <g id="line2d_20">
      <g>
       <use xlink:href="#md67b897fef" x="138.828632" y="238.163478" style="stroke: #000000; stroke-width: 0.8"/>
      </g>
     </g>
     <g id="text_20">
      <!-- 200 -->
      <g transform="translate(129.284882 252.761916) scale(0.1 -0.1)">
       <use xlink:href="#DejaVuSans-32"/>
       <use xlink:href="#DejaVuSans-30" x="63.623047"/>
       <use xlink:href="#DejaVuSans-30" x="127.246094"/>
      </g>
     </g>
    </g>
    <g id="xtick_15">
     <g id="line2d_21">
      <g>
       <use xlink:href="#md67b897fef" x="203.824537" y="238.163478" style="stroke: #000000; stroke-width: 0.8"/>
      </g>
     </g>
     <g id="text_21">
      <!-- 400 -->
      <g transform="translate(194.280787 252.761916) scale(0.1 -0.1)">
       <use xlink:href="#DejaVuSans-34"/>
       <use xlink:href="#DejaVuSans-30" x="63.623047"/>
       <use xlink:href="#DejaVuSans-30" x="127.246094"/>
      </g>
     </g>
    </g>
    <g id="xtick_16">
     <g id="line2d_22">
      <g>
       <use xlink:href="#md67b897fef" x="268.820442" y="238.163478" style="stroke: #000000; stroke-width: 0.8"/>
      </g>
     </g>
     <g id="text_22">
      <!-- 600 -->
      <g transform="translate(259.276692 252.761916) scale(0.1 -0.1)">
       <use xlink:href="#DejaVuSans-36"/>
       <use xlink:href="#DejaVuSans-30" x="63.623047"/>
       <use xlink:href="#DejaVuSans-30" x="127.246094"/>
      </g>
     </g>
    </g>
    <g id="xtick_17">
     <g id="line2d_23">
      <g>
       <use xlink:href="#md67b897fef" x="333.816347" y="238.163478" style="stroke: #000000; stroke-width: 0.8"/>
      </g>
     </g>
     <g id="text_23">
      <!-- 800 -->
      <g transform="translate(324.272597 252.761916) scale(0.1 -0.1)">
       <use xlink:href="#DejaVuSans-38"/>
       <use xlink:href="#DejaVuSans-30" x="63.623047"/>
       <use xlink:href="#DejaVuSans-30" x="127.246094"/>
      </g>
     </g>
    </g>
    <g id="xtick_18">
     <g id="line2d_24">
      <g>
       <use xlink:href="#md67b897fef" x="398.812252" y="238.163478" style="stroke: #000000; stroke-width: 0.8"/>
      </g>
     </g>
     <g id="text_24">
      <!-- 1000 -->
      <g transform="translate(386.087252 252.761916) scale(0.1 -0.1)">
       <use xlink:href="#DejaVuSans-31"/>
       <use xlink:href="#DejaVuSans-30" x="63.623047"/>
       <use xlink:href="#DejaVuSans-30" x="127.246094"/>
       <use xlink:href="#DejaVuSans-30" x="190.869141"/>
      </g>
     </g>
    </g>
   </g>
   <g id="matplotlib.axis_6">
    <g id="ytick_5">
     <g id="line2d_25">
      <g>
       <use xlink:href="#maae39c4eb8" x="57.6" y="233.267406" style="stroke: #000000; stroke-width: 0.8"/>
      </g>
     </g>
     <g id="text_25">
      <!-- −0.25 -->
      <g transform="translate(19.954687 237.066625) scale(0.1 -0.1)">
       <defs>
        <path id="DejaVuSans-2212" d="M 678 2272 
L 4684 2272 
L 4684 1741 
L 678 1741 
L 678 2272 
z
" transform="scale(0.015625)"/>
        <path id="DejaVuSans-35" d="M 691 4666 
L 3169 4666 
L 3169 4134 
L 1269 4134 
L 1269 2991 
Q 1406 3038 1543 3061 
Q 1681 3084 1819 3084 
Q 2600 3084 3056 2656 
Q 3513 2228 3513 1497 
Q 3513 744 3044 326 
Q 2575 -91 1722 -91 
Q 1428 -91 1123 -41 
Q 819 9 494 109 
L 494 744 
Q 775 591 1075 516 
Q 1375 441 1709 441 
Q 2250 441 2565 725 
Q 2881 1009 2881 1497 
Q 2881 1984 2565 2268 
Q 2250 2553 1709 2553 
Q 1456 2553 1204 2497 
Q 953 2441 691 2322 
L 691 4666 
z
" transform="scale(0.015625)"/>
       </defs>
       <use xlink:href="#DejaVuSans-2212"/>
       <use xlink:href="#DejaVuSans-30" x="83.789062"/>
       <use xlink:href="#DejaVuSans-2e" x="147.412109"/>
       <use xlink:href="#DejaVuSans-32" x="179.199219"/>
       <use xlink:href="#DejaVuSans-35" x="242.822266"/>
      </g>
     </g>
    </g>
    <g id="ytick_6">
     <g id="line2d_26">
      <g>
       <use xlink:href="#maae39c4eb8" x="57.6" y="209.238261" style="stroke: #000000; stroke-width: 0.8"/>
      </g>
     </g>
     <g id="text_26">
      <!-- 0.00 -->
      <g transform="translate(28.334375 213.03748) scale(0.1 -0.1)">
       <use xlink:href="#DejaVuSans-30"/>
       <use xlink:href="#DejaVuSans-2e" x="63.623047"/>
       <use xlink:href="#DejaVuSans-30" x="95.410156"/>
       <use xlink:href="#DejaVuSans-30" x="159.033203"/>
      </g>
     </g>
    </g>
    <g id="ytick_7">
     <g id="line2d_27">
      <g>
       <use xlink:href="#maae39c4eb8" x="57.6" y="185.209116" style="stroke: #000000; stroke-width: 0.8"/>
      </g>
     </g>
     <g id="text_27">
      <!-- 0.25 -->
      <g transform="translate(28.334375 189.008334) scale(0.1 -0.1)">
       <use xlink:href="#DejaVuSans-30"/>
       <use xlink:href="#DejaVuSans-2e" x="63.623047"/>
       <use xlink:href="#DejaVuSans-32" x="95.410156"/>
       <use xlink:href="#DejaVuSans-35" x="159.033203"/>
      </g>
     </g>
    </g>
   </g>
   <g id="line2d_28">
    <path d="M 73.832727 209.238261 
L 77.732482 198.669883 
L 79.682359 193.959763 
L 81.307256 190.529292 
L 82.932154 187.655404 
L 84.232072 185.811926 
L 85.53199 184.408172 
L 86.506929 183.657539 
L 87.481867 183.172482 
L 88.456806 182.95544 
L 89.431744 183.005631 
L 90.406683 183.319077 
L 91.381622 183.888658 
L 92.35656 184.704219 
L 93.656478 186.151314 
L 94.956396 187.973816 
L 96.581294 190.70905 
L 98.531171 194.522414 
L 101.131007 200.171563 
L 105.680721 210.152474 
L 107.630598 213.914755 
L 109.255495 216.614682 
L 110.555414 218.426787 
L 111.855332 219.891211 
L 113.15525 220.981622 
L 114.130188 221.543352 
L 115.105127 221.88123 
L 116.080066 221.994664 
L 117.055004 221.886139 
L 118.029943 221.561169 
L 119.004881 221.028212 
L 120.304799 220.013959 
L 121.604717 218.684346 
L 123.229615 216.642868 
L 125.179492 213.764265 
L 128.104308 208.966246 
L 131.354103 203.710844 
L 133.30398 200.971574 
L 134.928878 199.090383 
L 136.228796 197.913701 
L 137.528714 197.070396 
L 138.503653 196.675015 
L 139.478591 196.493581 
L 140.45353 196.532602 
L 141.428468 196.795578 
L 142.403407 197.282947 
L 143.378346 197.992065 
L 144.678264 199.272206 
L 145.978182 200.914321 
L 147.2781 202.887647 
L 148.902998 205.759773 
L 150.852875 209.676678 
L 153.77769 216.114587 
L 157.677445 224.622265 
L 159.627322 228.350853 
L 161.252219 230.991129 
L 162.552138 232.723814 
L 163.852056 234.07074 
L 164.826994 234.805618 
L 165.801933 235.290801 
L 166.776871 235.517133 
L 167.75181 235.478532 
L 168.726749 235.172079 
L 169.701687 234.598067 
L 170.676626 233.760007 
L 171.651564 232.664596 
L 172.951482 230.821118 
L 174.2514 228.569405 
L 175.876298 225.242852 
L 177.826175 220.629139 
L 180.426011 213.749354 
L 186.600622 197.03861 
L 188.5505 192.526763 
L 190.175397 189.307978 
L 191.475315 187.154876 
L 192.775233 185.418737 
L 193.750172 184.408172 
L 194.725111 183.657539 
L 195.700049 183.172482 
L 196.674988 182.95544 
L 197.649926 183.005631 
L 198.624865 183.319077 
L 199.599803 183.888658 
L 200.574742 184.704219 
L 201.87466 186.151314 
L 203.174578 187.973816 
L 204.799476 190.70905 
L 206.749353 194.522414 
L 209.349189 200.171563 
L 213.898903 210.152474 
L 215.84878 213.914755 
L 217.473677 216.614682 
L 218.773595 218.426787 
L 220.073514 219.891211 
L 221.373432 220.981622 
L 222.34837 221.543352 
L 223.323309 221.88123 
L 224.298247 221.994664 
L 225.273186 221.886139 
L 226.248124 221.561169 
L 227.223063 221.028212 
L 228.522981 220.013959 
L 229.822899 218.684346 
L 231.447797 216.642868 
L 233.397674 213.764265 
L 236.32249 208.966246 
L 239.572285 203.710844 
L 241.522162 200.971574 
L 243.14706 199.090383 
L 244.446978 197.913701 
L 245.746896 197.070396 
L 246.721835 196.675015 
L 247.696773 196.493581 
L 248.671712 196.532602 
L 249.64665 196.795578 
L 250.621589 197.282947 
L 251.596527 197.992065 
L 252.896446 199.272206 
L 254.196364 200.914321 
L 255.496282 202.887647 
L 257.121179 205.759773 
L 259.071057 209.676678 
L 261.995872 216.114587 
L 265.895627 224.622265 
L 267.845504 228.350853 
L 269.470401 230.991129 
L 270.770319 232.723814 
L 272.070238 234.07074 
L 273.045176 234.805618 
L 274.020115 235.290801 
L 274.995053 235.517133 
L 275.969992 235.478532 
L 276.94493 235.172079 
L 277.919869 234.598067 
L 278.894808 233.760007 
L 279.869746 232.664596 
L 281.169664 230.821118 
L 282.469582 228.569405 
L 284.09448 225.242852 
L 286.044357 220.629139 
L 288.644193 213.749354 
L 294.818804 197.03861 
L 296.768681 192.526763 
L 298.393579 189.307978 
L 299.693497 187.154876 
L 300.993415 185.418737 
L 301.968354 184.408172 
L 302.943292 183.657539 
L 303.918231 183.172482 
L 304.89317 182.95544 
L 305.868108 183.005631 
L 306.843047 183.319077 
L 307.817985 183.888658 
L 308.792924 184.704219 
L 310.092842 186.151314 
L 311.39276 187.973816 
L 313.017658 190.70905 
L 314.967535 194.522414 
L 317.567371 200.171563 
L 322.117084 210.152474 
L 324.066962 213.914755 
L 325.691859 216.614682 
L 326.991777 218.426787 
L 328.291695 219.891211 
L 329.591613 220.981622 
L 330.566552 221.543352 
L 331.541491 221.88123 
L 332.516429 221.994664 
L 333.491368 221.886139 
L 334.466306 221.561169 
L 335.441245 221.028212 
L 336.741163 220.013959 
L 338.041081 218.684346 
L 339.665979 216.642868 
L 341.615856 213.764265 
L 344.540672 208.966246 
L 347.790467 203.710844 
L 349.740344 200.971574 
L 351.365242 199.090383 
L 352.66516 197.913701 
L 353.965078 197.070396 
L 354.940016 196.675015 
L 355.914955 196.493581 
L 356.889894 196.532602 
L 357.864832 196.795578 
L 358.839771 197.282947 
L 359.814709 197.992065 
L 361.114627 199.272206 
L 362.414545 200.914321 
L 363.714464 202.887647 
L 365.339361 205.759773 
L 367.289238 209.676678 
L 370.214054 216.114587 
L 374.113808 224.622265 
L 376.063686 228.350853 
L 377.688583 230.991129 
L 378.988501 232.723814 
L 380.288419 234.07074 
L 381.263358 234.805618 
L 382.238296 235.290801 
L 383.213235 235.517133 
L 384.188174 235.478532 
L 385.163112 235.172079 
L 386.138051 234.598067 
L 387.112989 233.760007 
L 388.087928 232.664596 
L 389.387846 230.821118 
L 390.687764 228.569405 
L 392.312662 225.242852 
L 394.262539 220.629139 
L 396.862375 213.749354 
L 398.487273 209.238261 
L 398.487273 209.238261 
" clip-path="url(#pdcc96e61ff)" style="fill: none; stroke: #1f77b4; stroke-width: 1.5; stroke-linecap: square"/>
   </g>
   <g id="patch_13">
    <path d="M 57.6 238.163478 
L 57.6 180.313043 
" style="fill: none; stroke: #000000; stroke-width: 0.8; stroke-linejoin: miter; stroke-linecap: square"/>
   </g>
   <g id="patch_14">
    <path d="M 414.72 238.163478 
L 414.72 180.313043 
" style="fill: none; stroke: #000000; stroke-width: 0.8; stroke-linejoin: miter; stroke-linecap: square"/>
   </g>
   <g id="patch_15">
    <path d="M 57.6 238.163478 
L 414.72 238.163478 
" style="fill: none; stroke: #000000; stroke-width: 0.8; stroke-linejoin: miter; stroke-linecap: square"/>
   </g>
   <g id="patch_16">
    <path d="M 57.6 180.313043 
L 414.72 180.313043 
" style="fill: none; stroke: #000000; stroke-width: 0.8; stroke-linejoin: miter; stroke-linecap: square"/>
   </g>
   <g id="text_28">
    <!-- Semnal -->
    <g transform="translate(213.668437 174.313043) scale(0.12 -0.12)">
     <defs>
      <path id="DejaVuSans-53" d="M 3425 4513 
L 3425 3897 
Q 3066 4069 2747 4153 
Q 2428 4238 2131 4238 
Q 1616 4238 1336 4038 
Q 1056 3838 1056 3469 
Q 1056 3159 1242 3001 
Q 1428 2844 1947 2747 
L 2328 2669 
Q 3034 2534 3370 2195 
Q 3706 1856 3706 1288 
Q 3706 609 3251 259 
Q 2797 -91 1919 -91 
Q 1588 -91 1214 -16 
Q 841 59 441 206 
L 441 856 
Q 825 641 1194 531 
Q 1563 422 1919 422 
Q 2459 422 2753 634 
Q 3047 847 3047 1241 
Q 3047 1584 2836 1778 
Q 2625 1972 2144 2069 
L 1759 2144 
Q 1053 2284 737 2584 
Q 422 2884 422 3419 
Q 422 4038 858 4394 
Q 1294 4750 2059 4750 
Q 2388 4750 2728 4690 
Q 3069 4631 3425 4513 
z
" transform="scale(0.015625)"/>
      <path id="DejaVuSans-6e" d="M 3513 2113 
L 3513 0 
L 2938 0 
L 2938 2094 
Q 2938 2591 2744 2837 
Q 2550 3084 2163 3084 
Q 1697 3084 1428 2787 
Q 1159 2491 1159 1978 
L 1159 0 
L 581 0 
L 581 3500 
L 1159 3500 
L 1159 2956 
Q 1366 3272 1645 3428 
Q 1925 3584 2291 3584 
Q 2894 3584 3203 3211 
Q 3513 2838 3513 2113 
z
" transform="scale(0.015625)"/>
      <path id="DejaVuSans-6c" d="M 603 4863 
L 1178 4863 
L 1178 0 
L 603 0 
L 603 4863 
z
" transform="scale(0.015625)"/>
     </defs>
     <use xlink:href="#DejaVuSans-53"/>
     <use xlink:href="#DejaVuSans-65" x="63.476562"/>
     <use xlink:href="#DejaVuSans-6d" x="125"/>
     <use xlink:href="#DejaVuSans-6e" x="222.412109"/>
     <use xlink:href="#DejaVuSans-61" x="285.791016"/>
     <use xlink:href="#DejaVuSans-6c" x="347.070312"/>
    </g>
   </g>
  </g>
  <g id="axes_4">
   <g id="patch_17">
    <path d="M 57.6 307.584 
L 414.72 307.584 
L 414.72 249.733565 
L 57.6 249.733565 
z
" style="fill: #ffffff"/>
   </g>
   <g id="matplotlib.axis_7">
    <g id="xtick_19">
     <g id="line2d_29">
      <g>
       <use xlink:href="#md67b897fef" x="73.832727" y="307.584" style="stroke: #000000; stroke-width: 0.8"/>
      </g>
     </g>
     <g id="text_29">
      <!-- 0 -->
      <g transform="translate(70.651477 322.182437) scale(0.1 -0.1)">
       <use xlink:href="#DejaVuSans-30"/>
      </g>
     </g>
    </g>
    <g id="xtick_20">
     <g id="line2d_30">
      <g>
       <use xlink:href="#md67b897fef" x="138.828632" y="307.584" style="stroke: #000000; stroke-width: 0.8"/>
      </g>
     </g>
     <g id="text_30">
      <!-- 200 -->
      <g transform="translate(129.284882 322.182437) scale(0.1 -0.1)">
       <use xlink:href="#DejaVuSans-32"/>
       <use xlink:href="#DejaVuSans-30" x="63.623047"/>
       <use xlink:href="#DejaVuSans-30" x="127.246094"/>
      </g>
     </g>
    </g>
    <g id="xtick_21">
     <g id="line2d_31">
      <g>
       <use xlink:href="#md67b897fef" x="203.824537" y="307.584" style="stroke: #000000; stroke-width: 0.8"/>
      </g>
     </g>
     <g id="text_31">
      <!-- 400 -->
      <g transform="translate(194.280787 322.182437) scale(0.1 -0.1)">
       <use xlink:href="#DejaVuSans-34"/>
       <use xlink:href="#DejaVuSans-30" x="63.623047"/>
       <use xlink:href="#DejaVuSans-30" x="127.246094"/>
      </g>
     </g>
    </g>
    <g id="xtick_22">
     <g id="line2d_32">
      <g>
       <use xlink:href="#md67b897fef" x="268.820442" y="307.584" style="stroke: #000000; stroke-width: 0.8"/>
      </g>
     </g>
     <g id="text_32">
      <!-- 600 -->
      <g transform="translate(259.276692 322.182437) scale(0.1 -0.1)">
       <use xlink:href="#DejaVuSans-36"/>
       <use xlink:href="#DejaVuSans-30" x="63.623047"/>
       <use xlink:href="#DejaVuSans-30" x="127.246094"/>
      </g>
     </g>
    </g>
    <g id="xtick_23">
     <g id="line2d_33">
      <g>
       <use xlink:href="#md67b897fef" x="333.816347" y="307.584" style="stroke: #000000; stroke-width: 0.8"/>
      </g>
     </g>
     <g id="text_33">
      <!-- 800 -->
      <g transform="translate(324.272597 322.182437) scale(0.1 -0.1)">
       <use xlink:href="#DejaVuSans-38"/>
       <use xlink:href="#DejaVuSans-30" x="63.623047"/>
       <use xlink:href="#DejaVuSans-30" x="127.246094"/>
      </g>
     </g>
    </g>
    <g id="xtick_24">
     <g id="line2d_34">
      <g>
       <use xlink:href="#md67b897fef" x="398.812252" y="307.584" style="stroke: #000000; stroke-width: 0.8"/>
      </g>
     </g>
     <g id="text_34">
      <!-- 1000 -->
      <g transform="translate(386.087252 322.182437) scale(0.1 -0.1)">
       <use xlink:href="#DejaVuSans-31"/>
       <use xlink:href="#DejaVuSans-30" x="63.623047"/>
       <use xlink:href="#DejaVuSans-30" x="127.246094"/>
       <use xlink:href="#DejaVuSans-30" x="190.869141"/>
      </g>
     </g>
    </g>
    <g id="text_35">
     <!-- Ordin esantion -->
     <g transform="translate(199.443594 335.860562) scale(0.1 -0.1)">
      <defs>
       <path id="DejaVuSans-4f" d="M 2522 4238 
Q 1834 4238 1429 3725 
Q 1025 3213 1025 2328 
Q 1025 1447 1429 934 
Q 1834 422 2522 422 
Q 3209 422 3611 934 
Q 4013 1447 4013 2328 
Q 4013 3213 3611 3725 
Q 3209 4238 2522 4238 
z
M 2522 4750 
Q 3503 4750 4090 4092 
Q 4678 3434 4678 2328 
Q 4678 1225 4090 567 
Q 3503 -91 2522 -91 
Q 1538 -91 948 565 
Q 359 1222 359 2328 
Q 359 3434 948 4092 
Q 1538 4750 2522 4750 
z
" transform="scale(0.015625)"/>
       <path id="DejaVuSans-73" d="M 2834 3397 
L 2834 2853 
Q 2591 2978 2328 3040 
Q 2066 3103 1784 3103 
Q 1356 3103 1142 2972 
Q 928 2841 928 2578 
Q 928 2378 1081 2264 
Q 1234 2150 1697 2047 
L 1894 2003 
Q 2506 1872 2764 1633 
Q 3022 1394 3022 966 
Q 3022 478 2636 193 
Q 2250 -91 1575 -91 
Q 1294 -91 989 -36 
Q 684 19 347 128 
L 347 722 
Q 666 556 975 473 
Q 1284 391 1588 391 
Q 1994 391 2212 530 
Q 2431 669 2431 922 
Q 2431 1156 2273 1281 
Q 2116 1406 1581 1522 
L 1381 1569 
Q 847 1681 609 1914 
Q 372 2147 372 2553 
Q 372 3047 722 3315 
Q 1072 3584 1716 3584 
Q 2034 3584 2315 3537 
Q 2597 3491 2834 3397 
z
" transform="scale(0.015625)"/>
      </defs>
      <use xlink:href="#DejaVuSans-4f"/>
      <use xlink:href="#DejaVuSans-72" x="78.710938"/>
      <use xlink:href="#DejaVuSans-64" x="118.074219"/>
      <use xlink:href="#DejaVuSans-69" x="181.550781"/>
      <use xlink:href="#DejaVuSans-6e" x="209.333984"/>
      <use xlink:href="#DejaVuSans-20" x="272.712891"/>
      <use xlink:href="#DejaVuSans-65" x="304.5"/>
      <use xlink:href="#DejaVuSans-73" x="366.023438"/>
      <use xlink:href="#DejaVuSans-61" x="418.123047"/>
      <use xlink:href="#DejaVuSans-6e" x="479.402344"/>
      <use xlink:href="#DejaVuSans-74" x="542.78125"/>
      <use xlink:href="#DejaVuSans-69" x="581.990234"/>
      <use xlink:href="#DejaVuSans-6f" x="609.773438"/>
      <use xlink:href="#DejaVuSans-6e" x="670.955078"/>
     </g>
    </g>
   </g>
   <g id="matplotlib.axis_8">
    <g id="ytick_8">
     <g id="line2d_35">
      <g>
       <use xlink:href="#maae39c4eb8" x="57.6" y="288.610693" style="stroke: #000000; stroke-width: 0.8"/>
      </g>
     </g>
     <g id="text_36">
      <!-- 2 -->
      <g transform="translate(44.2375 292.409912) scale(0.1 -0.1)">
       <use xlink:href="#DejaVuSans-32"/>
      </g>
     </g>
    </g>
    <g id="ytick_9">
     <g id="line2d_36">
      <g>
       <use xlink:href="#maae39c4eb8" x="57.6" y="253.659589" style="stroke: #000000; stroke-width: 0.8"/>
      </g>
     </g>
     <g id="text_37">
      <!-- 4 -->
      <g transform="translate(44.2375 257.458808) scale(0.1 -0.1)">
       <use xlink:href="#DejaVuSans-34"/>
      </g>
     </g>
    </g>
    <g id="text_38">
     <!-- Valoare -->
     <g transform="translate(38.157812 297.287689) rotate(-90) scale(0.1 -0.1)">
      <defs>
       <path id="DejaVuSans-56" d="M 1831 0 
L 50 4666 
L 709 4666 
L 2188 738 
L 3669 4666 
L 4325 4666 
L 2547 0 
L 1831 0 
z
" transform="scale(0.015625)"/>
      </defs>
      <use xlink:href="#DejaVuSans-56"/>
      <use xlink:href="#DejaVuSans-61" x="60.658203"/>
      <use xlink:href="#DejaVuSans-6c" x="121.9375"/>
      <use xlink:href="#DejaVuSans-6f" x="149.720703"/>
      <use xlink:href="#DejaVuSans-61" x="210.902344"/>
      <use xlink:href="#DejaVuSans-72" x="272.181641"/>
      <use xlink:href="#DejaVuSans-65" x="311.044922"/>
     </g>
    </g>
   </g>
   <g id="line2d_37">
    <path d="M 73.832727 304.807829 
L 74.157707 304.954435 
L 74.482686 304.530457 
L 74.807666 304.791695 
L 75.457625 304.158768 
L 75.782604 303.289135 
L 76.107584 303.990305 
L 76.432563 303.18742 
L 76.757543 303.101066 
L 77.082523 304.069012 
L 77.407502 302.724972 
L 77.732482 303.408077 
L 78.057461 303.356536 
L 78.382441 303.092124 
L 78.70742 302.580372 
L 79.0324 301.710761 
L 79.357379 301.637558 
L 79.682359 302.465714 
L 80.332318 300.743953 
L 80.657297 301.613375 
L 81.307256 300.693538 
L 81.957215 300.674201 
L 82.282195 300.110193 
L 82.607174 300.783998 
L 82.932154 299.913187 
L 83.257133 299.699374 
L 83.582113 299.85793 
L 83.907093 299.673734 
L 84.232072 299.14173 
L 84.557052 299.421122 
L 85.207011 299.681085 
L 85.53199 299.401046 
L 85.85697 299.751028 
L 86.181949 299.357058 
L 86.831908 299.731823 
L 87.481867 298.155654 
L 87.806847 298.689703 
L 88.131826 298.529051 
L 88.456806 299.338315 
L 88.781785 298.908797 
L 89.106765 299.008982 
L 89.431744 299.497561 
L 89.756724 298.38256 
L 90.081704 298.988698 
L 90.406683 298.720604 
L 90.731663 298.005517 
L 91.056642 298.076531 
L 91.381622 298.82741 
L 91.706601 298.398155 
L 92.031581 299.400513 
L 92.35656 298.120349 
L 92.68154 298.514002 
L 93.006519 299.14293 
L 93.331499 298.611814 
L 93.656478 299.167296 
L 93.981458 298.324577 
L 94.306437 298.458132 
L 94.631417 299.270358 
L 94.956396 298.206113 
L 95.281376 298.506395 
L 95.606355 299.30965 
L 95.931335 299.456974 
L 96.256314 300.046722 
L 96.581294 299.6864 
L 96.906274 299.60846 
L 97.231253 299.108936 
L 97.556233 299.390371 
L 97.881212 300.293545 
L 98.206192 299.825038 
L 98.531171 299.979772 
L 98.856151 299.121408 
L 99.18113 299.657459 
L 99.50611 299.354345 
L 99.831089 299.531725 
L 100.156069 300.87507 
L 100.481048 299.995263 
L 100.806028 299.99052 
L 101.131007 300.977461 
L 101.455987 301.394319 
L 101.780966 299.985695 
L 102.105946 300.790148 
L 102.430925 300.763791 
L 102.755905 300.338031 
L 103.080885 301.183005 
L 103.405864 301.113671 
L 103.730844 300.725842 
L 104.055823 301.311625 
L 104.380803 300.757886 
L 105.030762 301.763504 
L 105.355741 301.697827 
L 105.680721 302.432619 
L 106.0057 302.338727 
L 106.33068 301.412388 
L 106.655659 302.163121 
L 107.305618 302.860081 
L 107.630598 302.241285 
L 107.955577 303.075707 
L 108.280557 302.357517 
L 108.605536 302.738539 
L 108.930516 302.734776 
L 109.255495 303.175324 
L 109.580475 301.925047 
L 109.905455 303.071263 
L 110.230434 302.57404 
L 110.555414 303.270443 
L 110.880393 302.181091 
L 111.205373 302.084528 
L 111.530352 303.12527 
L 111.855332 303.111811 
L 112.180311 303.42837 
L 112.505291 302.407177 
L 112.83027 302.35464 
L 113.15525 302.64263 
L 113.480229 302.182226 
L 113.805209 302.318271 
L 114.130188 303.670296 
L 114.455168 302.166401 
L 115.105127 302.518309 
L 115.430106 303.384996 
L 116.080066 302.760689 
L 116.405045 302.24758 
L 116.730025 302.99563 
L 117.055004 302.857817 
L 117.379984 301.919332 
L 117.704963 302.580412 
L 118.029943 301.959756 
L 118.354922 302.032312 
L 118.679902 302.542088 
L 119.004881 302.392277 
L 119.329861 302.609685 
L 119.65484 301.598586 
L 119.97982 302.437822 
L 120.629779 302.169132 
L 121.279738 301.877789 
L 121.604717 302.02601 
L 121.929697 301.428474 
L 122.254676 302.022437 
L 122.579656 301.751337 
L 122.904636 301.696252 
L 123.229615 301.444441 
L 123.554595 300.276464 
L 123.879574 301.162776 
L 124.204554 300.145353 
L 124.529533 299.85457 
L 124.854513 300.391055 
L 125.179492 300.309564 
L 125.504472 300.665688 
L 126.154431 299.775468 
L 126.47941 300.084294 
L 126.80439 298.866055 
L 127.129369 299.889166 
L 127.454349 298.331064 
L 127.779328 299.028858 
L 128.104308 298.637488 
L 128.429287 297.98489 
L 128.754267 297.939627 
L 129.079247 298.757647 
L 129.729206 297.278684 
L 130.054185 298.174533 
L 130.379165 297.474763 
L 130.704144 298.537715 
L 131.029124 297.776753 
L 131.354103 297.808368 
L 131.679083 296.921617 
L 132.654021 297.467412 
L 132.979001 296.30016 
L 133.30398 297.206311 
L 133.62896 296.138086 
L 133.953939 296.092736 
L 134.278919 295.74811 
L 134.603898 296.021938 
L 134.928878 295.466517 
L 135.253857 295.579858 
L 135.578837 295.811283 
L 135.903817 296.586558 
L 136.228796 296.647436 
L 136.553776 295.737704 
L 136.878755 295.627788 
L 137.203735 295.157923 
L 137.528714 296.330941 
L 137.853694 294.836059 
L 138.178673 295.680519 
L 138.503653 295.451923 
L 138.828632 294.573973 
L 139.153612 295.369577 
L 139.478591 294.420362 
L 139.803571 294.687374 
L 140.12855 295.136793 
L 140.45353 295.185252 
L 140.778509 295.473402 
L 141.103489 294.870423 
L 141.428468 295.579873 
L 142.078428 295.077289 
L 142.403407 294.38475 
L 143.053366 294.880509 
L 143.378346 294.497855 
L 144.028305 294.100233 
L 144.353284 295.595859 
L 144.678264 295.131591 
L 145.003243 295.592613 
L 145.328223 295.712961 
L 145.653202 294.458465 
L 145.978182 295.606897 
L 146.303161 295.552403 
L 146.628141 295.177337 
L 146.95312 295.280095 
L 147.2781 294.933476 
L 147.603079 296.167554 
L 147.928059 295.12005 
L 148.253038 294.834427 
L 148.578018 294.757669 
L 148.902998 295.936123 
L 149.227977 294.965264 
L 149.552957 295.119878 
L 149.877936 296.144532 
L 150.202916 296.09063 
L 150.527895 296.178718 
L 150.852875 295.723267 
L 151.177854 296.077013 
L 151.502834 296.886198 
L 151.827813 297.019023 
L 152.152793 295.778583 
L 152.477772 295.917882 
L 153.127731 297.396118 
L 153.452711 296.287737 
L 153.77769 296.186661 
L 154.10267 297.642289 
L 154.427649 296.310929 
L 154.752629 296.471326 
L 155.077609 297.3602 
L 155.402588 297.051288 
L 156.052547 298.188761 
L 156.377527 298.085987 
L 156.702506 296.943097 
L 157.027486 297.046504 
L 157.677445 298.080296 
L 158.002424 298.353367 
L 158.327404 298.073513 
L 158.652383 298.163125 
L 158.977363 297.399135 
L 159.302342 298.217131 
L 159.627322 298.104229 
L 159.952301 297.721125 
L 160.277281 299.177251 
L 160.60226 298.727145 
L 160.92724 299.076367 
L 161.252219 297.728563 
L 161.577199 297.817168 
L 161.902179 299.157928 
L 162.227158 299.168457 
L 162.552138 298.950221 
L 162.877117 299.239605 
L 163.202097 298.569828 
L 163.527076 298.328617 
L 163.852056 297.823373 
L 164.177035 299.484144 
L 164.502015 297.902386 
L 164.826994 298.718743 
L 165.151974 297.857659 
L 165.476953 298.336239 
L 165.801933 299.314047 
L 166.126912 298.229698 
L 166.451892 298.2959 
L 166.776871 298.018295 
L 167.101851 298.123576 
L 167.42683 298.907505 
L 167.75181 298.884096 
L 168.07679 299.000894 
L 168.401769 298.515131 
L 168.726749 298.949788 
L 169.051728 297.660912 
L 169.376708 298.247801 
L 169.701687 297.561642 
L 170.026667 298.086073 
L 170.351646 297.275414 
L 170.676626 297.312753 
L 171.001605 297.227621 
L 171.326585 296.650126 
L 171.651564 297.832871 
L 172.626503 296.467421 
L 172.951482 296.707735 
L 173.276462 297.176632 
L 173.601441 296.666441 
L 174.2514 296.858358 
L 174.57638 295.559888 
L 174.90136 296.571164 
L 175.226339 295.601726 
L 175.551319 296.242763 
L 175.876298 296.096675 
L 176.201278 295.45673 
L 176.526257 294.307166 
L 176.851237 294.794001 
L 177.176216 294.179883 
L 177.501196 295.137579 
L 177.826175 293.938354 
L 178.151155 294.785532 
L 178.476134 294.034634 
L 178.801114 293.886021 
L 179.451073 292.643671 
L 179.776052 292.421735 
L 180.101032 293.447744 
L 180.426011 293.258072 
L 180.750991 292.827621 
L 181.075971 291.665867 
L 181.40095 291.397754 
L 181.72593 291.290662 
L 182.050909 292.258855 
L 182.375889 290.553023 
L 182.700868 291.487481 
L 183.025848 290.872988 
L 183.350827 290.630667 
L 183.675807 289.987208 
L 184.000786 290.88586 
L 184.325766 290.519077 
L 184.650745 289.621596 
L 184.975725 290.411882 
L 185.300704 289.026667 
L 185.625684 288.507041 
L 185.950663 289.858534 
L 186.925602 288.408176 
L 187.250581 288.881221 
L 187.575561 288.797168 
L 188.5505 286.998681 
L 188.875479 287.431385 
L 189.200459 286.791164 
L 189.525438 287.726163 
L 189.850418 286.548511 
L 190.175397 286.622331 
L 190.500377 287.062799 
L 190.825356 286.614245 
L 191.150336 286.436462 
L 191.800295 285.741721 
L 192.125274 286.753285 
L 192.450254 285.235342 
L 192.775233 286.496653 
L 193.100213 285.212846 
L 193.425192 284.960594 
L 194.075152 285.681794 
L 194.400131 285.547354 
L 194.725111 284.458547 
L 195.05009 284.895922 
L 195.700049 284.455634 
L 196.025029 285.107524 
L 196.350008 284.158279 
L 196.674988 284.999647 
L 196.999967 284.486543 
L 197.324947 285.398051 
L 197.649926 284.388555 
L 197.974906 284.161906 
L 198.299885 284.868586 
L 198.949844 284.376699 
L 199.274824 285.100726 
L 199.599803 283.596384 
L 199.924783 284.844476 
L 200.249762 283.623937 
L 200.574742 284.046012 
L 200.899722 284.272979 
L 201.224701 284.186107 
L 201.549681 283.861692 
L 201.87466 284.115212 
L 202.19964 284.815097 
L 202.524619 283.79971 
L 202.849599 284.417178 
L 203.174578 285.444029 
L 203.499558 285.192112 
L 203.824537 284.200029 
L 204.474496 285.172161 
L 204.799476 284.651425 
L 205.124455 284.840296 
L 205.449435 284.332436 
L 205.774414 284.222056 
L 206.099394 285.434395 
L 206.424373 285.109377 
L 206.749353 284.991554 
L 207.074333 285.268275 
L 207.399312 285.258432 
L 207.724292 285.981096 
L 208.049271 284.937675 
L 208.374251 286.47684 
L 208.69923 285.403992 
L 209.02421 286.042857 
L 209.349189 285.134756 
L 209.674169 285.461788 
L 209.999148 286.155811 
L 210.324128 285.432342 
L 211.299066 286.737908 
L 211.624046 286.852778 
L 211.949025 286.478171 
L 212.274005 286.81036 
L 212.598984 286.036537 
L 212.923964 287.523515 
L 213.248943 287.659918 
L 213.573923 286.45418 
L 213.898903 287.626216 
L 214.223882 287.567868 
L 214.548862 287.643589 
L 215.198821 287.166952 
L 215.5238 287.734988 
L 215.84878 287.896893 
L 216.173759 287.699136 
L 216.498739 286.926745 
L 216.823718 287.76262 
L 217.148698 287.500553 
L 217.473677 287.807517 
L 217.798657 286.914416 
L 218.123636 287.248176 
L 218.448616 286.981044 
L 218.773595 287.547561 
L 219.098575 287.057048 
L 219.748534 288.44193 
L 220.073514 288.695684 
L 220.398493 288.505609 
L 221.048452 287.132582 
L 221.373432 287.905922 
L 221.698411 287.220169 
L 222.023391 287.031999 
L 222.34837 287.919747 
L 222.67335 287.998524 
L 222.998329 288.441167 
L 223.323309 287.007135 
L 223.648288 286.926691 
L 223.973268 286.971778 
L 224.298247 286.753393 
L 224.623227 286.670287 
L 224.948206 287.889537 
L 225.598165 287.108297 
L 225.923145 287.937098 
L 226.573104 287.492105 
L 226.898084 287.311074 
L 227.223063 286.263581 
L 227.548043 287.319653 
L 227.873022 287.190298 
L 228.198002 285.948379 
L 228.522981 285.940373 
L 228.847961 286.839332 
L 229.17294 287.194859 
L 229.49792 286.333106 
L 230.147879 285.638686 
L 230.472858 285.958599 
L 230.797838 285.851692 
L 231.122817 286.161202 
L 231.772776 284.851045 
L 232.422735 285.524775 
L 232.747715 284.421165 
L 233.072695 285.50486 
L 233.397674 285.431782 
L 233.722654 285.199202 
L 234.047633 283.879665 
L 234.372613 283.710796 
L 234.697592 283.806949 
L 235.022572 284.349323 
L 235.347551 284.58994 
L 235.672531 283.196658 
L 235.99751 283.620987 
L 236.32249 283.403983 
L 236.647469 283.716553 
L 236.972449 282.15298 
L 237.947387 281.939925 
L 238.272367 282.673187 
L 238.597346 282.218097 
L 238.922326 282.373163 
L 239.247305 282.720913 
L 239.572285 281.295393 
L 239.897265 282.25236 
L 240.222244 282.185381 
L 241.522162 280.132664 
L 241.847142 280.70465 
L 242.497101 281.25601 
L 242.82208 280.017698 
L 243.14706 280.87812 
L 243.472039 279.426721 
L 244.446978 280.627574 
L 244.771957 279.121261 
L 245.096937 279.08204 
L 245.421916 279.762013 
L 245.746896 279.019025 
L 246.071876 278.771043 
L 246.721835 279.772554 
L 247.046814 279.371148 
L 247.371794 279.337822 
L 247.696773 278.539907 
L 248.021753 279.256076 
L 248.346732 278.632804 
L 248.671712 278.38584 
L 248.996691 278.403481 
L 249.321671 278.670261 
L 249.64665 279.226593 
L 249.97163 279.464532 
L 250.296609 278.428134 
L 250.621589 278.746794 
L 250.946568 279.482773 
L 251.596527 278.27908 
L 251.921507 278.82486 
L 252.246486 278.877601 
L 252.571466 278.649083 
L 252.896446 278.567797 
L 253.221425 278.198039 
L 253.546405 278.93432 
L 253.871384 278.525694 
L 254.196364 279.214466 
L 254.521343 279.41723 
L 254.846323 279.162039 
L 255.171302 279.328559 
L 255.821261 278.584291 
L 256.146241 278.56708 
L 256.47122 279.005791 
L 256.7962 278.473534 
L 257.121179 279.053261 
L 257.446159 279.255388 
L 257.771138 279.112559 
L 258.096118 279.240543 
L 258.421097 278.726513 
L 258.746077 279.041163 
L 259.071057 280.31403 
L 259.396036 279.49239 
L 259.721016 279.909492 
L 260.045995 279.17082 
L 260.370975 280.512899 
L 260.695954 280.044788 
L 261.020934 280.530825 
L 261.670893 279.563097 
L 261.995872 280.947657 
L 262.320852 280.153374 
L 262.645831 280.459411 
L 262.970811 280.244693 
L 263.29579 281.104411 
L 263.62077 280.66879 
L 263.945749 280.535538 
L 264.270729 280.23547 
L 264.595708 281.496208 
L 264.920688 280.314305 
L 265.245667 281.264418 
L 265.570647 281.127651 
L 265.895627 281.351138 
L 266.220606 282.008573 
L 266.545586 281.396922 
L 266.870565 281.527388 
L 267.520524 282.126894 
L 267.845504 282.307609 
L 268.170483 281.642296 
L 268.820442 282.292105 
L 269.145422 281.423163 
L 269.470401 281.987734 
L 269.795381 281.718375 
L 270.12036 282.511488 
L 270.44534 281.912051 
L 271.420278 281.851501 
L 271.745258 282.70325 
L 272.070238 282.426362 
L 272.395217 282.670769 
L 272.720197 282.158697 
L 273.045176 281.174492 
L 273.370156 281.394998 
L 273.695135 281.480375 
L 274.020115 282.460819 
L 274.345094 281.878087 
L 274.670074 282.466902 
L 274.995053 281.441478 
L 275.320033 281.793633 
L 275.645012 280.851708 
L 275.969992 282.225678 
L 276.294971 281.322959 
L 276.619951 281.829366 
L 276.94493 281.630814 
L 277.26991 280.489781 
L 277.594889 280.27233 
L 277.919869 281.525749 
L 278.244848 280.231791 
L 278.569828 281.603518 
L 278.894808 280.666628 
L 279.219787 280.937923 
L 279.869746 280.309043 
L 280.194726 280.700609 
L 280.519705 279.303769 
L 280.844685 279.733352 
L 281.169664 278.939109 
L 281.494644 278.913754 
L 281.819623 279.738354 
L 282.144603 278.852574 
L 282.469582 279.466961 
L 282.794562 279.261041 
L 283.119541 278.571488 
L 283.444521 279.174283 
L 283.7695 279.008333 
L 284.09448 278.184892 
L 284.419459 278.666757 
L 284.744439 278.198132 
L 285.069419 277.479346 
L 285.394398 277.238526 
L 285.719378 277.310214 
L 286.044357 276.833761 
L 286.369337 277.081428 
L 286.694316 276.610953 
L 287.019296 275.687443 
L 287.344275 275.41909 
L 287.994234 275.288655 
L 288.319214 275.418272 
L 288.644193 274.910028 
L 288.969173 274.178253 
L 289.294152 274.456262 
L 289.619132 274.512407 
L 289.944111 275.067814 
L 290.269091 274.264587 
L 290.59407 274.304405 
L 291.244029 273.254669 
L 291.893989 272.292862 
L 292.218968 273.151392 
L 292.543948 272.170021 
L 292.868927 272.193684 
L 293.193907 272.532383 
L 293.518886 271.538782 
L 293.843866 271.050929 
L 294.493825 271.601668 
L 295.143784 270.324895 
L 295.468763 270.221441 
L 295.793743 269.972575 
L 296.118722 271.17715 
L 296.443702 270.486078 
L 296.768681 270.594381 
L 297.41864 268.844145 
L 297.74362 269.31191 
L 298.0686 269.534343 
L 298.393579 269.911163 
L 298.718559 269.530278 
L 299.043538 269.439974 
L 299.368518 268.206889 
L 299.693497 267.965639 
L 300.018477 268.764559 
L 300.343456 267.940651 
L 300.668436 267.932926 
L 300.993415 267.109987 
L 301.318395 267.13403 
L 301.643374 266.809818 
L 301.968354 266.869873 
L 302.293333 267.135241 
L 302.618313 267.912622 
L 302.943292 266.890984 
L 303.268272 267.490566 
L 303.593251 266.430792 
L 303.918231 267.77606 
L 304.24321 266.159578 
L 304.56819 267.324495 
L 304.89317 266.959794 
L 305.218149 267.334739 
L 305.543129 266.58433 
L 305.868108 267.221518 
L 306.193088 266.019865 
L 306.518067 266.037107 
L 306.843047 266.927536 
L 307.168026 267.25262 
L 307.493006 265.978305 
L 307.817985 266.333963 
L 308.142965 266.197346 
L 308.467944 266.361682 
L 308.792924 266.739913 
L 309.117903 265.518676 
L 309.767862 266.278128 
L 310.092842 265.834269 
L 310.417821 266.861157 
L 310.742801 266.681609 
L 311.067781 267.128761 
L 311.39276 265.548771 
L 311.71774 266.753272 
L 312.367699 267.16606 
L 312.692678 265.859804 
L 313.017658 267.001392 
L 313.342637 266.691606 
L 313.667617 267.038853 
L 313.992596 266.036814 
L 314.317576 267.626293 
L 314.642555 266.467949 
L 314.967535 267.580537 
L 315.292514 266.309146 
L 315.617494 266.231462 
L 315.942473 267.554741 
L 316.267453 267.244019 
L 316.592432 268.07306 
L 316.917412 268.038981 
L 317.242391 267.712487 
L 317.567371 266.973814 
L 318.21733 267.269173 
L 318.54231 267.146896 
L 318.867289 268.155353 
L 319.192269 268.345674 
L 319.517248 268.699878 
L 319.842228 267.512964 
L 320.167207 268.458682 
L 320.492187 268.490866 
L 320.817166 268.160093 
L 321.142146 269.037087 
L 321.467125 267.679582 
L 321.792105 268.097756 
L 322.117084 267.652102 
L 322.767043 269.280755 
L 323.092023 268.750109 
L 323.417002 267.789904 
L 323.741982 269.019893 
L 324.066962 268.802929 
L 324.391941 269.349669 
L 324.716921 269.45101 
L 325.0419 268.084806 
L 325.36688 268.483522 
L 325.691859 268.558725 
L 326.016839 268.487337 
L 326.341818 269.425855 
L 326.666798 268.157984 
L 326.991777 268.359858 
L 327.316757 269.002203 
L 327.641736 268.720373 
L 327.966716 268.611455 
L 328.291695 268.163797 
L 328.941654 268.333613 
L 329.266634 269.488162 
L 329.591613 268.509078 
L 329.916593 269.143217 
L 330.241572 269.466946 
L 330.566552 268.457071 
L 330.891532 269.25469 
L 331.216511 268.02166 
L 331.541491 268.41678 
L 331.86647 268.463247 
L 332.19145 269.41573 
L 332.516429 268.659889 
L 333.166388 268.205623 
L 333.491368 268.304026 
L 333.816347 268.200909 
L 334.141327 267.365989 
L 334.466306 268.489626 
L 335.116265 268.466429 
L 335.441245 267.039443 
L 335.766224 267.760347 
L 336.091204 267.144125 
L 336.416183 267.864005 
L 336.741163 266.541532 
L 337.066143 267.880784 
L 337.391122 266.95234 
L 337.716102 266.900555 
L 338.041081 266.620655 
L 338.366061 267.357173 
L 338.69104 266.101916 
L 339.01602 266.418401 
L 339.340999 266.224232 
L 339.665979 265.741829 
L 339.990958 266.465945 
L 340.640917 265.41626 
L 340.965897 266.137435 
L 341.290876 265.1168 
L 341.615856 265.500827 
L 342.265815 264.247174 
L 342.590794 264.772739 
L 342.915774 264.077574 
L 343.240753 265.219226 
L 343.890713 263.6948 
L 344.540672 264.740811 
L 344.865651 264.463908 
L 345.190631 263.764736 
L 345.51561 264.12706 
L 345.84059 262.488295 
L 346.165569 262.825153 
L 346.490549 262.744264 
L 346.815528 263.44788 
L 347.140508 262.457972 
L 347.465487 261.960413 
L 347.790467 262.921408 
L 348.115446 262.950826 
L 348.440426 261.666182 
L 348.765405 262.37697 
L 349.090385 261.978727 
L 349.415364 262.052504 
L 349.740344 261.562766 
L 350.065324 262.076763 
L 350.390303 260.538635 
L 350.715283 260.847875 
L 351.040262 261.453172 
L 351.365242 259.986599 
L 351.690221 261.15879 
L 352.015201 259.722501 
L 352.34018 260.873075 
L 352.66516 259.794323 
L 352.990139 260.98055 
L 353.315119 260.546119 
L 353.640098 259.282911 
L 353.965078 259.50713 
L 354.290057 259.025341 
L 354.615037 260.087149 
L 354.940016 258.806735 
L 355.589975 258.583163 
L 355.914955 259.187882 
L 356.239934 259.403488 
L 356.564914 258.509901 
L 356.889894 259.310421 
L 357.214873 258.260548 
L 357.539853 259.662022 
L 358.189812 259.015403 
L 358.514791 258.507609 
L 358.839771 258.988983 
L 359.16475 258.121991 
L 359.814709 259.237209 
L 360.139689 258.446212 
L 360.464668 258.068421 
L 360.789648 258.936213 
L 361.114627 258.949817 
L 361.439607 259.311513 
L 361.764586 259.273023 
L 362.089566 258.940685 
L 362.414545 258.897949 
L 362.739525 258.713086 
L 363.064505 258.04383 
L 363.389484 259.076894 
L 363.714464 259.543428 
L 364.039443 258.532173 
L 364.364423 259.814634 
L 364.689402 258.58731 
L 365.014382 259.462523 
L 365.339361 259.361605 
L 365.98932 258.708115 
L 366.3143 259.863781 
L 366.639279 260.017133 
L 366.964259 258.604303 
L 367.289238 259.919734 
L 367.939197 259.311352 
L 368.589156 259.118972 
L 368.914136 259.436524 
L 369.239115 260.285927 
L 369.564095 259.680432 
L 369.889075 260.417323 
L 370.214054 260.018231 
L 370.539034 260.357979 
L 370.864013 259.50119 
L 371.188993 260.911799 
L 371.513972 259.772904 
L 371.838952 259.446974 
L 372.163931 259.940331 
L 372.488911 261.294149 
L 372.81389 260.517256 
L 373.13887 260.433177 
L 373.788829 260.603942 
L 374.113808 259.979578 
L 374.438788 261.047916 
L 374.763767 259.962571 
L 375.088747 261.557182 
L 375.413726 260.284069 
L 375.738706 260.643906 
L 376.063686 260.37363 
L 376.388665 261.683715 
L 376.713645 261.400529 
L 377.038624 261.825944 
L 377.363604 260.897056 
L 377.688583 261.924058 
L 378.013563 261.119155 
L 378.663522 260.326923 
L 378.988501 262.06126 
L 379.63846 260.819052 
L 379.96344 261.788855 
L 380.288419 261.218236 
L 380.613399 261.705312 
L 380.938378 260.264749 
L 381.263358 260.407961 
L 381.588337 261.601442 
L 381.913317 260.165875 
L 382.238296 260.733376 
L 382.563276 260.622989 
L 382.888256 260.934361 
L 383.213235 261.017613 
L 383.538215 259.91058 
L 383.863194 260.194701 
L 384.188174 260.767285 
L 384.513153 260.05588 
L 384.838133 261.299633 
L 385.163112 260.169854 
L 385.488092 259.730629 
L 385.813071 260.077009 
L 386.138051 260.627248 
L 386.46303 260.683124 
L 386.78801 260.094315 
L 387.112989 259.051901 
L 387.437969 259.316509 
L 387.762948 259.416816 
L 388.087928 259.995601 
L 388.737887 258.289531 
L 389.062867 259.329021 
L 389.387846 259.261728 
L 389.712826 258.189935 
L 391.012744 257.688714 
L 391.337723 258.149504 
L 391.662703 257.138835 
L 391.987682 257.317572 
L 392.312662 256.509006 
L 392.637641 256.521591 
L 392.962621 256.997757 
L 393.2876 255.855276 
L 393.61258 255.54624 
L 394.262539 255.287907 
L 394.587518 255.288929 
L 394.912498 256.069883 
L 395.237477 254.301104 
L 395.887437 254.890133 
L 396.212416 254.309425 
L 396.537396 254.542041 
L 396.862375 253.993247 
L 397.187355 252.999105 
L 397.512334 252.839208 
L 398.162293 253.263363 
L 398.487273 252.36313 
L 398.487273 252.36313 
" clip-path="url(#pb0a5bde35e)" style="fill: none; stroke: #1f77b4; stroke-width: 1.5; stroke-linecap: square"/>
   </g>
   <g id="patch_18">
    <path d="M 57.6 307.584 
L 57.6 249.733565 
" style="fill: none; stroke: #000000; stroke-width: 0.8; stroke-linejoin: miter; stroke-linecap: square"/>
   </g>
   <g id="patch_19">
    <path d="M 414.72 307.584 
L 414.72 249.733565 
" style="fill: none; stroke: #000000; stroke-width: 0.8; stroke-linejoin: miter; stroke-linecap: square"/>
   </g>
   <g id="patch_20">
    <path d="M 57.6 307.584 
L 414.72 307.584 
" style="fill: none; stroke: #000000; stroke-width: 0.8; stroke-linejoin: miter; stroke-linecap: square"/>
   </g>
   <g id="patch_21">
    <path d="M 57.6 249.733565 
L 414.72 249.733565 
" style="fill: none; stroke: #000000; stroke-width: 0.8; stroke-linejoin: miter; stroke-linecap: square"/>
   </g>
   <g id="text_39">
    <!-- Serie timp -->
    <g transform="translate(205.254375 243.733565) scale(0.12 -0.12)">
     <defs>
      <path id="DejaVuSans-70" d="M 1159 525 
L 1159 -1331 
L 581 -1331 
L 581 3500 
L 1159 3500 
L 1159 2969 
Q 1341 3281 1617 3432 
Q 1894 3584 2278 3584 
Q 2916 3584 3314 3078 
Q 3713 2572 3713 1747 
Q 3713 922 3314 415 
Q 2916 -91 2278 -91 
Q 1894 -91 1617 61 
Q 1341 213 1159 525 
z
M 3116 1747 
Q 3116 2381 2855 2742 
Q 2594 3103 2138 3103 
Q 1681 3103 1420 2742 
Q 1159 2381 1159 1747 
Q 1159 1113 1420 752 
Q 1681 391 2138 391 
Q 2594 391 2855 752 
Q 3116 1113 3116 1747 
z
" transform="scale(0.015625)"/>
     </defs>
     <use xlink:href="#DejaVuSans-53"/>
     <use xlink:href="#DejaVuSans-65" x="63.476562"/>
     <use xlink:href="#DejaVuSans-72" x="125"/>
     <use xlink:href="#DejaVuSans-69" x="166.113281"/>
     <use xlink:href="#DejaVuSans-65" x="193.896484"/>
     <use xlink:href="#DejaVuSans-20" x="255.419922"/>
     <use xlink:href="#DejaVuSans-74" x="287.207031"/>
     <use xlink:href="#DejaVuSans-69" x="326.416016"/>
     <use xlink:href="#DejaVuSans-6d" x="354.199219"/>
     <use xlink:href="#DejaVuSans-70" x="451.611328"/>
    </g>
   </g>
  </g>
 </g>
 <defs>
  <clipPath id="p6771cb0e6d">
   <rect x="57.6" y="41.472" width="357.12" height="57.850435"/>
  </clipPath>
  <clipPath id="p5d9b34d38d">
   <rect x="57.6" y="110.892522" width="357.12" height="57.850435"/>
  </clipPath>
  <clipPath id="pdcc96e61ff">
   <rect x="57.6" y="180.313043" width="357.12" height="57.850435"/>
  </clipPath>
  <clipPath id="pb0a5bde35e">
   <rect x="57.6" y="249.733565" width="357.12" height="57.850435"/>
  </clipPath>
 </defs>
</svg>
