<?xml version="1.0" encoding="utf-8" standalone="no"?>
<!DOCTYPE svg PUBLIC "-//W3C//DTD SVG 1.1//EN"
  "http://www.w3.org/Graphics/SVG/1.1/DTD/svg11.dtd">
<svg xmlns:xlink="http://www.w3.org/1999/xlink" width="460.8pt" height="345.6pt" viewBox="0 0 460.8 345.6" xmlns="http://www.w3.org/2000/svg" version="1.1">
 <metadata>
  <rdf:RDF xmlns:dc="http://purl.org/dc/elements/1.1/" xmlns:cc="http://creativecommons.org/ns#" xmlns:rdf="http://www.w3.org/1999/02/22-rdf-syntax-ns#">
   <cc:Work>
    <dc:type rdf:resource="http://purl.org/dc/dcmitype/StillImage"/>
    <dc:date>2024-12-28T16:50:15.928174</dc:date>
    <dc:format>image/svg+xml</dc:format>
    <dc:creator>
     <cc:Agent>
      <dc:title>Matplotlib v3.9.2, https://matplotlib.org/</dc:title>
     </cc:Agent>
    </dc:creator>
   </cc:Work>
  </rdf:RDF>
 </metadata>
 <defs>
  <style type="text/css">*{stroke-linejoin: round; stroke-linecap: butt}</style>
 </defs>
 <g id="figure_1">
  <g id="patch_1">
   <path d="M 0 345.6 
L 460.8 345.6 
L 460.8 0 
L 0 0 
z
" style="fill: #ffffff"/>
  </g>
  <g id="axes_1">
   <g id="patch_2">
    <path d="M 57.6 307.584 
L 414.72 307.584 
L 414.72 41.472 
L 57.6 41.472 
z
" style="fill: #ffffff"/>
   </g>
   <g id="matplotlib.axis_1">
    <g id="xtick_1">
     <g id="line2d_1">
      <defs>
       <path id="m20740fc61f" d="M 0 0 
L 0 3.5 
" style="stroke: #000000; stroke-width: 0.8"/>
      </defs>
      <g>
       <use xlink:href="#m20740fc61f" x="73.832725" y="307.584" style="stroke: #000000; stroke-width: 0.8"/>
      </g>
     </g>
     <g id="text_1">
      <!-- −1.00 -->
      <g transform="translate(58.510069 322.182437) scale(0.1 -0.1)">
       <defs>
        <path id="DejaVuSans-2212" d="M 678 2272 
L 4684 2272 
L 4684 1741 
L 678 1741 
L 678 2272 
z
" transform="scale(0.015625)"/>
        <path id="DejaVuSans-31" d="M 794 531 
L 1825 531 
L 1825 4091 
L 703 3866 
L 703 4441 
L 1819 4666 
L 2450 4666 
L 2450 531 
L 3481 531 
L 3481 0 
L 794 0 
L 794 531 
z
" transform="scale(0.015625)"/>
        <path id="DejaVuSans-2e" d="M 684 794 
L 1344 794 
L 1344 0 
L 684 0 
L 684 794 
z
" transform="scale(0.015625)"/>
        <path id="DejaVuSans-30" d="M 2034 4250 
Q 1547 4250 1301 3770 
Q 1056 3291 1056 2328 
Q 1056 1369 1301 889 
Q 1547 409 2034 409 
Q 2525 409 2770 889 
Q 3016 1369 3016 2328 
Q 3016 3291 2770 3770 
Q 2525 4250 2034 4250 
z
M 2034 4750 
Q 2819 4750 3233 4129 
Q 3647 3509 3647 2328 
Q 3647 1150 3233 529 
Q 2819 -91 2034 -91 
Q 1250 -91 836 529 
Q 422 1150 422 2328 
Q 422 3509 836 4129 
Q 1250 4750 2034 4750 
z
" transform="scale(0.015625)"/>
       </defs>
       <use xlink:href="#DejaVuSans-2212"/>
       <use xlink:href="#DejaVuSans-31" x="83.789062"/>
       <use xlink:href="#DejaVuSans-2e" x="147.412109"/>
       <use xlink:href="#DejaVuSans-30" x="179.199219"/>
       <use xlink:href="#DejaVuSans-30" x="242.822266"/>
      </g>
     </g>
    </g>
    <g id="xtick_2">
     <g id="line2d_2">
      <g>
       <use xlink:href="#m20740fc61f" x="114.414544" y="307.584" style="stroke: #000000; stroke-width: 0.8"/>
      </g>
     </g>
     <g id="text_2">
      <!-- −0.75 -->
      <g transform="translate(99.091888 322.182437) scale(0.1 -0.1)">
       <defs>
        <path id="DejaVuSans-37" d="M 525 4666 
L 3525 4666 
L 3525 4397 
L 1831 0 
L 1172 0 
L 2766 4134 
L 525 4134 
L 525 4666 
z
" transform="scale(0.015625)"/>
        <path id="DejaVuSans-35" d="M 691 4666 
L 3169 4666 
L 3169 4134 
L 1269 4134 
L 1269 2991 
Q 1406 3038 1543 3061 
Q 1681 3084 1819 3084 
Q 2600 3084 3056 2656 
Q 3513 2228 3513 1497 
Q 3513 744 3044 326 
Q 2575 -91 1722 -91 
Q 1428 -91 1123 -41 
Q 819 9 494 109 
L 494 744 
Q 775 591 1075 516 
Q 1375 441 1709 441 
Q 2250 441 2565 725 
Q 2881 1009 2881 1497 
Q 2881 1984 2565 2268 
Q 2250 2553 1709 2553 
Q 1456 2553 1204 2497 
Q 953 2441 691 2322 
L 691 4666 
z
" transform="scale(0.015625)"/>
       </defs>
       <use xlink:href="#DejaVuSans-2212"/>
       <use xlink:href="#DejaVuSans-30" x="83.789062"/>
       <use xlink:href="#DejaVuSans-2e" x="147.412109"/>
       <use xlink:href="#DejaVuSans-37" x="179.199219"/>
       <use xlink:href="#DejaVuSans-35" x="242.822266"/>
      </g>
     </g>
    </g>
    <g id="xtick_3">
     <g id="line2d_3">
      <g>
       <use xlink:href="#m20740fc61f" x="154.996363" y="307.584" style="stroke: #000000; stroke-width: 0.8"/>
      </g>
     </g>
     <g id="text_3">
      <!-- −0.50 -->
      <g transform="translate(139.673706 322.182437) scale(0.1 -0.1)">
       <use xlink:href="#DejaVuSans-2212"/>
       <use xlink:href="#DejaVuSans-30" x="83.789062"/>
       <use xlink:href="#DejaVuSans-2e" x="147.412109"/>
       <use xlink:href="#DejaVuSans-35" x="179.199219"/>
       <use xlink:href="#DejaVuSans-30" x="242.822266"/>
      </g>
     </g>
    </g>
    <g id="xtick_4">
     <g id="line2d_4">
      <g>
       <use xlink:href="#m20740fc61f" x="195.578181" y="307.584" style="stroke: #000000; stroke-width: 0.8"/>
      </g>
     </g>
     <g id="text_4">
      <!-- −0.25 -->
      <g transform="translate(180.255525 322.182437) scale(0.1 -0.1)">
       <defs>
        <path id="DejaVuSans-32" d="M 1228 531 
L 3431 531 
L 3431 0 
L 469 0 
L 469 531 
Q 828 903 1448 1529 
Q 2069 2156 2228 2338 
Q 2531 2678 2651 2914 
Q 2772 3150 2772 3378 
Q 2772 3750 2511 3984 
Q 2250 4219 1831 4219 
Q 1534 4219 1204 4116 
Q 875 4013 500 3803 
L 500 4441 
Q 881 4594 1212 4672 
Q 1544 4750 1819 4750 
Q 2544 4750 2975 4387 
Q 3406 4025 3406 3419 
Q 3406 3131 3298 2873 
Q 3191 2616 2906 2266 
Q 2828 2175 2409 1742 
Q 1991 1309 1228 531 
z
" transform="scale(0.015625)"/>
       </defs>
       <use xlink:href="#DejaVuSans-2212"/>
       <use xlink:href="#DejaVuSans-30" x="83.789062"/>
       <use xlink:href="#DejaVuSans-2e" x="147.412109"/>
       <use xlink:href="#DejaVuSans-32" x="179.199219"/>
       <use xlink:href="#DejaVuSans-35" x="242.822266"/>
      </g>
     </g>
    </g>
    <g id="xtick_5">
     <g id="line2d_5">
      <g>
       <use xlink:href="#m20740fc61f" x="236.16" y="307.584" style="stroke: #000000; stroke-width: 0.8"/>
      </g>
     </g>
     <g id="text_5">
      <!-- 0.00 -->
      <g transform="translate(225.027187 322.182437) scale(0.1 -0.1)">
       <use xlink:href="#DejaVuSans-30"/>
       <use xlink:href="#DejaVuSans-2e" x="63.623047"/>
       <use xlink:href="#DejaVuSans-30" x="95.410156"/>
       <use xlink:href="#DejaVuSans-30" x="159.033203"/>
      </g>
     </g>
    </g>
    <g id="xtick_6">
     <g id="line2d_6">
      <g>
       <use xlink:href="#m20740fc61f" x="276.741819" y="307.584" style="stroke: #000000; stroke-width: 0.8"/>
      </g>
     </g>
     <g id="text_6">
      <!-- 0.25 -->
      <g transform="translate(265.609006 322.182437) scale(0.1 -0.1)">
       <use xlink:href="#DejaVuSans-30"/>
       <use xlink:href="#DejaVuSans-2e" x="63.623047"/>
       <use xlink:href="#DejaVuSans-32" x="95.410156"/>
       <use xlink:href="#DejaVuSans-35" x="159.033203"/>
      </g>
     </g>
    </g>
    <g id="xtick_7">
     <g id="line2d_7">
      <g>
       <use xlink:href="#m20740fc61f" x="317.323637" y="307.584" style="stroke: #000000; stroke-width: 0.8"/>
      </g>
     </g>
     <g id="text_7">
      <!-- 0.50 -->
      <g transform="translate(306.190825 322.182437) scale(0.1 -0.1)">
       <use xlink:href="#DejaVuSans-30"/>
       <use xlink:href="#DejaVuSans-2e" x="63.623047"/>
       <use xlink:href="#DejaVuSans-35" x="95.410156"/>
       <use xlink:href="#DejaVuSans-30" x="159.033203"/>
      </g>
     </g>
    </g>
    <g id="xtick_8">
     <g id="line2d_8">
      <g>
       <use xlink:href="#m20740fc61f" x="357.905456" y="307.584" style="stroke: #000000; stroke-width: 0.8"/>
      </g>
     </g>
     <g id="text_8">
      <!-- 0.75 -->
      <g transform="translate(346.772644 322.182437) scale(0.1 -0.1)">
       <use xlink:href="#DejaVuSans-30"/>
       <use xlink:href="#DejaVuSans-2e" x="63.623047"/>
       <use xlink:href="#DejaVuSans-37" x="95.410156"/>
       <use xlink:href="#DejaVuSans-35" x="159.033203"/>
      </g>
     </g>
    </g>
    <g id="xtick_9">
     <g id="line2d_9">
      <g>
       <use xlink:href="#m20740fc61f" x="398.487275" y="307.584" style="stroke: #000000; stroke-width: 0.8"/>
      </g>
     </g>
     <g id="text_9">
      <!-- 1.00 -->
      <g transform="translate(387.354462 322.182437) scale(0.1 -0.1)">
       <use xlink:href="#DejaVuSans-31"/>
       <use xlink:href="#DejaVuSans-2e" x="63.623047"/>
       <use xlink:href="#DejaVuSans-30" x="95.410156"/>
       <use xlink:href="#DejaVuSans-30" x="159.033203"/>
      </g>
     </g>
    </g>
    <g id="text_10">
     <!-- Partea Reala -->
     <g transform="translate(204.717812 335.860562) scale(0.1 -0.1)">
      <defs>
       <path id="DejaVuSans-50" d="M 1259 4147 
L 1259 2394 
L 2053 2394 
Q 2494 2394 2734 2622 
Q 2975 2850 2975 3272 
Q 2975 3691 2734 3919 
Q 2494 4147 2053 4147 
L 1259 4147 
z
M 628 4666 
L 2053 4666 
Q 2838 4666 3239 4311 
Q 3641 3956 3641 3272 
Q 3641 2581 3239 2228 
Q 2838 1875 2053 1875 
L 1259 1875 
L 1259 0 
L 628 0 
L 628 4666 
z
" transform="scale(0.015625)"/>
       <path id="DejaVuSans-61" d="M 2194 1759 
Q 1497 1759 1228 1600 
Q 959 1441 959 1056 
Q 959 750 1161 570 
Q 1363 391 1709 391 
Q 2188 391 2477 730 
Q 2766 1069 2766 1631 
L 2766 1759 
L 2194 1759 
z
M 3341 1997 
L 3341 0 
L 2766 0 
L 2766 531 
Q 2569 213 2275 61 
Q 1981 -91 1556 -91 
Q 1019 -91 701 211 
Q 384 513 384 1019 
Q 384 1609 779 1909 
Q 1175 2209 1959 2209 
L 2766 2209 
L 2766 2266 
Q 2766 2663 2505 2880 
Q 2244 3097 1772 3097 
Q 1472 3097 1187 3025 
Q 903 2953 641 2809 
L 641 3341 
Q 956 3463 1253 3523 
Q 1550 3584 1831 3584 
Q 2591 3584 2966 3190 
Q 3341 2797 3341 1997 
z
" transform="scale(0.015625)"/>
       <path id="DejaVuSans-72" d="M 2631 2963 
Q 2534 3019 2420 3045 
Q 2306 3072 2169 3072 
Q 1681 3072 1420 2755 
Q 1159 2438 1159 1844 
L 1159 0 
L 581 0 
L 581 3500 
L 1159 3500 
L 1159 2956 
Q 1341 3275 1631 3429 
Q 1922 3584 2338 3584 
Q 2397 3584 2469 3576 
Q 2541 3569 2628 3553 
L 2631 2963 
z
" transform="scale(0.015625)"/>
       <path id="DejaVuSans-74" d="M 1172 4494 
L 1172 3500 
L 2356 3500 
L 2356 3053 
L 1172 3053 
L 1172 1153 
Q 1172 725 1289 603 
Q 1406 481 1766 481 
L 2356 481 
L 2356 0 
L 1766 0 
Q 1100 0 847 248 
Q 594 497 594 1153 
L 594 3053 
L 172 3053 
L 172 3500 
L 594 3500 
L 594 4494 
L 1172 4494 
z
" transform="scale(0.015625)"/>
       <path id="DejaVuSans-65" d="M 3597 1894 
L 3597 1613 
L 953 1613 
Q 991 1019 1311 708 
Q 1631 397 2203 397 
Q 2534 397 2845 478 
Q 3156 559 3463 722 
L 3463 178 
Q 3153 47 2828 -22 
Q 2503 -91 2169 -91 
Q 1331 -91 842 396 
Q 353 884 353 1716 
Q 353 2575 817 3079 
Q 1281 3584 2069 3584 
Q 2775 3584 3186 3129 
Q 3597 2675 3597 1894 
z
M 3022 2063 
Q 3016 2534 2758 2815 
Q 2500 3097 2075 3097 
Q 1594 3097 1305 2825 
Q 1016 2553 972 2059 
L 3022 2063 
z
" transform="scale(0.015625)"/>
       <path id="DejaVuSans-20" transform="scale(0.015625)"/>
       <path id="DejaVuSans-52" d="M 2841 2188 
Q 3044 2119 3236 1894 
Q 3428 1669 3622 1275 
L 4263 0 
L 3584 0 
L 2988 1197 
Q 2756 1666 2539 1819 
Q 2322 1972 1947 1972 
L 1259 1972 
L 1259 0 
L 628 0 
L 628 4666 
L 2053 4666 
Q 2853 4666 3247 4331 
Q 3641 3997 3641 3322 
Q 3641 2881 3436 2590 
Q 3231 2300 2841 2188 
z
M 1259 4147 
L 1259 2491 
L 2053 2491 
Q 2509 2491 2742 2702 
Q 2975 2913 2975 3322 
Q 2975 3731 2742 3939 
Q 2509 4147 2053 4147 
L 1259 4147 
z
" transform="scale(0.015625)"/>
       <path id="DejaVuSans-6c" d="M 603 4863 
L 1178 4863 
L 1178 0 
L 603 0 
L 603 4863 
z
" transform="scale(0.015625)"/>
      </defs>
      <use xlink:href="#DejaVuSans-50"/>
      <use xlink:href="#DejaVuSans-61" x="55.802734"/>
      <use xlink:href="#DejaVuSans-72" x="117.082031"/>
      <use xlink:href="#DejaVuSans-74" x="158.195312"/>
      <use xlink:href="#DejaVuSans-65" x="197.404297"/>
      <use xlink:href="#DejaVuSans-61" x="258.927734"/>
      <use xlink:href="#DejaVuSans-20" x="320.207031"/>
      <use xlink:href="#DejaVuSans-52" x="351.994141"/>
      <use xlink:href="#DejaVuSans-65" x="416.976562"/>
      <use xlink:href="#DejaVuSans-61" x="478.5"/>
      <use xlink:href="#DejaVuSans-6c" x="539.779297"/>
      <use xlink:href="#DejaVuSans-61" x="567.5625"/>
     </g>
    </g>
   </g>
   <g id="matplotlib.axis_2">
    <g id="ytick_1">
     <g id="line2d_10">
      <defs>
       <path id="m5a75c4b843" d="M 0 0 
L -3.5 0 
" style="stroke: #000000; stroke-width: 0.8"/>
      </defs>
      <g>
       <use xlink:href="#m5a75c4b843" x="57.6" y="286.307517" style="stroke: #000000; stroke-width: 0.8"/>
      </g>
     </g>
     <g id="text_11">
      <!-- −1.0 -->
      <g transform="translate(26.317187 290.106736) scale(0.1 -0.1)">
       <use xlink:href="#DejaVuSans-2212"/>
       <use xlink:href="#DejaVuSans-31" x="83.789062"/>
       <use xlink:href="#DejaVuSans-2e" x="147.412109"/>
       <use xlink:href="#DejaVuSans-30" x="179.199219"/>
      </g>
     </g>
    </g>
    <g id="ytick_2">
     <g id="line2d_11">
      <g>
       <use xlink:href="#m5a75c4b843" x="57.6" y="230.417759" style="stroke: #000000; stroke-width: 0.8"/>
      </g>
     </g>
     <g id="text_12">
      <!-- −0.5 -->
      <g transform="translate(26.317187 234.216977) scale(0.1 -0.1)">
       <use xlink:href="#DejaVuSans-2212"/>
       <use xlink:href="#DejaVuSans-30" x="83.789062"/>
       <use xlink:href="#DejaVuSans-2e" x="147.412109"/>
       <use xlink:href="#DejaVuSans-35" x="179.199219"/>
      </g>
     </g>
    </g>
    <g id="ytick_3">
     <g id="line2d_12">
      <g>
       <use xlink:href="#m5a75c4b843" x="57.6" y="174.528" style="stroke: #000000; stroke-width: 0.8"/>
      </g>
     </g>
     <g id="text_13">
      <!-- 0.0 -->
      <g transform="translate(34.696875 178.327219) scale(0.1 -0.1)">
       <use xlink:href="#DejaVuSans-30"/>
       <use xlink:href="#DejaVuSans-2e" x="63.623047"/>
       <use xlink:href="#DejaVuSans-30" x="95.410156"/>
      </g>
     </g>
    </g>
    <g id="ytick_4">
     <g id="line2d_13">
      <g>
       <use xlink:href="#m5a75c4b843" x="57.6" y="118.638241" style="stroke: #000000; stroke-width: 0.8"/>
      </g>
     </g>
     <g id="text_14">
      <!-- 0.5 -->
      <g transform="translate(34.696875 122.43746) scale(0.1 -0.1)">
       <use xlink:href="#DejaVuSans-30"/>
       <use xlink:href="#DejaVuSans-2e" x="63.623047"/>
       <use xlink:href="#DejaVuSans-35" x="95.410156"/>
      </g>
     </g>
    </g>
    <g id="ytick_5">
     <g id="line2d_14">
      <g>
       <use xlink:href="#m5a75c4b843" x="57.6" y="62.748483" style="stroke: #000000; stroke-width: 0.8"/>
      </g>
     </g>
     <g id="text_15">
      <!-- 1.0 -->
      <g transform="translate(34.696875 66.547702) scale(0.1 -0.1)">
       <use xlink:href="#DejaVuSans-31"/>
       <use xlink:href="#DejaVuSans-2e" x="63.623047"/>
       <use xlink:href="#DejaVuSans-30" x="95.410156"/>
      </g>
     </g>
    </g>
    <g id="text_16">
     <!-- Partea Imaginara -->
     <g transform="translate(20.2375 217.452219) rotate(-90) scale(0.1 -0.1)">
      <defs>
       <path id="DejaVuSans-49" d="M 628 4666 
L 1259 4666 
L 1259 0 
L 628 0 
L 628 4666 
z
" transform="scale(0.015625)"/>
       <path id="DejaVuSans-6d" d="M 3328 2828 
Q 3544 3216 3844 3400 
Q 4144 3584 4550 3584 
Q 5097 3584 5394 3201 
Q 5691 2819 5691 2113 
L 5691 0 
L 5113 0 
L 5113 2094 
Q 5113 2597 4934 2840 
Q 4756 3084 4391 3084 
Q 3944 3084 3684 2787 
Q 3425 2491 3425 1978 
L 3425 0 
L 2847 0 
L 2847 2094 
Q 2847 2600 2669 2842 
Q 2491 3084 2119 3084 
Q 1678 3084 1418 2786 
Q 1159 2488 1159 1978 
L 1159 0 
L 581 0 
L 581 3500 
L 1159 3500 
L 1159 2956 
Q 1356 3278 1631 3431 
Q 1906 3584 2284 3584 
Q 2666 3584 2933 3390 
Q 3200 3197 3328 2828 
z
" transform="scale(0.015625)"/>
       <path id="DejaVuSans-67" d="M 2906 1791 
Q 2906 2416 2648 2759 
Q 2391 3103 1925 3103 
Q 1463 3103 1205 2759 
Q 947 2416 947 1791 
Q 947 1169 1205 825 
Q 1463 481 1925 481 
Q 2391 481 2648 825 
Q 2906 1169 2906 1791 
z
M 3481 434 
Q 3481 -459 3084 -895 
Q 2688 -1331 1869 -1331 
Q 1566 -1331 1297 -1286 
Q 1028 -1241 775 -1147 
L 775 -588 
Q 1028 -725 1275 -790 
Q 1522 -856 1778 -856 
Q 2344 -856 2625 -561 
Q 2906 -266 2906 331 
L 2906 616 
Q 2728 306 2450 153 
Q 2172 0 1784 0 
Q 1141 0 747 490 
Q 353 981 353 1791 
Q 353 2603 747 3093 
Q 1141 3584 1784 3584 
Q 2172 3584 2450 3431 
Q 2728 3278 2906 2969 
L 2906 3500 
L 3481 3500 
L 3481 434 
z
" transform="scale(0.015625)"/>
       <path id="DejaVuSans-69" d="M 603 3500 
L 1178 3500 
L 1178 0 
L 603 0 
L 603 3500 
z
M 603 4863 
L 1178 4863 
L 1178 4134 
L 603 4134 
L 603 4863 
z
" transform="scale(0.015625)"/>
       <path id="DejaVuSans-6e" d="M 3513 2113 
L 3513 0 
L 2938 0 
L 2938 2094 
Q 2938 2591 2744 2837 
Q 2550 3084 2163 3084 
Q 1697 3084 1428 2787 
Q 1159 2491 1159 1978 
L 1159 0 
L 581 0 
L 581 3500 
L 1159 3500 
L 1159 2956 
Q 1366 3272 1645 3428 
Q 1925 3584 2291 3584 
Q 2894 3584 3203 3211 
Q 3513 2838 3513 2113 
z
" transform="scale(0.015625)"/>
      </defs>
      <use xlink:href="#DejaVuSans-50"/>
      <use xlink:href="#DejaVuSans-61" x="55.802734"/>
      <use xlink:href="#DejaVuSans-72" x="117.082031"/>
      <use xlink:href="#DejaVuSans-74" x="158.195312"/>
      <use xlink:href="#DejaVuSans-65" x="197.404297"/>
      <use xlink:href="#DejaVuSans-61" x="258.927734"/>
      <use xlink:href="#DejaVuSans-20" x="320.207031"/>
      <use xlink:href="#DejaVuSans-49" x="351.994141"/>
      <use xlink:href="#DejaVuSans-6d" x="381.486328"/>
      <use xlink:href="#DejaVuSans-61" x="478.898438"/>
      <use xlink:href="#DejaVuSans-67" x="540.177734"/>
      <use xlink:href="#DejaVuSans-69" x="603.654297"/>
      <use xlink:href="#DejaVuSans-6e" x="631.4375"/>
      <use xlink:href="#DejaVuSans-61" x="694.816406"/>
      <use xlink:href="#DejaVuSans-72" x="756.095703"/>
      <use xlink:href="#DejaVuSans-61" x="797.208984"/>
     </g>
    </g>
   </g>
   <g id="line2d_15">
    <path d="M 236.16 62.748483 
L 243.399842 62.859713 
L 250.625274 63.193183 
L 257.821919 63.748229 
L 264.975453 64.523745 
L 272.071638 65.51819 
L 279.096354 66.729583 
L 285.938539 68.133953 
L 292.684427 69.744144 
L 299.320967 71.557042 
L 305.835321 73.569139 
L 312.124758 75.743652 
L 318.271407 78.103845 
L 324.178027 80.607177 
L 329.923963 83.281969 
L 335.498727 86.123336 
L 340.814188 89.08079 
L 345.944172 92.189681 
L 350.807398 95.394874 
L 355.473457 98.736158 
L 359.868303 102.154244 
L 364.056796 105.693054 
L 367.972442 109.289636 
L 371.674929 112.991717 
L 375.105556 116.733177 
L 378.318454 120.565203 
L 381.262891 124.418991 
L 383.987111 128.348828 
L 386.44846 132.28371 
L 388.689019 136.280653 
L 390.705496 140.333786 
L 392.46744 144.369512 
L 394.007218 148.448104 
L 395.322641 152.563764 
L 396.411841 156.710643 
L 397.260785 160.813134 
L 397.888318 164.934474 
L 398.293578 169.068999 
L 398.476008 173.211027 
L 398.435357 177.354865 
L 398.171681 181.494818 
L 397.685343 185.625196 
L 396.97701 189.740322 
L 396.047657 193.834541 
L 394.89856 197.902226 
L 393.506256 202.005877 
L 391.890309 206.070472 
L 390.053017 210.090234 
L 387.99699 214.059451 
L 385.685478 218.037189 
L 383.154296 221.951008 
L 380.360353 225.857564 
L 377.347562 229.686219 
L 374.066717 233.490848 
L 370.569772 237.203081 
L 366.862205 240.817102 
L 362.886107 244.382096 
L 358.705076 247.834127 
L 354.255911 251.218727 
L 349.609755 254.475402 
L 344.698531 257.645701 
L 339.600644 260.673057 
L 334.243605 263.594721 
L 328.712734 266.358534 
L 322.931644 268.997164 
L 316.992146 271.463333 
L 310.814523 273.784863 
L 304.496575 275.919825 
L 298.050179 277.864206 
L 291.391544 279.638271 
L 284.626062 281.208999 
L 277.766823 282.57335 
L 270.827094 283.728686 
L 263.719784 284.684718 
L 256.557625 285.421519 
L 249.354871 285.937622 
L 242.125857 286.232001 
L 234.88497 286.304069 
L 227.646621 286.153683 
L 220.425214 285.781143 
L 213.235123 285.187189 
L 206.090656 284.373005 
L 199.006033 283.340209 
L 192.093516 282.109947 
L 185.266247 280.671567 
L 178.537433 279.027849 
L 171.920091 277.181975 
L 165.518846 275.168102 
L 159.250382 272.96506 
L 153.126481 270.576992 
L 147.243976 268.046878 
L 141.523793 265.346039 
L 135.976376 262.479405 
L 130.689368 259.497865 
L 125.589284 256.365734 
L 120.756874 253.138515 
L 116.122932 249.776104 
L 111.760932 246.338125 
L 107.606438 242.780363 
L 103.725338 239.166069 
L 100.058404 235.447246 
L 96.663701 231.69028 
L 93.48759 227.843741 
L 90.580142 223.976659 
L 87.893635 220.034531 
L 85.470043 216.088551 
L 83.26783 212.081515 
L 81.290232 208.019309 
L 79.566995 203.975666 
L 78.06633 199.890167 
L 76.79037 195.76862 
L 75.756554 191.686294 
L 74.94319 187.580386 
L 74.351397 183.456539 
L 73.981986 179.320422 
L 73.835467 175.177718 
L 73.912041 171.034121 
L 74.211602 166.895326 
L 74.733738 162.767021 
L 75.477732 158.654879 
L 76.442562 154.564554 
L 77.626902 150.501665 
L 79.054756 146.403811 
L 80.70591 142.345931 
L 82.578018 138.333792 
L 84.70509 134.307554 
L 87.054665 130.340405 
L 89.623292 126.438171 
L 92.454606 122.544394 
L 95.504016 118.729511 
L 98.821244 114.939872 
L 102.353683 111.243607 
L 106.156854 107.590243 
L 110.17026 104.045127 
L 114.454882 100.561315 
L 118.942516 97.200884 
L 123.699212 93.920761 
L 128.649315 90.779264 
L 133.784313 87.781797 
L 139.177152 84.891531 
L 144.741871 82.160125 
L 150.555259 79.555361 
L 156.524924 77.123976 
L 162.730925 74.838616 
L 169.074946 72.740637 
L 175.545064 70.833982 
L 182.225314 69.098877 
L 189.009902 67.567726 
L 195.885703 66.243492 
L 202.839415 65.128737 
L 209.958246 64.214256 
L 217.129224 63.519319 
L 224.338077 63.045309 
L 231.570457 62.793169 
L 236.16 62.748483 
L 236.16 62.748483 
" clip-path="url(#p248a72c980)" style="fill: none; stroke: #1f77b4; stroke-width: 1.5; stroke-linecap: square"/>
   </g>
   <g id="line2d_16">
    <defs>
     <path id="m42d6bcd8a3" d="M 0 1.5 
C 0.397805 1.5 0.77937 1.341951 1.06066 1.06066 
C 1.341951 0.77937 1.5 0.397805 1.5 0 
C 1.5 -0.397805 1.341951 -0.77937 1.06066 -1.06066 
C 0.77937 -1.341951 0.397805 -1.5 0 -1.5 
C -0.397805 -1.5 -0.77937 -1.341951 -1.06066 -1.06066 
C -1.341951 -0.77937 -1.5 -0.397805 -1.5 0 
C -1.5 0.397805 -1.341951 0.77937 -1.06066 1.06066 
C -0.77937 1.341951 -0.397805 1.5 0 1.5 
z
" style="stroke: #ff7f0e"/>
    </defs>
    <g clip-path="url(#p248a72c980)">
     <use xlink:href="#m42d6bcd8a3" x="74.711235" y="174.528" style="fill: #ff7f0e; stroke: #ff7f0e"/>
     <use xlink:href="#m42d6bcd8a3" x="75.194149" y="166.609492" style="fill: #ff7f0e; stroke: #ff7f0e"/>
     <use xlink:href="#m42d6bcd8a3" x="75.194149" y="182.446508" style="fill: #ff7f0e; stroke: #ff7f0e"/>
     <use xlink:href="#m42d6bcd8a3" x="76.74394" y="157.394259" style="fill: #ff7f0e; stroke: #ff7f0e"/>
     <use xlink:href="#m42d6bcd8a3" x="76.74394" y="191.661741" style="fill: #ff7f0e; stroke: #ff7f0e"/>
     <use xlink:href="#m42d6bcd8a3" x="78.981331" y="148.380947" style="fill: #ff7f0e; stroke: #ff7f0e"/>
     <use xlink:href="#m42d6bcd8a3" x="78.981331" y="200.675053" style="fill: #ff7f0e; stroke: #ff7f0e"/>
     <use xlink:href="#m42d6bcd8a3" x="79.46335" y="132.999995" style="fill: #ff7f0e; stroke: #ff7f0e"/>
     <use xlink:href="#m42d6bcd8a3" x="79.46335" y="216.056005" style="fill: #ff7f0e; stroke: #ff7f0e"/>
     <use xlink:href="#m42d6bcd8a3" x="93.800281" y="118.174703" style="fill: #ff7f0e; stroke: #ff7f0e"/>
     <use xlink:href="#m42d6bcd8a3" x="93.800281" y="230.881297" style="fill: #ff7f0e; stroke: #ff7f0e"/>
     <use xlink:href="#m42d6bcd8a3" x="112.339647" y="103.363471" style="fill: #ff7f0e; stroke: #ff7f0e"/>
     <use xlink:href="#m42d6bcd8a3" x="112.339647" y="245.692529" style="fill: #ff7f0e; stroke: #ff7f0e"/>
     <use xlink:href="#m42d6bcd8a3" x="105.257981" y="110.239006" style="fill: #ff7f0e; stroke: #ff7f0e"/>
     <use xlink:href="#m42d6bcd8a3" x="105.257981" y="238.816994" style="fill: #ff7f0e; stroke: #ff7f0e"/>
     <use xlink:href="#m42d6bcd8a3" x="90.704101" y="123.646804" style="fill: #ff7f0e; stroke: #ff7f0e"/>
     <use xlink:href="#m42d6bcd8a3" x="90.704101" y="225.409196" style="fill: #ff7f0e; stroke: #ff7f0e"/>
     <use xlink:href="#m42d6bcd8a3" x="120.517197" y="96.89199" style="fill: #ff7f0e; stroke: #ff7f0e"/>
     <use xlink:href="#m42d6bcd8a3" x="120.517197" y="252.16401" style="fill: #ff7f0e; stroke: #ff7f0e"/>
     <use xlink:href="#m42d6bcd8a3" x="129.372507" y="91.330693" style="fill: #ff7f0e; stroke: #ff7f0e"/>
     <use xlink:href="#m42d6bcd8a3" x="129.372507" y="257.725307" style="fill: #ff7f0e; stroke: #ff7f0e"/>
     <use xlink:href="#m42d6bcd8a3" x="138.884333" y="85.099062" style="fill: #ff7f0e; stroke: #ff7f0e"/>
     <use xlink:href="#m42d6bcd8a3" x="138.884333" y="263.956938" style="fill: #ff7f0e; stroke: #ff7f0e"/>
     <use xlink:href="#m42d6bcd8a3" x="149.757562" y="80.350634" style="fill: #ff7f0e; stroke: #ff7f0e"/>
     <use xlink:href="#m42d6bcd8a3" x="149.757562" y="268.705366" style="fill: #ff7f0e; stroke: #ff7f0e"/>
     <use xlink:href="#m42d6bcd8a3" x="161.302333" y="74.800863" style="fill: #ff7f0e; stroke: #ff7f0e"/>
     <use xlink:href="#m42d6bcd8a3" x="161.302333" y="274.255137" style="fill: #ff7f0e; stroke: #ff7f0e"/>
     <use xlink:href="#m42d6bcd8a3" x="397.047337" y="170.286441" style="fill: #ff7f0e; stroke: #ff7f0e"/>
     <use xlink:href="#m42d6bcd8a3" x="397.047337" y="178.769559" style="fill: #ff7f0e; stroke: #ff7f0e"/>
     <use xlink:href="#m42d6bcd8a3" x="396.302708" y="160.16599" style="fill: #ff7f0e; stroke: #ff7f0e"/>
     <use xlink:href="#m42d6bcd8a3" x="396.302708" y="188.89001" style="fill: #ff7f0e; stroke: #ff7f0e"/>
     <use xlink:href="#m42d6bcd8a3" x="183.444725" y="68.396455" style="fill: #ff7f0e; stroke: #ff7f0e"/>
     <use xlink:href="#m42d6bcd8a3" x="183.444725" y="280.659545" style="fill: #ff7f0e; stroke: #ff7f0e"/>
     <use xlink:href="#m42d6bcd8a3" x="393.109664" y="152.824295" style="fill: #ff7f0e; stroke: #ff7f0e"/>
     <use xlink:href="#m42d6bcd8a3" x="393.109664" y="196.231705" style="fill: #ff7f0e; stroke: #ff7f0e"/>
     <use xlink:href="#m42d6bcd8a3" x="194.436579" y="66.246675" style="fill: #ff7f0e; stroke: #ff7f0e"/>
     <use xlink:href="#m42d6bcd8a3" x="194.436579" y="282.809325" style="fill: #ff7f0e; stroke: #ff7f0e"/>
     <use xlink:href="#m42d6bcd8a3" x="391.800028" y="145.053767" style="fill: #ff7f0e; stroke: #ff7f0e"/>
     <use xlink:href="#m42d6bcd8a3" x="391.800028" y="204.002233" style="fill: #ff7f0e; stroke: #ff7f0e"/>
     <use xlink:href="#m42d6bcd8a3" x="208.653184" y="64.703754" style="fill: #ff7f0e; stroke: #ff7f0e"/>
     <use xlink:href="#m42d6bcd8a3" x="208.653184" y="284.352246" style="fill: #ff7f0e; stroke: #ff7f0e"/>
     <use xlink:href="#m42d6bcd8a3" x="386.415605" y="136.008765" style="fill: #ff7f0e; stroke: #ff7f0e"/>
     <use xlink:href="#m42d6bcd8a3" x="386.415605" y="213.047235" style="fill: #ff7f0e; stroke: #ff7f0e"/>
     <use xlink:href="#m42d6bcd8a3" x="220.255503" y="63.111779" style="fill: #ff7f0e; stroke: #ff7f0e"/>
     <use xlink:href="#m42d6bcd8a3" x="220.255503" y="285.944221" style="fill: #ff7f0e; stroke: #ff7f0e"/>
     <use xlink:href="#m42d6bcd8a3" x="383.905806" y="126.816688" style="fill: #ff7f0e; stroke: #ff7f0e"/>
     <use xlink:href="#m42d6bcd8a3" x="383.905806" y="222.239312" style="fill: #ff7f0e; stroke: #ff7f0e"/>
     <use xlink:href="#m42d6bcd8a3" x="233.374882" y="63.315955" style="fill: #ff7f0e; stroke: #ff7f0e"/>
     <use xlink:href="#m42d6bcd8a3" x="233.374882" y="285.740045" style="fill: #ff7f0e; stroke: #ff7f0e"/>
     <use xlink:href="#m42d6bcd8a3" x="378.648825" y="118.219995" style="fill: #ff7f0e; stroke: #ff7f0e"/>
     <use xlink:href="#m42d6bcd8a3" x="378.648825" y="230.836005" style="fill: #ff7f0e; stroke: #ff7f0e"/>
     <use xlink:href="#m42d6bcd8a3" x="246.589256" y="60.685176" style="fill: #ff7f0e; stroke: #ff7f0e"/>
     <use xlink:href="#m42d6bcd8a3" x="246.589256" y="288.370824" style="fill: #ff7f0e; stroke: #ff7f0e"/>
     <use xlink:href="#m42d6bcd8a3" x="288.207844" y="53.568" style="fill: #ff7f0e; stroke: #ff7f0e"/>
     <use xlink:href="#m42d6bcd8a3" x="288.207844" y="295.488" style="fill: #ff7f0e; stroke: #ff7f0e"/>
     <use xlink:href="#m42d6bcd8a3" x="372.104145" y="106.873734" style="fill: #ff7f0e; stroke: #ff7f0e"/>
     <use xlink:href="#m42d6bcd8a3" x="372.104145" y="242.182266" style="fill: #ff7f0e; stroke: #ff7f0e"/>
     <use xlink:href="#m42d6bcd8a3" x="342.430731" y="86.730834" style="fill: #ff7f0e; stroke: #ff7f0e"/>
     <use xlink:href="#m42d6bcd8a3" x="342.430731" y="262.325166" style="fill: #ff7f0e; stroke: #ff7f0e"/>
     <use xlink:href="#m42d6bcd8a3" x="328.678222" y="83.194735" style="fill: #ff7f0e; stroke: #ff7f0e"/>
     <use xlink:href="#m42d6bcd8a3" x="328.678222" y="265.861265" style="fill: #ff7f0e; stroke: #ff7f0e"/>
     <use xlink:href="#m42d6bcd8a3" x="261.837894" y="63.416142" style="fill: #ff7f0e; stroke: #ff7f0e"/>
     <use xlink:href="#m42d6bcd8a3" x="261.837894" y="285.639858" style="fill: #ff7f0e; stroke: #ff7f0e"/>
     <use xlink:href="#m42d6bcd8a3" x="316.104381" y="78.087274" style="fill: #ff7f0e; stroke: #ff7f0e"/>
     <use xlink:href="#m42d6bcd8a3" x="316.104381" y="270.968726" style="fill: #ff7f0e; stroke: #ff7f0e"/>
     <use xlink:href="#m42d6bcd8a3" x="349.761988" y="95.893273" style="fill: #ff7f0e; stroke: #ff7f0e"/>
     <use xlink:href="#m42d6bcd8a3" x="349.761988" y="253.162727" style="fill: #ff7f0e; stroke: #ff7f0e"/>
     <use xlink:href="#m42d6bcd8a3" x="358.316954" y="98.831718" style="fill: #ff7f0e; stroke: #ff7f0e"/>
     <use xlink:href="#m42d6bcd8a3" x="358.316954" y="250.224282" style="fill: #ff7f0e; stroke: #ff7f0e"/>
     <use xlink:href="#m42d6bcd8a3" x="305.508695" y="74.028112" style="fill: #ff7f0e; stroke: #ff7f0e"/>
     <use xlink:href="#m42d6bcd8a3" x="305.508695" y="275.027888" style="fill: #ff7f0e; stroke: #ff7f0e"/>
     <use xlink:href="#m42d6bcd8a3" x="172.507505" y="73.023693" style="fill: #ff7f0e; stroke: #ff7f0e"/>
     <use xlink:href="#m42d6bcd8a3" x="172.507505" y="276.032307" style="fill: #ff7f0e; stroke: #ff7f0e"/>
     <use xlink:href="#m42d6bcd8a3" x="357.984651" y="107.12146" style="fill: #ff7f0e; stroke: #ff7f0e"/>
     <use xlink:href="#m42d6bcd8a3" x="357.984651" y="241.93454" style="fill: #ff7f0e; stroke: #ff7f0e"/>
     <use xlink:href="#m42d6bcd8a3" x="86.331793" y="138.973557" style="fill: #ff7f0e; stroke: #ff7f0e"/>
     <use xlink:href="#m42d6bcd8a3" x="86.331793" y="210.082443" style="fill: #ff7f0e; stroke: #ff7f0e"/>
     <use xlink:href="#m42d6bcd8a3" x="279.494615" y="75.804304" style="fill: #ff7f0e; stroke: #ff7f0e"/>
     <use xlink:href="#m42d6bcd8a3" x="279.494615" y="273.251696" style="fill: #ff7f0e; stroke: #ff7f0e"/>
     <use xlink:href="#m42d6bcd8a3" x="293.395775" y="71.690604" style="fill: #ff7f0e; stroke: #ff7f0e"/>
     <use xlink:href="#m42d6bcd8a3" x="293.395775" y="277.365396" style="fill: #ff7f0e; stroke: #ff7f0e"/>
    </g>
   </g>
   <g id="patch_3">
    <path d="M 57.6 307.584 
L 57.6 41.472 
" style="fill: none; stroke: #000000; stroke-width: 0.8; stroke-linejoin: miter; stroke-linecap: square"/>
   </g>
   <g id="patch_4">
    <path d="M 414.72 307.584 
L 414.72 41.472 
" style="fill: none; stroke: #000000; stroke-width: 0.8; stroke-linejoin: miter; stroke-linecap: square"/>
   </g>
   <g id="patch_5">
    <path d="M 57.6 307.584 
L 414.72 307.584 
" style="fill: none; stroke: #000000; stroke-width: 0.8; stroke-linejoin: miter; stroke-linecap: square"/>
   </g>
   <g id="patch_6">
    <path d="M 57.6 41.472 
L 414.72 41.472 
" style="fill: none; stroke: #000000; stroke-width: 0.8; stroke-linejoin: miter; stroke-linecap: square"/>
   </g>
   <g id="text_17">
    <!-- Radacinile polinomului caracteristic modelului AR -->
    <g transform="translate(87.535313 35.472) scale(0.12 -0.12)">
     <defs>
      <path id="DejaVuSans-64" d="M 2906 2969 
L 2906 4863 
L 3481 4863 
L 3481 0 
L 2906 0 
L 2906 525 
Q 2725 213 2448 61 
Q 2172 -91 1784 -91 
Q 1150 -91 751 415 
Q 353 922 353 1747 
Q 353 2572 751 3078 
Q 1150 3584 1784 3584 
Q 2172 3584 2448 3432 
Q 2725 3281 2906 2969 
z
M 947 1747 
Q 947 1113 1208 752 
Q 1469 391 1925 391 
Q 2381 391 2643 752 
Q 2906 1113 2906 1747 
Q 2906 2381 2643 2742 
Q 2381 3103 1925 3103 
Q 1469 3103 1208 2742 
Q 947 2381 947 1747 
z
" transform="scale(0.015625)"/>
      <path id="DejaVuSans-63" d="M 3122 3366 
L 3122 2828 
Q 2878 2963 2633 3030 
Q 2388 3097 2138 3097 
Q 1578 3097 1268 2742 
Q 959 2388 959 1747 
Q 959 1106 1268 751 
Q 1578 397 2138 397 
Q 2388 397 2633 464 
Q 2878 531 3122 666 
L 3122 134 
Q 2881 22 2623 -34 
Q 2366 -91 2075 -91 
Q 1284 -91 818 406 
Q 353 903 353 1747 
Q 353 2603 823 3093 
Q 1294 3584 2113 3584 
Q 2378 3584 2631 3529 
Q 2884 3475 3122 3366 
z
" transform="scale(0.015625)"/>
      <path id="DejaVuSans-70" d="M 1159 525 
L 1159 -1331 
L 581 -1331 
L 581 3500 
L 1159 3500 
L 1159 2969 
Q 1341 3281 1617 3432 
Q 1894 3584 2278 3584 
Q 2916 3584 3314 3078 
Q 3713 2572 3713 1747 
Q 3713 922 3314 415 
Q 2916 -91 2278 -91 
Q 1894 -91 1617 61 
Q 1341 213 1159 525 
z
M 3116 1747 
Q 3116 2381 2855 2742 
Q 2594 3103 2138 3103 
Q 1681 3103 1420 2742 
Q 1159 2381 1159 1747 
Q 1159 1113 1420 752 
Q 1681 391 2138 391 
Q 2594 391 2855 752 
Q 3116 1113 3116 1747 
z
" transform="scale(0.015625)"/>
      <path id="DejaVuSans-6f" d="M 1959 3097 
Q 1497 3097 1228 2736 
Q 959 2375 959 1747 
Q 959 1119 1226 758 
Q 1494 397 1959 397 
Q 2419 397 2687 759 
Q 2956 1122 2956 1747 
Q 2956 2369 2687 2733 
Q 2419 3097 1959 3097 
z
M 1959 3584 
Q 2709 3584 3137 3096 
Q 3566 2609 3566 1747 
Q 3566 888 3137 398 
Q 2709 -91 1959 -91 
Q 1206 -91 779 398 
Q 353 888 353 1747 
Q 353 2609 779 3096 
Q 1206 3584 1959 3584 
z
" transform="scale(0.015625)"/>
      <path id="DejaVuSans-75" d="M 544 1381 
L 544 3500 
L 1119 3500 
L 1119 1403 
Q 1119 906 1312 657 
Q 1506 409 1894 409 
Q 2359 409 2629 706 
Q 2900 1003 2900 1516 
L 2900 3500 
L 3475 3500 
L 3475 0 
L 2900 0 
L 2900 538 
Q 2691 219 2414 64 
Q 2138 -91 1772 -91 
Q 1169 -91 856 284 
Q 544 659 544 1381 
z
M 1991 3584 
L 1991 3584 
z
" transform="scale(0.015625)"/>
      <path id="DejaVuSans-73" d="M 2834 3397 
L 2834 2853 
Q 2591 2978 2328 3040 
Q 2066 3103 1784 3103 
Q 1356 3103 1142 2972 
Q 928 2841 928 2578 
Q 928 2378 1081 2264 
Q 1234 2150 1697 2047 
L 1894 2003 
Q 2506 1872 2764 1633 
Q 3022 1394 3022 966 
Q 3022 478 2636 193 
Q 2250 -91 1575 -91 
Q 1294 -91 989 -36 
Q 684 19 347 128 
L 347 722 
Q 666 556 975 473 
Q 1284 391 1588 391 
Q 1994 391 2212 530 
Q 2431 669 2431 922 
Q 2431 1156 2273 1281 
Q 2116 1406 1581 1522 
L 1381 1569 
Q 847 1681 609 1914 
Q 372 2147 372 2553 
Q 372 3047 722 3315 
Q 1072 3584 1716 3584 
Q 2034 3584 2315 3537 
Q 2597 3491 2834 3397 
z
" transform="scale(0.015625)"/>
      <path id="DejaVuSans-41" d="M 2188 4044 
L 1331 1722 
L 3047 1722 
L 2188 4044 
z
M 1831 4666 
L 2547 4666 
L 4325 0 
L 3669 0 
L 3244 1197 
L 1141 1197 
L 716 0 
L 50 0 
L 1831 4666 
z
" transform="scale(0.015625)"/>
     </defs>
     <use xlink:href="#DejaVuSans-52"/>
     <use xlink:href="#DejaVuSans-61" x="67.232422"/>
     <use xlink:href="#DejaVuSans-64" x="128.511719"/>
     <use xlink:href="#DejaVuSans-61" x="191.988281"/>
     <use xlink:href="#DejaVuSans-63" x="253.267578"/>
     <use xlink:href="#DejaVuSans-69" x="308.248047"/>
     <use xlink:href="#DejaVuSans-6e" x="336.03125"/>
     <use xlink:href="#DejaVuSans-69" x="399.410156"/>
     <use xlink:href="#DejaVuSans-6c" x="427.193359"/>
     <use xlink:href="#DejaVuSans-65" x="454.976562"/>
     <use xlink:href="#DejaVuSans-20" x="516.5"/>
     <use xlink:href="#DejaVuSans-70" x="548.287109"/>
     <use xlink:href="#DejaVuSans-6f" x="611.763672"/>
     <use xlink:href="#DejaVuSans-6c" x="672.945312"/>
     <use xlink:href="#DejaVuSans-69" x="700.728516"/>
     <use xlink:href="#DejaVuSans-6e" x="728.511719"/>
     <use xlink:href="#DejaVuSans-6f" x="791.890625"/>
     <use xlink:href="#DejaVuSans-6d" x="853.072266"/>
     <use xlink:href="#DejaVuSans-75" x="950.484375"/>
     <use xlink:href="#DejaVuSans-6c" x="1013.863281"/>
     <use xlink:href="#DejaVuSans-75" x="1041.646484"/>
     <use xlink:href="#DejaVuSans-69" x="1105.025391"/>
     <use xlink:href="#DejaVuSans-20" x="1132.808594"/>
     <use xlink:href="#DejaVuSans-63" x="1164.595703"/>
     <use xlink:href="#DejaVuSans-61" x="1219.576172"/>
     <use xlink:href="#DejaVuSans-72" x="1280.855469"/>
     <use xlink:href="#DejaVuSans-61" x="1321.96875"/>
     <use xlink:href="#DejaVuSans-63" x="1383.248047"/>
     <use xlink:href="#DejaVuSans-74" x="1438.228516"/>
     <use xlink:href="#DejaVuSans-65" x="1477.4375"/>
     <use xlink:href="#DejaVuSans-72" x="1538.960938"/>
     <use xlink:href="#DejaVuSans-69" x="1580.074219"/>
     <use xlink:href="#DejaVuSans-73" x="1607.857422"/>
     <use xlink:href="#DejaVuSans-74" x="1659.957031"/>
     <use xlink:href="#DejaVuSans-69" x="1699.166016"/>
     <use xlink:href="#DejaVuSans-63" x="1726.949219"/>
     <use xlink:href="#DejaVuSans-20" x="1781.929688"/>
     <use xlink:href="#DejaVuSans-6d" x="1813.716797"/>
     <use xlink:href="#DejaVuSans-6f" x="1911.128906"/>
     <use xlink:href="#DejaVuSans-64" x="1972.310547"/>
     <use xlink:href="#DejaVuSans-65" x="2035.787109"/>
     <use xlink:href="#DejaVuSans-6c" x="2097.310547"/>
     <use xlink:href="#DejaVuSans-75" x="2125.09375"/>
     <use xlink:href="#DejaVuSans-6c" x="2188.472656"/>
     <use xlink:href="#DejaVuSans-75" x="2216.255859"/>
     <use xlink:href="#DejaVuSans-69" x="2279.634766"/>
     <use xlink:href="#DejaVuSans-20" x="2307.417969"/>
     <use xlink:href="#DejaVuSans-41" x="2339.205078"/>
     <use xlink:href="#DejaVuSans-52" x="2407.613281"/>
    </g>
   </g>
   <g id="legend_1">
    <g id="patch_7">
     <path d="M 161.656875 190.706125 
L 310.663125 190.706125 
Q 312.663125 190.706125 312.663125 188.706125 
L 312.663125 160.349875 
Q 312.663125 158.349875 310.663125 158.349875 
L 161.656875 158.349875 
Q 159.656875 158.349875 159.656875 160.349875 
L 159.656875 188.706125 
Q 159.656875 190.706125 161.656875 190.706125 
z
" style="fill: #ffffff; opacity: 0.8; stroke: #cccccc; stroke-linejoin: miter"/>
    </g>
    <g id="line2d_17">
     <path d="M 163.656875 166.448312 
L 173.656875 166.448312 
L 183.656875 166.448312 
" style="fill: none; stroke: #1f77b4; stroke-width: 1.5; stroke-linecap: square"/>
    </g>
    <g id="text_18">
     <!-- Cercul unitate -->
     <g transform="translate(191.656875 169.948312) scale(0.1 -0.1)">
      <defs>
       <path id="DejaVuSans-43" d="M 4122 4306 
L 4122 3641 
Q 3803 3938 3442 4084 
Q 3081 4231 2675 4231 
Q 1875 4231 1450 3742 
Q 1025 3253 1025 2328 
Q 1025 1406 1450 917 
Q 1875 428 2675 428 
Q 3081 428 3442 575 
Q 3803 722 4122 1019 
L 4122 359 
Q 3791 134 3420 21 
Q 3050 -91 2638 -91 
Q 1578 -91 968 557 
Q 359 1206 359 2328 
Q 359 3453 968 4101 
Q 1578 4750 2638 4750 
Q 3056 4750 3426 4639 
Q 3797 4528 4122 4306 
z
" transform="scale(0.015625)"/>
      </defs>
      <use xlink:href="#DejaVuSans-43"/>
      <use xlink:href="#DejaVuSans-65" x="69.824219"/>
      <use xlink:href="#DejaVuSans-72" x="131.347656"/>
      <use xlink:href="#DejaVuSans-63" x="170.210938"/>
      <use xlink:href="#DejaVuSans-75" x="225.191406"/>
      <use xlink:href="#DejaVuSans-6c" x="288.570312"/>
      <use xlink:href="#DejaVuSans-20" x="316.353516"/>
      <use xlink:href="#DejaVuSans-75" x="348.140625"/>
      <use xlink:href="#DejaVuSans-6e" x="411.519531"/>
      <use xlink:href="#DejaVuSans-69" x="474.898438"/>
      <use xlink:href="#DejaVuSans-74" x="502.681641"/>
      <use xlink:href="#DejaVuSans-61" x="541.890625"/>
      <use xlink:href="#DejaVuSans-74" x="603.169922"/>
      <use xlink:href="#DejaVuSans-65" x="642.378906"/>
     </g>
    </g>
    <g id="line2d_18">
     <g>
      <use xlink:href="#m42d6bcd8a3" x="173.656875" y="181.126437" style="fill: #ff7f0e; stroke: #ff7f0e"/>
     </g>
    </g>
    <g id="text_19">
     <!-- Radacina a polinomului -->
     <g transform="translate(191.656875 184.626437) scale(0.1 -0.1)">
      <use xlink:href="#DejaVuSans-52"/>
      <use xlink:href="#DejaVuSans-61" x="67.232422"/>
      <use xlink:href="#DejaVuSans-64" x="128.511719"/>
      <use xlink:href="#DejaVuSans-61" x="191.988281"/>
      <use xlink:href="#DejaVuSans-63" x="253.267578"/>
      <use xlink:href="#DejaVuSans-69" x="308.248047"/>
      <use xlink:href="#DejaVuSans-6e" x="336.03125"/>
      <use xlink:href="#DejaVuSans-61" x="399.410156"/>
      <use xlink:href="#DejaVuSans-20" x="460.689453"/>
      <use xlink:href="#DejaVuSans-61" x="492.476562"/>
      <use xlink:href="#DejaVuSans-20" x="553.755859"/>
      <use xlink:href="#DejaVuSans-70" x="585.542969"/>
      <use xlink:href="#DejaVuSans-6f" x="649.019531"/>
      <use xlink:href="#DejaVuSans-6c" x="710.201172"/>
      <use xlink:href="#DejaVuSans-69" x="737.984375"/>
      <use xlink:href="#DejaVuSans-6e" x="765.767578"/>
      <use xlink:href="#DejaVuSans-6f" x="829.146484"/>
      <use xlink:href="#DejaVuSans-6d" x="890.328125"/>
      <use xlink:href="#DejaVuSans-75" x="987.740234"/>
      <use xlink:href="#DejaVuSans-6c" x="1051.119141"/>
      <use xlink:href="#DejaVuSans-75" x="1078.902344"/>
      <use xlink:href="#DejaVuSans-69" x="1142.28125"/>
     </g>
    </g>
   </g>
  </g>
 </g>
 <defs>
  <clipPath id="p248a72c980">
   <rect x="57.6" y="41.472" width="357.12" height="266.112"/>
  </clipPath>
 </defs>
</svg>
