<?xml version="1.0" encoding="utf-8" standalone="no"?>
<!DOCTYPE svg PUBLIC "-//W3C//DTD SVG 1.1//EN"
  "http://www.w3.org/Graphics/SVG/1.1/DTD/svg11.dtd">
<svg xmlns:xlink="http://www.w3.org/1999/xlink" width="460.8pt" height="345.6pt" viewBox="0 0 460.8 345.6" xmlns="http://www.w3.org/2000/svg" version="1.1">
 <metadata>
  <rdf:RDF xmlns:dc="http://purl.org/dc/elements/1.1/" xmlns:cc="http://creativecommons.org/ns#" xmlns:rdf="http://www.w3.org/1999/02/22-rdf-syntax-ns#">
   <cc:Work>
    <dc:type rdf:resource="http://purl.org/dc/dcmitype/StillImage"/>
    <dc:date>2024-12-28T16:34:25.175652</dc:date>
    <dc:format>image/svg+xml</dc:format>
    <dc:creator>
     <cc:Agent>
      <dc:title>Matplotlib v3.9.2, https://matplotlib.org/</dc:title>
     </cc:Agent>
    </dc:creator>
   </cc:Work>
  </rdf:RDF>
 </metadata>
 <defs>
  <style type="text/css">*{stroke-linejoin: round; stroke-linecap: butt}</style>
 </defs>
 <g id="figure_1">
  <g id="patch_1">
   <path d="M 0 345.6 
L 460.8 345.6 
L 460.8 0 
L 0 0 
z
" style="fill: #ffffff"/>
  </g>
  <g id="axes_1">
   <g id="patch_2">
    <path d="M 57.6 307.584 
L 414.72 307.584 
L 414.72 41.472 
L 57.6 41.472 
z
" style="fill: #ffffff"/>
   </g>
   <g id="matplotlib.axis_1">
    <g id="xtick_1">
     <g id="line2d_1">
      <defs>
       <path id="m6bb7ecbfd0" d="M 0 0 
L 0 3.5 
" style="stroke: #000000; stroke-width: 0.8"/>
      </defs>
      <g>
       <use xlink:href="#m6bb7ecbfd0" x="73.832727" y="307.584" style="stroke: #000000; stroke-width: 0.8"/>
      </g>
     </g>
     <g id="text_1">
      <!-- 0 -->
      <g transform="translate(70.651477 322.182437) scale(0.1 -0.1)">
       <defs>
        <path id="DejaVuSans-30" d="M 2034 4250 
Q 1547 4250 1301 3770 
Q 1056 3291 1056 2328 
Q 1056 1369 1301 889 
Q 1547 409 2034 409 
Q 2525 409 2770 889 
Q 3016 1369 3016 2328 
Q 3016 3291 2770 3770 
Q 2525 4250 2034 4250 
z
M 2034 4750 
Q 2819 4750 3233 4129 
Q 3647 3509 3647 2328 
Q 3647 1150 3233 529 
Q 2819 -91 2034 -91 
Q 1250 -91 836 529 
Q 422 1150 422 2328 
Q 422 3509 836 4129 
Q 1250 4750 2034 4750 
z
" transform="scale(0.015625)"/>
       </defs>
       <use xlink:href="#DejaVuSans-30"/>
      </g>
     </g>
    </g>
    <g id="xtick_2">
     <g id="line2d_2">
      <g>
       <use xlink:href="#m6bb7ecbfd0" x="138.828632" y="307.584" style="stroke: #000000; stroke-width: 0.8"/>
      </g>
     </g>
     <g id="text_2">
      <!-- 200 -->
      <g transform="translate(129.284882 322.182437) scale(0.1 -0.1)">
       <defs>
        <path id="DejaVuSans-32" d="M 1228 531 
L 3431 531 
L 3431 0 
L 469 0 
L 469 531 
Q 828 903 1448 1529 
Q 2069 2156 2228 2338 
Q 2531 2678 2651 2914 
Q 2772 3150 2772 3378 
Q 2772 3750 2511 3984 
Q 2250 4219 1831 4219 
Q 1534 4219 1204 4116 
Q 875 4013 500 3803 
L 500 4441 
Q 881 4594 1212 4672 
Q 1544 4750 1819 4750 
Q 2544 4750 2975 4387 
Q 3406 4025 3406 3419 
Q 3406 3131 3298 2873 
Q 3191 2616 2906 2266 
Q 2828 2175 2409 1742 
Q 1991 1309 1228 531 
z
" transform="scale(0.015625)"/>
       </defs>
       <use xlink:href="#DejaVuSans-32"/>
       <use xlink:href="#DejaVuSans-30" x="63.623047"/>
       <use xlink:href="#DejaVuSans-30" x="127.246094"/>
      </g>
     </g>
    </g>
    <g id="xtick_3">
     <g id="line2d_3">
      <g>
       <use xlink:href="#m6bb7ecbfd0" x="203.824537" y="307.584" style="stroke: #000000; stroke-width: 0.8"/>
      </g>
     </g>
     <g id="text_3">
      <!-- 400 -->
      <g transform="translate(194.280787 322.182437) scale(0.1 -0.1)">
       <defs>
        <path id="DejaVuSans-34" d="M 2419 4116 
L 825 1625 
L 2419 1625 
L 2419 4116 
z
M 2253 4666 
L 3047 4666 
L 3047 1625 
L 3713 1625 
L 3713 1100 
L 3047 1100 
L 3047 0 
L 2419 0 
L 2419 1100 
L 313 1100 
L 313 1709 
L 2253 4666 
z
" transform="scale(0.015625)"/>
       </defs>
       <use xlink:href="#DejaVuSans-34"/>
       <use xlink:href="#DejaVuSans-30" x="63.623047"/>
       <use xlink:href="#DejaVuSans-30" x="127.246094"/>
      </g>
     </g>
    </g>
    <g id="xtick_4">
     <g id="line2d_4">
      <g>
       <use xlink:href="#m6bb7ecbfd0" x="268.820442" y="307.584" style="stroke: #000000; stroke-width: 0.8"/>
      </g>
     </g>
     <g id="text_4">
      <!-- 600 -->
      <g transform="translate(259.276692 322.182437) scale(0.1 -0.1)">
       <defs>
        <path id="DejaVuSans-36" d="M 2113 2584 
Q 1688 2584 1439 2293 
Q 1191 2003 1191 1497 
Q 1191 994 1439 701 
Q 1688 409 2113 409 
Q 2538 409 2786 701 
Q 3034 994 3034 1497 
Q 3034 2003 2786 2293 
Q 2538 2584 2113 2584 
z
M 3366 4563 
L 3366 3988 
Q 3128 4100 2886 4159 
Q 2644 4219 2406 4219 
Q 1781 4219 1451 3797 
Q 1122 3375 1075 2522 
Q 1259 2794 1537 2939 
Q 1816 3084 2150 3084 
Q 2853 3084 3261 2657 
Q 3669 2231 3669 1497 
Q 3669 778 3244 343 
Q 2819 -91 2113 -91 
Q 1303 -91 875 529 
Q 447 1150 447 2328 
Q 447 3434 972 4092 
Q 1497 4750 2381 4750 
Q 2619 4750 2861 4703 
Q 3103 4656 3366 4563 
z
" transform="scale(0.015625)"/>
       </defs>
       <use xlink:href="#DejaVuSans-36"/>
       <use xlink:href="#DejaVuSans-30" x="63.623047"/>
       <use xlink:href="#DejaVuSans-30" x="127.246094"/>
      </g>
     </g>
    </g>
    <g id="xtick_5">
     <g id="line2d_5">
      <g>
       <use xlink:href="#m6bb7ecbfd0" x="333.816347" y="307.584" style="stroke: #000000; stroke-width: 0.8"/>
      </g>
     </g>
     <g id="text_5">
      <!-- 800 -->
      <g transform="translate(324.272597 322.182437) scale(0.1 -0.1)">
       <defs>
        <path id="DejaVuSans-38" d="M 2034 2216 
Q 1584 2216 1326 1975 
Q 1069 1734 1069 1313 
Q 1069 891 1326 650 
Q 1584 409 2034 409 
Q 2484 409 2743 651 
Q 3003 894 3003 1313 
Q 3003 1734 2745 1975 
Q 2488 2216 2034 2216 
z
M 1403 2484 
Q 997 2584 770 2862 
Q 544 3141 544 3541 
Q 544 4100 942 4425 
Q 1341 4750 2034 4750 
Q 2731 4750 3128 4425 
Q 3525 4100 3525 3541 
Q 3525 3141 3298 2862 
Q 3072 2584 2669 2484 
Q 3125 2378 3379 2068 
Q 3634 1759 3634 1313 
Q 3634 634 3220 271 
Q 2806 -91 2034 -91 
Q 1263 -91 848 271 
Q 434 634 434 1313 
Q 434 1759 690 2068 
Q 947 2378 1403 2484 
z
M 1172 3481 
Q 1172 3119 1398 2916 
Q 1625 2713 2034 2713 
Q 2441 2713 2670 2916 
Q 2900 3119 2900 3481 
Q 2900 3844 2670 4047 
Q 2441 4250 2034 4250 
Q 1625 4250 1398 4047 
Q 1172 3844 1172 3481 
z
" transform="scale(0.015625)"/>
       </defs>
       <use xlink:href="#DejaVuSans-38"/>
       <use xlink:href="#DejaVuSans-30" x="63.623047"/>
       <use xlink:href="#DejaVuSans-30" x="127.246094"/>
      </g>
     </g>
    </g>
    <g id="xtick_6">
     <g id="line2d_6">
      <g>
       <use xlink:href="#m6bb7ecbfd0" x="398.812252" y="307.584" style="stroke: #000000; stroke-width: 0.8"/>
      </g>
     </g>
     <g id="text_6">
      <!-- 1000 -->
      <g transform="translate(386.087252 322.182437) scale(0.1 -0.1)">
       <defs>
        <path id="DejaVuSans-31" d="M 794 531 
L 1825 531 
L 1825 4091 
L 703 3866 
L 703 4441 
L 1819 4666 
L 2450 4666 
L 2450 531 
L 3481 531 
L 3481 0 
L 794 0 
L 794 531 
z
" transform="scale(0.015625)"/>
       </defs>
       <use xlink:href="#DejaVuSans-31"/>
       <use xlink:href="#DejaVuSans-30" x="63.623047"/>
       <use xlink:href="#DejaVuSans-30" x="127.246094"/>
       <use xlink:href="#DejaVuSans-30" x="190.869141"/>
      </g>
     </g>
    </g>
   </g>
   <g id="matplotlib.axis_2">
    <g id="ytick_1">
     <g id="line2d_7">
      <defs>
       <path id="m32f7d2c6d9" d="M 0 0 
L -3.5 0 
" style="stroke: #000000; stroke-width: 0.8"/>
      </defs>
      <g>
       <use xlink:href="#m32f7d2c6d9" x="57.6" y="296.927126" style="stroke: #000000; stroke-width: 0.8"/>
      </g>
     </g>
     <g id="text_7">
      <!-- 1.0 -->
      <g transform="translate(34.696875 300.726344) scale(0.1 -0.1)">
       <defs>
        <path id="DejaVuSans-2e" d="M 684 794 
L 1344 794 
L 1344 0 
L 684 0 
L 684 794 
z
" transform="scale(0.015625)"/>
       </defs>
       <use xlink:href="#DejaVuSans-31"/>
       <use xlink:href="#DejaVuSans-2e" x="63.623047"/>
       <use xlink:href="#DejaVuSans-30" x="95.410156"/>
      </g>
     </g>
    </g>
    <g id="ytick_2">
     <g id="line2d_8">
      <g>
       <use xlink:href="#m32f7d2c6d9" x="57.6" y="260.893612" style="stroke: #000000; stroke-width: 0.8"/>
      </g>
     </g>
     <g id="text_8">
      <!-- 1.5 -->
      <g transform="translate(34.696875 264.692831) scale(0.1 -0.1)">
       <defs>
        <path id="DejaVuSans-35" d="M 691 4666 
L 3169 4666 
L 3169 4134 
L 1269 4134 
L 1269 2991 
Q 1406 3038 1543 3061 
Q 1681 3084 1819 3084 
Q 2600 3084 3056 2656 
Q 3513 2228 3513 1497 
Q 3513 744 3044 326 
Q 2575 -91 1722 -91 
Q 1428 -91 1123 -41 
Q 819 9 494 109 
L 494 744 
Q 775 591 1075 516 
Q 1375 441 1709 441 
Q 2250 441 2565 725 
Q 2881 1009 2881 1497 
Q 2881 1984 2565 2268 
Q 2250 2553 1709 2553 
Q 1456 2553 1204 2497 
Q 953 2441 691 2322 
L 691 4666 
z
" transform="scale(0.015625)"/>
       </defs>
       <use xlink:href="#DejaVuSans-31"/>
       <use xlink:href="#DejaVuSans-2e" x="63.623047"/>
       <use xlink:href="#DejaVuSans-35" x="95.410156"/>
      </g>
     </g>
    </g>
    <g id="ytick_3">
     <g id="line2d_9">
      <g>
       <use xlink:href="#m32f7d2c6d9" x="57.6" y="224.860099" style="stroke: #000000; stroke-width: 0.8"/>
      </g>
     </g>
     <g id="text_9">
      <!-- 2.0 -->
      <g transform="translate(34.696875 228.659318) scale(0.1 -0.1)">
       <use xlink:href="#DejaVuSans-32"/>
       <use xlink:href="#DejaVuSans-2e" x="63.623047"/>
       <use xlink:href="#DejaVuSans-30" x="95.410156"/>
      </g>
     </g>
    </g>
    <g id="ytick_4">
     <g id="line2d_10">
      <g>
       <use xlink:href="#m32f7d2c6d9" x="57.6" y="188.826586" style="stroke: #000000; stroke-width: 0.8"/>
      </g>
     </g>
     <g id="text_10">
      <!-- 2.5 -->
      <g transform="translate(34.696875 192.625805) scale(0.1 -0.1)">
       <use xlink:href="#DejaVuSans-32"/>
       <use xlink:href="#DejaVuSans-2e" x="63.623047"/>
       <use xlink:href="#DejaVuSans-35" x="95.410156"/>
      </g>
     </g>
    </g>
    <g id="ytick_5">
     <g id="line2d_11">
      <g>
       <use xlink:href="#m32f7d2c6d9" x="57.6" y="152.793073" style="stroke: #000000; stroke-width: 0.8"/>
      </g>
     </g>
     <g id="text_11">
      <!-- 3.0 -->
      <g transform="translate(34.696875 156.592292) scale(0.1 -0.1)">
       <defs>
        <path id="DejaVuSans-33" d="M 2597 2516 
Q 3050 2419 3304 2112 
Q 3559 1806 3559 1356 
Q 3559 666 3084 287 
Q 2609 -91 1734 -91 
Q 1441 -91 1130 -33 
Q 819 25 488 141 
L 488 750 
Q 750 597 1062 519 
Q 1375 441 1716 441 
Q 2309 441 2620 675 
Q 2931 909 2931 1356 
Q 2931 1769 2642 2001 
Q 2353 2234 1838 2234 
L 1294 2234 
L 1294 2753 
L 1863 2753 
Q 2328 2753 2575 2939 
Q 2822 3125 2822 3475 
Q 2822 3834 2567 4026 
Q 2313 4219 1838 4219 
Q 1578 4219 1281 4162 
Q 984 4106 628 3988 
L 628 4550 
Q 988 4650 1302 4700 
Q 1616 4750 1894 4750 
Q 2613 4750 3031 4423 
Q 3450 4097 3450 3541 
Q 3450 3153 3228 2886 
Q 3006 2619 2597 2516 
z
" transform="scale(0.015625)"/>
       </defs>
       <use xlink:href="#DejaVuSans-33"/>
       <use xlink:href="#DejaVuSans-2e" x="63.623047"/>
       <use xlink:href="#DejaVuSans-30" x="95.410156"/>
      </g>
     </g>
    </g>
    <g id="ytick_6">
     <g id="line2d_12">
      <g>
       <use xlink:href="#m32f7d2c6d9" x="57.6" y="116.75956" style="stroke: #000000; stroke-width: 0.8"/>
      </g>
     </g>
     <g id="text_12">
      <!-- 3.5 -->
      <g transform="translate(34.696875 120.558778) scale(0.1 -0.1)">
       <use xlink:href="#DejaVuSans-33"/>
       <use xlink:href="#DejaVuSans-2e" x="63.623047"/>
       <use xlink:href="#DejaVuSans-35" x="95.410156"/>
      </g>
     </g>
    </g>
    <g id="ytick_7">
     <g id="line2d_13">
      <g>
       <use xlink:href="#m32f7d2c6d9" x="57.6" y="80.726046" style="stroke: #000000; stroke-width: 0.8"/>
      </g>
     </g>
     <g id="text_13">
      <!-- 4.0 -->
      <g transform="translate(34.696875 84.525265) scale(0.1 -0.1)">
       <use xlink:href="#DejaVuSans-34"/>
       <use xlink:href="#DejaVuSans-2e" x="63.623047"/>
       <use xlink:href="#DejaVuSans-30" x="95.410156"/>
      </g>
     </g>
    </g>
    <g id="ytick_8">
     <g id="line2d_14">
      <g>
       <use xlink:href="#m32f7d2c6d9" x="57.6" y="44.692533" style="stroke: #000000; stroke-width: 0.8"/>
      </g>
     </g>
     <g id="text_14">
      <!-- 4.5 -->
      <g transform="translate(34.696875 48.491752) scale(0.1 -0.1)">
       <use xlink:href="#DejaVuSans-34"/>
       <use xlink:href="#DejaVuSans-2e" x="63.623047"/>
       <use xlink:href="#DejaVuSans-35" x="95.410156"/>
      </g>
     </g>
    </g>
   </g>
   <g id="line2d_15">
    <path d="M 73.832727 295.488 
L 74.157707 292.966319 
L 74.482686 291.847839 
L 74.807666 292.080859 
L 75.132645 287.385204 
L 75.457625 290.951273 
L 75.782604 286.828583 
L 76.107584 287.500052 
L 76.432563 287.912714 
L 76.757543 288.994237 
L 77.082523 287.104185 
L 77.407502 286.532013 
L 77.732482 284.002907 
L 78.057461 283.397285 
L 78.382441 283.917449 
L 78.70742 284.720748 
L 79.357379 278.027014 
L 79.682359 279.682624 
L 80.007338 277.472706 
L 80.332318 277.954096 
L 80.657297 273.981262 
L 80.982277 273.672777 
L 81.307256 273.731725 
L 81.632236 277.455065 
L 81.957215 272.310552 
L 82.282195 273.990248 
L 82.607174 270.926136 
L 82.932154 275.460929 
L 83.907093 270.341354 
L 84.232072 273.59206 
L 84.557052 272.080013 
L 84.882031 268.00882 
L 85.207011 268.598309 
L 85.53199 271.50214 
L 85.85697 270.642309 
L 86.181949 272.263757 
L 86.506929 266.34518 
L 86.831908 265.660376 
L 87.156888 266.191778 
L 87.806847 269.575341 
L 88.131826 263.558364 
L 88.456806 269.3007 
L 88.781785 267.623006 
L 89.106765 268.944717 
L 89.756724 263.02756 
L 90.081704 267.216889 
L 90.406683 267.933425 
L 90.731663 266.886146 
L 91.056642 268.037637 
L 91.381622 264.603672 
L 91.706601 262.870346 
L 92.031581 268.324005 
L 92.35656 269.373993 
L 92.68154 266.110675 
L 93.006519 264.460053 
L 93.656478 266.892618 
L 93.981458 267.670255 
L 94.306437 266.845954 
L 94.631417 270.072879 
L 94.956396 268.771179 
L 95.281376 266.417738 
L 95.606355 271.661542 
L 95.931335 270.164819 
L 96.256314 270.140644 
L 96.906274 266.383434 
L 97.231253 267.37629 
L 97.556233 271.667656 
L 97.881212 271.600031 
L 98.206192 268.759055 
L 98.531171 274.179203 
L 98.856151 273.402519 
L 99.18113 269.253958 
L 99.50611 272.809819 
L 99.831089 272.18124 
L 100.156069 274.807199 
L 100.481048 271.920311 
L 100.806028 273.685871 
L 101.131007 273.603656 
L 101.455987 277.46067 
L 101.780966 276.990294 
L 102.430925 274.240239 
L 102.755905 278.815754 
L 103.080885 273.006625 
L 103.405864 273.292563 
L 103.730844 280.505037 
L 104.055823 276.338234 
L 104.380803 277.69619 
L 104.705782 280.966031 
L 105.030762 276.322605 
L 105.355741 275.257988 
L 105.680721 280.815624 
L 106.0057 277.086596 
L 106.33068 279.097156 
L 106.655659 282.062407 
L 106.980639 277.626797 
L 107.305618 280.387799 
L 107.630598 281.733176 
L 107.955577 281.948967 
L 108.280557 278.893554 
L 108.605536 280.917712 
L 108.930516 279.298062 
L 109.255495 284.60418 
L 109.580475 279.671756 
L 109.905455 283.250862 
L 110.230434 281.416048 
L 110.555414 282.39592 
L 110.880393 285.566592 
L 111.205373 283.379571 
L 111.530352 286.940054 
L 111.855332 284.89055 
L 112.180311 280.334289 
L 112.505291 284.734485 
L 112.83027 281.086543 
L 113.15525 283.007669 
L 113.480229 280.609269 
L 113.805209 287.171041 
L 114.130188 286.261122 
L 114.780147 280.526834 
L 115.105127 281.768175 
L 115.430106 279.906384 
L 115.755086 281.780591 
L 116.080066 279.813786 
L 116.405045 285.034917 
L 116.730025 285.626729 
L 117.055004 279.013768 
L 117.379984 285.01485 
L 117.704963 282.734086 
L 118.029943 282.845344 
L 118.354922 282.270756 
L 118.679902 279.434975 
L 119.004881 283.830828 
L 119.329861 280.080651 
L 119.65484 283.086395 
L 120.629779 278.981837 
L 120.954758 278.360348 
L 121.279738 276.421736 
L 121.604717 277.510348 
L 121.929697 277.984186 
L 122.254676 277.65389 
L 122.579656 278.211833 
L 122.904636 278.207118 
L 123.879574 275.22789 
L 124.204554 276.573517 
L 124.529533 271.564159 
L 124.854513 275.557224 
L 125.504472 269.119463 
L 125.829451 272.631042 
L 126.154431 269.971474 
L 126.47941 269.704305 
L 127.129369 265.719813 
L 127.454349 267.643332 
L 127.779328 270.916972 
L 128.104308 270.150092 
L 128.429287 262.977612 
L 128.754267 266.945371 
L 129.079247 266.463585 
L 129.404226 262.2345 
L 129.729206 262.877563 
L 130.054185 263.787901 
L 130.379165 263.098741 
L 130.704144 259.688917 
L 131.029124 262.30128 
L 131.354103 261.642719 
L 131.679083 260.478888 
L 132.004062 263.422285 
L 132.654021 256.249345 
L 132.979001 258.158668 
L 133.30398 256.298483 
L 133.62896 255.978579 
L 133.953939 257.147738 
L 134.278919 260.456366 
L 134.603898 253.803192 
L 134.928878 258.439479 
L 135.253857 253.295827 
L 135.578837 256.098769 
L 135.903817 256.375545 
L 136.228796 255.923489 
L 136.553776 255.087946 
L 136.878755 257.010041 
L 137.203735 254.534614 
L 137.528714 252.980522 
L 137.853694 254.703606 
L 138.178673 253.760222 
L 138.503653 253.888404 
L 138.828632 248.645102 
L 139.153612 253.181162 
L 139.478591 253.443427 
L 139.803571 253.052442 
L 140.12855 253.45886 
L 140.45353 250.178296 
L 140.778509 251.584161 
L 141.103489 250.067085 
L 141.428468 252.04489 
L 141.753448 248.969961 
L 142.078428 252.049482 
L 142.403407 251.688378 
L 142.728387 248.863417 
L 143.053366 252.15996 
L 143.378346 248.153358 
L 143.703325 253.032122 
L 144.028305 250.847204 
L 144.353284 252.865318 
L 144.678264 247.425062 
L 145.003243 250.079708 
L 145.328223 250.186703 
L 145.653202 252.148025 
L 145.978182 250.193724 
L 146.303161 252.366869 
L 146.628141 249.193274 
L 147.2781 252.516121 
L 147.603079 250.025379 
L 148.253038 252.109141 
L 148.578018 255.458118 
L 148.902998 254.967975 
L 149.227977 252.025788 
L 149.552957 253.010066 
L 149.877936 252.961664 
L 150.202916 255.703634 
L 150.527895 257.096837 
L 150.852875 254.976737 
L 151.177854 258.72518 
L 151.502834 253.482242 
L 151.827813 257.562986 
L 152.152793 257.019233 
L 152.477772 254.595111 
L 152.802752 254.498962 
L 153.127731 256.187062 
L 153.452711 256.151486 
L 153.77769 260.565315 
L 154.427649 257.199387 
L 154.752629 260.278042 
L 155.077609 260.338568 
L 155.402588 258.365597 
L 155.727568 263.133569 
L 156.052547 262.783361 
L 156.702506 264.046529 
L 157.027486 262.024326 
L 157.352465 261.99836 
L 157.677445 264.094179 
L 158.002424 264.634204 
L 158.652383 267.253842 
L 158.977363 264.728094 
L 159.302342 264.224035 
L 159.627322 267.489818 
L 159.952301 266.968178 
L 160.277281 265.530601 
L 160.60226 267.510882 
L 160.92724 268.341611 
L 161.252219 262.38072 
L 161.577199 263.633122 
L 161.902179 263.351486 
L 162.227158 263.781464 
L 162.552138 268.226128 
L 162.877117 265.421933 
L 163.202097 264.421506 
L 163.527076 264.080239 
L 163.852056 269.496942 
L 164.177035 267.460606 
L 164.502015 267.519209 
L 164.826994 268.674001 
L 165.151974 267.68034 
L 165.476953 269.737834 
L 165.801933 268.419069 
L 166.126912 263.623465 
L 166.451892 267.033113 
L 166.776871 268.170343 
L 167.101851 268.806499 
L 167.42683 264.329785 
L 167.75181 265.146826 
L 168.07679 266.436319 
L 168.401769 262.194627 
L 168.726749 262.769397 
L 169.051728 264.890591 
L 169.376708 260.577074 
L 169.701687 262.330492 
L 170.026667 266.644586 
L 170.351646 263.106518 
L 170.676626 264.153286 
L 171.001605 263.489027 
L 171.326585 264.725021 
L 171.651564 258.327325 
L 171.976544 261.892372 
L 172.301523 263.311638 
L 172.626503 258.302965 
L 172.951482 258.441825 
L 173.276462 254.929465 
L 173.601441 257.244429 
L 173.926421 254.202277 
L 174.57638 255.482338 
L 174.90136 257.2695 
L 175.226339 252.26647 
L 175.551319 250.677108 
L 175.876298 253.343994 
L 176.201278 254.469779 
L 176.851237 248.010657 
L 177.176216 252.965455 
L 177.501196 247.868061 
L 177.826175 248.136206 
L 178.151155 246.314977 
L 178.476134 249.496749 
L 178.801114 242.810664 
L 179.126093 243.766954 
L 179.451073 247.044412 
L 179.776052 241.70628 
L 180.101032 241.518607 
L 180.426011 238.523805 
L 180.750991 239.885738 
L 181.075971 236.301731 
L 181.40095 239.672234 
L 181.72593 241.358442 
L 182.050909 237.847494 
L 182.375889 238.809001 
L 182.700868 238.977717 
L 183.025848 234.732611 
L 183.350827 233.407585 
L 183.675807 235.444994 
L 184.000786 228.746813 
L 184.325766 233.515584 
L 184.650745 233.392159 
L 184.975725 228.581391 
L 185.300704 231.41214 
L 185.625684 231.213944 
L 185.950663 228.216286 
L 186.275643 227.100717 
L 186.600622 222.410879 
L 186.925602 221.903258 
L 187.250581 225.290248 
L 187.575561 226.428063 
L 187.900541 221.703167 
L 188.22552 222.238761 
L 188.5505 219.164284 
L 188.875479 221.814528 
L 189.525438 221.183299 
L 189.850418 219.22494 
L 190.175397 215.372369 
L 190.500377 217.285828 
L 190.825356 213.311935 
L 191.150336 219.176882 
L 191.475315 218.368665 
L 191.800295 215.352443 
L 192.125274 213.417411 
L 192.450254 215.637722 
L 192.775233 211.142385 
L 193.100213 216.073264 
L 193.750172 213.676998 
L 194.075152 209.044134 
L 194.725111 212.219641 
L 195.05009 213.463671 
L 195.37507 207.256562 
L 195.700049 207.853692 
L 196.025029 208.816414 
L 196.350008 212.115039 
L 196.674988 211.522561 
L 196.999967 211.643734 
L 197.324947 206.248116 
L 197.649926 207.471671 
L 197.974906 211.180001 
L 198.299885 209.917571 
L 198.624865 206.30422 
L 198.949844 209.356989 
L 199.274824 209.928264 
L 199.924783 204.715117 
L 200.249762 211.181725 
L 200.574742 208.197108 
L 200.899722 210.394908 
L 201.224701 207.401179 
L 201.549681 210.76635 
L 201.87466 210.928503 
L 202.19964 210.491763 
L 202.524619 207.566637 
L 202.849599 207.782591 
L 203.174578 208.871247 
L 203.499558 208.115528 
L 203.824537 211.529807 
L 204.149517 212.366466 
L 205.124455 206.787459 
L 205.449435 209.196781 
L 205.774414 208.676308 
L 206.099394 213.182715 
L 206.424373 208.807504 
L 206.749353 207.64963 
L 207.074333 212.78409 
L 207.399312 209.553363 
L 207.724292 213.671072 
L 208.049271 214.365693 
L 208.374251 215.852719 
L 208.69923 213.142324 
L 209.02421 213.891285 
L 209.349189 211.41288 
L 209.674169 217.445469 
L 209.999148 211.794375 
L 210.324128 215.648938 
L 210.649107 214.111483 
L 210.974087 214.507786 
L 211.299066 218.352266 
L 211.624046 217.41756 
L 211.949025 213.620344 
L 212.274005 219.118694 
L 212.598984 218.111915 
L 212.923964 220.111573 
L 213.248943 216.992335 
L 213.573923 221.330154 
L 213.898903 219.474744 
L 214.223882 216.372342 
L 214.548862 220.390666 
L 214.873841 216.697418 
L 215.198821 219.183422 
L 215.5238 217.009541 
L 215.84878 222.71083 
L 216.173759 216.90134 
L 216.498739 221.773779 
L 216.823718 218.45434 
L 217.148698 217.439712 
L 217.473677 222.570396 
L 217.798657 218.401119 
L 218.123636 223.923865 
L 218.448616 220.009001 
L 218.773595 218.121772 
L 219.098575 223.363478 
L 219.423554 218.326266 
L 219.748534 222.151767 
L 220.073514 222.299173 
L 220.398493 225.284893 
L 220.723473 223.775528 
L 221.048452 223.327029 
L 221.373432 223.912279 
L 221.698411 221.40651 
L 222.023391 225.095183 
L 222.34837 218.864009 
L 222.67335 221.37339 
L 222.998329 222.104243 
L 223.323309 219.424297 
L 223.648288 219.753405 
L 223.973268 222.874918 
L 224.298247 222.07067 
L 224.623227 219.664076 
L 224.948206 223.471615 
L 225.273186 216.435631 
L 225.598165 217.554211 
L 225.923145 218.1458 
L 226.248124 216.576299 
L 226.573104 216.87172 
L 226.898084 218.692751 
L 227.223063 215.104203 
L 227.548043 220.627699 
L 227.873022 217.400842 
L 228.198002 215.471326 
L 228.522981 216.669499 
L 228.847961 216.103109 
L 229.17294 217.159961 
L 229.49792 214.594585 
L 229.822899 217.007095 
L 230.147879 213.348651 
L 230.472858 217.005144 
L 230.797838 214.653836 
L 231.122817 209.205378 
L 231.772776 211.49789 
L 232.422735 207.06928 
L 232.747715 212.699355 
L 233.072695 205.559539 
L 233.397674 209.961794 
L 233.722654 206.812882 
L 234.047633 205.977581 
L 234.372613 208.211942 
L 234.697592 209.611942 
L 235.022572 202.640184 
L 235.672531 207.724289 
L 235.99751 201.905829 
L 236.32249 201.203745 
L 236.647469 198.840691 
L 236.972449 202.808915 
L 237.297428 202.913346 
L 237.622408 203.700282 
L 237.947387 197.499145 
L 238.272367 196.219662 
L 238.597346 197.110463 
L 238.922326 196.941775 
L 239.247305 200.505826 
L 239.572285 197.501797 
L 239.897265 196.865187 
L 240.222244 194.892682 
L 240.547224 196.357324 
L 240.872203 193.848164 
L 241.197183 194.069851 
L 241.522162 192.31197 
L 241.847142 192.845532 
L 242.172121 190.433746 
L 242.497101 192.78357 
L 242.82208 192.663791 
L 243.472039 188.118048 
L 243.797019 187.983362 
L 244.121998 186.44618 
L 244.771957 190.17659 
L 245.096937 187.789036 
L 245.421916 188.013862 
L 245.746896 187.353747 
L 246.071876 184.502077 
L 246.721835 187.570705 
L 247.046814 188.093667 
L 247.371794 187.122655 
L 247.696773 184.728707 
L 248.021753 188.097533 
L 248.346732 186.822322 
L 248.671712 182.095416 
L 248.996691 184.997778 
L 249.321671 183.208678 
L 249.64665 185.692726 
L 249.97163 184.805268 
L 250.296609 185.253937 
L 250.621589 184.693595 
L 250.946568 185.577105 
L 251.271548 184.852328 
L 251.596527 183.354524 
L 251.921507 181.158026 
L 252.246486 185.391007 
L 252.571466 184.250911 
L 252.896446 185.344988 
L 253.221425 187.575441 
L 253.871384 188.062906 
L 254.196364 185.206874 
L 254.521343 184.19301 
L 254.846323 186.71624 
L 255.171302 184.056212 
L 255.496282 183.216839 
L 255.821261 188.771911 
L 256.146241 188.405012 
L 256.47122 184.526285 
L 256.7962 185.498706 
L 257.121179 189.105278 
L 257.446159 184.901131 
L 257.771138 184.496538 
L 258.421097 188.900544 
L 258.746077 184.131372 
L 259.071057 189.382846 
L 259.396036 188.380697 
L 259.721016 192.071288 
L 260.045995 189.759437 
L 260.370975 188.979043 
L 260.695954 187.114117 
L 261.345913 193.605711 
L 261.670893 189.29902 
L 262.320852 194.616162 
L 262.645831 191.837491 
L 262.970811 193.856532 
L 263.29579 194.478438 
L 263.62077 189.1669 
L 263.945749 191.563641 
L 264.270729 196.375543 
L 264.595708 196.477522 
L 264.920688 194.220769 
L 265.245667 195.10901 
L 265.570647 191.840571 
L 265.895627 191.988549 
L 266.220606 195.410148 
L 266.545586 194.990226 
L 266.870565 193.49762 
L 267.195545 196.811644 
L 267.520524 194.907875 
L 267.845504 195.517738 
L 268.170483 192.68073 
L 268.495463 198.55865 
L 268.820442 199.773003 
L 269.470401 199.025364 
L 270.12036 195.841171 
L 270.44534 199.144493 
L 270.770319 196.275001 
L 271.095299 194.90553 
L 271.420278 196.46758 
L 271.745258 199.760874 
L 272.070238 194.200101 
L 272.395217 196.192544 
L 272.720197 196.710467 
L 273.045176 193.774161 
L 273.370156 193.23761 
L 273.695135 197.695089 
L 274.020115 198.058984 
L 274.345094 194.921061 
L 274.670074 197.642684 
L 274.995053 193.786005 
L 275.320033 196.13858 
L 275.645012 195.476394 
L 275.969992 193.960671 
L 276.294971 198.502861 
L 276.619951 191.193112 
L 276.94493 191.134586 
L 277.26991 196.97364 
L 277.594889 192.658797 
L 277.919869 195.978298 
L 278.244848 192.35219 
L 278.569828 191.642961 
L 278.894808 190.117489 
L 279.219787 190.70718 
L 279.544767 193.637875 
L 280.194726 187.001662 
L 280.844685 190.920546 
L 281.169664 189.523099 
L 281.494644 189.380749 
L 281.819623 184.937007 
L 282.144603 185.965523 
L 282.469582 186.545883 
L 282.794562 183.55458 
L 283.119541 182.472917 
L 283.444521 184.553645 
L 283.7695 180.741589 
L 284.09448 184.477996 
L 284.744439 179.310075 
L 285.069419 178.449231 
L 285.394398 179.514821 
L 285.719378 175.233845 
L 286.044357 176.342884 
L 286.369337 175.429134 
L 286.694316 173.197094 
L 287.019296 176.695654 
L 287.344275 171.522392 
L 287.669255 172.863793 
L 287.994234 170.434493 
L 288.319214 174.103021 
L 288.644193 172.241256 
L 289.294152 169.791226 
L 289.619132 170.334113 
L 289.944111 162.926991 
L 290.269091 162.68229 
L 290.91905 162.42448 
L 291.244029 159.783699 
L 291.569009 163.673062 
L 291.893989 163.884139 
L 292.218968 162.125656 
L 292.543948 162.193737 
L 293.193907 155.68797 
L 293.518886 154.232063 
L 294.168845 156.028797 
L 294.818804 149.644156 
L 295.143784 150.524504 
L 295.468763 149.831431 
L 295.793743 147.448386 
L 296.118722 148.382392 
L 296.443702 148.200867 
L 296.768681 144.84007 
L 297.093661 149.927785 
L 297.41864 149.901935 
L 298.0686 147.36438 
L 298.393579 141.234677 
L 298.718559 143.918971 
L 299.043538 141.48268 
L 299.368518 142.939725 
L 299.693497 141.99549 
L 300.018477 139.533077 
L 300.343456 140.835927 
L 300.668436 138.840326 
L 300.993415 140.697489 
L 301.318395 136.00932 
L 301.643374 139.471471 
L 301.968354 138.969963 
L 302.293333 134.655414 
L 302.618313 138.724583 
L 302.943292 137.109013 
L 303.268272 137.159565 
L 303.593251 136.334159 
L 303.918231 138.938698 
L 304.24321 138.227137 
L 304.89317 133.455837 
L 305.218149 135.482468 
L 305.543129 131.783799 
L 305.868108 136.886964 
L 306.518067 130.024436 
L 306.843047 134.883654 
L 307.168026 135.889517 
L 307.493006 134.425868 
L 307.817985 130.186351 
L 308.142965 133.657934 
L 308.792924 129.306695 
L 309.117903 135.724308 
L 309.442883 135.946844 
L 309.767862 132.507468 
L 310.092842 135.856689 
L 310.742801 130.205223 
L 311.067781 134.273062 
L 311.39276 131.793797 
L 311.71774 135.400595 
L 312.042719 135.387656 
L 312.367699 132.064462 
L 312.692678 134.269881 
L 313.017658 133.304076 
L 313.342637 137.160966 
L 313.667617 136.365943 
L 313.992596 137.088328 
L 314.317576 131.810082 
L 314.642555 137.530599 
L 314.967535 135.350951 
L 315.292514 135.053431 
L 315.617494 135.648169 
L 315.942473 138.010618 
L 316.267453 138.081974 
L 316.917412 134.115976 
L 317.242391 135.727907 
L 317.567371 140.795786 
L 317.892351 139.190865 
L 318.54231 137.797337 
L 318.867289 140.351731 
L 319.192269 136.270511 
L 319.517248 135.888544 
L 320.167207 142.828537 
L 320.492187 143.598095 
L 320.817166 142.432688 
L 321.142146 137.564042 
L 321.792105 144.131224 
L 322.117084 139.391514 
L 322.442064 139.4505 
L 322.767043 143.010281 
L 323.092023 141.856877 
L 323.417002 139.450507 
L 323.741982 143.933806 
L 324.066962 145.339624 
L 324.391941 141.124939 
L 324.716921 142.542511 
L 325.0419 142.354018 
L 325.36688 140.822111 
L 325.691859 145.966447 
L 326.016839 140.579535 
L 326.341818 141.598133 
L 326.666798 143.632484 
L 326.991777 143.308113 
L 327.316757 141.936742 
L 327.641736 145.335681 
L 327.966716 141.370223 
L 328.291695 144.772114 
L 328.616675 143.739593 
L 328.941654 142.230452 
L 329.266634 142.383029 
L 329.591613 144.34067 
L 329.916593 144.471786 
L 330.241572 146.155904 
L 330.566552 145.677254 
L 330.891532 145.550511 
L 331.216511 139.688419 
L 331.541491 139.982515 
L 331.86647 139.764181 
L 332.19145 144.761572 
L 332.516429 139.419907 
L 332.841409 140.531405 
L 333.166388 143.557077 
L 333.491368 138.741164 
L 333.816347 142.711884 
L 334.141327 139.35654 
L 334.466306 138.442722 
L 334.791286 140.943381 
L 335.116265 138.180166 
L 335.441245 142.48642 
L 335.766224 140.267854 
L 336.091204 140.81987 
L 336.416183 134.749285 
L 336.741163 137.43111 
L 337.066143 137.466126 
L 337.391122 135.67753 
L 337.716102 139.257439 
L 338.041081 134.147934 
L 338.366061 137.492694 
L 338.69104 137.219535 
L 339.01602 134.435116 
L 339.340999 136.476063 
L 339.665979 129.253035 
L 339.990958 129.082018 
L 340.315938 134.049352 
L 340.640917 130.909085 
L 340.965897 132.39524 
L 341.290876 126.323776 
L 341.615856 129.833154 
L 341.940835 130.915825 
L 342.265815 125.730765 
L 342.590794 124.752392 
L 343.240753 122.076534 
L 343.565733 124.61652 
L 343.890713 126.222485 
L 344.215692 121.742891 
L 344.540672 124.318054 
L 344.865651 123.946794 
L 345.190631 121.600636 
L 345.51561 123.755263 
L 346.165569 121.099488 
L 346.490549 115.60396 
L 346.815528 121.328784 
L 347.465487 114.926654 
L 347.790467 119.017312 
L 348.115446 115.760641 
L 348.440426 116.258937 
L 348.765405 115.797155 
L 349.090385 110.706516 
L 349.415364 113.663207 
L 349.740344 114.747445 
L 350.065324 109.353317 
L 350.390303 109.964251 
L 350.715283 113.870494 
L 351.040262 112.75486 
L 351.365242 111.03029 
L 351.690221 112.618062 
L 352.015201 107.067879 
L 352.34018 111.121387 
L 352.66516 105.928497 
L 352.990139 106.415406 
L 353.315119 106.344325 
L 353.640098 105.319401 
L 353.965078 103.72935 
L 354.615037 107.405837 
L 354.940016 103.400442 
L 355.264996 105.651862 
L 355.589975 104.62383 
L 355.914955 106.940725 
L 356.239934 104.755057 
L 356.564914 100.522015 
L 356.889894 102.412198 
L 357.214873 105.618304 
L 357.539853 102.9002 
L 357.864832 103.244462 
L 358.189812 99.972626 
L 358.514791 99.054779 
L 358.839771 99.925107 
L 359.16475 99.157241 
L 359.48973 101.53388 
L 360.139689 102.221928 
L 360.464668 102.761098 
L 360.789648 104.205655 
L 361.114627 102.958716 
L 361.439607 104.025381 
L 361.764586 102.991255 
L 362.089566 101.561505 
L 362.414545 104.524709 
L 362.739525 103.563426 
L 363.064505 99.500648 
L 363.389484 101.147489 
L 364.039443 99.851206 
L 364.689402 105.962887 
L 365.014382 105.396477 
L 365.339361 103.271446 
L 365.98932 106.595391 
L 366.3143 101.107418 
L 366.639279 105.674085 
L 366.964259 105.458788 
L 367.289238 102.400238 
L 367.614218 102.143989 
L 367.939197 105.31909 
L 368.264177 105.422543 
L 368.589156 104.252216 
L 368.914136 108.665509 
L 369.239115 109.197822 
L 369.564095 107.68479 
L 369.889075 108.742947 
L 370.214054 103.848143 
L 370.539034 106.641158 
L 370.864013 106.741034 
L 371.188993 110.322384 
L 371.513972 105.424987 
L 371.838952 109.37802 
L 372.163931 105.832084 
L 372.488911 112.152144 
L 373.13887 108.835248 
L 373.463849 108.25351 
L 373.788829 109.657934 
L 374.113808 109.999243 
L 374.438788 111.719568 
L 374.763767 108.251563 
L 375.088747 107.437163 
L 375.413726 113.190761 
L 375.738706 107.763023 
L 376.063686 107.552072 
L 376.388665 113.113506 
L 376.713645 108.109161 
L 377.038624 112.371529 
L 377.363604 110.467953 
L 377.688583 113.575925 
L 378.013563 114.109216 
L 378.338542 113.899368 
L 378.663522 108.527383 
L 379.313481 109.81194 
L 379.63846 109.200095 
L 379.96344 114.259575 
L 380.613399 110.175259 
L 380.938378 111.858016 
L 381.263358 110.901289 
L 381.588337 108.786102 
L 381.913317 107.626773 
L 382.238296 111.665007 
L 382.563276 112.828694 
L 382.888256 108.839296 
L 383.213235 106.697328 
L 383.538215 109.041692 
L 383.863194 107.256156 
L 384.188174 110.747682 
L 384.513153 111.789848 
L 384.838133 106.199449 
L 385.163112 110.100457 
L 385.488092 107.009341 
L 385.813071 106.293257 
L 386.138051 109.136235 
L 386.46303 107.199579 
L 386.78801 103.449429 
L 387.112989 106.788669 
L 387.437969 107.493462 
L 387.762948 101.231245 
L 388.087928 106.694309 
L 388.412907 102.907963 
L 388.737887 105.147723 
L 389.062867 104.65179 
L 389.387846 103.591726 
L 389.712826 99.315063 
L 390.037805 101.051329 
L 390.362785 101.996763 
L 390.687764 101.020411 
L 391.012744 99.317917 
L 391.337723 96.060246 
L 391.662703 97.763994 
L 391.987682 95.748048 
L 392.312662 96.28793 
L 392.637641 92.524926 
L 392.962621 95.997182 
L 393.2876 93.784454 
L 393.61258 89.181076 
L 393.937559 92.714968 
L 394.262539 88.68159 
L 394.587518 91.632956 
L 394.912498 88.311436 
L 395.237477 88.721818 
L 395.562457 88.007633 
L 396.212416 81.157133 
L 396.537396 83.504071 
L 396.862375 84.508961 
L 397.187355 77.673034 
L 397.512334 78.958025 
L 397.837314 78.100851 
L 398.162293 75.576291 
L 398.487273 80.154306 
L 398.487273 80.154306 
" clip-path="url(#pa48a345171)" style="fill: none; stroke: #1f77b4; stroke-width: 1.5; stroke-linecap: square"/>
   </g>
   <g id="line2d_16">
    <path d="M 366.3143 98.022844 
L 366.639279 97.887342 
L 366.964259 103.269524 
L 367.289238 107.630271 
L 367.614218 111.455946 
L 367.939197 107.738692 
L 368.264177 103.508265 
L 368.589156 107.314399 
L 368.914136 112.696129 
L 369.239115 106.400672 
L 369.564095 106.485699 
L 369.889075 111.727489 
L 370.214054 108.537191 
L 370.539034 106.593432 
L 370.864013 112.783239 
L 371.188993 114.9843 
L 371.513972 108.124072 
L 371.838952 110.970956 
L 372.163931 112.754072 
L 372.488911 108.578472 
L 372.81389 115.359631 
L 373.13887 108.40227 
L 373.463849 109.519559 
L 373.788829 114.723132 
L 374.113808 113.860894 
L 374.438788 111.877148 
L 374.763767 117.392303 
L 375.088747 109.779582 
L 375.413726 115.143873 
L 375.738706 112.272106 
L 376.063686 109.68481 
L 376.388665 110.015149 
L 376.713645 113.103928 
L 377.038624 113.03589 
L 377.363604 115.149555 
L 377.688583 115.635345 
L 378.013563 114.220608 
L 378.338542 104.898741 
L 378.663522 107.101351 
L 378.988501 105.751348 
L 379.313481 113.509413 
L 379.63846 106.055421 
L 379.96344 106.661519 
L 380.288419 109.067514 
L 380.613399 102.370242 
L 380.938378 109.380968 
L 381.263358 103.036294 
L 381.588337 101.263829 
L 381.913317 108.878058 
L 382.238296 104.53229 
L 382.563276 107.736267 
L 382.888256 103.191104 
L 383.213235 101.789393 
L 383.538215 93.703093 
L 383.863194 100.425989 
L 384.188174 98.186684 
L 384.513153 93.005262 
L 384.838133 101.360168 
L 385.163112 92.713155 
L 385.488092 95.830551 
L 385.813071 97.078136 
L 386.138051 92.890792 
L 386.46303 93.204039 
L 386.78801 81.735443 
L 387.112989 84.517401 
L 387.437969 90.509314 
L 387.762948 85.118544 
L 388.087928 88.484109 
L 388.412907 76.651379 
L 388.737887 84.47118 
L 389.062867 85.678703 
L 389.387846 75.298223 
L 389.712826 74.046686 
L 390.037805 72.338417 
L 390.362785 68.323566 
L 390.687764 76.078356 
L 391.012744 75.393815 
L 391.337723 70.241566 
L 391.662703 75.232619 
L 391.987682 74.871218 
L 392.312662 69.494078 
L 392.637641 72.160797 
L 392.962621 69.20604 
L 393.2876 67.675099 
L 393.61258 59.511098 
L 393.937559 72.691041 
L 394.262539 66.71867 
L 394.587518 61.847844 
L 394.912498 64.600425 
L 395.237477 62.996535 
L 395.562457 63.844835 
L 395.887437 62.062164 
L 396.212416 57.474014 
L 396.537396 58.791409 
L 396.862375 63.650285 
L 397.187355 56.038503 
L 397.512334 53.568 
L 397.837314 61.418293 
L 398.162293 57.986692 
L 398.487273 57.943195 
" clip-path="url(#pa48a345171)" style="fill: none; stroke: #ff7f0e; stroke-width: 1.5; stroke-linecap: square"/>
   </g>
   <g id="line2d_17">
    <path d="M 366.3143 105.647717 
L 366.639279 106.072319 
L 366.964259 106.465351 
L 367.289238 106.226331 
L 367.614218 106.459795 
L 367.939197 107.325826 
L 368.264177 106.809367 
L 368.589156 107.106975 
L 368.914136 107.573744 
L 369.239115 107.587711 
L 369.564095 107.644253 
L 369.889075 108.269919 
L 370.214054 107.952495 
L 370.539034 108.450769 
L 370.864013 108.614393 
L 371.188993 108.544178 
L 371.513972 108.715984 
L 371.838952 109.101329 
L 372.163931 109.194213 
L 372.488911 109.589047 
L 372.81389 109.770704 
L 373.13887 109.9153 
L 373.463849 109.494696 
L 373.788829 109.594287 
L 374.113808 109.581804 
L 374.438788 110.102799 
L 374.763767 109.667107 
L 375.088747 109.807967 
L 375.413726 110.153301 
L 375.738706 109.669608 
L 376.063686 110.089955 
L 376.388665 109.875911 
L 376.713645 109.655598 
L 377.038624 109.945707 
L 377.363604 109.670818 
L 377.688583 110.009278 
L 378.013563 109.901182 
L 378.338542 109.915389 
L 378.663522 109.288196 
L 378.988501 109.473635 
L 379.313481 109.359904 
L 379.63846 109.065536 
L 379.96344 109.362113 
L 380.288419 108.777743 
L 380.613399 108.909311 
L 380.938378 108.871415 
L 381.263358 108.43223 
L 381.588337 108.515893 
L 381.913317 107.68875 
L 382.238296 107.317914 
L 382.563276 107.622004 
L 382.888256 107.049389 
L 383.213235 106.943589 
L 383.538215 106.192263 
L 383.863194 106.131701 
L 384.188174 105.980508 
L 384.513153 105.204649 
L 384.838133 104.756137 
L 385.163112 104.254168 
L 385.488092 103.623508 
L 385.813071 103.487848 
L 386.138051 103.304625 
L 386.46303 102.437115 
L 386.78801 102.341037 
L 387.112989 101.95971 
L 387.437969 101.277819 
L 387.762948 101.186466 
L 388.087928 100.712681 
L 388.412907 100.14131 
L 388.737887 99.242146 
L 389.062867 99.351269 
L 389.387846 98.605981 
L 389.712826 97.799889 
L 390.037805 97.807839 
L 390.362785 97.000779 
L 390.687764 96.509975 
L 391.012744 96.138863 
L 391.337723 95.073004 
L 391.662703 94.801069 
L 391.987682 94.499019 
L 392.312662 93.37172 
L 392.637641 92.920613 
L 392.962621 92.840129 
L 393.2876 92.144065 
L 393.61258 91.562136 
L 393.937559 91.342215 
L 394.262539 90.219192 
L 394.587518 90.116987 
L 394.912498 89.185222 
L 395.237477 88.598522 
L 395.562457 88.095922 
L 395.887437 87.449944 
L 396.212416 86.670227 
L 396.537396 86.354944 
L 396.862375 85.992521 
L 397.187355 85.079906 
L 397.512334 84.836731 
L 397.837314 84.260098 
L 398.162293 83.961769 
L 398.487273 83.373067 
" clip-path="url(#pa48a345171)" style="fill: none; stroke: #2ca02c; stroke-width: 1.5; stroke-linecap: square"/>
   </g>
   <g id="patch_3">
    <path d="M 57.6 307.584 
L 57.6 41.472 
" style="fill: none; stroke: #000000; stroke-width: 0.8; stroke-linejoin: miter; stroke-linecap: square"/>
   </g>
   <g id="patch_4">
    <path d="M 414.72 307.584 
L 414.72 41.472 
" style="fill: none; stroke: #000000; stroke-width: 0.8; stroke-linejoin: miter; stroke-linecap: square"/>
   </g>
   <g id="patch_5">
    <path d="M 57.6 307.584 
L 414.72 307.584 
" style="fill: none; stroke: #000000; stroke-width: 0.8; stroke-linejoin: miter; stroke-linecap: square"/>
   </g>
   <g id="patch_6">
    <path d="M 57.6 41.472 
L 414.72 41.472 
" style="fill: none; stroke: #000000; stroke-width: 0.8; stroke-linejoin: miter; stroke-linecap: square"/>
   </g>
   <g id="text_15">
    <!-- Predictii cu metoda greedy si regularizare L1 -->
    <g transform="translate(101.775 35.472) scale(0.12 -0.12)">
     <defs>
      <path id="DejaVuSans-50" d="M 1259 4147 
L 1259 2394 
L 2053 2394 
Q 2494 2394 2734 2622 
Q 2975 2850 2975 3272 
Q 2975 3691 2734 3919 
Q 2494 4147 2053 4147 
L 1259 4147 
z
M 628 4666 
L 2053 4666 
Q 2838 4666 3239 4311 
Q 3641 3956 3641 3272 
Q 3641 2581 3239 2228 
Q 2838 1875 2053 1875 
L 1259 1875 
L 1259 0 
L 628 0 
L 628 4666 
z
" transform="scale(0.015625)"/>
      <path id="DejaVuSans-72" d="M 2631 2963 
Q 2534 3019 2420 3045 
Q 2306 3072 2169 3072 
Q 1681 3072 1420 2755 
Q 1159 2438 1159 1844 
L 1159 0 
L 581 0 
L 581 3500 
L 1159 3500 
L 1159 2956 
Q 1341 3275 1631 3429 
Q 1922 3584 2338 3584 
Q 2397 3584 2469 3576 
Q 2541 3569 2628 3553 
L 2631 2963 
z
" transform="scale(0.015625)"/>
      <path id="DejaVuSans-65" d="M 3597 1894 
L 3597 1613 
L 953 1613 
Q 991 1019 1311 708 
Q 1631 397 2203 397 
Q 2534 397 2845 478 
Q 3156 559 3463 722 
L 3463 178 
Q 3153 47 2828 -22 
Q 2503 -91 2169 -91 
Q 1331 -91 842 396 
Q 353 884 353 1716 
Q 353 2575 817 3079 
Q 1281 3584 2069 3584 
Q 2775 3584 3186 3129 
Q 3597 2675 3597 1894 
z
M 3022 2063 
Q 3016 2534 2758 2815 
Q 2500 3097 2075 3097 
Q 1594 3097 1305 2825 
Q 1016 2553 972 2059 
L 3022 2063 
z
" transform="scale(0.015625)"/>
      <path id="DejaVuSans-64" d="M 2906 2969 
L 2906 4863 
L 3481 4863 
L 3481 0 
L 2906 0 
L 2906 525 
Q 2725 213 2448 61 
Q 2172 -91 1784 -91 
Q 1150 -91 751 415 
Q 353 922 353 1747 
Q 353 2572 751 3078 
Q 1150 3584 1784 3584 
Q 2172 3584 2448 3432 
Q 2725 3281 2906 2969 
z
M 947 1747 
Q 947 1113 1208 752 
Q 1469 391 1925 391 
Q 2381 391 2643 752 
Q 2906 1113 2906 1747 
Q 2906 2381 2643 2742 
Q 2381 3103 1925 3103 
Q 1469 3103 1208 2742 
Q 947 2381 947 1747 
z
" transform="scale(0.015625)"/>
      <path id="DejaVuSans-69" d="M 603 3500 
L 1178 3500 
L 1178 0 
L 603 0 
L 603 3500 
z
M 603 4863 
L 1178 4863 
L 1178 4134 
L 603 4134 
L 603 4863 
z
" transform="scale(0.015625)"/>
      <path id="DejaVuSans-63" d="M 3122 3366 
L 3122 2828 
Q 2878 2963 2633 3030 
Q 2388 3097 2138 3097 
Q 1578 3097 1268 2742 
Q 959 2388 959 1747 
Q 959 1106 1268 751 
Q 1578 397 2138 397 
Q 2388 397 2633 464 
Q 2878 531 3122 666 
L 3122 134 
Q 2881 22 2623 -34 
Q 2366 -91 2075 -91 
Q 1284 -91 818 406 
Q 353 903 353 1747 
Q 353 2603 823 3093 
Q 1294 3584 2113 3584 
Q 2378 3584 2631 3529 
Q 2884 3475 3122 3366 
z
" transform="scale(0.015625)"/>
      <path id="DejaVuSans-74" d="M 1172 4494 
L 1172 3500 
L 2356 3500 
L 2356 3053 
L 1172 3053 
L 1172 1153 
Q 1172 725 1289 603 
Q 1406 481 1766 481 
L 2356 481 
L 2356 0 
L 1766 0 
Q 1100 0 847 248 
Q 594 497 594 1153 
L 594 3053 
L 172 3053 
L 172 3500 
L 594 3500 
L 594 4494 
L 1172 4494 
z
" transform="scale(0.015625)"/>
      <path id="DejaVuSans-20" transform="scale(0.015625)"/>
      <path id="DejaVuSans-75" d="M 544 1381 
L 544 3500 
L 1119 3500 
L 1119 1403 
Q 1119 906 1312 657 
Q 1506 409 1894 409 
Q 2359 409 2629 706 
Q 2900 1003 2900 1516 
L 2900 3500 
L 3475 3500 
L 3475 0 
L 2900 0 
L 2900 538 
Q 2691 219 2414 64 
Q 2138 -91 1772 -91 
Q 1169 -91 856 284 
Q 544 659 544 1381 
z
M 1991 3584 
L 1991 3584 
z
" transform="scale(0.015625)"/>
      <path id="DejaVuSans-6d" d="M 3328 2828 
Q 3544 3216 3844 3400 
Q 4144 3584 4550 3584 
Q 5097 3584 5394 3201 
Q 5691 2819 5691 2113 
L 5691 0 
L 5113 0 
L 5113 2094 
Q 5113 2597 4934 2840 
Q 4756 3084 4391 3084 
Q 3944 3084 3684 2787 
Q 3425 2491 3425 1978 
L 3425 0 
L 2847 0 
L 2847 2094 
Q 2847 2600 2669 2842 
Q 2491 3084 2119 3084 
Q 1678 3084 1418 2786 
Q 1159 2488 1159 1978 
L 1159 0 
L 581 0 
L 581 3500 
L 1159 3500 
L 1159 2956 
Q 1356 3278 1631 3431 
Q 1906 3584 2284 3584 
Q 2666 3584 2933 3390 
Q 3200 3197 3328 2828 
z
" transform="scale(0.015625)"/>
      <path id="DejaVuSans-6f" d="M 1959 3097 
Q 1497 3097 1228 2736 
Q 959 2375 959 1747 
Q 959 1119 1226 758 
Q 1494 397 1959 397 
Q 2419 397 2687 759 
Q 2956 1122 2956 1747 
Q 2956 2369 2687 2733 
Q 2419 3097 1959 3097 
z
M 1959 3584 
Q 2709 3584 3137 3096 
Q 3566 2609 3566 1747 
Q 3566 888 3137 398 
Q 2709 -91 1959 -91 
Q 1206 -91 779 398 
Q 353 888 353 1747 
Q 353 2609 779 3096 
Q 1206 3584 1959 3584 
z
" transform="scale(0.015625)"/>
      <path id="DejaVuSans-61" d="M 2194 1759 
Q 1497 1759 1228 1600 
Q 959 1441 959 1056 
Q 959 750 1161 570 
Q 1363 391 1709 391 
Q 2188 391 2477 730 
Q 2766 1069 2766 1631 
L 2766 1759 
L 2194 1759 
z
M 3341 1997 
L 3341 0 
L 2766 0 
L 2766 531 
Q 2569 213 2275 61 
Q 1981 -91 1556 -91 
Q 1019 -91 701 211 
Q 384 513 384 1019 
Q 384 1609 779 1909 
Q 1175 2209 1959 2209 
L 2766 2209 
L 2766 2266 
Q 2766 2663 2505 2880 
Q 2244 3097 1772 3097 
Q 1472 3097 1187 3025 
Q 903 2953 641 2809 
L 641 3341 
Q 956 3463 1253 3523 
Q 1550 3584 1831 3584 
Q 2591 3584 2966 3190 
Q 3341 2797 3341 1997 
z
" transform="scale(0.015625)"/>
      <path id="DejaVuSans-67" d="M 2906 1791 
Q 2906 2416 2648 2759 
Q 2391 3103 1925 3103 
Q 1463 3103 1205 2759 
Q 947 2416 947 1791 
Q 947 1169 1205 825 
Q 1463 481 1925 481 
Q 2391 481 2648 825 
Q 2906 1169 2906 1791 
z
M 3481 434 
Q 3481 -459 3084 -895 
Q 2688 -1331 1869 -1331 
Q 1566 -1331 1297 -1286 
Q 1028 -1241 775 -1147 
L 775 -588 
Q 1028 -725 1275 -790 
Q 1522 -856 1778 -856 
Q 2344 -856 2625 -561 
Q 2906 -266 2906 331 
L 2906 616 
Q 2728 306 2450 153 
Q 2172 0 1784 0 
Q 1141 0 747 490 
Q 353 981 353 1791 
Q 353 2603 747 3093 
Q 1141 3584 1784 3584 
Q 2172 3584 2450 3431 
Q 2728 3278 2906 2969 
L 2906 3500 
L 3481 3500 
L 3481 434 
z
" transform="scale(0.015625)"/>
      <path id="DejaVuSans-79" d="M 2059 -325 
Q 1816 -950 1584 -1140 
Q 1353 -1331 966 -1331 
L 506 -1331 
L 506 -850 
L 844 -850 
Q 1081 -850 1212 -737 
Q 1344 -625 1503 -206 
L 1606 56 
L 191 3500 
L 800 3500 
L 1894 763 
L 2988 3500 
L 3597 3500 
L 2059 -325 
z
" transform="scale(0.015625)"/>
      <path id="DejaVuSans-73" d="M 2834 3397 
L 2834 2853 
Q 2591 2978 2328 3040 
Q 2066 3103 1784 3103 
Q 1356 3103 1142 2972 
Q 928 2841 928 2578 
Q 928 2378 1081 2264 
Q 1234 2150 1697 2047 
L 1894 2003 
Q 2506 1872 2764 1633 
Q 3022 1394 3022 966 
Q 3022 478 2636 193 
Q 2250 -91 1575 -91 
Q 1294 -91 989 -36 
Q 684 19 347 128 
L 347 722 
Q 666 556 975 473 
Q 1284 391 1588 391 
Q 1994 391 2212 530 
Q 2431 669 2431 922 
Q 2431 1156 2273 1281 
Q 2116 1406 1581 1522 
L 1381 1569 
Q 847 1681 609 1914 
Q 372 2147 372 2553 
Q 372 3047 722 3315 
Q 1072 3584 1716 3584 
Q 2034 3584 2315 3537 
Q 2597 3491 2834 3397 
z
" transform="scale(0.015625)"/>
      <path id="DejaVuSans-6c" d="M 603 4863 
L 1178 4863 
L 1178 0 
L 603 0 
L 603 4863 
z
" transform="scale(0.015625)"/>
      <path id="DejaVuSans-7a" d="M 353 3500 
L 3084 3500 
L 3084 2975 
L 922 459 
L 3084 459 
L 3084 0 
L 275 0 
L 275 525 
L 2438 3041 
L 353 3041 
L 353 3500 
z
" transform="scale(0.015625)"/>
      <path id="DejaVuSans-4c" d="M 628 4666 
L 1259 4666 
L 1259 531 
L 3531 531 
L 3531 0 
L 628 0 
L 628 4666 
z
" transform="scale(0.015625)"/>
     </defs>
     <use xlink:href="#DejaVuSans-50"/>
     <use xlink:href="#DejaVuSans-72" x="58.552734"/>
     <use xlink:href="#DejaVuSans-65" x="97.416016"/>
     <use xlink:href="#DejaVuSans-64" x="158.939453"/>
     <use xlink:href="#DejaVuSans-69" x="222.416016"/>
     <use xlink:href="#DejaVuSans-63" x="250.199219"/>
     <use xlink:href="#DejaVuSans-74" x="305.179688"/>
     <use xlink:href="#DejaVuSans-69" x="344.388672"/>
     <use xlink:href="#DejaVuSans-69" x="372.171875"/>
     <use xlink:href="#DejaVuSans-20" x="399.955078"/>
     <use xlink:href="#DejaVuSans-63" x="431.742188"/>
     <use xlink:href="#DejaVuSans-75" x="486.722656"/>
     <use xlink:href="#DejaVuSans-20" x="550.101562"/>
     <use xlink:href="#DejaVuSans-6d" x="581.888672"/>
     <use xlink:href="#DejaVuSans-65" x="679.300781"/>
     <use xlink:href="#DejaVuSans-74" x="740.824219"/>
     <use xlink:href="#DejaVuSans-6f" x="780.033203"/>
     <use xlink:href="#DejaVuSans-64" x="841.214844"/>
     <use xlink:href="#DejaVuSans-61" x="904.691406"/>
     <use xlink:href="#DejaVuSans-20" x="965.970703"/>
     <use xlink:href="#DejaVuSans-67" x="997.757812"/>
     <use xlink:href="#DejaVuSans-72" x="1061.234375"/>
     <use xlink:href="#DejaVuSans-65" x="1100.097656"/>
     <use xlink:href="#DejaVuSans-65" x="1161.621094"/>
     <use xlink:href="#DejaVuSans-64" x="1223.144531"/>
     <use xlink:href="#DejaVuSans-79" x="1286.621094"/>
     <use xlink:href="#DejaVuSans-20" x="1345.800781"/>
     <use xlink:href="#DejaVuSans-73" x="1377.587891"/>
     <use xlink:href="#DejaVuSans-69" x="1429.6875"/>
     <use xlink:href="#DejaVuSans-20" x="1457.470703"/>
     <use xlink:href="#DejaVuSans-72" x="1489.257812"/>
     <use xlink:href="#DejaVuSans-65" x="1528.121094"/>
     <use xlink:href="#DejaVuSans-67" x="1589.644531"/>
     <use xlink:href="#DejaVuSans-75" x="1653.121094"/>
     <use xlink:href="#DejaVuSans-6c" x="1716.5"/>
     <use xlink:href="#DejaVuSans-61" x="1744.283203"/>
     <use xlink:href="#DejaVuSans-72" x="1805.5625"/>
     <use xlink:href="#DejaVuSans-69" x="1846.675781"/>
     <use xlink:href="#DejaVuSans-7a" x="1874.458984"/>
     <use xlink:href="#DejaVuSans-61" x="1926.949219"/>
     <use xlink:href="#DejaVuSans-72" x="1988.228516"/>
     <use xlink:href="#DejaVuSans-65" x="2027.091797"/>
     <use xlink:href="#DejaVuSans-20" x="2088.615234"/>
     <use xlink:href="#DejaVuSans-4c" x="2120.402344"/>
     <use xlink:href="#DejaVuSans-31" x="2176.115234"/>
    </g>
   </g>
  </g>
  <g id="legend_1">
   <g id="patch_7">
    <path d="M 261.625 52.034375 
L 453.8 52.034375 
Q 455.8 52.034375 455.8 50.034375 
L 455.8 7 
Q 455.8 5 453.8 5 
L 261.625 5 
Q 259.625 5 259.625 7 
L 259.625 50.034375 
Q 259.625 52.034375 261.625 52.034375 
z
" style="fill: #ffffff; opacity: 0.8; stroke: #cccccc; stroke-linejoin: miter"/>
   </g>
   <g id="line2d_18">
    <path d="M 263.625 13.098437 
L 273.625 13.098437 
L 283.625 13.098437 
" style="fill: none; stroke: #1f77b4; stroke-width: 1.5; stroke-linecap: square"/>
   </g>
   <g id="text_16">
    <!-- Serie timp originala -->
    <g transform="translate(291.625 16.598437) scale(0.1 -0.1)">
     <defs>
      <path id="DejaVuSans-53" d="M 3425 4513 
L 3425 3897 
Q 3066 4069 2747 4153 
Q 2428 4238 2131 4238 
Q 1616 4238 1336 4038 
Q 1056 3838 1056 3469 
Q 1056 3159 1242 3001 
Q 1428 2844 1947 2747 
L 2328 2669 
Q 3034 2534 3370 2195 
Q 3706 1856 3706 1288 
Q 3706 609 3251 259 
Q 2797 -91 1919 -91 
Q 1588 -91 1214 -16 
Q 841 59 441 206 
L 441 856 
Q 825 641 1194 531 
Q 1563 422 1919 422 
Q 2459 422 2753 634 
Q 3047 847 3047 1241 
Q 3047 1584 2836 1778 
Q 2625 1972 2144 2069 
L 1759 2144 
Q 1053 2284 737 2584 
Q 422 2884 422 3419 
Q 422 4038 858 4394 
Q 1294 4750 2059 4750 
Q 2388 4750 2728 4690 
Q 3069 4631 3425 4513 
z
" transform="scale(0.015625)"/>
      <path id="DejaVuSans-70" d="M 1159 525 
L 1159 -1331 
L 581 -1331 
L 581 3500 
L 1159 3500 
L 1159 2969 
Q 1341 3281 1617 3432 
Q 1894 3584 2278 3584 
Q 2916 3584 3314 3078 
Q 3713 2572 3713 1747 
Q 3713 922 3314 415 
Q 2916 -91 2278 -91 
Q 1894 -91 1617 61 
Q 1341 213 1159 525 
z
M 3116 1747 
Q 3116 2381 2855 2742 
Q 2594 3103 2138 3103 
Q 1681 3103 1420 2742 
Q 1159 2381 1159 1747 
Q 1159 1113 1420 752 
Q 1681 391 2138 391 
Q 2594 391 2855 752 
Q 3116 1113 3116 1747 
z
" transform="scale(0.015625)"/>
      <path id="DejaVuSans-6e" d="M 3513 2113 
L 3513 0 
L 2938 0 
L 2938 2094 
Q 2938 2591 2744 2837 
Q 2550 3084 2163 3084 
Q 1697 3084 1428 2787 
Q 1159 2491 1159 1978 
L 1159 0 
L 581 0 
L 581 3500 
L 1159 3500 
L 1159 2956 
Q 1366 3272 1645 3428 
Q 1925 3584 2291 3584 
Q 2894 3584 3203 3211 
Q 3513 2838 3513 2113 
z
" transform="scale(0.015625)"/>
     </defs>
     <use xlink:href="#DejaVuSans-53"/>
     <use xlink:href="#DejaVuSans-65" x="63.476562"/>
     <use xlink:href="#DejaVuSans-72" x="125"/>
     <use xlink:href="#DejaVuSans-69" x="166.113281"/>
     <use xlink:href="#DejaVuSans-65" x="193.896484"/>
     <use xlink:href="#DejaVuSans-20" x="255.419922"/>
     <use xlink:href="#DejaVuSans-74" x="287.207031"/>
     <use xlink:href="#DejaVuSans-69" x="326.416016"/>
     <use xlink:href="#DejaVuSans-6d" x="354.199219"/>
     <use xlink:href="#DejaVuSans-70" x="451.611328"/>
     <use xlink:href="#DejaVuSans-20" x="515.087891"/>
     <use xlink:href="#DejaVuSans-6f" x="546.875"/>
     <use xlink:href="#DejaVuSans-72" x="608.056641"/>
     <use xlink:href="#DejaVuSans-69" x="649.169922"/>
     <use xlink:href="#DejaVuSans-67" x="676.953125"/>
     <use xlink:href="#DejaVuSans-69" x="740.429688"/>
     <use xlink:href="#DejaVuSans-6e" x="768.212891"/>
     <use xlink:href="#DejaVuSans-61" x="831.591797"/>
     <use xlink:href="#DejaVuSans-6c" x="892.871094"/>
     <use xlink:href="#DejaVuSans-61" x="920.654297"/>
    </g>
   </g>
   <g id="line2d_19">
    <path d="M 263.625 27.776563 
L 273.625 27.776563 
L 283.625 27.776563 
" style="fill: none; stroke: #ff7f0e; stroke-width: 1.5; stroke-linecap: square"/>
   </g>
   <g id="text_17">
    <!-- Valori prezise cu greedy -->
    <g transform="translate(291.625 31.276563) scale(0.1 -0.1)">
     <defs>
      <path id="DejaVuSans-56" d="M 1831 0 
L 50 4666 
L 709 4666 
L 2188 738 
L 3669 4666 
L 4325 4666 
L 2547 0 
L 1831 0 
z
" transform="scale(0.015625)"/>
     </defs>
     <use xlink:href="#DejaVuSans-56"/>
     <use xlink:href="#DejaVuSans-61" x="60.658203"/>
     <use xlink:href="#DejaVuSans-6c" x="121.9375"/>
     <use xlink:href="#DejaVuSans-6f" x="149.720703"/>
     <use xlink:href="#DejaVuSans-72" x="210.902344"/>
     <use xlink:href="#DejaVuSans-69" x="252.015625"/>
     <use xlink:href="#DejaVuSans-20" x="279.798828"/>
     <use xlink:href="#DejaVuSans-70" x="311.585938"/>
     <use xlink:href="#DejaVuSans-72" x="375.0625"/>
     <use xlink:href="#DejaVuSans-65" x="413.925781"/>
     <use xlink:href="#DejaVuSans-7a" x="475.449219"/>
     <use xlink:href="#DejaVuSans-69" x="527.939453"/>
     <use xlink:href="#DejaVuSans-73" x="555.722656"/>
     <use xlink:href="#DejaVuSans-65" x="607.822266"/>
     <use xlink:href="#DejaVuSans-20" x="669.345703"/>
     <use xlink:href="#DejaVuSans-63" x="701.132812"/>
     <use xlink:href="#DejaVuSans-75" x="756.113281"/>
     <use xlink:href="#DejaVuSans-20" x="819.492188"/>
     <use xlink:href="#DejaVuSans-67" x="851.279297"/>
     <use xlink:href="#DejaVuSans-72" x="914.755859"/>
     <use xlink:href="#DejaVuSans-65" x="953.619141"/>
     <use xlink:href="#DejaVuSans-65" x="1015.142578"/>
     <use xlink:href="#DejaVuSans-64" x="1076.666016"/>
     <use xlink:href="#DejaVuSans-79" x="1140.142578"/>
    </g>
   </g>
   <g id="line2d_20">
    <path d="M 263.625 42.454687 
L 273.625 42.454687 
L 283.625 42.454687 
" style="fill: none; stroke: #2ca02c; stroke-width: 1.5; stroke-linecap: square"/>
   </g>
   <g id="text_18">
    <!-- Valori prezise cu regularizare L1 -->
    <g transform="translate(291.625 45.954687) scale(0.1 -0.1)">
     <use xlink:href="#DejaVuSans-56"/>
     <use xlink:href="#DejaVuSans-61" x="60.658203"/>
     <use xlink:href="#DejaVuSans-6c" x="121.9375"/>
     <use xlink:href="#DejaVuSans-6f" x="149.720703"/>
     <use xlink:href="#DejaVuSans-72" x="210.902344"/>
     <use xlink:href="#DejaVuSans-69" x="252.015625"/>
     <use xlink:href="#DejaVuSans-20" x="279.798828"/>
     <use xlink:href="#DejaVuSans-70" x="311.585938"/>
     <use xlink:href="#DejaVuSans-72" x="375.0625"/>
     <use xlink:href="#DejaVuSans-65" x="413.925781"/>
     <use xlink:href="#DejaVuSans-7a" x="475.449219"/>
     <use xlink:href="#DejaVuSans-69" x="527.939453"/>
     <use xlink:href="#DejaVuSans-73" x="555.722656"/>
     <use xlink:href="#DejaVuSans-65" x="607.822266"/>
     <use xlink:href="#DejaVuSans-20" x="669.345703"/>
     <use xlink:href="#DejaVuSans-63" x="701.132812"/>
     <use xlink:href="#DejaVuSans-75" x="756.113281"/>
     <use xlink:href="#DejaVuSans-20" x="819.492188"/>
     <use xlink:href="#DejaVuSans-72" x="851.279297"/>
     <use xlink:href="#DejaVuSans-65" x="890.142578"/>
     <use xlink:href="#DejaVuSans-67" x="951.666016"/>
     <use xlink:href="#DejaVuSans-75" x="1015.142578"/>
     <use xlink:href="#DejaVuSans-6c" x="1078.521484"/>
     <use xlink:href="#DejaVuSans-61" x="1106.304688"/>
     <use xlink:href="#DejaVuSans-72" x="1167.583984"/>
     <use xlink:href="#DejaVuSans-69" x="1208.697266"/>
     <use xlink:href="#DejaVuSans-7a" x="1236.480469"/>
     <use xlink:href="#DejaVuSans-61" x="1288.970703"/>
     <use xlink:href="#DejaVuSans-72" x="1350.25"/>
     <use xlink:href="#DejaVuSans-65" x="1389.113281"/>
     <use xlink:href="#DejaVuSans-20" x="1450.636719"/>
     <use xlink:href="#DejaVuSans-4c" x="1482.423828"/>
     <use xlink:href="#DejaVuSans-31" x="1538.136719"/>
    </g>
   </g>
  </g>
 </g>
 <defs>
  <clipPath id="pa48a345171">
   <rect x="57.6" y="41.472" width="357.12" height="266.112"/>
  </clipPath>
 </defs>
</svg>
