<?xml version="1.0" encoding="utf-8" standalone="no"?>
<!DOCTYPE svg PUBLIC "-//W3C//DTD SVG 1.1//EN"
  "http://www.w3.org/Graphics/SVG/1.1/DTD/svg11.dtd">
<svg xmlns:xlink="http://www.w3.org/1999/xlink" width="460.8pt" height="345.6pt" viewBox="0 0 460.8 345.6" xmlns="http://www.w3.org/2000/svg" version="1.1">
 <metadata>
  <rdf:RDF xmlns:dc="http://purl.org/dc/elements/1.1/" xmlns:cc="http://creativecommons.org/ns#" xmlns:rdf="http://www.w3.org/1999/02/22-rdf-syntax-ns#">
   <cc:Work>
    <dc:type rdf:resource="http://purl.org/dc/dcmitype/StillImage"/>
    <dc:date>2024-12-28T16:34:13.828238</dc:date>
    <dc:format>image/svg+xml</dc:format>
    <dc:creator>
     <cc:Agent>
      <dc:title>Matplotlib v3.9.2, https://matplotlib.org/</dc:title>
     </cc:Agent>
    </dc:creator>
   </cc:Work>
  </rdf:RDF>
 </metadata>
 <defs>
  <style type="text/css">*{stroke-linejoin: round; stroke-linecap: butt}</style>
 </defs>
 <g id="figure_1">
  <g id="patch_1">
   <path d="M 0 345.6 
L 460.8 345.6 
L 460.8 0 
L 0 0 
z
" style="fill: #ffffff"/>
  </g>
  <g id="axes_1">
   <g id="patch_2">
    <path d="M 57.6 207.36 
L 414.72 207.36 
L 414.72 41.472 
L 57.6 41.472 
z
" style="fill: #ffffff"/>
   </g>
   <g id="matplotlib.axis_1">
    <g id="xtick_1">
     <g id="line2d_1">
      <defs>
       <path id="ma041108977" d="M 0 0 
L 0 3.5 
" style="stroke: #000000; stroke-width: 0.8"/>
      </defs>
      <g>
       <use xlink:href="#ma041108977" x="73.832727" y="207.36" style="stroke: #000000; stroke-width: 0.8"/>
      </g>
     </g>
     <g id="text_1">
      <!-- 0 -->
      <g transform="translate(70.651477 221.958438) scale(0.1 -0.1)">
       <defs>
        <path id="DejaVuSans-30" d="M 2034 4250 
Q 1547 4250 1301 3770 
Q 1056 3291 1056 2328 
Q 1056 1369 1301 889 
Q 1547 409 2034 409 
Q 2525 409 2770 889 
Q 3016 1369 3016 2328 
Q 3016 3291 2770 3770 
Q 2525 4250 2034 4250 
z
M 2034 4750 
Q 2819 4750 3233 4129 
Q 3647 3509 3647 2328 
Q 3647 1150 3233 529 
Q 2819 -91 2034 -91 
Q 1250 -91 836 529 
Q 422 1150 422 2328 
Q 422 3509 836 4129 
Q 1250 4750 2034 4750 
z
" transform="scale(0.015625)"/>
       </defs>
       <use xlink:href="#DejaVuSans-30"/>
      </g>
     </g>
    </g>
    <g id="xtick_2">
     <g id="line2d_2">
      <g>
       <use xlink:href="#ma041108977" x="138.828632" y="207.36" style="stroke: #000000; stroke-width: 0.8"/>
      </g>
     </g>
     <g id="text_2">
      <!-- 200 -->
      <g transform="translate(129.284882 221.958438) scale(0.1 -0.1)">
       <defs>
        <path id="DejaVuSans-32" d="M 1228 531 
L 3431 531 
L 3431 0 
L 469 0 
L 469 531 
Q 828 903 1448 1529 
Q 2069 2156 2228 2338 
Q 2531 2678 2651 2914 
Q 2772 3150 2772 3378 
Q 2772 3750 2511 3984 
Q 2250 4219 1831 4219 
Q 1534 4219 1204 4116 
Q 875 4013 500 3803 
L 500 4441 
Q 881 4594 1212 4672 
Q 1544 4750 1819 4750 
Q 2544 4750 2975 4387 
Q 3406 4025 3406 3419 
Q 3406 3131 3298 2873 
Q 3191 2616 2906 2266 
Q 2828 2175 2409 1742 
Q 1991 1309 1228 531 
z
" transform="scale(0.015625)"/>
       </defs>
       <use xlink:href="#DejaVuSans-32"/>
       <use xlink:href="#DejaVuSans-30" x="63.623047"/>
       <use xlink:href="#DejaVuSans-30" x="127.246094"/>
      </g>
     </g>
    </g>
    <g id="xtick_3">
     <g id="line2d_3">
      <g>
       <use xlink:href="#ma041108977" x="203.824537" y="207.36" style="stroke: #000000; stroke-width: 0.8"/>
      </g>
     </g>
     <g id="text_3">
      <!-- 400 -->
      <g transform="translate(194.280787 221.958438) scale(0.1 -0.1)">
       <defs>
        <path id="DejaVuSans-34" d="M 2419 4116 
L 825 1625 
L 2419 1625 
L 2419 4116 
z
M 2253 4666 
L 3047 4666 
L 3047 1625 
L 3713 1625 
L 3713 1100 
L 3047 1100 
L 3047 0 
L 2419 0 
L 2419 1100 
L 313 1100 
L 313 1709 
L 2253 4666 
z
" transform="scale(0.015625)"/>
       </defs>
       <use xlink:href="#DejaVuSans-34"/>
       <use xlink:href="#DejaVuSans-30" x="63.623047"/>
       <use xlink:href="#DejaVuSans-30" x="127.246094"/>
      </g>
     </g>
    </g>
    <g id="xtick_4">
     <g id="line2d_4">
      <g>
       <use xlink:href="#ma041108977" x="268.820442" y="207.36" style="stroke: #000000; stroke-width: 0.8"/>
      </g>
     </g>
     <g id="text_4">
      <!-- 600 -->
      <g transform="translate(259.276692 221.958438) scale(0.1 -0.1)">
       <defs>
        <path id="DejaVuSans-36" d="M 2113 2584 
Q 1688 2584 1439 2293 
Q 1191 2003 1191 1497 
Q 1191 994 1439 701 
Q 1688 409 2113 409 
Q 2538 409 2786 701 
Q 3034 994 3034 1497 
Q 3034 2003 2786 2293 
Q 2538 2584 2113 2584 
z
M 3366 4563 
L 3366 3988 
Q 3128 4100 2886 4159 
Q 2644 4219 2406 4219 
Q 1781 4219 1451 3797 
Q 1122 3375 1075 2522 
Q 1259 2794 1537 2939 
Q 1816 3084 2150 3084 
Q 2853 3084 3261 2657 
Q 3669 2231 3669 1497 
Q 3669 778 3244 343 
Q 2819 -91 2113 -91 
Q 1303 -91 875 529 
Q 447 1150 447 2328 
Q 447 3434 972 4092 
Q 1497 4750 2381 4750 
Q 2619 4750 2861 4703 
Q 3103 4656 3366 4563 
z
" transform="scale(0.015625)"/>
       </defs>
       <use xlink:href="#DejaVuSans-36"/>
       <use xlink:href="#DejaVuSans-30" x="63.623047"/>
       <use xlink:href="#DejaVuSans-30" x="127.246094"/>
      </g>
     </g>
    </g>
    <g id="xtick_5">
     <g id="line2d_5">
      <g>
       <use xlink:href="#ma041108977" x="333.816347" y="207.36" style="stroke: #000000; stroke-width: 0.8"/>
      </g>
     </g>
     <g id="text_5">
      <!-- 800 -->
      <g transform="translate(324.272597 221.958438) scale(0.1 -0.1)">
       <defs>
        <path id="DejaVuSans-38" d="M 2034 2216 
Q 1584 2216 1326 1975 
Q 1069 1734 1069 1313 
Q 1069 891 1326 650 
Q 1584 409 2034 409 
Q 2484 409 2743 651 
Q 3003 894 3003 1313 
Q 3003 1734 2745 1975 
Q 2488 2216 2034 2216 
z
M 1403 2484 
Q 997 2584 770 2862 
Q 544 3141 544 3541 
Q 544 4100 942 4425 
Q 1341 4750 2034 4750 
Q 2731 4750 3128 4425 
Q 3525 4100 3525 3541 
Q 3525 3141 3298 2862 
Q 3072 2584 2669 2484 
Q 3125 2378 3379 2068 
Q 3634 1759 3634 1313 
Q 3634 634 3220 271 
Q 2806 -91 2034 -91 
Q 1263 -91 848 271 
Q 434 634 434 1313 
Q 434 1759 690 2068 
Q 947 2378 1403 2484 
z
M 1172 3481 
Q 1172 3119 1398 2916 
Q 1625 2713 2034 2713 
Q 2441 2713 2670 2916 
Q 2900 3119 2900 3481 
Q 2900 3844 2670 4047 
Q 2441 4250 2034 4250 
Q 1625 4250 1398 4047 
Q 1172 3844 1172 3481 
z
" transform="scale(0.015625)"/>
       </defs>
       <use xlink:href="#DejaVuSans-38"/>
       <use xlink:href="#DejaVuSans-30" x="63.623047"/>
       <use xlink:href="#DejaVuSans-30" x="127.246094"/>
      </g>
     </g>
    </g>
    <g id="xtick_6">
     <g id="line2d_6">
      <g>
       <use xlink:href="#ma041108977" x="398.812252" y="207.36" style="stroke: #000000; stroke-width: 0.8"/>
      </g>
     </g>
     <g id="text_6">
      <!-- 1000 -->
      <g transform="translate(386.087252 221.958438) scale(0.1 -0.1)">
       <defs>
        <path id="DejaVuSans-31" d="M 794 531 
L 1825 531 
L 1825 4091 
L 703 3866 
L 703 4441 
L 1819 4666 
L 2450 4666 
L 2450 531 
L 3481 531 
L 3481 0 
L 794 0 
L 794 531 
z
" transform="scale(0.015625)"/>
       </defs>
       <use xlink:href="#DejaVuSans-31"/>
       <use xlink:href="#DejaVuSans-30" x="63.623047"/>
       <use xlink:href="#DejaVuSans-30" x="127.246094"/>
       <use xlink:href="#DejaVuSans-30" x="190.869141"/>
      </g>
     </g>
    </g>
   </g>
   <g id="matplotlib.axis_2">
    <g id="ytick_1">
     <g id="line2d_7">
      <defs>
       <path id="mabf967dc11" d="M 0 0 
L -3.5 0 
" style="stroke: #000000; stroke-width: 0.8"/>
      </defs>
      <g>
       <use xlink:href="#mabf967dc11" x="57.6" y="202.156124" style="stroke: #000000; stroke-width: 0.8"/>
      </g>
     </g>
     <g id="text_7">
      <!-- 1.0 -->
      <g transform="translate(34.696875 205.955343) scale(0.1 -0.1)">
       <defs>
        <path id="DejaVuSans-2e" d="M 684 794 
L 1344 794 
L 1344 0 
L 684 0 
L 684 794 
z
" transform="scale(0.015625)"/>
       </defs>
       <use xlink:href="#DejaVuSans-31"/>
       <use xlink:href="#DejaVuSans-2e" x="63.623047"/>
       <use xlink:href="#DejaVuSans-30" x="95.410156"/>
      </g>
     </g>
    </g>
    <g id="ytick_2">
     <g id="line2d_8">
      <g>
       <use xlink:href="#mabf967dc11" x="57.6" y="177.613816" style="stroke: #000000; stroke-width: 0.8"/>
      </g>
     </g>
     <g id="text_8">
      <!-- 1.5 -->
      <g transform="translate(34.696875 181.413035) scale(0.1 -0.1)">
       <defs>
        <path id="DejaVuSans-35" d="M 691 4666 
L 3169 4666 
L 3169 4134 
L 1269 4134 
L 1269 2991 
Q 1406 3038 1543 3061 
Q 1681 3084 1819 3084 
Q 2600 3084 3056 2656 
Q 3513 2228 3513 1497 
Q 3513 744 3044 326 
Q 2575 -91 1722 -91 
Q 1428 -91 1123 -41 
Q 819 9 494 109 
L 494 744 
Q 775 591 1075 516 
Q 1375 441 1709 441 
Q 2250 441 2565 725 
Q 2881 1009 2881 1497 
Q 2881 1984 2565 2268 
Q 2250 2553 1709 2553 
Q 1456 2553 1204 2497 
Q 953 2441 691 2322 
L 691 4666 
z
" transform="scale(0.015625)"/>
       </defs>
       <use xlink:href="#DejaVuSans-31"/>
       <use xlink:href="#DejaVuSans-2e" x="63.623047"/>
       <use xlink:href="#DejaVuSans-35" x="95.410156"/>
      </g>
     </g>
    </g>
    <g id="ytick_3">
     <g id="line2d_9">
      <g>
       <use xlink:href="#mabf967dc11" x="57.6" y="153.071508" style="stroke: #000000; stroke-width: 0.8"/>
      </g>
     </g>
     <g id="text_9">
      <!-- 2.0 -->
      <g transform="translate(34.696875 156.870727) scale(0.1 -0.1)">
       <use xlink:href="#DejaVuSans-32"/>
       <use xlink:href="#DejaVuSans-2e" x="63.623047"/>
       <use xlink:href="#DejaVuSans-30" x="95.410156"/>
      </g>
     </g>
    </g>
    <g id="ytick_4">
     <g id="line2d_10">
      <g>
       <use xlink:href="#mabf967dc11" x="57.6" y="128.529201" style="stroke: #000000; stroke-width: 0.8"/>
      </g>
     </g>
     <g id="text_10">
      <!-- 2.5 -->
      <g transform="translate(34.696875 132.328419) scale(0.1 -0.1)">
       <use xlink:href="#DejaVuSans-32"/>
       <use xlink:href="#DejaVuSans-2e" x="63.623047"/>
       <use xlink:href="#DejaVuSans-35" x="95.410156"/>
      </g>
     </g>
    </g>
    <g id="ytick_5">
     <g id="line2d_11">
      <g>
       <use xlink:href="#mabf967dc11" x="57.6" y="103.986893" style="stroke: #000000; stroke-width: 0.8"/>
      </g>
     </g>
     <g id="text_11">
      <!-- 3.0 -->
      <g transform="translate(34.696875 107.786111) scale(0.1 -0.1)">
       <defs>
        <path id="DejaVuSans-33" d="M 2597 2516 
Q 3050 2419 3304 2112 
Q 3559 1806 3559 1356 
Q 3559 666 3084 287 
Q 2609 -91 1734 -91 
Q 1441 -91 1130 -33 
Q 819 25 488 141 
L 488 750 
Q 750 597 1062 519 
Q 1375 441 1716 441 
Q 2309 441 2620 675 
Q 2931 909 2931 1356 
Q 2931 1769 2642 2001 
Q 2353 2234 1838 2234 
L 1294 2234 
L 1294 2753 
L 1863 2753 
Q 2328 2753 2575 2939 
Q 2822 3125 2822 3475 
Q 2822 3834 2567 4026 
Q 2313 4219 1838 4219 
Q 1578 4219 1281 4162 
Q 984 4106 628 3988 
L 628 4550 
Q 988 4650 1302 4700 
Q 1616 4750 1894 4750 
Q 2613 4750 3031 4423 
Q 3450 4097 3450 3541 
Q 3450 3153 3228 2886 
Q 3006 2619 2597 2516 
z
" transform="scale(0.015625)"/>
       </defs>
       <use xlink:href="#DejaVuSans-33"/>
       <use xlink:href="#DejaVuSans-2e" x="63.623047"/>
       <use xlink:href="#DejaVuSans-30" x="95.410156"/>
      </g>
     </g>
    </g>
    <g id="ytick_6">
     <g id="line2d_12">
      <g>
       <use xlink:href="#mabf967dc11" x="57.6" y="79.444585" style="stroke: #000000; stroke-width: 0.8"/>
      </g>
     </g>
     <g id="text_12">
      <!-- 3.5 -->
      <g transform="translate(34.696875 83.243804) scale(0.1 -0.1)">
       <use xlink:href="#DejaVuSans-33"/>
       <use xlink:href="#DejaVuSans-2e" x="63.623047"/>
       <use xlink:href="#DejaVuSans-35" x="95.410156"/>
      </g>
     </g>
    </g>
    <g id="ytick_7">
     <g id="line2d_13">
      <g>
       <use xlink:href="#mabf967dc11" x="57.6" y="54.902277" style="stroke: #000000; stroke-width: 0.8"/>
      </g>
     </g>
     <g id="text_13">
      <!-- 4.0 -->
      <g transform="translate(34.696875 58.701496) scale(0.1 -0.1)">
       <use xlink:href="#DejaVuSans-34"/>
       <use xlink:href="#DejaVuSans-2e" x="63.623047"/>
       <use xlink:href="#DejaVuSans-30" x="95.410156"/>
      </g>
     </g>
    </g>
   </g>
   <g id="line2d_14">
    <path d="M 73.832727 199.819636 
L 74.157707 197.055883 
L 74.482686 196.554157 
L 74.807666 198.427242 
L 75.132645 198.544872 
L 75.457625 197.199552 
L 75.782604 198.709333 
L 76.107584 197.24683 
L 76.432563 196.669223 
L 76.757543 192.637214 
L 77.082523 192.657973 
L 77.407502 195.185106 
L 77.732482 192.059926 
L 78.057461 192.882831 
L 78.382441 192.129042 
L 78.70742 193.340249 
L 79.0324 191.18751 
L 79.357379 189.804563 
L 79.682359 190.521236 
L 80.007338 190.34012 
L 80.332318 189.405223 
L 80.657297 188.080737 
L 80.982277 186.147371 
L 81.307256 186.732084 
L 81.632236 188.992186 
L 81.957215 186.321801 
L 82.282195 184.904879 
L 82.607174 185.02088 
L 82.932154 186.920315 
L 83.257133 186.790186 
L 83.582113 183.064565 
L 83.907093 187.029834 
L 84.232072 186.334878 
L 84.557052 183.705139 
L 84.882031 184.411163 
L 85.207011 185.691425 
L 85.53199 181.452909 
L 85.85697 182.713041 
L 86.181949 183.095745 
L 86.506929 184.900489 
L 86.831908 183.856511 
L 87.156888 181.401534 
L 87.481867 182.286384 
L 87.806847 182.480989 
L 88.131826 182.832035 
L 88.456806 181.004895 
L 88.781785 182.992954 
L 89.106765 183.827832 
L 89.431744 181.805978 
L 89.756724 181.564236 
L 90.406683 179.786758 
L 90.731663 181.25943 
L 91.056642 179.301699 
L 91.381622 181.757415 
L 91.706601 179.450188 
L 92.031581 183.105868 
L 92.35656 179.625437 
L 92.68154 179.883026 
L 93.006519 180.74118 
L 93.331499 182.975404 
L 93.656478 183.21187 
L 93.981458 183.073483 
L 94.306437 179.688826 
L 94.631417 181.143609 
L 94.956396 179.91708 
L 95.281376 181.537352 
L 95.606355 182.552044 
L 95.931335 182.55612 
L 96.256314 183.449263 
L 96.581294 185.324538 
L 96.906274 183.483673 
L 97.231253 183.70539 
L 97.556233 184.906745 
L 97.881212 181.578776 
L 98.531171 184.783378 
L 98.856151 186.967347 
L 99.18113 183.986998 
L 99.50611 182.764054 
L 100.156069 187.755409 
L 100.806028 185.836704 
L 101.131007 186.669243 
L 101.455987 188.673516 
L 101.780966 186.07894 
L 102.105946 185.333183 
L 102.430925 186.819617 
L 102.755905 187.16107 
L 103.405864 188.323364 
L 103.730844 186.636436 
L 104.380803 190.28486 
L 104.705782 187.45466 
L 105.030762 190.816726 
L 105.355741 188.215032 
L 105.680721 188.089869 
L 106.0057 189.284022 
L 106.33068 192.724936 
L 106.655659 189.350625 
L 106.980639 193.097298 
L 107.305618 191.031899 
L 107.630598 191.05793 
L 107.955577 189.377322 
L 108.280557 190.139684 
L 108.605536 192.92244 
L 108.930516 190.022709 
L 109.255495 192.629845 
L 109.580475 190.797918 
L 109.905455 193.054889 
L 110.555414 190.642604 
L 110.880393 192.043794 
L 111.205373 192.759606 
L 111.530352 193.185609 
L 111.855332 192.848351 
L 112.180311 192.683719 
L 112.505291 193.01335 
L 112.83027 194.076549 
L 113.15525 192.057197 
L 113.480229 192.960678 
L 113.805209 191.121859 
L 114.130188 190.973819 
L 114.455168 194.474372 
L 114.780147 195.356264 
L 115.105127 192.618465 
L 115.430106 192.733762 
L 115.755086 194.540683 
L 116.080066 194.271471 
L 116.405045 193.058259 
L 116.730025 191.251899 
L 117.055004 191.10002 
L 117.379984 190.324714 
L 117.704963 192.342923 
L 118.029943 193.292818 
L 118.354922 189.527136 
L 118.679902 189.568097 
L 119.004881 193.169085 
L 119.329861 189.136702 
L 119.65484 189.330457 
L 119.97982 188.276152 
L 120.304799 192.267764 
L 120.629779 188.860183 
L 120.954758 187.322918 
L 121.279738 189.478963 
L 121.604717 188.597731 
L 121.929697 189.28501 
L 122.254676 187.872521 
L 122.579656 189.772207 
L 122.904636 187.084859 
L 123.229615 188.97428 
L 123.554595 188.455595 
L 123.879574 185.049776 
L 124.204554 185.318703 
L 124.529533 188.112892 
L 124.854513 185.136102 
L 125.179492 187.127649 
L 125.504472 187.311462 
L 125.829451 184.466626 
L 126.154431 183.451842 
L 126.47941 185.842853 
L 126.80439 183.948774 
L 127.129369 180.938048 
L 127.779328 184.256682 
L 128.104308 181.107937 
L 128.429287 179.36576 
L 128.754267 178.778137 
L 129.079247 179.637683 
L 129.404226 178.405359 
L 130.054185 180.887152 
L 130.379165 180.984993 
L 131.029124 176.65989 
L 131.354103 178.589153 
L 131.679083 177.449674 
L 132.004062 179.386063 
L 132.329042 177.274287 
L 132.654021 178.892955 
L 132.979001 176.875001 
L 133.30398 177.914507 
L 133.62896 176.567771 
L 133.953939 176.918287 
L 134.278919 176.047499 
L 134.603898 174.377761 
L 134.928878 175.208895 
L 135.253857 171.928679 
L 135.578837 176.014806 
L 135.903817 173.035989 
L 136.228796 173.510587 
L 136.553776 170.682509 
L 136.878755 173.953118 
L 137.203735 172.002747 
L 137.528714 173.827691 
L 137.853694 173.881982 
L 138.503653 172.312715 
L 138.828632 170.083765 
L 139.153612 169.072648 
L 139.803571 170.384996 
L 140.12855 169.925848 
L 140.45353 171.269028 
L 140.778509 170.157069 
L 141.103489 169.515526 
L 141.428468 171.356315 
L 141.753448 170.607418 
L 142.078428 172.118017 
L 142.403407 169.273845 
L 142.728387 172.713285 
L 143.053366 168.77179 
L 143.378346 170.122969 
L 143.703325 172.970074 
L 144.028305 169.896281 
L 144.353284 168.87731 
L 144.678264 173.235752 
L 145.003243 172.342589 
L 145.328223 168.937329 
L 145.653202 169.350825 
L 145.978182 170.130035 
L 146.303161 171.616014 
L 146.628141 169.630422 
L 146.95312 169.195999 
L 147.603079 173.535997 
L 147.928059 173.977383 
L 148.253038 171.63973 
L 148.578018 171.925053 
L 148.902998 170.193248 
L 149.552957 174.821269 
L 149.877936 174.478664 
L 150.202916 173.06832 
L 150.527895 172.426157 
L 150.852875 175.33218 
L 151.177854 173.870877 
L 151.502834 173.319594 
L 151.827813 176.661973 
L 152.152793 174.049577 
L 152.477772 174.112498 
L 153.452711 175.175622 
L 153.77769 175.770598 
L 154.10267 175.861403 
L 154.427649 175.308892 
L 154.752629 174.979753 
L 155.077609 176.088032 
L 155.402588 178.024486 
L 155.727568 177.158586 
L 156.052547 175.888815 
L 156.377527 178.635386 
L 156.702506 179.166022 
L 157.027486 176.266601 
L 157.352465 179.994979 
L 157.677445 178.774904 
L 158.002424 179.91133 
L 158.327404 178.437347 
L 158.652383 181.967294 
L 158.977363 181.776145 
L 159.302342 180.836444 
L 159.627322 178.369305 
L 159.952301 182.2418 
L 160.277281 182.503185 
L 160.60226 179.247328 
L 160.92724 181.812339 
L 161.252219 178.733921 
L 161.577199 179.971009 
L 161.902179 179.284583 
L 162.227158 179.360671 
L 162.552138 178.846368 
L 162.877117 179.030369 
L 163.202097 179.568573 
L 163.527076 181.030265 
L 163.852056 181.224322 
L 164.177035 179.327225 
L 164.502015 182.116887 
L 164.826994 179.998686 
L 165.151974 181.510302 
L 165.801933 178.939857 
L 166.126912 183.34257 
L 166.451892 178.702916 
L 166.776871 179.167678 
L 167.101851 182.070091 
L 167.42683 183.184209 
L 167.75181 182.364169 
L 168.07679 180.114348 
L 168.401769 181.509453 
L 168.726749 179.849567 
L 169.051728 181.897681 
L 169.376708 177.684424 
L 169.701687 181.072407 
L 170.026667 181.073373 
L 170.676626 178.635978 
L 171.001605 175.979678 
L 171.326585 179.021445 
L 171.651564 175.555849 
L 171.976544 177.908817 
L 172.301523 178.652454 
L 172.626503 174.53119 
L 172.951482 177.335274 
L 173.276462 177.244497 
L 173.601441 175.291885 
L 173.926421 174.169962 
L 174.2514 174.056364 
L 174.90136 172.183833 
L 175.226339 171.755587 
L 175.551319 170.497528 
L 175.876298 174.065412 
L 176.201278 171.999619 
L 176.526257 171.968577 
L 177.176216 169.143837 
L 177.501196 171.060746 
L 177.826175 170.992404 
L 178.151155 166.982343 
L 178.476134 166.153614 
L 178.801114 167.273404 
L 179.126093 167.804132 
L 179.776052 167.129437 
L 180.101032 163.080491 
L 180.426011 162.678188 
L 180.750991 165.894425 
L 181.075971 162.330189 
L 181.40095 162.364038 
L 181.72593 161.22805 
L 182.050909 162.815266 
L 182.375889 159.88568 
L 182.700868 159.86347 
L 183.025848 161.120727 
L 183.350827 157.258632 
L 183.675807 157.950134 
L 184.000786 159.166768 
L 184.325766 159.205635 
L 184.650745 155.306886 
L 184.975725 158.383654 
L 185.300704 153.674877 
L 185.625684 156.998995 
L 185.950663 154.095827 
L 186.275643 156.159312 
L 186.600622 153.56417 
L 186.925602 153.010841 
L 187.575561 150.401129 
L 187.900541 149.221609 
L 188.22552 149.760685 
L 188.5505 149.166859 
L 188.875479 149.941346 
L 189.200459 149.569835 
L 189.525438 151.039864 
L 189.850418 149.990553 
L 190.175397 148.392382 
L 190.500377 145.930372 
L 190.825356 145.022093 
L 191.475315 148.102393 
L 191.800295 147.712651 
L 192.125274 147.111017 
L 192.450254 145.27769 
L 192.775233 145.554279 
L 193.100213 146.617426 
L 193.425192 144.054318 
L 193.750172 143.839893 
L 194.075152 142.015759 
L 194.400131 141.913736 
L 194.725111 143.797407 
L 195.05009 141.059302 
L 195.37507 145.184055 
L 196.025029 141.974105 
L 196.350008 144.666333 
L 196.674988 140.53138 
L 196.999967 143.99816 
L 197.324947 139.968351 
L 197.649926 139.325682 
L 197.974906 140.959366 
L 198.299885 139.467402 
L 198.624865 142.943151 
L 198.949844 140.319636 
L 199.274824 142.148354 
L 199.599803 142.46861 
L 199.924783 140.617899 
L 200.249762 141.938858 
L 200.574742 141.003391 
L 200.899722 141.785569 
L 201.224701 141.894053 
L 201.549681 140.057612 
L 201.87466 139.774275 
L 202.19964 140.719663 
L 202.524619 139.888382 
L 202.849599 142.618781 
L 203.174578 139.853142 
L 203.499558 143.857314 
L 204.149517 141.49433 
L 204.474496 144.528856 
L 204.799476 141.00495 
L 205.124455 143.682737 
L 205.449435 142.602921 
L 205.774414 145.405358 
L 206.099394 143.640835 
L 206.424373 144.447814 
L 206.749353 144.318972 
L 207.074333 144.907546 
L 207.399312 142.273135 
L 207.724292 145.448913 
L 208.049271 143.680602 
L 208.374251 145.63201 
L 208.69923 143.029627 
L 209.02421 145.190756 
L 209.349189 144.165854 
L 209.674169 146.336697 
L 209.999148 143.58941 
L 210.324128 148.097832 
L 210.649107 145.615628 
L 210.974087 147.320749 
L 211.624046 148.313563 
L 211.949025 145.833462 
L 212.274005 149.835674 
L 212.923964 147.419862 
L 213.248943 149.504136 
L 213.573923 149.140813 
L 213.898903 147.787385 
L 214.223882 147.084304 
L 214.548862 150.52123 
L 214.873841 151.497129 
L 215.198821 148.77409 
L 215.5238 147.785058 
L 215.84878 148.53771 
L 216.173759 150.281595 
L 216.498739 150.757525 
L 216.823718 150.847571 
L 217.148698 152.329583 
L 217.473677 149.50362 
L 217.798657 149.653453 
L 218.123636 148.780607 
L 218.448616 150.823947 
L 218.773595 151.405569 
L 219.098575 150.674692 
L 219.423554 152.123953 
L 219.748534 152.725318 
L 220.073514 150.391434 
L 220.398493 152.463789 
L 220.723473 150.173397 
L 221.373432 152.590003 
L 221.698411 151.773841 
L 222.023391 149.994093 
L 222.34837 149.659257 
L 222.67335 150.541121 
L 222.998329 152.291139 
L 223.323309 149.646255 
L 223.648288 149.404656 
L 223.973268 151.321777 
L 224.298247 150.012878 
L 224.623227 152.135266 
L 224.948206 148.998224 
L 225.273186 149.869568 
L 225.598165 148.747435 
L 225.923145 146.959315 
L 226.248124 149.988012 
L 226.573104 150.269177 
L 226.898084 147.361786 
L 227.223063 148.868711 
L 227.548043 149.003201 
L 227.873022 148.559948 
L 228.198002 145.54517 
L 228.522981 147.125566 
L 228.847961 149.431063 
L 229.17294 145.862629 
L 229.49792 146.752027 
L 229.822899 146.400823 
L 230.147879 145.2504 
L 230.472858 145.524112 
L 230.797838 143.366091 
L 231.122817 142.816914 
L 231.447797 145.752344 
L 231.772776 144.652986 
L 232.097756 142.800079 
L 232.747715 143.974447 
L 233.072695 140.994394 
L 233.397674 142.44311 
L 234.047633 141.246657 
L 234.372613 141.597645 
L 234.697592 137.917684 
L 235.347551 138.410852 
L 235.672531 138.856997 
L 235.99751 140.34292 
L 236.32249 139.751812 
L 236.647469 135.258694 
L 236.972449 135.351816 
L 237.297428 137.62682 
L 237.622408 136.401111 
L 237.947387 137.619206 
L 238.272367 135.800206 
L 238.597346 135.034153 
L 238.922326 136.076512 
L 239.247305 134.880268 
L 239.572285 134.884725 
L 239.897265 132.03756 
L 240.222244 133.387703 
L 240.547224 133.277922 
L 240.872203 134.471221 
L 241.197183 131.517772 
L 241.522162 131.542083 
L 241.847142 130.506472 
L 242.497101 129.290886 
L 242.82208 131.07745 
L 243.14706 129.537149 
L 243.472039 127.250986 
L 243.797019 131.38177 
L 244.121998 130.633747 
L 244.446978 126.341507 
L 244.771957 128.120063 
L 245.096937 129.069118 
L 245.421916 129.195817 
L 245.746896 128.397743 
L 246.071876 129.672578 
L 246.396855 126.615565 
L 246.721835 128.56825 
L 247.046814 128.264275 
L 247.371794 127.424269 
L 247.696773 125.722403 
L 248.021753 128.245193 
L 248.346732 126.922999 
L 248.671712 127.056679 
L 248.996691 127.993125 
L 249.321671 126.068576 
L 249.64665 127.026029 
L 249.97163 125.289567 
L 250.296609 125.907801 
L 250.621589 125.761206 
L 250.946568 125.474588 
L 251.271548 127.824341 
L 251.596527 123.708206 
L 251.921507 125.791305 
L 252.246486 126.672418 
L 252.571466 126.150252 
L 252.896446 125.913682 
L 253.221425 124.967702 
L 253.546405 125.152927 
L 253.871384 127.026522 
L 254.196364 125.497829 
L 254.521343 127.587061 
L 254.846323 125.94314 
L 255.171302 128.027382 
L 255.496282 123.78165 
L 255.821261 124.253365 
L 256.146241 124.938612 
L 256.47122 124.423438 
L 256.7962 128.830563 
L 257.121179 126.312181 
L 257.446159 127.888059 
L 257.771138 128.30178 
L 258.096118 127.997594 
L 258.421097 128.664457 
L 258.746077 125.373592 
L 259.071057 128.349201 
L 259.396036 129.208705 
L 259.721016 127.627422 
L 260.045995 127.632544 
L 260.370975 126.45561 
L 260.695954 130.778515 
L 261.020934 127.565959 
L 261.345913 128.611791 
L 261.670893 127.823592 
L 261.995872 128.027694 
L 262.320852 128.415675 
L 262.970811 130.058631 
L 263.29579 130.381144 
L 263.62077 128.95331 
L 264.270729 131.56931 
L 264.595708 133.383985 
L 264.920688 132.224881 
L 265.245667 133.164426 
L 265.570647 130.481894 
L 265.895627 132.991476 
L 266.220606 131.939349 
L 266.545586 132.833027 
L 266.870565 131.877221 
L 267.195545 132.598348 
L 267.520524 132.651738 
L 267.845504 133.249437 
L 268.170483 133.56695 
L 268.495463 133.224208 
L 268.820442 134.855006 
L 269.145422 135.186144 
L 269.470401 132.622619 
L 269.795381 135.074364 
L 270.12036 133.421812 
L 270.44534 133.429027 
L 270.770319 134.471105 
L 271.095299 136.412982 
L 271.420278 136.376883 
L 271.745258 135.895926 
L 272.070238 132.411344 
L 272.395217 132.46237 
L 273.045176 133.179113 
L 273.370156 131.853175 
L 273.695135 135.220331 
L 274.020115 132.335112 
L 274.345094 132.147695 
L 274.670074 132.333912 
L 274.995053 135.219773 
L 275.645012 131.659146 
L 275.969992 134.308446 
L 276.294971 132.379412 
L 276.619951 133.985421 
L 276.94493 133.366238 
L 277.26991 131.165744 
L 277.594889 130.316276 
L 277.919869 131.828672 
L 278.244848 129.689864 
L 278.569828 133.290166 
L 278.894808 132.278948 
L 279.219787 128.575801 
L 279.544767 129.936422 
L 279.869746 127.585382 
L 280.194726 128.525647 
L 280.519705 130.096013 
L 280.844685 128.554038 
L 281.169664 126.400902 
L 281.494644 128.337495 
L 281.819623 126.949544 
L 282.144603 127.582804 
L 282.469582 126.424815 
L 282.794562 127.8561 
L 283.119541 127.109353 
L 283.444521 122.316032 
L 283.7695 121.939092 
L 284.09448 122.061328 
L 284.419459 123.760108 
L 284.744439 123.04082 
L 285.719378 118.507867 
L 286.044357 120.777012 
L 286.369337 117.483811 
L 286.694316 118.776919 
L 287.019296 117.675318 
L 287.344275 117.274453 
L 287.669255 115.826124 
L 287.994234 119.233059 
L 288.319214 115.19983 
L 288.644193 116.152499 
L 288.969173 113.106756 
L 289.294152 113.178925 
L 289.619132 115.905027 
L 289.944111 113.706797 
L 290.91905 109.200123 
L 291.244029 110.441499 
L 291.569009 107.514196 
L 291.893989 109.733298 
L 292.218968 110.048409 
L 292.543948 107.89872 
L 292.868927 107.490607 
L 293.193907 106.335902 
L 293.518886 105.724187 
L 293.843866 107.991297 
L 294.168845 106.023554 
L 294.493825 105.92179 
L 294.818804 102.70289 
L 295.468763 100.887482 
L 296.118722 100.455007 
L 296.443702 98.790037 
L 296.768681 98.577796 
L 297.093661 101.883939 
L 297.41864 97.485027 
L 297.74362 100.42741 
L 298.0686 99.041486 
L 298.393579 99.535427 
L 298.718559 97.045448 
L 299.043538 98.062664 
L 299.368518 97.102824 
L 299.693497 95.123708 
L 300.018477 95.851485 
L 300.343456 97.049254 
L 300.668436 93.471797 
L 300.993415 97.26984 
L 301.318395 96.597772 
L 301.643374 93.282306 
L 301.968354 92.049543 
L 302.293333 92.119371 
L 302.618313 90.75654 
L 302.943292 90.6492 
L 303.268272 94.889584 
L 303.593251 90.096488 
L 303.918231 92.214622 
L 304.56819 93.631641 
L 304.89317 93.901604 
L 305.218149 89.623754 
L 305.543129 92.395867 
L 305.868108 92.291621 
L 306.193088 92.402079 
L 306.518067 88.816742 
L 306.843047 92.707894 
L 307.168026 92.41841 
L 307.493006 91.24093 
L 307.817985 88.204021 
L 308.142965 92.087386 
L 308.467944 88.199803 
L 308.792924 91.519944 
L 309.117903 91.91521 
L 309.767862 91.187352 
L 310.417821 90.806942 
L 310.742801 91.505572 
L 311.067781 92.721652 
L 311.39276 88.410307 
L 312.042719 92.008074 
L 312.367699 92.619447 
L 312.692678 92.53552 
L 313.017658 93.556739 
L 313.667617 89.335385 
L 313.992596 90.090286 
L 314.317576 90.256238 
L 314.642555 91.909629 
L 314.967535 90.974639 
L 315.292514 94.047529 
L 315.617494 90.601727 
L 315.942473 93.851383 
L 316.267453 94.34243 
L 316.592432 93.254872 
L 316.917412 90.95552 
L 317.242391 94.919965 
L 317.567371 94.990755 
L 317.892351 92.861904 
L 318.21733 92.138218 
L 318.54231 93.276175 
L 318.867289 95.323078 
L 319.192269 93.115997 
L 319.517248 95.533323 
L 319.842228 94.203778 
L 320.167207 96.963581 
L 320.492187 96.984884 
L 320.817166 97.556122 
L 321.467125 93.957286 
L 321.792105 95.037971 
L 322.442064 98.880504 
L 322.767043 97.46075 
L 323.092023 98.433926 
L 323.417002 97.293768 
L 323.741982 95.046589 
L 324.066962 96.222531 
L 324.391941 96.703157 
L 324.716921 98.57442 
L 325.36688 97.72391 
L 325.691859 99.760321 
L 326.016839 99.061966 
L 326.341818 97.689157 
L 326.991777 96.303967 
L 327.316757 99.243889 
L 327.641736 98.013762 
L 327.966716 97.35988 
L 328.291695 95.606675 
L 328.941654 99.420399 
L 329.266634 99.77277 
L 329.591613 97.148911 
L 329.916593 98.258784 
L 330.241572 98.523341 
L 330.566552 95.664045 
L 330.891532 99.344869 
L 331.216511 99.378461 
L 332.516429 95.002185 
L 332.841409 98.316163 
L 333.166388 94.642779 
L 333.491368 97.722906 
L 333.816347 95.962846 
L 334.141327 95.763305 
L 334.466306 96.405294 
L 334.791286 96.106244 
L 335.116265 95.105894 
L 335.441245 95.351468 
L 335.766224 93.762782 
L 336.091204 96.182706 
L 336.416183 94.995577 
L 336.741163 91.710913 
L 337.066143 94.258775 
L 337.391122 95.16942 
L 337.716102 91.118167 
L 338.041081 91.482763 
L 338.366061 92.333558 
L 338.69104 89.983853 
L 339.01602 89.774519 
L 339.340999 88.343785 
L 339.665979 91.086845 
L 339.990958 90.201102 
L 340.315938 90.195409 
L 340.640917 86.617005 
L 340.965897 90.903415 
L 341.290876 87.517468 
L 341.615856 87.706305 
L 341.940835 87.44484 
L 342.265815 85.574856 
L 342.590794 87.806515 
L 342.915774 87.217244 
L 343.240753 83.605508 
L 343.565733 85.589743 
L 343.890713 82.449822 
L 344.215692 84.400042 
L 344.540672 85.057254 
L 344.865651 85.105717 
L 345.190631 82.431618 
L 345.84059 79.880798 
L 346.165569 79.413384 
L 346.490549 82.354804 
L 346.815528 82.399408 
L 347.140508 78.458699 
L 347.465487 81.581779 
L 347.790467 80.246409 
L 348.115446 80.715782 
L 348.440426 76.235234 
L 348.765405 75.71094 
L 349.090385 79.309749 
L 349.415364 74.750643 
L 349.740344 76.834741 
L 350.065324 76.120636 
L 350.390303 75.929884 
L 350.715283 76.314332 
L 351.040262 75.928581 
L 351.365242 73.251694 
L 351.690221 75.418339 
L 352.015201 76.120075 
L 352.34018 74.138209 
L 352.66516 74.380144 
L 353.315119 71.107846 
L 353.640098 71.687156 
L 353.965078 73.931924 
L 354.290057 73.584301 
L 354.940016 69.676985 
L 355.264996 69.353136 
L 355.589975 69.512839 
L 355.914955 68.891182 
L 356.239934 71.033103 
L 356.564914 68.442855 
L 356.889894 68.716433 
L 357.214873 70.602145 
L 357.539853 70.608599 
L 357.864832 68.867301 
L 358.189812 70.608282 
L 358.514791 70.342018 
L 358.839771 70.875408 
L 359.16475 70.258142 
L 359.48973 71.112384 
L 359.814709 70.368452 
L 360.139689 66.962833 
L 360.464668 69.851455 
L 360.789648 69.367616 
L 361.114627 69.57301 
L 361.439607 70.891586 
L 361.764586 66.941896 
L 362.089566 69.277856 
L 362.414545 68.859739 
L 362.739525 67.012621 
L 363.064505 70.491319 
L 363.389484 69.295295 
L 363.714464 67.337155 
L 364.039443 69.297577 
L 364.364423 69.476192 
L 364.689402 70.071566 
L 365.014382 69.313219 
L 365.339361 68.968673 
L 365.664341 70.362704 
L 365.98932 70.244206 
L 366.3143 72.368752 
L 366.639279 68.909247 
L 366.964259 68.782928 
L 367.289238 73.536294 
L 367.614218 69.620077 
L 367.939197 72.379427 
L 368.264177 69.429609 
L 368.589156 72.995532 
L 368.914136 69.546707 
L 369.239115 74.560156 
L 369.564095 72.33184 
L 369.889075 71.336341 
L 370.214054 73.616594 
L 370.539034 70.695579 
L 370.864013 73.828046 
L 371.188993 73.208317 
L 371.513972 73.85817 
L 371.838952 74.940034 
L 372.163931 75.082947 
L 372.488911 72.032524 
L 372.81389 76.424996 
L 373.13887 74.572305 
L 373.463849 76.606548 
L 373.788829 73.355794 
L 374.113808 72.746095 
L 374.438788 76.23394 
L 374.763767 74.476577 
L 375.088747 73.534099 
L 375.413726 77.30044 
L 375.738706 75.019996 
L 376.063686 76.138974 
L 376.388665 78.001432 
L 376.713645 77.250215 
L 377.038624 74.259821 
L 377.363604 74.381479 
L 377.688583 73.842265 
L 378.013563 76.768234 
L 378.338542 74.023819 
L 378.663522 76.904318 
L 378.988501 76.914694 
L 379.313481 78.352224 
L 379.63846 73.641454 
L 379.96344 73.714767 
L 380.288419 76.388221 
L 380.613399 74.115252 
L 380.938378 75.637679 
L 381.588337 74.145992 
L 381.913317 74.789876 
L 382.238296 73.731204 
L 382.563276 75.06072 
L 382.888256 75.356797 
L 383.213235 73.089119 
L 383.538215 76.205086 
L 383.863194 73.440395 
L 384.188174 74.863952 
L 384.513153 74.307437 
L 384.838133 76.12747 
L 385.163112 71.452389 
L 385.813071 74.063459 
L 386.138051 73.661001 
L 386.46303 73.990834 
L 386.78801 71.225489 
L 387.112989 71.220742 
L 387.437969 70.891377 
L 387.762948 71.404614 
L 388.087928 72.312042 
L 388.412907 69.240596 
L 388.737887 67.664538 
L 389.062867 70.802903 
L 389.712826 68.230888 
L 390.037805 67.78206 
L 390.362785 67.983634 
L 390.687764 66.027873 
L 391.012744 65.978425 
L 391.337723 65.113929 
L 391.662703 67.26688 
L 391.987682 65.487054 
L 392.312662 64.603763 
L 392.637641 62.378952 
L 392.962621 62.979977 
L 393.2876 63.147965 
L 393.61258 59.77991 
L 393.937559 60.723079 
L 394.262539 62.051366 
L 394.587518 60.620588 
L 394.912498 61.381256 
L 395.237477 57.866436 
L 395.562457 56.289048 
L 395.887437 57.176642 
L 396.212416 56.058731 
L 396.537396 56.444504 
L 396.862375 54.312829 
L 397.187355 56.926922 
L 397.512334 52.410406 
L 397.837314 51.591975 
L 398.162293 53.391227 
L 398.487273 50.8345 
L 398.487273 50.8345 
" clip-path="url(#p203c0d649c)" style="fill: none; stroke: #1f77b4; stroke-width: 1.5; stroke-linecap: square"/>
   </g>
   <g id="line2d_15">
    <path d="M 366.3143 71.660576 
L 366.639279 69.804071 
L 366.964259 68.714522 
L 367.289238 71.964728 
L 367.614218 71.025021 
L 367.939197 71.255538 
L 368.264177 70.0547 
L 368.589156 71.331756 
L 368.914136 69.77879 
L 369.239115 72.700149 
L 369.564095 72.559536 
L 369.889075 70.859449 
L 370.214054 72.239063 
L 370.539034 70.944794 
L 370.864013 71.819875 
L 371.188993 71.823407 
L 371.513972 73.306353 
L 371.838952 73.943312 
L 372.163931 73.514794 
L 372.488911 72.499903 
L 372.81389 73.288705 
L 373.13887 72.654861 
L 373.463849 74.135564 
L 373.788829 71.410495 
L 374.113808 71.915395 
L 374.438788 75.291604 
L 374.763767 74.237681 
L 375.088747 72.757453 
L 375.413726 74.438237 
L 375.738706 73.930357 
L 376.063686 73.859033 
L 376.388665 74.310292 
L 376.713645 75.591875 
L 377.038624 74.344118 
L 377.363604 73.654869 
L 377.688583 74.904109 
L 378.013563 75.036925 
L 378.338542 73.230324 
L 378.663522 75.476046 
L 378.988501 74.930636 
L 379.313481 76.951163 
L 379.63846 73.747193 
L 379.96344 73.313637 
L 380.288419 75.238615 
L 380.613399 74.108742 
L 380.938378 74.354012 
L 381.263358 74.007608 
L 381.588337 73.561861 
L 381.913317 74.319973 
L 382.238296 73.733614 
L 382.563276 74.277909 
L 382.888256 73.979829 
L 383.213235 73.586553 
L 383.538215 74.451351 
L 383.863194 71.774886 
L 384.188174 73.132405 
L 384.513153 73.455549 
L 384.838133 74.100637 
L 385.163112 71.267082 
L 385.488092 71.152012 
L 385.813071 73.47595 
L 386.138051 72.99412 
L 386.46303 70.446613 
L 386.78801 70.567012 
L 387.112989 70.794854 
L 387.437969 70.031564 
L 387.762948 69.760678 
L 388.087928 70.720476 
L 388.412907 69.877785 
L 388.737887 67.23459 
L 389.062867 67.755641 
L 389.387846 68.301117 
L 389.712826 67.869121 
L 390.037805 66.517793 
L 390.362785 66.50026 
L 390.687764 67.133738 
L 391.012744 65.919297 
L 391.337723 64.033403 
L 391.662703 64.372317 
L 391.987682 64.193752 
L 392.312662 63.1977 
L 392.637641 61.128198 
L 392.962621 62.287929 
L 393.2876 63.567767 
L 393.61258 60.480486 
L 393.937559 59.203254 
L 394.262539 59.166427 
L 394.587518 60.045976 
L 394.912498 59.213332 
L 395.237477 55.339279 
L 395.562457 55.620563 
L 395.887437 58.417703 
L 396.212416 55.981005 
L 396.537396 53.478406 
L 396.862375 52.839151 
L 397.187355 55.627505 
L 397.512334 52.094222 
L 397.837314 49.012364 
L 398.162293 52.551043 
L 398.487273 51.959474 
" clip-path="url(#p203c0d649c)" style="fill: none; stroke: #ff7f0e; stroke-width: 1.5; stroke-linecap: square"/>
   </g>
   <g id="line2d_16">
    <path d="M 366.3143 207.36 
L 366.3143 41.472 
" clip-path="url(#p203c0d649c)" style="fill: none; stroke: #ff0000; stroke-width: 1.5; stroke-linecap: square"/>
   </g>
   <g id="patch_3">
    <path d="M 57.6 207.36 
L 57.6 41.472 
" style="fill: none; stroke: #000000; stroke-width: 0.8; stroke-linejoin: miter; stroke-linecap: square"/>
   </g>
   <g id="patch_4">
    <path d="M 414.72 207.36 
L 414.72 41.472 
" style="fill: none; stroke: #000000; stroke-width: 0.8; stroke-linejoin: miter; stroke-linecap: square"/>
   </g>
   <g id="patch_5">
    <path d="M 57.6 207.36 
L 414.72 207.36 
" style="fill: none; stroke: #000000; stroke-width: 0.8; stroke-linejoin: miter; stroke-linecap: square"/>
   </g>
   <g id="patch_6">
    <path d="M 57.6 41.472 
L 414.72 41.472 
" style="fill: none; stroke: #000000; stroke-width: 0.8; stroke-linejoin: miter; stroke-linecap: square"/>
   </g>
  </g>
  <g id="axes_2">
   <g id="patch_7">
    <path d="M 115.2 291.168 
L 414.72 291.168 
L 414.72 285.984 
L 115.2 285.984 
z
" clip-path="url(#p4bbf2a2552)" style="fill: #d3d3d3"/>
   </g>
   <g id="patch_8">
    <path d="M 115.2 291.168 
L 139.1616 291.168 
L 139.1616 285.984 
L 115.2 285.984 
z
" clip-path="url(#p4bbf2a2552)" style="fill: #1f77b4"/>
   </g>
   <g id="line2d_17">
    <path d="M 139.1616 293.76 
L 139.1616 283.392 
" clip-path="url(#pf922543586)" style="fill: none; stroke: #ff0000; stroke-linecap: square"/>
   </g>
   <g id="line2d_18">
    <defs>
     <path id="ma53bd12566" d="M 0 5 
C 1.326016 5 2.597899 4.473168 3.535534 3.535534 
C 4.473168 2.597899 5 1.326016 5 0 
C 5 -1.326016 4.473168 -2.597899 3.535534 -3.535534 
C 2.597899 -4.473168 1.326016 -5 0 -5 
C -1.326016 -5 -2.597899 -4.473168 -3.535534 -3.535534 
C -4.473168 -2.597899 -5 -1.326016 -5 0 
C -5 1.326016 -4.473168 2.597899 -3.535534 3.535534 
C -2.597899 4.473168 -1.326016 5 0 5 
z
" style="stroke: #bfbfbf"/>
    </defs>
    <g>
     <use xlink:href="#ma53bd12566" x="139.1616" y="288.576" style="fill: #ffffff; stroke: #bfbfbf"/>
    </g>
   </g>
   <g id="text_14">
    <!-- P -->
    <g transform="translate(103.179913 291.335375) scale(0.1 -0.1)">
     <defs>
      <path id="DejaVuSans-50" d="M 1259 4147 
L 1259 2394 
L 2053 2394 
Q 2494 2394 2734 2622 
Q 2975 2850 2975 3272 
Q 2975 3691 2734 3919 
Q 2494 4147 2053 4147 
L 1259 4147 
z
M 628 4666 
L 2053 4666 
Q 2838 4666 3239 4311 
Q 3641 3956 3641 3272 
Q 3641 2581 3239 2228 
Q 2838 1875 2053 1875 
L 1259 1875 
L 1259 0 
L 628 0 
L 628 4666 
z
" transform="scale(0.015625)"/>
     </defs>
     <use xlink:href="#DejaVuSans-50"/>
    </g>
   </g>
   <g id="text_15">
    <!-- $\mathdefault{80}$ -->
    <g transform="translate(420.7104 291.335375) scale(0.1 -0.1)">
     <use xlink:href="#DejaVuSans-38" transform="translate(0 0.78125)"/>
     <use xlink:href="#DejaVuSans-30" transform="translate(63.623047 0.78125)"/>
    </g>
   </g>
  </g>
  <g id="axes_3">
   <g id="patch_9">
    <path d="M 115.2 308.448 
L 414.72 308.448 
L 414.72 303.264 
L 115.2 303.264 
z
" clip-path="url(#p56823f859e)" style="fill: #d3d3d3"/>
   </g>
   <g id="patch_10">
    <path d="M 115.2 308.448 
L 145.152 308.448 
L 145.152 303.264 
L 115.2 303.264 
z
" clip-path="url(#p56823f859e)" style="fill: #1f77b4"/>
   </g>
   <g id="line2d_19">
    <path d="M 145.152 311.04 
L 145.152 300.672 
" clip-path="url(#pee54fbb6ee)" style="fill: none; stroke: #ff0000; stroke-linecap: square"/>
   </g>
   <g id="line2d_20">
    <g>
     <use xlink:href="#ma53bd12566" x="145.152" y="305.856" style="fill: #ffffff; stroke: #bfbfbf"/>
    </g>
   </g>
   <g id="text_16">
    <!-- M -->
    <g transform="translate(100.581475 308.615375) scale(0.1 -0.1)">
     <defs>
      <path id="DejaVuSans-4d" d="M 628 4666 
L 1569 4666 
L 2759 1491 
L 3956 4666 
L 4897 4666 
L 4897 0 
L 4281 0 
L 4281 4097 
L 3078 897 
L 2444 897 
L 1241 4097 
L 1241 0 
L 628 0 
L 628 4666 
z
" transform="scale(0.015625)"/>
     </defs>
     <use xlink:href="#DejaVuSans-4d"/>
    </g>
   </g>
   <g id="text_17">
    <!-- $\mathdefault{100}$ -->
    <g transform="translate(420.7104 308.615375) scale(0.1 -0.1)">
     <use xlink:href="#DejaVuSans-31" transform="translate(0 0.78125)"/>
     <use xlink:href="#DejaVuSans-30" transform="translate(63.623047 0.78125)"/>
     <use xlink:href="#DejaVuSans-30" transform="translate(127.246094 0.78125)"/>
    </g>
   </g>
  </g>
  <g id="legend_1">
   <g id="patch_11">
    <path d="M 247.104688 52.034375 
L 453.8 52.034375 
Q 455.8 52.034375 455.8 50.034375 
L 455.8 7 
Q 455.8 5 453.8 5 
L 247.104688 5 
Q 245.104688 5 245.104688 7 
L 245.104688 50.034375 
Q 245.104688 52.034375 247.104688 52.034375 
z
" style="fill: #ffffff; opacity: 0.8; stroke: #cccccc; stroke-linejoin: miter"/>
   </g>
   <g id="line2d_21">
    <path d="M 249.104688 13.098437 
L 259.104688 13.098437 
L 269.104688 13.098437 
" style="fill: none; stroke: #1f77b4; stroke-width: 1.5; stroke-linecap: square"/>
   </g>
   <g id="text_18">
    <!-- Serie timp originala -->
    <g transform="translate(277.104688 16.598437) scale(0.1 -0.1)">
     <defs>
      <path id="DejaVuSans-53" d="M 3425 4513 
L 3425 3897 
Q 3066 4069 2747 4153 
Q 2428 4238 2131 4238 
Q 1616 4238 1336 4038 
Q 1056 3838 1056 3469 
Q 1056 3159 1242 3001 
Q 1428 2844 1947 2747 
L 2328 2669 
Q 3034 2534 3370 2195 
Q 3706 1856 3706 1288 
Q 3706 609 3251 259 
Q 2797 -91 1919 -91 
Q 1588 -91 1214 -16 
Q 841 59 441 206 
L 441 856 
Q 825 641 1194 531 
Q 1563 422 1919 422 
Q 2459 422 2753 634 
Q 3047 847 3047 1241 
Q 3047 1584 2836 1778 
Q 2625 1972 2144 2069 
L 1759 2144 
Q 1053 2284 737 2584 
Q 422 2884 422 3419 
Q 422 4038 858 4394 
Q 1294 4750 2059 4750 
Q 2388 4750 2728 4690 
Q 3069 4631 3425 4513 
z
" transform="scale(0.015625)"/>
      <path id="DejaVuSans-65" d="M 3597 1894 
L 3597 1613 
L 953 1613 
Q 991 1019 1311 708 
Q 1631 397 2203 397 
Q 2534 397 2845 478 
Q 3156 559 3463 722 
L 3463 178 
Q 3153 47 2828 -22 
Q 2503 -91 2169 -91 
Q 1331 -91 842 396 
Q 353 884 353 1716 
Q 353 2575 817 3079 
Q 1281 3584 2069 3584 
Q 2775 3584 3186 3129 
Q 3597 2675 3597 1894 
z
M 3022 2063 
Q 3016 2534 2758 2815 
Q 2500 3097 2075 3097 
Q 1594 3097 1305 2825 
Q 1016 2553 972 2059 
L 3022 2063 
z
" transform="scale(0.015625)"/>
      <path id="DejaVuSans-72" d="M 2631 2963 
Q 2534 3019 2420 3045 
Q 2306 3072 2169 3072 
Q 1681 3072 1420 2755 
Q 1159 2438 1159 1844 
L 1159 0 
L 581 0 
L 581 3500 
L 1159 3500 
L 1159 2956 
Q 1341 3275 1631 3429 
Q 1922 3584 2338 3584 
Q 2397 3584 2469 3576 
Q 2541 3569 2628 3553 
L 2631 2963 
z
" transform="scale(0.015625)"/>
      <path id="DejaVuSans-69" d="M 603 3500 
L 1178 3500 
L 1178 0 
L 603 0 
L 603 3500 
z
M 603 4863 
L 1178 4863 
L 1178 4134 
L 603 4134 
L 603 4863 
z
" transform="scale(0.015625)"/>
      <path id="DejaVuSans-20" transform="scale(0.015625)"/>
      <path id="DejaVuSans-74" d="M 1172 4494 
L 1172 3500 
L 2356 3500 
L 2356 3053 
L 1172 3053 
L 1172 1153 
Q 1172 725 1289 603 
Q 1406 481 1766 481 
L 2356 481 
L 2356 0 
L 1766 0 
Q 1100 0 847 248 
Q 594 497 594 1153 
L 594 3053 
L 172 3053 
L 172 3500 
L 594 3500 
L 594 4494 
L 1172 4494 
z
" transform="scale(0.015625)"/>
      <path id="DejaVuSans-6d" d="M 3328 2828 
Q 3544 3216 3844 3400 
Q 4144 3584 4550 3584 
Q 5097 3584 5394 3201 
Q 5691 2819 5691 2113 
L 5691 0 
L 5113 0 
L 5113 2094 
Q 5113 2597 4934 2840 
Q 4756 3084 4391 3084 
Q 3944 3084 3684 2787 
Q 3425 2491 3425 1978 
L 3425 0 
L 2847 0 
L 2847 2094 
Q 2847 2600 2669 2842 
Q 2491 3084 2119 3084 
Q 1678 3084 1418 2786 
Q 1159 2488 1159 1978 
L 1159 0 
L 581 0 
L 581 3500 
L 1159 3500 
L 1159 2956 
Q 1356 3278 1631 3431 
Q 1906 3584 2284 3584 
Q 2666 3584 2933 3390 
Q 3200 3197 3328 2828 
z
" transform="scale(0.015625)"/>
      <path id="DejaVuSans-70" d="M 1159 525 
L 1159 -1331 
L 581 -1331 
L 581 3500 
L 1159 3500 
L 1159 2969 
Q 1341 3281 1617 3432 
Q 1894 3584 2278 3584 
Q 2916 3584 3314 3078 
Q 3713 2572 3713 1747 
Q 3713 922 3314 415 
Q 2916 -91 2278 -91 
Q 1894 -91 1617 61 
Q 1341 213 1159 525 
z
M 3116 1747 
Q 3116 2381 2855 2742 
Q 2594 3103 2138 3103 
Q 1681 3103 1420 2742 
Q 1159 2381 1159 1747 
Q 1159 1113 1420 752 
Q 1681 391 2138 391 
Q 2594 391 2855 752 
Q 3116 1113 3116 1747 
z
" transform="scale(0.015625)"/>
      <path id="DejaVuSans-6f" d="M 1959 3097 
Q 1497 3097 1228 2736 
Q 959 2375 959 1747 
Q 959 1119 1226 758 
Q 1494 397 1959 397 
Q 2419 397 2687 759 
Q 2956 1122 2956 1747 
Q 2956 2369 2687 2733 
Q 2419 3097 1959 3097 
z
M 1959 3584 
Q 2709 3584 3137 3096 
Q 3566 2609 3566 1747 
Q 3566 888 3137 398 
Q 2709 -91 1959 -91 
Q 1206 -91 779 398 
Q 353 888 353 1747 
Q 353 2609 779 3096 
Q 1206 3584 1959 3584 
z
" transform="scale(0.015625)"/>
      <path id="DejaVuSans-67" d="M 2906 1791 
Q 2906 2416 2648 2759 
Q 2391 3103 1925 3103 
Q 1463 3103 1205 2759 
Q 947 2416 947 1791 
Q 947 1169 1205 825 
Q 1463 481 1925 481 
Q 2391 481 2648 825 
Q 2906 1169 2906 1791 
z
M 3481 434 
Q 3481 -459 3084 -895 
Q 2688 -1331 1869 -1331 
Q 1566 -1331 1297 -1286 
Q 1028 -1241 775 -1147 
L 775 -588 
Q 1028 -725 1275 -790 
Q 1522 -856 1778 -856 
Q 2344 -856 2625 -561 
Q 2906 -266 2906 331 
L 2906 616 
Q 2728 306 2450 153 
Q 2172 0 1784 0 
Q 1141 0 747 490 
Q 353 981 353 1791 
Q 353 2603 747 3093 
Q 1141 3584 1784 3584 
Q 2172 3584 2450 3431 
Q 2728 3278 2906 2969 
L 2906 3500 
L 3481 3500 
L 3481 434 
z
" transform="scale(0.015625)"/>
      <path id="DejaVuSans-6e" d="M 3513 2113 
L 3513 0 
L 2938 0 
L 2938 2094 
Q 2938 2591 2744 2837 
Q 2550 3084 2163 3084 
Q 1697 3084 1428 2787 
Q 1159 2491 1159 1978 
L 1159 0 
L 581 0 
L 581 3500 
L 1159 3500 
L 1159 2956 
Q 1366 3272 1645 3428 
Q 1925 3584 2291 3584 
Q 2894 3584 3203 3211 
Q 3513 2838 3513 2113 
z
" transform="scale(0.015625)"/>
      <path id="DejaVuSans-61" d="M 2194 1759 
Q 1497 1759 1228 1600 
Q 959 1441 959 1056 
Q 959 750 1161 570 
Q 1363 391 1709 391 
Q 2188 391 2477 730 
Q 2766 1069 2766 1631 
L 2766 1759 
L 2194 1759 
z
M 3341 1997 
L 3341 0 
L 2766 0 
L 2766 531 
Q 2569 213 2275 61 
Q 1981 -91 1556 -91 
Q 1019 -91 701 211 
Q 384 513 384 1019 
Q 384 1609 779 1909 
Q 1175 2209 1959 2209 
L 2766 2209 
L 2766 2266 
Q 2766 2663 2505 2880 
Q 2244 3097 1772 3097 
Q 1472 3097 1187 3025 
Q 903 2953 641 2809 
L 641 3341 
Q 956 3463 1253 3523 
Q 1550 3584 1831 3584 
Q 2591 3584 2966 3190 
Q 3341 2797 3341 1997 
z
" transform="scale(0.015625)"/>
      <path id="DejaVuSans-6c" d="M 603 4863 
L 1178 4863 
L 1178 0 
L 603 0 
L 603 4863 
z
" transform="scale(0.015625)"/>
     </defs>
     <use xlink:href="#DejaVuSans-53"/>
     <use xlink:href="#DejaVuSans-65" x="63.476562"/>
     <use xlink:href="#DejaVuSans-72" x="125"/>
     <use xlink:href="#DejaVuSans-69" x="166.113281"/>
     <use xlink:href="#DejaVuSans-65" x="193.896484"/>
     <use xlink:href="#DejaVuSans-20" x="255.419922"/>
     <use xlink:href="#DejaVuSans-74" x="287.207031"/>
     <use xlink:href="#DejaVuSans-69" x="326.416016"/>
     <use xlink:href="#DejaVuSans-6d" x="354.199219"/>
     <use xlink:href="#DejaVuSans-70" x="451.611328"/>
     <use xlink:href="#DejaVuSans-20" x="515.087891"/>
     <use xlink:href="#DejaVuSans-6f" x="546.875"/>
     <use xlink:href="#DejaVuSans-72" x="608.056641"/>
     <use xlink:href="#DejaVuSans-69" x="649.169922"/>
     <use xlink:href="#DejaVuSans-67" x="676.953125"/>
     <use xlink:href="#DejaVuSans-69" x="740.429688"/>
     <use xlink:href="#DejaVuSans-6e" x="768.212891"/>
     <use xlink:href="#DejaVuSans-61" x="831.591797"/>
     <use xlink:href="#DejaVuSans-6c" x="892.871094"/>
     <use xlink:href="#DejaVuSans-61" x="920.654297"/>
    </g>
   </g>
   <g id="line2d_22">
    <path d="M 249.104688 27.776563 
L 259.104688 27.776563 
L 269.104688 27.776563 
" style="fill: none; stroke: #ff7f0e; stroke-width: 1.5; stroke-linecap: square"/>
   </g>
   <g id="text_19">
    <!-- Valori prezise -->
    <g transform="translate(277.104688 31.276563) scale(0.1 -0.1)">
     <defs>
      <path id="DejaVuSans-56" d="M 1831 0 
L 50 4666 
L 709 4666 
L 2188 738 
L 3669 4666 
L 4325 4666 
L 2547 0 
L 1831 0 
z
" transform="scale(0.015625)"/>
      <path id="DejaVuSans-7a" d="M 353 3500 
L 3084 3500 
L 3084 2975 
L 922 459 
L 3084 459 
L 3084 0 
L 275 0 
L 275 525 
L 2438 3041 
L 353 3041 
L 353 3500 
z
" transform="scale(0.015625)"/>
      <path id="DejaVuSans-73" d="M 2834 3397 
L 2834 2853 
Q 2591 2978 2328 3040 
Q 2066 3103 1784 3103 
Q 1356 3103 1142 2972 
Q 928 2841 928 2578 
Q 928 2378 1081 2264 
Q 1234 2150 1697 2047 
L 1894 2003 
Q 2506 1872 2764 1633 
Q 3022 1394 3022 966 
Q 3022 478 2636 193 
Q 2250 -91 1575 -91 
Q 1294 -91 989 -36 
Q 684 19 347 128 
L 347 722 
Q 666 556 975 473 
Q 1284 391 1588 391 
Q 1994 391 2212 530 
Q 2431 669 2431 922 
Q 2431 1156 2273 1281 
Q 2116 1406 1581 1522 
L 1381 1569 
Q 847 1681 609 1914 
Q 372 2147 372 2553 
Q 372 3047 722 3315 
Q 1072 3584 1716 3584 
Q 2034 3584 2315 3537 
Q 2597 3491 2834 3397 
z
" transform="scale(0.015625)"/>
     </defs>
     <use xlink:href="#DejaVuSans-56"/>
     <use xlink:href="#DejaVuSans-61" x="60.658203"/>
     <use xlink:href="#DejaVuSans-6c" x="121.9375"/>
     <use xlink:href="#DejaVuSans-6f" x="149.720703"/>
     <use xlink:href="#DejaVuSans-72" x="210.902344"/>
     <use xlink:href="#DejaVuSans-69" x="252.015625"/>
     <use xlink:href="#DejaVuSans-20" x="279.798828"/>
     <use xlink:href="#DejaVuSans-70" x="311.585938"/>
     <use xlink:href="#DejaVuSans-72" x="375.0625"/>
     <use xlink:href="#DejaVuSans-65" x="413.925781"/>
     <use xlink:href="#DejaVuSans-7a" x="475.449219"/>
     <use xlink:href="#DejaVuSans-69" x="527.939453"/>
     <use xlink:href="#DejaVuSans-73" x="555.722656"/>
     <use xlink:href="#DejaVuSans-65" x="607.822266"/>
    </g>
   </g>
   <g id="line2d_23">
    <path d="M 249.104688 42.454687 
L 259.104688 42.454687 
L 269.104688 42.454687 
" style="fill: none; stroke: #ff0000; stroke-width: 1.5; stroke-linecap: square"/>
   </g>
   <g id="text_20">
    <!-- Numarul predictiilor luate in model -->
    <g transform="translate(277.104688 45.954687) scale(0.1 -0.1)">
     <defs>
      <path id="DejaVuSans-4e" d="M 628 4666 
L 1478 4666 
L 3547 763 
L 3547 4666 
L 4159 4666 
L 4159 0 
L 3309 0 
L 1241 3903 
L 1241 0 
L 628 0 
L 628 4666 
z
" transform="scale(0.015625)"/>
      <path id="DejaVuSans-75" d="M 544 1381 
L 544 3500 
L 1119 3500 
L 1119 1403 
Q 1119 906 1312 657 
Q 1506 409 1894 409 
Q 2359 409 2629 706 
Q 2900 1003 2900 1516 
L 2900 3500 
L 3475 3500 
L 3475 0 
L 2900 0 
L 2900 538 
Q 2691 219 2414 64 
Q 2138 -91 1772 -91 
Q 1169 -91 856 284 
Q 544 659 544 1381 
z
M 1991 3584 
L 1991 3584 
z
" transform="scale(0.015625)"/>
      <path id="DejaVuSans-64" d="M 2906 2969 
L 2906 4863 
L 3481 4863 
L 3481 0 
L 2906 0 
L 2906 525 
Q 2725 213 2448 61 
Q 2172 -91 1784 -91 
Q 1150 -91 751 415 
Q 353 922 353 1747 
Q 353 2572 751 3078 
Q 1150 3584 1784 3584 
Q 2172 3584 2448 3432 
Q 2725 3281 2906 2969 
z
M 947 1747 
Q 947 1113 1208 752 
Q 1469 391 1925 391 
Q 2381 391 2643 752 
Q 2906 1113 2906 1747 
Q 2906 2381 2643 2742 
Q 2381 3103 1925 3103 
Q 1469 3103 1208 2742 
Q 947 2381 947 1747 
z
" transform="scale(0.015625)"/>
      <path id="DejaVuSans-63" d="M 3122 3366 
L 3122 2828 
Q 2878 2963 2633 3030 
Q 2388 3097 2138 3097 
Q 1578 3097 1268 2742 
Q 959 2388 959 1747 
Q 959 1106 1268 751 
Q 1578 397 2138 397 
Q 2388 397 2633 464 
Q 2878 531 3122 666 
L 3122 134 
Q 2881 22 2623 -34 
Q 2366 -91 2075 -91 
Q 1284 -91 818 406 
Q 353 903 353 1747 
Q 353 2603 823 3093 
Q 1294 3584 2113 3584 
Q 2378 3584 2631 3529 
Q 2884 3475 3122 3366 
z
" transform="scale(0.015625)"/>
     </defs>
     <use xlink:href="#DejaVuSans-4e"/>
     <use xlink:href="#DejaVuSans-75" x="74.804688"/>
     <use xlink:href="#DejaVuSans-6d" x="138.183594"/>
     <use xlink:href="#DejaVuSans-61" x="235.595703"/>
     <use xlink:href="#DejaVuSans-72" x="296.875"/>
     <use xlink:href="#DejaVuSans-75" x="337.988281"/>
     <use xlink:href="#DejaVuSans-6c" x="401.367188"/>
     <use xlink:href="#DejaVuSans-20" x="429.150391"/>
     <use xlink:href="#DejaVuSans-70" x="460.9375"/>
     <use xlink:href="#DejaVuSans-72" x="524.414062"/>
     <use xlink:href="#DejaVuSans-65" x="563.277344"/>
     <use xlink:href="#DejaVuSans-64" x="624.800781"/>
     <use xlink:href="#DejaVuSans-69" x="688.277344"/>
     <use xlink:href="#DejaVuSans-63" x="716.060547"/>
     <use xlink:href="#DejaVuSans-74" x="771.041016"/>
     <use xlink:href="#DejaVuSans-69" x="810.25"/>
     <use xlink:href="#DejaVuSans-69" x="838.033203"/>
     <use xlink:href="#DejaVuSans-6c" x="865.816406"/>
     <use xlink:href="#DejaVuSans-6f" x="893.599609"/>
     <use xlink:href="#DejaVuSans-72" x="954.78125"/>
     <use xlink:href="#DejaVuSans-20" x="995.894531"/>
     <use xlink:href="#DejaVuSans-6c" x="1027.681641"/>
     <use xlink:href="#DejaVuSans-75" x="1055.464844"/>
     <use xlink:href="#DejaVuSans-61" x="1118.84375"/>
     <use xlink:href="#DejaVuSans-74" x="1180.123047"/>
     <use xlink:href="#DejaVuSans-65" x="1219.332031"/>
     <use xlink:href="#DejaVuSans-20" x="1280.855469"/>
     <use xlink:href="#DejaVuSans-69" x="1312.642578"/>
     <use xlink:href="#DejaVuSans-6e" x="1340.425781"/>
     <use xlink:href="#DejaVuSans-20" x="1403.804688"/>
     <use xlink:href="#DejaVuSans-6d" x="1435.591797"/>
     <use xlink:href="#DejaVuSans-6f" x="1533.003906"/>
     <use xlink:href="#DejaVuSans-64" x="1594.185547"/>
     <use xlink:href="#DejaVuSans-65" x="1657.662109"/>
     <use xlink:href="#DejaVuSans-6c" x="1719.185547"/>
    </g>
   </g>
  </g>
 </g>
 <defs>
  <clipPath id="p203c0d649c">
   <rect x="57.6" y="41.472" width="357.12" height="165.888"/>
  </clipPath>
  <clipPath id="p4bbf2a2552">
   <rect x="115.2" y="283.392" width="299.52" height="10.368"/>
  </clipPath>
  <clipPath id="pf922543586">
   <path d="M 115.2 291.168 
L 414.72 291.168 
L 414.72 285.984 
L 115.2 285.984 
z
"/>
  </clipPath>
  <clipPath id="p56823f859e">
   <rect x="115.2" y="300.672" width="299.52" height="10.368"/>
  </clipPath>
  <clipPath id="pee54fbb6ee">
   <path d="M 115.2 308.448 
L 414.72 308.448 
L 414.72 303.264 
L 115.2 303.264 
z
"/>
  </clipPath>
 </defs>
</svg>
