<?xml version="1.0" encoding="utf-8" standalone="no"?>
<!DOCTYPE svg PUBLIC "-//W3C//DTD SVG 1.1//EN"
  "http://www.w3.org/Graphics/SVG/1.1/DTD/svg11.dtd">
<svg xmlns:xlink="http://www.w3.org/1999/xlink" width="460.8pt" height="345.6pt" viewBox="0 0 460.8 345.6" xmlns="http://www.w3.org/2000/svg" version="1.1">
 <metadata>
  <rdf:RDF xmlns:dc="http://purl.org/dc/elements/1.1/" xmlns:cc="http://creativecommons.org/ns#" xmlns:rdf="http://www.w3.org/1999/02/22-rdf-syntax-ns#">
   <cc:Work>
    <dc:type rdf:resource="http://purl.org/dc/dcmitype/StillImage"/>
    <dc:date>2024-10-13T13:16:16.768827</dc:date>
    <dc:format>image/svg+xml</dc:format>
    <dc:creator>
     <cc:Agent>
      <dc:title>Matplotlib v3.9.2, https://matplotlib.org/</dc:title>
     </cc:Agent>
    </dc:creator>
   </cc:Work>
  </rdf:RDF>
 </metadata>
 <defs>
  <style type="text/css">*{stroke-linejoin: round; stroke-linecap: butt}</style>
 </defs>
 <g id="figure_1">
  <g id="patch_1">
   <path d="M 0 345.6 
L 460.8 345.6 
L 460.8 0 
L 0 0 
z
" style="fill: #ffffff"/>
  </g>
  <g id="axes_1">
   <g id="patch_2">
    <path d="M 57.6 119.740235 
L 414.72 119.740235 
L 414.72 41.472 
L 57.6 41.472 
z
" style="fill: #ffffff"/>
   </g>
   <g id="matplotlib.axis_1">
    <g id="xtick_1">
     <g id="line2d_1">
      <defs>
       <path id="m141e6e0237" d="M 0 0 
L 0 3.5 
" style="stroke: #000000; stroke-width: 0.8"/>
      </defs>
      <g>
       <use xlink:href="#m141e6e0237" x="73.832727" y="119.740235" style="stroke: #000000; stroke-width: 0.8"/>
      </g>
     </g>
     <g id="text_1">
      <!-- 0.00 -->
      <g transform="translate(62.699915 134.338673) scale(0.1 -0.1)">
       <defs>
        <path id="DejaVuSans-30" d="M 2034 4250 
Q 1547 4250 1301 3770 
Q 1056 3291 1056 2328 
Q 1056 1369 1301 889 
Q 1547 409 2034 409 
Q 2525 409 2770 889 
Q 3016 1369 3016 2328 
Q 3016 3291 2770 3770 
Q 2525 4250 2034 4250 
z
M 2034 4750 
Q 2819 4750 3233 4129 
Q 3647 3509 3647 2328 
Q 3647 1150 3233 529 
Q 2819 -91 2034 -91 
Q 1250 -91 836 529 
Q 422 1150 422 2328 
Q 422 3509 836 4129 
Q 1250 4750 2034 4750 
z
" transform="scale(0.015625)"/>
        <path id="DejaVuSans-2e" d="M 684 794 
L 1344 794 
L 1344 0 
L 684 0 
L 684 794 
z
" transform="scale(0.015625)"/>
       </defs>
       <use xlink:href="#DejaVuSans-30"/>
       <use xlink:href="#DejaVuSans-2e" x="63.623047"/>
       <use xlink:href="#DejaVuSans-30" x="95.410156"/>
       <use xlink:href="#DejaVuSans-30" x="159.033203"/>
      </g>
     </g>
    </g>
    <g id="xtick_2">
     <g id="line2d_2">
      <g>
       <use xlink:href="#m141e6e0237" x="127.941818" y="119.740235" style="stroke: #000000; stroke-width: 0.8"/>
      </g>
     </g>
     <g id="text_2">
      <!-- 0.05 -->
      <g transform="translate(116.809006 134.338673) scale(0.1 -0.1)">
       <defs>
        <path id="DejaVuSans-35" d="M 691 4666 
L 3169 4666 
L 3169 4134 
L 1269 4134 
L 1269 2991 
Q 1406 3038 1543 3061 
Q 1681 3084 1819 3084 
Q 2600 3084 3056 2656 
Q 3513 2228 3513 1497 
Q 3513 744 3044 326 
Q 2575 -91 1722 -91 
Q 1428 -91 1123 -41 
Q 819 9 494 109 
L 494 744 
Q 775 591 1075 516 
Q 1375 441 1709 441 
Q 2250 441 2565 725 
Q 2881 1009 2881 1497 
Q 2881 1984 2565 2268 
Q 2250 2553 1709 2553 
Q 1456 2553 1204 2497 
Q 953 2441 691 2322 
L 691 4666 
z
" transform="scale(0.015625)"/>
       </defs>
       <use xlink:href="#DejaVuSans-30"/>
       <use xlink:href="#DejaVuSans-2e" x="63.623047"/>
       <use xlink:href="#DejaVuSans-30" x="95.410156"/>
       <use xlink:href="#DejaVuSans-35" x="159.033203"/>
      </g>
     </g>
    </g>
    <g id="xtick_3">
     <g id="line2d_3">
      <g>
       <use xlink:href="#m141e6e0237" x="182.050909" y="119.740235" style="stroke: #000000; stroke-width: 0.8"/>
      </g>
     </g>
     <g id="text_3">
      <!-- 0.10 -->
      <g transform="translate(170.918097 134.338673) scale(0.1 -0.1)">
       <defs>
        <path id="DejaVuSans-31" d="M 794 531 
L 1825 531 
L 1825 4091 
L 703 3866 
L 703 4441 
L 1819 4666 
L 2450 4666 
L 2450 531 
L 3481 531 
L 3481 0 
L 794 0 
L 794 531 
z
" transform="scale(0.015625)"/>
       </defs>
       <use xlink:href="#DejaVuSans-30"/>
       <use xlink:href="#DejaVuSans-2e" x="63.623047"/>
       <use xlink:href="#DejaVuSans-31" x="95.410156"/>
       <use xlink:href="#DejaVuSans-30" x="159.033203"/>
      </g>
     </g>
    </g>
    <g id="xtick_4">
     <g id="line2d_4">
      <g>
       <use xlink:href="#m141e6e0237" x="236.16" y="119.740235" style="stroke: #000000; stroke-width: 0.8"/>
      </g>
     </g>
     <g id="text_4">
      <!-- 0.15 -->
      <g transform="translate(225.027188 134.338673) scale(0.1 -0.1)">
       <use xlink:href="#DejaVuSans-30"/>
       <use xlink:href="#DejaVuSans-2e" x="63.623047"/>
       <use xlink:href="#DejaVuSans-31" x="95.410156"/>
       <use xlink:href="#DejaVuSans-35" x="159.033203"/>
      </g>
     </g>
    </g>
    <g id="xtick_5">
     <g id="line2d_5">
      <g>
       <use xlink:href="#m141e6e0237" x="290.269091" y="119.740235" style="stroke: #000000; stroke-width: 0.8"/>
      </g>
     </g>
     <g id="text_5">
      <!-- 0.20 -->
      <g transform="translate(279.136278 134.338673) scale(0.1 -0.1)">
       <defs>
        <path id="DejaVuSans-32" d="M 1228 531 
L 3431 531 
L 3431 0 
L 469 0 
L 469 531 
Q 828 903 1448 1529 
Q 2069 2156 2228 2338 
Q 2531 2678 2651 2914 
Q 2772 3150 2772 3378 
Q 2772 3750 2511 3984 
Q 2250 4219 1831 4219 
Q 1534 4219 1204 4116 
Q 875 4013 500 3803 
L 500 4441 
Q 881 4594 1212 4672 
Q 1544 4750 1819 4750 
Q 2544 4750 2975 4387 
Q 3406 4025 3406 3419 
Q 3406 3131 3298 2873 
Q 3191 2616 2906 2266 
Q 2828 2175 2409 1742 
Q 1991 1309 1228 531 
z
" transform="scale(0.015625)"/>
       </defs>
       <use xlink:href="#DejaVuSans-30"/>
       <use xlink:href="#DejaVuSans-2e" x="63.623047"/>
       <use xlink:href="#DejaVuSans-32" x="95.410156"/>
       <use xlink:href="#DejaVuSans-30" x="159.033203"/>
      </g>
     </g>
    </g>
    <g id="xtick_6">
     <g id="line2d_6">
      <g>
       <use xlink:href="#m141e6e0237" x="344.378182" y="119.740235" style="stroke: #000000; stroke-width: 0.8"/>
      </g>
     </g>
     <g id="text_6">
      <!-- 0.25 -->
      <g transform="translate(333.245369 134.338673) scale(0.1 -0.1)">
       <use xlink:href="#DejaVuSans-30"/>
       <use xlink:href="#DejaVuSans-2e" x="63.623047"/>
       <use xlink:href="#DejaVuSans-32" x="95.410156"/>
       <use xlink:href="#DejaVuSans-35" x="159.033203"/>
      </g>
     </g>
    </g>
    <g id="xtick_7">
     <g id="line2d_7">
      <g>
       <use xlink:href="#m141e6e0237" x="398.487273" y="119.740235" style="stroke: #000000; stroke-width: 0.8"/>
      </g>
     </g>
     <g id="text_7">
      <!-- 0.30 -->
      <g transform="translate(387.35446 134.338673) scale(0.1 -0.1)">
       <defs>
        <path id="DejaVuSans-33" d="M 2597 2516 
Q 3050 2419 3304 2112 
Q 3559 1806 3559 1356 
Q 3559 666 3084 287 
Q 2609 -91 1734 -91 
Q 1441 -91 1130 -33 
Q 819 25 488 141 
L 488 750 
Q 750 597 1062 519 
Q 1375 441 1716 441 
Q 2309 441 2620 675 
Q 2931 909 2931 1356 
Q 2931 1769 2642 2001 
Q 2353 2234 1838 2234 
L 1294 2234 
L 1294 2753 
L 1863 2753 
Q 2328 2753 2575 2939 
Q 2822 3125 2822 3475 
Q 2822 3834 2567 4026 
Q 2313 4219 1838 4219 
Q 1578 4219 1281 4162 
Q 984 4106 628 3988 
L 628 4550 
Q 988 4650 1302 4700 
Q 1616 4750 1894 4750 
Q 2613 4750 3031 4423 
Q 3450 4097 3450 3541 
Q 3450 3153 3228 2886 
Q 3006 2619 2597 2516 
z
" transform="scale(0.015625)"/>
       </defs>
       <use xlink:href="#DejaVuSans-30"/>
       <use xlink:href="#DejaVuSans-2e" x="63.623047"/>
       <use xlink:href="#DejaVuSans-33" x="95.410156"/>
       <use xlink:href="#DejaVuSans-30" x="159.033203"/>
      </g>
     </g>
    </g>
   </g>
   <g id="matplotlib.axis_2">
    <g id="ytick_1">
     <g id="line2d_8">
      <defs>
       <path id="m5dcbbf8879" d="M 0 0 
L -3.5 0 
" style="stroke: #000000; stroke-width: 0.8"/>
      </defs>
      <g>
       <use xlink:href="#m5dcbbf8879" x="57.6" y="116.182984" style="stroke: #000000; stroke-width: 0.8"/>
      </g>
     </g>
     <g id="text_8">
      <!-- −1 -->
      <g transform="translate(35.857813 119.982203) scale(0.1 -0.1)">
       <defs>
        <path id="DejaVuSans-2212" d="M 678 2272 
L 4684 2272 
L 4684 1741 
L 678 1741 
L 678 2272 
z
" transform="scale(0.015625)"/>
       </defs>
       <use xlink:href="#DejaVuSans-2212"/>
       <use xlink:href="#DejaVuSans-31" x="83.789062"/>
      </g>
     </g>
    </g>
    <g id="ytick_2">
     <g id="line2d_9">
      <g>
       <use xlink:href="#m5dcbbf8879" x="57.6" y="80.606118" style="stroke: #000000; stroke-width: 0.8"/>
      </g>
     </g>
     <g id="text_9">
      <!-- 0 -->
      <g transform="translate(44.2375 84.405336) scale(0.1 -0.1)">
       <use xlink:href="#DejaVuSans-30"/>
      </g>
     </g>
    </g>
    <g id="ytick_3">
     <g id="line2d_10">
      <g>
       <use xlink:href="#m5dcbbf8879" x="57.6" y="45.029251" style="stroke: #000000; stroke-width: 0.8"/>
      </g>
     </g>
     <g id="text_10">
      <!-- 1 -->
      <g transform="translate(44.2375 48.82847) scale(0.1 -0.1)">
       <use xlink:href="#DejaVuSans-31"/>
      </g>
     </g>
    </g>
   </g>
   <g id="line2d_11">
    <path d="M 73.832727 80.606118 
L 74.807666 61.526079 
L 75.457625 51.804113 
L 76.107584 46.135308 
L 76.432563 45.096123 
L 76.757543 45.317408 
L 77.082523 46.791311 
L 77.407502 49.465512 
L 78.057461 57.995878 
L 79.0324 76.253732 
L 80.332318 101.626141 
L 80.982277 110.723532 
L 81.307256 113.741176 
L 81.632236 115.58265 
L 81.957215 116.182588 
L 82.282195 115.519695 
L 82.607174 113.617502 
L 82.932154 110.543528 
L 83.582113 101.354418 
L 84.557052 82.618881 
L 85.85697 57.737749 
L 86.506929 49.304595 
L 86.831908 46.688497 
L 87.156888 45.276347 
L 87.481867 45.118272 
L 87.806847 46.219882 
L 88.131826 48.542074 
L 88.781785 56.478088 
L 89.756724 74.263059 
L 91.056642 99.968591 
L 91.706601 109.603866 
L 92.35656 115.158433 
L 92.68154 116.135102 
L 93.006519 115.850625 
L 93.331499 114.315101 
L 93.656478 111.583034 
L 94.306437 102.956217 
L 95.281376 84.625196 
L 96.581294 59.316242 
L 97.231253 50.311379 
L 97.556233 47.350334 
L 97.881212 45.569744 
L 98.206192 45.032813 
L 98.531171 45.758602 
L 98.856151 47.721346 
L 99.50611 55.037589 
L 100.156069 65.951962 
L 102.430925 108.391311 
L 103.080885 114.623534 
L 103.405864 115.973805 
L 103.730844 116.068656 
L 104.055823 114.90472 
L 104.380803 112.523312 
L 105.030762 104.486421 
L 106.0057 86.618637 
L 107.305618 60.962933 
L 107.955577 51.415207 
L 108.280557 48.118699 
L 108.605536 45.975372 
L 108.930516 45.061307 
L 109.255495 45.408949 
L 109.580475 47.005959 
L 109.905455 49.795648 
L 110.555414 58.518149 
L 111.530352 76.920704 
L 112.83027 102.163951 
L 113.480229 111.075484 
L 113.805209 113.979667 
L 114.130188 115.699215 
L 114.455168 116.173089 
L 114.780147 115.38447 
L 115.105127 113.361349 
L 115.755086 105.94013 
L 116.405045 94.953781 
L 118.354922 57.22762 
L 119.004881 48.991131 
L 119.329861 46.491934 
L 119.65484 45.203662 
L 119.97982 45.172044 
L 120.304799 46.398202 
L 120.629779 48.838614 
L 121.279738 56.975666 
L 122.254676 74.924673 
L 123.554595 100.528266 
L 124.204554 109.987592 
L 124.529533 113.228895 
L 124.854513 115.312211 
L 125.179492 116.163591 
L 125.504472 115.752814 
L 125.829451 114.094462 
L 126.154431 111.247399 
L 126.80439 102.42999 
L 127.779328 83.957538 
L 129.079247 58.782246 
L 129.729206 49.964836 
L 130.054185 47.117773 
L 130.379165 45.459421 
L 130.704144 45.048644 
L 131.029124 45.900024 
L 131.354103 47.983341 
L 132.004062 55.508877 
L 132.654021 66.566223 
L 134.603898 104.23657 
L 135.253857 112.373622 
L 135.578837 114.814033 
L 135.903817 116.040192 
L 136.228796 116.008574 
L 136.553776 114.720301 
L 136.878755 112.221104 
L 137.528714 103.984615 
L 138.503653 85.955983 
L 139.803571 60.406779 
L 140.45353 51.036694 
L 140.778509 47.850886 
L 141.103489 45.827766 
L 141.428468 45.039146 
L 141.753448 45.513021 
L 142.078428 47.232568 
L 142.403407 50.136752 
L 143.053366 59.048284 
L 144.028305 77.588989 
L 145.328223 102.694086 
L 145.978182 111.416588 
L 146.303161 114.206277 
L 146.628141 115.803286 
L 146.95312 116.150928 
L 147.2781 115.236863 
L 147.603079 113.093536 
L 148.253038 105.464352 
L 148.902998 94.336994 
L 150.852875 56.725814 
L 151.502834 48.688923 
L 151.827813 46.307516 
L 152.152793 45.14358 
L 152.477772 45.238431 
L 152.802752 46.588701 
L 153.127731 49.146463 
L 153.77769 57.481655 
L 154.752629 75.588309 
L 156.052547 101.080848 
L 156.702506 110.360859 
L 157.027486 113.490889 
L 157.352465 115.453633 
L 157.677445 116.179422 
L 158.002424 115.642492 
L 158.327404 113.861901 
L 158.652383 110.900856 
L 159.302342 101.895994 
L 160.277281 83.288687 
L 161.577199 58.256019 
L 162.227158 49.629201 
L 162.552138 46.897135 
L 162.877117 45.36161 
L 163.202097 45.077134 
L 163.527076 46.053803 
L 163.852056 48.256949 
L 164.502015 55.989101 
L 165.151974 67.185483 
L 167.101851 104.734147 
L 167.75181 112.670161 
L 168.07679 114.992354 
L 168.401769 116.093963 
L 168.726749 115.935888 
L 169.051728 114.523738 
L 169.376708 111.907641 
L 170.026667 103.474487 
L 171.001605 85.291423 
L 172.301523 59.857817 
L 172.951482 50.668708 
L 173.276462 47.594734 
L 173.601441 45.69254 
L 173.926421 45.029647 
L 174.2514 45.629585 
L 174.57638 47.471059 
L 174.90136 50.488703 
L 175.551319 59.586094 
L 176.526257 78.258347 
L 177.826175 103.216358 
L 178.476134 111.746723 
L 178.801114 114.420924 
L 179.126093 115.894827 
L 179.451073 116.116113 
L 179.776052 115.076927 
L 180.101032 112.814157 
L 180.750991 104.979725 
L 181.40095 93.715318 
L 183.350827 56.23251 
L 184.000786 48.398078 
L 184.325766 46.135308 
L 184.650745 45.096123 
L 184.975725 45.317408 
L 185.300704 46.791311 
L 185.625684 49.465512 
L 186.275643 57.995878 
L 187.250581 76.253732 
L 188.5505 101.626141 
L 189.200459 110.723532 
L 189.525438 113.741176 
L 189.850418 115.58265 
L 190.175397 116.182588 
L 190.500377 115.519695 
L 190.825356 113.617502 
L 191.150336 110.543528 
L 191.800295 101.354418 
L 192.775233 82.618881 
L 194.075152 57.737749 
L 194.725111 49.304595 
L 195.05009 46.688497 
L 195.37507 45.276347 
L 195.700049 45.118272 
L 196.025029 46.219882 
L 196.350008 48.542074 
L 196.999967 56.478088 
L 197.974906 74.263059 
L 199.274824 99.968591 
L 199.924783 109.603866 
L 200.574742 115.158433 
L 200.899722 116.135102 
L 201.224701 115.850625 
L 201.549681 114.315101 
L 201.87466 111.583034 
L 202.524619 102.956217 
L 203.499558 84.625196 
L 204.799476 59.316242 
L 205.449435 50.311379 
L 205.774414 47.350334 
L 206.099394 45.569744 
L 206.424373 45.032813 
L 206.749353 45.758602 
L 207.074333 47.721346 
L 207.724292 55.037589 
L 208.374251 65.951962 
L 210.649107 108.391311 
L 211.299066 114.623534 
L 211.624046 115.973805 
L 211.949025 116.068656 
L 212.274005 114.90472 
L 212.598984 112.523312 
L 213.248943 104.486421 
L 214.223882 86.618637 
L 215.5238 60.962933 
L 216.173759 51.415207 
L 216.498739 48.118699 
L 216.823718 45.975372 
L 217.148698 45.061307 
L 217.473677 45.408949 
L 217.798657 47.005959 
L 218.123636 49.795648 
L 218.773595 58.518149 
L 219.748534 76.920704 
L 221.048452 102.163951 
L 221.698411 111.075484 
L 222.023391 113.979667 
L 222.34837 115.699215 
L 222.67335 116.173089 
L 222.998329 115.38447 
L 223.323309 113.361349 
L 223.973268 105.94013 
L 224.623227 94.953781 
L 226.573104 57.22762 
L 227.223063 48.991131 
L 227.548043 46.491934 
L 227.873022 45.203662 
L 228.198002 45.172044 
L 228.522981 46.398202 
L 228.847961 48.838614 
L 229.49792 56.975666 
L 230.472858 74.924673 
L 231.772776 100.528266 
L 232.422735 109.987592 
L 232.747715 113.228895 
L 233.072695 115.312211 
L 233.397674 116.163591 
L 233.722654 115.752814 
L 234.047633 114.094462 
L 234.372613 111.247399 
L 235.022572 102.42999 
L 235.99751 83.957538 
L 237.297428 58.782246 
L 237.947387 49.964836 
L 238.272367 47.117773 
L 238.597346 45.459421 
L 238.922326 45.048644 
L 239.247305 45.900024 
L 239.572285 47.983341 
L 240.222244 55.508877 
L 240.872203 66.566223 
L 242.82208 104.23657 
L 243.472039 112.373622 
L 243.797019 114.814033 
L 244.121998 116.040192 
L 244.446978 116.008574 
L 244.771957 114.720301 
L 245.096937 112.221104 
L 245.746896 103.984615 
L 246.721835 85.955983 
L 248.021753 60.406779 
L 248.671712 51.036694 
L 248.996691 47.850886 
L 249.321671 45.827766 
L 249.64665 45.039146 
L 249.97163 45.513021 
L 250.296609 47.232568 
L 250.621589 50.136752 
L 251.271548 59.048284 
L 252.246486 77.588989 
L 253.546405 102.694086 
L 254.196364 111.416588 
L 254.521343 114.206277 
L 254.846323 115.803286 
L 255.171302 116.150928 
L 255.496282 115.236863 
L 255.821261 113.093536 
L 256.47122 105.464352 
L 257.121179 94.336994 
L 259.071057 56.725814 
L 259.721016 48.688923 
L 260.045995 46.307516 
L 260.370975 45.14358 
L 260.695954 45.238431 
L 261.020934 46.588701 
L 261.345913 49.146463 
L 261.995872 57.481655 
L 262.970811 75.588309 
L 264.270729 101.080848 
L 264.920688 110.360859 
L 265.245667 113.490889 
L 265.570647 115.453633 
L 265.895627 116.179422 
L 266.220606 115.642492 
L 266.545586 113.861901 
L 266.870565 110.900856 
L 267.520524 101.895994 
L 268.495463 83.288687 
L 269.795381 58.256019 
L 270.44534 49.629201 
L 270.770319 46.897135 
L 271.095299 45.36161 
L 271.420278 45.077134 
L 271.745258 46.053803 
L 272.070238 48.256949 
L 272.720197 55.989101 
L 273.370156 67.185483 
L 275.320033 104.734147 
L 275.969992 112.670161 
L 276.294971 114.992354 
L 276.619951 116.093963 
L 276.94493 115.935888 
L 277.26991 114.523738 
L 277.594889 111.907641 
L 278.244848 103.474487 
L 279.219787 85.291423 
L 280.519705 59.857817 
L 281.169664 50.668708 
L 281.494644 47.594734 
L 281.819623 45.69254 
L 282.144603 45.029647 
L 282.469582 45.629585 
L 282.794562 47.471059 
L 283.119541 50.488703 
L 283.7695 59.586094 
L 284.744439 78.258347 
L 286.044357 103.216358 
L 286.694316 111.746723 
L 287.019296 114.420924 
L 287.344275 115.894827 
L 287.669255 116.116113 
L 287.994234 115.076927 
L 288.319214 112.814157 
L 288.969173 104.979725 
L 289.619132 93.715318 
L 291.569009 56.23251 
L 292.218968 48.398078 
L 292.543948 46.135308 
L 292.868927 45.096123 
L 293.193907 45.317408 
L 293.518886 46.791311 
L 293.843866 49.465512 
L 294.493825 57.995878 
L 295.468763 76.253732 
L 296.768681 101.626141 
L 297.41864 110.723532 
L 297.74362 113.741176 
L 298.0686 115.58265 
L 298.393579 116.182588 
L 298.718559 115.519695 
L 299.043538 113.617502 
L 299.368518 110.543528 
L 300.018477 101.354418 
L 300.993415 82.618881 
L 302.293333 57.737749 
L 302.943292 49.304595 
L 303.268272 46.688497 
L 303.593251 45.276347 
L 303.918231 45.118272 
L 304.24321 46.219882 
L 304.56819 48.542074 
L 305.218149 56.478088 
L 306.193088 74.263059 
L 307.493006 99.968591 
L 308.142965 109.603866 
L 308.792924 115.158433 
L 309.117903 116.135102 
L 309.442883 115.850625 
L 309.767862 114.315101 
L 310.092842 111.583034 
L 310.742801 102.956217 
L 311.71774 84.625196 
L 313.017658 59.316242 
L 313.667617 50.311379 
L 313.992596 47.350334 
L 314.317576 45.569744 
L 314.642555 45.032813 
L 314.967535 45.758602 
L 315.292514 47.721346 
L 315.942473 55.037589 
L 316.592432 65.951962 
L 318.867289 108.391311 
L 319.517248 114.623534 
L 319.842228 115.973805 
L 320.167207 116.068656 
L 320.492187 114.90472 
L 320.817166 112.523312 
L 321.467125 104.486421 
L 322.442064 86.618637 
L 323.741982 60.962933 
L 324.391941 51.415207 
L 324.716921 48.118699 
L 325.0419 45.975372 
L 325.36688 45.061307 
L 325.691859 45.408949 
L 326.016839 47.005959 
L 326.341818 49.795648 
L 326.991777 58.518149 
L 327.966716 76.920704 
L 329.266634 102.163951 
L 329.916593 111.075484 
L 330.241572 113.979667 
L 330.566552 115.699215 
L 330.891532 116.173089 
L 331.216511 115.38447 
L 331.541491 113.361349 
L 332.19145 105.94013 
L 332.841409 94.953781 
L 334.791286 57.22762 
L 335.441245 48.991131 
L 335.766224 46.491934 
L 336.091204 45.203662 
L 336.416183 45.172044 
L 336.741163 46.398202 
L 337.066143 48.838614 
L 337.716102 56.975666 
L 338.69104 74.924673 
L 339.990958 100.528266 
L 340.640917 109.987592 
L 340.965897 113.228895 
L 341.290876 115.312211 
L 341.615856 116.163591 
L 341.940835 115.752814 
L 342.265815 114.094462 
L 342.590794 111.247399 
L 343.240753 102.42999 
L 344.215692 83.957538 
L 345.51561 58.782246 
L 346.165569 49.964836 
L 346.490549 47.117773 
L 346.815528 45.459421 
L 347.140508 45.048644 
L 347.465487 45.900024 
L 347.790467 47.983341 
L 348.440426 55.508877 
L 349.090385 66.566223 
L 351.040262 104.23657 
L 351.690221 112.373622 
L 352.015201 114.814033 
L 352.34018 116.040192 
L 352.66516 116.008574 
L 352.990139 114.720301 
L 353.315119 112.221104 
L 353.965078 103.984615 
L 354.940016 85.955983 
L 356.239934 60.406779 
L 356.889894 51.036694 
L 357.214873 47.850886 
L 357.539853 45.827766 
L 357.864832 45.039146 
L 358.189812 45.513021 
L 358.514791 47.232568 
L 358.839771 50.136752 
L 359.48973 59.048284 
L 360.464668 77.588989 
L 361.764586 102.694086 
L 362.414545 111.416588 
L 362.739525 114.206277 
L 363.064505 115.803286 
L 363.389484 116.150928 
L 363.714464 115.236863 
L 364.039443 113.093536 
L 364.689402 105.464352 
L 365.339361 94.336994 
L 367.289238 56.725814 
L 367.939197 48.688923 
L 368.264177 46.307516 
L 368.589156 45.14358 
L 368.914136 45.238431 
L 369.239115 46.588701 
L 369.564095 49.146463 
L 370.214054 57.481655 
L 371.188993 75.588309 
L 372.488911 101.080848 
L 373.13887 110.360859 
L 373.463849 113.490889 
L 373.788829 115.453633 
L 374.113808 116.179422 
L 374.438788 115.642492 
L 374.763767 113.861901 
L 375.088747 110.900856 
L 375.738706 101.895994 
L 376.713645 83.288687 
L 378.013563 58.256019 
L 378.663522 49.629201 
L 378.988501 46.897135 
L 379.313481 45.36161 
L 379.63846 45.077134 
L 379.96344 46.053803 
L 380.288419 48.256949 
L 380.938378 55.989101 
L 381.588337 67.185483 
L 383.538215 104.734147 
L 384.188174 112.670161 
L 384.513153 114.992354 
L 384.838133 116.093963 
L 385.163112 115.935888 
L 385.488092 114.523738 
L 385.813071 111.907641 
L 386.46303 103.474487 
L 387.437969 85.291423 
L 388.737887 59.857817 
L 389.387846 50.668708 
L 389.712826 47.594734 
L 390.037805 45.69254 
L 390.362785 45.029647 
L 390.687764 45.629585 
L 391.012744 47.471059 
L 391.337723 50.488703 
L 391.987682 59.586094 
L 392.962621 78.258347 
L 394.262539 103.216358 
L 394.912498 111.746723 
L 395.237477 114.420924 
L 395.562457 115.894827 
L 395.887437 116.116113 
L 396.212416 115.076927 
L 396.537396 112.814157 
L 397.187355 104.979725 
L 397.837314 93.715318 
L 398.487273 80.606118 
L 398.487273 80.606118 
" clip-path="url(#p1d1af2a360)" style="fill: none; stroke: #1f77b4; stroke-width: 1.5; stroke-linecap: square"/>
   </g>
   <g id="patch_3">
    <path d="M 57.6 119.740235 
L 57.6 41.472 
" style="fill: none; stroke: #000000; stroke-width: 0.8; stroke-linejoin: miter; stroke-linecap: square"/>
   </g>
   <g id="patch_4">
    <path d="M 414.72 119.740235 
L 414.72 41.472 
" style="fill: none; stroke: #000000; stroke-width: 0.8; stroke-linejoin: miter; stroke-linecap: square"/>
   </g>
   <g id="patch_5">
    <path d="M 57.6 119.740235 
L 414.72 119.740235 
" style="fill: none; stroke: #000000; stroke-width: 0.8; stroke-linejoin: miter; stroke-linecap: square"/>
   </g>
   <g id="patch_6">
    <path d="M 57.6 41.472 
L 414.72 41.472 
" style="fill: none; stroke: #000000; stroke-width: 0.8; stroke-linejoin: miter; stroke-linecap: square"/>
   </g>
  </g>
  <g id="axes_2">
   <g id="patch_7">
    <path d="M 57.6 213.662118 
L 414.72 213.662118 
L 414.72 135.393882 
L 57.6 135.393882 
z
" style="fill: #ffffff"/>
   </g>
   <g id="matplotlib.axis_3">
    <g id="xtick_8">
     <g id="line2d_12">
      <g>
       <use xlink:href="#m141e6e0237" x="73.832727" y="213.662118" style="stroke: #000000; stroke-width: 0.8"/>
      </g>
     </g>
     <g id="text_11">
      <!-- 0.00 -->
      <g transform="translate(62.699915 228.260555) scale(0.1 -0.1)">
       <use xlink:href="#DejaVuSans-30"/>
       <use xlink:href="#DejaVuSans-2e" x="63.623047"/>
       <use xlink:href="#DejaVuSans-30" x="95.410156"/>
       <use xlink:href="#DejaVuSans-30" x="159.033203"/>
      </g>
     </g>
    </g>
    <g id="xtick_9">
     <g id="line2d_13">
      <g>
       <use xlink:href="#m141e6e0237" x="127.941818" y="213.662118" style="stroke: #000000; stroke-width: 0.8"/>
      </g>
     </g>
     <g id="text_12">
      <!-- 0.05 -->
      <g transform="translate(116.809006 228.260555) scale(0.1 -0.1)">
       <use xlink:href="#DejaVuSans-30"/>
       <use xlink:href="#DejaVuSans-2e" x="63.623047"/>
       <use xlink:href="#DejaVuSans-30" x="95.410156"/>
       <use xlink:href="#DejaVuSans-35" x="159.033203"/>
      </g>
     </g>
    </g>
    <g id="xtick_10">
     <g id="line2d_14">
      <g>
       <use xlink:href="#m141e6e0237" x="182.050909" y="213.662118" style="stroke: #000000; stroke-width: 0.8"/>
      </g>
     </g>
     <g id="text_13">
      <!-- 0.10 -->
      <g transform="translate(170.918097 228.260555) scale(0.1 -0.1)">
       <use xlink:href="#DejaVuSans-30"/>
       <use xlink:href="#DejaVuSans-2e" x="63.623047"/>
       <use xlink:href="#DejaVuSans-31" x="95.410156"/>
       <use xlink:href="#DejaVuSans-30" x="159.033203"/>
      </g>
     </g>
    </g>
    <g id="xtick_11">
     <g id="line2d_15">
      <g>
       <use xlink:href="#m141e6e0237" x="236.16" y="213.662118" style="stroke: #000000; stroke-width: 0.8"/>
      </g>
     </g>
     <g id="text_14">
      <!-- 0.15 -->
      <g transform="translate(225.027188 228.260555) scale(0.1 -0.1)">
       <use xlink:href="#DejaVuSans-30"/>
       <use xlink:href="#DejaVuSans-2e" x="63.623047"/>
       <use xlink:href="#DejaVuSans-31" x="95.410156"/>
       <use xlink:href="#DejaVuSans-35" x="159.033203"/>
      </g>
     </g>
    </g>
    <g id="xtick_12">
     <g id="line2d_16">
      <g>
       <use xlink:href="#m141e6e0237" x="290.269091" y="213.662118" style="stroke: #000000; stroke-width: 0.8"/>
      </g>
     </g>
     <g id="text_15">
      <!-- 0.20 -->
      <g transform="translate(279.136278 228.260555) scale(0.1 -0.1)">
       <use xlink:href="#DejaVuSans-30"/>
       <use xlink:href="#DejaVuSans-2e" x="63.623047"/>
       <use xlink:href="#DejaVuSans-32" x="95.410156"/>
       <use xlink:href="#DejaVuSans-30" x="159.033203"/>
      </g>
     </g>
    </g>
    <g id="xtick_13">
     <g id="line2d_17">
      <g>
       <use xlink:href="#m141e6e0237" x="344.378182" y="213.662118" style="stroke: #000000; stroke-width: 0.8"/>
      </g>
     </g>
     <g id="text_16">
      <!-- 0.25 -->
      <g transform="translate(333.245369 228.260555) scale(0.1 -0.1)">
       <use xlink:href="#DejaVuSans-30"/>
       <use xlink:href="#DejaVuSans-2e" x="63.623047"/>
       <use xlink:href="#DejaVuSans-32" x="95.410156"/>
       <use xlink:href="#DejaVuSans-35" x="159.033203"/>
      </g>
     </g>
    </g>
    <g id="xtick_14">
     <g id="line2d_18">
      <g>
       <use xlink:href="#m141e6e0237" x="398.487273" y="213.662118" style="stroke: #000000; stroke-width: 0.8"/>
      </g>
     </g>
     <g id="text_17">
      <!-- 0.30 -->
      <g transform="translate(387.35446 228.260555) scale(0.1 -0.1)">
       <use xlink:href="#DejaVuSans-30"/>
       <use xlink:href="#DejaVuSans-2e" x="63.623047"/>
       <use xlink:href="#DejaVuSans-33" x="95.410156"/>
       <use xlink:href="#DejaVuSans-30" x="159.033203"/>
      </g>
     </g>
    </g>
   </g>
   <g id="matplotlib.axis_4">
    <g id="ytick_4">
     <g id="line2d_19">
      <g>
       <use xlink:href="#m5dcbbf8879" x="57.6" y="210.110843" style="stroke: #000000; stroke-width: 0.8"/>
      </g>
     </g>
     <g id="text_18">
      <!-- −1 -->
      <g transform="translate(35.857813 213.910061) scale(0.1 -0.1)">
       <use xlink:href="#DejaVuSans-2212"/>
       <use xlink:href="#DejaVuSans-31" x="83.789062"/>
      </g>
     </g>
    </g>
    <g id="ytick_5">
     <g id="line2d_20">
      <g>
       <use xlink:href="#m5dcbbf8879" x="57.6" y="174.528" style="stroke: #000000; stroke-width: 0.8"/>
      </g>
     </g>
     <g id="text_19">
      <!-- 0 -->
      <g transform="translate(44.2375 178.327219) scale(0.1 -0.1)">
       <use xlink:href="#DejaVuSans-30"/>
      </g>
     </g>
    </g>
    <g id="ytick_6">
     <g id="line2d_21">
      <g>
       <use xlink:href="#m5dcbbf8879" x="57.6" y="138.945157" style="stroke: #000000; stroke-width: 0.8"/>
      </g>
     </g>
     <g id="text_20">
      <!-- 1 -->
      <g transform="translate(44.2375 142.744376) scale(0.1 -0.1)">
       <use xlink:href="#DejaVuSans-31"/>
      </g>
     </g>
    </g>
   </g>
   <g id="line2d_22">
    <path d="M 73.832727 174.528 
L 75.136561 150.091436 
L 76.440394 139.002492 
L 77.744228 147.318117 
L 79.048061 170.496191 
L 80.351895 195.876499 
L 81.655728 209.595935 
L 82.959562 204.160736 
L 84.263395 182.539688 
L 85.567229 156.542536 
L 86.871062 140.369315 
L 88.174896 142.854084 
L 89.478729 162.639624 
L 90.782563 188.918774 
L 92.086396 207.337466 
L 93.39023 207.835133 
L 94.694064 190.13994 
L 95.997897 163.917271 
L 97.301731 143.490341 
L 98.605564 140.01665 
L 99.909398 155.393579 
L 101.213231 181.222017 
L 102.517065 203.394083 
L 103.820898 209.799058 
L 105.124732 196.938449 
L 107.732399 148.205291 
L 109.036232 138.951529 
L 110.340066 149.130173 
L 112.947733 197.968295 
L 114.251566 209.951655 
L 115.5554 202.586079 
L 116.859233 179.894757 
L 118.163067 154.272031 
L 119.4669 139.713421 
L 120.770734 144.17106 
L 122.074567 165.210117 
L 123.378401 191.338743 
L 124.682234 208.285087 
L 125.986068 206.792801 
L 127.289901 187.676993 
L 128.593735 161.379007 
L 129.897568 142.263199 
L 131.201402 140.770913 
L 132.505235 157.717257 
L 133.809069 183.845883 
L 135.112903 204.88494 
L 136.416736 209.342579 
L 137.72057 194.783969 
L 139.024403 169.161243 
L 140.328237 146.469921 
L 141.63207 139.104345 
L 142.935904 151.087705 
L 145.543571 199.925827 
L 146.847404 210.104471 
L 148.151238 200.850709 
L 150.758905 152.117551 
L 152.062738 139.256942 
L 153.366572 145.661917 
L 154.670405 167.833983 
L 155.974239 193.662421 
L 157.278072 209.03935 
L 158.581906 205.565659 
L 159.885739 185.138729 
L 161.189573 158.91606 
L 162.493406 141.220867 
L 163.79724 141.718534 
L 165.101073 160.137226 
L 166.404907 186.416376 
L 167.70874 206.201916 
L 169.012574 208.686685 
L 170.316407 192.513464 
L 171.620241 166.516312 
L 172.924074 144.895264 
L 174.227908 139.460065 
L 175.531742 153.179501 
L 176.835575 178.559809 
L 178.139409 201.737883 
L 179.443242 210.053508 
L 180.747076 198.964564 
L 183.354743 150.091436 
L 184.658576 139.002492 
L 185.96241 147.318117 
L 187.266243 170.496191 
L 188.570077 195.876499 
L 189.87391 209.595935 
L 191.177744 204.160736 
L 192.481577 182.539688 
L 193.785411 156.542536 
L 195.089244 140.369315 
L 196.393078 142.854084 
L 197.696911 162.639624 
L 199.000745 188.918774 
L 200.304578 207.337466 
L 201.608412 207.835133 
L 202.912245 190.13994 
L 204.216079 163.917271 
L 205.519912 143.490341 
L 206.823746 140.01665 
L 208.127579 155.393579 
L 209.431413 181.222017 
L 210.735246 203.394083 
L 212.03908 209.799058 
L 213.342913 196.938449 
L 215.950581 148.205291 
L 217.254414 138.951529 
L 218.558248 149.130173 
L 221.165915 197.968295 
L 222.469748 209.951655 
L 223.773582 202.586079 
L 225.077415 179.894757 
L 226.381249 154.272031 
L 227.685082 139.713421 
L 228.988916 144.17106 
L 230.292749 165.210117 
L 231.596583 191.338743 
L 232.900416 208.285087 
L 234.20425 206.792801 
L 235.508083 187.676993 
L 236.811917 161.379007 
L 238.11575 142.263199 
L 239.419584 140.770913 
L 240.723417 157.717257 
L 242.027251 183.845883 
L 243.331084 204.88494 
L 244.634918 209.342579 
L 245.938751 194.783969 
L 247.242585 169.161243 
L 248.546418 146.469921 
L 249.850252 139.104345 
L 251.154085 151.087705 
L 253.761752 199.925827 
L 255.065586 210.104471 
L 256.369419 200.850709 
L 258.977087 152.117551 
L 260.28092 139.256942 
L 261.584754 145.661917 
L 262.888587 167.833983 
L 264.192421 193.662421 
L 265.496254 209.03935 
L 266.800088 205.565659 
L 268.103921 185.138729 
L 269.407755 158.91606 
L 270.711588 141.220867 
L 272.015422 141.718534 
L 273.319255 160.137226 
L 274.623089 186.416376 
L 275.926922 206.201916 
L 277.230756 208.686685 
L 278.534589 192.513464 
L 279.838423 166.516312 
L 281.142256 144.895264 
L 282.44609 139.460065 
L 283.749923 153.179501 
L 285.053757 178.559809 
L 286.35759 201.737883 
L 287.661424 210.053508 
L 288.965257 198.964564 
L 291.572924 150.091436 
L 292.876758 139.002492 
L 294.180591 147.318117 
L 295.484425 170.496191 
L 296.788258 195.876499 
L 298.092092 209.595935 
L 299.395926 204.160736 
L 300.699759 182.539688 
L 302.003593 156.542536 
L 303.307426 140.369315 
L 304.61126 142.854084 
L 305.915093 162.639624 
L 307.218927 188.918774 
L 308.52276 207.337466 
L 309.826594 207.835133 
L 311.130427 190.13994 
L 312.434261 163.917271 
L 313.738094 143.490341 
L 315.041928 140.01665 
L 316.345761 155.393579 
L 317.649595 181.222017 
L 318.953428 203.394083 
L 320.257262 209.799058 
L 321.561095 196.938449 
L 324.168762 148.205291 
L 325.472596 138.951529 
L 326.776429 149.130173 
L 329.384096 197.968295 
L 330.68793 209.951655 
L 331.991763 202.586079 
L 333.295597 179.894757 
L 334.59943 154.272031 
L 335.903264 139.713421 
L 337.207097 144.17106 
L 338.510931 165.210117 
L 339.814765 191.338743 
L 341.118598 208.285087 
L 342.422432 206.792801 
L 343.726265 187.676993 
L 345.030099 161.379007 
L 346.333932 142.263199 
L 347.637766 140.770913 
L 348.941599 157.717257 
L 350.245433 183.845883 
L 351.549266 204.88494 
L 352.8531 209.342579 
L 354.156933 194.783969 
L 355.460767 169.161243 
L 356.7646 146.469921 
L 358.068434 139.104345 
L 359.372267 151.087705 
L 361.979934 199.925827 
L 363.283768 210.104471 
L 364.587601 200.850709 
L 367.195268 152.117551 
L 368.499102 139.256942 
L 369.802935 145.661917 
L 371.106769 167.833983 
L 372.410602 193.662421 
L 373.714436 209.03935 
L 375.018269 205.565659 
L 376.322103 185.138729 
L 377.625936 158.91606 
L 378.92977 141.220867 
L 380.233604 141.718534 
L 381.537437 160.137226 
L 382.841271 186.416376 
L 384.145104 206.201916 
L 385.448938 208.686685 
L 386.752771 192.513464 
L 388.056605 166.516312 
L 389.360438 144.895264 
L 390.664272 139.460065 
L 391.968105 153.179501 
L 393.271939 178.559809 
L 394.575772 201.737883 
L 395.879606 210.053508 
L 397.183439 198.964564 
L 398.487273 174.528 
L 398.487273 174.528 
" clip-path="url(#p9718fb561c)" style="fill: none; stroke: #1f77b4; stroke-width: 1.5; stroke-linecap: square"/>
   </g>
   <g id="patch_8">
    <path d="M 57.6 213.662118 
L 57.6 135.393882 
" style="fill: none; stroke: #000000; stroke-width: 0.8; stroke-linejoin: miter; stroke-linecap: square"/>
   </g>
   <g id="patch_9">
    <path d="M 414.72 213.662118 
L 414.72 135.393882 
" style="fill: none; stroke: #000000; stroke-width: 0.8; stroke-linejoin: miter; stroke-linecap: square"/>
   </g>
   <g id="patch_10">
    <path d="M 57.6 213.662118 
L 414.72 213.662118 
" style="fill: none; stroke: #000000; stroke-width: 0.8; stroke-linejoin: miter; stroke-linecap: square"/>
   </g>
   <g id="patch_11">
    <path d="M 57.6 135.393882 
L 414.72 135.393882 
" style="fill: none; stroke: #000000; stroke-width: 0.8; stroke-linejoin: miter; stroke-linecap: square"/>
   </g>
  </g>
  <g id="axes_3">
   <g id="patch_12">
    <path d="M 57.6 307.584 
L 414.72 307.584 
L 414.72 229.315765 
L 57.6 229.315765 
z
" style="fill: #ffffff"/>
   </g>
   <g id="matplotlib.axis_5">
    <g id="xtick_15">
     <g id="line2d_23">
      <g>
       <use xlink:href="#m141e6e0237" x="68.421818" y="307.584" style="stroke: #000000; stroke-width: 0.8"/>
      </g>
     </g>
     <g id="text_21">
      <!-- 0.00 -->
      <g transform="translate(57.289006 322.182437) scale(0.1 -0.1)">
       <use xlink:href="#DejaVuSans-30"/>
       <use xlink:href="#DejaVuSans-2e" x="63.623047"/>
       <use xlink:href="#DejaVuSans-30" x="95.410156"/>
       <use xlink:href="#DejaVuSans-30" x="159.033203"/>
      </g>
     </g>
    </g>
    <g id="xtick_16">
     <g id="line2d_24">
      <g>
       <use xlink:href="#m141e6e0237" x="123.432727" y="307.584" style="stroke: #000000; stroke-width: 0.8"/>
      </g>
     </g>
     <g id="text_22">
      <!-- 0.05 -->
      <g transform="translate(112.299915 322.182437) scale(0.1 -0.1)">
       <use xlink:href="#DejaVuSans-30"/>
       <use xlink:href="#DejaVuSans-2e" x="63.623047"/>
       <use xlink:href="#DejaVuSans-30" x="95.410156"/>
       <use xlink:href="#DejaVuSans-35" x="159.033203"/>
      </g>
     </g>
    </g>
    <g id="xtick_17">
     <g id="line2d_25">
      <g>
       <use xlink:href="#m141e6e0237" x="178.443636" y="307.584" style="stroke: #000000; stroke-width: 0.8"/>
      </g>
     </g>
     <g id="text_23">
      <!-- 0.10 -->
      <g transform="translate(167.310824 322.182437) scale(0.1 -0.1)">
       <use xlink:href="#DejaVuSans-30"/>
       <use xlink:href="#DejaVuSans-2e" x="63.623047"/>
       <use xlink:href="#DejaVuSans-31" x="95.410156"/>
       <use xlink:href="#DejaVuSans-30" x="159.033203"/>
      </g>
     </g>
    </g>
    <g id="xtick_18">
     <g id="line2d_26">
      <g>
       <use xlink:href="#m141e6e0237" x="233.454545" y="307.584" style="stroke: #000000; stroke-width: 0.8"/>
      </g>
     </g>
     <g id="text_24">
      <!-- 0.15 -->
      <g transform="translate(222.321733 322.182437) scale(0.1 -0.1)">
       <use xlink:href="#DejaVuSans-30"/>
       <use xlink:href="#DejaVuSans-2e" x="63.623047"/>
       <use xlink:href="#DejaVuSans-31" x="95.410156"/>
       <use xlink:href="#DejaVuSans-35" x="159.033203"/>
      </g>
     </g>
    </g>
    <g id="xtick_19">
     <g id="line2d_27">
      <g>
       <use xlink:href="#m141e6e0237" x="288.465455" y="307.584" style="stroke: #000000; stroke-width: 0.8"/>
      </g>
     </g>
     <g id="text_25">
      <!-- 0.20 -->
      <g transform="translate(277.332642 322.182437) scale(0.1 -0.1)">
       <use xlink:href="#DejaVuSans-30"/>
       <use xlink:href="#DejaVuSans-2e" x="63.623047"/>
       <use xlink:href="#DejaVuSans-32" x="95.410156"/>
       <use xlink:href="#DejaVuSans-30" x="159.033203"/>
      </g>
     </g>
    </g>
    <g id="xtick_20">
     <g id="line2d_28">
      <g>
       <use xlink:href="#m141e6e0237" x="343.476364" y="307.584" style="stroke: #000000; stroke-width: 0.8"/>
      </g>
     </g>
     <g id="text_26">
      <!-- 0.25 -->
      <g transform="translate(332.343551 322.182437) scale(0.1 -0.1)">
       <use xlink:href="#DejaVuSans-30"/>
       <use xlink:href="#DejaVuSans-2e" x="63.623047"/>
       <use xlink:href="#DejaVuSans-32" x="95.410156"/>
       <use xlink:href="#DejaVuSans-35" x="159.033203"/>
      </g>
     </g>
    </g>
    <g id="xtick_21">
     <g id="line2d_29">
      <g>
       <use xlink:href="#m141e6e0237" x="398.487273" y="307.584" style="stroke: #000000; stroke-width: 0.8"/>
      </g>
     </g>
     <g id="text_27">
      <!-- 0.30 -->
      <g transform="translate(387.35446 322.182437) scale(0.1 -0.1)">
       <use xlink:href="#DejaVuSans-30"/>
       <use xlink:href="#DejaVuSans-2e" x="63.623047"/>
       <use xlink:href="#DejaVuSans-33" x="95.410156"/>
       <use xlink:href="#DejaVuSans-30" x="159.033203"/>
      </g>
     </g>
    </g>
   </g>
   <g id="matplotlib.axis_6">
    <g id="ytick_7">
     <g id="line2d_30">
      <g>
       <use xlink:href="#m5dcbbf8879" x="57.6" y="304.038152" style="stroke: #000000; stroke-width: 0.8"/>
      </g>
     </g>
     <g id="text_28">
      <!-- −1 -->
      <g transform="translate(35.857813 307.83737) scale(0.1 -0.1)">
       <use xlink:href="#DejaVuSans-2212"/>
       <use xlink:href="#DejaVuSans-31" x="83.789062"/>
      </g>
     </g>
    </g>
    <g id="ytick_8">
     <g id="line2d_31">
      <g>
       <use xlink:href="#m5dcbbf8879" x="57.6" y="268.449882" style="stroke: #000000; stroke-width: 0.8"/>
      </g>
     </g>
     <g id="text_29">
      <!-- 0 -->
      <g transform="translate(44.2375 272.249101) scale(0.1 -0.1)">
       <use xlink:href="#DejaVuSans-30"/>
      </g>
     </g>
    </g>
    <g id="ytick_9">
     <g id="line2d_32">
      <g>
       <use xlink:href="#m5dcbbf8879" x="57.6" y="232.861613" style="stroke: #000000; stroke-width: 0.8"/>
      </g>
     </g>
     <g id="text_30">
      <!-- 1 -->
      <g transform="translate(44.2375 236.660832) scale(0.1 -0.1)">
       <use xlink:href="#DejaVuSans-31"/>
      </g>
     </g>
    </g>
   </g>
   <g id="line2d_33">
    <path d="M 73.832727 266.617843 
L 79.243636 272.109104 
L 84.654545 262.973183 
L 90.065455 275.729536 
L 95.476364 259.386578 
L 100.887273 279.272803 
L 106.298182 255.896046 
L 111.709091 282.701344 
L 117.12 252.538588 
L 122.530909 285.978816 
L 127.941818 249.349794 
L 133.352727 289.070476 
L 138.763636 246.363465 
L 144.174545 291.943554 
L 149.585455 243.611258 
L 154.996364 294.567592 
L 160.407273 241.122346 
L 165.818182 296.914777 
L 171.229091 238.923113 
L 176.64 298.960226 
L 182.050909 237.036872 
L 187.461818 300.682258 
L 192.872727 235.483616 
L 198.283636 302.062619 
L 203.694545 234.27981 
L 209.105455 303.086677 
L 214.516364 233.438216 
L 219.927273 303.743576 
L 225.338182 232.967754 
L 230.749091 304.026353 
L 236.16 232.873412 
L 241.570909 303.932011 
L 246.981818 233.156189 
L 252.392727 303.461549 
L 257.803636 233.813088 
L 263.214545 302.619955 
L 268.625455 234.837145 
L 274.036364 301.416149 
L 279.447273 236.217506 
L 284.858182 299.862893 
L 290.269091 237.939539 
L 295.68 297.976651 
L 301.090909 239.984988 
L 306.501818 295.777418 
L 311.912727 242.332172 
L 317.323636 293.288507 
L 322.734545 244.956211 
L 328.145455 290.5363 
L 333.556364 247.829288 
L 338.967273 287.549971 
L 344.378182 250.920949 
L 349.789091 284.361177 
L 355.2 254.198421 
L 360.610909 281.003719 
L 366.021818 257.626962 
L 371.432727 277.513187 
L 376.843636 261.170228 
L 382.254545 273.926582 
L 387.665455 264.790661 
L 393.076364 270.281922 
L 398.487273 268.449882 
" clip-path="url(#p860c43edbf)" style="fill: none; stroke: #1f77b4; stroke-width: 1.5; stroke-linecap: square"/>
   </g>
   <g id="patch_13">
    <path d="M 57.6 307.584 
L 57.6 229.315765 
" style="fill: none; stroke: #000000; stroke-width: 0.8; stroke-linejoin: miter; stroke-linecap: square"/>
   </g>
   <g id="patch_14">
    <path d="M 414.72 307.584 
L 414.72 229.315765 
" style="fill: none; stroke: #000000; stroke-width: 0.8; stroke-linejoin: miter; stroke-linecap: square"/>
   </g>
   <g id="patch_15">
    <path d="M 57.6 307.584 
L 414.72 307.584 
" style="fill: none; stroke: #000000; stroke-width: 0.8; stroke-linejoin: miter; stroke-linecap: square"/>
   </g>
   <g id="patch_16">
    <path d="M 57.6 229.315765 
L 414.72 229.315765 
" style="fill: none; stroke: #000000; stroke-width: 0.8; stroke-linejoin: miter; stroke-linecap: square"/>
   </g>
  </g>
  <g id="text_31">
   <!-- Esantionare / frecventa -->
   <g transform="translate(160.46625 16.030125) scale(0.12 -0.12)">
    <defs>
     <path id="DejaVuSans-45" d="M 628 4666 
L 3578 4666 
L 3578 4134 
L 1259 4134 
L 1259 2753 
L 3481 2753 
L 3481 2222 
L 1259 2222 
L 1259 531 
L 3634 531 
L 3634 0 
L 628 0 
L 628 4666 
z
" transform="scale(0.015625)"/>
     <path id="DejaVuSans-73" d="M 2834 3397 
L 2834 2853 
Q 2591 2978 2328 3040 
Q 2066 3103 1784 3103 
Q 1356 3103 1142 2972 
Q 928 2841 928 2578 
Q 928 2378 1081 2264 
Q 1234 2150 1697 2047 
L 1894 2003 
Q 2506 1872 2764 1633 
Q 3022 1394 3022 966 
Q 3022 478 2636 193 
Q 2250 -91 1575 -91 
Q 1294 -91 989 -36 
Q 684 19 347 128 
L 347 722 
Q 666 556 975 473 
Q 1284 391 1588 391 
Q 1994 391 2212 530 
Q 2431 669 2431 922 
Q 2431 1156 2273 1281 
Q 2116 1406 1581 1522 
L 1381 1569 
Q 847 1681 609 1914 
Q 372 2147 372 2553 
Q 372 3047 722 3315 
Q 1072 3584 1716 3584 
Q 2034 3584 2315 3537 
Q 2597 3491 2834 3397 
z
" transform="scale(0.015625)"/>
     <path id="DejaVuSans-61" d="M 2194 1759 
Q 1497 1759 1228 1600 
Q 959 1441 959 1056 
Q 959 750 1161 570 
Q 1363 391 1709 391 
Q 2188 391 2477 730 
Q 2766 1069 2766 1631 
L 2766 1759 
L 2194 1759 
z
M 3341 1997 
L 3341 0 
L 2766 0 
L 2766 531 
Q 2569 213 2275 61 
Q 1981 -91 1556 -91 
Q 1019 -91 701 211 
Q 384 513 384 1019 
Q 384 1609 779 1909 
Q 1175 2209 1959 2209 
L 2766 2209 
L 2766 2266 
Q 2766 2663 2505 2880 
Q 2244 3097 1772 3097 
Q 1472 3097 1187 3025 
Q 903 2953 641 2809 
L 641 3341 
Q 956 3463 1253 3523 
Q 1550 3584 1831 3584 
Q 2591 3584 2966 3190 
Q 3341 2797 3341 1997 
z
" transform="scale(0.015625)"/>
     <path id="DejaVuSans-6e" d="M 3513 2113 
L 3513 0 
L 2938 0 
L 2938 2094 
Q 2938 2591 2744 2837 
Q 2550 3084 2163 3084 
Q 1697 3084 1428 2787 
Q 1159 2491 1159 1978 
L 1159 0 
L 581 0 
L 581 3500 
L 1159 3500 
L 1159 2956 
Q 1366 3272 1645 3428 
Q 1925 3584 2291 3584 
Q 2894 3584 3203 3211 
Q 3513 2838 3513 2113 
z
" transform="scale(0.015625)"/>
     <path id="DejaVuSans-74" d="M 1172 4494 
L 1172 3500 
L 2356 3500 
L 2356 3053 
L 1172 3053 
L 1172 1153 
Q 1172 725 1289 603 
Q 1406 481 1766 481 
L 2356 481 
L 2356 0 
L 1766 0 
Q 1100 0 847 248 
Q 594 497 594 1153 
L 594 3053 
L 172 3053 
L 172 3500 
L 594 3500 
L 594 4494 
L 1172 4494 
z
" transform="scale(0.015625)"/>
     <path id="DejaVuSans-69" d="M 603 3500 
L 1178 3500 
L 1178 0 
L 603 0 
L 603 3500 
z
M 603 4863 
L 1178 4863 
L 1178 4134 
L 603 4134 
L 603 4863 
z
" transform="scale(0.015625)"/>
     <path id="DejaVuSans-6f" d="M 1959 3097 
Q 1497 3097 1228 2736 
Q 959 2375 959 1747 
Q 959 1119 1226 758 
Q 1494 397 1959 397 
Q 2419 397 2687 759 
Q 2956 1122 2956 1747 
Q 2956 2369 2687 2733 
Q 2419 3097 1959 3097 
z
M 1959 3584 
Q 2709 3584 3137 3096 
Q 3566 2609 3566 1747 
Q 3566 888 3137 398 
Q 2709 -91 1959 -91 
Q 1206 -91 779 398 
Q 353 888 353 1747 
Q 353 2609 779 3096 
Q 1206 3584 1959 3584 
z
" transform="scale(0.015625)"/>
     <path id="DejaVuSans-72" d="M 2631 2963 
Q 2534 3019 2420 3045 
Q 2306 3072 2169 3072 
Q 1681 3072 1420 2755 
Q 1159 2438 1159 1844 
L 1159 0 
L 581 0 
L 581 3500 
L 1159 3500 
L 1159 2956 
Q 1341 3275 1631 3429 
Q 1922 3584 2338 3584 
Q 2397 3584 2469 3576 
Q 2541 3569 2628 3553 
L 2631 2963 
z
" transform="scale(0.015625)"/>
     <path id="DejaVuSans-65" d="M 3597 1894 
L 3597 1613 
L 953 1613 
Q 991 1019 1311 708 
Q 1631 397 2203 397 
Q 2534 397 2845 478 
Q 3156 559 3463 722 
L 3463 178 
Q 3153 47 2828 -22 
Q 2503 -91 2169 -91 
Q 1331 -91 842 396 
Q 353 884 353 1716 
Q 353 2575 817 3079 
Q 1281 3584 2069 3584 
Q 2775 3584 3186 3129 
Q 3597 2675 3597 1894 
z
M 3022 2063 
Q 3016 2534 2758 2815 
Q 2500 3097 2075 3097 
Q 1594 3097 1305 2825 
Q 1016 2553 972 2059 
L 3022 2063 
z
" transform="scale(0.015625)"/>
     <path id="DejaVuSans-20" transform="scale(0.015625)"/>
     <path id="DejaVuSans-2f" d="M 1625 4666 
L 2156 4666 
L 531 -594 
L 0 -594 
L 1625 4666 
z
" transform="scale(0.015625)"/>
     <path id="DejaVuSans-66" d="M 2375 4863 
L 2375 4384 
L 1825 4384 
Q 1516 4384 1395 4259 
Q 1275 4134 1275 3809 
L 1275 3500 
L 2222 3500 
L 2222 3053 
L 1275 3053 
L 1275 0 
L 697 0 
L 697 3053 
L 147 3053 
L 147 3500 
L 697 3500 
L 697 3744 
Q 697 4328 969 4595 
Q 1241 4863 1831 4863 
L 2375 4863 
z
" transform="scale(0.015625)"/>
     <path id="DejaVuSans-63" d="M 3122 3366 
L 3122 2828 
Q 2878 2963 2633 3030 
Q 2388 3097 2138 3097 
Q 1578 3097 1268 2742 
Q 959 2388 959 1747 
Q 959 1106 1268 751 
Q 1578 397 2138 397 
Q 2388 397 2633 464 
Q 2878 531 3122 666 
L 3122 134 
Q 2881 22 2623 -34 
Q 2366 -91 2075 -91 
Q 1284 -91 818 406 
Q 353 903 353 1747 
Q 353 2603 823 3093 
Q 1294 3584 2113 3584 
Q 2378 3584 2631 3529 
Q 2884 3475 3122 3366 
z
" transform="scale(0.015625)"/>
     <path id="DejaVuSans-76" d="M 191 3500 
L 800 3500 
L 1894 563 
L 2988 3500 
L 3597 3500 
L 2284 0 
L 1503 0 
L 191 3500 
z
" transform="scale(0.015625)"/>
    </defs>
    <use xlink:href="#DejaVuSans-45"/>
    <use xlink:href="#DejaVuSans-73" x="63.183594"/>
    <use xlink:href="#DejaVuSans-61" x="115.283203"/>
    <use xlink:href="#DejaVuSans-6e" x="176.5625"/>
    <use xlink:href="#DejaVuSans-74" x="239.941406"/>
    <use xlink:href="#DejaVuSans-69" x="279.150391"/>
    <use xlink:href="#DejaVuSans-6f" x="306.933594"/>
    <use xlink:href="#DejaVuSans-6e" x="368.115234"/>
    <use xlink:href="#DejaVuSans-61" x="431.494141"/>
    <use xlink:href="#DejaVuSans-72" x="492.773438"/>
    <use xlink:href="#DejaVuSans-65" x="531.636719"/>
    <use xlink:href="#DejaVuSans-20" x="593.160156"/>
    <use xlink:href="#DejaVuSans-2f" x="624.947266"/>
    <use xlink:href="#DejaVuSans-20" x="658.638672"/>
    <use xlink:href="#DejaVuSans-66" x="690.425781"/>
    <use xlink:href="#DejaVuSans-72" x="725.630859"/>
    <use xlink:href="#DejaVuSans-65" x="764.494141"/>
    <use xlink:href="#DejaVuSans-63" x="826.017578"/>
    <use xlink:href="#DejaVuSans-76" x="880.998047"/>
    <use xlink:href="#DejaVuSans-65" x="940.177734"/>
    <use xlink:href="#DejaVuSans-6e" x="1001.701172"/>
    <use xlink:href="#DejaVuSans-74" x="1065.080078"/>
    <use xlink:href="#DejaVuSans-61" x="1104.289062"/>
   </g>
  </g>
 </g>
 <defs>
  <clipPath id="p1d1af2a360">
   <rect x="57.6" y="41.472" width="357.12" height="78.268235"/>
  </clipPath>
  <clipPath id="p9718fb561c">
   <rect x="57.6" y="135.393882" width="357.12" height="78.268235"/>
  </clipPath>
  <clipPath id="p860c43edbf">
   <rect x="57.6" y="229.315765" width="357.12" height="78.268235"/>
  </clipPath>
 </defs>
</svg>
