<?xml version="1.0" encoding="utf-8" standalone="no"?>
<!DOCTYPE svg PUBLIC "-//W3C//DTD SVG 1.1//EN"
  "http://www.w3.org/Graphics/SVG/1.1/DTD/svg11.dtd">
<svg xmlns:xlink="http://www.w3.org/1999/xlink" width="460.8pt" height="345.6pt" viewBox="0 0 460.8 345.6" xmlns="http://www.w3.org/2000/svg" version="1.1">
 <metadata>
  <rdf:RDF xmlns:dc="http://purl.org/dc/elements/1.1/" xmlns:cc="http://creativecommons.org/ns#" xmlns:rdf="http://www.w3.org/1999/02/22-rdf-syntax-ns#">
   <cc:Work>
    <dc:type rdf:resource="http://purl.org/dc/dcmitype/StillImage"/>
    <dc:date>2024-10-13T13:06:45.045465</dc:date>
    <dc:format>image/svg+xml</dc:format>
    <dc:creator>
     <cc:Agent>
      <dc:title>Matplotlib v3.9.2, https://matplotlib.org/</dc:title>
     </cc:Agent>
    </dc:creator>
   </cc:Work>
  </rdf:RDF>
 </metadata>
 <defs>
  <style type="text/css">*{stroke-linejoin: round; stroke-linecap: butt}</style>
 </defs>
 <g id="figure_1">
  <g id="patch_1">
   <path d="M 0 345.6 
L 460.8 345.6 
L 460.8 0 
L 0 0 
z
" style="fill: #ffffff"/>
  </g>
  <g id="axes_1">
   <g id="patch_2">
    <path d="M 57.6 307.584 
L 414.72 307.584 
L 414.72 41.472 
L 57.6 41.472 
z
" style="fill: #ffffff"/>
   </g>
   <g id="matplotlib.axis_1">
    <g id="xtick_1">
     <g id="line2d_1">
      <defs>
       <path id="mec6a3f9414" d="M 0 0 
L 0 3.5 
" style="stroke: #000000; stroke-width: 0.8"/>
      </defs>
      <g>
       <use xlink:href="#mec6a3f9414" x="73.832727" y="307.584" style="stroke: #000000; stroke-width: 0.8"/>
      </g>
     </g>
     <g id="text_1">
      <!-- 0.0 -->
      <g transform="translate(65.881165 322.182437) scale(0.1 -0.1)">
       <defs>
        <path id="DejaVuSans-30" d="M 2034 4250 
Q 1547 4250 1301 3770 
Q 1056 3291 1056 2328 
Q 1056 1369 1301 889 
Q 1547 409 2034 409 
Q 2525 409 2770 889 
Q 3016 1369 3016 2328 
Q 3016 3291 2770 3770 
Q 2525 4250 2034 4250 
z
M 2034 4750 
Q 2819 4750 3233 4129 
Q 3647 3509 3647 2328 
Q 3647 1150 3233 529 
Q 2819 -91 2034 -91 
Q 1250 -91 836 529 
Q 422 1150 422 2328 
Q 422 3509 836 4129 
Q 1250 4750 2034 4750 
z
" transform="scale(0.015625)"/>
        <path id="DejaVuSans-2e" d="M 684 794 
L 1344 794 
L 1344 0 
L 684 0 
L 684 794 
z
" transform="scale(0.015625)"/>
       </defs>
       <use xlink:href="#DejaVuSans-30"/>
       <use xlink:href="#DejaVuSans-2e" x="63.623047"/>
       <use xlink:href="#DejaVuSans-30" x="95.410156"/>
      </g>
     </g>
    </g>
    <g id="xtick_2">
     <g id="line2d_2">
      <g>
       <use xlink:href="#mec6a3f9414" x="138.763636" y="307.584" style="stroke: #000000; stroke-width: 0.8"/>
      </g>
     </g>
     <g id="text_2">
      <!-- 0.2 -->
      <g transform="translate(130.812074 322.182437) scale(0.1 -0.1)">
       <defs>
        <path id="DejaVuSans-32" d="M 1228 531 
L 3431 531 
L 3431 0 
L 469 0 
L 469 531 
Q 828 903 1448 1529 
Q 2069 2156 2228 2338 
Q 2531 2678 2651 2914 
Q 2772 3150 2772 3378 
Q 2772 3750 2511 3984 
Q 2250 4219 1831 4219 
Q 1534 4219 1204 4116 
Q 875 4013 500 3803 
L 500 4441 
Q 881 4594 1212 4672 
Q 1544 4750 1819 4750 
Q 2544 4750 2975 4387 
Q 3406 4025 3406 3419 
Q 3406 3131 3298 2873 
Q 3191 2616 2906 2266 
Q 2828 2175 2409 1742 
Q 1991 1309 1228 531 
z
" transform="scale(0.015625)"/>
       </defs>
       <use xlink:href="#DejaVuSans-30"/>
       <use xlink:href="#DejaVuSans-2e" x="63.623047"/>
       <use xlink:href="#DejaVuSans-32" x="95.410156"/>
      </g>
     </g>
    </g>
    <g id="xtick_3">
     <g id="line2d_3">
      <g>
       <use xlink:href="#mec6a3f9414" x="203.694545" y="307.584" style="stroke: #000000; stroke-width: 0.8"/>
      </g>
     </g>
     <g id="text_3">
      <!-- 0.4 -->
      <g transform="translate(195.742983 322.182437) scale(0.1 -0.1)">
       <defs>
        <path id="DejaVuSans-34" d="M 2419 4116 
L 825 1625 
L 2419 1625 
L 2419 4116 
z
M 2253 4666 
L 3047 4666 
L 3047 1625 
L 3713 1625 
L 3713 1100 
L 3047 1100 
L 3047 0 
L 2419 0 
L 2419 1100 
L 313 1100 
L 313 1709 
L 2253 4666 
z
" transform="scale(0.015625)"/>
       </defs>
       <use xlink:href="#DejaVuSans-30"/>
       <use xlink:href="#DejaVuSans-2e" x="63.623047"/>
       <use xlink:href="#DejaVuSans-34" x="95.410156"/>
      </g>
     </g>
    </g>
    <g id="xtick_4">
     <g id="line2d_4">
      <g>
       <use xlink:href="#mec6a3f9414" x="268.625455" y="307.584" style="stroke: #000000; stroke-width: 0.8"/>
      </g>
     </g>
     <g id="text_4">
      <!-- 0.6 -->
      <g transform="translate(260.673892 322.182437) scale(0.1 -0.1)">
       <defs>
        <path id="DejaVuSans-36" d="M 2113 2584 
Q 1688 2584 1439 2293 
Q 1191 2003 1191 1497 
Q 1191 994 1439 701 
Q 1688 409 2113 409 
Q 2538 409 2786 701 
Q 3034 994 3034 1497 
Q 3034 2003 2786 2293 
Q 2538 2584 2113 2584 
z
M 3366 4563 
L 3366 3988 
Q 3128 4100 2886 4159 
Q 2644 4219 2406 4219 
Q 1781 4219 1451 3797 
Q 1122 3375 1075 2522 
Q 1259 2794 1537 2939 
Q 1816 3084 2150 3084 
Q 2853 3084 3261 2657 
Q 3669 2231 3669 1497 
Q 3669 778 3244 343 
Q 2819 -91 2113 -91 
Q 1303 -91 875 529 
Q 447 1150 447 2328 
Q 447 3434 972 4092 
Q 1497 4750 2381 4750 
Q 2619 4750 2861 4703 
Q 3103 4656 3366 4563 
z
" transform="scale(0.015625)"/>
       </defs>
       <use xlink:href="#DejaVuSans-30"/>
       <use xlink:href="#DejaVuSans-2e" x="63.623047"/>
       <use xlink:href="#DejaVuSans-36" x="95.410156"/>
      </g>
     </g>
    </g>
    <g id="xtick_5">
     <g id="line2d_5">
      <g>
       <use xlink:href="#mec6a3f9414" x="333.556364" y="307.584" style="stroke: #000000; stroke-width: 0.8"/>
      </g>
     </g>
     <g id="text_5">
      <!-- 0.8 -->
      <g transform="translate(325.604801 322.182437) scale(0.1 -0.1)">
       <defs>
        <path id="DejaVuSans-38" d="M 2034 2216 
Q 1584 2216 1326 1975 
Q 1069 1734 1069 1313 
Q 1069 891 1326 650 
Q 1584 409 2034 409 
Q 2484 409 2743 651 
Q 3003 894 3003 1313 
Q 3003 1734 2745 1975 
Q 2488 2216 2034 2216 
z
M 1403 2484 
Q 997 2584 770 2862 
Q 544 3141 544 3541 
Q 544 4100 942 4425 
Q 1341 4750 2034 4750 
Q 2731 4750 3128 4425 
Q 3525 4100 3525 3541 
Q 3525 3141 3298 2862 
Q 3072 2584 2669 2484 
Q 3125 2378 3379 2068 
Q 3634 1759 3634 1313 
Q 3634 634 3220 271 
Q 2806 -91 2034 -91 
Q 1263 -91 848 271 
Q 434 634 434 1313 
Q 434 1759 690 2068 
Q 947 2378 1403 2484 
z
M 1172 3481 
Q 1172 3119 1398 2916 
Q 1625 2713 2034 2713 
Q 2441 2713 2670 2916 
Q 2900 3119 2900 3481 
Q 2900 3844 2670 4047 
Q 2441 4250 2034 4250 
Q 1625 4250 1398 4047 
Q 1172 3844 1172 3481 
z
" transform="scale(0.015625)"/>
       </defs>
       <use xlink:href="#DejaVuSans-30"/>
       <use xlink:href="#DejaVuSans-2e" x="63.623047"/>
       <use xlink:href="#DejaVuSans-38" x="95.410156"/>
      </g>
     </g>
    </g>
    <g id="xtick_6">
     <g id="line2d_6">
      <g>
       <use xlink:href="#mec6a3f9414" x="398.487273" y="307.584" style="stroke: #000000; stroke-width: 0.8"/>
      </g>
     </g>
     <g id="text_6">
      <!-- 1.0 -->
      <g transform="translate(390.53571 322.182437) scale(0.1 -0.1)">
       <defs>
        <path id="DejaVuSans-31" d="M 794 531 
L 1825 531 
L 1825 4091 
L 703 3866 
L 703 4441 
L 1819 4666 
L 2450 4666 
L 2450 531 
L 3481 531 
L 3481 0 
L 794 0 
L 794 531 
z
" transform="scale(0.015625)"/>
       </defs>
       <use xlink:href="#DejaVuSans-31"/>
       <use xlink:href="#DejaVuSans-2e" x="63.623047"/>
       <use xlink:href="#DejaVuSans-30" x="95.410156"/>
      </g>
     </g>
    </g>
   </g>
   <g id="matplotlib.axis_2">
    <g id="ytick_1">
     <g id="line2d_7">
      <defs>
       <path id="m5211418910" d="M 0 0 
L -3.5 0 
" style="stroke: #000000; stroke-width: 0.8"/>
      </defs>
      <g>
       <use xlink:href="#m5211418910" x="57.6" y="295.488003" style="stroke: #000000; stroke-width: 0.8"/>
      </g>
     </g>
     <g id="text_7">
      <!-- −1.00 -->
      <g transform="translate(19.954687 299.287222) scale(0.1 -0.1)">
       <defs>
        <path id="DejaVuSans-2212" d="M 678 2272 
L 4684 2272 
L 4684 1741 
L 678 1741 
L 678 2272 
z
" transform="scale(0.015625)"/>
       </defs>
       <use xlink:href="#DejaVuSans-2212"/>
       <use xlink:href="#DejaVuSans-31" x="83.789062"/>
       <use xlink:href="#DejaVuSans-2e" x="147.412109"/>
       <use xlink:href="#DejaVuSans-30" x="179.199219"/>
       <use xlink:href="#DejaVuSans-30" x="242.822266"/>
      </g>
     </g>
    </g>
    <g id="ytick_2">
     <g id="line2d_8">
      <g>
       <use xlink:href="#m5211418910" x="57.6" y="265.248002" style="stroke: #000000; stroke-width: 0.8"/>
      </g>
     </g>
     <g id="text_8">
      <!-- −0.75 -->
      <g transform="translate(19.954687 269.047221) scale(0.1 -0.1)">
       <defs>
        <path id="DejaVuSans-37" d="M 525 4666 
L 3525 4666 
L 3525 4397 
L 1831 0 
L 1172 0 
L 2766 4134 
L 525 4134 
L 525 4666 
z
" transform="scale(0.015625)"/>
        <path id="DejaVuSans-35" d="M 691 4666 
L 3169 4666 
L 3169 4134 
L 1269 4134 
L 1269 2991 
Q 1406 3038 1543 3061 
Q 1681 3084 1819 3084 
Q 2600 3084 3056 2656 
Q 3513 2228 3513 1497 
Q 3513 744 3044 326 
Q 2575 -91 1722 -91 
Q 1428 -91 1123 -41 
Q 819 9 494 109 
L 494 744 
Q 775 591 1075 516 
Q 1375 441 1709 441 
Q 2250 441 2565 725 
Q 2881 1009 2881 1497 
Q 2881 1984 2565 2268 
Q 2250 2553 1709 2553 
Q 1456 2553 1204 2497 
Q 953 2441 691 2322 
L 691 4666 
z
" transform="scale(0.015625)"/>
       </defs>
       <use xlink:href="#DejaVuSans-2212"/>
       <use xlink:href="#DejaVuSans-30" x="83.789062"/>
       <use xlink:href="#DejaVuSans-2e" x="147.412109"/>
       <use xlink:href="#DejaVuSans-37" x="179.199219"/>
       <use xlink:href="#DejaVuSans-35" x="242.822266"/>
      </g>
     </g>
    </g>
    <g id="ytick_3">
     <g id="line2d_9">
      <g>
       <use xlink:href="#m5211418910" x="57.6" y="235.008002" style="stroke: #000000; stroke-width: 0.8"/>
      </g>
     </g>
     <g id="text_9">
      <!-- −0.50 -->
      <g transform="translate(19.954687 238.80722) scale(0.1 -0.1)">
       <use xlink:href="#DejaVuSans-2212"/>
       <use xlink:href="#DejaVuSans-30" x="83.789062"/>
       <use xlink:href="#DejaVuSans-2e" x="147.412109"/>
       <use xlink:href="#DejaVuSans-35" x="179.199219"/>
       <use xlink:href="#DejaVuSans-30" x="242.822266"/>
      </g>
     </g>
    </g>
    <g id="ytick_4">
     <g id="line2d_10">
      <g>
       <use xlink:href="#m5211418910" x="57.6" y="204.768001" style="stroke: #000000; stroke-width: 0.8"/>
      </g>
     </g>
     <g id="text_10">
      <!-- −0.25 -->
      <g transform="translate(19.954687 208.56722) scale(0.1 -0.1)">
       <use xlink:href="#DejaVuSans-2212"/>
       <use xlink:href="#DejaVuSans-30" x="83.789062"/>
       <use xlink:href="#DejaVuSans-2e" x="147.412109"/>
       <use xlink:href="#DejaVuSans-32" x="179.199219"/>
       <use xlink:href="#DejaVuSans-35" x="242.822266"/>
      </g>
     </g>
    </g>
    <g id="ytick_5">
     <g id="line2d_11">
      <g>
       <use xlink:href="#m5211418910" x="57.6" y="174.528001" style="stroke: #000000; stroke-width: 0.8"/>
      </g>
     </g>
     <g id="text_11">
      <!-- 0.00 -->
      <g transform="translate(28.334375 178.327219) scale(0.1 -0.1)">
       <use xlink:href="#DejaVuSans-30"/>
       <use xlink:href="#DejaVuSans-2e" x="63.623047"/>
       <use xlink:href="#DejaVuSans-30" x="95.410156"/>
       <use xlink:href="#DejaVuSans-30" x="159.033203"/>
      </g>
     </g>
    </g>
    <g id="ytick_6">
     <g id="line2d_12">
      <g>
       <use xlink:href="#m5211418910" x="57.6" y="144.288" style="stroke: #000000; stroke-width: 0.8"/>
      </g>
     </g>
     <g id="text_12">
      <!-- 0.25 -->
      <g transform="translate(28.334375 148.087219) scale(0.1 -0.1)">
       <use xlink:href="#DejaVuSans-30"/>
       <use xlink:href="#DejaVuSans-2e" x="63.623047"/>
       <use xlink:href="#DejaVuSans-32" x="95.410156"/>
       <use xlink:href="#DejaVuSans-35" x="159.033203"/>
      </g>
     </g>
    </g>
    <g id="ytick_7">
     <g id="line2d_13">
      <g>
       <use xlink:href="#m5211418910" x="57.6" y="114.047999" style="stroke: #000000; stroke-width: 0.8"/>
      </g>
     </g>
     <g id="text_13">
      <!-- 0.50 -->
      <g transform="translate(28.334375 117.847218) scale(0.1 -0.1)">
       <use xlink:href="#DejaVuSans-30"/>
       <use xlink:href="#DejaVuSans-2e" x="63.623047"/>
       <use xlink:href="#DejaVuSans-35" x="95.410156"/>
       <use xlink:href="#DejaVuSans-30" x="159.033203"/>
      </g>
     </g>
    </g>
    <g id="ytick_8">
     <g id="line2d_14">
      <g>
       <use xlink:href="#m5211418910" x="57.6" y="83.807999" style="stroke: #000000; stroke-width: 0.8"/>
      </g>
     </g>
     <g id="text_14">
      <!-- 0.75 -->
      <g transform="translate(28.334375 87.607218) scale(0.1 -0.1)">
       <use xlink:href="#DejaVuSans-30"/>
       <use xlink:href="#DejaVuSans-2e" x="63.623047"/>
       <use xlink:href="#DejaVuSans-37" x="95.410156"/>
       <use xlink:href="#DejaVuSans-35" x="159.033203"/>
      </g>
     </g>
    </g>
    <g id="ytick_9">
     <g id="line2d_15">
      <g>
       <use xlink:href="#m5211418910" x="57.6" y="53.567998" style="stroke: #000000; stroke-width: 0.8"/>
      </g>
     </g>
     <g id="text_15">
      <!-- 1.00 -->
      <g transform="translate(28.334375 57.367217) scale(0.1 -0.1)">
       <use xlink:href="#DejaVuSans-31"/>
       <use xlink:href="#DejaVuSans-2e" x="63.623047"/>
       <use xlink:href="#DejaVuSans-30" x="95.410156"/>
       <use xlink:href="#DejaVuSans-30" x="159.033203"/>
      </g>
     </g>
    </g>
   </g>
   <g id="line2d_16">
    <path d="M 73.832727 174.528001 
L 74.676998 86.338425 
L 75.131605 59.47881 
L 75.391381 53.8044 
L 75.456325 53.568004 
L 75.521269 53.809174 
L 75.651156 55.718517 
L 75.910932 65.100842 
L 76.235651 86.390471 
L 76.755203 137.214377 
L 78.054081 272.444751 
L 78.443744 291.71462 
L 78.638576 295.256328 
L 78.70352 295.487949 
L 78.768464 295.242006 
L 78.898351 293.323191 
L 79.158127 283.922744 
L 79.482846 262.61345 
L 80.002398 211.769308 
L 81.301276 76.566638 
L 81.690939 57.322566 
L 81.885771 53.794994 
L 81.950715 53.568148 
L 82.015658 53.818865 
L 82.145546 55.747151 
L 82.405322 65.165716 
L 82.730041 86.494666 
L 83.249592 137.359025 
L 84.54847 272.533936 
L 84.938134 291.752205 
L 85.132966 295.265638 
L 85.197909 295.48771 
L 85.262853 295.232219 
L 85.392741 293.294462 
L 85.652517 283.857783 
L 85.977236 262.509186 
L 86.496787 211.62463 
L 87.795665 76.47753 
L 88.185329 57.285073 
L 88.38016 53.78578 
L 88.445104 53.568482 
L 88.510048 53.828747 
L 88.639936 55.775973 
L 88.899712 65.230763 
L 89.289375 91.98932 
L 89.87387 152.231335 
L 90.977916 267.984612 
L 91.36758 289.693985 
L 91.627355 295.274757 
L 91.692299 295.48728 
L 91.757243 295.222242 
L 91.887131 293.265546 
L 92.146906 283.79265 
L 92.53657 257.011095 
L 93.121065 196.749947 
L 94.225111 81.023147 
L 94.614775 59.338794 
L 94.87455 53.776756 
L 94.939494 53.569007 
L 95.004438 53.838819 
L 95.134326 55.804983 
L 95.394101 65.295983 
L 95.783765 92.100524 
L 96.36826 152.380781 
L 97.472306 268.081059 
L 97.861969 289.740383 
L 98.121745 295.283685 
L 98.186689 295.486659 
L 98.316577 294.461013 
L 98.511408 289.38796 
L 98.836128 272.041507 
L 99.290735 232.277968 
L 100.979277 64.811048 
L 101.303996 54.442899 
L 101.433884 53.569724 
L 101.563772 54.604896 
L 101.758603 59.691899 
L 102.083323 77.059492 
L 102.53793 116.844838 
L 104.226471 284.276936 
L 104.551191 294.622205 
L 104.681079 295.485847 
L 104.810967 294.441149 
L 105.005798 289.340199 
L 105.330518 271.951472 
L 105.785125 232.144336 
L 107.473666 64.747125 
L 107.798386 54.424741 
L 107.928274 53.570632 
L 108.058161 54.624855 
L 108.252993 59.739751 
L 108.577713 77.149603 
L 109.03232 116.978516 
L 110.720861 284.340772 
L 111.045581 294.640268 
L 111.175469 295.484844 
L 111.305356 294.421096 
L 111.500188 289.292256 
L 111.824908 271.861285 
L 112.279515 232.010612 
L 113.968056 64.683377 
L 114.292776 54.406773 
L 114.422663 53.57173 
L 114.552551 54.645003 
L 114.747383 59.787785 
L 115.072102 77.239868 
L 115.52671 117.112285 
L 117.215251 284.404434 
L 117.539971 294.658141 
L 117.669858 295.48365 
L 117.799746 294.400853 
L 117.994578 289.244131 
L 118.319297 271.770943 
L 118.773905 231.876798 
L 120.462446 64.619801 
L 120.787165 54.388995 
L 120.917053 53.57302 
L 121.046941 54.665341 
L 121.241773 59.836 
L 121.566492 77.330287 
L 122.021099 117.246145 
L 123.709641 284.467922 
L 124.03436 294.675825 
L 124.164248 295.482264 
L 124.294136 294.380421 
L 124.488968 289.195826 
L 124.813687 271.680448 
L 125.268294 231.742893 
L 126.956836 64.556399 
L 127.281555 54.371406 
L 127.411443 53.574501 
L 127.541331 54.685867 
L 127.736163 59.884396 
L 128.060882 77.420859 
L 128.515489 117.380095 
L 130.204031 284.531237 
L 130.52875 294.693318 
L 130.658638 295.480688 
L 130.788526 294.359799 
L 130.983357 289.147339 
L 131.308077 271.589799 
L 131.762684 231.608897 
L 133.451226 64.493172 
L 133.775945 54.354007 
L 133.905833 53.576173 
L 134.035721 54.706584 
L 134.230552 59.932973 
L 134.555272 77.511584 
L 135.009879 117.514135 
L 136.69842 284.594378 
L 137.02314 294.710622 
L 137.153028 295.47892 
L 137.282915 294.338988 
L 137.477747 289.098671 
L 137.802467 271.498997 
L 138.257074 231.474812 
L 139.945615 64.430117 
L 140.270335 54.336799 
L 140.400223 53.578036 
L 140.53011 54.727489 
L 140.724942 59.981731 
L 141.049662 77.602463 
L 141.504269 117.648266 
L 143.19281 284.657346 
L 143.51753 294.727736 
L 143.647417 295.476962 
L 143.777305 294.317988 
L 143.972137 289.049823 
L 144.296856 271.408041 
L 144.751464 231.340636 
L 146.440005 64.367237 
L 146.764725 54.31978 
L 146.894612 53.58009 
L 147.0245 54.748584 
L 147.219332 60.030671 
L 147.544051 77.693495 
L 147.998659 117.782486 
L 149.6872 284.720139 
L 150.011919 294.74466 
L 150.141807 295.474812 
L 150.271695 294.296799 
L 150.466527 289.000793 
L 150.791246 271.316933 
L 151.245854 231.206371 
L 152.934395 64.304531 
L 153.259114 54.302951 
L 153.389002 53.582336 
L 153.51889 54.769868 
L 153.713722 60.079791 
L 154.038441 77.78468 
L 154.493048 117.916796 
L 156.18159 284.782758 
L 156.506309 294.761394 
L 156.636197 295.472471 
L 156.766085 294.27542 
L 156.960917 288.951582 
L 157.285636 271.225672 
L 157.740243 231.072016 
L 159.428785 64.241999 
L 159.753504 54.286312 
L 159.883392 53.584772 
L 160.01328 54.791341 
L 160.208111 60.129092 
L 160.532831 77.876017 
L 160.987438 118.051196 
L 162.67598 284.845203 
L 163.000699 294.777938 
L 163.130587 295.469939 
L 163.260475 294.253852 
L 163.455306 288.902191 
L 163.780026 271.134258 
L 164.234633 230.937572 
L 165.923174 64.179641 
L 166.247894 54.269862 
L 166.377782 53.587399 
L 166.50767 54.813004 
L 166.702501 60.178573 
L 167.027221 77.967508 
L 167.481828 118.185685 
L 169.170369 284.907474 
L 169.495089 294.794292 
L 169.624977 295.467217 
L 169.754864 294.232095 
L 169.949696 288.852619 
L 170.274416 271.042691 
L 170.729023 230.803039 
L 172.417564 64.117458 
L 172.742284 54.253603 
L 172.872172 53.590218 
L 173.002059 54.834855 
L 173.196891 60.228236 
L 173.521611 78.059151 
L 173.976218 118.320262 
L 175.664759 284.96957 
L 175.989479 294.810456 
L 176.119366 295.464303 
L 176.249254 294.210149 
L 176.444086 288.802867 
L 176.768805 270.950972 
L 177.223413 230.668417 
L 178.911954 64.055448 
L 179.236674 54.237534 
L 179.366561 53.593227 
L 179.496449 54.856896 
L 179.691281 60.278078 
L 180.016 78.150946 
L 180.470608 118.454929 
L 182.159149 285.031492 
L 182.483868 294.82643 
L 182.613756 295.461198 
L 182.743644 294.188014 
L 182.938476 288.752934 
L 183.263195 270.8591 
L 183.717802 230.533706 
L 185.406344 63.993614 
L 185.731063 54.221655 
L 185.860951 53.596428 
L 185.990839 54.879125 
L 186.185671 60.328102 
L 186.51039 78.242894 
L 186.964997 118.589684 
L 188.653539 285.093239 
L 188.978258 294.842214 
L 189.108146 295.457902 
L 189.238034 294.16569 
L 189.432865 288.70282 
L 189.757585 270.767077 
L 190.212192 230.398906 
L 191.900734 63.931954 
L 192.225453 54.205966 
L 192.355341 53.599819 
L 192.485229 54.901544 
L 192.68006 60.378305 
L 193.00478 78.334993 
L 193.459387 118.724527 
L 195.147928 285.154812 
L 195.472648 294.857808 
L 195.602536 295.454415 
L 195.732424 294.143177 
L 195.927255 288.652526 
L 196.251975 270.674901 
L 196.706582 230.264019 
L 198.330179 67.156785 
L 198.654899 55.197711 
L 198.849731 53.603402 
L 198.979618 54.924152 
L 199.17445 60.428689 
L 199.49917 78.427245 
L 199.953777 118.859459 
L 201.577374 281.9342 
L 201.902094 293.870703 
L 202.096926 295.450736 
L 202.226813 294.120475 
L 202.421645 288.602052 
L 202.746365 270.582574 
L 203.200972 230.129043 
L 204.824569 67.086859 
L 205.149289 55.172933 
L 205.34412 53.607175 
L 205.474008 54.946948 
L 205.66884 60.479254 
L 205.993559 78.519648 
L 206.448167 118.994479 
L 208.071764 282.004042 
L 208.396484 293.895387 
L 208.591315 295.446867 
L 208.721203 294.097584 
L 208.916035 288.551398 
L 209.240754 270.490094 
L 209.695362 229.99398 
L 211.318959 67.017102 
L 211.643679 55.148343 
L 211.83851 53.61114 
L 211.968398 54.969934 
L 212.16323 60.529998 
L 212.487949 78.612203 
L 212.942557 119.129586 
L 214.566154 282.073714 
L 214.890873 293.919882 
L 215.085705 295.442807 
L 215.215593 294.074504 
L 215.410425 288.500563 
L 215.735144 270.397463 
L 216.189751 229.858829 
L 217.813349 66.947514 
L 218.138068 55.123942 
L 218.3329 53.615296 
L 218.462788 54.993108 
L 218.65762 60.580923 
L 218.982339 78.70491 
L 219.436946 119.264781 
L 221.060544 282.143216 
L 221.385263 293.944189 
L 221.580095 295.438556 
L 221.709983 294.051235 
L 221.904814 288.449548 
L 222.229534 270.304681 
L 222.684141 229.72359 
L 224.307739 66.878097 
L 224.632458 55.099729 
L 224.82729 53.619642 
L 224.957178 55.016471 
L 225.152009 60.632027 
L 225.476729 78.797768 
L 225.931336 119.400063 
L 227.554934 282.212549 
L 227.879653 293.968307 
L 228.074485 295.434114 
L 228.204373 294.027777 
L 228.399204 288.398354 
L 228.723924 270.211747 
L 229.178531 229.588265 
L 230.802128 66.80885 
L 231.126848 55.075705 
L 231.32168 53.62418 
L 231.451567 55.040023 
L 231.646399 60.683312 
L 231.971119 78.890777 
L 232.425726 119.535432 
L 234.049323 282.281711 
L 234.374043 293.992237 
L 234.568875 295.429481 
L 234.698762 294.004131 
L 234.893594 288.346979 
L 235.218313 270.118662 
L 235.672921 229.452852 
L 237.296518 66.739773 
L 237.621238 55.05187 
L 237.816069 53.628909 
L 237.945957 55.063764 
L 238.140789 60.734776 
L 238.465508 78.983938 
L 238.920116 119.670888 
L 240.543713 282.350703 
L 240.868433 294.015978 
L 240.99832 295.431821 
L 241.063264 295.424656 
L 241.193152 293.980296 
L 241.387984 288.295425 
L 241.712703 270.025427 
L 242.167311 229.317352 
L 243.790908 66.670866 
L 244.115627 55.028224 
L 244.245515 53.621887 
L 244.310459 53.633828 
L 244.440347 55.087694 
L 244.635179 60.78642 
L 244.959898 79.077249 
L 245.414505 119.806431 
L 247.038103 282.419524 
L 247.362822 294.03953 
L 247.49271 295.436359 
L 247.557654 295.419641 
L 247.687542 293.956272 
L 247.882374 288.243691 
L 248.207093 269.93204 
L 248.6617 229.181766 
L 250.285298 66.60213 
L 250.610017 55.004766 
L 250.739905 53.617445 
L 250.804849 53.638939 
L 250.934737 55.111812 
L 251.129568 60.838244 
L 251.454288 79.170711 
L 251.908895 119.94206 
L 253.532493 282.488175 
L 253.857212 294.062893 
L 253.9871 295.440705 
L 254.052044 295.414435 
L 254.181932 293.932059 
L 254.376763 288.191778 
L 254.701483 269.838503 
L 255.15609 229.046094 
L 256.779688 66.533564 
L 257.104407 54.981497 
L 257.234295 53.613194 
L 257.299239 53.644241 
L 257.429127 55.136119 
L 257.623958 60.890248 
L 257.948678 79.264324 
L 258.403285 120.077775 
L 260.026882 282.556656 
L 260.351602 294.086067 
L 260.48149 295.444861 
L 260.546434 295.409038 
L 260.676321 293.907658 
L 260.871153 288.139684 
L 261.195873 269.744815 
L 261.65048 228.910336 
L 263.274077 66.465169 
L 263.598797 54.958417 
L 263.728685 53.609134 
L 263.793629 53.649733 
L 263.923516 55.160614 
L 264.118348 60.942431 
L 264.443068 79.358087 
L 264.897675 120.213577 
L 266.521272 282.624965 
L 266.845992 294.109053 
L 266.97588 295.448826 
L 267.040823 295.40345 
L 267.170711 293.883069 
L 267.365543 288.087412 
L 267.690262 269.650976 
L 268.14487 228.774491 
L 269.768467 66.396945 
L 270.093187 54.935526 
L 270.223074 53.605265 
L 270.288018 53.655417 
L 270.417906 55.185298 
L 270.612738 60.994793 
L 270.937457 79.452 
L 271.392065 120.349464 
L 273.015662 282.693105 
L 273.340382 294.131849 
L 273.470269 295.452599 
L 273.535213 295.397671 
L 273.665101 293.85829 
L 273.859933 288.03496 
L 274.184652 269.556988 
L 274.639259 228.638561 
L 276.262857 66.328891 
L 276.587576 54.912824 
L 276.717464 53.601587 
L 276.782408 53.661291 
L 276.912296 55.210171 
L 277.107128 61.047335 
L 277.431847 79.546064 
L 277.886454 120.485437 
L 279.510052 282.761073 
L 279.834771 294.154457 
L 279.964659 295.456182 
L 280.029603 295.391701 
L 280.159491 293.833323 
L 280.354323 287.982328 
L 280.679042 269.462849 
L 281.133649 228.502546 
L 282.757247 66.261008 
L 283.081966 54.890311 
L 283.211854 53.598099 
L 283.276798 53.667357 
L 283.406686 55.235232 
L 283.601517 61.100056 
L 283.926237 79.640278 
L 284.380844 120.621495 
L 286.004442 282.82887 
L 286.329161 294.176876 
L 286.459049 295.459574 
L 286.523993 295.38554 
L 286.653881 293.808168 
L 286.848712 287.929518 
L 287.173432 269.36856 
L 287.628039 228.366445 
L 289.251637 66.193297 
L 289.576356 54.867987 
L 289.706244 53.594803 
L 289.771188 53.673613 
L 289.901075 55.260481 
L 290.095907 61.152956 
L 290.420627 79.734642 
L 290.875234 120.757639 
L 292.498831 282.896496 
L 292.823551 294.199105 
L 292.953439 295.462774 
L 293.018383 295.379188 
L 293.14827 293.782824 
L 293.343102 287.876528 
L 293.667822 269.274121 
L 294.122429 228.230259 
L 295.746026 66.125756 
L 296.070746 54.845852 
L 296.200634 53.591698 
L 296.265577 53.680061 
L 296.395465 55.285919 
L 296.590297 61.206035 
L 296.915016 79.829155 
L 297.369624 120.893867 
L 298.993221 282.963951 
L 299.317941 294.221146 
L 299.447828 295.465783 
L 299.512772 295.372645 
L 299.64266 293.757292 
L 299.837492 287.823359 
L 300.162211 269.179533 
L 300.616819 228.093988 
L 302.240416 66.058387 
L 302.565136 54.823906 
L 302.695023 53.588785 
L 302.759967 53.686699 
L 302.889855 55.311545 
L 303.084687 61.259293 
L 303.409406 79.923818 
L 303.864014 121.03018 
L 305.487611 283.031235 
L 305.81233 294.242997 
L 305.942218 295.468602 
L 306.007162 295.365912 
L 306.13705 293.731572 
L 306.331882 287.770011 
L 306.656601 269.084795 
L 307.111208 227.957633 
L 308.734806 65.991189 
L 309.059525 54.802149 
L 309.189413 53.586062 
L 309.254357 53.693528 
L 309.384245 55.33736 
L 309.579077 61.312731 
L 309.903796 80.018631 
L 310.358403 121.166577 
L 311.982001 283.098347 
L 312.30672 294.26466 
L 312.436608 295.471229 
L 312.501552 295.358987 
L 312.63144 293.705663 
L 312.826271 287.716485 
L 313.150991 268.989908 
L 313.605598 227.821193 
L 315.229196 65.924162 
L 315.553915 54.780581 
L 315.683803 53.58353 
L 315.748747 53.700548 
L 315.878635 55.363363 
L 316.073466 61.366347 
L 316.398186 80.113592 
L 316.852793 121.303059 
L 318.476391 283.165288 
L 318.80111 294.286133 
L 318.930998 295.473665 
L 318.995942 295.351872 
L 319.12583 293.679566 
L 319.320661 287.662779 
L 319.645381 268.894872 
L 320.099988 227.684669 
L 321.723585 65.857307 
L 322.048305 54.759202 
L 322.178193 53.581189 
L 322.243137 53.707759 
L 322.373024 55.389554 
L 322.567856 61.420142 
L 322.892576 80.208703 
L 323.347183 121.439625 
L 324.97078 283.232057 
L 325.2955 294.307417 
L 325.425388 295.475911 
L 325.490332 295.344565 
L 325.620219 293.653281 
L 325.815051 287.608895 
L 326.13977 268.799686 
L 326.594378 227.548061 
L 328.217975 65.790624 
L 328.542695 54.738013 
L 328.672583 53.579039 
L 328.737526 53.715161 
L 328.867414 55.415934 
L 329.062246 61.474115 
L 329.386965 80.303963 
L 329.841573 121.576275 
L 331.46517 283.298654 
L 331.78989 294.328512 
L 331.919777 295.477965 
L 331.984721 295.337068 
L 332.114609 293.626807 
L 332.309441 287.554832 
L 332.63416 268.704352 
L 333.088768 227.41137 
L 334.712365 65.724113 
L 335.037085 54.717013 
L 335.166972 53.577081 
L 335.231916 53.722753 
L 335.361804 55.442501 
L 335.556636 61.528267 
L 335.881355 80.399372 
L 336.335962 121.713009 
L 337.95956 283.36508 
L 338.284279 294.349417 
L 338.414167 295.479828 
L 338.479111 295.32938 
L 338.608999 293.600146 
L 338.803831 287.500591 
L 339.12855 268.608869 
L 339.583157 227.274595 
L 341.141811 69.183189 
L 341.46653 55.967888 
L 341.661362 53.575313 
L 341.726306 53.730537 
L 341.856194 55.469257 
L 342.051025 61.582598 
L 342.375745 80.49493 
L 342.830352 121.849825 
L 344.389006 279.91015 
L 344.713725 293.103156 
L 344.908557 295.4815 
L 344.973501 295.321501 
L 345.103389 293.573296 
L 345.29822 287.446171 
L 345.62294 268.513237 
L 346.077547 227.137736 
L 347.636201 69.108556 
L 347.96092 55.937848 
L 348.155752 53.573737 
L 348.220696 53.738511 
L 348.350584 55.496201 
L 348.545415 61.637107 
L 348.870135 80.590636 
L 349.324742 121.986726 
L 350.883396 279.9847 
L 351.208115 293.133104 
L 351.402947 295.482981 
L 351.467891 295.313431 
L 351.597778 293.546258 
L 351.79261 287.391572 
L 352.11733 268.417457 
L 352.571937 227.000794 
L 354.13059 69.034089 
L 354.45531 55.907994 
L 354.650142 53.572351 
L 354.715086 53.746676 
L 354.844973 55.523332 
L 355.039805 61.691795 
L 355.364525 80.68649 
L 355.819132 122.123709 
L 357.377785 280.059083 
L 357.702505 293.162863 
L 357.897337 295.484271 
L 357.96228 295.305171 
L 358.092168 293.519032 
L 358.287 287.336796 
L 358.611719 268.321528 
L 359.066327 226.86377 
L 360.62498 68.959789 
L 360.9497 55.878328 
L 361.144531 53.571157 
L 361.209475 53.755032 
L 361.339363 55.550652 
L 361.599139 64.715229 
L 361.923858 85.76823 
L 362.443409 136.347733 
L 363.742287 271.906398 
L 364.131951 291.485223 
L 364.391726 295.485369 
L 364.45667 295.29672 
L 364.586558 293.491619 
L 364.846334 284.308876 
L 365.171053 263.23611 
L 365.690604 212.63613 
L 366.989482 77.104529 
L 367.379146 57.551407 
L 367.638921 53.570154 
L 367.703865 53.763579 
L 367.833753 55.57816 
L 368.093529 64.779065 
L 368.418248 85.871587 
L 368.937799 136.492025 
L 370.236677 271.996509 
L 370.626341 291.523918 
L 370.886116 295.486277 
L 370.95106 295.288078 
L 371.080948 293.464017 
L 371.340723 284.244953 
L 371.665443 263.132683 
L 372.184994 212.491808 
L 373.483872 77.014495 
L 373.873535 57.512805 
L 374.133311 53.569342 
L 374.198255 53.772316 
L 374.328143 55.605856 
L 374.587918 64.843074 
L 374.912638 85.975085 
L 375.432189 136.636376 
L 376.731067 272.086466 
L 377.12073 291.562429 
L 377.380506 295.486994 
L 377.44545 295.279245 
L 377.575338 293.436227 
L 377.835113 284.180858 
L 378.159833 263.029116 
L 378.679384 212.347427 
L 379.978262 76.924615 
L 380.367925 57.474387 
L 380.627701 53.568721 
L 380.692645 53.781244 
L 380.822533 55.633739 
L 381.082308 64.907256 
L 381.407028 86.078722 
L 381.926579 136.780787 
L 383.225457 272.176269 
L 383.61512 291.600754 
L 383.874896 295.487519 
L 383.93984 295.270221 
L 384.069727 293.40825 
L 384.329503 284.116589 
L 384.654222 262.925409 
L 385.173774 212.202986 
L 386.472652 76.834889 
L 386.862315 57.436154 
L 387.122091 53.568291 
L 387.187034 53.790363 
L 387.316922 55.66181 
L 387.576698 64.971612 
L 387.901417 86.182498 
L 388.420969 136.925257 
L 389.719847 272.265917 
L 390.10951 291.638894 
L 390.369285 295.487854 
L 390.434229 295.261007 
L 390.564117 293.380085 
L 390.823893 284.052147 
L 391.148612 262.821562 
L 391.668163 212.058486 
L 392.967041 76.745317 
L 393.356705 57.398106 
L 393.61648 53.568052 
L 393.681424 53.799673 
L 393.811312 55.69007 
L 394.071088 65.03614 
L 394.395807 86.286415 
L 394.915358 137.069787 
L 396.214236 272.355412 
L 396.6039 291.67685 
L 396.863675 295.487997 
L 396.928619 295.251602 
L 397.058507 293.351731 
L 397.318283 283.987532 
L 397.643002 262.717576 
L 398.162553 211.913926 
L 398.487273 174.528001 
L 398.487273 174.528001 
" clip-path="url(#p59c37fb9e4)" style="fill: none; stroke: #1f77b4; stroke-width: 1.5; stroke-linecap: square"/>
   </g>
   <g id="line2d_17">
    <path d="M 73.832727 72.743668 
L 74.222391 55.830797 
L 74.417222 53.569631 
L 74.482166 53.768935 
L 74.612054 55.595186 
L 74.87183 64.818446 
L 75.196549 85.93528 
L 75.7161 136.580874 
L 77.014978 272.051901 
L 77.404642 291.547646 
L 77.664417 295.486741 
L 77.729361 295.282663 
L 77.859249 293.446933 
L 78.119025 284.205519 
L 78.443744 263.068947 
L 78.963295 212.40294 
L 80.262173 76.95915 
L 80.651837 57.489134 
L 80.911612 53.568937 
L 80.976556 53.777789 
L 81.106444 55.622997 
L 81.366219 64.882561 
L 81.690939 86.038863 
L 82.21049 136.725262 
L 83.509368 272.141763 
L 83.899031 291.586042 
L 84.158807 295.48734 
L 84.223751 295.273713 
L 84.353639 293.419028 
L 84.613414 284.141317 
L 84.938134 262.965294 
L 85.457685 212.258522 
L 86.756563 76.869365 
L 87.146226 57.45083 
L 87.406002 53.568434 
L 87.470946 53.786835 
L 87.600834 55.650997 
L 87.860609 64.94685 
L 88.185329 86.142586 
L 88.70488 136.86971 
L 90.003758 272.231471 
L 90.393421 291.624253 
L 90.653197 295.487748 
L 90.718141 295.264572 
L 90.848029 293.390935 
L 91.107804 284.076941 
L 91.432524 262.861501 
L 91.952075 212.114045 
L 93.250953 76.779734 
L 93.640616 57.412711 
L 93.900392 53.568121 
L 93.965336 53.796072 
L 94.095223 55.679183 
L 94.354999 65.011312 
L 94.679718 86.246449 
L 95.19927 137.014217 
L 96.498148 272.321025 
L 96.887811 291.66228 
L 97.147587 295.487964 
L 97.212531 295.25524 
L 97.342418 293.362654 
L 97.602194 284.012393 
L 97.926913 262.757569 
L 98.446465 211.969508 
L 99.745343 76.690258 
L 100.135006 57.374777 
L 100.394782 53.568 
L 100.459725 53.805499 
L 100.589613 55.707558 
L 100.849389 65.075947 
L 101.174108 86.350451 
L 101.693659 137.158784 
L 102.992537 272.410424 
L 103.382201 291.700121 
L 103.641976 295.48799 
L 103.70692 295.245717 
L 103.836808 293.334185 
L 104.096584 283.947672 
L 104.421303 262.653497 
L 104.940854 211.824912 
L 106.239732 76.600936 
L 106.629396 57.337029 
L 106.824227 53.798588 
L 106.889171 53.56807 
L 106.954115 53.815117 
L 107.084003 55.736121 
L 107.343779 65.140755 
L 107.668498 86.454592 
L 108.188049 137.303409 
L 109.486927 272.499668 
L 109.876591 291.737778 
L 110.071422 295.262081 
L 110.136366 295.487825 
L 110.20131 295.236004 
L 110.331198 293.305529 
L 110.590973 283.882777 
L 110.915693 262.549286 
L 111.435244 211.680257 
L 112.734122 76.511769 
L 113.123785 57.299465 
L 113.318617 53.7893 
L 113.383561 53.568331 
L 113.448505 53.824925 
L 113.578393 55.764871 
L 113.838168 65.205736 
L 114.162888 86.558873 
L 114.682439 137.448094 
L 115.981317 272.588758 
L 116.37098 291.775249 
L 116.565812 295.271274 
L 116.630756 295.487468 
L 116.6957 295.2261 
L 116.825588 293.276685 
L 117.085363 283.81771 
L 117.475027 257.053837 
L 118.059522 196.807397 
L 119.163568 81.060236 
L 119.553231 59.356645 
L 119.813007 53.780203 
L 119.877951 53.568783 
L 119.942895 53.834924 
L 120.072783 55.793808 
L 120.332558 65.270889 
L 120.722222 92.057758 
L 121.306717 152.323324 
L 122.410763 268.043998 
L 122.800426 289.722567 
L 123.060202 295.280275 
L 123.125146 295.486921 
L 123.255034 294.4686 
L 123.449865 289.406273 
L 123.774585 272.076078 
L 124.229192 232.329318 
L 125.917733 64.835668 
L 126.242453 54.44993 
L 126.372341 53.569426 
L 126.502228 54.597273 
L 126.69706 59.673551 
L 127.02178 77.024891 
L 127.476387 116.793471 
L 129.164928 284.252349 
L 129.489648 294.615211 
L 129.619536 295.486182 
L 129.749423 294.448808 
L 129.944255 289.358582 
L 130.268975 271.986103 
L 130.723582 232.19572 
L 132.412123 64.771679 
L 132.736843 54.431699 
L 132.86673 53.57026 
L 132.996618 54.617159 
L 133.19145 59.721334 
L 133.516169 77.114943 
L 133.970777 116.927114 
L 135.659318 284.316251 
L 135.984038 294.633346 
L 136.113925 295.485252 
L 136.243813 294.428828 
L 136.438645 289.310708 
L 136.763364 271.895975 
L 137.217972 232.062031 
L 138.906513 64.707864 
L 139.231232 54.413658 
L 139.36112 53.571285 
L 139.491008 54.637235 
L 139.68584 59.769297 
L 140.010559 77.205149 
L 140.465166 117.060848 
L 142.153708 284.37998 
L 142.478427 294.651292 
L 142.608315 295.484131 
L 142.738203 294.408658 
L 142.933035 289.262654 
L 143.257754 271.805692 
L 143.712361 231.928252 
L 145.400903 64.644222 
L 145.725622 54.395807 
L 145.85551 53.572502 
L 145.985398 54.6575 
L 146.18023 59.817443 
L 146.504949 77.295508 
L 146.959556 117.194673 
L 148.648098 284.443536 
L 148.972817 294.669049 
L 149.102705 295.482819 
L 149.232593 294.388298 
L 149.427424 289.214418 
L 149.752144 271.715256 
L 150.206751 231.794382 
L 151.895293 64.580753 
L 152.220012 54.378145 
L 152.3499 53.573909 
L 152.479788 54.677954 
L 152.674619 59.865769 
L 152.999339 77.386021 
L 153.453946 117.328588 
L 155.142487 284.506917 
L 155.467207 294.686615 
L 155.597095 295.481316 
L 155.726982 294.367749 
L 155.921814 289.166001 
L 156.246534 271.624666 
L 156.701141 231.660421 
L 158.389682 64.517458 
L 158.714402 54.360674 
L 158.84429 53.575508 
L 158.974177 54.698597 
L 159.169009 59.914277 
L 159.493729 77.476688 
L 159.948336 117.462594 
L 161.636877 284.570125 
L 161.961597 294.703992 
L 162.091484 295.479622 
L 162.221372 294.347011 
L 162.416204 289.117403 
L 162.740923 271.533923 
L 163.195531 231.52637 
L 164.884072 64.454337 
L 165.208792 54.343392 
L 165.338679 53.577297 
L 165.468567 54.71943 
L 165.663399 59.962965 
L 165.988118 77.567508 
L 166.442726 117.59669 
L 168.131267 284.633159 
L 168.455986 294.721179 
L 168.585874 295.477737 
L 168.715762 294.326084 
L 168.910594 289.068623 
L 169.235313 271.443026 
L 169.689921 231.392229 
L 171.378462 64.39139 
L 171.703181 54.3263 
L 171.833069 53.579278 
L 171.962957 54.740452 
L 172.157789 60.011835 
L 172.482508 77.658481 
L 172.937115 117.730876 
L 174.625657 284.696019 
L 174.950376 294.738176 
L 175.080264 295.475661 
L 175.210152 294.304967 
L 175.404984 289.019663 
L 175.729703 271.351977 
L 176.18431 231.257998 
L 177.872852 64.328617 
L 178.197571 54.309398 
L 178.327459 53.58145 
L 178.457347 54.761663 
L 178.652178 60.060886 
L 178.976898 77.749607 
L 179.431505 117.865152 
L 181.120047 284.758705 
L 181.444766 294.754983 
L 181.574654 295.473394 
L 181.704542 294.283661 
L 181.899373 288.970522 
L 182.224093 271.260774 
L 182.6787 231.123678 
L 184.367241 64.266018 
L 184.691961 54.292686 
L 184.821849 53.583813 
L 184.951737 54.783064 
L 185.146568 60.110117 
L 185.471288 77.840886 
L 185.925895 117.999517 
L 187.614436 284.821217 
L 187.939156 294.7716 
L 188.069044 295.470935 
L 188.198931 294.262166 
L 188.393763 288.921201 
L 188.718483 271.169419 
L 189.17309 230.989268 
L 190.861631 64.203593 
L 191.186351 54.276164 
L 191.316239 53.586367 
L 191.446126 54.804653 
L 191.640958 60.159529 
L 191.965677 77.932317 
L 192.420285 118.133971 
L 194.108826 284.883555 
L 194.433546 294.788027 
L 194.563433 295.468286 
L 194.693321 294.240482 
L 194.888153 288.871698 
L 195.212872 271.077911 
L 195.66748 230.854769 
L 197.356021 64.141343 
L 197.680741 54.259831 
L 197.810628 53.589112 
L 197.940516 54.826432 
L 198.135348 60.209122 
L 198.460067 78.023901 
L 198.914675 118.268515 
L 200.603216 284.945718 
L 200.927935 294.804265 
L 201.057823 295.465445 
L 201.187711 294.218609 
L 201.382543 288.822015 
L 201.707262 270.98625 
L 202.161869 230.720181 
L 203.850411 64.079267 
L 204.17513 54.243689 
L 204.305018 53.592048 
L 204.434906 54.8484 
L 204.629738 60.258895 
L 204.954457 78.115638 
L 205.409064 118.403147 
L 207.097606 285.007707 
L 207.422325 294.820312 
L 207.552213 295.462414 
L 207.682101 294.196546 
L 207.876932 288.772151 
L 208.201652 270.894437 
L 208.656259 230.585504 
L 210.344801 64.017365 
L 210.66952 54.227737 
L 210.799408 53.595175 
L 210.929296 54.870557 
L 211.124127 60.308849 
L 211.448847 78.207527 
L 211.903454 118.537868 
L 213.591995 285.069522 
L 213.916715 294.836169 
L 214.046603 295.459191 
L 214.176491 294.174295 
L 214.371322 288.722107 
L 214.696042 270.802472 
L 215.150649 230.450739 
L 216.83919 63.955638 
L 217.16391 54.211975 
L 217.293798 53.598493 
L 217.423685 54.892903 
L 217.618517 60.358984 
L 217.943237 78.299568 
L 218.397844 118.672678 
L 220.086385 285.131161 
L 220.411105 294.851836 
L 220.540993 295.455778 
L 220.67088 294.151854 
L 220.865712 288.671882 
L 221.190432 270.710355 
L 221.645039 230.315885 
L 223.33358 63.894085 
L 223.6583 54.196403 
L 223.788187 53.602002 
L 223.918075 54.915438 
L 224.112907 60.409299 
L 224.437626 78.391762 
L 224.892234 118.807576 
L 226.515831 281.907305 
L 226.840551 293.861163 
L 227.035382 295.452173 
L 227.16527 294.129225 
L 227.360102 288.621478 
L 227.684821 270.618086 
L 228.139429 230.180944 
L 229.763026 67.113721 
L 230.087746 55.182436 
L 230.282577 53.605702 
L 230.412465 54.938162 
L 230.607297 60.459794 
L 230.932016 78.484107 
L 231.386624 118.942561 
L 233.010221 281.977212 
L 233.33494 293.88592 
L 233.529772 295.448377 
L 233.65966 294.106406 
L 233.854492 288.570892 
L 234.179211 270.525665 
L 234.633818 230.045914 
L 236.257416 67.043899 
L 236.582135 55.157774 
L 236.776967 53.609593 
L 236.906855 54.961075 
L 237.101687 60.510469 
L 237.426406 78.576604 
L 237.881013 119.077635 
L 239.504611 282.04695 
L 239.82933 293.910488 
L 240.024162 295.444391 
L 240.15405 294.083399 
L 240.348881 288.520127 
L 240.673601 270.433092 
L 241.128208 229.910797 
L 242.751806 66.974246 
L 243.076525 55.1333 
L 243.271357 53.613675 
L 243.401245 54.984177 
L 243.596076 60.561324 
L 243.920796 78.669252 
L 244.375403 119.212796 
L 245.999001 282.116517 
L 246.32372 293.934867 
L 246.518552 295.440213 
L 246.64844 294.060203 
L 246.843271 288.469182 
L 247.167991 270.340368 
L 247.622598 229.775592 
L 249.246195 66.904764 
L 249.570915 55.109015 
L 249.765747 53.617949 
L 249.895634 55.007467 
L 250.090466 60.61236 
L 250.415186 78.762052 
L 250.869793 119.348045 
L 252.49339 282.185915 
L 252.81811 293.959058 
L 253.012941 295.435844 
L 253.142829 294.036818 
L 253.337661 288.418056 
L 253.66238 270.247493 
L 254.116988 229.640299 
L 255.740585 66.835451 
L 256.065305 55.084919 
L 256.260136 53.622413 
L 256.390024 55.030947 
L 256.584856 60.663575 
L 256.909575 78.855003 
L 257.364183 119.48338 
L 258.98778 282.255142 
L 259.3125 293.98306 
L 259.507331 295.431284 
L 259.637219 294.013244 
L 259.832051 288.366751 
L 260.15677 270.154466 
L 260.611378 229.50492 
L 262.234975 66.766309 
L 262.559694 55.061011 
L 262.754526 53.627068 
L 262.884414 55.054615 
L 263.079246 60.71497 
L 263.403965 78.948105 
L 263.858572 119.618803 
L 265.48217 282.3242 
L 265.806889 294.006873 
L 266.001721 295.426534 
L 266.131609 293.989481 
L 266.326441 288.315266 
L 266.65116 270.061288 
L 267.105767 229.369454 
L 268.729365 66.697337 
L 269.054084 55.037292 
L 269.183972 53.623646 
L 269.248916 53.631914 
L 269.378804 55.078472 
L 269.573635 60.766545 
L 269.898355 79.041359 
L 270.352962 119.754313 
L 271.97656 282.393087 
L 272.301279 294.030498 
L 272.431167 295.434637 
L 272.496111 295.421592 
L 272.625999 293.96553 
L 272.82083 288.263601 
L 273.14555 269.967959 
L 273.600157 229.233901 
L 275.223755 66.628535 
L 275.548474 55.013762 
L 275.678362 53.61913 
L 275.743306 53.636952 
L 275.873194 55.102518 
L 276.068025 60.8183 
L 276.392745 79.134763 
L 276.847352 119.889909 
L 278.470949 282.461803 
L 278.795669 294.053934 
L 278.925557 295.439057 
L 278.990501 295.416459 
L 279.120388 293.94139 
L 279.31522 288.211757 
L 279.63994 269.87448 
L 280.094547 229.098262 
L 281.718144 66.559904 
L 282.042864 54.99042 
L 282.172752 53.614806 
L 282.237696 53.64218 
L 282.367583 55.126752 
L 282.562415 60.870234 
L 282.887135 79.228317 
L 283.341742 120.025591 
L 284.965339 282.530349 
L 285.290059 294.077181 
L 285.419947 295.443286 
L 285.48489 295.411135 
L 285.614778 293.917061 
L 285.80961 288.159732 
L 286.134329 269.78085 
L 286.588937 228.962537 
L 288.212534 66.491443 
L 288.537254 54.967268 
L 288.667141 53.610672 
L 288.732085 53.647599 
L 288.861973 55.151175 
L 289.056805 60.922348 
L 289.381524 79.322023 
L 289.836132 120.161359 
L 291.459729 282.598725 
L 291.784449 294.100239 
L 291.914336 295.447324 
L 291.97928 295.405621 
L 292.109168 293.892544 
L 292.304 288.107529 
L 292.628719 269.687069 
L 293.083326 228.826725 
L 294.706924 66.423153 
L 295.031643 54.944304 
L 295.161531 53.606729 
L 295.226475 53.653209 
L 295.356363 55.175786 
L 295.551195 60.974642 
L 295.875914 79.415879 
L 296.330521 120.297214 
L 297.954119 282.666929 
L 298.278838 294.123108 
L 298.408726 295.451171 
L 298.47367 295.399915 
L 298.603558 293.867838 
L 298.798389 288.055146 
L 299.123109 269.593138 
L 299.577716 228.690828 
L 301.201314 66.355033 
L 301.526033 54.92153 
L 301.655921 53.602978 
L 301.720865 53.65901 
L 301.850753 55.200586 
L 302.045584 61.027114 
L 302.370304 79.509885 
L 302.824911 120.433154 
L 304.448509 282.734963 
L 304.773228 294.145788 
L 304.903116 295.454827 
L 304.96806 295.394019 
L 305.097948 293.842944 
L 305.292779 288.002583 
L 305.617499 269.499057 
L 306.072106 228.554846 
L 307.695704 66.287085 
L 308.020423 54.898944 
L 308.150311 53.599417 
L 308.215255 53.665002 
L 308.345142 55.225575 
L 308.539974 61.079766 
L 308.864694 79.604041 
L 309.319301 120.569179 
L 310.942898 282.802826 
L 311.267618 294.168279 
L 311.397506 295.458292 
L 311.46245 295.387931 
L 311.592337 293.817861 
L 311.787169 287.949841 
L 312.111889 269.404826 
L 312.566496 228.418777 
L 314.190093 66.219307 
L 314.514813 54.876547 
L 314.644701 53.596048 
L 314.709644 53.671185 
L 314.839532 55.250752 
L 315.034364 61.132598 
L 315.359083 79.698347 
L 315.813691 120.70529 
L 317.437288 282.870518 
L 317.762008 294.190582 
L 317.891895 295.461566 
L 317.956839 295.381653 
L 318.086727 293.79259 
L 318.281559 287.896921 
L 318.606278 269.310445 
L 319.060886 228.282624 
L 320.684483 66.151701 
L 321.009203 54.854339 
L 321.13909 53.59287 
L 321.204034 53.677559 
L 321.333922 55.276117 
L 321.528754 61.185608 
L 321.853473 79.792803 
L 322.308081 120.841485 
L 323.931678 282.938039 
L 324.256397 294.212695 
L 324.386285 295.464649 
L 324.451229 295.375183 
L 324.581117 293.76713 
L 324.775949 287.843821 
L 325.100668 269.215914 
L 325.555275 228.146386 
L 327.178873 66.084266 
L 327.503592 54.83232 
L 327.63348 53.589882 
L 327.698424 53.684124 
L 327.828312 55.301671 
L 328.023144 61.238798 
L 328.347863 79.887408 
L 328.80247 120.977766 
L 330.426068 283.005388 
L 330.750787 294.234619 
L 330.880675 295.467541 
L 330.945619 295.368523 
L 331.075507 293.741482 
L 331.270338 287.790542 
L 331.595058 269.121234 
L 332.049665 228.010063 
L 333.673263 66.017002 
L 333.997982 54.810491 
L 334.12787 53.587086 
L 334.192814 53.69088 
L 334.322702 55.327414 
L 334.517533 61.292166 
L 334.842253 79.982163 
L 335.29686 121.114131 
L 336.920458 283.072567 
L 337.245177 294.256354 
L 337.375065 295.470242 
L 337.440009 295.361672 
L 337.569897 293.715646 
L 337.764728 287.737084 
L 338.089448 269.026404 
L 338.544055 227.873656 
L 340.167652 65.94991 
L 340.492372 54.78885 
L 340.62226 53.584481 
L 340.687204 53.697827 
L 340.817091 55.353344 
L 341.011923 61.345714 
L 341.336643 80.077068 
L 341.79125 121.25058 
L 343.414847 283.139573 
L 343.739567 294.2779 
L 343.869455 295.472751 
L 343.934399 295.35463 
L 344.064286 293.689621 
L 344.259118 287.683447 
L 344.583837 268.931425 
L 345.038445 227.737164 
L 346.662042 65.882989 
L 346.986762 54.767399 
L 347.11665 53.582066 
L 347.181593 53.704964 
L 347.311481 55.379463 
L 347.506313 61.39944 
L 347.831032 80.172121 
L 348.28564 121.387114 
L 349.909237 283.206408 
L 350.233957 294.299257 
L 350.363844 295.47507 
L 350.428788 295.347397 
L 350.558676 293.663408 
L 350.753508 287.629631 
L 351.078227 268.836297 
L 351.532835 227.600589 
L 353.156432 65.81624 
L 353.481152 54.746137 
L 353.611039 53.579843 
L 353.675983 53.712292 
L 353.805871 55.40577 
L 354.000703 61.453345 
L 354.325422 80.267324 
L 354.780029 121.523732 
L 356.403627 283.273072 
L 356.728346 294.320425 
L 356.858234 295.477198 
L 356.923178 295.339973 
L 357.053066 293.637007 
L 357.247898 287.575637 
L 357.572617 268.74102 
L 358.027224 227.463929 
L 359.650822 65.749662 
L 359.975541 54.725064 
L 360.105429 53.577811 
L 360.170373 53.719812 
L 360.300261 55.432265 
L 360.495092 61.507428 
L 360.819812 80.362676 
L 361.274419 121.660433 
L 362.898017 283.339563 
L 363.222736 294.341403 
L 363.352624 295.479134 
L 363.417568 295.332358 
L 363.547456 293.610418 
L 363.742287 287.521464 
L 364.067007 268.645594 
L 364.521614 227.327186 
L 366.145212 65.683256 
L 366.469931 54.70418 
L 366.599819 53.57597 
L 366.664763 53.727522 
L 366.794651 55.458949 
L 366.989482 61.56169 
L 367.314202 80.458176 
L 367.768809 121.797218 
L 369.327463 279.881445 
L 369.652182 293.091594 
L 369.847014 295.48088 
L 369.911958 295.324553 
L 370.041845 293.58364 
L 370.236677 287.467113 
L 370.561397 268.550019 
L 371.016004 227.19036 
L 372.574657 69.137228 
L 372.899377 55.949374 
L 373.094209 53.57432 
L 373.159153 53.735423 
L 373.28904 55.48582 
L 373.483872 61.616131 
L 373.808592 80.553825 
L 374.263199 121.934086 
L 375.821852 279.956059 
L 376.146572 293.121613 
L 376.341404 295.482434 
L 376.406347 295.316556 
L 376.536235 293.556675 
L 376.731067 287.412583 
L 377.055786 268.454296 
L 377.510394 227.05345 
L 379.069047 69.062697 
L 379.393767 55.919449 
L 379.588598 53.572861 
L 379.653542 53.743514 
L 379.78343 55.51288 
L 379.978262 61.67075 
L 380.302981 80.649622 
L 380.757589 122.071037 
L 382.316242 280.030507 
L 382.640962 293.151445 
L 382.835793 295.483797 
L 382.900737 295.308369 
L 383.030625 293.529521 
L 383.225457 287.357875 
L 383.550176 268.358424 
L 384.004784 226.916457 
L 385.563437 68.988333 
L 385.888157 55.889711 
L 386.082988 53.571594 
L 386.147932 53.751797 
L 386.27782 55.540127 
L 386.472652 61.725547 
L 386.797371 80.745568 
L 387.251978 122.208071 
L 388.810632 280.104788 
L 389.135351 293.181089 
L 389.330183 295.48497 
L 389.395127 295.299991 
L 389.525015 293.50218 
L 389.78479 284.333404 
L 390.10951 263.275834 
L 390.629061 212.691596 
L 391.927939 77.139182 
L 392.317602 57.566297 
L 392.577378 53.570517 
L 392.642322 53.76027 
L 392.77221 55.567563 
L 393.031985 64.754503 
L 393.356705 85.831836 
L 393.876256 136.436546 
L 395.175134 271.961885 
L 395.564797 291.509064 
L 395.824573 295.485951 
L 395.889517 295.291422 
L 396.019405 293.47465 
L 396.27918 284.269548 
L 396.6039 263.172461 
L 397.123451 212.547298 
L 398.422329 77.049089 
L 398.487273 72.743668 
L 398.487273 72.743668 
" clip-path="url(#p59c37fb9e4)" style="fill: none; stroke: #ff7f0e; stroke-width: 1.5; stroke-linecap: square"/>
   </g>
   <g id="line2d_18">
    <path d="M 73.832727 290.519483 
L 74.092503 278.339284 
L 74.482166 248.187065 
L 75.196549 170.108192 
L 76.04082 83.372277 
L 76.430483 60.500656 
L 76.690259 54.044887 
L 76.755203 53.608826 
L 76.820147 53.650169 
L 76.950034 55.162528 
L 77.144866 60.946498 
L 77.469586 79.365388 
L 77.924193 120.224146 
L 79.54779 282.630273 
L 79.87251 294.110833 
L 80.002398 295.449126 
L 80.067341 295.403007 
L 80.197229 293.881148 
L 80.392061 288.083337 
L 80.71678 269.643669 
L 81.171388 228.763919 
L 82.794985 66.391644 
L 83.119705 54.933753 
L 83.249592 53.604972 
L 83.314536 53.655867 
L 83.444424 55.187227 
L 83.639256 60.998874 
L 83.963975 79.459313 
L 84.418583 120.36004 
L 86.04218 282.698399 
L 86.3669 294.133615 
L 86.496787 295.452885 
L 86.561731 295.397213 
L 86.691619 293.856355 
L 86.886451 288.030871 
L 87.21117 269.549669 
L 87.665778 228.627982 
L 89.289375 66.323603 
L 89.614094 54.911066 
L 89.743982 53.601308 
L 89.808926 53.661756 
L 89.938814 55.212114 
L 90.133646 61.05143 
L 90.458365 79.553389 
L 90.912972 120.49602 
L 92.53657 282.766354 
L 92.861289 294.156208 
L 92.991177 295.456453 
L 93.056121 295.391228 
L 93.186009 293.831373 
L 93.380841 287.978226 
L 93.70556 269.455518 
L 94.160167 228.49196 
L 95.783765 66.255734 
L 96.108484 54.888567 
L 96.238372 53.597836 
L 96.303316 53.667837 
L 96.433204 55.237189 
L 96.628035 61.104165 
L 96.952755 79.647614 
L 97.407362 120.632084 
L 99.03096 282.834138 
L 99.355679 294.178612 
L 99.485567 295.459829 
L 99.550511 295.385053 
L 99.680399 293.806203 
L 99.87523 287.925401 
L 100.19995 269.361218 
L 100.654557 228.355852 
L 102.278155 66.188036 
L 102.602874 54.866258 
L 102.732762 53.594555 
L 102.797706 53.674108 
L 102.927594 55.262454 
L 103.122425 61.157079 
L 103.447145 79.74199 
L 103.901752 120.768234 
L 105.525349 282.90175 
L 105.850069 294.200827 
L 105.979957 295.463015 
L 106.044901 295.378686 
L 106.174788 293.780845 
L 106.36962 287.872398 
L 106.69434 269.266768 
L 107.148947 228.21966 
L 108.772544 66.120508 
L 109.097264 54.844138 
L 109.227152 53.591465 
L 109.292096 53.68057 
L 109.421983 55.287906 
L 109.616815 61.210172 
L 109.941534 79.836515 
L 110.396142 120.904469 
L 112.019739 282.969192 
L 112.344459 294.222853 
L 112.474347 295.46601 
L 112.53929 295.372128 
L 112.669178 293.755298 
L 112.86401 287.819215 
L 113.188729 269.172168 
L 113.643337 228.083383 
L 115.266934 66.053152 
L 115.591654 54.822206 
L 115.721541 53.588566 
L 115.786485 53.687223 
L 115.916373 55.313547 
L 116.111205 61.263445 
L 116.435924 79.931189 
L 116.890532 121.040789 
L 118.514129 283.036462 
L 118.838848 294.24469 
L 118.968736 295.468813 
L 119.03368 295.36538 
L 119.163568 293.729563 
L 119.3584 287.765853 
L 119.683119 269.077418 
L 120.137726 227.947021 
L 121.761324 65.985968 
L 122.086043 54.800464 
L 122.215931 53.585858 
L 122.280875 53.694067 
L 122.410763 55.339376 
L 122.605595 61.316896 
L 122.930314 80.026014 
L 123.384921 121.177193 
L 125.008519 283.103561 
L 125.333238 294.266337 
L 125.463126 295.471426 
L 125.52807 295.35844 
L 125.657958 293.703639 
L 125.852789 287.712313 
L 126.177509 268.982519 
L 126.632116 227.810574 
L 128.255714 65.918955 
L 128.580433 54.778911 
L 128.710321 53.583341 
L 128.775265 53.701102 
L 128.905153 55.365394 
L 129.099984 61.370526 
L 129.424704 80.120987 
L 129.879311 121.313682 
L 131.502909 283.170489 
L 131.827628 294.287796 
L 131.957516 295.473847 
L 132.02246 295.35131 
L 132.152348 293.677528 
L 132.347179 287.658593 
L 132.671899 268.887471 
L 133.126506 227.674044 
L 134.750103 65.852113 
L 135.074823 54.757547 
L 135.204711 53.581015 
L 135.269655 53.708328 
L 135.399542 55.3916 
L 135.594374 61.424335 
L 135.919094 80.21611 
L 136.373701 121.450254 
L 137.997298 283.237244 
L 138.322018 294.309065 
L 138.451906 295.476077 
L 138.51685 295.343989 
L 138.646737 293.651228 
L 138.841569 287.604695 
L 139.166289 268.792274 
L 139.620896 227.537429 
L 141.244493 65.785443 
L 141.569213 54.736372 
L 141.699101 53.57888 
L 141.764044 53.715744 
L 141.893932 55.417994 
L 142.088764 61.478322 
L 142.413483 80.311381 
L 142.868091 121.58691 
L 144.491688 283.303828 
L 144.816408 294.330145 
L 144.946295 295.478117 
L 145.011239 295.336477 
L 145.141127 293.62474 
L 145.335959 287.550618 
L 145.660678 268.696928 
L 146.115286 227.400731 
L 147.738883 65.718945 
L 148.063603 54.715387 
L 148.19349 53.576936 
L 148.258434 53.723352 
L 148.388322 55.444576 
L 148.583154 61.532488 
L 148.907873 80.406802 
L 149.36248 121.72365 
L 150.986078 283.37024 
L 151.310797 294.351036 
L 151.440685 295.479965 
L 151.505629 295.328774 
L 151.635517 293.598063 
L 151.830349 287.496363 
L 152.155068 268.601434 
L 152.609675 227.26395 
L 154.168329 69.177376 
L 154.493048 55.965545 
L 154.68788 53.575184 
L 154.752824 53.73115 
L 154.882712 55.471346 
L 155.077544 61.586833 
L 155.402263 80.502371 
L 155.85687 121.860474 
L 157.415524 279.915956 
L 157.740243 293.105493 
L 157.935075 295.481622 
L 158.000019 295.32088 
L 158.129907 293.571199 
L 158.324738 287.441929 
L 158.649458 268.50579 
L 159.104065 227.127085 
L 160.662719 69.102756 
L 160.987438 55.935518 
L 161.18227 53.573622 
L 161.247214 53.739139 
L 161.377102 55.498305 
L 161.571933 61.641356 
L 161.896653 80.598088 
L 162.35126 121.99738 
L 163.909914 279.990493 
L 164.234633 293.135426 
L 164.429465 295.483088 
L 164.494409 295.312796 
L 164.624296 293.544147 
L 164.819128 287.387317 
L 165.143848 268.409998 
L 165.598455 226.990136 
L 167.157109 69.028302 
L 167.481828 55.905679 
L 167.67666 53.572252 
L 167.741604 53.747319 
L 167.871491 55.525451 
L 168.066323 61.696057 
L 168.391043 80.693954 
L 168.84565 122.13437 
L 170.404303 280.064863 
L 170.729023 293.165171 
L 170.923855 295.484363 
L 170.988798 295.30452 
L 171.118686 293.516906 
L 171.313518 287.332527 
L 171.638237 268.314058 
L 172.092845 226.853105 
L 173.651498 68.954015 
L 173.976218 55.876028 
L 174.171049 53.571072 
L 174.235993 53.75569 
L 174.365881 55.552786 
L 174.625657 64.72019 
L 174.950376 85.776267 
L 175.469927 136.358958 
L 176.768805 271.913414 
L 177.158469 291.488241 
L 177.418244 295.485447 
L 177.483188 295.296054 
L 177.613076 293.489478 
L 177.872852 284.303909 
L 178.197571 263.228068 
L 178.717122 212.624903 
L 180.016 77.097518 
L 180.405664 57.548397 
L 180.665439 53.570084 
L 180.730383 53.764252 
L 180.860271 55.580308 
L 181.120047 64.784039 
L 181.444766 85.879635 
L 181.964317 136.503253 
L 183.263195 272.003513 
L 183.652859 291.526921 
L 183.912634 295.48634 
L 183.977578 295.287397 
L 184.107466 293.461862 
L 184.367241 284.239973 
L 184.691961 263.12463 
L 185.211512 212.480577 
L 186.51039 77.007496 
L 186.900053 57.509809 
L 187.159829 53.569287 
L 187.224773 53.773004 
L 187.354661 55.608018 
L 187.614436 64.848061 
L 187.939156 85.983143 
L 188.458707 136.647609 
L 189.757585 272.093458 
L 190.147248 291.565417 
L 190.407024 295.487041 
L 190.471968 295.278549 
L 190.601856 293.434057 
L 190.861631 284.175864 
L 191.186351 263.021052 
L 191.705902 212.336192 
L 193.00478 76.917628 
L 193.394443 57.471406 
L 193.654219 53.568681 
L 193.719163 53.781947 
L 193.849051 55.635916 
L 194.108826 64.912257 
L 194.433546 86.086791 
L 194.953097 136.792025 
L 196.251975 272.183249 
L 196.641638 291.603728 
L 196.901414 295.487552 
L 196.966358 295.269511 
L 197.096245 293.406065 
L 197.356021 284.111581 
L 197.680741 262.917334 
L 198.200292 212.191746 
L 199.49917 76.827914 
L 199.888833 57.433187 
L 200.148609 53.568265 
L 200.213553 53.791081 
L 200.34344 55.664002 
L 200.603216 64.976626 
L 200.927935 86.190578 
L 201.447487 136.9365 
L 202.746365 272.272886 
L 203.136028 291.641854 
L 203.395804 295.487872 
L 203.460747 295.260282 
L 203.590635 293.377885 
L 203.850411 284.047126 
L 204.17513 262.813477 
L 204.694681 212.047241 
L 205.993559 76.738355 
L 206.383223 57.395154 
L 206.642998 53.568041 
L 206.707942 53.800406 
L 206.83783 55.692276 
L 207.097606 65.041168 
L 207.422325 86.294506 
L 207.941876 137.081035 
L 209.240754 272.362368 
L 209.630418 291.679795 
L 209.890193 295.488 
L 209.955137 295.250862 
L 210.085025 293.349518 
L 210.344801 283.982497 
L 210.66952 262.70948 
L 211.189071 211.902677 
L 212.487949 76.64895 
L 212.877613 57.357305 
L 213.137388 53.568009 
L 213.202332 53.809921 
L 213.33222 55.720738 
L 213.591995 65.105883 
L 213.916715 86.398572 
L 214.436266 137.225629 
L 215.735144 272.451696 
L 216.124808 291.717551 
L 216.319639 295.257059 
L 216.384583 295.487937 
L 216.449527 295.241251 
L 216.579415 293.320962 
L 216.83919 283.917696 
L 217.16391 262.605343 
L 217.683461 211.758054 
L 218.982339 76.5597 
L 219.372002 57.319642 
L 219.566834 53.794271 
L 219.631778 53.568167 
L 219.696722 53.819627 
L 219.82661 55.749387 
L 220.086385 65.17077 
L 220.411105 86.502778 
L 220.930656 137.370281 
L 222.229534 272.540869 
L 222.619197 291.755121 
L 222.814029 295.266354 
L 222.878973 295.487684 
L 222.943917 295.23145 
L 223.073805 293.292219 
L 223.33358 283.852722 
L 223.6583 262.501068 
L 224.177851 211.613371 
L 225.476729 76.470604 
L 225.866392 57.282164 
L 226.061224 53.785071 
L 226.126168 53.568516 
L 226.191112 53.829524 
L 226.320999 55.778224 
L 226.580775 65.235831 
L 226.970438 91.997968 
L 227.554934 152.242961 
L 228.65898 267.992121 
L 229.048643 289.697601 
L 229.308419 295.275458 
L 229.373363 295.487239 
L 229.438307 295.221458 
L 229.568194 293.263289 
L 229.82797 283.787575 
L 230.217633 257.002443 
L 230.802128 196.73832 
L 231.906175 81.015644 
L 232.295838 59.335185 
L 232.555614 53.776062 
L 232.620558 53.569056 
L 232.685501 53.839611 
L 232.815389 55.807248 
L 233.075165 65.301064 
L 233.464828 92.109181 
L 234.049323 152.39241 
L 235.15337 268.088556 
L 235.543033 289.743986 
L 235.802809 295.284372 
L 235.867752 295.486603 
L 235.99764 294.459475 
L 236.192472 289.384251 
L 236.517191 272.034507 
L 236.971799 232.267574 
L 238.66034 64.806068 
L 238.98506 54.441479 
L 239.114947 53.569788 
L 239.244835 54.606442 
L 239.439667 59.695616 
L 239.764386 77.066498 
L 240.218994 116.855235 
L 241.907535 284.281909 
L 242.232254 294.623617 
L 242.362142 295.485776 
L 242.49203 294.439596 
L 242.686862 289.336475 
L 243.011581 271.944461 
L 243.466189 232.133935 
L 245.15473 64.742159 
L 245.479449 54.423336 
L 245.609337 53.57071 
L 245.739225 54.626416 
L 245.934057 59.743482 
L 246.258776 77.156621 
L 246.713383 116.98892 
L 248.401925 284.345731 
L 248.726644 294.641665 
L 248.856532 295.484758 
L 248.98642 294.419528 
L 249.181252 289.288518 
L 249.505971 271.854261 
L 249.960578 232.000204 
L 251.64912 64.678424 
L 251.973839 54.405383 
L 252.103727 53.571824 
L 252.233615 54.646578 
L 252.428446 59.79153 
L 252.753166 77.246897 
L 253.207773 117.122696 
L 254.896315 284.40938 
L 255.221034 294.659524 
L 255.350922 295.483549 
L 255.48081 294.39927 
L 255.675641 289.24038 
L 256.000361 271.763908 
L 256.454968 231.866383 
L 258.143509 64.614862 
L 258.468229 54.387619 
L 258.598117 53.573129 
L 258.728005 54.666931 
L 258.922836 59.839759 
L 259.247556 77.337328 
L 259.702163 117.256563 
L 261.390704 284.472855 
L 261.715424 294.677192 
L 261.845312 295.482148 
L 261.975199 294.378823 
L 262.170031 289.19206 
L 262.494751 271.6734 
L 262.949358 231.732471 
L 264.637899 64.551474 
L 264.962619 54.370046 
L 265.092507 53.574624 
L 265.222394 54.687472 
L 265.417226 59.888169 
L 265.741945 77.427912 
L 266.196553 117.39052 
L 267.885094 284.536156 
L 268.209814 294.694671 
L 268.339701 295.480557 
L 268.469589 294.358187 
L 268.664421 289.143559 
L 268.98914 271.58274 
L 269.443748 231.598468 
L 271.132289 64.488259 
L 271.457008 54.352662 
L 271.586896 53.576311 
L 271.716784 54.708203 
L 271.911616 59.93676 
L 272.236335 77.518649 
L 272.690943 117.524568 
L 274.379484 284.599284 
L 274.704203 294.71196 
L 274.834091 295.478775 
L 274.963979 294.337361 
L 275.158811 289.094877 
L 275.48353 271.491926 
L 275.938137 231.464376 
L 277.626679 64.425219 
L 277.951398 54.335468 
L 278.081286 53.578189 
L 278.211174 54.729124 
L 278.406006 59.985533 
L 278.730725 77.60954 
L 279.185332 117.658705 
L 280.873874 284.662237 
L 281.198593 294.729059 
L 281.328481 295.476801 
L 281.458369 294.316346 
L 281.6532 289.046014 
L 281.97792 271.400958 
L 282.432527 231.330193 
L 284.121069 64.362352 
L 284.445788 54.318464 
L 284.575676 53.580258 
L 284.705564 54.750233 
L 284.900395 60.034486 
L 285.225115 77.700584 
L 285.679722 117.792933 
L 287.368263 284.725017 
L 287.692983 294.745968 
L 287.822871 295.474637 
L 287.952759 294.295142 
L 288.14759 288.996971 
L 288.47231 271.309838 
L 288.926917 231.195921 
L 290.615458 64.29966 
L 290.940178 54.301649 
L 291.070066 53.582518 
L 291.199953 54.771532 
L 291.394785 60.08362 
L 291.719505 77.791781 
L 292.174112 117.92725 
L 293.862653 284.787623 
L 294.187373 294.762688 
L 294.317261 295.472281 
L 294.447148 294.273749 
L 294.64198 288.947746 
L 294.9667 271.218565 
L 295.421307 231.061559 
L 297.109848 64.237141 
L 297.434568 54.285025 
L 297.564455 53.584969 
L 297.694343 54.79302 
L 297.889175 60.132935 
L 298.213894 77.88313 
L 298.668502 118.061656 
L 300.357043 284.850054 
L 300.681763 294.779217 
L 300.81165 295.469734 
L 300.941538 294.252166 
L 301.13637 288.898341 
L 301.461089 271.127139 
L 301.915697 230.927108 
L 303.604238 64.174797 
L 303.928957 54.268591 
L 304.058845 53.587612 
L 304.188733 54.814697 
L 304.383565 60.182431 
L 304.708284 77.974632 
L 305.162891 118.196152 
L 306.851433 284.912311 
L 307.176152 294.795556 
L 307.30604 295.466997 
L 307.435928 294.230395 
L 307.63076 288.848755 
L 307.955479 271.03556 
L 308.410086 230.792568 
L 310.098628 64.112627 
L 310.423347 54.252346 
L 310.553235 53.590445 
L 310.683123 54.836563 
L 310.877954 60.232107 
L 311.202674 78.066287 
L 311.657281 118.330737 
L 313.345823 284.974394 
L 313.670542 294.811706 
L 313.80043 295.464068 
L 313.930318 294.208434 
L 314.125149 288.798988 
L 314.449869 270.943829 
L 314.904476 230.657939 
L 316.593018 64.050631 
L 316.917737 54.236292 
L 317.047625 53.593469 
L 317.177513 54.858619 
L 317.372344 60.281964 
L 317.697064 78.158094 
L 318.151671 118.46541 
L 319.840212 285.036302 
L 320.164932 294.827665 
L 320.29482 295.460948 
L 320.424707 294.186284 
L 320.619539 288.749041 
L 320.944259 270.851946 
L 321.398866 230.523221 
L 323.087407 63.98881 
L 323.412127 54.220428 
L 323.542015 53.596685 
L 323.671902 54.880863 
L 323.866734 60.332001 
L 324.191454 78.250054 
L 324.646061 118.600172 
L 326.334602 285.098036 
L 326.659322 294.843434 
L 326.789209 295.457637 
L 326.919097 294.163945 
L 327.113929 288.698914 
L 327.438648 270.759911 
L 327.893256 230.388415 
L 329.581797 63.927164 
L 329.906517 54.204753 
L 330.036404 53.600091 
L 330.166292 54.903296 
L 330.361124 60.382219 
L 330.685843 78.342165 
L 331.140451 118.735022 
L 332.828992 285.159595 
L 333.153711 294.859014 
L 333.283599 295.454135 
L 333.413487 294.141417 
L 333.608319 288.648606 
L 333.933038 270.667723 
L 334.387646 230.253521 
L 336.011243 67.151339 
L 336.335962 55.195776 
L 336.530794 53.603688 
L 336.660682 54.925919 
L 336.855514 60.432617 
L 337.180233 78.434429 
L 337.63484 118.869961 
L 339.258438 281.93964 
L 339.583157 293.87263 
L 339.777989 295.450442 
L 339.907877 294.1187 
L 340.102709 288.598117 
L 340.427428 270.575384 
L 340.882035 230.118538 
L 342.505633 67.081425 
L 342.830352 55.171013 
L 343.025184 53.607477 
L 343.155072 54.94873 
L 343.349903 60.483195 
L 343.674623 78.526844 
L 344.12923 119.004987 
L 345.752828 282.009469 
L 346.077547 293.8973 
L 346.272379 295.446558 
L 346.402267 294.095795 
L 346.597098 288.547449 
L 346.921818 270.482893 
L 347.376425 229.983468 
L 349.000023 67.011681 
L 349.324742 55.146438 
L 349.519574 53.611456 
L 349.649462 54.97173 
L 349.844293 60.533954 
L 350.169013 78.619411 
L 350.62362 119.140101 
L 352.247217 282.079128 
L 352.571937 293.92178 
L 352.766769 295.442483 
L 352.896656 294.0727 
L 353.091488 288.4966 
L 353.416208 270.39025 
L 353.870815 229.84831 
L 355.494412 66.942108 
L 355.819132 55.122051 
L 356.013964 53.615627 
L 356.143851 54.994919 
L 356.338683 60.584892 
L 356.663402 78.712129 
L 357.11801 119.275303 
L 358.741607 282.148617 
L 359.066327 293.946073 
L 359.261158 295.438217 
L 359.391046 294.049417 
L 359.585878 288.445572 
L 359.910597 270.297456 
L 360.365205 229.713065 
L 361.988802 66.872704 
L 362.313522 55.097853 
L 362.508353 53.619989 
L 362.638241 55.018297 
L 362.833073 60.636011 
L 363.157792 78.804999 
L 363.6124 119.410592 
L 365.235997 282.217936 
L 365.560717 293.970176 
L 365.755548 295.43376 
L 365.885436 294.025944 
L 366.080268 288.394363 
L 366.404987 270.20451 
L 366.859594 229.577732 
L 368.483192 66.80347 
L 368.807911 55.073844 
L 369.002743 53.624541 
L 369.132631 55.041864 
L 369.327463 60.68731 
L 369.652182 78.89802 
L 370.106789 119.545968 
L 371.730387 282.287085 
L 372.055106 293.994091 
L 372.249938 295.429112 
L 372.379826 294.002283 
L 372.574657 288.342975 
L 372.899377 270.111414 
L 373.353984 229.442313 
L 374.977582 66.734406 
L 375.302301 55.050024 
L 375.497133 53.629285 
L 375.627021 55.065619 
L 375.821852 60.738788 
L 376.146572 78.991192 
L 376.601179 119.681431 
L 378.224777 282.356063 
L 378.549496 294.017817 
L 378.679384 295.432181 
L 378.744328 295.424273 
L 378.874216 293.978433 
L 379.069047 288.291407 
L 379.393767 270.018166 
L 379.848374 229.306807 
L 381.471971 66.665513 
L 381.796691 55.026392 
L 381.926579 53.621535 
L 381.991523 53.634219 
L 382.12141 55.089563 
L 382.316242 60.790446 
L 382.640962 79.084515 
L 383.095569 119.81698 
L 384.719166 282.424871 
L 385.043886 294.041354 
L 385.173774 295.436704 
L 385.238718 295.419243 
L 385.368605 293.954395 
L 385.563437 288.239659 
L 385.888157 269.924768 
L 386.342764 229.171214 
L 387.966361 66.596789 
L 388.291081 55.002949 
L 388.420969 53.617107 
L 388.485912 53.639345 
L 388.6158 55.113696 
L 388.810632 60.842284 
L 389.135351 79.177989 
L 389.589959 119.952616 
L 391.213556 282.493509 
L 391.538276 294.064703 
L 391.668163 295.441036 
L 391.733107 295.414022 
L 391.862995 293.930168 
L 392.057827 288.187731 
L 392.382546 269.831219 
L 392.837154 229.035535 
L 394.460751 66.528237 
L 394.785471 54.979695 
L 394.915358 53.612871 
L 394.980302 53.644661 
L 395.11019 55.138018 
L 395.305022 60.894301 
L 395.629741 79.271613 
L 396.084349 120.088338 
L 397.707946 282.561976 
L 398.032665 294.087862 
L 398.162553 295.445176 
L 398.227497 295.40861 
L 398.357385 293.905752 
L 398.487273 290.519483 
L 398.487273 290.519483 
" clip-path="url(#p59c37fb9e4)" style="fill: none; stroke: #2ca02c; stroke-width: 1.5; stroke-linecap: square"/>
   </g>
   <g id="line2d_19">
    <path d="M 73.832727 54.855225 
L 74.027559 60.274308 
L 74.352278 78.144009 
L 74.806886 118.444756 
L 76.495427 285.026822 
L 76.820147 294.825231 
L 76.950034 295.461439 
L 77.079922 294.189692 
L 77.274754 288.756711 
L 77.599473 270.866043 
L 78.054081 230.543882 
L 79.742622 63.998277 
L 80.067341 54.222847 
L 80.197229 53.596179 
L 80.327117 54.87744 
L 80.521949 60.324318 
L 80.846668 78.235945 
L 81.301276 118.579505 
L 82.989817 285.088582 
L 83.314536 294.841029 
L 83.444424 295.458157 
L 83.574312 294.167382 
L 83.769144 288.706611 
L 84.093863 270.774031 
L 84.54847 230.409089 
L 86.237012 63.936604 
L 86.561731 54.207144 
L 86.691619 53.599556 
L 86.821507 54.899845 
L 87.016339 60.374508 
L 87.341058 78.328033 
L 87.795665 118.714341 
L 89.484207 285.150168 
L 89.808926 294.856637 
L 89.938814 295.454685 
L 90.068702 294.144884 
L 90.263533 288.65633 
L 90.588253 270.681867 
L 91.04286 230.274208 
L 92.666458 67.162073 
L 92.991177 55.19959 
L 93.186009 53.603125 
L 93.315897 54.922438 
L 93.510728 60.424878 
L 93.835448 78.420273 
L 94.290055 118.849266 
L 95.913653 281.928919 
L 96.238372 293.868831 
L 96.433204 295.451021 
L 96.563092 294.122196 
L 96.757923 288.60587 
L 97.082643 270.589551 
L 97.53725 230.139239 
L 99.160847 67.092133 
L 99.485567 55.174797 
L 99.680399 53.606884 
L 99.810286 54.94522 
L 100.005118 60.475429 
L 100.329838 78.512665 
L 100.784445 118.984279 
L 102.408042 281.998774 
L 102.732762 293.89353 
L 102.927594 295.447166 
L 103.057481 294.099319 
L 103.252313 288.555229 
L 103.577032 270.497083 
L 104.03164 230.004182 
L 105.655237 67.022363 
L 105.979957 55.150193 
L 106.174788 53.610834 
L 106.304676 54.968191 
L 106.499508 60.52616 
L 106.824227 78.605209 
L 107.278835 119.11938 
L 108.902432 282.068459 
L 109.227152 293.918039 
L 109.421983 295.44312 
L 109.551871 294.076253 
L 109.746703 288.504408 
L 110.071422 270.404464 
L 110.52603 229.869038 
L 112.149627 66.952763 
L 112.474347 55.125778 
L 112.669178 53.614975 
L 112.799066 54.991352 
L 112.993898 60.577071 
L 113.318617 78.697904 
L 113.773224 119.254568 
L 115.396822 282.137974 
L 115.721541 293.94236 
L 115.916373 295.438884 
L 116.046261 294.052999 
L 116.241093 288.453407 
L 116.565812 270.311693 
L 117.020419 229.733806 
L 118.644017 66.883333 
L 118.968736 55.101551 
L 119.163568 53.619307 
L 119.293456 55.0147 
L 119.488287 60.628162 
L 119.813007 78.790751 
L 120.267614 119.389844 
L 121.891212 282.207319 
L 122.215931 293.966493 
L 122.410763 295.434456 
L 122.540651 294.029555 
L 122.735482 288.402226 
L 123.060202 270.218771 
L 123.514809 229.598487 
L 125.138407 66.814073 
L 125.463126 55.077513 
L 125.657958 53.623831 
L 125.787846 55.038238 
L 125.982677 60.679433 
L 126.307397 78.883748 
L 126.762004 119.525206 
L 128.385601 282.276494 
L 128.710321 293.990436 
L 128.905153 295.429837 
L 129.03504 294.005923 
L 129.229872 288.350865 
L 129.554592 270.125697 
L 130.009199 229.463081 
L 131.632796 66.744984 
L 131.957516 55.053664 
L 132.152348 53.628545 
L 132.282235 55.061965 
L 132.477067 60.730884 
L 132.801787 78.976897 
L 133.256394 119.660656 
L 134.879991 282.345499 
L 135.204711 294.014192 
L 135.334599 295.431471 
L 135.399542 295.425027 
L 135.52943 293.982102 
L 135.724262 288.299325 
L 136.048981 270.032473 
L 136.503589 229.327588 
L 138.127186 66.676064 
L 138.451906 55.030003 
L 138.581793 53.62223 
L 138.646737 53.63345 
L 138.776625 55.08588 
L 138.971457 60.782514 
L 139.296176 79.070197 
L 139.750784 119.796192 
L 141.374381 282.414333 
L 141.699101 294.037758 
L 141.828988 295.436023 
L 141.893932 295.420027 
L 142.02382 293.958093 
L 142.218652 288.247604 
L 142.543371 269.939097 
L 142.997979 229.192008 
L 144.621576 66.607315 
L 144.946295 55.006531 
L 145.076183 53.617774 
L 145.141127 53.638546 
L 145.271015 55.109984 
L 145.465847 60.834324 
L 145.790566 79.163648 
L 146.245173 119.931815 
L 147.868771 282.482997 
L 148.19349 294.061135 
L 148.323378 295.440384 
L 148.388322 295.414835 
L 148.51821 293.933894 
L 148.713042 288.195704 
L 149.037761 269.845571 
L 149.492368 229.056343 
L 151.115966 66.538736 
L 151.440685 54.983248 
L 151.570573 53.613508 
L 151.635517 53.643834 
L 151.765405 55.134277 
L 151.960236 60.886314 
L 152.284956 79.257249 
L 152.739563 120.067524 
L 154.363161 282.55149 
L 154.68788 294.084324 
L 154.817768 295.444554 
L 154.882712 295.409452 
L 155.0126 293.909508 
L 155.207431 288.143625 
L 155.532151 269.751895 
L 155.986758 228.920591 
L 157.610356 66.470328 
L 157.935075 54.960154 
L 158.064963 53.609434 
L 158.129907 53.649312 
L 158.259795 55.158758 
L 158.454626 60.938484 
L 158.779346 79.351001 
L 159.233953 120.203319 
L 160.85755 282.619813 
L 161.18227 294.107324 
L 161.312158 295.448533 
L 161.377102 295.403879 
L 161.506989 293.884932 
L 161.701821 288.091365 
L 162.026541 269.658068 
L 162.481148 228.784753 
L 164.104745 66.402091 
L 164.429465 54.937248 
L 164.559353 53.60555 
L 164.624296 53.654981 
L 164.754184 55.183428 
L 164.949016 60.990832 
L 165.273735 79.444903 
L 165.728343 120.3392 
L 167.35194 282.687965 
L 167.67666 294.130134 
L 167.806547 295.452321 
L 167.871491 295.398114 
L 168.001379 293.860168 
L 168.196211 288.038927 
L 168.52093 269.56409 
L 168.975538 228.648829 
L 170.599135 66.334024 
L 170.923855 54.914532 
L 171.053742 53.601858 
L 171.118686 53.660841 
L 171.248574 55.208286 
L 171.443406 61.043361 
L 171.768125 79.538956 
L 172.222733 120.475166 
L 173.84633 282.755946 
L 174.171049 294.152756 
L 174.300937 295.455918 
L 174.365881 295.392158 
L 174.495769 293.835215 
L 174.690601 287.986309 
L 175.01532 269.469963 
L 175.469927 228.51282 
L 177.093525 66.266129 
L 177.418244 54.892005 
L 177.548132 53.598356 
L 177.613076 53.666892 
L 177.742964 55.233333 
L 177.937796 61.096068 
L 178.262515 79.633158 
L 178.717122 120.611218 
L 180.34072 282.823756 
L 180.665439 294.175189 
L 180.795327 295.459324 
L 180.860271 295.386012 
L 180.990159 293.810074 
L 181.18499 287.933512 
L 181.50971 269.375686 
L 181.964317 228.376726 
L 183.587915 66.198404 
L 183.912634 54.869666 
L 184.042522 53.595046 
L 184.107466 53.673134 
L 184.237354 55.258568 
L 184.432185 61.148955 
L 184.756905 79.727511 
L 185.211512 120.747355 
L 186.83511 282.891395 
L 187.159829 294.197433 
L 187.289717 295.462539 
L 187.354661 295.379674 
L 187.484549 293.784745 
L 187.67938 287.880536 
L 188.0041 269.281258 
L 188.458707 228.240546 
L 190.082304 66.130851 
L 190.407024 54.847517 
L 190.536912 53.591926 
L 190.601856 53.679567 
L 190.731743 55.283992 
L 190.926575 61.202021 
L 191.251295 79.822013 
L 191.705902 120.883577 
L 193.329499 282.958863 
L 193.654219 294.219488 
L 193.784107 295.465563 
L 193.849051 295.373146 
L 193.978938 293.759227 
L 194.17377 287.827381 
L 194.49849 269.186681 
L 194.953097 228.104282 
L 196.576694 66.063468 
L 196.901414 54.825557 
L 197.031302 53.588998 
L 197.096245 53.686191 
L 197.226133 55.309604 
L 197.420965 61.255265 
L 197.745684 79.916664 
L 198.200292 121.019883 
L 199.823889 283.02616 
L 200.148609 294.241354 
L 200.278496 295.468396 
L 200.34344 295.366427 
L 200.473328 293.733521 
L 200.66816 287.774046 
L 200.992879 269.091955 
L 201.447487 227.967933 
L 203.071084 65.996257 
L 203.395804 54.803785 
L 203.525691 53.586261 
L 203.590635 53.693006 
L 203.720523 55.335404 
L 203.915355 61.308689 
L 204.240074 80.011466 
L 204.694681 121.156274 
L 206.318279 283.093285 
L 206.642998 294.263031 
L 206.772886 295.471037 
L 206.83783 295.359517 
L 206.967718 293.707626 
L 207.16255 287.720533 
L 207.487269 268.997079 
L 207.941876 227.8315 
L 209.565474 65.929218 
L 209.890193 54.782203 
L 210.020081 53.583714 
L 210.085025 53.700011 
L 210.214913 55.361393 
L 210.409744 61.362292 
L 210.734464 80.106416 
L 211.189071 121.29275 
L 212.812669 283.160239 
L 213.137388 294.284518 
L 213.267276 295.473488 
L 213.33222 295.352416 
L 213.462108 293.681543 
L 213.656939 287.666841 
L 213.981659 268.902054 
L 214.436266 227.694982 
L 216.059864 65.86235 
L 216.384583 54.76081 
L 216.514471 53.581359 
L 216.579415 53.707208 
L 216.709303 55.38757 
L 216.904134 61.416073 
L 217.228854 80.201516 
L 217.683461 121.429309 
L 219.307059 283.227021 
L 219.631778 294.305816 
L 219.761666 295.475748 
L 219.82661 295.345124 
L 219.956497 293.655272 
L 220.151329 287.61297 
L 220.476049 268.806879 
L 220.930656 227.55838 
L 222.554253 65.795654 
L 222.878973 54.739607 
L 223.008861 53.579195 
L 223.073805 53.714595 
L 223.203692 55.413935 
L 223.398524 61.470033 
L 223.723244 80.296765 
L 224.177851 121.565953 
L 225.801448 283.293631 
L 226.126168 294.326925 
L 226.256056 295.477816 
L 226.320999 295.337641 
L 226.450887 293.628813 
L 226.645719 287.558921 
L 226.970438 268.711556 
L 227.425046 227.421695 
L 229.048643 65.729129 
L 229.373363 54.718592 
L 229.50325 53.577222 
L 229.568194 53.722173 
L 229.698082 55.440488 
L 229.892914 61.524172 
L 230.217633 80.392162 
L 230.672241 121.70268 
L 232.295838 283.360069 
L 232.620558 294.347845 
L 232.750445 295.479694 
L 232.815389 295.329967 
L 232.945277 293.602166 
L 233.140109 287.504693 
L 233.464828 268.616084 
L 233.919436 227.284926 
L 235.478089 69.188832 
L 235.802809 55.970165 
L 235.99764 53.57544 
L 236.062584 53.729942 
L 236.192472 55.46723 
L 236.387304 61.578489 
L 236.712023 80.487708 
L 237.16663 121.839491 
L 238.725284 279.904513 
L 239.050003 293.100887 
L 239.244835 295.48138 
L 239.309779 295.322103 
L 239.439667 293.57533 
L 239.634499 287.450287 
L 239.959218 268.520464 
L 240.413825 227.148074 
L 241.972479 69.114186 
L 242.297198 55.94011 
L 242.49203 53.573849 
L 242.556974 53.737902 
L 242.686862 55.494159 
L 242.881693 61.632985 
L 243.206413 80.583403 
L 243.66102 121.976385 
L 245.219674 279.979076 
L 245.544393 293.130849 
L 245.739225 295.482876 
L 245.804169 295.314048 
L 245.934057 293.548307 
L 246.128888 287.395702 
L 246.453608 268.424695 
L 246.908215 227.011138 
L 248.466869 69.039706 
L 248.791588 55.910242 
L 248.98642 53.572449 
L 249.051364 53.746053 
L 249.181252 55.521277 
L 249.376083 61.687659 
L 249.700803 80.679247 
L 250.15541 122.113361 
L 251.714064 280.053472 
L 252.038783 293.160623 
L 252.233615 295.48418 
L 252.298559 295.305801 
L 252.428446 293.521095 
L 252.623278 287.340939 
L 252.947998 268.328777 
L 253.402605 226.87412 
L 254.961258 68.965394 
L 255.285978 55.880562 
L 255.48081 53.571241 
L 255.545754 53.754394 
L 255.675641 55.548582 
L 255.935417 64.710416 
L 256.260136 85.760431 
L 256.779688 136.33684 
L 258.078566 271.899587 
L 258.468229 291.482294 
L 258.728005 295.485293 
L 258.792948 295.297364 
L 258.922836 293.493695 
L 259.182612 284.313696 
L 259.507331 263.243915 
L 260.026882 212.647026 
L 261.32576 77.111334 
L 261.715424 57.55433 
L 261.975199 53.570223 
L 262.040143 53.762927 
L 262.170031 55.576076 
L 262.429807 64.774238 
L 262.754526 85.863777 
L 263.274077 136.481126 
L 264.572955 271.989709 
L 264.962619 291.521003 
L 265.222394 295.486215 
L 265.287338 295.288737 
L 265.417226 293.466108 
L 265.677002 284.249787 
L 266.001721 263.140498 
L 266.521272 212.502709 
L 267.82015 77.021288 
L 268.209814 57.515713 
L 268.469589 53.569397 
L 268.534533 53.77165 
L 268.664421 55.603758 
L 268.924196 64.838234 
L 269.248916 85.967264 
L 269.768467 136.625473 
L 271.067345 272.079678 
L 271.457008 291.559527 
L 271.716784 295.486946 
L 271.781728 295.279918 
L 271.911616 293.438332 
L 272.171391 284.185704 
L 272.496111 263.036941 
L 273.015662 212.358333 
L 274.31454 76.931397 
L 274.704203 57.477281 
L 274.963979 53.568761 
L 275.028923 53.780564 
L 275.158811 55.631627 
L 275.418586 64.902403 
L 275.743306 86.07089 
L 276.262857 136.769879 
L 277.561735 272.169493 
L 277.951398 291.597866 
L 278.211174 295.487486 
L 278.276118 295.270909 
L 278.406006 293.410369 
L 278.665781 284.121448 
L 278.990501 262.933245 
L 279.510052 212.213896 
L 280.80893 76.841659 
L 281.198593 57.439035 
L 281.458369 53.568317 
L 281.523313 53.789668 
L 281.6532 55.659684 
L 281.912976 64.966746 
L 282.237696 86.174657 
L 282.757247 136.914345 
L 284.056125 272.259153 
L 284.445788 291.63602 
L 284.705564 295.487835 
L 284.770508 295.261709 
L 284.900395 293.382218 
L 285.160171 284.057019 
L 285.48489 262.829409 
L 286.004442 212.0694 
L 287.30332 76.752076 
L 287.692983 57.400973 
L 287.952759 53.568063 
L 288.017702 53.798964 
L 288.14759 55.687929 
L 288.407366 65.031261 
L 288.732085 86.278563 
L 289.251637 137.058871 
L 290.550514 272.348659 
L 290.940178 291.67399 
L 291.199953 295.487993 
L 291.264897 295.252318 
L 291.394785 293.353879 
L 291.654561 283.992417 
L 291.97928 262.725433 
L 292.498831 211.924845 
L 293.797709 76.662647 
L 294.187373 57.363096 
L 294.447148 53.568001 
L 294.512092 53.80845 
L 294.64198 55.716362 
L 294.901756 65.095949 
L 295.226475 86.382608 
L 295.746026 137.203456 
L 297.044904 272.43801 
L 297.434568 291.711774 
L 297.629399 295.255617 
L 297.694343 295.487959 
L 297.759287 295.242737 
L 297.889175 293.325353 
L 298.148951 283.927643 
L 298.47367 262.621318 
L 298.993221 211.780231 
L 300.292099 76.573373 
L 300.681763 57.325404 
L 300.876594 53.795698 
L 300.941538 53.56813 
L 301.006482 53.818126 
L 301.13637 55.744982 
L 301.396145 65.160811 
L 301.720865 86.486792 
L 302.240416 137.3481 
L 303.539294 272.527207 
L 303.928957 291.749373 
L 304.123789 295.264941 
L 304.188733 295.487735 
L 304.253677 295.232965 
L 304.383565 293.296638 
L 304.64334 283.862695 
L 304.96806 262.517064 
L 305.487611 211.635558 
L 306.786489 76.484254 
L 307.176152 57.287898 
L 307.370984 53.786469 
L 307.435928 53.56845 
L 307.500872 53.827994 
L 307.63076 55.77379 
L 307.890535 65.225845 
L 308.215255 86.591116 
L 308.734806 137.492802 
L 310.033684 272.616249 
L 310.423347 291.786787 
L 310.618179 295.274075 
L 310.683123 295.487319 
L 310.748067 295.223002 
L 310.877954 293.267736 
L 311.13773 283.797574 
L 311.527393 257.019492 
L 312.111889 196.761233 
L 313.215935 81.030431 
L 313.605598 59.342299 
L 313.865374 53.777431 
L 313.930318 53.568961 
L 313.995262 53.838052 
L 314.125149 55.802786 
L 314.384925 65.291052 
L 314.774588 92.092122 
L 315.359083 152.369494 
L 316.46313 268.07378 
L 316.852793 289.736886 
L 317.112569 295.283017 
L 317.177513 295.486713 
L 317.3074 294.462506 
L 317.502232 289.39156 
L 317.826952 272.048299 
L 318.281559 232.288056 
L 319.9701 64.815882 
L 320.29482 54.444278 
L 320.424707 53.569663 
L 320.554595 54.603396 
L 320.749427 59.688293 
L 321.074146 77.052694 
L 321.528754 116.834747 
L 323.217295 284.272109 
L 323.542015 294.620833 
L 323.671902 295.485915 
L 323.80179 294.442656 
L 323.996622 289.343812 
L 324.321341 271.958277 
L 324.775949 232.15443 
L 326.46449 64.751947 
L 326.789209 54.426105 
L 326.919097 53.570556 
L 327.048985 54.623341 
L 327.243817 59.736131 
L 327.568536 77.142793 
L 328.023144 116.968418 
L 329.711685 284.335957 
L 330.036404 294.638911 
L 330.166292 295.484926 
L 330.29618 294.422617 
L 330.491012 289.295882 
L 330.815731 271.868101 
L 331.270338 232.020713 
L 332.95888 64.688185 
L 333.283599 54.408123 
L 333.413487 53.571641 
L 333.543375 54.643475 
L 333.738207 59.784151 
L 334.062926 77.233046 
L 334.517533 117.10218 
L 336.206075 284.399632 
L 336.530794 294.656798 
L 336.660682 295.483746 
L 336.79057 294.402388 
L 336.985401 289.247772 
L 337.310121 271.77777 
L 337.764728 231.886906 
L 339.45327 64.624596 
L 339.777989 54.39033 
L 339.907877 53.572916 
L 340.037765 54.663798 
L 340.232596 59.832353 
L 340.557316 77.323453 
L 341.011923 117.236033 
L 342.700464 284.463134 
L 343.025184 294.674496 
L 343.155072 295.482376 
L 343.28496 294.38197 
L 343.479791 289.19948 
L 343.804511 271.687287 
L 344.259118 231.753008 
L 345.947659 64.561181 
L 346.272379 54.372728 
L 346.402267 53.574383 
L 346.532154 54.684311 
L 346.726986 59.880735 
L 347.051706 77.414014 
L 347.506313 117.369976 
L 349.194854 284.526462 
L 349.519574 294.692004 
L 349.649462 295.480814 
L 349.779349 294.361363 
L 349.974181 289.151007 
L 350.298901 271.59665 
L 350.753508 231.619019 
L 352.442049 64.49794 
L 352.766769 54.355315 
L 352.896656 53.57604 
L 353.026544 54.705013 
L 353.221376 59.929299 
L 353.546095 77.504728 
L 354.000703 117.50401 
L 355.689244 284.589616 
L 356.013964 294.709322 
L 356.143851 295.47906 
L 356.273739 294.340566 
L 356.468571 289.102353 
L 356.79329 271.505859 
L 357.247898 231.48494 
L 358.936439 64.434873 
L 359.261158 54.338092 
L 359.391046 53.577889 
L 359.520934 54.725904 
L 359.715766 59.978043 
L 360.040485 77.595595 
L 360.495092 117.638134 
L 362.183634 284.652597 
L 362.508353 294.72645 
L 362.638241 295.477116 
L 362.768129 294.319581 
L 362.962961 289.053518 
L 363.28768 271.414915 
L 363.742287 231.350772 
L 365.430829 64.37198 
L 365.755548 54.321058 
L 365.885436 53.579929 
L 366.015324 54.746984 
L 366.210155 60.026969 
L 366.534875 77.686615 
L 366.989482 117.772347 
L 368.678024 284.715403 
L 369.002743 294.743388 
L 369.132631 295.474981 
L 369.262519 294.298405 
L 369.45735 289.004502 
L 369.78207 271.323818 
L 370.236677 231.216513 
L 371.925218 64.30926 
L 372.249938 54.304215 
L 372.379826 53.582159 
L 372.509714 54.768254 
L 372.704545 60.076075 
L 373.029265 77.777788 
L 373.483872 117.906651 
L 375.172413 284.778035 
L 375.497133 294.760137 
L 375.627021 295.472655 
L 375.756908 294.277041 
L 375.95174 288.955305 
L 376.27646 271.232569 
L 376.731067 231.082165 
L 378.419608 64.246715 
L 378.744328 54.287561 
L 378.874216 53.584581 
L 379.004103 54.789713 
L 379.198935 60.125362 
L 379.523655 77.869115 
L 379.978262 118.041043 
L 381.666803 284.840493 
L 381.991523 294.776695 
L 382.12141 295.470137 
L 382.251298 294.255488 
L 382.44613 288.905927 
L 382.770849 271.141166 
L 383.225457 230.947728 
L 384.913998 64.184344 
L 385.238718 54.271098 
L 385.368605 53.587194 
L 385.498493 54.811361 
L 385.693325 60.17483 
L 386.018044 77.960593 
L 386.472652 118.175525 
L 388.161193 284.902777 
L 388.485912 294.793064 
L 388.6158 295.467429 
L 388.745688 294.233745 
L 388.94052 288.856369 
L 389.265239 271.049611 
L 389.719847 230.813201 
L 391.408388 64.122147 
L 391.733107 54.254824 
L 391.862995 53.589998 
L 391.992883 54.833198 
L 392.187715 60.224479 
L 392.512434 78.052225 
L 392.967041 118.310096 
L 394.655583 284.964887 
L 394.980302 294.809242 
L 395.11019 295.464529 
L 395.240078 294.211813 
L 395.43491 288.80663 
L 395.759629 270.957903 
L 396.214236 230.678586 
L 397.902778 64.060125 
L 398.227497 54.238741 
L 398.357385 53.592993 
L 398.487273 54.855225 
L 398.487273 54.855225 
" clip-path="url(#p59c37fb9e4)" style="fill: none; stroke: #d62728; stroke-width: 1.5; stroke-linecap: square"/>
   </g>
   <g id="patch_3">
    <path d="M 57.6 307.584 
L 57.6 41.472 
" style="fill: none; stroke: #000000; stroke-width: 0.8; stroke-linejoin: miter; stroke-linecap: square"/>
   </g>
   <g id="patch_4">
    <path d="M 414.72 307.584 
L 414.72 41.472 
" style="fill: none; stroke: #000000; stroke-width: 0.8; stroke-linejoin: miter; stroke-linecap: square"/>
   </g>
   <g id="patch_5">
    <path d="M 57.6 307.584 
L 414.72 307.584 
" style="fill: none; stroke: #000000; stroke-width: 0.8; stroke-linejoin: miter; stroke-linecap: square"/>
   </g>
   <g id="patch_6">
    <path d="M 57.6 41.472 
L 414.72 41.472 
" style="fill: none; stroke: #000000; stroke-width: 0.8; stroke-linejoin: miter; stroke-linecap: square"/>
   </g>
  </g>
 </g>
 <defs>
  <clipPath id="p59c37fb9e4">
   <rect x="57.6" y="41.472" width="357.12" height="266.112"/>
  </clipPath>
 </defs>
</svg>
