<?xml version="1.0" encoding="utf-8" standalone="no"?>
<!DOCTYPE svg PUBLIC "-//W3C//DTD SVG 1.1//EN"
  "http://www.w3.org/Graphics/SVG/1.1/DTD/svg11.dtd">
<svg xmlns:xlink="http://www.w3.org/1999/xlink" width="460.8pt" height="345.6pt" viewBox="0 0 460.8 345.6" xmlns="http://www.w3.org/2000/svg" version="1.1">
 <metadata>
  <rdf:RDF xmlns:dc="http://purl.org/dc/elements/1.1/" xmlns:cc="http://creativecommons.org/ns#" xmlns:rdf="http://www.w3.org/1999/02/22-rdf-syntax-ns#">
   <cc:Work>
    <dc:type rdf:resource="http://purl.org/dc/dcmitype/StillImage"/>
    <dc:date>2024-10-13T13:05:43.197120</dc:date>
    <dc:format>image/svg+xml</dc:format>
    <dc:creator>
     <cc:Agent>
      <dc:title>Matplotlib v3.9.2, https://matplotlib.org/</dc:title>
     </cc:Agent>
    </dc:creator>
   </cc:Work>
  </rdf:RDF>
 </metadata>
 <defs>
  <style type="text/css">*{stroke-linejoin: round; stroke-linecap: butt}</style>
 </defs>
 <g id="figure_1">
  <g id="patch_1">
   <path d="M 0 345.6 
L 460.8 345.6 
L 460.8 0 
L 0 0 
z
" style="fill: #ffffff"/>
  </g>
  <g id="axes_1">
   <g id="patch_2">
    <path d="M 57.6 307.584 
L 414.72 307.584 
L 414.72 41.472 
L 57.6 41.472 
z
" style="fill: #ffffff"/>
   </g>
   <g id="matplotlib.axis_1">
    <g id="xtick_1">
     <g id="line2d_1">
      <defs>
       <path id="m77623ac78a" d="M 0 0 
L 0 3.5 
" style="stroke: #000000; stroke-width: 0.8"/>
      </defs>
      <g>
       <use xlink:href="#m77623ac78a" x="73.832727" y="307.584" style="stroke: #000000; stroke-width: 0.8"/>
      </g>
     </g>
     <g id="text_1">
      <!-- 0.0 -->
      <g transform="translate(65.881165 322.182437) scale(0.1 -0.1)">
       <defs>
        <path id="DejaVuSans-30" d="M 2034 4250 
Q 1547 4250 1301 3770 
Q 1056 3291 1056 2328 
Q 1056 1369 1301 889 
Q 1547 409 2034 409 
Q 2525 409 2770 889 
Q 3016 1369 3016 2328 
Q 3016 3291 2770 3770 
Q 2525 4250 2034 4250 
z
M 2034 4750 
Q 2819 4750 3233 4129 
Q 3647 3509 3647 2328 
Q 3647 1150 3233 529 
Q 2819 -91 2034 -91 
Q 1250 -91 836 529 
Q 422 1150 422 2328 
Q 422 3509 836 4129 
Q 1250 4750 2034 4750 
z
" transform="scale(0.015625)"/>
        <path id="DejaVuSans-2e" d="M 684 794 
L 1344 794 
L 1344 0 
L 684 0 
L 684 794 
z
" transform="scale(0.015625)"/>
       </defs>
       <use xlink:href="#DejaVuSans-30"/>
       <use xlink:href="#DejaVuSans-2e" x="63.623047"/>
       <use xlink:href="#DejaVuSans-30" x="95.410156"/>
      </g>
     </g>
    </g>
    <g id="xtick_2">
     <g id="line2d_2">
      <g>
       <use xlink:href="#m77623ac78a" x="138.763636" y="307.584" style="stroke: #000000; stroke-width: 0.8"/>
      </g>
     </g>
     <g id="text_2">
      <!-- 0.2 -->
      <g transform="translate(130.812074 322.182437) scale(0.1 -0.1)">
       <defs>
        <path id="DejaVuSans-32" d="M 1228 531 
L 3431 531 
L 3431 0 
L 469 0 
L 469 531 
Q 828 903 1448 1529 
Q 2069 2156 2228 2338 
Q 2531 2678 2651 2914 
Q 2772 3150 2772 3378 
Q 2772 3750 2511 3984 
Q 2250 4219 1831 4219 
Q 1534 4219 1204 4116 
Q 875 4013 500 3803 
L 500 4441 
Q 881 4594 1212 4672 
Q 1544 4750 1819 4750 
Q 2544 4750 2975 4387 
Q 3406 4025 3406 3419 
Q 3406 3131 3298 2873 
Q 3191 2616 2906 2266 
Q 2828 2175 2409 1742 
Q 1991 1309 1228 531 
z
" transform="scale(0.015625)"/>
       </defs>
       <use xlink:href="#DejaVuSans-30"/>
       <use xlink:href="#DejaVuSans-2e" x="63.623047"/>
       <use xlink:href="#DejaVuSans-32" x="95.410156"/>
      </g>
     </g>
    </g>
    <g id="xtick_3">
     <g id="line2d_3">
      <g>
       <use xlink:href="#m77623ac78a" x="203.694545" y="307.584" style="stroke: #000000; stroke-width: 0.8"/>
      </g>
     </g>
     <g id="text_3">
      <!-- 0.4 -->
      <g transform="translate(195.742983 322.182437) scale(0.1 -0.1)">
       <defs>
        <path id="DejaVuSans-34" d="M 2419 4116 
L 825 1625 
L 2419 1625 
L 2419 4116 
z
M 2253 4666 
L 3047 4666 
L 3047 1625 
L 3713 1625 
L 3713 1100 
L 3047 1100 
L 3047 0 
L 2419 0 
L 2419 1100 
L 313 1100 
L 313 1709 
L 2253 4666 
z
" transform="scale(0.015625)"/>
       </defs>
       <use xlink:href="#DejaVuSans-30"/>
       <use xlink:href="#DejaVuSans-2e" x="63.623047"/>
       <use xlink:href="#DejaVuSans-34" x="95.410156"/>
      </g>
     </g>
    </g>
    <g id="xtick_4">
     <g id="line2d_4">
      <g>
       <use xlink:href="#m77623ac78a" x="268.625455" y="307.584" style="stroke: #000000; stroke-width: 0.8"/>
      </g>
     </g>
     <g id="text_4">
      <!-- 0.6 -->
      <g transform="translate(260.673892 322.182437) scale(0.1 -0.1)">
       <defs>
        <path id="DejaVuSans-36" d="M 2113 2584 
Q 1688 2584 1439 2293 
Q 1191 2003 1191 1497 
Q 1191 994 1439 701 
Q 1688 409 2113 409 
Q 2538 409 2786 701 
Q 3034 994 3034 1497 
Q 3034 2003 2786 2293 
Q 2538 2584 2113 2584 
z
M 3366 4563 
L 3366 3988 
Q 3128 4100 2886 4159 
Q 2644 4219 2406 4219 
Q 1781 4219 1451 3797 
Q 1122 3375 1075 2522 
Q 1259 2794 1537 2939 
Q 1816 3084 2150 3084 
Q 2853 3084 3261 2657 
Q 3669 2231 3669 1497 
Q 3669 778 3244 343 
Q 2819 -91 2113 -91 
Q 1303 -91 875 529 
Q 447 1150 447 2328 
Q 447 3434 972 4092 
Q 1497 4750 2381 4750 
Q 2619 4750 2861 4703 
Q 3103 4656 3366 4563 
z
" transform="scale(0.015625)"/>
       </defs>
       <use xlink:href="#DejaVuSans-30"/>
       <use xlink:href="#DejaVuSans-2e" x="63.623047"/>
       <use xlink:href="#DejaVuSans-36" x="95.410156"/>
      </g>
     </g>
    </g>
    <g id="xtick_5">
     <g id="line2d_5">
      <g>
       <use xlink:href="#m77623ac78a" x="333.556364" y="307.584" style="stroke: #000000; stroke-width: 0.8"/>
      </g>
     </g>
     <g id="text_5">
      <!-- 0.8 -->
      <g transform="translate(325.604801 322.182437) scale(0.1 -0.1)">
       <defs>
        <path id="DejaVuSans-38" d="M 2034 2216 
Q 1584 2216 1326 1975 
Q 1069 1734 1069 1313 
Q 1069 891 1326 650 
Q 1584 409 2034 409 
Q 2484 409 2743 651 
Q 3003 894 3003 1313 
Q 3003 1734 2745 1975 
Q 2488 2216 2034 2216 
z
M 1403 2484 
Q 997 2584 770 2862 
Q 544 3141 544 3541 
Q 544 4100 942 4425 
Q 1341 4750 2034 4750 
Q 2731 4750 3128 4425 
Q 3525 4100 3525 3541 
Q 3525 3141 3298 2862 
Q 3072 2584 2669 2484 
Q 3125 2378 3379 2068 
Q 3634 1759 3634 1313 
Q 3634 634 3220 271 
Q 2806 -91 2034 -91 
Q 1263 -91 848 271 
Q 434 634 434 1313 
Q 434 1759 690 2068 
Q 947 2378 1403 2484 
z
M 1172 3481 
Q 1172 3119 1398 2916 
Q 1625 2713 2034 2713 
Q 2441 2713 2670 2916 
Q 2900 3119 2900 3481 
Q 2900 3844 2670 4047 
Q 2441 4250 2034 4250 
Q 1625 4250 1398 4047 
Q 1172 3844 1172 3481 
z
" transform="scale(0.015625)"/>
       </defs>
       <use xlink:href="#DejaVuSans-30"/>
       <use xlink:href="#DejaVuSans-2e" x="63.623047"/>
       <use xlink:href="#DejaVuSans-38" x="95.410156"/>
      </g>
     </g>
    </g>
    <g id="xtick_6">
     <g id="line2d_6">
      <g>
       <use xlink:href="#m77623ac78a" x="398.487273" y="307.584" style="stroke: #000000; stroke-width: 0.8"/>
      </g>
     </g>
     <g id="text_6">
      <!-- 1.0 -->
      <g transform="translate(390.53571 322.182437) scale(0.1 -0.1)">
       <defs>
        <path id="DejaVuSans-31" d="M 794 531 
L 1825 531 
L 1825 4091 
L 703 3866 
L 703 4441 
L 1819 4666 
L 2450 4666 
L 2450 531 
L 3481 531 
L 3481 0 
L 794 0 
L 794 531 
z
" transform="scale(0.015625)"/>
       </defs>
       <use xlink:href="#DejaVuSans-31"/>
       <use xlink:href="#DejaVuSans-2e" x="63.623047"/>
       <use xlink:href="#DejaVuSans-30" x="95.410156"/>
      </g>
     </g>
    </g>
   </g>
   <g id="matplotlib.axis_2">
    <g id="ytick_1">
     <g id="line2d_7">
      <defs>
       <path id="m5625a43bc4" d="M 0 0 
L -3.5 0 
" style="stroke: #000000; stroke-width: 0.8"/>
      </defs>
      <g>
       <use xlink:href="#m5625a43bc4" x="57.6" y="295.488" style="stroke: #000000; stroke-width: 0.8"/>
      </g>
     </g>
     <g id="text_7">
      <!-- −2.0 -->
      <g transform="translate(26.317187 299.287219) scale(0.1 -0.1)">
       <defs>
        <path id="DejaVuSans-2212" d="M 678 2272 
L 4684 2272 
L 4684 1741 
L 678 1741 
L 678 2272 
z
" transform="scale(0.015625)"/>
       </defs>
       <use xlink:href="#DejaVuSans-2212"/>
       <use xlink:href="#DejaVuSans-32" x="83.789062"/>
       <use xlink:href="#DejaVuSans-2e" x="147.412109"/>
       <use xlink:href="#DejaVuSans-30" x="179.199219"/>
      </g>
     </g>
    </g>
    <g id="ytick_2">
     <g id="line2d_8">
      <g>
       <use xlink:href="#m5625a43bc4" x="57.6" y="265.248" style="stroke: #000000; stroke-width: 0.8"/>
      </g>
     </g>
     <g id="text_8">
      <!-- −1.5 -->
      <g transform="translate(26.317187 269.047219) scale(0.1 -0.1)">
       <defs>
        <path id="DejaVuSans-35" d="M 691 4666 
L 3169 4666 
L 3169 4134 
L 1269 4134 
L 1269 2991 
Q 1406 3038 1543 3061 
Q 1681 3084 1819 3084 
Q 2600 3084 3056 2656 
Q 3513 2228 3513 1497 
Q 3513 744 3044 326 
Q 2575 -91 1722 -91 
Q 1428 -91 1123 -41 
Q 819 9 494 109 
L 494 744 
Q 775 591 1075 516 
Q 1375 441 1709 441 
Q 2250 441 2565 725 
Q 2881 1009 2881 1497 
Q 2881 1984 2565 2268 
Q 2250 2553 1709 2553 
Q 1456 2553 1204 2497 
Q 953 2441 691 2322 
L 691 4666 
z
" transform="scale(0.015625)"/>
       </defs>
       <use xlink:href="#DejaVuSans-2212"/>
       <use xlink:href="#DejaVuSans-31" x="83.789062"/>
       <use xlink:href="#DejaVuSans-2e" x="147.412109"/>
       <use xlink:href="#DejaVuSans-35" x="179.199219"/>
      </g>
     </g>
    </g>
    <g id="ytick_3">
     <g id="line2d_9">
      <g>
       <use xlink:href="#m5625a43bc4" x="57.6" y="235.008" style="stroke: #000000; stroke-width: 0.8"/>
      </g>
     </g>
     <g id="text_9">
      <!-- −1.0 -->
      <g transform="translate(26.317187 238.807219) scale(0.1 -0.1)">
       <use xlink:href="#DejaVuSans-2212"/>
       <use xlink:href="#DejaVuSans-31" x="83.789062"/>
       <use xlink:href="#DejaVuSans-2e" x="147.412109"/>
       <use xlink:href="#DejaVuSans-30" x="179.199219"/>
      </g>
     </g>
    </g>
    <g id="ytick_4">
     <g id="line2d_10">
      <g>
       <use xlink:href="#m5625a43bc4" x="57.6" y="204.768" style="stroke: #000000; stroke-width: 0.8"/>
      </g>
     </g>
     <g id="text_10">
      <!-- −0.5 -->
      <g transform="translate(26.317187 208.567219) scale(0.1 -0.1)">
       <use xlink:href="#DejaVuSans-2212"/>
       <use xlink:href="#DejaVuSans-30" x="83.789062"/>
       <use xlink:href="#DejaVuSans-2e" x="147.412109"/>
       <use xlink:href="#DejaVuSans-35" x="179.199219"/>
      </g>
     </g>
    </g>
    <g id="ytick_5">
     <g id="line2d_11">
      <g>
       <use xlink:href="#m5625a43bc4" x="57.6" y="174.528" style="stroke: #000000; stroke-width: 0.8"/>
      </g>
     </g>
     <g id="text_11">
      <!-- 0.0 -->
      <g transform="translate(34.696875 178.327219) scale(0.1 -0.1)">
       <use xlink:href="#DejaVuSans-30"/>
       <use xlink:href="#DejaVuSans-2e" x="63.623047"/>
       <use xlink:href="#DejaVuSans-30" x="95.410156"/>
      </g>
     </g>
    </g>
    <g id="ytick_6">
     <g id="line2d_12">
      <g>
       <use xlink:href="#m5625a43bc4" x="57.6" y="144.288" style="stroke: #000000; stroke-width: 0.8"/>
      </g>
     </g>
     <g id="text_12">
      <!-- 0.5 -->
      <g transform="translate(34.696875 148.087219) scale(0.1 -0.1)">
       <use xlink:href="#DejaVuSans-30"/>
       <use xlink:href="#DejaVuSans-2e" x="63.623047"/>
       <use xlink:href="#DejaVuSans-35" x="95.410156"/>
      </g>
     </g>
    </g>
    <g id="ytick_7">
     <g id="line2d_13">
      <g>
       <use xlink:href="#m5625a43bc4" x="57.6" y="114.048" style="stroke: #000000; stroke-width: 0.8"/>
      </g>
     </g>
     <g id="text_13">
      <!-- 1.0 -->
      <g transform="translate(34.696875 117.847219) scale(0.1 -0.1)">
       <use xlink:href="#DejaVuSans-31"/>
       <use xlink:href="#DejaVuSans-2e" x="63.623047"/>
       <use xlink:href="#DejaVuSans-30" x="95.410156"/>
      </g>
     </g>
    </g>
    <g id="ytick_8">
     <g id="line2d_14">
      <g>
       <use xlink:href="#m5625a43bc4" x="57.6" y="83.808" style="stroke: #000000; stroke-width: 0.8"/>
      </g>
     </g>
     <g id="text_14">
      <!-- 1.5 -->
      <g transform="translate(34.696875 87.607219) scale(0.1 -0.1)">
       <use xlink:href="#DejaVuSans-31"/>
       <use xlink:href="#DejaVuSans-2e" x="63.623047"/>
       <use xlink:href="#DejaVuSans-35" x="95.410156"/>
      </g>
     </g>
    </g>
    <g id="ytick_9">
     <g id="line2d_15">
      <g>
       <use xlink:href="#m5625a43bc4" x="57.6" y="53.568" style="stroke: #000000; stroke-width: 0.8"/>
      </g>
     </g>
     <g id="text_15">
      <!-- 2.0 -->
      <g transform="translate(34.696875 57.367219) scale(0.1 -0.1)">
       <use xlink:href="#DejaVuSans-32"/>
       <use xlink:href="#DejaVuSans-2e" x="63.623047"/>
       <use xlink:href="#DejaVuSans-30" x="95.410156"/>
      </g>
     </g>
    </g>
   </g>
   <g id="line2d_16">
    <path d="M 73.832727 53.568 
L 74.943068 53.679695 
L 76.059902 54.017188 
L 77.215695 54.603532 
L 78.423434 55.472604 
L 79.696106 56.66984 
L 81.053189 58.261423 
L 82.501177 60.313174 
L 84.053057 62.910156 
L 85.715321 66.13818 
L 87.500957 70.105104 
L 89.42295 74.931574 
L 91.500781 80.768281 
L 93.753929 87.781185 
L 96.208366 96.169032 
L 98.916039 106.238918 
L 101.948373 118.40026 
L 105.467699 133.471249 
L 109.876596 153.390466 
L 125.382407 224.350733 
L 128.830307 238.574102 
L 131.817189 249.98352 
L 134.492396 259.35137 
L 136.92086 267.070838 
L 139.148035 273.433691 
L 141.206386 278.662038 
L 143.1089 282.907697 
L 144.875056 286.323684 
L 146.517841 289.032534 
L 148.043747 291.134261 
L 149.465763 292.726952 
L 150.79038 293.888574 
L 152.037078 294.69534 
L 153.218844 295.201816 
L 154.355158 295.450747 
L 155.465499 295.468058 
L 156.57584 295.262015 
L 157.70566 294.823487 
L 158.880933 294.123241 
L 160.114645 293.121994 
L 161.419782 291.768517 
L 162.815825 289.989753 
L 164.302772 287.724608 
L 165.900105 284.873895 
L 167.614315 281.345829 
L 169.45839 277.0261 
L 171.445315 271.788226 
L 173.594571 265.476076 
L 175.925637 257.920331 
L 178.477473 248.873509 
L 181.308518 237.992807 
L 184.522662 224.724429 
L 188.334182 208.001634 
L 193.502786 184.234527 
L 203.924405 136.127269 
L 207.833324 119.277352 
L 211.092921 106.1762 
L 213.962925 95.534017 
L 216.547227 86.781005 
L 218.904266 79.560596 
L 221.066508 73.630268 
L 223.06642 68.773102 
L 224.923481 64.829472 
L 226.644185 61.680693 
L 228.241517 59.205284 
L 229.728465 57.29684 
L 231.118014 55.864217 
L 232.416658 54.835499 
L 233.637384 54.144164 
L 234.79967 53.73564 
L 235.922997 53.57309 
L 237.033338 53.637105 
L 238.150172 53.92672 
L 239.292979 54.456324 
L 240.487732 55.261142 
L 241.747416 56.385846 
L 243.08502 57.887453 
L 244.513529 59.83618 
L 246.039435 62.304833 
L 247.675727 65.386674 
L 249.43539 69.188899 
L 251.33141 73.83194 
L 253.376775 79.44773 
L 255.590963 86.197275 
L 257.999948 94.275338 
L 260.649182 103.961177 
L 263.603598 115.632295 
L 266.999552 129.988207 
L 271.155213 148.574961 
L 277.810765 179.531365 
L 284.576701 210.651113 
L 288.596004 228.102067 
L 291.91404 241.550751 
L 294.81651 252.416972 
L 297.426785 261.354228 
L 299.803303 268.723156 
L 301.991519 274.805221 
L 304.01091 279.781068 
L 305.880958 283.81634 
L 307.614648 287.046508 
L 309.224967 289.593369 
L 310.724901 291.563831 
L 312.120943 293.043575 
L 313.426081 294.114118 
L 314.653299 294.842444 
L 315.822079 295.283756 
L 316.951899 295.475479 
L 318.06224 295.438571 
L 319.172581 295.178365 
L 320.308895 294.68138 
L 321.497154 293.913117 
L 322.743852 292.835667 
L 324.068469 291.389143 
L 325.483992 289.503982 
L 326.996912 287.107769 
L 328.620217 284.107745 
L 330.366894 280.39706 
L 332.243434 275.871987 
L 334.262826 270.406167 
L 336.451041 263.823582 
L 338.834053 255.928482 
L 341.444328 246.488846 
L 344.353291 235.108897 
L 347.67782 221.17263 
L 351.697124 203.316371 
L 357.618941 175.869424 
L 365.618589 138.949296 
L 369.663866 121.356337 
L 372.994888 107.828265 
L 375.910344 96.889354 
L 378.527112 87.908406 
L 380.910124 80.499956 
L 383.098339 74.399783 
L 385.124224 69.391238 
L 387.000765 65.327764 
L 388.740948 62.073767 
L 390.35776 59.507243 
L 391.857694 57.528736 
L 393.26023 56.035281 
L 394.571861 54.954475 
L 395.805573 54.219057 
L 396.974352 53.775346 
L 398.104173 53.581299 
L 398.487273 53.568 
L 398.487273 53.568 
" clip-path="url(#pa20140a998)" style="fill: none; stroke: #1f77b4; stroke-width: 1.5; stroke-linecap: square"/>
   </g>
   <g id="line2d_17">
    <path d="M 73.832727 53.568 
L 74.943068 53.679695 
L 76.059902 54.017188 
L 77.215695 54.603532 
L 78.423434 55.472604 
L 79.696106 56.66984 
L 81.053189 58.261423 
L 82.501177 60.313174 
L 84.053057 62.910156 
L 85.715321 66.13818 
L 87.500957 70.105104 
L 89.42295 74.931574 
L 91.500781 80.768281 
L 93.753929 87.781185 
L 96.208366 96.169032 
L 98.916039 106.238918 
L 101.948373 118.40026 
L 105.467699 133.471249 
L 109.876596 153.390466 
L 125.382407 224.350733 
L 128.830307 238.574102 
L 131.817189 249.98352 
L 134.492396 259.35137 
L 136.92086 267.070838 
L 139.148035 273.433691 
L 141.206386 278.662038 
L 143.1089 282.907697 
L 144.875056 286.323684 
L 146.517841 289.032534 
L 148.043747 291.134261 
L 149.465763 292.726952 
L 150.79038 293.888574 
L 152.037078 294.69534 
L 153.218844 295.201816 
L 154.355158 295.450747 
L 155.465499 295.468058 
L 156.57584 295.262015 
L 157.70566 294.823487 
L 158.880933 294.123241 
L 160.114645 293.121994 
L 161.419782 291.768517 
L 162.815825 289.989753 
L 164.302772 287.724608 
L 165.900105 284.873895 
L 167.614315 281.345829 
L 169.45839 277.0261 
L 171.445315 271.788226 
L 173.594571 265.476076 
L 175.925637 257.920331 
L 178.477473 248.873509 
L 181.308518 237.992807 
L 184.522662 224.724429 
L 188.334182 208.001634 
L 193.502786 184.234527 
L 203.924405 136.127269 
L 207.833324 119.277352 
L 211.092921 106.1762 
L 213.962925 95.534017 
L 216.547227 86.781005 
L 218.904266 79.560596 
L 221.066508 73.630268 
L 223.06642 68.773102 
L 224.923481 64.829472 
L 226.644185 61.680693 
L 228.241517 59.205284 
L 229.728465 57.29684 
L 231.118014 55.864217 
L 232.416658 54.835499 
L 233.637384 54.144164 
L 234.79967 53.73564 
L 235.922997 53.57309 
L 237.033338 53.637105 
L 238.150172 53.92672 
L 239.292979 54.456324 
L 240.487732 55.261142 
L 241.747416 56.385846 
L 243.08502 57.887453 
L 244.513529 59.83618 
L 246.039435 62.304833 
L 247.675727 65.386674 
L 249.43539 69.188899 
L 251.33141 73.83194 
L 253.376775 79.44773 
L 255.590963 86.197275 
L 257.999948 94.275338 
L 260.649182 103.961177 
L 263.603598 115.632295 
L 266.999552 129.988207 
L 271.155213 148.574961 
L 277.810765 179.531365 
L 284.576701 210.651113 
L 288.596004 228.102067 
L 291.91404 241.550751 
L 294.81651 252.416972 
L 297.426785 261.354228 
L 299.803303 268.723156 
L 301.991519 274.805221 
L 304.01091 279.781068 
L 305.880958 283.81634 
L 307.614648 287.046508 
L 309.224967 289.593369 
L 310.724901 291.563831 
L 312.120943 293.043575 
L 313.426081 294.114118 
L 314.653299 294.842444 
L 315.822079 295.283756 
L 316.951899 295.475479 
L 318.06224 295.438571 
L 319.172581 295.178365 
L 320.308895 294.68138 
L 321.497154 293.913117 
L 322.743852 292.835667 
L 324.068469 291.389143 
L 325.483992 289.503982 
L 326.996912 287.107769 
L 328.620217 284.107745 
L 330.366894 280.39706 
L 332.243434 275.871987 
L 334.262826 270.406167 
L 336.451041 263.823582 
L 338.834053 255.928482 
L 341.444328 246.488846 
L 344.353291 235.108897 
L 347.67782 221.17263 
L 351.697124 203.316371 
L 357.618941 175.869424 
L 365.618589 138.949296 
L 369.663866 121.356337 
L 372.994888 107.828265 
L 375.910344 96.889354 
L 378.527112 87.908406 
L 380.910124 80.499956 
L 383.098339 74.399783 
L 385.124224 69.391238 
L 387.000765 65.327764 
L 388.740948 62.073767 
L 390.35776 59.507243 
L 391.857694 57.528736 
L 393.26023 56.035281 
L 394.571861 54.954475 
L 395.805573 54.219057 
L 396.974352 53.775346 
L 398.104173 53.581299 
L 398.487273 53.568 
L 398.487273 53.568 
" clip-path="url(#pa20140a998)" style="fill: none; stroke-dasharray: 5.55,2.4; stroke-dashoffset: 0; stroke: #ff7f0e; stroke-width: 1.5"/>
   </g>
   <g id="patch_3">
    <path d="M 57.6 307.584 
L 57.6 41.472 
" style="fill: none; stroke: #000000; stroke-width: 0.8; stroke-linejoin: miter; stroke-linecap: square"/>
   </g>
   <g id="patch_4">
    <path d="M 414.72 307.584 
L 414.72 41.472 
" style="fill: none; stroke: #000000; stroke-width: 0.8; stroke-linejoin: miter; stroke-linecap: square"/>
   </g>
   <g id="patch_5">
    <path d="M 57.6 307.584 
L 414.72 307.584 
" style="fill: none; stroke: #000000; stroke-width: 0.8; stroke-linejoin: miter; stroke-linecap: square"/>
   </g>
   <g id="patch_6">
    <path d="M 57.6 41.472 
L 414.72 41.472 
" style="fill: none; stroke: #000000; stroke-width: 0.8; stroke-linejoin: miter; stroke-linecap: square"/>
   </g>
  </g>
 </g>
 <defs>
  <clipPath id="pa20140a998">
   <rect x="57.6" y="41.472" width="357.12" height="266.112"/>
  </clipPath>
 </defs>
</svg>
