<?xml version="1.0" encoding="utf-8" standalone="no"?>
<!DOCTYPE svg PUBLIC "-//W3C//DTD SVG 1.1//EN"
  "http://www.w3.org/Graphics/SVG/1.1/DTD/svg11.dtd">
<svg xmlns:xlink="http://www.w3.org/1999/xlink" width="460.8pt" height="345.6pt" viewBox="0 0 460.8 345.6" xmlns="http://www.w3.org/2000/svg" version="1.1">
 <metadata>
  <rdf:RDF xmlns:dc="http://purl.org/dc/elements/1.1/" xmlns:cc="http://creativecommons.org/ns#" xmlns:rdf="http://www.w3.org/1999/02/22-rdf-syntax-ns#">
   <cc:Work>
    <dc:type rdf:resource="http://purl.org/dc/dcmitype/StillImage"/>
    <dc:date>2024-10-13T13:13:39.514700</dc:date>
    <dc:format>image/svg+xml</dc:format>
    <dc:creator>
     <cc:Agent>
      <dc:title>Matplotlib v3.9.2, https://matplotlib.org/</dc:title>
     </cc:Agent>
    </dc:creator>
   </cc:Work>
  </rdf:RDF>
 </metadata>
 <defs>
  <style type="text/css">*{stroke-linejoin: round; stroke-linecap: butt}</style>
 </defs>
 <g id="figure_1">
  <g id="patch_1">
   <path d="M 0 345.6 
L 460.8 345.6 
L 460.8 0 
L 0 0 
z
" style="fill: #ffffff"/>
  </g>
  <g id="axes_1">
   <g id="patch_2">
    <path d="M 57.6 119.740235 
L 414.72 119.740235 
L 414.72 41.472 
L 57.6 41.472 
z
" style="fill: #ffffff"/>
   </g>
   <g id="matplotlib.axis_1">
    <g id="xtick_1">
     <g id="line2d_1">
      <defs>
       <path id="mfc334c7c24" d="M 0 0 
L 0 3.5 
" style="stroke: #000000; stroke-width: 0.8"/>
      </defs>
      <g>
       <use xlink:href="#mfc334c7c24" x="73.832727" y="119.740235" style="stroke: #000000; stroke-width: 0.8"/>
      </g>
     </g>
     <g id="text_1">
      <!-- 0.0 -->
      <g transform="translate(65.881165 134.338673) scale(0.1 -0.1)">
       <defs>
        <path id="DejaVuSans-30" d="M 2034 4250 
Q 1547 4250 1301 3770 
Q 1056 3291 1056 2328 
Q 1056 1369 1301 889 
Q 1547 409 2034 409 
Q 2525 409 2770 889 
Q 3016 1369 3016 2328 
Q 3016 3291 2770 3770 
Q 2525 4250 2034 4250 
z
M 2034 4750 
Q 2819 4750 3233 4129 
Q 3647 3509 3647 2328 
Q 3647 1150 3233 529 
Q 2819 -91 2034 -91 
Q 1250 -91 836 529 
Q 422 1150 422 2328 
Q 422 3509 836 4129 
Q 1250 4750 2034 4750 
z
" transform="scale(0.015625)"/>
        <path id="DejaVuSans-2e" d="M 684 794 
L 1344 794 
L 1344 0 
L 684 0 
L 684 794 
z
" transform="scale(0.015625)"/>
       </defs>
       <use xlink:href="#DejaVuSans-30"/>
       <use xlink:href="#DejaVuSans-2e" x="63.623047"/>
       <use xlink:href="#DejaVuSans-30" x="95.410156"/>
      </g>
     </g>
    </g>
    <g id="xtick_2">
     <g id="line2d_2">
      <g>
       <use xlink:href="#mfc334c7c24" x="138.763636" y="119.740235" style="stroke: #000000; stroke-width: 0.8"/>
      </g>
     </g>
     <g id="text_2">
      <!-- 0.2 -->
      <g transform="translate(130.812074 134.338673) scale(0.1 -0.1)">
       <defs>
        <path id="DejaVuSans-32" d="M 1228 531 
L 3431 531 
L 3431 0 
L 469 0 
L 469 531 
Q 828 903 1448 1529 
Q 2069 2156 2228 2338 
Q 2531 2678 2651 2914 
Q 2772 3150 2772 3378 
Q 2772 3750 2511 3984 
Q 2250 4219 1831 4219 
Q 1534 4219 1204 4116 
Q 875 4013 500 3803 
L 500 4441 
Q 881 4594 1212 4672 
Q 1544 4750 1819 4750 
Q 2544 4750 2975 4387 
Q 3406 4025 3406 3419 
Q 3406 3131 3298 2873 
Q 3191 2616 2906 2266 
Q 2828 2175 2409 1742 
Q 1991 1309 1228 531 
z
" transform="scale(0.015625)"/>
       </defs>
       <use xlink:href="#DejaVuSans-30"/>
       <use xlink:href="#DejaVuSans-2e" x="63.623047"/>
       <use xlink:href="#DejaVuSans-32" x="95.410156"/>
      </g>
     </g>
    </g>
    <g id="xtick_3">
     <g id="line2d_3">
      <g>
       <use xlink:href="#mfc334c7c24" x="203.694545" y="119.740235" style="stroke: #000000; stroke-width: 0.8"/>
      </g>
     </g>
     <g id="text_3">
      <!-- 0.4 -->
      <g transform="translate(195.742983 134.338673) scale(0.1 -0.1)">
       <defs>
        <path id="DejaVuSans-34" d="M 2419 4116 
L 825 1625 
L 2419 1625 
L 2419 4116 
z
M 2253 4666 
L 3047 4666 
L 3047 1625 
L 3713 1625 
L 3713 1100 
L 3047 1100 
L 3047 0 
L 2419 0 
L 2419 1100 
L 313 1100 
L 313 1709 
L 2253 4666 
z
" transform="scale(0.015625)"/>
       </defs>
       <use xlink:href="#DejaVuSans-30"/>
       <use xlink:href="#DejaVuSans-2e" x="63.623047"/>
       <use xlink:href="#DejaVuSans-34" x="95.410156"/>
      </g>
     </g>
    </g>
    <g id="xtick_4">
     <g id="line2d_4">
      <g>
       <use xlink:href="#mfc334c7c24" x="268.625455" y="119.740235" style="stroke: #000000; stroke-width: 0.8"/>
      </g>
     </g>
     <g id="text_4">
      <!-- 0.6 -->
      <g transform="translate(260.673892 134.338673) scale(0.1 -0.1)">
       <defs>
        <path id="DejaVuSans-36" d="M 2113 2584 
Q 1688 2584 1439 2293 
Q 1191 2003 1191 1497 
Q 1191 994 1439 701 
Q 1688 409 2113 409 
Q 2538 409 2786 701 
Q 3034 994 3034 1497 
Q 3034 2003 2786 2293 
Q 2538 2584 2113 2584 
z
M 3366 4563 
L 3366 3988 
Q 3128 4100 2886 4159 
Q 2644 4219 2406 4219 
Q 1781 4219 1451 3797 
Q 1122 3375 1075 2522 
Q 1259 2794 1537 2939 
Q 1816 3084 2150 3084 
Q 2853 3084 3261 2657 
Q 3669 2231 3669 1497 
Q 3669 778 3244 343 
Q 2819 -91 2113 -91 
Q 1303 -91 875 529 
Q 447 1150 447 2328 
Q 447 3434 972 4092 
Q 1497 4750 2381 4750 
Q 2619 4750 2861 4703 
Q 3103 4656 3366 4563 
z
" transform="scale(0.015625)"/>
       </defs>
       <use xlink:href="#DejaVuSans-30"/>
       <use xlink:href="#DejaVuSans-2e" x="63.623047"/>
       <use xlink:href="#DejaVuSans-36" x="95.410156"/>
      </g>
     </g>
    </g>
    <g id="xtick_5">
     <g id="line2d_5">
      <g>
       <use xlink:href="#mfc334c7c24" x="333.556364" y="119.740235" style="stroke: #000000; stroke-width: 0.8"/>
      </g>
     </g>
     <g id="text_5">
      <!-- 0.8 -->
      <g transform="translate(325.604801 134.338673) scale(0.1 -0.1)">
       <defs>
        <path id="DejaVuSans-38" d="M 2034 2216 
Q 1584 2216 1326 1975 
Q 1069 1734 1069 1313 
Q 1069 891 1326 650 
Q 1584 409 2034 409 
Q 2484 409 2743 651 
Q 3003 894 3003 1313 
Q 3003 1734 2745 1975 
Q 2488 2216 2034 2216 
z
M 1403 2484 
Q 997 2584 770 2862 
Q 544 3141 544 3541 
Q 544 4100 942 4425 
Q 1341 4750 2034 4750 
Q 2731 4750 3128 4425 
Q 3525 4100 3525 3541 
Q 3525 3141 3298 2862 
Q 3072 2584 2669 2484 
Q 3125 2378 3379 2068 
Q 3634 1759 3634 1313 
Q 3634 634 3220 271 
Q 2806 -91 2034 -91 
Q 1263 -91 848 271 
Q 434 634 434 1313 
Q 434 1759 690 2068 
Q 947 2378 1403 2484 
z
M 1172 3481 
Q 1172 3119 1398 2916 
Q 1625 2713 2034 2713 
Q 2441 2713 2670 2916 
Q 2900 3119 2900 3481 
Q 2900 3844 2670 4047 
Q 2441 4250 2034 4250 
Q 1625 4250 1398 4047 
Q 1172 3844 1172 3481 
z
" transform="scale(0.015625)"/>
       </defs>
       <use xlink:href="#DejaVuSans-30"/>
       <use xlink:href="#DejaVuSans-2e" x="63.623047"/>
       <use xlink:href="#DejaVuSans-38" x="95.410156"/>
      </g>
     </g>
    </g>
    <g id="xtick_6">
     <g id="line2d_6">
      <g>
       <use xlink:href="#mfc334c7c24" x="398.487273" y="119.740235" style="stroke: #000000; stroke-width: 0.8"/>
      </g>
     </g>
     <g id="text_6">
      <!-- 1.0 -->
      <g transform="translate(390.53571 134.338673) scale(0.1 -0.1)">
       <defs>
        <path id="DejaVuSans-31" d="M 794 531 
L 1825 531 
L 1825 4091 
L 703 3866 
L 703 4441 
L 1819 4666 
L 2450 4666 
L 2450 531 
L 3481 531 
L 3481 0 
L 794 0 
L 794 531 
z
" transform="scale(0.015625)"/>
       </defs>
       <use xlink:href="#DejaVuSans-31"/>
       <use xlink:href="#DejaVuSans-2e" x="63.623047"/>
       <use xlink:href="#DejaVuSans-30" x="95.410156"/>
      </g>
     </g>
    </g>
   </g>
   <g id="matplotlib.axis_2">
    <g id="ytick_1">
     <g id="line2d_7">
      <defs>
       <path id="m1de8592630" d="M 0 0 
L -3.5 0 
" style="stroke: #000000; stroke-width: 0.8"/>
      </defs>
      <g>
       <use xlink:href="#m1de8592630" x="57.6" y="116.182588" style="stroke: #000000; stroke-width: 0.8"/>
      </g>
     </g>
     <g id="text_7">
      <!-- −1 -->
      <g transform="translate(35.857813 119.981807) scale(0.1 -0.1)">
       <defs>
        <path id="DejaVuSans-2212" d="M 678 2272 
L 4684 2272 
L 4684 1741 
L 678 1741 
L 678 2272 
z
" transform="scale(0.015625)"/>
       </defs>
       <use xlink:href="#DejaVuSans-2212"/>
       <use xlink:href="#DejaVuSans-31" x="83.789062"/>
      </g>
     </g>
    </g>
    <g id="ytick_2">
     <g id="line2d_8">
      <g>
       <use xlink:href="#m1de8592630" x="57.6" y="80.606118" style="stroke: #000000; stroke-width: 0.8"/>
      </g>
     </g>
     <g id="text_8">
      <!-- 0 -->
      <g transform="translate(44.2375 84.405336) scale(0.1 -0.1)">
       <use xlink:href="#DejaVuSans-30"/>
      </g>
     </g>
    </g>
    <g id="ytick_3">
     <g id="line2d_9">
      <g>
       <use xlink:href="#m1de8592630" x="57.6" y="45.029647" style="stroke: #000000; stroke-width: 0.8"/>
      </g>
     </g>
     <g id="text_9">
      <!-- 1 -->
      <g transform="translate(44.2375 48.828866) scale(0.1 -0.1)">
       <use xlink:href="#DejaVuSans-31"/>
      </g>
     </g>
    </g>
   </g>
   <g id="line2d_10">
    <path d="M 73.832727 80.606118 
L 76.463733 63.263639 
L 77.810403 55.844747 
L 78.874622 51.14383 
L 79.755087 48.188935 
L 80.489457 46.439739 
L 81.09916 45.509864 
L 81.602375 45.10971 
L 82.03092 45.034108 
L 82.440635 45.190507 
L 82.888659 45.616203 
L 83.410705 46.443542 
L 84.028199 47.871072 
L 84.758024 50.158383 
L 85.622905 53.64971 
L 86.661802 58.829459 
L 87.966267 66.546959 
L 89.939521 79.739115 
L 92.702337 97.983912 
L 94.047708 105.39011 
L 95.111278 110.083558 
L 95.991094 113.032595 
L 96.725464 114.778783 
L 97.334517 115.705332 
L 97.837732 116.103734 
L 98.266277 116.177836 
L 98.675992 116.020004 
L 99.124666 115.591943 
L 99.64736 114.761134 
L 100.265504 113.328808 
L 100.996627 111.032905 
L 101.862807 107.53026 
L 102.903003 102.336612 
L 104.210065 94.595223 
L 106.194357 81.320931 
L 108.933148 63.239832 
L 110.279169 55.82838 
L 111.342739 51.13356 
L 112.222555 48.183228 
L 112.956925 46.435878 
L 113.566627 45.507597 
L 114.069843 45.108784 
L 114.498388 45.034331 
L 114.908103 45.191826 
L 115.356776 45.619522 
L 115.879471 46.449913 
L 116.497614 47.881761 
L 117.228089 50.174814 
L 118.093619 53.673356 
L 119.133815 58.865183 
L 120.440227 66.600777 
L 122.421922 79.85577 
L 125.166557 97.9765 
L 126.511928 105.384015 
L 127.575499 110.078801 
L 128.455314 113.029099 
L 129.189685 114.77642 
L 129.799387 115.704674 
L 130.302603 116.103466 
L 130.731147 116.177901 
L 131.140862 116.020388 
L 131.589536 115.592672 
L 132.112231 114.76226 
L 132.730374 113.330387 
L 133.460848 111.037306 
L 134.326379 107.538733 
L 135.366574 102.346876 
L 136.672987 94.611253 
L 138.654682 81.356242 
L 141.399317 63.23554 
L 142.744688 55.82806 
L 143.808259 51.133309 
L 144.688074 48.183044 
L 145.422444 46.435754 
L 146.032147 45.507524 
L 146.535362 45.108754 
L 146.963907 45.034338 
L 147.373622 45.191869 
L 147.822295 45.619603 
L 148.34499 46.450038 
L 148.963134 47.881936 
L 149.693608 50.175045 
L 150.559139 53.673648 
L 151.599334 58.865537 
L 152.905747 66.601188 
L 154.887442 79.856217 
L 157.632077 97.97689 
L 158.977448 105.384336 
L 160.041018 110.079051 
L 160.920834 113.029283 
L 161.655204 114.776544 
L 162.264906 115.704747 
L 162.768122 116.103496 
L 163.196667 116.177894 
L 163.606382 116.020345 
L 164.055055 115.592591 
L 164.57775 114.762135 
L 165.195894 113.330211 
L 165.926368 111.037074 
L 166.791899 107.538441 
L 167.832094 102.346522 
L 169.138506 94.610842 
L 171.120202 81.355795 
L 173.864837 63.23515 
L 175.210208 55.827739 
L 176.273778 51.133059 
L 177.153594 48.18286 
L 177.887964 46.435629 
L 178.497666 45.507451 
L 179.000882 45.108724 
L 179.429427 45.034345 
L 179.839141 45.191911 
L 180.287815 45.619684 
L 180.81051 46.450163 
L 181.428653 47.882112 
L 182.159127 50.175277 
L 183.024658 53.67394 
L 184.064853 58.865891 
L 185.371266 66.601599 
L 187.352961 79.856664 
L 190.097596 97.97728 
L 191.442967 105.384657 
L 192.506538 110.079302 
L 193.386353 113.029467 
L 194.120723 114.776668 
L 194.730426 115.704821 
L 195.233641 116.103526 
L 195.662186 116.177887 
L 196.071901 116.020303 
L 196.520575 115.59251 
L 197.04327 114.76201 
L 197.661413 113.330036 
L 198.391887 111.036843 
L 199.257418 107.538149 
L 200.297613 102.346168 
L 201.604026 94.610431 
L 203.585721 81.355348 
L 206.330356 63.23476 
L 207.675727 55.827418 
L 208.739298 51.132808 
L 209.619113 48.182676 
L 210.353483 46.435505 
L 210.963186 45.507378 
L 211.466401 45.108694 
L 211.894946 45.034352 
L 212.304661 45.191954 
L 212.753334 45.619766 
L 213.276029 46.450288 
L 213.894173 47.882287 
L 214.624647 50.175509 
L 215.490178 53.674232 
L 216.530373 58.866244 
L 217.836785 66.60201 
L 219.818481 79.857111 
L 222.563116 97.97767 
L 223.908487 105.384978 
L 224.972057 110.079552 
L 225.851873 113.029651 
L 226.586243 114.776793 
L 227.195945 115.704894 
L 227.699161 116.103556 
L 228.127706 116.177879 
L 228.537421 116.02026 
L 228.986094 115.592429 
L 229.508789 114.761885 
L 230.126933 113.32986 
L 230.857407 111.036611 
L 231.722937 107.537857 
L 232.763133 102.345814 
L 234.069545 94.61002 
L 236.051241 81.354901 
L 238.795876 63.23437 
L 240.141247 55.827097 
L 241.204817 51.132558 
L 242.084633 48.182492 
L 242.819003 46.43538 
L 243.428705 45.507305 
L 243.931921 45.108665 
L 244.360466 45.03436 
L 244.77018 45.191996 
L 245.218854 45.619847 
L 245.741549 46.450413 
L 246.359692 47.882463 
L 247.090166 50.17574 
L 247.955697 53.674525 
L 248.995892 58.866598 
L 250.302305 66.602421 
L 252.284 79.857558 
L 255.027986 97.974159 
L 256.373357 105.38209 
L 257.436927 110.077298 
L 258.316743 113.027995 
L 259.051113 114.775673 
L 259.660816 115.704236 
L 260.164031 116.103288 
L 260.592576 116.177945 
L 261.002291 116.020644 
L 261.450964 115.593159 
L 261.973659 114.76301 
L 262.591803 113.331439 
L 263.322277 111.038695 
L 264.187808 107.540486 
L 265.227354 102.352537 
L 266.533766 94.617828 
L 268.514163 81.372333 
L 271.261395 63.23398 
L 272.606766 55.826776 
L 273.670337 51.132308 
L 274.550152 48.182308 
L 275.284522 46.435256 
L 275.894225 45.507232 
L 276.39744 45.108635 
L 276.825985 45.034367 
L 277.2357 45.192039 
L 277.684373 45.619928 
L 278.207068 46.450538 
L 278.825212 47.882638 
L 279.555686 50.175972 
L 280.421217 53.674817 
L 281.461412 58.866952 
L 282.767824 66.602832 
L 284.74952 79.858004 
L 287.493505 97.974549 
L 288.838877 105.382411 
L 289.902447 110.077549 
L 290.782263 113.028179 
L 291.516633 114.775797 
L 292.126335 115.704309 
L 292.629551 116.103317 
L 293.058095 116.177937 
L 293.46781 116.020601 
L 293.916484 115.593078 
L 294.439179 114.762885 
L 295.057322 113.331263 
L 295.787796 111.038464 
L 296.653327 107.540194 
L 297.692873 102.352183 
L 298.999286 94.617417 
L 300.979682 81.371886 
L 303.726914 63.23359 
L 305.072286 55.826456 
L 306.135856 51.132057 
L 307.015672 48.182124 
L 307.750042 46.435131 
L 308.359744 45.507159 
L 308.86296 45.108605 
L 309.291505 45.034374 
L 309.701219 45.192082 
L 310.149893 45.620009 
L 310.672588 46.450663 
L 311.290731 47.882813 
L 312.021205 50.176203 
L 312.886736 53.675109 
L 313.926931 58.867306 
L 315.233344 66.603243 
L 317.215039 79.858451 
L 319.959025 97.974939 
L 321.304396 105.382732 
L 322.367966 110.077799 
L 323.247782 113.028363 
L 323.982152 114.775922 
L 324.591855 115.704382 
L 325.09507 116.103347 
L 325.523615 116.17793 
L 325.93333 116.020559 
L 326.382003 115.592997 
L 326.904698 114.76276 
L 327.522842 113.331088 
L 328.253316 111.038232 
L 329.118847 107.539901 
L 330.159042 102.348291 
L 331.465454 94.612897 
L 333.4465 81.3625 
L 336.191785 63.237101 
L 337.537156 55.829343 
L 338.600726 51.134311 
L 339.480542 48.18378 
L 340.214912 46.436251 
L 340.824614 45.507816 
L 341.32783 45.108873 
L 341.756375 45.034309 
L 342.16609 45.191698 
L 342.614763 45.619279 
L 343.137458 46.449538 
L 343.755601 47.881235 
L 344.486076 50.174119 
L 345.351606 53.67248 
L 346.391802 58.864121 
L 347.698214 66.599544 
L 349.67926 79.849959 
L 352.424544 97.975329 
L 353.769916 105.383053 
L 354.833486 110.07805 
L 355.713302 113.028547 
L 356.447672 114.776046 
L 357.057374 115.704455 
L 357.56059 116.103377 
L 357.989134 116.177923 
L 358.398849 116.020516 
L 358.847523 115.592916 
L 359.370218 114.762635 
L 359.988361 113.330913 
L 360.718835 111.038 
L 361.584366 107.539609 
L 362.624561 102.347937 
L 363.930974 94.612486 
L 365.912669 81.357583 
L 368.657304 63.236711 
L 370.002675 55.829022 
L 371.066246 51.13406 
L 371.946061 48.183596 
L 372.680431 46.436127 
L 373.290134 45.507743 
L 373.793349 45.108843 
L 374.221894 45.034316 
L 374.631609 45.191741 
L 375.080282 45.61936 
L 375.602977 46.449663 
L 376.221121 47.88141 
L 376.951595 50.174351 
L 377.817126 53.672772 
L 378.857321 58.864475 
L 380.163734 66.599955 
L 382.145429 79.854876 
L 384.890064 97.97572 
L 386.235435 105.383374 
L 387.299005 110.0783 
L 388.178821 113.028731 
L 388.913191 114.776171 
L 389.522893 115.704528 
L 390.026109 116.103407 
L 390.454654 116.177916 
L 390.864369 116.020473 
L 391.313042 115.592835 
L 391.835737 114.76251 
L 392.453881 113.330737 
L 393.184355 111.037769 
L 394.049886 107.539317 
L 395.090081 102.347583 
L 396.396493 94.612075 
L 398.378189 81.357136 
L 398.487273 80.606118 
L 398.487273 80.606118 
" clip-path="url(#pcc24057875)" style="fill: none; stroke: #1f77b4; stroke-width: 1.5; stroke-linecap: square"/>
   </g>
   <g id="patch_3">
    <path d="M 57.6 119.740235 
L 57.6 41.472 
" style="fill: none; stroke: #000000; stroke-width: 0.8; stroke-linejoin: miter; stroke-linecap: square"/>
   </g>
   <g id="patch_4">
    <path d="M 414.72 119.740235 
L 414.72 41.472 
" style="fill: none; stroke: #000000; stroke-width: 0.8; stroke-linejoin: miter; stroke-linecap: square"/>
   </g>
   <g id="patch_5">
    <path d="M 57.6 119.740235 
L 414.72 119.740235 
" style="fill: none; stroke: #000000; stroke-width: 0.8; stroke-linejoin: miter; stroke-linecap: square"/>
   </g>
   <g id="patch_6">
    <path d="M 57.6 41.472 
L 414.72 41.472 
" style="fill: none; stroke: #000000; stroke-width: 0.8; stroke-linejoin: miter; stroke-linecap: square"/>
   </g>
   <g id="text_10">
    <!-- Semnal Sinusoidal -->
    <g transform="translate(181.064063 35.472) scale(0.12 -0.12)">
     <defs>
      <path id="DejaVuSans-53" d="M 3425 4513 
L 3425 3897 
Q 3066 4069 2747 4153 
Q 2428 4238 2131 4238 
Q 1616 4238 1336 4038 
Q 1056 3838 1056 3469 
Q 1056 3159 1242 3001 
Q 1428 2844 1947 2747 
L 2328 2669 
Q 3034 2534 3370 2195 
Q 3706 1856 3706 1288 
Q 3706 609 3251 259 
Q 2797 -91 1919 -91 
Q 1588 -91 1214 -16 
Q 841 59 441 206 
L 441 856 
Q 825 641 1194 531 
Q 1563 422 1919 422 
Q 2459 422 2753 634 
Q 3047 847 3047 1241 
Q 3047 1584 2836 1778 
Q 2625 1972 2144 2069 
L 1759 2144 
Q 1053 2284 737 2584 
Q 422 2884 422 3419 
Q 422 4038 858 4394 
Q 1294 4750 2059 4750 
Q 2388 4750 2728 4690 
Q 3069 4631 3425 4513 
z
" transform="scale(0.015625)"/>
      <path id="DejaVuSans-65" d="M 3597 1894 
L 3597 1613 
L 953 1613 
Q 991 1019 1311 708 
Q 1631 397 2203 397 
Q 2534 397 2845 478 
Q 3156 559 3463 722 
L 3463 178 
Q 3153 47 2828 -22 
Q 2503 -91 2169 -91 
Q 1331 -91 842 396 
Q 353 884 353 1716 
Q 353 2575 817 3079 
Q 1281 3584 2069 3584 
Q 2775 3584 3186 3129 
Q 3597 2675 3597 1894 
z
M 3022 2063 
Q 3016 2534 2758 2815 
Q 2500 3097 2075 3097 
Q 1594 3097 1305 2825 
Q 1016 2553 972 2059 
L 3022 2063 
z
" transform="scale(0.015625)"/>
      <path id="DejaVuSans-6d" d="M 3328 2828 
Q 3544 3216 3844 3400 
Q 4144 3584 4550 3584 
Q 5097 3584 5394 3201 
Q 5691 2819 5691 2113 
L 5691 0 
L 5113 0 
L 5113 2094 
Q 5113 2597 4934 2840 
Q 4756 3084 4391 3084 
Q 3944 3084 3684 2787 
Q 3425 2491 3425 1978 
L 3425 0 
L 2847 0 
L 2847 2094 
Q 2847 2600 2669 2842 
Q 2491 3084 2119 3084 
Q 1678 3084 1418 2786 
Q 1159 2488 1159 1978 
L 1159 0 
L 581 0 
L 581 3500 
L 1159 3500 
L 1159 2956 
Q 1356 3278 1631 3431 
Q 1906 3584 2284 3584 
Q 2666 3584 2933 3390 
Q 3200 3197 3328 2828 
z
" transform="scale(0.015625)"/>
      <path id="DejaVuSans-6e" d="M 3513 2113 
L 3513 0 
L 2938 0 
L 2938 2094 
Q 2938 2591 2744 2837 
Q 2550 3084 2163 3084 
Q 1697 3084 1428 2787 
Q 1159 2491 1159 1978 
L 1159 0 
L 581 0 
L 581 3500 
L 1159 3500 
L 1159 2956 
Q 1366 3272 1645 3428 
Q 1925 3584 2291 3584 
Q 2894 3584 3203 3211 
Q 3513 2838 3513 2113 
z
" transform="scale(0.015625)"/>
      <path id="DejaVuSans-61" d="M 2194 1759 
Q 1497 1759 1228 1600 
Q 959 1441 959 1056 
Q 959 750 1161 570 
Q 1363 391 1709 391 
Q 2188 391 2477 730 
Q 2766 1069 2766 1631 
L 2766 1759 
L 2194 1759 
z
M 3341 1997 
L 3341 0 
L 2766 0 
L 2766 531 
Q 2569 213 2275 61 
Q 1981 -91 1556 -91 
Q 1019 -91 701 211 
Q 384 513 384 1019 
Q 384 1609 779 1909 
Q 1175 2209 1959 2209 
L 2766 2209 
L 2766 2266 
Q 2766 2663 2505 2880 
Q 2244 3097 1772 3097 
Q 1472 3097 1187 3025 
Q 903 2953 641 2809 
L 641 3341 
Q 956 3463 1253 3523 
Q 1550 3584 1831 3584 
Q 2591 3584 2966 3190 
Q 3341 2797 3341 1997 
z
" transform="scale(0.015625)"/>
      <path id="DejaVuSans-6c" d="M 603 4863 
L 1178 4863 
L 1178 0 
L 603 0 
L 603 4863 
z
" transform="scale(0.015625)"/>
      <path id="DejaVuSans-20" transform="scale(0.015625)"/>
      <path id="DejaVuSans-69" d="M 603 3500 
L 1178 3500 
L 1178 0 
L 603 0 
L 603 3500 
z
M 603 4863 
L 1178 4863 
L 1178 4134 
L 603 4134 
L 603 4863 
z
" transform="scale(0.015625)"/>
      <path id="DejaVuSans-75" d="M 544 1381 
L 544 3500 
L 1119 3500 
L 1119 1403 
Q 1119 906 1312 657 
Q 1506 409 1894 409 
Q 2359 409 2629 706 
Q 2900 1003 2900 1516 
L 2900 3500 
L 3475 3500 
L 3475 0 
L 2900 0 
L 2900 538 
Q 2691 219 2414 64 
Q 2138 -91 1772 -91 
Q 1169 -91 856 284 
Q 544 659 544 1381 
z
M 1991 3584 
L 1991 3584 
z
" transform="scale(0.015625)"/>
      <path id="DejaVuSans-73" d="M 2834 3397 
L 2834 2853 
Q 2591 2978 2328 3040 
Q 2066 3103 1784 3103 
Q 1356 3103 1142 2972 
Q 928 2841 928 2578 
Q 928 2378 1081 2264 
Q 1234 2150 1697 2047 
L 1894 2003 
Q 2506 1872 2764 1633 
Q 3022 1394 3022 966 
Q 3022 478 2636 193 
Q 2250 -91 1575 -91 
Q 1294 -91 989 -36 
Q 684 19 347 128 
L 347 722 
Q 666 556 975 473 
Q 1284 391 1588 391 
Q 1994 391 2212 530 
Q 2431 669 2431 922 
Q 2431 1156 2273 1281 
Q 2116 1406 1581 1522 
L 1381 1569 
Q 847 1681 609 1914 
Q 372 2147 372 2553 
Q 372 3047 722 3315 
Q 1072 3584 1716 3584 
Q 2034 3584 2315 3537 
Q 2597 3491 2834 3397 
z
" transform="scale(0.015625)"/>
      <path id="DejaVuSans-6f" d="M 1959 3097 
Q 1497 3097 1228 2736 
Q 959 2375 959 1747 
Q 959 1119 1226 758 
Q 1494 397 1959 397 
Q 2419 397 2687 759 
Q 2956 1122 2956 1747 
Q 2956 2369 2687 2733 
Q 2419 3097 1959 3097 
z
M 1959 3584 
Q 2709 3584 3137 3096 
Q 3566 2609 3566 1747 
Q 3566 888 3137 398 
Q 2709 -91 1959 -91 
Q 1206 -91 779 398 
Q 353 888 353 1747 
Q 353 2609 779 3096 
Q 1206 3584 1959 3584 
z
" transform="scale(0.015625)"/>
      <path id="DejaVuSans-64" d="M 2906 2969 
L 2906 4863 
L 3481 4863 
L 3481 0 
L 2906 0 
L 2906 525 
Q 2725 213 2448 61 
Q 2172 -91 1784 -91 
Q 1150 -91 751 415 
Q 353 922 353 1747 
Q 353 2572 751 3078 
Q 1150 3584 1784 3584 
Q 2172 3584 2448 3432 
Q 2725 3281 2906 2969 
z
M 947 1747 
Q 947 1113 1208 752 
Q 1469 391 1925 391 
Q 2381 391 2643 752 
Q 2906 1113 2906 1747 
Q 2906 2381 2643 2742 
Q 2381 3103 1925 3103 
Q 1469 3103 1208 2742 
Q 947 2381 947 1747 
z
" transform="scale(0.015625)"/>
     </defs>
     <use xlink:href="#DejaVuSans-53"/>
     <use xlink:href="#DejaVuSans-65" x="63.476562"/>
     <use xlink:href="#DejaVuSans-6d" x="125"/>
     <use xlink:href="#DejaVuSans-6e" x="222.412109"/>
     <use xlink:href="#DejaVuSans-61" x="285.791016"/>
     <use xlink:href="#DejaVuSans-6c" x="347.070312"/>
     <use xlink:href="#DejaVuSans-20" x="374.853516"/>
     <use xlink:href="#DejaVuSans-53" x="406.640625"/>
     <use xlink:href="#DejaVuSans-69" x="470.117188"/>
     <use xlink:href="#DejaVuSans-6e" x="497.900391"/>
     <use xlink:href="#DejaVuSans-75" x="561.279297"/>
     <use xlink:href="#DejaVuSans-73" x="624.658203"/>
     <use xlink:href="#DejaVuSans-6f" x="676.757812"/>
     <use xlink:href="#DejaVuSans-69" x="737.939453"/>
     <use xlink:href="#DejaVuSans-64" x="765.722656"/>
     <use xlink:href="#DejaVuSans-61" x="829.199219"/>
     <use xlink:href="#DejaVuSans-6c" x="890.478516"/>
    </g>
   </g>
  </g>
  <g id="axes_2">
   <g id="patch_7">
    <path d="M 57.6 213.662118 
L 414.72 213.662118 
L 414.72 135.393882 
L 57.6 135.393882 
z
" style="fill: #ffffff"/>
   </g>
   <g id="matplotlib.axis_3">
    <g id="xtick_7">
     <g id="line2d_11">
      <g>
       <use xlink:href="#mfc334c7c24" x="73.832727" y="213.662118" style="stroke: #000000; stroke-width: 0.8"/>
      </g>
     </g>
     <g id="text_11">
      <!-- 0.0 -->
      <g transform="translate(65.881165 228.260555) scale(0.1 -0.1)">
       <use xlink:href="#DejaVuSans-30"/>
       <use xlink:href="#DejaVuSans-2e" x="63.623047"/>
       <use xlink:href="#DejaVuSans-30" x="95.410156"/>
      </g>
     </g>
    </g>
    <g id="xtick_8">
     <g id="line2d_12">
      <g>
       <use xlink:href="#mfc334c7c24" x="138.763636" y="213.662118" style="stroke: #000000; stroke-width: 0.8"/>
      </g>
     </g>
     <g id="text_12">
      <!-- 0.2 -->
      <g transform="translate(130.812074 228.260555) scale(0.1 -0.1)">
       <use xlink:href="#DejaVuSans-30"/>
       <use xlink:href="#DejaVuSans-2e" x="63.623047"/>
       <use xlink:href="#DejaVuSans-32" x="95.410156"/>
      </g>
     </g>
    </g>
    <g id="xtick_9">
     <g id="line2d_13">
      <g>
       <use xlink:href="#mfc334c7c24" x="203.694545" y="213.662118" style="stroke: #000000; stroke-width: 0.8"/>
      </g>
     </g>
     <g id="text_13">
      <!-- 0.4 -->
      <g transform="translate(195.742983 228.260555) scale(0.1 -0.1)">
       <use xlink:href="#DejaVuSans-30"/>
       <use xlink:href="#DejaVuSans-2e" x="63.623047"/>
       <use xlink:href="#DejaVuSans-34" x="95.410156"/>
      </g>
     </g>
    </g>
    <g id="xtick_10">
     <g id="line2d_14">
      <g>
       <use xlink:href="#mfc334c7c24" x="268.625455" y="213.662118" style="stroke: #000000; stroke-width: 0.8"/>
      </g>
     </g>
     <g id="text_14">
      <!-- 0.6 -->
      <g transform="translate(260.673892 228.260555) scale(0.1 -0.1)">
       <use xlink:href="#DejaVuSans-30"/>
       <use xlink:href="#DejaVuSans-2e" x="63.623047"/>
       <use xlink:href="#DejaVuSans-36" x="95.410156"/>
      </g>
     </g>
    </g>
    <g id="xtick_11">
     <g id="line2d_15">
      <g>
       <use xlink:href="#mfc334c7c24" x="333.556364" y="213.662118" style="stroke: #000000; stroke-width: 0.8"/>
      </g>
     </g>
     <g id="text_15">
      <!-- 0.8 -->
      <g transform="translate(325.604801 228.260555) scale(0.1 -0.1)">
       <use xlink:href="#DejaVuSans-30"/>
       <use xlink:href="#DejaVuSans-2e" x="63.623047"/>
       <use xlink:href="#DejaVuSans-38" x="95.410156"/>
      </g>
     </g>
    </g>
    <g id="xtick_12">
     <g id="line2d_16">
      <g>
       <use xlink:href="#mfc334c7c24" x="398.487273" y="213.662118" style="stroke: #000000; stroke-width: 0.8"/>
      </g>
     </g>
     <g id="text_16">
      <!-- 1.0 -->
      <g transform="translate(390.53571 228.260555) scale(0.1 -0.1)">
       <use xlink:href="#DejaVuSans-31"/>
       <use xlink:href="#DejaVuSans-2e" x="63.623047"/>
       <use xlink:href="#DejaVuSans-30" x="95.410156"/>
      </g>
     </g>
    </g>
   </g>
   <g id="matplotlib.axis_4">
    <g id="ytick_4">
     <g id="line2d_17">
      <g>
       <use xlink:href="#m1de8592630" x="57.6" y="210.104471" style="stroke: #000000; stroke-width: 0.8"/>
      </g>
     </g>
     <g id="text_17">
      <!-- −1 -->
      <g transform="translate(35.857813 213.903689) scale(0.1 -0.1)">
       <use xlink:href="#DejaVuSans-2212"/>
       <use xlink:href="#DejaVuSans-31" x="83.789062"/>
      </g>
     </g>
    </g>
    <g id="ytick_5">
     <g id="line2d_18">
      <g>
       <use xlink:href="#m1de8592630" x="57.6" y="174.527944" style="stroke: #000000; stroke-width: 0.8"/>
      </g>
     </g>
     <g id="text_18">
      <!-- 0 -->
      <g transform="translate(44.2375 178.327163) scale(0.1 -0.1)">
       <use xlink:href="#DejaVuSans-30"/>
      </g>
     </g>
    </g>
    <g id="ytick_6">
     <g id="line2d_19">
      <g>
       <use xlink:href="#m1de8592630" x="57.6" y="138.951418" style="stroke: #000000; stroke-width: 0.8"/>
      </g>
     </g>
     <g id="text_19">
      <!-- 1 -->
      <g transform="translate(44.2375 142.750637) scale(0.1 -0.1)">
       <use xlink:href="#DejaVuSans-31"/>
      </g>
     </g>
    </g>
   </g>
   <g id="line2d_20">
    <path d="M 73.832727 210.104471 
L 115.168476 138.952368 
L 115.169125 210.104303 
L 115.280157 209.913181 
L 156.504874 138.9522 
L 156.505523 210.104135 
L 156.616555 209.913013 
L 197.841272 138.952033 
L 197.841921 210.103967 
L 197.952953 209.912845 
L 239.17767 138.951865 
L 239.178319 210.1038 
L 239.289351 209.912678 
L 280.514068 138.951697 
L 280.514717 210.103632 
L 280.625749 209.91251 
L 321.850466 138.951529 
L 321.851115 210.103464 
L 321.962147 209.912342 
L 363.186215 138.952479 
L 363.186864 210.104414 
L 363.297896 209.913292 
L 398.487273 149.341071 
L 398.487273 149.341071 
" clip-path="url(#paa39c484b0)" style="fill: none; stroke: #1f77b4; stroke-width: 1.5; stroke-linecap: square"/>
   </g>
   <g id="patch_8">
    <path d="M 57.6 213.662118 
L 57.6 135.393882 
" style="fill: none; stroke: #000000; stroke-width: 0.8; stroke-linejoin: miter; stroke-linecap: square"/>
   </g>
   <g id="patch_9">
    <path d="M 414.72 213.662118 
L 414.72 135.393882 
" style="fill: none; stroke: #000000; stroke-width: 0.8; stroke-linejoin: miter; stroke-linecap: square"/>
   </g>
   <g id="patch_10">
    <path d="M 57.6 213.662118 
L 414.72 213.662118 
" style="fill: none; stroke: #000000; stroke-width: 0.8; stroke-linejoin: miter; stroke-linecap: square"/>
   </g>
   <g id="patch_11">
    <path d="M 57.6 135.393882 
L 414.72 135.393882 
" style="fill: none; stroke: #000000; stroke-width: 0.8; stroke-linejoin: miter; stroke-linecap: square"/>
   </g>
   <g id="text_20">
    <!-- Semnal Sawtooth -->
    <g transform="translate(183.519375 129.393882) scale(0.12 -0.12)">
     <defs>
      <path id="DejaVuSans-77" d="M 269 3500 
L 844 3500 
L 1563 769 
L 2278 3500 
L 2956 3500 
L 3675 769 
L 4391 3500 
L 4966 3500 
L 4050 0 
L 3372 0 
L 2619 2869 
L 1863 0 
L 1184 0 
L 269 3500 
z
" transform="scale(0.015625)"/>
      <path id="DejaVuSans-74" d="M 1172 4494 
L 1172 3500 
L 2356 3500 
L 2356 3053 
L 1172 3053 
L 1172 1153 
Q 1172 725 1289 603 
Q 1406 481 1766 481 
L 2356 481 
L 2356 0 
L 1766 0 
Q 1100 0 847 248 
Q 594 497 594 1153 
L 594 3053 
L 172 3053 
L 172 3500 
L 594 3500 
L 594 4494 
L 1172 4494 
z
" transform="scale(0.015625)"/>
      <path id="DejaVuSans-68" d="M 3513 2113 
L 3513 0 
L 2938 0 
L 2938 2094 
Q 2938 2591 2744 2837 
Q 2550 3084 2163 3084 
Q 1697 3084 1428 2787 
Q 1159 2491 1159 1978 
L 1159 0 
L 581 0 
L 581 4863 
L 1159 4863 
L 1159 2956 
Q 1366 3272 1645 3428 
Q 1925 3584 2291 3584 
Q 2894 3584 3203 3211 
Q 3513 2838 3513 2113 
z
" transform="scale(0.015625)"/>
     </defs>
     <use xlink:href="#DejaVuSans-53"/>
     <use xlink:href="#DejaVuSans-65" x="63.476562"/>
     <use xlink:href="#DejaVuSans-6d" x="125"/>
     <use xlink:href="#DejaVuSans-6e" x="222.412109"/>
     <use xlink:href="#DejaVuSans-61" x="285.791016"/>
     <use xlink:href="#DejaVuSans-6c" x="347.070312"/>
     <use xlink:href="#DejaVuSans-20" x="374.853516"/>
     <use xlink:href="#DejaVuSans-53" x="406.640625"/>
     <use xlink:href="#DejaVuSans-61" x="470.117188"/>
     <use xlink:href="#DejaVuSans-77" x="531.396484"/>
     <use xlink:href="#DejaVuSans-74" x="613.183594"/>
     <use xlink:href="#DejaVuSans-6f" x="652.392578"/>
     <use xlink:href="#DejaVuSans-6f" x="713.574219"/>
     <use xlink:href="#DejaVuSans-74" x="774.755859"/>
     <use xlink:href="#DejaVuSans-68" x="813.964844"/>
    </g>
   </g>
  </g>
  <g id="axes_3">
   <g id="patch_12">
    <path d="M 57.6 307.584 
L 414.72 307.584 
L 414.72 229.315765 
L 57.6 229.315765 
z
" style="fill: #ffffff"/>
   </g>
   <g id="matplotlib.axis_5">
    <g id="xtick_13">
     <g id="line2d_21">
      <g>
       <use xlink:href="#mfc334c7c24" x="73.832727" y="307.584" style="stroke: #000000; stroke-width: 0.8"/>
      </g>
     </g>
     <g id="text_21">
      <!-- 0.0 -->
      <g transform="translate(65.881165 322.182437) scale(0.1 -0.1)">
       <use xlink:href="#DejaVuSans-30"/>
       <use xlink:href="#DejaVuSans-2e" x="63.623047"/>
       <use xlink:href="#DejaVuSans-30" x="95.410156"/>
      </g>
     </g>
    </g>
    <g id="xtick_14">
     <g id="line2d_22">
      <g>
       <use xlink:href="#mfc334c7c24" x="138.763636" y="307.584" style="stroke: #000000; stroke-width: 0.8"/>
      </g>
     </g>
     <g id="text_22">
      <!-- 0.2 -->
      <g transform="translate(130.812074 322.182437) scale(0.1 -0.1)">
       <use xlink:href="#DejaVuSans-30"/>
       <use xlink:href="#DejaVuSans-2e" x="63.623047"/>
       <use xlink:href="#DejaVuSans-32" x="95.410156"/>
      </g>
     </g>
    </g>
    <g id="xtick_15">
     <g id="line2d_23">
      <g>
       <use xlink:href="#mfc334c7c24" x="203.694545" y="307.584" style="stroke: #000000; stroke-width: 0.8"/>
      </g>
     </g>
     <g id="text_23">
      <!-- 0.4 -->
      <g transform="translate(195.742983 322.182437) scale(0.1 -0.1)">
       <use xlink:href="#DejaVuSans-30"/>
       <use xlink:href="#DejaVuSans-2e" x="63.623047"/>
       <use xlink:href="#DejaVuSans-34" x="95.410156"/>
      </g>
     </g>
    </g>
    <g id="xtick_16">
     <g id="line2d_24">
      <g>
       <use xlink:href="#mfc334c7c24" x="268.625455" y="307.584" style="stroke: #000000; stroke-width: 0.8"/>
      </g>
     </g>
     <g id="text_24">
      <!-- 0.6 -->
      <g transform="translate(260.673892 322.182437) scale(0.1 -0.1)">
       <use xlink:href="#DejaVuSans-30"/>
       <use xlink:href="#DejaVuSans-2e" x="63.623047"/>
       <use xlink:href="#DejaVuSans-36" x="95.410156"/>
      </g>
     </g>
    </g>
    <g id="xtick_17">
     <g id="line2d_25">
      <g>
       <use xlink:href="#mfc334c7c24" x="333.556364" y="307.584" style="stroke: #000000; stroke-width: 0.8"/>
      </g>
     </g>
     <g id="text_25">
      <!-- 0.8 -->
      <g transform="translate(325.604801 322.182437) scale(0.1 -0.1)">
       <use xlink:href="#DejaVuSans-30"/>
       <use xlink:href="#DejaVuSans-2e" x="63.623047"/>
       <use xlink:href="#DejaVuSans-38" x="95.410156"/>
      </g>
     </g>
    </g>
    <g id="xtick_18">
     <g id="line2d_26">
      <g>
       <use xlink:href="#mfc334c7c24" x="398.487273" y="307.584" style="stroke: #000000; stroke-width: 0.8"/>
      </g>
     </g>
     <g id="text_26">
      <!-- 1.0 -->
      <g transform="translate(390.53571 322.182437) scale(0.1 -0.1)">
       <use xlink:href="#DejaVuSans-31"/>
       <use xlink:href="#DejaVuSans-2e" x="63.623047"/>
       <use xlink:href="#DejaVuSans-30" x="95.410156"/>
      </g>
     </g>
    </g>
   </g>
   <g id="matplotlib.axis_6">
    <g id="ytick_7">
     <g id="line2d_27">
      <g>
       <use xlink:href="#m1de8592630" x="57.6" y="305.751972" style="stroke: #000000; stroke-width: 0.8"/>
      </g>
     </g>
     <g id="text_27">
      <!-- −2 -->
      <g transform="translate(35.857813 309.551191) scale(0.1 -0.1)">
       <use xlink:href="#DejaVuSans-2212"/>
       <use xlink:href="#DejaVuSans-32" x="83.789062"/>
      </g>
     </g>
    </g>
    <g id="ytick_8">
     <g id="line2d_28">
      <g>
       <use xlink:href="#m1de8592630" x="57.6" y="269.215387" style="stroke: #000000; stroke-width: 0.8"/>
      </g>
     </g>
     <g id="text_28">
      <!-- 0 -->
      <g transform="translate(44.2375 273.014605) scale(0.1 -0.1)">
       <use xlink:href="#DejaVuSans-30"/>
      </g>
     </g>
    </g>
    <g id="ytick_9">
     <g id="line2d_29">
      <g>
       <use xlink:href="#m1de8592630" x="57.6" y="232.678801" style="stroke: #000000; stroke-width: 0.8"/>
      </g>
     </g>
     <g id="text_29">
      <!-- 2 -->
      <g transform="translate(44.2375 236.47802) scale(0.1 -0.1)">
       <use xlink:href="#DejaVuSans-32"/>
      </g>
     </g>
    </g>
   </g>
   <g id="line2d_30">
    <path d="M 73.832727 287.483679 
L 76.6832 275.389668 
L 78.157134 270.095633 
L 79.339529 266.628706 
L 80.339467 264.343432 
L 81.200452 262.894568 
L 81.949107 262.04143 
L 82.608157 261.607312 
L 83.207471 261.468269 
L 83.789253 261.56126 
L 84.399605 261.891715 
L 85.080082 262.526516 
L 85.867046 263.583309 
L 86.803352 265.23684 
L 87.970162 267.781161 
L 89.662915 272.069836 
L 92.571825 279.438398 
L 93.794477 281.908851 
L 94.761949 283.395551 
L 95.566445 284.251183 
L 96.253415 284.677062 
L 96.862468 284.803999 
L 97.439056 284.69824 
L 98.029928 284.356508 
L 98.672096 283.714621 
L 99.391532 282.662512 
L 100.209663 281.048857 
L 101.150514 278.672994 
L 102.251744 275.252742 
L 103.590622 270.321677 
L 105.423626 262.638211 
L 109.463635 245.485441 
L 110.866145 240.623145 
L 112.008282 237.417936 
L 112.979001 235.315058 
L 113.816612 233.996365 
L 114.545787 233.235567 
L 115.168476 232.873412 
L 115.169125 269.409757 
L 115.280157 269.37291 
L 115.868433 269.315613 
L 116.45476 269.484626 
L 117.084591 269.907511 
L 117.796884 270.668863 
L 118.628651 271.903765 
L 119.629888 273.814524 
L 120.914224 276.782521 
L 123.230314 282.823652 
L 125.124352 287.473368 
L 126.326226 289.866026 
L 127.281361 291.305133 
L 128.077416 292.12917 
L 128.757893 292.533207 
L 129.3637 292.644719 
L 129.940287 292.525122 
L 130.533757 292.166892 
L 131.179821 291.50331 
L 131.904451 290.421697 
L 132.729725 288.766627 
L 133.679666 286.333961 
L 134.792584 282.836672 
L 136.150941 277.786728 
L 138.040434 269.816531 
L 141.824615 253.722929 
L 143.249852 248.721227 
L 144.405624 245.42851 
L 145.386083 243.265195 
L 146.231485 241.903409 
L 146.967154 241.112061 
L 147.616464 240.720793 
L 148.211232 240.612799 
L 148.794313 240.733935 
L 149.411807 241.098176 
L 150.103972 241.779036 
L 150.907169 242.900297 
L 151.86685 244.646621 
L 153.073918 247.338909 
L 154.916661 252.069513 
L 156.504874 256.205459 
L 156.616555 293.020219 
L 158.095684 296.390408 
L 159.185227 298.355127 
L 160.072185 299.526589 
L 160.818892 300.168492 
L 161.465605 300.447296 
L 162.05453 300.465341 
L 162.632416 300.257453 
L 163.242768 299.791057 
L 163.916752 298.980394 
L 164.678393 297.695656 
L 165.548469 295.766403 
L 166.55555 292.961332 
L 167.749631 288.937903 
L 169.252785 283.034572 
L 171.793536 271.978987 
L 174.175207 262.004669 
L 175.626416 256.845744 
L 176.796473 253.458498 
L 177.787321 251.228857 
L 178.641164 249.819267 
L 179.383975 248.993774 
L 180.03848 248.57883 
L 180.635845 248.453476 
L 181.217627 248.558623 
L 181.831226 248.903726 
L 182.516898 249.558546 
L 183.311004 250.643386 
L 184.257699 252.337621 
L 185.442041 254.946379 
L 187.195179 259.415047 
L 189.926178 266.329724 
L 191.159219 268.838518 
L 192.132535 270.348013 
L 192.940927 271.218742 
L 193.630494 271.654999 
L 194.241495 271.789611 
L 194.818732 271.690313 
L 195.408955 271.355796 
L 196.049175 270.723869 
L 196.766014 269.68551 
L 197.580899 268.090716 
L 197.841272 267.491315 
L 197.841921 304.026353 
L 197.952953 303.757871 
L 198.950294 301.017821 
L 200.130091 297.087201 
L 201.605324 291.343906 
L 203.965568 281.113043 
L 206.568653 270.1244 
L 208.036744 264.864548 
L 209.215891 261.417721 
L 210.213232 259.14666 
L 211.072919 257.706446 
L 211.820275 256.859884 
L 212.478027 256.430526 
L 213.076691 256.294744 
L 213.658473 256.390547 
L 214.269474 256.724306 
L 214.95125 257.363792 
L 215.739513 258.426503 
L 216.677766 260.088377 
L 217.848473 262.646889 
L 219.553562 266.972682 
L 222.422865 274.240882 
L 223.648113 276.721041 
L 224.616885 278.213354 
L 225.422029 279.072684 
L 226.109649 279.501477 
L 226.719352 279.630634 
L 227.296589 279.526539 
L 227.887461 279.186532 
L 228.52898 278.547315 
L 229.247766 277.498705 
L 230.065248 275.889471 
L 231.005449 273.518976 
L 232.105381 270.107144 
L 233.441662 265.190867 
L 235.268821 257.537504 
L 239.17767 240.874465 
L 239.178319 277.408561 
L 239.289351 276.985307 
L 240.699654 272.075113 
L 241.846336 268.840116 
L 242.820301 266.716502 
L 243.661158 265.382056 
L 244.392931 264.610567 
L 245.038995 264.233493 
L 245.631815 264.135858 
L 246.214896 264.266173 
L 246.834338 264.641248 
L 247.530399 265.337268 
L 248.33879 266.479504 
L 249.306263 268.256514 
L 250.526966 270.998357 
L 252.429446 275.900666 
L 254.827349 281.9441 
L 256.067532 284.479719 
L 257.044744 286.005192 
L 257.855733 286.886721 
L 258.547898 287.330939 
L 259.160197 287.470948 
L 259.737434 287.376368 
L 260.327008 287.047252 
L 260.965929 286.422504 
L 261.68082 285.394267 
L 262.493757 283.812325 
L 263.428114 281.479135 
L 264.520255 278.118591 
L 265.844198 273.278982 
L 267.636944 265.802791 
L 271.884084 247.802794 
L 273.266465 243.06376 
L 274.396915 239.934944 
L 275.359193 237.885398 
L 276.189661 236.605435 
L 276.913642 235.871411 
L 277.554511 235.520354 
L 278.144734 235.442401 
L 278.729114 235.591236 
L 279.35375 235.989294 
L 280.057603 236.716553 
L 280.514068 237.33491 
L 280.625749 274.039275 
L 281.554913 275.664404 
L 282.710036 278.16487 
L 284.363829 282.335932 
L 287.403251 290.033315 
L 288.616163 292.468249 
L 289.578441 293.934356 
L 290.379041 294.775885 
L 291.063414 295.19229 
L 291.671168 295.312384 
L 292.247756 295.20045 
L 292.839927 294.851259 
L 293.484043 294.199394 
L 294.206076 293.1335 
L 295.027454 291.500939 
L 295.97285 289.098006 
L 297.079275 285.642807 
L 298.426594 280.659083 
L 300.28492 272.846707 
L 304.206106 256.184053 
L 305.619005 251.256495 
L 306.767635 248.009086 
L 307.742899 245.877094 
L 308.584406 244.537117 
L 309.316828 243.761274 
L 309.96419 243.380635 
L 310.55766 243.280751 
L 311.140741 243.409148 
L 311.760183 243.782277 
L 312.455594 244.475481 
L 313.262687 245.613219 
L 314.228211 247.383306 
L 315.446318 250.115412 
L 317.33646 254.982358 
L 319.757739 261.087974 
L 320.997922 263.623838 
L 321.850466 264.981706 
L 321.962147 301.669047 
L 322.775733 302.559018 
L 323.469197 303.008452 
L 324.082146 303.152301 
L 324.659383 303.061184 
L 325.248307 302.736154 
L 325.88593 302.117147 
L 326.599522 301.096347 
L 327.410511 299.525163 
L 328.342921 297.205409 
L 329.431814 293.865171 
L 330.750564 289.056713 
L 332.530323 281.647776 
L 336.848887 263.357922 
L 338.224126 258.663017 
L 339.35068 255.561114 
L 340.309711 253.531499 
L 341.137582 252.265719 
L 341.858966 251.542072 
L 342.497887 251.197928 
L 343.08811 251.12489 
L 343.673139 251.278733 
L 344.299074 251.682931 
L 345.004875 252.418428 
L 345.826902 253.615859 
L 346.814503 255.47293 
L 348.072866 258.349285 
L 350.180528 263.825805 
L 352.2778 269.052096 
L 353.504997 271.538969 
L 354.475067 273.035338 
L 355.280861 273.896878 
L 355.96913 274.327208 
L 356.578832 274.457291 
L 357.156069 274.3541 
L 357.746942 274.015034 
L 358.38846 273.376843 
L 359.106598 272.330469 
L 359.92343 270.724271 
L 360.862982 268.357664 
L 361.962265 264.950534 
L 363.186215 260.477345 
L 363.186864 297.011397 
L 363.297896 296.576143 
L 365.121809 288.939336 
L 369.20727 271.599957 
L 370.605235 266.76487 
L 371.744775 263.576173 
L 372.713546 261.484839 
L 373.549858 260.17394 
L 374.278384 259.418441 
L 374.9225 259.052447 
L 375.514671 258.963386 
L 376.098401 259.101938 
L 376.720441 259.487438 
L 377.419748 260.197158 
L 378.233334 261.359405 
L 379.207949 263.164814 
L 380.441638 265.953479 
L 382.40775 271.036157 
L 384.697868 276.790495 
L 385.936103 279.318515 
L 386.912016 280.839033 
L 387.722356 281.7175 
L 388.413871 282.159392 
L 389.025522 282.297732 
L 389.602759 282.201797 
L 390.192333 281.871273 
L 390.831254 281.244994 
L 391.546794 280.213973 
L 392.36038 278.628393 
L 393.295387 276.29067 
L 394.388176 272.924756 
L 395.713419 268.076648 
L 397.510061 260.580268 
L 398.487273 256.282106 
L 398.487273 256.282106 
" clip-path="url(#p02309702c5)" style="fill: none; stroke: #1f77b4; stroke-width: 1.5; stroke-linecap: square"/>
   </g>
   <g id="patch_13">
    <path d="M 57.6 307.584 
L 57.6 229.315765 
" style="fill: none; stroke: #000000; stroke-width: 0.8; stroke-linejoin: miter; stroke-linecap: square"/>
   </g>
   <g id="patch_14">
    <path d="M 414.72 307.584 
L 414.72 229.315765 
" style="fill: none; stroke: #000000; stroke-width: 0.8; stroke-linejoin: miter; stroke-linecap: square"/>
   </g>
   <g id="patch_15">
    <path d="M 57.6 307.584 
L 414.72 307.584 
" style="fill: none; stroke: #000000; stroke-width: 0.8; stroke-linejoin: miter; stroke-linecap: square"/>
   </g>
   <g id="patch_16">
    <path d="M 57.6 229.315765 
L 414.72 229.315765 
" style="fill: none; stroke: #000000; stroke-width: 0.8; stroke-linejoin: miter; stroke-linecap: square"/>
   </g>
   <g id="text_30">
    <!-- Semnal Mixt -->
    <g transform="translate(199.014375 223.315765) scale(0.12 -0.12)">
     <defs>
      <path id="DejaVuSans-4d" d="M 628 4666 
L 1569 4666 
L 2759 1491 
L 3956 4666 
L 4897 4666 
L 4897 0 
L 4281 0 
L 4281 4097 
L 3078 897 
L 2444 897 
L 1241 4097 
L 1241 0 
L 628 0 
L 628 4666 
z
" transform="scale(0.015625)"/>
      <path id="DejaVuSans-78" d="M 3513 3500 
L 2247 1797 
L 3578 0 
L 2900 0 
L 1881 1375 
L 863 0 
L 184 0 
L 1544 1831 
L 300 3500 
L 978 3500 
L 1906 2253 
L 2834 3500 
L 3513 3500 
z
" transform="scale(0.015625)"/>
     </defs>
     <use xlink:href="#DejaVuSans-53"/>
     <use xlink:href="#DejaVuSans-65" x="63.476562"/>
     <use xlink:href="#DejaVuSans-6d" x="125"/>
     <use xlink:href="#DejaVuSans-6e" x="222.412109"/>
     <use xlink:href="#DejaVuSans-61" x="285.791016"/>
     <use xlink:href="#DejaVuSans-6c" x="347.070312"/>
     <use xlink:href="#DejaVuSans-20" x="374.853516"/>
     <use xlink:href="#DejaVuSans-4d" x="406.640625"/>
     <use xlink:href="#DejaVuSans-69" x="492.919922"/>
     <use xlink:href="#DejaVuSans-78" x="520.703125"/>
     <use xlink:href="#DejaVuSans-74" x="579.882812"/>
    </g>
   </g>
  </g>
 </g>
 <defs>
  <clipPath id="pcc24057875">
   <rect x="57.6" y="41.472" width="357.12" height="78.268235"/>
  </clipPath>
  <clipPath id="paa39c484b0">
   <rect x="57.6" y="135.393882" width="357.12" height="78.268235"/>
  </clipPath>
  <clipPath id="p02309702c5">
   <rect x="57.6" y="229.315765" width="357.12" height="78.268235"/>
  </clipPath>
 </defs>
</svg>
