<?xml version="1.0" encoding="utf-8" standalone="no"?>
<!DOCTYPE svg PUBLIC "-//W3C//DTD SVG 1.1//EN"
  "http://www.w3.org/Graphics/SVG/1.1/DTD/svg11.dtd">
<svg xmlns:xlink="http://www.w3.org/1999/xlink" width="460.8pt" height="345.6pt" viewBox="0 0 460.8 345.6" xmlns="http://www.w3.org/2000/svg" version="1.1">
 <metadata>
  <rdf:RDF xmlns:dc="http://purl.org/dc/elements/1.1/" xmlns:cc="http://creativecommons.org/ns#" xmlns:rdf="http://www.w3.org/1999/02/22-rdf-syntax-ns#">
   <cc:Work>
    <dc:type rdf:resource="http://purl.org/dc/dcmitype/StillImage"/>
    <dc:date>2024-11-10T19:17:12.567145</dc:date>
    <dc:format>image/svg+xml</dc:format>
    <dc:creator>
     <cc:Agent>
      <dc:title>Matplotlib v3.9.2, https://matplotlib.org/</dc:title>
     </cc:Agent>
    </dc:creator>
   </cc:Work>
  </rdf:RDF>
 </metadata>
 <defs>
  <style type="text/css">*{stroke-linejoin: round; stroke-linecap: butt}</style>
 </defs>
 <g id="figure_1">
  <g id="patch_1">
   <path d="M 0 345.6 
L 460.8 345.6 
L 460.8 0 
L 0 0 
z
" style="fill: #ffffff"/>
  </g>
  <g id="axes_1">
   <g id="patch_2">
    <path d="M 57.6 307.584 
L 414.72 307.584 
L 414.72 41.472 
L 57.6 41.472 
z
" style="fill: #ffffff"/>
   </g>
   <g id="matplotlib.axis_1">
    <g id="xtick_1">
     <g id="line2d_1">
      <defs>
       <path id="m4cb150aad5" d="M 0 0 
L 0 3.5 
" style="stroke: #000000; stroke-width: 0.8"/>
      </defs>
      <g>
       <use xlink:href="#m4cb150aad5" x="73.832727" y="307.584" style="stroke: #000000; stroke-width: 0.8"/>
      </g>
     </g>
     <g id="text_1">
      <!-- 0 -->
      <g transform="translate(70.651477 322.182437) scale(0.1 -0.1)">
       <defs>
        <path id="DejaVuSans-30" d="M 2034 4250 
Q 1547 4250 1301 3770 
Q 1056 3291 1056 2328 
Q 1056 1369 1301 889 
Q 1547 409 2034 409 
Q 2525 409 2770 889 
Q 3016 1369 3016 2328 
Q 3016 3291 2770 3770 
Q 2525 4250 2034 4250 
z
M 2034 4750 
Q 2819 4750 3233 4129 
Q 3647 3509 3647 2328 
Q 3647 1150 3233 529 
Q 2819 -91 2034 -91 
Q 1250 -91 836 529 
Q 422 1150 422 2328 
Q 422 3509 836 4129 
Q 1250 4750 2034 4750 
z
" transform="scale(0.015625)"/>
       </defs>
       <use xlink:href="#DejaVuSans-30"/>
      </g>
     </g>
    </g>
    <g id="xtick_2">
     <g id="line2d_2">
      <g>
       <use xlink:href="#m4cb150aad5" x="119.55872" y="307.584" style="stroke: #000000; stroke-width: 0.8"/>
      </g>
     </g>
     <g id="text_2">
      <!-- 10 -->
      <g transform="translate(113.19622 322.182437) scale(0.1 -0.1)">
       <defs>
        <path id="DejaVuSans-31" d="M 794 531 
L 1825 531 
L 1825 4091 
L 703 3866 
L 703 4441 
L 1819 4666 
L 2450 4666 
L 2450 531 
L 3481 531 
L 3481 0 
L 794 0 
L 794 531 
z
" transform="scale(0.015625)"/>
       </defs>
       <use xlink:href="#DejaVuSans-31"/>
       <use xlink:href="#DejaVuSans-30" x="63.623047"/>
      </g>
     </g>
    </g>
    <g id="xtick_3">
     <g id="line2d_3">
      <g>
       <use xlink:href="#m4cb150aad5" x="165.284712" y="307.584" style="stroke: #000000; stroke-width: 0.8"/>
      </g>
     </g>
     <g id="text_3">
      <!-- 20 -->
      <g transform="translate(158.922212 322.182437) scale(0.1 -0.1)">
       <defs>
        <path id="DejaVuSans-32" d="M 1228 531 
L 3431 531 
L 3431 0 
L 469 0 
L 469 531 
Q 828 903 1448 1529 
Q 2069 2156 2228 2338 
Q 2531 2678 2651 2914 
Q 2772 3150 2772 3378 
Q 2772 3750 2511 3984 
Q 2250 4219 1831 4219 
Q 1534 4219 1204 4116 
Q 875 4013 500 3803 
L 500 4441 
Q 881 4594 1212 4672 
Q 1544 4750 1819 4750 
Q 2544 4750 2975 4387 
Q 3406 4025 3406 3419 
Q 3406 3131 3298 2873 
Q 3191 2616 2906 2266 
Q 2828 2175 2409 1742 
Q 1991 1309 1228 531 
z
" transform="scale(0.015625)"/>
       </defs>
       <use xlink:href="#DejaVuSans-32"/>
       <use xlink:href="#DejaVuSans-30" x="63.623047"/>
      </g>
     </g>
    </g>
    <g id="xtick_4">
     <g id="line2d_4">
      <g>
       <use xlink:href="#m4cb150aad5" x="211.010704" y="307.584" style="stroke: #000000; stroke-width: 0.8"/>
      </g>
     </g>
     <g id="text_4">
      <!-- 30 -->
      <g transform="translate(204.648204 322.182437) scale(0.1 -0.1)">
       <defs>
        <path id="DejaVuSans-33" d="M 2597 2516 
Q 3050 2419 3304 2112 
Q 3559 1806 3559 1356 
Q 3559 666 3084 287 
Q 2609 -91 1734 -91 
Q 1441 -91 1130 -33 
Q 819 25 488 141 
L 488 750 
Q 750 597 1062 519 
Q 1375 441 1716 441 
Q 2309 441 2620 675 
Q 2931 909 2931 1356 
Q 2931 1769 2642 2001 
Q 2353 2234 1838 2234 
L 1294 2234 
L 1294 2753 
L 1863 2753 
Q 2328 2753 2575 2939 
Q 2822 3125 2822 3475 
Q 2822 3834 2567 4026 
Q 2313 4219 1838 4219 
Q 1578 4219 1281 4162 
Q 984 4106 628 3988 
L 628 4550 
Q 988 4650 1302 4700 
Q 1616 4750 1894 4750 
Q 2613 4750 3031 4423 
Q 3450 4097 3450 3541 
Q 3450 3153 3228 2886 
Q 3006 2619 2597 2516 
z
" transform="scale(0.015625)"/>
       </defs>
       <use xlink:href="#DejaVuSans-33"/>
       <use xlink:href="#DejaVuSans-30" x="63.623047"/>
      </g>
     </g>
    </g>
    <g id="xtick_5">
     <g id="line2d_5">
      <g>
       <use xlink:href="#m4cb150aad5" x="256.736697" y="307.584" style="stroke: #000000; stroke-width: 0.8"/>
      </g>
     </g>
     <g id="text_5">
      <!-- 40 -->
      <g transform="translate(250.374197 322.182437) scale(0.1 -0.1)">
       <defs>
        <path id="DejaVuSans-34" d="M 2419 4116 
L 825 1625 
L 2419 1625 
L 2419 4116 
z
M 2253 4666 
L 3047 4666 
L 3047 1625 
L 3713 1625 
L 3713 1100 
L 3047 1100 
L 3047 0 
L 2419 0 
L 2419 1100 
L 313 1100 
L 313 1709 
L 2253 4666 
z
" transform="scale(0.015625)"/>
       </defs>
       <use xlink:href="#DejaVuSans-34"/>
       <use xlink:href="#DejaVuSans-30" x="63.623047"/>
      </g>
     </g>
    </g>
    <g id="xtick_6">
     <g id="line2d_6">
      <g>
       <use xlink:href="#m4cb150aad5" x="302.462689" y="307.584" style="stroke: #000000; stroke-width: 0.8"/>
      </g>
     </g>
     <g id="text_6">
      <!-- 50 -->
      <g transform="translate(296.100189 322.182437) scale(0.1 -0.1)">
       <defs>
        <path id="DejaVuSans-35" d="M 691 4666 
L 3169 4666 
L 3169 4134 
L 1269 4134 
L 1269 2991 
Q 1406 3038 1543 3061 
Q 1681 3084 1819 3084 
Q 2600 3084 3056 2656 
Q 3513 2228 3513 1497 
Q 3513 744 3044 326 
Q 2575 -91 1722 -91 
Q 1428 -91 1123 -41 
Q 819 9 494 109 
L 494 744 
Q 775 591 1075 516 
Q 1375 441 1709 441 
Q 2250 441 2565 725 
Q 2881 1009 2881 1497 
Q 2881 1984 2565 2268 
Q 2250 2553 1709 2553 
Q 1456 2553 1204 2497 
Q 953 2441 691 2322 
L 691 4666 
z
" transform="scale(0.015625)"/>
       </defs>
       <use xlink:href="#DejaVuSans-35"/>
       <use xlink:href="#DejaVuSans-30" x="63.623047"/>
      </g>
     </g>
    </g>
    <g id="xtick_7">
     <g id="line2d_7">
      <g>
       <use xlink:href="#m4cb150aad5" x="348.188681" y="307.584" style="stroke: #000000; stroke-width: 0.8"/>
      </g>
     </g>
     <g id="text_7">
      <!-- 60 -->
      <g transform="translate(341.826181 322.182437) scale(0.1 -0.1)">
       <defs>
        <path id="DejaVuSans-36" d="M 2113 2584 
Q 1688 2584 1439 2293 
Q 1191 2003 1191 1497 
Q 1191 994 1439 701 
Q 1688 409 2113 409 
Q 2538 409 2786 701 
Q 3034 994 3034 1497 
Q 3034 2003 2786 2293 
Q 2538 2584 2113 2584 
z
M 3366 4563 
L 3366 3988 
Q 3128 4100 2886 4159 
Q 2644 4219 2406 4219 
Q 1781 4219 1451 3797 
Q 1122 3375 1075 2522 
Q 1259 2794 1537 2939 
Q 1816 3084 2150 3084 
Q 2853 3084 3261 2657 
Q 3669 2231 3669 1497 
Q 3669 778 3244 343 
Q 2819 -91 2113 -91 
Q 1303 -91 875 529 
Q 447 1150 447 2328 
Q 447 3434 972 4092 
Q 1497 4750 2381 4750 
Q 2619 4750 2861 4703 
Q 3103 4656 3366 4563 
z
" transform="scale(0.015625)"/>
       </defs>
       <use xlink:href="#DejaVuSans-36"/>
       <use xlink:href="#DejaVuSans-30" x="63.623047"/>
      </g>
     </g>
    </g>
    <g id="xtick_8">
     <g id="line2d_8">
      <g>
       <use xlink:href="#m4cb150aad5" x="393.914673" y="307.584" style="stroke: #000000; stroke-width: 0.8"/>
      </g>
     </g>
     <g id="text_8">
      <!-- 70 -->
      <g transform="translate(387.552173 322.182437) scale(0.1 -0.1)">
       <defs>
        <path id="DejaVuSans-37" d="M 525 4666 
L 3525 4666 
L 3525 4397 
L 1831 0 
L 1172 0 
L 2766 4134 
L 525 4134 
L 525 4666 
z
" transform="scale(0.015625)"/>
       </defs>
       <use xlink:href="#DejaVuSans-37"/>
       <use xlink:href="#DejaVuSans-30" x="63.623047"/>
      </g>
     </g>
    </g>
    <g id="text_9">
     <!-- Ore -->
     <g transform="translate(227.204531 335.860562) scale(0.1 -0.1)">
      <defs>
       <path id="DejaVuSans-4f" d="M 2522 4238 
Q 1834 4238 1429 3725 
Q 1025 3213 1025 2328 
Q 1025 1447 1429 934 
Q 1834 422 2522 422 
Q 3209 422 3611 934 
Q 4013 1447 4013 2328 
Q 4013 3213 3611 3725 
Q 3209 4238 2522 4238 
z
M 2522 4750 
Q 3503 4750 4090 4092 
Q 4678 3434 4678 2328 
Q 4678 1225 4090 567 
Q 3503 -91 2522 -91 
Q 1538 -91 948 565 
Q 359 1222 359 2328 
Q 359 3434 948 4092 
Q 1538 4750 2522 4750 
z
" transform="scale(0.015625)"/>
       <path id="DejaVuSans-72" d="M 2631 2963 
Q 2534 3019 2420 3045 
Q 2306 3072 2169 3072 
Q 1681 3072 1420 2755 
Q 1159 2438 1159 1844 
L 1159 0 
L 581 0 
L 581 3500 
L 1159 3500 
L 1159 2956 
Q 1341 3275 1631 3429 
Q 1922 3584 2338 3584 
Q 2397 3584 2469 3576 
Q 2541 3569 2628 3553 
L 2631 2963 
z
" transform="scale(0.015625)"/>
       <path id="DejaVuSans-65" d="M 3597 1894 
L 3597 1613 
L 953 1613 
Q 991 1019 1311 708 
Q 1631 397 2203 397 
Q 2534 397 2845 478 
Q 3156 559 3463 722 
L 3463 178 
Q 3153 47 2828 -22 
Q 2503 -91 2169 -91 
Q 1331 -91 842 396 
Q 353 884 353 1716 
Q 353 2575 817 3079 
Q 1281 3584 2069 3584 
Q 2775 3584 3186 3129 
Q 3597 2675 3597 1894 
z
M 3022 2063 
Q 3016 2534 2758 2815 
Q 2500 3097 2075 3097 
Q 1594 3097 1305 2825 
Q 1016 2553 972 2059 
L 3022 2063 
z
" transform="scale(0.015625)"/>
      </defs>
      <use xlink:href="#DejaVuSans-4f"/>
      <use xlink:href="#DejaVuSans-72" x="78.710938"/>
      <use xlink:href="#DejaVuSans-65" x="117.574219"/>
     </g>
    </g>
   </g>
   <g id="matplotlib.axis_2">
    <g id="ytick_1">
     <g id="line2d_9">
      <defs>
       <path id="m2b3ea4e8f5" d="M 0 0 
L -3.5 0 
" style="stroke: #000000; stroke-width: 0.8"/>
      </defs>
      <g>
       <use xlink:href="#m2b3ea4e8f5" x="57.6" y="285.642419" style="stroke: #000000; stroke-width: 0.8"/>
      </g>
     </g>
     <g id="text_10">
      <!-- 25 -->
      <g transform="translate(37.875 289.441637) scale(0.1 -0.1)">
       <use xlink:href="#DejaVuSans-32"/>
       <use xlink:href="#DejaVuSans-35" x="63.623047"/>
      </g>
     </g>
    </g>
    <g id="ytick_2">
     <g id="line2d_10">
      <g>
       <use xlink:href="#m2b3ea4e8f5" x="57.6" y="250.479628" style="stroke: #000000; stroke-width: 0.8"/>
      </g>
     </g>
     <g id="text_11">
      <!-- 50 -->
      <g transform="translate(37.875 254.278847) scale(0.1 -0.1)">
       <use xlink:href="#DejaVuSans-35"/>
       <use xlink:href="#DejaVuSans-30" x="63.623047"/>
      </g>
     </g>
    </g>
    <g id="ytick_3">
     <g id="line2d_11">
      <g>
       <use xlink:href="#m2b3ea4e8f5" x="57.6" y="215.316837" style="stroke: #000000; stroke-width: 0.8"/>
      </g>
     </g>
     <g id="text_12">
      <!-- 75 -->
      <g transform="translate(37.875 219.116056) scale(0.1 -0.1)">
       <use xlink:href="#DejaVuSans-37"/>
       <use xlink:href="#DejaVuSans-35" x="63.623047"/>
      </g>
     </g>
    </g>
    <g id="ytick_4">
     <g id="line2d_12">
      <g>
       <use xlink:href="#m2b3ea4e8f5" x="57.6" y="180.154047" style="stroke: #000000; stroke-width: 0.8"/>
      </g>
     </g>
     <g id="text_13">
      <!-- 100 -->
      <g transform="translate(31.5125 183.953265) scale(0.1 -0.1)">
       <use xlink:href="#DejaVuSans-31"/>
       <use xlink:href="#DejaVuSans-30" x="63.623047"/>
       <use xlink:href="#DejaVuSans-30" x="127.246094"/>
      </g>
     </g>
    </g>
    <g id="ytick_5">
     <g id="line2d_13">
      <g>
       <use xlink:href="#m2b3ea4e8f5" x="57.6" y="144.991256" style="stroke: #000000; stroke-width: 0.8"/>
      </g>
     </g>
     <g id="text_14">
      <!-- 125 -->
      <g transform="translate(31.5125 148.790475) scale(0.1 -0.1)">
       <use xlink:href="#DejaVuSans-31"/>
       <use xlink:href="#DejaVuSans-32" x="63.623047"/>
       <use xlink:href="#DejaVuSans-35" x="127.246094"/>
      </g>
     </g>
    </g>
    <g id="ytick_6">
     <g id="line2d_14">
      <g>
       <use xlink:href="#m2b3ea4e8f5" x="57.6" y="109.828465" style="stroke: #000000; stroke-width: 0.8"/>
      </g>
     </g>
     <g id="text_15">
      <!-- 150 -->
      <g transform="translate(31.5125 113.627684) scale(0.1 -0.1)">
       <use xlink:href="#DejaVuSans-31"/>
       <use xlink:href="#DejaVuSans-35" x="63.623047"/>
       <use xlink:href="#DejaVuSans-30" x="127.246094"/>
      </g>
     </g>
    </g>
    <g id="ytick_7">
     <g id="line2d_15">
      <g>
       <use xlink:href="#m2b3ea4e8f5" x="57.6" y="74.665674" style="stroke: #000000; stroke-width: 0.8"/>
      </g>
     </g>
     <g id="text_16">
      <!-- 175 -->
      <g transform="translate(31.5125 78.464893) scale(0.1 -0.1)">
       <use xlink:href="#DejaVuSans-31"/>
       <use xlink:href="#DejaVuSans-37" x="63.623047"/>
       <use xlink:href="#DejaVuSans-35" x="127.246094"/>
      </g>
     </g>
    </g>
    <g id="text_17">
     <!-- Masini -->
     <g transform="translate(25.432812 190.457687) rotate(-90) scale(0.1 -0.1)">
      <defs>
       <path id="DejaVuSans-4d" d="M 628 4666 
L 1569 4666 
L 2759 1491 
L 3956 4666 
L 4897 4666 
L 4897 0 
L 4281 0 
L 4281 4097 
L 3078 897 
L 2444 897 
L 1241 4097 
L 1241 0 
L 628 0 
L 628 4666 
z
" transform="scale(0.015625)"/>
       <path id="DejaVuSans-61" d="M 2194 1759 
Q 1497 1759 1228 1600 
Q 959 1441 959 1056 
Q 959 750 1161 570 
Q 1363 391 1709 391 
Q 2188 391 2477 730 
Q 2766 1069 2766 1631 
L 2766 1759 
L 2194 1759 
z
M 3341 1997 
L 3341 0 
L 2766 0 
L 2766 531 
Q 2569 213 2275 61 
Q 1981 -91 1556 -91 
Q 1019 -91 701 211 
Q 384 513 384 1019 
Q 384 1609 779 1909 
Q 1175 2209 1959 2209 
L 2766 2209 
L 2766 2266 
Q 2766 2663 2505 2880 
Q 2244 3097 1772 3097 
Q 1472 3097 1187 3025 
Q 903 2953 641 2809 
L 641 3341 
Q 956 3463 1253 3523 
Q 1550 3584 1831 3584 
Q 2591 3584 2966 3190 
Q 3341 2797 3341 1997 
z
" transform="scale(0.015625)"/>
       <path id="DejaVuSans-73" d="M 2834 3397 
L 2834 2853 
Q 2591 2978 2328 3040 
Q 2066 3103 1784 3103 
Q 1356 3103 1142 2972 
Q 928 2841 928 2578 
Q 928 2378 1081 2264 
Q 1234 2150 1697 2047 
L 1894 2003 
Q 2506 1872 2764 1633 
Q 3022 1394 3022 966 
Q 3022 478 2636 193 
Q 2250 -91 1575 -91 
Q 1294 -91 989 -36 
Q 684 19 347 128 
L 347 722 
Q 666 556 975 473 
Q 1284 391 1588 391 
Q 1994 391 2212 530 
Q 2431 669 2431 922 
Q 2431 1156 2273 1281 
Q 2116 1406 1581 1522 
L 1381 1569 
Q 847 1681 609 1914 
Q 372 2147 372 2553 
Q 372 3047 722 3315 
Q 1072 3584 1716 3584 
Q 2034 3584 2315 3537 
Q 2597 3491 2834 3397 
z
" transform="scale(0.015625)"/>
       <path id="DejaVuSans-69" d="M 603 3500 
L 1178 3500 
L 1178 0 
L 603 0 
L 603 3500 
z
M 603 4863 
L 1178 4863 
L 1178 4134 
L 603 4134 
L 603 4863 
z
" transform="scale(0.015625)"/>
       <path id="DejaVuSans-6e" d="M 3513 2113 
L 3513 0 
L 2938 0 
L 2938 2094 
Q 2938 2591 2744 2837 
Q 2550 3084 2163 3084 
Q 1697 3084 1428 2787 
Q 1159 2491 1159 1978 
L 1159 0 
L 581 0 
L 581 3500 
L 1159 3500 
L 1159 2956 
Q 1366 3272 1645 3428 
Q 1925 3584 2291 3584 
Q 2894 3584 3203 3211 
Q 3513 2838 3513 2113 
z
" transform="scale(0.015625)"/>
      </defs>
      <use xlink:href="#DejaVuSans-4d"/>
      <use xlink:href="#DejaVuSans-61" x="86.279297"/>
      <use xlink:href="#DejaVuSans-73" x="147.558594"/>
      <use xlink:href="#DejaVuSans-69" x="199.658203"/>
      <use xlink:href="#DejaVuSans-6e" x="227.441406"/>
      <use xlink:href="#DejaVuSans-69" x="290.820312"/>
     </g>
    </g>
   </g>
   <g id="line2d_16">
    <path d="M 73.832727 216.723349 
L 78.405327 258.918698 
L 82.977926 275.796837 
L 87.550525 289.861953 
L 92.123124 295.488 
L 96.695723 284.235907 
L 101.268323 275.796837 
L 105.840922 281.422884 
L 110.413521 275.796837 
L 114.98612 247.666605 
L 119.55872 264.544744 
L 124.131319 242.040558 
L 128.703918 211.097302 
L 133.276517 242.040558 
L 137.849117 267.357767 
L 142.421716 230.788465 
L 146.994315 230.788465 
L 151.566914 261.731721 
L 156.139513 244.853581 
L 160.712113 222.349395 
L 165.284712 213.910326 
L 169.857311 242.040558 
L 174.42991 253.292651 
L 179.00251 244.853581 
L 183.575109 225.162419 
L 188.147708 236.414512 
L 192.720307 242.040558 
L 197.292907 258.918698 
L 201.865506 275.796837 
L 206.438105 275.796837 
L 211.010704 267.357767 
L 215.583303 270.170791 
L 220.155903 253.292651 
L 224.728502 205.471256 
L 229.301101 98.576372 
L 233.8737 87.324279 
L 238.4463 78.885209 
L 243.018899 95.763349 
L 247.591498 53.568 
L 252.164097 84.511256 
L 256.736697 160.462884 
L 261.309296 107.015442 
L 265.881895 135.145674 
L 270.454494 95.763349 
L 275.027093 81.698233 
L 279.599693 166.08893 
L 284.172292 137.958698 
L 288.744891 152.023814 
L 293.31749 163.275907 
L 297.89009 191.40614 
L 302.462689 205.471256 
L 307.035288 242.040558 
L 311.607887 270.170791 
L 316.180487 284.235907 
L 320.753086 272.983814 
L 325.325685 270.170791 
L 329.898284 256.105674 
L 334.470883 244.853581 
L 339.043483 146.397767 
L 343.616082 177.341023 
L 348.188681 118.267535 
L 352.76128 143.584744 
L 357.33388 104.202419 
L 361.906479 135.145674 
L 366.479078 78.885209 
L 371.051677 98.576372 
L 375.624277 90.137302 
L 380.196876 107.015442 
L 384.769475 126.706605 
L 389.342074 163.275907 
L 393.914673 146.397767 
L 398.487273 118.267535 
" clip-path="url(#p9f89490afb)" style="fill: none; stroke: #1f77b4; stroke-width: 1.5; stroke-linecap: square"/>
   </g>
   <g id="line2d_17">
    <path d="M 73.832727 267.357767 
L 78.607059 280.860279 
L 83.38139 284.235907 
L 88.155722 285.361116 
L 92.930053 282.548093 
L 97.704385 272.983814 
L 102.478717 269.045581 
L 107.253048 262.294326 
L 112.02738 248.229209 
L 116.801711 241.477953 
L 121.576043 245.416186 
L 126.350374 238.66493 
L 131.124706 236.414512 
L 135.899037 246.541395 
L 140.673369 247.104 
L 145.447701 238.102326 
L 150.222032 234.726698 
L 154.996364 236.977116 
L 159.770695 235.289302 
L 164.545027 235.289302 
L 169.319358 235.851907 
L 174.09369 240.352744 
L 178.868021 240.352744 
L 183.642353 241.477953 
L 188.416684 247.666605 
L 193.191016 257.793488 
L 197.965348 263.98214 
L 202.739679 269.608186 
L 207.514011 268.482977 
L 212.288342 254.41786 
L 217.062674 218.973767 
L 221.837005 182.96707 
L 226.611337 144.709953 
L 231.385668 113.204093 
L 236.16 82.823442 
L 240.934332 80.010419 
L 245.708663 94.63814 
L 250.482995 100.264186 
L 255.257326 108.140651 
L 260.031658 116.579721 
L 264.805989 116.017116 
L 269.580321 117.142326 
L 274.354652 123.330977 
L 279.128984 126.706605 
L 283.903316 140.209116 
L 288.677647 162.150698 
L 293.451979 170.027163 
L 298.22631 190.843535 
L 303.000642 214.47293 
L 307.774973 238.66493 
L 312.549305 254.980465 
L 317.323636 267.920372 
L 322.097968 270.733395 
L 326.872299 265.669953 
L 331.646631 238.102326 
L 336.420963 218.973767 
L 341.195294 188.593116 
L 345.969626 166.08893 
L 350.743957 137.958698 
L 355.518289 135.708279 
L 360.29262 116.017116 
L 365.066952 112.078884 
L 369.841283 101.389395 
L 374.615615 101.952 
L 379.389947 100.264186 
L 384.164278 117.142326 
L 388.93861 126.706605 
L 393.712941 132.332651 
" clip-path="url(#p9f89490afb)" style="fill: none; stroke: #ff7f0e; stroke-width: 1.5; stroke-linecap: square"/>
   </g>
   <g id="line2d_18">
    <path d="M 73.832727 272.671256 
L 78.905455 276.109395 
L 83.978182 276.734512 
L 89.050909 272.983814 
L 94.123636 264.232186 
L 99.196364 258.293581 
L 104.269091 256.418233 
L 109.341818 251.417302 
L 114.414545 245.791256 
L 119.487273 244.228465 
L 124.56 243.915907 
L 129.632727 239.227535 
L 134.705455 236.101953 
L 139.778182 239.540093 
L 144.850909 240.790326 
L 149.923636 238.28986 
L 154.996364 237.664744 
L 160.069091 238.28986 
L 165.141818 236.101953 
L 170.214545 237.664744 
L 175.287273 243.603349 
L 180.36 250.479628 
L 185.432727 253.292651 
L 190.505455 255.168 
L 195.578182 256.105674 
L 200.650909 253.917767 
L 205.723636 238.602419 
L 210.796364 221.411721 
L 215.869091 201.408 
L 220.941818 181.404279 
L 226.014545 156.712186 
L 231.087273 136.395907 
L 236.16 124.20614 
L 241.232727 107.953116 
L 246.305455 100.139163 
L 251.378182 99.826605 
L 256.450909 99.201488 
L 261.523636 108.890791 
L 266.596364 113.579163 
L 271.669091 124.518698 
L 276.741818 133.270326 
L 281.814545 136.708465 
L 286.887273 147.648 
L 291.96 159.525209 
L 297.032727 178.903814 
L 302.105455 201.408 
L 307.178182 213.285209 
L 312.250909 227.975442 
L 317.323636 239.540093 
L 322.396364 248.604279 
L 327.469091 243.603349 
L 332.541818 240.477767 
L 337.614545 226.725209 
L 342.687273 212.660093 
L 347.76 192.656372 
L 352.832727 177.341023 
L 357.905455 156.08707 
L 362.978182 138.583814 
L 368.050909 121.393116 
L 373.123636 117.017302 
L 378.196364 111.391256 
L 383.269091 116.392186 
L 388.341818 116.704744 
L 393.414545 118.267535 
" clip-path="url(#p9f89490afb)" style="fill: none; stroke: #2ca02c; stroke-width: 1.5; stroke-linecap: square"/>
   </g>
   <g id="line2d_19">
    <path d="M 73.832727 263.030039 
L 79.243636 264.977517 
L 84.654545 265.626676 
L 90.065455 262.164494 
L 95.476364 257.620379 
L 100.887273 255.023742 
L 106.298182 251.994333 
L 111.709091 247.882991 
L 117.12 242.689717 
L 122.530909 240.093081 
L 127.941818 240.525853 
L 133.352727 239.011148 
L 138.763636 237.71283 
L 144.174545 239.660308 
L 149.585455 239.660308 
L 154.996364 239.011148 
L 160.407273 242.473331 
L 165.818182 245.935513 
L 171.229091 246.368286 
L 176.64 248.315764 
L 182.050909 250.696014 
L 187.461818 250.046855 
L 192.872727 239.011148 
L 198.283636 226.244351 
L 203.694545 213.477553 
L 209.105455 203.523778 
L 214.516364 189.458662 
L 219.927273 177.341023 
L 225.338182 169.767499 
L 230.749091 156.784315 
L 236.16 145.964995 
L 241.570909 132.765424 
L 246.981818 118.267535 
L 252.392727 111.559556 
L 257.803636 106.366283 
L 263.214545 110.477624 
L 268.625455 116.320057 
L 274.036364 124.975513 
L 279.447273 133.414583 
L 284.858182 147.912472 
L 290.269091 162.193975 
L 295.68 171.714977 
L 301.090909 184.481775 
L 306.501818 194.868322 
L 311.912727 207.202347 
L 317.323636 219.752758 
L 322.734545 218.238054 
L 328.145455 221.267463 
L 333.556364 218.670826 
L 338.967273 217.156122 
L 344.378182 210.448143 
L 349.789091 205.038483 
L 355.2 192.488072 
L 360.610909 179.288501 
L 366.021818 164.357839 
L 371.432727 151.591041 
L 376.843636 140.555335 
L 382.254545 133.414583 
L 387.665455 125.841059 
L 393.076364 123.677195 
" clip-path="url(#p9f89490afb)" style="fill: none; stroke: #d62728; stroke-width: 1.5; stroke-linecap: square"/>
   </g>
   <g id="line2d_20">
    <path d="M 73.832727 258.25681 
L 79.63013 260.904361 
L 85.427532 260.077001 
L 91.224935 256.933034 
L 97.022338 252.465291 
L 102.81974 249.321324 
L 108.617143 247.501133 
L 114.414545 245.680941 
L 120.211948 242.371502 
L 126.009351 240.054895 
L 131.806753 239.723951 
L 137.604156 239.393007 
L 143.401558 241.37867 
L 149.198961 245.184525 
L 154.996364 246.673773 
L 160.793766 246.839245 
L 166.591169 248.163021 
L 172.388571 246.673773 
L 178.185974 237.076399 
L 183.983377 227.80997 
L 189.780779 219.3709 
L 195.578182 212.421078 
L 201.375584 201.334457 
L 207.172987 191.40614 
L 212.97039 186.441981 
L 218.767792 179.492159 
L 224.565195 173.535168 
L 230.362597 164.930627 
L 236.16 154.505893 
L 241.957403 148.052487 
L 247.754805 139.944361 
L 253.552208 133.160011 
L 259.34961 126.872077 
L 265.147013 123.231694 
L 270.944416 123.231694 
L 276.741818 131.670763 
L 282.539221 142.42644 
L 288.336623 154.505893 
L 294.134026 164.930627 
L 299.931429 177.671967 
L 305.728831 187.765756 
L 311.526234 192.729915 
L 317.323636 195.046523 
L 323.121039 197.528602 
L 328.918442 198.852378 
L 334.715844 202.492761 
L 340.513247 198.852378 
L 346.310649 198.686906 
L 352.108052 194.384635 
L 357.905455 190.57878 
L 363.702857 184.621789 
L 369.50026 178.830271 
L 375.297662 172.045921 
L 381.095065 165.757986 
L 386.892468 157.64986 
L 392.68987 148.548903 
" clip-path="url(#p9f89490afb)" style="fill: none; stroke: #9467bd; stroke-width: 1.5; stroke-linecap: square"/>
   </g>
   <g id="patch_3">
    <path d="M 57.6 307.584 
L 57.6 41.472 
" style="fill: none; stroke: #000000; stroke-width: 0.8; stroke-linejoin: miter; stroke-linecap: square"/>
   </g>
   <g id="patch_4">
    <path d="M 414.72 307.584 
L 414.72 41.472 
" style="fill: none; stroke: #000000; stroke-width: 0.8; stroke-linejoin: miter; stroke-linecap: square"/>
   </g>
   <g id="patch_5">
    <path d="M 57.6 307.584 
L 414.72 307.584 
" style="fill: none; stroke: #000000; stroke-width: 0.8; stroke-linejoin: miter; stroke-linecap: square"/>
   </g>
   <g id="patch_6">
    <path d="M 57.6 41.472 
L 414.72 41.472 
" style="fill: none; stroke: #000000; stroke-width: 0.8; stroke-linejoin: miter; stroke-linecap: square"/>
   </g>
   <g id="text_18">
    <!-- Filtrarea semnalului cu Rolling Average Filter -->
    <g transform="translate(102.549375 35.472) scale(0.12 -0.12)">
     <defs>
      <path id="DejaVuSans-46" d="M 628 4666 
L 3309 4666 
L 3309 4134 
L 1259 4134 
L 1259 2759 
L 3109 2759 
L 3109 2228 
L 1259 2228 
L 1259 0 
L 628 0 
L 628 4666 
z
" transform="scale(0.015625)"/>
      <path id="DejaVuSans-6c" d="M 603 4863 
L 1178 4863 
L 1178 0 
L 603 0 
L 603 4863 
z
" transform="scale(0.015625)"/>
      <path id="DejaVuSans-74" d="M 1172 4494 
L 1172 3500 
L 2356 3500 
L 2356 3053 
L 1172 3053 
L 1172 1153 
Q 1172 725 1289 603 
Q 1406 481 1766 481 
L 2356 481 
L 2356 0 
L 1766 0 
Q 1100 0 847 248 
Q 594 497 594 1153 
L 594 3053 
L 172 3053 
L 172 3500 
L 594 3500 
L 594 4494 
L 1172 4494 
z
" transform="scale(0.015625)"/>
      <path id="DejaVuSans-20" transform="scale(0.015625)"/>
      <path id="DejaVuSans-6d" d="M 3328 2828 
Q 3544 3216 3844 3400 
Q 4144 3584 4550 3584 
Q 5097 3584 5394 3201 
Q 5691 2819 5691 2113 
L 5691 0 
L 5113 0 
L 5113 2094 
Q 5113 2597 4934 2840 
Q 4756 3084 4391 3084 
Q 3944 3084 3684 2787 
Q 3425 2491 3425 1978 
L 3425 0 
L 2847 0 
L 2847 2094 
Q 2847 2600 2669 2842 
Q 2491 3084 2119 3084 
Q 1678 3084 1418 2786 
Q 1159 2488 1159 1978 
L 1159 0 
L 581 0 
L 581 3500 
L 1159 3500 
L 1159 2956 
Q 1356 3278 1631 3431 
Q 1906 3584 2284 3584 
Q 2666 3584 2933 3390 
Q 3200 3197 3328 2828 
z
" transform="scale(0.015625)"/>
      <path id="DejaVuSans-75" d="M 544 1381 
L 544 3500 
L 1119 3500 
L 1119 1403 
Q 1119 906 1312 657 
Q 1506 409 1894 409 
Q 2359 409 2629 706 
Q 2900 1003 2900 1516 
L 2900 3500 
L 3475 3500 
L 3475 0 
L 2900 0 
L 2900 538 
Q 2691 219 2414 64 
Q 2138 -91 1772 -91 
Q 1169 -91 856 284 
Q 544 659 544 1381 
z
M 1991 3584 
L 1991 3584 
z
" transform="scale(0.015625)"/>
      <path id="DejaVuSans-63" d="M 3122 3366 
L 3122 2828 
Q 2878 2963 2633 3030 
Q 2388 3097 2138 3097 
Q 1578 3097 1268 2742 
Q 959 2388 959 1747 
Q 959 1106 1268 751 
Q 1578 397 2138 397 
Q 2388 397 2633 464 
Q 2878 531 3122 666 
L 3122 134 
Q 2881 22 2623 -34 
Q 2366 -91 2075 -91 
Q 1284 -91 818 406 
Q 353 903 353 1747 
Q 353 2603 823 3093 
Q 1294 3584 2113 3584 
Q 2378 3584 2631 3529 
Q 2884 3475 3122 3366 
z
" transform="scale(0.015625)"/>
      <path id="DejaVuSans-52" d="M 2841 2188 
Q 3044 2119 3236 1894 
Q 3428 1669 3622 1275 
L 4263 0 
L 3584 0 
L 2988 1197 
Q 2756 1666 2539 1819 
Q 2322 1972 1947 1972 
L 1259 1972 
L 1259 0 
L 628 0 
L 628 4666 
L 2053 4666 
Q 2853 4666 3247 4331 
Q 3641 3997 3641 3322 
Q 3641 2881 3436 2590 
Q 3231 2300 2841 2188 
z
M 1259 4147 
L 1259 2491 
L 2053 2491 
Q 2509 2491 2742 2702 
Q 2975 2913 2975 3322 
Q 2975 3731 2742 3939 
Q 2509 4147 2053 4147 
L 1259 4147 
z
" transform="scale(0.015625)"/>
      <path id="DejaVuSans-6f" d="M 1959 3097 
Q 1497 3097 1228 2736 
Q 959 2375 959 1747 
Q 959 1119 1226 758 
Q 1494 397 1959 397 
Q 2419 397 2687 759 
Q 2956 1122 2956 1747 
Q 2956 2369 2687 2733 
Q 2419 3097 1959 3097 
z
M 1959 3584 
Q 2709 3584 3137 3096 
Q 3566 2609 3566 1747 
Q 3566 888 3137 398 
Q 2709 -91 1959 -91 
Q 1206 -91 779 398 
Q 353 888 353 1747 
Q 353 2609 779 3096 
Q 1206 3584 1959 3584 
z
" transform="scale(0.015625)"/>
      <path id="DejaVuSans-67" d="M 2906 1791 
Q 2906 2416 2648 2759 
Q 2391 3103 1925 3103 
Q 1463 3103 1205 2759 
Q 947 2416 947 1791 
Q 947 1169 1205 825 
Q 1463 481 1925 481 
Q 2391 481 2648 825 
Q 2906 1169 2906 1791 
z
M 3481 434 
Q 3481 -459 3084 -895 
Q 2688 -1331 1869 -1331 
Q 1566 -1331 1297 -1286 
Q 1028 -1241 775 -1147 
L 775 -588 
Q 1028 -725 1275 -790 
Q 1522 -856 1778 -856 
Q 2344 -856 2625 -561 
Q 2906 -266 2906 331 
L 2906 616 
Q 2728 306 2450 153 
Q 2172 0 1784 0 
Q 1141 0 747 490 
Q 353 981 353 1791 
Q 353 2603 747 3093 
Q 1141 3584 1784 3584 
Q 2172 3584 2450 3431 
Q 2728 3278 2906 2969 
L 2906 3500 
L 3481 3500 
L 3481 434 
z
" transform="scale(0.015625)"/>
      <path id="DejaVuSans-41" d="M 2188 4044 
L 1331 1722 
L 3047 1722 
L 2188 4044 
z
M 1831 4666 
L 2547 4666 
L 4325 0 
L 3669 0 
L 3244 1197 
L 1141 1197 
L 716 0 
L 50 0 
L 1831 4666 
z
" transform="scale(0.015625)"/>
      <path id="DejaVuSans-76" d="M 191 3500 
L 800 3500 
L 1894 563 
L 2988 3500 
L 3597 3500 
L 2284 0 
L 1503 0 
L 191 3500 
z
" transform="scale(0.015625)"/>
     </defs>
     <use xlink:href="#DejaVuSans-46"/>
     <use xlink:href="#DejaVuSans-69" x="50.269531"/>
     <use xlink:href="#DejaVuSans-6c" x="78.052734"/>
     <use xlink:href="#DejaVuSans-74" x="105.835938"/>
     <use xlink:href="#DejaVuSans-72" x="145.044922"/>
     <use xlink:href="#DejaVuSans-61" x="186.158203"/>
     <use xlink:href="#DejaVuSans-72" x="247.4375"/>
     <use xlink:href="#DejaVuSans-65" x="286.300781"/>
     <use xlink:href="#DejaVuSans-61" x="347.824219"/>
     <use xlink:href="#DejaVuSans-20" x="409.103516"/>
     <use xlink:href="#DejaVuSans-73" x="440.890625"/>
     <use xlink:href="#DejaVuSans-65" x="492.990234"/>
     <use xlink:href="#DejaVuSans-6d" x="554.513672"/>
     <use xlink:href="#DejaVuSans-6e" x="651.925781"/>
     <use xlink:href="#DejaVuSans-61" x="715.304688"/>
     <use xlink:href="#DejaVuSans-6c" x="776.583984"/>
     <use xlink:href="#DejaVuSans-75" x="804.367188"/>
     <use xlink:href="#DejaVuSans-6c" x="867.746094"/>
     <use xlink:href="#DejaVuSans-75" x="895.529297"/>
     <use xlink:href="#DejaVuSans-69" x="958.908203"/>
     <use xlink:href="#DejaVuSans-20" x="986.691406"/>
     <use xlink:href="#DejaVuSans-63" x="1018.478516"/>
     <use xlink:href="#DejaVuSans-75" x="1073.458984"/>
     <use xlink:href="#DejaVuSans-20" x="1136.837891"/>
     <use xlink:href="#DejaVuSans-52" x="1168.625"/>
     <use xlink:href="#DejaVuSans-6f" x="1233.607422"/>
     <use xlink:href="#DejaVuSans-6c" x="1294.789062"/>
     <use xlink:href="#DejaVuSans-6c" x="1322.572266"/>
     <use xlink:href="#DejaVuSans-69" x="1350.355469"/>
     <use xlink:href="#DejaVuSans-6e" x="1378.138672"/>
     <use xlink:href="#DejaVuSans-67" x="1441.517578"/>
     <use xlink:href="#DejaVuSans-20" x="1504.994141"/>
     <use xlink:href="#DejaVuSans-41" x="1536.78125"/>
     <use xlink:href="#DejaVuSans-76" x="1599.314453"/>
     <use xlink:href="#DejaVuSans-65" x="1658.494141"/>
     <use xlink:href="#DejaVuSans-72" x="1720.017578"/>
     <use xlink:href="#DejaVuSans-61" x="1761.130859"/>
     <use xlink:href="#DejaVuSans-67" x="1822.410156"/>
     <use xlink:href="#DejaVuSans-65" x="1885.886719"/>
     <use xlink:href="#DejaVuSans-20" x="1947.410156"/>
     <use xlink:href="#DejaVuSans-46" x="1979.197266"/>
     <use xlink:href="#DejaVuSans-69" x="2029.466797"/>
     <use xlink:href="#DejaVuSans-6c" x="2057.25"/>
     <use xlink:href="#DejaVuSans-74" x="2085.033203"/>
     <use xlink:href="#DejaVuSans-65" x="2124.242188"/>
     <use xlink:href="#DejaVuSans-72" x="2185.765625"/>
    </g>
   </g>
   <g id="legend_1">
    <g id="patch_7">
     <path d="M 64.6 122.862625 
L 285.73125 122.862625 
Q 287.73125 122.862625 287.73125 120.862625 
L 287.73125 48.472 
Q 287.73125 46.472 285.73125 46.472 
L 64.6 46.472 
Q 62.6 46.472 62.6 48.472 
L 62.6 120.862625 
Q 62.6 122.862625 64.6 122.862625 
z
" style="fill: #ffffff; opacity: 0.8; stroke: #cccccc; stroke-linejoin: miter"/>
    </g>
    <g id="line2d_21">
     <path d="M 66.6 54.570438 
L 76.6 54.570438 
L 86.6 54.570438 
" style="fill: none; stroke: #1f77b4; stroke-width: 1.5; stroke-linecap: square"/>
    </g>
    <g id="text_19">
     <!-- Semnal initial -->
     <g transform="translate(94.6 58.070438) scale(0.1 -0.1)">
      <defs>
       <path id="DejaVuSans-53" d="M 3425 4513 
L 3425 3897 
Q 3066 4069 2747 4153 
Q 2428 4238 2131 4238 
Q 1616 4238 1336 4038 
Q 1056 3838 1056 3469 
Q 1056 3159 1242 3001 
Q 1428 2844 1947 2747 
L 2328 2669 
Q 3034 2534 3370 2195 
Q 3706 1856 3706 1288 
Q 3706 609 3251 259 
Q 2797 -91 1919 -91 
Q 1588 -91 1214 -16 
Q 841 59 441 206 
L 441 856 
Q 825 641 1194 531 
Q 1563 422 1919 422 
Q 2459 422 2753 634 
Q 3047 847 3047 1241 
Q 3047 1584 2836 1778 
Q 2625 1972 2144 2069 
L 1759 2144 
Q 1053 2284 737 2584 
Q 422 2884 422 3419 
Q 422 4038 858 4394 
Q 1294 4750 2059 4750 
Q 2388 4750 2728 4690 
Q 3069 4631 3425 4513 
z
" transform="scale(0.015625)"/>
      </defs>
      <use xlink:href="#DejaVuSans-53"/>
      <use xlink:href="#DejaVuSans-65" x="63.476562"/>
      <use xlink:href="#DejaVuSans-6d" x="125"/>
      <use xlink:href="#DejaVuSans-6e" x="222.412109"/>
      <use xlink:href="#DejaVuSans-61" x="285.791016"/>
      <use xlink:href="#DejaVuSans-6c" x="347.070312"/>
      <use xlink:href="#DejaVuSans-20" x="374.853516"/>
      <use xlink:href="#DejaVuSans-69" x="406.640625"/>
      <use xlink:href="#DejaVuSans-6e" x="434.423828"/>
      <use xlink:href="#DejaVuSans-69" x="497.802734"/>
      <use xlink:href="#DejaVuSans-74" x="525.585938"/>
      <use xlink:href="#DejaVuSans-69" x="564.794922"/>
      <use xlink:href="#DejaVuSans-61" x="592.578125"/>
      <use xlink:href="#DejaVuSans-6c" x="653.857422"/>
     </g>
    </g>
    <g id="line2d_22">
     <path d="M 66.6 69.248563 
L 76.6 69.248563 
L 86.6 69.248563 
" style="fill: none; stroke: #ff7f0e; stroke-width: 1.5; stroke-linecap: square"/>
    </g>
    <g id="text_20">
     <!-- Semnal filtrat cu dimensiunea w = 5 -->
     <g transform="translate(94.6 72.748563) scale(0.1 -0.1)">
      <defs>
       <path id="DejaVuSans-66" d="M 2375 4863 
L 2375 4384 
L 1825 4384 
Q 1516 4384 1395 4259 
Q 1275 4134 1275 3809 
L 1275 3500 
L 2222 3500 
L 2222 3053 
L 1275 3053 
L 1275 0 
L 697 0 
L 697 3053 
L 147 3053 
L 147 3500 
L 697 3500 
L 697 3744 
Q 697 4328 969 4595 
Q 1241 4863 1831 4863 
L 2375 4863 
z
" transform="scale(0.015625)"/>
       <path id="DejaVuSans-64" d="M 2906 2969 
L 2906 4863 
L 3481 4863 
L 3481 0 
L 2906 0 
L 2906 525 
Q 2725 213 2448 61 
Q 2172 -91 1784 -91 
Q 1150 -91 751 415 
Q 353 922 353 1747 
Q 353 2572 751 3078 
Q 1150 3584 1784 3584 
Q 2172 3584 2448 3432 
Q 2725 3281 2906 2969 
z
M 947 1747 
Q 947 1113 1208 752 
Q 1469 391 1925 391 
Q 2381 391 2643 752 
Q 2906 1113 2906 1747 
Q 2906 2381 2643 2742 
Q 2381 3103 1925 3103 
Q 1469 3103 1208 2742 
Q 947 2381 947 1747 
z
" transform="scale(0.015625)"/>
       <path id="DejaVuSans-77" d="M 269 3500 
L 844 3500 
L 1563 769 
L 2278 3500 
L 2956 3500 
L 3675 769 
L 4391 3500 
L 4966 3500 
L 4050 0 
L 3372 0 
L 2619 2869 
L 1863 0 
L 1184 0 
L 269 3500 
z
" transform="scale(0.015625)"/>
       <path id="DejaVuSans-3d" d="M 678 2906 
L 4684 2906 
L 4684 2381 
L 678 2381 
L 678 2906 
z
M 678 1631 
L 4684 1631 
L 4684 1100 
L 678 1100 
L 678 1631 
z
" transform="scale(0.015625)"/>
      </defs>
      <use xlink:href="#DejaVuSans-53"/>
      <use xlink:href="#DejaVuSans-65" x="63.476562"/>
      <use xlink:href="#DejaVuSans-6d" x="125"/>
      <use xlink:href="#DejaVuSans-6e" x="222.412109"/>
      <use xlink:href="#DejaVuSans-61" x="285.791016"/>
      <use xlink:href="#DejaVuSans-6c" x="347.070312"/>
      <use xlink:href="#DejaVuSans-20" x="374.853516"/>
      <use xlink:href="#DejaVuSans-66" x="406.640625"/>
      <use xlink:href="#DejaVuSans-69" x="441.845703"/>
      <use xlink:href="#DejaVuSans-6c" x="469.628906"/>
      <use xlink:href="#DejaVuSans-74" x="497.412109"/>
      <use xlink:href="#DejaVuSans-72" x="536.621094"/>
      <use xlink:href="#DejaVuSans-61" x="577.734375"/>
      <use xlink:href="#DejaVuSans-74" x="639.013672"/>
      <use xlink:href="#DejaVuSans-20" x="678.222656"/>
      <use xlink:href="#DejaVuSans-63" x="710.009766"/>
      <use xlink:href="#DejaVuSans-75" x="764.990234"/>
      <use xlink:href="#DejaVuSans-20" x="828.369141"/>
      <use xlink:href="#DejaVuSans-64" x="860.15625"/>
      <use xlink:href="#DejaVuSans-69" x="923.632812"/>
      <use xlink:href="#DejaVuSans-6d" x="951.416016"/>
      <use xlink:href="#DejaVuSans-65" x="1048.828125"/>
      <use xlink:href="#DejaVuSans-6e" x="1110.351562"/>
      <use xlink:href="#DejaVuSans-73" x="1173.730469"/>
      <use xlink:href="#DejaVuSans-69" x="1225.830078"/>
      <use xlink:href="#DejaVuSans-75" x="1253.613281"/>
      <use xlink:href="#DejaVuSans-6e" x="1316.992188"/>
      <use xlink:href="#DejaVuSans-65" x="1380.371094"/>
      <use xlink:href="#DejaVuSans-61" x="1441.894531"/>
      <use xlink:href="#DejaVuSans-20" x="1503.173828"/>
      <use xlink:href="#DejaVuSans-77" x="1534.960938"/>
      <use xlink:href="#DejaVuSans-20" x="1616.748047"/>
      <use xlink:href="#DejaVuSans-3d" x="1648.535156"/>
      <use xlink:href="#DejaVuSans-20" x="1732.324219"/>
      <use xlink:href="#DejaVuSans-35" x="1764.111328"/>
     </g>
    </g>
    <g id="line2d_23">
     <path d="M 66.6 83.926688 
L 76.6 83.926688 
L 86.6 83.926688 
" style="fill: none; stroke: #2ca02c; stroke-width: 1.5; stroke-linecap: square"/>
    </g>
    <g id="text_21">
     <!-- Semnal filtrat cu dimensiunea w = 9 -->
     <g transform="translate(94.6 87.426688) scale(0.1 -0.1)">
      <defs>
       <path id="DejaVuSans-39" d="M 703 97 
L 703 672 
Q 941 559 1184 500 
Q 1428 441 1663 441 
Q 2288 441 2617 861 
Q 2947 1281 2994 2138 
Q 2813 1869 2534 1725 
Q 2256 1581 1919 1581 
Q 1219 1581 811 2004 
Q 403 2428 403 3163 
Q 403 3881 828 4315 
Q 1253 4750 1959 4750 
Q 2769 4750 3195 4129 
Q 3622 3509 3622 2328 
Q 3622 1225 3098 567 
Q 2575 -91 1691 -91 
Q 1453 -91 1209 -44 
Q 966 3 703 97 
z
M 1959 2075 
Q 2384 2075 2632 2365 
Q 2881 2656 2881 3163 
Q 2881 3666 2632 3958 
Q 2384 4250 1959 4250 
Q 1534 4250 1286 3958 
Q 1038 3666 1038 3163 
Q 1038 2656 1286 2365 
Q 1534 2075 1959 2075 
z
" transform="scale(0.015625)"/>
      </defs>
      <use xlink:href="#DejaVuSans-53"/>
      <use xlink:href="#DejaVuSans-65" x="63.476562"/>
      <use xlink:href="#DejaVuSans-6d" x="125"/>
      <use xlink:href="#DejaVuSans-6e" x="222.412109"/>
      <use xlink:href="#DejaVuSans-61" x="285.791016"/>
      <use xlink:href="#DejaVuSans-6c" x="347.070312"/>
      <use xlink:href="#DejaVuSans-20" x="374.853516"/>
      <use xlink:href="#DejaVuSans-66" x="406.640625"/>
      <use xlink:href="#DejaVuSans-69" x="441.845703"/>
      <use xlink:href="#DejaVuSans-6c" x="469.628906"/>
      <use xlink:href="#DejaVuSans-74" x="497.412109"/>
      <use xlink:href="#DejaVuSans-72" x="536.621094"/>
      <use xlink:href="#DejaVuSans-61" x="577.734375"/>
      <use xlink:href="#DejaVuSans-74" x="639.013672"/>
      <use xlink:href="#DejaVuSans-20" x="678.222656"/>
      <use xlink:href="#DejaVuSans-63" x="710.009766"/>
      <use xlink:href="#DejaVuSans-75" x="764.990234"/>
      <use xlink:href="#DejaVuSans-20" x="828.369141"/>
      <use xlink:href="#DejaVuSans-64" x="860.15625"/>
      <use xlink:href="#DejaVuSans-69" x="923.632812"/>
      <use xlink:href="#DejaVuSans-6d" x="951.416016"/>
      <use xlink:href="#DejaVuSans-65" x="1048.828125"/>
      <use xlink:href="#DejaVuSans-6e" x="1110.351562"/>
      <use xlink:href="#DejaVuSans-73" x="1173.730469"/>
      <use xlink:href="#DejaVuSans-69" x="1225.830078"/>
      <use xlink:href="#DejaVuSans-75" x="1253.613281"/>
      <use xlink:href="#DejaVuSans-6e" x="1316.992188"/>
      <use xlink:href="#DejaVuSans-65" x="1380.371094"/>
      <use xlink:href="#DejaVuSans-61" x="1441.894531"/>
      <use xlink:href="#DejaVuSans-20" x="1503.173828"/>
      <use xlink:href="#DejaVuSans-77" x="1534.960938"/>
      <use xlink:href="#DejaVuSans-20" x="1616.748047"/>
      <use xlink:href="#DejaVuSans-3d" x="1648.535156"/>
      <use xlink:href="#DejaVuSans-20" x="1732.324219"/>
      <use xlink:href="#DejaVuSans-39" x="1764.111328"/>
     </g>
    </g>
    <g id="line2d_24">
     <path d="M 66.6 98.604813 
L 76.6 98.604813 
L 86.6 98.604813 
" style="fill: none; stroke: #d62728; stroke-width: 1.5; stroke-linecap: square"/>
    </g>
    <g id="text_22">
     <!-- Semnal filtrat cu dimensiunea w = 13 -->
     <g transform="translate(94.6 102.104813) scale(0.1 -0.1)">
      <use xlink:href="#DejaVuSans-53"/>
      <use xlink:href="#DejaVuSans-65" x="63.476562"/>
      <use xlink:href="#DejaVuSans-6d" x="125"/>
      <use xlink:href="#DejaVuSans-6e" x="222.412109"/>
      <use xlink:href="#DejaVuSans-61" x="285.791016"/>
      <use xlink:href="#DejaVuSans-6c" x="347.070312"/>
      <use xlink:href="#DejaVuSans-20" x="374.853516"/>
      <use xlink:href="#DejaVuSans-66" x="406.640625"/>
      <use xlink:href="#DejaVuSans-69" x="441.845703"/>
      <use xlink:href="#DejaVuSans-6c" x="469.628906"/>
      <use xlink:href="#DejaVuSans-74" x="497.412109"/>
      <use xlink:href="#DejaVuSans-72" x="536.621094"/>
      <use xlink:href="#DejaVuSans-61" x="577.734375"/>
      <use xlink:href="#DejaVuSans-74" x="639.013672"/>
      <use xlink:href="#DejaVuSans-20" x="678.222656"/>
      <use xlink:href="#DejaVuSans-63" x="710.009766"/>
      <use xlink:href="#DejaVuSans-75" x="764.990234"/>
      <use xlink:href="#DejaVuSans-20" x="828.369141"/>
      <use xlink:href="#DejaVuSans-64" x="860.15625"/>
      <use xlink:href="#DejaVuSans-69" x="923.632812"/>
      <use xlink:href="#DejaVuSans-6d" x="951.416016"/>
      <use xlink:href="#DejaVuSans-65" x="1048.828125"/>
      <use xlink:href="#DejaVuSans-6e" x="1110.351562"/>
      <use xlink:href="#DejaVuSans-73" x="1173.730469"/>
      <use xlink:href="#DejaVuSans-69" x="1225.830078"/>
      <use xlink:href="#DejaVuSans-75" x="1253.613281"/>
      <use xlink:href="#DejaVuSans-6e" x="1316.992188"/>
      <use xlink:href="#DejaVuSans-65" x="1380.371094"/>
      <use xlink:href="#DejaVuSans-61" x="1441.894531"/>
      <use xlink:href="#DejaVuSans-20" x="1503.173828"/>
      <use xlink:href="#DejaVuSans-77" x="1534.960938"/>
      <use xlink:href="#DejaVuSans-20" x="1616.748047"/>
      <use xlink:href="#DejaVuSans-3d" x="1648.535156"/>
      <use xlink:href="#DejaVuSans-20" x="1732.324219"/>
      <use xlink:href="#DejaVuSans-31" x="1764.111328"/>
      <use xlink:href="#DejaVuSans-33" x="1827.734375"/>
     </g>
    </g>
    <g id="line2d_25">
     <path d="M 66.6 113.282938 
L 76.6 113.282938 
L 86.6 113.282938 
" style="fill: none; stroke: #9467bd; stroke-width: 1.5; stroke-linecap: square"/>
    </g>
    <g id="text_23">
     <!-- Semnal filtrat cu dimensiunea w = 17 -->
     <g transform="translate(94.6 116.782938) scale(0.1 -0.1)">
      <use xlink:href="#DejaVuSans-53"/>
      <use xlink:href="#DejaVuSans-65" x="63.476562"/>
      <use xlink:href="#DejaVuSans-6d" x="125"/>
      <use xlink:href="#DejaVuSans-6e" x="222.412109"/>
      <use xlink:href="#DejaVuSans-61" x="285.791016"/>
      <use xlink:href="#DejaVuSans-6c" x="347.070312"/>
      <use xlink:href="#DejaVuSans-20" x="374.853516"/>
      <use xlink:href="#DejaVuSans-66" x="406.640625"/>
      <use xlink:href="#DejaVuSans-69" x="441.845703"/>
      <use xlink:href="#DejaVuSans-6c" x="469.628906"/>
      <use xlink:href="#DejaVuSans-74" x="497.412109"/>
      <use xlink:href="#DejaVuSans-72" x="536.621094"/>
      <use xlink:href="#DejaVuSans-61" x="577.734375"/>
      <use xlink:href="#DejaVuSans-74" x="639.013672"/>
      <use xlink:href="#DejaVuSans-20" x="678.222656"/>
      <use xlink:href="#DejaVuSans-63" x="710.009766"/>
      <use xlink:href="#DejaVuSans-75" x="764.990234"/>
      <use xlink:href="#DejaVuSans-20" x="828.369141"/>
      <use xlink:href="#DejaVuSans-64" x="860.15625"/>
      <use xlink:href="#DejaVuSans-69" x="923.632812"/>
      <use xlink:href="#DejaVuSans-6d" x="951.416016"/>
      <use xlink:href="#DejaVuSans-65" x="1048.828125"/>
      <use xlink:href="#DejaVuSans-6e" x="1110.351562"/>
      <use xlink:href="#DejaVuSans-73" x="1173.730469"/>
      <use xlink:href="#DejaVuSans-69" x="1225.830078"/>
      <use xlink:href="#DejaVuSans-75" x="1253.613281"/>
      <use xlink:href="#DejaVuSans-6e" x="1316.992188"/>
      <use xlink:href="#DejaVuSans-65" x="1380.371094"/>
      <use xlink:href="#DejaVuSans-61" x="1441.894531"/>
      <use xlink:href="#DejaVuSans-20" x="1503.173828"/>
      <use xlink:href="#DejaVuSans-77" x="1534.960938"/>
      <use xlink:href="#DejaVuSans-20" x="1616.748047"/>
      <use xlink:href="#DejaVuSans-3d" x="1648.535156"/>
      <use xlink:href="#DejaVuSans-20" x="1732.324219"/>
      <use xlink:href="#DejaVuSans-31" x="1764.111328"/>
      <use xlink:href="#DejaVuSans-37" x="1827.734375"/>
     </g>
    </g>
   </g>
  </g>
 </g>
 <defs>
  <clipPath id="p9f89490afb">
   <rect x="57.6" y="41.472" width="357.12" height="266.112"/>
  </clipPath>
 </defs>
</svg>
