<?xml version="1.0" encoding="utf-8" standalone="no"?>
<!DOCTYPE svg PUBLIC "-//W3C//DTD SVG 1.1//EN"
  "http://www.w3.org/Graphics/SVG/1.1/DTD/svg11.dtd">
<svg xmlns:xlink="http://www.w3.org/1999/xlink" width="460.8pt" height="345.6pt" viewBox="0 0 460.8 345.6" xmlns="http://www.w3.org/2000/svg" version="1.1">
 <metadata>
  <rdf:RDF xmlns:dc="http://purl.org/dc/elements/1.1/" xmlns:cc="http://creativecommons.org/ns#" xmlns:rdf="http://www.w3.org/1999/02/22-rdf-syntax-ns#">
   <cc:Work>
    <dc:type rdf:resource="http://purl.org/dc/dcmitype/StillImage"/>
    <dc:date>2024-11-10T19:17:12.972826</dc:date>
    <dc:format>image/svg+xml</dc:format>
    <dc:creator>
     <cc:Agent>
      <dc:title>Matplotlib v3.9.2, https://matplotlib.org/</dc:title>
     </cc:Agent>
    </dc:creator>
   </cc:Work>
  </rdf:RDF>
 </metadata>
 <defs>
  <style type="text/css">*{stroke-linejoin: round; stroke-linecap: butt}</style>
 </defs>
 <g id="figure_1">
  <g id="patch_1">
   <path d="M 0 345.6 
L 460.8 345.6 
L 460.8 0 
L 0 0 
z
" style="fill: #ffffff"/>
  </g>
  <g id="axes_1">
   <g id="patch_2">
    <path d="M 57.6 307.584 
L 414.72 307.584 
L 414.72 41.472 
L 57.6 41.472 
z
" style="fill: #ffffff"/>
   </g>
   <g id="matplotlib.axis_1">
    <g id="xtick_1">
     <g id="line2d_1">
      <defs>
       <path id="m03e34cda26" d="M 0 0 
L 0 3.5 
" style="stroke: #000000; stroke-width: 0.8"/>
      </defs>
      <g>
       <use xlink:href="#m03e34cda26" x="73.832727" y="307.584" style="stroke: #000000; stroke-width: 0.8"/>
      </g>
     </g>
     <g id="text_1">
      <!-- 0 -->
      <g transform="translate(70.651477 322.182437) scale(0.1 -0.1)">
       <defs>
        <path id="DejaVuSans-30" d="M 2034 4250 
Q 1547 4250 1301 3770 
Q 1056 3291 1056 2328 
Q 1056 1369 1301 889 
Q 1547 409 2034 409 
Q 2525 409 2770 889 
Q 3016 1369 3016 2328 
Q 3016 3291 2770 3770 
Q 2525 4250 2034 4250 
z
M 2034 4750 
Q 2819 4750 3233 4129 
Q 3647 3509 3647 2328 
Q 3647 1150 3233 529 
Q 2819 -91 2034 -91 
Q 1250 -91 836 529 
Q 422 1150 422 2328 
Q 422 3509 836 4129 
Q 1250 4750 2034 4750 
z
" transform="scale(0.015625)"/>
       </defs>
       <use xlink:href="#DejaVuSans-30"/>
      </g>
     </g>
    </g>
    <g id="xtick_2">
     <g id="line2d_2">
      <g>
       <use xlink:href="#m03e34cda26" x="119.55872" y="307.584" style="stroke: #000000; stroke-width: 0.8"/>
      </g>
     </g>
     <g id="text_2">
      <!-- 10 -->
      <g transform="translate(113.19622 322.182437) scale(0.1 -0.1)">
       <defs>
        <path id="DejaVuSans-31" d="M 794 531 
L 1825 531 
L 1825 4091 
L 703 3866 
L 703 4441 
L 1819 4666 
L 2450 4666 
L 2450 531 
L 3481 531 
L 3481 0 
L 794 0 
L 794 531 
z
" transform="scale(0.015625)"/>
       </defs>
       <use xlink:href="#DejaVuSans-31"/>
       <use xlink:href="#DejaVuSans-30" x="63.623047"/>
      </g>
     </g>
    </g>
    <g id="xtick_3">
     <g id="line2d_3">
      <g>
       <use xlink:href="#m03e34cda26" x="165.284712" y="307.584" style="stroke: #000000; stroke-width: 0.8"/>
      </g>
     </g>
     <g id="text_3">
      <!-- 20 -->
      <g transform="translate(158.922212 322.182437) scale(0.1 -0.1)">
       <defs>
        <path id="DejaVuSans-32" d="M 1228 531 
L 3431 531 
L 3431 0 
L 469 0 
L 469 531 
Q 828 903 1448 1529 
Q 2069 2156 2228 2338 
Q 2531 2678 2651 2914 
Q 2772 3150 2772 3378 
Q 2772 3750 2511 3984 
Q 2250 4219 1831 4219 
Q 1534 4219 1204 4116 
Q 875 4013 500 3803 
L 500 4441 
Q 881 4594 1212 4672 
Q 1544 4750 1819 4750 
Q 2544 4750 2975 4387 
Q 3406 4025 3406 3419 
Q 3406 3131 3298 2873 
Q 3191 2616 2906 2266 
Q 2828 2175 2409 1742 
Q 1991 1309 1228 531 
z
" transform="scale(0.015625)"/>
       </defs>
       <use xlink:href="#DejaVuSans-32"/>
       <use xlink:href="#DejaVuSans-30" x="63.623047"/>
      </g>
     </g>
    </g>
    <g id="xtick_4">
     <g id="line2d_4">
      <g>
       <use xlink:href="#m03e34cda26" x="211.010704" y="307.584" style="stroke: #000000; stroke-width: 0.8"/>
      </g>
     </g>
     <g id="text_4">
      <!-- 30 -->
      <g transform="translate(204.648204 322.182437) scale(0.1 -0.1)">
       <defs>
        <path id="DejaVuSans-33" d="M 2597 2516 
Q 3050 2419 3304 2112 
Q 3559 1806 3559 1356 
Q 3559 666 3084 287 
Q 2609 -91 1734 -91 
Q 1441 -91 1130 -33 
Q 819 25 488 141 
L 488 750 
Q 750 597 1062 519 
Q 1375 441 1716 441 
Q 2309 441 2620 675 
Q 2931 909 2931 1356 
Q 2931 1769 2642 2001 
Q 2353 2234 1838 2234 
L 1294 2234 
L 1294 2753 
L 1863 2753 
Q 2328 2753 2575 2939 
Q 2822 3125 2822 3475 
Q 2822 3834 2567 4026 
Q 2313 4219 1838 4219 
Q 1578 4219 1281 4162 
Q 984 4106 628 3988 
L 628 4550 
Q 988 4650 1302 4700 
Q 1616 4750 1894 4750 
Q 2613 4750 3031 4423 
Q 3450 4097 3450 3541 
Q 3450 3153 3228 2886 
Q 3006 2619 2597 2516 
z
" transform="scale(0.015625)"/>
       </defs>
       <use xlink:href="#DejaVuSans-33"/>
       <use xlink:href="#DejaVuSans-30" x="63.623047"/>
      </g>
     </g>
    </g>
    <g id="xtick_5">
     <g id="line2d_5">
      <g>
       <use xlink:href="#m03e34cda26" x="256.736697" y="307.584" style="stroke: #000000; stroke-width: 0.8"/>
      </g>
     </g>
     <g id="text_5">
      <!-- 40 -->
      <g transform="translate(250.374197 322.182437) scale(0.1 -0.1)">
       <defs>
        <path id="DejaVuSans-34" d="M 2419 4116 
L 825 1625 
L 2419 1625 
L 2419 4116 
z
M 2253 4666 
L 3047 4666 
L 3047 1625 
L 3713 1625 
L 3713 1100 
L 3047 1100 
L 3047 0 
L 2419 0 
L 2419 1100 
L 313 1100 
L 313 1709 
L 2253 4666 
z
" transform="scale(0.015625)"/>
       </defs>
       <use xlink:href="#DejaVuSans-34"/>
       <use xlink:href="#DejaVuSans-30" x="63.623047"/>
      </g>
     </g>
    </g>
    <g id="xtick_6">
     <g id="line2d_6">
      <g>
       <use xlink:href="#m03e34cda26" x="302.462689" y="307.584" style="stroke: #000000; stroke-width: 0.8"/>
      </g>
     </g>
     <g id="text_6">
      <!-- 50 -->
      <g transform="translate(296.100189 322.182437) scale(0.1 -0.1)">
       <defs>
        <path id="DejaVuSans-35" d="M 691 4666 
L 3169 4666 
L 3169 4134 
L 1269 4134 
L 1269 2991 
Q 1406 3038 1543 3061 
Q 1681 3084 1819 3084 
Q 2600 3084 3056 2656 
Q 3513 2228 3513 1497 
Q 3513 744 3044 326 
Q 2575 -91 1722 -91 
Q 1428 -91 1123 -41 
Q 819 9 494 109 
L 494 744 
Q 775 591 1075 516 
Q 1375 441 1709 441 
Q 2250 441 2565 725 
Q 2881 1009 2881 1497 
Q 2881 1984 2565 2268 
Q 2250 2553 1709 2553 
Q 1456 2553 1204 2497 
Q 953 2441 691 2322 
L 691 4666 
z
" transform="scale(0.015625)"/>
       </defs>
       <use xlink:href="#DejaVuSans-35"/>
       <use xlink:href="#DejaVuSans-30" x="63.623047"/>
      </g>
     </g>
    </g>
    <g id="xtick_7">
     <g id="line2d_7">
      <g>
       <use xlink:href="#m03e34cda26" x="348.188681" y="307.584" style="stroke: #000000; stroke-width: 0.8"/>
      </g>
     </g>
     <g id="text_7">
      <!-- 60 -->
      <g transform="translate(341.826181 322.182437) scale(0.1 -0.1)">
       <defs>
        <path id="DejaVuSans-36" d="M 2113 2584 
Q 1688 2584 1439 2293 
Q 1191 2003 1191 1497 
Q 1191 994 1439 701 
Q 1688 409 2113 409 
Q 2538 409 2786 701 
Q 3034 994 3034 1497 
Q 3034 2003 2786 2293 
Q 2538 2584 2113 2584 
z
M 3366 4563 
L 3366 3988 
Q 3128 4100 2886 4159 
Q 2644 4219 2406 4219 
Q 1781 4219 1451 3797 
Q 1122 3375 1075 2522 
Q 1259 2794 1537 2939 
Q 1816 3084 2150 3084 
Q 2853 3084 3261 2657 
Q 3669 2231 3669 1497 
Q 3669 778 3244 343 
Q 2819 -91 2113 -91 
Q 1303 -91 875 529 
Q 447 1150 447 2328 
Q 447 3434 972 4092 
Q 1497 4750 2381 4750 
Q 2619 4750 2861 4703 
Q 3103 4656 3366 4563 
z
" transform="scale(0.015625)"/>
       </defs>
       <use xlink:href="#DejaVuSans-36"/>
       <use xlink:href="#DejaVuSans-30" x="63.623047"/>
      </g>
     </g>
    </g>
    <g id="xtick_8">
     <g id="line2d_8">
      <g>
       <use xlink:href="#m03e34cda26" x="393.914673" y="307.584" style="stroke: #000000; stroke-width: 0.8"/>
      </g>
     </g>
     <g id="text_8">
      <!-- 70 -->
      <g transform="translate(387.552173 322.182437) scale(0.1 -0.1)">
       <defs>
        <path id="DejaVuSans-37" d="M 525 4666 
L 3525 4666 
L 3525 4397 
L 1831 0 
L 1172 0 
L 2766 4134 
L 525 4134 
L 525 4666 
z
" transform="scale(0.015625)"/>
       </defs>
       <use xlink:href="#DejaVuSans-37"/>
       <use xlink:href="#DejaVuSans-30" x="63.623047"/>
      </g>
     </g>
    </g>
    <g id="text_9">
     <!-- Ore -->
     <g transform="translate(227.204531 335.860562) scale(0.1 -0.1)">
      <defs>
       <path id="DejaVuSans-4f" d="M 2522 4238 
Q 1834 4238 1429 3725 
Q 1025 3213 1025 2328 
Q 1025 1447 1429 934 
Q 1834 422 2522 422 
Q 3209 422 3611 934 
Q 4013 1447 4013 2328 
Q 4013 3213 3611 3725 
Q 3209 4238 2522 4238 
z
M 2522 4750 
Q 3503 4750 4090 4092 
Q 4678 3434 4678 2328 
Q 4678 1225 4090 567 
Q 3503 -91 2522 -91 
Q 1538 -91 948 565 
Q 359 1222 359 2328 
Q 359 3434 948 4092 
Q 1538 4750 2522 4750 
z
" transform="scale(0.015625)"/>
       <path id="DejaVuSans-72" d="M 2631 2963 
Q 2534 3019 2420 3045 
Q 2306 3072 2169 3072 
Q 1681 3072 1420 2755 
Q 1159 2438 1159 1844 
L 1159 0 
L 581 0 
L 581 3500 
L 1159 3500 
L 1159 2956 
Q 1341 3275 1631 3429 
Q 1922 3584 2338 3584 
Q 2397 3584 2469 3576 
Q 2541 3569 2628 3553 
L 2631 2963 
z
" transform="scale(0.015625)"/>
       <path id="DejaVuSans-65" d="M 3597 1894 
L 3597 1613 
L 953 1613 
Q 991 1019 1311 708 
Q 1631 397 2203 397 
Q 2534 397 2845 478 
Q 3156 559 3463 722 
L 3463 178 
Q 3153 47 2828 -22 
Q 2503 -91 2169 -91 
Q 1331 -91 842 396 
Q 353 884 353 1716 
Q 353 2575 817 3079 
Q 1281 3584 2069 3584 
Q 2775 3584 3186 3129 
Q 3597 2675 3597 1894 
z
M 3022 2063 
Q 3016 2534 2758 2815 
Q 2500 3097 2075 3097 
Q 1594 3097 1305 2825 
Q 1016 2553 972 2059 
L 3022 2063 
z
" transform="scale(0.015625)"/>
      </defs>
      <use xlink:href="#DejaVuSans-4f"/>
      <use xlink:href="#DejaVuSans-72" x="78.710938"/>
      <use xlink:href="#DejaVuSans-65" x="117.574219"/>
     </g>
    </g>
   </g>
   <g id="matplotlib.axis_2">
    <g id="ytick_1">
     <g id="line2d_9">
      <defs>
       <path id="mbc2d05d7fb" d="M 0 0 
L -3.5 0 
" style="stroke: #000000; stroke-width: 0.8"/>
      </defs>
      <g>
       <use xlink:href="#mbc2d05d7fb" x="57.6" y="285.642419" style="stroke: #000000; stroke-width: 0.8"/>
      </g>
     </g>
     <g id="text_10">
      <!-- 25 -->
      <g transform="translate(37.875 289.441637) scale(0.1 -0.1)">
       <use xlink:href="#DejaVuSans-32"/>
       <use xlink:href="#DejaVuSans-35" x="63.623047"/>
      </g>
     </g>
    </g>
    <g id="ytick_2">
     <g id="line2d_10">
      <g>
       <use xlink:href="#mbc2d05d7fb" x="57.6" y="250.479628" style="stroke: #000000; stroke-width: 0.8"/>
      </g>
     </g>
     <g id="text_11">
      <!-- 50 -->
      <g transform="translate(37.875 254.278847) scale(0.1 -0.1)">
       <use xlink:href="#DejaVuSans-35"/>
       <use xlink:href="#DejaVuSans-30" x="63.623047"/>
      </g>
     </g>
    </g>
    <g id="ytick_3">
     <g id="line2d_11">
      <g>
       <use xlink:href="#mbc2d05d7fb" x="57.6" y="215.316837" style="stroke: #000000; stroke-width: 0.8"/>
      </g>
     </g>
     <g id="text_12">
      <!-- 75 -->
      <g transform="translate(37.875 219.116056) scale(0.1 -0.1)">
       <use xlink:href="#DejaVuSans-37"/>
       <use xlink:href="#DejaVuSans-35" x="63.623047"/>
      </g>
     </g>
    </g>
    <g id="ytick_4">
     <g id="line2d_12">
      <g>
       <use xlink:href="#mbc2d05d7fb" x="57.6" y="180.154047" style="stroke: #000000; stroke-width: 0.8"/>
      </g>
     </g>
     <g id="text_13">
      <!-- 100 -->
      <g transform="translate(31.5125 183.953265) scale(0.1 -0.1)">
       <use xlink:href="#DejaVuSans-31"/>
       <use xlink:href="#DejaVuSans-30" x="63.623047"/>
       <use xlink:href="#DejaVuSans-30" x="127.246094"/>
      </g>
     </g>
    </g>
    <g id="ytick_5">
     <g id="line2d_13">
      <g>
       <use xlink:href="#mbc2d05d7fb" x="57.6" y="144.991256" style="stroke: #000000; stroke-width: 0.8"/>
      </g>
     </g>
     <g id="text_14">
      <!-- 125 -->
      <g transform="translate(31.5125 148.790475) scale(0.1 -0.1)">
       <use xlink:href="#DejaVuSans-31"/>
       <use xlink:href="#DejaVuSans-32" x="63.623047"/>
       <use xlink:href="#DejaVuSans-35" x="127.246094"/>
      </g>
     </g>
    </g>
    <g id="ytick_6">
     <g id="line2d_14">
      <g>
       <use xlink:href="#mbc2d05d7fb" x="57.6" y="109.828465" style="stroke: #000000; stroke-width: 0.8"/>
      </g>
     </g>
     <g id="text_15">
      <!-- 150 -->
      <g transform="translate(31.5125 113.627684) scale(0.1 -0.1)">
       <use xlink:href="#DejaVuSans-31"/>
       <use xlink:href="#DejaVuSans-35" x="63.623047"/>
       <use xlink:href="#DejaVuSans-30" x="127.246094"/>
      </g>
     </g>
    </g>
    <g id="ytick_7">
     <g id="line2d_15">
      <g>
       <use xlink:href="#mbc2d05d7fb" x="57.6" y="74.665674" style="stroke: #000000; stroke-width: 0.8"/>
      </g>
     </g>
     <g id="text_16">
      <!-- 175 -->
      <g transform="translate(31.5125 78.464893) scale(0.1 -0.1)">
       <use xlink:href="#DejaVuSans-31"/>
       <use xlink:href="#DejaVuSans-37" x="63.623047"/>
       <use xlink:href="#DejaVuSans-35" x="127.246094"/>
      </g>
     </g>
    </g>
    <g id="text_17">
     <!-- Masini -->
     <g transform="translate(25.432812 190.457687) rotate(-90) scale(0.1 -0.1)">
      <defs>
       <path id="DejaVuSans-4d" d="M 628 4666 
L 1569 4666 
L 2759 1491 
L 3956 4666 
L 4897 4666 
L 4897 0 
L 4281 0 
L 4281 4097 
L 3078 897 
L 2444 897 
L 1241 4097 
L 1241 0 
L 628 0 
L 628 4666 
z
" transform="scale(0.015625)"/>
       <path id="DejaVuSans-61" d="M 2194 1759 
Q 1497 1759 1228 1600 
Q 959 1441 959 1056 
Q 959 750 1161 570 
Q 1363 391 1709 391 
Q 2188 391 2477 730 
Q 2766 1069 2766 1631 
L 2766 1759 
L 2194 1759 
z
M 3341 1997 
L 3341 0 
L 2766 0 
L 2766 531 
Q 2569 213 2275 61 
Q 1981 -91 1556 -91 
Q 1019 -91 701 211 
Q 384 513 384 1019 
Q 384 1609 779 1909 
Q 1175 2209 1959 2209 
L 2766 2209 
L 2766 2266 
Q 2766 2663 2505 2880 
Q 2244 3097 1772 3097 
Q 1472 3097 1187 3025 
Q 903 2953 641 2809 
L 641 3341 
Q 956 3463 1253 3523 
Q 1550 3584 1831 3584 
Q 2591 3584 2966 3190 
Q 3341 2797 3341 1997 
z
" transform="scale(0.015625)"/>
       <path id="DejaVuSans-73" d="M 2834 3397 
L 2834 2853 
Q 2591 2978 2328 3040 
Q 2066 3103 1784 3103 
Q 1356 3103 1142 2972 
Q 928 2841 928 2578 
Q 928 2378 1081 2264 
Q 1234 2150 1697 2047 
L 1894 2003 
Q 2506 1872 2764 1633 
Q 3022 1394 3022 966 
Q 3022 478 2636 193 
Q 2250 -91 1575 -91 
Q 1294 -91 989 -36 
Q 684 19 347 128 
L 347 722 
Q 666 556 975 473 
Q 1284 391 1588 391 
Q 1994 391 2212 530 
Q 2431 669 2431 922 
Q 2431 1156 2273 1281 
Q 2116 1406 1581 1522 
L 1381 1569 
Q 847 1681 609 1914 
Q 372 2147 372 2553 
Q 372 3047 722 3315 
Q 1072 3584 1716 3584 
Q 2034 3584 2315 3537 
Q 2597 3491 2834 3397 
z
" transform="scale(0.015625)"/>
       <path id="DejaVuSans-69" d="M 603 3500 
L 1178 3500 
L 1178 0 
L 603 0 
L 603 3500 
z
M 603 4863 
L 1178 4863 
L 1178 4134 
L 603 4134 
L 603 4863 
z
" transform="scale(0.015625)"/>
       <path id="DejaVuSans-6e" d="M 3513 2113 
L 3513 0 
L 2938 0 
L 2938 2094 
Q 2938 2591 2744 2837 
Q 2550 3084 2163 3084 
Q 1697 3084 1428 2787 
Q 1159 2491 1159 1978 
L 1159 0 
L 581 0 
L 581 3500 
L 1159 3500 
L 1159 2956 
Q 1366 3272 1645 3428 
Q 1925 3584 2291 3584 
Q 2894 3584 3203 3211 
Q 3513 2838 3513 2113 
z
" transform="scale(0.015625)"/>
      </defs>
      <use xlink:href="#DejaVuSans-4d"/>
      <use xlink:href="#DejaVuSans-61" x="86.279297"/>
      <use xlink:href="#DejaVuSans-73" x="147.558594"/>
      <use xlink:href="#DejaVuSans-69" x="199.658203"/>
      <use xlink:href="#DejaVuSans-6e" x="227.441406"/>
      <use xlink:href="#DejaVuSans-69" x="290.820312"/>
     </g>
    </g>
   </g>
   <g id="line2d_16">
    <path d="M 73.832727 216.723349 
L 78.405327 258.918698 
L 82.977926 275.796837 
L 87.550525 289.861953 
L 92.123124 295.488 
L 96.695723 284.235907 
L 101.268323 275.796837 
L 105.840922 281.422884 
L 110.413521 275.796837 
L 114.98612 247.666605 
L 119.55872 264.544744 
L 124.131319 242.040558 
L 128.703918 211.097302 
L 133.276517 242.040558 
L 137.849117 267.357767 
L 142.421716 230.788465 
L 146.994315 230.788465 
L 151.566914 261.731721 
L 156.139513 244.853581 
L 160.712113 222.349395 
L 165.284712 213.910326 
L 169.857311 242.040558 
L 174.42991 253.292651 
L 179.00251 244.853581 
L 183.575109 225.162419 
L 188.147708 236.414512 
L 192.720307 242.040558 
L 197.292907 258.918698 
L 201.865506 275.796837 
L 206.438105 275.796837 
L 211.010704 267.357767 
L 215.583303 270.170791 
L 220.155903 253.292651 
L 224.728502 205.471256 
L 229.301101 98.576372 
L 233.8737 87.324279 
L 238.4463 78.885209 
L 243.018899 95.763349 
L 247.591498 53.568 
L 252.164097 84.511256 
L 256.736697 160.462884 
L 261.309296 107.015442 
L 265.881895 135.145674 
L 270.454494 95.763349 
L 275.027093 81.698233 
L 279.599693 166.08893 
L 284.172292 137.958698 
L 288.744891 152.023814 
L 293.31749 163.275907 
L 297.89009 191.40614 
L 302.462689 205.471256 
L 307.035288 242.040558 
L 311.607887 270.170791 
L 316.180487 284.235907 
L 320.753086 272.983814 
L 325.325685 270.170791 
L 329.898284 256.105674 
L 334.470883 244.853581 
L 339.043483 146.397767 
L 343.616082 177.341023 
L 348.188681 118.267535 
L 352.76128 143.584744 
L 357.33388 104.202419 
L 361.906479 135.145674 
L 366.479078 78.885209 
L 371.051677 98.576372 
L 375.624277 90.137302 
L 380.196876 107.015442 
L 384.769475 126.706605 
L 389.342074 163.275907 
L 393.914673 146.397767 
L 398.487273 118.267535 
" clip-path="url(#p3320b5549a)" style="fill: none; stroke: #1f77b4; stroke-width: 1.5; stroke-linecap: square"/>
   </g>
   <g id="line2d_17">
    <path d="M 73.832727 216.72639 
L 78.405327 254.719281 
L 82.977926 280.036213 
L 87.550525 290.125754 
L 92.123124 290.805999 
L 96.695723 287.083946 
L 101.268323 280.541295 
L 105.840922 274.298266 
L 110.413521 271.36187 
L 114.98612 266.28717 
L 119.55872 251.009825 
L 124.131319 232.918778 
L 128.703918 229.952062 
L 133.276517 241.726122 
L 137.849117 247.845567 
L 142.421716 242.223573 
L 146.994315 241.124202 
L 151.566914 248.21002 
L 156.139513 244.669089 
L 160.712113 226.654761 
L 165.284712 218.816552 
L 169.857311 234.569072 
L 174.42991 252.319999 
L 179.00251 248.281196 
L 183.575109 230.768741 
L 188.147708 226.122277 
L 192.720307 243.542197 
L 197.292907 266.070868 
L 201.865506 273.712251 
L 206.438105 268.994408 
L 211.010704 270.350327 
L 215.583303 275.997866 
L 220.155903 253.949164 
L 224.728502 188.555159 
L 229.301101 116.407743 
L 233.8737 83.041615 
L 238.4463 82.149625 
L 243.018899 78.158763 
L 247.591498 71.59307 
L 252.164097 91.100713 
L 256.736697 129.171534 
L 261.309296 141.417999 
L 265.881895 115.618823 
L 270.454494 92.820931 
L 275.027093 105.771281 
L 279.599693 136.40285 
L 284.172292 152.592381 
L 288.744891 154.252763 
L 293.31749 161.768203 
L 297.89009 183.213814 
L 302.462689 212.759413 
L 307.035288 243.670886 
L 311.607887 268.200957 
L 316.180487 278.878036 
L 320.753086 278.002051 
L 325.325685 272.40535 
L 329.898284 257.684369 
L 334.470883 224.589073 
L 339.043483 180.74158 
L 343.616082 147.680364 
L 348.188681 134.809105 
L 352.76128 131.082898 
L 357.33388 123.397603 
L 361.906479 110.688569 
L 366.479078 98.437497 
L 371.051677 90.415362 
L 375.624277 90.676557 
L 380.196876 105.387663 
L 384.769475 133.100403 
L 389.342074 155.681384 
L 393.914673 150.801287 
L 398.487273 118.298231 
" clip-path="url(#p3320b5549a)" style="fill: none; stroke: #ff7f0e; stroke-width: 1.5; stroke-linecap: square"/>
   </g>
   <g id="line2d_18">
    <path d="M 73.832727 217.937349 
L 78.405327 251.672629 
L 82.977926 270.051183 
L 87.550525 278.151038 
L 92.123124 282.358493 
L 96.695723 279.323984 
L 101.268323 270.204698 
L 105.840922 266.662132 
L 110.413521 270.92554 
L 114.98612 267.735451 
L 119.55872 249.654457 
L 124.131319 233.411364 
L 128.703918 235.261681 
L 133.276517 245.694003 
L 137.849117 246.865477 
L 142.421716 241.520959 
L 146.994315 243.460411 
L 151.566914 249.309336 
L 156.139513 243.420263 
L 160.712113 227.336357 
L 165.284712 221.803144 
L 169.857311 236.099239 
L 174.42991 252.792668 
L 179.00251 250.875553 
L 183.575109 233.883261 
L 188.147708 225.315218 
L 192.720307 238.075346 
L 197.292907 257.606507 
L 201.865506 262.404499 
L 206.438105 255.292905 
L 211.010704 256.952006 
L 215.583303 265.513186 
L 220.155903 247.729654 
L 224.728502 187.874517 
L 229.301101 121.704496 
L 233.8737 93.054823 
L 238.4463 95.539069 
L 243.018899 93.469452 
L 247.591498 85.372592 
L 252.164097 100.139254 
L 256.736697 134.460878 
L 261.309296 146.062971 
L 265.881895 120.228704 
L 270.454494 96.61588 
L 275.027093 109.836018 
L 279.599693 141.940876 
L 284.172292 158.126423 
L 288.744891 157.943053 
L 293.31749 164.136976 
L 297.89009 184.104798 
L 302.462689 208.433335 
L 307.035288 231.578847 
L 311.607887 252.149925 
L 316.180487 264.258505 
L 320.753086 264.726787 
L 325.325685 258.272659 
L 329.898284 244.987253 
L 334.470883 216.997043 
L 339.043483 177.897888 
L 343.616082 148.769782 
L 348.188681 141.743648 
L 352.76128 142.644789 
L 357.33388 133.260862 
L 361.906479 116.313182 
L 366.479078 104.313539 
L 371.051677 98.560887 
L 375.624277 96.330106 
L 380.196876 105.630443 
L 384.769475 131.459624 
L 389.342074 155.072257 
L 393.914673 149.681908 
L 398.487273 116.5607 
" clip-path="url(#p3320b5549a)" style="fill: none; stroke: #2ca02c; stroke-width: 1.5; stroke-linecap: square"/>
   </g>
   <g id="line2d_19">
    <path d="M 73.832727 218.15219 
L 78.405327 241.477802 
L 82.977926 255.567835 
L 87.550525 263.739077 
L 92.123124 266.715214 
L 96.695723 261.73079 
L 101.268323 254.966842 
L 105.840922 257.666233 
L 110.413521 266.247199 
L 114.98612 263.882487 
L 119.55872 247.517647 
L 124.131319 235.383614 
L 128.703918 239.387667 
L 133.276517 247.732986 
L 137.849117 246.424367 
L 142.421716 241.55568 
L 146.994315 244.873206 
L 151.566914 250.253268 
L 156.139513 243.274182 
L 160.712113 227.551233 
L 165.284712 222.865735 
L 169.857311 236.729219 
L 174.42991 252.497374 
L 179.00251 250.93121 
L 183.575109 234.757233 
L 188.147708 224.205714 
L 192.720307 230.428709 
L 197.292907 241.748903 
L 201.865506 241.840313 
L 206.438105 234.940299 
L 211.010704 238.192934 
L 215.583303 248.073641 
L 220.155903 235.515384 
L 224.728502 187.484125 
L 229.301101 134.046082 
L 233.8737 112.080018 
L 238.4463 116.976216 
L 243.018899 118.234028 
L 247.591498 111.730728 
L 252.164097 120.444064 
L 256.736697 144.928087 
L 261.309296 153.064031 
L 265.881895 130.885106 
L 270.454494 109.060795 
L 275.027093 118.979348 
L 279.599693 149.005642 
L 284.172292 167.086649 
L 288.744891 166.893473 
L 293.31749 167.425811 
L 297.89009 179.800932 
L 302.462689 197.482201 
L 307.035288 213.088748 
L 311.607887 226.078069 
L 316.180487 235.934459 
L 320.753086 240.247473 
L 325.325685 237.422692 
L 329.898284 224.565004 
L 334.470883 199.270574 
L 339.043483 169.621073 
L 343.616082 152.341871 
L 348.188681 152.523706 
L 352.76128 155.108962 
L 357.33388 145.565895 
L 361.906479 128.485025 
L 366.479078 115.796053 
L 371.051677 108.70225 
L 375.624277 104.706966 
L 380.196876 110.89626 
L 384.769475 131.916799 
L 389.342074 151.507441 
L 393.914673 146.096289 
L 398.487273 116.633403 
" clip-path="url(#p3320b5549a)" style="fill: none; stroke: #d62728; stroke-width: 1.5; stroke-linecap: square"/>
   </g>
   <g id="patch_3">
    <path d="M 57.6 307.584 
L 57.6 41.472 
" style="fill: none; stroke: #000000; stroke-width: 0.8; stroke-linejoin: miter; stroke-linecap: square"/>
   </g>
   <g id="patch_4">
    <path d="M 414.72 307.584 
L 414.72 41.472 
" style="fill: none; stroke: #000000; stroke-width: 0.8; stroke-linejoin: miter; stroke-linecap: square"/>
   </g>
   <g id="patch_5">
    <path d="M 57.6 307.584 
L 414.72 307.584 
" style="fill: none; stroke: #000000; stroke-width: 0.8; stroke-linejoin: miter; stroke-linecap: square"/>
   </g>
   <g id="patch_6">
    <path d="M 57.6 41.472 
L 414.72 41.472 
" style="fill: none; stroke: #000000; stroke-width: 0.8; stroke-linejoin: miter; stroke-linecap: square"/>
   </g>
   <g id="text_18">
    <!-- Filtrarea semnalului cu Low-Pass filters (fsz = 7) -->
    <g transform="translate(92.164688 35.472) scale(0.12 -0.12)">
     <defs>
      <path id="DejaVuSans-46" d="M 628 4666 
L 3309 4666 
L 3309 4134 
L 1259 4134 
L 1259 2759 
L 3109 2759 
L 3109 2228 
L 1259 2228 
L 1259 0 
L 628 0 
L 628 4666 
z
" transform="scale(0.015625)"/>
      <path id="DejaVuSans-6c" d="M 603 4863 
L 1178 4863 
L 1178 0 
L 603 0 
L 603 4863 
z
" transform="scale(0.015625)"/>
      <path id="DejaVuSans-74" d="M 1172 4494 
L 1172 3500 
L 2356 3500 
L 2356 3053 
L 1172 3053 
L 1172 1153 
Q 1172 725 1289 603 
Q 1406 481 1766 481 
L 2356 481 
L 2356 0 
L 1766 0 
Q 1100 0 847 248 
Q 594 497 594 1153 
L 594 3053 
L 172 3053 
L 172 3500 
L 594 3500 
L 594 4494 
L 1172 4494 
z
" transform="scale(0.015625)"/>
      <path id="DejaVuSans-20" transform="scale(0.015625)"/>
      <path id="DejaVuSans-6d" d="M 3328 2828 
Q 3544 3216 3844 3400 
Q 4144 3584 4550 3584 
Q 5097 3584 5394 3201 
Q 5691 2819 5691 2113 
L 5691 0 
L 5113 0 
L 5113 2094 
Q 5113 2597 4934 2840 
Q 4756 3084 4391 3084 
Q 3944 3084 3684 2787 
Q 3425 2491 3425 1978 
L 3425 0 
L 2847 0 
L 2847 2094 
Q 2847 2600 2669 2842 
Q 2491 3084 2119 3084 
Q 1678 3084 1418 2786 
Q 1159 2488 1159 1978 
L 1159 0 
L 581 0 
L 581 3500 
L 1159 3500 
L 1159 2956 
Q 1356 3278 1631 3431 
Q 1906 3584 2284 3584 
Q 2666 3584 2933 3390 
Q 3200 3197 3328 2828 
z
" transform="scale(0.015625)"/>
      <path id="DejaVuSans-75" d="M 544 1381 
L 544 3500 
L 1119 3500 
L 1119 1403 
Q 1119 906 1312 657 
Q 1506 409 1894 409 
Q 2359 409 2629 706 
Q 2900 1003 2900 1516 
L 2900 3500 
L 3475 3500 
L 3475 0 
L 2900 0 
L 2900 538 
Q 2691 219 2414 64 
Q 2138 -91 1772 -91 
Q 1169 -91 856 284 
Q 544 659 544 1381 
z
M 1991 3584 
L 1991 3584 
z
" transform="scale(0.015625)"/>
      <path id="DejaVuSans-63" d="M 3122 3366 
L 3122 2828 
Q 2878 2963 2633 3030 
Q 2388 3097 2138 3097 
Q 1578 3097 1268 2742 
Q 959 2388 959 1747 
Q 959 1106 1268 751 
Q 1578 397 2138 397 
Q 2388 397 2633 464 
Q 2878 531 3122 666 
L 3122 134 
Q 2881 22 2623 -34 
Q 2366 -91 2075 -91 
Q 1284 -91 818 406 
Q 353 903 353 1747 
Q 353 2603 823 3093 
Q 1294 3584 2113 3584 
Q 2378 3584 2631 3529 
Q 2884 3475 3122 3366 
z
" transform="scale(0.015625)"/>
      <path id="DejaVuSans-4c" d="M 628 4666 
L 1259 4666 
L 1259 531 
L 3531 531 
L 3531 0 
L 628 0 
L 628 4666 
z
" transform="scale(0.015625)"/>
      <path id="DejaVuSans-6f" d="M 1959 3097 
Q 1497 3097 1228 2736 
Q 959 2375 959 1747 
Q 959 1119 1226 758 
Q 1494 397 1959 397 
Q 2419 397 2687 759 
Q 2956 1122 2956 1747 
Q 2956 2369 2687 2733 
Q 2419 3097 1959 3097 
z
M 1959 3584 
Q 2709 3584 3137 3096 
Q 3566 2609 3566 1747 
Q 3566 888 3137 398 
Q 2709 -91 1959 -91 
Q 1206 -91 779 398 
Q 353 888 353 1747 
Q 353 2609 779 3096 
Q 1206 3584 1959 3584 
z
" transform="scale(0.015625)"/>
      <path id="DejaVuSans-77" d="M 269 3500 
L 844 3500 
L 1563 769 
L 2278 3500 
L 2956 3500 
L 3675 769 
L 4391 3500 
L 4966 3500 
L 4050 0 
L 3372 0 
L 2619 2869 
L 1863 0 
L 1184 0 
L 269 3500 
z
" transform="scale(0.015625)"/>
      <path id="DejaVuSans-2d" d="M 313 2009 
L 1997 2009 
L 1997 1497 
L 313 1497 
L 313 2009 
z
" transform="scale(0.015625)"/>
      <path id="DejaVuSans-50" d="M 1259 4147 
L 1259 2394 
L 2053 2394 
Q 2494 2394 2734 2622 
Q 2975 2850 2975 3272 
Q 2975 3691 2734 3919 
Q 2494 4147 2053 4147 
L 1259 4147 
z
M 628 4666 
L 2053 4666 
Q 2838 4666 3239 4311 
Q 3641 3956 3641 3272 
Q 3641 2581 3239 2228 
Q 2838 1875 2053 1875 
L 1259 1875 
L 1259 0 
L 628 0 
L 628 4666 
z
" transform="scale(0.015625)"/>
      <path id="DejaVuSans-66" d="M 2375 4863 
L 2375 4384 
L 1825 4384 
Q 1516 4384 1395 4259 
Q 1275 4134 1275 3809 
L 1275 3500 
L 2222 3500 
L 2222 3053 
L 1275 3053 
L 1275 0 
L 697 0 
L 697 3053 
L 147 3053 
L 147 3500 
L 697 3500 
L 697 3744 
Q 697 4328 969 4595 
Q 1241 4863 1831 4863 
L 2375 4863 
z
" transform="scale(0.015625)"/>
      <path id="DejaVuSans-28" d="M 1984 4856 
Q 1566 4138 1362 3434 
Q 1159 2731 1159 2009 
Q 1159 1288 1364 580 
Q 1569 -128 1984 -844 
L 1484 -844 
Q 1016 -109 783 600 
Q 550 1309 550 2009 
Q 550 2706 781 3412 
Q 1013 4119 1484 4856 
L 1984 4856 
z
" transform="scale(0.015625)"/>
      <path id="DejaVuSans-7a" d="M 353 3500 
L 3084 3500 
L 3084 2975 
L 922 459 
L 3084 459 
L 3084 0 
L 275 0 
L 275 525 
L 2438 3041 
L 353 3041 
L 353 3500 
z
" transform="scale(0.015625)"/>
      <path id="DejaVuSans-3d" d="M 678 2906 
L 4684 2906 
L 4684 2381 
L 678 2381 
L 678 2906 
z
M 678 1631 
L 4684 1631 
L 4684 1100 
L 678 1100 
L 678 1631 
z
" transform="scale(0.015625)"/>
      <path id="DejaVuSans-29" d="M 513 4856 
L 1013 4856 
Q 1481 4119 1714 3412 
Q 1947 2706 1947 2009 
Q 1947 1309 1714 600 
Q 1481 -109 1013 -844 
L 513 -844 
Q 928 -128 1133 580 
Q 1338 1288 1338 2009 
Q 1338 2731 1133 3434 
Q 928 4138 513 4856 
z
" transform="scale(0.015625)"/>
     </defs>
     <use xlink:href="#DejaVuSans-46"/>
     <use xlink:href="#DejaVuSans-69" x="50.269531"/>
     <use xlink:href="#DejaVuSans-6c" x="78.052734"/>
     <use xlink:href="#DejaVuSans-74" x="105.835938"/>
     <use xlink:href="#DejaVuSans-72" x="145.044922"/>
     <use xlink:href="#DejaVuSans-61" x="186.158203"/>
     <use xlink:href="#DejaVuSans-72" x="247.4375"/>
     <use xlink:href="#DejaVuSans-65" x="286.300781"/>
     <use xlink:href="#DejaVuSans-61" x="347.824219"/>
     <use xlink:href="#DejaVuSans-20" x="409.103516"/>
     <use xlink:href="#DejaVuSans-73" x="440.890625"/>
     <use xlink:href="#DejaVuSans-65" x="492.990234"/>
     <use xlink:href="#DejaVuSans-6d" x="554.513672"/>
     <use xlink:href="#DejaVuSans-6e" x="651.925781"/>
     <use xlink:href="#DejaVuSans-61" x="715.304688"/>
     <use xlink:href="#DejaVuSans-6c" x="776.583984"/>
     <use xlink:href="#DejaVuSans-75" x="804.367188"/>
     <use xlink:href="#DejaVuSans-6c" x="867.746094"/>
     <use xlink:href="#DejaVuSans-75" x="895.529297"/>
     <use xlink:href="#DejaVuSans-69" x="958.908203"/>
     <use xlink:href="#DejaVuSans-20" x="986.691406"/>
     <use xlink:href="#DejaVuSans-63" x="1018.478516"/>
     <use xlink:href="#DejaVuSans-75" x="1073.458984"/>
     <use xlink:href="#DejaVuSans-20" x="1136.837891"/>
     <use xlink:href="#DejaVuSans-4c" x="1168.625"/>
     <use xlink:href="#DejaVuSans-6f" x="1222.587891"/>
     <use xlink:href="#DejaVuSans-77" x="1283.769531"/>
     <use xlink:href="#DejaVuSans-2d" x="1365.556641"/>
     <use xlink:href="#DejaVuSans-50" x="1401.640625"/>
     <use xlink:href="#DejaVuSans-61" x="1457.443359"/>
     <use xlink:href="#DejaVuSans-73" x="1518.722656"/>
     <use xlink:href="#DejaVuSans-73" x="1570.822266"/>
     <use xlink:href="#DejaVuSans-20" x="1622.921875"/>
     <use xlink:href="#DejaVuSans-66" x="1654.708984"/>
     <use xlink:href="#DejaVuSans-69" x="1689.914062"/>
     <use xlink:href="#DejaVuSans-6c" x="1717.697266"/>
     <use xlink:href="#DejaVuSans-74" x="1745.480469"/>
     <use xlink:href="#DejaVuSans-65" x="1784.689453"/>
     <use xlink:href="#DejaVuSans-72" x="1846.212891"/>
     <use xlink:href="#DejaVuSans-73" x="1887.326172"/>
     <use xlink:href="#DejaVuSans-20" x="1939.425781"/>
     <use xlink:href="#DejaVuSans-28" x="1971.212891"/>
     <use xlink:href="#DejaVuSans-66" x="2010.226562"/>
     <use xlink:href="#DejaVuSans-73" x="2045.431641"/>
     <use xlink:href="#DejaVuSans-7a" x="2097.53125"/>
     <use xlink:href="#DejaVuSans-20" x="2150.021484"/>
     <use xlink:href="#DejaVuSans-3d" x="2181.808594"/>
     <use xlink:href="#DejaVuSans-20" x="2265.597656"/>
     <use xlink:href="#DejaVuSans-37" x="2297.384766"/>
     <use xlink:href="#DejaVuSans-29" x="2361.007812"/>
    </g>
   </g>
   <g id="legend_1">
    <g id="patch_7">
     <path d="M 64.6 108.1845 
L 315.71875 108.1845 
Q 317.71875 108.1845 317.71875 106.1845 
L 317.71875 48.472 
Q 317.71875 46.472 315.71875 46.472 
L 64.6 46.472 
Q 62.6 46.472 62.6 48.472 
L 62.6 106.1845 
Q 62.6 108.1845 64.6 108.1845 
z
" style="fill: #ffffff; opacity: 0.8; stroke: #cccccc; stroke-linejoin: miter"/>
    </g>
    <g id="line2d_20">
     <path d="M 66.6 54.570438 
L 76.6 54.570438 
L 86.6 54.570438 
" style="fill: none; stroke: #1f77b4; stroke-width: 1.5; stroke-linecap: square"/>
    </g>
    <g id="text_19">
     <!-- Semnal initial -->
     <g transform="translate(94.6 58.070438) scale(0.1 -0.1)">
      <defs>
       <path id="DejaVuSans-53" d="M 3425 4513 
L 3425 3897 
Q 3066 4069 2747 4153 
Q 2428 4238 2131 4238 
Q 1616 4238 1336 4038 
Q 1056 3838 1056 3469 
Q 1056 3159 1242 3001 
Q 1428 2844 1947 2747 
L 2328 2669 
Q 3034 2534 3370 2195 
Q 3706 1856 3706 1288 
Q 3706 609 3251 259 
Q 2797 -91 1919 -91 
Q 1588 -91 1214 -16 
Q 841 59 441 206 
L 441 856 
Q 825 641 1194 531 
Q 1563 422 1919 422 
Q 2459 422 2753 634 
Q 3047 847 3047 1241 
Q 3047 1584 2836 1778 
Q 2625 1972 2144 2069 
L 1759 2144 
Q 1053 2284 737 2584 
Q 422 2884 422 3419 
Q 422 4038 858 4394 
Q 1294 4750 2059 4750 
Q 2388 4750 2728 4690 
Q 3069 4631 3425 4513 
z
" transform="scale(0.015625)"/>
      </defs>
      <use xlink:href="#DejaVuSans-53"/>
      <use xlink:href="#DejaVuSans-65" x="63.476562"/>
      <use xlink:href="#DejaVuSans-6d" x="125"/>
      <use xlink:href="#DejaVuSans-6e" x="222.412109"/>
      <use xlink:href="#DejaVuSans-61" x="285.791016"/>
      <use xlink:href="#DejaVuSans-6c" x="347.070312"/>
      <use xlink:href="#DejaVuSans-20" x="374.853516"/>
      <use xlink:href="#DejaVuSans-69" x="406.640625"/>
      <use xlink:href="#DejaVuSans-6e" x="434.423828"/>
      <use xlink:href="#DejaVuSans-69" x="497.802734"/>
      <use xlink:href="#DejaVuSans-74" x="525.585938"/>
      <use xlink:href="#DejaVuSans-69" x="564.794922"/>
      <use xlink:href="#DejaVuSans-61" x="592.578125"/>
      <use xlink:href="#DejaVuSans-6c" x="653.857422"/>
     </g>
    </g>
    <g id="line2d_21">
     <path d="M 66.6 69.248563 
L 76.6 69.248563 
L 86.6 69.248563 
" style="fill: none; stroke: #ff7f0e; stroke-width: 1.5; stroke-linecap: square"/>
    </g>
    <g id="text_20">
     <!-- Semnal filtrat cu filtru Butterworth -->
     <g transform="translate(94.6 72.748563) scale(0.1 -0.1)">
      <defs>
       <path id="DejaVuSans-42" d="M 1259 2228 
L 1259 519 
L 2272 519 
Q 2781 519 3026 730 
Q 3272 941 3272 1375 
Q 3272 1813 3026 2020 
Q 2781 2228 2272 2228 
L 1259 2228 
z
M 1259 4147 
L 1259 2741 
L 2194 2741 
Q 2656 2741 2882 2914 
Q 3109 3088 3109 3444 
Q 3109 3797 2882 3972 
Q 2656 4147 2194 4147 
L 1259 4147 
z
M 628 4666 
L 2241 4666 
Q 2963 4666 3353 4366 
Q 3744 4066 3744 3513 
Q 3744 3084 3544 2831 
Q 3344 2578 2956 2516 
Q 3422 2416 3680 2098 
Q 3938 1781 3938 1306 
Q 3938 681 3513 340 
Q 3088 0 2303 0 
L 628 0 
L 628 4666 
z
" transform="scale(0.015625)"/>
       <path id="DejaVuSans-68" d="M 3513 2113 
L 3513 0 
L 2938 0 
L 2938 2094 
Q 2938 2591 2744 2837 
Q 2550 3084 2163 3084 
Q 1697 3084 1428 2787 
Q 1159 2491 1159 1978 
L 1159 0 
L 581 0 
L 581 4863 
L 1159 4863 
L 1159 2956 
Q 1366 3272 1645 3428 
Q 1925 3584 2291 3584 
Q 2894 3584 3203 3211 
Q 3513 2838 3513 2113 
z
" transform="scale(0.015625)"/>
      </defs>
      <use xlink:href="#DejaVuSans-53"/>
      <use xlink:href="#DejaVuSans-65" x="63.476562"/>
      <use xlink:href="#DejaVuSans-6d" x="125"/>
      <use xlink:href="#DejaVuSans-6e" x="222.412109"/>
      <use xlink:href="#DejaVuSans-61" x="285.791016"/>
      <use xlink:href="#DejaVuSans-6c" x="347.070312"/>
      <use xlink:href="#DejaVuSans-20" x="374.853516"/>
      <use xlink:href="#DejaVuSans-66" x="406.640625"/>
      <use xlink:href="#DejaVuSans-69" x="441.845703"/>
      <use xlink:href="#DejaVuSans-6c" x="469.628906"/>
      <use xlink:href="#DejaVuSans-74" x="497.412109"/>
      <use xlink:href="#DejaVuSans-72" x="536.621094"/>
      <use xlink:href="#DejaVuSans-61" x="577.734375"/>
      <use xlink:href="#DejaVuSans-74" x="639.013672"/>
      <use xlink:href="#DejaVuSans-20" x="678.222656"/>
      <use xlink:href="#DejaVuSans-63" x="710.009766"/>
      <use xlink:href="#DejaVuSans-75" x="764.990234"/>
      <use xlink:href="#DejaVuSans-20" x="828.369141"/>
      <use xlink:href="#DejaVuSans-66" x="860.15625"/>
      <use xlink:href="#DejaVuSans-69" x="895.361328"/>
      <use xlink:href="#DejaVuSans-6c" x="923.144531"/>
      <use xlink:href="#DejaVuSans-74" x="950.927734"/>
      <use xlink:href="#DejaVuSans-72" x="990.136719"/>
      <use xlink:href="#DejaVuSans-75" x="1031.25"/>
      <use xlink:href="#DejaVuSans-20" x="1094.628906"/>
      <use xlink:href="#DejaVuSans-42" x="1126.416016"/>
      <use xlink:href="#DejaVuSans-75" x="1195.019531"/>
      <use xlink:href="#DejaVuSans-74" x="1258.398438"/>
      <use xlink:href="#DejaVuSans-74" x="1297.607422"/>
      <use xlink:href="#DejaVuSans-65" x="1336.816406"/>
      <use xlink:href="#DejaVuSans-72" x="1398.339844"/>
      <use xlink:href="#DejaVuSans-77" x="1439.453125"/>
      <use xlink:href="#DejaVuSans-6f" x="1521.240234"/>
      <use xlink:href="#DejaVuSans-72" x="1582.421875"/>
      <use xlink:href="#DejaVuSans-74" x="1623.535156"/>
      <use xlink:href="#DejaVuSans-68" x="1662.744141"/>
     </g>
    </g>
    <g id="line2d_22">
     <path d="M 66.6 83.926688 
L 76.6 83.926688 
L 86.6 83.926688 
" style="fill: none; stroke: #2ca02c; stroke-width: 1.5; stroke-linecap: square"/>
    </g>
    <g id="text_21">
     <!-- Semnal filtrat cu filtru Chebyshev, rp = 1dB -->
     <g transform="translate(94.6 87.426688) scale(0.1 -0.1)">
      <defs>
       <path id="DejaVuSans-43" d="M 4122 4306 
L 4122 3641 
Q 3803 3938 3442 4084 
Q 3081 4231 2675 4231 
Q 1875 4231 1450 3742 
Q 1025 3253 1025 2328 
Q 1025 1406 1450 917 
Q 1875 428 2675 428 
Q 3081 428 3442 575 
Q 3803 722 4122 1019 
L 4122 359 
Q 3791 134 3420 21 
Q 3050 -91 2638 -91 
Q 1578 -91 968 557 
Q 359 1206 359 2328 
Q 359 3453 968 4101 
Q 1578 4750 2638 4750 
Q 3056 4750 3426 4639 
Q 3797 4528 4122 4306 
z
" transform="scale(0.015625)"/>
       <path id="DejaVuSans-62" d="M 3116 1747 
Q 3116 2381 2855 2742 
Q 2594 3103 2138 3103 
Q 1681 3103 1420 2742 
Q 1159 2381 1159 1747 
Q 1159 1113 1420 752 
Q 1681 391 2138 391 
Q 2594 391 2855 752 
Q 3116 1113 3116 1747 
z
M 1159 2969 
Q 1341 3281 1617 3432 
Q 1894 3584 2278 3584 
Q 2916 3584 3314 3078 
Q 3713 2572 3713 1747 
Q 3713 922 3314 415 
Q 2916 -91 2278 -91 
Q 1894 -91 1617 61 
Q 1341 213 1159 525 
L 1159 0 
L 581 0 
L 581 4863 
L 1159 4863 
L 1159 2969 
z
" transform="scale(0.015625)"/>
       <path id="DejaVuSans-79" d="M 2059 -325 
Q 1816 -950 1584 -1140 
Q 1353 -1331 966 -1331 
L 506 -1331 
L 506 -850 
L 844 -850 
Q 1081 -850 1212 -737 
Q 1344 -625 1503 -206 
L 1606 56 
L 191 3500 
L 800 3500 
L 1894 763 
L 2988 3500 
L 3597 3500 
L 2059 -325 
z
" transform="scale(0.015625)"/>
       <path id="DejaVuSans-76" d="M 191 3500 
L 800 3500 
L 1894 563 
L 2988 3500 
L 3597 3500 
L 2284 0 
L 1503 0 
L 191 3500 
z
" transform="scale(0.015625)"/>
       <path id="DejaVuSans-2c" d="M 750 794 
L 1409 794 
L 1409 256 
L 897 -744 
L 494 -744 
L 750 256 
L 750 794 
z
" transform="scale(0.015625)"/>
       <path id="DejaVuSans-70" d="M 1159 525 
L 1159 -1331 
L 581 -1331 
L 581 3500 
L 1159 3500 
L 1159 2969 
Q 1341 3281 1617 3432 
Q 1894 3584 2278 3584 
Q 2916 3584 3314 3078 
Q 3713 2572 3713 1747 
Q 3713 922 3314 415 
Q 2916 -91 2278 -91 
Q 1894 -91 1617 61 
Q 1341 213 1159 525 
z
M 3116 1747 
Q 3116 2381 2855 2742 
Q 2594 3103 2138 3103 
Q 1681 3103 1420 2742 
Q 1159 2381 1159 1747 
Q 1159 1113 1420 752 
Q 1681 391 2138 391 
Q 2594 391 2855 752 
Q 3116 1113 3116 1747 
z
" transform="scale(0.015625)"/>
       <path id="DejaVuSans-64" d="M 2906 2969 
L 2906 4863 
L 3481 4863 
L 3481 0 
L 2906 0 
L 2906 525 
Q 2725 213 2448 61 
Q 2172 -91 1784 -91 
Q 1150 -91 751 415 
Q 353 922 353 1747 
Q 353 2572 751 3078 
Q 1150 3584 1784 3584 
Q 2172 3584 2448 3432 
Q 2725 3281 2906 2969 
z
M 947 1747 
Q 947 1113 1208 752 
Q 1469 391 1925 391 
Q 2381 391 2643 752 
Q 2906 1113 2906 1747 
Q 2906 2381 2643 2742 
Q 2381 3103 1925 3103 
Q 1469 3103 1208 2742 
Q 947 2381 947 1747 
z
" transform="scale(0.015625)"/>
      </defs>
      <use xlink:href="#DejaVuSans-53"/>
      <use xlink:href="#DejaVuSans-65" x="63.476562"/>
      <use xlink:href="#DejaVuSans-6d" x="125"/>
      <use xlink:href="#DejaVuSans-6e" x="222.412109"/>
      <use xlink:href="#DejaVuSans-61" x="285.791016"/>
      <use xlink:href="#DejaVuSans-6c" x="347.070312"/>
      <use xlink:href="#DejaVuSans-20" x="374.853516"/>
      <use xlink:href="#DejaVuSans-66" x="406.640625"/>
      <use xlink:href="#DejaVuSans-69" x="441.845703"/>
      <use xlink:href="#DejaVuSans-6c" x="469.628906"/>
      <use xlink:href="#DejaVuSans-74" x="497.412109"/>
      <use xlink:href="#DejaVuSans-72" x="536.621094"/>
      <use xlink:href="#DejaVuSans-61" x="577.734375"/>
      <use xlink:href="#DejaVuSans-74" x="639.013672"/>
      <use xlink:href="#DejaVuSans-20" x="678.222656"/>
      <use xlink:href="#DejaVuSans-63" x="710.009766"/>
      <use xlink:href="#DejaVuSans-75" x="764.990234"/>
      <use xlink:href="#DejaVuSans-20" x="828.369141"/>
      <use xlink:href="#DejaVuSans-66" x="860.15625"/>
      <use xlink:href="#DejaVuSans-69" x="895.361328"/>
      <use xlink:href="#DejaVuSans-6c" x="923.144531"/>
      <use xlink:href="#DejaVuSans-74" x="950.927734"/>
      <use xlink:href="#DejaVuSans-72" x="990.136719"/>
      <use xlink:href="#DejaVuSans-75" x="1031.25"/>
      <use xlink:href="#DejaVuSans-20" x="1094.628906"/>
      <use xlink:href="#DejaVuSans-43" x="1126.416016"/>
      <use xlink:href="#DejaVuSans-68" x="1196.240234"/>
      <use xlink:href="#DejaVuSans-65" x="1259.619141"/>
      <use xlink:href="#DejaVuSans-62" x="1321.142578"/>
      <use xlink:href="#DejaVuSans-79" x="1384.619141"/>
      <use xlink:href="#DejaVuSans-73" x="1443.798828"/>
      <use xlink:href="#DejaVuSans-68" x="1495.898438"/>
      <use xlink:href="#DejaVuSans-65" x="1559.277344"/>
      <use xlink:href="#DejaVuSans-76" x="1620.800781"/>
      <use xlink:href="#DejaVuSans-2c" x="1679.980469"/>
      <use xlink:href="#DejaVuSans-20" x="1711.767578"/>
      <use xlink:href="#DejaVuSans-72" x="1743.554688"/>
      <use xlink:href="#DejaVuSans-70" x="1784.667969"/>
      <use xlink:href="#DejaVuSans-20" x="1848.144531"/>
      <use xlink:href="#DejaVuSans-3d" x="1879.931641"/>
      <use xlink:href="#DejaVuSans-20" x="1963.720703"/>
      <use xlink:href="#DejaVuSans-31" x="1995.507812"/>
      <use xlink:href="#DejaVuSans-64" x="2059.130859"/>
      <use xlink:href="#DejaVuSans-42" x="2122.607422"/>
     </g>
    </g>
    <g id="line2d_23">
     <path d="M 66.6 98.604813 
L 76.6 98.604813 
L 86.6 98.604813 
" style="fill: none; stroke: #d62728; stroke-width: 1.5; stroke-linecap: square"/>
    </g>
    <g id="text_22">
     <!-- Semnal filtrat cu filtru Chebyshev, rp = 3dB -->
     <g transform="translate(94.6 102.104813) scale(0.1 -0.1)">
      <use xlink:href="#DejaVuSans-53"/>
      <use xlink:href="#DejaVuSans-65" x="63.476562"/>
      <use xlink:href="#DejaVuSans-6d" x="125"/>
      <use xlink:href="#DejaVuSans-6e" x="222.412109"/>
      <use xlink:href="#DejaVuSans-61" x="285.791016"/>
      <use xlink:href="#DejaVuSans-6c" x="347.070312"/>
      <use xlink:href="#DejaVuSans-20" x="374.853516"/>
      <use xlink:href="#DejaVuSans-66" x="406.640625"/>
      <use xlink:href="#DejaVuSans-69" x="441.845703"/>
      <use xlink:href="#DejaVuSans-6c" x="469.628906"/>
      <use xlink:href="#DejaVuSans-74" x="497.412109"/>
      <use xlink:href="#DejaVuSans-72" x="536.621094"/>
      <use xlink:href="#DejaVuSans-61" x="577.734375"/>
      <use xlink:href="#DejaVuSans-74" x="639.013672"/>
      <use xlink:href="#DejaVuSans-20" x="678.222656"/>
      <use xlink:href="#DejaVuSans-63" x="710.009766"/>
      <use xlink:href="#DejaVuSans-75" x="764.990234"/>
      <use xlink:href="#DejaVuSans-20" x="828.369141"/>
      <use xlink:href="#DejaVuSans-66" x="860.15625"/>
      <use xlink:href="#DejaVuSans-69" x="895.361328"/>
      <use xlink:href="#DejaVuSans-6c" x="923.144531"/>
      <use xlink:href="#DejaVuSans-74" x="950.927734"/>
      <use xlink:href="#DejaVuSans-72" x="990.136719"/>
      <use xlink:href="#DejaVuSans-75" x="1031.25"/>
      <use xlink:href="#DejaVuSans-20" x="1094.628906"/>
      <use xlink:href="#DejaVuSans-43" x="1126.416016"/>
      <use xlink:href="#DejaVuSans-68" x="1196.240234"/>
      <use xlink:href="#DejaVuSans-65" x="1259.619141"/>
      <use xlink:href="#DejaVuSans-62" x="1321.142578"/>
      <use xlink:href="#DejaVuSans-79" x="1384.619141"/>
      <use xlink:href="#DejaVuSans-73" x="1443.798828"/>
      <use xlink:href="#DejaVuSans-68" x="1495.898438"/>
      <use xlink:href="#DejaVuSans-65" x="1559.277344"/>
      <use xlink:href="#DejaVuSans-76" x="1620.800781"/>
      <use xlink:href="#DejaVuSans-2c" x="1679.980469"/>
      <use xlink:href="#DejaVuSans-20" x="1711.767578"/>
      <use xlink:href="#DejaVuSans-72" x="1743.554688"/>
      <use xlink:href="#DejaVuSans-70" x="1784.667969"/>
      <use xlink:href="#DejaVuSans-20" x="1848.144531"/>
      <use xlink:href="#DejaVuSans-3d" x="1879.931641"/>
      <use xlink:href="#DejaVuSans-20" x="1963.720703"/>
      <use xlink:href="#DejaVuSans-33" x="1995.507812"/>
      <use xlink:href="#DejaVuSans-64" x="2059.130859"/>
      <use xlink:href="#DejaVuSans-42" x="2122.607422"/>
     </g>
    </g>
   </g>
  </g>
 </g>
 <defs>
  <clipPath id="p3320b5549a">
   <rect x="57.6" y="41.472" width="357.12" height="266.112"/>
  </clipPath>
 </defs>
</svg>
