<?xml version="1.0" encoding="utf-8" standalone="no"?>
<!DOCTYPE svg PUBLIC "-//W3C//DTD SVG 1.1//EN"
  "http://www.w3.org/Graphics/SVG/1.1/DTD/svg11.dtd">
<svg xmlns:xlink="http://www.w3.org/1999/xlink" width="460.8pt" height="345.6pt" viewBox="0 0 460.8 345.6" xmlns="http://www.w3.org/2000/svg" version="1.1">
 <metadata>
  <rdf:RDF xmlns:dc="http://purl.org/dc/elements/1.1/" xmlns:cc="http://creativecommons.org/ns#" xmlns:rdf="http://www.w3.org/1999/02/22-rdf-syntax-ns#">
   <cc:Work>
    <dc:type rdf:resource="http://purl.org/dc/dcmitype/StillImage"/>
    <dc:date>2024-12-10T14:04:18.529840</dc:date>
    <dc:format>image/svg+xml</dc:format>
    <dc:creator>
     <cc:Agent>
      <dc:title>Matplotlib v3.9.2, https://matplotlib.org/</dc:title>
     </cc:Agent>
    </dc:creator>
   </cc:Work>
  </rdf:RDF>
 </metadata>
 <defs>
  <style type="text/css">*{stroke-linejoin: round; stroke-linecap: butt}</style>
 </defs>
 <g id="figure_1">
  <g id="patch_1">
   <path d="M 0 345.6 
L 460.8 345.6 
L 460.8 0 
L 0 0 
z
" style="fill: #ffffff"/>
  </g>
  <g id="axes_1">
   <g id="patch_2">
    <path d="M 57.6 99.322435 
L 414.72 99.322435 
L 414.72 41.472 
L 57.6 41.472 
z
" style="fill: #ffffff"/>
   </g>
   <g id="matplotlib.axis_1">
    <g id="xtick_1">
     <g id="line2d_1">
      <defs>
       <path id="m1d885bfbfe" d="M 0 0 
L 0 3.5 
" style="stroke: #000000; stroke-width: 0.8"/>
      </defs>
      <g>
       <use xlink:href="#m1d885bfbfe" x="73.832727" y="99.322435" style="stroke: #000000; stroke-width: 0.8"/>
      </g>
     </g>
     <g id="text_1">
      <!-- 0 -->
      <g transform="translate(70.651477 113.920872) scale(0.1 -0.1)">
       <defs>
        <path id="DejaVuSans-30" d="M 2034 4250 
Q 1547 4250 1301 3770 
Q 1056 3291 1056 2328 
Q 1056 1369 1301 889 
Q 1547 409 2034 409 
Q 2525 409 2770 889 
Q 3016 1369 3016 2328 
Q 3016 3291 2770 3770 
Q 2525 4250 2034 4250 
z
M 2034 4750 
Q 2819 4750 3233 4129 
Q 3647 3509 3647 2328 
Q 3647 1150 3233 529 
Q 2819 -91 2034 -91 
Q 1250 -91 836 529 
Q 422 1150 422 2328 
Q 422 3509 836 4129 
Q 1250 4750 2034 4750 
z
" transform="scale(0.015625)"/>
       </defs>
       <use xlink:href="#DejaVuSans-30"/>
      </g>
     </g>
    </g>
    <g id="xtick_2">
     <g id="line2d_2">
      <g>
       <use xlink:href="#m1d885bfbfe" x="138.828632" y="99.322435" style="stroke: #000000; stroke-width: 0.8"/>
      </g>
     </g>
     <g id="text_2">
      <!-- 200 -->
      <g transform="translate(129.284882 113.920872) scale(0.1 -0.1)">
       <defs>
        <path id="DejaVuSans-32" d="M 1228 531 
L 3431 531 
L 3431 0 
L 469 0 
L 469 531 
Q 828 903 1448 1529 
Q 2069 2156 2228 2338 
Q 2531 2678 2651 2914 
Q 2772 3150 2772 3378 
Q 2772 3750 2511 3984 
Q 2250 4219 1831 4219 
Q 1534 4219 1204 4116 
Q 875 4013 500 3803 
L 500 4441 
Q 881 4594 1212 4672 
Q 1544 4750 1819 4750 
Q 2544 4750 2975 4387 
Q 3406 4025 3406 3419 
Q 3406 3131 3298 2873 
Q 3191 2616 2906 2266 
Q 2828 2175 2409 1742 
Q 1991 1309 1228 531 
z
" transform="scale(0.015625)"/>
       </defs>
       <use xlink:href="#DejaVuSans-32"/>
       <use xlink:href="#DejaVuSans-30" x="63.623047"/>
       <use xlink:href="#DejaVuSans-30" x="127.246094"/>
      </g>
     </g>
    </g>
    <g id="xtick_3">
     <g id="line2d_3">
      <g>
       <use xlink:href="#m1d885bfbfe" x="203.824537" y="99.322435" style="stroke: #000000; stroke-width: 0.8"/>
      </g>
     </g>
     <g id="text_3">
      <!-- 400 -->
      <g transform="translate(194.280787 113.920872) scale(0.1 -0.1)">
       <defs>
        <path id="DejaVuSans-34" d="M 2419 4116 
L 825 1625 
L 2419 1625 
L 2419 4116 
z
M 2253 4666 
L 3047 4666 
L 3047 1625 
L 3713 1625 
L 3713 1100 
L 3047 1100 
L 3047 0 
L 2419 0 
L 2419 1100 
L 313 1100 
L 313 1709 
L 2253 4666 
z
" transform="scale(0.015625)"/>
       </defs>
       <use xlink:href="#DejaVuSans-34"/>
       <use xlink:href="#DejaVuSans-30" x="63.623047"/>
       <use xlink:href="#DejaVuSans-30" x="127.246094"/>
      </g>
     </g>
    </g>
    <g id="xtick_4">
     <g id="line2d_4">
      <g>
       <use xlink:href="#m1d885bfbfe" x="268.820442" y="99.322435" style="stroke: #000000; stroke-width: 0.8"/>
      </g>
     </g>
     <g id="text_4">
      <!-- 600 -->
      <g transform="translate(259.276692 113.920872) scale(0.1 -0.1)">
       <defs>
        <path id="DejaVuSans-36" d="M 2113 2584 
Q 1688 2584 1439 2293 
Q 1191 2003 1191 1497 
Q 1191 994 1439 701 
Q 1688 409 2113 409 
Q 2538 409 2786 701 
Q 3034 994 3034 1497 
Q 3034 2003 2786 2293 
Q 2538 2584 2113 2584 
z
M 3366 4563 
L 3366 3988 
Q 3128 4100 2886 4159 
Q 2644 4219 2406 4219 
Q 1781 4219 1451 3797 
Q 1122 3375 1075 2522 
Q 1259 2794 1537 2939 
Q 1816 3084 2150 3084 
Q 2853 3084 3261 2657 
Q 3669 2231 3669 1497 
Q 3669 778 3244 343 
Q 2819 -91 2113 -91 
Q 1303 -91 875 529 
Q 447 1150 447 2328 
Q 447 3434 972 4092 
Q 1497 4750 2381 4750 
Q 2619 4750 2861 4703 
Q 3103 4656 3366 4563 
z
" transform="scale(0.015625)"/>
       </defs>
       <use xlink:href="#DejaVuSans-36"/>
       <use xlink:href="#DejaVuSans-30" x="63.623047"/>
       <use xlink:href="#DejaVuSans-30" x="127.246094"/>
      </g>
     </g>
    </g>
    <g id="xtick_5">
     <g id="line2d_5">
      <g>
       <use xlink:href="#m1d885bfbfe" x="333.816347" y="99.322435" style="stroke: #000000; stroke-width: 0.8"/>
      </g>
     </g>
     <g id="text_5">
      <!-- 800 -->
      <g transform="translate(324.272597 113.920872) scale(0.1 -0.1)">
       <defs>
        <path id="DejaVuSans-38" d="M 2034 2216 
Q 1584 2216 1326 1975 
Q 1069 1734 1069 1313 
Q 1069 891 1326 650 
Q 1584 409 2034 409 
Q 2484 409 2743 651 
Q 3003 894 3003 1313 
Q 3003 1734 2745 1975 
Q 2488 2216 2034 2216 
z
M 1403 2484 
Q 997 2584 770 2862 
Q 544 3141 544 3541 
Q 544 4100 942 4425 
Q 1341 4750 2034 4750 
Q 2731 4750 3128 4425 
Q 3525 4100 3525 3541 
Q 3525 3141 3298 2862 
Q 3072 2584 2669 2484 
Q 3125 2378 3379 2068 
Q 3634 1759 3634 1313 
Q 3634 634 3220 271 
Q 2806 -91 2034 -91 
Q 1263 -91 848 271 
Q 434 634 434 1313 
Q 434 1759 690 2068 
Q 947 2378 1403 2484 
z
M 1172 3481 
Q 1172 3119 1398 2916 
Q 1625 2713 2034 2713 
Q 2441 2713 2670 2916 
Q 2900 3119 2900 3481 
Q 2900 3844 2670 4047 
Q 2441 4250 2034 4250 
Q 1625 4250 1398 4047 
Q 1172 3844 1172 3481 
z
" transform="scale(0.015625)"/>
       </defs>
       <use xlink:href="#DejaVuSans-38"/>
       <use xlink:href="#DejaVuSans-30" x="63.623047"/>
       <use xlink:href="#DejaVuSans-30" x="127.246094"/>
      </g>
     </g>
    </g>
    <g id="xtick_6">
     <g id="line2d_6">
      <g>
       <use xlink:href="#m1d885bfbfe" x="398.812252" y="99.322435" style="stroke: #000000; stroke-width: 0.8"/>
      </g>
     </g>
     <g id="text_6">
      <!-- 1000 -->
      <g transform="translate(386.087252 113.920872) scale(0.1 -0.1)">
       <defs>
        <path id="DejaVuSans-31" d="M 794 531 
L 1825 531 
L 1825 4091 
L 703 3866 
L 703 4441 
L 1819 4666 
L 2450 4666 
L 2450 531 
L 3481 531 
L 3481 0 
L 794 0 
L 794 531 
z
" transform="scale(0.015625)"/>
       </defs>
       <use xlink:href="#DejaVuSans-31"/>
       <use xlink:href="#DejaVuSans-30" x="63.623047"/>
       <use xlink:href="#DejaVuSans-30" x="127.246094"/>
       <use xlink:href="#DejaVuSans-30" x="190.869141"/>
      </g>
     </g>
    </g>
   </g>
   <g id="matplotlib.axis_2">
    <g id="ytick_1">
     <g id="line2d_7">
      <defs>
       <path id="m53cffa82ba" d="M 0 0 
L -3.5 0 
" style="stroke: #000000; stroke-width: 0.8"/>
      </defs>
      <g>
       <use xlink:href="#m53cffa82ba" x="57.6" y="79.162435" style="stroke: #000000; stroke-width: 0.8"/>
      </g>
     </g>
     <g id="text_7">
      <!-- 2 -->
      <g transform="translate(44.2375 82.961654) scale(0.1 -0.1)">
       <use xlink:href="#DejaVuSans-32"/>
      </g>
     </g>
    </g>
    <g id="ytick_2">
     <g id="line2d_8">
      <g>
       <use xlink:href="#m53cffa82ba" x="57.6" y="44.101565" style="stroke: #000000; stroke-width: 0.8"/>
      </g>
     </g>
     <g id="text_8">
      <!-- 4 -->
      <g transform="translate(44.2375 47.900784) scale(0.1 -0.1)">
       <use xlink:href="#DejaVuSans-34"/>
      </g>
     </g>
    </g>
   </g>
   <g id="line2d_9">
    <path d="M 73.832727 96.69287 
L 99.831089 93.772773 
L 125.829451 90.627837 
L 151.827813 87.258062 
L 177.826175 83.663448 
L 203.824537 79.843996 
L 229.822899 75.799704 
L 255.821261 71.530573 
L 281.819623 67.036603 
L 307.817985 62.317794 
L 333.816347 57.374146 
L 359.814709 52.205659 
L 385.813071 46.812333 
L 398.487273 44.101565 
L 398.487273 44.101565 
" clip-path="url(#p453e9a0bb0)" style="fill: none; stroke: #1f77b4; stroke-width: 1.5; stroke-linecap: square"/>
   </g>
   <g id="patch_3">
    <path d="M 57.6 99.322435 
L 57.6 41.472 
" style="fill: none; stroke: #000000; stroke-width: 0.8; stroke-linejoin: miter; stroke-linecap: square"/>
   </g>
   <g id="patch_4">
    <path d="M 414.72 99.322435 
L 414.72 41.472 
" style="fill: none; stroke: #000000; stroke-width: 0.8; stroke-linejoin: miter; stroke-linecap: square"/>
   </g>
   <g id="patch_5">
    <path d="M 57.6 99.322435 
L 414.72 99.322435 
" style="fill: none; stroke: #000000; stroke-width: 0.8; stroke-linejoin: miter; stroke-linecap: square"/>
   </g>
   <g id="patch_6">
    <path d="M 57.6 41.472 
L 414.72 41.472 
" style="fill: none; stroke: #000000; stroke-width: 0.8; stroke-linejoin: miter; stroke-linecap: square"/>
   </g>
   <g id="text_9">
    <!-- Ecuatie grad 2 -->
    <g transform="translate(192.486562 35.472) scale(0.12 -0.12)">
     <defs>
      <path id="DejaVuSans-45" d="M 628 4666 
L 3578 4666 
L 3578 4134 
L 1259 4134 
L 1259 2753 
L 3481 2753 
L 3481 2222 
L 1259 2222 
L 1259 531 
L 3634 531 
L 3634 0 
L 628 0 
L 628 4666 
z
" transform="scale(0.015625)"/>
      <path id="DejaVuSans-63" d="M 3122 3366 
L 3122 2828 
Q 2878 2963 2633 3030 
Q 2388 3097 2138 3097 
Q 1578 3097 1268 2742 
Q 959 2388 959 1747 
Q 959 1106 1268 751 
Q 1578 397 2138 397 
Q 2388 397 2633 464 
Q 2878 531 3122 666 
L 3122 134 
Q 2881 22 2623 -34 
Q 2366 -91 2075 -91 
Q 1284 -91 818 406 
Q 353 903 353 1747 
Q 353 2603 823 3093 
Q 1294 3584 2113 3584 
Q 2378 3584 2631 3529 
Q 2884 3475 3122 3366 
z
" transform="scale(0.015625)"/>
      <path id="DejaVuSans-75" d="M 544 1381 
L 544 3500 
L 1119 3500 
L 1119 1403 
Q 1119 906 1312 657 
Q 1506 409 1894 409 
Q 2359 409 2629 706 
Q 2900 1003 2900 1516 
L 2900 3500 
L 3475 3500 
L 3475 0 
L 2900 0 
L 2900 538 
Q 2691 219 2414 64 
Q 2138 -91 1772 -91 
Q 1169 -91 856 284 
Q 544 659 544 1381 
z
M 1991 3584 
L 1991 3584 
z
" transform="scale(0.015625)"/>
      <path id="DejaVuSans-61" d="M 2194 1759 
Q 1497 1759 1228 1600 
Q 959 1441 959 1056 
Q 959 750 1161 570 
Q 1363 391 1709 391 
Q 2188 391 2477 730 
Q 2766 1069 2766 1631 
L 2766 1759 
L 2194 1759 
z
M 3341 1997 
L 3341 0 
L 2766 0 
L 2766 531 
Q 2569 213 2275 61 
Q 1981 -91 1556 -91 
Q 1019 -91 701 211 
Q 384 513 384 1019 
Q 384 1609 779 1909 
Q 1175 2209 1959 2209 
L 2766 2209 
L 2766 2266 
Q 2766 2663 2505 2880 
Q 2244 3097 1772 3097 
Q 1472 3097 1187 3025 
Q 903 2953 641 2809 
L 641 3341 
Q 956 3463 1253 3523 
Q 1550 3584 1831 3584 
Q 2591 3584 2966 3190 
Q 3341 2797 3341 1997 
z
" transform="scale(0.015625)"/>
      <path id="DejaVuSans-74" d="M 1172 4494 
L 1172 3500 
L 2356 3500 
L 2356 3053 
L 1172 3053 
L 1172 1153 
Q 1172 725 1289 603 
Q 1406 481 1766 481 
L 2356 481 
L 2356 0 
L 1766 0 
Q 1100 0 847 248 
Q 594 497 594 1153 
L 594 3053 
L 172 3053 
L 172 3500 
L 594 3500 
L 594 4494 
L 1172 4494 
z
" transform="scale(0.015625)"/>
      <path id="DejaVuSans-69" d="M 603 3500 
L 1178 3500 
L 1178 0 
L 603 0 
L 603 3500 
z
M 603 4863 
L 1178 4863 
L 1178 4134 
L 603 4134 
L 603 4863 
z
" transform="scale(0.015625)"/>
      <path id="DejaVuSans-65" d="M 3597 1894 
L 3597 1613 
L 953 1613 
Q 991 1019 1311 708 
Q 1631 397 2203 397 
Q 2534 397 2845 478 
Q 3156 559 3463 722 
L 3463 178 
Q 3153 47 2828 -22 
Q 2503 -91 2169 -91 
Q 1331 -91 842 396 
Q 353 884 353 1716 
Q 353 2575 817 3079 
Q 1281 3584 2069 3584 
Q 2775 3584 3186 3129 
Q 3597 2675 3597 1894 
z
M 3022 2063 
Q 3016 2534 2758 2815 
Q 2500 3097 2075 3097 
Q 1594 3097 1305 2825 
Q 1016 2553 972 2059 
L 3022 2063 
z
" transform="scale(0.015625)"/>
      <path id="DejaVuSans-20" transform="scale(0.015625)"/>
      <path id="DejaVuSans-67" d="M 2906 1791 
Q 2906 2416 2648 2759 
Q 2391 3103 1925 3103 
Q 1463 3103 1205 2759 
Q 947 2416 947 1791 
Q 947 1169 1205 825 
Q 1463 481 1925 481 
Q 2391 481 2648 825 
Q 2906 1169 2906 1791 
z
M 3481 434 
Q 3481 -459 3084 -895 
Q 2688 -1331 1869 -1331 
Q 1566 -1331 1297 -1286 
Q 1028 -1241 775 -1147 
L 775 -588 
Q 1028 -725 1275 -790 
Q 1522 -856 1778 -856 
Q 2344 -856 2625 -561 
Q 2906 -266 2906 331 
L 2906 616 
Q 2728 306 2450 153 
Q 2172 0 1784 0 
Q 1141 0 747 490 
Q 353 981 353 1791 
Q 353 2603 747 3093 
Q 1141 3584 1784 3584 
Q 2172 3584 2450 3431 
Q 2728 3278 2906 2969 
L 2906 3500 
L 3481 3500 
L 3481 434 
z
" transform="scale(0.015625)"/>
      <path id="DejaVuSans-72" d="M 2631 2963 
Q 2534 3019 2420 3045 
Q 2306 3072 2169 3072 
Q 1681 3072 1420 2755 
Q 1159 2438 1159 1844 
L 1159 0 
L 581 0 
L 581 3500 
L 1159 3500 
L 1159 2956 
Q 1341 3275 1631 3429 
Q 1922 3584 2338 3584 
Q 2397 3584 2469 3576 
Q 2541 3569 2628 3553 
L 2631 2963 
z
" transform="scale(0.015625)"/>
      <path id="DejaVuSans-64" d="M 2906 2969 
L 2906 4863 
L 3481 4863 
L 3481 0 
L 2906 0 
L 2906 525 
Q 2725 213 2448 61 
Q 2172 -91 1784 -91 
Q 1150 -91 751 415 
Q 353 922 353 1747 
Q 353 2572 751 3078 
Q 1150 3584 1784 3584 
Q 2172 3584 2448 3432 
Q 2725 3281 2906 2969 
z
M 947 1747 
Q 947 1113 1208 752 
Q 1469 391 1925 391 
Q 2381 391 2643 752 
Q 2906 1113 2906 1747 
Q 2906 2381 2643 2742 
Q 2381 3103 1925 3103 
Q 1469 3103 1208 2742 
Q 947 2381 947 1747 
z
" transform="scale(0.015625)"/>
     </defs>
     <use xlink:href="#DejaVuSans-45"/>
     <use xlink:href="#DejaVuSans-63" x="63.183594"/>
     <use xlink:href="#DejaVuSans-75" x="118.164062"/>
     <use xlink:href="#DejaVuSans-61" x="181.542969"/>
     <use xlink:href="#DejaVuSans-74" x="242.822266"/>
     <use xlink:href="#DejaVuSans-69" x="282.03125"/>
     <use xlink:href="#DejaVuSans-65" x="309.814453"/>
     <use xlink:href="#DejaVuSans-20" x="371.337891"/>
     <use xlink:href="#DejaVuSans-67" x="403.125"/>
     <use xlink:href="#DejaVuSans-72" x="466.601562"/>
     <use xlink:href="#DejaVuSans-61" x="507.714844"/>
     <use xlink:href="#DejaVuSans-64" x="568.994141"/>
     <use xlink:href="#DejaVuSans-20" x="632.470703"/>
     <use xlink:href="#DejaVuSans-32" x="664.257812"/>
    </g>
   </g>
  </g>
  <g id="axes_2">
   <g id="patch_7">
    <path d="M 57.6 168.742957 
L 414.72 168.742957 
L 414.72 110.892522 
L 57.6 110.892522 
z
" style="fill: #ffffff"/>
   </g>
   <g id="matplotlib.axis_3">
    <g id="xtick_7">
     <g id="line2d_10">
      <g>
       <use xlink:href="#m1d885bfbfe" x="73.832727" y="168.742957" style="stroke: #000000; stroke-width: 0.8"/>
      </g>
     </g>
     <g id="text_10">
      <!-- 0 -->
      <g transform="translate(70.651477 183.341394) scale(0.1 -0.1)">
       <use xlink:href="#DejaVuSans-30"/>
      </g>
     </g>
    </g>
    <g id="xtick_8">
     <g id="line2d_11">
      <g>
       <use xlink:href="#m1d885bfbfe" x="138.828632" y="168.742957" style="stroke: #000000; stroke-width: 0.8"/>
      </g>
     </g>
     <g id="text_11">
      <!-- 200 -->
      <g transform="translate(129.284882 183.341394) scale(0.1 -0.1)">
       <use xlink:href="#DejaVuSans-32"/>
       <use xlink:href="#DejaVuSans-30" x="63.623047"/>
       <use xlink:href="#DejaVuSans-30" x="127.246094"/>
      </g>
     </g>
    </g>
    <g id="xtick_9">
     <g id="line2d_12">
      <g>
       <use xlink:href="#m1d885bfbfe" x="203.824537" y="168.742957" style="stroke: #000000; stroke-width: 0.8"/>
      </g>
     </g>
     <g id="text_12">
      <!-- 400 -->
      <g transform="translate(194.280787 183.341394) scale(0.1 -0.1)">
       <use xlink:href="#DejaVuSans-34"/>
       <use xlink:href="#DejaVuSans-30" x="63.623047"/>
       <use xlink:href="#DejaVuSans-30" x="127.246094"/>
      </g>
     </g>
    </g>
    <g id="xtick_10">
     <g id="line2d_13">
      <g>
       <use xlink:href="#m1d885bfbfe" x="268.820442" y="168.742957" style="stroke: #000000; stroke-width: 0.8"/>
      </g>
     </g>
     <g id="text_13">
      <!-- 600 -->
      <g transform="translate(259.276692 183.341394) scale(0.1 -0.1)">
       <use xlink:href="#DejaVuSans-36"/>
       <use xlink:href="#DejaVuSans-30" x="63.623047"/>
       <use xlink:href="#DejaVuSans-30" x="127.246094"/>
      </g>
     </g>
    </g>
    <g id="xtick_11">
     <g id="line2d_14">
      <g>
       <use xlink:href="#m1d885bfbfe" x="333.816347" y="168.742957" style="stroke: #000000; stroke-width: 0.8"/>
      </g>
     </g>
     <g id="text_14">
      <!-- 800 -->
      <g transform="translate(324.272597 183.341394) scale(0.1 -0.1)">
       <use xlink:href="#DejaVuSans-38"/>
       <use xlink:href="#DejaVuSans-30" x="63.623047"/>
       <use xlink:href="#DejaVuSans-30" x="127.246094"/>
      </g>
     </g>
    </g>
    <g id="xtick_12">
     <g id="line2d_15">
      <g>
       <use xlink:href="#m1d885bfbfe" x="398.812252" y="168.742957" style="stroke: #000000; stroke-width: 0.8"/>
      </g>
     </g>
     <g id="text_15">
      <!-- 1000 -->
      <g transform="translate(386.087252 183.341394) scale(0.1 -0.1)">
       <use xlink:href="#DejaVuSans-31"/>
       <use xlink:href="#DejaVuSans-30" x="63.623047"/>
       <use xlink:href="#DejaVuSans-30" x="127.246094"/>
       <use xlink:href="#DejaVuSans-30" x="190.869141"/>
      </g>
     </g>
    </g>
   </g>
   <g id="matplotlib.axis_4">
    <g id="ytick_3">
     <g id="line2d_16">
      <g>
       <use xlink:href="#m53cffa82ba" x="57.6" y="166.115008" style="stroke: #000000; stroke-width: 0.8"/>
      </g>
     </g>
     <g id="text_16">
      <!-- 0.0 -->
      <g transform="translate(34.696875 169.914226) scale(0.1 -0.1)">
       <defs>
        <path id="DejaVuSans-2e" d="M 684 794 
L 1344 794 
L 1344 0 
L 684 0 
L 684 794 
z
" transform="scale(0.015625)"/>
       </defs>
       <use xlink:href="#DejaVuSans-30"/>
       <use xlink:href="#DejaVuSans-2e" x="63.623047"/>
       <use xlink:href="#DejaVuSans-30" x="95.410156"/>
      </g>
     </g>
    </g>
    <g id="ytick_4">
     <g id="line2d_17">
      <g>
       <use xlink:href="#m53cffa82ba" x="57.6" y="113.498815" style="stroke: #000000; stroke-width: 0.8"/>
      </g>
     </g>
     <g id="text_17">
      <!-- 0.1 -->
      <g transform="translate(34.696875 117.298034) scale(0.1 -0.1)">
       <use xlink:href="#DejaVuSans-30"/>
       <use xlink:href="#DejaVuSans-2e" x="63.623047"/>
       <use xlink:href="#DejaVuSans-31" x="95.410156"/>
      </g>
     </g>
    </g>
   </g>
   <g id="line2d_18">
    <path d="M 73.832727 113.647069 
L 74.157707 136.699437 
L 74.482686 149.216678 
L 74.807666 154.533588 
L 75.132645 147.671952 
L 75.457625 146.513725 
L 75.782604 162.499556 
L 76.107584 146.66942 
L 76.432563 141.688544 
L 76.757543 128.087299 
L 77.082523 131.560403 
L 77.407502 128.822457 
L 77.732482 165.674943 
L 78.057461 154.662178 
L 78.382441 131.2997 
L 78.70742 140.64933 
L 79.0324 165.835433 
L 79.357379 123.785563 
L 79.682359 125.45271 
L 80.007338 137.259279 
L 80.332318 162.61796 
L 80.657297 125.783904 
L 80.982277 135.402221 
L 81.307256 124.971251 
L 81.632236 126.560943 
L 81.957215 123.864096 
L 82.607174 158.731666 
L 82.932154 130.801257 
L 83.257133 133.468039 
L 83.582113 127.060471 
L 83.907093 157.176516 
L 84.232072 155.856155 
L 84.557052 119.265049 
L 84.882031 126.654031 
L 85.207011 118.327483 
L 85.85697 134.694969 
L 86.181949 131.697034 
L 86.506929 119.332481 
L 86.831908 135.6604 
L 87.156888 132.840984 
L 87.481867 157.881799 
L 88.131826 128.420919 
L 88.456806 151.859034 
L 88.781785 155.473163 
L 89.106765 149.602636 
L 89.431744 153.408164 
L 89.756724 154.807123 
L 90.081704 143.760974 
L 90.406683 118.348001 
L 91.056642 156.227353 
L 91.381622 162.065051 
L 91.706601 129.485922 
L 92.031581 145.973594 
L 92.35656 122.873392 
L 92.68154 131.414062 
L 93.006519 124.219814 
L 93.331499 151.806242 
L 93.656478 129.685717 
L 93.981458 152.221071 
L 94.306437 116.7048 
L 94.956396 149.040432 
L 95.281376 151.93432 
L 95.606355 156.069178 
L 95.931335 129.565645 
L 96.256314 154.607025 
L 96.581294 134.792416 
L 96.906274 152.19092 
L 97.231253 131.284722 
L 97.556233 123.235982 
L 97.881212 125.178282 
L 98.206192 126.081907 
L 98.531171 156.237769 
L 98.856151 161.464528 
L 99.18113 129.338981 
L 99.50611 146.73398 
L 99.831089 143.366595 
L 100.156069 164.476061 
L 100.481048 152.457083 
L 100.806028 164.343083 
L 101.131007 119.8556 
L 101.455987 153.308401 
L 101.780966 136.790048 
L 102.105946 164.064064 
L 102.430925 131.028037 
L 102.755905 149.118539 
L 103.080885 118.869919 
L 103.405864 119.38561 
L 103.730844 148.999454 
L 104.055823 118.709876 
L 104.380803 113.700984 
L 104.705782 122.684778 
L 105.030762 121.661094 
L 105.355741 153.013116 
L 105.680721 135.771123 
L 106.0057 162.576257 
L 106.33068 161.120787 
L 106.655659 113.557082 
L 106.980639 148.928494 
L 107.305618 126.748419 
L 107.955577 120.96909 
L 108.280557 113.623605 
L 108.605536 153.408382 
L 108.930516 163.991901 
L 109.255495 144.479675 
L 109.580475 159.270658 
L 109.905455 164.935043 
L 110.555414 124.877685 
L 111.205373 149.657821 
L 111.530352 131.686023 
L 111.855332 153.907094 
L 112.180311 165.358311 
L 112.505291 125.897643 
L 112.83027 133.296021 
L 113.15525 126.005546 
L 113.480229 164.066237 
L 113.805209 122.06896 
L 114.130188 133.517898 
L 114.455168 136.471289 
L 114.780147 133.250195 
L 115.105127 120.631821 
L 115.430106 135.232643 
L 115.755086 135.547611 
L 116.080066 113.989242 
L 116.405045 126.298747 
L 116.730025 142.843192 
L 117.055004 128.894471 
L 117.379984 145.635182 
L 117.704963 154.072452 
L 118.354922 117.2776 
L 118.679902 117.227224 
L 119.004881 148.125254 
L 119.329861 138.350628 
L 119.65484 154.979532 
L 119.97982 113.728689 
L 120.304799 114.492319 
L 120.629779 131.940321 
L 120.954758 123.789802 
L 121.279738 128.48916 
L 121.604717 134.905281 
L 121.929697 163.308039 
L 122.254676 142.187039 
L 122.579656 130.610322 
L 122.904636 130.465874 
L 123.229615 146.482716 
L 123.554595 116.566761 
L 123.879574 157.309318 
L 124.204554 139.787999 
L 124.529533 129.763323 
L 124.854513 129.434376 
L 125.179492 131.986095 
L 125.504472 151.63039 
L 125.829451 157.896013 
L 126.154431 132.654249 
L 126.47941 134.582012 
L 126.80439 156.677977 
L 127.129369 129.013271 
L 127.454349 142.16559 
L 128.104308 122.05594 
L 128.429287 157.184544 
L 128.754267 165.107678 
L 129.079247 125.121596 
L 129.404226 134.03505 
L 129.729206 129.302637 
L 130.054185 122.014484 
L 130.379165 123.874153 
L 130.704144 115.555048 
L 131.029124 137.916144 
L 131.354103 140.412227 
L 131.679083 144.969233 
L 132.004062 158.02837 
L 132.329042 135.986595 
L 132.654021 151.539663 
L 132.979001 117.639314 
L 133.30398 135.429728 
L 133.62896 134.922014 
L 134.278919 163.379526 
L 134.603898 164.444772 
L 134.928878 143.840724 
L 135.253857 161.665499 
L 135.578837 134.185031 
L 135.903817 119.761562 
L 136.228796 119.659392 
L 136.553776 131.438547 
L 136.878755 155.000793 
L 137.203735 120.7074 
L 137.528714 119.492145 
L 137.853694 155.767845 
L 138.178673 127.314455 
L 138.503653 151.03944 
L 138.828632 123.88313 
L 139.153612 113.644146 
L 139.478591 164.535154 
L 139.803571 118.899032 
L 140.12855 133.35456 
L 140.45353 114.89932 
L 140.778509 141.647977 
L 141.103489 121.528681 
L 141.428468 162.832069 
L 141.753448 148.473901 
L 142.078428 162.588853 
L 142.403407 114.796165 
L 142.728387 123.128951 
L 143.053366 121.257208 
L 143.378346 116.762848 
L 143.703325 161.637186 
L 144.028305 145.82633 
L 144.353284 162.377422 
L 144.678264 155.023877 
L 145.003243 154.046654 
L 145.328223 141.432372 
L 145.978182 160.801924 
L 146.303161 157.302264 
L 146.628141 158.365928 
L 146.95312 114.915411 
L 147.2781 126.163927 
L 147.603079 115.195084 
L 147.928059 142.977537 
L 148.253038 151.468318 
L 148.578018 124.111859 
L 148.902998 148.948769 
L 149.227977 150.362594 
L 149.552957 153.881428 
L 149.877936 159.291794 
L 150.527895 147.419435 
L 150.852875 130.651999 
L 151.177854 162.823084 
L 151.502834 155.038934 
L 151.827813 123.547264 
L 152.152793 158.384535 
L 152.477772 148.086325 
L 152.802752 120.619947 
L 153.127731 157.963428 
L 153.452711 161.76171 
L 153.77769 140.620463 
L 154.10267 150.202844 
L 154.752629 123.821855 
L 155.077609 158.898776 
L 155.402588 135.560833 
L 155.727568 139.517061 
L 156.052547 158.53413 
L 156.377527 133.282583 
L 156.702506 151.717091 
L 157.027486 140.447023 
L 157.352465 161.786151 
L 157.677445 141.933444 
L 158.002424 149.990067 
L 158.327404 122.844439 
L 158.652383 163.117004 
L 158.977363 144.089487 
L 159.302342 141.994091 
L 159.627322 127.967948 
L 159.952301 135.898182 
L 160.92724 120.74917 
L 161.252219 149.600074 
L 161.577199 137.806301 
L 161.902179 121.911719 
L 162.227158 114.053856 
L 162.552138 119.311888 
L 162.877117 146.569815 
L 163.202097 155.846089 
L 163.852056 127.092658 
L 164.177035 140.197899 
L 164.502015 140.69187 
L 164.826994 122.010514 
L 165.151974 147.099317 
L 165.476953 120.875885 
L 165.801933 144.710488 
L 166.126912 148.844631 
L 166.451892 142.227787 
L 166.776871 125.997952 
L 167.101851 159.485261 
L 167.42683 155.780176 
L 167.75181 116.053603 
L 168.07679 156.881306 
L 168.401769 136.243358 
L 168.726749 135.633686 
L 169.051728 140.352833 
L 169.376708 132.190967 
L 169.701687 154.0224 
L 170.026667 137.036023 
L 170.351646 146.532668 
L 170.676626 131.300596 
L 171.001605 158.684362 
L 171.326585 136.077611 
L 171.651564 156.366787 
L 171.976544 151.453871 
L 172.301523 154.607331 
L 172.626503 156.49478 
L 172.951482 122.669241 
L 173.276462 151.082163 
L 173.601441 117.333284 
L 173.926421 115.081167 
L 174.57638 158.590833 
L 174.90136 146.407705 
L 175.226339 124.141373 
L 175.551319 146.784306 
L 175.876298 161.536493 
L 176.201278 136.819105 
L 176.526257 121.647966 
L 176.851237 124.236392 
L 177.176216 156.900695 
L 177.501196 130.716695 
L 177.826175 154.512913 
L 178.151155 154.633758 
L 178.476134 120.124679 
L 178.801114 152.978378 
L 179.126093 152.263935 
L 179.451073 166.080629 
L 179.776052 120.303718 
L 180.101032 124.411686 
L 180.426011 133.107348 
L 180.750991 126.63888 
L 181.075971 158.114791 
L 181.40095 141.999765 
L 181.72593 147.635181 
L 182.050909 161.180844 
L 182.700868 117.669193 
L 183.025848 164.007249 
L 183.350827 150.779444 
L 183.675807 155.194994 
L 184.000786 153.584637 
L 184.325766 118.31664 
L 184.650745 141.486996 
L 184.975725 141.580108 
L 185.300704 126.096413 
L 185.625684 157.986216 
L 185.950663 140.47696 
L 186.275643 143.490823 
L 186.600622 134.70784 
L 186.925602 113.522087 
L 187.250581 125.629536 
L 187.575561 145.180829 
L 187.900541 122.572317 
L 188.22552 157.132983 
L 188.5505 164.512124 
L 189.525438 139.250192 
L 189.850418 133.749254 
L 190.175397 118.202402 
L 190.500377 139.288431 
L 190.825356 139.739792 
L 191.150336 163.471412 
L 191.475315 164.278095 
L 191.800295 137.115069 
L 192.125274 143.059717 
L 192.450254 121.96053 
L 192.775233 157.66066 
L 193.100213 164.801094 
L 193.425192 142.488297 
L 194.075152 163.504488 
L 194.400131 127.989405 
L 194.725111 160.243409 
L 195.05009 134.107552 
L 195.37507 151.32724 
L 195.700049 156.986306 
L 196.025029 146.133928 
L 196.350008 123.945982 
L 196.674988 145.484536 
L 196.999967 126.612367 
L 197.324947 159.512396 
L 197.649926 125.454718 
L 197.974906 153.648478 
L 198.299885 130.47316 
L 198.624865 136.345736 
L 198.949844 117.22695 
L 199.274824 145.735571 
L 199.599803 162.633647 
L 199.924783 165.107119 
L 200.249762 122.608858 
L 200.574742 138.505416 
L 200.899722 125.324617 
L 201.224701 153.780425 
L 201.549681 147.958015 
L 201.87466 164.531056 
L 202.19964 115.524942 
L 202.524619 130.974341 
L 202.849599 117.013309 
L 203.174578 152.145597 
L 203.499558 133.94212 
L 203.824537 130.414923 
L 204.149517 149.406751 
L 204.474496 121.490729 
L 204.799476 116.278978 
L 205.124455 119.5573 
L 205.449435 127.228117 
L 205.774414 151.515873 
L 206.099394 151.297444 
L 206.424373 115.426655 
L 206.749353 165.573877 
L 207.074333 128.439184 
L 207.399312 128.955023 
L 207.724292 133.351455 
L 208.049271 114.01925 
L 208.374251 149.705099 
L 208.69923 148.226983 
L 209.02421 161.961517 
L 209.349189 142.816656 
L 209.674169 152.379628 
L 209.999148 148.047307 
L 210.324128 122.203018 
L 210.649107 116.893374 
L 210.974087 156.342441 
L 211.299066 146.515006 
L 211.624046 117.254003 
L 211.949025 162.862882 
L 212.274005 161.255348 
L 212.598984 157.549566 
L 212.923964 134.797174 
L 213.248943 158.19773 
L 213.573923 115.178514 
L 213.898903 142.61059 
L 214.223882 139.727042 
L 214.548862 153.13677 
L 215.198821 131.287632 
L 215.5238 126.590927 
L 215.84878 126.449339 
L 216.173759 135.708578 
L 216.498739 118.531039 
L 217.148698 126.282018 
L 217.473677 163.189257 
L 217.798657 165.753115 
L 218.123636 154.936841 
L 218.448616 131.202922 
L 218.773595 144.479361 
L 219.098575 144.941922 
L 219.423554 119.571414 
L 220.073514 118.277667 
L 220.398493 149.599938 
L 220.723473 129.754282 
L 221.048452 151.822704 
L 221.373432 156.085844 
L 221.698411 156.400351 
L 222.023391 148.114607 
L 222.34837 143.492275 
L 222.67335 122.393626 
L 222.998329 159.806795 
L 223.323309 127.446008 
L 223.973268 150.96442 
L 224.298247 140.184717 
L 224.623227 150.333198 
L 224.948206 134.751445 
L 225.273186 143.287792 
L 225.598165 157.464615 
L 225.923145 159.98085 
L 226.573104 118.63347 
L 226.898084 148.017264 
L 227.223063 127.547333 
L 227.548043 131.458755 
L 227.873022 117.100135 
L 228.198002 122.918112 
L 228.522981 136.302396 
L 228.847961 131.544564 
L 229.17294 118.845332 
L 229.49792 145.09385 
L 229.822899 148.920314 
L 230.147879 165.54617 
L 230.472858 122.625037 
L 230.797838 123.970453 
L 231.122817 160.619009 
L 231.447797 135.762969 
L 231.772776 141.702057 
L 232.097756 159.868987 
L 232.422735 114.521241 
L 232.747715 154.818527 
L 233.072695 162.577401 
L 233.397674 134.816403 
L 233.722654 127.238656 
L 234.047633 164.407957 
L 234.372613 131.455793 
L 234.697592 138.107836 
L 235.022572 160.681596 
L 235.347551 157.037458 
L 235.672531 136.230363 
L 235.99751 150.521798 
L 236.32249 116.744406 
L 236.647469 123.036014 
L 236.972449 114.363446 
L 237.297428 152.452117 
L 237.622408 115.091842 
L 237.947387 143.425123 
L 238.272367 147.829892 
L 238.597346 163.465807 
L 238.922326 163.338701 
L 239.247305 129.70401 
L 239.897265 154.196302 
L 240.222244 133.810228 
L 240.547224 152.810576 
L 240.872203 135.722224 
L 241.197183 147.214811 
L 241.522162 122.782825 
L 241.847142 122.9331 
L 242.172121 140.998647 
L 242.497101 147.656242 
L 242.82208 147.038492 
L 243.14706 123.721377 
L 243.472039 148.847453 
L 244.121998 161.65903 
L 244.446978 141.559392 
L 244.771957 140.747052 
L 245.096937 121.869593 
L 245.421916 154.47427 
L 245.746896 146.068697 
L 246.071876 123.579776 
L 246.396855 122.779069 
L 246.721835 145.878237 
L 247.046814 141.95765 
L 247.371794 150.157259 
L 247.696773 117.04752 
L 248.021753 159.872424 
L 248.346732 116.984668 
L 248.671712 130.132559 
L 248.996691 138.145705 
L 249.321671 164.396612 
L 249.64665 141.090947 
L 249.97163 144.660855 
L 250.296609 157.632288 
L 250.621589 131.577233 
L 250.946568 115.016744 
L 251.271548 136.534773 
L 251.596527 128.507412 
L 251.921507 162.513405 
L 252.246486 144.138961 
L 252.571466 159.992667 
L 252.896446 133.872024 
L 253.221425 116.73565 
L 253.546405 131.294783 
L 253.871384 162.073924 
L 254.521343 137.141197 
L 254.846323 144.899751 
L 255.171302 122.251834 
L 255.496282 123.250121 
L 256.47122 152.68018 
L 256.7962 160.544304 
L 257.121179 147.441643 
L 257.446159 144.375443 
L 257.771138 130.555778 
L 258.096118 131.485144 
L 258.421097 162.426184 
L 258.746077 145.317967 
L 259.071057 156.550496 
L 259.396036 157.86412 
L 259.721016 122.585518 
L 260.045995 163.909588 
L 260.370975 144.059201 
L 260.695954 157.264772 
L 261.020934 119.848 
L 261.670893 153.940639 
L 262.645831 115.702486 
L 262.970811 154.515978 
L 263.29579 119.487497 
L 263.62077 116.955482 
L 263.945749 117.896448 
L 264.270729 132.681923 
L 264.595708 132.976243 
L 264.920688 144.899599 
L 265.245667 126.526696 
L 265.570647 138.160339 
L 265.895627 130.470796 
L 266.220606 143.571184 
L 266.545586 127.626449 
L 266.870565 122.734455 
L 267.195545 158.410089 
L 267.520524 122.289417 
L 267.845504 137.686661 
L 268.170483 121.671903 
L 268.495463 143.421554 
L 268.820442 146.17134 
L 269.145422 117.967996 
L 269.470401 152.899437 
L 269.795381 121.695769 
L 270.12036 140.647688 
L 270.44534 139.065263 
L 270.770319 149.884581 
L 271.095299 135.963709 
L 271.745258 164.048801 
L 272.070238 151.803477 
L 272.395217 165.779367 
L 272.720197 114.637704 
L 273.045176 115.301066 
L 273.370156 145.32344 
L 273.695135 127.790906 
L 274.020115 147.920007 
L 274.345094 130.804641 
L 274.995053 116.300299 
L 275.320033 145.057361 
L 275.645012 124.90085 
L 275.969992 152.122865 
L 276.294971 114.007492 
L 276.619951 164.759109 
L 276.94493 134.35962 
L 277.26991 131.414314 
L 277.594889 129.91267 
L 277.919869 159.780672 
L 278.244848 116.733144 
L 278.569828 156.581833 
L 278.894808 133.348095 
L 279.219787 154.39864 
L 279.544767 149.950449 
L 279.869746 137.36244 
L 280.194726 144.163878 
L 280.519705 157.684547 
L 280.844685 157.120985 
L 281.169664 144.113821 
L 281.494644 126.269661 
L 281.819623 118.867527 
L 282.144603 161.68853 
L 282.469582 145.431377 
L 282.794562 160.840468 
L 283.119541 165.241974 
L 283.444521 131.29789 
L 283.7695 134.416412 
L 284.09448 157.537563 
L 284.419459 153.812667 
L 284.744439 164.867596 
L 285.069419 122.183265 
L 285.394398 114.830499 
L 285.719378 158.987643 
L 286.044357 153.935663 
L 286.369337 120.422605 
L 286.694316 117.36801 
L 287.344275 163.451446 
L 287.669255 164.042359 
L 287.994234 135.915951 
L 288.319214 145.442363 
L 288.644193 164.607426 
L 288.969173 135.426487 
L 289.294152 165.520311 
L 289.619132 124.686493 
L 289.944111 149.991679 
L 290.269091 163.996785 
L 290.59407 135.158154 
L 290.91905 145.190368 
L 291.244029 114.877337 
L 291.569009 137.481346 
L 291.893989 151.63297 
L 292.218968 128.787036 
L 292.543948 151.830132 
L 292.868927 118.537168 
L 293.193907 146.398564 
L 293.518886 137.183017 
L 293.843866 163.454043 
L 294.493825 122.319207 
L 294.818804 123.724835 
L 295.143784 154.312219 
L 295.468763 154.219588 
L 295.793743 123.111514 
L 296.118722 117.160985 
L 296.443702 161.097479 
L 296.768681 142.434636 
L 297.093661 148.359448 
L 297.41864 120.302696 
L 297.74362 161.720245 
L 298.0686 155.006364 
L 298.393579 126.522989 
L 298.718559 163.416121 
L 299.043538 140.199671 
L 299.368518 142.853019 
L 299.693497 148.520091 
L 300.018477 145.354115 
L 300.343456 138.231552 
L 300.668436 157.624472 
L 300.993415 136.018762 
L 301.318395 123.736225 
L 301.643374 126.118234 
L 301.968354 158.017381 
L 302.293333 158.262069 
L 302.943292 147.11663 
L 303.268272 144.62363 
L 303.593251 130.351928 
L 303.918231 163.132699 
L 304.24321 164.290662 
L 304.89317 129.432908 
L 305.218149 155.937176 
L 305.543129 132.361484 
L 305.868108 152.44384 
L 306.193088 119.49253 
L 306.518067 118.987213 
L 306.843047 150.472887 
L 307.168026 154.013612 
L 307.493006 144.473759 
L 307.817985 153.459151 
L 308.142965 130.73673 
L 308.467944 122.650629 
L 308.792924 130.699462 
L 309.117903 122.740826 
L 309.442883 145.226792 
L 309.767862 157.890204 
L 310.092842 127.286838 
L 310.417821 147.148212 
L 310.742801 130.795293 
L 311.067781 151.874754 
L 311.39276 161.841014 
L 311.71774 113.889133 
L 312.042719 157.896279 
L 312.367699 114.108058 
L 312.692678 114.694258 
L 313.342637 131.418682 
L 313.667617 135.713001 
L 313.992596 120.544042 
L 314.317576 150.885802 
L 314.967535 133.525066 
L 315.292514 144.47973 
L 315.617494 143.622298 
L 315.942473 148.736686 
L 316.592432 121.361014 
L 316.917412 155.511352 
L 317.242391 116.948699 
L 317.567371 129.857839 
L 317.892351 122.797506 
L 318.21733 136.850371 
L 318.54231 125.099807 
L 318.867289 165.262604 
L 319.192269 123.054946 
L 319.517248 164.003054 
L 319.842228 119.291154 
L 320.167207 113.921705 
L 320.492187 150.642297 
L 320.817166 155.048846 
L 321.142146 125.844501 
L 321.467125 152.801725 
L 321.792105 120.572411 
L 322.117084 160.703822 
L 322.442064 159.487725 
L 322.767043 114.595781 
L 323.092023 130.66017 
L 323.417002 121.555026 
L 323.741982 149.050031 
L 324.066962 130.521008 
L 324.391941 134.848265 
L 324.716921 134.379545 
L 325.0419 130.202748 
L 325.36688 135.841799 
L 326.016839 151.597006 
L 326.341818 125.675184 
L 326.666798 154.209414 
L 326.991777 129.68596 
L 327.316757 153.837923 
L 327.641736 133.212515 
L 327.966716 126.806594 
L 328.291695 154.607116 
L 328.616675 162.961019 
L 328.941654 159.223668 
L 329.266634 134.229754 
L 329.591613 121.420372 
L 329.916593 163.747446 
L 330.241572 127.486764 
L 330.566552 148.15612 
L 330.891532 140.936667 
L 331.216511 117.241955 
L 331.541491 148.647931 
L 331.86647 141.63075 
L 332.19145 165.395091 
L 332.516429 161.821594 
L 332.841409 152.508903 
L 333.166388 164.649529 
L 333.491368 132.894442 
L 333.816347 143.67955 
L 334.141327 137.273694 
L 334.466306 156.925738 
L 334.791286 150.544191 
L 335.441245 115.324454 
L 335.766224 163.462269 
L 336.091204 119.266375 
L 336.416183 135.761715 
L 336.741163 136.443707 
L 337.066143 139.792256 
L 337.391122 162.463755 
L 337.716102 161.38603 
L 338.041081 134.497306 
L 338.366061 148.175066 
L 338.69104 117.851854 
L 339.01602 144.721762 
L 339.340999 158.576083 
L 339.665979 128.509224 
L 339.990958 150.679867 
L 340.640917 129.397703 
L 340.965897 118.746538 
L 341.615856 130.527463 
L 341.940835 130.355297 
L 342.265815 116.344054 
L 342.590794 150.54987 
L 342.915774 166.056493 
L 343.240753 151.805794 
L 343.565733 154.650393 
L 343.890713 131.291792 
L 344.215692 132.771516 
L 344.540672 134.889329 
L 344.865651 165.260339 
L 345.190631 127.769481 
L 345.51561 149.092069 
L 345.84059 131.122294 
L 346.165569 136.82997 
L 346.815528 159.034117 
L 347.140508 161.147045 
L 347.465487 122.363679 
L 347.790467 117.792426 
L 348.115446 131.925635 
L 348.440426 160.672698 
L 349.090385 127.761002 
L 349.415364 125.083802 
L 349.740344 159.894794 
L 350.065324 166.113391 
L 350.390303 128.645068 
L 350.715283 147.352275 
L 351.040262 152.725169 
L 351.365242 165.436392 
L 351.690221 137.68651 
L 352.015201 121.330697 
L 352.34018 115.728076 
L 352.66516 136.347662 
L 352.990139 139.046011 
L 353.315119 161.639664 
L 353.640098 137.235411 
L 353.965078 146.121955 
L 354.290057 134.169861 
L 354.940016 153.471383 
L 355.264996 161.118296 
L 355.589975 149.545198 
L 355.914955 161.029924 
L 356.239934 156.807364 
L 356.564914 114.165138 
L 356.889894 142.747969 
L 357.214873 138.12994 
L 357.539853 120.148527 
L 357.864832 113.731963 
L 358.189812 135.454792 
L 358.514791 123.365729 
L 358.839771 148.912616 
L 359.16475 150.027925 
L 359.48973 144.926271 
L 359.814709 130.730236 
L 360.139689 130.220678 
L 360.464668 149.528309 
L 360.789648 159.106009 
L 361.114627 132.840724 
L 361.439607 159.362989 
L 361.764586 135.676934 
L 362.089566 129.629775 
L 362.414545 129.251498 
L 362.739525 126.470174 
L 363.064505 120.188468 
L 363.389484 139.809069 
L 363.714464 127.692076 
L 364.039443 133.536496 
L 364.364423 156.294725 
L 364.689402 164.763316 
L 365.014382 151.143523 
L 365.664341 133.645242 
L 365.98932 121.393384 
L 366.3143 155.789305 
L 366.639279 159.509056 
L 366.964259 115.420361 
L 367.289238 160.430114 
L 367.614218 140.938629 
L 367.939197 135.304874 
L 368.264177 137.629947 
L 368.589156 161.588323 
L 368.914136 163.114469 
L 369.239115 160.564871 
L 369.564095 135.303613 
L 369.889075 137.473652 
L 370.214054 153.816457 
L 370.539034 132.557761 
L 370.864013 122.966178 
L 371.188993 163.927281 
L 371.513972 139.905307 
L 371.838952 129.846118 
L 372.163931 152.839315 
L 372.488911 149.921274 
L 373.13887 118.869071 
L 373.463849 123.499868 
L 373.788829 135.432916 
L 374.113808 127.693521 
L 374.438788 146.919438 
L 374.763767 132.389842 
L 375.088747 141.586307 
L 375.413726 156.121291 
L 375.738706 129.192211 
L 376.063686 136.835957 
L 376.388665 147.245705 
L 376.713645 118.163809 
L 377.038624 165.013534 
L 377.363604 149.500227 
L 377.688583 163.122125 
L 378.013563 125.783259 
L 378.338542 129.172787 
L 378.663522 148.680515 
L 378.988501 130.564198 
L 379.313481 145.282298 
L 379.63846 126.323812 
L 379.96344 142.217593 
L 380.288419 144.422418 
L 380.613399 116.933078 
L 380.938378 152.914705 
L 381.263358 159.777527 
L 381.913317 115.112984 
L 382.238296 146.234547 
L 382.563276 162.850869 
L 382.888256 148.262056 
L 383.213235 139.49481 
L 383.538215 157.595236 
L 384.188174 113.617234 
L 384.513153 142.346196 
L 384.838133 147.450542 
L 385.163112 145.03148 
L 385.488092 160.056454 
L 385.813071 119.640514 
L 386.138051 144.288461 
L 386.46303 145.738103 
L 386.78801 131.404617 
L 387.112989 142.856892 
L 387.437969 132.007431 
L 387.762948 162.881938 
L 388.087928 123.299983 
L 388.412907 116.62927 
L 388.737887 131.979443 
L 389.062867 115.889383 
L 389.387846 158.147216 
L 389.712826 140.995185 
L 390.037805 134.450229 
L 390.362785 135.50624 
L 390.687764 144.991617 
L 391.012744 148.326293 
L 391.337723 159.44201 
L 391.662703 145.503011 
L 391.987682 157.556415 
L 392.312662 127.475482 
L 392.637641 155.127119 
L 392.962621 163.033524 
L 393.2876 137.051605 
L 393.61258 134.796285 
L 393.937559 120.238262 
L 394.587518 147.93712 
L 394.912498 123.86358 
L 395.237477 137.687589 
L 395.562457 161.943581 
L 396.212416 118.338529 
L 396.537396 145.262546 
L 396.862375 150.523472 
L 397.187355 158.566191 
L 397.512334 158.146521 
L 397.837314 143.34422 
L 398.162293 134.772603 
L 398.487273 161.873332 
L 398.487273 161.873332 
" clip-path="url(#p3bc5aee128)" style="fill: none; stroke: #1f77b4; stroke-width: 1.5; stroke-linecap: square"/>
   </g>
   <g id="patch_8">
    <path d="M 57.6 168.742957 
L 57.6 110.892522 
" style="fill: none; stroke: #000000; stroke-width: 0.8; stroke-linejoin: miter; stroke-linecap: square"/>
   </g>
   <g id="patch_9">
    <path d="M 414.72 168.742957 
L 414.72 110.892522 
" style="fill: none; stroke: #000000; stroke-width: 0.8; stroke-linejoin: miter; stroke-linecap: square"/>
   </g>
   <g id="patch_10">
    <path d="M 57.6 168.742957 
L 414.72 168.742957 
" style="fill: none; stroke: #000000; stroke-width: 0.8; stroke-linejoin: miter; stroke-linecap: square"/>
   </g>
   <g id="patch_11">
    <path d="M 57.6 110.892522 
L 414.72 110.892522 
" style="fill: none; stroke: #000000; stroke-width: 0.8; stroke-linejoin: miter; stroke-linecap: square"/>
   </g>
   <g id="text_18">
    <!-- Zgomot -->
    <g transform="translate(212.701875 104.892522) scale(0.12 -0.12)">
     <defs>
      <path id="DejaVuSans-5a" d="M 359 4666 
L 4025 4666 
L 4025 4184 
L 1075 531 
L 4097 531 
L 4097 0 
L 288 0 
L 288 481 
L 3238 4134 
L 359 4134 
L 359 4666 
z
" transform="scale(0.015625)"/>
      <path id="DejaVuSans-6f" d="M 1959 3097 
Q 1497 3097 1228 2736 
Q 959 2375 959 1747 
Q 959 1119 1226 758 
Q 1494 397 1959 397 
Q 2419 397 2687 759 
Q 2956 1122 2956 1747 
Q 2956 2369 2687 2733 
Q 2419 3097 1959 3097 
z
M 1959 3584 
Q 2709 3584 3137 3096 
Q 3566 2609 3566 1747 
Q 3566 888 3137 398 
Q 2709 -91 1959 -91 
Q 1206 -91 779 398 
Q 353 888 353 1747 
Q 353 2609 779 3096 
Q 1206 3584 1959 3584 
z
" transform="scale(0.015625)"/>
      <path id="DejaVuSans-6d" d="M 3328 2828 
Q 3544 3216 3844 3400 
Q 4144 3584 4550 3584 
Q 5097 3584 5394 3201 
Q 5691 2819 5691 2113 
L 5691 0 
L 5113 0 
L 5113 2094 
Q 5113 2597 4934 2840 
Q 4756 3084 4391 3084 
Q 3944 3084 3684 2787 
Q 3425 2491 3425 1978 
L 3425 0 
L 2847 0 
L 2847 2094 
Q 2847 2600 2669 2842 
Q 2491 3084 2119 3084 
Q 1678 3084 1418 2786 
Q 1159 2488 1159 1978 
L 1159 0 
L 581 0 
L 581 3500 
L 1159 3500 
L 1159 2956 
Q 1356 3278 1631 3431 
Q 1906 3584 2284 3584 
Q 2666 3584 2933 3390 
Q 3200 3197 3328 2828 
z
" transform="scale(0.015625)"/>
     </defs>
     <use xlink:href="#DejaVuSans-5a"/>
     <use xlink:href="#DejaVuSans-67" x="68.505859"/>
     <use xlink:href="#DejaVuSans-6f" x="131.982422"/>
     <use xlink:href="#DejaVuSans-6d" x="193.164062"/>
     <use xlink:href="#DejaVuSans-6f" x="290.576172"/>
     <use xlink:href="#DejaVuSans-74" x="351.757812"/>
    </g>
   </g>
  </g>
  <g id="axes_3">
   <g id="patch_12">
    <path d="M 57.6 238.163478 
L 414.72 238.163478 
L 414.72 180.313043 
L 57.6 180.313043 
z
" style="fill: #ffffff"/>
   </g>
   <g id="matplotlib.axis_5">
    <g id="xtick_13">
     <g id="line2d_19">
      <g>
       <use xlink:href="#m1d885bfbfe" x="73.832727" y="238.163478" style="stroke: #000000; stroke-width: 0.8"/>
      </g>
     </g>
     <g id="text_19">
      <!-- 0 -->
      <g transform="translate(70.651477 252.761916) scale(0.1 -0.1)">
       <use xlink:href="#DejaVuSans-30"/>
      </g>
     </g>
    </g>
    <g id="xtick_14">
     <g id="line2d_20">
      <g>
       <use xlink:href="#m1d885bfbfe" x="138.828632" y="238.163478" style="stroke: #000000; stroke-width: 0.8"/>
      </g>
     </g>
     <g id="text_20">
      <!-- 200 -->
      <g transform="translate(129.284882 252.761916) scale(0.1 -0.1)">
       <use xlink:href="#DejaVuSans-32"/>
       <use xlink:href="#DejaVuSans-30" x="63.623047"/>
       <use xlink:href="#DejaVuSans-30" x="127.246094"/>
      </g>
     </g>
    </g>
    <g id="xtick_15">
     <g id="line2d_21">
      <g>
       <use xlink:href="#m1d885bfbfe" x="203.824537" y="238.163478" style="stroke: #000000; stroke-width: 0.8"/>
      </g>
     </g>
     <g id="text_21">
      <!-- 400 -->
      <g transform="translate(194.280787 252.761916) scale(0.1 -0.1)">
       <use xlink:href="#DejaVuSans-34"/>
       <use xlink:href="#DejaVuSans-30" x="63.623047"/>
       <use xlink:href="#DejaVuSans-30" x="127.246094"/>
      </g>
     </g>
    </g>
    <g id="xtick_16">
     <g id="line2d_22">
      <g>
       <use xlink:href="#m1d885bfbfe" x="268.820442" y="238.163478" style="stroke: #000000; stroke-width: 0.8"/>
      </g>
     </g>
     <g id="text_22">
      <!-- 600 -->
      <g transform="translate(259.276692 252.761916) scale(0.1 -0.1)">
       <use xlink:href="#DejaVuSans-36"/>
       <use xlink:href="#DejaVuSans-30" x="63.623047"/>
       <use xlink:href="#DejaVuSans-30" x="127.246094"/>
      </g>
     </g>
    </g>
    <g id="xtick_17">
     <g id="line2d_23">
      <g>
       <use xlink:href="#m1d885bfbfe" x="333.816347" y="238.163478" style="stroke: #000000; stroke-width: 0.8"/>
      </g>
     </g>
     <g id="text_23">
      <!-- 800 -->
      <g transform="translate(324.272597 252.761916) scale(0.1 -0.1)">
       <use xlink:href="#DejaVuSans-38"/>
       <use xlink:href="#DejaVuSans-30" x="63.623047"/>
       <use xlink:href="#DejaVuSans-30" x="127.246094"/>
      </g>
     </g>
    </g>
    <g id="xtick_18">
     <g id="line2d_24">
      <g>
       <use xlink:href="#m1d885bfbfe" x="398.812252" y="238.163478" style="stroke: #000000; stroke-width: 0.8"/>
      </g>
     </g>
     <g id="text_24">
      <!-- 1000 -->
      <g transform="translate(386.087252 252.761916) scale(0.1 -0.1)">
       <use xlink:href="#DejaVuSans-31"/>
       <use xlink:href="#DejaVuSans-30" x="63.623047"/>
       <use xlink:href="#DejaVuSans-30" x="127.246094"/>
       <use xlink:href="#DejaVuSans-30" x="190.869141"/>
      </g>
     </g>
    </g>
   </g>
   <g id="matplotlib.axis_6">
    <g id="ytick_5">
     <g id="line2d_25">
      <g>
       <use xlink:href="#m53cffa82ba" x="57.6" y="233.267406" style="stroke: #000000; stroke-width: 0.8"/>
      </g>
     </g>
     <g id="text_25">
      <!-- −0.25 -->
      <g transform="translate(19.954687 237.066625) scale(0.1 -0.1)">
       <defs>
        <path id="DejaVuSans-2212" d="M 678 2272 
L 4684 2272 
L 4684 1741 
L 678 1741 
L 678 2272 
z
" transform="scale(0.015625)"/>
        <path id="DejaVuSans-35" d="M 691 4666 
L 3169 4666 
L 3169 4134 
L 1269 4134 
L 1269 2991 
Q 1406 3038 1543 3061 
Q 1681 3084 1819 3084 
Q 2600 3084 3056 2656 
Q 3513 2228 3513 1497 
Q 3513 744 3044 326 
Q 2575 -91 1722 -91 
Q 1428 -91 1123 -41 
Q 819 9 494 109 
L 494 744 
Q 775 591 1075 516 
Q 1375 441 1709 441 
Q 2250 441 2565 725 
Q 2881 1009 2881 1497 
Q 2881 1984 2565 2268 
Q 2250 2553 1709 2553 
Q 1456 2553 1204 2497 
Q 953 2441 691 2322 
L 691 4666 
z
" transform="scale(0.015625)"/>
       </defs>
       <use xlink:href="#DejaVuSans-2212"/>
       <use xlink:href="#DejaVuSans-30" x="83.789062"/>
       <use xlink:href="#DejaVuSans-2e" x="147.412109"/>
       <use xlink:href="#DejaVuSans-32" x="179.199219"/>
       <use xlink:href="#DejaVuSans-35" x="242.822266"/>
      </g>
     </g>
    </g>
    <g id="ytick_6">
     <g id="line2d_26">
      <g>
       <use xlink:href="#m53cffa82ba" x="57.6" y="209.238261" style="stroke: #000000; stroke-width: 0.8"/>
      </g>
     </g>
     <g id="text_26">
      <!-- 0.00 -->
      <g transform="translate(28.334375 213.03748) scale(0.1 -0.1)">
       <use xlink:href="#DejaVuSans-30"/>
       <use xlink:href="#DejaVuSans-2e" x="63.623047"/>
       <use xlink:href="#DejaVuSans-30" x="95.410156"/>
       <use xlink:href="#DejaVuSans-30" x="159.033203"/>
      </g>
     </g>
    </g>
    <g id="ytick_7">
     <g id="line2d_27">
      <g>
       <use xlink:href="#m53cffa82ba" x="57.6" y="185.209116" style="stroke: #000000; stroke-width: 0.8"/>
      </g>
     </g>
     <g id="text_27">
      <!-- 0.25 -->
      <g transform="translate(28.334375 189.008334) scale(0.1 -0.1)">
       <use xlink:href="#DejaVuSans-30"/>
       <use xlink:href="#DejaVuSans-2e" x="63.623047"/>
       <use xlink:href="#DejaVuSans-32" x="95.410156"/>
       <use xlink:href="#DejaVuSans-35" x="159.033203"/>
      </g>
     </g>
    </g>
   </g>
   <g id="line2d_28">
    <path d="M 73.832727 209.238261 
L 77.732482 198.669883 
L 79.682359 193.959763 
L 81.307256 190.529292 
L 82.932154 187.655404 
L 84.232072 185.811926 
L 85.53199 184.408172 
L 86.506929 183.657539 
L 87.481867 183.172482 
L 88.456806 182.95544 
L 89.431744 183.005631 
L 90.406683 183.319077 
L 91.381622 183.888658 
L 92.35656 184.704219 
L 93.656478 186.151314 
L 94.956396 187.973816 
L 96.581294 190.70905 
L 98.531171 194.522414 
L 101.131007 200.171563 
L 105.680721 210.152474 
L 107.630598 213.914755 
L 109.255495 216.614682 
L 110.555414 218.426787 
L 111.855332 219.891211 
L 113.15525 220.981622 
L 114.130188 221.543352 
L 115.105127 221.88123 
L 116.080066 221.994664 
L 117.055004 221.886139 
L 118.029943 221.561169 
L 119.004881 221.028212 
L 120.304799 220.013959 
L 121.604717 218.684346 
L 123.229615 216.642868 
L 125.179492 213.764265 
L 128.104308 208.966246 
L 131.354103 203.710844 
L 133.30398 200.971574 
L 134.928878 199.090383 
L 136.228796 197.913701 
L 137.528714 197.070396 
L 138.503653 196.675015 
L 139.478591 196.493581 
L 140.45353 196.532602 
L 141.428468 196.795578 
L 142.403407 197.282947 
L 143.378346 197.992065 
L 144.678264 199.272206 
L 145.978182 200.914321 
L 147.2781 202.887647 
L 148.902998 205.759773 
L 150.852875 209.676678 
L 153.77769 216.114587 
L 157.677445 224.622265 
L 159.627322 228.350853 
L 161.252219 230.991129 
L 162.552138 232.723814 
L 163.852056 234.07074 
L 164.826994 234.805618 
L 165.801933 235.290801 
L 166.776871 235.517133 
L 167.75181 235.478532 
L 168.726749 235.172079 
L 169.701687 234.598067 
L 170.676626 233.760007 
L 171.651564 232.664596 
L 172.951482 230.821118 
L 174.2514 228.569405 
L 175.876298 225.242852 
L 177.826175 220.629139 
L 180.426011 213.749354 
L 186.600622 197.03861 
L 188.5505 192.526763 
L 190.175397 189.307978 
L 191.475315 187.154876 
L 192.775233 185.418737 
L 193.750172 184.408172 
L 194.725111 183.657539 
L 195.700049 183.172482 
L 196.674988 182.95544 
L 197.649926 183.005631 
L 198.624865 183.319077 
L 199.599803 183.888658 
L 200.574742 184.704219 
L 201.87466 186.151314 
L 203.174578 187.973816 
L 204.799476 190.70905 
L 206.749353 194.522414 
L 209.349189 200.171563 
L 213.898903 210.152474 
L 215.84878 213.914755 
L 217.473677 216.614682 
L 218.773595 218.426787 
L 220.073514 219.891211 
L 221.373432 220.981622 
L 222.34837 221.543352 
L 223.323309 221.88123 
L 224.298247 221.994664 
L 225.273186 221.886139 
L 226.248124 221.561169 
L 227.223063 221.028212 
L 228.522981 220.013959 
L 229.822899 218.684346 
L 231.447797 216.642868 
L 233.397674 213.764265 
L 236.32249 208.966246 
L 239.572285 203.710844 
L 241.522162 200.971574 
L 243.14706 199.090383 
L 244.446978 197.913701 
L 245.746896 197.070396 
L 246.721835 196.675015 
L 247.696773 196.493581 
L 248.671712 196.532602 
L 249.64665 196.795578 
L 250.621589 197.282947 
L 251.596527 197.992065 
L 252.896446 199.272206 
L 254.196364 200.914321 
L 255.496282 202.887647 
L 257.121179 205.759773 
L 259.071057 209.676678 
L 261.995872 216.114587 
L 265.895627 224.622265 
L 267.845504 228.350853 
L 269.470401 230.991129 
L 270.770319 232.723814 
L 272.070238 234.07074 
L 273.045176 234.805618 
L 274.020115 235.290801 
L 274.995053 235.517133 
L 275.969992 235.478532 
L 276.94493 235.172079 
L 277.919869 234.598067 
L 278.894808 233.760007 
L 279.869746 232.664596 
L 281.169664 230.821118 
L 282.469582 228.569405 
L 284.09448 225.242852 
L 286.044357 220.629139 
L 288.644193 213.749354 
L 294.818804 197.03861 
L 296.768681 192.526763 
L 298.393579 189.307978 
L 299.693497 187.154876 
L 300.993415 185.418737 
L 301.968354 184.408172 
L 302.943292 183.657539 
L 303.918231 183.172482 
L 304.89317 182.95544 
L 305.868108 183.005631 
L 306.843047 183.319077 
L 307.817985 183.888658 
L 308.792924 184.704219 
L 310.092842 186.151314 
L 311.39276 187.973816 
L 313.017658 190.70905 
L 314.967535 194.522414 
L 317.567371 200.171563 
L 322.117084 210.152474 
L 324.066962 213.914755 
L 325.691859 216.614682 
L 326.991777 218.426787 
L 328.291695 219.891211 
L 329.591613 220.981622 
L 330.566552 221.543352 
L 331.541491 221.88123 
L 332.516429 221.994664 
L 333.491368 221.886139 
L 334.466306 221.561169 
L 335.441245 221.028212 
L 336.741163 220.013959 
L 338.041081 218.684346 
L 339.665979 216.642868 
L 341.615856 213.764265 
L 344.540672 208.966246 
L 347.790467 203.710844 
L 349.740344 200.971574 
L 351.365242 199.090383 
L 352.66516 197.913701 
L 353.965078 197.070396 
L 354.940016 196.675015 
L 355.914955 196.493581 
L 356.889894 196.532602 
L 357.864832 196.795578 
L 358.839771 197.282947 
L 359.814709 197.992065 
L 361.114627 199.272206 
L 362.414545 200.914321 
L 363.714464 202.887647 
L 365.339361 205.759773 
L 367.289238 209.676678 
L 370.214054 216.114587 
L 374.113808 224.622265 
L 376.063686 228.350853 
L 377.688583 230.991129 
L 378.988501 232.723814 
L 380.288419 234.07074 
L 381.263358 234.805618 
L 382.238296 235.290801 
L 383.213235 235.517133 
L 384.188174 235.478532 
L 385.163112 235.172079 
L 386.138051 234.598067 
L 387.112989 233.760007 
L 388.087928 232.664596 
L 389.387846 230.821118 
L 390.687764 228.569405 
L 392.312662 225.242852 
L 394.262539 220.629139 
L 396.862375 213.749354 
L 398.487273 209.238261 
L 398.487273 209.238261 
" clip-path="url(#p3b903163f2)" style="fill: none; stroke: #1f77b4; stroke-width: 1.5; stroke-linecap: square"/>
   </g>
   <g id="patch_13">
    <path d="M 57.6 238.163478 
L 57.6 180.313043 
" style="fill: none; stroke: #000000; stroke-width: 0.8; stroke-linejoin: miter; stroke-linecap: square"/>
   </g>
   <g id="patch_14">
    <path d="M 414.72 238.163478 
L 414.72 180.313043 
" style="fill: none; stroke: #000000; stroke-width: 0.8; stroke-linejoin: miter; stroke-linecap: square"/>
   </g>
   <g id="patch_15">
    <path d="M 57.6 238.163478 
L 414.72 238.163478 
" style="fill: none; stroke: #000000; stroke-width: 0.8; stroke-linejoin: miter; stroke-linecap: square"/>
   </g>
   <g id="patch_16">
    <path d="M 57.6 180.313043 
L 414.72 180.313043 
" style="fill: none; stroke: #000000; stroke-width: 0.8; stroke-linejoin: miter; stroke-linecap: square"/>
   </g>
   <g id="text_28">
    <!-- Semnal -->
    <g transform="translate(213.668437 174.313043) scale(0.12 -0.12)">
     <defs>
      <path id="DejaVuSans-53" d="M 3425 4513 
L 3425 3897 
Q 3066 4069 2747 4153 
Q 2428 4238 2131 4238 
Q 1616 4238 1336 4038 
Q 1056 3838 1056 3469 
Q 1056 3159 1242 3001 
Q 1428 2844 1947 2747 
L 2328 2669 
Q 3034 2534 3370 2195 
Q 3706 1856 3706 1288 
Q 3706 609 3251 259 
Q 2797 -91 1919 -91 
Q 1588 -91 1214 -16 
Q 841 59 441 206 
L 441 856 
Q 825 641 1194 531 
Q 1563 422 1919 422 
Q 2459 422 2753 634 
Q 3047 847 3047 1241 
Q 3047 1584 2836 1778 
Q 2625 1972 2144 2069 
L 1759 2144 
Q 1053 2284 737 2584 
Q 422 2884 422 3419 
Q 422 4038 858 4394 
Q 1294 4750 2059 4750 
Q 2388 4750 2728 4690 
Q 3069 4631 3425 4513 
z
" transform="scale(0.015625)"/>
      <path id="DejaVuSans-6e" d="M 3513 2113 
L 3513 0 
L 2938 0 
L 2938 2094 
Q 2938 2591 2744 2837 
Q 2550 3084 2163 3084 
Q 1697 3084 1428 2787 
Q 1159 2491 1159 1978 
L 1159 0 
L 581 0 
L 581 3500 
L 1159 3500 
L 1159 2956 
Q 1366 3272 1645 3428 
Q 1925 3584 2291 3584 
Q 2894 3584 3203 3211 
Q 3513 2838 3513 2113 
z
" transform="scale(0.015625)"/>
      <path id="DejaVuSans-6c" d="M 603 4863 
L 1178 4863 
L 1178 0 
L 603 0 
L 603 4863 
z
" transform="scale(0.015625)"/>
     </defs>
     <use xlink:href="#DejaVuSans-53"/>
     <use xlink:href="#DejaVuSans-65" x="63.476562"/>
     <use xlink:href="#DejaVuSans-6d" x="125"/>
     <use xlink:href="#DejaVuSans-6e" x="222.412109"/>
     <use xlink:href="#DejaVuSans-61" x="285.791016"/>
     <use xlink:href="#DejaVuSans-6c" x="347.070312"/>
    </g>
   </g>
  </g>
  <g id="axes_4">
   <g id="patch_17">
    <path d="M 57.6 307.584 
L 414.72 307.584 
L 414.72 249.733565 
L 57.6 249.733565 
z
" style="fill: #ffffff"/>
   </g>
   <g id="matplotlib.axis_7">
    <g id="xtick_19">
     <g id="line2d_29">
      <g>
       <use xlink:href="#m1d885bfbfe" x="73.832727" y="307.584" style="stroke: #000000; stroke-width: 0.8"/>
      </g>
     </g>
     <g id="text_29">
      <!-- 0 -->
      <g transform="translate(70.651477 322.182437) scale(0.1 -0.1)">
       <use xlink:href="#DejaVuSans-30"/>
      </g>
     </g>
    </g>
    <g id="xtick_20">
     <g id="line2d_30">
      <g>
       <use xlink:href="#m1d885bfbfe" x="138.828632" y="307.584" style="stroke: #000000; stroke-width: 0.8"/>
      </g>
     </g>
     <g id="text_30">
      <!-- 200 -->
      <g transform="translate(129.284882 322.182437) scale(0.1 -0.1)">
       <use xlink:href="#DejaVuSans-32"/>
       <use xlink:href="#DejaVuSans-30" x="63.623047"/>
       <use xlink:href="#DejaVuSans-30" x="127.246094"/>
      </g>
     </g>
    </g>
    <g id="xtick_21">
     <g id="line2d_31">
      <g>
       <use xlink:href="#m1d885bfbfe" x="203.824537" y="307.584" style="stroke: #000000; stroke-width: 0.8"/>
      </g>
     </g>
     <g id="text_31">
      <!-- 400 -->
      <g transform="translate(194.280787 322.182437) scale(0.1 -0.1)">
       <use xlink:href="#DejaVuSans-34"/>
       <use xlink:href="#DejaVuSans-30" x="63.623047"/>
       <use xlink:href="#DejaVuSans-30" x="127.246094"/>
      </g>
     </g>
    </g>
    <g id="xtick_22">
     <g id="line2d_32">
      <g>
       <use xlink:href="#m1d885bfbfe" x="268.820442" y="307.584" style="stroke: #000000; stroke-width: 0.8"/>
      </g>
     </g>
     <g id="text_32">
      <!-- 600 -->
      <g transform="translate(259.276692 322.182437) scale(0.1 -0.1)">
       <use xlink:href="#DejaVuSans-36"/>
       <use xlink:href="#DejaVuSans-30" x="63.623047"/>
       <use xlink:href="#DejaVuSans-30" x="127.246094"/>
      </g>
     </g>
    </g>
    <g id="xtick_23">
     <g id="line2d_33">
      <g>
       <use xlink:href="#m1d885bfbfe" x="333.816347" y="307.584" style="stroke: #000000; stroke-width: 0.8"/>
      </g>
     </g>
     <g id="text_33">
      <!-- 800 -->
      <g transform="translate(324.272597 322.182437) scale(0.1 -0.1)">
       <use xlink:href="#DejaVuSans-38"/>
       <use xlink:href="#DejaVuSans-30" x="63.623047"/>
       <use xlink:href="#DejaVuSans-30" x="127.246094"/>
      </g>
     </g>
    </g>
    <g id="xtick_24">
     <g id="line2d_34">
      <g>
       <use xlink:href="#m1d885bfbfe" x="398.812252" y="307.584" style="stroke: #000000; stroke-width: 0.8"/>
      </g>
     </g>
     <g id="text_34">
      <!-- 1000 -->
      <g transform="translate(386.087252 322.182437) scale(0.1 -0.1)">
       <use xlink:href="#DejaVuSans-31"/>
       <use xlink:href="#DejaVuSans-30" x="63.623047"/>
       <use xlink:href="#DejaVuSans-30" x="127.246094"/>
       <use xlink:href="#DejaVuSans-30" x="190.869141"/>
      </g>
     </g>
    </g>
    <g id="text_35">
     <!-- Ordin esantion -->
     <g transform="translate(199.443594 335.860562) scale(0.1 -0.1)">
      <defs>
       <path id="DejaVuSans-4f" d="M 2522 4238 
Q 1834 4238 1429 3725 
Q 1025 3213 1025 2328 
Q 1025 1447 1429 934 
Q 1834 422 2522 422 
Q 3209 422 3611 934 
Q 4013 1447 4013 2328 
Q 4013 3213 3611 3725 
Q 3209 4238 2522 4238 
z
M 2522 4750 
Q 3503 4750 4090 4092 
Q 4678 3434 4678 2328 
Q 4678 1225 4090 567 
Q 3503 -91 2522 -91 
Q 1538 -91 948 565 
Q 359 1222 359 2328 
Q 359 3434 948 4092 
Q 1538 4750 2522 4750 
z
" transform="scale(0.015625)"/>
       <path id="DejaVuSans-73" d="M 2834 3397 
L 2834 2853 
Q 2591 2978 2328 3040 
Q 2066 3103 1784 3103 
Q 1356 3103 1142 2972 
Q 928 2841 928 2578 
Q 928 2378 1081 2264 
Q 1234 2150 1697 2047 
L 1894 2003 
Q 2506 1872 2764 1633 
Q 3022 1394 3022 966 
Q 3022 478 2636 193 
Q 2250 -91 1575 -91 
Q 1294 -91 989 -36 
Q 684 19 347 128 
L 347 722 
Q 666 556 975 473 
Q 1284 391 1588 391 
Q 1994 391 2212 530 
Q 2431 669 2431 922 
Q 2431 1156 2273 1281 
Q 2116 1406 1581 1522 
L 1381 1569 
Q 847 1681 609 1914 
Q 372 2147 372 2553 
Q 372 3047 722 3315 
Q 1072 3584 1716 3584 
Q 2034 3584 2315 3537 
Q 2597 3491 2834 3397 
z
" transform="scale(0.015625)"/>
      </defs>
      <use xlink:href="#DejaVuSans-4f"/>
      <use xlink:href="#DejaVuSans-72" x="78.710938"/>
      <use xlink:href="#DejaVuSans-64" x="118.074219"/>
      <use xlink:href="#DejaVuSans-69" x="181.550781"/>
      <use xlink:href="#DejaVuSans-6e" x="209.333984"/>
      <use xlink:href="#DejaVuSans-20" x="272.712891"/>
      <use xlink:href="#DejaVuSans-65" x="304.5"/>
      <use xlink:href="#DejaVuSans-73" x="366.023438"/>
      <use xlink:href="#DejaVuSans-61" x="418.123047"/>
      <use xlink:href="#DejaVuSans-6e" x="479.402344"/>
      <use xlink:href="#DejaVuSans-74" x="542.78125"/>
      <use xlink:href="#DejaVuSans-69" x="581.990234"/>
      <use xlink:href="#DejaVuSans-6f" x="609.773438"/>
      <use xlink:href="#DejaVuSans-6e" x="670.955078"/>
     </g>
    </g>
   </g>
   <g id="matplotlib.axis_8">
    <g id="ytick_8">
     <g id="line2d_35">
      <g>
       <use xlink:href="#m53cffa82ba" x="57.6" y="288.338791" style="stroke: #000000; stroke-width: 0.8"/>
      </g>
     </g>
     <g id="text_36">
      <!-- 2 -->
      <g transform="translate(44.2375 292.13801) scale(0.1 -0.1)">
       <use xlink:href="#DejaVuSans-32"/>
      </g>
     </g>
    </g>
    <g id="ytick_9">
     <g id="line2d_36">
      <g>
       <use xlink:href="#m53cffa82ba" x="57.6" y="253.174248" style="stroke: #000000; stroke-width: 0.8"/>
      </g>
     </g>
     <g id="text_37">
      <!-- 4 -->
      <g transform="translate(44.2375 256.973466) scale(0.1 -0.1)">
       <use xlink:href="#DejaVuSans-34"/>
      </g>
     </g>
    </g>
    <g id="text_38">
     <!-- Valoare -->
     <g transform="translate(38.157812 297.287689) rotate(-90) scale(0.1 -0.1)">
      <defs>
       <path id="DejaVuSans-56" d="M 1831 0 
L 50 4666 
L 709 4666 
L 2188 738 
L 3669 4666 
L 4325 4666 
L 2547 0 
L 1831 0 
z
" transform="scale(0.015625)"/>
      </defs>
      <use xlink:href="#DejaVuSans-56"/>
      <use xlink:href="#DejaVuSans-61" x="60.658203"/>
      <use xlink:href="#DejaVuSans-6c" x="121.9375"/>
      <use xlink:href="#DejaVuSans-6f" x="149.720703"/>
      <use xlink:href="#DejaVuSans-61" x="210.902344"/>
      <use xlink:href="#DejaVuSans-72" x="272.181641"/>
      <use xlink:href="#DejaVuSans-65" x="311.044922"/>
     </g>
    </g>
   </g>
   <g id="line2d_37">
    <path d="M 73.832727 304.16779 
L 74.157707 304.737051 
L 74.482686 304.954435 
L 74.807666 304.931578 
L 75.132645 304.502327 
L 75.457625 304.264427 
L 75.782604 304.600377 
L 76.107584 303.874322 
L 76.432563 303.512161 
L 76.757543 302.863488 
L 77.082523 302.787112 
L 77.407502 302.505115 
L 77.732482 303.548187 
L 78.057461 302.994086 
L 78.382441 302.029782 
L 78.70742 302.161241 
L 79.0324 302.824718 
L 79.357379 301.244425 
L 79.682359 301.128142 
L 80.007338 301.353998 
L 80.332318 302.036187 
L 80.657297 300.643764 
L 80.982277 300.80737 
L 81.307256 300.304919 
L 81.632236 300.208201 
L 81.957215 299.972421 
L 82.282195 300.332146 
L 82.607174 300.859262 
L 82.932154 299.793534 
L 83.257133 299.754883 
L 83.582113 299.417744 
L 83.907093 300.305914 
L 84.232072 300.148522 
L 84.557052 298.817521 
L 84.882031 298.961236 
L 85.207011 298.584941 
L 85.85697 298.951421 
L 86.181949 298.768938 
L 86.506929 298.278795 
L 86.831908 298.75281 
L 87.156888 298.592388 
L 87.481867 299.368353 
L 88.131826 298.278536 
L 88.456806 299.017195 
L 88.781785 299.098815 
L 89.106765 298.868876 
L 89.756724 298.991281 
L 90.081704 298.604347 
L 90.406683 297.74256 
L 91.056642 298.998635 
L 91.381622 299.196456 
L 91.706601 298.115506 
L 92.031581 298.679063 
L 92.35656 297.924546 
L 92.68154 298.232046 
L 93.006519 298.01835 
L 93.331499 298.971382 
L 93.656478 298.267785 
L 93.981458 299.060676 
L 94.306437 297.917848 
L 94.956396 299.098249 
L 95.606355 299.447933 
L 95.931335 298.624933 
L 96.256314 299.527652 
L 96.581294 298.934593 
L 96.906274 299.588022 
L 97.231253 298.964264 
L 97.556233 298.772792 
L 98.206192 299.030092 
L 98.531171 300.122146 
L 98.856151 300.383106 
L 99.18113 299.397654 
L 99.50611 300.068557 
L 99.831089 300.047052 
L 100.156069 300.844669 
L 100.481048 300.536278 
L 100.806028 301.027524 
L 101.131007 299.635628 
L 101.455987 300.848639 
L 101.780966 300.39207 
L 102.105946 301.398942 
L 102.430925 300.390371 
L 102.755905 301.089944 
L 103.080885 300.173721 
L 103.405864 300.284846 
L 103.730844 301.367458 
L 104.055823 300.44729 
L 104.380803 300.370683 
L 104.705782 300.760259 
L 105.030762 300.813851 
L 105.355741 301.947568 
L 105.680721 301.45555 
L 106.0057 302.433336 
L 106.33068 302.464522 
L 106.655659 300.952553 
L 106.980639 302.209398 
L 107.305618 301.540396 
L 107.955577 301.482926 
L 108.280557 301.300675 
L 108.605536 302.690078 
L 108.930516 303.100307 
L 109.255495 302.501352 
L 109.580475 303.04506 
L 109.905455 303.280066 
L 110.555414 302.021369 
L 111.205373 302.913222 
L 111.530352 302.338341 
L 111.855332 303.102294 
L 112.180311 303.50204 
L 112.505291 302.196133 
L 112.83027 302.45164 
L 113.15525 302.211827 
L 113.480229 303.482958 
L 113.805209 302.074317 
L 114.130188 302.447068 
L 114.455168 302.531341 
L 114.780147 302.404687 
L 115.105127 301.959407 
L 115.430106 302.419085 
L 115.755086 302.396794 
L 116.080066 301.639006 
L 116.730025 302.514787 
L 117.055004 301.997729 
L 117.379984 302.501753 
L 117.704963 302.72392 
L 118.354922 301.361906 
L 118.679902 301.287655 
L 119.004881 302.243459 
L 119.329861 301.836104 
L 119.65484 302.307104 
L 119.97982 300.840135 
L 120.304799 300.773372 
L 120.629779 301.260488 
L 120.954758 300.888666 
L 121.604717 301.051037 
L 121.929697 301.890794 
L 122.254676 301.072621 
L 122.579656 300.570477 
L 122.904636 300.44759 
L 123.229615 300.862132 
L 123.554595 299.739308 
L 123.879574 300.975296 
L 124.529533 299.797544 
L 125.179492 299.607172 
L 125.504472 300.128929 
L 125.829451 300.202278 
L 126.154431 299.221599 
L 126.47941 299.147817 
L 126.80439 299.747149 
L 127.129369 298.683021 
L 127.454349 298.982361 
L 128.104308 298.029331 
L 128.429287 299.062661 
L 128.754267 299.187121 
L 129.079247 297.711049 
L 129.404226 297.869592 
L 130.704144 296.70413 
L 131.029124 297.317552 
L 131.679083 297.290636 
L 132.004062 297.598542 
L 132.329042 296.735607 
L 132.654021 297.131193 
L 132.979001 295.87664 
L 133.30398 296.35194 
L 133.62896 296.21848 
L 134.278919 296.945067 
L 134.603898 296.873073 
L 134.928878 296.080203 
L 135.253857 296.574823 
L 135.578837 295.558985 
L 135.903817 294.983037 
L 136.228796 294.889334 
L 136.553776 295.196442 
L 136.878755 295.901173 
L 137.203735 294.676561 
L 137.528714 294.561341 
L 137.853694 295.703048 
L 138.178673 294.685959 
L 138.503653 295.416726 
L 138.828632 294.451558 
L 139.153612 294.056069 
L 139.478591 295.707718 
L 139.803571 294.138258 
L 140.12855 294.581307 
L 140.45353 293.929111 
L 140.778509 294.791973 
L 141.103489 294.093224 
L 141.428468 295.451514 
L 141.753448 294.954343 
L 142.078428 295.413151 
L 142.403407 293.80775 
L 142.728387 294.082319 
L 143.378346 293.875124 
L 143.703325 295.383979 
L 144.028305 294.869282 
L 144.353284 295.440242 
L 144.678264 295.216587 
L 145.003243 295.210115 
L 145.328223 294.818811 
L 145.978182 295.538248 
L 146.303161 295.463081 
L 146.628141 295.544058 
L 146.95312 294.141092 
L 147.2781 294.569386 
L 147.603079 294.258573 
L 147.928059 295.245862 
L 148.253038 295.591553 
L 148.578018 294.742288 
L 148.902998 295.639899 
L 149.552957 295.947793 
L 149.877936 296.203687 
L 150.527895 295.96351 
L 150.852875 295.48433 
L 151.177854 296.642158 
L 151.502834 296.466341 
L 151.827813 295.499639 
L 152.152793 296.750541 
L 152.477772 296.494163 
L 152.802752 295.66488 
L 153.127731 297.001895 
L 153.452711 297.218382 
L 153.77769 296.601721 
L 154.10267 297.011769 
L 154.752629 296.309293 
L 155.077609 297.570278 
L 155.402588 296.878559 
L 155.727568 297.098006 
L 156.052547 297.819643 
L 156.377527 297.060724 
L 156.702506 297.760163 
L 157.027486 297.465347 
L 157.352465 298.258377 
L 157.677445 297.672928 
L 158.002424 298.017912 
L 158.327404 297.184211 
L 158.652383 298.600823 
L 158.977363 298.03315 
L 159.302342 298.028404 
L 159.627322 297.621937 
L 159.952301 297.945962 
L 160.92724 297.596055 
L 161.252219 298.604825 
L 162.227158 297.526855 
L 162.552138 297.730673 
L 162.877117 298.665187 
L 163.202097 298.99426 
L 163.852056 298.057506 
L 164.177035 298.500214 
L 164.502015 298.516545 
L 164.826994 297.887072 
L 165.151974 298.715112 
L 165.476953 297.823314 
L 165.801933 298.599014 
L 166.126912 298.7111 
L 166.451892 298.458582 
L 166.776871 297.879444 
L 167.101851 298.956234 
L 167.42683 298.784747 
L 167.75181 297.404092 
L 168.07679 298.709761 
L 168.401769 297.956 
L 168.726749 297.866017 
L 169.051728 297.948624 
L 169.376708 297.595337 
L 169.701687 298.23887 
L 170.026667 297.579857 
L 170.351646 297.800435 
L 170.676626 297.189352 
L 171.001605 297.997053 
L 171.326585 297.129056 
L 171.651564 297.689329 
L 171.976544 297.402375 
L 172.626503 297.310369 
L 172.951482 296.042564 
L 173.276462 296.849813 
L 173.601441 295.575255 
L 173.926421 295.348703 
L 174.57638 296.48704 
L 174.90136 295.915892 
L 175.226339 295.003819 
L 175.551319 295.588595 
L 175.876298 295.905998 
L 176.526257 294.211484 
L 176.851237 294.112258 
L 177.176216 295.014986 
L 177.501196 293.948338 
L 177.826175 294.549111 
L 178.151155 294.3562 
L 178.476134 293.003725 
L 178.801114 293.900068 
L 179.126093 293.672697 
L 179.451073 293.92909 
L 179.776052 292.192481 
L 180.101032 292.121403 
L 180.426011 292.202399 
L 180.750991 291.775635 
L 181.075971 292.615989 
L 181.40095 291.865403 
L 181.72593 291.841196 
L 182.050909 292.081082 
L 182.700868 290.201675 
L 183.025848 291.53785 
L 183.350827 290.884134 
L 183.675807 290.820755 
L 184.000786 290.556976 
L 184.325766 289.16965 
L 184.650745 289.73646 
L 184.975725 289.533666 
L 185.300704 288.812095 
L 185.625684 289.675487 
L 185.950663 288.89027 
L 186.275643 288.793151 
L 186.600622 288.304303 
L 186.925602 287.403656 
L 187.250581 287.618362 
L 187.575561 288.084806 
L 187.900541 287.145592 
L 188.22552 288.120068 
L 188.5505 288.189718 
L 189.525438 286.837101 
L 189.850418 286.491708 
L 190.175397 285.814798 
L 190.500377 286.366318 
L 190.825356 286.23273 
L 191.150336 286.881611 
L 191.475315 286.76907 
L 191.800295 285.726631 
L 192.125274 285.795355 
L 192.450254 284.965299 
L 192.775233 286.038255 
L 193.100213 286.161931 
L 193.425192 285.306537 
L 194.075152 285.804892 
L 194.400131 284.52408 
L 194.725111 285.513182 
L 195.05009 284.55649 
L 195.37507 285.053963 
L 195.700049 285.170532 
L 196.025029 284.740771 
L 196.350008 283.937638 
L 196.674988 284.601088 
L 196.999967 283.919571 
L 197.324947 284.973459 
L 197.649926 283.795237 
L 197.974906 284.702535 
L 198.299885 283.898558 
L 198.624865 284.070478 
L 198.949844 283.412461 
L 199.274824 284.351078 
L 199.599803 284.90676 
L 199.924783 284.985398 
L 200.249762 283.566143 
L 200.574742 284.103012 
L 200.899722 283.672932 
L 201.224701 284.638788 
L 201.549681 284.463694 
L 201.87466 285.041351 
L 202.19964 283.431873 
L 202.524619 283.980386 
L 202.849599 283.550127 
L 203.174578 284.76425 
L 203.499558 284.199837 
L 203.824537 284.12944 
L 204.149517 284.814984 
L 204.474496 283.936341 
L 204.799476 283.819518 
L 205.124455 283.989373 
L 205.449435 284.308814 
L 205.774414 285.186168 
L 206.099394 285.247089 
L 206.424373 284.118941 
L 206.749353 285.867296 
L 207.074333 284.700968 
L 207.399312 284.79453 
L 207.724292 285.019339 
L 208.049271 284.452618 
L 208.374251 285.725588 
L 208.69923 285.757698 
L 209.02421 286.298982 
L 209.349189 285.742203 
L 209.674169 286.145177 
L 209.999148 286.084084 
L 210.324128 285.304217 
L 210.649107 285.21042 
L 210.974087 286.611979 
L 211.299066 286.366419 
L 211.624046 285.47079 
L 211.949025 287.07616 
L 212.598984 287.057905 
L 212.923964 286.375249 
L 213.248943 287.23327 
L 213.573923 285.870058 
L 213.898903 286.859139 
L 214.223882 286.833112 
L 214.548862 287.349302 
L 215.198821 286.748018 
L 215.5238 286.651508 
L 215.84878 286.704364 
L 216.173759 287.06837 
L 216.498739 286.545838 
L 217.148698 286.897899 
L 217.473677 288.172529 
L 217.798657 288.295921 
L 218.123636 287.968474 
L 218.448616 287.205542 
L 218.773595 287.675423 
L 219.098575 287.713098 
L 219.423554 286.883428 
L 220.073514 286.863807 
L 220.398493 287.915834 
L 220.723473 287.25365 
L 221.048452 287.987639 
L 221.373432 288.12217 
L 221.698411 288.120237 
L 222.34837 287.65035 
L 222.67335 286.919165 
L 222.998329 288.138615 
L 223.323309 287.021888 
L 223.973268 287.723274 
L 224.298247 287.313934 
L 224.623227 287.599381 
L 224.948206 287.020503 
L 225.273186 287.243075 
L 225.598165 287.649691 
L 225.923145 287.662267 
L 226.573104 286.124658 
L 226.898084 287.022249 
L 227.223063 286.249803 
L 227.548043 286.28805 
L 227.873022 285.711835 
L 228.198002 285.805988 
L 228.522981 286.149225 
L 228.847961 285.882576 
L 229.17294 285.34702 
L 229.49792 286.109526 
L 229.822899 286.119477 
L 230.147879 286.553962 
L 230.472858 284.995581 
L 230.797838 284.913511 
L 231.122817 286.00837 
L 231.447797 285.045366 
L 231.772776 285.108944 
L 232.097756 285.57881 
L 232.422735 283.924099 
L 232.747715 285.129304 
L 233.072695 285.245358 
L 233.397674 284.172796 
L 233.722654 283.773166 
L 234.047633 284.867462 
L 234.372613 283.617399 
L 234.697592 283.68975 
L 235.022572 284.293315 
L 235.347551 284.020127 
L 235.672531 283.172943 
L 235.99751 283.498313 
L 236.32249 282.217288 
L 236.647469 282.275265 
L 236.972449 281.833428 
L 237.297428 282.954576 
L 237.622408 281.555098 
L 237.947387 282.3516 
L 238.272367 282.349436 
L 238.597346 282.723677 
L 238.922326 282.572454 
L 239.247305 281.302983 
L 239.897265 281.83535 
L 240.222244 281.013915 
L 240.547224 281.510713 
L 240.872203 280.803818 
L 241.197183 281.054386 
L 241.522162 280.107045 
L 241.847142 279.98384 
L 242.172121 280.462126 
L 242.497101 280.562173 
L 242.82208 280.422206 
L 243.14706 279.526943 
L 243.472039 280.25381 
L 244.121998 280.466936 
L 244.446978 279.693262 
L 244.771957 279.567879 
L 245.096937 278.842707 
L 245.421916 279.841834 
L 245.746896 279.474609 
L 246.071876 278.640899 
L 246.396855 278.53612 
L 246.721835 279.234243 
L 247.046814 279.033788 
L 247.371794 279.242712 
L 247.696773 278.075651 
L 248.021753 279.450479 
L 248.346732 277.965606 
L 248.996691 278.582792 
L 249.321671 279.421819 
L 249.64665 278.609395 
L 249.97163 278.699577 
L 250.296609 279.10844 
L 250.946568 277.648692 
L 251.271548 278.356572 
L 251.596527 278.081566 
L 251.921507 279.215511 
L 252.246486 278.603414 
L 252.571466 279.139338 
L 253.221425 277.718646 
L 253.546405 278.223637 
L 253.871384 279.274586 
L 254.521343 278.497763 
L 254.846323 278.790724 
L 255.171302 278.071166 
L 255.496282 278.145203 
L 256.7962 279.585971 
L 257.121179 279.204056 
L 257.446159 279.160153 
L 257.771138 278.759394 
L 258.096118 278.853818 
L 258.421097 279.953284 
L 258.746077 279.449141 
L 259.071057 279.893877 
L 259.396036 280.008836 
L 259.721016 278.902529 
L 260.045995 280.35731 
L 260.370975 279.769031 
L 260.695954 280.286324 
L 261.020934 279.112805 
L 261.670893 280.407286 
L 262.645831 279.363658 
L 262.970811 280.738291 
L 263.29579 279.644895 
L 263.62077 279.636695 
L 263.945749 279.743651 
L 264.270729 280.312152 
L 264.595708 280.395142 
L 264.920688 280.86527 
L 265.245667 280.321373 
L 265.570647 280.778349 
L 265.895627 280.587613 
L 266.220606 281.089407 
L 266.545586 280.618262 
L 266.870565 280.513919 
L 267.195545 281.762477 
L 267.520524 280.609006 
L 267.845504 281.17402 
L 268.170483 280.686165 
L 268.495463 281.456888 
L 268.820442 281.589196 
L 269.145422 280.683509 
L 269.470401 281.883733 
L 269.795381 280.870034 
L 270.12036 281.528258 
L 270.44534 281.496095 
L 270.770319 281.874015 
L 271.095299 281.420763 
L 271.745258 282.36931 
L 272.070238 281.958035 
L 272.395217 282.418103 
L 272.720197 280.69724 
L 273.045176 280.702459 
L 273.370156 281.683626 
L 273.695135 281.070511 
L 274.020115 281.710654 
L 274.345094 281.100932 
L 274.995053 280.524577 
L 275.320033 281.431567 
L 275.645012 280.698605 
L 275.969992 281.543377 
L 276.294971 280.199344 
L 276.619951 281.819409 
L 276.94493 280.722234 
L 277.594889 280.39453 
L 277.919869 281.294881 
L 278.244848 279.753273 
L 278.569828 280.976364 
L 278.894808 280.086163 
L 279.219787 280.6705 
L 279.544767 280.397558 
L 279.869746 279.84747 
L 280.194726 279.94023 
L 280.519705 280.252531 
L 280.844685 280.089287 
L 281.819623 278.349316 
L 282.144603 279.617198 
L 282.469582 278.906546 
L 282.794562 279.249807 
L 283.119541 279.221119 
L 283.444521 277.907088 
L 283.7695 277.827702 
L 284.09448 278.413029 
L 284.419459 278.097721 
L 284.744439 278.272908 
L 285.069419 276.649111 
L 285.394398 276.202891 
L 285.719378 277.475036 
L 286.044357 277.100082 
L 286.369337 275.771524 
L 286.694316 275.458402 
L 287.344275 276.569867 
L 287.669255 276.372573 
L 287.994234 275.214041 
L 288.319214 275.312294 
L 288.644193 275.731403 
L 288.969173 274.533944 
L 289.294152 275.31638 
L 289.619132 273.728056 
L 289.944111 274.349402 
L 290.269091 274.592908 
L 290.59407 273.404709 
L 290.91905 273.515586 
L 291.244029 272.27865 
L 291.569009 272.810559 
L 291.893989 273.060788 
L 292.218968 272.075666 
L 292.543948 272.625135 
L 292.868927 271.293428 
L 293.193907 272.006809 
L 293.518886 271.482961 
L 293.843866 272.146863 
L 294.493825 270.350875 
L 294.818804 270.190757 
L 295.143784 271.008432 
L 295.468763 270.803726 
L 295.793743 269.565598 
L 296.118722 269.171296 
L 296.443702 270.447342 
L 296.768681 269.635038 
L 297.093661 269.647982 
L 297.41864 268.529168 
L 297.74362 269.735825 
L 298.0686 269.338167 
L 298.393579 268.217236 
L 298.718559 269.285235 
L 299.043538 268.349028 
L 300.018477 268.067679 
L 300.343456 267.688014 
L 300.668436 268.199313 
L 300.993415 267.345598 
L 301.318395 266.808502 
L 301.643374 266.766578 
L 301.968354 267.716201 
L 302.293333 267.613309 
L 302.943292 267.034668 
L 303.268272 266.856295 
L 303.593251 266.289715 
L 303.918231 267.300852 
L 304.24321 267.260696 
L 304.89317 265.954438 
L 305.218149 266.77749 
L 305.543129 265.932447 
L 305.868108 266.55164 
L 306.193088 265.403976 
L 306.518067 265.345808 
L 306.843047 266.361885 
L 307.168026 266.449326 
L 307.493006 266.104779 
L 307.817985 266.384318 
L 308.142965 265.609274 
L 308.467944 265.328205 
L 308.792924 265.5911 
L 309.117903 265.323792 
L 309.442883 266.078425 
L 309.767862 266.509322 
L 310.092842 265.498795 
L 310.417821 266.178866 
L 310.742801 265.652936 
L 311.067781 266.38186 
L 311.39276 266.7433 
L 311.71774 265.173079 
L 312.042719 266.67936 
L 312.367699 265.255307 
L 312.692678 265.317363 
L 313.342637 265.970401 
L 313.667617 266.16528 
L 313.992596 265.712412 
L 314.317576 266.782801 
L 314.967535 266.322351 
L 315.292514 266.751248 
L 315.617494 266.787187 
L 315.942473 267.024255 
L 316.592432 266.245775 
L 316.917412 267.456715 
L 317.242391 266.238699 
L 317.567371 266.741306 
L 317.892351 266.57706 
L 318.21733 267.118595 
L 318.54231 266.797952 
L 318.867289 268.211932 
L 319.192269 266.87311 
L 319.517248 268.312538 
L 319.842228 266.888867 
L 320.167207 266.779007 
L 320.492187 268.07459 
L 320.817166 268.289144 
L 321.142146 267.379155 
L 321.467125 268.344293 
L 321.792105 267.329904 
L 322.117084 268.731614 
L 322.442064 268.749574 
L 322.767043 267.305817 
L 323.092023 267.896583 
L 323.417002 267.64373 
L 323.741982 268.611207 
L 324.066962 268.037894 
L 324.391941 268.225359 
L 324.716921 268.249437 
L 325.0419 268.146349 
L 325.691859 268.654711 
L 326.016839 268.94995 
L 326.341818 268.106002 
L 326.666798 269.077933 
L 326.991777 268.272957 
L 327.316757 269.090505 
L 327.641736 268.407665 
L 327.966716 268.195804 
L 328.291695 269.122733 
L 328.616675 269.395514 
L 328.941654 269.259873 
L 329.266634 268.40949 
L 329.591613 267.961791 
L 329.916593 269.35202 
L 330.241572 268.111608 
L 330.566552 268.769003 
L 330.891532 268.489873 
L 331.216511 267.655604 
L 331.541491 268.657979 
L 331.86647 268.371801 
L 332.19145 269.10963 
L 332.516429 268.92936 
L 332.841409 268.552757 
L 333.166388 268.88852 
L 333.491368 267.752976 
L 333.816347 268.034521 
L 334.141327 267.737223 
L 334.466306 268.306347 
L 334.791286 268.001263 
L 335.441245 266.628169 
L 335.766224 268.132556 
L 336.091204 266.547562 
L 336.416183 266.986778 
L 337.066143 266.886322 
L 337.391122 267.520984 
L 337.716102 267.358621 
L 338.041081 266.330457 
L 338.366061 266.654696 
L 338.69104 265.505554 
L 339.01602 266.264679 
L 339.340999 266.586111 
L 339.665979 265.437249 
L 339.990958 266.031489 
L 340.965897 264.511261 
L 341.615856 264.593352 
L 341.940835 264.429454 
L 342.265815 263.801763 
L 342.590794 264.784123 
L 342.915774 265.140627 
L 343.240753 264.501929 
L 343.565733 264.433836 
L 343.890713 263.489658 
L 344.540672 263.281896 
L 344.865651 264.132779 
L 345.190631 262.716215 
L 345.51561 263.265372 
L 345.84059 262.502116 
L 346.165569 262.530825 
L 346.815528 262.95173 
L 347.140508 262.863627 
L 347.465487 261.410374 
L 347.790467 261.101966 
L 348.115446 261.420361 
L 348.440426 262.22903 
L 349.090385 260.831795 
L 349.415364 260.597132 
L 349.740344 261.617726 
L 350.065324 261.685567 
L 350.390303 260.296395 
L 350.715283 260.787359 
L 351.040262 260.835843 
L 351.365242 261.132773 
L 351.690221 260.080999 
L 352.015201 259.413437 
L 352.34018 259.108781 
L 352.66516 259.684051 
L 352.990139 259.664248 
L 353.315119 260.313145 
L 353.640098 259.395524 
L 353.965078 259.5944 
L 354.290057 259.101056 
L 354.940016 259.570788 
L 355.264996 259.745141 
L 355.589975 259.281604 
L 355.914955 259.592983 
L 356.239934 259.383936 
L 356.564914 257.895534 
L 356.889894 258.7917 
L 357.214873 258.582944 
L 357.539853 257.932168 
L 357.864832 257.672377 
L 358.189812 258.357425 
L 358.514791 257.917132 
L 358.839771 258.738986 
L 359.16475 258.748908 
L 359.48973 258.555529 
L 359.814709 258.062657 
L 360.139689 258.031494 
L 360.464668 258.666852 
L 360.789648 258.981323 
L 361.114627 258.102245 
L 361.439607 258.991232 
L 361.764586 258.206486 
L 362.089566 258.01511 
L 362.739525 257.942393 
L 363.064505 257.75445 
L 363.389484 258.435608 
L 363.714464 258.05965 
L 364.039443 258.287204 
L 364.364423 259.083137 
L 364.689402 259.40462 
L 365.339361 258.756441 
L 365.98932 258.137104 
L 366.3143 259.338116 
L 366.639279 259.51622 
L 366.964259 258.098761 
L 367.289238 259.660467 
L 367.614218 259.068468 
L 367.939197 258.941042 
L 368.264177 259.080896 
L 368.589156 259.944802 
L 368.914136 260.06008 
L 369.239115 260.039953 
L 369.564095 259.261496 
L 369.889075 259.400106 
L 370.214054 260.012549 
L 370.539034 259.368543 
L 370.864013 259.114265 
L 371.188993 260.54893 
L 371.513972 259.811595 
L 371.838952 259.540133 
L 372.163931 260.372255 
L 372.488911 260.33744 
L 373.13887 259.421182 
L 373.463849 259.634245 
L 373.788829 260.089493 
L 374.113808 259.885357 
L 374.438788 260.580109 
L 374.763767 260.14452 
L 375.088747 260.499225 
L 375.413726 261.029612 
L 375.738706 260.171555 
L 376.388665 260.849159 
L 376.713645 259.909557 
L 377.038624 261.503779 
L 377.363604 261.01041 
L 377.688583 261.48682 
L 378.013563 260.256373 
L 378.338542 260.38283 
L 378.663522 261.043684 
L 378.988501 260.442956 
L 379.313481 260.934972 
L 379.63846 260.297083 
L 379.96344 260.819148 
L 380.288419 260.879008 
L 380.613399 259.941737 
L 380.938378 261.12046 
L 381.263358 261.321107 
L 381.913317 259.755817 
L 382.238296 260.751552 
L 382.563276 261.257277 
L 383.213235 260.361666 
L 383.538215 260.90082 
L 384.188174 259.283489 
L 384.513153 260.161399 
L 384.838133 260.244378 
L 385.163112 260.070466 
L 385.488092 260.473987 
L 385.813071 259.019428 
L 386.138051 259.733612 
L 386.46303 259.667192 
L 386.78801 259.067993 
L 387.112989 259.325131 
L 387.437969 258.831761 
L 387.762948 259.727431 
L 388.087928 258.263578 
L 388.412907 257.894419 
L 388.737887 258.256121 
L 389.062867 257.562309 
L 389.387846 258.813446 
L 389.712826 258.074626 
L 390.037805 257.68565 
L 390.362785 257.546176 
L 390.687764 257.684005 
L 391.012744 257.612054 
L 391.337723 257.795995 
L 391.662703 257.138722 
L 391.987682 257.346172 
L 392.312662 256.14196 
L 392.637641 256.8634 
L 392.962621 256.921643 
L 393.2876 255.844241 
L 393.61258 255.556625 
L 393.937559 254.855006 
L 394.587518 255.342307 
L 394.912498 254.315081 
L 395.237477 254.552059 
L 395.562457 255.135636 
L 396.212416 253.219362 
L 396.537396 253.887241 
L 397.512334 253.615734 
L 398.162293 252.36313 
L 398.487273 253.032507 
L 398.487273 253.032507 
" clip-path="url(#p9699c04261)" style="fill: none; stroke: #1f77b4; stroke-width: 1.5; stroke-linecap: square"/>
   </g>
   <g id="patch_18">
    <path d="M 57.6 307.584 
L 57.6 249.733565 
" style="fill: none; stroke: #000000; stroke-width: 0.8; stroke-linejoin: miter; stroke-linecap: square"/>
   </g>
   <g id="patch_19">
    <path d="M 414.72 307.584 
L 414.72 249.733565 
" style="fill: none; stroke: #000000; stroke-width: 0.8; stroke-linejoin: miter; stroke-linecap: square"/>
   </g>
   <g id="patch_20">
    <path d="M 57.6 307.584 
L 414.72 307.584 
" style="fill: none; stroke: #000000; stroke-width: 0.8; stroke-linejoin: miter; stroke-linecap: square"/>
   </g>
   <g id="patch_21">
    <path d="M 57.6 249.733565 
L 414.72 249.733565 
" style="fill: none; stroke: #000000; stroke-width: 0.8; stroke-linejoin: miter; stroke-linecap: square"/>
   </g>
   <g id="text_39">
    <!-- Serie timp -->
    <g transform="translate(205.254375 243.733565) scale(0.12 -0.12)">
     <defs>
      <path id="DejaVuSans-70" d="M 1159 525 
L 1159 -1331 
L 581 -1331 
L 581 3500 
L 1159 3500 
L 1159 2969 
Q 1341 3281 1617 3432 
Q 1894 3584 2278 3584 
Q 2916 3584 3314 3078 
Q 3713 2572 3713 1747 
Q 3713 922 3314 415 
Q 2916 -91 2278 -91 
Q 1894 -91 1617 61 
Q 1341 213 1159 525 
z
M 3116 1747 
Q 3116 2381 2855 2742 
Q 2594 3103 2138 3103 
Q 1681 3103 1420 2742 
Q 1159 2381 1159 1747 
Q 1159 1113 1420 752 
Q 1681 391 2138 391 
Q 2594 391 2855 752 
Q 3116 1113 3116 1747 
z
" transform="scale(0.015625)"/>
     </defs>
     <use xlink:href="#DejaVuSans-53"/>
     <use xlink:href="#DejaVuSans-65" x="63.476562"/>
     <use xlink:href="#DejaVuSans-72" x="125"/>
     <use xlink:href="#DejaVuSans-69" x="166.113281"/>
     <use xlink:href="#DejaVuSans-65" x="193.896484"/>
     <use xlink:href="#DejaVuSans-20" x="255.419922"/>
     <use xlink:href="#DejaVuSans-74" x="287.207031"/>
     <use xlink:href="#DejaVuSans-69" x="326.416016"/>
     <use xlink:href="#DejaVuSans-6d" x="354.199219"/>
     <use xlink:href="#DejaVuSans-70" x="451.611328"/>
    </g>
   </g>
  </g>
 </g>
 <defs>
  <clipPath id="p453e9a0bb0">
   <rect x="57.6" y="41.472" width="357.12" height="57.850435"/>
  </clipPath>
  <clipPath id="p3bc5aee128">
   <rect x="57.6" y="110.892522" width="357.12" height="57.850435"/>
  </clipPath>
  <clipPath id="p3b903163f2">
   <rect x="57.6" y="180.313043" width="357.12" height="57.850435"/>
  </clipPath>
  <clipPath id="p9699c04261">
   <rect x="57.6" y="249.733565" width="357.12" height="57.850435"/>
  </clipPath>
 </defs>
</svg>
