<?xml version="1.0" encoding="utf-8" standalone="no"?>
<!DOCTYPE svg PUBLIC "-//W3C//DTD SVG 1.1//EN"
  "http://www.w3.org/Graphics/SVG/1.1/DTD/svg11.dtd">
<svg xmlns:xlink="http://www.w3.org/1999/xlink" width="460.8pt" height="345.6pt" viewBox="0 0 460.8 345.6" xmlns="http://www.w3.org/2000/svg" version="1.1">
 <metadata>
  <rdf:RDF xmlns:dc="http://purl.org/dc/elements/1.1/" xmlns:cc="http://creativecommons.org/ns#" xmlns:rdf="http://www.w3.org/1999/02/22-rdf-syntax-ns#">
   <cc:Work>
    <dc:type rdf:resource="http://purl.org/dc/dcmitype/StillImage"/>
    <dc:date>2024-12-28T20:26:18.086685</dc:date>
    <dc:format>image/svg+xml</dc:format>
    <dc:creator>
     <cc:Agent>
      <dc:title>Matplotlib v3.9.2, https://matplotlib.org/</dc:title>
     </cc:Agent>
    </dc:creator>
   </cc:Work>
  </rdf:RDF>
 </metadata>
 <defs>
  <style type="text/css">*{stroke-linejoin: round; stroke-linecap: butt}</style>
 </defs>
 <g id="figure_1">
  <g id="patch_1">
   <path d="M 0 345.6 
L 460.8 345.6 
L 460.8 0 
L 0 0 
z
" style="fill: #ffffff"/>
  </g>
  <g id="axes_1">
   <g id="patch_2">
    <path d="M 57.6 276.48 
L 414.72 276.48 
L 414.72 41.472 
L 57.6 41.472 
z
" style="fill: #ffffff"/>
   </g>
   <g id="matplotlib.axis_1">
    <g id="xtick_1">
     <g id="line2d_1">
      <defs>
       <path id="mfec7d65877" d="M 0 0 
L 0 3.5 
" style="stroke: #000000; stroke-width: 0.8"/>
      </defs>
      <g>
       <use xlink:href="#mfec7d65877" x="73.832727" y="276.48" style="stroke: #000000; stroke-width: 0.8"/>
      </g>
     </g>
     <g id="text_1">
      <!-- 0 -->
      <g transform="translate(70.651477 291.078437) scale(0.1 -0.1)">
       <defs>
        <path id="DejaVuSans-30" d="M 2034 4250 
Q 1547 4250 1301 3770 
Q 1056 3291 1056 2328 
Q 1056 1369 1301 889 
Q 1547 409 2034 409 
Q 2525 409 2770 889 
Q 3016 1369 3016 2328 
Q 3016 3291 2770 3770 
Q 2525 4250 2034 4250 
z
M 2034 4750 
Q 2819 4750 3233 4129 
Q 3647 3509 3647 2328 
Q 3647 1150 3233 529 
Q 2819 -91 2034 -91 
Q 1250 -91 836 529 
Q 422 1150 422 2328 
Q 422 3509 836 4129 
Q 1250 4750 2034 4750 
z
" transform="scale(0.015625)"/>
       </defs>
       <use xlink:href="#DejaVuSans-30"/>
      </g>
     </g>
    </g>
    <g id="xtick_2">
     <g id="line2d_2">
      <g>
       <use xlink:href="#mfec7d65877" x="138.828632" y="276.48" style="stroke: #000000; stroke-width: 0.8"/>
      </g>
     </g>
     <g id="text_2">
      <!-- 200 -->
      <g transform="translate(129.284882 291.078437) scale(0.1 -0.1)">
       <defs>
        <path id="DejaVuSans-32" d="M 1228 531 
L 3431 531 
L 3431 0 
L 469 0 
L 469 531 
Q 828 903 1448 1529 
Q 2069 2156 2228 2338 
Q 2531 2678 2651 2914 
Q 2772 3150 2772 3378 
Q 2772 3750 2511 3984 
Q 2250 4219 1831 4219 
Q 1534 4219 1204 4116 
Q 875 4013 500 3803 
L 500 4441 
Q 881 4594 1212 4672 
Q 1544 4750 1819 4750 
Q 2544 4750 2975 4387 
Q 3406 4025 3406 3419 
Q 3406 3131 3298 2873 
Q 3191 2616 2906 2266 
Q 2828 2175 2409 1742 
Q 1991 1309 1228 531 
z
" transform="scale(0.015625)"/>
       </defs>
       <use xlink:href="#DejaVuSans-32"/>
       <use xlink:href="#DejaVuSans-30" x="63.623047"/>
       <use xlink:href="#DejaVuSans-30" x="127.246094"/>
      </g>
     </g>
    </g>
    <g id="xtick_3">
     <g id="line2d_3">
      <g>
       <use xlink:href="#mfec7d65877" x="203.824537" y="276.48" style="stroke: #000000; stroke-width: 0.8"/>
      </g>
     </g>
     <g id="text_3">
      <!-- 400 -->
      <g transform="translate(194.280787 291.078437) scale(0.1 -0.1)">
       <defs>
        <path id="DejaVuSans-34" d="M 2419 4116 
L 825 1625 
L 2419 1625 
L 2419 4116 
z
M 2253 4666 
L 3047 4666 
L 3047 1625 
L 3713 1625 
L 3713 1100 
L 3047 1100 
L 3047 0 
L 2419 0 
L 2419 1100 
L 313 1100 
L 313 1709 
L 2253 4666 
z
" transform="scale(0.015625)"/>
       </defs>
       <use xlink:href="#DejaVuSans-34"/>
       <use xlink:href="#DejaVuSans-30" x="63.623047"/>
       <use xlink:href="#DejaVuSans-30" x="127.246094"/>
      </g>
     </g>
    </g>
    <g id="xtick_4">
     <g id="line2d_4">
      <g>
       <use xlink:href="#mfec7d65877" x="268.820442" y="276.48" style="stroke: #000000; stroke-width: 0.8"/>
      </g>
     </g>
     <g id="text_4">
      <!-- 600 -->
      <g transform="translate(259.276692 291.078437) scale(0.1 -0.1)">
       <defs>
        <path id="DejaVuSans-36" d="M 2113 2584 
Q 1688 2584 1439 2293 
Q 1191 2003 1191 1497 
Q 1191 994 1439 701 
Q 1688 409 2113 409 
Q 2538 409 2786 701 
Q 3034 994 3034 1497 
Q 3034 2003 2786 2293 
Q 2538 2584 2113 2584 
z
M 3366 4563 
L 3366 3988 
Q 3128 4100 2886 4159 
Q 2644 4219 2406 4219 
Q 1781 4219 1451 3797 
Q 1122 3375 1075 2522 
Q 1259 2794 1537 2939 
Q 1816 3084 2150 3084 
Q 2853 3084 3261 2657 
Q 3669 2231 3669 1497 
Q 3669 778 3244 343 
Q 2819 -91 2113 -91 
Q 1303 -91 875 529 
Q 447 1150 447 2328 
Q 447 3434 972 4092 
Q 1497 4750 2381 4750 
Q 2619 4750 2861 4703 
Q 3103 4656 3366 4563 
z
" transform="scale(0.015625)"/>
       </defs>
       <use xlink:href="#DejaVuSans-36"/>
       <use xlink:href="#DejaVuSans-30" x="63.623047"/>
       <use xlink:href="#DejaVuSans-30" x="127.246094"/>
      </g>
     </g>
    </g>
    <g id="xtick_5">
     <g id="line2d_5">
      <g>
       <use xlink:href="#mfec7d65877" x="333.816347" y="276.48" style="stroke: #000000; stroke-width: 0.8"/>
      </g>
     </g>
     <g id="text_5">
      <!-- 800 -->
      <g transform="translate(324.272597 291.078437) scale(0.1 -0.1)">
       <defs>
        <path id="DejaVuSans-38" d="M 2034 2216 
Q 1584 2216 1326 1975 
Q 1069 1734 1069 1313 
Q 1069 891 1326 650 
Q 1584 409 2034 409 
Q 2484 409 2743 651 
Q 3003 894 3003 1313 
Q 3003 1734 2745 1975 
Q 2488 2216 2034 2216 
z
M 1403 2484 
Q 997 2584 770 2862 
Q 544 3141 544 3541 
Q 544 4100 942 4425 
Q 1341 4750 2034 4750 
Q 2731 4750 3128 4425 
Q 3525 4100 3525 3541 
Q 3525 3141 3298 2862 
Q 3072 2584 2669 2484 
Q 3125 2378 3379 2068 
Q 3634 1759 3634 1313 
Q 3634 634 3220 271 
Q 2806 -91 2034 -91 
Q 1263 -91 848 271 
Q 434 634 434 1313 
Q 434 1759 690 2068 
Q 947 2378 1403 2484 
z
M 1172 3481 
Q 1172 3119 1398 2916 
Q 1625 2713 2034 2713 
Q 2441 2713 2670 2916 
Q 2900 3119 2900 3481 
Q 2900 3844 2670 4047 
Q 2441 4250 2034 4250 
Q 1625 4250 1398 4047 
Q 1172 3844 1172 3481 
z
" transform="scale(0.015625)"/>
       </defs>
       <use xlink:href="#DejaVuSans-38"/>
       <use xlink:href="#DejaVuSans-30" x="63.623047"/>
       <use xlink:href="#DejaVuSans-30" x="127.246094"/>
      </g>
     </g>
    </g>
    <g id="xtick_6">
     <g id="line2d_6">
      <g>
       <use xlink:href="#mfec7d65877" x="398.812252" y="276.48" style="stroke: #000000; stroke-width: 0.8"/>
      </g>
     </g>
     <g id="text_6">
      <!-- 1000 -->
      <g transform="translate(386.087252 291.078437) scale(0.1 -0.1)">
       <defs>
        <path id="DejaVuSans-31" d="M 794 531 
L 1825 531 
L 1825 4091 
L 703 3866 
L 703 4441 
L 1819 4666 
L 2450 4666 
L 2450 531 
L 3481 531 
L 3481 0 
L 794 0 
L 794 531 
z
" transform="scale(0.015625)"/>
       </defs>
       <use xlink:href="#DejaVuSans-31"/>
       <use xlink:href="#DejaVuSans-30" x="63.623047"/>
       <use xlink:href="#DejaVuSans-30" x="127.246094"/>
       <use xlink:href="#DejaVuSans-30" x="190.869141"/>
      </g>
     </g>
    </g>
   </g>
   <g id="matplotlib.axis_2">
    <g id="ytick_1">
     <g id="line2d_7">
      <defs>
       <path id="md139a75bae" d="M 0 0 
L -3.5 0 
" style="stroke: #000000; stroke-width: 0.8"/>
      </defs>
      <g>
       <use xlink:href="#md139a75bae" x="57.6" y="276.48" style="stroke: #000000; stroke-width: 0.8"/>
      </g>
     </g>
     <g id="text_7">
      <!-- 0.0 -->
      <g transform="translate(34.696875 280.279219) scale(0.1 -0.1)">
       <defs>
        <path id="DejaVuSans-2e" d="M 684 794 
L 1344 794 
L 1344 0 
L 684 0 
L 684 794 
z
" transform="scale(0.015625)"/>
       </defs>
       <use xlink:href="#DejaVuSans-30"/>
       <use xlink:href="#DejaVuSans-2e" x="63.623047"/>
       <use xlink:href="#DejaVuSans-30" x="95.410156"/>
      </g>
     </g>
    </g>
    <g id="ytick_2">
     <g id="line2d_8">
      <g>
       <use xlink:href="#md139a75bae" x="57.6" y="247.820488" style="stroke: #000000; stroke-width: 0.8"/>
      </g>
     </g>
     <g id="text_8">
      <!-- 0.5 -->
      <g transform="translate(34.696875 251.619707) scale(0.1 -0.1)">
       <defs>
        <path id="DejaVuSans-35" d="M 691 4666 
L 3169 4666 
L 3169 4134 
L 1269 4134 
L 1269 2991 
Q 1406 3038 1543 3061 
Q 1681 3084 1819 3084 
Q 2600 3084 3056 2656 
Q 3513 2228 3513 1497 
Q 3513 744 3044 326 
Q 2575 -91 1722 -91 
Q 1428 -91 1123 -41 
Q 819 9 494 109 
L 494 744 
Q 775 591 1075 516 
Q 1375 441 1709 441 
Q 2250 441 2565 725 
Q 2881 1009 2881 1497 
Q 2881 1984 2565 2268 
Q 2250 2553 1709 2553 
Q 1456 2553 1204 2497 
Q 953 2441 691 2322 
L 691 4666 
z
" transform="scale(0.015625)"/>
       </defs>
       <use xlink:href="#DejaVuSans-30"/>
       <use xlink:href="#DejaVuSans-2e" x="63.623047"/>
       <use xlink:href="#DejaVuSans-35" x="95.410156"/>
      </g>
     </g>
    </g>
    <g id="ytick_3">
     <g id="line2d_9">
      <g>
       <use xlink:href="#md139a75bae" x="57.6" y="219.160976" style="stroke: #000000; stroke-width: 0.8"/>
      </g>
     </g>
     <g id="text_9">
      <!-- 1.0 -->
      <g transform="translate(34.696875 222.960194) scale(0.1 -0.1)">
       <use xlink:href="#DejaVuSans-31"/>
       <use xlink:href="#DejaVuSans-2e" x="63.623047"/>
       <use xlink:href="#DejaVuSans-30" x="95.410156"/>
      </g>
     </g>
    </g>
    <g id="ytick_4">
     <g id="line2d_10">
      <g>
       <use xlink:href="#md139a75bae" x="57.6" y="190.501463" style="stroke: #000000; stroke-width: 0.8"/>
      </g>
     </g>
     <g id="text_10">
      <!-- 1.5 -->
      <g transform="translate(34.696875 194.300682) scale(0.1 -0.1)">
       <use xlink:href="#DejaVuSans-31"/>
       <use xlink:href="#DejaVuSans-2e" x="63.623047"/>
       <use xlink:href="#DejaVuSans-35" x="95.410156"/>
      </g>
     </g>
    </g>
    <g id="ytick_5">
     <g id="line2d_11">
      <g>
       <use xlink:href="#md139a75bae" x="57.6" y="161.841951" style="stroke: #000000; stroke-width: 0.8"/>
      </g>
     </g>
     <g id="text_11">
      <!-- 2.0 -->
      <g transform="translate(34.696875 165.64117) scale(0.1 -0.1)">
       <use xlink:href="#DejaVuSans-32"/>
       <use xlink:href="#DejaVuSans-2e" x="63.623047"/>
       <use xlink:href="#DejaVuSans-30" x="95.410156"/>
      </g>
     </g>
    </g>
    <g id="ytick_6">
     <g id="line2d_12">
      <g>
       <use xlink:href="#md139a75bae" x="57.6" y="133.182439" style="stroke: #000000; stroke-width: 0.8"/>
      </g>
     </g>
     <g id="text_12">
      <!-- 2.5 -->
      <g transform="translate(34.696875 136.981658) scale(0.1 -0.1)">
       <use xlink:href="#DejaVuSans-32"/>
       <use xlink:href="#DejaVuSans-2e" x="63.623047"/>
       <use xlink:href="#DejaVuSans-35" x="95.410156"/>
      </g>
     </g>
    </g>
    <g id="ytick_7">
     <g id="line2d_13">
      <g>
       <use xlink:href="#md139a75bae" x="57.6" y="104.522927" style="stroke: #000000; stroke-width: 0.8"/>
      </g>
     </g>
     <g id="text_13">
      <!-- 3.0 -->
      <g transform="translate(34.696875 108.322146) scale(0.1 -0.1)">
       <defs>
        <path id="DejaVuSans-33" d="M 2597 2516 
Q 3050 2419 3304 2112 
Q 3559 1806 3559 1356 
Q 3559 666 3084 287 
Q 2609 -91 1734 -91 
Q 1441 -91 1130 -33 
Q 819 25 488 141 
L 488 750 
Q 750 597 1062 519 
Q 1375 441 1716 441 
Q 2309 441 2620 675 
Q 2931 909 2931 1356 
Q 2931 1769 2642 2001 
Q 2353 2234 1838 2234 
L 1294 2234 
L 1294 2753 
L 1863 2753 
Q 2328 2753 2575 2939 
Q 2822 3125 2822 3475 
Q 2822 3834 2567 4026 
Q 2313 4219 1838 4219 
Q 1578 4219 1281 4162 
Q 984 4106 628 3988 
L 628 4550 
Q 988 4650 1302 4700 
Q 1616 4750 1894 4750 
Q 2613 4750 3031 4423 
Q 3450 4097 3450 3541 
Q 3450 3153 3228 2886 
Q 3006 2619 2597 2516 
z
" transform="scale(0.015625)"/>
       </defs>
       <use xlink:href="#DejaVuSans-33"/>
       <use xlink:href="#DejaVuSans-2e" x="63.623047"/>
       <use xlink:href="#DejaVuSans-30" x="95.410156"/>
      </g>
     </g>
    </g>
    <g id="ytick_8">
     <g id="line2d_14">
      <g>
       <use xlink:href="#md139a75bae" x="57.6" y="75.863415" style="stroke: #000000; stroke-width: 0.8"/>
      </g>
     </g>
     <g id="text_14">
      <!-- 3.5 -->
      <g transform="translate(34.696875 79.662633) scale(0.1 -0.1)">
       <use xlink:href="#DejaVuSans-33"/>
       <use xlink:href="#DejaVuSans-2e" x="63.623047"/>
       <use xlink:href="#DejaVuSans-35" x="95.410156"/>
      </g>
     </g>
    </g>
    <g id="ytick_9">
     <g id="line2d_15">
      <g>
       <use xlink:href="#md139a75bae" x="57.6" y="47.203902" style="stroke: #000000; stroke-width: 0.8"/>
      </g>
     </g>
     <g id="text_15">
      <!-- 4.0 -->
      <g transform="translate(34.696875 51.003121) scale(0.1 -0.1)">
       <use xlink:href="#DejaVuSans-34"/>
       <use xlink:href="#DejaVuSans-2e" x="63.623047"/>
       <use xlink:href="#DejaVuSans-30" x="95.410156"/>
      </g>
     </g>
    </g>
   </g>
   <g id="line2d_16">
    <path d="M 73.832727 219.580162 
L 74.482686 219.291885 
L 74.807666 219.006216 
L 75.457625 213.825342 
L 75.782604 213.27729 
L 76.107584 216.950763 
L 76.432563 212.671953 
L 76.757543 215.858109 
L 77.082523 211.837361 
L 77.732482 209.29393 
L 78.057461 213.656166 
L 78.382441 211.406221 
L 78.70742 206.268189 
L 79.0324 210.810848 
L 79.357379 213.069587 
L 79.682359 209.340545 
L 80.007338 209.990679 
L 80.982277 206.095452 
L 81.307256 202.44793 
L 81.632236 206.36819 
L 81.957215 202.003219 
L 82.282195 200.746399 
L 82.607174 201.105716 
L 82.932154 200.948713 
L 83.257133 202.868892 
L 83.582113 199.182225 
L 83.907093 201.138527 
L 84.232072 200.128438 
L 84.557052 201.95963 
L 84.882031 200.371737 
L 85.207011 201.533868 
L 85.53199 198.511811 
L 85.85697 198.333917 
L 86.181949 199.98678 
L 86.506929 198.492292 
L 86.831908 198.642524 
L 87.156888 197.286597 
L 87.481867 199.746985 
L 87.806847 197.355302 
L 88.131826 200.967854 
L 88.456806 199.32836 
L 88.781785 195.127139 
L 89.106765 195.547714 
L 89.431744 197.283356 
L 89.756724 197.745277 
L 90.081704 200.31691 
L 90.731663 194.719315 
L 91.381622 196.667466 
L 91.706601 195.480112 
L 92.031581 198.585428 
L 92.35656 199.189507 
L 92.68154 201.513751 
L 93.006519 195.346464 
L 93.331499 198.211318 
L 93.656478 198.141102 
L 93.981458 196.192351 
L 94.306437 196.629031 
L 94.631417 201.165621 
L 94.956396 198.558901 
L 95.281376 200.699388 
L 95.606355 200.364686 
L 95.931335 197.400167 
L 96.256314 200.656587 
L 96.581294 201.544288 
L 97.231253 198.292868 
L 97.556233 202.697236 
L 97.881212 203.373986 
L 98.206192 200.559151 
L 98.531171 199.300074 
L 98.856151 203.297361 
L 99.18113 200.872886 
L 99.831089 204.122548 
L 100.481048 202.453043 
L 100.806028 200.813744 
L 101.131007 205.142313 
L 101.455987 202.760127 
L 101.780966 203.618224 
L 102.105946 206.687746 
L 102.430925 207.627904 
L 102.755905 203.827403 
L 103.080885 206.032397 
L 103.405864 202.714998 
L 103.730844 204.406712 
L 104.055823 204.926832 
L 104.380803 204.571792 
L 104.705782 204.904255 
L 105.030762 206.673231 
L 105.355741 205.859705 
L 105.680721 208.542814 
L 106.0057 207.290639 
L 106.33068 207.428872 
L 106.655659 207.302211 
L 106.980639 210.871197 
L 107.305618 209.913993 
L 107.630598 211.280868 
L 107.955577 207.494995 
L 108.280557 209.338351 
L 108.605536 210.241365 
L 108.930516 210.023378 
L 109.255495 209.576016 
L 109.580475 209.422199 
L 109.905455 206.760702 
L 110.230434 211.442746 
L 110.555414 208.705104 
L 110.880393 214.525555 
L 111.205373 208.152186 
L 111.530352 216.05987 
L 111.855332 208.538096 
L 112.505291 213.99564 
L 112.83027 212.92051 
L 113.15525 210.980327 
L 113.480229 210.375964 
L 113.805209 214.056669 
L 114.130188 211.937234 
L 114.455168 208.328774 
L 114.780147 213.85719 
L 115.105127 213.185507 
L 115.430106 209.558655 
L 115.755086 211.726301 
L 116.080066 209.183903 
L 116.730025 213.960456 
L 117.055004 207.615772 
L 117.704963 211.505866 
L 118.029943 207.309808 
L 118.354922 210.359333 
L 118.679902 211.984543 
L 119.004881 209.371398 
L 119.329861 211.398887 
L 119.65484 208.348582 
L 119.97982 207.804194 
L 120.304799 208.557427 
L 120.629779 207.945786 
L 120.954758 204.555389 
L 121.279738 206.153836 
L 121.604717 206.526374 
L 121.929697 204.759508 
L 122.254676 206.898735 
L 122.579656 203.63871 
L 122.904636 205.281241 
L 123.229615 204.122348 
L 123.554595 203.924506 
L 123.879574 205.733897 
L 124.204554 202.323967 
L 124.529533 204.771883 
L 124.854513 204.440821 
L 125.179492 201.674319 
L 125.504472 200.639584 
L 125.829451 201.072269 
L 126.154431 200.257429 
L 126.47941 198.968193 
L 126.80439 198.849279 
L 127.129369 197.809039 
L 127.454349 200.371461 
L 127.779328 199.994645 
L 128.104308 196.199914 
L 128.429287 196.126338 
L 128.754267 202.169124 
L 129.079247 197.835851 
L 129.404226 197.074708 
L 130.379165 191.160774 
L 130.704144 194.616847 
L 131.029124 195.568037 
L 131.354103 194.145747 
L 131.679083 193.427814 
L 132.004062 193.460366 
L 132.329042 189.651931 
L 132.979001 191.98578 
L 133.30398 193.677572 
L 133.953939 189.345955 
L 134.278919 192.071569 
L 134.603898 190.728936 
L 135.253857 190.143817 
L 135.578837 189.039851 
L 135.903817 190.227623 
L 136.228796 186.527421 
L 136.553776 185.199355 
L 136.878755 185.590025 
L 137.203735 189.162603 
L 137.528714 186.358395 
L 137.853694 189.486689 
L 138.178673 188.197375 
L 138.503653 187.542748 
L 138.828632 182.481289 
L 139.153612 185.991555 
L 139.478591 187.83639 
L 139.803571 182.506836 
L 140.12855 185.794726 
L 140.45353 185.20315 
L 140.778509 186.543711 
L 141.103489 183.771632 
L 141.428468 185.248517 
L 141.753448 184.526415 
L 142.078428 187.993291 
L 142.403407 185.847487 
L 142.728387 185.518362 
L 143.053366 184.622708 
L 143.378346 182.641564 
L 143.703325 185.915948 
L 144.028305 186.204473 
L 144.353284 184.125231 
L 144.678264 185.460652 
L 145.003243 187.66078 
L 145.328223 188.927475 
L 145.653202 186.74455 
L 145.978182 183.418819 
L 146.303161 186.921457 
L 146.628141 184.082713 
L 146.95312 189.0622 
L 147.2781 187.86404 
L 147.603079 187.967105 
L 147.928059 181.706528 
L 148.253038 188.458787 
L 148.578018 187.255991 
L 148.902998 187.199077 
L 149.227977 185.469561 
L 149.877936 191.551976 
L 150.202916 187.592646 
L 150.527895 188.034419 
L 150.852875 189.911095 
L 151.177854 192.932139 
L 151.502834 189.356348 
L 151.827813 188.016717 
L 152.152793 187.548263 
L 152.477772 187.54831 
L 152.802752 194.971801 
L 153.127731 191.365261 
L 153.452711 190.497681 
L 153.77769 187.35362 
L 154.10267 192.656306 
L 154.427649 189.434438 
L 154.752629 196.07991 
L 155.077609 194.55315 
L 155.402588 195.921293 
L 155.727568 192.388023 
L 156.052547 191.676579 
L 156.377527 196.105979 
L 156.702506 193.802397 
L 157.027486 193.264827 
L 157.677445 196.794548 
L 158.002424 193.694665 
L 158.327404 195.944534 
L 158.652383 192.197427 
L 158.977363 195.938288 
L 159.302342 195.665362 
L 159.627322 197.211775 
L 159.952301 194.694289 
L 160.277281 196.500097 
L 160.60226 195.011547 
L 160.92724 197.172715 
L 161.252219 195.617495 
L 161.577199 200.024637 
L 161.902179 199.992297 
L 162.227158 196.145242 
L 162.552138 200.73077 
L 163.202097 195.795759 
L 163.527076 194.267122 
L 163.852056 199.177768 
L 164.177035 199.805792 
L 164.826994 196.054198 
L 165.151974 200.575252 
L 165.476953 197.490861 
L 165.801933 196.15892 
L 166.126912 199.097921 
L 166.451892 200.110161 
L 166.776871 197.889213 
L 167.101851 197.317144 
L 167.42683 198.224333 
L 167.75181 193.029806 
L 168.07679 199.54572 
L 168.401769 197.584067 
L 168.726749 199.683985 
L 169.051728 193.580591 
L 169.376708 195.504124 
L 169.701687 196.211834 
L 170.026667 196.540836 
L 170.351646 194.861092 
L 170.676626 193.785712 
L 171.001605 195.492322 
L 171.326585 194.089213 
L 171.651564 192.126918 
L 171.976544 193.022375 
L 172.301523 191.982107 
L 172.626503 194.079663 
L 172.951482 190.431344 
L 173.276462 191.906751 
L 173.601441 189.652311 
L 173.926421 190.036189 
L 174.2514 188.635217 
L 174.57638 191.961057 
L 174.90136 188.390795 
L 175.226339 187.200181 
L 175.551319 191.990351 
L 175.876298 189.682965 
L 176.201278 186.109389 
L 176.526257 184.942047 
L 176.851237 185.297768 
L 177.176216 180.670649 
L 177.501196 184.704146 
L 177.826175 184.914586 
L 178.151155 183.712517 
L 178.476134 183.514319 
L 178.801114 183.039113 
L 179.126093 181.635447 
L 179.451073 182.181716 
L 179.776052 178.647336 
L 180.101032 178.846978 
L 180.426011 181.978324 
L 180.750991 177.305865 
L 181.075971 176.769346 
L 181.40095 173.829684 
L 181.72593 175.309404 
L 182.050909 172.430943 
L 182.700868 171.495169 
L 183.025848 174.889606 
L 183.350827 173.106246 
L 183.675807 168.541467 
L 184.000786 175.506753 
L 184.325766 171.537882 
L 184.650745 166.138975 
L 184.975725 169.707478 
L 185.300704 165.331833 
L 185.625684 167.596641 
L 185.950663 165.877152 
L 186.275643 165.066039 
L 186.600622 163.498227 
L 186.925602 165.74299 
L 187.250581 165.262505 
L 187.575561 161.253797 
L 187.900541 160.206575 
L 188.22552 161.119201 
L 188.5505 162.4969 
L 188.875479 163.366985 
L 189.200459 157.262768 
L 189.525438 160.392334 
L 189.850418 157.098108 
L 190.175397 159.092247 
L 190.500377 159.372767 
L 190.825356 159.342508 
L 191.150336 158.835757 
L 191.475315 158.535688 
L 191.800295 157.341836 
L 192.125274 153.670681 
L 192.450254 155.917721 
L 192.775233 154.030626 
L 193.100213 155.583747 
L 193.425192 155.572085 
L 193.750172 152.910962 
L 194.075152 153.535359 
L 194.400131 152.908917 
L 194.725111 151.257061 
L 195.05009 153.490441 
L 195.37507 154.170285 
L 195.700049 152.773176 
L 196.025029 151.867868 
L 196.350008 153.269829 
L 196.674988 148.866673 
L 196.999967 152.952203 
L 197.324947 150.743209 
L 197.649926 152.315827 
L 197.974906 149.882737 
L 198.299885 148.851963 
L 198.624865 149.039869 
L 198.949844 146.931858 
L 199.274824 152.505349 
L 199.599803 154.686435 
L 199.924783 150.672114 
L 200.249762 151.445319 
L 200.574742 150.458758 
L 200.899722 150.916536 
L 201.224701 149.867221 
L 201.87466 153.287187 
L 202.19964 151.27594 
L 202.524619 152.21391 
L 202.849599 151.009396 
L 203.499558 154.759202 
L 203.824537 150.287407 
L 204.149517 150.012522 
L 204.474496 152.788711 
L 204.799476 152.097626 
L 205.124455 154.65165 
L 205.449435 154.302065 
L 205.774414 151.218377 
L 206.099394 151.60435 
L 206.424373 156.715963 
L 206.749353 156.691437 
L 207.074333 154.475333 
L 207.399312 154.980062 
L 207.724292 153.151295 
L 208.049271 152.459057 
L 208.374251 155.08813 
L 208.69923 154.172797 
L 209.02421 156.169845 
L 209.349189 156.618101 
L 209.674169 156.75073 
L 209.999148 153.845055 
L 210.649107 155.241928 
L 210.974087 156.58788 
L 211.299066 156.023627 
L 211.624046 157.526846 
L 211.949025 156.900382 
L 212.274005 159.390734 
L 212.598984 158.225117 
L 212.923964 161.798778 
L 213.248943 153.898978 
L 213.573923 160.140692 
L 213.898903 160.152282 
L 214.223882 158.89791 
L 214.548862 160.485677 
L 214.873841 163.575188 
L 215.5238 157.96966 
L 215.84878 161.770836 
L 216.173759 161.844794 
L 216.498739 162.121891 
L 217.148698 165.343902 
L 217.473677 158.386984 
L 217.798657 158.866891 
L 218.123636 158.625918 
L 218.448616 159.169856 
L 218.773595 161.790269 
L 219.098575 163.062322 
L 219.423554 162.214892 
L 220.073514 158.621811 
L 220.398493 161.281503 
L 220.723473 160.890244 
L 221.048452 161.646392 
L 221.373432 160.332635 
L 221.698411 161.25255 
L 222.023391 165.217694 
L 222.34837 164.721349 
L 222.67335 158.804615 
L 222.998329 158.689652 
L 223.323309 161.671087 
L 223.648288 163.26969 
L 223.973268 160.074466 
L 224.298247 164.133919 
L 224.623227 158.426887 
L 224.948206 158.054103 
L 225.273186 160.945188 
L 225.598165 158.56921 
L 225.923145 161.392955 
L 226.248124 158.962765 
L 226.573104 159.288631 
L 226.898084 157.890233 
L 227.223063 160.291256 
L 227.548043 160.614035 
L 227.873022 157.993531 
L 228.198002 160.558114 
L 228.522981 161.436951 
L 228.847961 157.145865 
L 229.17294 157.553295 
L 229.49792 160.360949 
L 229.822899 157.436736 
L 230.147879 157.339976 
L 230.472858 154.546698 
L 230.797838 155.275896 
L 231.122817 153.353242 
L 231.447797 155.708626 
L 231.772776 151.529218 
L 232.097756 154.460015 
L 232.422735 153.777681 
L 232.747715 150.411052 
L 233.072695 152.651181 
L 233.397674 151.588934 
L 233.722654 151.849791 
L 234.047633 151.020606 
L 234.372613 151.499117 
L 234.697592 150.676037 
L 235.022572 148.715499 
L 235.347551 148.737445 
L 235.672531 145.688433 
L 235.99751 145.560447 
L 236.32249 146.879086 
L 236.647469 143.266595 
L 236.972449 147.231924 
L 237.297428 145.965187 
L 237.622408 145.355721 
L 238.272367 148.107564 
L 238.597346 141.931692 
L 238.922326 141.323067 
L 239.247305 141.168944 
L 239.572285 141.747409 
L 239.897265 143.142355 
L 240.222244 138.2212 
L 240.547224 141.18663 
L 240.872203 142.647823 
L 241.197183 140.678103 
L 241.522162 137.895981 
L 241.847142 140.973388 
L 242.172121 142.153141 
L 242.497101 137.898465 
L 242.82208 136.928802 
L 243.14706 138.541826 
L 243.797019 136.247665 
L 244.121998 137.070701 
L 244.446978 132.985909 
L 244.771957 136.27926 
L 245.096937 136.276255 
L 245.421916 138.637583 
L 245.746896 135.267902 
L 246.071876 136.064224 
L 246.396855 132.15223 
L 247.046814 136.149802 
L 247.371794 136.921417 
L 247.696773 133.197721 
L 248.021753 137.547837 
L 248.346732 133.160175 
L 248.671712 132.083883 
L 248.996691 134.283773 
L 249.321671 133.724784 
L 249.64665 130.414323 
L 249.97163 129.826217 
L 250.296609 128.982335 
L 250.621589 136.952246 
L 250.946568 131.290286 
L 251.271548 134.741383 
L 251.596527 136.934784 
L 251.921507 132.215208 
L 252.246486 132.832432 
L 252.571466 128.182163 
L 252.896446 134.557773 
L 253.221425 131.81219 
L 253.546405 133.670236 
L 253.871384 133.281915 
L 254.521343 132.181869 
L 254.846323 131.161027 
L 255.171302 134.753794 
L 255.496282 132.477606 
L 255.821261 132.489744 
L 256.146241 131.037379 
L 256.47122 134.002247 
L 256.7962 134.064654 
L 257.121179 134.58646 
L 257.446159 135.370392 
L 257.771138 133.967308 
L 258.096118 137.107981 
L 258.421097 137.398992 
L 259.071057 133.626843 
L 259.396036 135.64738 
L 259.721016 136.349634 
L 260.045995 136.493355 
L 260.695954 135.151908 
L 261.020934 134.912955 
L 261.345913 136.920592 
L 261.670893 139.864507 
L 261.995872 137.395011 
L 262.645831 136.896587 
L 262.970811 142.636098 
L 263.62077 136.347051 
L 263.945749 140.827318 
L 264.270729 138.77911 
L 264.595708 140.815655 
L 264.920688 140.358219 
L 265.245667 137.753883 
L 265.895627 144.871837 
L 266.220606 141.517743 
L 266.545586 140.070276 
L 266.870565 141.646138 
L 267.195545 140.076081 
L 267.520524 143.397686 
L 267.845504 142.023681 
L 268.170483 139.538503 
L 268.495463 138.155426 
L 268.820442 142.42751 
L 269.470401 140.399738 
L 269.795381 143.943091 
L 270.44534 143.355098 
L 270.770319 145.174355 
L 271.095299 141.294233 
L 271.420278 141.645419 
L 271.745258 140.455321 
L 272.070238 141.889892 
L 272.395217 141.369804 
L 272.720197 142.594497 
L 273.045176 142.793394 
L 273.370156 141.803485 
L 273.695135 141.568072 
L 274.020115 139.7511 
L 274.345094 144.798663 
L 274.670074 142.256997 
L 274.995053 142.754126 
L 275.320033 140.361167 
L 275.645012 143.365222 
L 275.969992 141.137368 
L 276.294971 141.148785 
L 276.619951 141.660407 
L 276.94493 140.936367 
L 277.26991 142.148016 
L 277.594889 137.11932 
L 277.919869 143.962928 
L 278.244848 140.46276 
L 278.894808 137.240938 
L 279.219787 139.139985 
L 279.544767 135.51207 
L 279.869746 137.189329 
L 280.194726 136.857621 
L 280.519705 137.552257 
L 280.844685 133.654031 
L 281.494644 135.652294 
L 281.819623 135.267243 
L 282.144603 139.043383 
L 282.469582 131.089053 
L 282.794562 132.849948 
L 283.119541 133.179442 
L 283.444521 132.322647 
L 283.7695 132.41032 
L 284.419459 126.913817 
L 284.744439 128.177682 
L 285.069419 127.902861 
L 285.394398 129.528008 
L 285.719378 126.110292 
L 286.044357 125.763028 
L 286.369337 123.596614 
L 287.019296 128.294421 
L 287.344275 121.826588 
L 287.669255 124.684385 
L 287.994234 126.277172 
L 288.319214 120.852784 
L 288.644193 118.763197 
L 288.969173 120.143628 
L 289.294152 120.520146 
L 289.619132 119.324836 
L 289.944111 118.656754 
L 290.269091 119.667541 
L 290.59407 118.20775 
L 290.91905 116.01335 
L 291.244029 114.896709 
L 291.569009 114.433098 
L 291.893989 114.385449 
L 292.218968 113.473902 
L 292.543948 111.215319 
L 292.868927 111.239845 
L 293.193907 112.476169 
L 293.518886 110.500616 
L 293.843866 106.904053 
L 294.168845 109.80666 
L 294.493825 106.249447 
L 294.818804 109.088473 
L 295.143784 108.197148 
L 295.468763 106.124259 
L 296.118722 103.363136 
L 296.443702 101.892307 
L 296.768681 101.680011 
L 297.093661 101.659103 
L 297.41864 102.874588 
L 297.74362 100.687448 
L 298.0686 100.279728 
L 298.393579 98.867124 
L 298.718559 98.56891 
L 299.043538 98.662215 
L 299.368518 101.590086 
L 299.693497 99.890996 
L 300.018477 97.124602 
L 300.343456 97.488567 
L 300.993415 96.026401 
L 301.318395 96.573294 
L 301.643374 95.116069 
L 301.968354 96.603237 
L 302.293333 93.380533 
L 302.618313 94.648989 
L 302.943292 94.433557 
L 303.268272 94.955909 
L 303.593251 94.37417 
L 303.918231 91.49729 
L 304.24321 95.468635 
L 304.56819 93.001544 
L 304.89317 93.085076 
L 305.218149 91.451156 
L 305.543129 92.379352 
L 306.193088 91.334464 
L 306.518067 91.436656 
L 306.843047 91.79162 
L 307.168026 93.087061 
L 307.493006 97.333488 
L 307.817985 91.514765 
L 308.142965 90.713281 
L 308.467944 91.70331 
L 308.792924 90.347881 
L 309.117903 90.709818 
L 309.442883 93.287652 
L 309.767862 93.122302 
L 310.092842 90.555365 
L 310.417821 90.507791 
L 311.067781 95.639766 
L 311.39276 89.185883 
L 311.71774 95.769659 
L 312.042719 89.505759 
L 312.367699 96.281992 
L 312.692678 93.781405 
L 313.017658 96.392722 
L 313.342637 91.109475 
L 313.992596 89.895825 
L 314.317576 95.472855 
L 314.642555 91.646711 
L 314.967535 93.282659 
L 315.292514 93.767205 
L 315.942473 91.257644 
L 316.267453 92.483985 
L 316.917412 96.777446 
L 317.242391 92.975503 
L 317.567371 94.737335 
L 317.892351 94.974618 
L 318.21733 97.153876 
L 318.54231 96.896036 
L 318.867289 93.556813 
L 319.192269 96.743317 
L 319.517248 97.6321 
L 319.842228 97.26883 
L 320.167207 98.098277 
L 320.492187 98.571569 
L 320.817166 96.865295 
L 321.142146 97.551102 
L 321.792105 97.023433 
L 322.117084 99.549376 
L 322.442064 98.554463 
L 322.767043 99.313478 
L 323.092023 101.450125 
L 323.417002 102.370247 
L 323.741982 98.579068 
L 324.066962 99.287876 
L 324.391941 98.777532 
L 324.716921 100.922506 
L 325.0419 101.683482 
L 325.36688 97.786379 
L 325.691859 97.904602 
L 326.016839 100.253243 
L 326.341818 99.541089 
L 326.666798 101.198372 
L 326.991777 101.987543 
L 327.316757 102.438972 
L 327.641736 98.140101 
L 327.966716 102.981153 
L 328.291695 98.264162 
L 328.616675 101.91486 
L 328.941654 95.036666 
L 329.266634 102.772994 
L 329.591613 102.282861 
L 329.916593 99.126869 
L 330.241572 101.838785 
L 330.566552 99.872149 
L 330.891532 100.631649 
L 331.216511 97.268536 
L 331.541491 100.135511 
L 331.86647 100.408118 
L 332.19145 101.197551 
L 332.516429 98.022936 
L 332.841409 98.523316 
L 333.166388 95.812828 
L 333.491368 98.098147 
L 333.816347 96.653768 
L 334.141327 96.879834 
L 334.466306 96.779499 
L 334.791286 96.810558 
L 335.116265 97.585333 
L 335.441245 94.408172 
L 335.766224 95.310805 
L 336.091204 97.699038 
L 336.416183 97.862467 
L 336.741163 93.727279 
L 337.066143 94.372983 
L 337.391122 93.564575 
L 337.716102 91.539549 
L 338.041081 94.36209 
L 338.366061 94.390375 
L 338.69104 91.254233 
L 339.01602 93.053571 
L 339.340999 89.727415 
L 339.665979 90.150193 
L 339.990958 92.492998 
L 340.315938 88.380436 
L 340.640917 89.06028 
L 340.965897 89.017933 
L 341.290876 89.482981 
L 341.615856 87.741658 
L 341.940835 89.640359 
L 342.265815 83.268681 
L 342.590794 86.518714 
L 342.915774 87.067511 
L 343.240753 83.550861 
L 343.565733 82.90137 
L 343.890713 87.377389 
L 344.215692 85.256414 
L 344.540672 81.097128 
L 344.865651 84.469288 
L 345.190631 79.68708 
L 345.51561 77.407767 
L 345.84059 83.957357 
L 346.165569 78.165825 
L 346.490549 79.975593 
L 346.815528 78.422818 
L 347.140508 80.054743 
L 347.465487 76.030013 
L 347.790467 78.179226 
L 348.115446 78.763117 
L 348.440426 76.891579 
L 348.765405 78.757277 
L 349.090385 75.73747 
L 349.415364 74.129172 
L 349.740344 76.535275 
L 350.065324 75.553619 
L 350.390303 75.214343 
L 350.715283 73.897937 
L 351.690221 71.953037 
L 352.015201 72.19219 
L 352.34018 74.675869 
L 352.990139 67.469639 
L 353.315119 70.626017 
L 353.640098 70.895188 
L 353.965078 68.018544 
L 354.290057 74.059347 
L 354.615037 66.131183 
L 354.940016 68.072257 
L 355.264996 64.330422 
L 355.589975 67.582426 
L 355.914955 69.551247 
L 356.239934 69.189928 
L 356.564914 68.576375 
L 356.889894 65.477643 
L 357.214873 65.60695 
L 357.539853 66.477931 
L 357.864832 71.626326 
L 358.189812 64.034286 
L 358.514791 69.250448 
L 358.839771 67.726554 
L 359.16475 66.99225 
L 359.48973 65.427648 
L 359.814709 68.122757 
L 360.139689 66.050323 
L 360.789648 68.172335 
L 361.114627 64.050596 
L 361.439607 67.386087 
L 361.764586 65.799022 
L 362.089566 62.511524 
L 362.414545 69.120953 
L 363.064505 66.842419 
L 363.389484 67.537713 
L 363.714464 70.634378 
L 364.364423 69.632669 
L 364.689402 69.6836 
L 365.014382 70.034436 
L 365.339361 64.208756 
L 365.664341 69.907335 
L 366.3143 66.646248 
L 366.639279 69.629399 
L 366.964259 69.740159 
L 367.289238 67.096973 
L 367.614218 68.515051 
L 367.939197 67.299675 
L 368.264177 70.32488 
L 368.914136 67.71879 
L 369.239115 70.732862 
L 369.564095 69.269163 
L 369.889075 72.88063 
L 370.214054 74.216697 
L 370.539034 72.139743 
L 370.864013 76.014304 
L 371.188993 66.941 
L 371.513972 68.503585 
L 371.838952 73.603524 
L 372.163931 74.308324 
L 372.81389 71.907727 
L 373.13887 72.253212 
L 373.463849 70.872546 
L 373.788829 73.347314 
L 374.113808 74.619413 
L 374.438788 74.47894 
L 375.088747 72.507841 
L 375.413726 74.505493 
L 375.738706 73.797848 
L 376.063686 75.026783 
L 376.388665 74.338253 
L 377.038624 77.514134 
L 377.363604 75.465644 
L 377.688583 78.440596 
L 378.013563 73.921677 
L 378.338542 76.737532 
L 378.663522 73.987061 
L 378.988501 78.809832 
L 380.288419 72.636007 
L 380.613399 72.647558 
L 380.938378 77.60967 
L 381.263358 73.486112 
L 381.588337 72.344543 
L 381.913317 73.725483 
L 382.238296 76.492597 
L 382.563276 72.826821 
L 382.888256 73.519975 
L 383.213235 74.76017 
L 383.538215 74.39944 
L 383.863194 73.190493 
L 384.188174 70.443795 
L 384.513153 72.795085 
L 384.838133 73.005252 
L 385.163112 71.054622 
L 385.488092 72.954896 
L 385.813071 66.759058 
L 386.138051 67.509475 
L 386.46303 71.243681 
L 386.78801 67.659862 
L 387.112989 68.621191 
L 387.437969 71.287623 
L 387.762948 68.000024 
L 388.087928 68.323017 
L 388.412907 68.876872 
L 388.737887 67.510616 
L 389.387846 68.761724 
L 389.712826 66.621041 
L 390.037805 62.982065 
L 390.362785 66.020883 
L 390.687764 62.153887 
L 391.012744 62.640957 
L 391.337723 60.434704 
L 391.662703 62.899704 
L 391.987682 64.072012 
L 392.637641 61.360466 
L 392.962621 61.698075 
L 393.2876 56.890164 
L 393.61258 56.504624 
L 393.937559 54.460762 
L 394.262539 55.758765 
L 394.587518 50.919201 
L 394.912498 59.710407 
L 395.237477 54.699491 
L 395.562457 56.348977 
L 395.887437 51.368496 
L 396.537396 53.80575 
L 396.862375 49.563335 
L 397.187355 53.409373 
L 397.512334 43.544737 
L 397.837314 47.929443 
L 398.162293 47.426143 
L 398.487273 46.440049 
L 398.487273 46.440049 
" clip-path="url(#pc2bc8171ee)" style="fill: none; stroke: #1f77b4; stroke-width: 1.5; stroke-linecap: square"/>
   </g>
   <g id="line2d_17">
    <path d="M 236.32249 276.48 
L 236.647469 72.249155 
L 236.972449 156.073054 
L 237.297428 206.00945 
L 237.622408 134.444995 
L 237.947387 164.465416 
L 238.272367 99.942055 
L 238.597346 189.957662 
L 238.922326 210.611231 
L 239.247305 103.164319 
L 239.572285 145.923227 
L 239.897265 134.16702 
L 240.222244 149.659529 
L 240.547224 140.058181 
L 240.872203 170.394558 
L 241.197183 159.349708 
L 241.522162 68.707056 
L 241.847142 167.929601 
L 242.172121 173.803341 
L 242.497101 113.145361 
L 242.82208 143.58676 
L 243.14706 145.72001 
L 243.447498 -1 
M 243.490112 -1 
L 243.797019 202.529513 
L 244.121998 221.530127 
L 244.446978 167.213024 
L 244.771957 68.445572 
L 245.096937 181.244135 
L 245.421916 235.673904 
L 246.071876 92.758095 
L 246.721835 183.179641 
L 247.046814 283.48806 
L 247.371794 115.760792 
L 247.696773 148.404972 
L 248.021753 263.482678 
L 248.346732 131.276689 
L 248.671712 167.200545 
L 248.996691 105.18546 
L 249.321671 145.13498 
L 249.64665 115.651129 
L 250.296609 221.308931 
L 250.621589 90.807603 
L 250.946568 84.493402 
L 251.271548 187.947371 
L 251.596527 111.792543 
L 251.921507 128.57174 
L 252.246486 216.521661 
L 252.896446 105.895095 
L 253.221425 116.312346 
L 253.546405 111.821743 
L 253.871384 175.010656 
L 254.196364 178.938775 
L 254.521343 53.134368 
L 254.846323 154.482798 
L 255.171302 10.73719 
L 255.496282 158.24944 
L 256.146241 107.211261 
L 256.47122 169.483249 
L 256.7962 88.573373 
L 257.121179 264.624132 
L 257.446159 186.326889 
L 257.771138 135.505327 
L 258.096118 169.739876 
L 258.421097 119.590018 
L 258.746077 93.614874 
L 259.071057 181.791109 
L 259.396036 175.98419 
L 259.721016 145.281496 
L 260.045995 75.017885 
L 260.370975 93.4963 
L 260.695954 129.02893 
L 261.020934 39.304011 
L 261.345913 154.723572 
L 261.670893 163.059199 
L 261.995872 201.09516 
L 262.320852 150.348971 
L 262.645831 77.765502 
L 262.970811 161.532528 
L 263.29579 195.224538 
L 263.62077 205.741039 
L 263.945749 226.996853 
L 264.270729 192.437795 
L 264.595708 197.407938 
L 264.920688 80.416462 
L 265.245667 152.729826 
L 265.570647 252.544926 
L 265.895627 178.892181 
L 266.220606 59.035173 
L 266.545586 102.337973 
L 266.870565 79.557583 
L 267.195545 155.067043 
L 267.520524 191.458142 
L 267.845504 11.136265 
L 268.170483 126.274218 
L 268.495463 20.812765 
L 268.820442 77.233818 
L 269.145422 162.377858 
L 269.470401 86.787773 
L 269.795381 184.862811 
L 270.12036 154.490464 
L 270.44534 165.960272 
L 271.095299 51.980214 
L 271.420278 169.619172 
L 271.745258 131.42333 
L 272.070238 73.094668 
L 272.395217 84.983925 
L 272.720197 102.00946 
L 273.045176 173.599324 
L 273.370156 84.729679 
L 273.695135 119.604142 
L 274.020115 216.562586 
L 274.345094 238.556713 
L 274.670074 96.868854 
L 274.995053 245.613842 
L 275.645012 40.519305 
L 275.969992 95.406631 
L 276.294971 70.88514 
L 276.56063 -1 
M 276.653457 -1 
L 276.94493 138.636455 
L 277.26991 50.407191 
L 277.594889 234.212673 
L 277.919869 126.962197 
L 278.244848 65.798712 
L 278.569828 266.923425 
L 278.894808 126.672675 
L 279.219787 91.698041 
L 279.544767 110.259452 
L 279.869746 73.288608 
L 280.194726 96.718825 
L 280.844685 195.047628 
L 281.169664 157.23093 
L 281.494644 75.46675 
L 281.819623 123.404282 
L 282.144603 115.015448 
L 282.469582 182.685978 
L 282.794562 147.360462 
L 283.119541 177.362397 
L 283.444521 59.42534 
L 283.7695 179.325704 
L 284.09448 120.072424 
L 284.419459 185.526133 
L 284.744439 138.264134 
L 285.069419 70.239669 
L 285.394398 95.196043 
L 285.719378 266.200666 
L 286.369337 64.501082 
L 286.694316 181.725934 
L 287.019296 158.635694 
L 287.344275 93.812872 
L 287.669255 114.118812 
L 287.994234 228.332279 
L 288.319214 155.550265 
L 288.644193 135.443559 
L 288.969173 144.260738 
L 289.294152 127.277312 
L 289.619132 182.110773 
L 289.944111 194.615142 
L 290.269091 163.437353 
L 290.59407 108.322605 
L 290.91905 90.949022 
L 291.244029 243.415069 
L 291.893989 141.091089 
L 292.218968 123.193227 
L 292.543948 144.501883 
L 293.193907 220.667254 
L 293.518886 134.587049 
L 294.168845 234.07513 
L 294.493825 202.598785 
L 295.143784 59.73594 
L 295.793743 166.827693 
L 296.118722 149.130009 
L 296.443702 139.419573 
L 297.093661 77.295565 
L 297.41864 178.402659 
L 297.74362 159.866081 
L 298.0686 51.002256 
L 298.393579 152.486113 
L 298.718559 100.156014 
L 299.043538 204.118142 
L 299.368518 215.789073 
L 299.693497 93.555865 
L 300.018477 220.134424 
L 300.343456 48.784912 
L 300.668436 182.79619 
L 301.318395 80.807335 
L 301.643374 144.778795 
L 301.968354 233.466623 
L 302.575235 -1 
M 302.640467 -1 
L 302.943292 203.888781 
L 303.268272 173.058579 
L 303.593251 180.003046 
L 303.918231 155.933103 
L 304.24321 52.426799 
L 304.89317 137.361716 
L 305.218149 88.598231 
L 305.543129 81.652506 
L 305.868108 91.722933 
L 306.193088 173.005974 
L 306.518067 76.257092 
L 306.843047 81.744808 
L 307.168026 179.147679 
L 307.493006 101.192781 
L 307.817985 154.184443 
L 308.142965 104.297078 
L 308.467944 91.949151 
L 308.792924 111.83362 
L 309.117903 95.305448 
L 309.442883 72.760145 
L 309.767862 166.087408 
L 310.092842 165.978167 
L 310.417821 172.00811 
L 310.742801 133.04653 
L 311.067781 147.295705 
L 311.39276 256.448308 
L 311.71774 182.840534 
L 312.042719 210.473846 
L 312.367699 141.556004 
L 312.692678 192.832093 
L 313.017658 152.725168 
L 313.342637 98.69168 
L 313.667617 81.419335 
L 313.992596 196.486532 
L 314.317576 144.256769 
L 314.967535 129.49534 
L 315.292514 197.514282 
L 315.617494 84.114749 
L 315.942473 152.918042 
L 316.267453 133.113274 
L 316.592432 197.658374 
L 316.917412 225.543316 
L 317.242391 184.47909 
L 317.567371 98.33258 
L 317.892351 116.173754 
L 318.21733 280.861325 
L 318.54231 258.200362 
L 318.867289 124.478964 
L 319.192269 224.199364 
L 319.517248 115.030732 
L 319.842228 205.275348 
L 320.167207 150.829568 
L 320.492187 157.410477 
L 321.142146 58.048566 
L 321.467125 105.688634 
L 321.792105 197.124881 
L 322.117084 70.077882 
L 322.442064 150.286266 
L 322.767043 139.815546 
L 323.092023 190.800778 
L 323.417002 210.097255 
L 323.741982 62.574715 
L 324.066962 67.158388 
L 324.391941 162.134689 
L 324.716921 182.33305 
L 325.0419 55.741393 
L 325.691859 106.494583 
L 326.016839 44.205842 
L 326.341818 49.541296 
L 326.666798 137.997753 
L 326.991777 69.357648 
L 327.316757 77.665536 
L 327.641736 138.455412 
L 327.966716 151.684482 
L 328.291695 37.791745 
L 328.616675 214.78448 
L 328.941654 124.105442 
L 329.266634 163.359318 
L 329.591613 133.777694 
L 329.916593 137.543432 
L 330.241572 54.046645 
L 330.566552 182.560222 
L 330.891532 84.663712 
L 331.216511 100.493046 
L 331.541491 185.731643 
L 331.86647 181.655192 
L 332.19145 235.889348 
L 332.516429 241.945697 
L 332.841409 146.695624 
L 333.166388 143.331858 
L 333.491368 8.87485 
L 333.816347 105.548543 
L 334.141327 275.592095 
L 334.466306 268.125115 
L 334.791286 129.094376 
L 335.116265 114.690705 
L 335.441245 234.60492 
L 335.766224 134.502081 
L 336.091204 100.727655 
L 336.416183 90.071762 
L 336.741163 161.961844 
L 336.97312 -1 
M 337.158695 -1 
L 337.391122 163.122314 
L 337.716102 242.290378 
L 338.041081 109.565986 
L 338.366061 196.068479 
L 338.69104 164.091339 
L 339.01602 74.413264 
L 339.340999 151.150047 
L 339.665979 84.577814 
L 339.990958 185.622051 
L 340.315938 92.347117 
L 340.640917 121.333193 
L 340.965897 226.526885 
L 341.290876 117.8682 
L 341.615856 92.513796 
L 341.940835 55.453621 
L 342.265815 131.321738 
L 342.590794 82.154242 
L 342.915774 189.25333 
L 343.565733 70.866748 
L 343.890713 146.411524 
L 344.215692 151.925099 
L 344.540672 187.002842 
L 344.865651 124.012487 
L 345.190631 261.086955 
L 346.165569 56.060954 
L 346.490549 177.069033 
L 346.815528 181.202557 
L 347.140508 188.118155 
L 347.465487 65.598647 
L 347.790467 260.292381 
L 348.115446 136.189232 
L 348.440426 179.160616 
L 348.765405 99.409475 
L 349.090385 161.698429 
L 349.415364 141.257774 
L 349.740344 272.810485 
L 350.390303 61.95467 
L 350.715283 169.73544 
L 351.365242 55.093921 
L 351.690221 176.800783 
L 352.015201 179.644343 
L 352.34018 247.996251 
L 352.66516 230.979256 
L 352.990139 191.493353 
L 353.315119 243.925435 
L 353.640098 175.439162 
L 353.965078 31.349675 
L 354.290057 219.330471 
L 354.615037 190.163401 
L 354.940016 45.002914 
L 355.264996 210.45559 
L 355.589975 208.032994 
L 355.914955 187.60249 
L 356.239934 83.773221 
L 356.564914 89.844935 
L 356.889894 118.89204 
L 357.214873 49.71633 
L 357.539853 264.445649 
L 357.864832 230.050855 
L 358.189812 47.130731 
L 358.514791 154.235334 
L 358.839771 115.258441 
L 359.16475 98.648195 
L 359.48973 132.042973 
L 359.814709 150.733655 
L 360.139689 139.37013 
L 360.464668 207.341735 
L 360.789648 231.351163 
L 361.114627 101.313911 
L 361.439607 121.185248 
L 361.764586 206.027161 
L 362.089566 113.974026 
L 362.414545 173.465256 
L 362.739525 57.166667 
L 363.389484 167.169442 
L 363.714464 137.201462 
L 364.039443 133.189546 
L 364.364423 161.292976 
L 364.689402 161.818142 
L 365.014382 137.760431 
L 365.339361 185.056896 
L 365.664341 109.844344 
L 365.98932 147.817719 
L 366.3143 283.4405 
L 366.639279 157.458816 
L 366.964259 299.225404 
L 367.289238 28.087924 
L 367.614218 222.973388 
L 367.939197 91.439479 
L 368.264177 170.141923 
L 368.589156 156.899065 
L 368.914136 47.185674 
L 369.239115 179.662131 
L 369.564095 43.250099 
L 369.889075 165.435491 
L 370.214054 95.226396 
L 370.539034 236.903331 
L 370.864013 192.65588 
L 371.513972 146.090084 
L 372.163931 201.287767 
L 372.488911 38.737128 
L 372.789621 -1 
M 372.827164 -1 
L 373.13887 74.312002 
L 373.463849 73.413391 
L 373.788829 118.756294 
L 374.113808 140.709597 
L 374.438788 78.117131 
L 374.763767 194.22732 
L 375.088747 207.08562 
L 375.413726 122.327421 
L 375.738706 127.495318 
L 376.063686 101.871832 
L 376.388665 187.874791 
L 376.713645 197.454958 
L 377.038624 66.48547 
L 377.363604 111.712579 
L 378.338542 65.761284 
L 378.663522 112.859243 
L 378.988501 35.570924 
L 379.313481 159.968644 
L 379.63846 132.213195 
L 379.96344 280.740935 
L 380.288419 153.298182 
L 380.613399 136.50984 
L 380.938378 228.590362 
L 381.263358 67.138218 
L 381.588337 61.168035 
L 381.913317 135.293854 
L 382.238296 34.945012 
L 382.563276 210.516623 
L 382.888256 171.415511 
L 383.213235 146.406125 
L 383.538215 145.926808 
L 384.188174 238.309774 
L 384.513153 121.452994 
L 384.838133 124.871219 
L 385.138676 -1 
M 385.181141 -1 
L 385.488092 173.244509 
L 385.813071 61.697831 
L 386.138051 174.294215 
L 386.46303 226.365906 
L 387.112989 81.884341 
L 387.437969 207.009762 
L 387.762948 85.869328 
L 388.087928 117.076474 
L 388.412907 165.273059 
L 388.737887 171.847254 
L 389.062867 155.030243 
L 389.387846 243.577609 
L 389.712826 167.396061 
L 390.037805 159.780058 
L 390.362785 106.573196 
L 390.687764 219.508423 
L 391.012744 77.399548 
L 391.337723 149.626743 
L 391.662703 157.044904 
L 391.987682 189.006638 
L 392.312662 177.562759 
L 392.637641 172.369108 
L 392.962621 18.690648 
L 393.2876 129.297114 
L 393.61258 127.013736 
L 393.937559 141.298312 
L 394.262539 126.981674 
L 394.587518 231.279108 
L 394.912498 117.92024 
L 395.237477 145.149678 
L 395.562457 63.814901 
L 396.212416 181.957739 
L 396.537396 245.892023 
L 396.862375 151.467328 
L 397.187355 118.653007 
L 397.512334 118.578761 
L 397.837314 176.204696 
L 398.162293 59.137022 
L 398.487273 43.799046 
L 398.487273 43.799046 
" clip-path="url(#pc2bc8171ee)" style="fill: none; stroke: #ff7f0e; stroke-width: 1.5; stroke-linecap: square"/>
   </g>
   <g id="patch_3">
    <path d="M 57.6 276.48 
L 57.6 41.472 
" style="fill: none; stroke: #000000; stroke-width: 0.8; stroke-linejoin: miter; stroke-linecap: square"/>
   </g>
   <g id="patch_4">
    <path d="M 414.72 276.48 
L 414.72 41.472 
" style="fill: none; stroke: #000000; stroke-width: 0.8; stroke-linejoin: miter; stroke-linecap: square"/>
   </g>
   <g id="patch_5">
    <path d="M 57.6 276.48 
L 414.72 276.48 
" style="fill: none; stroke: #000000; stroke-width: 0.8; stroke-linejoin: miter; stroke-linecap: square"/>
   </g>
   <g id="patch_6">
    <path d="M 57.6 41.472 
L 414.72 41.472 
" style="fill: none; stroke: #000000; stroke-width: 0.8; stroke-linejoin: miter; stroke-linecap: square"/>
   </g>
  </g>
  <g id="axes_2">
   <g id="patch_7">
    <path d="M 115.2 308.448 
L 414.72 308.448 
L 414.72 303.264 
L 115.2 303.264 
z
" clip-path="url(#p7e86ae13f1)" style="fill: #d3d3d3"/>
   </g>
   <g id="patch_8">
    <path d="M 115.2 308.448 
L 264.96 308.448 
L 264.96 303.264 
L 115.2 303.264 
z
" clip-path="url(#p7e86ae13f1)" style="fill: #1f77b4"/>
   </g>
   <g id="line2d_18">
    <path d="M 264.96 311.04 
L 264.96 300.672 
" clip-path="url(#p7bb54e1958)" style="fill: none; stroke: #ff0000; stroke-linecap: square"/>
   </g>
   <g id="line2d_19">
    <defs>
     <path id="mef31dfb76a" d="M 0 5 
C 1.326016 5 2.597899 4.473168 3.535534 3.535534 
C 4.473168 2.597899 5 1.326016 5 0 
C 5 -1.326016 4.473168 -2.597899 3.535534 -3.535534 
C 2.597899 -4.473168 1.326016 -5 0 -5 
C -1.326016 -5 -2.597899 -4.473168 -3.535534 -3.535534 
C -4.473168 -2.597899 -5 -1.326016 -5 0 
C -5 1.326016 -4.473168 2.597899 -3.535534 3.535534 
C -2.597899 4.473168 -1.326016 5 0 5 
z
" style="stroke: #bfbfbf"/>
    </defs>
    <g>
     <use xlink:href="#mef31dfb76a" x="264.96" y="305.856" style="fill: #ffffff; stroke: #bfbfbf"/>
    </g>
   </g>
   <g id="text_16">
    <!-- q -->
    <g transform="translate(102.861162 308.615375) scale(0.1 -0.1)">
     <defs>
      <path id="DejaVuSans-71" d="M 947 1747 
Q 947 1113 1208 752 
Q 1469 391 1925 391 
Q 2381 391 2643 752 
Q 2906 1113 2906 1747 
Q 2906 2381 2643 2742 
Q 2381 3103 1925 3103 
Q 1469 3103 1208 2742 
Q 947 2381 947 1747 
z
M 2906 525 
Q 2725 213 2448 61 
Q 2172 -91 1784 -91 
Q 1150 -91 751 415 
Q 353 922 353 1747 
Q 353 2572 751 3078 
Q 1150 3584 1784 3584 
Q 2172 3584 2448 3432 
Q 2725 3281 2906 2969 
L 2906 3500 
L 3481 3500 
L 3481 -1331 
L 2906 -1331 
L 2906 525 
z
" transform="scale(0.015625)"/>
     </defs>
     <use xlink:href="#DejaVuSans-71"/>
    </g>
   </g>
   <g id="text_17">
    <!-- $\mathdefault{500}$ -->
    <g transform="translate(420.7104 308.615375) scale(0.1 -0.1)">
     <use xlink:href="#DejaVuSans-35" transform="translate(0 0.78125)"/>
     <use xlink:href="#DejaVuSans-30" transform="translate(63.623047 0.78125)"/>
     <use xlink:href="#DejaVuSans-30" transform="translate(127.246094 0.78125)"/>
    </g>
   </g>
  </g>
  <g id="legend_1">
   <g id="patch_9">
    <path d="M 323.60625 37.35625 
L 453.8 37.35625 
Q 455.8 37.35625 455.8 35.35625 
L 455.8 7 
Q 455.8 5 453.8 5 
L 323.60625 5 
Q 321.60625 5 321.60625 7 
L 321.60625 35.35625 
Q 321.60625 37.35625 323.60625 37.35625 
z
" style="fill: #ffffff; opacity: 0.8; stroke: #cccccc; stroke-linejoin: miter"/>
   </g>
   <g id="line2d_20">
    <path d="M 325.60625 13.098437 
L 335.60625 13.098437 
L 345.60625 13.098437 
" style="fill: none; stroke: #1f77b4; stroke-width: 1.5; stroke-linecap: square"/>
   </g>
   <g id="text_18">
    <!-- Serie timp originala -->
    <g transform="translate(353.60625 16.598437) scale(0.1 -0.1)">
     <defs>
      <path id="DejaVuSans-53" d="M 3425 4513 
L 3425 3897 
Q 3066 4069 2747 4153 
Q 2428 4238 2131 4238 
Q 1616 4238 1336 4038 
Q 1056 3838 1056 3469 
Q 1056 3159 1242 3001 
Q 1428 2844 1947 2747 
L 2328 2669 
Q 3034 2534 3370 2195 
Q 3706 1856 3706 1288 
Q 3706 609 3251 259 
Q 2797 -91 1919 -91 
Q 1588 -91 1214 -16 
Q 841 59 441 206 
L 441 856 
Q 825 641 1194 531 
Q 1563 422 1919 422 
Q 2459 422 2753 634 
Q 3047 847 3047 1241 
Q 3047 1584 2836 1778 
Q 2625 1972 2144 2069 
L 1759 2144 
Q 1053 2284 737 2584 
Q 422 2884 422 3419 
Q 422 4038 858 4394 
Q 1294 4750 2059 4750 
Q 2388 4750 2728 4690 
Q 3069 4631 3425 4513 
z
" transform="scale(0.015625)"/>
      <path id="DejaVuSans-65" d="M 3597 1894 
L 3597 1613 
L 953 1613 
Q 991 1019 1311 708 
Q 1631 397 2203 397 
Q 2534 397 2845 478 
Q 3156 559 3463 722 
L 3463 178 
Q 3153 47 2828 -22 
Q 2503 -91 2169 -91 
Q 1331 -91 842 396 
Q 353 884 353 1716 
Q 353 2575 817 3079 
Q 1281 3584 2069 3584 
Q 2775 3584 3186 3129 
Q 3597 2675 3597 1894 
z
M 3022 2063 
Q 3016 2534 2758 2815 
Q 2500 3097 2075 3097 
Q 1594 3097 1305 2825 
Q 1016 2553 972 2059 
L 3022 2063 
z
" transform="scale(0.015625)"/>
      <path id="DejaVuSans-72" d="M 2631 2963 
Q 2534 3019 2420 3045 
Q 2306 3072 2169 3072 
Q 1681 3072 1420 2755 
Q 1159 2438 1159 1844 
L 1159 0 
L 581 0 
L 581 3500 
L 1159 3500 
L 1159 2956 
Q 1341 3275 1631 3429 
Q 1922 3584 2338 3584 
Q 2397 3584 2469 3576 
Q 2541 3569 2628 3553 
L 2631 2963 
z
" transform="scale(0.015625)"/>
      <path id="DejaVuSans-69" d="M 603 3500 
L 1178 3500 
L 1178 0 
L 603 0 
L 603 3500 
z
M 603 4863 
L 1178 4863 
L 1178 4134 
L 603 4134 
L 603 4863 
z
" transform="scale(0.015625)"/>
      <path id="DejaVuSans-20" transform="scale(0.015625)"/>
      <path id="DejaVuSans-74" d="M 1172 4494 
L 1172 3500 
L 2356 3500 
L 2356 3053 
L 1172 3053 
L 1172 1153 
Q 1172 725 1289 603 
Q 1406 481 1766 481 
L 2356 481 
L 2356 0 
L 1766 0 
Q 1100 0 847 248 
Q 594 497 594 1153 
L 594 3053 
L 172 3053 
L 172 3500 
L 594 3500 
L 594 4494 
L 1172 4494 
z
" transform="scale(0.015625)"/>
      <path id="DejaVuSans-6d" d="M 3328 2828 
Q 3544 3216 3844 3400 
Q 4144 3584 4550 3584 
Q 5097 3584 5394 3201 
Q 5691 2819 5691 2113 
L 5691 0 
L 5113 0 
L 5113 2094 
Q 5113 2597 4934 2840 
Q 4756 3084 4391 3084 
Q 3944 3084 3684 2787 
Q 3425 2491 3425 1978 
L 3425 0 
L 2847 0 
L 2847 2094 
Q 2847 2600 2669 2842 
Q 2491 3084 2119 3084 
Q 1678 3084 1418 2786 
Q 1159 2488 1159 1978 
L 1159 0 
L 581 0 
L 581 3500 
L 1159 3500 
L 1159 2956 
Q 1356 3278 1631 3431 
Q 1906 3584 2284 3584 
Q 2666 3584 2933 3390 
Q 3200 3197 3328 2828 
z
" transform="scale(0.015625)"/>
      <path id="DejaVuSans-70" d="M 1159 525 
L 1159 -1331 
L 581 -1331 
L 581 3500 
L 1159 3500 
L 1159 2969 
Q 1341 3281 1617 3432 
Q 1894 3584 2278 3584 
Q 2916 3584 3314 3078 
Q 3713 2572 3713 1747 
Q 3713 922 3314 415 
Q 2916 -91 2278 -91 
Q 1894 -91 1617 61 
Q 1341 213 1159 525 
z
M 3116 1747 
Q 3116 2381 2855 2742 
Q 2594 3103 2138 3103 
Q 1681 3103 1420 2742 
Q 1159 2381 1159 1747 
Q 1159 1113 1420 752 
Q 1681 391 2138 391 
Q 2594 391 2855 752 
Q 3116 1113 3116 1747 
z
" transform="scale(0.015625)"/>
      <path id="DejaVuSans-6f" d="M 1959 3097 
Q 1497 3097 1228 2736 
Q 959 2375 959 1747 
Q 959 1119 1226 758 
Q 1494 397 1959 397 
Q 2419 397 2687 759 
Q 2956 1122 2956 1747 
Q 2956 2369 2687 2733 
Q 2419 3097 1959 3097 
z
M 1959 3584 
Q 2709 3584 3137 3096 
Q 3566 2609 3566 1747 
Q 3566 888 3137 398 
Q 2709 -91 1959 -91 
Q 1206 -91 779 398 
Q 353 888 353 1747 
Q 353 2609 779 3096 
Q 1206 3584 1959 3584 
z
" transform="scale(0.015625)"/>
      <path id="DejaVuSans-67" d="M 2906 1791 
Q 2906 2416 2648 2759 
Q 2391 3103 1925 3103 
Q 1463 3103 1205 2759 
Q 947 2416 947 1791 
Q 947 1169 1205 825 
Q 1463 481 1925 481 
Q 2391 481 2648 825 
Q 2906 1169 2906 1791 
z
M 3481 434 
Q 3481 -459 3084 -895 
Q 2688 -1331 1869 -1331 
Q 1566 -1331 1297 -1286 
Q 1028 -1241 775 -1147 
L 775 -588 
Q 1028 -725 1275 -790 
Q 1522 -856 1778 -856 
Q 2344 -856 2625 -561 
Q 2906 -266 2906 331 
L 2906 616 
Q 2728 306 2450 153 
Q 2172 0 1784 0 
Q 1141 0 747 490 
Q 353 981 353 1791 
Q 353 2603 747 3093 
Q 1141 3584 1784 3584 
Q 2172 3584 2450 3431 
Q 2728 3278 2906 2969 
L 2906 3500 
L 3481 3500 
L 3481 434 
z
" transform="scale(0.015625)"/>
      <path id="DejaVuSans-6e" d="M 3513 2113 
L 3513 0 
L 2938 0 
L 2938 2094 
Q 2938 2591 2744 2837 
Q 2550 3084 2163 3084 
Q 1697 3084 1428 2787 
Q 1159 2491 1159 1978 
L 1159 0 
L 581 0 
L 581 3500 
L 1159 3500 
L 1159 2956 
Q 1366 3272 1645 3428 
Q 1925 3584 2291 3584 
Q 2894 3584 3203 3211 
Q 3513 2838 3513 2113 
z
" transform="scale(0.015625)"/>
      <path id="DejaVuSans-61" d="M 2194 1759 
Q 1497 1759 1228 1600 
Q 959 1441 959 1056 
Q 959 750 1161 570 
Q 1363 391 1709 391 
Q 2188 391 2477 730 
Q 2766 1069 2766 1631 
L 2766 1759 
L 2194 1759 
z
M 3341 1997 
L 3341 0 
L 2766 0 
L 2766 531 
Q 2569 213 2275 61 
Q 1981 -91 1556 -91 
Q 1019 -91 701 211 
Q 384 513 384 1019 
Q 384 1609 779 1909 
Q 1175 2209 1959 2209 
L 2766 2209 
L 2766 2266 
Q 2766 2663 2505 2880 
Q 2244 3097 1772 3097 
Q 1472 3097 1187 3025 
Q 903 2953 641 2809 
L 641 3341 
Q 956 3463 1253 3523 
Q 1550 3584 1831 3584 
Q 2591 3584 2966 3190 
Q 3341 2797 3341 1997 
z
" transform="scale(0.015625)"/>
      <path id="DejaVuSans-6c" d="M 603 4863 
L 1178 4863 
L 1178 0 
L 603 0 
L 603 4863 
z
" transform="scale(0.015625)"/>
     </defs>
     <use xlink:href="#DejaVuSans-53"/>
     <use xlink:href="#DejaVuSans-65" x="63.476562"/>
     <use xlink:href="#DejaVuSans-72" x="125"/>
     <use xlink:href="#DejaVuSans-69" x="166.113281"/>
     <use xlink:href="#DejaVuSans-65" x="193.896484"/>
     <use xlink:href="#DejaVuSans-20" x="255.419922"/>
     <use xlink:href="#DejaVuSans-74" x="287.207031"/>
     <use xlink:href="#DejaVuSans-69" x="326.416016"/>
     <use xlink:href="#DejaVuSans-6d" x="354.199219"/>
     <use xlink:href="#DejaVuSans-70" x="451.611328"/>
     <use xlink:href="#DejaVuSans-20" x="515.087891"/>
     <use xlink:href="#DejaVuSans-6f" x="546.875"/>
     <use xlink:href="#DejaVuSans-72" x="608.056641"/>
     <use xlink:href="#DejaVuSans-69" x="649.169922"/>
     <use xlink:href="#DejaVuSans-67" x="676.953125"/>
     <use xlink:href="#DejaVuSans-69" x="740.429688"/>
     <use xlink:href="#DejaVuSans-6e" x="768.212891"/>
     <use xlink:href="#DejaVuSans-61" x="831.591797"/>
     <use xlink:href="#DejaVuSans-6c" x="892.871094"/>
     <use xlink:href="#DejaVuSans-61" x="920.654297"/>
    </g>
   </g>
   <g id="line2d_21">
    <path d="M 325.60625 27.776563 
L 335.60625 27.776563 
L 345.60625 27.776563 
" style="fill: none; stroke: #ff7f0e; stroke-width: 1.5; stroke-linecap: square"/>
   </g>
   <g id="text_19">
    <!-- Serie timp mediata -->
    <g transform="translate(353.60625 31.276563) scale(0.1 -0.1)">
     <defs>
      <path id="DejaVuSans-64" d="M 2906 2969 
L 2906 4863 
L 3481 4863 
L 3481 0 
L 2906 0 
L 2906 525 
Q 2725 213 2448 61 
Q 2172 -91 1784 -91 
Q 1150 -91 751 415 
Q 353 922 353 1747 
Q 353 2572 751 3078 
Q 1150 3584 1784 3584 
Q 2172 3584 2448 3432 
Q 2725 3281 2906 2969 
z
M 947 1747 
Q 947 1113 1208 752 
Q 1469 391 1925 391 
Q 2381 391 2643 752 
Q 2906 1113 2906 1747 
Q 2906 2381 2643 2742 
Q 2381 3103 1925 3103 
Q 1469 3103 1208 2742 
Q 947 2381 947 1747 
z
" transform="scale(0.015625)"/>
     </defs>
     <use xlink:href="#DejaVuSans-53"/>
     <use xlink:href="#DejaVuSans-65" x="63.476562"/>
     <use xlink:href="#DejaVuSans-72" x="125"/>
     <use xlink:href="#DejaVuSans-69" x="166.113281"/>
     <use xlink:href="#DejaVuSans-65" x="193.896484"/>
     <use xlink:href="#DejaVuSans-20" x="255.419922"/>
     <use xlink:href="#DejaVuSans-74" x="287.207031"/>
     <use xlink:href="#DejaVuSans-69" x="326.416016"/>
     <use xlink:href="#DejaVuSans-6d" x="354.199219"/>
     <use xlink:href="#DejaVuSans-70" x="451.611328"/>
     <use xlink:href="#DejaVuSans-20" x="515.087891"/>
     <use xlink:href="#DejaVuSans-6d" x="546.875"/>
     <use xlink:href="#DejaVuSans-65" x="644.287109"/>
     <use xlink:href="#DejaVuSans-64" x="705.810547"/>
     <use xlink:href="#DejaVuSans-69" x="769.287109"/>
     <use xlink:href="#DejaVuSans-61" x="797.070312"/>
     <use xlink:href="#DejaVuSans-74" x="858.349609"/>
     <use xlink:href="#DejaVuSans-61" x="897.558594"/>
    </g>
   </g>
  </g>
 </g>
 <defs>
  <clipPath id="pc2bc8171ee">
   <rect x="57.6" y="41.472" width="357.12" height="235.008"/>
  </clipPath>
  <clipPath id="p7e86ae13f1">
   <rect x="115.2" y="300.672" width="299.52" height="10.368"/>
  </clipPath>
  <clipPath id="p7bb54e1958">
   <path d="M 115.2 308.448 
L 414.72 308.448 
L 414.72 303.264 
L 115.2 303.264 
z
"/>
  </clipPath>
 </defs>
</svg>
