<?xml version="1.0" encoding="utf-8" standalone="no"?>
<!DOCTYPE svg PUBLIC "-//W3C//DTD SVG 1.1//EN"
  "http://www.w3.org/Graphics/SVG/1.1/DTD/svg11.dtd">
<svg xmlns:xlink="http://www.w3.org/1999/xlink" width="460.8pt" height="345.6pt" viewBox="0 0 460.8 345.6" xmlns="http://www.w3.org/2000/svg" version="1.1">
 <metadata>
  <rdf:RDF xmlns:dc="http://purl.org/dc/elements/1.1/" xmlns:cc="http://creativecommons.org/ns#" xmlns:rdf="http://www.w3.org/1999/02/22-rdf-syntax-ns#">
   <cc:Work>
    <dc:type rdf:resource="http://purl.org/dc/dcmitype/StillImage"/>
    <dc:date>2024-12-05T11:45:59.018909</dc:date>
    <dc:format>image/svg+xml</dc:format>
    <dc:creator>
     <cc:Agent>
      <dc:title>Matplotlib v3.9.2, https://matplotlib.org/</dc:title>
     </cc:Agent>
    </dc:creator>
   </cc:Work>
  </rdf:RDF>
 </metadata>
 <defs>
  <style type="text/css">*{stroke-linejoin: round; stroke-linecap: butt}</style>
 </defs>
 <g id="figure_1">
  <g id="patch_1">
   <path d="M 0 345.6 
L 460.8 345.6 
L 460.8 0 
L 0 0 
z
" style="fill: #ffffff"/>
  </g>
  <g id="axes_1">
   <g id="patch_2">
    <path d="M 57.6 99.322435 
L 414.72 99.322435 
L 414.72 41.472 
L 57.6 41.472 
z
" style="fill: #ffffff"/>
   </g>
   <g id="matplotlib.axis_1">
    <g id="xtick_1">
     <g id="line2d_1">
      <defs>
       <path id="m1223fce5a8" d="M 0 0 
L 0 3.5 
" style="stroke: #000000; stroke-width: 0.8"/>
      </defs>
      <g>
       <use xlink:href="#m1223fce5a8" x="73.832727" y="99.322435" style="stroke: #000000; stroke-width: 0.8"/>
      </g>
     </g>
     <g id="text_1">
      <!-- 0 -->
      <g transform="translate(70.651477 113.920872) scale(0.1 -0.1)">
       <defs>
        <path id="DejaVuSans-30" d="M 2034 4250 
Q 1547 4250 1301 3770 
Q 1056 3291 1056 2328 
Q 1056 1369 1301 889 
Q 1547 409 2034 409 
Q 2525 409 2770 889 
Q 3016 1369 3016 2328 
Q 3016 3291 2770 3770 
Q 2525 4250 2034 4250 
z
M 2034 4750 
Q 2819 4750 3233 4129 
Q 3647 3509 3647 2328 
Q 3647 1150 3233 529 
Q 2819 -91 2034 -91 
Q 1250 -91 836 529 
Q 422 1150 422 2328 
Q 422 3509 836 4129 
Q 1250 4750 2034 4750 
z
" transform="scale(0.015625)"/>
       </defs>
       <use xlink:href="#DejaVuSans-30"/>
      </g>
     </g>
    </g>
    <g id="xtick_2">
     <g id="line2d_2">
      <g>
       <use xlink:href="#m1223fce5a8" x="138.828632" y="99.322435" style="stroke: #000000; stroke-width: 0.8"/>
      </g>
     </g>
     <g id="text_2">
      <!-- 200 -->
      <g transform="translate(129.284882 113.920872) scale(0.1 -0.1)">
       <defs>
        <path id="DejaVuSans-32" d="M 1228 531 
L 3431 531 
L 3431 0 
L 469 0 
L 469 531 
Q 828 903 1448 1529 
Q 2069 2156 2228 2338 
Q 2531 2678 2651 2914 
Q 2772 3150 2772 3378 
Q 2772 3750 2511 3984 
Q 2250 4219 1831 4219 
Q 1534 4219 1204 4116 
Q 875 4013 500 3803 
L 500 4441 
Q 881 4594 1212 4672 
Q 1544 4750 1819 4750 
Q 2544 4750 2975 4387 
Q 3406 4025 3406 3419 
Q 3406 3131 3298 2873 
Q 3191 2616 2906 2266 
Q 2828 2175 2409 1742 
Q 1991 1309 1228 531 
z
" transform="scale(0.015625)"/>
       </defs>
       <use xlink:href="#DejaVuSans-32"/>
       <use xlink:href="#DejaVuSans-30" x="63.623047"/>
       <use xlink:href="#DejaVuSans-30" x="127.246094"/>
      </g>
     </g>
    </g>
    <g id="xtick_3">
     <g id="line2d_3">
      <g>
       <use xlink:href="#m1223fce5a8" x="203.824537" y="99.322435" style="stroke: #000000; stroke-width: 0.8"/>
      </g>
     </g>
     <g id="text_3">
      <!-- 400 -->
      <g transform="translate(194.280787 113.920872) scale(0.1 -0.1)">
       <defs>
        <path id="DejaVuSans-34" d="M 2419 4116 
L 825 1625 
L 2419 1625 
L 2419 4116 
z
M 2253 4666 
L 3047 4666 
L 3047 1625 
L 3713 1625 
L 3713 1100 
L 3047 1100 
L 3047 0 
L 2419 0 
L 2419 1100 
L 313 1100 
L 313 1709 
L 2253 4666 
z
" transform="scale(0.015625)"/>
       </defs>
       <use xlink:href="#DejaVuSans-34"/>
       <use xlink:href="#DejaVuSans-30" x="63.623047"/>
       <use xlink:href="#DejaVuSans-30" x="127.246094"/>
      </g>
     </g>
    </g>
    <g id="xtick_4">
     <g id="line2d_4">
      <g>
       <use xlink:href="#m1223fce5a8" x="268.820442" y="99.322435" style="stroke: #000000; stroke-width: 0.8"/>
      </g>
     </g>
     <g id="text_4">
      <!-- 600 -->
      <g transform="translate(259.276692 113.920872) scale(0.1 -0.1)">
       <defs>
        <path id="DejaVuSans-36" d="M 2113 2584 
Q 1688 2584 1439 2293 
Q 1191 2003 1191 1497 
Q 1191 994 1439 701 
Q 1688 409 2113 409 
Q 2538 409 2786 701 
Q 3034 994 3034 1497 
Q 3034 2003 2786 2293 
Q 2538 2584 2113 2584 
z
M 3366 4563 
L 3366 3988 
Q 3128 4100 2886 4159 
Q 2644 4219 2406 4219 
Q 1781 4219 1451 3797 
Q 1122 3375 1075 2522 
Q 1259 2794 1537 2939 
Q 1816 3084 2150 3084 
Q 2853 3084 3261 2657 
Q 3669 2231 3669 1497 
Q 3669 778 3244 343 
Q 2819 -91 2113 -91 
Q 1303 -91 875 529 
Q 447 1150 447 2328 
Q 447 3434 972 4092 
Q 1497 4750 2381 4750 
Q 2619 4750 2861 4703 
Q 3103 4656 3366 4563 
z
" transform="scale(0.015625)"/>
       </defs>
       <use xlink:href="#DejaVuSans-36"/>
       <use xlink:href="#DejaVuSans-30" x="63.623047"/>
       <use xlink:href="#DejaVuSans-30" x="127.246094"/>
      </g>
     </g>
    </g>
    <g id="xtick_5">
     <g id="line2d_5">
      <g>
       <use xlink:href="#m1223fce5a8" x="333.816347" y="99.322435" style="stroke: #000000; stroke-width: 0.8"/>
      </g>
     </g>
     <g id="text_5">
      <!-- 800 -->
      <g transform="translate(324.272597 113.920872) scale(0.1 -0.1)">
       <defs>
        <path id="DejaVuSans-38" d="M 2034 2216 
Q 1584 2216 1326 1975 
Q 1069 1734 1069 1313 
Q 1069 891 1326 650 
Q 1584 409 2034 409 
Q 2484 409 2743 651 
Q 3003 894 3003 1313 
Q 3003 1734 2745 1975 
Q 2488 2216 2034 2216 
z
M 1403 2484 
Q 997 2584 770 2862 
Q 544 3141 544 3541 
Q 544 4100 942 4425 
Q 1341 4750 2034 4750 
Q 2731 4750 3128 4425 
Q 3525 4100 3525 3541 
Q 3525 3141 3298 2862 
Q 3072 2584 2669 2484 
Q 3125 2378 3379 2068 
Q 3634 1759 3634 1313 
Q 3634 634 3220 271 
Q 2806 -91 2034 -91 
Q 1263 -91 848 271 
Q 434 634 434 1313 
Q 434 1759 690 2068 
Q 947 2378 1403 2484 
z
M 1172 3481 
Q 1172 3119 1398 2916 
Q 1625 2713 2034 2713 
Q 2441 2713 2670 2916 
Q 2900 3119 2900 3481 
Q 2900 3844 2670 4047 
Q 2441 4250 2034 4250 
Q 1625 4250 1398 4047 
Q 1172 3844 1172 3481 
z
" transform="scale(0.015625)"/>
       </defs>
       <use xlink:href="#DejaVuSans-38"/>
       <use xlink:href="#DejaVuSans-30" x="63.623047"/>
       <use xlink:href="#DejaVuSans-30" x="127.246094"/>
      </g>
     </g>
    </g>
    <g id="xtick_6">
     <g id="line2d_6">
      <g>
       <use xlink:href="#m1223fce5a8" x="398.812252" y="99.322435" style="stroke: #000000; stroke-width: 0.8"/>
      </g>
     </g>
     <g id="text_6">
      <!-- 1000 -->
      <g transform="translate(386.087252 113.920872) scale(0.1 -0.1)">
       <defs>
        <path id="DejaVuSans-31" d="M 794 531 
L 1825 531 
L 1825 4091 
L 703 3866 
L 703 4441 
L 1819 4666 
L 2450 4666 
L 2450 531 
L 3481 531 
L 3481 0 
L 794 0 
L 794 531 
z
" transform="scale(0.015625)"/>
       </defs>
       <use xlink:href="#DejaVuSans-31"/>
       <use xlink:href="#DejaVuSans-30" x="63.623047"/>
       <use xlink:href="#DejaVuSans-30" x="127.246094"/>
       <use xlink:href="#DejaVuSans-30" x="190.869141"/>
      </g>
     </g>
    </g>
   </g>
   <g id="matplotlib.axis_2">
    <g id="ytick_1">
     <g id="line2d_7">
      <defs>
       <path id="m7f5dd78986" d="M 0 0 
L -3.5 0 
" style="stroke: #000000; stroke-width: 0.8"/>
      </defs>
      <g>
       <use xlink:href="#m7f5dd78986" x="57.6" y="79.162435" style="stroke: #000000; stroke-width: 0.8"/>
      </g>
     </g>
     <g id="text_7">
      <!-- 2 -->
      <g transform="translate(44.2375 82.961654) scale(0.1 -0.1)">
       <use xlink:href="#DejaVuSans-32"/>
      </g>
     </g>
    </g>
    <g id="ytick_2">
     <g id="line2d_8">
      <g>
       <use xlink:href="#m7f5dd78986" x="57.6" y="44.101565" style="stroke: #000000; stroke-width: 0.8"/>
      </g>
     </g>
     <g id="text_8">
      <!-- 4 -->
      <g transform="translate(44.2375 47.900784) scale(0.1 -0.1)">
       <use xlink:href="#DejaVuSans-34"/>
      </g>
     </g>
    </g>
   </g>
   <g id="line2d_9">
    <path d="M 73.832727 96.69287 
L 99.831089 93.772773 
L 125.829451 90.627837 
L 151.827813 87.258062 
L 177.826175 83.663448 
L 203.824537 79.843996 
L 229.822899 75.799704 
L 255.821261 71.530573 
L 281.819623 67.036603 
L 307.817985 62.317794 
L 333.816347 57.374146 
L 359.814709 52.205659 
L 385.813071 46.812333 
L 398.487273 44.101565 
L 398.487273 44.101565 
" clip-path="url(#p5f2468b3ae)" style="fill: none; stroke: #1f77b4; stroke-width: 1.5; stroke-linecap: square"/>
   </g>
   <g id="patch_3">
    <path d="M 57.6 99.322435 
L 57.6 41.472 
" style="fill: none; stroke: #000000; stroke-width: 0.8; stroke-linejoin: miter; stroke-linecap: square"/>
   </g>
   <g id="patch_4">
    <path d="M 414.72 99.322435 
L 414.72 41.472 
" style="fill: none; stroke: #000000; stroke-width: 0.8; stroke-linejoin: miter; stroke-linecap: square"/>
   </g>
   <g id="patch_5">
    <path d="M 57.6 99.322435 
L 414.72 99.322435 
" style="fill: none; stroke: #000000; stroke-width: 0.8; stroke-linejoin: miter; stroke-linecap: square"/>
   </g>
   <g id="patch_6">
    <path d="M 57.6 41.472 
L 414.72 41.472 
" style="fill: none; stroke: #000000; stroke-width: 0.8; stroke-linejoin: miter; stroke-linecap: square"/>
   </g>
   <g id="text_9">
    <!-- Ecuatie grad 2 -->
    <g transform="translate(192.486562 35.472) scale(0.12 -0.12)">
     <defs>
      <path id="DejaVuSans-45" d="M 628 4666 
L 3578 4666 
L 3578 4134 
L 1259 4134 
L 1259 2753 
L 3481 2753 
L 3481 2222 
L 1259 2222 
L 1259 531 
L 3634 531 
L 3634 0 
L 628 0 
L 628 4666 
z
" transform="scale(0.015625)"/>
      <path id="DejaVuSans-63" d="M 3122 3366 
L 3122 2828 
Q 2878 2963 2633 3030 
Q 2388 3097 2138 3097 
Q 1578 3097 1268 2742 
Q 959 2388 959 1747 
Q 959 1106 1268 751 
Q 1578 397 2138 397 
Q 2388 397 2633 464 
Q 2878 531 3122 666 
L 3122 134 
Q 2881 22 2623 -34 
Q 2366 -91 2075 -91 
Q 1284 -91 818 406 
Q 353 903 353 1747 
Q 353 2603 823 3093 
Q 1294 3584 2113 3584 
Q 2378 3584 2631 3529 
Q 2884 3475 3122 3366 
z
" transform="scale(0.015625)"/>
      <path id="DejaVuSans-75" d="M 544 1381 
L 544 3500 
L 1119 3500 
L 1119 1403 
Q 1119 906 1312 657 
Q 1506 409 1894 409 
Q 2359 409 2629 706 
Q 2900 1003 2900 1516 
L 2900 3500 
L 3475 3500 
L 3475 0 
L 2900 0 
L 2900 538 
Q 2691 219 2414 64 
Q 2138 -91 1772 -91 
Q 1169 -91 856 284 
Q 544 659 544 1381 
z
M 1991 3584 
L 1991 3584 
z
" transform="scale(0.015625)"/>
      <path id="DejaVuSans-61" d="M 2194 1759 
Q 1497 1759 1228 1600 
Q 959 1441 959 1056 
Q 959 750 1161 570 
Q 1363 391 1709 391 
Q 2188 391 2477 730 
Q 2766 1069 2766 1631 
L 2766 1759 
L 2194 1759 
z
M 3341 1997 
L 3341 0 
L 2766 0 
L 2766 531 
Q 2569 213 2275 61 
Q 1981 -91 1556 -91 
Q 1019 -91 701 211 
Q 384 513 384 1019 
Q 384 1609 779 1909 
Q 1175 2209 1959 2209 
L 2766 2209 
L 2766 2266 
Q 2766 2663 2505 2880 
Q 2244 3097 1772 3097 
Q 1472 3097 1187 3025 
Q 903 2953 641 2809 
L 641 3341 
Q 956 3463 1253 3523 
Q 1550 3584 1831 3584 
Q 2591 3584 2966 3190 
Q 3341 2797 3341 1997 
z
" transform="scale(0.015625)"/>
      <path id="DejaVuSans-74" d="M 1172 4494 
L 1172 3500 
L 2356 3500 
L 2356 3053 
L 1172 3053 
L 1172 1153 
Q 1172 725 1289 603 
Q 1406 481 1766 481 
L 2356 481 
L 2356 0 
L 1766 0 
Q 1100 0 847 248 
Q 594 497 594 1153 
L 594 3053 
L 172 3053 
L 172 3500 
L 594 3500 
L 594 4494 
L 1172 4494 
z
" transform="scale(0.015625)"/>
      <path id="DejaVuSans-69" d="M 603 3500 
L 1178 3500 
L 1178 0 
L 603 0 
L 603 3500 
z
M 603 4863 
L 1178 4863 
L 1178 4134 
L 603 4134 
L 603 4863 
z
" transform="scale(0.015625)"/>
      <path id="DejaVuSans-65" d="M 3597 1894 
L 3597 1613 
L 953 1613 
Q 991 1019 1311 708 
Q 1631 397 2203 397 
Q 2534 397 2845 478 
Q 3156 559 3463 722 
L 3463 178 
Q 3153 47 2828 -22 
Q 2503 -91 2169 -91 
Q 1331 -91 842 396 
Q 353 884 353 1716 
Q 353 2575 817 3079 
Q 1281 3584 2069 3584 
Q 2775 3584 3186 3129 
Q 3597 2675 3597 1894 
z
M 3022 2063 
Q 3016 2534 2758 2815 
Q 2500 3097 2075 3097 
Q 1594 3097 1305 2825 
Q 1016 2553 972 2059 
L 3022 2063 
z
" transform="scale(0.015625)"/>
      <path id="DejaVuSans-20" transform="scale(0.015625)"/>
      <path id="DejaVuSans-67" d="M 2906 1791 
Q 2906 2416 2648 2759 
Q 2391 3103 1925 3103 
Q 1463 3103 1205 2759 
Q 947 2416 947 1791 
Q 947 1169 1205 825 
Q 1463 481 1925 481 
Q 2391 481 2648 825 
Q 2906 1169 2906 1791 
z
M 3481 434 
Q 3481 -459 3084 -895 
Q 2688 -1331 1869 -1331 
Q 1566 -1331 1297 -1286 
Q 1028 -1241 775 -1147 
L 775 -588 
Q 1028 -725 1275 -790 
Q 1522 -856 1778 -856 
Q 2344 -856 2625 -561 
Q 2906 -266 2906 331 
L 2906 616 
Q 2728 306 2450 153 
Q 2172 0 1784 0 
Q 1141 0 747 490 
Q 353 981 353 1791 
Q 353 2603 747 3093 
Q 1141 3584 1784 3584 
Q 2172 3584 2450 3431 
Q 2728 3278 2906 2969 
L 2906 3500 
L 3481 3500 
L 3481 434 
z
" transform="scale(0.015625)"/>
      <path id="DejaVuSans-72" d="M 2631 2963 
Q 2534 3019 2420 3045 
Q 2306 3072 2169 3072 
Q 1681 3072 1420 2755 
Q 1159 2438 1159 1844 
L 1159 0 
L 581 0 
L 581 3500 
L 1159 3500 
L 1159 2956 
Q 1341 3275 1631 3429 
Q 1922 3584 2338 3584 
Q 2397 3584 2469 3576 
Q 2541 3569 2628 3553 
L 2631 2963 
z
" transform="scale(0.015625)"/>
      <path id="DejaVuSans-64" d="M 2906 2969 
L 2906 4863 
L 3481 4863 
L 3481 0 
L 2906 0 
L 2906 525 
Q 2725 213 2448 61 
Q 2172 -91 1784 -91 
Q 1150 -91 751 415 
Q 353 922 353 1747 
Q 353 2572 751 3078 
Q 1150 3584 1784 3584 
Q 2172 3584 2448 3432 
Q 2725 3281 2906 2969 
z
M 947 1747 
Q 947 1113 1208 752 
Q 1469 391 1925 391 
Q 2381 391 2643 752 
Q 2906 1113 2906 1747 
Q 2906 2381 2643 2742 
Q 2381 3103 1925 3103 
Q 1469 3103 1208 2742 
Q 947 2381 947 1747 
z
" transform="scale(0.015625)"/>
     </defs>
     <use xlink:href="#DejaVuSans-45"/>
     <use xlink:href="#DejaVuSans-63" x="63.183594"/>
     <use xlink:href="#DejaVuSans-75" x="118.164062"/>
     <use xlink:href="#DejaVuSans-61" x="181.542969"/>
     <use xlink:href="#DejaVuSans-74" x="242.822266"/>
     <use xlink:href="#DejaVuSans-69" x="282.03125"/>
     <use xlink:href="#DejaVuSans-65" x="309.814453"/>
     <use xlink:href="#DejaVuSans-20" x="371.337891"/>
     <use xlink:href="#DejaVuSans-67" x="403.125"/>
     <use xlink:href="#DejaVuSans-72" x="466.601562"/>
     <use xlink:href="#DejaVuSans-61" x="507.714844"/>
     <use xlink:href="#DejaVuSans-64" x="568.994141"/>
     <use xlink:href="#DejaVuSans-20" x="632.470703"/>
     <use xlink:href="#DejaVuSans-32" x="664.257812"/>
    </g>
   </g>
  </g>
  <g id="axes_2">
   <g id="patch_7">
    <path d="M 57.6 168.742957 
L 414.72 168.742957 
L 414.72 110.892522 
L 57.6 110.892522 
z
" style="fill: #ffffff"/>
   </g>
   <g id="matplotlib.axis_3">
    <g id="xtick_7">
     <g id="line2d_10">
      <g>
       <use xlink:href="#m1223fce5a8" x="73.832727" y="168.742957" style="stroke: #000000; stroke-width: 0.8"/>
      </g>
     </g>
     <g id="text_10">
      <!-- 0 -->
      <g transform="translate(70.651477 183.341394) scale(0.1 -0.1)">
       <use xlink:href="#DejaVuSans-30"/>
      </g>
     </g>
    </g>
    <g id="xtick_8">
     <g id="line2d_11">
      <g>
       <use xlink:href="#m1223fce5a8" x="138.828632" y="168.742957" style="stroke: #000000; stroke-width: 0.8"/>
      </g>
     </g>
     <g id="text_11">
      <!-- 200 -->
      <g transform="translate(129.284882 183.341394) scale(0.1 -0.1)">
       <use xlink:href="#DejaVuSans-32"/>
       <use xlink:href="#DejaVuSans-30" x="63.623047"/>
       <use xlink:href="#DejaVuSans-30" x="127.246094"/>
      </g>
     </g>
    </g>
    <g id="xtick_9">
     <g id="line2d_12">
      <g>
       <use xlink:href="#m1223fce5a8" x="203.824537" y="168.742957" style="stroke: #000000; stroke-width: 0.8"/>
      </g>
     </g>
     <g id="text_12">
      <!-- 400 -->
      <g transform="translate(194.280787 183.341394) scale(0.1 -0.1)">
       <use xlink:href="#DejaVuSans-34"/>
       <use xlink:href="#DejaVuSans-30" x="63.623047"/>
       <use xlink:href="#DejaVuSans-30" x="127.246094"/>
      </g>
     </g>
    </g>
    <g id="xtick_10">
     <g id="line2d_13">
      <g>
       <use xlink:href="#m1223fce5a8" x="268.820442" y="168.742957" style="stroke: #000000; stroke-width: 0.8"/>
      </g>
     </g>
     <g id="text_13">
      <!-- 600 -->
      <g transform="translate(259.276692 183.341394) scale(0.1 -0.1)">
       <use xlink:href="#DejaVuSans-36"/>
       <use xlink:href="#DejaVuSans-30" x="63.623047"/>
       <use xlink:href="#DejaVuSans-30" x="127.246094"/>
      </g>
     </g>
    </g>
    <g id="xtick_11">
     <g id="line2d_14">
      <g>
       <use xlink:href="#m1223fce5a8" x="333.816347" y="168.742957" style="stroke: #000000; stroke-width: 0.8"/>
      </g>
     </g>
     <g id="text_14">
      <!-- 800 -->
      <g transform="translate(324.272597 183.341394) scale(0.1 -0.1)">
       <use xlink:href="#DejaVuSans-38"/>
       <use xlink:href="#DejaVuSans-30" x="63.623047"/>
       <use xlink:href="#DejaVuSans-30" x="127.246094"/>
      </g>
     </g>
    </g>
    <g id="xtick_12">
     <g id="line2d_15">
      <g>
       <use xlink:href="#m1223fce5a8" x="398.812252" y="168.742957" style="stroke: #000000; stroke-width: 0.8"/>
      </g>
     </g>
     <g id="text_15">
      <!-- 1000 -->
      <g transform="translate(386.087252 183.341394) scale(0.1 -0.1)">
       <use xlink:href="#DejaVuSans-31"/>
       <use xlink:href="#DejaVuSans-30" x="63.623047"/>
       <use xlink:href="#DejaVuSans-30" x="127.246094"/>
       <use xlink:href="#DejaVuSans-30" x="190.869141"/>
      </g>
     </g>
    </g>
   </g>
   <g id="matplotlib.axis_4">
    <g id="ytick_3">
     <g id="line2d_16">
      <g>
       <use xlink:href="#m7f5dd78986" x="57.6" y="166.131876" style="stroke: #000000; stroke-width: 0.8"/>
      </g>
     </g>
     <g id="text_16">
      <!-- 0.0 -->
      <g transform="translate(34.696875 169.931095) scale(0.1 -0.1)">
       <defs>
        <path id="DejaVuSans-2e" d="M 684 794 
L 1344 794 
L 1344 0 
L 684 0 
L 684 794 
z
" transform="scale(0.015625)"/>
       </defs>
       <use xlink:href="#DejaVuSans-30"/>
       <use xlink:href="#DejaVuSans-2e" x="63.623047"/>
       <use xlink:href="#DejaVuSans-30" x="95.410156"/>
      </g>
     </g>
    </g>
    <g id="ytick_4">
     <g id="line2d_17">
      <g>
       <use xlink:href="#m7f5dd78986" x="57.6" y="113.448297" style="stroke: #000000; stroke-width: 0.8"/>
      </g>
     </g>
     <g id="text_17">
      <!-- 0.1 -->
      <g transform="translate(34.696875 117.247516) scale(0.1 -0.1)">
       <use xlink:href="#DejaVuSans-30"/>
       <use xlink:href="#DejaVuSans-2e" x="63.623047"/>
       <use xlink:href="#DejaVuSans-31" x="95.410156"/>
      </g>
     </g>
    </g>
   </g>
   <g id="line2d_18">
    <path d="M 73.832727 162.274126 
L 74.157707 162.256056 
L 74.482686 161.696772 
L 74.807666 152.50599 
L 75.132645 148.600987 
L 75.457625 135.746264 
L 75.782604 149.539775 
L 76.107584 124.649542 
L 76.432563 129.284851 
L 76.757543 142.426119 
L 77.082523 141.830102 
L 77.407502 121.223862 
L 77.732482 139.446432 
L 78.057461 124.19932 
L 78.382441 128.036533 
L 78.70742 154.7387 
L 79.0324 155.327255 
L 79.357379 156.372243 
L 79.682359 116.849207 
L 80.007338 148.957974 
L 80.657297 124.550887 
L 80.982277 121.586599 
L 81.307256 134.136343 
L 81.632236 114.078952 
L 81.957215 152.75637 
L 82.282195 116.768458 
L 82.607174 148.467176 
L 82.932154 150.129353 
L 83.257133 149.098552 
L 83.582113 132.095626 
L 83.907093 140.421555 
L 84.232072 121.313803 
L 84.557052 155.678265 
L 84.882031 118.441609 
L 85.207011 124.013583 
L 85.53199 158.589302 
L 85.85697 117.170515 
L 86.181949 130.791811 
L 86.506929 127.525421 
L 86.831908 152.783615 
L 87.156888 122.231397 
L 87.481867 152.89055 
L 87.806847 136.199509 
L 88.131826 165.605278 
L 88.456806 116.781881 
L 88.781785 117.36078 
L 89.106765 130.822312 
L 89.431744 129.157732 
L 89.756724 126.634928 
L 90.081704 131.004089 
L 90.406683 138.210513 
L 90.731663 161.053114 
L 91.056642 127.964296 
L 91.381622 152.597113 
L 91.706601 165.617842 
L 92.031581 159.617541 
L 92.35656 156.141591 
L 92.68154 161.904902 
L 93.006519 117.979102 
L 93.331499 133.490996 
L 93.656478 155.444348 
L 93.981458 131.022581 
L 94.631417 118.988188 
L 94.956396 144.991339 
L 95.281376 161.690834 
L 95.606355 150.911774 
L 95.931335 113.745297 
L 96.256314 135.032338 
L 96.581294 148.133437 
L 96.906274 140.711699 
L 97.231253 154.43262 
L 97.556233 126.267925 
L 97.881212 132.23774 
L 98.206192 125.073389 
L 98.531171 140.451469 
L 98.856151 141.689096 
L 99.18113 158.467461 
L 99.50611 155.803603 
L 99.831089 128.08807 
L 100.156069 164.765211 
L 100.481048 133.707383 
L 100.806028 131.186563 
L 101.131007 160.471064 
L 101.455987 147.515841 
L 101.780966 115.118791 
L 102.105946 150.842986 
L 102.430925 164.030992 
L 102.755905 152.775875 
L 103.080885 160.21076 
L 103.405864 151.587432 
L 103.730844 123.66486 
L 104.055823 118.074474 
L 104.380803 158.91732 
L 104.705782 134.238843 
L 105.030762 149.571414 
L 105.355741 114.569325 
L 105.680721 123.788861 
L 106.0057 165.201425 
L 106.33068 159.539719 
L 106.655659 149.368864 
L 106.980639 130.2479 
L 107.305618 127.507333 
L 107.630598 133.359817 
L 108.280557 136.730577 
L 108.605536 157.847549 
L 108.930516 114.153653 
L 109.255495 121.953481 
L 109.580475 155.796868 
L 110.230434 128.856426 
L 110.555414 164.611278 
L 110.880393 127.862954 
L 111.205373 126.242761 
L 111.530352 162.591177 
L 111.855332 164.433549 
L 112.180311 115.559691 
L 112.83027 158.233888 
L 113.15525 119.389519 
L 113.480229 122.209613 
L 114.130188 146.373536 
L 114.455168 141.180649 
L 114.780147 139.46872 
L 115.105127 151.258577 
L 115.430106 134.328518 
L 116.080066 160.122812 
L 116.405045 136.61156 
L 116.730025 140.760506 
L 117.055004 131.354604 
L 117.379984 126.632765 
L 117.704963 159.861409 
L 118.029943 132.579583 
L 118.354922 127.671074 
L 118.679902 153.83225 
L 119.004881 126.183579 
L 119.329861 137.776202 
L 119.65484 130.6187 
L 119.97982 157.117859 
L 120.629779 149.180562 
L 120.954758 160.906009 
L 121.279738 138.153928 
L 121.604717 146.302769 
L 121.929697 114.296954 
L 122.254676 121.278632 
L 122.579656 121.88658 
L 122.904636 147.732094 
L 123.229615 120.778672 
L 123.554595 116.586794 
L 123.879574 158.919738 
L 124.204554 141.939877 
L 124.529533 158.460957 
L 124.854513 145.606094 
L 125.179492 114.970295 
L 125.504472 153.906137 
L 125.829451 140.643709 
L 126.47941 147.100569 
L 126.80439 131.271668 
L 127.129369 125.804167 
L 127.454349 151.683406 
L 127.779328 151.909911 
L 128.104308 121.000882 
L 128.429287 150.536278 
L 128.754267 128.46449 
L 129.079247 141.856063 
L 129.729206 156.259109 
L 130.054185 125.828779 
L 130.379165 152.621826 
L 130.704144 147.88153 
L 131.029124 153.601645 
L 131.354103 129.182505 
L 131.679083 161.672038 
L 132.004062 139.757743 
L 132.329042 156.292684 
L 132.654021 162.46911 
L 132.979001 133.543309 
L 133.62896 162.720588 
L 133.953939 161.158099 
L 134.278919 127.809368 
L 134.603898 130.915457 
L 134.928878 116.480174 
L 135.253857 130.05163 
L 135.578837 114.515262 
L 135.903817 152.987345 
L 136.228796 120.204567 
L 136.553776 150.58236 
L 137.203735 134.837164 
L 137.528714 131.390759 
L 137.853694 139.827065 
L 138.178673 143.997406 
L 138.503653 139.926572 
L 138.828632 118.716489 
L 139.153612 128.709793 
L 139.478591 121.746069 
L 140.12855 149.485704 
L 140.45353 113.616994 
L 140.778509 147.861854 
L 141.103489 149.928953 
L 141.428468 150.149542 
L 141.753448 160.849403 
L 142.078428 115.578426 
L 142.403407 119.528316 
L 142.728387 120.113598 
L 143.053366 147.781606 
L 143.378346 138.605561 
L 143.703325 154.376939 
L 144.028305 164.139417 
L 144.353284 151.042393 
L 144.678264 156.114251 
L 145.328223 116.116159 
L 145.653202 143.02023 
L 145.978182 134.881954 
L 146.303161 146.945741 
L 146.628141 132.958762 
L 146.95312 145.002115 
L 147.2781 144.959202 
L 147.603079 141.454558 
L 147.928059 164.264041 
L 148.253038 165.904609 
L 148.578018 130.809061 
L 148.902998 116.728263 
L 149.227977 119.715066 
L 149.552957 144.374827 
L 149.877936 142.791573 
L 150.202916 128.812859 
L 150.527895 125.127805 
L 150.852875 156.177442 
L 151.177854 160.515195 
L 151.502834 118.442752 
L 152.152793 163.000991 
L 152.477772 131.774616 
L 152.802752 123.643946 
L 153.127731 144.195569 
L 153.452711 146.616138 
L 153.77769 120.106641 
L 154.10267 114.876162 
L 154.752629 152.579838 
L 155.077609 135.757654 
L 155.402588 125.666997 
L 155.727568 145.170832 
L 156.052547 123.949614 
L 156.377527 152.187573 
L 156.702506 138.758426 
L 157.352465 160.943999 
L 157.677445 156.201492 
L 158.002424 122.695788 
L 158.327404 153.902527 
L 158.652383 116.832891 
L 158.977363 163.163949 
L 159.952301 122.593511 
L 160.277281 145.323292 
L 160.60226 121.145283 
L 161.577199 164.826122 
L 161.902179 144.857107 
L 162.227158 137.176015 
L 162.552138 133.889342 
L 162.877117 119.00477 
L 163.202097 122.461515 
L 163.527076 150.559453 
L 163.852056 119.345934 
L 164.177035 165.109828 
L 164.502015 144.281266 
L 164.826994 115.551585 
L 165.151974 160.707683 
L 165.476953 130.431175 
L 165.801933 127.652157 
L 166.126912 147.96484 
L 166.776871 113.676005 
L 167.101851 142.619325 
L 167.42683 136.949267 
L 167.75181 114.202331 
L 168.07679 130.363243 
L 168.401769 126.469464 
L 168.726749 164.337462 
L 169.051728 138.718337 
L 169.376708 160.790458 
L 169.701687 134.15678 
L 170.026667 137.828757 
L 170.351646 156.45638 
L 170.676626 162.637997 
L 171.001605 148.25044 
L 171.326585 160.007171 
L 171.651564 134.362262 
L 171.976544 147.332414 
L 172.301523 128.59239 
L 172.626503 124.233747 
L 172.951482 132.324826 
L 173.276462 155.434888 
L 173.601441 159.528079 
L 173.926421 151.303203 
L 174.2514 134.502256 
L 174.57638 160.413213 
L 174.90136 165.682431 
L 175.226339 136.547554 
L 175.551319 141.798482 
L 175.876298 135.366096 
L 176.201278 119.090322 
L 176.526257 114.125067 
L 176.851237 138.376957 
L 177.176216 117.945567 
L 177.501196 148.163507 
L 177.826175 147.394439 
L 178.151155 126.164014 
L 178.476134 155.289225 
L 178.801114 149.598678 
L 179.126093 148.646298 
L 179.451073 163.000289 
L 179.776052 138.143257 
L 180.101032 128.948886 
L 180.426011 133.359026 
L 180.750991 130.850863 
L 181.075971 165.451004 
L 181.40095 125.817554 
L 181.72593 118.704599 
L 182.050909 136.280877 
L 182.375889 165.96259 
L 182.700868 157.896484 
L 183.025848 163.550883 
L 183.350827 132.301489 
L 183.675807 153.018107 
L 184.000786 152.008869 
L 184.325766 140.555327 
L 184.650745 141.445713 
L 184.975725 141.818996 
L 185.300704 154.134886 
L 185.625684 131.790593 
L 185.950663 159.111148 
L 186.275643 153.543974 
L 186.600622 131.091863 
L 186.925602 154.285775 
L 187.250581 164.735964 
L 187.900541 147.201492 
L 188.22552 142.059625 
L 188.5505 115.045604 
L 188.875479 137.679936 
L 189.200459 114.365015 
L 189.525438 119.948413 
L 189.850418 165.113076 
L 190.825356 117.041292 
L 191.150336 133.550514 
L 191.475315 114.46956 
L 191.800295 142.049476 
L 192.125274 158.507385 
L 192.450254 155.185549 
L 192.775233 127.702513 
L 193.100213 141.936226 
L 193.425192 140.854471 
L 193.750172 117.965898 
L 194.075152 145.538559 
L 194.400131 123.321953 
L 194.725111 120.592583 
L 195.37507 161.060386 
L 195.700049 116.29898 
L 196.025029 136.717086 
L 196.350008 125.803033 
L 196.674988 165.298784 
L 196.999967 142.968904 
L 197.324947 163.403079 
L 197.649926 129.614493 
L 197.974906 139.555058 
L 198.299885 141.294188 
L 198.624865 151.802218 
L 198.949844 138.933047 
L 199.274824 146.510524 
L 199.599803 119.81931 
L 199.924783 142.463353 
L 200.249762 137.684147 
L 200.574742 150.662487 
L 200.899722 149.721339 
L 201.224701 154.197961 
L 201.549681 154.887555 
L 201.87466 149.253437 
L 202.19964 133.532249 
L 202.524619 135.020485 
L 202.849599 139.762887 
L 203.174578 146.764979 
L 203.499558 148.716459 
L 203.824537 121.303333 
L 204.149517 114.711187 
L 204.474496 149.208219 
L 204.799476 114.650816 
L 205.124455 131.802763 
L 205.449435 128.144067 
L 205.774414 132.906275 
L 206.099394 119.802707 
L 206.424373 156.715509 
L 206.749353 126.143467 
L 207.074333 137.922763 
L 207.399312 137.56989 
L 207.724292 150.224786 
L 208.049271 117.322952 
L 208.374251 160.146723 
L 208.69923 144.254692 
L 209.02421 159.077517 
L 209.349189 144.683756 
L 209.674169 125.33983 
L 209.999148 158.55958 
L 210.324128 124.114289 
L 210.649107 117.62274 
L 210.974087 147.932264 
L 211.299066 134.597527 
L 211.624046 140.263521 
L 211.949025 164.667168 
L 212.274005 122.470667 
L 212.598984 130.486642 
L 212.923964 164.214162 
L 213.248943 123.289829 
L 213.573923 120.375919 
L 213.898903 156.608604 
L 214.223882 164.424529 
L 214.548862 133.976579 
L 214.873841 139.664692 
L 215.198821 116.364249 
L 215.5238 123.626377 
L 215.84878 125.528561 
L 216.173759 156.284274 
L 216.498739 143.349854 
L 216.823718 123.829552 
L 217.148698 139.896504 
L 217.473677 122.413855 
L 217.798657 141.288525 
L 218.123636 145.007887 
L 218.448616 146.855719 
L 218.773595 147.994955 
L 219.098575 156.512176 
L 219.423554 123.991241 
L 219.748534 163.507559 
L 220.073514 116.946577 
L 220.398493 119.743421 
L 220.723473 153.877925 
L 221.048452 138.035138 
L 221.373432 146.373904 
L 221.698411 127.863763 
L 222.023391 144.010144 
L 222.34837 126.895456 
L 222.67335 143.837154 
L 222.998329 134.394922 
L 223.323309 150.906278 
L 223.648288 142.007383 
L 223.973268 145.034121 
L 224.298247 114.934455 
L 224.623227 139.656684 
L 224.948206 117.252435 
L 225.273186 123.397114 
L 225.598165 152.904231 
L 225.923145 152.383832 
L 226.573104 114.467311 
L 226.898084 164.653538 
L 227.223063 114.808582 
L 227.548043 153.590394 
L 227.873022 133.046033 
L 228.198002 150.986404 
L 228.522981 143.189044 
L 228.847961 117.427369 
L 229.17294 139.540023 
L 229.49792 115.735911 
L 229.822899 159.110367 
L 230.147879 156.839702 
L 230.472858 145.582012 
L 230.797838 157.537321 
L 231.122817 125.851717 
L 231.447797 163.227061 
L 231.772776 118.198258 
L 232.097756 150.682303 
L 232.422735 152.70782 
L 232.747715 129.55872 
L 233.072695 156.175713 
L 233.397674 143.534598 
L 233.722654 159.98028 
L 234.047633 150.808196 
L 234.372613 132.479883 
L 234.697592 130.388171 
L 235.022572 136.832868 
L 235.347551 153.737224 
L 235.672531 121.425093 
L 235.99751 164.536808 
L 236.32249 155.800309 
L 236.647469 139.393845 
L 236.972449 147.005816 
L 237.297428 136.669733 
L 237.622408 132.589104 
L 237.947387 133.877254 
L 238.272367 121.52754 
L 238.597346 158.726968 
L 238.922326 138.187633 
L 239.247305 146.231979 
L 239.572285 123.387716 
L 239.897265 117.073163 
L 240.222244 159.605119 
L 240.547224 154.287859 
L 240.872203 165.927062 
L 241.197183 132.573199 
L 241.522162 142.141109 
L 241.847142 139.549659 
L 242.497101 117.201986 
L 242.82208 136.914035 
L 243.14706 118.985574 
L 243.472039 144.49899 
L 243.797019 148.617088 
L 244.121998 136.654838 
L 244.446978 137.446908 
L 244.771957 153.427484 
L 245.421916 116.10182 
L 245.746896 163.182944 
L 246.071876 119.005913 
L 246.396855 150.910514 
L 246.721835 129.065772 
L 247.046814 151.315223 
L 247.371794 164.384057 
L 247.696773 125.255092 
L 248.021753 117.636959 
L 248.346732 135.196288 
L 248.671712 117.384276 
L 249.321671 139.11172 
L 249.64665 160.54981 
L 249.97163 157.497765 
L 250.296609 128.905372 
L 250.621589 139.083153 
L 250.946568 144.611763 
L 251.271548 139.992789 
L 251.596527 129.766624 
L 251.921507 149.860814 
L 252.246486 114.367177 
L 252.571466 129.68774 
L 252.896446 134.699827 
L 253.221425 157.122875 
L 253.546405 124.386218 
L 253.871384 146.863454 
L 254.521343 121.515864 
L 254.846323 118.381643 
L 255.171302 142.839274 
L 255.496282 121.873154 
L 255.821261 157.289828 
L 256.146241 138.047064 
L 256.47122 127.028826 
L 256.7962 129.850706 
L 257.121179 114.126196 
L 257.446159 155.912223 
L 257.771138 151.318735 
L 258.096118 117.22302 
L 258.421097 160.376846 
L 258.746077 154.744326 
L 259.071057 143.217799 
L 259.396036 121.297078 
L 260.045995 149.284079 
L 260.370975 113.832821 
L 260.695954 145.993936 
L 261.020934 145.170881 
L 261.345913 138.692256 
L 261.670893 117.131409 
L 261.995872 147.684089 
L 262.320852 156.902875 
L 262.645831 148.666875 
L 262.970811 113.705438 
L 263.29579 152.989131 
L 263.62077 155.667778 
L 263.945749 133.883468 
L 264.270729 125.370458 
L 264.595708 147.280078 
L 264.920688 127.424737 
L 265.245667 134.346204 
L 265.570647 151.241022 
L 265.895627 145.969027 
L 266.545586 163.334765 
L 266.870565 135.532818 
L 267.195545 124.637886 
L 267.520524 127.518642 
L 267.845504 141.133788 
L 268.170483 164.959982 
L 268.495463 146.068633 
L 268.820442 140.509047 
L 269.145422 137.788443 
L 269.470401 113.993177 
L 269.795381 153.770779 
L 270.12036 147.99836 
L 270.44534 155.283535 
L 270.770319 151.956366 
L 271.095299 153.78331 
L 271.420278 157.917836 
L 271.745258 153.700125 
L 272.070238 144.62384 
L 272.395217 157.286841 
L 272.720197 145.34974 
L 273.045176 137.596664 
L 273.370156 113.704458 
L 273.695135 153.24815 
L 274.020115 152.526979 
L 274.345094 133.121409 
L 274.670074 143.377044 
L 274.995053 129.131471 
L 275.320033 161.401897 
L 275.645012 146.700228 
L 275.969992 147.094762 
L 276.294971 161.071215 
L 276.619951 146.036756 
L 276.94493 139.031697 
L 277.26991 162.739593 
L 277.594889 126.672816 
L 277.919869 128.747026 
L 278.244848 125.930236 
L 278.569828 114.161274 
L 278.894808 133.923876 
L 279.219787 128.428964 
L 279.544767 154.386863 
L 279.869746 143.612639 
L 280.194726 151.829695 
L 280.519705 132.14784 
L 280.844685 143.150455 
L 281.169664 123.564468 
L 281.494644 119.696629 
L 281.819623 131.358914 
L 282.144603 149.157939 
L 282.469582 135.476439 
L 282.794562 144.950413 
L 283.119541 124.412411 
L 283.444521 155.03073 
L 283.7695 118.366497 
L 284.09448 119.68693 
L 284.744439 164.510948 
L 285.069419 121.849904 
L 285.394398 144.423883 
L 285.719378 151.174829 
L 286.044357 115.261267 
L 286.369337 149.993904 
L 286.694316 121.833358 
L 287.019296 147.165133 
L 287.344275 163.451435 
L 287.669255 143.036146 
L 287.994234 159.712906 
L 288.319214 154.185132 
L 288.644193 151.871912 
L 288.969173 125.69249 
L 289.294152 152.505605 
L 289.619132 143.092379 
L 289.944111 150.368164 
L 290.269091 136.13098 
L 290.59407 152.165041 
L 290.91905 113.522087 
L 291.244029 127.743633 
L 291.569009 147.709403 
L 291.893989 157.270011 
L 292.218968 134.293066 
L 292.543948 165.970802 
L 292.868927 120.991629 
L 293.193907 117.706319 
L 293.518886 132.426029 
L 293.843866 159.289966 
L 294.168845 122.87734 
L 294.493825 165.983407 
L 295.143784 125.711005 
L 295.468763 122.383807 
L 296.118722 149.982492 
L 296.768681 156.259258 
L 297.093661 142.244257 
L 297.41864 117.190775 
L 297.74362 117.36982 
L 298.0686 159.26776 
L 298.393579 144.330515 
L 298.718559 145.225233 
L 299.043538 122.435701 
L 299.368518 141.494597 
L 299.693497 141.116784 
L 300.018477 149.12488 
L 300.343456 151.58742 
L 300.668436 147.641598 
L 300.993415 147.772148 
L 301.318395 117.430089 
L 301.643374 125.602231 
L 301.968354 158.195178 
L 302.293333 128.54988 
L 302.618313 134.410691 
L 302.943292 130.781346 
L 303.268272 164.278169 
L 303.593251 162.513112 
L 303.918231 164.141256 
L 304.24321 126.859664 
L 304.56819 160.960203 
L 304.89317 150.923243 
L 305.218149 152.621753 
L 305.868108 128.111762 
L 306.193088 160.436218 
L 306.518067 127.578027 
L 306.843047 123.154751 
L 307.168026 142.389748 
L 307.493006 154.395062 
L 307.817985 116.964289 
L 308.142965 124.364984 
L 308.467944 165.011747 
L 308.792924 124.379585 
L 309.117903 161.725865 
L 309.442883 164.277284 
L 309.767862 133.052414 
L 310.092842 150.541925 
L 310.417821 141.140445 
L 310.742801 119.006627 
L 311.067781 123.94945 
L 311.39276 137.845384 
L 311.71774 120.986832 
L 312.042719 121.841003 
L 312.367699 140.619471 
L 313.017658 114.39929 
L 313.342637 158.733038 
L 313.667617 142.833864 
L 313.992596 153.68616 
L 314.317576 147.145623 
L 314.642555 114.306804 
L 314.967535 157.153757 
L 315.292514 153.796935 
L 315.942473 138.821498 
L 316.267453 114.678476 
L 316.592432 144.313953 
L 316.917412 134.341831 
L 317.242391 144.684181 
L 317.567371 131.192103 
L 317.892351 151.931186 
L 318.21733 131.268402 
L 318.54231 120.476048 
L 319.192269 148.145754 
L 319.517248 151.829239 
L 319.842228 147.228936 
L 320.167207 126.955787 
L 320.492187 116.120496 
L 320.817166 147.893623 
L 321.142146 164.353926 
L 321.467125 162.698773 
L 321.792105 165.596259 
L 322.117084 165.563211 
L 322.442064 128.471854 
L 322.767043 158.608008 
L 323.092023 119.488725 
L 323.417002 153.890686 
L 324.066962 128.505797 
L 324.391941 118.450319 
L 324.716921 165.170751 
L 325.0419 143.304013 
L 325.36688 145.43287 
L 325.691859 158.151303 
L 326.016839 144.74847 
L 326.341818 136.866365 
L 326.666798 163.472322 
L 326.991777 155.146299 
L 327.641736 121.664769 
L 327.966716 132.847171 
L 328.291695 151.266997 
L 328.616675 147.004548 
L 328.941654 156.464394 
L 329.266634 148.513648 
L 329.591613 143.427294 
L 329.916593 121.756701 
L 330.241572 165.054784 
L 330.566552 119.153227 
L 330.891532 141.53125 
L 331.216511 116.613147 
L 331.541491 161.023843 
L 331.86647 141.146053 
L 332.19145 152.169855 
L 332.516429 126.792488 
L 332.841409 154.878938 
L 333.166388 117.385135 
L 333.491368 141.112798 
L 333.816347 122.682484 
L 334.141327 117.913212 
L 334.466306 141.070147 
L 334.791286 123.263301 
L 335.116265 116.812177 
L 335.441245 155.65172 
L 335.766224 114.851701 
L 336.091204 136.601655 
L 336.416183 150.585188 
L 336.741163 143.169171 
L 337.066143 148.024021 
L 337.391122 135.123 
L 337.716102 138.171567 
L 338.366061 124.916413 
L 338.69104 161.516996 
L 339.01602 160.809766 
L 339.340999 132.052183 
L 339.665979 146.526502 
L 339.990958 114.526592 
L 340.315938 157.221075 
L 340.965897 133.822044 
L 341.290876 157.695054 
L 341.615856 142.398759 
L 341.940835 121.682305 
L 342.590794 146.810065 
L 342.915774 129.870158 
L 343.240753 135.378553 
L 343.565733 114.689303 
L 343.890713 163.260562 
L 344.215692 129.021013 
L 344.540672 157.711002 
L 344.865651 152.054806 
L 345.190631 121.37791 
L 345.51561 163.423238 
L 345.84059 124.498589 
L 346.490549 166.113391 
L 346.815528 121.940245 
L 347.140508 163.412174 
L 347.465487 123.998578 
L 347.790467 145.336126 
L 348.115446 141.595205 
L 348.440426 139.847981 
L 348.765405 126.127907 
L 349.090385 135.948154 
L 349.415364 154.484078 
L 349.740344 157.129366 
L 350.390303 121.380674 
L 350.715283 136.079264 
L 351.040262 129.694603 
L 351.365242 146.699044 
L 351.690221 138.559904 
L 352.015201 120.241977 
L 352.34018 153.713285 
L 352.66516 159.357753 
L 352.990139 147.343351 
L 353.315119 141.879823 
L 353.640098 151.915059 
L 353.965078 141.974979 
L 354.290057 161.394667 
L 354.615037 164.616017 
L 354.940016 114.007154 
L 355.264996 132.219391 
L 355.589975 141.782788 
L 355.914955 147.422217 
L 356.239934 155.211569 
L 356.564914 120.208925 
L 356.889894 115.628065 
L 357.214873 134.204334 
L 357.539853 162.163998 
L 357.864832 152.203297 
L 358.189812 134.641005 
L 358.514791 155.653648 
L 358.839771 124.547487 
L 359.16475 148.70794 
L 359.48973 161.632796 
L 359.814709 161.350351 
L 360.139689 161.781388 
L 360.464668 132.11781 
L 360.789648 165.585928 
L 361.114627 154.655405 
L 361.439607 148.514741 
L 361.764586 132.32165 
L 362.089566 136.985117 
L 362.414545 152.176459 
L 362.739525 135.299381 
L 363.064505 150.102845 
L 363.389484 131.07955 
L 363.714464 148.307675 
L 364.039443 115.529466 
L 364.364423 117.289242 
L 364.689402 155.638139 
L 365.014382 116.675133 
L 365.339361 148.553648 
L 365.664341 160.900865 
L 365.98932 114.719179 
L 366.3143 138.201539 
L 366.639279 142.434014 
L 366.964259 162.919293 
L 367.289238 123.153058 
L 367.614218 146.884103 
L 367.939197 118.527505 
L 368.264177 160.552767 
L 368.914136 121.41452 
L 369.239115 140.3354 
L 369.564095 130.630353 
L 369.889075 137.964814 
L 370.214054 165.940035 
L 370.864013 145.942016 
L 371.188993 153.090866 
L 371.513972 150.528111 
L 371.838952 153.317378 
L 372.163931 131.923061 
L 372.488911 119.350466 
L 372.81389 162.92193 
L 373.13887 153.951992 
L 373.463849 155.433276 
L 373.788829 130.19916 
L 374.438788 142.463307 
L 374.763767 118.95367 
L 375.413726 164.759325 
L 375.738706 143.5066 
L 376.063686 151.335259 
L 376.388665 142.748568 
L 376.713645 145.126912 
L 377.038624 150.713438 
L 377.363604 136.475926 
L 377.688583 134.333325 
L 378.013563 116.915706 
L 378.338542 116.357848 
L 378.663522 150.109997 
L 378.988501 122.148079 
L 379.313481 123.494389 
L 379.63846 143.437488 
L 379.96344 154.711836 
L 380.613399 140.396304 
L 380.938378 120.24968 
L 381.263358 135.552135 
L 381.588337 160.434327 
L 381.913317 146.143295 
L 382.238296 151.319222 
L 382.563276 153.770704 
L 382.888256 144.53196 
L 383.213235 129.974006 
L 383.538215 153.956762 
L 383.863194 118.255702 
L 384.188174 161.914707 
L 384.513153 140.067223 
L 384.838133 133.142755 
L 385.163112 116.255986 
L 385.813071 151.612907 
L 386.138051 157.12293 
L 386.46303 131.819454 
L 386.78801 164.076139 
L 387.112989 140.077046 
L 387.437969 141.28373 
L 387.762948 161.300666 
L 388.087928 149.099025 
L 388.412907 128.180942 
L 388.737887 150.470911 
L 389.062867 144.972338 
L 389.387846 126.207176 
L 389.712826 115.042906 
L 390.037805 127.428311 
L 390.362785 121.643313 
L 390.687764 145.306609 
L 391.012744 148.333897 
L 391.662703 134.229128 
L 391.987682 147.276714 
L 392.312662 128.199375 
L 392.637641 158.390012 
L 392.962621 140.28062 
L 393.2876 163.098564 
L 393.61258 115.527995 
L 393.937559 160.02451 
L 394.262539 146.569814 
L 394.587518 141.935356 
L 394.912498 149.436115 
L 395.237477 118.622507 
L 395.562457 142.900844 
L 395.887437 152.730992 
L 396.212416 135.722597 
L 396.537396 152.168499 
L 396.862375 152.618983 
L 397.187355 160.535605 
L 397.512334 160.817969 
L 397.837314 132.437449 
L 398.162293 122.987015 
L 398.487273 138.852685 
L 398.487273 138.852685 
" clip-path="url(#p0987426a22)" style="fill: none; stroke: #1f77b4; stroke-width: 1.5; stroke-linecap: square"/>
   </g>
   <g id="patch_8">
    <path d="M 57.6 168.742957 
L 57.6 110.892522 
" style="fill: none; stroke: #000000; stroke-width: 0.8; stroke-linejoin: miter; stroke-linecap: square"/>
   </g>
   <g id="patch_9">
    <path d="M 414.72 168.742957 
L 414.72 110.892522 
" style="fill: none; stroke: #000000; stroke-width: 0.8; stroke-linejoin: miter; stroke-linecap: square"/>
   </g>
   <g id="patch_10">
    <path d="M 57.6 168.742957 
L 414.72 168.742957 
" style="fill: none; stroke: #000000; stroke-width: 0.8; stroke-linejoin: miter; stroke-linecap: square"/>
   </g>
   <g id="patch_11">
    <path d="M 57.6 110.892522 
L 414.72 110.892522 
" style="fill: none; stroke: #000000; stroke-width: 0.8; stroke-linejoin: miter; stroke-linecap: square"/>
   </g>
   <g id="text_18">
    <!-- Zgomot -->
    <g transform="translate(212.701875 104.892522) scale(0.12 -0.12)">
     <defs>
      <path id="DejaVuSans-5a" d="M 359 4666 
L 4025 4666 
L 4025 4184 
L 1075 531 
L 4097 531 
L 4097 0 
L 288 0 
L 288 481 
L 3238 4134 
L 359 4134 
L 359 4666 
z
" transform="scale(0.015625)"/>
      <path id="DejaVuSans-6f" d="M 1959 3097 
Q 1497 3097 1228 2736 
Q 959 2375 959 1747 
Q 959 1119 1226 758 
Q 1494 397 1959 397 
Q 2419 397 2687 759 
Q 2956 1122 2956 1747 
Q 2956 2369 2687 2733 
Q 2419 3097 1959 3097 
z
M 1959 3584 
Q 2709 3584 3137 3096 
Q 3566 2609 3566 1747 
Q 3566 888 3137 398 
Q 2709 -91 1959 -91 
Q 1206 -91 779 398 
Q 353 888 353 1747 
Q 353 2609 779 3096 
Q 1206 3584 1959 3584 
z
" transform="scale(0.015625)"/>
      <path id="DejaVuSans-6d" d="M 3328 2828 
Q 3544 3216 3844 3400 
Q 4144 3584 4550 3584 
Q 5097 3584 5394 3201 
Q 5691 2819 5691 2113 
L 5691 0 
L 5113 0 
L 5113 2094 
Q 5113 2597 4934 2840 
Q 4756 3084 4391 3084 
Q 3944 3084 3684 2787 
Q 3425 2491 3425 1978 
L 3425 0 
L 2847 0 
L 2847 2094 
Q 2847 2600 2669 2842 
Q 2491 3084 2119 3084 
Q 1678 3084 1418 2786 
Q 1159 2488 1159 1978 
L 1159 0 
L 581 0 
L 581 3500 
L 1159 3500 
L 1159 2956 
Q 1356 3278 1631 3431 
Q 1906 3584 2284 3584 
Q 2666 3584 2933 3390 
Q 3200 3197 3328 2828 
z
" transform="scale(0.015625)"/>
     </defs>
     <use xlink:href="#DejaVuSans-5a"/>
     <use xlink:href="#DejaVuSans-67" x="68.505859"/>
     <use xlink:href="#DejaVuSans-6f" x="131.982422"/>
     <use xlink:href="#DejaVuSans-6d" x="193.164062"/>
     <use xlink:href="#DejaVuSans-6f" x="290.576172"/>
     <use xlink:href="#DejaVuSans-74" x="351.757812"/>
    </g>
   </g>
  </g>
  <g id="axes_3">
   <g id="patch_12">
    <path d="M 57.6 238.163478 
L 414.72 238.163478 
L 414.72 180.313043 
L 57.6 180.313043 
z
" style="fill: #ffffff"/>
   </g>
   <g id="matplotlib.axis_5">
    <g id="xtick_13">
     <g id="line2d_19">
      <g>
       <use xlink:href="#m1223fce5a8" x="73.832727" y="238.163478" style="stroke: #000000; stroke-width: 0.8"/>
      </g>
     </g>
     <g id="text_19">
      <!-- 0 -->
      <g transform="translate(70.651477 252.761916) scale(0.1 -0.1)">
       <use xlink:href="#DejaVuSans-30"/>
      </g>
     </g>
    </g>
    <g id="xtick_14">
     <g id="line2d_20">
      <g>
       <use xlink:href="#m1223fce5a8" x="138.828632" y="238.163478" style="stroke: #000000; stroke-width: 0.8"/>
      </g>
     </g>
     <g id="text_20">
      <!-- 200 -->
      <g transform="translate(129.284882 252.761916) scale(0.1 -0.1)">
       <use xlink:href="#DejaVuSans-32"/>
       <use xlink:href="#DejaVuSans-30" x="63.623047"/>
       <use xlink:href="#DejaVuSans-30" x="127.246094"/>
      </g>
     </g>
    </g>
    <g id="xtick_15">
     <g id="line2d_21">
      <g>
       <use xlink:href="#m1223fce5a8" x="203.824537" y="238.163478" style="stroke: #000000; stroke-width: 0.8"/>
      </g>
     </g>
     <g id="text_21">
      <!-- 400 -->
      <g transform="translate(194.280787 252.761916) scale(0.1 -0.1)">
       <use xlink:href="#DejaVuSans-34"/>
       <use xlink:href="#DejaVuSans-30" x="63.623047"/>
       <use xlink:href="#DejaVuSans-30" x="127.246094"/>
      </g>
     </g>
    </g>
    <g id="xtick_16">
     <g id="line2d_22">
      <g>
       <use xlink:href="#m1223fce5a8" x="268.820442" y="238.163478" style="stroke: #000000; stroke-width: 0.8"/>
      </g>
     </g>
     <g id="text_22">
      <!-- 600 -->
      <g transform="translate(259.276692 252.761916) scale(0.1 -0.1)">
       <use xlink:href="#DejaVuSans-36"/>
       <use xlink:href="#DejaVuSans-30" x="63.623047"/>
       <use xlink:href="#DejaVuSans-30" x="127.246094"/>
      </g>
     </g>
    </g>
    <g id="xtick_17">
     <g id="line2d_23">
      <g>
       <use xlink:href="#m1223fce5a8" x="333.816347" y="238.163478" style="stroke: #000000; stroke-width: 0.8"/>
      </g>
     </g>
     <g id="text_23">
      <!-- 800 -->
      <g transform="translate(324.272597 252.761916) scale(0.1 -0.1)">
       <use xlink:href="#DejaVuSans-38"/>
       <use xlink:href="#DejaVuSans-30" x="63.623047"/>
       <use xlink:href="#DejaVuSans-30" x="127.246094"/>
      </g>
     </g>
    </g>
    <g id="xtick_18">
     <g id="line2d_24">
      <g>
       <use xlink:href="#m1223fce5a8" x="398.812252" y="238.163478" style="stroke: #000000; stroke-width: 0.8"/>
      </g>
     </g>
     <g id="text_24">
      <!-- 1000 -->
      <g transform="translate(386.087252 252.761916) scale(0.1 -0.1)">
       <use xlink:href="#DejaVuSans-31"/>
       <use xlink:href="#DejaVuSans-30" x="63.623047"/>
       <use xlink:href="#DejaVuSans-30" x="127.246094"/>
       <use xlink:href="#DejaVuSans-30" x="190.869141"/>
      </g>
     </g>
    </g>
   </g>
   <g id="matplotlib.axis_6">
    <g id="ytick_5">
     <g id="line2d_25">
      <g>
       <use xlink:href="#m7f5dd78986" x="57.6" y="233.267406" style="stroke: #000000; stroke-width: 0.8"/>
      </g>
     </g>
     <g id="text_25">
      <!-- −0.25 -->
      <g transform="translate(19.954687 237.066625) scale(0.1 -0.1)">
       <defs>
        <path id="DejaVuSans-2212" d="M 678 2272 
L 4684 2272 
L 4684 1741 
L 678 1741 
L 678 2272 
z
" transform="scale(0.015625)"/>
        <path id="DejaVuSans-35" d="M 691 4666 
L 3169 4666 
L 3169 4134 
L 1269 4134 
L 1269 2991 
Q 1406 3038 1543 3061 
Q 1681 3084 1819 3084 
Q 2600 3084 3056 2656 
Q 3513 2228 3513 1497 
Q 3513 744 3044 326 
Q 2575 -91 1722 -91 
Q 1428 -91 1123 -41 
Q 819 9 494 109 
L 494 744 
Q 775 591 1075 516 
Q 1375 441 1709 441 
Q 2250 441 2565 725 
Q 2881 1009 2881 1497 
Q 2881 1984 2565 2268 
Q 2250 2553 1709 2553 
Q 1456 2553 1204 2497 
Q 953 2441 691 2322 
L 691 4666 
z
" transform="scale(0.015625)"/>
       </defs>
       <use xlink:href="#DejaVuSans-2212"/>
       <use xlink:href="#DejaVuSans-30" x="83.789062"/>
       <use xlink:href="#DejaVuSans-2e" x="147.412109"/>
       <use xlink:href="#DejaVuSans-32" x="179.199219"/>
       <use xlink:href="#DejaVuSans-35" x="242.822266"/>
      </g>
     </g>
    </g>
    <g id="ytick_6">
     <g id="line2d_26">
      <g>
       <use xlink:href="#m7f5dd78986" x="57.6" y="209.238261" style="stroke: #000000; stroke-width: 0.8"/>
      </g>
     </g>
     <g id="text_26">
      <!-- 0.00 -->
      <g transform="translate(28.334375 213.03748) scale(0.1 -0.1)">
       <use xlink:href="#DejaVuSans-30"/>
       <use xlink:href="#DejaVuSans-2e" x="63.623047"/>
       <use xlink:href="#DejaVuSans-30" x="95.410156"/>
       <use xlink:href="#DejaVuSans-30" x="159.033203"/>
      </g>
     </g>
    </g>
    <g id="ytick_7">
     <g id="line2d_27">
      <g>
       <use xlink:href="#m7f5dd78986" x="57.6" y="185.209116" style="stroke: #000000; stroke-width: 0.8"/>
      </g>
     </g>
     <g id="text_27">
      <!-- 0.25 -->
      <g transform="translate(28.334375 189.008334) scale(0.1 -0.1)">
       <use xlink:href="#DejaVuSans-30"/>
       <use xlink:href="#DejaVuSans-2e" x="63.623047"/>
       <use xlink:href="#DejaVuSans-32" x="95.410156"/>
       <use xlink:href="#DejaVuSans-35" x="159.033203"/>
      </g>
     </g>
    </g>
   </g>
   <g id="line2d_28">
    <path d="M 73.832727 209.238261 
L 77.732482 198.669883 
L 79.682359 193.959763 
L 81.307256 190.529292 
L 82.932154 187.655404 
L 84.232072 185.811926 
L 85.53199 184.408172 
L 86.506929 183.657539 
L 87.481867 183.172482 
L 88.456806 182.95544 
L 89.431744 183.005631 
L 90.406683 183.319077 
L 91.381622 183.888658 
L 92.35656 184.704219 
L 93.656478 186.151314 
L 94.956396 187.973816 
L 96.581294 190.70905 
L 98.531171 194.522414 
L 101.131007 200.171563 
L 105.680721 210.152474 
L 107.630598 213.914755 
L 109.255495 216.614682 
L 110.555414 218.426787 
L 111.855332 219.891211 
L 113.15525 220.981622 
L 114.130188 221.543352 
L 115.105127 221.88123 
L 116.080066 221.994664 
L 117.055004 221.886139 
L 118.029943 221.561169 
L 119.004881 221.028212 
L 120.304799 220.013959 
L 121.604717 218.684346 
L 123.229615 216.642868 
L 125.179492 213.764265 
L 128.104308 208.966246 
L 131.354103 203.710844 
L 133.30398 200.971574 
L 134.928878 199.090383 
L 136.228796 197.913701 
L 137.528714 197.070396 
L 138.503653 196.675015 
L 139.478591 196.493581 
L 140.45353 196.532602 
L 141.428468 196.795578 
L 142.403407 197.282947 
L 143.378346 197.992065 
L 144.678264 199.272206 
L 145.978182 200.914321 
L 147.2781 202.887647 
L 148.902998 205.759773 
L 150.852875 209.676678 
L 153.77769 216.114587 
L 157.677445 224.622265 
L 159.627322 228.350853 
L 161.252219 230.991129 
L 162.552138 232.723814 
L 163.852056 234.07074 
L 164.826994 234.805618 
L 165.801933 235.290801 
L 166.776871 235.517133 
L 167.75181 235.478532 
L 168.726749 235.172079 
L 169.701687 234.598067 
L 170.676626 233.760007 
L 171.651564 232.664596 
L 172.951482 230.821118 
L 174.2514 228.569405 
L 175.876298 225.242852 
L 177.826175 220.629139 
L 180.426011 213.749354 
L 186.600622 197.03861 
L 188.5505 192.526763 
L 190.175397 189.307978 
L 191.475315 187.154876 
L 192.775233 185.418737 
L 193.750172 184.408172 
L 194.725111 183.657539 
L 195.700049 183.172482 
L 196.674988 182.95544 
L 197.649926 183.005631 
L 198.624865 183.319077 
L 199.599803 183.888658 
L 200.574742 184.704219 
L 201.87466 186.151314 
L 203.174578 187.973816 
L 204.799476 190.70905 
L 206.749353 194.522414 
L 209.349189 200.171563 
L 213.898903 210.152474 
L 215.84878 213.914755 
L 217.473677 216.614682 
L 218.773595 218.426787 
L 220.073514 219.891211 
L 221.373432 220.981622 
L 222.34837 221.543352 
L 223.323309 221.88123 
L 224.298247 221.994664 
L 225.273186 221.886139 
L 226.248124 221.561169 
L 227.223063 221.028212 
L 228.522981 220.013959 
L 229.822899 218.684346 
L 231.447797 216.642868 
L 233.397674 213.764265 
L 236.32249 208.966246 
L 239.572285 203.710844 
L 241.522162 200.971574 
L 243.14706 199.090383 
L 244.446978 197.913701 
L 245.746896 197.070396 
L 246.721835 196.675015 
L 247.696773 196.493581 
L 248.671712 196.532602 
L 249.64665 196.795578 
L 250.621589 197.282947 
L 251.596527 197.992065 
L 252.896446 199.272206 
L 254.196364 200.914321 
L 255.496282 202.887647 
L 257.121179 205.759773 
L 259.071057 209.676678 
L 261.995872 216.114587 
L 265.895627 224.622265 
L 267.845504 228.350853 
L 269.470401 230.991129 
L 270.770319 232.723814 
L 272.070238 234.07074 
L 273.045176 234.805618 
L 274.020115 235.290801 
L 274.995053 235.517133 
L 275.969992 235.478532 
L 276.94493 235.172079 
L 277.919869 234.598067 
L 278.894808 233.760007 
L 279.869746 232.664596 
L 281.169664 230.821118 
L 282.469582 228.569405 
L 284.09448 225.242852 
L 286.044357 220.629139 
L 288.644193 213.749354 
L 294.818804 197.03861 
L 296.768681 192.526763 
L 298.393579 189.307978 
L 299.693497 187.154876 
L 300.993415 185.418737 
L 301.968354 184.408172 
L 302.943292 183.657539 
L 303.918231 183.172482 
L 304.89317 182.95544 
L 305.868108 183.005631 
L 306.843047 183.319077 
L 307.817985 183.888658 
L 308.792924 184.704219 
L 310.092842 186.151314 
L 311.39276 187.973816 
L 313.017658 190.70905 
L 314.967535 194.522414 
L 317.567371 200.171563 
L 322.117084 210.152474 
L 324.066962 213.914755 
L 325.691859 216.614682 
L 326.991777 218.426787 
L 328.291695 219.891211 
L 329.591613 220.981622 
L 330.566552 221.543352 
L 331.541491 221.88123 
L 332.516429 221.994664 
L 333.491368 221.886139 
L 334.466306 221.561169 
L 335.441245 221.028212 
L 336.741163 220.013959 
L 338.041081 218.684346 
L 339.665979 216.642868 
L 341.615856 213.764265 
L 344.540672 208.966246 
L 347.790467 203.710844 
L 349.740344 200.971574 
L 351.365242 199.090383 
L 352.66516 197.913701 
L 353.965078 197.070396 
L 354.940016 196.675015 
L 355.914955 196.493581 
L 356.889894 196.532602 
L 357.864832 196.795578 
L 358.839771 197.282947 
L 359.814709 197.992065 
L 361.114627 199.272206 
L 362.414545 200.914321 
L 363.714464 202.887647 
L 365.339361 205.759773 
L 367.289238 209.676678 
L 370.214054 216.114587 
L 374.113808 224.622265 
L 376.063686 228.350853 
L 377.688583 230.991129 
L 378.988501 232.723814 
L 380.288419 234.07074 
L 381.263358 234.805618 
L 382.238296 235.290801 
L 383.213235 235.517133 
L 384.188174 235.478532 
L 385.163112 235.172079 
L 386.138051 234.598067 
L 387.112989 233.760007 
L 388.087928 232.664596 
L 389.387846 230.821118 
L 390.687764 228.569405 
L 392.312662 225.242852 
L 394.262539 220.629139 
L 396.862375 213.749354 
L 398.487273 209.238261 
L 398.487273 209.238261 
" clip-path="url(#pf73c2d3c61)" style="fill: none; stroke: #1f77b4; stroke-width: 1.5; stroke-linecap: square"/>
   </g>
   <g id="patch_13">
    <path d="M 57.6 238.163478 
L 57.6 180.313043 
" style="fill: none; stroke: #000000; stroke-width: 0.8; stroke-linejoin: miter; stroke-linecap: square"/>
   </g>
   <g id="patch_14">
    <path d="M 414.72 238.163478 
L 414.72 180.313043 
" style="fill: none; stroke: #000000; stroke-width: 0.8; stroke-linejoin: miter; stroke-linecap: square"/>
   </g>
   <g id="patch_15">
    <path d="M 57.6 238.163478 
L 414.72 238.163478 
" style="fill: none; stroke: #000000; stroke-width: 0.8; stroke-linejoin: miter; stroke-linecap: square"/>
   </g>
   <g id="patch_16">
    <path d="M 57.6 180.313043 
L 414.72 180.313043 
" style="fill: none; stroke: #000000; stroke-width: 0.8; stroke-linejoin: miter; stroke-linecap: square"/>
   </g>
   <g id="text_28">
    <!-- Semnal -->
    <g transform="translate(213.668437 174.313043) scale(0.12 -0.12)">
     <defs>
      <path id="DejaVuSans-53" d="M 3425 4513 
L 3425 3897 
Q 3066 4069 2747 4153 
Q 2428 4238 2131 4238 
Q 1616 4238 1336 4038 
Q 1056 3838 1056 3469 
Q 1056 3159 1242 3001 
Q 1428 2844 1947 2747 
L 2328 2669 
Q 3034 2534 3370 2195 
Q 3706 1856 3706 1288 
Q 3706 609 3251 259 
Q 2797 -91 1919 -91 
Q 1588 -91 1214 -16 
Q 841 59 441 206 
L 441 856 
Q 825 641 1194 531 
Q 1563 422 1919 422 
Q 2459 422 2753 634 
Q 3047 847 3047 1241 
Q 3047 1584 2836 1778 
Q 2625 1972 2144 2069 
L 1759 2144 
Q 1053 2284 737 2584 
Q 422 2884 422 3419 
Q 422 4038 858 4394 
Q 1294 4750 2059 4750 
Q 2388 4750 2728 4690 
Q 3069 4631 3425 4513 
z
" transform="scale(0.015625)"/>
      <path id="DejaVuSans-6e" d="M 3513 2113 
L 3513 0 
L 2938 0 
L 2938 2094 
Q 2938 2591 2744 2837 
Q 2550 3084 2163 3084 
Q 1697 3084 1428 2787 
Q 1159 2491 1159 1978 
L 1159 0 
L 581 0 
L 581 3500 
L 1159 3500 
L 1159 2956 
Q 1366 3272 1645 3428 
Q 1925 3584 2291 3584 
Q 2894 3584 3203 3211 
Q 3513 2838 3513 2113 
z
" transform="scale(0.015625)"/>
      <path id="DejaVuSans-6c" d="M 603 4863 
L 1178 4863 
L 1178 0 
L 603 0 
L 603 4863 
z
" transform="scale(0.015625)"/>
     </defs>
     <use xlink:href="#DejaVuSans-53"/>
     <use xlink:href="#DejaVuSans-65" x="63.476562"/>
     <use xlink:href="#DejaVuSans-6d" x="125"/>
     <use xlink:href="#DejaVuSans-6e" x="222.412109"/>
     <use xlink:href="#DejaVuSans-61" x="285.791016"/>
     <use xlink:href="#DejaVuSans-6c" x="347.070312"/>
    </g>
   </g>
  </g>
  <g id="axes_4">
   <g id="patch_17">
    <path d="M 57.6 307.584 
L 414.72 307.584 
L 414.72 249.733565 
L 57.6 249.733565 
z
" style="fill: #ffffff"/>
   </g>
   <g id="matplotlib.axis_7">
    <g id="xtick_19">
     <g id="line2d_29">
      <g>
       <use xlink:href="#m1223fce5a8" x="73.832727" y="307.584" style="stroke: #000000; stroke-width: 0.8"/>
      </g>
     </g>
     <g id="text_29">
      <!-- 0 -->
      <g transform="translate(70.651477 322.182437) scale(0.1 -0.1)">
       <use xlink:href="#DejaVuSans-30"/>
      </g>
     </g>
    </g>
    <g id="xtick_20">
     <g id="line2d_30">
      <g>
       <use xlink:href="#m1223fce5a8" x="138.828632" y="307.584" style="stroke: #000000; stroke-width: 0.8"/>
      </g>
     </g>
     <g id="text_30">
      <!-- 200 -->
      <g transform="translate(129.284882 322.182437) scale(0.1 -0.1)">
       <use xlink:href="#DejaVuSans-32"/>
       <use xlink:href="#DejaVuSans-30" x="63.623047"/>
       <use xlink:href="#DejaVuSans-30" x="127.246094"/>
      </g>
     </g>
    </g>
    <g id="xtick_21">
     <g id="line2d_31">
      <g>
       <use xlink:href="#m1223fce5a8" x="203.824537" y="307.584" style="stroke: #000000; stroke-width: 0.8"/>
      </g>
     </g>
     <g id="text_31">
      <!-- 400 -->
      <g transform="translate(194.280787 322.182437) scale(0.1 -0.1)">
       <use xlink:href="#DejaVuSans-34"/>
       <use xlink:href="#DejaVuSans-30" x="63.623047"/>
       <use xlink:href="#DejaVuSans-30" x="127.246094"/>
      </g>
     </g>
    </g>
    <g id="xtick_22">
     <g id="line2d_32">
      <g>
       <use xlink:href="#m1223fce5a8" x="268.820442" y="307.584" style="stroke: #000000; stroke-width: 0.8"/>
      </g>
     </g>
     <g id="text_32">
      <!-- 600 -->
      <g transform="translate(259.276692 322.182437) scale(0.1 -0.1)">
       <use xlink:href="#DejaVuSans-36"/>
       <use xlink:href="#DejaVuSans-30" x="63.623047"/>
       <use xlink:href="#DejaVuSans-30" x="127.246094"/>
      </g>
     </g>
    </g>
    <g id="xtick_23">
     <g id="line2d_33">
      <g>
       <use xlink:href="#m1223fce5a8" x="333.816347" y="307.584" style="stroke: #000000; stroke-width: 0.8"/>
      </g>
     </g>
     <g id="text_33">
      <!-- 800 -->
      <g transform="translate(324.272597 322.182437) scale(0.1 -0.1)">
       <use xlink:href="#DejaVuSans-38"/>
       <use xlink:href="#DejaVuSans-30" x="63.623047"/>
       <use xlink:href="#DejaVuSans-30" x="127.246094"/>
      </g>
     </g>
    </g>
    <g id="xtick_24">
     <g id="line2d_34">
      <g>
       <use xlink:href="#m1223fce5a8" x="398.812252" y="307.584" style="stroke: #000000; stroke-width: 0.8"/>
      </g>
     </g>
     <g id="text_34">
      <!-- 1000 -->
      <g transform="translate(386.087252 322.182437) scale(0.1 -0.1)">
       <use xlink:href="#DejaVuSans-31"/>
       <use xlink:href="#DejaVuSans-30" x="63.623047"/>
       <use xlink:href="#DejaVuSans-30" x="127.246094"/>
       <use xlink:href="#DejaVuSans-30" x="190.869141"/>
      </g>
     </g>
    </g>
    <g id="text_35">
     <!-- Ordin esantion -->
     <g transform="translate(199.443594 335.860562) scale(0.1 -0.1)">
      <defs>
       <path id="DejaVuSans-4f" d="M 2522 4238 
Q 1834 4238 1429 3725 
Q 1025 3213 1025 2328 
Q 1025 1447 1429 934 
Q 1834 422 2522 422 
Q 3209 422 3611 934 
Q 4013 1447 4013 2328 
Q 4013 3213 3611 3725 
Q 3209 4238 2522 4238 
z
M 2522 4750 
Q 3503 4750 4090 4092 
Q 4678 3434 4678 2328 
Q 4678 1225 4090 567 
Q 3503 -91 2522 -91 
Q 1538 -91 948 565 
Q 359 1222 359 2328 
Q 359 3434 948 4092 
Q 1538 4750 2522 4750 
z
" transform="scale(0.015625)"/>
       <path id="DejaVuSans-73" d="M 2834 3397 
L 2834 2853 
Q 2591 2978 2328 3040 
Q 2066 3103 1784 3103 
Q 1356 3103 1142 2972 
Q 928 2841 928 2578 
Q 928 2378 1081 2264 
Q 1234 2150 1697 2047 
L 1894 2003 
Q 2506 1872 2764 1633 
Q 3022 1394 3022 966 
Q 3022 478 2636 193 
Q 2250 -91 1575 -91 
Q 1294 -91 989 -36 
Q 684 19 347 128 
L 347 722 
Q 666 556 975 473 
Q 1284 391 1588 391 
Q 1994 391 2212 530 
Q 2431 669 2431 922 
Q 2431 1156 2273 1281 
Q 2116 1406 1581 1522 
L 1381 1569 
Q 847 1681 609 1914 
Q 372 2147 372 2553 
Q 372 3047 722 3315 
Q 1072 3584 1716 3584 
Q 2034 3584 2315 3537 
Q 2597 3491 2834 3397 
z
" transform="scale(0.015625)"/>
      </defs>
      <use xlink:href="#DejaVuSans-4f"/>
      <use xlink:href="#DejaVuSans-72" x="78.710938"/>
      <use xlink:href="#DejaVuSans-64" x="118.074219"/>
      <use xlink:href="#DejaVuSans-69" x="181.550781"/>
      <use xlink:href="#DejaVuSans-6e" x="209.333984"/>
      <use xlink:href="#DejaVuSans-20" x="272.712891"/>
      <use xlink:href="#DejaVuSans-65" x="304.5"/>
      <use xlink:href="#DejaVuSans-73" x="366.023438"/>
      <use xlink:href="#DejaVuSans-61" x="418.123047"/>
      <use xlink:href="#DejaVuSans-6e" x="479.402344"/>
      <use xlink:href="#DejaVuSans-74" x="542.78125"/>
      <use xlink:href="#DejaVuSans-69" x="581.990234"/>
      <use xlink:href="#DejaVuSans-6f" x="609.773438"/>
      <use xlink:href="#DejaVuSans-6e" x="670.955078"/>
     </g>
    </g>
   </g>
   <g id="matplotlib.axis_8">
    <g id="ytick_8">
     <g id="line2d_35">
      <g>
       <use xlink:href="#m7f5dd78986" x="57.6" y="287.899918" style="stroke: #000000; stroke-width: 0.8"/>
      </g>
     </g>
     <g id="text_36">
      <!-- 2 -->
      <g transform="translate(44.2375 291.699136) scale(0.1 -0.1)">
       <use xlink:href="#DejaVuSans-32"/>
      </g>
     </g>
    </g>
    <g id="ytick_9">
     <g id="line2d_36">
      <g>
       <use xlink:href="#m7f5dd78986" x="57.6" y="253.539278" style="stroke: #000000; stroke-width: 0.8"/>
      </g>
     </g>
     <g id="text_37">
      <!-- 4 -->
      <g transform="translate(44.2375 257.338497) scale(0.1 -0.1)">
       <use xlink:href="#DejaVuSans-34"/>
      </g>
     </g>
    </g>
    <g id="text_38">
     <!-- Valoare -->
     <g transform="translate(38.157812 297.287689) rotate(-90) scale(0.1 -0.1)">
      <defs>
       <path id="DejaVuSans-56" d="M 1831 0 
L 50 4666 
L 709 4666 
L 2188 738 
L 3669 4666 
L 4325 4666 
L 2547 0 
L 1831 0 
z
" transform="scale(0.015625)"/>
      </defs>
      <use xlink:href="#DejaVuSans-56"/>
      <use xlink:href="#DejaVuSans-61" x="60.658203"/>
      <use xlink:href="#DejaVuSans-6c" x="121.9375"/>
      <use xlink:href="#DejaVuSans-6f" x="149.720703"/>
      <use xlink:href="#DejaVuSans-61" x="210.902344"/>
      <use xlink:href="#DejaVuSans-72" x="272.181641"/>
      <use xlink:href="#DejaVuSans-65" x="311.044922"/>
     </g>
    </g>
   </g>
   <g id="line2d_37">
    <path d="M 73.832727 304.954435 
L 74.482686 304.542844 
L 75.457625 303.110612 
L 75.782604 303.366722 
L 76.107584 302.362473 
L 76.432563 302.322387 
L 76.757543 302.561195 
L 77.082523 302.353725 
L 77.407502 301.495596 
L 77.732482 301.905755 
L 78.057461 301.226698 
L 78.382441 301.172407 
L 78.70742 301.866343 
L 79.357379 301.574395 
L 79.682359 300.117473 
L 80.007338 300.999735 
L 80.657297 299.88451 
L 80.982277 299.633649 
L 81.307256 299.892531 
L 81.632236 299.092037 
L 81.957215 300.210992 
L 82.282195 298.899285 
L 82.607174 299.799185 
L 83.257133 299.565555 
L 83.582113 298.890871 
L 83.907093 299.046895 
L 84.232072 298.313103 
L 84.557052 299.327947 
L 84.882031 298.012809 
L 85.207011 298.0987 
L 85.53199 299.135495 
L 85.85697 297.699213 
L 86.181949 298.062987 
L 86.506929 297.88126 
L 86.831908 298.634976 
L 87.156888 297.573961 
L 87.481867 298.514357 
L 87.806847 297.915938 
L 88.131826 298.826049 
L 88.456806 297.190366 
L 88.781785 297.170989 
L 89.106765 297.576978 
L 89.756724 297.390095 
L 90.406683 297.737875 
L 90.731663 298.475541 
L 91.056642 297.394258 
L 91.381622 298.200229 
L 91.706601 298.63238 
L 92.35656 298.352675 
L 92.68154 298.562218 
L 93.006519 297.155877 
L 93.656478 298.442893 
L 93.981458 297.685426 
L 94.631417 297.382862 
L 95.281376 298.880437 
L 95.606355 298.586776 
L 95.931335 297.435975 
L 96.581294 298.6893 
L 96.906274 298.517667 
L 97.231253 299.038246 
L 97.556233 298.195499 
L 97.881212 298.468302 
L 98.206192 298.315036 
L 98.531171 298.898956 
L 98.856151 299.023644 
L 99.18113 299.656838 
L 99.50611 299.657551 
L 99.831089 298.842675 
L 100.156069 300.128844 
L 100.481048 299.207141 
L 100.806028 299.216848 
L 101.131007 300.264363 
L 101.455987 299.934863 
L 101.780966 298.971611 
L 102.105946 300.229888 
L 102.430925 300.753138 
L 102.755905 300.47899 
L 103.080885 300.813851 
L 103.405864 300.624387 
L 103.730844 299.804727 
L 104.055823 299.712311 
L 104.380803 301.132907 
L 104.705782 300.415462 
L 105.030762 301.001255 
L 105.355741 299.943911 
L 105.680721 300.326782 
L 106.0057 301.757449 
L 106.33068 301.650817 
L 106.655659 301.394795 
L 106.980639 300.844412 
L 107.305618 300.82556 
L 107.955577 301.207799 
L 108.280557 301.320647 
L 108.605536 302.06786 
L 108.930516 300.698261 
L 109.255495 301.004471 
L 109.580475 302.156437 
L 110.230434 301.363516 
L 110.555414 302.566596 
L 110.880393 301.401393 
L 111.205373 301.377723 
L 111.530352 302.588138 
L 111.855332 302.66914 
L 112.180311 301.092046 
L 112.83027 302.504184 
L 113.15525 301.241173 
L 113.480229 301.332445 
L 114.130188 302.105701 
L 114.780147 301.847861 
L 115.105127 302.20925 
L 115.430106 301.629575 
L 116.080066 302.402134 
L 116.405045 301.59444 
L 116.730025 301.684338 
L 117.379984 301.119726 
L 117.704963 302.144918 
L 118.029943 301.192609 
L 118.354922 300.965733 
L 118.679902 301.747951 
L 119.004881 300.771383 
L 119.329861 301.070543 
L 119.65484 300.754397 
L 119.97982 301.532042 
L 120.629779 301.089297 
L 120.954758 301.374479 
L 121.279738 300.531993 
L 121.604717 300.693976 
L 121.929697 299.543402 
L 122.254676 299.661255 
L 122.579656 299.56842 
L 122.904636 300.295892 
L 123.229615 299.299011 
L 123.554595 299.041978 
L 123.879574 300.299871 
L 124.204554 299.621435 
L 124.529533 300.033519 
L 124.854513 299.485839 
L 125.179492 298.356673 
L 125.504472 299.494787 
L 125.829451 298.92938 
L 126.47941 298.870839 
L 126.80439 298.218802 
L 127.129369 297.904016 
L 127.454349 298.610993 
L 127.779328 298.48113 
L 128.104308 297.335805 
L 128.429287 298.161647 
L 128.754267 297.304785 
L 129.079247 297.604794 
L 129.729206 297.802972 
L 130.054185 296.676153 
L 130.379165 297.416489 
L 130.704144 297.129756 
L 131.029124 297.185551 
L 131.354103 296.260067 
L 131.679083 297.19213 
L 132.004062 296.351955 
L 132.329042 296.767669 
L 132.654021 296.847787 
L 132.979001 295.785552 
L 133.62896 296.506743 
L 133.953939 296.344727 
L 134.278919 295.149052 
L 134.603898 295.145212 
L 134.928878 294.572494 
L 135.253857 294.916359 
L 135.578837 294.314393 
L 135.903817 295.47716 
L 136.228796 294.319876 
L 136.553776 295.22598 
L 137.528714 294.369628 
L 137.853694 294.575866 
L 138.178673 294.647089 
L 138.503653 294.453728 
L 138.828632 293.705667 
L 139.153612 293.97943 
L 139.478591 293.70453 
L 140.12855 294.526583 
L 140.45353 293.322208 
L 140.778509 294.408681 
L 141.428468 294.43604 
L 141.753448 294.767986 
L 142.078428 293.279118 
L 142.728387 293.415055 
L 143.053366 294.317871 
L 143.378346 294.023494 
L 144.028305 294.878607 
L 144.353284 294.468988 
L 144.678264 294.65595 
L 145.328223 293.406706 
L 145.653202 294.31744 
L 145.978182 294.089198 
L 146.303161 294.523426 
L 146.628141 294.1117 
L 146.95312 294.552299 
L 147.603079 294.542274 
L 147.928059 295.343662 
L 148.253038 295.457708 
L 148.578018 294.376626 
L 148.902998 293.983557 
L 149.227977 294.149642 
L 149.552957 295.024915 
L 149.877936 295.046669 
L 150.202916 294.666322 
L 150.527895 294.623618 
L 150.852875 295.715427 
L 151.177854 295.937786 
L 151.502834 294.648159 
L 152.152793 296.269682 
L 152.477772 295.337119 
L 152.802752 295.158487 
L 153.127731 295.915788 
L 153.452711 296.082239 
L 153.77769 295.305498 
L 154.10267 295.222719 
L 154.752629 296.627229 
L 155.077609 296.165472 
L 155.402588 295.92254 
L 155.727568 296.643819 
L 156.052547 296.035978 
L 156.377527 297.039777 
L 156.702506 296.68337 
L 157.352465 297.564897 
L 157.677445 297.486411 
L 158.002424 296.467809 
L 158.327404 297.557194 
L 158.652383 296.41758 
L 158.977363 297.995047 
L 159.952301 296.854299 
L 160.277281 297.649921 
L 160.60226 296.912429 
L 161.577199 298.467732 
L 161.902179 297.852355 
L 162.227158 297.633579 
L 162.552138 297.553871 
L 162.877117 297.0916 
L 163.202097 297.222985 
L 163.527076 298.153363 
L 163.852056 297.144908 
L 164.177035 298.641958 
L 164.502015 297.962559 
L 164.826994 297.020577 
L 165.151974 298.483041 
L 165.476953 297.480554 
L 165.801933 297.369644 
L 166.126912 298.006584 
L 166.776871 296.821762 
L 167.101851 297.724355 
L 167.42683 297.492865 
L 167.75181 296.699145 
L 168.07679 297.168866 
L 168.401769 296.979232 
L 168.726749 298.146104 
L 169.051728 297.237283 
L 169.376708 297.878355 
L 169.701687 296.925798 
L 170.026667 296.956238 
L 170.351646 297.469141 
L 170.676626 297.570973 
L 171.001605 296.996886 
L 171.326585 297.270283 
L 171.651564 296.318972 
L 171.976544 296.621957 
L 172.301523 295.885984 
L 172.626503 295.614202 
L 172.951482 295.74371 
L 173.276462 296.358389 
L 173.601441 296.348423 
L 173.926421 295.93237 
L 174.2514 295.232375 
L 174.57638 295.92108 
L 174.90136 295.932626 
L 175.226339 294.818348 
L 175.551319 294.82165 
L 175.876298 294.440343 
L 176.201278 293.734575 
L 176.526257 293.394336 
L 176.851237 294.003724 
L 177.176216 293.152979 
L 177.501196 293.951099 
L 177.826175 293.736061 
L 178.151155 292.851281 
L 178.476134 293.606306 
L 179.126093 292.99394 
L 179.451073 293.261416 
L 179.776052 292.248625 
L 180.101032 291.745206 
L 180.426011 291.684235 
L 180.750991 291.396644 
L 181.075971 292.318354 
L 181.40095 290.818656 
L 181.72593 290.379038 
L 182.050909 290.744314 
L 182.375889 291.504319 
L 182.700868 291.033514 
L 183.025848 291.010498 
L 183.350827 289.784588 
L 183.675807 290.254057 
L 184.000786 290.015979 
L 184.325766 289.438441 
L 184.975725 289.075741 
L 185.300704 289.277868 
L 185.625684 288.351595 
L 185.950663 289.046978 
L 186.275643 288.672122 
L 186.600622 287.749062 
L 186.925602 288.317127 
L 187.250581 288.472375 
L 187.900541 287.538432 
L 188.22552 287.194471 
L 188.5505 286.140647 
L 188.875479 286.709417 
L 189.200459 285.78345 
L 189.525438 285.803691 
L 189.850418 287.118649 
L 190.825356 285.102349 
L 191.150336 285.499879 
L 191.475315 284.741334 
L 191.800295 285.509049 
L 192.125274 285.918794 
L 192.450254 285.688322 
L 192.775233 284.674831 
L 193.100213 285.026696 
L 193.425192 284.884141 
L 193.750172 284.035539 
L 194.075152 284.83763 
L 194.400131 284.02125 
L 194.725111 283.845571 
L 195.37507 285.007653 
L 195.700049 283.477091 
L 196.025029 284.07735 
L 196.350008 283.661151 
L 196.674988 284.894125 
L 196.999967 284.116219 
L 197.324947 284.738123 
L 197.649926 283.597035 
L 197.974906 283.887169 
L 198.299885 283.91501 
L 198.624865 284.233919 
L 198.949844 283.795545 
L 199.274824 284.028941 
L 199.599803 283.149751 
L 199.924783 283.884257 
L 200.249762 283.729256 
L 200.574742 284.158023 
L 200.899722 284.137466 
L 201.549681 284.339593 
L 201.87466 284.179168 
L 202.19964 283.693966 
L 202.849599 283.964101 
L 203.174578 284.231665 
L 203.499558 284.338176 
L 203.824537 283.490606 
L 204.149517 283.325381 
L 204.474496 284.503304 
L 204.799476 283.432397 
L 205.124455 284.050656 
L 205.449435 283.993015 
L 205.774414 284.212561 
L 206.099394 283.851909 
L 206.424373 285.124551 
L 206.749353 284.198555 
L 207.074333 284.655546 
L 207.399312 284.718618 
L 207.724292 285.207416 
L 208.049271 284.211948 
L 208.374251 285.687096 
L 208.69923 285.248491 
L 209.02421 285.812316 
L 209.674169 284.874697 
L 209.999148 286.03977 
L 210.324128 284.998328 
L 210.649107 284.868355 
L 210.974087 285.938181 
L 211.299066 285.584272 
L 211.624046 285.849323 
L 211.949025 286.724576 
L 212.274005 285.426955 
L 212.598984 285.76559 
L 212.923964 286.941321 
L 213.248943 285.681091 
L 213.573923 285.65869 
L 213.898903 286.911005 
L 214.223882 287.234607 
L 214.548862 286.308221 
L 214.873841 286.557901 
L 215.198821 285.859759 
L 215.5238 286.155634 
L 215.84878 286.273935 
L 216.173759 287.330242 
L 216.498739 286.958742 
L 216.823718 286.369293 
L 217.148698 286.937054 
L 217.473677 286.407327 
L 217.798657 287.059692 
L 218.448616 287.303928 
L 218.773595 287.366714 
L 219.098575 287.666173 
L 219.423554 286.623353 
L 219.748534 287.925609 
L 220.073514 286.416694 
L 220.398493 286.513137 
L 220.723473 287.627234 
L 221.048452 287.107223 
L 221.373432 287.371407 
L 221.698411 286.755627 
L 222.023391 287.265566 
L 222.34837 286.686381 
L 222.67335 287.213303 
L 222.998329 286.87534 
L 223.323309 287.379234 
L 223.648288 287.049993 
L 223.973268 287.105165 
L 224.298247 286.075602 
L 224.623227 286.829355 
L 224.948206 286.041878 
L 225.273186 286.181012 
L 225.598165 287.077666 
L 225.923145 286.990824 
L 226.573104 285.601976 
L 226.898084 287.156194 
L 227.223063 285.444332 
L 227.548043 286.618678 
L 227.873022 285.854516 
L 228.198002 286.34159 
L 228.522981 285.985679 
L 228.847961 285.040381 
L 229.17294 285.652828 
L 229.49792 284.76457 
L 229.822899 286.063809 
L 230.147879 285.871445 
L 230.472858 285.38304 
L 230.797838 285.648782 
L 231.122817 284.488677 
L 231.447797 285.578117 
L 231.772776 283.977911 
L 232.097756 284.903162 
L 232.422735 284.833034 
L 232.747715 283.939993 
L 233.072695 284.66804 
L 233.397674 284.114224 
L 233.722654 284.507459 
L 234.047633 284.063975 
L 234.372613 283.320755 
L 234.697592 283.106038 
L 235.022572 283.168887 
L 235.347551 283.572191 
L 235.672531 282.370059 
L 235.99751 283.627235 
L 236.32249 283.1935 
L 236.647469 282.509696 
L 236.972449 282.609367 
L 237.297428 282.124143 
L 237.622408 281.843482 
L 237.947387 281.738639 
L 238.272367 281.18997 
L 238.597346 282.258197 
L 238.922326 281.444786 
L 239.247305 281.56491 
L 239.572285 280.679319 
L 239.897265 280.334501 
L 240.222244 281.584477 
L 240.547224 281.276118 
L 240.872203 281.522914 
L 241.197183 280.304814 
L 241.522162 280.4889 
L 241.847142 280.279097 
L 242.497101 279.308178 
L 242.82208 279.834399 
L 243.14706 279.136303 
L 243.472039 279.858135 
L 243.797019 279.885644 
L 244.121998 279.392262 
L 244.446978 279.318402 
L 244.771957 279.743542 
L 245.421916 278.345807 
L 245.746896 279.79677 
L 246.071876 278.275802 
L 246.396855 279.239985 
L 246.721835 278.455544 
L 247.046814 279.113251 
L 247.371794 279.475843 
L 247.696773 278.140557 
L 248.021753 277.837199 
L 248.346732 278.359266 
L 248.671712 277.732262 
L 249.321671 278.36177 
L 249.64665 279.028003 
L 249.97163 278.90003 
L 250.296609 277.943592 
L 250.946568 278.420896 
L 251.271548 278.259356 
L 251.596527 277.919269 
L 251.921507 278.572201 
L 252.246486 277.416602 
L 252.571466 277.922226 
L 252.896446 278.095774 
L 253.221425 278.841117 
L 253.546405 277.791622 
L 253.871384 278.54653 
L 254.521343 277.774979 
L 254.846323 277.705701 
L 255.171302 278.539669 
L 255.496282 277.895704 
L 255.821261 279.09364 
L 256.146241 278.512223 
L 256.47122 278.201995 
L 256.7962 278.34595 
L 257.121179 277.887814 
L 257.446159 279.307692 
L 257.771138 279.21754 
L 258.096118 278.167585 
L 258.421097 279.638888 
L 258.746077 279.521211 
L 259.071057 279.213129 
L 259.396036 278.567724 
L 260.045995 279.623502 
L 260.370975 278.54075 
L 260.695954 279.663813 
L 261.020934 279.71202 
L 261.345913 279.576389 
L 261.670893 278.949332 
L 261.995872 280.021945 
L 262.320852 280.398898 
L 262.645831 280.206504 
L 262.970811 279.142261 
L 263.29579 280.498673 
L 263.62077 280.660688 
L 263.945749 280.02408 
L 264.270729 279.819194 
L 264.595708 280.605158 
L 264.920688 280.027725 
L 265.245667 280.321888 
L 265.570647 280.939501 
L 265.895627 280.832283 
L 266.545586 281.521409 
L 266.870565 280.672553 
L 267.195545 280.372393 
L 267.520524 280.518653 
L 267.845504 281.011992 
L 268.170483 281.835187 
L 268.495463 281.262063 
L 269.145422 281.067458 
L 269.470401 280.323683 
L 269.795381 281.649189 
L 270.12036 281.485304 
L 270.44534 281.743118 
L 270.770319 281.650624 
L 271.420278 281.86388 
L 271.745258 281.728968 
L 272.070238 281.430951 
L 272.395217 281.837103 
L 273.045176 281.166801 
L 273.370156 280.366109 
L 273.695135 281.62902 
L 274.020115 281.573753 
L 274.345094 280.904 
L 274.670074 281.196284 
L 274.995053 280.684306 
L 275.320033 281.683932 
L 275.645012 281.146453 
L 275.969992 281.095921 
L 276.294971 281.482941 
L 276.619951 280.91854 
L 276.94493 280.610619 
L 277.26991 281.298906 
L 277.594889 280.032581 
L 277.919869 280.004735 
L 278.244848 279.812108 
L 278.569828 279.322301 
L 278.894808 279.85555 
L 279.219787 279.559991 
L 279.544767 280.285029 
L 279.869746 279.807191 
L 280.194726 279.94371 
L 280.519705 279.165559 
L 280.844685 279.383249 
L 281.169664 278.598731 
L 281.494644 278.322186 
L 281.819623 278.547586 
L 282.144603 278.968718 
L 282.469582 278.358984 
L 282.794562 278.500208 
L 283.119541 277.658705 
L 283.444521 278.481537 
L 283.7695 277.106504 
L 284.09448 276.966555 
L 284.744439 278.052025 
L 285.069419 276.467891 
L 285.394398 277.008103 
L 285.719378 277.02949 
L 286.044357 275.656911 
L 286.369337 276.585643 
L 286.694316 275.461093 
L 287.019296 276.078814 
L 287.344275 276.399606 
L 287.669255 275.521778 
L 287.994234 275.851955 
L 288.644193 275.164952 
L 288.969173 274.093968 
L 289.294152 274.750275 
L 289.619132 274.224605 
L 289.944111 274.242744 
L 290.269091 273.559106 
L 290.59407 273.862591 
L 290.91905 272.383198 
L 291.244029 272.628095 
L 291.569009 273.060866 
L 291.893989 273.155069 
L 292.218968 272.18915 
L 292.543948 273.006674 
L 292.868927 271.325711 
L 293.193907 271.005912 
L 293.518886 271.274963 
L 293.843866 271.941926 
L 294.168845 270.547479 
L 294.493825 271.748412 
L 295.143784 270.032998 
L 295.468763 269.727495 
L 295.793743 269.918307 
L 296.118722 270.242432 
L 296.768681 270.07502 
L 297.093661 269.437176 
L 297.41864 268.443049 
L 297.74362 268.275587 
L 298.0686 269.472551 
L 298.393579 268.82018 
L 298.718559 268.6883 
L 299.043538 267.788387 
L 299.368518 268.257599 
L 299.693497 268.097505 
L 300.018477 268.215511 
L 300.343456 268.157397 
L 300.993415 267.770644 
L 301.318395 266.657411 
L 301.643374 266.805165 
L 301.968354 267.754371 
L 302.293333 266.679097 
L 302.618313 266.766868 
L 302.943292 266.550376 
L 303.268272 267.549827 
L 303.918231 267.375395 
L 304.24321 266.08258 
L 304.56819 267.122859 
L 304.89317 266.729088 
L 305.218149 266.723292 
L 305.868108 265.81739 
L 306.193088 266.826007 
L 306.518067 265.71415 
L 306.843047 265.534678 
L 307.493006 266.498093 
L 307.817985 265.257217 
L 308.142965 265.483167 
L 308.467944 266.798059 
L 308.792924 265.467102 
L 309.117903 266.683648 
L 309.442883 266.770017 
L 309.767862 265.75932 
L 310.092842 266.341501 
L 310.417821 266.050922 
L 310.742801 265.349181 
L 311.067781 265.534339 
L 311.39276 266.015248 
L 311.71774 265.496892 
L 312.042719 265.559664 
L 312.367699 266.21032 
L 313.017658 265.441324 
L 313.342637 266.934527 
L 313.667617 266.466254 
L 313.992596 266.872935 
L 314.317576 266.714841 
L 314.642555 265.701391 
L 314.967535 267.158152 
L 315.292514 267.110083 
L 315.942473 266.749495 
L 316.267453 266.02819 
L 316.592432 267.061798 
L 316.917412 266.804778 
L 317.242391 267.211028 
L 317.567371 266.840652 
L 317.892351 267.587006 
L 318.21733 266.983483 
L 318.54231 266.701908 
L 319.192269 267.744438 
L 319.517248 267.934034 
L 319.842228 267.852832 
L 320.167207 267.259692 
L 320.492187 266.973308 
L 320.817166 268.075207 
L 321.142146 268.676383 
L 321.467125 268.685271 
L 322.117084 268.899127 
L 322.442064 267.746821 
L 322.767043 268.78464 
L 323.092023 267.561669 
L 323.417002 268.73376 
L 324.391941 267.712316 
L 324.716921 269.274719 
L 325.0419 268.597287 
L 325.36688 268.699056 
L 325.691859 269.142733 
L 326.341818 268.495762 
L 326.666798 269.3814 
L 326.991777 269.124056 
L 327.641736 268.048689 
L 327.966716 268.415501 
L 328.291695 269.01417 
L 328.616675 268.868942 
L 328.941654 269.166924 
L 329.591613 268.707731 
L 329.916593 267.977422 
L 330.241572 269.361323 
L 330.566552 267.831923 
L 330.891532 268.524661 
L 331.216511 267.670558 
L 331.541491 269.072796 
L 331.86647 268.374064 
L 332.19145 268.678558 
L 332.516429 267.791526 
L 332.841409 268.643522 
L 333.166388 267.352504 
L 333.491368 268.053561 
L 333.816347 267.375492 
L 334.141327 267.138628 
L 334.466306 267.808216 
L 334.791286 267.13779 
L 335.116265 266.833578 
L 335.441245 268.002286 
L 335.766224 266.569972 
L 336.091204 267.173579 
L 336.416183 267.520155 
L 336.741163 267.165215 
L 337.066143 267.206868 
L 337.391122 266.666041 
L 337.716102 266.641994 
L 338.366061 265.953272 
L 338.69104 267.014079 
L 339.01602 266.855426 
L 339.340999 265.77934 
L 339.665979 266.110504 
L 339.990958 264.92371 
L 340.315938 266.170462 
L 340.965897 265.11016 
L 341.290876 265.73726 
L 341.940835 264.255291 
L 342.590794 264.761881 
L 342.915774 264.051494 
L 343.240753 264.072344 
L 343.565733 263.238241 
L 343.890713 264.662284 
L 344.215692 263.38554 
L 344.540672 264.160831 
L 344.865651 263.816133 
L 345.190631 262.655724 
L 345.51561 263.867214 
L 345.84059 262.43881 
L 346.490549 263.480165 
L 346.815528 261.883336 
L 347.140508 263.080671 
L 347.465487 261.641709 
L 347.790467 262.185438 
L 348.440426 261.707632 
L 348.765405 261.113789 
L 349.090385 261.289803 
L 349.415364 261.752384 
L 349.740344 261.699256 
L 350.390303 260.262725 
L 350.715283 260.610961 
L 351.040262 260.274694 
L 351.365242 260.704308 
L 351.690221 260.317252 
L 352.015201 259.601649 
L 352.34018 260.578408 
L 352.66516 260.651321 
L 352.990139 260.152069 
L 353.315119 259.870233 
L 353.640098 260.097694 
L 353.965078 259.677708 
L 354.290057 260.219188 
L 354.615037 260.236535 
L 354.940016 258.50262 
L 355.264996 259.017207 
L 355.914955 259.367183 
L 356.239934 259.554805 
L 356.564914 258.351341 
L 356.889894 258.144344 
L 357.214873 258.696929 
L 357.539853 259.559937 
L 357.864832 259.190778 
L 358.189812 258.578155 
L 358.514791 259.227891 
L 358.839771 258.182412 
L 359.16475 258.943572 
L 359.48973 259.342678 
L 360.139689 259.315638 
L 360.464668 258.338695 
L 360.789648 259.424652 
L 361.764586 258.347777 
L 362.089566 258.510307 
L 362.414545 259.019922 
L 362.739525 258.487447 
L 363.064505 258.991659 
L 363.389484 258.396233 
L 363.714464 258.986332 
L 364.039443 257.948941 
L 364.364423 258.040959 
L 364.689402 259.329148 
L 365.014382 258.099017 
L 365.339361 259.181769 
L 365.664341 259.630171 
L 365.98932 258.172347 
L 366.3143 258.98857 
L 366.639279 259.179167 
L 366.964259 259.901737 
L 367.289238 258.661283 
L 367.614218 259.493135 
L 367.939197 258.627857 
L 368.264177 260.059055 
L 368.914136 258.907416 
L 369.239115 259.588016 
L 369.564095 259.335705 
L 369.889075 259.639469 
L 370.214054 260.616566 
L 370.864013 260.094003 
L 371.188993 260.391528 
L 371.513972 260.371846 
L 371.838952 260.526003 
L 372.163931 259.890648 
L 372.488911 259.541912 
L 372.81389 261.022812 
L 373.13887 260.788891 
L 373.463849 260.894183 
L 373.788829 260.126489 
L 374.438788 260.630768 
L 374.763767 259.912901 
L 375.413726 261.496616 
L 375.738706 260.844408 
L 376.063686 261.137583 
L 376.388665 260.892316 
L 377.038624 261.211551 
L 377.363604 260.771713 
L 377.688583 260.722576 
L 378.013563 260.171458 
L 378.338542 260.166157 
L 378.663522 261.275604 
L 378.988501 260.368296 
L 379.313481 260.412391 
L 379.63846 261.058472 
L 379.96344 261.417297 
L 380.613399 260.918703 
L 380.938378 260.238612 
L 381.263358 260.709605 
L 381.588337 261.488 
L 381.913317 260.983875 
L 382.563276 261.140999 
L 382.888256 260.786098 
L 383.213235 260.252468 
L 383.538215 260.970366 
L 383.863194 259.736623 
L 384.188174 261.085497 
L 384.513153 260.292819 
L 384.838133 259.981423 
L 385.163112 259.339791 
L 385.813071 260.294854 
L 386.138051 260.367586 
L 386.46303 259.430194 
L 386.78801 260.364616 
L 387.112989 259.459314 
L 387.437969 259.370832 
L 387.762948 259.890667 
L 388.087928 259.354815 
L 388.412907 258.529762 
L 388.737887 259.108863 
L 389.062867 258.776978 
L 389.712826 257.481813 
L 390.037805 257.719329 
L 390.362785 257.359912 
L 390.687764 257.956542 
L 391.012744 257.876071 
L 391.662703 257.045785 
L 391.987682 257.280409 
L 392.312662 256.463816 
L 392.637641 257.250406 
L 392.962621 256.458601 
L 393.2876 256.998298 
L 393.61258 255.239603 
L 393.937559 256.480423 
L 394.262539 255.828771 
L 394.587518 255.462263 
L 394.912498 255.489176 
L 395.237477 254.264509 
L 395.562457 254.83446 
L 395.887437 254.931482 
L 396.212416 254.151708 
L 396.537396 254.461499 
L 396.862375 254.248471 
L 397.187355 254.277907 
L 397.512334 254.057571 
L 397.837314 252.901905 
L 398.162293 252.36313 
L 398.487273 252.649693 
L 398.487273 252.649693 
" clip-path="url(#pc666207e96)" style="fill: none; stroke: #1f77b4; stroke-width: 1.5; stroke-linecap: square"/>
   </g>
   <g id="patch_18">
    <path d="M 57.6 307.584 
L 57.6 249.733565 
" style="fill: none; stroke: #000000; stroke-width: 0.8; stroke-linejoin: miter; stroke-linecap: square"/>
   </g>
   <g id="patch_19">
    <path d="M 414.72 307.584 
L 414.72 249.733565 
" style="fill: none; stroke: #000000; stroke-width: 0.8; stroke-linejoin: miter; stroke-linecap: square"/>
   </g>
   <g id="patch_20">
    <path d="M 57.6 307.584 
L 414.72 307.584 
" style="fill: none; stroke: #000000; stroke-width: 0.8; stroke-linejoin: miter; stroke-linecap: square"/>
   </g>
   <g id="patch_21">
    <path d="M 57.6 249.733565 
L 414.72 249.733565 
" style="fill: none; stroke: #000000; stroke-width: 0.8; stroke-linejoin: miter; stroke-linecap: square"/>
   </g>
   <g id="text_39">
    <!-- Serie timp -->
    <g transform="translate(205.254375 243.733565) scale(0.12 -0.12)">
     <defs>
      <path id="DejaVuSans-70" d="M 1159 525 
L 1159 -1331 
L 581 -1331 
L 581 3500 
L 1159 3500 
L 1159 2969 
Q 1341 3281 1617 3432 
Q 1894 3584 2278 3584 
Q 2916 3584 3314 3078 
Q 3713 2572 3713 1747 
Q 3713 922 3314 415 
Q 2916 -91 2278 -91 
Q 1894 -91 1617 61 
Q 1341 213 1159 525 
z
M 3116 1747 
Q 3116 2381 2855 2742 
Q 2594 3103 2138 3103 
Q 1681 3103 1420 2742 
Q 1159 2381 1159 1747 
Q 1159 1113 1420 752 
Q 1681 391 2138 391 
Q 2594 391 2855 752 
Q 3116 1113 3116 1747 
z
" transform="scale(0.015625)"/>
     </defs>
     <use xlink:href="#DejaVuSans-53"/>
     <use xlink:href="#DejaVuSans-65" x="63.476562"/>
     <use xlink:href="#DejaVuSans-72" x="125"/>
     <use xlink:href="#DejaVuSans-69" x="166.113281"/>
     <use xlink:href="#DejaVuSans-65" x="193.896484"/>
     <use xlink:href="#DejaVuSans-20" x="255.419922"/>
     <use xlink:href="#DejaVuSans-74" x="287.207031"/>
     <use xlink:href="#DejaVuSans-69" x="326.416016"/>
     <use xlink:href="#DejaVuSans-6d" x="354.199219"/>
     <use xlink:href="#DejaVuSans-70" x="451.611328"/>
    </g>
   </g>
  </g>
 </g>
 <defs>
  <clipPath id="p5f2468b3ae">
   <rect x="57.6" y="41.472" width="357.12" height="57.850435"/>
  </clipPath>
  <clipPath id="p0987426a22">
   <rect x="57.6" y="110.892522" width="357.12" height="57.850435"/>
  </clipPath>
  <clipPath id="pf73c2d3c61">
   <rect x="57.6" y="180.313043" width="357.12" height="57.850435"/>
  </clipPath>
  <clipPath id="pc666207e96">
   <rect x="57.6" y="249.733565" width="357.12" height="57.850435"/>
  </clipPath>
 </defs>
</svg>
