<?xml version="1.0" encoding="utf-8" standalone="no"?>
<!DOCTYPE svg PUBLIC "-//W3C//DTD SVG 1.1//EN"
  "http://www.w3.org/Graphics/SVG/1.1/DTD/svg11.dtd">
<svg xmlns:xlink="http://www.w3.org/1999/xlink" width="460.8pt" height="345.6pt" viewBox="0 0 460.8 345.6" xmlns="http://www.w3.org/2000/svg" version="1.1">
 <metadata>
  <rdf:RDF xmlns:dc="http://purl.org/dc/elements/1.1/" xmlns:cc="http://creativecommons.org/ns#" xmlns:rdf="http://www.w3.org/1999/02/22-rdf-syntax-ns#">
   <cc:Work>
    <dc:type rdf:resource="http://purl.org/dc/dcmitype/StillImage"/>
    <dc:date>2024-11-28T17:15:33.982202</dc:date>
    <dc:format>image/svg+xml</dc:format>
    <dc:creator>
     <cc:Agent>
      <dc:title>Matplotlib v3.9.2, https://matplotlib.org/</dc:title>
     </cc:Agent>
    </dc:creator>
   </cc:Work>
  </rdf:RDF>
 </metadata>
 <defs>
  <style type="text/css">*{stroke-linejoin: round; stroke-linecap: butt}</style>
 </defs>
 <g id="figure_1">
  <g id="patch_1">
   <path d="M 0 345.6 
L 460.8 345.6 
L 460.8 0 
L 0 0 
z
" style="fill: #ffffff"/>
  </g>
  <g id="axes_1">
   <g id="patch_2">
    <path d="M 57.6 162.432 
L 414.72 162.432 
L 414.72 41.472 
L 57.6 41.472 
z
" style="fill: #ffffff"/>
   </g>
   <g id="matplotlib.axis_1">
    <g id="xtick_1">
     <g id="line2d_1">
      <defs>
       <path id="m8147cd32a8" d="M 0 0 
L 0 3.5 
" style="stroke: #000000; stroke-width: 0.8"/>
      </defs>
      <g>
       <use xlink:href="#m8147cd32a8" x="73.832727" y="162.432" style="stroke: #000000; stroke-width: 0.8"/>
      </g>
     </g>
     <g id="text_1">
      <!-- 0 -->
      <g transform="translate(70.651477 177.030437) scale(0.1 -0.1)">
       <defs>
        <path id="DejaVuSans-30" d="M 2034 4250 
Q 1547 4250 1301 3770 
Q 1056 3291 1056 2328 
Q 1056 1369 1301 889 
Q 1547 409 2034 409 
Q 2525 409 2770 889 
Q 3016 1369 3016 2328 
Q 3016 3291 2770 3770 
Q 2525 4250 2034 4250 
z
M 2034 4750 
Q 2819 4750 3233 4129 
Q 3647 3509 3647 2328 
Q 3647 1150 3233 529 
Q 2819 -91 2034 -91 
Q 1250 -91 836 529 
Q 422 1150 422 2328 
Q 422 3509 836 4129 
Q 1250 4750 2034 4750 
z
" transform="scale(0.015625)"/>
       </defs>
       <use xlink:href="#DejaVuSans-30"/>
      </g>
     </g>
    </g>
    <g id="xtick_2">
     <g id="line2d_2">
      <g>
       <use xlink:href="#m8147cd32a8" x="138.828632" y="162.432" style="stroke: #000000; stroke-width: 0.8"/>
      </g>
     </g>
     <g id="text_2">
      <!-- 200 -->
      <g transform="translate(129.284882 177.030437) scale(0.1 -0.1)">
       <defs>
        <path id="DejaVuSans-32" d="M 1228 531 
L 3431 531 
L 3431 0 
L 469 0 
L 469 531 
Q 828 903 1448 1529 
Q 2069 2156 2228 2338 
Q 2531 2678 2651 2914 
Q 2772 3150 2772 3378 
Q 2772 3750 2511 3984 
Q 2250 4219 1831 4219 
Q 1534 4219 1204 4116 
Q 875 4013 500 3803 
L 500 4441 
Q 881 4594 1212 4672 
Q 1544 4750 1819 4750 
Q 2544 4750 2975 4387 
Q 3406 4025 3406 3419 
Q 3406 3131 3298 2873 
Q 3191 2616 2906 2266 
Q 2828 2175 2409 1742 
Q 1991 1309 1228 531 
z
" transform="scale(0.015625)"/>
       </defs>
       <use xlink:href="#DejaVuSans-32"/>
       <use xlink:href="#DejaVuSans-30" x="63.623047"/>
       <use xlink:href="#DejaVuSans-30" x="127.246094"/>
      </g>
     </g>
    </g>
    <g id="xtick_3">
     <g id="line2d_3">
      <g>
       <use xlink:href="#m8147cd32a8" x="203.824537" y="162.432" style="stroke: #000000; stroke-width: 0.8"/>
      </g>
     </g>
     <g id="text_3">
      <!-- 400 -->
      <g transform="translate(194.280787 177.030437) scale(0.1 -0.1)">
       <defs>
        <path id="DejaVuSans-34" d="M 2419 4116 
L 825 1625 
L 2419 1625 
L 2419 4116 
z
M 2253 4666 
L 3047 4666 
L 3047 1625 
L 3713 1625 
L 3713 1100 
L 3047 1100 
L 3047 0 
L 2419 0 
L 2419 1100 
L 313 1100 
L 313 1709 
L 2253 4666 
z
" transform="scale(0.015625)"/>
       </defs>
       <use xlink:href="#DejaVuSans-34"/>
       <use xlink:href="#DejaVuSans-30" x="63.623047"/>
       <use xlink:href="#DejaVuSans-30" x="127.246094"/>
      </g>
     </g>
    </g>
    <g id="xtick_4">
     <g id="line2d_4">
      <g>
       <use xlink:href="#m8147cd32a8" x="268.820442" y="162.432" style="stroke: #000000; stroke-width: 0.8"/>
      </g>
     </g>
     <g id="text_4">
      <!-- 600 -->
      <g transform="translate(259.276692 177.030437) scale(0.1 -0.1)">
       <defs>
        <path id="DejaVuSans-36" d="M 2113 2584 
Q 1688 2584 1439 2293 
Q 1191 2003 1191 1497 
Q 1191 994 1439 701 
Q 1688 409 2113 409 
Q 2538 409 2786 701 
Q 3034 994 3034 1497 
Q 3034 2003 2786 2293 
Q 2538 2584 2113 2584 
z
M 3366 4563 
L 3366 3988 
Q 3128 4100 2886 4159 
Q 2644 4219 2406 4219 
Q 1781 4219 1451 3797 
Q 1122 3375 1075 2522 
Q 1259 2794 1537 2939 
Q 1816 3084 2150 3084 
Q 2853 3084 3261 2657 
Q 3669 2231 3669 1497 
Q 3669 778 3244 343 
Q 2819 -91 2113 -91 
Q 1303 -91 875 529 
Q 447 1150 447 2328 
Q 447 3434 972 4092 
Q 1497 4750 2381 4750 
Q 2619 4750 2861 4703 
Q 3103 4656 3366 4563 
z
" transform="scale(0.015625)"/>
       </defs>
       <use xlink:href="#DejaVuSans-36"/>
       <use xlink:href="#DejaVuSans-30" x="63.623047"/>
       <use xlink:href="#DejaVuSans-30" x="127.246094"/>
      </g>
     </g>
    </g>
    <g id="xtick_5">
     <g id="line2d_5">
      <g>
       <use xlink:href="#m8147cd32a8" x="333.816347" y="162.432" style="stroke: #000000; stroke-width: 0.8"/>
      </g>
     </g>
     <g id="text_5">
      <!-- 800 -->
      <g transform="translate(324.272597 177.030437) scale(0.1 -0.1)">
       <defs>
        <path id="DejaVuSans-38" d="M 2034 2216 
Q 1584 2216 1326 1975 
Q 1069 1734 1069 1313 
Q 1069 891 1326 650 
Q 1584 409 2034 409 
Q 2484 409 2743 651 
Q 3003 894 3003 1313 
Q 3003 1734 2745 1975 
Q 2488 2216 2034 2216 
z
M 1403 2484 
Q 997 2584 770 2862 
Q 544 3141 544 3541 
Q 544 4100 942 4425 
Q 1341 4750 2034 4750 
Q 2731 4750 3128 4425 
Q 3525 4100 3525 3541 
Q 3525 3141 3298 2862 
Q 3072 2584 2669 2484 
Q 3125 2378 3379 2068 
Q 3634 1759 3634 1313 
Q 3634 634 3220 271 
Q 2806 -91 2034 -91 
Q 1263 -91 848 271 
Q 434 634 434 1313 
Q 434 1759 690 2068 
Q 947 2378 1403 2484 
z
M 1172 3481 
Q 1172 3119 1398 2916 
Q 1625 2713 2034 2713 
Q 2441 2713 2670 2916 
Q 2900 3119 2900 3481 
Q 2900 3844 2670 4047 
Q 2441 4250 2034 4250 
Q 1625 4250 1398 4047 
Q 1172 3844 1172 3481 
z
" transform="scale(0.015625)"/>
       </defs>
       <use xlink:href="#DejaVuSans-38"/>
       <use xlink:href="#DejaVuSans-30" x="63.623047"/>
       <use xlink:href="#DejaVuSans-30" x="127.246094"/>
      </g>
     </g>
    </g>
    <g id="xtick_6">
     <g id="line2d_6">
      <g>
       <use xlink:href="#m8147cd32a8" x="398.812252" y="162.432" style="stroke: #000000; stroke-width: 0.8"/>
      </g>
     </g>
     <g id="text_6">
      <!-- 1000 -->
      <g transform="translate(386.087252 177.030437) scale(0.1 -0.1)">
       <defs>
        <path id="DejaVuSans-31" d="M 794 531 
L 1825 531 
L 1825 4091 
L 703 3866 
L 703 4441 
L 1819 4666 
L 2450 4666 
L 2450 531 
L 3481 531 
L 3481 0 
L 794 0 
L 794 531 
z
" transform="scale(0.015625)"/>
       </defs>
       <use xlink:href="#DejaVuSans-31"/>
       <use xlink:href="#DejaVuSans-30" x="63.623047"/>
       <use xlink:href="#DejaVuSans-30" x="127.246094"/>
       <use xlink:href="#DejaVuSans-30" x="190.869141"/>
      </g>
     </g>
    </g>
    <g id="text_7">
     <!-- Ordin esantion -->
     <g transform="translate(199.443594 190.708562) scale(0.1 -0.1)">
      <defs>
       <path id="DejaVuSans-4f" d="M 2522 4238 
Q 1834 4238 1429 3725 
Q 1025 3213 1025 2328 
Q 1025 1447 1429 934 
Q 1834 422 2522 422 
Q 3209 422 3611 934 
Q 4013 1447 4013 2328 
Q 4013 3213 3611 3725 
Q 3209 4238 2522 4238 
z
M 2522 4750 
Q 3503 4750 4090 4092 
Q 4678 3434 4678 2328 
Q 4678 1225 4090 567 
Q 3503 -91 2522 -91 
Q 1538 -91 948 565 
Q 359 1222 359 2328 
Q 359 3434 948 4092 
Q 1538 4750 2522 4750 
z
" transform="scale(0.015625)"/>
       <path id="DejaVuSans-72" d="M 2631 2963 
Q 2534 3019 2420 3045 
Q 2306 3072 2169 3072 
Q 1681 3072 1420 2755 
Q 1159 2438 1159 1844 
L 1159 0 
L 581 0 
L 581 3500 
L 1159 3500 
L 1159 2956 
Q 1341 3275 1631 3429 
Q 1922 3584 2338 3584 
Q 2397 3584 2469 3576 
Q 2541 3569 2628 3553 
L 2631 2963 
z
" transform="scale(0.015625)"/>
       <path id="DejaVuSans-64" d="M 2906 2969 
L 2906 4863 
L 3481 4863 
L 3481 0 
L 2906 0 
L 2906 525 
Q 2725 213 2448 61 
Q 2172 -91 1784 -91 
Q 1150 -91 751 415 
Q 353 922 353 1747 
Q 353 2572 751 3078 
Q 1150 3584 1784 3584 
Q 2172 3584 2448 3432 
Q 2725 3281 2906 2969 
z
M 947 1747 
Q 947 1113 1208 752 
Q 1469 391 1925 391 
Q 2381 391 2643 752 
Q 2906 1113 2906 1747 
Q 2906 2381 2643 2742 
Q 2381 3103 1925 3103 
Q 1469 3103 1208 2742 
Q 947 2381 947 1747 
z
" transform="scale(0.015625)"/>
       <path id="DejaVuSans-69" d="M 603 3500 
L 1178 3500 
L 1178 0 
L 603 0 
L 603 3500 
z
M 603 4863 
L 1178 4863 
L 1178 4134 
L 603 4134 
L 603 4863 
z
" transform="scale(0.015625)"/>
       <path id="DejaVuSans-6e" d="M 3513 2113 
L 3513 0 
L 2938 0 
L 2938 2094 
Q 2938 2591 2744 2837 
Q 2550 3084 2163 3084 
Q 1697 3084 1428 2787 
Q 1159 2491 1159 1978 
L 1159 0 
L 581 0 
L 581 3500 
L 1159 3500 
L 1159 2956 
Q 1366 3272 1645 3428 
Q 1925 3584 2291 3584 
Q 2894 3584 3203 3211 
Q 3513 2838 3513 2113 
z
" transform="scale(0.015625)"/>
       <path id="DejaVuSans-20" transform="scale(0.015625)"/>
       <path id="DejaVuSans-65" d="M 3597 1894 
L 3597 1613 
L 953 1613 
Q 991 1019 1311 708 
Q 1631 397 2203 397 
Q 2534 397 2845 478 
Q 3156 559 3463 722 
L 3463 178 
Q 3153 47 2828 -22 
Q 2503 -91 2169 -91 
Q 1331 -91 842 396 
Q 353 884 353 1716 
Q 353 2575 817 3079 
Q 1281 3584 2069 3584 
Q 2775 3584 3186 3129 
Q 3597 2675 3597 1894 
z
M 3022 2063 
Q 3016 2534 2758 2815 
Q 2500 3097 2075 3097 
Q 1594 3097 1305 2825 
Q 1016 2553 972 2059 
L 3022 2063 
z
" transform="scale(0.015625)"/>
       <path id="DejaVuSans-73" d="M 2834 3397 
L 2834 2853 
Q 2591 2978 2328 3040 
Q 2066 3103 1784 3103 
Q 1356 3103 1142 2972 
Q 928 2841 928 2578 
Q 928 2378 1081 2264 
Q 1234 2150 1697 2047 
L 1894 2003 
Q 2506 1872 2764 1633 
Q 3022 1394 3022 966 
Q 3022 478 2636 193 
Q 2250 -91 1575 -91 
Q 1294 -91 989 -36 
Q 684 19 347 128 
L 347 722 
Q 666 556 975 473 
Q 1284 391 1588 391 
Q 1994 391 2212 530 
Q 2431 669 2431 922 
Q 2431 1156 2273 1281 
Q 2116 1406 1581 1522 
L 1381 1569 
Q 847 1681 609 1914 
Q 372 2147 372 2553 
Q 372 3047 722 3315 
Q 1072 3584 1716 3584 
Q 2034 3584 2315 3537 
Q 2597 3491 2834 3397 
z
" transform="scale(0.015625)"/>
       <path id="DejaVuSans-61" d="M 2194 1759 
Q 1497 1759 1228 1600 
Q 959 1441 959 1056 
Q 959 750 1161 570 
Q 1363 391 1709 391 
Q 2188 391 2477 730 
Q 2766 1069 2766 1631 
L 2766 1759 
L 2194 1759 
z
M 3341 1997 
L 3341 0 
L 2766 0 
L 2766 531 
Q 2569 213 2275 61 
Q 1981 -91 1556 -91 
Q 1019 -91 701 211 
Q 384 513 384 1019 
Q 384 1609 779 1909 
Q 1175 2209 1959 2209 
L 2766 2209 
L 2766 2266 
Q 2766 2663 2505 2880 
Q 2244 3097 1772 3097 
Q 1472 3097 1187 3025 
Q 903 2953 641 2809 
L 641 3341 
Q 956 3463 1253 3523 
Q 1550 3584 1831 3584 
Q 2591 3584 2966 3190 
Q 3341 2797 3341 1997 
z
" transform="scale(0.015625)"/>
       <path id="DejaVuSans-74" d="M 1172 4494 
L 1172 3500 
L 2356 3500 
L 2356 3053 
L 1172 3053 
L 1172 1153 
Q 1172 725 1289 603 
Q 1406 481 1766 481 
L 2356 481 
L 2356 0 
L 1766 0 
Q 1100 0 847 248 
Q 594 497 594 1153 
L 594 3053 
L 172 3053 
L 172 3500 
L 594 3500 
L 594 4494 
L 1172 4494 
z
" transform="scale(0.015625)"/>
       <path id="DejaVuSans-6f" d="M 1959 3097 
Q 1497 3097 1228 2736 
Q 959 2375 959 1747 
Q 959 1119 1226 758 
Q 1494 397 1959 397 
Q 2419 397 2687 759 
Q 2956 1122 2956 1747 
Q 2956 2369 2687 2733 
Q 2419 3097 1959 3097 
z
M 1959 3584 
Q 2709 3584 3137 3096 
Q 3566 2609 3566 1747 
Q 3566 888 3137 398 
Q 2709 -91 1959 -91 
Q 1206 -91 779 398 
Q 353 888 353 1747 
Q 353 2609 779 3096 
Q 1206 3584 1959 3584 
z
" transform="scale(0.015625)"/>
      </defs>
      <use xlink:href="#DejaVuSans-4f"/>
      <use xlink:href="#DejaVuSans-72" x="78.710938"/>
      <use xlink:href="#DejaVuSans-64" x="118.074219"/>
      <use xlink:href="#DejaVuSans-69" x="181.550781"/>
      <use xlink:href="#DejaVuSans-6e" x="209.333984"/>
      <use xlink:href="#DejaVuSans-20" x="272.712891"/>
      <use xlink:href="#DejaVuSans-65" x="304.5"/>
      <use xlink:href="#DejaVuSans-73" x="366.023438"/>
      <use xlink:href="#DejaVuSans-61" x="418.123047"/>
      <use xlink:href="#DejaVuSans-6e" x="479.402344"/>
      <use xlink:href="#DejaVuSans-74" x="542.78125"/>
      <use xlink:href="#DejaVuSans-69" x="581.990234"/>
      <use xlink:href="#DejaVuSans-6f" x="609.773438"/>
      <use xlink:href="#DejaVuSans-6e" x="670.955078"/>
     </g>
    </g>
   </g>
   <g id="matplotlib.axis_2">
    <g id="ytick_1">
     <g id="line2d_7">
      <defs>
       <path id="m6220b8193e" d="M 0 0 
L -3.5 0 
" style="stroke: #000000; stroke-width: 0.8"/>
      </defs>
      <g>
       <use xlink:href="#m6220b8193e" x="57.6" y="157.955242" style="stroke: #000000; stroke-width: 0.8"/>
      </g>
     </g>
     <g id="text_8">
      <!-- 2 -->
      <g transform="translate(44.2375 161.75446) scale(0.1 -0.1)">
       <use xlink:href="#DejaVuSans-32"/>
      </g>
     </g>
    </g>
    <g id="ytick_2">
     <g id="line2d_8">
      <g>
       <use xlink:href="#m6220b8193e" x="57.6" y="121.888258" style="stroke: #000000; stroke-width: 0.8"/>
      </g>
     </g>
     <g id="text_9">
      <!-- 4 -->
      <g transform="translate(44.2375 125.687477) scale(0.1 -0.1)">
       <use xlink:href="#DejaVuSans-34"/>
      </g>
     </g>
    </g>
    <g id="ytick_3">
     <g id="line2d_9">
      <g>
       <use xlink:href="#m6220b8193e" x="57.6" y="85.821275" style="stroke: #000000; stroke-width: 0.8"/>
      </g>
     </g>
     <g id="text_10">
      <!-- 6 -->
      <g transform="translate(44.2375 89.620494) scale(0.1 -0.1)">
       <use xlink:href="#DejaVuSans-36"/>
      </g>
     </g>
    </g>
    <g id="ytick_4">
     <g id="line2d_10">
      <g>
       <use xlink:href="#m6220b8193e" x="57.6" y="49.754292" style="stroke: #000000; stroke-width: 0.8"/>
      </g>
     </g>
     <g id="text_11">
      <!-- 8 -->
      <g transform="translate(44.2375 53.553511) scale(0.1 -0.1)">
       <use xlink:href="#DejaVuSans-38"/>
      </g>
     </g>
    </g>
    <g id="text_12">
     <!-- Valoare -->
     <g transform="translate(38.157812 120.580906) rotate(-90) scale(0.1 -0.1)">
      <defs>
       <path id="DejaVuSans-56" d="M 1831 0 
L 50 4666 
L 709 4666 
L 2188 738 
L 3669 4666 
L 4325 4666 
L 2547 0 
L 1831 0 
z
" transform="scale(0.015625)"/>
       <path id="DejaVuSans-6c" d="M 603 4863 
L 1178 4863 
L 1178 0 
L 603 0 
L 603 4863 
z
" transform="scale(0.015625)"/>
      </defs>
      <use xlink:href="#DejaVuSans-56"/>
      <use xlink:href="#DejaVuSans-61" x="60.658203"/>
      <use xlink:href="#DejaVuSans-6c" x="121.9375"/>
      <use xlink:href="#DejaVuSans-6f" x="149.720703"/>
      <use xlink:href="#DejaVuSans-61" x="210.902344"/>
      <use xlink:href="#DejaVuSans-72" x="272.181641"/>
      <use xlink:href="#DejaVuSans-65" x="311.044922"/>
     </g>
    </g>
   </g>
   <g id="line2d_11">
    <path d="M 73.832727 155.719467 
L 74.157707 154.392171 
L 74.482686 156.933818 
L 75.132645 154.800605 
L 75.457625 154.712168 
L 75.782604 154.78398 
L 76.107584 154.453357 
L 76.432563 155.462287 
L 76.757543 155.173083 
L 77.082523 153.246623 
L 77.407502 155.119023 
L 77.732482 153.08026 
L 78.057461 154.634039 
L 78.382441 153.20286 
L 78.70742 151.011741 
L 79.0324 153.956739 
L 79.357379 152.496303 
L 79.682359 153.755062 
L 80.007338 152.311887 
L 80.657297 152.633703 
L 80.982277 149.987595 
L 81.307256 149.514995 
L 81.632236 150.15726 
L 81.957215 151.516771 
L 82.282195 149.424552 
L 82.607174 149.739815 
L 82.932154 150.856307 
L 83.257133 148.966114 
L 83.582113 150.029888 
L 83.907093 149.925777 
L 84.232072 148.091933 
L 84.557052 148.78826 
L 84.882031 148.04997 
L 85.207011 148.137784 
L 85.53199 147.940037 
L 85.85697 148.567004 
L 86.181949 150.320896 
L 86.506929 147.226848 
L 86.831908 148.814295 
L 87.156888 147.328254 
L 87.806847 147.815872 
L 88.131826 146.209003 
L 88.456806 149.365355 
L 88.781785 146.404319 
L 89.106765 146.936381 
L 89.431744 149.408264 
L 89.756724 147.105253 
L 90.081704 148.31052 
L 90.406683 147.230158 
L 90.731663 146.939545 
L 91.056642 146.997085 
L 91.381622 146.166572 
L 91.706601 148.953043 
L 92.031581 146.163885 
L 92.35656 147.773944 
L 92.68154 147.811648 
L 93.006519 145.975638 
L 93.331499 147.228245 
L 93.656478 146.952954 
L 93.981458 147.213329 
L 94.306437 148.740759 
L 94.631417 147.912603 
L 94.956396 147.964178 
L 95.606355 146.508524 
L 96.256314 147.962767 
L 96.906274 147.928633 
L 97.231253 149.000527 
L 97.556233 146.808794 
L 97.881212 146.263402 
L 98.531171 146.937358 
L 98.856151 149.504725 
L 99.18113 146.907991 
L 99.50611 147.416935 
L 99.831089 149.009324 
L 100.156069 148.944744 
L 100.481048 146.754793 
L 100.806028 146.548981 
L 101.131007 148.305416 
L 101.455987 147.644531 
L 101.780966 146.691018 
L 102.105946 148.489223 
L 102.430925 149.482379 
L 102.755905 147.768937 
L 103.080885 146.8456 
L 103.405864 150.222791 
L 103.730844 149.224009 
L 104.055823 147.531831 
L 104.380803 148.563146 
L 104.705782 147.818274 
L 105.030762 150.519466 
L 105.355741 150.245778 
L 105.680721 147.142592 
L 106.0057 149.353321 
L 106.33068 150.758777 
L 106.655659 148.375485 
L 106.980639 148.798482 
L 107.305618 147.503866 
L 107.630598 148.684448 
L 107.955577 148.284653 
L 108.280557 149.833072 
L 108.605536 150.004264 
L 108.930516 150.840128 
L 109.255495 150.585224 
L 109.580475 148.558613 
L 109.905455 150.041811 
L 110.230434 148.246599 
L 110.555414 150.642942 
L 110.880393 147.486461 
L 111.205373 149.508032 
L 111.530352 150.65852 
L 112.180311 147.902652 
L 112.505291 148.901417 
L 112.83027 147.471346 
L 113.15525 149.516359 
L 113.480229 150.747635 
L 113.805209 147.72436 
L 114.130188 149.423091 
L 114.455168 148.107672 
L 114.780147 150.619297 
L 115.105127 147.420423 
L 115.755086 149.545687 
L 116.080066 149.975574 
L 116.405045 148.975919 
L 116.730025 149.928497 
L 117.055004 148.792328 
L 117.379984 149.91181 
L 117.704963 147.76738 
L 118.679902 146.273897 
L 119.004881 147.688069 
L 119.329861 145.824973 
L 119.65484 149.110417 
L 120.304799 146.190383 
L 120.629779 146.124728 
L 120.954758 148.296807 
L 121.279738 148.083776 
L 121.604717 146.992405 
L 121.929697 148.106046 
L 122.254676 145.073856 
L 122.579656 146.77993 
L 122.904636 144.755241 
L 123.229615 146.055254 
L 123.554595 145.063019 
L 123.879574 145.855698 
L 124.204554 146.042514 
L 124.529533 146.0778 
L 124.854513 145.883058 
L 125.179492 144.208628 
L 125.504472 144.309433 
L 125.829451 142.820826 
L 126.154431 142.854557 
L 126.80439 144.263108 
L 127.129369 142.883185 
L 127.454349 142.262637 
L 127.779328 142.926468 
L 128.104308 144.513344 
L 128.429287 143.985399 
L 128.754267 144.174537 
L 129.079247 141.103869 
L 129.404226 141.115067 
L 129.729206 143.142716 
L 130.054185 142.992787 
L 130.379165 141.081615 
L 130.704144 142.038825 
L 131.029124 139.776827 
L 131.679083 142.715873 
L 132.004062 142.508206 
L 132.329042 140.987788 
L 132.654021 140.498076 
L 132.979001 139.488109 
L 133.30398 139.70717 
L 133.62896 141.061253 
L 133.953939 140.719776 
L 134.278919 141.467528 
L 134.603898 141.253739 
L 134.928878 139.177886 
L 135.253857 139.397458 
L 135.578837 138.929239 
L 136.228796 138.775675 
L 136.553776 138.661369 
L 136.878755 138.698038 
L 137.203735 139.54619 
L 137.528714 137.02701 
L 137.853694 138.695921 
L 138.178673 137.577117 
L 138.503653 138.127101 
L 138.828632 136.814639 
L 139.153612 139.115289 
L 139.478591 137.229656 
L 139.803571 136.514181 
L 140.12855 137.96297 
L 140.45353 137.657305 
L 140.778509 136.392728 
L 141.103489 137.594823 
L 141.428468 138.360969 
L 141.753448 137.368119 
L 142.078428 138.685834 
L 142.403407 138.148474 
L 142.728387 136.317886 
L 143.053366 136.102843 
L 143.378346 135.488282 
L 143.703325 137.13138 
L 144.028305 138.017746 
L 144.353284 136.595658 
L 144.678264 138.041693 
L 145.003243 136.061162 
L 145.328223 138.472311 
L 145.653202 135.294069 
L 145.978182 138.175919 
L 146.303161 135.552572 
L 146.628141 135.416979 
L 146.95312 136.4592 
L 147.2781 136.051131 
L 147.603079 135.882656 
L 147.928059 138.087287 
L 148.253038 136.122381 
L 148.578018 137.801329 
L 148.902998 136.339894 
L 149.227977 138.535297 
L 149.552957 138.418274 
L 149.877936 138.550346 
L 150.202916 137.040155 
L 150.527895 137.162719 
L 150.852875 137.798119 
L 151.177854 135.479759 
L 151.502834 137.701468 
L 151.827813 136.589125 
L 152.152793 136.157135 
L 152.477772 138.647107 
L 152.802752 137.089983 
L 153.127731 138.952439 
L 153.452711 137.656358 
L 153.77769 137.315068 
L 154.10267 136.288223 
L 154.427649 138.424181 
L 154.752629 139.073302 
L 155.077609 139.397272 
L 155.402588 138.087092 
L 155.727568 137.710447 
L 156.052547 138.818797 
L 156.377527 136.065398 
L 156.702506 139.13203 
L 157.027486 136.884766 
L 157.352465 138.207049 
L 157.677445 136.542143 
L 158.002424 138.026895 
L 158.327404 137.936878 
L 158.652383 136.658853 
L 158.977363 139.45763 
L 159.302342 137.146603 
L 159.627322 137.664858 
L 159.952301 137.028022 
L 160.277281 139.840288 
L 160.60226 138.156867 
L 160.92724 138.456205 
L 161.252219 136.597689 
L 161.577199 137.433357 
L 161.902179 136.641128 
L 162.227158 139.250482 
L 162.552138 136.682608 
L 162.877117 139.657825 
L 163.202097 139.013455 
L 163.527076 139.616845 
L 163.852056 137.101535 
L 164.177035 139.434144 
L 164.502015 136.400544 
L 164.826994 139.554052 
L 165.151974 139.514303 
L 165.476953 136.102075 
L 166.451892 138.13487 
L 166.776871 138.020089 
L 167.101851 138.665274 
L 167.42683 136.862111 
L 167.75181 137.877863 
L 168.07679 138.426932 
L 168.401769 137.897239 
L 168.726749 138.1287 
L 169.701687 135.188509 
L 170.026667 135.559302 
L 170.351646 135.134598 
L 170.676626 137.327021 
L 171.001605 135.467182 
L 171.326585 136.707037 
L 171.651564 134.288786 
L 171.976544 136.818838 
L 172.301523 133.948224 
L 172.626503 134.925931 
L 172.951482 135.085745 
L 173.276462 136.216999 
L 173.601441 134.344989 
L 173.926421 135.274937 
L 174.2514 134.360146 
L 174.57638 132.078869 
L 174.90136 135.22836 
L 175.226339 133.70718 
L 175.551319 134.444066 
L 176.201278 130.887327 
L 176.526257 133.23167 
L 176.851237 133.663073 
L 177.176216 133.555348 
L 177.501196 129.939527 
L 177.826175 132.616879 
L 178.151155 132.364493 
L 178.476134 131.306851 
L 178.801114 129.155079 
L 179.126093 131.549841 
L 179.451073 130.876973 
L 179.776052 129.063357 
L 180.101032 129.621108 
L 180.426011 130.523075 
L 180.750991 129.935016 
L 181.075971 127.974954 
L 181.40095 129.074427 
L 181.72593 128.31039 
L 182.050909 126.341037 
L 182.375889 127.225663 
L 182.700868 127.21047 
L 183.025848 127.526941 
L 183.350827 126.050942 
L 183.675807 128.262124 
L 184.000786 124.969662 
L 184.325766 124.990677 
L 184.975725 127.284117 
L 185.300704 125.309893 
L 185.625684 124.264458 
L 185.950663 125.984425 
L 186.275643 125.585064 
L 186.600622 123.154452 
L 186.925602 125.051922 
L 187.250581 122.381038 
L 187.575561 122.382995 
L 187.900541 124.096112 
L 188.22552 124.440648 
L 188.5505 122.391227 
L 188.875479 121.54705 
L 189.200459 121.637364 
L 189.525438 120.642194 
L 189.850418 123.802079 
L 190.175397 123.275789 
L 190.500377 123.484945 
L 190.825356 122.033462 
L 191.150336 122.717038 
L 191.475315 120.291012 
L 191.800295 120.974688 
L 192.125274 119.893919 
L 192.775233 120.749242 
L 193.100213 120.187434 
L 193.425192 118.831045 
L 193.750172 121.085962 
L 194.075152 121.139695 
L 194.400131 121.369056 
L 194.725111 119.975022 
L 195.05009 118.080901 
L 195.37507 119.427255 
L 195.700049 119.292061 
L 196.025029 120.209573 
L 196.350008 117.784457 
L 196.674988 117.493166 
L 196.999967 119.109405 
L 197.324947 117.770995 
L 197.649926 117.553053 
L 197.974906 117.047749 
L 198.299885 119.17105 
L 198.624865 119.408981 
L 198.949844 116.75197 
L 199.274824 119.361029 
L 199.599803 119.222621 
L 199.924783 117.938623 
L 200.249762 118.914191 
L 200.574742 119.075513 
L 200.899722 117.814454 
L 201.224701 118.79817 
L 201.549681 117.597928 
L 201.87466 117.672131 
L 202.19964 117.526267 
L 202.524619 118.220332 
L 202.849599 118.085279 
L 203.174578 117.481677 
L 203.499558 118.52807 
L 203.824537 117.504328 
L 204.149517 118.031799 
L 204.474496 116.303036 
L 204.799476 116.480564 
L 205.124455 118.126678 
L 205.449435 117.929173 
L 205.774414 118.193505 
L 206.099394 116.655236 
L 206.749353 118.111094 
L 207.074333 117.058789 
L 207.399312 119.195158 
L 207.724292 116.856414 
L 208.049271 117.220165 
L 208.374251 119.481502 
L 208.69923 118.511646 
L 209.02421 118.96041 
L 209.349189 117.869391 
L 209.674169 117.762675 
L 209.999148 118.993007 
L 210.324128 118.708112 
L 210.649107 117.440171 
L 210.974087 119.207626 
L 211.299066 117.309655 
L 211.624046 117.009124 
L 211.949025 119.183035 
L 212.274005 118.643638 
L 212.598984 118.938602 
L 213.248943 117.786839 
L 213.898903 119.728468 
L 214.223882 117.408476 
L 214.548862 118.270961 
L 214.873841 118.534994 
L 215.198821 119.19306 
L 215.5238 116.893924 
L 215.84878 117.968686 
L 216.173759 120.336649 
L 216.498739 118.80619 
L 216.823718 118.265178 
L 217.148698 118.238543 
L 217.473677 118.694827 
L 217.798657 119.77414 
L 218.123636 117.279533 
L 218.448616 118.434036 
L 219.098575 117.276051 
L 219.423554 118.977144 
L 219.748534 119.927617 
L 220.073514 118.252722 
L 220.398493 117.967229 
L 220.723473 116.997856 
L 221.373432 119.66059 
L 222.023391 118.051958 
L 222.34837 117.809835 
L 222.67335 119.17201 
L 222.998329 117.041752 
L 223.323309 115.942256 
L 223.648288 117.528181 
L 223.973268 116.016171 
L 224.298247 118.016537 
L 224.623227 116.055854 
L 224.948206 118.723165 
L 225.273186 115.616593 
L 225.598165 117.075644 
L 225.923145 117.050168 
L 226.248124 116.176783 
L 226.573104 117.667907 
L 226.898084 114.640552 
L 227.548043 116.859305 
L 227.873022 114.47911 
L 228.198002 115.678556 
L 228.522981 113.963533 
L 228.847961 115.043065 
L 229.17294 114.830794 
L 229.49792 113.924194 
L 229.822899 114.411075 
L 230.472858 116.371149 
L 230.797838 114.293566 
L 231.122817 114.187203 
L 231.447797 113.404746 
L 231.772776 112.027071 
L 232.097756 114.363784 
L 232.422735 114.525956 
L 232.747715 113.800195 
L 233.072695 113.514088 
L 233.397674 112.243204 
L 233.722654 113.976899 
L 234.047633 111.981162 
L 234.372613 112.129475 
L 234.697592 110.381754 
L 235.022572 111.366203 
L 235.347551 109.843248 
L 235.672531 113.135818 
L 235.99751 111.981432 
L 236.32249 109.950351 
L 236.647469 109.629849 
L 236.972449 110.426398 
L 237.297428 112.064958 
L 237.622408 109.496805 
L 237.947387 110.032846 
L 238.272367 109.098474 
L 238.597346 109.182736 
L 238.922326 110.406009 
L 239.572285 107.20981 
L 239.897265 108.033132 
L 240.222244 109.191201 
L 240.872203 109.342588 
L 241.197183 107.173193 
L 241.522162 109.159387 
L 241.847142 106.693284 
L 242.172121 105.597379 
L 242.497101 106.476893 
L 242.82208 105.768207 
L 243.14706 108.107819 
L 243.472039 107.890169 
L 243.797019 105.643208 
L 244.121998 105.452429 
L 244.446978 106.124379 
L 244.771957 106.461414 
L 245.096937 107.512159 
L 245.421916 107.15365 
L 245.746896 103.830083 
L 246.071876 106.893336 
L 246.396855 103.952907 
L 246.721835 106.935717 
L 247.046814 104.89234 
L 247.371794 106.047893 
L 247.696773 105.984602 
L 248.021753 104.795248 
L 248.346732 103.022237 
L 248.671712 102.850233 
L 249.321671 103.697895 
L 249.64665 105.117369 
L 249.97163 105.640871 
L 250.296609 105.689951 
L 250.621589 104.047593 
L 250.946568 105.252318 
L 251.271548 105.454126 
L 251.596527 104.047128 
L 251.921507 104.799267 
L 252.246486 104.248937 
L 252.896446 105.216629 
L 253.221425 103.146005 
L 253.546405 102.173729 
L 253.871384 103.440982 
L 254.196364 101.748331 
L 254.521343 104.094331 
L 255.496282 102.259063 
L 256.146241 101.831955 
L 256.47122 102.81462 
L 256.7962 104.861151 
L 257.121179 102.17926 
L 257.446159 102.401246 
L 257.771138 101.843395 
L 258.096118 105.022672 
L 258.421097 103.761658 
L 258.746077 104.181523 
L 259.071057 104.116512 
L 259.396036 101.925505 
L 259.721016 104.911113 
L 260.045995 105.161517 
L 260.695954 102.941231 
L 261.020934 103.942697 
L 261.345913 103.159139 
L 261.670893 103.508882 
L 261.995872 105.173965 
L 262.320852 103.859733 
L 262.645831 101.825476 
L 262.970811 104.238079 
L 263.29579 105.0605 
L 263.62077 105.366635 
L 263.945749 103.036355 
L 264.270729 102.888744 
L 264.595708 102.33151 
L 264.920688 102.763417 
L 265.245667 105.140121 
L 265.570647 102.381546 
L 265.895627 104.171033 
L 266.220606 104.889687 
L 266.545586 103.328344 
L 266.870565 105.045934 
L 267.195545 102.694757 
L 267.520524 104.05073 
L 267.845504 104.475196 
L 268.495463 102.661844 
L 268.820442 102.710936 
L 269.145422 104.516783 
L 269.470401 102.226476 
L 269.795381 105.10449 
L 270.12036 103.187803 
L 270.44534 104.012195 
L 270.770319 103.927069 
L 271.095299 101.743038 
L 271.745258 103.163441 
L 272.070238 104.326535 
L 272.395217 101.571716 
L 272.720197 101.392434 
L 273.045176 101.717182 
L 273.370156 102.720898 
L 273.695135 102.876638 
L 274.020115 102.903723 
L 274.345094 101.622905 
L 274.670074 101.855792 
L 274.995053 104.117949 
L 275.645012 100.893028 
L 275.969992 101.625422 
L 276.294971 101.797229 
L 276.619951 100.750233 
L 276.94493 100.40429 
L 277.26991 100.952769 
L 277.594889 100.300766 
L 277.919869 102.263995 
L 278.244848 102.398595 
L 278.569828 100.981066 
L 278.894808 101.771065 
L 279.219787 99.55115 
L 279.544767 99.435102 
L 279.869746 100.934215 
L 280.194726 100.013063 
L 280.519705 98.716006 
L 280.844685 98.811967 
L 281.494644 97.706345 
L 281.819623 100.442128 
L 282.144603 98.332246 
L 282.794562 96.803214 
L 283.119541 99.11521 
L 283.444521 97.648534 
L 283.7695 99.052552 
L 284.09448 99.067454 
L 284.419459 97.307422 
L 284.744439 96.840253 
L 285.069419 94.786863 
L 285.394398 97.52216 
L 285.719378 96.036495 
L 286.044357 95.191908 
L 286.369337 96.57437 
L 286.694316 95.984361 
L 287.344275 93.210401 
L 287.669255 93.612252 
L 287.994234 94.902284 
L 288.319214 92.685451 
L 288.644193 95.161586 
L 288.969173 94.723948 
L 289.294152 93.749799 
L 289.619132 91.4738 
L 289.944111 91.22915 
L 290.269091 91.198885 
L 290.59407 92.50197 
L 290.91905 91.049402 
L 291.244029 92.127342 
L 291.569009 92.517571 
L 291.893989 89.93225 
L 292.218968 91.182172 
L 292.543948 91.484604 
L 292.868927 88.631904 
L 293.193907 87.733345 
L 293.518886 90.814701 
L 293.843866 89.380457 
L 294.168845 89.164493 
L 294.493825 87.743858 
L 294.818804 89.461232 
L 295.143784 86.615939 
L 295.468763 88.893986 
L 296.118722 85.327814 
L 296.443702 85.458471 
L 296.768681 85.803279 
L 297.093661 87.675163 
L 297.41864 87.752419 
L 297.74362 86.3341 
L 298.0686 85.928184 
L 298.393579 84.877905 
L 298.718559 85.271249 
L 299.043538 85.414376 
L 299.368518 83.086694 
L 299.693497 84.003772 
L 300.018477 82.695344 
L 300.343456 85.291326 
L 300.668436 83.524673 
L 300.993415 84.963653 
L 301.318395 82.970783 
L 301.643374 82.2721 
L 301.968354 82.697532 
L 302.293333 84.480978 
L 302.618313 84.168127 
L 302.943292 82.365966 
L 303.268272 82.703098 
L 303.593251 81.470963 
L 303.918231 80.841472 
L 304.24321 83.461 
L 304.56819 82.300178 
L 304.89317 82.842949 
L 305.218149 81.124094 
L 305.543129 81.930308 
L 305.868108 80.829436 
L 306.193088 82.170357 
L 306.518067 81.753694 
L 306.843047 82.740952 
L 307.168026 81.414215 
L 307.493006 79.390178 
L 307.817985 81.262345 
L 308.142965 82.397443 
L 308.467944 79.741144 
L 308.792924 80.47641 
L 309.117903 81.874424 
L 309.442883 78.622292 
L 309.767862 79.151441 
L 310.092842 78.744018 
L 310.417821 79.198241 
L 310.742801 78.523849 
L 311.067781 78.371196 
L 311.39276 79.137678 
L 311.71774 79.340024 
L 312.042719 79.08988 
L 312.367699 79.42077 
L 312.692678 78.338959 
L 313.017658 79.547288 
L 313.342637 78.414191 
L 313.667617 81.366694 
L 314.317576 78.162896 
L 314.642555 79.183273 
L 314.967535 79.179072 
L 315.292514 78.18348 
L 315.617494 79.910411 
L 315.942473 78.949581 
L 316.267453 78.575639 
L 316.592432 80.124882 
L 316.917412 80.162139 
L 317.242391 80.622249 
L 317.567371 80.832178 
L 317.892351 81.5819 
L 318.21733 81.405677 
L 318.54231 79.875862 
L 318.867289 80.250525 
L 319.517248 81.405189 
L 320.167207 78.776882 
L 320.492187 79.882635 
L 320.817166 80.578613 
L 321.142146 80.50251 
L 321.792105 78.526359 
L 322.117084 80.739772 
L 322.442064 79.469681 
L 322.767043 81.462577 
L 323.092023 80.511682 
L 323.417002 79.14551 
L 323.741982 78.74997 
L 324.066962 79.205814 
L 324.391941 78.644105 
L 324.716921 78.620853 
L 325.0419 81.608862 
L 325.36688 78.393644 
L 325.691859 78.533403 
L 326.016839 78.870554 
L 326.341818 81.449977 
L 326.666798 79.217465 
L 326.991777 79.797678 
L 327.316757 78.04928 
L 327.641736 78.013027 
L 327.966716 78.317021 
L 328.291695 79.676014 
L 328.616675 78.966355 
L 328.941654 80.033533 
L 329.266634 78.179062 
L 329.591613 78.844743 
L 329.916593 80.46691 
L 330.241572 80.638759 
L 330.566552 80.267745 
L 330.891532 80.320588 
L 331.216511 79.120347 
L 331.541491 76.863376 
L 331.86647 77.217544 
L 332.19145 77.774918 
L 332.516429 77.901586 
L 332.841409 78.413821 
L 333.166388 76.493454 
L 333.491368 76.818728 
L 333.816347 76.642262 
L 334.141327 75.93442 
L 334.466306 77.047016 
L 334.791286 76.255074 
L 335.116265 78.103125 
L 335.441245 77.582346 
L 335.766224 77.404543 
L 336.091204 76.317284 
L 336.416183 77.078122 
L 336.741163 75.065363 
L 337.066143 74.193986 
L 337.391122 76.669756 
L 337.716102 74.605492 
L 338.041081 76.901731 
L 338.366061 73.799048 
L 338.69104 75.938363 
L 339.01602 76.222303 
L 339.340999 74.693228 
L 339.665979 75.119299 
L 339.990958 73.920609 
L 340.315938 73.656552 
L 340.640917 72.557782 
L 340.965897 74.65542 
L 341.290876 74.544492 
L 341.615856 73.679419 
L 341.940835 73.807307 
L 342.265815 73.516047 
L 342.590794 71.440679 
L 342.915774 72.10378 
L 343.240753 70.24272 
L 343.565733 70.897155 
L 343.890713 71.880872 
L 344.215692 71.452772 
L 344.540672 72.243473 
L 344.865651 70.547648 
L 345.190631 70.23316 
L 345.51561 70.318809 
L 345.84059 71.70503 
L 346.165569 68.995461 
L 346.815528 70.450073 
L 347.140508 70.122716 
L 347.465487 70.061816 
L 347.790467 69.080365 
L 348.115446 69.610411 
L 348.440426 68.980403 
L 349.090385 66.769248 
L 349.415364 65.671803 
L 349.740344 67.518178 
L 350.065324 65.951548 
L 350.390303 66.387537 
L 350.715283 65.788735 
L 351.040262 66.313785 
L 351.365242 67.743782 
L 351.690221 64.867268 
L 352.015201 65.387935 
L 352.34018 66.39587 
L 352.66516 66.659199 
L 352.990139 64.130569 
L 353.315119 64.410818 
L 353.640098 65.452443 
L 353.965078 65.980621 
L 354.615037 64.193751 
L 354.940016 63.806452 
L 355.264996 62.919327 
L 355.589975 62.444192 
L 355.914955 62.757882 
L 356.239934 63.461662 
L 356.564914 63.72714 
L 356.889894 62.492898 
L 357.214873 63.11513 
L 357.539853 61.585232 
L 357.864832 63.063884 
L 358.189812 62.806624 
L 358.514791 63.641498 
L 358.839771 63.131928 
L 359.16475 63.988464 
L 359.48973 63.902195 
L 359.814709 61.889037 
L 360.139689 61.463879 
L 360.464668 61.236345 
L 360.789648 63.183621 
L 361.114627 63.244539 
L 361.439607 61.290881 
L 361.764586 63.274537 
L 362.089566 63.815484 
L 362.414545 61.777746 
L 362.739525 63.056754 
L 363.064505 62.701933 
L 363.389484 61.734937 
L 363.714464 63.33335 
L 364.039443 62.448731 
L 364.364423 61.052849 
L 364.689402 61.672407 
L 365.014382 60.890689 
L 365.339361 62.701769 
L 365.664341 60.334916 
L 365.98932 60.605195 
L 366.3143 62.832787 
L 366.639279 62.797635 
L 366.964259 62.07051 
L 367.289238 62.057012 
L 367.939197 63.061657 
L 368.264177 62.252283 
L 368.589156 60.580618 
L 368.914136 61.783458 
L 369.239115 61.805728 
L 369.564095 60.1751 
L 369.889075 61.854677 
L 370.214054 60.794019 
L 370.539034 62.534442 
L 370.864013 61.288617 
L 371.188993 63.100063 
L 371.513972 62.140254 
L 371.838952 62.411112 
L 372.488911 60.335412 
L 373.13887 60.244556 
L 373.463849 62.22407 
L 373.788829 60.893241 
L 374.113808 62.738558 
L 374.438788 60.19595 
L 374.763767 63.097787 
L 375.088747 59.670928 
L 375.413726 63.099584 
L 375.738706 60.39609 
L 376.063686 59.641472 
L 376.388665 61.791434 
L 376.713645 62.211988 
L 377.038624 62.393938 
L 377.363604 59.648645 
L 377.688583 62.860916 
L 378.013563 60.360346 
L 378.338542 61.796079 
L 378.663522 60.399088 
L 378.988501 60.122494 
L 379.313481 59.436333 
L 379.63846 60.009404 
L 379.96344 61.990504 
L 380.288419 61.810319 
L 380.613399 60.497351 
L 380.938378 59.821135 
L 381.263358 59.936118 
L 381.588337 60.515539 
L 381.913317 60.455713 
L 382.238296 58.175267 
L 382.563276 59.130875 
L 382.888256 58.493648 
L 383.213235 61.262817 
L 383.538215 60.981599 
L 383.863194 60.086619 
L 384.513153 59.733682 
L 384.838133 59.276338 
L 385.163112 59.63564 
L 385.813071 60.007397 
L 386.138051 59.503943 
L 386.46303 59.585595 
L 386.78801 57.507981 
L 387.112989 58.474095 
L 387.437969 57.662959 
L 387.762948 57.231704 
L 388.087928 56.987263 
L 388.412907 55.332146 
L 388.737887 55.731828 
L 389.062867 56.798858 
L 389.387846 56.536964 
L 389.712826 56.061491 
L 390.037805 54.623359 
L 390.362785 55.063258 
L 390.687764 56.004534 
L 391.012744 55.659696 
L 391.337723 53.653109 
L 391.662703 52.807455 
L 391.987682 53.365052 
L 392.312662 54.232022 
L 392.637641 54.099486 
L 392.962621 53.277328 
L 393.2876 52.810853 
L 393.937559 53.814986 
L 394.262539 50.271159 
L 394.587518 52.179313 
L 394.912498 50.824967 
L 395.237477 52.064673 
L 395.562457 50.562435 
L 395.887437 51.058295 
L 396.212416 48.80106 
L 396.537396 49.357745 
L 396.862375 49.402244 
L 397.187355 47.924621 
L 397.512334 48.388664 
L 397.837314 48.304555 
L 398.162293 46.970182 
L 398.487273 47.488321 
L 398.487273 47.488321 
" clip-path="url(#p49b13c1226)" style="fill: none; stroke: #1f77b4; stroke-width: 1.5; stroke-linecap: square"/>
   </g>
   <g id="patch_3">
    <path d="M 57.6 162.432 
L 57.6 41.472 
" style="fill: none; stroke: #000000; stroke-width: 0.8; stroke-linejoin: miter; stroke-linecap: square"/>
   </g>
   <g id="patch_4">
    <path d="M 414.72 162.432 
L 414.72 41.472 
" style="fill: none; stroke: #000000; stroke-width: 0.8; stroke-linejoin: miter; stroke-linecap: square"/>
   </g>
   <g id="patch_5">
    <path d="M 57.6 162.432 
L 414.72 162.432 
" style="fill: none; stroke: #000000; stroke-width: 0.8; stroke-linejoin: miter; stroke-linecap: square"/>
   </g>
   <g id="patch_6">
    <path d="M 57.6 41.472 
L 414.72 41.472 
" style="fill: none; stroke: #000000; stroke-width: 0.8; stroke-linejoin: miter; stroke-linecap: square"/>
   </g>
  </g>
  <g id="axes_2">
   <g id="patch_7">
    <path d="M 57.6 307.584 
L 414.72 307.584 
L 414.72 186.624 
L 57.6 186.624 
z
" style="fill: #ffffff"/>
   </g>
   <g id="matplotlib.axis_3">
    <g id="xtick_7">
     <g id="line2d_12">
      <g>
       <use xlink:href="#m8147cd32a8" x="73.832727" y="307.584" style="stroke: #000000; stroke-width: 0.8"/>
      </g>
     </g>
     <g id="text_13">
      <!-- 0 -->
      <g transform="translate(70.651477 322.182437) scale(0.1 -0.1)">
       <use xlink:href="#DejaVuSans-30"/>
      </g>
     </g>
    </g>
    <g id="xtick_8">
     <g id="line2d_13">
      <g>
       <use xlink:href="#m8147cd32a8" x="138.828632" y="307.584" style="stroke: #000000; stroke-width: 0.8"/>
      </g>
     </g>
     <g id="text_14">
      <!-- 200 -->
      <g transform="translate(129.284882 322.182437) scale(0.1 -0.1)">
       <use xlink:href="#DejaVuSans-32"/>
       <use xlink:href="#DejaVuSans-30" x="63.623047"/>
       <use xlink:href="#DejaVuSans-30" x="127.246094"/>
      </g>
     </g>
    </g>
    <g id="xtick_9">
     <g id="line2d_14">
      <g>
       <use xlink:href="#m8147cd32a8" x="203.824537" y="307.584" style="stroke: #000000; stroke-width: 0.8"/>
      </g>
     </g>
     <g id="text_15">
      <!-- 400 -->
      <g transform="translate(194.280787 322.182437) scale(0.1 -0.1)">
       <use xlink:href="#DejaVuSans-34"/>
       <use xlink:href="#DejaVuSans-30" x="63.623047"/>
       <use xlink:href="#DejaVuSans-30" x="127.246094"/>
      </g>
     </g>
    </g>
    <g id="xtick_10">
     <g id="line2d_15">
      <g>
       <use xlink:href="#m8147cd32a8" x="268.820442" y="307.584" style="stroke: #000000; stroke-width: 0.8"/>
      </g>
     </g>
     <g id="text_16">
      <!-- 600 -->
      <g transform="translate(259.276692 322.182437) scale(0.1 -0.1)">
       <use xlink:href="#DejaVuSans-36"/>
       <use xlink:href="#DejaVuSans-30" x="63.623047"/>
       <use xlink:href="#DejaVuSans-30" x="127.246094"/>
      </g>
     </g>
    </g>
    <g id="xtick_11">
     <g id="line2d_16">
      <g>
       <use xlink:href="#m8147cd32a8" x="333.816347" y="307.584" style="stroke: #000000; stroke-width: 0.8"/>
      </g>
     </g>
     <g id="text_17">
      <!-- 800 -->
      <g transform="translate(324.272597 322.182437) scale(0.1 -0.1)">
       <use xlink:href="#DejaVuSans-38"/>
       <use xlink:href="#DejaVuSans-30" x="63.623047"/>
       <use xlink:href="#DejaVuSans-30" x="127.246094"/>
      </g>
     </g>
    </g>
    <g id="xtick_12">
     <g id="line2d_17">
      <g>
       <use xlink:href="#m8147cd32a8" x="398.812252" y="307.584" style="stroke: #000000; stroke-width: 0.8"/>
      </g>
     </g>
     <g id="text_18">
      <!-- 1000 -->
      <g transform="translate(386.087252 322.182437) scale(0.1 -0.1)">
       <use xlink:href="#DejaVuSans-31"/>
       <use xlink:href="#DejaVuSans-30" x="63.623047"/>
       <use xlink:href="#DejaVuSans-30" x="127.246094"/>
       <use xlink:href="#DejaVuSans-30" x="190.869141"/>
      </g>
     </g>
    </g>
    <g id="text_19">
     <!-- Ordin esantion -->
     <g transform="translate(199.443594 335.860562) scale(0.1 -0.1)">
      <use xlink:href="#DejaVuSans-4f"/>
      <use xlink:href="#DejaVuSans-72" x="78.710938"/>
      <use xlink:href="#DejaVuSans-64" x="118.074219"/>
      <use xlink:href="#DejaVuSans-69" x="181.550781"/>
      <use xlink:href="#DejaVuSans-6e" x="209.333984"/>
      <use xlink:href="#DejaVuSans-20" x="272.712891"/>
      <use xlink:href="#DejaVuSans-65" x="304.5"/>
      <use xlink:href="#DejaVuSans-73" x="366.023438"/>
      <use xlink:href="#DejaVuSans-61" x="418.123047"/>
      <use xlink:href="#DejaVuSans-6e" x="479.402344"/>
      <use xlink:href="#DejaVuSans-74" x="542.78125"/>
      <use xlink:href="#DejaVuSans-69" x="581.990234"/>
      <use xlink:href="#DejaVuSans-6f" x="609.773438"/>
      <use xlink:href="#DejaVuSans-6e" x="670.955078"/>
     </g>
    </g>
   </g>
   <g id="matplotlib.axis_4">
    <g id="ytick_5">
     <g id="line2d_18">
      <g>
       <use xlink:href="#m6220b8193e" x="57.6" y="304.415806" style="stroke: #000000; stroke-width: 0.8"/>
      </g>
     </g>
     <g id="text_20">
      <!-- 2 -->
      <g transform="translate(44.2375 308.215025) scale(0.1 -0.1)">
       <use xlink:href="#DejaVuSans-32"/>
      </g>
     </g>
    </g>
    <g id="ytick_6">
     <g id="line2d_19">
      <g>
       <use xlink:href="#m6220b8193e" x="57.6" y="266.795702" style="stroke: #000000; stroke-width: 0.8"/>
      </g>
     </g>
     <g id="text_21">
      <!-- 4 -->
      <g transform="translate(44.2375 270.594921) scale(0.1 -0.1)">
       <use xlink:href="#DejaVuSans-34"/>
      </g>
     </g>
    </g>
    <g id="ytick_7">
     <g id="line2d_20">
      <g>
       <use xlink:href="#m6220b8193e" x="57.6" y="229.175598" style="stroke: #000000; stroke-width: 0.8"/>
      </g>
     </g>
     <g id="text_22">
      <!-- 6 -->
      <g transform="translate(44.2375 232.974817) scale(0.1 -0.1)">
       <use xlink:href="#DejaVuSans-36"/>
      </g>
     </g>
    </g>
    <g id="ytick_8">
     <g id="line2d_21">
      <g>
       <use xlink:href="#m6220b8193e" x="57.6" y="191.555494" style="stroke: #000000; stroke-width: 0.8"/>
      </g>
     </g>
     <g id="text_23">
      <!-- 8 -->
      <g transform="translate(44.2375 195.354712) scale(0.1 -0.1)">
       <use xlink:href="#DejaVuSans-38"/>
      </g>
     </g>
    </g>
    <g id="text_24">
     <!-- Valoare -->
     <g transform="translate(38.157812 265.732906) rotate(-90) scale(0.1 -0.1)">
      <use xlink:href="#DejaVuSans-56"/>
      <use xlink:href="#DejaVuSans-61" x="60.658203"/>
      <use xlink:href="#DejaVuSans-6c" x="121.9375"/>
      <use xlink:href="#DejaVuSans-6f" x="149.720703"/>
      <use xlink:href="#DejaVuSans-61" x="210.902344"/>
      <use xlink:href="#DejaVuSans-72" x="272.181641"/>
      <use xlink:href="#DejaVuSans-65" x="311.044922"/>
     </g>
    </g>
   </g>
   <g id="line2d_22">
    <path d="M 73.832727 302.083755 
L 74.157707 301.945309 
L 74.482686 302.085818 
L 75.132645 301.986048 
L 76.432563 301.718335 
L 76.757543 301.697886 
L 77.082523 301.47854 
L 77.407502 301.476431 
L 77.732482 301.261878 
L 78.057461 301.230849 
L 78.382441 301.053642 
L 78.70742 300.665608 
L 79.0324 300.623559 
L 79.357379 300.433382 
L 79.682359 300.39352 
L 80.982277 299.554181 
L 81.632236 298.872179 
L 81.957215 298.754969 
L 82.607174 298.172784 
L 82.932154 298.056624 
L 83.582113 297.594345 
L 83.907093 297.438968 
L 84.882031 296.602622 
L 85.85697 295.971103 
L 86.181949 296.019263 
L 86.506929 295.73988 
L 86.831908 295.654015 
L 87.481867 295.239992 
L 87.806847 295.099974 
L 88.131826 294.806351 
L 88.456806 294.871318 
L 89.106765 294.451086 
L 89.431744 294.556055 
L 89.756724 294.410309 
L 90.081704 294.404854 
L 91.381622 293.843064 
L 91.706601 293.961353 
L 92.031581 293.776887 
L 92.68154 293.784466 
L 93.006519 293.598053 
L 93.981458 293.470067 
L 94.631417 293.637233 
L 95.281376 293.628534 
L 95.931335 293.502123 
L 97.556233 293.679192 
L 98.206192 293.43055 
L 98.531171 293.379842 
L 98.856151 293.601997 
L 99.50611 293.520343 
L 100.156069 293.810827 
L 100.806028 293.58458 
L 101.455987 293.661159 
L 101.780966 293.561695 
L 102.755905 293.845504 
L 103.080885 293.743729 
L 103.730844 294.134814 
L 104.055823 294.075687 
L 104.705782 294.101272 
L 105.355741 294.558851 
L 105.680721 294.41672 
L 106.0057 294.519395 
L 106.33068 294.7584 
L 107.955577 294.599318 
L 109.580475 295.185705 
L 109.905455 295.283295 
L 110.230434 295.183875 
L 110.555414 295.344349 
L 110.880393 295.159536 
L 111.205373 295.204067 
L 111.530352 295.364147 
L 111.855332 295.336192 
L 112.83027 295.003976 
L 113.15525 295.064931 
L 113.480229 295.24822 
L 113.805209 295.097834 
L 114.130188 295.139675 
L 114.455168 295.040126 
L 114.780147 295.212509 
L 115.105127 295.033992 
L 115.430106 294.983125 
L 116.730025 295.233203 
L 117.055004 295.195714 
L 117.379984 295.278744 
L 118.029943 294.937553 
L 118.679902 294.455665 
L 119.004881 294.380749 
L 119.329861 294.118992 
L 119.65484 294.226104 
L 119.97982 294.184579 
L 120.629779 293.790083 
L 121.279738 293.872624 
L 121.604717 293.78345 
L 121.929697 293.819354 
L 122.254676 293.53539 
L 122.579656 293.457777 
L 122.904636 293.176738 
L 125.179492 292.28198 
L 125.504472 292.07202 
L 126.154431 291.421492 
L 127.779328 290.409053 
L 128.754267 290.320363 
L 129.404226 289.66003 
L 130.054185 289.512416 
L 131.354103 288.577012 
L 132.004062 288.544556 
L 132.654021 288.146373 
L 133.30398 287.600565 
L 134.928878 287.100385 
L 136.878755 285.878837 
L 137.203735 285.812356 
L 137.528714 285.489756 
L 138.178673 285.152161 
L 138.503653 285.010327 
L 138.828632 284.745779 
L 139.153612 284.747657 
L 140.12855 284.228551 
L 140.45353 284.130076 
L 140.778509 283.909545 
L 141.753448 283.759741 
L 142.403407 283.809497 
L 143.703325 283.123296 
L 144.028305 283.172942 
L 144.353284 283.069291 
L 144.678264 283.126836 
L 145.003243 282.972045 
L 145.328223 283.08423 
L 145.653202 282.853686 
L 145.978182 282.946792 
L 146.628141 282.57196 
L 147.603079 282.316915 
L 147.928059 282.454453 
L 148.253038 282.373285 
L 148.578018 282.475359 
L 148.902998 282.414789 
L 149.877936 282.878216 
L 152.477772 282.763396 
L 152.802752 282.752261 
L 153.127731 282.936505 
L 153.77769 282.959104 
L 154.10267 282.84477 
L 154.752629 283.140273 
L 155.077609 283.332115 
L 156.052547 283.470632 
L 156.377527 283.281903 
L 156.702506 283.431915 
L 157.027486 283.332523 
L 157.352465 283.380992 
L 157.677445 283.250954 
L 158.327404 283.313451 
L 158.652383 283.202341 
L 158.977363 283.394272 
L 159.952301 283.245416 
L 160.277281 283.472953 
L 160.92724 283.55964 
L 161.577199 283.376799 
L 161.902179 283.257505 
L 162.227158 283.422312 
L 162.552138 283.302794 
L 163.527076 283.787527 
L 163.852056 283.675184 
L 164.177035 283.817381 
L 164.502015 283.628935 
L 165.151974 283.927513 
L 165.801933 283.561281 
L 166.451892 283.531424 
L 168.726749 283.56263 
L 169.051728 283.477592 
L 170.351646 282.591846 
L 170.676626 282.622591 
L 171.001605 282.456268 
L 171.326585 282.435902 
L 171.651564 282.165334 
L 171.976544 282.185723 
L 172.626503 281.753666 
L 172.951482 281.634449 
L 173.276462 281.645151 
L 173.926421 281.389453 
L 174.2514 281.230973 
L 174.57638 280.85039 
L 174.90136 280.836377 
L 175.876298 280.324382 
L 176.201278 279.910173 
L 177.176216 279.636851 
L 177.501196 279.192534 
L 178.151155 278.937028 
L 178.476134 278.705313 
L 178.801114 278.272326 
L 179.451073 277.936333 
L 180.101032 277.299764 
L 180.750991 276.953918 
L 181.40095 276.344811 
L 181.72593 276.059768 
L 182.375889 275.274327 
L 183.350827 274.389811 
L 183.675807 274.295234 
L 184.325766 273.483193 
L 184.650745 273.241673 
L 184.975725 273.159898 
L 185.950663 272.374611 
L 186.275643 272.20232 
L 186.600622 271.79373 
L 186.925602 271.623917 
L 187.575561 270.80442 
L 188.5505 270.196664 
L 189.525438 269.09265 
L 190.500377 268.928672 
L 191.800295 268.030973 
L 192.450254 267.449961 
L 193.100213 267.04132 
L 193.425192 266.697872 
L 194.725111 266.358962 
L 195.05009 266.005505 
L 196.350008 265.285134 
L 196.674988 264.977755 
L 196.999967 264.869698 
L 197.974906 264.13192 
L 198.624865 264.124355 
L 198.949844 263.855743 
L 199.599803 263.899048 
L 200.249762 263.768424 
L 200.574742 263.777765 
L 201.87466 263.402263 
L 202.524619 263.254945 
L 204.149517 263.011897 
L 204.799476 262.642448 
L 205.774414 262.693124 
L 206.424373 262.510754 
L 206.749353 262.545267 
L 207.074333 262.466567 
L 207.399312 262.618573 
L 208.049271 262.452949 
L 208.69923 262.699935 
L 209.02421 262.804119 
L 209.674169 262.754922 
L 210.324128 262.919168 
L 210.649107 262.842858 
L 210.974087 262.958536 
L 211.624046 262.748854 
L 212.598984 263.004733 
L 213.573923 263.032665 
L 213.898903 263.183689 
L 214.548862 263.072123 
L 215.198821 263.183687 
L 215.5238 263.023948 
L 215.84878 262.992288 
L 216.173759 263.210787 
L 216.823718 263.22468 
L 217.473677 263.22746 
L 217.798657 263.363769 
L 218.123636 263.226243 
L 218.773595 263.152988 
L 219.098575 263.036177 
L 220.073514 263.245789 
L 221.048452 263.063971 
L 221.698411 263.235748 
L 222.998329 263.063219 
L 223.323309 262.816262 
L 223.648288 262.759423 
L 223.973268 262.550556 
L 224.298247 262.571226 
L 224.623227 262.385317 
L 224.948206 262.496217 
L 225.273186 262.271992 
L 226.573104 262.07661 
L 227.223063 261.635617 
L 227.548043 261.627075 
L 227.873022 261.371117 
L 228.198002 261.265865 
L 228.847961 260.8586 
L 230.147879 260.296625 
L 230.472858 260.371064 
L 231.447797 259.862656 
L 231.772776 259.527378 
L 233.072695 259.200023 
L 233.397674 258.953552 
L 233.722654 258.912563 
L 235.022572 257.868051 
L 235.347551 257.504446 
L 235.672531 257.520638 
L 235.99751 257.414801 
L 236.972449 256.602106 
L 237.297428 256.596834 
L 238.597346 255.634434 
L 238.922326 255.552891 
L 240.222244 254.549227 
L 240.872203 254.383495 
L 241.197183 254.089843 
L 241.522162 254.032728 
L 242.82208 252.761944 
L 243.472039 252.674623 
L 244.446978 251.94173 
L 244.771957 251.818011 
L 245.421916 251.777296 
L 245.746896 251.395557 
L 246.071876 251.371508 
L 246.396855 251.043159 
L 246.721835 251.05877 
L 247.046814 250.859684 
L 247.696773 250.741653 
L 248.021753 250.564151 
L 248.996691 249.65023 
L 249.321671 249.46741 
L 249.97163 249.490705 
L 250.296609 249.53162 
L 250.621589 249.397136 
L 251.596527 249.302905 
L 252.896446 249.189884 
L 254.521343 248.312694 
L 255.171302 248.0987 
L 256.47122 247.491595 
L 256.7962 247.645973 
L 257.771138 247.250216 
L 258.096118 247.44558 
L 259.071057 247.642048 
L 259.396036 247.475174 
L 260.370975 247.844561 
L 261.020934 247.79478 
L 261.670893 247.729665 
L 261.995872 247.892864 
L 262.320852 247.902661 
L 262.645831 247.699292 
L 263.29579 247.915449 
L 263.62077 248.080167 
L 264.920688 247.646982 
L 265.245667 247.81492 
L 265.570647 247.678327 
L 266.870565 247.97033 
L 267.195545 247.850866 
L 268.170483 247.939528 
L 268.820442 247.716996 
L 269.145422 247.812914 
L 269.470401 247.660347 
L 269.795381 247.823231 
L 270.44534 247.8079 
L 270.770319 247.833216 
L 271.420278 247.521453 
L 271.745258 247.495763 
L 272.070238 247.59396 
L 273.045176 247.053101 
L 274.345094 246.882869 
L 274.670074 246.784642 
L 274.995053 246.932194 
L 275.320033 246.872378 
L 275.969992 246.57333 
L 276.619951 246.324696 
L 277.594889 245.84016 
L 278.244848 245.94658 
L 279.219787 245.611872 
L 279.544767 245.388252 
L 280.194726 245.206875 
L 281.494644 244.167361 
L 281.819623 244.193231 
L 282.469582 243.734858 
L 282.794562 243.424417 
L 283.119541 243.386175 
L 283.444521 243.198774 
L 284.09448 243.158123 
L 284.744439 242.72906 
L 285.069419 242.30888 
L 285.394398 242.216027 
L 287.344275 240.654951 
L 287.669255 240.319663 
L 287.994234 240.152462 
L 288.319214 239.770752 
L 288.969173 239.563104 
L 289.294152 239.351347 
L 290.269091 238.139876 
L 290.59407 237.940286 
L 291.244029 237.42355 
L 291.569009 237.297221 
L 292.218968 236.699207 
L 292.543948 236.537567 
L 293.193907 235.602083 
L 293.518886 235.48028 
L 294.818804 234.425353 
L 295.143784 233.983266 
L 295.468763 233.823002 
L 295.793743 233.50601 
L 296.443702 232.599065 
L 296.768681 232.254842 
L 297.74362 231.811776 
L 299.043538 230.739544 
L 300.018477 229.588002 
L 300.343456 229.491485 
L 300.668436 229.220346 
L 300.993415 229.126416 
L 301.968354 228.239905 
L 302.618313 228.119432 
L 303.918231 227.028647 
L 304.24321 226.997151 
L 306.518067 225.948954 
L 306.843047 225.950321 
L 307.168026 225.813165 
L 307.493006 225.478605 
L 307.817985 225.37278 
L 308.142965 225.395934 
L 308.792924 224.985792 
L 309.117903 224.993092 
L 310.092842 224.153986 
L 311.71774 223.269343 
L 313.342637 222.746913 
L 313.667617 222.925141 
L 313.992596 222.888472 
L 314.642555 222.671706 
L 316.592432 222.482972 
L 317.567371 222.810089 
L 318.21733 223.160988 
L 318.867289 223.164571 
L 319.842228 223.352574 
L 320.167207 223.200103 
L 320.817166 223.231111 
L 321.467125 223.205694 
L 321.792105 223.041779 
L 322.117084 223.125129 
L 322.442064 223.067665 
L 323.092023 223.265173 
L 324.716921 222.70726 
L 325.0419 222.914713 
L 326.016839 222.57471 
L 326.341818 222.778845 
L 327.316757 222.578286 
L 327.966716 222.316031 
L 328.941654 222.408566 
L 329.591613 222.249189 
L 330.891532 222.691082 
L 331.216511 222.640585 
L 331.86647 222.143887 
L 333.816347 221.247189 
L 334.141327 221.008769 
L 335.116265 220.777576 
L 335.766224 220.721848 
L 336.741163 220.267164 
L 337.066143 219.945209 
L 337.391122 219.913687 
L 337.716102 219.670003 
L 338.041081 219.690198 
L 338.366061 219.384745 
L 339.340999 219.141245 
L 339.990958 218.801804 
L 340.965897 218.175543 
L 341.615856 217.940467 
L 342.265815 217.663812 
L 343.565733 216.351137 
L 344.865651 215.619727 
L 345.51561 215.114995 
L 345.84059 215.048643 
L 346.490549 214.477405 
L 347.465487 214.044411 
L 349.090385 212.748781 
L 349.415364 212.289747 
L 349.740344 212.069206 
L 350.715283 211.112412 
L 351.040262 210.883978 
L 351.365242 210.827545 
L 352.015201 210.215281 
L 352.66516 209.995446 
L 353.315119 209.370204 
L 354.615037 208.748183 
L 355.264996 208.173922 
L 355.914955 207.564048 
L 357.214873 206.871005 
L 357.539853 206.573494 
L 358.839771 206.222661 
L 359.48973 206.247855 
L 360.464668 205.58836 
L 361.114627 205.589918 
L 361.439607 205.389813 
L 362.089566 205.497183 
L 362.414545 205.357135 
L 363.064505 205.334119 
L 363.389484 205.205913 
L 364.039443 205.211184 
L 365.014382 204.7455 
L 365.339361 204.777002 
L 365.98932 204.389994 
L 366.964259 204.525931 
L 367.614218 204.545442 
L 368.264177 204.630207 
L 368.589156 204.451989 
L 369.239115 204.387939 
L 369.564095 204.19165 
L 371.513972 204.262737 
L 371.838952 204.312197 
L 372.488911 204.080947 
L 373.13887 203.782214 
L 373.463849 203.860217 
L 373.788829 203.791607 
L 374.113808 203.922335 
L 374.438788 203.774781 
L 374.763767 203.944661 
L 375.088747 203.740111 
L 375.413726 203.913646 
L 376.388665 203.647405 
L 377.038624 203.837809 
L 377.363604 203.64162 
L 377.688583 203.80011 
L 378.013563 203.681926 
L 378.338542 203.725316 
L 379.63846 203.204104 
L 380.288419 203.397068 
L 381.913317 203.03519 
L 382.563276 202.622608 
L 382.888256 202.427466 
L 383.538215 202.613238 
L 384.513153 202.486968 
L 385.488092 202.301075 
L 386.46303 202.196007 
L 387.112989 201.811721 
L 388.087928 201.156862 
L 388.737887 200.47972 
L 389.712826 199.951044 
L 390.362785 199.366734 
L 391.012744 199.085314 
L 392.312662 197.856245 
L 392.962621 197.434484 
L 393.61258 196.970226 
L 393.937559 196.852308 
L 394.262539 196.376539 
L 395.237477 195.616419 
L 396.862375 193.953407 
L 397.512334 193.183598 
L 398.487273 192.122182 
L 398.487273 192.122182 
" clip-path="url(#p1f778ca04b)" style="fill: none; stroke: #1f77b4; stroke-width: 1.5; stroke-linecap: square"/>
   </g>
   <g id="patch_8">
    <path d="M 57.6 307.584 
L 57.6 186.624 
" style="fill: none; stroke: #000000; stroke-width: 0.8; stroke-linejoin: miter; stroke-linecap: square"/>
   </g>
   <g id="patch_9">
    <path d="M 414.72 307.584 
L 414.72 186.624 
" style="fill: none; stroke: #000000; stroke-width: 0.8; stroke-linejoin: miter; stroke-linecap: square"/>
   </g>
   <g id="patch_10">
    <path d="M 57.6 307.584 
L 414.72 307.584 
" style="fill: none; stroke: #000000; stroke-width: 0.8; stroke-linejoin: miter; stroke-linecap: square"/>
   </g>
   <g id="patch_11">
    <path d="M 57.6 186.624 
L 414.72 186.624 
" style="fill: none; stroke: #000000; stroke-width: 0.8; stroke-linejoin: miter; stroke-linecap: square"/>
   </g>
  </g>
  <g id="text_25">
   <!-- Serie timp mediata -->
   <g transform="translate(172.869375 16.030125) scale(0.12 -0.12)">
    <defs>
     <path id="DejaVuSans-53" d="M 3425 4513 
L 3425 3897 
Q 3066 4069 2747 4153 
Q 2428 4238 2131 4238 
Q 1616 4238 1336 4038 
Q 1056 3838 1056 3469 
Q 1056 3159 1242 3001 
Q 1428 2844 1947 2747 
L 2328 2669 
Q 3034 2534 3370 2195 
Q 3706 1856 3706 1288 
Q 3706 609 3251 259 
Q 2797 -91 1919 -91 
Q 1588 -91 1214 -16 
Q 841 59 441 206 
L 441 856 
Q 825 641 1194 531 
Q 1563 422 1919 422 
Q 2459 422 2753 634 
Q 3047 847 3047 1241 
Q 3047 1584 2836 1778 
Q 2625 1972 2144 2069 
L 1759 2144 
Q 1053 2284 737 2584 
Q 422 2884 422 3419 
Q 422 4038 858 4394 
Q 1294 4750 2059 4750 
Q 2388 4750 2728 4690 
Q 3069 4631 3425 4513 
z
" transform="scale(0.015625)"/>
     <path id="DejaVuSans-6d" d="M 3328 2828 
Q 3544 3216 3844 3400 
Q 4144 3584 4550 3584 
Q 5097 3584 5394 3201 
Q 5691 2819 5691 2113 
L 5691 0 
L 5113 0 
L 5113 2094 
Q 5113 2597 4934 2840 
Q 4756 3084 4391 3084 
Q 3944 3084 3684 2787 
Q 3425 2491 3425 1978 
L 3425 0 
L 2847 0 
L 2847 2094 
Q 2847 2600 2669 2842 
Q 2491 3084 2119 3084 
Q 1678 3084 1418 2786 
Q 1159 2488 1159 1978 
L 1159 0 
L 581 0 
L 581 3500 
L 1159 3500 
L 1159 2956 
Q 1356 3278 1631 3431 
Q 1906 3584 2284 3584 
Q 2666 3584 2933 3390 
Q 3200 3197 3328 2828 
z
" transform="scale(0.015625)"/>
     <path id="DejaVuSans-70" d="M 1159 525 
L 1159 -1331 
L 581 -1331 
L 581 3500 
L 1159 3500 
L 1159 2969 
Q 1341 3281 1617 3432 
Q 1894 3584 2278 3584 
Q 2916 3584 3314 3078 
Q 3713 2572 3713 1747 
Q 3713 922 3314 415 
Q 2916 -91 2278 -91 
Q 1894 -91 1617 61 
Q 1341 213 1159 525 
z
M 3116 1747 
Q 3116 2381 2855 2742 
Q 2594 3103 2138 3103 
Q 1681 3103 1420 2742 
Q 1159 2381 1159 1747 
Q 1159 1113 1420 752 
Q 1681 391 2138 391 
Q 2594 391 2855 752 
Q 3116 1113 3116 1747 
z
" transform="scale(0.015625)"/>
    </defs>
    <use xlink:href="#DejaVuSans-53"/>
    <use xlink:href="#DejaVuSans-65" x="63.476562"/>
    <use xlink:href="#DejaVuSans-72" x="125"/>
    <use xlink:href="#DejaVuSans-69" x="166.113281"/>
    <use xlink:href="#DejaVuSans-65" x="193.896484"/>
    <use xlink:href="#DejaVuSans-20" x="255.419922"/>
    <use xlink:href="#DejaVuSans-74" x="287.207031"/>
    <use xlink:href="#DejaVuSans-69" x="326.416016"/>
    <use xlink:href="#DejaVuSans-6d" x="354.199219"/>
    <use xlink:href="#DejaVuSans-70" x="451.611328"/>
    <use xlink:href="#DejaVuSans-20" x="515.087891"/>
    <use xlink:href="#DejaVuSans-6d" x="546.875"/>
    <use xlink:href="#DejaVuSans-65" x="644.287109"/>
    <use xlink:href="#DejaVuSans-64" x="705.810547"/>
    <use xlink:href="#DejaVuSans-69" x="769.287109"/>
    <use xlink:href="#DejaVuSans-61" x="797.070312"/>
    <use xlink:href="#DejaVuSans-74" x="858.349609"/>
    <use xlink:href="#DejaVuSans-61" x="897.558594"/>
   </g>
  </g>
 </g>
 <defs>
  <clipPath id="p49b13c1226">
   <rect x="57.6" y="41.472" width="357.12" height="120.96"/>
  </clipPath>
  <clipPath id="p1f778ca04b">
   <rect x="57.6" y="186.624" width="357.12" height="120.96"/>
  </clipPath>
 </defs>
</svg>
