<?xml version="1.0" encoding="utf-8" standalone="no"?>
<!DOCTYPE svg PUBLIC "-//W3C//DTD SVG 1.1//EN"
  "http://www.w3.org/Graphics/SVG/1.1/DTD/svg11.dtd">
<svg xmlns:xlink="http://www.w3.org/1999/xlink" width="460.8pt" height="345.6pt" viewBox="0 0 460.8 345.6" xmlns="http://www.w3.org/2000/svg" version="1.1">
 <metadata>
  <rdf:RDF xmlns:dc="http://purl.org/dc/elements/1.1/" xmlns:cc="http://creativecommons.org/ns#" xmlns:rdf="http://www.w3.org/1999/02/22-rdf-syntax-ns#">
   <cc:Work>
    <dc:type rdf:resource="http://purl.org/dc/dcmitype/StillImage"/>
    <dc:date>2024-12-05T11:45:54.720403</dc:date>
    <dc:format>image/svg+xml</dc:format>
    <dc:creator>
     <cc:Agent>
      <dc:title>Matplotlib v3.9.2, https://matplotlib.org/</dc:title>
     </cc:Agent>
    </dc:creator>
   </cc:Work>
  </rdf:RDF>
 </metadata>
 <defs>
  <style type="text/css">*{stroke-linejoin: round; stroke-linecap: butt}</style>
 </defs>
 <g id="figure_1">
  <g id="patch_1">
   <path d="M 0 345.6 
L 460.8 345.6 
L 460.8 0 
L 0 0 
z
" style="fill: #ffffff"/>
  </g>
  <g id="axes_1">
   <g id="patch_2">
    <path d="M 57.6 276.48 
L 414.72 276.48 
L 414.72 41.472 
L 57.6 41.472 
z
" style="fill: #ffffff"/>
   </g>
   <g id="matplotlib.axis_1">
    <g id="xtick_1">
     <g id="line2d_1">
      <defs>
       <path id="m33489fc051" d="M 0 0 
L 0 3.5 
" style="stroke: #000000; stroke-width: 0.8"/>
      </defs>
      <g>
       <use xlink:href="#m33489fc051" x="73.832727" y="276.48" style="stroke: #000000; stroke-width: 0.8"/>
      </g>
     </g>
     <g id="text_1">
      <!-- 0 -->
      <g transform="translate(70.651477 291.078437) scale(0.1 -0.1)">
       <defs>
        <path id="DejaVuSans-30" d="M 2034 4250 
Q 1547 4250 1301 3770 
Q 1056 3291 1056 2328 
Q 1056 1369 1301 889 
Q 1547 409 2034 409 
Q 2525 409 2770 889 
Q 3016 1369 3016 2328 
Q 3016 3291 2770 3770 
Q 2525 4250 2034 4250 
z
M 2034 4750 
Q 2819 4750 3233 4129 
Q 3647 3509 3647 2328 
Q 3647 1150 3233 529 
Q 2819 -91 2034 -91 
Q 1250 -91 836 529 
Q 422 1150 422 2328 
Q 422 3509 836 4129 
Q 1250 4750 2034 4750 
z
" transform="scale(0.015625)"/>
       </defs>
       <use xlink:href="#DejaVuSans-30"/>
      </g>
     </g>
    </g>
    <g id="xtick_2">
     <g id="line2d_2">
      <g>
       <use xlink:href="#m33489fc051" x="138.828632" y="276.48" style="stroke: #000000; stroke-width: 0.8"/>
      </g>
     </g>
     <g id="text_2">
      <!-- 200 -->
      <g transform="translate(129.284882 291.078437) scale(0.1 -0.1)">
       <defs>
        <path id="DejaVuSans-32" d="M 1228 531 
L 3431 531 
L 3431 0 
L 469 0 
L 469 531 
Q 828 903 1448 1529 
Q 2069 2156 2228 2338 
Q 2531 2678 2651 2914 
Q 2772 3150 2772 3378 
Q 2772 3750 2511 3984 
Q 2250 4219 1831 4219 
Q 1534 4219 1204 4116 
Q 875 4013 500 3803 
L 500 4441 
Q 881 4594 1212 4672 
Q 1544 4750 1819 4750 
Q 2544 4750 2975 4387 
Q 3406 4025 3406 3419 
Q 3406 3131 3298 2873 
Q 3191 2616 2906 2266 
Q 2828 2175 2409 1742 
Q 1991 1309 1228 531 
z
" transform="scale(0.015625)"/>
       </defs>
       <use xlink:href="#DejaVuSans-32"/>
       <use xlink:href="#DejaVuSans-30" x="63.623047"/>
       <use xlink:href="#DejaVuSans-30" x="127.246094"/>
      </g>
     </g>
    </g>
    <g id="xtick_3">
     <g id="line2d_3">
      <g>
       <use xlink:href="#m33489fc051" x="203.824537" y="276.48" style="stroke: #000000; stroke-width: 0.8"/>
      </g>
     </g>
     <g id="text_3">
      <!-- 400 -->
      <g transform="translate(194.280787 291.078437) scale(0.1 -0.1)">
       <defs>
        <path id="DejaVuSans-34" d="M 2419 4116 
L 825 1625 
L 2419 1625 
L 2419 4116 
z
M 2253 4666 
L 3047 4666 
L 3047 1625 
L 3713 1625 
L 3713 1100 
L 3047 1100 
L 3047 0 
L 2419 0 
L 2419 1100 
L 313 1100 
L 313 1709 
L 2253 4666 
z
" transform="scale(0.015625)"/>
       </defs>
       <use xlink:href="#DejaVuSans-34"/>
       <use xlink:href="#DejaVuSans-30" x="63.623047"/>
       <use xlink:href="#DejaVuSans-30" x="127.246094"/>
      </g>
     </g>
    </g>
    <g id="xtick_4">
     <g id="line2d_4">
      <g>
       <use xlink:href="#m33489fc051" x="268.820442" y="276.48" style="stroke: #000000; stroke-width: 0.8"/>
      </g>
     </g>
     <g id="text_4">
      <!-- 600 -->
      <g transform="translate(259.276692 291.078437) scale(0.1 -0.1)">
       <defs>
        <path id="DejaVuSans-36" d="M 2113 2584 
Q 1688 2584 1439 2293 
Q 1191 2003 1191 1497 
Q 1191 994 1439 701 
Q 1688 409 2113 409 
Q 2538 409 2786 701 
Q 3034 994 3034 1497 
Q 3034 2003 2786 2293 
Q 2538 2584 2113 2584 
z
M 3366 4563 
L 3366 3988 
Q 3128 4100 2886 4159 
Q 2644 4219 2406 4219 
Q 1781 4219 1451 3797 
Q 1122 3375 1075 2522 
Q 1259 2794 1537 2939 
Q 1816 3084 2150 3084 
Q 2853 3084 3261 2657 
Q 3669 2231 3669 1497 
Q 3669 778 3244 343 
Q 2819 -91 2113 -91 
Q 1303 -91 875 529 
Q 447 1150 447 2328 
Q 447 3434 972 4092 
Q 1497 4750 2381 4750 
Q 2619 4750 2861 4703 
Q 3103 4656 3366 4563 
z
" transform="scale(0.015625)"/>
       </defs>
       <use xlink:href="#DejaVuSans-36"/>
       <use xlink:href="#DejaVuSans-30" x="63.623047"/>
       <use xlink:href="#DejaVuSans-30" x="127.246094"/>
      </g>
     </g>
    </g>
    <g id="xtick_5">
     <g id="line2d_5">
      <g>
       <use xlink:href="#m33489fc051" x="333.816347" y="276.48" style="stroke: #000000; stroke-width: 0.8"/>
      </g>
     </g>
     <g id="text_5">
      <!-- 800 -->
      <g transform="translate(324.272597 291.078437) scale(0.1 -0.1)">
       <defs>
        <path id="DejaVuSans-38" d="M 2034 2216 
Q 1584 2216 1326 1975 
Q 1069 1734 1069 1313 
Q 1069 891 1326 650 
Q 1584 409 2034 409 
Q 2484 409 2743 651 
Q 3003 894 3003 1313 
Q 3003 1734 2745 1975 
Q 2488 2216 2034 2216 
z
M 1403 2484 
Q 997 2584 770 2862 
Q 544 3141 544 3541 
Q 544 4100 942 4425 
Q 1341 4750 2034 4750 
Q 2731 4750 3128 4425 
Q 3525 4100 3525 3541 
Q 3525 3141 3298 2862 
Q 3072 2584 2669 2484 
Q 3125 2378 3379 2068 
Q 3634 1759 3634 1313 
Q 3634 634 3220 271 
Q 2806 -91 2034 -91 
Q 1263 -91 848 271 
Q 434 634 434 1313 
Q 434 1759 690 2068 
Q 947 2378 1403 2484 
z
M 1172 3481 
Q 1172 3119 1398 2916 
Q 1625 2713 2034 2713 
Q 2441 2713 2670 2916 
Q 2900 3119 2900 3481 
Q 2900 3844 2670 4047 
Q 2441 4250 2034 4250 
Q 1625 4250 1398 4047 
Q 1172 3844 1172 3481 
z
" transform="scale(0.015625)"/>
       </defs>
       <use xlink:href="#DejaVuSans-38"/>
       <use xlink:href="#DejaVuSans-30" x="63.623047"/>
       <use xlink:href="#DejaVuSans-30" x="127.246094"/>
      </g>
     </g>
    </g>
    <g id="xtick_6">
     <g id="line2d_6">
      <g>
       <use xlink:href="#m33489fc051" x="398.812252" y="276.48" style="stroke: #000000; stroke-width: 0.8"/>
      </g>
     </g>
     <g id="text_6">
      <!-- 1000 -->
      <g transform="translate(386.087252 291.078437) scale(0.1 -0.1)">
       <defs>
        <path id="DejaVuSans-31" d="M 794 531 
L 1825 531 
L 1825 4091 
L 703 3866 
L 703 4441 
L 1819 4666 
L 2450 4666 
L 2450 531 
L 3481 531 
L 3481 0 
L 794 0 
L 794 531 
z
" transform="scale(0.015625)"/>
       </defs>
       <use xlink:href="#DejaVuSans-31"/>
       <use xlink:href="#DejaVuSans-30" x="63.623047"/>
       <use xlink:href="#DejaVuSans-30" x="127.246094"/>
       <use xlink:href="#DejaVuSans-30" x="190.869141"/>
      </g>
     </g>
    </g>
   </g>
   <g id="matplotlib.axis_2">
    <g id="ytick_1">
     <g id="line2d_7">
      <defs>
       <path id="m0f51f889f2" d="M 0 0 
L -3.5 0 
" style="stroke: #000000; stroke-width: 0.8"/>
      </defs>
      <g>
       <use xlink:href="#m0f51f889f2" x="57.6" y="267.062057" style="stroke: #000000; stroke-width: 0.8"/>
      </g>
     </g>
     <g id="text_7">
      <!-- 1.0 -->
      <g transform="translate(34.696875 270.861276) scale(0.1 -0.1)">
       <defs>
        <path id="DejaVuSans-2e" d="M 684 794 
L 1344 794 
L 1344 0 
L 684 0 
L 684 794 
z
" transform="scale(0.015625)"/>
       </defs>
       <use xlink:href="#DejaVuSans-31"/>
       <use xlink:href="#DejaVuSans-2e" x="63.623047"/>
       <use xlink:href="#DejaVuSans-30" x="95.410156"/>
      </g>
     </g>
    </g>
    <g id="ytick_2">
     <g id="line2d_8">
      <g>
       <use xlink:href="#m0f51f889f2" x="57.6" y="231.799695" style="stroke: #000000; stroke-width: 0.8"/>
      </g>
     </g>
     <g id="text_8">
      <!-- 1.5 -->
      <g transform="translate(34.696875 235.598914) scale(0.1 -0.1)">
       <defs>
        <path id="DejaVuSans-35" d="M 691 4666 
L 3169 4666 
L 3169 4134 
L 1269 4134 
L 1269 2991 
Q 1406 3038 1543 3061 
Q 1681 3084 1819 3084 
Q 2600 3084 3056 2656 
Q 3513 2228 3513 1497 
Q 3513 744 3044 326 
Q 2575 -91 1722 -91 
Q 1428 -91 1123 -41 
Q 819 9 494 109 
L 494 744 
Q 775 591 1075 516 
Q 1375 441 1709 441 
Q 2250 441 2565 725 
Q 2881 1009 2881 1497 
Q 2881 1984 2565 2268 
Q 2250 2553 1709 2553 
Q 1456 2553 1204 2497 
Q 953 2441 691 2322 
L 691 4666 
z
" transform="scale(0.015625)"/>
       </defs>
       <use xlink:href="#DejaVuSans-31"/>
       <use xlink:href="#DejaVuSans-2e" x="63.623047"/>
       <use xlink:href="#DejaVuSans-35" x="95.410156"/>
      </g>
     </g>
    </g>
    <g id="ytick_3">
     <g id="line2d_9">
      <g>
       <use xlink:href="#m0f51f889f2" x="57.6" y="196.537333" style="stroke: #000000; stroke-width: 0.8"/>
      </g>
     </g>
     <g id="text_9">
      <!-- 2.0 -->
      <g transform="translate(34.696875 200.336552) scale(0.1 -0.1)">
       <use xlink:href="#DejaVuSans-32"/>
       <use xlink:href="#DejaVuSans-2e" x="63.623047"/>
       <use xlink:href="#DejaVuSans-30" x="95.410156"/>
      </g>
     </g>
    </g>
    <g id="ytick_4">
     <g id="line2d_10">
      <g>
       <use xlink:href="#m0f51f889f2" x="57.6" y="161.274972" style="stroke: #000000; stroke-width: 0.8"/>
      </g>
     </g>
     <g id="text_10">
      <!-- 2.5 -->
      <g transform="translate(34.696875 165.074191) scale(0.1 -0.1)">
       <use xlink:href="#DejaVuSans-32"/>
       <use xlink:href="#DejaVuSans-2e" x="63.623047"/>
       <use xlink:href="#DejaVuSans-35" x="95.410156"/>
      </g>
     </g>
    </g>
    <g id="ytick_5">
     <g id="line2d_11">
      <g>
       <use xlink:href="#m0f51f889f2" x="57.6" y="126.01261" style="stroke: #000000; stroke-width: 0.8"/>
      </g>
     </g>
     <g id="text_11">
      <!-- 3.0 -->
      <g transform="translate(34.696875 129.811829) scale(0.1 -0.1)">
       <defs>
        <path id="DejaVuSans-33" d="M 2597 2516 
Q 3050 2419 3304 2112 
Q 3559 1806 3559 1356 
Q 3559 666 3084 287 
Q 2609 -91 1734 -91 
Q 1441 -91 1130 -33 
Q 819 25 488 141 
L 488 750 
Q 750 597 1062 519 
Q 1375 441 1716 441 
Q 2309 441 2620 675 
Q 2931 909 2931 1356 
Q 2931 1769 2642 2001 
Q 2353 2234 1838 2234 
L 1294 2234 
L 1294 2753 
L 1863 2753 
Q 2328 2753 2575 2939 
Q 2822 3125 2822 3475 
Q 2822 3834 2567 4026 
Q 2313 4219 1838 4219 
Q 1578 4219 1281 4162 
Q 984 4106 628 3988 
L 628 4550 
Q 988 4650 1302 4700 
Q 1616 4750 1894 4750 
Q 2613 4750 3031 4423 
Q 3450 4097 3450 3541 
Q 3450 3153 3228 2886 
Q 3006 2619 2597 2516 
z
" transform="scale(0.015625)"/>
       </defs>
       <use xlink:href="#DejaVuSans-33"/>
       <use xlink:href="#DejaVuSans-2e" x="63.623047"/>
       <use xlink:href="#DejaVuSans-30" x="95.410156"/>
      </g>
     </g>
    </g>
    <g id="ytick_6">
     <g id="line2d_12">
      <g>
       <use xlink:href="#m0f51f889f2" x="57.6" y="90.750248" style="stroke: #000000; stroke-width: 0.8"/>
      </g>
     </g>
     <g id="text_12">
      <!-- 3.5 -->
      <g transform="translate(34.696875 94.549467) scale(0.1 -0.1)">
       <use xlink:href="#DejaVuSans-33"/>
       <use xlink:href="#DejaVuSans-2e" x="63.623047"/>
       <use xlink:href="#DejaVuSans-35" x="95.410156"/>
      </g>
     </g>
    </g>
    <g id="ytick_7">
     <g id="line2d_13">
      <g>
       <use xlink:href="#m0f51f889f2" x="57.6" y="55.487887" style="stroke: #000000; stroke-width: 0.8"/>
      </g>
     </g>
     <g id="text_13">
      <!-- 4.0 -->
      <g transform="translate(34.696875 59.287105) scale(0.1 -0.1)">
       <use xlink:href="#DejaVuSans-34"/>
       <use xlink:href="#DejaVuSans-2e" x="63.623047"/>
       <use xlink:href="#DejaVuSans-30" x="95.410156"/>
      </g>
     </g>
    </g>
   </g>
   <g id="line2d_14">
    <path d="M 73.832727 265.797818 
L 74.157707 262.007756 
L 74.482686 262.402506 
L 74.807666 262.054296 
L 75.132645 260.287446 
L 75.457625 259.857863 
L 75.782604 260.668112 
L 76.107584 259.366066 
L 76.432563 255.056098 
L 76.757543 256.780764 
L 77.082523 254.510583 
L 77.407502 256.637824 
L 77.732482 251.328993 
L 78.057461 256.44196 
L 78.382441 252.848122 
L 78.70742 255.152798 
L 79.0324 253.788314 
L 80.007338 246.948855 
L 80.332318 249.325636 
L 80.657297 245.029265 
L 80.982277 248.832469 
L 81.632236 243.26686 
L 81.957215 247.72292 
L 82.932154 241.021958 
L 83.257133 245.021735 
L 83.582113 243.261234 
L 83.907093 239.757161 
L 84.232072 244.261661 
L 84.557052 240.536332 
L 84.882031 238.446251 
L 85.207011 239.355652 
L 85.53199 240.657508 
L 85.85697 242.679371 
L 86.181949 240.921078 
L 86.506929 237.406659 
L 86.831908 236.970205 
L 87.156888 235.918938 
L 87.481867 236.357659 
L 87.806847 234.872653 
L 88.131826 235.389408 
L 88.456806 237.634153 
L 88.781785 237.053632 
L 89.106765 236.755163 
L 89.431744 236.982368 
L 89.756724 236.489248 
L 90.081704 239.777383 
L 90.406683 235.039112 
L 90.731663 239.002997 
L 91.056642 234.219988 
L 91.706601 240.136489 
L 92.35656 234.881366 
L 92.68154 235.016474 
L 93.331499 240.722245 
L 93.656478 237.373465 
L 93.981458 238.432298 
L 94.306437 241.036711 
L 94.631417 236.182269 
L 94.956396 241.862929 
L 95.281376 237.219638 
L 95.606355 238.787207 
L 95.931335 236.313049 
L 96.256314 238.066266 
L 96.581294 239.103072 
L 96.906274 239.229942 
L 97.231253 241.841008 
L 97.556233 239.331375 
L 97.881212 240.61776 
L 98.206192 238.890786 
L 98.856151 244.738421 
L 99.18113 243.404173 
L 99.50611 239.473294 
L 99.831089 242.375915 
L 100.806028 247.083086 
L 101.131007 241.810229 
L 101.455987 242.569583 
L 101.780966 248.268713 
L 102.105946 247.820306 
L 102.430925 243.635073 
L 102.755905 247.737224 
L 103.080885 243.625697 
L 103.730844 251.063962 
L 104.055823 244.624224 
L 104.380803 249.839981 
L 104.705782 249.887862 
L 105.030762 246.912622 
L 105.355741 248.08653 
L 105.680721 252.71894 
L 106.0057 247.797453 
L 106.33068 246.844744 
L 106.655659 253.64421 
L 106.980639 253.594794 
L 107.305618 247.983662 
L 107.630598 254.94965 
L 107.955577 255.005062 
L 108.605536 248.990811 
L 108.930516 255.212665 
L 109.255495 249.430309 
L 109.580475 255.86248 
L 109.905455 251.66729 
L 110.230434 253.990815 
L 110.555414 254.326071 
L 110.880393 250.813628 
L 111.205373 251.495101 
L 111.530352 255.275681 
L 111.855332 253.649758 
L 112.180311 254.606051 
L 112.505291 256.415163 
L 112.83027 255.679384 
L 113.15525 254.386517 
L 113.480229 255.659635 
L 113.805209 255.345121 
L 114.130188 255.51282 
L 114.455168 257.12528 
L 114.780147 251.624933 
L 115.105127 252.897773 
L 115.430106 255.84509 
L 115.755086 255.851492 
L 116.080066 252.1413 
L 116.405045 256.413189 
L 116.730025 252.596878 
L 117.055004 252.00013 
L 117.379984 254.780397 
L 117.704963 252.81863 
L 118.029943 253.20613 
L 118.354922 248.733864 
L 118.679902 254.358778 
L 119.329861 248.099175 
L 119.65484 247.606421 
L 119.97982 251.161042 
L 120.304799 251.236934 
L 120.954758 246.276109 
L 121.279738 251.318239 
L 121.604717 249.390015 
L 121.929697 250.067415 
L 122.254676 248.365533 
L 122.579656 243.684538 
L 122.904636 244.589795 
L 123.229615 245.974725 
L 123.554595 247.88089 
L 123.879574 242.840554 
L 124.204554 247.766807 
L 124.529533 245.893128 
L 124.854513 240.619162 
L 125.179492 245.572152 
L 125.504472 244.832835 
L 125.829451 240.26185 
L 126.154431 243.8026 
L 126.47941 237.230166 
L 126.80439 237.840724 
L 127.129369 239.663039 
L 127.454349 238.883742 
L 127.779328 235.207785 
L 128.104308 234.370367 
L 128.429287 234.032001 
L 128.754267 237.203918 
L 129.079247 235.844824 
L 129.404226 236.346568 
L 129.729206 234.948365 
L 130.054185 237.363936 
L 130.379165 233.163326 
L 130.704144 231.743771 
L 131.029124 236.24548 
L 131.679083 231.079303 
L 132.004062 233.169915 
L 132.329042 229.237155 
L 132.654021 230.710347 
L 132.979001 231.375209 
L 133.30398 232.769232 
L 133.62896 229.77777 
L 133.953939 230.503329 
L 134.278919 225.412794 
L 134.603898 226.510974 
L 134.928878 223.731395 
L 135.253857 228.27605 
L 135.578837 225.693834 
L 135.903817 225.726848 
L 136.228796 223.492641 
L 136.553776 225.629721 
L 136.878755 226.740708 
L 137.203735 226.089204 
L 137.528714 221.430011 
L 137.853694 220.832582 
L 138.178673 224.431304 
L 138.503653 223.095037 
L 138.828632 221.194593 
L 139.153612 226.011623 
L 139.478591 219.680745 
L 139.803571 222.4873 
L 140.12855 219.3474 
L 140.45353 221.352757 
L 140.778509 222.198832 
L 141.103489 221.287598 
L 141.428468 225.15492 
L 141.753448 223.4648 
L 142.078428 220.395699 
L 142.728387 218.632103 
L 143.053366 220.614934 
L 143.378346 223.707379 
L 143.703325 223.111667 
L 144.028305 220.694106 
L 144.353284 221.735493 
L 144.678264 219.903724 
L 145.003243 222.555239 
L 145.328223 220.007524 
L 145.653202 221.341377 
L 145.978182 221.145028 
L 146.303161 219.526117 
L 146.628141 223.043802 
L 146.95312 222.882769 
L 147.2781 220.901513 
L 147.603079 224.087525 
L 147.928059 220.715441 
L 148.902998 226.693125 
L 149.227977 223.54249 
L 149.552957 222.171216 
L 149.877936 227.082112 
L 150.202916 222.557261 
L 150.527895 223.79551 
L 150.852875 229.425592 
L 151.177854 229.376383 
L 151.502834 225.298219 
L 152.152793 230.168945 
L 152.477772 228.010726 
L 152.802752 228.526796 
L 153.452711 231.650069 
L 153.77769 227.650022 
L 154.10267 230.5333 
L 154.427649 230.301653 
L 154.752629 229.466047 
L 155.077609 230.799101 
L 155.402588 233.139915 
L 155.727568 232.068229 
L 156.052547 234.010994 
L 156.377527 234.478613 
L 156.702506 230.615477 
L 157.027486 232.287596 
L 157.352465 231.48162 
L 157.677445 235.096032 
L 158.002424 233.395065 
L 158.327404 235.033673 
L 158.652383 235.161741 
L 158.977363 238.047074 
L 159.302342 232.015827 
L 159.627322 236.938244 
L 159.952301 237.936137 
L 160.277281 234.350787 
L 160.60226 234.224324 
L 160.92724 234.341398 
L 161.252219 235.398697 
L 161.577199 239.989374 
L 161.902179 234.741425 
L 162.227158 236.486816 
L 162.552138 235.281749 
L 163.202097 238.959007 
L 163.527076 234.151923 
L 163.852056 237.724254 
L 164.177035 235.617499 
L 164.502015 239.330994 
L 164.826994 239.329021 
L 165.151974 237.817801 
L 165.476953 233.925456 
L 165.801933 239.165606 
L 166.126912 239.555188 
L 166.451892 239.093354 
L 166.776871 234.21822 
L 167.101851 233.505407 
L 167.75181 237.779225 
L 168.07679 236.926413 
L 168.401769 235.548786 
L 168.726749 232.976776 
L 169.051728 236.782895 
L 169.376708 231.731489 
L 169.701687 236.564962 
L 170.026667 235.85758 
L 170.351646 230.44466 
L 170.676626 230.784863 
L 171.001605 233.932319 
L 171.326585 233.536825 
L 171.651564 230.090152 
L 171.976544 234.106222 
L 172.301523 228.01317 
L 172.626503 229.286696 
L 172.951482 227.955854 
L 173.276462 228.99543 
L 173.601441 226.655937 
L 173.926421 229.955701 
L 174.2514 225.696804 
L 174.57638 227.187651 
L 174.90136 224.765947 
L 175.226339 227.074528 
L 175.551319 227.550516 
L 176.201278 220.513218 
L 176.526257 220.502804 
L 176.851237 219.189419 
L 177.176216 222.855701 
L 177.501196 217.388074 
L 177.826175 219.445148 
L 178.151155 219.815315 
L 178.476134 216.27362 
L 178.801114 218.618404 
L 179.126093 214.499096 
L 179.451073 218.248558 
L 179.776052 214.220504 
L 180.101032 214.761382 
L 180.426011 214.526126 
L 180.750991 211.715922 
L 181.075971 213.995072 
L 181.40095 208.168539 
L 181.72593 211.045859 
L 182.050909 210.517548 
L 182.375889 210.792898 
L 182.700868 204.194066 
L 183.025848 205.225659 
L 183.350827 205.670376 
L 183.675807 204.487991 
L 184.000786 202.157315 
L 184.325766 202.695064 
L 184.650745 200.928412 
L 184.975725 204.531107 
L 185.300704 202.089762 
L 185.625684 200.5824 
L 185.950663 196.314913 
L 186.275643 198.26045 
L 186.600622 197.374004 
L 186.925602 193.811827 
L 187.250581 196.559558 
L 187.575561 194.622295 
L 187.900541 195.932595 
L 188.22552 196.418457 
L 188.5505 195.206093 
L 188.875479 189.653813 
L 189.200459 189.33865 
L 189.525438 187.755893 
L 189.850418 192.766132 
L 190.175397 190.26073 
L 190.500377 191.995446 
L 191.150336 185.755011 
L 191.475315 185.333233 
L 191.800295 188.281483 
L 192.125274 186.55657 
L 192.450254 184.136787 
L 192.775233 185.911609 
L 193.100213 184.292595 
L 193.425192 181.58732 
L 193.750172 182.838228 
L 194.075152 185.109367 
L 194.400131 182.402962 
L 194.725111 185.685847 
L 195.05009 184.583606 
L 195.37507 180.727749 
L 195.700049 180.0049 
L 196.025029 184.251589 
L 196.350008 178.493285 
L 196.674988 177.839331 
L 196.999967 181.009774 
L 197.324947 180.915789 
L 197.649926 179.561173 
L 198.299885 182.913344 
L 198.624865 177.361709 
L 198.949844 177.458152 
L 199.274824 181.708781 
L 199.599803 179.342418 
L 199.924783 179.65957 
L 200.249762 180.322737 
L 200.574742 178.072125 
L 200.899722 176.808491 
L 201.224701 182.490004 
L 201.549681 181.931395 
L 201.87466 178.66581 
L 202.19964 182.779125 
L 202.524619 177.512998 
L 202.849599 179.864179 
L 203.499558 180.918378 
L 203.824537 180.119792 
L 204.149517 184.355982 
L 204.474496 180.751714 
L 204.799476 184.979961 
L 205.124455 178.861567 
L 205.449435 180.705673 
L 205.774414 181.250184 
L 206.424373 185.019489 
L 206.749353 185.244723 
L 207.074333 186.985691 
L 207.724292 180.787249 
L 208.049271 182.080544 
L 208.374251 185.019044 
L 208.69923 186.151351 
L 209.02421 182.594639 
L 209.349189 183.627542 
L 209.674169 188.994468 
L 209.999148 184.495905 
L 210.324128 185.563497 
L 210.649107 184.726279 
L 210.974087 190.065747 
L 211.299066 190.17932 
L 211.624046 186.893374 
L 211.949025 190.06894 
L 212.274005 186.453299 
L 212.598984 186.700171 
L 212.923964 189.21293 
L 213.248943 186.272197 
L 213.573923 187.043589 
L 213.898903 192.255204 
L 214.223882 190.567598 
L 214.548862 193.773471 
L 214.873841 193.697962 
L 215.198821 192.465254 
L 215.5238 194.440939 
L 215.84878 190.578238 
L 216.173759 194.586626 
L 216.498739 195.377265 
L 216.823718 189.516706 
L 217.148698 191.052717 
L 217.473677 189.381977 
L 217.798657 195.008718 
L 218.123636 189.833734 
L 218.448616 195.385007 
L 218.773595 196.54167 
L 219.098575 195.628102 
L 219.423554 190.586339 
L 219.748534 194.585467 
L 220.073514 194.68473 
L 220.398493 195.258457 
L 220.723473 194.56769 
L 221.048452 191.193086 
L 221.373432 193.634417 
L 221.698411 191.564051 
L 222.023391 195.617595 
L 222.34837 194.525866 
L 222.998329 193.989422 
L 223.323309 193.846187 
L 223.973268 189.889462 
L 224.298247 191.808562 
L 224.623227 195.497144 
L 225.273186 191.851865 
L 225.598165 191.954191 
L 225.923145 193.329701 
L 226.248124 193.066375 
L 226.573104 191.171098 
L 226.898084 193.242709 
L 227.223063 193.187184 
L 227.548043 190.063887 
L 227.873022 188.152772 
L 228.198002 187.935564 
L 228.522981 186.227175 
L 228.847961 190.700666 
L 229.17294 184.811912 
L 229.49792 185.418779 
L 229.822899 187.791724 
L 230.472858 185.071475 
L 230.797838 185.243353 
L 231.122817 181.263332 
L 231.447797 185.145788 
L 231.772776 184.727942 
L 232.097756 179.73506 
L 232.422735 179.692655 
L 232.747715 185.059964 
L 233.072695 180.636678 
L 233.397674 178.010617 
L 233.722654 177.76951 
L 234.047633 181.252338 
L 234.372613 178.038591 
L 234.697592 177.806038 
L 235.022572 179.284044 
L 235.347551 174.25325 
L 235.672531 175.617655 
L 235.99751 172.168364 
L 236.647469 177.112001 
L 236.972449 170.824552 
L 237.622408 169.99807 
L 237.947387 170.95702 
L 238.272367 174.758884 
L 238.597346 173.688383 
L 238.922326 168.415835 
L 239.247305 172.171561 
L 239.572285 170.522107 
L 239.897265 171.943953 
L 240.222244 167.789811 
L 240.547224 166.611603 
L 240.872203 167.747792 
L 241.197183 164.071724 
L 241.522162 162.873769 
L 241.847142 167.006874 
L 242.172121 165.667849 
L 242.497101 167.059789 
L 242.82208 166.49763 
L 243.472039 163.756221 
L 243.797019 161.250703 
L 244.121998 163.080406 
L 244.446978 158.244222 
L 244.771957 157.764053 
L 245.096937 161.294531 
L 245.421916 158.447922 
L 246.071876 159.018487 
L 246.396855 158.665451 
L 246.721835 159.604758 
L 247.046814 156.812962 
L 247.371794 157.472535 
L 247.696773 160.99116 
L 248.021753 161.675697 
L 248.671712 154.671246 
L 248.996691 154.507805 
L 249.321671 156.890252 
L 249.64665 156.150423 
L 249.97163 157.537203 
L 250.296609 155.711568 
L 250.621589 157.218815 
L 250.946568 159.515523 
L 251.271548 155.434519 
L 251.596527 158.55105 
L 251.921507 153.747365 
L 252.246486 159.141145 
L 252.571466 158.396689 
L 252.896446 157.323232 
L 253.221425 158.402475 
L 253.546405 160.470373 
L 253.871384 159.711312 
L 254.521343 154.38057 
L 254.846323 159.357261 
L 255.171302 156.872463 
L 255.496282 157.276129 
L 255.821261 156.092566 
L 256.146241 158.169746 
L 256.47122 155.100694 
L 256.7962 158.969748 
L 257.121179 158.763928 
L 257.446159 156.883775 
L 257.771138 156.634634 
L 258.096118 162.08627 
L 258.421097 157.282907 
L 258.746077 158.385292 
L 259.071057 161.751924 
L 259.396036 158.734542 
L 259.721016 159.776729 
L 260.045995 163.284864 
L 260.370975 158.621758 
L 260.695954 165.347446 
L 261.020934 158.99178 
L 261.345913 164.394996 
L 261.670893 165.886445 
L 261.995872 161.482204 
L 262.320852 161.161724 
L 262.645831 160.361014 
L 262.970811 166.938728 
L 263.29579 161.440614 
L 263.945749 168.032462 
L 264.270729 161.799893 
L 264.595708 168.614486 
L 264.920688 167.2438 
L 265.245667 164.820451 
L 265.570647 164.812721 
L 265.895627 167.076855 
L 266.220606 168.294822 
L 266.545586 166.656414 
L 266.870565 168.072332 
L 267.195545 167.500995 
L 267.520524 170.284791 
L 267.845504 171.487676 
L 268.170483 167.586723 
L 268.495463 170.658338 
L 268.820442 170.225662 
L 269.145422 172.032092 
L 269.470401 169.080386 
L 269.795381 171.085315 
L 270.12036 167.836276 
L 270.44534 167.434662 
L 270.770319 166.34981 
L 271.095299 172.067422 
L 271.420278 170.562861 
L 271.745258 172.627489 
L 272.070238 169.746191 
L 272.395217 172.008581 
L 272.720197 171.487368 
L 273.370156 167.287631 
L 273.695135 169.675053 
L 274.020115 171.233991 
L 274.670074 166.660058 
L 274.995053 167.987504 
L 275.320033 171.413409 
L 275.645012 166.681455 
L 275.969992 169.06143 
L 276.294971 165.393481 
L 276.619951 164.068395 
L 276.94493 163.619956 
L 277.26991 163.386802 
L 277.594889 162.834534 
L 277.919869 164.456973 
L 278.244848 164.357004 
L 278.569828 162.930195 
L 278.894808 162.727097 
L 279.219787 160.745634 
L 279.544767 159.866329 
L 279.869746 163.743769 
L 280.194726 162.805615 
L 280.844685 157.687627 
L 281.169664 158.108073 
L 281.494644 157.649217 
L 281.819623 162.666584 
L 282.144603 157.96076 
L 282.469582 159.345265 
L 282.794562 157.841277 
L 283.119541 155.2024 
L 283.444521 154.277894 
L 283.7695 157.444656 
L 284.09448 151.755487 
L 284.419459 153.025748 
L 284.744439 149.630791 
L 285.069419 152.142001 
L 285.394398 151.879583 
L 285.719378 146.928512 
L 286.044357 149.124089 
L 286.369337 147.161028 
L 286.694316 150.316468 
L 287.019296 146.768565 
L 287.669255 145.266674 
L 287.994234 145.053456 
L 288.319214 144.175441 
L 288.644193 139.647474 
L 288.969173 142.041662 
L 289.294152 143.041221 
L 289.619132 137.745035 
L 289.944111 138.017525 
L 290.269091 137.855188 
L 290.59407 135.178679 
L 290.91905 135.957973 
L 291.244029 132.234238 
L 291.569009 132.289728 
L 291.893989 133.101911 
L 292.218968 133.120515 
L 292.543948 131.441561 
L 292.868927 133.853433 
L 293.193907 127.679658 
L 293.518886 127.090334 
L 293.843866 125.818747 
L 294.168845 125.878437 
L 294.493825 126.504382 
L 294.818804 128.057522 
L 295.143784 122.778521 
L 295.468763 124.443936 
L 295.793743 124.312664 
L 296.118722 119.819891 
L 296.443702 118.465193 
L 296.768681 123.159445 
L 297.41864 119.959124 
L 297.74362 116.172987 
L 298.0686 118.337278 
L 298.718559 115.96529 
L 299.043538 117.264268 
L 299.368518 113.639876 
L 299.693497 115.080501 
L 300.018477 115.993614 
L 300.343456 113.750287 
L 300.668436 110.51192 
L 300.993415 115.504586 
L 301.318395 115.180783 
L 301.643374 109.654924 
L 301.968354 113.995968 
L 302.293333 107.475245 
L 302.618313 108.154574 
L 302.943292 110.126194 
L 303.268272 108.637869 
L 303.593251 105.970142 
L 303.918231 110.258396 
L 304.24321 108.593124 
L 304.56819 111.529128 
L 304.89317 109.877228 
L 305.218149 104.554364 
L 305.543129 106.286331 
L 305.868108 104.11562 
L 306.193088 108.056141 
L 306.518067 110.399039 
L 306.843047 104.083696 
L 307.168026 104.020073 
L 307.493006 108.901551 
L 307.817985 107.888605 
L 308.142965 105.721178 
L 308.467944 108.092304 
L 308.792924 109.155689 
L 309.117903 103.274598 
L 309.442883 104.520985 
L 309.767862 104.460316 
L 310.092842 109.583461 
L 310.417821 104.198485 
L 310.742801 107.572003 
L 311.067781 106.516213 
L 311.39276 106.289687 
L 311.71774 104.661147 
L 312.042719 109.77947 
L 312.367699 109.628438 
L 312.692678 106.42291 
L 313.017658 109.288102 
L 313.342637 105.184776 
L 313.667617 106.726335 
L 313.992596 110.329953 
L 314.317576 111.323251 
L 314.642555 109.051751 
L 314.967535 110.682514 
L 315.292514 107.74796 
L 315.617494 107.81433 
L 315.942473 108.048043 
L 316.267453 109.60731 
L 316.592432 107.229089 
L 316.917412 107.761732 
L 317.242391 108.729642 
L 317.567371 111.957551 
L 317.892351 112.95997 
L 318.21733 112.643547 
L 318.54231 114.220446 
L 318.867289 109.751278 
L 319.192269 113.44513 
L 319.517248 110.141792 
L 319.842228 112.806221 
L 320.167207 113.570787 
L 320.492187 111.209635 
L 320.817166 116.934567 
L 321.142146 116.24058 
L 321.467125 112.589664 
L 322.117084 116.806388 
L 322.442064 117.146675 
L 322.767043 118.956733 
L 323.092023 113.178701 
L 323.417002 116.699133 
L 323.741982 113.486699 
L 324.066962 112.940521 
L 324.391941 118.869939 
L 324.716921 119.399778 
L 325.36688 117.070498 
L 325.691859 114.261612 
L 326.016839 113.718457 
L 326.341818 119.39835 
L 326.666798 118.813176 
L 326.991777 114.785418 
L 327.316757 115.224369 
L 327.641736 120.713314 
L 327.966716 116.792277 
L 328.291695 114.706948 
L 328.616675 118.390329 
L 328.941654 119.712584 
L 329.266634 115.169822 
L 329.591613 115.773812 
L 329.916593 114.901682 
L 330.241572 115.247808 
L 330.566552 117.5457 
L 330.891532 114.224753 
L 331.216511 113.901383 
L 331.541491 119.872776 
L 331.86647 114.052242 
L 332.19145 117.836313 
L 332.516429 115.774338 
L 333.166388 114.553827 
L 333.491368 116.830758 
L 333.816347 112.482119 
L 334.141327 114.21906 
L 334.466306 117.326898 
L 334.791286 115.165609 
L 335.441245 113.12313 
L 336.091204 110.924022 
L 336.416183 108.292018 
L 336.741163 108.94862 
L 337.066143 108.769986 
L 337.391122 108.297037 
L 337.716102 109.132335 
L 338.041081 107.171126 
L 338.366061 109.456224 
L 338.69104 108.620132 
L 339.01602 108.916213 
L 339.340999 110.193524 
L 339.665979 109.511867 
L 339.990958 104.740563 
L 340.965897 106.036816 
L 341.290876 102.389384 
L 341.615856 105.596347 
L 341.940835 102.746792 
L 342.265815 104.744244 
L 342.590794 102.503037 
L 342.915774 96.754364 
L 343.240753 99.648296 
L 343.890713 95.513394 
L 344.215692 98.642471 
L 344.540672 93.876756 
L 344.865651 97.126514 
L 345.190631 95.287645 
L 345.51561 92.706063 
L 345.84059 95.456178 
L 346.165569 90.693311 
L 346.490549 91.419604 
L 346.815528 91.857151 
L 347.140508 90.015002 
L 347.465487 93.917046 
L 347.790467 89.457302 
L 348.115446 88.618275 
L 348.440426 86.606507 
L 348.765405 90.226689 
L 349.090385 87.848254 
L 349.415364 90.148091 
L 349.740344 88.843565 
L 350.065324 88.487943 
L 350.390303 85.567625 
L 351.040262 82.988565 
L 351.365242 81.99487 
L 351.690221 80.178182 
L 352.015201 79.572916 
L 352.34018 81.510583 
L 352.66516 84.344894 
L 352.990139 82.482236 
L 353.315119 78.571917 
L 353.640098 80.83533 
L 353.965078 82.044543 
L 354.290057 79.641781 
L 354.615037 81.781376 
L 354.940016 79.030065 
L 355.264996 78.84311 
L 355.589975 81.913688 
L 355.914955 76.001625 
L 356.239934 80.052384 
L 356.889894 81.035887 
L 357.214873 75.776693 
L 357.539853 78.699368 
L 357.864832 77.478858 
L 358.189812 78.113127 
L 358.514791 74.870972 
L 358.839771 79.985185 
L 359.16475 76.720237 
L 359.48973 77.409052 
L 359.814709 77.329125 
L 360.139689 79.602895 
L 360.464668 73.084664 
L 360.789648 76.609041 
L 361.114627 78.416366 
L 361.439607 79.208287 
L 361.764586 75.208974 
L 362.089566 73.72823 
L 362.414545 75.975644 
L 362.739525 72.972658 
L 363.064505 73.99891 
L 363.714464 79.999241 
L 364.039443 75.175943 
L 364.364423 75.816107 
L 364.689402 78.096136 
L 365.014382 77.605592 
L 365.339361 74.478583 
L 365.664341 78.061416 
L 365.98932 77.620733 
L 366.3143 77.420182 
L 366.639279 79.125433 
L 366.964259 81.765745 
L 367.289238 82.155826 
L 367.614218 78.974456 
L 367.939197 81.405322 
L 368.264177 80.367892 
L 368.589156 78.738501 
L 368.914136 79.455526 
L 369.239115 82.392447 
L 369.564095 83.57076 
L 369.889075 83.222536 
L 370.214054 79.755062 
L 370.539034 83.64655 
L 370.864013 82.844214 
L 371.513972 83.184266 
L 371.838952 83.034562 
L 372.163931 81.513145 
L 372.488911 82.972246 
L 372.81389 82.713555 
L 373.13887 81.767638 
L 373.463849 83.81322 
L 373.788829 80.619418 
L 374.113808 83.243863 
L 374.438788 81.37216 
L 374.763767 83.265222 
L 375.088747 82.209096 
L 375.413726 86.667864 
L 375.738706 83.564731 
L 376.388665 87.900933 
L 376.713645 86.763722 
L 377.038624 86.428914 
L 377.363604 87.439028 
L 377.688583 83.753764 
L 378.013563 82.921461 
L 378.338542 85.382711 
L 378.663522 82.626245 
L 378.988501 88.641236 
L 379.313481 82.793518 
L 379.63846 88.72817 
L 379.96344 85.709366 
L 380.288419 88.191046 
L 380.613399 88.701825 
L 380.938378 87.518311 
L 381.263358 84.557284 
L 381.588337 87.267088 
L 381.913317 87.759673 
L 382.238296 82.813955 
L 382.563276 83.983173 
L 382.888256 84.413848 
L 383.213235 86.573087 
L 383.538215 84.425836 
L 383.863194 86.364277 
L 384.188174 83.429514 
L 384.513153 86.382673 
L 384.838133 80.827089 
L 385.163112 80.092425 
L 385.488092 84.999323 
L 385.813071 82.778882 
L 386.138051 79.419767 
L 386.46303 79.673856 
L 386.78801 81.977276 
L 387.112989 78.429763 
L 387.437969 80.96712 
L 387.762948 75.760418 
L 388.087928 81.144218 
L 388.412907 77.612555 
L 388.737887 78.866618 
L 389.387846 72.22906 
L 389.712826 77.137118 
L 390.037805 73.81032 
L 390.362785 75.785384 
L 390.687764 70.184052 
L 391.012744 75.580082 
L 391.337723 68.084886 
L 391.662703 67.823374 
L 391.987682 69.304847 
L 392.312662 66.194975 
L 392.637641 70.458418 
L 392.962621 64.601764 
L 393.2876 69.70892 
L 393.61258 65.401236 
L 393.937559 65.446768 
L 394.262539 63.041357 
L 394.587518 63.8388 
L 394.912498 61.450994 
L 395.237477 60.026162 
L 395.562457 57.70689 
L 395.887437 59.49561 
L 396.212416 56.429958 
L 396.537396 56.433265 
L 396.862375 53.665367 
L 397.187355 57.426622 
L 397.512334 58.315024 
L 397.837314 52.154182 
L 398.162293 55.548118 
L 398.487273 55.232938 
L 398.487273 55.232938 
" clip-path="url(#p8b78e4dd62)" style="fill: none; stroke: #1f77b4; stroke-width: 1.5; stroke-linecap: square"/>
   </g>
   <g id="line2d_15">
    <path d="M 73.832727 265.797818 
L 74.482686 264.805288 
L 74.807666 264.39264 
L 75.457625 263.189011 
L 76.107584 262.294155 
L 76.432563 261.208446 
L 77.407502 259.189025 
L 77.732482 258.01002 
L 78.057461 257.774811 
L 78.382441 257.035808 
L 78.70742 256.753356 
L 79.0324 256.3086 
L 79.682359 254.625637 
L 80.007338 253.474119 
L 80.332318 252.851847 
L 80.657297 251.67846 
L 80.982277 251.251561 
L 81.632236 249.33332 
L 81.957215 249.09176 
L 82.282195 248.540015 
L 82.932154 246.74262 
L 83.257133 246.484487 
L 83.582113 246.000999 
L 83.907093 245.064423 
L 84.232072 244.944009 
L 85.53199 242.478294 
L 85.85697 242.508455 
L 86.181949 242.270349 
L 87.806847 238.849418 
L 88.131826 238.330417 
L 88.781785 238.050125 
L 89.756724 237.539513 
L 90.081704 237.875194 
L 90.406683 237.449781 
L 90.731663 237.682764 
L 91.056642 237.163347 
L 91.381622 237.137142 
L 91.706601 237.587044 
L 92.031581 237.509739 
L 92.68154 236.800632 
L 93.006519 236.949237 
L 93.331499 237.515189 
L 93.656478 237.49393 
L 93.981458 237.634685 
L 94.306437 238.144989 
L 94.631417 237.850581 
L 94.956396 238.452433 
L 95.281376 238.267514 
L 95.606355 238.345468 
L 95.931335 238.040605 
L 96.256314 238.044454 
L 96.906274 238.357251 
L 97.231253 238.879815 
L 97.556233 238.947549 
L 97.881212 239.19808 
L 98.206192 239.151986 
L 98.531171 239.627649 
L 98.856151 240.394265 
L 99.18113 240.845751 
L 99.50611 240.639882 
L 99.831089 240.900287 
L 100.481048 242.011342 
L 100.806028 242.772104 
L 101.131007 242.627822 
L 101.455987 242.619086 
L 102.105946 244.119597 
L 102.430925 244.046918 
L 102.755905 244.600464 
L 103.080885 244.454249 
L 103.405864 244.993023 
L 103.730844 245.903664 
L 104.055823 245.711748 
L 104.705782 246.864515 
L 105.030762 246.871731 
L 105.355741 247.053951 
L 105.680721 247.903699 
L 106.0057 247.887762 
L 106.33068 247.731309 
L 106.980639 249.364727 
L 107.305618 249.157567 
L 107.955577 250.773182 
L 108.280557 250.958157 
L 108.605536 250.663055 
L 108.930516 251.345497 
L 109.255495 251.058218 
L 109.580475 251.778858 
L 109.905455 251.762122 
L 110.555414 252.430873 
L 111.205373 252.084308 
L 111.530352 252.563014 
L 112.180311 253.00803 
L 112.83027 253.843142 
L 113.15525 253.924649 
L 113.805209 254.35893 
L 114.130188 254.532014 
L 114.455168 254.921004 
L 114.780147 254.426593 
L 115.105127 254.19727 
L 115.755086 254.6555 
L 116.080066 254.27837 
L 116.405045 254.598593 
L 117.055004 253.953605 
L 117.379984 254.077624 
L 118.029943 253.786378 
L 118.354922 253.028501 
L 118.679902 253.228043 
L 119.004881 252.8506 
L 119.65484 251.458166 
L 120.304799 251.387098 
L 120.629779 250.915374 
L 120.954758 250.219484 
L 121.279738 250.384298 
L 121.604717 250.235155 
L 121.929697 250.209994 
L 122.254676 249.933325 
L 122.904636 248.335075 
L 123.229615 247.981023 
L 123.554595 247.966003 
L 123.879574 247.197185 
L 124.204554 247.282629 
L 124.529533 247.074204 
L 124.854513 246.105947 
L 125.504472 245.846922 
L 125.829451 245.009161 
L 126.154431 244.828177 
L 126.80439 242.811312 
L 127.454349 241.820772 
L 128.429287 238.985847 
L 128.754267 238.718558 
L 129.729206 237.539159 
L 130.054185 237.512876 
L 130.704144 236.092942 
L 131.029124 236.115823 
L 131.354103 235.7392 
L 131.679083 235.040215 
L 132.004062 234.75967 
L 132.329042 233.931293 
L 132.979001 233.13721 
L 133.30398 233.082013 
L 133.953939 232.27392 
L 134.928878 229.514191 
L 135.253857 229.32847 
L 136.553776 227.304445 
L 137.203735 227.050283 
L 137.853694 225.401043 
L 138.178673 225.255582 
L 138.503653 224.9315 
L 138.828632 224.370964 
L 139.153612 224.617063 
L 139.478591 223.876615 
L 139.803571 223.668218 
L 140.12855 223.020095 
L 140.45353 222.769995 
L 140.778509 222.68432 
L 141.103489 222.474812 
L 141.428468 222.876828 
L 141.753448 222.965024 
L 142.403407 222.110163 
L 142.728387 221.588454 
L 143.053366 221.442426 
L 143.703325 221.981594 
L 144.028305 221.788471 
L 144.353284 221.780524 
L 144.678264 221.499004 
L 145.003243 221.657439 
L 145.328223 221.409952 
L 145.978182 221.36147 
L 146.303161 221.086167 
L 146.95312 221.605256 
L 147.2781 221.499694 
L 147.603079 221.887869 
L 147.928059 221.712005 
L 148.253038 221.864436 
L 148.902998 223.037469 
L 149.227977 223.113222 
L 149.552957 222.971921 
L 149.877936 223.58845 
L 150.202916 223.433771 
L 150.527895 223.488032 
L 151.177854 225.128324 
L 151.502834 225.153808 
L 151.827813 225.508663 
L 152.152793 226.207706 
L 152.802752 226.785454 
L 153.127731 227.247791 
L 153.452711 227.908132 
L 153.77769 227.869416 
L 154.427649 228.573897 
L 154.752629 228.707719 
L 155.077609 229.021427 
L 155.402588 229.6392 
L 155.727568 230.003554 
L 156.377527 231.185762 
L 156.702506 231.100219 
L 157.027486 231.278325 
L 157.352465 231.30882 
L 157.677445 231.876901 
L 158.002424 232.104626 
L 158.652383 232.936647 
L 158.977363 233.703211 
L 159.302342 233.450103 
L 159.952301 234.567746 
L 160.92724 234.466495 
L 161.252219 234.606325 
L 161.577199 235.413782 
L 161.902179 235.312929 
L 162.227158 235.489012 
L 162.552138 235.457922 
L 162.877117 235.691136 
L 163.202097 236.181317 
L 163.527076 235.876908 
L 163.852056 236.15401 
L 164.177035 236.073533 
L 164.826994 236.977182 
L 165.151974 237.103275 
L 165.476953 236.626602 
L 166.451892 237.645174 
L 167.101851 236.587273 
L 167.42683 236.504532 
L 167.75181 236.695736 
L 168.07679 236.730337 
L 168.401769 236.553105 
L 168.726749 236.016655 
L 169.051728 236.131591 
L 169.376708 235.471576 
L 169.701687 235.635584 
L 170.026667 235.668883 
L 170.676626 234.270192 
L 171.326585 234.117108 
L 171.651564 233.513065 
L 171.976544 233.602038 
L 172.301523 232.763708 
L 173.601441 230.525738 
L 173.926421 230.440232 
L 174.2514 229.728718 
L 174.57638 229.347558 
L 174.90136 228.660316 
L 175.551319 228.291658 
L 175.876298 227.711207 
L 176.851237 224.733785 
L 177.176216 224.452073 
L 177.501196 223.392473 
L 178.801114 221.017412 
L 179.126093 220.039664 
L 179.451073 219.770999 
L 180.101032 218.311868 
L 180.426011 217.744007 
L 180.750991 216.839794 
L 181.075971 216.413086 
L 181.40095 215.176404 
L 182.375889 213.477226 
L 183.025848 211.055888 
L 183.675807 209.384051 
L 184.650745 206.479662 
L 184.975725 206.187378 
L 185.625684 204.824185 
L 185.950663 203.547795 
L 186.600622 201.94759 
L 186.925602 200.727225 
L 188.22552 198.424053 
L 188.5505 197.941359 
L 189.525438 194.418531 
L 189.850418 194.170671 
L 190.175397 193.58418 
L 190.500377 193.34587 
L 190.825356 192.706696 
L 191.475315 190.714337 
L 191.800295 190.349409 
L 192.125274 189.780483 
L 192.450254 188.933929 
L 193.100213 187.852383 
L 193.750172 186.301464 
L 194.075152 186.122649 
L 194.400131 185.564696 
L 194.725111 185.582869 
L 195.05009 185.432979 
L 195.700049 184.018851 
L 196.025029 184.053761 
L 196.674988 182.412636 
L 197.324947 182.009244 
L 197.649926 181.642034 
L 197.974906 181.547608 
L 198.299885 181.752469 
L 198.949844 180.548499 
L 199.274824 180.722542 
L 199.924783 180.38713 
L 200.249762 180.377471 
L 200.899722 179.548192 
L 201.549681 180.280754 
L 201.87466 180.038512 
L 202.19964 180.449604 
L 202.524619 180.009113 
L 203.174578 180.041665 
L 203.499558 180.173172 
L 203.824537 180.165165 
L 204.149517 180.793787 
L 204.474496 180.787476 
L 204.799476 181.416349 
L 205.124455 181.033132 
L 205.774414 181.023939 
L 206.099394 181.37017 
L 207.074333 183.101999 
L 207.399312 183.158388 
L 207.724292 182.802717 
L 208.049271 182.694391 
L 208.69923 183.509328 
L 209.02421 183.372125 
L 209.349189 183.410438 
L 209.674169 184.248042 
L 209.999148 184.285222 
L 210.324128 184.476963 
L 210.649107 184.51436 
L 211.299066 186.071906 
L 211.624046 186.195126 
L 211.949025 186.776198 
L 212.598984 186.723625 
L 212.923964 187.09702 
L 213.248943 186.973297 
L 213.573923 186.983841 
L 213.898903 187.774545 
L 214.223882 188.193503 
L 214.873841 189.730618 
L 215.198821 190.140813 
L 215.5238 190.785832 
L 215.84878 190.754693 
L 216.498739 191.93665 
L 216.823718 191.573659 
L 217.148698 191.495517 
L 217.473677 191.178486 
L 217.798657 191.753021 
L 218.123636 191.465128 
L 219.098575 193.16165 
L 219.423554 192.775353 
L 220.723473 193.734474 
L 221.048452 193.353266 
L 221.373432 193.395438 
L 221.698411 193.12073 
L 222.023391 193.49526 
L 222.67335 193.734278 
L 223.323309 193.783596 
L 223.648288 193.507687 
L 223.973268 192.964953 
L 224.298247 192.791495 
L 224.623227 193.197342 
L 224.948206 193.232264 
L 225.598165 192.864552 
L 226.248124 192.954132 
L 226.573104 192.686677 
L 227.223063 192.832647 
L 227.548043 192.417333 
L 228.522981 190.455212 
L 228.847961 190.49203 
L 229.49792 189.006827 
L 229.822899 188.824562 
L 230.472858 187.959449 
L 230.797838 187.552035 
L 231.122817 186.60873 
L 231.772776 186.140086 
L 232.422735 184.356331 
L 232.747715 184.461876 
L 233.072695 183.888096 
L 233.722654 182.22093 
L 234.047633 182.075641 
L 234.697592 180.920477 
L 235.022572 180.675012 
L 235.347551 179.711747 
L 235.672531 179.097634 
L 235.99751 178.058243 
L 236.32249 177.530031 
L 236.647469 177.467326 
L 237.622408 174.724663 
L 237.947387 174.159516 
L 238.272367 174.249421 
L 238.597346 174.165266 
L 238.922326 173.302851 
L 239.247305 173.133158 
L 239.572285 172.7415 
L 239.897265 172.621868 
L 241.197183 169.621416 
L 241.522162 168.609269 
L 241.847142 168.36891 
L 242.172121 167.963751 
L 242.82208 167.628577 
L 243.14706 167.272925 
L 243.472039 166.74542 
L 243.797019 165.921212 
L 244.121998 165.495091 
L 244.771957 163.41095 
L 245.096937 163.093487 
L 245.746896 161.851708 
L 246.396855 161.012534 
L 246.721835 160.801368 
L 247.371794 159.793521 
L 248.021753 160.228546 
L 248.346732 159.943655 
L 248.996691 158.456046 
L 250.296609 157.533111 
L 250.621589 157.485966 
L 250.946568 157.7904 
L 251.271548 157.437018 
L 251.596527 157.604123 
L 251.921507 157.025609 
L 252.246486 157.342939 
L 252.571466 157.501002 
L 252.896446 157.474336 
L 253.221425 157.613557 
L 253.871384 158.292464 
L 254.196364 158.025142 
L 254.521343 157.478456 
L 254.846323 157.760277 
L 255.821261 157.352175 
L 256.146241 157.47481 
L 256.47122 157.118693 
L 257.121179 157.601488 
L 257.771138 157.364951 
L 258.096118 158.073149 
L 258.421097 157.954613 
L 258.746077 158.019215 
L 259.071057 158.579121 
L 259.396036 158.602434 
L 259.721016 158.778578 
L 260.045995 159.454521 
L 260.370975 159.329607 
L 260.695954 160.232283 
L 261.020934 160.046207 
L 261.670893 161.476713 
L 262.320852 161.430165 
L 262.645831 161.269793 
L 262.970811 162.120133 
L 263.29579 162.018205 
L 263.62077 162.467259 
L 263.945749 163.302039 
L 264.270729 163.076717 
L 264.595708 163.907383 
L 264.920688 164.407845 
L 265.570647 164.521184 
L 266.870565 165.970491 
L 267.195545 166.200067 
L 267.845504 167.514011 
L 268.170483 167.524917 
L 269.145422 168.884923 
L 269.470401 168.914242 
L 269.795381 169.239903 
L 270.44534 168.790155 
L 270.770319 168.424103 
L 271.095299 168.970601 
L 271.420278 169.20944 
L 271.745258 169.722147 
L 272.070238 169.725754 
L 272.720197 170.281056 
L 273.045176 170.09855 
L 273.370156 169.676912 
L 273.695135 169.676633 
L 274.020115 169.910237 
L 274.345094 169.717696 
L 274.670074 169.25905 
L 274.995053 169.068319 
L 275.320033 169.420082 
L 275.645012 169.009288 
L 275.969992 169.017109 
L 276.94493 167.183864 
L 277.594889 166.047339 
L 278.244848 165.591017 
L 278.894808 164.822174 
L 279.544767 163.559039 
L 279.869746 163.586748 
L 280.194726 163.469578 
L 280.519705 162.924624 
L 281.169664 161.534424 
L 281.494644 160.951643 
L 281.819623 161.208884 
L 282.144603 160.721666 
L 282.469582 160.515206 
L 282.794562 160.114116 
L 283.444521 158.612439 
L 283.7695 158.437272 
L 284.744439 155.702192 
L 285.394398 154.674876 
L 285.719378 153.512922 
L 288.319214 148.135423 
L 288.644193 146.862231 
L 289.619132 144.485044 
L 292.543948 136.086063 
L 292.868927 135.751169 
L 294.168845 131.32172 
L 294.493825 130.599119 
L 294.818804 130.21788 
L 295.143784 129.101976 
L 295.793743 127.789679 
L 296.443702 125.374858 
L 297.093661 124.551743 
L 297.41864 123.86285 
L 297.74362 122.70937 
L 298.393579 121.283367 
L 298.718559 120.485655 
L 299.043538 120.002447 
L 299.368518 119.048061 
L 300.343456 117.433969 
L 300.668436 116.395662 
L 301.318395 116.099818 
L 301.643374 115.133084 
L 301.968354 114.962516 
L 302.618313 112.986698 
L 303.268272 111.969659 
L 303.593251 111.069732 
L 303.918231 110.948031 
L 304.24321 110.594795 
L 304.56819 110.734945 
L 304.89317 110.606288 
L 305.218149 109.698499 
L 305.543129 109.186674 
L 305.868108 108.426016 
L 306.193088 108.370535 
L 306.518067 108.67481 
L 307.168026 107.391233 
L 307.493006 107.61778 
L 307.817985 107.658404 
L 308.142965 107.36782 
L 308.467944 107.476493 
L 308.792924 107.728372 
L 309.117903 107.060306 
L 309.767862 106.346544 
L 310.092842 106.832082 
L 310.417821 106.437042 
L 310.742801 106.607286 
L 311.39276 106.548035 
L 311.71774 106.265002 
L 312.367699 107.217612 
L 312.692678 107.098406 
L 313.017658 107.426861 
L 313.342637 107.090548 
L 313.667617 107.035916 
L 314.317576 108.099006 
L 314.642555 108.241918 
L 314.967535 108.608007 
L 315.942473 108.329611 
L 316.267453 108.521266 
L 316.917412 108.242583 
L 317.242391 108.315642 
L 318.54231 110.591988 
L 318.867289 110.465881 
L 319.192269 110.912769 
L 319.517248 110.797122 
L 320.167207 111.469332 
L 320.492187 111.430377 
L 321.142146 112.853692 
L 321.467125 112.814088 
L 321.792105 113.153245 
L 322.767043 114.92884 
L 323.092023 114.666319 
L 323.417002 114.971241 
L 324.066962 114.477354 
L 324.716921 115.775772 
L 325.0419 116.16971 
L 325.36688 116.304828 
L 326.016839 115.656363 
L 326.666798 116.606988 
L 327.316757 116.167345 
L 327.641736 116.849241 
L 327.966716 116.840696 
L 328.291695 116.520634 
L 328.616675 116.801088 
L 328.941654 117.237813 
L 329.591613 116.754544 
L 330.241572 116.292293 
L 330.566552 116.480304 
L 331.216511 115.805883 
L 331.541491 116.415917 
L 331.86647 116.061366 
L 332.19145 116.327608 
L 332.841409 116.087166 
L 333.166388 115.857165 
L 333.491368 116.003204 
L 333.816347 115.475041 
L 334.141327 115.286644 
L 334.466306 115.592682 
L 334.791286 115.528621 
L 335.116265 115.339052 
L 335.766224 114.574094 
L 336.091204 114.026583 
L 336.741163 112.533732 
L 337.391122 111.41835 
L 337.716102 111.075448 
L 338.041081 110.489799 
L 339.340999 109.946889 
L 339.665979 109.881636 
L 340.315938 108.527503 
L 340.965897 107.810204 
L 341.290876 106.997081 
L 341.615856 106.786971 
L 341.940835 106.180944 
L 342.265815 105.965439 
L 342.590794 105.446079 
L 342.915774 104.142322 
L 343.565733 102.56811 
L 343.890713 101.509903 
L 344.215692 101.079788 
L 344.540672 99.999333 
L 344.865651 99.56841 
L 345.190631 98.926295 
L 345.51561 97.993261 
L 345.84059 97.612698 
L 346.490549 95.801512 
L 347.140508 94.43063 
L 347.465487 94.353592 
L 348.765405 91.674198 
L 349.090385 91.100307 
L 349.415364 90.957474 
L 350.065324 90.317521 
L 351.040262 87.91631 
L 352.34018 84.507573 
L 352.66516 84.483171 
L 352.990139 84.183031 
L 353.315119 83.341364 
L 353.640098 82.965459 
L 353.965078 82.827322 
L 354.290057 82.34949 
L 354.615037 82.264273 
L 355.264996 81.338737 
L 355.589975 81.42498 
L 355.914955 80.611477 
L 356.564914 80.521915 
L 356.889894 80.599011 
L 357.214873 79.875663 
L 357.539853 79.699219 
L 358.189812 79.178209 
L 358.514791 78.532123 
L 358.839771 78.750083 
L 359.48973 78.290123 
L 359.814709 78.145973 
L 360.139689 78.364511 
L 360.464668 77.572534 
L 360.789648 77.42801 
L 361.439607 77.821067 
L 363.064505 75.848017 
L 363.389484 76.033866 
L 363.714464 76.628673 
L 364.364423 76.321565 
L 365.014382 76.740427 
L 365.339361 76.40115 
L 365.98932 76.795772 
L 366.3143 76.889433 
L 366.639279 77.224833 
L 367.289238 78.543448 
L 367.614218 78.6081 
L 367.939197 79.027683 
L 368.264177 79.228714 
L 368.589156 79.155182 
L 368.914136 79.200234 
L 369.889075 80.706777 
L 370.214054 80.56402 
L 370.864013 81.299072 
L 371.838952 81.981457 
L 372.163931 81.91121 
L 372.81389 82.166844 
L 373.13887 82.106963 
L 373.463849 82.362902 
L 373.788829 82.101379 
L 374.113808 82.272752 
L 374.438788 82.137663 
L 374.763767 82.306797 
L 375.088747 82.292142 
L 375.413726 82.9485 
L 375.738706 83.040935 
L 376.063686 83.420866 
L 376.388665 84.092876 
L 377.363604 85.182097 
L 378.013563 84.660889 
L 378.338542 84.769162 
L 378.663522 84.447725 
L 378.988501 85.076751 
L 379.313481 84.734266 
L 379.63846 85.333352 
L 379.96344 85.389754 
L 380.613399 86.243729 
L 380.938378 86.434917 
L 381.263358 86.153272 
L 381.913317 86.536243 
L 382.238296 85.9779 
L 382.888256 85.488965 
L 383.213235 85.651583 
L 383.538215 85.467721 
L 383.863194 85.602204 
L 384.188174 85.276301 
L 384.513153 85.442257 
L 385.163112 84.051348 
L 385.488092 84.193544 
L 385.813071 83.981345 
L 386.46303 82.75362 
L 386.78801 82.637169 
L 387.112989 82.006058 
L 387.437969 81.850217 
L 387.762948 80.936747 
L 388.087928 80.967868 
L 388.412907 80.464571 
L 388.737887 80.224878 
L 389.062867 79.535575 
L 389.387846 78.439598 
L 389.712826 78.244226 
L 390.037805 77.57914 
L 390.362785 77.310077 
L 390.687764 76.241173 
L 391.012744 76.142009 
L 391.662703 73.866931 
L 391.987682 73.182618 
L 392.312662 72.134472 
L 392.637641 71.883064 
L 392.962621 70.790869 
L 393.2876 70.628577 
L 395.237477 65.679655 
L 395.562457 64.48374 
L 395.887437 63.735521 
L 396.862375 60.50222 
L 397.187355 60.04088 
L 397.512334 59.782002 
L 397.837314 58.637829 
L 398.487273 57.733157 
L 398.487273 57.733157 
" clip-path="url(#p8b78e4dd62)" style="fill: none; stroke: #ff7f0e; stroke-width: 1.5; stroke-linecap: square"/>
   </g>
   <g id="patch_3">
    <path d="M 57.6 276.48 
L 57.6 41.472 
" style="fill: none; stroke: #000000; stroke-width: 0.8; stroke-linejoin: miter; stroke-linecap: square"/>
   </g>
   <g id="patch_4">
    <path d="M 414.72 276.48 
L 414.72 41.472 
" style="fill: none; stroke: #000000; stroke-width: 0.8; stroke-linejoin: miter; stroke-linecap: square"/>
   </g>
   <g id="patch_5">
    <path d="M 57.6 276.48 
L 414.72 276.48 
" style="fill: none; stroke: #000000; stroke-width: 0.8; stroke-linejoin: miter; stroke-linecap: square"/>
   </g>
   <g id="patch_6">
    <path d="M 57.6 41.472 
L 414.72 41.472 
" style="fill: none; stroke: #000000; stroke-width: 0.8; stroke-linejoin: miter; stroke-linecap: square"/>
   </g>
  </g>
  <g id="axes_2">
   <g id="patch_7">
    <path d="M 115.2 308.448 
L 414.72 308.448 
L 414.72 303.264 
L 115.2 303.264 
z
" clip-path="url(#pe8c24ae67b)" style="fill: #d3d3d3"/>
   </g>
   <g id="patch_8">
    <path d="M 115.2 308.448 
L 160.128 308.448 
L 160.128 303.264 
L 115.2 303.264 
z
" clip-path="url(#pe8c24ae67b)" style="fill: #1f77b4"/>
   </g>
   <g id="line2d_16">
    <path d="M 160.128 311.04 
L 160.128 300.672 
" clip-path="url(#p9057a9b8f9)" style="fill: none; stroke: #ff0000; stroke-linecap: square"/>
   </g>
   <g id="line2d_17">
    <defs>
     <path id="mbb15fd7cc1" d="M 0 5 
C 1.326016 5 2.597899 4.473168 3.535534 3.535534 
C 4.473168 2.597899 5 1.326016 5 0 
C 5 -1.326016 4.473168 -2.597899 3.535534 -3.535534 
C 2.597899 -4.473168 1.326016 -5 0 -5 
C -1.326016 -5 -2.597899 -4.473168 -3.535534 -3.535534 
C -4.473168 -2.597899 -5 -1.326016 -5 0 
C -5 1.326016 -4.473168 2.597899 -3.535534 3.535534 
C -2.597899 4.473168 -1.326016 5 0 5 
z
" style="stroke: #bfbfbf"/>
    </defs>
    <g>
     <use xlink:href="#mbb15fd7cc1" x="160.128" y="305.856" style="fill: #ffffff; stroke: #bfbfbf"/>
    </g>
   </g>
   <g id="text_14">
    <!-- Alpha -->
    <g transform="translate(80.776787 308.615375) scale(0.1 -0.1)">
     <defs>
      <path id="DejaVuSans-41" d="M 2188 4044 
L 1331 1722 
L 3047 1722 
L 2188 4044 
z
M 1831 4666 
L 2547 4666 
L 4325 0 
L 3669 0 
L 3244 1197 
L 1141 1197 
L 716 0 
L 50 0 
L 1831 4666 
z
" transform="scale(0.015625)"/>
      <path id="DejaVuSans-6c" d="M 603 4863 
L 1178 4863 
L 1178 0 
L 603 0 
L 603 4863 
z
" transform="scale(0.015625)"/>
      <path id="DejaVuSans-70" d="M 1159 525 
L 1159 -1331 
L 581 -1331 
L 581 3500 
L 1159 3500 
L 1159 2969 
Q 1341 3281 1617 3432 
Q 1894 3584 2278 3584 
Q 2916 3584 3314 3078 
Q 3713 2572 3713 1747 
Q 3713 922 3314 415 
Q 2916 -91 2278 -91 
Q 1894 -91 1617 61 
Q 1341 213 1159 525 
z
M 3116 1747 
Q 3116 2381 2855 2742 
Q 2594 3103 2138 3103 
Q 1681 3103 1420 2742 
Q 1159 2381 1159 1747 
Q 1159 1113 1420 752 
Q 1681 391 2138 391 
Q 2594 391 2855 752 
Q 3116 1113 3116 1747 
z
" transform="scale(0.015625)"/>
      <path id="DejaVuSans-68" d="M 3513 2113 
L 3513 0 
L 2938 0 
L 2938 2094 
Q 2938 2591 2744 2837 
Q 2550 3084 2163 3084 
Q 1697 3084 1428 2787 
Q 1159 2491 1159 1978 
L 1159 0 
L 581 0 
L 581 4863 
L 1159 4863 
L 1159 2956 
Q 1366 3272 1645 3428 
Q 1925 3584 2291 3584 
Q 2894 3584 3203 3211 
Q 3513 2838 3513 2113 
z
" transform="scale(0.015625)"/>
      <path id="DejaVuSans-61" d="M 2194 1759 
Q 1497 1759 1228 1600 
Q 959 1441 959 1056 
Q 959 750 1161 570 
Q 1363 391 1709 391 
Q 2188 391 2477 730 
Q 2766 1069 2766 1631 
L 2766 1759 
L 2194 1759 
z
M 3341 1997 
L 3341 0 
L 2766 0 
L 2766 531 
Q 2569 213 2275 61 
Q 1981 -91 1556 -91 
Q 1019 -91 701 211 
Q 384 513 384 1019 
Q 384 1609 779 1909 
Q 1175 2209 1959 2209 
L 2766 2209 
L 2766 2266 
Q 2766 2663 2505 2880 
Q 2244 3097 1772 3097 
Q 1472 3097 1187 3025 
Q 903 2953 641 2809 
L 641 3341 
Q 956 3463 1253 3523 
Q 1550 3584 1831 3584 
Q 2591 3584 2966 3190 
Q 3341 2797 3341 1997 
z
" transform="scale(0.015625)"/>
     </defs>
     <use xlink:href="#DejaVuSans-41"/>
     <use xlink:href="#DejaVuSans-6c" x="68.408203"/>
     <use xlink:href="#DejaVuSans-70" x="96.191406"/>
     <use xlink:href="#DejaVuSans-68" x="159.667969"/>
     <use xlink:href="#DejaVuSans-61" x="223.046875"/>
    </g>
   </g>
   <g id="text_15">
    <!-- $\mathdefault{0.15}$ -->
    <g transform="translate(420.7104 308.615375) scale(0.1 -0.1)">
     <use xlink:href="#DejaVuSans-30" transform="translate(0 0.78125)"/>
     <use xlink:href="#DejaVuSans-2e" transform="translate(63.623047 0.78125)"/>
     <use xlink:href="#DejaVuSans-31" transform="translate(95.410156 0.78125)"/>
     <use xlink:href="#DejaVuSans-35" transform="translate(159.033203 0.78125)"/>
    </g>
   </g>
  </g>
 </g>
 <defs>
  <clipPath id="p8b78e4dd62">
   <rect x="57.6" y="41.472" width="357.12" height="235.008"/>
  </clipPath>
  <clipPath id="pe8c24ae67b">
   <rect x="115.2" y="300.672" width="299.52" height="10.368"/>
  </clipPath>
  <clipPath id="p9057a9b8f9">
   <path d="M 115.2 308.448 
L 414.72 308.448 
L 414.72 303.264 
L 115.2 303.264 
z
"/>
  </clipPath>
 </defs>
</svg>
