<?xml version="1.0" encoding="utf-8" standalone="no"?>
<!DOCTYPE svg PUBLIC "-//W3C//DTD SVG 1.1//EN"
  "http://www.w3.org/Graphics/SVG/1.1/DTD/svg11.dtd">
<svg xmlns:xlink="http://www.w3.org/1999/xlink" width="460.8pt" height="345.6pt" viewBox="0 0 460.8 345.6" xmlns="http://www.w3.org/2000/svg" version="1.1">
 <metadata>
  <rdf:RDF xmlns:dc="http://purl.org/dc/elements/1.1/" xmlns:cc="http://creativecommons.org/ns#" xmlns:rdf="http://www.w3.org/1999/02/22-rdf-syntax-ns#">
   <cc:Work>
    <dc:type rdf:resource="http://purl.org/dc/dcmitype/StillImage"/>
    <dc:date>2024-12-17T19:19:57.446907</dc:date>
    <dc:format>image/svg+xml</dc:format>
    <dc:creator>
     <cc:Agent>
      <dc:title>Matplotlib v3.9.2, https://matplotlib.org/</dc:title>
     </cc:Agent>
    </dc:creator>
   </cc:Work>
  </rdf:RDF>
 </metadata>
 <defs>
  <style type="text/css">*{stroke-linejoin: round; stroke-linecap: butt}</style>
 </defs>
 <g id="figure_1">
  <g id="patch_1">
   <path d="M 0 345.6 
L 460.8 345.6 
L 460.8 0 
L 0 0 
z
" style="fill: #ffffff"/>
  </g>
  <g id="axes_1">
   <g id="patch_2">
    <path d="M 57.6 276.48 
L 414.72 276.48 
L 414.72 41.472 
L 57.6 41.472 
z
" style="fill: #ffffff"/>
   </g>
   <g id="matplotlib.axis_1">
    <g id="xtick_1">
     <g id="line2d_1">
      <defs>
       <path id="mb36aaa19b8" d="M 0 0 
L 0 3.5 
" style="stroke: #000000; stroke-width: 0.8"/>
      </defs>
      <g>
       <use xlink:href="#mb36aaa19b8" x="73.832727" y="276.48" style="stroke: #000000; stroke-width: 0.8"/>
      </g>
     </g>
     <g id="text_1">
      <!-- 0 -->
      <g transform="translate(70.651477 291.078437) scale(0.1 -0.1)">
       <defs>
        <path id="DejaVuSans-30" d="M 2034 4250 
Q 1547 4250 1301 3770 
Q 1056 3291 1056 2328 
Q 1056 1369 1301 889 
Q 1547 409 2034 409 
Q 2525 409 2770 889 
Q 3016 1369 3016 2328 
Q 3016 3291 2770 3770 
Q 2525 4250 2034 4250 
z
M 2034 4750 
Q 2819 4750 3233 4129 
Q 3647 3509 3647 2328 
Q 3647 1150 3233 529 
Q 2819 -91 2034 -91 
Q 1250 -91 836 529 
Q 422 1150 422 2328 
Q 422 3509 836 4129 
Q 1250 4750 2034 4750 
z
" transform="scale(0.015625)"/>
       </defs>
       <use xlink:href="#DejaVuSans-30"/>
      </g>
     </g>
    </g>
    <g id="xtick_2">
     <g id="line2d_2">
      <g>
       <use xlink:href="#mb36aaa19b8" x="138.828632" y="276.48" style="stroke: #000000; stroke-width: 0.8"/>
      </g>
     </g>
     <g id="text_2">
      <!-- 200 -->
      <g transform="translate(129.284882 291.078437) scale(0.1 -0.1)">
       <defs>
        <path id="DejaVuSans-32" d="M 1228 531 
L 3431 531 
L 3431 0 
L 469 0 
L 469 531 
Q 828 903 1448 1529 
Q 2069 2156 2228 2338 
Q 2531 2678 2651 2914 
Q 2772 3150 2772 3378 
Q 2772 3750 2511 3984 
Q 2250 4219 1831 4219 
Q 1534 4219 1204 4116 
Q 875 4013 500 3803 
L 500 4441 
Q 881 4594 1212 4672 
Q 1544 4750 1819 4750 
Q 2544 4750 2975 4387 
Q 3406 4025 3406 3419 
Q 3406 3131 3298 2873 
Q 3191 2616 2906 2266 
Q 2828 2175 2409 1742 
Q 1991 1309 1228 531 
z
" transform="scale(0.015625)"/>
       </defs>
       <use xlink:href="#DejaVuSans-32"/>
       <use xlink:href="#DejaVuSans-30" x="63.623047"/>
       <use xlink:href="#DejaVuSans-30" x="127.246094"/>
      </g>
     </g>
    </g>
    <g id="xtick_3">
     <g id="line2d_3">
      <g>
       <use xlink:href="#mb36aaa19b8" x="203.824537" y="276.48" style="stroke: #000000; stroke-width: 0.8"/>
      </g>
     </g>
     <g id="text_3">
      <!-- 400 -->
      <g transform="translate(194.280787 291.078437) scale(0.1 -0.1)">
       <defs>
        <path id="DejaVuSans-34" d="M 2419 4116 
L 825 1625 
L 2419 1625 
L 2419 4116 
z
M 2253 4666 
L 3047 4666 
L 3047 1625 
L 3713 1625 
L 3713 1100 
L 3047 1100 
L 3047 0 
L 2419 0 
L 2419 1100 
L 313 1100 
L 313 1709 
L 2253 4666 
z
" transform="scale(0.015625)"/>
       </defs>
       <use xlink:href="#DejaVuSans-34"/>
       <use xlink:href="#DejaVuSans-30" x="63.623047"/>
       <use xlink:href="#DejaVuSans-30" x="127.246094"/>
      </g>
     </g>
    </g>
    <g id="xtick_4">
     <g id="line2d_4">
      <g>
       <use xlink:href="#mb36aaa19b8" x="268.820442" y="276.48" style="stroke: #000000; stroke-width: 0.8"/>
      </g>
     </g>
     <g id="text_4">
      <!-- 600 -->
      <g transform="translate(259.276692 291.078437) scale(0.1 -0.1)">
       <defs>
        <path id="DejaVuSans-36" d="M 2113 2584 
Q 1688 2584 1439 2293 
Q 1191 2003 1191 1497 
Q 1191 994 1439 701 
Q 1688 409 2113 409 
Q 2538 409 2786 701 
Q 3034 994 3034 1497 
Q 3034 2003 2786 2293 
Q 2538 2584 2113 2584 
z
M 3366 4563 
L 3366 3988 
Q 3128 4100 2886 4159 
Q 2644 4219 2406 4219 
Q 1781 4219 1451 3797 
Q 1122 3375 1075 2522 
Q 1259 2794 1537 2939 
Q 1816 3084 2150 3084 
Q 2853 3084 3261 2657 
Q 3669 2231 3669 1497 
Q 3669 778 3244 343 
Q 2819 -91 2113 -91 
Q 1303 -91 875 529 
Q 447 1150 447 2328 
Q 447 3434 972 4092 
Q 1497 4750 2381 4750 
Q 2619 4750 2861 4703 
Q 3103 4656 3366 4563 
z
" transform="scale(0.015625)"/>
       </defs>
       <use xlink:href="#DejaVuSans-36"/>
       <use xlink:href="#DejaVuSans-30" x="63.623047"/>
       <use xlink:href="#DejaVuSans-30" x="127.246094"/>
      </g>
     </g>
    </g>
    <g id="xtick_5">
     <g id="line2d_5">
      <g>
       <use xlink:href="#mb36aaa19b8" x="333.816347" y="276.48" style="stroke: #000000; stroke-width: 0.8"/>
      </g>
     </g>
     <g id="text_5">
      <!-- 800 -->
      <g transform="translate(324.272597 291.078437) scale(0.1 -0.1)">
       <defs>
        <path id="DejaVuSans-38" d="M 2034 2216 
Q 1584 2216 1326 1975 
Q 1069 1734 1069 1313 
Q 1069 891 1326 650 
Q 1584 409 2034 409 
Q 2484 409 2743 651 
Q 3003 894 3003 1313 
Q 3003 1734 2745 1975 
Q 2488 2216 2034 2216 
z
M 1403 2484 
Q 997 2584 770 2862 
Q 544 3141 544 3541 
Q 544 4100 942 4425 
Q 1341 4750 2034 4750 
Q 2731 4750 3128 4425 
Q 3525 4100 3525 3541 
Q 3525 3141 3298 2862 
Q 3072 2584 2669 2484 
Q 3125 2378 3379 2068 
Q 3634 1759 3634 1313 
Q 3634 634 3220 271 
Q 2806 -91 2034 -91 
Q 1263 -91 848 271 
Q 434 634 434 1313 
Q 434 1759 690 2068 
Q 947 2378 1403 2484 
z
M 1172 3481 
Q 1172 3119 1398 2916 
Q 1625 2713 2034 2713 
Q 2441 2713 2670 2916 
Q 2900 3119 2900 3481 
Q 2900 3844 2670 4047 
Q 2441 4250 2034 4250 
Q 1625 4250 1398 4047 
Q 1172 3844 1172 3481 
z
" transform="scale(0.015625)"/>
       </defs>
       <use xlink:href="#DejaVuSans-38"/>
       <use xlink:href="#DejaVuSans-30" x="63.623047"/>
       <use xlink:href="#DejaVuSans-30" x="127.246094"/>
      </g>
     </g>
    </g>
    <g id="xtick_6">
     <g id="line2d_6">
      <g>
       <use xlink:href="#mb36aaa19b8" x="398.812252" y="276.48" style="stroke: #000000; stroke-width: 0.8"/>
      </g>
     </g>
     <g id="text_6">
      <!-- 1000 -->
      <g transform="translate(386.087252 291.078437) scale(0.1 -0.1)">
       <defs>
        <path id="DejaVuSans-31" d="M 794 531 
L 1825 531 
L 1825 4091 
L 703 3866 
L 703 4441 
L 1819 4666 
L 2450 4666 
L 2450 531 
L 3481 531 
L 3481 0 
L 794 0 
L 794 531 
z
" transform="scale(0.015625)"/>
       </defs>
       <use xlink:href="#DejaVuSans-31"/>
       <use xlink:href="#DejaVuSans-30" x="63.623047"/>
       <use xlink:href="#DejaVuSans-30" x="127.246094"/>
       <use xlink:href="#DejaVuSans-30" x="190.869141"/>
      </g>
     </g>
    </g>
   </g>
   <g id="matplotlib.axis_2">
    <g id="ytick_1">
     <g id="line2d_7">
      <defs>
       <path id="mba4ed6b0f0" d="M 0 0 
L -3.5 0 
" style="stroke: #000000; stroke-width: 0.8"/>
      </defs>
      <g>
       <use xlink:href="#mba4ed6b0f0" x="57.6" y="267.049497" style="stroke: #000000; stroke-width: 0.8"/>
      </g>
     </g>
     <g id="text_7">
      <!-- 1.0 -->
      <g transform="translate(34.696875 270.848716) scale(0.1 -0.1)">
       <defs>
        <path id="DejaVuSans-2e" d="M 684 794 
L 1344 794 
L 1344 0 
L 684 0 
L 684 794 
z
" transform="scale(0.015625)"/>
       </defs>
       <use xlink:href="#DejaVuSans-31"/>
       <use xlink:href="#DejaVuSans-2e" x="63.623047"/>
       <use xlink:href="#DejaVuSans-30" x="95.410156"/>
      </g>
     </g>
    </g>
    <g id="ytick_2">
     <g id="line2d_8">
      <g>
       <use xlink:href="#mba4ed6b0f0" x="57.6" y="232.339122" style="stroke: #000000; stroke-width: 0.8"/>
      </g>
     </g>
     <g id="text_8">
      <!-- 1.5 -->
      <g transform="translate(34.696875 236.138341) scale(0.1 -0.1)">
       <defs>
        <path id="DejaVuSans-35" d="M 691 4666 
L 3169 4666 
L 3169 4134 
L 1269 4134 
L 1269 2991 
Q 1406 3038 1543 3061 
Q 1681 3084 1819 3084 
Q 2600 3084 3056 2656 
Q 3513 2228 3513 1497 
Q 3513 744 3044 326 
Q 2575 -91 1722 -91 
Q 1428 -91 1123 -41 
Q 819 9 494 109 
L 494 744 
Q 775 591 1075 516 
Q 1375 441 1709 441 
Q 2250 441 2565 725 
Q 2881 1009 2881 1497 
Q 2881 1984 2565 2268 
Q 2250 2553 1709 2553 
Q 1456 2553 1204 2497 
Q 953 2441 691 2322 
L 691 4666 
z
" transform="scale(0.015625)"/>
       </defs>
       <use xlink:href="#DejaVuSans-31"/>
       <use xlink:href="#DejaVuSans-2e" x="63.623047"/>
       <use xlink:href="#DejaVuSans-35" x="95.410156"/>
      </g>
     </g>
    </g>
    <g id="ytick_3">
     <g id="line2d_9">
      <g>
       <use xlink:href="#mba4ed6b0f0" x="57.6" y="197.628747" style="stroke: #000000; stroke-width: 0.8"/>
      </g>
     </g>
     <g id="text_9">
      <!-- 2.0 -->
      <g transform="translate(34.696875 201.427966) scale(0.1 -0.1)">
       <use xlink:href="#DejaVuSans-32"/>
       <use xlink:href="#DejaVuSans-2e" x="63.623047"/>
       <use xlink:href="#DejaVuSans-30" x="95.410156"/>
      </g>
     </g>
    </g>
    <g id="ytick_4">
     <g id="line2d_10">
      <g>
       <use xlink:href="#mba4ed6b0f0" x="57.6" y="162.918372" style="stroke: #000000; stroke-width: 0.8"/>
      </g>
     </g>
     <g id="text_10">
      <!-- 2.5 -->
      <g transform="translate(34.696875 166.717591) scale(0.1 -0.1)">
       <use xlink:href="#DejaVuSans-32"/>
       <use xlink:href="#DejaVuSans-2e" x="63.623047"/>
       <use xlink:href="#DejaVuSans-35" x="95.410156"/>
      </g>
     </g>
    </g>
    <g id="ytick_5">
     <g id="line2d_11">
      <g>
       <use xlink:href="#mba4ed6b0f0" x="57.6" y="128.207997" style="stroke: #000000; stroke-width: 0.8"/>
      </g>
     </g>
     <g id="text_11">
      <!-- 3.0 -->
      <g transform="translate(34.696875 132.007216) scale(0.1 -0.1)">
       <defs>
        <path id="DejaVuSans-33" d="M 2597 2516 
Q 3050 2419 3304 2112 
Q 3559 1806 3559 1356 
Q 3559 666 3084 287 
Q 2609 -91 1734 -91 
Q 1441 -91 1130 -33 
Q 819 25 488 141 
L 488 750 
Q 750 597 1062 519 
Q 1375 441 1716 441 
Q 2309 441 2620 675 
Q 2931 909 2931 1356 
Q 2931 1769 2642 2001 
Q 2353 2234 1838 2234 
L 1294 2234 
L 1294 2753 
L 1863 2753 
Q 2328 2753 2575 2939 
Q 2822 3125 2822 3475 
Q 2822 3834 2567 4026 
Q 2313 4219 1838 4219 
Q 1578 4219 1281 4162 
Q 984 4106 628 3988 
L 628 4550 
Q 988 4650 1302 4700 
Q 1616 4750 1894 4750 
Q 2613 4750 3031 4423 
Q 3450 4097 3450 3541 
Q 3450 3153 3228 2886 
Q 3006 2619 2597 2516 
z
" transform="scale(0.015625)"/>
       </defs>
       <use xlink:href="#DejaVuSans-33"/>
       <use xlink:href="#DejaVuSans-2e" x="63.623047"/>
       <use xlink:href="#DejaVuSans-30" x="95.410156"/>
      </g>
     </g>
    </g>
    <g id="ytick_6">
     <g id="line2d_12">
      <g>
       <use xlink:href="#mba4ed6b0f0" x="57.6" y="93.497622" style="stroke: #000000; stroke-width: 0.8"/>
      </g>
     </g>
     <g id="text_12">
      <!-- 3.5 -->
      <g transform="translate(34.696875 97.296841) scale(0.1 -0.1)">
       <use xlink:href="#DejaVuSans-33"/>
       <use xlink:href="#DejaVuSans-2e" x="63.623047"/>
       <use xlink:href="#DejaVuSans-35" x="95.410156"/>
      </g>
     </g>
    </g>
    <g id="ytick_7">
     <g id="line2d_13">
      <g>
       <use xlink:href="#mba4ed6b0f0" x="57.6" y="58.787247" style="stroke: #000000; stroke-width: 0.8"/>
      </g>
     </g>
     <g id="text_13">
      <!-- 4.0 -->
      <g transform="translate(34.696875 62.586465) scale(0.1 -0.1)">
       <use xlink:href="#DejaVuSans-34"/>
       <use xlink:href="#DejaVuSans-2e" x="63.623047"/>
       <use xlink:href="#DejaVuSans-30" x="95.410156"/>
      </g>
     </g>
    </g>
   </g>
   <g id="line2d_14">
    <path d="M 73.832727 260.369049 
L 74.157707 265.797818 
L 74.482686 260.73214 
L 74.807666 259.11426 
L 75.132645 260.099421 
L 75.457625 261.861274 
L 75.782604 256.411947 
L 76.107584 259.384505 
L 76.432563 257.626805 
L 76.757543 253.762294 
L 77.082523 255.837307 
L 77.407502 252.680108 
L 77.732482 255.674553 
L 78.057461 256.265833 
L 78.382441 254.870039 
L 78.70742 252.596137 
L 79.0324 251.864416 
L 79.682359 248.062679 
L 80.007338 249.225028 
L 80.332318 248.699337 
L 80.657297 246.07797 
L 80.982277 249.399771 
L 81.307256 244.620059 
L 81.957215 247.867777 
L 82.282195 245.175026 
L 82.607174 247.206821 
L 82.932154 244.892297 
L 83.257133 245.016906 
L 83.582113 245.447647 
L 83.907093 243.145725 
L 84.232072 239.485056 
L 84.557052 239.939352 
L 84.882031 241.857859 
L 85.207011 241.469856 
L 85.53199 239.323569 
L 85.85697 239.226886 
L 86.181949 237.59431 
L 86.506929 241.194795 
L 86.831908 239.052835 
L 87.156888 238.570428 
L 87.806847 235.591599 
L 88.131826 239.836356 
L 88.456806 239.485011 
L 88.781785 241.162277 
L 89.106765 237.33443 
L 89.431744 236.009669 
L 89.756724 235.603698 
L 90.081704 235.833082 
L 90.406683 236.442514 
L 90.731663 235.331497 
L 91.056642 237.997535 
L 91.381622 235.935688 
L 91.706601 240.958884 
L 92.031581 240.88845 
L 92.35656 240.676897 
L 92.68154 234.407661 
L 93.006519 241.067205 
L 93.331499 234.67444 
L 93.981458 235.44731 
L 94.306437 238.264993 
L 94.631417 235.736637 
L 94.956396 242.14092 
L 95.281376 240.27686 
L 95.606355 236.206982 
L 95.931335 240.806923 
L 96.256314 236.907601 
L 96.581294 241.177983 
L 96.906274 243.021521 
L 97.231253 237.387905 
L 97.556233 243.901614 
L 97.881212 238.252627 
L 98.206192 244.612987 
L 98.531171 239.157314 
L 98.856151 240.334554 
L 99.18113 245.352483 
L 99.50611 246.142615 
L 99.831089 244.293123 
L 100.156069 241.748256 
L 100.481048 246.048662 
L 100.806028 243.218821 
L 101.131007 241.580967 
L 101.455987 248.649481 
L 101.780966 242.58593 
L 102.105946 243.434027 
L 102.430925 245.375711 
L 102.755905 248.548945 
L 103.080885 246.792404 
L 103.405864 246.897857 
L 103.730844 248.684559 
L 104.055823 249.553395 
L 104.380803 247.734174 
L 104.705782 250.78004 
L 105.030762 246.094504 
L 105.355741 247.110568 
L 106.0057 251.05837 
L 106.33068 248.1387 
L 106.655659 252.21814 
L 106.980639 251.772168 
L 107.305618 254.215313 
L 107.630598 254.066997 
L 107.955577 254.133026 
L 108.280557 250.254235 
L 108.605536 253.194613 
L 108.930516 253.765248 
L 109.255495 252.781114 
L 109.580475 253.346508 
L 109.905455 256.715674 
L 110.230434 251.663538 
L 110.555414 251.276667 
L 110.880393 252.368278 
L 111.205373 253.869375 
L 111.530352 256.505777 
L 111.855332 253.070707 
L 112.180311 257.058302 
L 112.505291 252.388112 
L 112.83027 251.084263 
L 113.480229 252.700913 
L 113.805209 254.798984 
L 114.130188 253.845336 
L 114.455168 255.965682 
L 114.780147 254.15015 
L 115.105127 250.828801 
L 115.430106 251.448212 
L 115.755086 251.614759 
L 116.080066 251.104159 
L 116.405045 252.361933 
L 116.730025 251.408741 
L 117.055004 253.197066 
L 117.379984 251.935787 
L 118.029943 254.310131 
L 118.354922 251.863697 
L 118.679902 251.743774 
L 119.004881 253.941268 
L 119.329861 248.104809 
L 119.65484 252.731865 
L 119.97982 250.862701 
L 120.304799 251.912565 
L 120.629779 247.94671 
L 120.954758 252.236814 
L 121.279738 247.235335 
L 121.604717 248.225461 
L 121.929697 244.996575 
L 122.254676 244.685667 
L 122.579656 249.39367 
L 122.904636 249.354382 
L 123.229615 242.948742 
L 123.554595 247.655133 
L 123.879574 246.288295 
L 124.204554 242.025424 
L 124.529533 245.792705 
L 124.854513 246.561914 
L 125.179492 245.722598 
L 125.504472 240.135961 
L 125.829451 245.349392 
L 126.47941 239.861627 
L 126.80439 243.174524 
L 127.129369 242.250199 
L 127.454349 237.876975 
L 127.779328 241.029225 
L 128.104308 237.222348 
L 129.079247 234.227108 
L 129.404226 234.986961 
L 129.729206 235.0333 
L 130.379165 231.9044 
L 130.704144 236.657611 
L 131.029124 234.452662 
L 131.354103 230.876149 
L 131.679083 231.16293 
L 132.004062 235.141554 
L 132.329042 233.603103 
L 132.654021 233.27871 
L 132.979001 229.374134 
L 133.30398 232.281597 
L 133.62896 229.923076 
L 133.953939 225.681578 
L 134.278919 230.091426 
L 134.603898 225.431044 
L 134.928878 227.933501 
L 135.253857 224.210476 
L 135.578837 224.841055 
L 136.228796 222.991621 
L 136.553776 223.248871 
L 136.878755 225.150343 
L 137.528714 223.984917 
L 137.853694 222.204078 
L 138.178673 225.664171 
L 138.503653 224.469646 
L 138.828632 226.441358 
L 139.153612 225.002038 
L 139.478591 225.4473 
L 139.803571 225.668481 
L 140.12855 221.48711 
L 140.45353 225.314465 
L 140.778509 222.213927 
L 141.103489 221.658463 
L 141.428468 224.942228 
L 141.753448 219.251012 
L 142.403407 224.746642 
L 143.053366 220.596222 
L 143.378346 219.899791 
L 144.028305 224.200733 
L 144.353284 221.010001 
L 144.678264 224.045693 
L 145.003243 225.532766 
L 145.328223 223.288425 
L 145.653202 224.037844 
L 145.978182 225.128568 
L 146.303161 226.752729 
L 146.628141 225.599872 
L 146.95312 223.596754 
L 147.2781 222.781115 
L 147.603079 224.872535 
L 147.928059 221.892248 
L 148.253038 225.722306 
L 148.578018 224.295917 
L 148.902998 226.728581 
L 149.227977 222.293918 
L 149.552957 224.481481 
L 149.877936 225.510462 
L 150.527895 229.167897 
L 150.852875 227.201164 
L 151.177854 229.087346 
L 151.502834 229.03336 
L 151.827813 224.965746 
L 152.152793 229.327239 
L 152.477772 228.38765 
L 152.802752 230.624882 
L 153.127731 231.737246 
L 153.452711 231.444678 
L 153.77769 228.135014 
L 154.427649 233.668005 
L 154.752629 231.745145 
L 155.077609 228.252312 
L 155.402588 233.743778 
L 155.727568 230.79226 
L 156.052547 229.348929 
L 156.377527 236.207082 
L 157.352465 232.052105 
L 158.002424 231.361813 
L 158.327404 231.990147 
L 158.652383 236.17233 
L 158.977363 236.815506 
L 159.302342 237.054055 
L 159.627322 238.363484 
L 159.952301 235.626379 
L 160.277281 239.709681 
L 160.60226 234.085037 
L 160.92724 237.562519 
L 161.252219 233.570231 
L 161.577199 238.155999 
L 161.902179 239.463918 
L 162.227158 239.564952 
L 162.877117 235.694657 
L 163.202097 235.693591 
L 163.527076 234.851528 
L 163.852056 237.61584 
L 164.177035 238.513041 
L 164.826994 234.375961 
L 165.151974 238.268876 
L 165.476953 235.359833 
L 165.801933 237.745811 
L 166.126912 237.582151 
L 166.451892 235.524762 
L 166.776871 237.638357 
L 167.101851 236.659521 
L 167.42683 234.417694 
L 167.75181 238.210344 
L 168.07679 235.973636 
L 168.401769 238.071176 
L 168.726749 234.024518 
L 169.051728 235.446655 
L 169.376708 238.255278 
L 169.701687 236.485524 
L 170.026667 237.836154 
L 170.351646 232.894947 
L 170.676626 235.542635 
L 171.001605 235.7351 
L 171.326585 232.78588 
L 171.651564 230.878025 
L 171.976544 234.569442 
L 172.301523 229.892387 
L 172.626503 232.235524 
L 172.951482 228.956763 
L 173.276462 226.863545 
L 173.601441 231.451831 
L 174.2514 226.899269 
L 174.57638 227.568018 
L 174.90136 225.381301 
L 175.226339 225.771969 
L 175.551319 225.040552 
L 175.876298 227.825234 
L 176.201278 223.937213 
L 176.526257 222.192171 
L 176.851237 222.267947 
L 177.176216 221.189301 
L 177.501196 223.014724 
L 177.826175 222.528603 
L 178.151155 218.077851 
L 178.476134 215.185382 
L 178.801114 220.593162 
L 179.126093 219.579445 
L 179.451073 218.995035 
L 179.776052 215.344494 
L 180.101032 217.54682 
L 180.750991 214.447865 
L 181.075971 210.584112 
L 181.40095 213.243284 
L 181.72593 207.910983 
L 182.050909 209.38733 
L 182.375889 209.582087 
L 182.700868 208.686535 
L 183.025848 206.71168 
L 183.350827 205.934918 
L 183.675807 202.020337 
L 184.000786 201.105218 
L 184.325766 203.572243 
L 184.650745 201.280455 
L 184.975725 202.605761 
L 185.300704 201.586175 
L 185.625684 203.786494 
L 185.950663 198.052026 
L 186.275643 198.858124 
L 186.600622 200.638879 
L 186.925602 200.842923 
L 187.250581 193.89026 
L 187.575561 195.836421 
L 187.900541 198.622194 
L 188.22552 193.05608 
L 188.5505 191.55027 
L 188.875479 193.811074 
L 189.200459 193.822823 
L 189.525438 191.704088 
L 189.850418 194.53243 
L 190.175397 188.796064 
L 190.500377 188.829993 
L 190.825356 190.943053 
L 191.150336 189.020296 
L 191.475315 186.127486 
L 191.800295 189.603367 
L 192.125274 185.53324 
L 192.450254 183.651908 
L 192.775233 183.916151 
L 193.100213 187.497689 
L 193.425192 188.618185 
L 193.750172 186.330653 
L 194.075152 185.657741 
L 194.400131 185.599438 
L 195.05009 180.91908 
L 195.37507 186.045977 
L 195.700049 186.312011 
L 196.025029 183.813119 
L 196.350008 184.591819 
L 196.674988 179.330684 
L 196.999967 183.134408 
L 197.324947 180.22298 
L 197.649926 183.403672 
L 197.974906 178.331029 
L 198.299885 184.231776 
L 198.949844 181.879693 
L 199.274824 178.891372 
L 199.599803 177.661116 
L 199.924783 182.228216 
L 200.249762 177.61001 
L 200.574742 183.929894 
L 200.899722 179.348399 
L 201.224701 181.13693 
L 201.549681 178.40004 
L 201.87466 182.744512 
L 202.19964 181.806865 
L 202.849599 181.172883 
L 203.174578 179.28123 
L 203.499558 179.846339 
L 203.824537 182.738618 
L 204.149517 180.684659 
L 204.474496 179.707403 
L 204.799476 179.86132 
L 205.124455 185.855357 
L 205.449435 181.095182 
L 205.774414 184.835985 
L 206.099394 181.268872 
L 206.749353 185.374459 
L 207.074333 181.994552 
L 207.399312 182.025781 
L 207.724292 182.670659 
L 208.049271 188.13093 
L 208.374251 187.094976 
L 208.69923 189.78505 
L 209.02421 188.398512 
L 209.349189 188.332158 
L 209.674169 188.636872 
L 209.999148 187.54657 
L 210.324128 185.725446 
L 210.649107 185.863622 
L 210.974087 188.599515 
L 211.299066 188.298625 
L 211.624046 191.036797 
L 211.949025 188.744596 
L 212.274005 192.697324 
L 212.598984 193.062498 
L 212.923964 187.414098 
L 213.248943 189.436275 
L 213.573923 190.237259 
L 213.898903 192.605117 
L 214.223882 189.762511 
L 214.548862 193.597867 
L 214.873841 190.831853 
L 215.198821 191.024219 
L 215.5238 194.003235 
L 215.84878 191.385119 
L 216.498739 194.53322 
L 216.823718 194.471022 
L 217.148698 194.82907 
L 217.473677 196.01015 
L 217.798657 192.161997 
L 218.123636 193.83923 
L 218.448616 196.607155 
L 218.773595 193.337434 
L 219.098575 196.779072 
L 219.748534 192.473778 
L 220.073514 195.902699 
L 220.398493 195.067143 
L 220.723473 193.002566 
L 221.048452 195.155934 
L 221.373432 192.767303 
L 221.698411 192.922598 
L 222.023391 191.806882 
L 222.34837 195.764665 
L 222.67335 195.198326 
L 222.998329 193.40526 
L 223.323309 195.500212 
L 223.648288 193.248278 
L 223.973268 194.086144 
L 224.298247 196.366515 
L 224.623227 190.254251 
L 224.948206 192.744099 
L 225.273186 191.175523 
L 225.598165 191.01314 
L 225.923145 190.410918 
L 226.248124 194.682087 
L 226.573104 195.102099 
L 226.898084 191.339308 
L 227.223063 188.893077 
L 227.548043 193.30039 
L 227.873022 188.627953 
L 228.198002 192.542428 
L 228.522981 188.601534 
L 228.847961 190.992788 
L 229.17294 186.448919 
L 229.49792 189.419434 
L 230.147879 183.856502 
L 230.472858 185.643855 
L 230.797838 189.603786 
L 231.122817 182.372451 
L 231.447797 186.341712 
L 231.772776 185.073246 
L 232.422735 180.299735 
L 232.747715 184.231225 
L 233.072695 181.8002 
L 233.397674 182.931758 
L 233.722654 178.122122 
L 234.047633 181.295164 
L 234.372613 182.237024 
L 235.022572 179.121579 
L 235.347551 177.868118 
L 235.672531 177.298484 
L 235.99751 173.646107 
L 236.32249 178.917625 
L 236.647469 176.631769 
L 236.972449 172.539156 
L 237.297428 172.461354 
L 237.622408 173.763946 
L 237.947387 171.935656 
L 238.272367 173.53067 
L 238.597346 171.607264 
L 238.922326 171.095204 
L 239.247305 172.423494 
L 239.572285 171.299313 
L 239.897265 167.47342 
L 240.547224 172.232752 
L 240.872203 165.78333 
L 241.197183 169.194045 
L 241.522162 170.188932 
L 242.172121 167.218343 
L 242.497101 163.050962 
L 242.82208 162.991927 
L 243.14706 165.702422 
L 243.472039 163.887833 
L 243.797019 160.788626 
L 244.121998 165.663796 
L 244.446978 166.273585 
L 244.771957 163.27471 
L 245.096937 162.437319 
L 245.421916 159.288011 
L 245.746896 159.136039 
L 246.071876 160.096049 
L 246.396855 163.980942 
L 246.721835 161.426895 
L 247.371794 158.017851 
L 247.696773 162.733302 
L 248.021753 156.496664 
L 248.346732 161.924874 
L 248.671712 157.803523 
L 249.321671 156.16775 
L 249.64665 157.142185 
L 250.296609 157.737439 
L 250.621589 159.726233 
L 250.946568 157.91299 
L 251.271548 161.255633 
L 251.596527 157.616675 
L 251.921507 161.09006 
L 252.246486 156.97446 
L 252.571466 160.99159 
L 253.221425 156.819794 
L 253.546405 161.987163 
L 253.871384 157.530777 
L 254.196364 160.894667 
L 254.521343 157.663415 
L 254.846323 160.706936 
L 255.171302 157.217831 
L 255.496282 157.102375 
L 255.821261 162.947801 
L 256.146241 158.890692 
L 256.47122 159.047024 
L 257.121179 163.702019 
L 257.446159 161.568895 
L 257.771138 157.971372 
L 258.746077 164.975536 
L 259.071057 164.978883 
L 259.396036 161.439951 
L 259.721016 160.822926 
L 260.045995 161.574578 
L 260.370975 160.676764 
L 260.695954 160.57898 
L 261.020934 166.338484 
L 261.345913 165.315548 
L 261.670893 163.282829 
L 261.995872 164.306303 
L 262.320852 168.428827 
L 262.645831 165.48296 
L 262.970811 163.641759 
L 263.29579 163.28686 
L 263.62077 169.401555 
L 263.945749 167.095909 
L 264.270729 167.226428 
L 264.595708 166.826276 
L 264.920688 169.330686 
L 265.245667 164.569497 
L 265.570647 168.393917 
L 265.895627 164.940521 
L 266.220606 166.694844 
L 266.545586 165.448914 
L 266.870565 171.110905 
L 267.195545 167.620849 
L 267.520524 169.950785 
L 267.845504 169.216388 
L 268.170483 172.919335 
L 268.820442 167.199119 
L 269.145422 173.40965 
L 269.470401 170.179875 
L 269.795381 169.24686 
L 270.12036 169.249694 
L 270.44534 170.619996 
L 270.770319 168.314454 
L 271.095299 169.460928 
L 271.420278 169.719035 
L 271.745258 171.756022 
L 272.070238 172.48348 
L 272.395217 168.389983 
L 272.720197 169.146682 
L 273.045176 168.295892 
L 273.370156 170.409415 
L 273.695135 167.316869 
L 274.020115 173.028323 
L 274.345094 168.935279 
L 274.670074 170.718528 
L 274.995053 169.720776 
L 275.320033 167.698492 
L 275.645012 171.883221 
L 275.969992 170.102512 
L 276.294971 172.291716 
L 276.619951 166.45036 
L 276.94493 169.488005 
L 277.594889 170.432006 
L 277.919869 164.444272 
L 278.244848 164.445069 
L 278.569828 167.472863 
L 278.894808 163.617611 
L 279.219787 166.596654 
L 279.544767 161.749609 
L 279.869746 164.152745 
L 280.194726 160.854128 
L 280.519705 162.924197 
L 280.844685 159.661822 
L 281.169664 164.686185 
L 281.494644 162.699839 
L 281.819623 157.945374 
L 282.144603 161.986576 
L 282.469582 163.041629 
L 282.794562 158.494996 
L 283.119541 155.867769 
L 283.444521 155.479045 
L 283.7695 158.696457 
L 284.09448 157.007721 
L 284.419459 152.432564 
L 284.744439 156.498224 
L 285.069419 157.262584 
L 285.394398 150.597273 
L 285.719378 149.778857 
L 286.369337 147.160493 
L 286.694316 147.036123 
L 287.019296 148.5531 
L 287.344275 149.117354 
L 287.669255 150.635548 
L 287.994234 148.015726 
L 288.319214 142.685931 
L 288.644193 145.148954 
L 288.969173 141.636259 
L 289.294152 139.792295 
L 289.619132 143.866759 
L 289.944111 139.189171 
L 290.269091 142.443204 
L 290.59407 140.060663 
L 290.91905 138.621535 
L 291.244029 140.255515 
L 291.569009 138.416327 
L 291.893989 133.513703 
L 292.218968 134.950911 
L 292.543948 135.010594 
L 292.868927 135.717419 
L 293.193907 134.292066 
L 293.518886 130.072485 
L 293.843866 132.827062 
L 294.168845 131.50705 
L 294.493825 131.391898 
L 294.818804 128.088784 
L 295.143784 127.15751 
L 295.468763 129.033937 
L 295.793743 123.913558 
L 296.118722 128.253239 
L 296.443702 126.935119 
L 296.768681 120.150846 
L 297.093661 124.191807 
L 297.41864 120.817733 
L 297.74362 124.186565 
L 298.0686 119.006996 
L 298.393579 118.68036 
L 298.718559 119.258613 
L 299.043538 116.593839 
L 299.368518 120.142743 
L 299.693497 119.171685 
L 300.018477 113.672376 
L 300.343456 114.743101 
L 300.668436 112.29064 
L 300.993415 112.605186 
L 301.318395 117.259168 
L 301.643374 116.28199 
L 301.968354 110.379112 
L 302.293333 110.968011 
L 302.618313 109.651201 
L 302.943292 114.123814 
L 303.268272 115.614158 
L 303.593251 109.280157 
L 303.918231 111.214541 
L 304.24321 108.17123 
L 304.56819 112.890138 
L 304.89317 113.164294 
L 305.218149 113.193945 
L 305.868108 110.901274 
L 306.518067 106.86073 
L 306.843047 107.662725 
L 307.168026 110.391561 
L 307.817985 105.7819 
L 308.142965 109.876672 
L 308.467944 111.732626 
L 308.792924 108.733988 
L 309.117903 111.029734 
L 309.442883 107.171637 
L 309.767862 111.946951 
L 310.092842 107.123589 
L 310.417821 110.30447 
L 310.742801 111.456325 
L 311.067781 110.606225 
L 311.39276 111.635017 
L 311.71774 107.251681 
L 312.042719 107.101644 
L 312.367699 107.484345 
L 312.692678 109.665552 
L 313.342637 109.908881 
L 313.667617 113.54097 
L 313.992596 110.095672 
L 314.317576 110.281134 
L 314.642555 113.945192 
L 314.967535 114.704404 
L 315.292514 111.78541 
L 315.617494 110.378935 
L 315.942473 114.943393 
L 316.267453 113.725885 
L 316.592432 114.828052 
L 316.917412 113.304168 
L 317.242391 114.434766 
L 317.567371 112.006051 
L 317.892351 112.382088 
L 318.21733 117.085925 
L 318.54231 116.220981 
L 318.867289 117.073829 
L 319.192269 117.498217 
L 319.517248 114.64931 
L 319.842228 118.861523 
L 320.167207 114.830809 
L 320.492187 116.536488 
L 320.817166 116.422474 
L 321.142146 113.494219 
L 321.467125 120.029385 
L 321.792105 118.0883 
L 322.117084 120.557387 
L 322.442064 114.221031 
L 322.767043 115.5531 
L 323.092023 121.181972 
L 323.417002 116.833994 
L 323.741982 118.814679 
L 324.066962 117.380696 
L 324.391941 117.264322 
L 324.716921 116.140322 
L 325.0419 119.518552 
L 325.36688 119.094988 
L 325.691859 122.838826 
L 326.016839 118.128036 
L 326.341818 122.314561 
L 326.666798 120.044554 
L 326.991777 119.145884 
L 327.316757 117.087236 
L 327.641736 118.617773 
L 327.966716 122.333589 
L 328.291695 117.812541 
L 328.616675 121.24648 
L 328.941654 116.871362 
L 329.266634 117.828112 
L 329.591613 117.587146 
L 329.916593 117.509495 
L 330.241572 122.612202 
L 330.566552 115.830596 
L 330.891532 120.51958 
L 331.216511 115.604937 
L 331.541491 118.196257 
L 331.86647 119.538216 
L 332.19145 120.229907 
L 332.516429 119.804427 
L 332.841409 118.429241 
L 333.166388 118.437467 
L 333.491368 116.372552 
L 333.816347 116.402943 
L 334.141327 116.17069 
L 334.466306 118.378437 
L 334.791286 118.427911 
L 335.116265 112.654976 
L 335.441245 114.085329 
L 335.766224 111.375068 
L 336.091204 113.967437 
L 336.741163 110.560199 
L 337.066143 114.819622 
L 337.391122 114.300721 
L 337.716102 110.287177 
L 338.041081 111.287932 
L 338.366061 108.870167 
L 338.69104 112.91219 
L 339.01602 106.572464 
L 339.340999 106.792273 
L 339.665979 112.026452 
L 339.990958 111.41966 
L 340.640917 105.118598 
L 341.290876 108.761636 
L 341.615856 107.786893 
L 341.940835 102.740665 
L 342.265815 106.711392 
L 342.590794 103.81324 
L 342.915774 105.189145 
L 343.565733 99.338988 
L 343.890713 102.523723 
L 344.215692 97.790518 
L 344.540672 100.954232 
L 344.865651 101.804016 
L 345.190631 96.799937 
L 345.51561 99.055599 
L 346.165569 98.864829 
L 346.490549 92.728699 
L 346.815528 92.049477 
L 347.140508 90.968115 
L 347.465487 93.407819 
L 347.790467 92.594682 
L 348.115446 93.380433 
L 348.440426 90.870324 
L 348.765405 89.386049 
L 349.090385 92.854401 
L 349.415364 92.510988 
L 349.740344 86.339861 
L 350.065324 87.861461 
L 350.390303 85.892842 
L 350.715283 88.743027 
L 351.040262 87.600484 
L 351.365242 85.122247 
L 351.690221 85.616511 
L 352.015201 87.545685 
L 352.34018 82.916652 
L 352.990139 84.133107 
L 353.640098 81.265787 
L 353.965078 82.451424 
L 354.615037 81.406557 
L 355.264996 78.554144 
L 355.589975 79.959602 
L 355.914955 78.374763 
L 356.239934 79.165131 
L 356.564914 81.367026 
L 357.214873 83.825217 
L 357.539853 81.1525 
L 357.864832 81.103766 
L 358.189812 82.791749 
L 358.514791 82.332891 
L 358.839771 81.230917 
L 359.16475 81.753509 
L 359.48973 81.634082 
L 359.814709 78.779351 
L 360.464668 81.641547 
L 360.789648 78.88977 
L 361.114627 79.653322 
L 361.439607 79.408962 
L 362.089566 82.063424 
L 362.414545 81.890211 
L 362.739525 78.064515 
L 363.389484 80.70066 
L 363.714464 78.471307 
L 364.039443 79.200611 
L 364.364423 83.191031 
L 364.689402 77.370094 
L 365.014382 83.710279 
L 365.664341 80.309005 
L 365.98932 82.512752 
L 366.3143 81.890343 
L 366.639279 84.29397 
L 366.964259 82.274229 
L 367.289238 81.879339 
L 367.614218 79.948514 
L 367.939197 81.491537 
L 368.264177 82.270447 
L 368.589156 83.844004 
L 368.914136 83.085751 
L 369.239115 86.187256 
L 369.564095 80.20652 
L 369.889075 85.85611 
L 370.214054 82.096571 
L 370.864013 87.360779 
L 371.188993 81.404727 
L 371.513972 82.91955 
L 371.838952 86.404744 
L 372.163931 83.402679 
L 372.488911 87.460621 
L 372.81389 85.254312 
L 373.13887 84.489057 
L 373.463849 89.655232 
L 373.788829 88.862101 
L 374.438788 85.850746 
L 374.763767 87.37392 
L 375.088747 90.898791 
L 375.413726 84.826818 
L 375.738706 90.223457 
L 376.063686 87.082875 
L 376.388665 90.405541 
L 376.713645 86.256483 
L 377.038624 89.487141 
L 377.363604 90.361954 
L 377.688583 89.231018 
L 378.013563 90.789306 
L 378.338542 90.39953 
L 378.988501 86.733996 
L 379.313481 90.233154 
L 379.63846 89.343459 
L 379.96344 86.058148 
L 380.288419 90.280275 
L 380.613399 90.980055 
L 380.938378 88.579137 
L 381.263358 90.405464 
L 381.588337 87.920021 
L 381.913317 87.270029 
L 382.238296 87.954022 
L 382.563276 87.101019 
L 382.888256 84.4702 
L 383.213235 87.303924 
L 383.538215 85.497089 
L 383.863194 88.101507 
L 384.188174 84.507313 
L 384.838133 88.855162 
L 385.163112 88.192129 
L 385.488092 85.264353 
L 385.813071 87.438229 
L 386.138051 82.024203 
L 386.46303 85.01823 
L 386.78801 80.096142 
L 387.112989 80.759094 
L 387.437969 82.015828 
L 387.762948 80.567403 
L 388.087928 82.385618 
L 388.412907 77.926644 
L 388.737887 82.807942 
L 389.062867 78.703007 
L 389.712826 78.471468 
L 390.037805 78.912081 
L 390.362785 79.140512 
L 390.687764 77.701443 
L 391.012744 78.595089 
L 391.337723 74.804134 
L 391.662703 72.948022 
L 391.987682 76.072179 
L 392.312662 72.594823 
L 392.637641 70.451324 
L 392.962621 69.614278 
L 393.2876 72.745686 
L 393.61258 69.433206 
L 393.937559 64.569557 
L 394.262539 69.672579 
L 394.587518 68.412739 
L 394.912498 62.990343 
L 395.237477 64.118873 
L 395.562457 66.715511 
L 395.887437 59.460808 
L 396.212416 63.212857 
L 396.537396 59.76144 
L 396.862375 60.230087 
L 397.187355 61.622978 
L 397.512334 59.305856 
L 397.837314 59.057557 
L 398.162293 59.249032 
L 398.487273 52.154182 
L 398.487273 52.154182 
" clip-path="url(#p3e83f8db1f)" style="fill: none; stroke: #1f77b4; stroke-width: 1.5; stroke-linecap: square"/>
   </g>
   <g id="line2d_15">
    <path d="M 73.832727 260.369049 
L 74.157707 261.183364 
L 74.482686 261.115681 
L 74.807666 260.815468 
L 75.132645 260.708061 
L 75.457625 260.881043 
L 75.782604 260.210678 
L 76.107584 260.086752 
L 76.432563 259.71776 
L 76.757543 258.82444 
L 77.082523 258.37637 
L 77.407502 257.521931 
L 78.382441 256.763785 
L 79.0324 255.497505 
L 80.657297 251.403006 
L 80.982277 251.102521 
L 81.307256 250.130151 
L 81.632236 249.520829 
L 81.957215 249.272872 
L 82.282195 248.658195 
L 82.607174 248.440489 
L 83.257133 247.474557 
L 83.582113 247.17052 
L 83.907093 246.566801 
L 84.557052 244.669761 
L 85.207011 243.831258 
L 86.181949 241.820138 
L 86.506929 241.726336 
L 87.156888 240.912079 
L 87.806847 239.631938 
L 88.456806 239.635962 
L 88.781785 239.86491 
L 89.431744 238.963987 
L 90.081704 238.065915 
L 90.731663 237.448768 
L 91.056642 237.531083 
L 91.381622 237.291774 
L 92.031581 238.298832 
L 92.35656 238.655542 
L 92.68154 238.01836 
L 93.006519 238.475686 
L 93.656478 237.487218 
L 93.981458 237.181232 
L 94.306437 237.343796 
L 94.631417 237.102722 
L 94.956396 237.858452 
L 95.281376 238.221213 
L 95.606355 237.919078 
L 95.931335 238.352255 
L 96.256314 238.135557 
L 96.581294 238.591921 
L 96.906274 239.256361 
L 97.231253 238.976093 
L 97.556233 239.714921 
L 97.881212 239.495577 
L 98.206192 240.263188 
L 98.531171 240.097307 
L 98.856151 240.132894 
L 99.50611 241.69985 
L 99.831089 242.088841 
L 100.156069 242.037753 
L 100.481048 242.639389 
L 100.806028 242.726304 
L 101.131007 242.554504 
L 101.455987 243.46875 
L 101.780966 243.336327 
L 102.105946 243.350982 
L 102.430925 243.654692 
L 102.755905 244.38883 
L 103.730844 245.613577 
L 104.055823 246.20455 
L 104.380803 246.433994 
L 104.705782 247.085901 
L 105.030762 246.937191 
L 105.355741 246.963198 
L 105.680721 247.337818 
L 106.0057 247.895901 
L 106.33068 247.932321 
L 107.955577 251.014822 
L 108.280557 250.900734 
L 109.255495 251.796616 
L 109.580475 252.0291 
L 109.905455 252.732086 
L 110.555414 252.377533 
L 110.880393 252.376145 
L 111.205373 252.600129 
L 111.530352 253.185976 
L 111.855332 253.168686 
L 112.180311 253.752128 
L 112.505291 253.547526 
L 112.83027 253.178037 
L 113.15525 252.996976 
L 113.480229 252.952567 
L 113.805209 253.229529 
L 114.130188 253.3219 
L 114.455168 253.718467 
L 114.780147 253.78322 
L 115.430106 253.05628 
L 116.080066 252.579668 
L 116.405045 252.547008 
L 116.730025 252.376268 
L 117.055004 252.499388 
L 117.379984 252.414848 
L 117.704963 252.52134 
L 118.029943 252.789659 
L 118.679902 252.514716 
L 119.004881 252.728699 
L 119.329861 252.035115 
L 119.65484 252.139628 
L 119.97982 251.948089 
L 120.304799 251.94276 
L 120.629779 251.343352 
L 120.954758 251.477372 
L 122.254676 248.889118 
L 122.904636 249.023238 
L 123.229615 248.112063 
L 123.554595 248.043524 
L 123.879574 247.780239 
L 124.204554 246.917017 
L 124.529533 246.74837 
L 124.854513 246.720402 
L 125.179492 246.570731 
L 125.504472 245.605516 
L 125.829451 245.567097 
L 126.154431 245.170028 
L 126.47941 244.373768 
L 127.129369 243.902329 
L 127.454349 242.998526 
L 127.779328 242.703131 
L 129.729206 238.027712 
L 130.379165 236.503574 
L 130.704144 236.52668 
L 131.029124 236.215577 
L 131.679083 234.776903 
L 132.004062 234.831601 
L 132.654021 234.442034 
L 132.979001 233.681849 
L 133.30398 233.471811 
L 133.62896 232.939501 
L 133.953939 231.850812 
L 134.278919 231.586904 
L 134.603898 230.663525 
L 134.928878 230.254021 
L 135.578837 228.671524 
L 136.553776 226.634181 
L 137.203735 226.131914 
L 137.528714 225.809865 
L 137.853694 225.268997 
L 138.178673 225.328273 
L 138.503653 225.199479 
L 138.828632 225.385761 
L 139.478591 225.346067 
L 139.803571 225.394429 
L 140.12855 224.808331 
L 140.45353 224.884251 
L 141.103489 224.059917 
L 141.428468 224.192263 
L 141.753448 223.451076 
L 142.078428 223.275841 
L 142.403407 223.496461 
L 142.728387 223.335179 
L 143.378346 222.470653 
L 143.703325 222.38409 
L 144.028305 222.656586 
L 144.353284 222.409598 
L 144.678264 222.655012 
L 145.003243 223.086675 
L 145.653202 223.255074 
L 145.978182 223.536098 
L 146.303161 224.018593 
L 146.628141 224.255785 
L 147.2781 223.950558 
L 147.603079 224.088854 
L 147.928059 223.759363 
L 148.253038 224.053805 
L 148.578018 224.090122 
L 148.902998 224.485891 
L 149.227977 224.157095 
L 149.552957 224.205753 
L 149.877936 224.401459 
L 151.502834 226.692795 
L 151.827813 226.433737 
L 152.152793 226.867762 
L 152.477772 227.095746 
L 153.452711 228.722347 
L 153.77769 228.634247 
L 154.10267 228.974713 
L 154.427649 229.678707 
L 154.752629 229.988673 
L 155.077609 229.728219 
L 155.402588 230.330553 
L 155.727568 230.399809 
L 156.052547 230.242177 
L 156.377527 231.136913 
L 156.702506 231.668966 
L 157.027486 231.895493 
L 157.677445 231.889602 
L 158.327404 231.837391 
L 159.627322 234.420262 
L 159.952301 234.601179 
L 160.277281 235.367455 
L 160.60226 235.175092 
L 160.92724 235.533206 
L 161.252219 235.23876 
L 161.902179 236.244482 
L 162.227158 236.742552 
L 162.552138 236.902925 
L 163.527076 236.31008 
L 164.177035 236.807008 
L 164.502015 236.746701 
L 164.826994 236.39109 
L 165.151974 236.672757 
L 165.476953 236.475819 
L 166.126912 236.803693 
L 166.451892 236.611853 
L 166.776871 236.765829 
L 167.101851 236.749882 
L 167.42683 236.400054 
L 167.75181 236.671598 
L 168.07679 236.566903 
L 168.401769 236.792544 
L 168.726749 236.37734 
L 169.051728 236.237737 
L 169.376708 236.540369 
L 169.701687 236.532142 
L 170.026667 236.727744 
L 170.351646 236.152824 
L 171.001605 236.012366 
L 171.326585 235.528393 
L 171.651564 234.830838 
L 171.976544 234.791629 
L 172.301523 234.056742 
L 172.626503 233.78356 
L 173.276462 232.130141 
L 173.601441 232.028394 
L 173.926421 231.603087 
L 174.90136 229.645572 
L 175.551319 228.460934 
L 175.876298 228.365579 
L 176.851237 226.183901 
L 177.176216 225.434711 
L 177.826175 224.690246 
L 178.476134 222.421436 
L 179.126093 221.762033 
L 179.451073 221.346983 
L 179.776052 220.44661 
L 180.101032 220.011641 
L 180.750991 218.649302 
L 181.075971 217.439523 
L 181.40095 216.810087 
L 182.050909 214.562038 
L 183.025848 212.095655 
L 183.350827 211.171545 
L 184.000786 208.494817 
L 185.300704 205.472348 
L 185.625684 205.21947 
L 186.275643 203.351419 
L 186.925602 202.629296 
L 187.250581 201.31844 
L 187.575561 200.496137 
L 187.900541 200.215046 
L 188.875479 197.373838 
L 189.200459 196.841186 
L 189.525438 196.070621 
L 189.850418 195.839893 
L 190.500377 193.890319 
L 190.825356 193.44823 
L 191.150336 192.784039 
L 191.475315 191.785556 
L 191.800295 191.458228 
L 192.775233 188.68949 
L 193.100213 188.51072 
L 193.425192 188.52684 
L 194.400131 187.483908 
L 194.725111 186.872907 
L 195.05009 185.979833 
L 195.700049 186.038093 
L 196.025029 185.704347 
L 196.350008 185.537468 
L 196.674988 184.60645 
L 196.999967 184.385644 
L 197.324947 183.761244 
L 197.649926 183.707609 
L 197.974906 182.901122 
L 198.299885 183.10072 
L 198.624865 183.096361 
L 198.949844 182.913861 
L 199.599803 181.613082 
L 199.924783 181.705352 
L 200.249762 181.091051 
L 200.574742 181.516877 
L 200.899722 181.191605 
L 201.224701 181.183404 
L 201.549681 180.765899 
L 201.87466 181.062691 
L 202.524619 181.214339 
L 202.849599 181.208121 
L 203.499558 180.758175 
L 203.824537 181.055241 
L 204.149517 180.999654 
L 204.799476 180.664142 
L 205.124455 181.442824 
L 205.449435 181.390678 
L 205.774414 181.907474 
L 206.099394 181.811684 
L 206.424373 182.008519 
L 206.749353 182.51341 
L 207.399312 182.374111 
L 207.724292 182.418594 
L 208.69923 184.738875 
L 209.674169 186.178332 
L 209.999148 186.383567 
L 210.649107 186.221665 
L 211.299066 186.836385 
L 211.624046 187.466447 
L 211.949025 187.658169 
L 212.598984 189.111311 
L 212.923964 188.856729 
L 213.573923 189.1377 
L 213.898903 189.657813 
L 214.223882 189.673518 
L 214.548862 190.26217 
L 215.198821 190.449112 
L 215.5238 190.98223 
L 215.84878 191.042664 
L 216.173759 191.32108 
L 217.473677 193.108982 
L 217.798657 192.966935 
L 218.123636 193.097779 
L 218.448616 193.624185 
L 218.773595 193.581173 
L 219.098575 194.060858 
L 219.423554 194.153692 
L 219.748534 193.901705 
L 220.073514 194.201854 
L 220.398493 194.331647 
L 220.723473 194.132285 
L 221.048452 194.285832 
L 222.023391 193.575607 
L 222.67335 194.09812 
L 222.998329 193.994191 
L 223.323309 194.220094 
L 223.648288 194.074322 
L 223.973268 194.076095 
L 224.298247 194.419658 
L 224.623227 193.794847 
L 224.948206 193.637235 
L 225.923145 192.551927 
L 226.573104 193.206048 
L 226.898084 192.926037 
L 227.223063 192.321093 
L 227.548043 192.467988 
L 227.873022 191.891982 
L 228.198002 191.989549 
L 228.522981 191.481347 
L 228.847961 191.408063 
L 229.17294 190.664191 
L 229.49792 190.477478 
L 229.822899 189.94241 
L 230.147879 189.029523 
L 230.472858 188.521673 
L 230.797838 188.68399 
L 231.122817 187.737259 
L 231.447797 187.527927 
L 231.772776 187.159725 
L 232.422735 185.507403 
L 232.747715 185.315976 
L 233.072695 184.78861 
L 233.397674 184.510082 
L 233.722654 183.551888 
L 234.047633 183.213379 
L 234.372613 183.066926 
L 235.022572 182.130549 
L 235.672531 180.862279 
L 235.99751 179.779853 
L 236.32249 179.650519 
L 236.647469 179.197707 
L 237.297428 177.338289 
L 239.572285 173.741351 
L 239.897265 172.801161 
L 240.222244 172.371747 
L 240.547224 172.350898 
L 240.872203 171.365763 
L 241.197183 171.040005 
L 241.522162 170.912344 
L 242.172121 170.059392 
L 242.82208 168.105697 
L 243.14706 167.745206 
L 243.472039 167.1666 
L 243.797019 166.209904 
L 244.446978 166.149827 
L 245.096937 165.226374 
L 245.746896 163.555682 
L 246.071876 163.036737 
L 246.396855 163.178368 
L 246.721835 162.915647 
L 247.046814 162.474129 
L 247.371794 161.805688 
L 247.696773 161.94483 
L 248.021753 161.127605 
L 248.346732 161.247195 
L 249.64665 159.192235 
L 250.296609 158.748751 
L 250.621589 158.895373 
L 250.946568 158.748016 
L 251.271548 159.124158 
L 251.596527 158.898036 
L 251.921507 159.226839 
L 252.246486 158.888983 
L 252.571466 159.204374 
L 252.896446 159.181371 
L 253.221425 158.827134 
L 253.546405 159.301139 
L 253.871384 159.035584 
L 254.196364 159.314447 
L 254.521343 159.066792 
L 254.846323 159.312814 
L 255.496282 158.714138 
L 255.821261 159.349187 
L 256.47122 159.245404 
L 256.7962 159.59299 
L 257.121179 160.209344 
L 257.446159 160.413277 
L 257.771138 160.046991 
L 258.096118 160.099367 
L 258.421097 160.551383 
L 259.071057 161.779588 
L 260.045995 161.590054 
L 260.695954 161.321948 
L 261.345913 162.560597 
L 261.670893 162.668932 
L 261.995872 162.914537 
L 262.320852 163.741681 
L 262.645831 164.002873 
L 263.29579 163.849429 
L 263.62077 164.682248 
L 264.270729 165.371617 
L 264.595708 165.589816 
L 264.920688 166.150946 
L 265.245667 165.913729 
L 265.570647 166.285757 
L 265.895627 166.083971 
L 266.220606 166.175602 
L 266.545586 166.066599 
L 266.870565 166.823245 
L 267.195545 166.942885 
L 268.495463 168.720543 
L 268.820442 168.49233 
L 269.145422 169.229928 
L 269.470401 169.37242 
L 270.12036 169.338002 
L 270.44534 169.530301 
L 270.770319 169.347924 
L 271.420278 169.417999 
L 272.070238 170.175919 
L 272.395217 169.908028 
L 273.045176 169.569136 
L 273.370156 169.695178 
L 273.695135 169.338432 
L 274.020115 169.891915 
L 274.345094 169.74842 
L 274.670074 169.893936 
L 274.995053 169.867962 
L 275.320033 169.542542 
L 275.645012 169.893643 
L 275.969992 169.924974 
L 276.294971 170.279985 
L 276.619951 169.705541 
L 277.26991 169.707459 
L 277.594889 169.816141 
L 278.244848 168.325567 
L 278.569828 168.197661 
L 278.894808 167.510654 
L 279.219787 167.373554 
L 279.544767 166.529962 
L 279.869746 166.17338 
L 280.194726 165.375492 
L 280.519705 165.007798 
L 280.844685 164.205901 
L 281.169664 164.277944 
L 281.494644 164.041228 
L 281.819623 163.12685 
L 282.144603 162.955809 
L 282.469582 162.968682 
L 282.794562 162.297629 
L 283.444521 160.455034 
L 283.7695 160.191248 
L 284.09448 159.713719 
L 284.419459 158.621545 
L 284.744439 158.303047 
L 285.069419 158.146978 
L 286.694316 152.656983 
L 287.344275 151.602793 
L 287.669255 151.457707 
L 287.994234 150.941409 
L 288.319214 149.703088 
L 288.644193 149.019968 
L 289.294152 146.694394 
L 289.619132 146.270249 
L 289.944111 145.208087 
L 290.269091 144.793354 
L 291.569009 142.153385 
L 292.218968 139.971455 
L 292.868927 138.70084 
L 293.193907 138.039523 
L 293.518886 136.844468 
L 294.493825 134.910675 
L 295.143784 132.877909 
L 295.468763 132.301313 
L 295.793743 131.04315 
L 296.443702 130.071232 
L 296.768681 128.583174 
L 297.093661 127.924469 
L 297.41864 126.858458 
L 297.74362 126.457674 
L 298.393579 124.341116 
L 298.718559 123.57874 
L 299.043538 122.531005 
L 299.693497 121.722604 
L 300.343456 119.649274 
L 300.993415 117.654435 
L 301.318395 117.595145 
L 301.643374 117.398172 
L 302.293333 115.538718 
L 302.618313 114.65559 
L 302.943292 114.575824 
L 303.268272 114.731574 
L 303.593251 113.913861 
L 303.918231 113.508963 
L 304.24321 112.708303 
L 305.543129 112.715967 
L 305.868108 112.443763 
L 306.843047 110.616435 
L 307.168026 110.582704 
L 307.493006 110.175131 
L 307.817985 109.516147 
L 308.142965 109.570225 
L 308.467944 109.894586 
L 308.792924 109.720496 
L 309.117903 109.916881 
L 309.442883 109.505095 
L 309.767862 109.871373 
L 310.092842 109.459206 
L 310.417821 109.585995 
L 310.742801 109.866545 
L 311.067781 109.977497 
L 311.39276 110.226125 
L 312.042719 109.378211 
L 312.367699 109.094131 
L 313.342637 109.372766 
L 313.667617 109.997997 
L 314.317576 110.052921 
L 314.967535 111.246908 
L 315.292514 111.327683 
L 315.617494 111.185371 
L 315.942473 111.749074 
L 317.242391 112.865988 
L 317.892351 112.683761 
L 318.54231 113.77562 
L 319.192269 114.754531 
L 319.517248 114.738748 
L 319.842228 115.357164 
L 320.167207 115.278211 
L 320.817166 115.610281 
L 321.142146 115.292871 
L 321.467125 116.003348 
L 321.792105 116.316091 
L 322.117084 116.952286 
L 322.442064 116.542597 
L 322.767043 116.394173 
L 323.092023 117.112343 
L 323.417002 117.07059 
L 323.741982 117.332204 
L 324.391941 117.328204 
L 324.716921 117.150022 
L 325.36688 117.743754 
L 325.691859 118.508015 
L 326.016839 118.451018 
L 326.341818 119.03055 
L 326.666798 119.18265 
L 326.991777 119.177135 
L 327.316757 118.863651 
L 327.641736 118.826769 
L 327.966716 119.352792 
L 328.291695 119.121754 
L 328.616675 119.440463 
L 328.941654 119.055098 
L 329.916593 118.503119 
L 330.241572 119.119481 
L 330.566552 118.626149 
L 330.891532 118.910163 
L 331.216511 118.414379 
L 331.541491 118.381661 
L 332.516429 118.956069 
L 333.166388 118.811108 
L 334.141327 117.843726 
L 334.791286 117.999529 
L 335.116265 117.197846 
L 335.441245 116.730969 
L 335.766224 115.927583 
L 336.091204 115.633561 
L 336.416183 115.154076 
L 336.741163 114.464994 
L 337.391122 114.485568 
L 337.716102 113.85581 
L 338.041081 113.470628 
L 338.366061 112.780559 
L 338.69104 112.800303 
L 339.340999 111.105049 
L 339.990958 111.26972 
L 340.315938 110.810704 
L 340.640917 109.956888 
L 340.965897 109.502649 
L 341.290876 109.391497 
L 341.615856 109.150806 
L 341.940835 108.189285 
L 342.265815 107.967601 
L 342.590794 107.344447 
L 342.915774 107.021152 
L 343.240753 106.330916 
L 343.565733 105.282127 
L 343.890713 104.868366 
L 344.215692 103.806689 
L 344.540672 103.37882 
L 344.865651 103.1426 
L 345.190631 102.1912 
L 346.165569 100.934265 
L 347.140508 97.417254 
L 349.090385 93.982994 
L 349.415364 93.762193 
L 350.065324 91.930736 
L 350.390303 91.025052 
L 351.040262 90.220409 
L 351.690221 88.879808 
L 352.015201 88.67969 
L 352.66516 87.191353 
L 353.315119 86.103072 
L 353.640098 85.377479 
L 354.615037 84.014867 
L 355.914955 81.700316 
L 356.239934 81.320038 
L 356.564914 81.327086 
L 357.214873 81.8836 
L 357.864832 81.67341 
L 358.514791 81.91492 
L 359.16475 81.803498 
L 359.48973 81.778086 
L 359.814709 81.328275 
L 360.139689 81.181326 
L 360.464668 81.250359 
L 360.789648 80.896271 
L 361.439607 80.514698 
L 361.764586 80.518747 
L 362.414545 80.921413 
L 362.739525 80.492878 
L 363.064505 80.35464 
L 363.389484 80.406543 
L 363.714464 80.116258 
L 364.039443 79.978911 
L 364.364423 80.460729 
L 364.689402 79.997134 
L 365.014382 80.554105 
L 365.339361 80.776347 
L 365.664341 80.706245 
L 366.964259 81.693618 
L 367.289238 81.721476 
L 367.614218 81.455531 
L 367.939197 81.460932 
L 368.264177 81.58236 
L 368.589156 81.921606 
L 368.914136 82.096228 
L 369.239115 82.709882 
L 369.564095 82.334378 
L 369.889075 82.862638 
L 370.214054 82.747728 
L 370.539034 83.053465 
L 370.864013 83.699562 
L 371.188993 83.355337 
L 371.513972 83.289969 
L 371.838952 83.757185 
L 372.163931 83.704009 
L 372.488911 84.267501 
L 372.81389 84.415523 
L 373.13887 84.426553 
L 373.788829 85.758542 
L 374.113808 85.952727 
L 374.438788 85.93743 
L 374.763767 86.152904 
L 375.088747 86.864787 
L 375.413726 86.559091 
L 375.738706 87.108746 
L 376.063686 87.104866 
L 376.388665 87.599967 
L 376.713645 87.398444 
L 378.338542 88.916089 
L 378.663522 88.814949 
L 378.988501 88.502806 
L 379.313481 88.762358 
L 379.63846 88.849523 
L 379.96344 88.430817 
L 380.613399 89.049009 
L 380.938378 88.978528 
L 381.263358 89.192568 
L 382.563276 88.395341 
L 382.888256 87.806569 
L 383.213235 87.731173 
L 383.538215 87.39606 
L 383.863194 87.501877 
L 384.188174 87.052693 
L 384.513153 87.037364 
L 385.163112 87.442348 
L 385.488092 87.115649 
L 385.813071 87.164036 
L 386.138051 86.393061 
L 386.46303 86.186836 
L 387.112989 84.596111 
L 388.087928 83.471239 
L 388.412907 82.63955 
L 388.737887 82.664808 
L 389.712826 81.091781 
L 391.012744 79.872749 
L 393.61258 73.960166 
L 393.937559 72.551575 
L 394.587518 71.563677 
L 395.237477 69.353857 
L 395.562457 68.958105 
L 395.887437 67.53351 
L 396.212416 66.885412 
L 396.862375 64.978807 
L 397.187355 64.475433 
L 397.837314 63.00363 
L 398.162293 62.44044 
L 398.487273 60.897502 
L 398.487273 60.897502 
" clip-path="url(#p3e83f8db1f)" style="fill: none; stroke: #ff7f0e; stroke-width: 1.5; stroke-linecap: square"/>
   </g>
   <g id="patch_3">
    <path d="M 57.6 276.48 
L 57.6 41.472 
" style="fill: none; stroke: #000000; stroke-width: 0.8; stroke-linejoin: miter; stroke-linecap: square"/>
   </g>
   <g id="patch_4">
    <path d="M 414.72 276.48 
L 414.72 41.472 
" style="fill: none; stroke: #000000; stroke-width: 0.8; stroke-linejoin: miter; stroke-linecap: square"/>
   </g>
   <g id="patch_5">
    <path d="M 57.6 276.48 
L 414.72 276.48 
" style="fill: none; stroke: #000000; stroke-width: 0.8; stroke-linejoin: miter; stroke-linecap: square"/>
   </g>
   <g id="patch_6">
    <path d="M 57.6 41.472 
L 414.72 41.472 
" style="fill: none; stroke: #000000; stroke-width: 0.8; stroke-linejoin: miter; stroke-linecap: square"/>
   </g>
  </g>
  <g id="axes_2">
   <g id="patch_7">
    <path d="M 115.2 308.448 
L 414.72 308.448 
L 414.72 303.264 
L 115.2 303.264 
z
" clip-path="url(#pfaa3ed1329)" style="fill: #d3d3d3"/>
   </g>
   <g id="patch_8">
    <path d="M 115.2 308.448 
L 160.128 308.448 
L 160.128 303.264 
L 115.2 303.264 
z
" clip-path="url(#pfaa3ed1329)" style="fill: #1f77b4"/>
   </g>
   <g id="line2d_16">
    <path d="M 160.128 311.04 
L 160.128 300.672 
" clip-path="url(#pc7ea415fd6)" style="fill: none; stroke: #ff0000; stroke-linecap: square"/>
   </g>
   <g id="line2d_17">
    <defs>
     <path id="m1a7cb1bd23" d="M 0 5 
C 1.326016 5 2.597899 4.473168 3.535534 3.535534 
C 4.473168 2.597899 5 1.326016 5 0 
C 5 -1.326016 4.473168 -2.597899 3.535534 -3.535534 
C 2.597899 -4.473168 1.326016 -5 0 -5 
C -1.326016 -5 -2.597899 -4.473168 -3.535534 -3.535534 
C -4.473168 -2.597899 -5 -1.326016 -5 0 
C -5 1.326016 -4.473168 2.597899 -3.535534 3.535534 
C -2.597899 4.473168 -1.326016 5 0 5 
z
" style="stroke: #bfbfbf"/>
    </defs>
    <g>
     <use xlink:href="#m1a7cb1bd23" x="160.128" y="305.856" style="fill: #ffffff; stroke: #bfbfbf"/>
    </g>
   </g>
   <g id="text_14">
    <!-- Alpha -->
    <g transform="translate(80.776787 308.615375) scale(0.1 -0.1)">
     <defs>
      <path id="DejaVuSans-41" d="M 2188 4044 
L 1331 1722 
L 3047 1722 
L 2188 4044 
z
M 1831 4666 
L 2547 4666 
L 4325 0 
L 3669 0 
L 3244 1197 
L 1141 1197 
L 716 0 
L 50 0 
L 1831 4666 
z
" transform="scale(0.015625)"/>
      <path id="DejaVuSans-6c" d="M 603 4863 
L 1178 4863 
L 1178 0 
L 603 0 
L 603 4863 
z
" transform="scale(0.015625)"/>
      <path id="DejaVuSans-70" d="M 1159 525 
L 1159 -1331 
L 581 -1331 
L 581 3500 
L 1159 3500 
L 1159 2969 
Q 1341 3281 1617 3432 
Q 1894 3584 2278 3584 
Q 2916 3584 3314 3078 
Q 3713 2572 3713 1747 
Q 3713 922 3314 415 
Q 2916 -91 2278 -91 
Q 1894 -91 1617 61 
Q 1341 213 1159 525 
z
M 3116 1747 
Q 3116 2381 2855 2742 
Q 2594 3103 2138 3103 
Q 1681 3103 1420 2742 
Q 1159 2381 1159 1747 
Q 1159 1113 1420 752 
Q 1681 391 2138 391 
Q 2594 391 2855 752 
Q 3116 1113 3116 1747 
z
" transform="scale(0.015625)"/>
      <path id="DejaVuSans-68" d="M 3513 2113 
L 3513 0 
L 2938 0 
L 2938 2094 
Q 2938 2591 2744 2837 
Q 2550 3084 2163 3084 
Q 1697 3084 1428 2787 
Q 1159 2491 1159 1978 
L 1159 0 
L 581 0 
L 581 4863 
L 1159 4863 
L 1159 2956 
Q 1366 3272 1645 3428 
Q 1925 3584 2291 3584 
Q 2894 3584 3203 3211 
Q 3513 2838 3513 2113 
z
" transform="scale(0.015625)"/>
      <path id="DejaVuSans-61" d="M 2194 1759 
Q 1497 1759 1228 1600 
Q 959 1441 959 1056 
Q 959 750 1161 570 
Q 1363 391 1709 391 
Q 2188 391 2477 730 
Q 2766 1069 2766 1631 
L 2766 1759 
L 2194 1759 
z
M 3341 1997 
L 3341 0 
L 2766 0 
L 2766 531 
Q 2569 213 2275 61 
Q 1981 -91 1556 -91 
Q 1019 -91 701 211 
Q 384 513 384 1019 
Q 384 1609 779 1909 
Q 1175 2209 1959 2209 
L 2766 2209 
L 2766 2266 
Q 2766 2663 2505 2880 
Q 2244 3097 1772 3097 
Q 1472 3097 1187 3025 
Q 903 2953 641 2809 
L 641 3341 
Q 956 3463 1253 3523 
Q 1550 3584 1831 3584 
Q 2591 3584 2966 3190 
Q 3341 2797 3341 1997 
z
" transform="scale(0.015625)"/>
     </defs>
     <use xlink:href="#DejaVuSans-41"/>
     <use xlink:href="#DejaVuSans-6c" x="68.408203"/>
     <use xlink:href="#DejaVuSans-70" x="96.191406"/>
     <use xlink:href="#DejaVuSans-68" x="159.667969"/>
     <use xlink:href="#DejaVuSans-61" x="223.046875"/>
    </g>
   </g>
   <g id="text_15">
    <!-- $\mathdefault{0.15}$ -->
    <g transform="translate(420.7104 308.615375) scale(0.1 -0.1)">
     <use xlink:href="#DejaVuSans-30" transform="translate(0 0.78125)"/>
     <use xlink:href="#DejaVuSans-2e" transform="translate(63.623047 0.78125)"/>
     <use xlink:href="#DejaVuSans-31" transform="translate(95.410156 0.78125)"/>
     <use xlink:href="#DejaVuSans-35" transform="translate(159.033203 0.78125)"/>
    </g>
   </g>
  </g>
 </g>
 <defs>
  <clipPath id="p3e83f8db1f">
   <rect x="57.6" y="41.472" width="357.12" height="235.008"/>
  </clipPath>
  <clipPath id="pfaa3ed1329">
   <rect x="115.2" y="300.672" width="299.52" height="10.368"/>
  </clipPath>
  <clipPath id="pc7ea415fd6">
   <path d="M 115.2 308.448 
L 414.72 308.448 
L 414.72 303.264 
L 115.2 303.264 
z
"/>
  </clipPath>
 </defs>
</svg>
