<?xml version="1.0" encoding="utf-8" standalone="no"?>
<!DOCTYPE svg PUBLIC "-//W3C//DTD SVG 1.1//EN"
  "http://www.w3.org/Graphics/SVG/1.1/DTD/svg11.dtd">
<svg xmlns:xlink="http://www.w3.org/1999/xlink" width="460.8pt" height="345.6pt" viewBox="0 0 460.8 345.6" xmlns="http://www.w3.org/2000/svg" version="1.1">
 <metadata>
  <rdf:RDF xmlns:dc="http://purl.org/dc/elements/1.1/" xmlns:cc="http://creativecommons.org/ns#" xmlns:rdf="http://www.w3.org/1999/02/22-rdf-syntax-ns#">
   <cc:Work>
    <dc:type rdf:resource="http://purl.org/dc/dcmitype/StillImage"/>
    <dc:date>2024-11-28T16:19:18.817465</dc:date>
    <dc:format>image/svg+xml</dc:format>
    <dc:creator>
     <cc:Agent>
      <dc:title>Matplotlib v3.9.2, https://matplotlib.org/</dc:title>
     </cc:Agent>
    </dc:creator>
   </cc:Work>
  </rdf:RDF>
 </metadata>
 <defs>
  <style type="text/css">*{stroke-linejoin: round; stroke-linecap: butt}</style>
 </defs>
 <g id="figure_1">
  <g id="patch_1">
   <path d="M 0 345.6 
L 460.8 345.6 
L 460.8 0 
L 0 0 
z
" style="fill: #ffffff"/>
  </g>
  <g id="axes_1">
   <g id="patch_2">
    <path d="M 57.6 99.322435 
L 414.72 99.322435 
L 414.72 41.472 
L 57.6 41.472 
z
" style="fill: #ffffff"/>
   </g>
   <g id="matplotlib.axis_1">
    <g id="xtick_1">
     <g id="line2d_1">
      <defs>
       <path id="m38ece1c4f8" d="M 0 0 
L 0 3.5 
" style="stroke: #000000; stroke-width: 0.8"/>
      </defs>
      <g>
       <use xlink:href="#m38ece1c4f8" x="73.832727" y="99.322435" style="stroke: #000000; stroke-width: 0.8"/>
      </g>
     </g>
     <g id="text_1">
      <!-- 0 -->
      <g transform="translate(70.651477 113.920872) scale(0.1 -0.1)">
       <defs>
        <path id="DejaVuSans-30" d="M 2034 4250 
Q 1547 4250 1301 3770 
Q 1056 3291 1056 2328 
Q 1056 1369 1301 889 
Q 1547 409 2034 409 
Q 2525 409 2770 889 
Q 3016 1369 3016 2328 
Q 3016 3291 2770 3770 
Q 2525 4250 2034 4250 
z
M 2034 4750 
Q 2819 4750 3233 4129 
Q 3647 3509 3647 2328 
Q 3647 1150 3233 529 
Q 2819 -91 2034 -91 
Q 1250 -91 836 529 
Q 422 1150 422 2328 
Q 422 3509 836 4129 
Q 1250 4750 2034 4750 
z
" transform="scale(0.015625)"/>
       </defs>
       <use xlink:href="#DejaVuSans-30"/>
      </g>
     </g>
    </g>
    <g id="xtick_2">
     <g id="line2d_2">
      <g>
       <use xlink:href="#m38ece1c4f8" x="138.828632" y="99.322435" style="stroke: #000000; stroke-width: 0.8"/>
      </g>
     </g>
     <g id="text_2">
      <!-- 200 -->
      <g transform="translate(129.284882 113.920872) scale(0.1 -0.1)">
       <defs>
        <path id="DejaVuSans-32" d="M 1228 531 
L 3431 531 
L 3431 0 
L 469 0 
L 469 531 
Q 828 903 1448 1529 
Q 2069 2156 2228 2338 
Q 2531 2678 2651 2914 
Q 2772 3150 2772 3378 
Q 2772 3750 2511 3984 
Q 2250 4219 1831 4219 
Q 1534 4219 1204 4116 
Q 875 4013 500 3803 
L 500 4441 
Q 881 4594 1212 4672 
Q 1544 4750 1819 4750 
Q 2544 4750 2975 4387 
Q 3406 4025 3406 3419 
Q 3406 3131 3298 2873 
Q 3191 2616 2906 2266 
Q 2828 2175 2409 1742 
Q 1991 1309 1228 531 
z
" transform="scale(0.015625)"/>
       </defs>
       <use xlink:href="#DejaVuSans-32"/>
       <use xlink:href="#DejaVuSans-30" x="63.623047"/>
       <use xlink:href="#DejaVuSans-30" x="127.246094"/>
      </g>
     </g>
    </g>
    <g id="xtick_3">
     <g id="line2d_3">
      <g>
       <use xlink:href="#m38ece1c4f8" x="203.824537" y="99.322435" style="stroke: #000000; stroke-width: 0.8"/>
      </g>
     </g>
     <g id="text_3">
      <!-- 400 -->
      <g transform="translate(194.280787 113.920872) scale(0.1 -0.1)">
       <defs>
        <path id="DejaVuSans-34" d="M 2419 4116 
L 825 1625 
L 2419 1625 
L 2419 4116 
z
M 2253 4666 
L 3047 4666 
L 3047 1625 
L 3713 1625 
L 3713 1100 
L 3047 1100 
L 3047 0 
L 2419 0 
L 2419 1100 
L 313 1100 
L 313 1709 
L 2253 4666 
z
" transform="scale(0.015625)"/>
       </defs>
       <use xlink:href="#DejaVuSans-34"/>
       <use xlink:href="#DejaVuSans-30" x="63.623047"/>
       <use xlink:href="#DejaVuSans-30" x="127.246094"/>
      </g>
     </g>
    </g>
    <g id="xtick_4">
     <g id="line2d_4">
      <g>
       <use xlink:href="#m38ece1c4f8" x="268.820442" y="99.322435" style="stroke: #000000; stroke-width: 0.8"/>
      </g>
     </g>
     <g id="text_4">
      <!-- 600 -->
      <g transform="translate(259.276692 113.920872) scale(0.1 -0.1)">
       <defs>
        <path id="DejaVuSans-36" d="M 2113 2584 
Q 1688 2584 1439 2293 
Q 1191 2003 1191 1497 
Q 1191 994 1439 701 
Q 1688 409 2113 409 
Q 2538 409 2786 701 
Q 3034 994 3034 1497 
Q 3034 2003 2786 2293 
Q 2538 2584 2113 2584 
z
M 3366 4563 
L 3366 3988 
Q 3128 4100 2886 4159 
Q 2644 4219 2406 4219 
Q 1781 4219 1451 3797 
Q 1122 3375 1075 2522 
Q 1259 2794 1537 2939 
Q 1816 3084 2150 3084 
Q 2853 3084 3261 2657 
Q 3669 2231 3669 1497 
Q 3669 778 3244 343 
Q 2819 -91 2113 -91 
Q 1303 -91 875 529 
Q 447 1150 447 2328 
Q 447 3434 972 4092 
Q 1497 4750 2381 4750 
Q 2619 4750 2861 4703 
Q 3103 4656 3366 4563 
z
" transform="scale(0.015625)"/>
       </defs>
       <use xlink:href="#DejaVuSans-36"/>
       <use xlink:href="#DejaVuSans-30" x="63.623047"/>
       <use xlink:href="#DejaVuSans-30" x="127.246094"/>
      </g>
     </g>
    </g>
    <g id="xtick_5">
     <g id="line2d_5">
      <g>
       <use xlink:href="#m38ece1c4f8" x="333.816347" y="99.322435" style="stroke: #000000; stroke-width: 0.8"/>
      </g>
     </g>
     <g id="text_5">
      <!-- 800 -->
      <g transform="translate(324.272597 113.920872) scale(0.1 -0.1)">
       <defs>
        <path id="DejaVuSans-38" d="M 2034 2216 
Q 1584 2216 1326 1975 
Q 1069 1734 1069 1313 
Q 1069 891 1326 650 
Q 1584 409 2034 409 
Q 2484 409 2743 651 
Q 3003 894 3003 1313 
Q 3003 1734 2745 1975 
Q 2488 2216 2034 2216 
z
M 1403 2484 
Q 997 2584 770 2862 
Q 544 3141 544 3541 
Q 544 4100 942 4425 
Q 1341 4750 2034 4750 
Q 2731 4750 3128 4425 
Q 3525 4100 3525 3541 
Q 3525 3141 3298 2862 
Q 3072 2584 2669 2484 
Q 3125 2378 3379 2068 
Q 3634 1759 3634 1313 
Q 3634 634 3220 271 
Q 2806 -91 2034 -91 
Q 1263 -91 848 271 
Q 434 634 434 1313 
Q 434 1759 690 2068 
Q 947 2378 1403 2484 
z
M 1172 3481 
Q 1172 3119 1398 2916 
Q 1625 2713 2034 2713 
Q 2441 2713 2670 2916 
Q 2900 3119 2900 3481 
Q 2900 3844 2670 4047 
Q 2441 4250 2034 4250 
Q 1625 4250 1398 4047 
Q 1172 3844 1172 3481 
z
" transform="scale(0.015625)"/>
       </defs>
       <use xlink:href="#DejaVuSans-38"/>
       <use xlink:href="#DejaVuSans-30" x="63.623047"/>
       <use xlink:href="#DejaVuSans-30" x="127.246094"/>
      </g>
     </g>
    </g>
    <g id="xtick_6">
     <g id="line2d_6">
      <g>
       <use xlink:href="#m38ece1c4f8" x="398.812252" y="99.322435" style="stroke: #000000; stroke-width: 0.8"/>
      </g>
     </g>
     <g id="text_6">
      <!-- 1000 -->
      <g transform="translate(386.087252 113.920872) scale(0.1 -0.1)">
       <defs>
        <path id="DejaVuSans-31" d="M 794 531 
L 1825 531 
L 1825 4091 
L 703 3866 
L 703 4441 
L 1819 4666 
L 2450 4666 
L 2450 531 
L 3481 531 
L 3481 0 
L 794 0 
L 794 531 
z
" transform="scale(0.015625)"/>
       </defs>
       <use xlink:href="#DejaVuSans-31"/>
       <use xlink:href="#DejaVuSans-30" x="63.623047"/>
       <use xlink:href="#DejaVuSans-30" x="127.246094"/>
       <use xlink:href="#DejaVuSans-30" x="190.869141"/>
      </g>
     </g>
    </g>
   </g>
   <g id="matplotlib.axis_2">
    <g id="ytick_1">
     <g id="line2d_7">
      <defs>
       <path id="m70418f4a51" d="M 0 0 
L -3.5 0 
" style="stroke: #000000; stroke-width: 0.8"/>
      </defs>
      <g>
       <use xlink:href="#m70418f4a51" x="57.6" y="79.162435" style="stroke: #000000; stroke-width: 0.8"/>
      </g>
     </g>
     <g id="text_7">
      <!-- 2 -->
      <g transform="translate(44.2375 82.961654) scale(0.1 -0.1)">
       <use xlink:href="#DejaVuSans-32"/>
      </g>
     </g>
    </g>
    <g id="ytick_2">
     <g id="line2d_8">
      <g>
       <use xlink:href="#m70418f4a51" x="57.6" y="44.101565" style="stroke: #000000; stroke-width: 0.8"/>
      </g>
     </g>
     <g id="text_8">
      <!-- 4 -->
      <g transform="translate(44.2375 47.900784) scale(0.1 -0.1)">
       <use xlink:href="#DejaVuSans-34"/>
      </g>
     </g>
    </g>
   </g>
   <g id="line2d_9">
    <path d="M 73.832727 96.69287 
L 99.831089 93.772773 
L 125.829451 90.627837 
L 151.827813 87.258062 
L 177.826175 83.663448 
L 203.824537 79.843996 
L 229.822899 75.799704 
L 255.821261 71.530573 
L 281.819623 67.036603 
L 307.817985 62.317794 
L 333.816347 57.374146 
L 359.814709 52.205659 
L 385.813071 46.812333 
L 398.487273 44.101565 
L 398.487273 44.101565 
" clip-path="url(#pbaa0152c2c)" style="fill: none; stroke: #1f77b4; stroke-width: 1.5; stroke-linecap: square"/>
   </g>
   <g id="patch_3">
    <path d="M 57.6 99.322435 
L 57.6 41.472 
" style="fill: none; stroke: #000000; stroke-width: 0.8; stroke-linejoin: miter; stroke-linecap: square"/>
   </g>
   <g id="patch_4">
    <path d="M 414.72 99.322435 
L 414.72 41.472 
" style="fill: none; stroke: #000000; stroke-width: 0.8; stroke-linejoin: miter; stroke-linecap: square"/>
   </g>
   <g id="patch_5">
    <path d="M 57.6 99.322435 
L 414.72 99.322435 
" style="fill: none; stroke: #000000; stroke-width: 0.8; stroke-linejoin: miter; stroke-linecap: square"/>
   </g>
   <g id="patch_6">
    <path d="M 57.6 41.472 
L 414.72 41.472 
" style="fill: none; stroke: #000000; stroke-width: 0.8; stroke-linejoin: miter; stroke-linecap: square"/>
   </g>
   <g id="text_9">
    <!-- Ecuatie grad 2 -->
    <g transform="translate(192.486562 35.472) scale(0.12 -0.12)">
     <defs>
      <path id="DejaVuSans-45" d="M 628 4666 
L 3578 4666 
L 3578 4134 
L 1259 4134 
L 1259 2753 
L 3481 2753 
L 3481 2222 
L 1259 2222 
L 1259 531 
L 3634 531 
L 3634 0 
L 628 0 
L 628 4666 
z
" transform="scale(0.015625)"/>
      <path id="DejaVuSans-63" d="M 3122 3366 
L 3122 2828 
Q 2878 2963 2633 3030 
Q 2388 3097 2138 3097 
Q 1578 3097 1268 2742 
Q 959 2388 959 1747 
Q 959 1106 1268 751 
Q 1578 397 2138 397 
Q 2388 397 2633 464 
Q 2878 531 3122 666 
L 3122 134 
Q 2881 22 2623 -34 
Q 2366 -91 2075 -91 
Q 1284 -91 818 406 
Q 353 903 353 1747 
Q 353 2603 823 3093 
Q 1294 3584 2113 3584 
Q 2378 3584 2631 3529 
Q 2884 3475 3122 3366 
z
" transform="scale(0.015625)"/>
      <path id="DejaVuSans-75" d="M 544 1381 
L 544 3500 
L 1119 3500 
L 1119 1403 
Q 1119 906 1312 657 
Q 1506 409 1894 409 
Q 2359 409 2629 706 
Q 2900 1003 2900 1516 
L 2900 3500 
L 3475 3500 
L 3475 0 
L 2900 0 
L 2900 538 
Q 2691 219 2414 64 
Q 2138 -91 1772 -91 
Q 1169 -91 856 284 
Q 544 659 544 1381 
z
M 1991 3584 
L 1991 3584 
z
" transform="scale(0.015625)"/>
      <path id="DejaVuSans-61" d="M 2194 1759 
Q 1497 1759 1228 1600 
Q 959 1441 959 1056 
Q 959 750 1161 570 
Q 1363 391 1709 391 
Q 2188 391 2477 730 
Q 2766 1069 2766 1631 
L 2766 1759 
L 2194 1759 
z
M 3341 1997 
L 3341 0 
L 2766 0 
L 2766 531 
Q 2569 213 2275 61 
Q 1981 -91 1556 -91 
Q 1019 -91 701 211 
Q 384 513 384 1019 
Q 384 1609 779 1909 
Q 1175 2209 1959 2209 
L 2766 2209 
L 2766 2266 
Q 2766 2663 2505 2880 
Q 2244 3097 1772 3097 
Q 1472 3097 1187 3025 
Q 903 2953 641 2809 
L 641 3341 
Q 956 3463 1253 3523 
Q 1550 3584 1831 3584 
Q 2591 3584 2966 3190 
Q 3341 2797 3341 1997 
z
" transform="scale(0.015625)"/>
      <path id="DejaVuSans-74" d="M 1172 4494 
L 1172 3500 
L 2356 3500 
L 2356 3053 
L 1172 3053 
L 1172 1153 
Q 1172 725 1289 603 
Q 1406 481 1766 481 
L 2356 481 
L 2356 0 
L 1766 0 
Q 1100 0 847 248 
Q 594 497 594 1153 
L 594 3053 
L 172 3053 
L 172 3500 
L 594 3500 
L 594 4494 
L 1172 4494 
z
" transform="scale(0.015625)"/>
      <path id="DejaVuSans-69" d="M 603 3500 
L 1178 3500 
L 1178 0 
L 603 0 
L 603 3500 
z
M 603 4863 
L 1178 4863 
L 1178 4134 
L 603 4134 
L 603 4863 
z
" transform="scale(0.015625)"/>
      <path id="DejaVuSans-65" d="M 3597 1894 
L 3597 1613 
L 953 1613 
Q 991 1019 1311 708 
Q 1631 397 2203 397 
Q 2534 397 2845 478 
Q 3156 559 3463 722 
L 3463 178 
Q 3153 47 2828 -22 
Q 2503 -91 2169 -91 
Q 1331 -91 842 396 
Q 353 884 353 1716 
Q 353 2575 817 3079 
Q 1281 3584 2069 3584 
Q 2775 3584 3186 3129 
Q 3597 2675 3597 1894 
z
M 3022 2063 
Q 3016 2534 2758 2815 
Q 2500 3097 2075 3097 
Q 1594 3097 1305 2825 
Q 1016 2553 972 2059 
L 3022 2063 
z
" transform="scale(0.015625)"/>
      <path id="DejaVuSans-20" transform="scale(0.015625)"/>
      <path id="DejaVuSans-67" d="M 2906 1791 
Q 2906 2416 2648 2759 
Q 2391 3103 1925 3103 
Q 1463 3103 1205 2759 
Q 947 2416 947 1791 
Q 947 1169 1205 825 
Q 1463 481 1925 481 
Q 2391 481 2648 825 
Q 2906 1169 2906 1791 
z
M 3481 434 
Q 3481 -459 3084 -895 
Q 2688 -1331 1869 -1331 
Q 1566 -1331 1297 -1286 
Q 1028 -1241 775 -1147 
L 775 -588 
Q 1028 -725 1275 -790 
Q 1522 -856 1778 -856 
Q 2344 -856 2625 -561 
Q 2906 -266 2906 331 
L 2906 616 
Q 2728 306 2450 153 
Q 2172 0 1784 0 
Q 1141 0 747 490 
Q 353 981 353 1791 
Q 353 2603 747 3093 
Q 1141 3584 1784 3584 
Q 2172 3584 2450 3431 
Q 2728 3278 2906 2969 
L 2906 3500 
L 3481 3500 
L 3481 434 
z
" transform="scale(0.015625)"/>
      <path id="DejaVuSans-72" d="M 2631 2963 
Q 2534 3019 2420 3045 
Q 2306 3072 2169 3072 
Q 1681 3072 1420 2755 
Q 1159 2438 1159 1844 
L 1159 0 
L 581 0 
L 581 3500 
L 1159 3500 
L 1159 2956 
Q 1341 3275 1631 3429 
Q 1922 3584 2338 3584 
Q 2397 3584 2469 3576 
Q 2541 3569 2628 3553 
L 2631 2963 
z
" transform="scale(0.015625)"/>
      <path id="DejaVuSans-64" d="M 2906 2969 
L 2906 4863 
L 3481 4863 
L 3481 0 
L 2906 0 
L 2906 525 
Q 2725 213 2448 61 
Q 2172 -91 1784 -91 
Q 1150 -91 751 415 
Q 353 922 353 1747 
Q 353 2572 751 3078 
Q 1150 3584 1784 3584 
Q 2172 3584 2448 3432 
Q 2725 3281 2906 2969 
z
M 947 1747 
Q 947 1113 1208 752 
Q 1469 391 1925 391 
Q 2381 391 2643 752 
Q 2906 1113 2906 1747 
Q 2906 2381 2643 2742 
Q 2381 3103 1925 3103 
Q 1469 3103 1208 2742 
Q 947 2381 947 1747 
z
" transform="scale(0.015625)"/>
     </defs>
     <use xlink:href="#DejaVuSans-45"/>
     <use xlink:href="#DejaVuSans-63" x="63.183594"/>
     <use xlink:href="#DejaVuSans-75" x="118.164062"/>
     <use xlink:href="#DejaVuSans-61" x="181.542969"/>
     <use xlink:href="#DejaVuSans-74" x="242.822266"/>
     <use xlink:href="#DejaVuSans-69" x="282.03125"/>
     <use xlink:href="#DejaVuSans-65" x="309.814453"/>
     <use xlink:href="#DejaVuSans-20" x="371.337891"/>
     <use xlink:href="#DejaVuSans-67" x="403.125"/>
     <use xlink:href="#DejaVuSans-72" x="466.601562"/>
     <use xlink:href="#DejaVuSans-61" x="507.714844"/>
     <use xlink:href="#DejaVuSans-64" x="568.994141"/>
     <use xlink:href="#DejaVuSans-20" x="632.470703"/>
     <use xlink:href="#DejaVuSans-32" x="664.257812"/>
    </g>
   </g>
  </g>
  <g id="axes_2">
   <g id="patch_7">
    <path d="M 57.6 168.742957 
L 414.72 168.742957 
L 414.72 110.892522 
L 57.6 110.892522 
z
" style="fill: #ffffff"/>
   </g>
   <g id="matplotlib.axis_3">
    <g id="xtick_7">
     <g id="line2d_10">
      <g>
       <use xlink:href="#m38ece1c4f8" x="73.832727" y="168.742957" style="stroke: #000000; stroke-width: 0.8"/>
      </g>
     </g>
     <g id="text_10">
      <!-- 0 -->
      <g transform="translate(70.651477 183.341394) scale(0.1 -0.1)">
       <use xlink:href="#DejaVuSans-30"/>
      </g>
     </g>
    </g>
    <g id="xtick_8">
     <g id="line2d_11">
      <g>
       <use xlink:href="#m38ece1c4f8" x="138.828632" y="168.742957" style="stroke: #000000; stroke-width: 0.8"/>
      </g>
     </g>
     <g id="text_11">
      <!-- 200 -->
      <g transform="translate(129.284882 183.341394) scale(0.1 -0.1)">
       <use xlink:href="#DejaVuSans-32"/>
       <use xlink:href="#DejaVuSans-30" x="63.623047"/>
       <use xlink:href="#DejaVuSans-30" x="127.246094"/>
      </g>
     </g>
    </g>
    <g id="xtick_9">
     <g id="line2d_12">
      <g>
       <use xlink:href="#m38ece1c4f8" x="203.824537" y="168.742957" style="stroke: #000000; stroke-width: 0.8"/>
      </g>
     </g>
     <g id="text_12">
      <!-- 400 -->
      <g transform="translate(194.280787 183.341394) scale(0.1 -0.1)">
       <use xlink:href="#DejaVuSans-34"/>
       <use xlink:href="#DejaVuSans-30" x="63.623047"/>
       <use xlink:href="#DejaVuSans-30" x="127.246094"/>
      </g>
     </g>
    </g>
    <g id="xtick_10">
     <g id="line2d_13">
      <g>
       <use xlink:href="#m38ece1c4f8" x="268.820442" y="168.742957" style="stroke: #000000; stroke-width: 0.8"/>
      </g>
     </g>
     <g id="text_13">
      <!-- 600 -->
      <g transform="translate(259.276692 183.341394) scale(0.1 -0.1)">
       <use xlink:href="#DejaVuSans-36"/>
       <use xlink:href="#DejaVuSans-30" x="63.623047"/>
       <use xlink:href="#DejaVuSans-30" x="127.246094"/>
      </g>
     </g>
    </g>
    <g id="xtick_11">
     <g id="line2d_14">
      <g>
       <use xlink:href="#m38ece1c4f8" x="333.816347" y="168.742957" style="stroke: #000000; stroke-width: 0.8"/>
      </g>
     </g>
     <g id="text_14">
      <!-- 800 -->
      <g transform="translate(324.272597 183.341394) scale(0.1 -0.1)">
       <use xlink:href="#DejaVuSans-38"/>
       <use xlink:href="#DejaVuSans-30" x="63.623047"/>
       <use xlink:href="#DejaVuSans-30" x="127.246094"/>
      </g>
     </g>
    </g>
    <g id="xtick_12">
     <g id="line2d_15">
      <g>
       <use xlink:href="#m38ece1c4f8" x="398.812252" y="168.742957" style="stroke: #000000; stroke-width: 0.8"/>
      </g>
     </g>
     <g id="text_15">
      <!-- 1000 -->
      <g transform="translate(386.087252 183.341394) scale(0.1 -0.1)">
       <use xlink:href="#DejaVuSans-31"/>
       <use xlink:href="#DejaVuSans-30" x="63.623047"/>
       <use xlink:href="#DejaVuSans-30" x="127.246094"/>
       <use xlink:href="#DejaVuSans-30" x="190.869141"/>
      </g>
     </g>
    </g>
   </g>
   <g id="matplotlib.axis_4">
    <g id="ytick_3">
     <g id="line2d_16">
      <g>
       <use xlink:href="#m70418f4a51" x="57.6" y="166.157651" style="stroke: #000000; stroke-width: 0.8"/>
      </g>
     </g>
     <g id="text_16">
      <!-- 0.0 -->
      <g transform="translate(34.696875 169.95687) scale(0.1 -0.1)">
       <defs>
        <path id="DejaVuSans-2e" d="M 684 794 
L 1344 794 
L 1344 0 
L 684 0 
L 684 794 
z
" transform="scale(0.015625)"/>
       </defs>
       <use xlink:href="#DejaVuSans-30"/>
       <use xlink:href="#DejaVuSans-2e" x="63.623047"/>
       <use xlink:href="#DejaVuSans-30" x="95.410156"/>
      </g>
     </g>
    </g>
    <g id="ytick_4">
     <g id="line2d_17">
      <g>
       <use xlink:href="#m70418f4a51" x="57.6" y="113.423832" style="stroke: #000000; stroke-width: 0.8"/>
      </g>
     </g>
     <g id="text_17">
      <!-- 0.1 -->
      <g transform="translate(34.696875 117.223051) scale(0.1 -0.1)">
       <use xlink:href="#DejaVuSans-30"/>
       <use xlink:href="#DejaVuSans-2e" x="63.623047"/>
       <use xlink:href="#DejaVuSans-31" x="95.410156"/>
      </g>
     </g>
    </g>
   </g>
   <g id="line2d_18">
    <path d="M 73.832727 126.712546 
L 74.157707 137.505293 
L 74.482686 120.105265 
L 74.807666 118.207658 
L 75.132645 156.221429 
L 75.457625 130.82844 
L 75.782604 155.056482 
L 76.107584 145.881782 
L 76.432563 130.76061 
L 76.757543 157.824734 
L 77.082523 150.528504 
L 77.407502 130.769604 
L 77.732482 136.448237 
L 78.057461 162.934505 
L 78.382441 146.647765 
L 78.70742 142.978154 
L 79.0324 118.278307 
L 79.357379 151.219132 
L 79.682359 120.155205 
L 80.007338 138.693626 
L 80.332318 148.806597 
L 80.657297 140.794562 
L 80.982277 137.283807 
L 81.307256 165.132988 
L 81.632236 121.72122 
L 82.282195 148.565951 
L 82.607174 127.204556 
L 82.932154 145.417422 
L 83.257133 115.920722 
L 83.582113 127.098062 
L 83.907093 165.948962 
L 84.232072 137.769871 
L 84.882031 120.175003 
L 85.207011 155.138459 
L 85.53199 121.859149 
L 85.85697 120.040374 
L 86.181949 121.889214 
L 86.831908 147.682645 
L 87.156888 147.457646 
L 87.481867 140.300379 
L 87.806847 138.099098 
L 88.131826 118.162091 
L 88.456806 128.707211 
L 89.106765 118.149412 
L 89.431744 125.481348 
L 89.756724 161.822129 
L 90.081704 143.665898 
L 90.406683 117.451996 
L 90.731663 146.372989 
L 91.056642 119.989355 
L 91.381622 123.762962 
L 91.706601 141.711493 
L 92.35656 116.556845 
L 92.68154 144.902889 
L 93.006519 160.404372 
L 93.331499 119.106032 
L 93.656478 118.446741 
L 93.981458 163.869367 
L 94.306437 157.38208 
L 94.631417 154.130344 
L 94.956396 142.084058 
L 95.281376 140.539371 
L 95.606355 115.812242 
L 96.256314 121.458904 
L 96.581294 139.22369 
L 96.906274 114.381727 
L 97.231253 152.384006 
L 97.556233 136.600629 
L 97.881212 137.92546 
L 98.206192 116.454449 
L 98.531171 117.57371 
L 98.856151 153.417665 
L 99.18113 126.171324 
L 99.831089 122.065057 
L 100.156069 156.712239 
L 100.481048 145.740283 
L 100.806028 162.127431 
L 101.131007 161.346307 
L 101.455987 158.476861 
L 101.780966 144.075178 
L 102.105946 123.001383 
L 102.430925 119.497475 
L 102.755905 145.531835 
L 103.080885 118.417525 
L 104.055823 159.639795 
L 104.705782 115.664773 
L 105.355741 163.527515 
L 105.680721 139.222496 
L 106.0057 162.651295 
L 106.33068 148.425561 
L 106.655659 143.930546 
L 106.980639 121.762608 
L 107.305618 114.257362 
L 107.630598 126.664983 
L 107.955577 113.679903 
L 108.280557 147.303483 
L 108.605536 163.035149 
L 108.930516 160.915037 
L 109.255495 119.815876 
L 109.905455 160.45891 
L 110.230434 115.985385 
L 110.555414 131.874427 
L 110.880393 154.912222 
L 111.205373 155.328619 
L 111.530352 129.161183 
L 111.855332 141.766765 
L 112.180311 121.108173 
L 112.83027 158.450418 
L 113.15525 116.611683 
L 113.480229 157.184217 
L 113.805209 131.115643 
L 114.130188 150.887357 
L 114.780147 164.523123 
L 115.105127 146.415555 
L 115.430106 138.661615 
L 115.755086 135.657112 
L 116.080066 149.531796 
L 116.405045 117.657611 
L 116.730025 134.340526 
L 117.055004 131.61714 
L 117.379984 160.215792 
L 117.704963 117.964956 
L 118.029943 128.163259 
L 118.354922 121.789251 
L 118.679902 118.477336 
L 119.004881 147.331019 
L 119.329861 124.898695 
L 119.65484 158.125378 
L 119.97982 143.555498 
L 120.304799 157.880641 
L 121.279738 115.061089 
L 121.604717 133.034255 
L 121.929697 115.270142 
L 122.254676 149.176842 
L 122.904636 117.711489 
L 123.229615 147.959478 
L 123.554595 117.926821 
L 123.879574 155.379376 
L 124.204554 162.143185 
L 124.529533 156.427023 
L 124.854513 116.881558 
L 125.179492 148.230793 
L 125.504472 145.417658 
L 125.829451 139.146769 
L 126.154431 119.70449 
L 126.47941 135.871455 
L 126.80439 133.899787 
L 127.129369 146.757577 
L 127.454349 121.980399 
L 127.779328 113.899977 
L 128.104308 162.586901 
L 128.429287 157.180602 
L 128.754267 113.918486 
L 129.079247 154.732991 
L 129.404226 135.283238 
L 129.729206 140.772828 
L 130.054185 125.35044 
L 130.379165 154.069606 
L 130.704144 138.895037 
L 131.029124 162.887271 
L 131.354103 127.77683 
L 131.679083 120.921853 
L 132.004062 159.68655 
L 132.329042 156.158317 
L 132.654021 161.842574 
L 132.979001 130.766282 
L 133.30398 148.261685 
L 133.62896 138.156063 
L 133.953939 143.735939 
L 134.278919 124.678715 
L 134.603898 139.249353 
L 134.928878 141.910869 
L 135.253857 143.380727 
L 135.578837 143.804289 
L 135.903817 139.901691 
L 136.228796 117.964205 
L 136.553776 162.71768 
L 136.878755 115.520599 
L 137.203735 136.380035 
L 137.528714 127.069193 
L 137.853694 133.099938 
L 138.503653 159.844151 
L 138.828632 133.08769 
L 139.153612 134.159039 
L 139.803571 162.574984 
L 140.12855 125.895467 
L 140.45353 129.325745 
L 140.778509 125.186953 
L 141.103489 135.332977 
L 141.428468 136.748757 
L 141.753448 139.412895 
L 142.078428 138.287933 
L 142.403407 120.817227 
L 142.728387 119.509352 
L 143.053366 143.062407 
L 143.378346 134.122191 
L 143.703325 133.720269 
L 144.028305 118.861774 
L 144.353284 125.069543 
L 144.678264 140.955036 
L 145.003243 139.933825 
L 145.328223 148.84232 
L 145.653202 146.021406 
L 145.978182 115.000926 
L 146.628141 159.967533 
L 146.95312 144.303065 
L 147.2781 150.363512 
L 147.603079 119.953457 
L 147.928059 129.466081 
L 148.253038 124.651354 
L 148.578018 117.879724 
L 148.902998 134.232861 
L 149.227977 118.99774 
L 149.552957 121.494682 
L 150.202916 143.220333 
L 150.527895 127.829307 
L 150.852875 130.39753 
L 151.177854 144.760397 
L 151.502834 152.20619 
L 151.827813 123.181263 
L 152.152793 162.217849 
L 152.477772 141.011262 
L 152.802752 127.852927 
L 153.127731 141.441821 
L 153.77769 128.850774 
L 154.10267 125.818143 
L 154.427649 165.900549 
L 154.752629 138.946998 
L 155.077609 140.852072 
L 155.402588 154.634717 
L 155.727568 156.844278 
L 156.377527 114.319226 
L 156.702506 164.69194 
L 157.027486 135.086108 
L 157.352465 119.592799 
L 157.677445 156.762906 
L 158.002424 117.337189 
L 158.327404 114.013236 
L 158.652383 156.294216 
L 158.977363 162.189683 
L 159.627322 125.934171 
L 159.952301 158.76378 
L 160.277281 130.561186 
L 160.60226 159.764926 
L 160.92724 142.839085 
L 161.252219 150.932969 
L 161.577199 154.40068 
L 161.902179 153.781629 
L 162.227158 161.049716 
L 162.552138 146.289517 
L 162.877117 123.705488 
L 163.202097 155.248914 
L 163.527076 121.496522 
L 163.852056 158.582079 
L 164.502015 116.632653 
L 164.826994 158.111252 
L 165.151974 159.875667 
L 165.801933 119.078107 
L 166.126912 128.596258 
L 166.451892 127.511495 
L 166.776871 147.385381 
L 167.101851 128.557656 
L 167.42683 139.097478 
L 167.75181 159.411803 
L 168.07679 137.380368 
L 168.401769 137.476835 
L 169.376708 119.89528 
L 170.351646 148.464558 
L 171.326585 115.344537 
L 171.651564 113.967357 
L 171.976544 133.398821 
L 172.301523 164.835289 
L 173.276462 150.640567 
L 173.601441 122.614464 
L 173.926421 145.541551 
L 174.2514 158.908673 
L 174.57638 129.078541 
L 174.90136 122.7267 
L 175.226339 149.240463 
L 175.551319 126.574394 
L 175.876298 139.325694 
L 176.201278 117.694332 
L 176.526257 118.029867 
L 176.851237 141.854223 
L 177.176216 155.301814 
L 177.501196 157.13889 
L 177.826175 128.169878 
L 178.151155 115.725124 
L 178.476134 118.55141 
L 178.801114 158.392771 
L 179.126093 137.236504 
L 179.451073 134.999344 
L 179.776052 148.211739 
L 180.101032 126.575848 
L 180.426011 151.751166 
L 180.750991 134.432138 
L 181.075971 142.745249 
L 181.40095 129.866932 
L 181.72593 125.204764 
L 182.050909 142.866767 
L 182.375889 153.17521 
L 182.700868 145.836213 
L 183.025848 131.826805 
L 183.350827 148.148831 
L 183.675807 150.442399 
L 184.000786 163.218002 
L 184.325766 165.28743 
L 184.650745 123.653029 
L 184.975725 162.223477 
L 185.300704 148.490603 
L 185.625684 148.515256 
L 185.950663 130.829624 
L 186.275643 157.315593 
L 186.600622 128.320297 
L 186.925602 136.510188 
L 187.250581 165.291936 
L 187.575561 133.286615 
L 188.22552 124.917193 
L 188.875479 163.282367 
L 189.200459 148.944436 
L 189.525438 120.310613 
L 189.850418 114.0402 
L 190.175397 160.041736 
L 190.500377 150.851808 
L 190.825356 118.968994 
L 191.150336 128.929711 
L 191.475315 142.931907 
L 191.800295 132.261897 
L 192.125274 165.630958 
L 192.450254 137.873079 
L 192.775233 125.438169 
L 193.100213 153.274379 
L 193.425192 118.127326 
L 193.750172 119.07612 
L 194.075152 165.229248 
L 194.400131 141.813449 
L 194.725111 145.279275 
L 195.05009 141.668433 
L 195.37507 149.696046 
L 195.700049 142.131407 
L 196.025029 155.329879 
L 196.350008 135.272082 
L 196.674988 145.057335 
L 196.999967 117.51456 
L 197.324947 155.208852 
L 197.649926 164.079211 
L 197.974906 142.094021 
L 198.299885 157.155944 
L 198.624865 131.767394 
L 198.949844 130.976944 
L 199.274824 129.729786 
L 199.599803 140.415519 
L 199.924783 130.517134 
L 200.249762 144.265039 
L 200.574742 137.393736 
L 200.899722 128.169406 
L 201.224701 124.125235 
L 201.549681 122.182363 
L 201.87466 158.87263 
L 202.19964 164.719662 
L 202.524619 163.211079 
L 202.849599 149.763034 
L 203.174578 160.183499 
L 203.499558 165.254021 
L 203.824537 146.345198 
L 204.149517 154.469012 
L 204.474496 134.121195 
L 204.799476 164.986062 
L 205.124455 164.277648 
L 205.449435 116.654886 
L 205.774414 114.275165 
L 206.099394 134.286702 
L 206.424373 115.509715 
L 206.749353 118.441217 
L 207.074333 115.981118 
L 207.399312 162.6908 
L 207.724292 118.745862 
L 208.049271 142.442081 
L 208.374251 138.965622 
L 208.69923 163.110156 
L 209.02421 127.559385 
L 209.349189 153.842036 
L 209.674169 128.17928 
L 209.999148 154.759723 
L 210.324128 164.242848 
L 210.649107 164.002791 
L 210.974087 122.498574 
L 211.299066 153.658722 
L 211.624046 162.058921 
L 211.949025 117.695028 
L 212.274005 116.151789 
L 212.598984 142.999356 
L 212.923964 154.712526 
L 213.248943 125.900338 
L 213.573923 163.395023 
L 213.898903 115.773664 
L 214.223882 141.981191 
L 214.548862 145.414381 
L 214.873841 121.081895 
L 215.198821 140.321696 
L 215.5238 144.793496 
L 215.84878 162.161906 
L 216.173759 158.017308 
L 216.498739 123.413558 
L 216.823718 117.490477 
L 217.148698 119.028027 
L 217.473677 124.210019 
L 217.798657 115.770752 
L 218.123636 117.464148 
L 218.448616 161.860252 
L 218.773595 156.798208 
L 219.098575 134.79329 
L 219.423554 130.341251 
L 219.748534 133.695904 
L 220.073514 153.813398 
L 220.398493 131.175379 
L 220.723473 124.38797 
L 221.048452 114.878702 
L 221.373432 143.336863 
L 221.698411 114.524816 
L 222.023391 114.193091 
L 222.34837 134.662288 
L 222.67335 114.457843 
L 222.998329 124.632609 
L 223.323309 156.564468 
L 223.973268 129.517113 
L 224.298247 139.275709 
L 224.623227 156.315349 
L 224.948206 121.286187 
L 225.273186 125.11436 
L 225.598165 162.068129 
L 225.923145 130.244883 
L 226.573104 149.537059 
L 226.898084 150.881196 
L 227.223063 147.78374 
L 227.548043 139.917149 
L 227.873022 152.489717 
L 228.198002 148.859521 
L 228.522981 162.205174 
L 228.847961 133.633975 
L 229.17294 163.734926 
L 229.49792 157.291577 
L 229.822899 163.868942 
L 230.147879 117.049471 
L 230.472858 132.034575 
L 230.797838 162.097683 
L 231.122817 134.51943 
L 231.447797 124.471222 
L 231.772776 158.897044 
L 232.097756 165.388359 
L 232.422735 149.65802 
L 232.747715 122.729593 
L 233.397674 160.080256 
L 233.722654 139.502953 
L 234.047633 161.409982 
L 234.372613 137.523424 
L 234.697592 138.46429 
L 235.022572 118.040742 
L 235.347551 145.520944 
L 235.672531 127.434564 
L 235.99751 130.942298 
L 236.32249 127.523994 
L 236.647469 148.627417 
L 236.972449 148.457892 
L 237.297428 113.692327 
L 237.622408 145.211944 
L 237.947387 152.553192 
L 238.272367 164.318919 
L 238.922326 140.460206 
L 239.247305 148.648878 
L 239.572285 146.730291 
L 239.897265 125.676416 
L 240.222244 122.433155 
L 240.547224 131.226056 
L 240.872203 149.042632 
L 241.197183 123.888724 
L 241.522162 151.888491 
L 241.847142 152.662935 
L 242.172121 154.007981 
L 242.497101 140.268284 
L 242.82208 162.469228 
L 243.14706 158.171656 
L 243.472039 157.274355 
L 243.797019 124.845042 
L 244.121998 121.848495 
L 244.446978 140.841176 
L 244.771957 137.111962 
L 245.096937 158.060396 
L 245.421916 151.902453 
L 245.746896 143.076896 
L 246.071876 117.668896 
L 246.396855 123.688419 
L 246.721835 146.835235 
L 247.046814 158.682973 
L 247.371794 118.463004 
L 247.696773 152.04805 
L 248.021753 144.048558 
L 248.346732 116.310456 
L 248.996691 162.455957 
L 249.321671 133.34199 
L 249.64665 161.586059 
L 249.97163 131.26399 
L 250.296609 140.441723 
L 250.621589 136.408182 
L 250.946568 136.736097 
L 251.271548 153.141792 
L 251.596527 121.545078 
L 251.921507 140.782013 
L 252.246486 122.856148 
L 252.571466 132.464782 
L 252.896446 125.890236 
L 253.221425 131.678392 
L 253.546405 163.141927 
L 253.871384 134.693341 
L 254.196364 138.637318 
L 254.521343 134.702693 
L 254.846323 165.139434 
L 255.171302 162.48048 
L 255.496282 143.377549 
L 256.146241 161.085636 
L 256.47122 113.996542 
L 256.7962 120.077516 
L 257.121179 134.8804 
L 257.446159 125.230805 
L 257.771138 165.313039 
L 258.096118 132.669724 
L 258.421097 144.696541 
L 258.746077 161.597423 
L 259.071057 150.376924 
L 259.396036 164.000774 
L 259.721016 137.096897 
L 260.045995 134.878826 
L 260.370975 163.618547 
L 260.695954 121.238681 
L 261.020934 160.62025 
L 261.345913 132.024264 
L 261.670893 160.306459 
L 262.320852 114.464904 
L 262.645831 130.690224 
L 262.970811 129.986588 
L 263.29579 137.910826 
L 263.945749 165.080065 
L 264.270729 119.564415 
L 264.920688 158.075594 
L 265.245667 117.531054 
L 265.570647 136.231772 
L 265.895627 134.436344 
L 266.545586 114.755678 
L 266.870565 162.815443 
L 267.195545 137.435019 
L 267.520524 136.725486 
L 267.845504 114.549179 
L 268.170483 142.52157 
L 268.495463 125.390565 
L 268.820442 131.000441 
L 269.145422 115.67088 
L 269.470401 116.224914 
L 269.795381 118.053671 
L 270.12036 153.5324 
L 270.44534 154.59886 
L 270.770319 160.96934 
L 271.095299 127.865981 
L 271.420278 118.69 
L 271.745258 117.001269 
L 272.395217 161.137584 
L 272.720197 119.180736 
L 273.045176 118.172875 
L 273.370156 114.801216 
L 273.695135 144.331307 
L 274.020115 120.398329 
L 274.345094 147.3875 
L 274.670074 130.356663 
L 274.995053 152.621939 
L 275.320033 114.796022 
L 275.645012 151.280258 
L 275.969992 119.654588 
L 276.294971 137.406697 
L 276.619951 163.593117 
L 276.94493 162.711692 
L 277.26991 115.075705 
L 277.594889 150.448317 
L 277.919869 115.459866 
L 278.244848 150.298697 
L 278.569828 142.591664 
L 278.894808 150.024544 
L 279.219787 115.054706 
L 279.544767 150.151258 
L 279.869746 143.75597 
L 280.194726 124.28598 
L 280.519705 117.221613 
L 280.844685 149.499062 
L 281.169664 123.595936 
L 281.494644 138.610603 
L 281.819623 128.47505 
L 282.144603 140.336295 
L 282.469582 137.465126 
L 282.794562 126.511055 
L 283.119541 144.017287 
L 283.444521 117.390632 
L 283.7695 148.163305 
L 284.09448 157.40149 
L 284.419459 163.017555 
L 284.744439 149.326877 
L 285.069419 147.269614 
L 285.394398 120.677626 
L 285.719378 126.942531 
L 286.044357 118.895074 
L 286.369337 161.826085 
L 287.019296 118.837493 
L 287.344275 146.60763 
L 287.669255 119.078972 
L 287.994234 115.54106 
L 288.319214 160.878259 
L 288.644193 165.688574 
L 288.969173 113.935677 
L 289.619132 148.823616 
L 289.944111 127.913969 
L 290.269091 153.75954 
L 290.59407 138.243914 
L 290.91905 130.056027 
L 291.244029 135.391168 
L 291.569009 146.614835 
L 291.893989 133.78156 
L 292.543948 119.697267 
L 292.868927 131.620483 
L 293.193907 119.068308 
L 293.518886 126.130679 
L 293.843866 125.607434 
L 294.168845 165.186327 
L 294.493825 132.961517 
L 294.818804 131.065697 
L 295.143784 143.4579 
L 295.468763 165.079318 
L 295.793743 130.558388 
L 296.118722 134.081715 
L 296.443702 135.789104 
L 296.768681 138.946449 
L 297.093661 149.217574 
L 297.41864 120.174485 
L 297.74362 140.128669 
L 298.0686 129.757544 
L 298.393579 156.816556 
L 299.043538 124.289094 
L 299.368518 155.745893 
L 299.693497 157.824304 
L 300.018477 116.281964 
L 300.668436 156.769403 
L 300.993415 126.731923 
L 301.318395 125.001678 
L 301.968354 151.317907 
L 302.293333 157.241504 
L 302.943292 130.884609 
L 303.268272 154.988231 
L 303.593251 155.415637 
L 303.918231 139.602069 
L 304.24321 150.806405 
L 304.56819 113.645323 
L 304.89317 164.241078 
L 305.218149 145.0551 
L 305.543129 140.902982 
L 305.868108 154.118089 
L 306.193088 138.66357 
L 306.518067 139.079225 
L 306.843047 136.763147 
L 307.168026 126.31984 
L 307.493006 128.6804 
L 307.817985 132.785587 
L 308.142965 121.921129 
L 308.467944 149.400602 
L 308.792924 124.629825 
L 309.117903 126.62213 
L 309.442883 150.379054 
L 309.767862 116.208706 
L 310.092842 139.299371 
L 310.417821 136.486376 
L 310.742801 160.680632 
L 311.067781 151.450525 
L 311.39276 159.458739 
L 311.71774 157.113015 
L 312.042719 141.53893 
L 312.367699 164.778338 
L 312.692678 130.883925 
L 313.017658 163.359237 
L 313.342637 149.999232 
L 313.667617 166.113391 
L 313.992596 145.558607 
L 314.317576 165.671013 
L 314.642555 160.337565 
L 314.967535 123.639334 
L 315.292514 151.99792 
L 315.617494 131.312376 
L 315.942473 119.796334 
L 316.267453 122.477056 
L 316.592432 154.76408 
L 316.917412 155.782161 
L 317.242391 118.928204 
L 317.567371 117.593017 
L 318.21733 157.550463 
L 318.54231 127.140567 
L 318.867289 116.741716 
L 319.192269 163.627711 
L 319.517248 141.383044 
L 319.842228 155.294691 
L 320.167207 148.389022 
L 320.492187 116.711142 
L 320.817166 121.9455 
L 321.142146 146.817661 
L 321.467125 136.617782 
L 321.792105 138.399387 
L 322.117084 132.986083 
L 322.442064 137.269533 
L 322.767043 150.812649 
L 323.092023 127.899548 
L 323.417002 137.014514 
L 323.741982 163.646569 
L 324.391941 142.160176 
L 324.716921 161.567659 
L 325.0419 155.656381 
L 325.36688 130.564813 
L 325.691859 132.629357 
L 326.341818 154.056706 
L 326.666798 115.436573 
L 326.991777 147.972581 
L 327.316757 126.082618 
L 327.966716 120.330032 
L 328.291695 119.732033 
L 328.616675 139.164954 
L 328.941654 145.020152 
L 329.266634 143.889082 
L 329.591613 115.889671 
L 329.916593 119.129286 
L 330.241572 148.555694 
L 330.566552 151.055892 
L 330.891532 159.221661 
L 331.216511 138.922797 
L 331.541491 129.252155 
L 331.86647 165.184984 
L 332.19145 139.240888 
L 332.516429 139.729898 
L 332.841409 137.488759 
L 333.166388 136.994261 
L 333.491368 149.859825 
L 333.816347 144.827102 
L 334.141327 146.441908 
L 334.466306 126.780512 
L 334.791286 146.466702 
L 335.116265 132.618581 
L 335.441245 153.964819 
L 335.766224 152.10013 
L 336.091204 159.803379 
L 336.416183 149.154354 
L 336.741163 164.238882 
L 337.066143 138.839487 
L 337.391122 148.465333 
L 338.041081 133.288221 
L 338.366061 155.127247 
L 338.69104 151.549852 
L 339.01602 150.70538 
L 339.340999 126.807113 
L 339.665979 141.541387 
L 339.990958 117.353115 
L 340.315938 116.824056 
L 340.640917 134.064003 
L 340.965897 134.167532 
L 341.290876 130.264449 
L 341.615856 131.840286 
L 341.940835 144.742458 
L 342.265815 121.730627 
L 342.590794 146.364876 
L 342.915774 122.487424 
L 343.240753 132.182432 
L 343.565733 145.25403 
L 343.890713 165.061884 
L 344.215692 143.947157 
L 344.540672 155.454731 
L 344.865651 130.360377 
L 345.190631 143.665991 
L 345.51561 119.59262 
L 345.84059 121.005301 
L 346.165569 115.840844 
L 346.490549 142.429238 
L 346.815528 149.107297 
L 347.140508 162.384192 
L 347.465487 144.867648 
L 347.790467 159.025971 
L 348.115446 131.158305 
L 348.440426 135.404465 
L 348.765405 130.939866 
L 349.090385 121.963413 
L 349.415364 133.753585 
L 349.740344 119.135806 
L 350.065324 152.291523 
L 350.390303 139.833868 
L 350.715283 165.626791 
L 351.040262 116.778017 
L 351.365242 165.701178 
L 351.690221 148.543013 
L 352.015201 162.78178 
L 352.34018 129.363234 
L 352.66516 113.522087 
L 352.990139 162.041744 
L 353.315119 157.916438 
L 353.640098 162.649755 
L 353.965078 146.660515 
L 354.290057 147.732921 
L 354.615037 114.22152 
L 354.940016 164.296811 
L 355.264996 141.567231 
L 355.589975 154.940187 
L 355.914955 120.432051 
L 356.239934 154.087885 
L 356.564914 154.33196 
L 356.889894 128.75936 
L 357.214873 115.73152 
L 357.539853 137.999645 
L 357.864832 135.073805 
L 358.189812 126.073111 
L 358.514791 124.746356 
L 358.839771 137.779661 
L 359.48973 154.159423 
L 359.814709 140.548766 
L 360.139689 142.884635 
L 360.464668 139.751972 
L 360.789648 165.657061 
L 361.114627 115.32328 
L 361.439607 149.307562 
L 361.764586 152.529933 
L 362.089566 143.67644 
L 362.414545 126.774869 
L 362.739525 144.669704 
L 363.064505 147.199542 
L 363.389484 132.979959 
L 363.714464 138.225782 
L 364.039443 150.14549 
L 364.364423 150.192015 
L 364.689402 164.500391 
L 365.014382 140.9503 
L 365.664341 117.320328 
L 365.98932 162.848646 
L 366.3143 152.59496 
L 366.639279 157.645745 
L 366.964259 121.64962 
L 367.289238 144.777335 
L 367.614218 114.574243 
L 367.939197 153.680988 
L 368.264177 139.404528 
L 368.589156 139.331773 
L 368.914136 121.905979 
L 369.239115 147.050344 
L 369.564095 143.312648 
L 369.889075 145.11251 
L 370.214054 122.644866 
L 370.539034 124.85255 
L 370.864013 151.924952 
L 371.188993 139.50879 
L 371.513972 133.314022 
L 371.838952 157.898433 
L 372.163931 129.414143 
L 372.488911 162.474134 
L 372.81389 158.288256 
L 373.13887 129.542493 
L 373.463849 134.925436 
L 373.788829 157.637509 
L 374.113808 117.999246 
L 374.438788 119.902746 
L 374.763767 149.665089 
L 375.088747 155.539464 
L 375.413726 140.649497 
L 375.738706 113.755485 
L 376.063686 121.673669 
L 376.388665 124.159821 
L 376.713645 141.016158 
L 377.038624 117.27079 
L 377.363604 162.24146 
L 378.013563 127.089605 
L 378.338542 131.633669 
L 378.988501 160.376298 
L 379.63846 120.829226 
L 379.96344 159.706555 
L 380.288419 150.124603 
L 380.613399 154.254903 
L 380.938378 115.535596 
L 381.263358 166.035121 
L 381.913317 125.689616 
L 382.563276 114.001765 
L 382.888256 122.262853 
L 383.213235 125.674951 
L 383.538215 152.731291 
L 383.863194 125.072886 
L 384.188174 123.524241 
L 384.513153 130.844379 
L 384.838133 157.597252 
L 385.163112 154.406202 
L 385.488092 120.10498 
L 385.813071 144.669746 
L 386.138051 139.645672 
L 386.46303 130.244318 
L 386.78801 133.068505 
L 387.112989 142.775703 
L 387.437969 148.192514 
L 387.762948 150.62858 
L 388.087928 116.990285 
L 388.412907 143.138563 
L 388.737887 123.777683 
L 389.062867 162.594411 
L 389.387846 150.57915 
L 389.712826 165.732635 
L 390.037805 152.123619 
L 390.362785 128.390302 
L 390.687764 119.099924 
L 391.337723 151.092827 
L 391.662703 142.959495 
L 391.987682 139.693646 
L 392.312662 154.644227 
L 392.637641 124.691757 
L 392.962621 149.035737 
L 393.2876 159.503749 
L 393.61258 139.928661 
L 393.937559 147.437961 
L 394.262539 165.937223 
L 394.587518 143.680955 
L 394.912498 146.211718 
L 395.237477 156.887592 
L 395.562457 145.974392 
L 395.887437 143.626431 
L 396.212416 159.034238 
L 396.537396 157.900735 
L 396.862375 144.473918 
L 397.187355 124.413693 
L 397.837314 162.22802 
L 398.162293 147.651183 
L 398.487273 159.526815 
L 398.487273 159.526815 
" clip-path="url(#p93c96d332e)" style="fill: none; stroke: #1f77b4; stroke-width: 1.5; stroke-linecap: square"/>
   </g>
   <g id="patch_8">
    <path d="M 57.6 168.742957 
L 57.6 110.892522 
" style="fill: none; stroke: #000000; stroke-width: 0.8; stroke-linejoin: miter; stroke-linecap: square"/>
   </g>
   <g id="patch_9">
    <path d="M 414.72 168.742957 
L 414.72 110.892522 
" style="fill: none; stroke: #000000; stroke-width: 0.8; stroke-linejoin: miter; stroke-linecap: square"/>
   </g>
   <g id="patch_10">
    <path d="M 57.6 168.742957 
L 414.72 168.742957 
" style="fill: none; stroke: #000000; stroke-width: 0.8; stroke-linejoin: miter; stroke-linecap: square"/>
   </g>
   <g id="patch_11">
    <path d="M 57.6 110.892522 
L 414.72 110.892522 
" style="fill: none; stroke: #000000; stroke-width: 0.8; stroke-linejoin: miter; stroke-linecap: square"/>
   </g>
   <g id="text_18">
    <!-- Zgomot -->
    <g transform="translate(212.701875 104.892522) scale(0.12 -0.12)">
     <defs>
      <path id="DejaVuSans-5a" d="M 359 4666 
L 4025 4666 
L 4025 4184 
L 1075 531 
L 4097 531 
L 4097 0 
L 288 0 
L 288 481 
L 3238 4134 
L 359 4134 
L 359 4666 
z
" transform="scale(0.015625)"/>
      <path id="DejaVuSans-6f" d="M 1959 3097 
Q 1497 3097 1228 2736 
Q 959 2375 959 1747 
Q 959 1119 1226 758 
Q 1494 397 1959 397 
Q 2419 397 2687 759 
Q 2956 1122 2956 1747 
Q 2956 2369 2687 2733 
Q 2419 3097 1959 3097 
z
M 1959 3584 
Q 2709 3584 3137 3096 
Q 3566 2609 3566 1747 
Q 3566 888 3137 398 
Q 2709 -91 1959 -91 
Q 1206 -91 779 398 
Q 353 888 353 1747 
Q 353 2609 779 3096 
Q 1206 3584 1959 3584 
z
" transform="scale(0.015625)"/>
      <path id="DejaVuSans-6d" d="M 3328 2828 
Q 3544 3216 3844 3400 
Q 4144 3584 4550 3584 
Q 5097 3584 5394 3201 
Q 5691 2819 5691 2113 
L 5691 0 
L 5113 0 
L 5113 2094 
Q 5113 2597 4934 2840 
Q 4756 3084 4391 3084 
Q 3944 3084 3684 2787 
Q 3425 2491 3425 1978 
L 3425 0 
L 2847 0 
L 2847 2094 
Q 2847 2600 2669 2842 
Q 2491 3084 2119 3084 
Q 1678 3084 1418 2786 
Q 1159 2488 1159 1978 
L 1159 0 
L 581 0 
L 581 3500 
L 1159 3500 
L 1159 2956 
Q 1356 3278 1631 3431 
Q 1906 3584 2284 3584 
Q 2666 3584 2933 3390 
Q 3200 3197 3328 2828 
z
" transform="scale(0.015625)"/>
     </defs>
     <use xlink:href="#DejaVuSans-5a"/>
     <use xlink:href="#DejaVuSans-67" x="68.505859"/>
     <use xlink:href="#DejaVuSans-6f" x="131.982422"/>
     <use xlink:href="#DejaVuSans-6d" x="193.164062"/>
     <use xlink:href="#DejaVuSans-6f" x="290.576172"/>
     <use xlink:href="#DejaVuSans-74" x="351.757812"/>
    </g>
   </g>
  </g>
  <g id="axes_3">
   <g id="patch_12">
    <path d="M 57.6 238.163478 
L 414.72 238.163478 
L 414.72 180.313043 
L 57.6 180.313043 
z
" style="fill: #ffffff"/>
   </g>
   <g id="matplotlib.axis_5">
    <g id="xtick_13">
     <g id="line2d_19">
      <g>
       <use xlink:href="#m38ece1c4f8" x="73.832727" y="238.163478" style="stroke: #000000; stroke-width: 0.8"/>
      </g>
     </g>
     <g id="text_19">
      <!-- 0 -->
      <g transform="translate(70.651477 252.761916) scale(0.1 -0.1)">
       <use xlink:href="#DejaVuSans-30"/>
      </g>
     </g>
    </g>
    <g id="xtick_14">
     <g id="line2d_20">
      <g>
       <use xlink:href="#m38ece1c4f8" x="138.828632" y="238.163478" style="stroke: #000000; stroke-width: 0.8"/>
      </g>
     </g>
     <g id="text_20">
      <!-- 200 -->
      <g transform="translate(129.284882 252.761916) scale(0.1 -0.1)">
       <use xlink:href="#DejaVuSans-32"/>
       <use xlink:href="#DejaVuSans-30" x="63.623047"/>
       <use xlink:href="#DejaVuSans-30" x="127.246094"/>
      </g>
     </g>
    </g>
    <g id="xtick_15">
     <g id="line2d_21">
      <g>
       <use xlink:href="#m38ece1c4f8" x="203.824537" y="238.163478" style="stroke: #000000; stroke-width: 0.8"/>
      </g>
     </g>
     <g id="text_21">
      <!-- 400 -->
      <g transform="translate(194.280787 252.761916) scale(0.1 -0.1)">
       <use xlink:href="#DejaVuSans-34"/>
       <use xlink:href="#DejaVuSans-30" x="63.623047"/>
       <use xlink:href="#DejaVuSans-30" x="127.246094"/>
      </g>
     </g>
    </g>
    <g id="xtick_16">
     <g id="line2d_22">
      <g>
       <use xlink:href="#m38ece1c4f8" x="268.820442" y="238.163478" style="stroke: #000000; stroke-width: 0.8"/>
      </g>
     </g>
     <g id="text_22">
      <!-- 600 -->
      <g transform="translate(259.276692 252.761916) scale(0.1 -0.1)">
       <use xlink:href="#DejaVuSans-36"/>
       <use xlink:href="#DejaVuSans-30" x="63.623047"/>
       <use xlink:href="#DejaVuSans-30" x="127.246094"/>
      </g>
     </g>
    </g>
    <g id="xtick_17">
     <g id="line2d_23">
      <g>
       <use xlink:href="#m38ece1c4f8" x="333.816347" y="238.163478" style="stroke: #000000; stroke-width: 0.8"/>
      </g>
     </g>
     <g id="text_23">
      <!-- 800 -->
      <g transform="translate(324.272597 252.761916) scale(0.1 -0.1)">
       <use xlink:href="#DejaVuSans-38"/>
       <use xlink:href="#DejaVuSans-30" x="63.623047"/>
       <use xlink:href="#DejaVuSans-30" x="127.246094"/>
      </g>
     </g>
    </g>
    <g id="xtick_18">
     <g id="line2d_24">
      <g>
       <use xlink:href="#m38ece1c4f8" x="398.812252" y="238.163478" style="stroke: #000000; stroke-width: 0.8"/>
      </g>
     </g>
     <g id="text_24">
      <!-- 1000 -->
      <g transform="translate(386.087252 252.761916) scale(0.1 -0.1)">
       <use xlink:href="#DejaVuSans-31"/>
       <use xlink:href="#DejaVuSans-30" x="63.623047"/>
       <use xlink:href="#DejaVuSans-30" x="127.246094"/>
       <use xlink:href="#DejaVuSans-30" x="190.869141"/>
      </g>
     </g>
    </g>
   </g>
   <g id="matplotlib.axis_6">
    <g id="ytick_5">
     <g id="line2d_25">
      <g>
       <use xlink:href="#m70418f4a51" x="57.6" y="233.267406" style="stroke: #000000; stroke-width: 0.8"/>
      </g>
     </g>
     <g id="text_25">
      <!-- −0.25 -->
      <g transform="translate(19.954687 237.066625) scale(0.1 -0.1)">
       <defs>
        <path id="DejaVuSans-2212" d="M 678 2272 
L 4684 2272 
L 4684 1741 
L 678 1741 
L 678 2272 
z
" transform="scale(0.015625)"/>
        <path id="DejaVuSans-35" d="M 691 4666 
L 3169 4666 
L 3169 4134 
L 1269 4134 
L 1269 2991 
Q 1406 3038 1543 3061 
Q 1681 3084 1819 3084 
Q 2600 3084 3056 2656 
Q 3513 2228 3513 1497 
Q 3513 744 3044 326 
Q 2575 -91 1722 -91 
Q 1428 -91 1123 -41 
Q 819 9 494 109 
L 494 744 
Q 775 591 1075 516 
Q 1375 441 1709 441 
Q 2250 441 2565 725 
Q 2881 1009 2881 1497 
Q 2881 1984 2565 2268 
Q 2250 2553 1709 2553 
Q 1456 2553 1204 2497 
Q 953 2441 691 2322 
L 691 4666 
z
" transform="scale(0.015625)"/>
       </defs>
       <use xlink:href="#DejaVuSans-2212"/>
       <use xlink:href="#DejaVuSans-30" x="83.789062"/>
       <use xlink:href="#DejaVuSans-2e" x="147.412109"/>
       <use xlink:href="#DejaVuSans-32" x="179.199219"/>
       <use xlink:href="#DejaVuSans-35" x="242.822266"/>
      </g>
     </g>
    </g>
    <g id="ytick_6">
     <g id="line2d_26">
      <g>
       <use xlink:href="#m70418f4a51" x="57.6" y="209.238261" style="stroke: #000000; stroke-width: 0.8"/>
      </g>
     </g>
     <g id="text_26">
      <!-- 0.00 -->
      <g transform="translate(28.334375 213.03748) scale(0.1 -0.1)">
       <use xlink:href="#DejaVuSans-30"/>
       <use xlink:href="#DejaVuSans-2e" x="63.623047"/>
       <use xlink:href="#DejaVuSans-30" x="95.410156"/>
       <use xlink:href="#DejaVuSans-30" x="159.033203"/>
      </g>
     </g>
    </g>
    <g id="ytick_7">
     <g id="line2d_27">
      <g>
       <use xlink:href="#m70418f4a51" x="57.6" y="185.209116" style="stroke: #000000; stroke-width: 0.8"/>
      </g>
     </g>
     <g id="text_27">
      <!-- 0.25 -->
      <g transform="translate(28.334375 189.008334) scale(0.1 -0.1)">
       <use xlink:href="#DejaVuSans-30"/>
       <use xlink:href="#DejaVuSans-2e" x="63.623047"/>
       <use xlink:href="#DejaVuSans-32" x="95.410156"/>
       <use xlink:href="#DejaVuSans-35" x="159.033203"/>
      </g>
     </g>
    </g>
   </g>
   <g id="line2d_28">
    <path d="M 73.832727 209.238261 
L 77.732482 198.669883 
L 79.682359 193.959763 
L 81.307256 190.529292 
L 82.932154 187.655404 
L 84.232072 185.811926 
L 85.53199 184.408172 
L 86.506929 183.657539 
L 87.481867 183.172482 
L 88.456806 182.95544 
L 89.431744 183.005631 
L 90.406683 183.319077 
L 91.381622 183.888658 
L 92.35656 184.704219 
L 93.656478 186.151314 
L 94.956396 187.973816 
L 96.581294 190.70905 
L 98.531171 194.522414 
L 101.131007 200.171563 
L 105.680721 210.152474 
L 107.630598 213.914755 
L 109.255495 216.614682 
L 110.555414 218.426787 
L 111.855332 219.891211 
L 113.15525 220.981622 
L 114.130188 221.543352 
L 115.105127 221.88123 
L 116.080066 221.994664 
L 117.055004 221.886139 
L 118.029943 221.561169 
L 119.004881 221.028212 
L 120.304799 220.013959 
L 121.604717 218.684346 
L 123.229615 216.642868 
L 125.179492 213.764265 
L 128.104308 208.966246 
L 131.354103 203.710844 
L 133.30398 200.971574 
L 134.928878 199.090383 
L 136.228796 197.913701 
L 137.528714 197.070396 
L 138.503653 196.675015 
L 139.478591 196.493581 
L 140.45353 196.532602 
L 141.428468 196.795578 
L 142.403407 197.282947 
L 143.378346 197.992065 
L 144.678264 199.272206 
L 145.978182 200.914321 
L 147.2781 202.887647 
L 148.902998 205.759773 
L 150.852875 209.676678 
L 153.77769 216.114587 
L 157.677445 224.622265 
L 159.627322 228.350853 
L 161.252219 230.991129 
L 162.552138 232.723814 
L 163.852056 234.07074 
L 164.826994 234.805618 
L 165.801933 235.290801 
L 166.776871 235.517133 
L 167.75181 235.478532 
L 168.726749 235.172079 
L 169.701687 234.598067 
L 170.676626 233.760007 
L 171.651564 232.664596 
L 172.951482 230.821118 
L 174.2514 228.569405 
L 175.876298 225.242852 
L 177.826175 220.629139 
L 180.426011 213.749354 
L 186.600622 197.03861 
L 188.5505 192.526763 
L 190.175397 189.307978 
L 191.475315 187.154876 
L 192.775233 185.418737 
L 193.750172 184.408172 
L 194.725111 183.657539 
L 195.700049 183.172482 
L 196.674988 182.95544 
L 197.649926 183.005631 
L 198.624865 183.319077 
L 199.599803 183.888658 
L 200.574742 184.704219 
L 201.87466 186.151314 
L 203.174578 187.973816 
L 204.799476 190.70905 
L 206.749353 194.522414 
L 209.349189 200.171563 
L 213.898903 210.152474 
L 215.84878 213.914755 
L 217.473677 216.614682 
L 218.773595 218.426787 
L 220.073514 219.891211 
L 221.373432 220.981622 
L 222.34837 221.543352 
L 223.323309 221.88123 
L 224.298247 221.994664 
L 225.273186 221.886139 
L 226.248124 221.561169 
L 227.223063 221.028212 
L 228.522981 220.013959 
L 229.822899 218.684346 
L 231.447797 216.642868 
L 233.397674 213.764265 
L 236.32249 208.966246 
L 239.572285 203.710844 
L 241.522162 200.971574 
L 243.14706 199.090383 
L 244.446978 197.913701 
L 245.746896 197.070396 
L 246.721835 196.675015 
L 247.696773 196.493581 
L 248.671712 196.532602 
L 249.64665 196.795578 
L 250.621589 197.282947 
L 251.596527 197.992065 
L 252.896446 199.272206 
L 254.196364 200.914321 
L 255.496282 202.887647 
L 257.121179 205.759773 
L 259.071057 209.676678 
L 261.995872 216.114587 
L 265.895627 224.622265 
L 267.845504 228.350853 
L 269.470401 230.991129 
L 270.770319 232.723814 
L 272.070238 234.07074 
L 273.045176 234.805618 
L 274.020115 235.290801 
L 274.995053 235.517133 
L 275.969992 235.478532 
L 276.94493 235.172079 
L 277.919869 234.598067 
L 278.894808 233.760007 
L 279.869746 232.664596 
L 281.169664 230.821118 
L 282.469582 228.569405 
L 284.09448 225.242852 
L 286.044357 220.629139 
L 288.644193 213.749354 
L 294.818804 197.03861 
L 296.768681 192.526763 
L 298.393579 189.307978 
L 299.693497 187.154876 
L 300.993415 185.418737 
L 301.968354 184.408172 
L 302.943292 183.657539 
L 303.918231 183.172482 
L 304.89317 182.95544 
L 305.868108 183.005631 
L 306.843047 183.319077 
L 307.817985 183.888658 
L 308.792924 184.704219 
L 310.092842 186.151314 
L 311.39276 187.973816 
L 313.017658 190.70905 
L 314.967535 194.522414 
L 317.567371 200.171563 
L 322.117084 210.152474 
L 324.066962 213.914755 
L 325.691859 216.614682 
L 326.991777 218.426787 
L 328.291695 219.891211 
L 329.591613 220.981622 
L 330.566552 221.543352 
L 331.541491 221.88123 
L 332.516429 221.994664 
L 333.491368 221.886139 
L 334.466306 221.561169 
L 335.441245 221.028212 
L 336.741163 220.013959 
L 338.041081 218.684346 
L 339.665979 216.642868 
L 341.615856 213.764265 
L 344.540672 208.966246 
L 347.790467 203.710844 
L 349.740344 200.971574 
L 351.365242 199.090383 
L 352.66516 197.913701 
L 353.965078 197.070396 
L 354.940016 196.675015 
L 355.914955 196.493581 
L 356.889894 196.532602 
L 357.864832 196.795578 
L 358.839771 197.282947 
L 359.814709 197.992065 
L 361.114627 199.272206 
L 362.414545 200.914321 
L 363.714464 202.887647 
L 365.339361 205.759773 
L 367.289238 209.676678 
L 370.214054 216.114587 
L 374.113808 224.622265 
L 376.063686 228.350853 
L 377.688583 230.991129 
L 378.988501 232.723814 
L 380.288419 234.07074 
L 381.263358 234.805618 
L 382.238296 235.290801 
L 383.213235 235.517133 
L 384.188174 235.478532 
L 385.163112 235.172079 
L 386.138051 234.598067 
L 387.112989 233.760007 
L 388.087928 232.664596 
L 389.387846 230.821118 
L 390.687764 228.569405 
L 392.312662 225.242852 
L 394.262539 220.629139 
L 396.862375 213.749354 
L 398.487273 209.238261 
L 398.487273 209.238261 
" clip-path="url(#p18d06e995f)" style="fill: none; stroke: #1f77b4; stroke-width: 1.5; stroke-linecap: square"/>
   </g>
   <g id="patch_13">
    <path d="M 57.6 238.163478 
L 57.6 180.313043 
" style="fill: none; stroke: #000000; stroke-width: 0.8; stroke-linejoin: miter; stroke-linecap: square"/>
   </g>
   <g id="patch_14">
    <path d="M 414.72 238.163478 
L 414.72 180.313043 
" style="fill: none; stroke: #000000; stroke-width: 0.8; stroke-linejoin: miter; stroke-linecap: square"/>
   </g>
   <g id="patch_15">
    <path d="M 57.6 238.163478 
L 414.72 238.163478 
" style="fill: none; stroke: #000000; stroke-width: 0.8; stroke-linejoin: miter; stroke-linecap: square"/>
   </g>
   <g id="patch_16">
    <path d="M 57.6 180.313043 
L 414.72 180.313043 
" style="fill: none; stroke: #000000; stroke-width: 0.8; stroke-linejoin: miter; stroke-linecap: square"/>
   </g>
   <g id="text_28">
    <!-- Semnal -->
    <g transform="translate(213.668437 174.313043) scale(0.12 -0.12)">
     <defs>
      <path id="DejaVuSans-53" d="M 3425 4513 
L 3425 3897 
Q 3066 4069 2747 4153 
Q 2428 4238 2131 4238 
Q 1616 4238 1336 4038 
Q 1056 3838 1056 3469 
Q 1056 3159 1242 3001 
Q 1428 2844 1947 2747 
L 2328 2669 
Q 3034 2534 3370 2195 
Q 3706 1856 3706 1288 
Q 3706 609 3251 259 
Q 2797 -91 1919 -91 
Q 1588 -91 1214 -16 
Q 841 59 441 206 
L 441 856 
Q 825 641 1194 531 
Q 1563 422 1919 422 
Q 2459 422 2753 634 
Q 3047 847 3047 1241 
Q 3047 1584 2836 1778 
Q 2625 1972 2144 2069 
L 1759 2144 
Q 1053 2284 737 2584 
Q 422 2884 422 3419 
Q 422 4038 858 4394 
Q 1294 4750 2059 4750 
Q 2388 4750 2728 4690 
Q 3069 4631 3425 4513 
z
" transform="scale(0.015625)"/>
      <path id="DejaVuSans-6e" d="M 3513 2113 
L 3513 0 
L 2938 0 
L 2938 2094 
Q 2938 2591 2744 2837 
Q 2550 3084 2163 3084 
Q 1697 3084 1428 2787 
Q 1159 2491 1159 1978 
L 1159 0 
L 581 0 
L 581 3500 
L 1159 3500 
L 1159 2956 
Q 1366 3272 1645 3428 
Q 1925 3584 2291 3584 
Q 2894 3584 3203 3211 
Q 3513 2838 3513 2113 
z
" transform="scale(0.015625)"/>
      <path id="DejaVuSans-6c" d="M 603 4863 
L 1178 4863 
L 1178 0 
L 603 0 
L 603 4863 
z
" transform="scale(0.015625)"/>
     </defs>
     <use xlink:href="#DejaVuSans-53"/>
     <use xlink:href="#DejaVuSans-65" x="63.476562"/>
     <use xlink:href="#DejaVuSans-6d" x="125"/>
     <use xlink:href="#DejaVuSans-6e" x="222.412109"/>
     <use xlink:href="#DejaVuSans-61" x="285.791016"/>
     <use xlink:href="#DejaVuSans-6c" x="347.070312"/>
    </g>
   </g>
  </g>
  <g id="axes_4">
   <g id="patch_17">
    <path d="M 57.6 307.584 
L 414.72 307.584 
L 414.72 249.733565 
L 57.6 249.733565 
z
" style="fill: #ffffff"/>
   </g>
   <g id="matplotlib.axis_7">
    <g id="xtick_19">
     <g id="line2d_29">
      <g>
       <use xlink:href="#m38ece1c4f8" x="73.832727" y="307.584" style="stroke: #000000; stroke-width: 0.8"/>
      </g>
     </g>
     <g id="text_29">
      <!-- 0 -->
      <g transform="translate(70.651477 322.182437) scale(0.1 -0.1)">
       <use xlink:href="#DejaVuSans-30"/>
      </g>
     </g>
    </g>
    <g id="xtick_20">
     <g id="line2d_30">
      <g>
       <use xlink:href="#m38ece1c4f8" x="138.828632" y="307.584" style="stroke: #000000; stroke-width: 0.8"/>
      </g>
     </g>
     <g id="text_30">
      <!-- 200 -->
      <g transform="translate(129.284882 322.182437) scale(0.1 -0.1)">
       <use xlink:href="#DejaVuSans-32"/>
       <use xlink:href="#DejaVuSans-30" x="63.623047"/>
       <use xlink:href="#DejaVuSans-30" x="127.246094"/>
      </g>
     </g>
    </g>
    <g id="xtick_21">
     <g id="line2d_31">
      <g>
       <use xlink:href="#m38ece1c4f8" x="203.824537" y="307.584" style="stroke: #000000; stroke-width: 0.8"/>
      </g>
     </g>
     <g id="text_31">
      <!-- 400 -->
      <g transform="translate(194.280787 322.182437) scale(0.1 -0.1)">
       <use xlink:href="#DejaVuSans-34"/>
       <use xlink:href="#DejaVuSans-30" x="63.623047"/>
       <use xlink:href="#DejaVuSans-30" x="127.246094"/>
      </g>
     </g>
    </g>
    <g id="xtick_22">
     <g id="line2d_32">
      <g>
       <use xlink:href="#m38ece1c4f8" x="268.820442" y="307.584" style="stroke: #000000; stroke-width: 0.8"/>
      </g>
     </g>
     <g id="text_32">
      <!-- 600 -->
      <g transform="translate(259.276692 322.182437) scale(0.1 -0.1)">
       <use xlink:href="#DejaVuSans-36"/>
       <use xlink:href="#DejaVuSans-30" x="63.623047"/>
       <use xlink:href="#DejaVuSans-30" x="127.246094"/>
      </g>
     </g>
    </g>
    <g id="xtick_23">
     <g id="line2d_33">
      <g>
       <use xlink:href="#m38ece1c4f8" x="333.816347" y="307.584" style="stroke: #000000; stroke-width: 0.8"/>
      </g>
     </g>
     <g id="text_33">
      <!-- 800 -->
      <g transform="translate(324.272597 322.182437) scale(0.1 -0.1)">
       <use xlink:href="#DejaVuSans-38"/>
       <use xlink:href="#DejaVuSans-30" x="63.623047"/>
       <use xlink:href="#DejaVuSans-30" x="127.246094"/>
      </g>
     </g>
    </g>
    <g id="xtick_24">
     <g id="line2d_34">
      <g>
       <use xlink:href="#m38ece1c4f8" x="398.812252" y="307.584" style="stroke: #000000; stroke-width: 0.8"/>
      </g>
     </g>
     <g id="text_34">
      <!-- 1000 -->
      <g transform="translate(386.087252 322.182437) scale(0.1 -0.1)">
       <use xlink:href="#DejaVuSans-31"/>
       <use xlink:href="#DejaVuSans-30" x="63.623047"/>
       <use xlink:href="#DejaVuSans-30" x="127.246094"/>
       <use xlink:href="#DejaVuSans-30" x="190.869141"/>
      </g>
     </g>
    </g>
    <g id="text_35">
     <!-- Ordin esantion -->
     <g transform="translate(199.443594 335.860562) scale(0.1 -0.1)">
      <defs>
       <path id="DejaVuSans-4f" d="M 2522 4238 
Q 1834 4238 1429 3725 
Q 1025 3213 1025 2328 
Q 1025 1447 1429 934 
Q 1834 422 2522 422 
Q 3209 422 3611 934 
Q 4013 1447 4013 2328 
Q 4013 3213 3611 3725 
Q 3209 4238 2522 4238 
z
M 2522 4750 
Q 3503 4750 4090 4092 
Q 4678 3434 4678 2328 
Q 4678 1225 4090 567 
Q 3503 -91 2522 -91 
Q 1538 -91 948 565 
Q 359 1222 359 2328 
Q 359 3434 948 4092 
Q 1538 4750 2522 4750 
z
" transform="scale(0.015625)"/>
       <path id="DejaVuSans-73" d="M 2834 3397 
L 2834 2853 
Q 2591 2978 2328 3040 
Q 2066 3103 1784 3103 
Q 1356 3103 1142 2972 
Q 928 2841 928 2578 
Q 928 2378 1081 2264 
Q 1234 2150 1697 2047 
L 1894 2003 
Q 2506 1872 2764 1633 
Q 3022 1394 3022 966 
Q 3022 478 2636 193 
Q 2250 -91 1575 -91 
Q 1294 -91 989 -36 
Q 684 19 347 128 
L 347 722 
Q 666 556 975 473 
Q 1284 391 1588 391 
Q 1994 391 2212 530 
Q 2431 669 2431 922 
Q 2431 1156 2273 1281 
Q 2116 1406 1581 1522 
L 1381 1569 
Q 847 1681 609 1914 
Q 372 2147 372 2553 
Q 372 3047 722 3315 
Q 1072 3584 1716 3584 
Q 2034 3584 2315 3537 
Q 2597 3491 2834 3397 
z
" transform="scale(0.015625)"/>
      </defs>
      <use xlink:href="#DejaVuSans-4f"/>
      <use xlink:href="#DejaVuSans-72" x="78.710938"/>
      <use xlink:href="#DejaVuSans-64" x="118.074219"/>
      <use xlink:href="#DejaVuSans-69" x="181.550781"/>
      <use xlink:href="#DejaVuSans-6e" x="209.333984"/>
      <use xlink:href="#DejaVuSans-20" x="272.712891"/>
      <use xlink:href="#DejaVuSans-65" x="304.5"/>
      <use xlink:href="#DejaVuSans-73" x="366.023438"/>
      <use xlink:href="#DejaVuSans-61" x="418.123047"/>
      <use xlink:href="#DejaVuSans-6e" x="479.402344"/>
      <use xlink:href="#DejaVuSans-74" x="542.78125"/>
      <use xlink:href="#DejaVuSans-69" x="581.990234"/>
      <use xlink:href="#DejaVuSans-6f" x="609.773438"/>
      <use xlink:href="#DejaVuSans-6e" x="670.955078"/>
     </g>
    </g>
   </g>
   <g id="matplotlib.axis_8">
    <g id="ytick_8">
     <g id="line2d_35">
      <g>
       <use xlink:href="#m70418f4a51" x="57.6" y="301.37093" style="stroke: #000000; stroke-width: 0.8"/>
      </g>
     </g>
     <g id="text_36">
      <!-- 2.5 -->
      <g transform="translate(34.696875 305.170148) scale(0.1 -0.1)">
       <use xlink:href="#DejaVuSans-32"/>
       <use xlink:href="#DejaVuSans-2e" x="63.623047"/>
       <use xlink:href="#DejaVuSans-35" x="95.410156"/>
      </g>
     </g>
    </g>
    <g id="ytick_9">
     <g id="line2d_36">
      <g>
       <use xlink:href="#m70418f4a51" x="57.6" y="279.448228" style="stroke: #000000; stroke-width: 0.8"/>
      </g>
     </g>
     <g id="text_37">
      <!-- 5.0 -->
      <g transform="translate(34.696875 283.247447) scale(0.1 -0.1)">
       <use xlink:href="#DejaVuSans-35"/>
       <use xlink:href="#DejaVuSans-2e" x="63.623047"/>
       <use xlink:href="#DejaVuSans-30" x="95.410156"/>
      </g>
     </g>
    </g>
    <g id="ytick_10">
     <g id="line2d_37">
      <g>
       <use xlink:href="#m70418f4a51" x="57.6" y="257.525526" style="stroke: #000000; stroke-width: 0.8"/>
      </g>
     </g>
     <g id="text_38">
      <!-- 7.5 -->
      <g transform="translate(34.696875 261.324745) scale(0.1 -0.1)">
       <defs>
        <path id="DejaVuSans-37" d="M 525 4666 
L 3525 4666 
L 3525 4397 
L 1831 0 
L 1172 0 
L 2766 4134 
L 525 4134 
L 525 4666 
z
" transform="scale(0.015625)"/>
       </defs>
       <use xlink:href="#DejaVuSans-37"/>
       <use xlink:href="#DejaVuSans-2e" x="63.623047"/>
       <use xlink:href="#DejaVuSans-35" x="95.410156"/>
      </g>
     </g>
    </g>
    <g id="text_39">
     <!-- Valoare -->
     <g transform="translate(28.617187 297.287689) rotate(-90) scale(0.1 -0.1)">
      <defs>
       <path id="DejaVuSans-56" d="M 1831 0 
L 50 4666 
L 709 4666 
L 2188 738 
L 3669 4666 
L 4325 4666 
L 2547 0 
L 1831 0 
z
" transform="scale(0.015625)"/>
      </defs>
      <use xlink:href="#DejaVuSans-56"/>
      <use xlink:href="#DejaVuSans-61" x="60.658203"/>
      <use xlink:href="#DejaVuSans-6c" x="121.9375"/>
      <use xlink:href="#DejaVuSans-6f" x="149.720703"/>
      <use xlink:href="#DejaVuSans-61" x="210.902344"/>
      <use xlink:href="#DejaVuSans-72" x="272.181641"/>
      <use xlink:href="#DejaVuSans-65" x="311.044922"/>
     </g>
    </g>
   </g>
   <g id="line2d_38">
    <path d="M 73.832727 304.443609 
L 74.157707 304.684711 
L 74.482686 303.988246 
L 74.807666 303.807524 
L 75.132645 304.954435 
L 75.457625 303.992934 
L 75.782604 304.682187 
L 76.107584 304.261096 
L 76.432563 303.642896 
L 76.757543 304.428444 
L 77.082523 304.072089 
L 77.407502 303.302195 
L 77.732482 303.379336 
L 78.057461 304.149623 
L 78.382441 303.498587 
L 78.70742 303.268475 
L 79.0324 302.340334 
L 79.357379 303.330675 
L 79.682359 302.19391 
L 80.007338 302.708453 
L 80.332318 302.944499 
L 80.982277 302.366139 
L 81.307256 303.197642 
L 81.632236 301.661157 
L 82.282195 302.374817 
L 82.607174 301.578063 
L 82.932154 302.09971 
L 83.257133 301.036933 
L 83.582113 301.329237 
L 83.907093 302.544297 
L 84.232072 301.532518 
L 84.882031 300.805611 
L 85.207011 301.901355 
L 85.53199 300.730065 
L 85.85697 300.607688 
L 86.181949 300.609913 
L 86.831908 301.357169 
L 87.156888 301.298397 
L 87.481867 301.011752 
L 87.806847 300.892617 
L 88.131826 300.186314 
L 88.456806 300.496465 
L 89.106765 300.072239 
L 89.431744 300.283521 
L 89.756724 301.462213 
L 90.081704 300.831064 
L 90.406683 299.934525 
L 90.731663 300.874221 
L 91.056642 299.977133 
L 91.381622 300.08551 
L 91.706601 300.667776 
L 92.35656 299.80907 
L 92.68154 300.744259 
L 93.006519 301.254541 
L 93.331499 299.878006 
L 93.656478 299.855208 
L 93.981458 301.367106 
L 95.281376 300.615962 
L 95.606355 299.804391 
L 96.256314 300.018814 
L 96.581294 300.625303 
L 96.906274 299.816246 
L 97.231253 301.098639 
L 97.556233 300.593533 
L 97.881212 300.658623 
L 98.206192 299.966697 
L 98.531171 300.027115 
L 98.856151 301.243352 
L 99.18113 300.362197 
L 99.831089 300.277842 
L 100.156069 301.457159 
L 100.481048 301.119768 
L 100.806028 301.692678 
L 101.455987 301.627891 
L 101.780966 301.177448 
L 102.105946 300.505123 
L 102.430925 300.417059 
L 102.755905 301.311207 
L 103.080885 300.437479 
L 104.055823 301.890062 
L 104.705782 300.478976 
L 105.355741 302.119014 
L 105.680721 301.333376 
L 106.0057 302.134211 
L 106.33068 301.6816 
L 106.655659 301.551398 
L 106.980639 300.832141 
L 107.305618 300.599169 
L 107.630598 301.027019 
L 107.955577 300.608853 
L 108.280557 301.739217 
L 108.605536 302.272893 
L 108.930516 302.211151 
L 109.255495 300.851284 
L 109.905455 302.211477 
L 110.230434 300.733761 
L 110.555414 301.261601 
L 110.880393 302.025172 
L 111.205373 302.034339 
L 111.530352 301.15728 
L 111.855332 301.567591 
L 112.180311 300.869434 
L 112.83027 302.082536 
L 113.15525 300.673292 
L 113.480229 302.002605 
L 113.805209 301.113289 
L 114.130188 301.746228 
L 114.780147 302.143544 
L 115.105127 301.509764 
L 115.430106 301.218011 
L 115.755086 301.081906 
L 116.080066 301.504869 
L 116.405045 300.404033 
L 116.730025 300.915832 
L 117.055004 300.779964 
L 117.379984 301.683571 
L 117.704963 300.228666 
L 118.029943 300.515931 
L 118.679902 300.083579 
L 119.004881 300.984955 
L 119.329861 300.178635 
L 119.65484 301.221429 
L 119.97982 300.672671 
L 120.304799 301.083011 
L 121.279738 299.449873 
L 121.604717 299.974536 
L 121.929697 299.309052 
L 122.254676 300.360497 
L 122.904636 299.157257 
L 123.229615 300.082836 
L 123.554595 299.002357 
L 123.879574 300.16512 
L 124.204554 300.306143 
L 124.529533 300.03109 
L 124.854513 298.630008 
L 125.179492 299.585879 
L 125.829451 299.108052 
L 126.154431 298.37264 
L 126.47941 298.820998 
L 126.80439 298.665674 
L 127.129369 299.003202 
L 127.454349 298.088815 
L 127.779328 297.729559 
L 128.104308 299.258186 
L 128.429287 298.987796 
L 128.754267 297.458498 
L 129.079247 298.725597 
L 129.404226 297.988707 
L 129.729206 298.081607 
L 130.054185 297.479466 
L 130.379165 298.345913 
L 130.704144 297.753165 
L 131.029124 298.463725 
L 131.354103 297.20944 
L 131.679083 296.895739 
L 132.004062 298.100201 
L 132.329042 297.899115 
L 132.654021 298.005521 
L 132.979001 296.890528 
L 133.30398 297.392182 
L 133.62896 296.977209 
L 133.953939 297.085299 
L 134.278919 296.375473 
L 134.603898 296.785569 
L 135.578837 296.723368 
L 135.903817 296.525804 
L 136.228796 295.730257 
L 136.553776 297.154581 
L 136.878755 295.522739 
L 137.203735 296.156275 
L 137.528714 295.788413 
L 137.853694 295.93282 
L 138.503653 296.716208 
L 138.828632 295.7765 
L 139.153612 295.764448 
L 139.803571 296.620704 
L 140.12855 295.359739 
L 140.45353 295.434971 
L 140.778509 295.260709 
L 141.103489 295.563772 
L 142.078428 295.572383 
L 142.403407 294.965921 
L 142.728387 294.899216 
L 143.053366 295.661533 
L 143.378346 295.345371 
L 143.703325 295.315333 
L 144.028305 294.80663 
L 144.353284 295.000649 
L 144.678264 295.518597 
L 145.003243 295.476297 
L 145.328223 295.766232 
L 145.653202 295.668022 
L 145.978182 294.63386 
L 146.628141 296.129902 
L 146.95312 295.611863 
L 147.2781 295.818042 
L 147.603079 294.812923 
L 147.928059 295.137119 
L 148.578018 294.771884 
L 148.902998 295.327893 
L 149.227977 294.834638 
L 149.552957 294.932335 
L 150.202916 295.687544 
L 150.527895 295.193517 
L 150.852875 295.297678 
L 151.177854 295.794922 
L 151.502834 296.06285 
L 151.827813 295.118483 
L 152.152793 296.438255 
L 152.477772 295.754933 
L 152.802752 295.339654 
L 153.127731 295.814216 
L 153.77769 295.441197 
L 154.10267 295.363259 
L 154.427649 296.719149 
L 154.752629 295.845381 
L 155.077609 295.931114 
L 155.402588 296.411499 
L 155.727568 296.506523 
L 156.377527 295.133536 
L 156.702506 296.828409 
L 157.027486 295.862525 
L 157.352465 295.365067 
L 157.677445 296.618063 
L 158.002424 295.322535 
L 158.327404 295.226479 
L 158.652383 296.645864 
L 158.977363 296.853774 
L 159.627322 295.667229 
L 159.952301 296.766309 
L 160.277281 295.833893 
L 160.60226 296.808921 
L 160.92724 296.247931 
L 161.252219 296.517129 
L 161.577199 296.630485 
L 161.902179 296.60587 
L 162.227158 296.841448 
L 162.552138 296.342233 
L 162.877117 295.580574 
L 163.202097 296.616787 
L 163.527076 295.47905 
L 163.852056 296.694836 
L 164.502015 295.257101 
L 164.826994 296.611523 
L 165.151974 296.642567 
L 165.801933 295.222612 
L 166.126912 295.503631 
L 166.451892 295.429333 
L 166.776871 296.04937 
L 167.101851 295.379549 
L 167.42683 295.683695 
L 167.75181 296.310174 
L 168.07679 295.525568 
L 168.401769 295.474135 
L 169.376708 294.708981 
L 170.351646 295.45416 
L 171.326585 294.123652 
L 171.651564 293.996305 
L 171.976544 294.558462 
L 172.301523 295.517375 
L 173.276462 294.770902 
L 173.601441 293.742653 
L 173.926421 294.406743 
L 174.2514 294.750689 
L 174.57638 293.655849 
L 174.90136 293.339776 
L 175.226339 294.114739 
L 175.551319 293.252151 
L 175.876298 293.565609 
L 176.201278 292.733786 
L 176.526257 292.630828 
L 176.851237 293.30743 
L 177.176216 293.637378 
L 177.501196 293.579722 
L 177.826175 292.496146 
L 178.151155 291.960844 
L 178.476134 291.932226 
L 178.801114 293.133546 
L 179.126093 292.305199 
L 179.451073 292.105142 
L 179.776052 292.41808 
L 180.101032 291.571309 
L 180.426011 292.280749 
L 180.750991 291.576384 
L 181.075971 291.724056 
L 181.40095 291.16661 
L 181.72593 290.882181 
L 182.050909 291.340072 
L 182.375889 291.553364 
L 182.700868 291.179803 
L 183.025848 290.584564 
L 183.350827 290.99835 
L 183.675807 290.945942 
L 184.000786 291.242607 
L 184.325766 291.183768 
L 184.650745 289.67209 
L 184.975725 290.828611 
L 185.300704 290.246482 
L 185.625684 290.122844 
L 185.950663 289.411235 
L 186.275643 290.169808 
L 186.600622 289.084409 
L 186.925602 289.237015 
L 187.250581 290.075855 
L 187.575561 288.89452 
L 188.22552 288.387114 
L 188.875479 289.440861 
L 189.200459 288.855671 
L 189.525438 287.796964 
L 189.850418 287.484019 
L 190.175397 288.911596 
L 190.500377 288.505748 
L 190.825356 287.34737 
L 191.475315 287.955066 
L 191.800295 287.509068 
L 192.125274 288.530111 
L 192.450254 287.520636 
L 192.775233 287.023247 
L 193.100213 287.867705 
L 193.425192 286.620017 
L 193.750172 286.575378 
L 194.075152 288.036742 
L 194.400131 287.187014 
L 194.725111 287.233957 
L 195.05009 287.048204 
L 195.37507 287.252193 
L 195.700049 286.940296 
L 196.025029 287.32162 
L 196.350008 286.599596 
L 196.674988 286.872772 
L 196.999967 285.907172 
L 197.324947 287.113887 
L 197.649926 287.36463 
L 197.974906 286.591819 
L 198.299885 287.053732 
L 198.624865 286.172939 
L 199.274824 286.039985 
L 199.599803 286.366541 
L 199.924783 286.010973 
L 200.249762 286.444251 
L 201.224701 285.716657 
L 201.549681 285.637297 
L 201.87466 286.844963 
L 202.19964 287.028957 
L 202.524619 286.970365 
L 202.849599 286.516675 
L 203.174578 286.858716 
L 203.499558 287.024675 
L 203.824537 286.394906 
L 204.149517 286.665884 
L 204.474496 285.99158 
L 204.799476 287.022047 
L 205.124455 287.003917 
L 205.449435 285.426897 
L 205.774414 285.355864 
L 206.099394 286.030731 
L 206.424373 285.4167 
L 206.749353 285.525685 
L 207.074333 285.456306 
L 207.399312 287.023069 
L 207.724292 285.575616 
L 208.049271 286.378442 
L 208.374251 286.278143 
L 208.69923 287.096949 
L 209.02421 285.930809 
L 209.349189 286.821419 
L 209.674169 285.984641 
L 209.999148 286.885474 
L 210.324128 287.217704 
L 210.649107 287.226485 
L 210.974087 285.862737 
L 211.299066 286.915392 
L 211.624046 287.210743 
L 211.949025 285.750825 
L 212.274005 285.714496 
L 212.598984 286.621758 
L 212.923964 287.024968 
L 213.248943 286.079587 
L 213.573923 287.338545 
L 213.898903 285.765752 
L 214.223882 286.647297 
L 214.548862 286.770281 
L 214.873841 285.968623 
L 215.198821 286.614796 
L 215.5238 286.768452 
L 215.84878 287.349584 
L 216.173759 287.21373 
L 216.498739 286.063293 
L 216.823718 285.865073 
L 217.148698 285.913273 
L 217.473677 286.080917 
L 217.798657 285.793724 
L 218.123636 285.841646 
L 218.448616 287.307843 
L 218.773595 287.127191 
L 219.098575 286.381032 
L 219.423554 286.216581 
L 219.748534 286.309661 
L 220.073514 286.958099 
L 220.398493 286.182406 
L 221.048452 285.588183 
L 221.373432 286.505163 
L 221.698411 285.515186 
L 222.023391 285.47012 
L 222.34837 286.114551 
L 222.67335 285.403956 
L 222.998329 285.701397 
L 223.323309 286.720119 
L 223.973268 285.727119 
L 224.298247 286.001486 
L 224.623227 286.515717 
L 224.948206 285.295977 
L 225.273186 285.366297 
L 225.598165 286.536073 
L 225.923145 285.416264 
L 226.573104 285.928511 
L 226.898084 285.905345 
L 227.223063 285.73239 
L 227.548043 285.398791 
L 227.873022 285.742969 
L 228.198002 285.546338 
L 228.522981 285.912398 
L 228.847961 284.882555 
L 229.17294 285.802244 
L 229.49792 285.504822 
L 229.822899 285.63878 
L 230.147879 283.995272 
L 230.472858 284.405721 
L 230.797838 285.316167 
L 231.122817 284.308187 
L 231.447797 283.881895 
L 231.772776 284.933465 
L 232.097756 285.054819 
L 232.422735 284.436029 
L 232.747715 283.443797 
L 233.397674 284.489973 
L 233.722654 283.7064 
L 234.047633 284.335078 
L 234.372613 283.440154 
L 234.697592 283.370421 
L 235.022572 282.589722 
L 235.347551 283.401857 
L 235.672531 282.698288 
L 235.99751 282.712726 
L 236.32249 282.496739 
L 236.647469 283.096303 
L 236.972449 282.98847 
L 237.297428 281.730231 
L 237.622408 282.676771 
L 237.947387 282.819549 
L 238.272367 283.109924 
L 238.922326 282.11626 
L 239.247305 282.289523 
L 239.572285 282.127425 
L 239.897265 281.329795 
L 240.222244 281.125457 
L 240.547224 281.322442 
L 240.872203 281.82064 
L 241.197183 280.89091 
L 241.522162 281.730213 
L 242.172121 281.620928 
L 242.497101 281.076249 
L 242.82208 281.728408 
L 243.472039 281.38808 
L 243.797019 280.228307 
L 244.121998 280.049173 
L 244.446978 280.603174 
L 244.771957 280.403361 
L 245.096937 281.026192 
L 245.746896 280.386056 
L 246.071876 279.473173 
L 246.396855 279.607578 
L 246.721835 280.313709 
L 247.046814 280.646191 
L 247.371794 279.249172 
L 247.696773 280.308937 
L 248.021753 279.987888 
L 248.346732 279.012592 
L 248.996691 280.448421 
L 249.321671 279.434075 
L 249.64665 280.329581 
L 249.97163 279.279543 
L 250.296609 279.545421 
L 250.621589 279.374147 
L 250.946568 279.350141 
L 251.271548 279.863048 
L 251.596527 278.781675 
L 251.921507 279.39308 
L 252.246486 278.770659 
L 252.571466 279.06608 
L 252.896446 278.825351 
L 253.221425 278.997812 
L 253.546405 280.026176 
L 253.871384 279.06394 
L 254.196364 279.180918 
L 254.521343 279.037728 
L 254.846323 280.039463 
L 255.171302 279.942256 
L 255.496282 279.29985 
L 256.146241 279.879458 
L 256.47122 278.311002 
L 256.7962 278.512309 
L 257.121179 279.005056 
L 257.446159 278.685861 
L 257.771138 280.021861 
L 258.096118 278.940307 
L 258.746077 279.913682 
L 259.071057 279.547555 
L 259.396036 280.008517 
L 259.721016 279.122343 
L 260.045995 279.057812 
L 260.370975 280.023429 
L 260.695954 278.624224 
L 261.020934 279.944608 
L 261.345913 279.004486 
L 261.670893 279.956205 
L 262.320852 278.454041 
L 262.645831 279.00479 
L 262.970811 278.992336 
L 263.29579 279.26655 
L 263.945749 280.190276 
L 264.270729 278.685796 
L 264.920688 279.983099 
L 265.245667 278.641713 
L 265.570647 279.269772 
L 265.895627 279.215153 
L 266.545586 278.567388 
L 266.870565 280.167259 
L 267.195545 279.323295 
L 267.520524 279.29838 
L 267.845504 278.55799 
L 268.170483 279.483825 
L 268.495463 278.907923 
L 268.820442 279.086564 
L 269.145422 278.56696 
L 269.795381 278.620838 
L 270.12036 279.785057 
L 270.44534 279.802678 
L 270.770319 279.99452 
L 271.095299 278.871307 
L 271.420278 278.541574 
L 271.745258 278.458503 
L 272.395217 279.865327 
L 272.720197 278.435689 
L 273.370156 278.213922 
L 273.695135 279.154088 
L 274.020115 278.313549 
L 274.345094 279.163914 
L 274.670074 278.547579 
L 274.995053 279.235445 
L 275.320033 277.92208 
L 275.645012 279.077379 
L 275.969992 277.964739 
L 276.294971 278.491547 
L 276.619951 279.296107 
L 276.94493 279.197693 
L 277.26991 277.54157 
L 277.594889 278.643398 
L 277.919869 277.402434 
L 278.244848 278.481066 
L 278.569828 278.142016 
L 278.894808 278.303815 
L 279.219787 277.052743 
L 279.544767 278.129315 
L 279.869746 277.823372 
L 280.194726 277.080045 
L 280.519705 276.746797 
L 280.844685 277.719511 
L 281.169664 276.754845 
L 281.494644 277.148652 
L 281.819623 276.703702 
L 282.144603 276.988061 
L 282.469582 276.780252 
L 282.794562 276.301486 
L 283.119541 276.767179 
L 283.444521 275.763099 
L 283.7695 276.666068 
L 284.419459 276.913648 
L 284.744439 276.332504 
L 285.069419 276.136635 
L 285.394398 275.123246 
L 285.719378 275.201147 
L 286.044357 274.801673 
L 286.369337 276.096349 
L 287.019296 274.396898 
L 287.344275 275.184036 
L 287.669255 274.131133 
L 287.994234 273.875287 
L 288.319214 275.244197 
L 288.644193 275.264636 
L 288.969173 273.403369 
L 289.619132 274.282316 
L 289.944111 273.445826 
L 290.269091 274.164181 
L 290.91905 273.093419 
L 291.244029 273.129835 
L 291.569009 273.362356 
L 292.218968 272.381798 
L 292.543948 272.047447 
L 292.868927 272.305279 
L 293.193907 271.749865 
L 293.518886 271.847639 
L 293.843866 271.694075 
L 294.168845 272.87526 
L 294.493825 271.669532 
L 294.818804 271.4737 
L 295.143784 271.754363 
L 295.468763 272.343362 
L 295.793743 271.066659 
L 296.768681 270.969465 
L 297.093661 271.189154 
L 297.41864 270.103198 
L 297.74362 270.648722 
L 298.0686 270.187692 
L 298.393579 270.973576 
L 299.043538 269.670142 
L 299.368518 270.608846 
L 299.693497 270.572784 
L 300.018477 269.088334 
L 300.668436 270.236405 
L 300.993415 269.141888 
L 301.318395 268.991323 
L 301.968354 269.688174 
L 302.293333 269.799884 
L 302.943292 268.760611 
L 303.268272 269.484879 
L 303.593251 269.424397 
L 303.918231 268.826454 
L 304.24321 269.129754 
L 304.56819 267.827207 
L 304.89317 269.44595 
L 305.218149 268.746576 
L 305.543129 268.549863 
L 305.868108 268.9334 
L 306.193088 268.366081 
L 306.843047 268.204031 
L 307.168026 267.811145 
L 307.817985 267.942618 
L 308.142965 267.543217 
L 308.467944 268.421474 
L 308.792924 267.564373 
L 309.117903 267.599683 
L 309.442883 268.361117 
L 309.767862 267.198236 
L 310.092842 267.941904 
L 310.417821 267.82618 
L 310.742801 268.610707 
L 311.067781 268.285592 
L 311.39276 268.535703 
L 311.71774 268.44331 
L 312.042719 267.912743 
L 312.367699 268.674731 
L 312.692678 267.538191 
L 313.017658 268.610514 
L 313.342637 268.159915 
L 313.667617 268.690947 
L 313.992596 268.003747 
L 314.317576 268.670264 
L 314.642555 268.491633 
L 314.967535 267.270912 
L 315.292514 268.214794 
L 315.617494 267.52843 
L 315.942473 267.14779 
L 316.267453 267.239981 
L 316.592432 268.317396 
L 316.917412 268.355361 
L 317.242391 267.134176 
L 317.567371 267.094572 
L 318.21733 268.433599 
L 318.54231 267.427367 
L 318.867289 267.086584 
L 319.192269 268.650806 
L 319.517248 267.915624 
L 319.842228 268.382571 
L 320.167207 268.156731 
L 320.492187 267.106483 
L 320.817166 267.283232 
L 321.142146 268.112378 
L 321.467125 267.774299 
L 321.792105 267.833812 
L 322.117084 267.653066 
L 322.442064 267.793758 
L 322.767043 268.241273 
L 323.092023 267.475117 
L 323.417002 267.772856 
L 323.741982 268.651812 
L 324.391941 267.919294 
L 324.716921 268.553453 
L 325.0419 268.343921 
L 325.36688 267.49479 
L 325.691859 267.547049 
L 326.341818 268.221353 
L 326.666798 266.914901 
L 326.991777 267.972977 
L 327.316757 267.218937 
L 328.291695 266.917117 
L 328.616675 267.528911 
L 328.941654 267.686938 
L 329.266634 267.610388 
L 329.591613 266.638004 
L 329.916593 266.702295 
L 330.241572 267.635218 
L 330.566552 267.670334 
L 330.891532 267.891569 
L 331.216511 267.163817 
L 331.541491 266.787223 
L 331.86647 267.924993 
L 332.19145 267.002558 
L 332.841409 266.818223 
L 333.166388 266.73533 
L 333.491368 267.094511 
L 333.816347 266.8562 
L 334.141327 266.836767 
L 334.466306 266.107554 
L 334.791286 266.684814 
L 335.116265 266.144682 
L 335.441245 266.772968 
L 335.766224 266.627277 
L 336.091204 266.797808 
L 336.416183 266.356041 
L 336.741163 266.768229 
L 337.066143 265.83217 
L 337.391122 266.059195 
L 338.041081 265.363108 
L 338.366061 265.991334 
L 339.01602 265.64355 
L 339.340999 264.746254 
L 339.665979 265.132472 
L 339.990958 264.222957 
L 340.315938 264.099124 
L 340.640917 264.565153 
L 340.965897 264.460243 
L 341.290876 264.221144 
L 341.615856 264.163407 
L 341.940835 264.481587 
L 342.265815 263.604655 
L 342.590794 264.311727 
L 342.915774 263.404885 
L 343.565733 263.935394 
L 343.890713 264.480403 
L 344.215692 263.664246 
L 344.540672 263.932959 
L 344.865651 262.984378 
L 345.190631 263.312996 
L 345.51561 262.398653 
L 345.84059 262.332196 
L 346.165569 262.047357 
L 346.490549 262.818999 
L 346.815528 262.928997 
L 347.140508 263.259078 
L 347.465487 262.565735 
L 347.790467 262.926618 
L 348.115446 261.890672 
L 348.440426 261.923712 
L 348.765405 261.668077 
L 349.090385 261.263491 
L 349.415364 261.550739 
L 349.740344 260.960968 
L 350.065324 261.961369 
L 350.390303 261.44616 
L 350.715283 262.204549 
L 351.040262 260.48204 
L 351.365242 262.012813 
L 351.690221 261.347512 
L 352.015201 261.728118 
L 352.34018 260.525508 
L 352.66516 259.909305 
L 352.990139 261.435477 
L 353.315119 261.212704 
L 353.640098 261.286511 
L 353.965078 260.673132 
L 354.290057 260.629227 
L 354.615037 259.437213 
L 354.940016 261.027224 
L 355.264996 260.198034 
L 355.589975 260.571699 
L 355.914955 259.355124 
L 356.239934 260.40774 
L 356.564914 260.351369 
L 356.889894 259.438618 
L 357.214873 258.945317 
L 357.539853 259.628129 
L 357.864832 259.475285 
L 358.189812 259.122647 
L 358.514791 259.027464 
L 358.839771 259.412094 
L 359.48973 259.865819 
L 359.814709 259.370921 
L 360.139689 259.408528 
L 360.464668 259.266394 
L 360.789648 260.092097 
L 361.114627 258.384324 
L 361.439607 259.482825 
L 361.764586 259.560243 
L 362.089566 259.237995 
L 362.414545 258.649991 
L 362.739525 259.221099 
L 363.064505 259.283005 
L 363.389484 258.789611 
L 363.714464 258.94529 
L 364.039443 259.324563 
L 364.364423 259.310529 
L 364.689402 259.77232 
L 365.014382 258.976456 
L 365.664341 258.169329 
L 365.98932 259.674752 
L 366.3143 259.326125 
L 366.639279 259.487558 
L 366.964259 258.284841 
L 367.289238 259.04936 
L 367.614218 258.041026 
L 367.939197 259.338523 
L 368.264177 258.861252 
L 368.589156 258.856922 
L 368.914136 258.275933 
L 369.239115 259.111114 
L 369.564095 258.986023 
L 369.889075 259.045291 
L 370.214054 258.297573 
L 370.539034 258.370509 
L 370.864013 259.270306 
L 371.188993 258.856614 
L 371.513972 258.649556 
L 371.838952 259.465777 
L 372.163931 258.51658 
L 372.488911 259.613658 
L 372.81389 259.471364 
L 373.13887 258.511515 
L 373.463849 258.685877 
L 373.788829 259.435641 
L 374.113808 258.110745 
L 374.438788 258.166332 
L 374.763767 259.147249 
L 375.088747 259.332419 
L 375.413726 258.825642 
L 375.738706 257.918182 
L 376.063686 258.166968 
L 376.388665 258.233481 
L 376.713645 258.776222 
L 377.038624 257.966866 
L 377.363604 259.441017 
L 378.013563 258.223164 
L 378.338542 258.346857 
L 378.988501 259.241495 
L 379.63846 257.856011 
L 379.96344 259.110378 
L 380.288419 258.750693 
L 380.613399 258.844603 
L 380.938378 257.510935 
L 381.263358 259.141967 
L 381.913317 257.695468 
L 382.563276 257.19153 
L 382.888256 257.404648 
L 383.213235 257.453793 
L 383.538215 258.286573 
L 383.863194 257.296918 
L 384.188174 257.172872 
L 384.513153 257.341031 
L 384.838133 258.152726 
L 385.163112 257.965795 
L 385.488092 256.741455 
L 385.813071 257.472133 
L 386.138051 257.216018 
L 386.46303 256.81161 
L 386.78801 256.811102 
L 387.112989 257.036837 
L 387.762948 257.095885 
L 388.087928 255.872193 
L 388.412907 256.63433 
L 388.737887 255.880422 
L 389.062867 257.058915 
L 389.387846 256.544427 
L 389.712826 256.931147 
L 390.037805 256.358972 
L 390.362785 255.447827 
L 390.687764 255.014825 
L 391.337723 255.82445 
L 391.987682 255.18293 
L 392.312662 255.546124 
L 392.637641 254.414151 
L 392.962621 255.086255 
L 393.2876 255.295247 
L 393.61258 254.503522 
L 393.937559 254.611105 
L 394.262539 255.082816 
L 394.587518 254.197795 
L 394.912498 254.135942 
L 395.237477 254.343872 
L 395.562457 253.83278 
L 395.887437 253.60563 
L 396.212416 253.968175 
L 396.537396 253.779863 
L 397.187355 252.36313 
L 397.837314 253.315996 
L 398.162293 252.678418 
L 398.487273 252.920458 
L 398.487273 252.920458 
" clip-path="url(#pa7330a3287)" style="fill: none; stroke: #1f77b4; stroke-width: 1.5; stroke-linecap: square"/>
   </g>
   <g id="patch_18">
    <path d="M 57.6 307.584 
L 57.6 249.733565 
" style="fill: none; stroke: #000000; stroke-width: 0.8; stroke-linejoin: miter; stroke-linecap: square"/>
   </g>
   <g id="patch_19">
    <path d="M 414.72 307.584 
L 414.72 249.733565 
" style="fill: none; stroke: #000000; stroke-width: 0.8; stroke-linejoin: miter; stroke-linecap: square"/>
   </g>
   <g id="patch_20">
    <path d="M 57.6 307.584 
L 414.72 307.584 
" style="fill: none; stroke: #000000; stroke-width: 0.8; stroke-linejoin: miter; stroke-linecap: square"/>
   </g>
   <g id="patch_21">
    <path d="M 57.6 249.733565 
L 414.72 249.733565 
" style="fill: none; stroke: #000000; stroke-width: 0.8; stroke-linejoin: miter; stroke-linecap: square"/>
   </g>
   <g id="text_40">
    <!-- Serie timp -->
    <g transform="translate(205.254375 243.733565) scale(0.12 -0.12)">
     <defs>
      <path id="DejaVuSans-70" d="M 1159 525 
L 1159 -1331 
L 581 -1331 
L 581 3500 
L 1159 3500 
L 1159 2969 
Q 1341 3281 1617 3432 
Q 1894 3584 2278 3584 
Q 2916 3584 3314 3078 
Q 3713 2572 3713 1747 
Q 3713 922 3314 415 
Q 2916 -91 2278 -91 
Q 1894 -91 1617 61 
Q 1341 213 1159 525 
z
M 3116 1747 
Q 3116 2381 2855 2742 
Q 2594 3103 2138 3103 
Q 1681 3103 1420 2742 
Q 1159 2381 1159 1747 
Q 1159 1113 1420 752 
Q 1681 391 2138 391 
Q 2594 391 2855 752 
Q 3116 1113 3116 1747 
z
" transform="scale(0.015625)"/>
     </defs>
     <use xlink:href="#DejaVuSans-53"/>
     <use xlink:href="#DejaVuSans-65" x="63.476562"/>
     <use xlink:href="#DejaVuSans-72" x="125"/>
     <use xlink:href="#DejaVuSans-69" x="166.113281"/>
     <use xlink:href="#DejaVuSans-65" x="193.896484"/>
     <use xlink:href="#DejaVuSans-20" x="255.419922"/>
     <use xlink:href="#DejaVuSans-74" x="287.207031"/>
     <use xlink:href="#DejaVuSans-69" x="326.416016"/>
     <use xlink:href="#DejaVuSans-6d" x="354.199219"/>
     <use xlink:href="#DejaVuSans-70" x="451.611328"/>
    </g>
   </g>
  </g>
 </g>
 <defs>
  <clipPath id="pbaa0152c2c">
   <rect x="57.6" y="41.472" width="357.12" height="57.850435"/>
  </clipPath>
  <clipPath id="p93c96d332e">
   <rect x="57.6" y="110.892522" width="357.12" height="57.850435"/>
  </clipPath>
  <clipPath id="p18d06e995f">
   <rect x="57.6" y="180.313043" width="357.12" height="57.850435"/>
  </clipPath>
  <clipPath id="pa7330a3287">
   <rect x="57.6" y="249.733565" width="357.12" height="57.850435"/>
  </clipPath>
 </defs>
</svg>
