<?xml version="1.0" encoding="utf-8" standalone="no"?>
<!DOCTYPE svg PUBLIC "-//W3C//DTD SVG 1.1//EN"
  "http://www.w3.org/Graphics/SVG/1.1/DTD/svg11.dtd">
<svg xmlns:xlink="http://www.w3.org/1999/xlink" width="460.8pt" height="345.6pt" viewBox="0 0 460.8 345.6" xmlns="http://www.w3.org/2000/svg" version="1.1">
 <metadata>
  <rdf:RDF xmlns:dc="http://purl.org/dc/elements/1.1/" xmlns:cc="http://creativecommons.org/ns#" xmlns:rdf="http://www.w3.org/1999/02/22-rdf-syntax-ns#">
   <cc:Work>
    <dc:type rdf:resource="http://purl.org/dc/dcmitype/StillImage"/>
    <dc:date>2024-12-04T23:29:15.163542</dc:date>
    <dc:format>image/svg+xml</dc:format>
    <dc:creator>
     <cc:Agent>
      <dc:title>Matplotlib v3.9.2, https://matplotlib.org/</dc:title>
     </cc:Agent>
    </dc:creator>
   </cc:Work>
  </rdf:RDF>
 </metadata>
 <defs>
  <style type="text/css">*{stroke-linejoin: round; stroke-linecap: butt}</style>
 </defs>
 <g id="figure_1">
  <g id="patch_1">
   <path d="M 0 345.6 
L 460.8 345.6 
L 460.8 0 
L 0 0 
z
" style="fill: #ffffff"/>
  </g>
  <g id="axes_1">
   <g id="patch_2">
    <path d="M 57.6 99.322435 
L 414.72 99.322435 
L 414.72 41.472 
L 57.6 41.472 
z
" style="fill: #ffffff"/>
   </g>
   <g id="matplotlib.axis_1">
    <g id="xtick_1">
     <g id="line2d_1">
      <defs>
       <path id="m46406ee4bd" d="M 0 0 
L 0 3.5 
" style="stroke: #000000; stroke-width: 0.8"/>
      </defs>
      <g>
       <use xlink:href="#m46406ee4bd" x="73.832727" y="99.322435" style="stroke: #000000; stroke-width: 0.8"/>
      </g>
     </g>
     <g id="text_1">
      <!-- 0 -->
      <g transform="translate(70.651477 113.920872) scale(0.1 -0.1)">
       <defs>
        <path id="DejaVuSans-30" d="M 2034 4250 
Q 1547 4250 1301 3770 
Q 1056 3291 1056 2328 
Q 1056 1369 1301 889 
Q 1547 409 2034 409 
Q 2525 409 2770 889 
Q 3016 1369 3016 2328 
Q 3016 3291 2770 3770 
Q 2525 4250 2034 4250 
z
M 2034 4750 
Q 2819 4750 3233 4129 
Q 3647 3509 3647 2328 
Q 3647 1150 3233 529 
Q 2819 -91 2034 -91 
Q 1250 -91 836 529 
Q 422 1150 422 2328 
Q 422 3509 836 4129 
Q 1250 4750 2034 4750 
z
" transform="scale(0.015625)"/>
       </defs>
       <use xlink:href="#DejaVuSans-30"/>
      </g>
     </g>
    </g>
    <g id="xtick_2">
     <g id="line2d_2">
      <g>
       <use xlink:href="#m46406ee4bd" x="138.828632" y="99.322435" style="stroke: #000000; stroke-width: 0.8"/>
      </g>
     </g>
     <g id="text_2">
      <!-- 200 -->
      <g transform="translate(129.284882 113.920872) scale(0.1 -0.1)">
       <defs>
        <path id="DejaVuSans-32" d="M 1228 531 
L 3431 531 
L 3431 0 
L 469 0 
L 469 531 
Q 828 903 1448 1529 
Q 2069 2156 2228 2338 
Q 2531 2678 2651 2914 
Q 2772 3150 2772 3378 
Q 2772 3750 2511 3984 
Q 2250 4219 1831 4219 
Q 1534 4219 1204 4116 
Q 875 4013 500 3803 
L 500 4441 
Q 881 4594 1212 4672 
Q 1544 4750 1819 4750 
Q 2544 4750 2975 4387 
Q 3406 4025 3406 3419 
Q 3406 3131 3298 2873 
Q 3191 2616 2906 2266 
Q 2828 2175 2409 1742 
Q 1991 1309 1228 531 
z
" transform="scale(0.015625)"/>
       </defs>
       <use xlink:href="#DejaVuSans-32"/>
       <use xlink:href="#DejaVuSans-30" x="63.623047"/>
       <use xlink:href="#DejaVuSans-30" x="127.246094"/>
      </g>
     </g>
    </g>
    <g id="xtick_3">
     <g id="line2d_3">
      <g>
       <use xlink:href="#m46406ee4bd" x="203.824537" y="99.322435" style="stroke: #000000; stroke-width: 0.8"/>
      </g>
     </g>
     <g id="text_3">
      <!-- 400 -->
      <g transform="translate(194.280787 113.920872) scale(0.1 -0.1)">
       <defs>
        <path id="DejaVuSans-34" d="M 2419 4116 
L 825 1625 
L 2419 1625 
L 2419 4116 
z
M 2253 4666 
L 3047 4666 
L 3047 1625 
L 3713 1625 
L 3713 1100 
L 3047 1100 
L 3047 0 
L 2419 0 
L 2419 1100 
L 313 1100 
L 313 1709 
L 2253 4666 
z
" transform="scale(0.015625)"/>
       </defs>
       <use xlink:href="#DejaVuSans-34"/>
       <use xlink:href="#DejaVuSans-30" x="63.623047"/>
       <use xlink:href="#DejaVuSans-30" x="127.246094"/>
      </g>
     </g>
    </g>
    <g id="xtick_4">
     <g id="line2d_4">
      <g>
       <use xlink:href="#m46406ee4bd" x="268.820442" y="99.322435" style="stroke: #000000; stroke-width: 0.8"/>
      </g>
     </g>
     <g id="text_4">
      <!-- 600 -->
      <g transform="translate(259.276692 113.920872) scale(0.1 -0.1)">
       <defs>
        <path id="DejaVuSans-36" d="M 2113 2584 
Q 1688 2584 1439 2293 
Q 1191 2003 1191 1497 
Q 1191 994 1439 701 
Q 1688 409 2113 409 
Q 2538 409 2786 701 
Q 3034 994 3034 1497 
Q 3034 2003 2786 2293 
Q 2538 2584 2113 2584 
z
M 3366 4563 
L 3366 3988 
Q 3128 4100 2886 4159 
Q 2644 4219 2406 4219 
Q 1781 4219 1451 3797 
Q 1122 3375 1075 2522 
Q 1259 2794 1537 2939 
Q 1816 3084 2150 3084 
Q 2853 3084 3261 2657 
Q 3669 2231 3669 1497 
Q 3669 778 3244 343 
Q 2819 -91 2113 -91 
Q 1303 -91 875 529 
Q 447 1150 447 2328 
Q 447 3434 972 4092 
Q 1497 4750 2381 4750 
Q 2619 4750 2861 4703 
Q 3103 4656 3366 4563 
z
" transform="scale(0.015625)"/>
       </defs>
       <use xlink:href="#DejaVuSans-36"/>
       <use xlink:href="#DejaVuSans-30" x="63.623047"/>
       <use xlink:href="#DejaVuSans-30" x="127.246094"/>
      </g>
     </g>
    </g>
    <g id="xtick_5">
     <g id="line2d_5">
      <g>
       <use xlink:href="#m46406ee4bd" x="333.816347" y="99.322435" style="stroke: #000000; stroke-width: 0.8"/>
      </g>
     </g>
     <g id="text_5">
      <!-- 800 -->
      <g transform="translate(324.272597 113.920872) scale(0.1 -0.1)">
       <defs>
        <path id="DejaVuSans-38" d="M 2034 2216 
Q 1584 2216 1326 1975 
Q 1069 1734 1069 1313 
Q 1069 891 1326 650 
Q 1584 409 2034 409 
Q 2484 409 2743 651 
Q 3003 894 3003 1313 
Q 3003 1734 2745 1975 
Q 2488 2216 2034 2216 
z
M 1403 2484 
Q 997 2584 770 2862 
Q 544 3141 544 3541 
Q 544 4100 942 4425 
Q 1341 4750 2034 4750 
Q 2731 4750 3128 4425 
Q 3525 4100 3525 3541 
Q 3525 3141 3298 2862 
Q 3072 2584 2669 2484 
Q 3125 2378 3379 2068 
Q 3634 1759 3634 1313 
Q 3634 634 3220 271 
Q 2806 -91 2034 -91 
Q 1263 -91 848 271 
Q 434 634 434 1313 
Q 434 1759 690 2068 
Q 947 2378 1403 2484 
z
M 1172 3481 
Q 1172 3119 1398 2916 
Q 1625 2713 2034 2713 
Q 2441 2713 2670 2916 
Q 2900 3119 2900 3481 
Q 2900 3844 2670 4047 
Q 2441 4250 2034 4250 
Q 1625 4250 1398 4047 
Q 1172 3844 1172 3481 
z
" transform="scale(0.015625)"/>
       </defs>
       <use xlink:href="#DejaVuSans-38"/>
       <use xlink:href="#DejaVuSans-30" x="63.623047"/>
       <use xlink:href="#DejaVuSans-30" x="127.246094"/>
      </g>
     </g>
    </g>
    <g id="xtick_6">
     <g id="line2d_6">
      <g>
       <use xlink:href="#m46406ee4bd" x="398.812252" y="99.322435" style="stroke: #000000; stroke-width: 0.8"/>
      </g>
     </g>
     <g id="text_6">
      <!-- 1000 -->
      <g transform="translate(386.087252 113.920872) scale(0.1 -0.1)">
       <defs>
        <path id="DejaVuSans-31" d="M 794 531 
L 1825 531 
L 1825 4091 
L 703 3866 
L 703 4441 
L 1819 4666 
L 2450 4666 
L 2450 531 
L 3481 531 
L 3481 0 
L 794 0 
L 794 531 
z
" transform="scale(0.015625)"/>
       </defs>
       <use xlink:href="#DejaVuSans-31"/>
       <use xlink:href="#DejaVuSans-30" x="63.623047"/>
       <use xlink:href="#DejaVuSans-30" x="127.246094"/>
       <use xlink:href="#DejaVuSans-30" x="190.869141"/>
      </g>
     </g>
    </g>
   </g>
   <g id="matplotlib.axis_2">
    <g id="ytick_1">
     <g id="line2d_7">
      <defs>
       <path id="m9adddbe80d" d="M 0 0 
L -3.5 0 
" style="stroke: #000000; stroke-width: 0.8"/>
      </defs>
      <g>
       <use xlink:href="#m9adddbe80d" x="57.6" y="79.162435" style="stroke: #000000; stroke-width: 0.8"/>
      </g>
     </g>
     <g id="text_7">
      <!-- 2 -->
      <g transform="translate(44.2375 82.961654) scale(0.1 -0.1)">
       <use xlink:href="#DejaVuSans-32"/>
      </g>
     </g>
    </g>
    <g id="ytick_2">
     <g id="line2d_8">
      <g>
       <use xlink:href="#m9adddbe80d" x="57.6" y="44.101565" style="stroke: #000000; stroke-width: 0.8"/>
      </g>
     </g>
     <g id="text_8">
      <!-- 4 -->
      <g transform="translate(44.2375 47.900784) scale(0.1 -0.1)">
       <use xlink:href="#DejaVuSans-34"/>
      </g>
     </g>
    </g>
   </g>
   <g id="line2d_9">
    <path d="M 73.832727 96.69287 
L 99.831089 93.772773 
L 125.829451 90.627837 
L 151.827813 87.258062 
L 177.826175 83.663448 
L 203.824537 79.843996 
L 229.822899 75.799704 
L 255.821261 71.530573 
L 281.819623 67.036603 
L 307.817985 62.317794 
L 333.816347 57.374146 
L 359.814709 52.205659 
L 385.813071 46.812333 
L 398.487273 44.101565 
L 398.487273 44.101565 
" clip-path="url(#p44078cd6c7)" style="fill: none; stroke: #1f77b4; stroke-width: 1.5; stroke-linecap: square"/>
   </g>
   <g id="patch_3">
    <path d="M 57.6 99.322435 
L 57.6 41.472 
" style="fill: none; stroke: #000000; stroke-width: 0.8; stroke-linejoin: miter; stroke-linecap: square"/>
   </g>
   <g id="patch_4">
    <path d="M 414.72 99.322435 
L 414.72 41.472 
" style="fill: none; stroke: #000000; stroke-width: 0.8; stroke-linejoin: miter; stroke-linecap: square"/>
   </g>
   <g id="patch_5">
    <path d="M 57.6 99.322435 
L 414.72 99.322435 
" style="fill: none; stroke: #000000; stroke-width: 0.8; stroke-linejoin: miter; stroke-linecap: square"/>
   </g>
   <g id="patch_6">
    <path d="M 57.6 41.472 
L 414.72 41.472 
" style="fill: none; stroke: #000000; stroke-width: 0.8; stroke-linejoin: miter; stroke-linecap: square"/>
   </g>
   <g id="text_9">
    <!-- Ecuatie grad 2 -->
    <g transform="translate(192.486562 35.472) scale(0.12 -0.12)">
     <defs>
      <path id="DejaVuSans-45" d="M 628 4666 
L 3578 4666 
L 3578 4134 
L 1259 4134 
L 1259 2753 
L 3481 2753 
L 3481 2222 
L 1259 2222 
L 1259 531 
L 3634 531 
L 3634 0 
L 628 0 
L 628 4666 
z
" transform="scale(0.015625)"/>
      <path id="DejaVuSans-63" d="M 3122 3366 
L 3122 2828 
Q 2878 2963 2633 3030 
Q 2388 3097 2138 3097 
Q 1578 3097 1268 2742 
Q 959 2388 959 1747 
Q 959 1106 1268 751 
Q 1578 397 2138 397 
Q 2388 397 2633 464 
Q 2878 531 3122 666 
L 3122 134 
Q 2881 22 2623 -34 
Q 2366 -91 2075 -91 
Q 1284 -91 818 406 
Q 353 903 353 1747 
Q 353 2603 823 3093 
Q 1294 3584 2113 3584 
Q 2378 3584 2631 3529 
Q 2884 3475 3122 3366 
z
" transform="scale(0.015625)"/>
      <path id="DejaVuSans-75" d="M 544 1381 
L 544 3500 
L 1119 3500 
L 1119 1403 
Q 1119 906 1312 657 
Q 1506 409 1894 409 
Q 2359 409 2629 706 
Q 2900 1003 2900 1516 
L 2900 3500 
L 3475 3500 
L 3475 0 
L 2900 0 
L 2900 538 
Q 2691 219 2414 64 
Q 2138 -91 1772 -91 
Q 1169 -91 856 284 
Q 544 659 544 1381 
z
M 1991 3584 
L 1991 3584 
z
" transform="scale(0.015625)"/>
      <path id="DejaVuSans-61" d="M 2194 1759 
Q 1497 1759 1228 1600 
Q 959 1441 959 1056 
Q 959 750 1161 570 
Q 1363 391 1709 391 
Q 2188 391 2477 730 
Q 2766 1069 2766 1631 
L 2766 1759 
L 2194 1759 
z
M 3341 1997 
L 3341 0 
L 2766 0 
L 2766 531 
Q 2569 213 2275 61 
Q 1981 -91 1556 -91 
Q 1019 -91 701 211 
Q 384 513 384 1019 
Q 384 1609 779 1909 
Q 1175 2209 1959 2209 
L 2766 2209 
L 2766 2266 
Q 2766 2663 2505 2880 
Q 2244 3097 1772 3097 
Q 1472 3097 1187 3025 
Q 903 2953 641 2809 
L 641 3341 
Q 956 3463 1253 3523 
Q 1550 3584 1831 3584 
Q 2591 3584 2966 3190 
Q 3341 2797 3341 1997 
z
" transform="scale(0.015625)"/>
      <path id="DejaVuSans-74" d="M 1172 4494 
L 1172 3500 
L 2356 3500 
L 2356 3053 
L 1172 3053 
L 1172 1153 
Q 1172 725 1289 603 
Q 1406 481 1766 481 
L 2356 481 
L 2356 0 
L 1766 0 
Q 1100 0 847 248 
Q 594 497 594 1153 
L 594 3053 
L 172 3053 
L 172 3500 
L 594 3500 
L 594 4494 
L 1172 4494 
z
" transform="scale(0.015625)"/>
      <path id="DejaVuSans-69" d="M 603 3500 
L 1178 3500 
L 1178 0 
L 603 0 
L 603 3500 
z
M 603 4863 
L 1178 4863 
L 1178 4134 
L 603 4134 
L 603 4863 
z
" transform="scale(0.015625)"/>
      <path id="DejaVuSans-65" d="M 3597 1894 
L 3597 1613 
L 953 1613 
Q 991 1019 1311 708 
Q 1631 397 2203 397 
Q 2534 397 2845 478 
Q 3156 559 3463 722 
L 3463 178 
Q 3153 47 2828 -22 
Q 2503 -91 2169 -91 
Q 1331 -91 842 396 
Q 353 884 353 1716 
Q 353 2575 817 3079 
Q 1281 3584 2069 3584 
Q 2775 3584 3186 3129 
Q 3597 2675 3597 1894 
z
M 3022 2063 
Q 3016 2534 2758 2815 
Q 2500 3097 2075 3097 
Q 1594 3097 1305 2825 
Q 1016 2553 972 2059 
L 3022 2063 
z
" transform="scale(0.015625)"/>
      <path id="DejaVuSans-20" transform="scale(0.015625)"/>
      <path id="DejaVuSans-67" d="M 2906 1791 
Q 2906 2416 2648 2759 
Q 2391 3103 1925 3103 
Q 1463 3103 1205 2759 
Q 947 2416 947 1791 
Q 947 1169 1205 825 
Q 1463 481 1925 481 
Q 2391 481 2648 825 
Q 2906 1169 2906 1791 
z
M 3481 434 
Q 3481 -459 3084 -895 
Q 2688 -1331 1869 -1331 
Q 1566 -1331 1297 -1286 
Q 1028 -1241 775 -1147 
L 775 -588 
Q 1028 -725 1275 -790 
Q 1522 -856 1778 -856 
Q 2344 -856 2625 -561 
Q 2906 -266 2906 331 
L 2906 616 
Q 2728 306 2450 153 
Q 2172 0 1784 0 
Q 1141 0 747 490 
Q 353 981 353 1791 
Q 353 2603 747 3093 
Q 1141 3584 1784 3584 
Q 2172 3584 2450 3431 
Q 2728 3278 2906 2969 
L 2906 3500 
L 3481 3500 
L 3481 434 
z
" transform="scale(0.015625)"/>
      <path id="DejaVuSans-72" d="M 2631 2963 
Q 2534 3019 2420 3045 
Q 2306 3072 2169 3072 
Q 1681 3072 1420 2755 
Q 1159 2438 1159 1844 
L 1159 0 
L 581 0 
L 581 3500 
L 1159 3500 
L 1159 2956 
Q 1341 3275 1631 3429 
Q 1922 3584 2338 3584 
Q 2397 3584 2469 3576 
Q 2541 3569 2628 3553 
L 2631 2963 
z
" transform="scale(0.015625)"/>
      <path id="DejaVuSans-64" d="M 2906 2969 
L 2906 4863 
L 3481 4863 
L 3481 0 
L 2906 0 
L 2906 525 
Q 2725 213 2448 61 
Q 2172 -91 1784 -91 
Q 1150 -91 751 415 
Q 353 922 353 1747 
Q 353 2572 751 3078 
Q 1150 3584 1784 3584 
Q 2172 3584 2448 3432 
Q 2725 3281 2906 2969 
z
M 947 1747 
Q 947 1113 1208 752 
Q 1469 391 1925 391 
Q 2381 391 2643 752 
Q 2906 1113 2906 1747 
Q 2906 2381 2643 2742 
Q 2381 3103 1925 3103 
Q 1469 3103 1208 2742 
Q 947 2381 947 1747 
z
" transform="scale(0.015625)"/>
     </defs>
     <use xlink:href="#DejaVuSans-45"/>
     <use xlink:href="#DejaVuSans-63" x="63.183594"/>
     <use xlink:href="#DejaVuSans-75" x="118.164062"/>
     <use xlink:href="#DejaVuSans-61" x="181.542969"/>
     <use xlink:href="#DejaVuSans-74" x="242.822266"/>
     <use xlink:href="#DejaVuSans-69" x="282.03125"/>
     <use xlink:href="#DejaVuSans-65" x="309.814453"/>
     <use xlink:href="#DejaVuSans-20" x="371.337891"/>
     <use xlink:href="#DejaVuSans-67" x="403.125"/>
     <use xlink:href="#DejaVuSans-72" x="466.601562"/>
     <use xlink:href="#DejaVuSans-61" x="507.714844"/>
     <use xlink:href="#DejaVuSans-64" x="568.994141"/>
     <use xlink:href="#DejaVuSans-20" x="632.470703"/>
     <use xlink:href="#DejaVuSans-32" x="664.257812"/>
    </g>
   </g>
  </g>
  <g id="axes_2">
   <g id="patch_7">
    <path d="M 57.6 168.742957 
L 414.72 168.742957 
L 414.72 110.892522 
L 57.6 110.892522 
z
" style="fill: #ffffff"/>
   </g>
   <g id="matplotlib.axis_3">
    <g id="xtick_7">
     <g id="line2d_10">
      <g>
       <use xlink:href="#m46406ee4bd" x="73.832727" y="168.742957" style="stroke: #000000; stroke-width: 0.8"/>
      </g>
     </g>
     <g id="text_10">
      <!-- 0 -->
      <g transform="translate(70.651477 183.341394) scale(0.1 -0.1)">
       <use xlink:href="#DejaVuSans-30"/>
      </g>
     </g>
    </g>
    <g id="xtick_8">
     <g id="line2d_11">
      <g>
       <use xlink:href="#m46406ee4bd" x="138.828632" y="168.742957" style="stroke: #000000; stroke-width: 0.8"/>
      </g>
     </g>
     <g id="text_11">
      <!-- 200 -->
      <g transform="translate(129.284882 183.341394) scale(0.1 -0.1)">
       <use xlink:href="#DejaVuSans-32"/>
       <use xlink:href="#DejaVuSans-30" x="63.623047"/>
       <use xlink:href="#DejaVuSans-30" x="127.246094"/>
      </g>
     </g>
    </g>
    <g id="xtick_9">
     <g id="line2d_12">
      <g>
       <use xlink:href="#m46406ee4bd" x="203.824537" y="168.742957" style="stroke: #000000; stroke-width: 0.8"/>
      </g>
     </g>
     <g id="text_12">
      <!-- 400 -->
      <g transform="translate(194.280787 183.341394) scale(0.1 -0.1)">
       <use xlink:href="#DejaVuSans-34"/>
       <use xlink:href="#DejaVuSans-30" x="63.623047"/>
       <use xlink:href="#DejaVuSans-30" x="127.246094"/>
      </g>
     </g>
    </g>
    <g id="xtick_10">
     <g id="line2d_13">
      <g>
       <use xlink:href="#m46406ee4bd" x="268.820442" y="168.742957" style="stroke: #000000; stroke-width: 0.8"/>
      </g>
     </g>
     <g id="text_13">
      <!-- 600 -->
      <g transform="translate(259.276692 183.341394) scale(0.1 -0.1)">
       <use xlink:href="#DejaVuSans-36"/>
       <use xlink:href="#DejaVuSans-30" x="63.623047"/>
       <use xlink:href="#DejaVuSans-30" x="127.246094"/>
      </g>
     </g>
    </g>
    <g id="xtick_11">
     <g id="line2d_14">
      <g>
       <use xlink:href="#m46406ee4bd" x="333.816347" y="168.742957" style="stroke: #000000; stroke-width: 0.8"/>
      </g>
     </g>
     <g id="text_14">
      <!-- 800 -->
      <g transform="translate(324.272597 183.341394) scale(0.1 -0.1)">
       <use xlink:href="#DejaVuSans-38"/>
       <use xlink:href="#DejaVuSans-30" x="63.623047"/>
       <use xlink:href="#DejaVuSans-30" x="127.246094"/>
      </g>
     </g>
    </g>
    <g id="xtick_12">
     <g id="line2d_15">
      <g>
       <use xlink:href="#m46406ee4bd" x="398.812252" y="168.742957" style="stroke: #000000; stroke-width: 0.8"/>
      </g>
     </g>
     <g id="text_15">
      <!-- 1000 -->
      <g transform="translate(386.087252 183.341394) scale(0.1 -0.1)">
       <use xlink:href="#DejaVuSans-31"/>
       <use xlink:href="#DejaVuSans-30" x="63.623047"/>
       <use xlink:href="#DejaVuSans-30" x="127.246094"/>
       <use xlink:href="#DejaVuSans-30" x="190.869141"/>
      </g>
     </g>
    </g>
   </g>
   <g id="matplotlib.axis_4">
    <g id="ytick_3">
     <g id="line2d_16">
      <g>
       <use xlink:href="#m9adddbe80d" x="57.6" y="166.144068" style="stroke: #000000; stroke-width: 0.8"/>
      </g>
     </g>
     <g id="text_16">
      <!-- 0.0 -->
      <g transform="translate(34.696875 169.943287) scale(0.1 -0.1)">
       <defs>
        <path id="DejaVuSans-2e" d="M 684 794 
L 1344 794 
L 1344 0 
L 684 0 
L 684 794 
z
" transform="scale(0.015625)"/>
       </defs>
       <use xlink:href="#DejaVuSans-30"/>
       <use xlink:href="#DejaVuSans-2e" x="63.623047"/>
       <use xlink:href="#DejaVuSans-30" x="95.410156"/>
      </g>
     </g>
    </g>
    <g id="ytick_4">
     <g id="line2d_17">
      <g>
       <use xlink:href="#m9adddbe80d" x="57.6" y="113.49882" style="stroke: #000000; stroke-width: 0.8"/>
      </g>
     </g>
     <g id="text_17">
      <!-- 0.1 -->
      <g transform="translate(34.696875 117.298039) scale(0.1 -0.1)">
       <use xlink:href="#DejaVuSans-30"/>
       <use xlink:href="#DejaVuSans-2e" x="63.623047"/>
       <use xlink:href="#DejaVuSans-31" x="95.410156"/>
      </g>
     </g>
    </g>
   </g>
   <g id="line2d_18">
    <path d="M 73.832727 127.647433 
L 74.157707 145.921155 
L 74.482686 126.509943 
L 74.807666 138.774549 
L 75.132645 131.320199 
L 75.457625 142.409062 
L 75.782604 125.442492 
L 76.107584 129.806162 
L 76.432563 139.208142 
L 76.757543 120.976378 
L 77.082523 151.500747 
L 77.407502 117.796286 
L 77.732482 115.354356 
L 78.057461 148.062279 
L 78.382441 138.078754 
L 78.70742 119.513169 
L 79.0324 138.618521 
L 79.357379 151.008196 
L 79.682359 120.474916 
L 80.007338 150.36018 
L 80.657297 138.862551 
L 80.982277 159.183252 
L 81.307256 136.675406 
L 81.632236 130.243307 
L 81.957215 164.73207 
L 82.282195 124.457182 
L 82.607174 131.221265 
L 82.932154 154.926996 
L 83.257133 116.153946 
L 83.582113 118.452567 
L 83.907093 158.281029 
L 84.232072 158.128958 
L 84.557052 152.343888 
L 84.882031 142.855881 
L 85.207011 164.092147 
L 85.53199 133.140591 
L 85.85697 148.132518 
L 86.181949 148.744132 
L 86.506929 133.302545 
L 86.831908 140.515875 
L 87.481867 145.875039 
L 87.806847 128.688327 
L 88.131826 161.608985 
L 88.456806 163.155512 
L 88.781785 148.264164 
L 89.106765 138.471269 
L 89.431744 121.391326 
L 89.756724 121.406379 
L 90.081704 125.137799 
L 90.406683 137.299204 
L 90.731663 143.406379 
L 91.056642 128.489904 
L 91.381622 137.627788 
L 91.706601 127.692964 
L 92.031581 125.450739 
L 92.68154 151.464666 
L 93.006519 130.761987 
L 93.331499 148.720029 
L 93.656478 156.611213 
L 93.981458 160.218509 
L 94.306437 156.158163 
L 94.631417 159.482855 
L 95.281376 130.790678 
L 95.606355 161.897079 
L 95.931335 150.949159 
L 96.256314 145.850067 
L 96.581294 159.851804 
L 96.906274 152.09984 
L 97.231253 120.952752 
L 97.556233 162.625975 
L 97.881212 152.878733 
L 98.206192 137.803875 
L 98.856151 165.566831 
L 99.18113 137.797288 
L 99.50611 153.145201 
L 99.831089 156.427636 
L 100.156069 164.980122 
L 100.481048 147.927909 
L 100.806028 143.888632 
L 101.131007 118.598516 
L 101.455987 121.555129 
L 101.780966 147.632465 
L 102.105946 118.73553 
L 102.430925 131.628146 
L 102.755905 118.24615 
L 103.080885 154.308332 
L 103.405864 134.820382 
L 103.730844 133.914444 
L 104.055823 151.862251 
L 104.380803 138.699799 
L 104.705782 151.900484 
L 105.030762 123.482573 
L 105.355741 127.56801 
L 105.680721 125.434904 
L 106.0057 121.872598 
L 106.33068 131.459746 
L 106.655659 165.035944 
L 106.980639 137.163926 
L 107.305618 158.312719 
L 107.630598 156.3795 
L 107.955577 116.738292 
L 108.280557 123.719004 
L 108.605536 125.537228 
L 108.930516 159.811163 
L 109.255495 147.515367 
L 109.580475 123.774673 
L 109.905455 135.12023 
L 110.230434 156.928828 
L 110.555414 157.471548 
L 110.880393 123.403819 
L 111.205373 130.795185 
L 111.530352 165.138737 
L 112.180311 144.215638 
L 112.505291 164.636182 
L 112.83027 139.797379 
L 113.15525 153.386176 
L 113.480229 139.071809 
L 113.805209 145.028512 
L 114.130188 130.90897 
L 114.455168 166.023217 
L 114.780147 135.476055 
L 115.105127 119.557751 
L 115.430106 114.684073 
L 115.755086 152.696847 
L 116.080066 117.395519 
L 116.405045 134.313613 
L 116.730025 117.576935 
L 117.055004 121.46589 
L 117.704963 142.173132 
L 118.029943 152.75201 
L 118.354922 136.494237 
L 118.679902 165.43696 
L 119.004881 136.738835 
L 119.329861 130.539595 
L 119.65484 166.059399 
L 119.97982 152.019605 
L 120.304799 118.417662 
L 120.954758 129.898973 
L 121.279738 119.447453 
L 121.604717 130.358461 
L 121.929697 165.755238 
L 122.254676 137.208895 
L 122.579656 130.481465 
L 122.904636 158.219902 
L 123.229615 164.840832 
L 123.554595 164.492311 
L 123.879574 119.069036 
L 124.204554 113.660681 
L 124.529533 149.544866 
L 124.854513 127.541517 
L 125.179492 119.655992 
L 125.829451 151.456154 
L 126.154431 139.849886 
L 126.47941 164.744143 
L 126.80439 119.066683 
L 127.129369 136.031322 
L 127.454349 165.605359 
L 127.779328 158.809038 
L 128.104308 165.52849 
L 128.429287 125.333683 
L 128.754267 162.938001 
L 129.404226 148.580396 
L 129.729206 121.3727 
L 130.054185 121.036633 
L 130.379165 150.749785 
L 130.704144 117.038276 
L 131.029124 146.884786 
L 131.354103 146.702259 
L 131.679083 124.54869 
L 132.329042 125.891479 
L 132.654021 121.597193 
L 132.979001 126.99916 
L 133.30398 135.226011 
L 133.62896 124.920306 
L 133.953939 160.335966 
L 134.278919 148.439376 
L 134.603898 151.919052 
L 134.928878 136.039211 
L 135.253857 134.374452 
L 135.578837 121.614112 
L 135.903817 144.187026 
L 136.228796 148.010063 
L 136.553776 161.777612 
L 136.878755 152.302452 
L 137.203735 158.601738 
L 137.528714 129.009133 
L 137.853694 120.21879 
L 138.503653 156.364235 
L 138.828632 144.221916 
L 139.153612 146.535984 
L 139.478591 123.460752 
L 139.803571 160.148476 
L 140.45353 124.07183 
L 140.778509 131.214116 
L 141.103489 142.191348 
L 141.428468 162.655734 
L 141.753448 155.101508 
L 142.078428 150.267328 
L 142.403407 135.158608 
L 142.728387 140.571387 
L 143.053366 154.433646 
L 143.378346 144.766013 
L 143.703325 118.128116 
L 144.028305 140.167958 
L 144.353284 118.086325 
L 144.678264 139.772487 
L 145.003243 136.052701 
L 145.328223 118.771326 
L 145.653202 120.077975 
L 145.978182 122.405063 
L 146.303161 113.881749 
L 146.628141 145.145983 
L 146.95312 118.69814 
L 147.2781 152.235132 
L 147.603079 145.863137 
L 147.928059 154.646297 
L 148.253038 153.677126 
L 148.578018 165.89745 
L 149.227977 146.518285 
L 149.552957 165.627004 
L 149.877936 120.950805 
L 150.202916 144.011922 
L 150.527895 152.360983 
L 151.177854 162.443844 
L 151.502834 134.563707 
L 151.827813 135.849038 
L 152.152793 131.112145 
L 152.477772 157.89311 
L 152.802752 137.565651 
L 153.127731 130.282623 
L 153.452711 148.870804 
L 153.77769 146.815065 
L 154.10267 165.570252 
L 154.427649 125.412318 
L 154.752629 135.25428 
L 155.077609 164.103527 
L 155.402588 120.079917 
L 155.727568 143.038433 
L 156.052547 156.385136 
L 156.377527 124.678876 
L 156.702506 132.449952 
L 157.027486 151.411414 
L 157.352465 133.123176 
L 157.677445 142.048726 
L 158.002424 142.171222 
L 158.327404 127.342609 
L 158.652383 126.688467 
L 158.977363 123.224635 
L 159.302342 116.705215 
L 159.627322 153.224472 
L 159.952301 117.388624 
L 160.277281 156.750225 
L 160.60226 154.499665 
L 160.92724 138.075208 
L 161.252219 115.81708 
L 161.577199 147.395005 
L 161.902179 121.740229 
L 162.227158 134.202423 
L 162.552138 117.475079 
L 163.202097 149.173997 
L 163.527076 120.558618 
L 163.852056 142.466456 
L 164.177035 116.213226 
L 164.502015 151.330079 
L 164.826994 136.851895 
L 165.151974 114.660863 
L 165.476953 160.589902 
L 165.801933 150.286248 
L 166.126912 163.39937 
L 166.776871 122.899617 
L 167.101851 114.916099 
L 167.42683 160.231774 
L 167.75181 155.433205 
L 168.07679 126.770808 
L 168.401769 145.983585 
L 168.726749 142.707417 
L 169.051728 137.616992 
L 169.376708 155.148534 
L 169.701687 141.760724 
L 170.026667 165.338896 
L 170.676626 113.786925 
L 171.001605 117.941668 
L 171.326585 155.827894 
L 171.651564 162.433467 
L 171.976544 163.001035 
L 172.301523 148.33454 
L 172.626503 124.145656 
L 172.951482 140.878876 
L 173.276462 121.766095 
L 173.601441 134.967823 
L 173.926421 134.029379 
L 174.2514 158.757253 
L 174.57638 165.880197 
L 174.90136 129.999133 
L 175.226339 133.108094 
L 175.551319 123.339341 
L 175.876298 143.666095 
L 176.201278 130.438632 
L 176.851237 114.823905 
L 177.176216 142.547582 
L 177.501196 116.341043 
L 177.826175 117.845057 
L 178.151155 156.024053 
L 178.476134 125.731843 
L 179.126093 151.942428 
L 179.451073 119.186283 
L 179.776052 137.648169 
L 180.101032 117.2659 
L 180.426011 120.850361 
L 181.075971 153.85855 
L 181.72593 118.576227 
L 182.050909 162.534057 
L 182.375889 129.159127 
L 182.700868 145.375965 
L 183.025848 134.331929 
L 183.350827 135.011856 
L 183.675807 118.528928 
L 184.000786 144.525116 
L 184.325766 140.189542 
L 184.650745 126.358624 
L 185.625684 164.120307 
L 185.950663 159.128653 
L 186.275643 158.487392 
L 186.600622 142.873943 
L 186.925602 149.715462 
L 187.250581 123.758621 
L 187.575561 137.569755 
L 187.900541 127.131593 
L 188.22552 164.428532 
L 188.5505 158.953246 
L 188.875479 156.647852 
L 189.200459 147.715578 
L 189.525438 114.599981 
L 189.850418 143.127299 
L 190.175397 156.12118 
L 190.500377 146.426881 
L 190.825356 131.563678 
L 191.150336 138.879521 
L 191.475315 117.185019 
L 191.800295 154.674991 
L 192.125274 134.880062 
L 192.450254 146.055383 
L 192.775233 125.984199 
L 193.100213 116.320759 
L 193.425192 114.150628 
L 193.750172 151.327269 
L 194.075152 152.101744 
L 194.400131 129.992422 
L 194.725111 117.257822 
L 195.05009 149.386973 
L 195.37507 143.432134 
L 195.700049 127.548041 
L 196.025029 149.218666 
L 196.350008 134.2857 
L 196.674988 135.690356 
L 196.999967 148.910217 
L 197.324947 151.493564 
L 197.649926 121.129349 
L 197.974906 121.63211 
L 198.299885 119.553245 
L 198.624865 116.099334 
L 198.949844 124.5375 
L 199.274824 122.283884 
L 199.599803 120.888576 
L 200.249762 164.63788 
L 200.574742 144.931244 
L 200.899722 137.621683 
L 201.224701 114.104271 
L 201.549681 156.715123 
L 201.87466 134.174138 
L 202.19964 165.693207 
L 202.524619 124.96183 
L 202.849599 161.262507 
L 203.174578 162.920618 
L 203.499558 154.631338 
L 203.824537 121.144693 
L 204.149517 120.142502 
L 204.474496 158.806979 
L 204.799476 142.235511 
L 205.124455 148.173669 
L 205.449435 133.803455 
L 205.774414 124.857974 
L 206.424373 141.765868 
L 206.749353 118.411108 
L 207.399312 154.65901 
L 207.724292 142.306275 
L 208.049271 142.074961 
L 208.374251 128.495201 
L 208.69923 124.464007 
L 209.02421 139.213869 
L 209.349189 163.779791 
L 209.674169 123.880812 
L 209.999148 153.747121 
L 210.324128 129.193277 
L 210.649107 147.813418 
L 210.974087 123.181932 
L 211.299066 159.156988 
L 211.624046 140.285496 
L 211.949025 144.749783 
L 212.274005 141.66335 
L 212.598984 161.282704 
L 212.923964 115.240296 
L 213.248943 125.514461 
L 213.573923 160.042011 
L 213.898903 139.430657 
L 214.223882 164.805444 
L 214.548862 122.710901 
L 214.873841 140.958978 
L 215.198821 149.602381 
L 215.5238 142.405195 
L 216.173759 119.526584 
L 216.498739 132.41818 
L 216.823718 115.661951 
L 217.148698 121.447254 
L 217.473677 124.555888 
L 217.798657 138.300538 
L 218.123636 114.383455 
L 218.448616 160.722201 
L 218.773595 123.025739 
L 219.098575 155.449819 
L 219.423554 133.017668 
L 219.748534 147.1788 
L 220.073514 154.229106 
L 220.398493 126.357345 
L 220.723473 144.530374 
L 221.048452 144.111979 
L 221.373432 127.268478 
L 222.023391 136.474571 
L 222.67335 113.919927 
L 222.998329 154.319502 
L 223.323309 135.660656 
L 223.648288 148.684534 
L 223.973268 127.645207 
L 224.298247 122.394451 
L 224.623227 131.346278 
L 224.948206 135.255343 
L 225.273186 150.718448 
L 225.598165 130.369294 
L 225.923145 133.088615 
L 226.248124 165.551766 
L 226.573104 136.668766 
L 226.898084 134.805513 
L 227.223063 114.329066 
L 227.548043 146.612152 
L 227.873022 151.556618 
L 228.198002 134.197483 
L 228.522981 136.334013 
L 228.847961 161.508878 
L 229.17294 144.628524 
L 229.49792 145.704602 
L 229.822899 156.002277 
L 230.147879 128.672718 
L 230.472858 130.079835 
L 230.797838 113.522087 
L 231.122817 162.885848 
L 231.447797 154.82938 
L 231.772776 120.607112 
L 232.097756 123.005678 
L 232.422735 133.8322 
L 232.747715 117.361278 
L 233.072695 138.392259 
L 233.397674 132.912314 
L 233.722654 158.514886 
L 234.047633 134.628599 
L 234.372613 153.589673 
L 234.697592 165.381611 
L 235.022572 114.151157 
L 235.347551 115.280064 
L 235.672531 151.09666 
L 235.99751 115.8065 
L 236.32249 151.595298 
L 236.647469 121.118533 
L 236.972449 142.523539 
L 237.297428 119.892578 
L 237.622408 142.504738 
L 237.947387 148.587865 
L 238.272367 157.170727 
L 238.597346 155.360495 
L 238.922326 159.252907 
L 239.247305 128.434382 
L 239.572285 143.106253 
L 239.897265 118.519871 
L 240.222244 144.126706 
L 240.547224 145.524708 
L 240.872203 144.522106 
L 241.197183 116.76827 
L 241.522162 122.94197 
L 241.847142 121.327174 
L 242.172121 148.34751 
L 242.82208 121.490816 
L 243.14706 152.35957 
L 243.472039 126.150146 
L 243.797019 164.820481 
L 244.121998 118.600513 
L 244.446978 119.845675 
L 244.771957 132.83573 
L 245.096937 133.254991 
L 245.421916 164.400443 
L 245.746896 137.590596 
L 246.071876 139.322871 
L 246.396855 164.277445 
L 246.721835 136.738705 
L 247.046814 136.58362 
L 247.696773 162.577092 
L 248.021753 152.7422 
L 248.346732 118.165067 
L 248.996691 150.64022 
L 249.321671 144.606002 
L 249.64665 151.543061 
L 249.97163 145.911952 
L 250.296609 117.835452 
L 250.621589 118.401276 
L 250.946568 125.136672 
L 251.271548 117.480647 
L 251.596527 156.246004 
L 251.921507 125.478838 
L 252.246486 136.082799 
L 252.571466 164.635326 
L 253.221425 126.2034 
L 253.546405 115.754575 
L 253.871384 143.53772 
L 254.196364 129.685005 
L 254.521343 142.444741 
L 254.846323 148.927471 
L 255.171302 163.072465 
L 255.496282 131.227262 
L 255.821261 115.071084 
L 256.146241 140.168547 
L 256.47122 123.71053 
L 256.7962 149.112687 
L 257.121179 115.688217 
L 257.446159 137.238703 
L 257.771138 114.599349 
L 258.096118 129.939311 
L 258.421097 120.353741 
L 258.746077 153.188312 
L 259.071057 120.280532 
L 259.396036 134.696922 
L 259.721016 143.362237 
L 260.045995 164.459569 
L 260.370975 118.395387 
L 260.695954 152.645295 
L 261.020934 151.81084 
L 261.345913 162.159791 
L 261.670893 130.300863 
L 261.995872 117.13325 
L 262.320852 156.753925 
L 262.645831 115.91513 
L 262.970811 147.825949 
L 263.29579 127.022154 
L 263.62077 165.678523 
L 263.945749 122.979552 
L 264.270729 153.18082 
L 264.920688 117.905067 
L 265.245667 121.02203 
L 265.570647 140.890377 
L 265.895627 133.086069 
L 266.220606 140.682064 
L 266.545586 122.98585 
L 266.870565 132.469533 
L 267.195545 137.331872 
L 267.520524 117.533385 
L 267.845504 132.263779 
L 268.170483 126.865065 
L 268.495463 161.075186 
L 268.820442 135.973151 
L 269.145422 148.565123 
L 269.470401 139.946325 
L 269.795381 137.68747 
L 270.12036 123.567682 
L 270.44534 125.405355 
L 271.095299 162.750522 
L 271.420278 140.353563 
L 272.070238 122.414825 
L 272.395217 142.605945 
L 272.720197 118.924919 
L 273.370156 141.962622 
L 273.695135 118.629969 
L 274.020115 145.887851 
L 274.345094 136.092448 
L 274.670074 150.507597 
L 274.995053 124.506211 
L 275.320033 150.464314 
L 275.645012 116.969628 
L 275.969992 122.413649 
L 276.294971 135.624292 
L 276.619951 140.857794 
L 276.94493 143.128757 
L 277.26991 130.256281 
L 277.594889 130.586049 
L 277.919869 114.669286 
L 278.244848 158.040744 
L 278.569828 157.290474 
L 278.894808 128.033353 
L 279.219787 156.295222 
L 279.544767 132.14507 
L 279.869746 139.18098 
L 280.194726 136.881911 
L 280.519705 164.091964 
L 280.844685 162.612313 
L 281.169664 139.579563 
L 281.494644 136.688272 
L 281.819623 151.994169 
L 282.144603 124.848756 
L 282.469582 158.158762 
L 282.794562 131.316154 
L 283.119541 146.367555 
L 283.444521 155.835719 
L 283.7695 158.620359 
L 284.09448 163.510256 
L 284.419459 142.603488 
L 284.744439 132.976089 
L 285.069419 162.916203 
L 285.394398 127.295897 
L 285.719378 158.738545 
L 286.044357 117.0858 
L 286.369337 122.22226 
L 286.694316 144.649059 
L 287.019296 149.920277 
L 287.344275 141.036988 
L 287.669255 157.768006 
L 287.994234 145.171565 
L 288.319214 117.714488 
L 288.644193 126.083116 
L 288.969173 130.352919 
L 289.294152 127.908198 
L 289.619132 147.973303 
L 289.944111 126.551642 
L 290.269091 156.042197 
L 290.59407 139.565541 
L 290.91905 157.024411 
L 291.244029 134.04306 
L 291.569009 126.747538 
L 291.893989 148.785438 
L 292.218968 161.687977 
L 292.543948 143.838412 
L 293.193907 124.716671 
L 293.518886 132.472038 
L 293.843866 161.742111 
L 294.168845 117.615395 
L 294.493825 161.381945 
L 294.818804 151.804803 
L 295.143784 116.98607 
L 295.468763 153.089742 
L 295.793743 131.365794 
L 296.118722 148.295795 
L 296.443702 140.267571 
L 296.768681 125.972222 
L 297.093661 130.340837 
L 297.41864 159.447304 
L 297.74362 119.592347 
L 298.0686 136.962889 
L 298.393579 124.479482 
L 298.718559 151.143193 
L 299.043538 162.756733 
L 299.368518 131.738577 
L 299.693497 132.325352 
L 300.018477 158.634674 
L 300.343456 157.334583 
L 300.668436 123.248679 
L 300.993415 126.504802 
L 301.318395 140.911955 
L 301.643374 165.360122 
L 301.968354 117.810771 
L 302.293333 165.701815 
L 302.618313 144.502 
L 302.943292 156.166281 
L 303.268272 137.886487 
L 303.593251 149.657174 
L 303.918231 129.128623 
L 304.24321 117.335467 
L 304.56819 158.811786 
L 304.89317 115.299133 
L 305.218149 130.891112 
L 305.543129 128.987475 
L 305.868108 156.876518 
L 306.193088 150.647014 
L 306.518067 131.665394 
L 306.843047 143.179401 
L 307.168026 132.429136 
L 307.493006 162.451909 
L 307.817985 153.200957 
L 308.142965 149.105111 
L 308.467944 121.958038 
L 308.792924 114.801063 
L 309.117903 148.080029 
L 309.442883 142.454672 
L 309.767862 148.877616 
L 310.092842 160.494953 
L 310.417821 161.861098 
L 310.742801 131.231362 
L 311.067781 165.932477 
L 311.39276 114.26542 
L 311.71774 141.499874 
L 312.042719 127.995416 
L 312.367699 157.95334 
L 312.692678 152.060627 
L 313.017658 128.767166 
L 313.342637 141.851425 
L 313.667617 145.417806 
L 313.992596 138.024934 
L 314.317576 120.719479 
L 314.642555 150.009969 
L 314.967535 146.607519 
L 315.292514 150.791121 
L 315.617494 160.625721 
L 315.942473 151.463585 
L 316.267453 152.673861 
L 316.592432 114.812306 
L 316.917412 146.033126 
L 317.242391 160.195042 
L 317.892351 122.546651 
L 318.21733 165.985588 
L 318.54231 146.218924 
L 318.867289 160.256947 
L 319.192269 155.948117 
L 319.517248 155.829936 
L 319.842228 136.707366 
L 320.492187 122.799843 
L 320.817166 135.002185 
L 321.142146 116.162746 
L 321.467125 146.760399 
L 321.792105 142.863466 
L 322.117084 135.14603 
L 322.442064 156.660883 
L 322.767043 152.518971 
L 323.092023 128.636242 
L 323.417002 120.580916 
L 323.741982 126.053284 
L 324.066962 158.779525 
L 324.716921 131.948151 
L 325.0419 165.954514 
L 325.691859 113.592154 
L 326.016839 132.100636 
L 326.341818 134.198169 
L 326.666798 113.823986 
L 326.991777 144.522544 
L 327.316757 156.176748 
L 327.641736 147.381434 
L 327.966716 146.74193 
L 328.616675 126.445421 
L 328.941654 141.022969 
L 329.266634 125.286696 
L 329.591613 158.190592 
L 329.916593 157.084152 
L 330.241572 149.861333 
L 330.566552 136.482087 
L 330.891532 146.732507 
L 331.216511 141.959138 
L 331.541491 157.122331 
L 331.86647 157.795877 
L 332.19145 151.576252 
L 332.516429 132.092755 
L 332.841409 128.215695 
L 333.166388 134.554674 
L 333.491368 129.260359 
L 333.816347 141.617317 
L 334.141327 125.055393 
L 334.466306 124.965975 
L 334.791286 125.202648 
L 335.116265 156.705883 
L 335.441245 151.323492 
L 335.766224 121.036186 
L 336.091204 156.502815 
L 336.741163 166.113391 
L 337.066143 164.691758 
L 337.391122 144.01223 
L 337.716102 161.688747 
L 338.041081 141.907966 
L 338.366061 149.282011 
L 338.69104 130.392244 
L 339.01602 124.702056 
L 339.340999 134.165126 
L 339.665979 150.379727 
L 339.990958 159.339823 
L 340.315938 151.096836 
L 340.640917 121.000318 
L 340.965897 165.690477 
L 341.290876 130.450058 
L 341.615856 115.752585 
L 341.940835 149.842475 
L 342.265815 122.473709 
L 342.590794 129.146708 
L 342.915774 148.724027 
L 343.240753 116.2145 
L 343.565733 129.714105 
L 343.890713 160.563281 
L 344.540672 139.118953 
L 344.865651 145.369608 
L 345.190631 155.492199 
L 345.51561 155.795088 
L 345.84059 162.6057 
L 346.165569 121.057287 
L 346.490549 125.625158 
L 346.815528 157.979259 
L 347.140508 133.113042 
L 347.465487 131.448376 
L 347.790467 151.684294 
L 348.115446 139.648543 
L 348.765405 160.661192 
L 349.090385 163.333355 
L 349.415364 154.789509 
L 349.740344 131.545288 
L 350.065324 155.759937 
L 350.390303 143.512037 
L 350.715283 120.573015 
L 351.040262 158.823172 
L 351.365242 146.38933 
L 351.690221 138.828386 
L 352.015201 161.819157 
L 352.34018 125.923241 
L 352.66516 141.253019 
L 352.990139 131.965702 
L 353.315119 135.270732 
L 353.640098 142.527209 
L 353.965078 147.240244 
L 354.290057 164.455277 
L 354.615037 127.347259 
L 354.940016 158.127743 
L 355.264996 134.069191 
L 355.589975 145.794379 
L 355.914955 115.334733 
L 356.239934 161.12182 
L 356.564914 147.689749 
L 356.889894 158.940589 
L 357.214873 142.978294 
L 357.539853 166.051359 
L 357.864832 119.004833 
L 358.189812 125.439221 
L 358.514791 114.670853 
L 358.839771 123.317575 
L 359.16475 150.319047 
L 359.48973 147.256588 
L 359.814709 120.449482 
L 360.139689 160.979302 
L 360.464668 132.484027 
L 360.789648 142.081529 
L 361.114627 147.813754 
L 361.439607 124.246716 
L 361.764586 150.64811 
L 362.414545 132.37244 
L 362.739525 143.788882 
L 363.064505 140.472647 
L 363.389484 165.085531 
L 363.714464 136.438712 
L 364.039443 164.132133 
L 364.364423 126.967818 
L 364.689402 159.669773 
L 365.014382 156.289986 
L 365.339361 154.812653 
L 365.664341 134.458471 
L 365.98932 127.179353 
L 366.3143 131.957301 
L 366.639279 143.540296 
L 366.964259 139.810196 
L 367.289238 142.804997 
L 367.614218 131.991735 
L 367.939197 141.215957 
L 368.264177 116.012772 
L 368.589156 150.247448 
L 368.914136 141.136298 
L 369.239115 153.890436 
L 369.564095 130.840962 
L 369.889075 147.510347 
L 370.214054 130.69393 
L 370.539034 160.211287 
L 370.864013 157.394239 
L 371.513972 132.325889 
L 371.838952 164.799532 
L 372.163931 142.840237 
L 372.488911 147.48835 
L 372.81389 130.066742 
L 373.13887 157.398556 
L 373.463849 139.457476 
L 373.788829 131.515636 
L 374.113808 150.577652 
L 374.438788 132.418492 
L 374.763767 147.107067 
L 375.088747 120.322388 
L 375.413726 136.2303 
L 375.738706 131.406291 
L 376.063686 158.226037 
L 376.388665 159.641837 
L 376.713645 114.034632 
L 377.038624 149.81623 
L 377.363604 131.285875 
L 377.688583 121.86679 
L 378.013563 163.503623 
L 378.338542 124.92584 
L 378.663522 164.382242 
L 378.988501 136.655063 
L 379.313481 125.455125 
L 379.63846 150.55488 
L 379.96344 156.392931 
L 380.288419 145.22472 
L 380.613399 146.693248 
L 381.263358 114.871187 
L 381.588337 114.478502 
L 381.913317 141.7628 
L 382.238296 133.933843 
L 382.563276 151.864993 
L 382.888256 129.239052 
L 383.213235 163.825344 
L 383.538215 124.177477 
L 383.863194 128.23137 
L 384.188174 140.286824 
L 384.838133 133.752288 
L 385.163112 146.770525 
L 385.488092 143.617127 
L 385.813071 144.642719 
L 386.138051 116.92412 
L 386.46303 142.411198 
L 386.78801 142.557284 
L 387.112989 124.152942 
L 387.437969 163.267864 
L 387.762948 140.701713 
L 388.087928 157.475892 
L 388.412907 151.903809 
L 388.737887 142.622902 
L 389.062867 137.128587 
L 389.387846 124.230431 
L 389.712826 134.095121 
L 390.037805 130.594397 
L 390.362785 114.309802 
L 390.687764 152.492202 
L 391.337723 118.456566 
L 391.662703 150.576955 
L 391.987682 121.982703 
L 392.637641 137.28235 
L 392.962621 155.299627 
L 393.2876 120.03791 
L 393.61258 118.804251 
L 393.937559 137.417497 
L 394.262539 163.150425 
L 394.587518 132.151284 
L 395.237477 119.700625 
L 395.562457 141.718021 
L 395.887437 121.601877 
L 396.212416 148.783432 
L 396.537396 121.770385 
L 396.862375 128.851019 
L 397.187355 145.726256 
L 397.512334 154.137678 
L 397.837314 137.968441 
L 398.162293 113.577253 
L 398.487273 156.216872 
L 398.487273 156.216872 
" clip-path="url(#pdbfea36e38)" style="fill: none; stroke: #1f77b4; stroke-width: 1.5; stroke-linecap: square"/>
   </g>
   <g id="patch_8">
    <path d="M 57.6 168.742957 
L 57.6 110.892522 
" style="fill: none; stroke: #000000; stroke-width: 0.8; stroke-linejoin: miter; stroke-linecap: square"/>
   </g>
   <g id="patch_9">
    <path d="M 414.72 168.742957 
L 414.72 110.892522 
" style="fill: none; stroke: #000000; stroke-width: 0.8; stroke-linejoin: miter; stroke-linecap: square"/>
   </g>
   <g id="patch_10">
    <path d="M 57.6 168.742957 
L 414.72 168.742957 
" style="fill: none; stroke: #000000; stroke-width: 0.8; stroke-linejoin: miter; stroke-linecap: square"/>
   </g>
   <g id="patch_11">
    <path d="M 57.6 110.892522 
L 414.72 110.892522 
" style="fill: none; stroke: #000000; stroke-width: 0.8; stroke-linejoin: miter; stroke-linecap: square"/>
   </g>
   <g id="text_18">
    <!-- Zgomot -->
    <g transform="translate(212.701875 104.892522) scale(0.12 -0.12)">
     <defs>
      <path id="DejaVuSans-5a" d="M 359 4666 
L 4025 4666 
L 4025 4184 
L 1075 531 
L 4097 531 
L 4097 0 
L 288 0 
L 288 481 
L 3238 4134 
L 359 4134 
L 359 4666 
z
" transform="scale(0.015625)"/>
      <path id="DejaVuSans-6f" d="M 1959 3097 
Q 1497 3097 1228 2736 
Q 959 2375 959 1747 
Q 959 1119 1226 758 
Q 1494 397 1959 397 
Q 2419 397 2687 759 
Q 2956 1122 2956 1747 
Q 2956 2369 2687 2733 
Q 2419 3097 1959 3097 
z
M 1959 3584 
Q 2709 3584 3137 3096 
Q 3566 2609 3566 1747 
Q 3566 888 3137 398 
Q 2709 -91 1959 -91 
Q 1206 -91 779 398 
Q 353 888 353 1747 
Q 353 2609 779 3096 
Q 1206 3584 1959 3584 
z
" transform="scale(0.015625)"/>
      <path id="DejaVuSans-6d" d="M 3328 2828 
Q 3544 3216 3844 3400 
Q 4144 3584 4550 3584 
Q 5097 3584 5394 3201 
Q 5691 2819 5691 2113 
L 5691 0 
L 5113 0 
L 5113 2094 
Q 5113 2597 4934 2840 
Q 4756 3084 4391 3084 
Q 3944 3084 3684 2787 
Q 3425 2491 3425 1978 
L 3425 0 
L 2847 0 
L 2847 2094 
Q 2847 2600 2669 2842 
Q 2491 3084 2119 3084 
Q 1678 3084 1418 2786 
Q 1159 2488 1159 1978 
L 1159 0 
L 581 0 
L 581 3500 
L 1159 3500 
L 1159 2956 
Q 1356 3278 1631 3431 
Q 1906 3584 2284 3584 
Q 2666 3584 2933 3390 
Q 3200 3197 3328 2828 
z
" transform="scale(0.015625)"/>
     </defs>
     <use xlink:href="#DejaVuSans-5a"/>
     <use xlink:href="#DejaVuSans-67" x="68.505859"/>
     <use xlink:href="#DejaVuSans-6f" x="131.982422"/>
     <use xlink:href="#DejaVuSans-6d" x="193.164062"/>
     <use xlink:href="#DejaVuSans-6f" x="290.576172"/>
     <use xlink:href="#DejaVuSans-74" x="351.757812"/>
    </g>
   </g>
  </g>
  <g id="axes_3">
   <g id="patch_12">
    <path d="M 57.6 238.163478 
L 414.72 238.163478 
L 414.72 180.313043 
L 57.6 180.313043 
z
" style="fill: #ffffff"/>
   </g>
   <g id="matplotlib.axis_5">
    <g id="xtick_13">
     <g id="line2d_19">
      <g>
       <use xlink:href="#m46406ee4bd" x="73.832727" y="238.163478" style="stroke: #000000; stroke-width: 0.8"/>
      </g>
     </g>
     <g id="text_19">
      <!-- 0 -->
      <g transform="translate(70.651477 252.761916) scale(0.1 -0.1)">
       <use xlink:href="#DejaVuSans-30"/>
      </g>
     </g>
    </g>
    <g id="xtick_14">
     <g id="line2d_20">
      <g>
       <use xlink:href="#m46406ee4bd" x="138.828632" y="238.163478" style="stroke: #000000; stroke-width: 0.8"/>
      </g>
     </g>
     <g id="text_20">
      <!-- 200 -->
      <g transform="translate(129.284882 252.761916) scale(0.1 -0.1)">
       <use xlink:href="#DejaVuSans-32"/>
       <use xlink:href="#DejaVuSans-30" x="63.623047"/>
       <use xlink:href="#DejaVuSans-30" x="127.246094"/>
      </g>
     </g>
    </g>
    <g id="xtick_15">
     <g id="line2d_21">
      <g>
       <use xlink:href="#m46406ee4bd" x="203.824537" y="238.163478" style="stroke: #000000; stroke-width: 0.8"/>
      </g>
     </g>
     <g id="text_21">
      <!-- 400 -->
      <g transform="translate(194.280787 252.761916) scale(0.1 -0.1)">
       <use xlink:href="#DejaVuSans-34"/>
       <use xlink:href="#DejaVuSans-30" x="63.623047"/>
       <use xlink:href="#DejaVuSans-30" x="127.246094"/>
      </g>
     </g>
    </g>
    <g id="xtick_16">
     <g id="line2d_22">
      <g>
       <use xlink:href="#m46406ee4bd" x="268.820442" y="238.163478" style="stroke: #000000; stroke-width: 0.8"/>
      </g>
     </g>
     <g id="text_22">
      <!-- 600 -->
      <g transform="translate(259.276692 252.761916) scale(0.1 -0.1)">
       <use xlink:href="#DejaVuSans-36"/>
       <use xlink:href="#DejaVuSans-30" x="63.623047"/>
       <use xlink:href="#DejaVuSans-30" x="127.246094"/>
      </g>
     </g>
    </g>
    <g id="xtick_17">
     <g id="line2d_23">
      <g>
       <use xlink:href="#m46406ee4bd" x="333.816347" y="238.163478" style="stroke: #000000; stroke-width: 0.8"/>
      </g>
     </g>
     <g id="text_23">
      <!-- 800 -->
      <g transform="translate(324.272597 252.761916) scale(0.1 -0.1)">
       <use xlink:href="#DejaVuSans-38"/>
       <use xlink:href="#DejaVuSans-30" x="63.623047"/>
       <use xlink:href="#DejaVuSans-30" x="127.246094"/>
      </g>
     </g>
    </g>
    <g id="xtick_18">
     <g id="line2d_24">
      <g>
       <use xlink:href="#m46406ee4bd" x="398.812252" y="238.163478" style="stroke: #000000; stroke-width: 0.8"/>
      </g>
     </g>
     <g id="text_24">
      <!-- 1000 -->
      <g transform="translate(386.087252 252.761916) scale(0.1 -0.1)">
       <use xlink:href="#DejaVuSans-31"/>
       <use xlink:href="#DejaVuSans-30" x="63.623047"/>
       <use xlink:href="#DejaVuSans-30" x="127.246094"/>
       <use xlink:href="#DejaVuSans-30" x="190.869141"/>
      </g>
     </g>
    </g>
   </g>
   <g id="matplotlib.axis_6">
    <g id="ytick_5">
     <g id="line2d_25">
      <g>
       <use xlink:href="#m9adddbe80d" x="57.6" y="233.267406" style="stroke: #000000; stroke-width: 0.8"/>
      </g>
     </g>
     <g id="text_25">
      <!-- −0.25 -->
      <g transform="translate(19.954687 237.066625) scale(0.1 -0.1)">
       <defs>
        <path id="DejaVuSans-2212" d="M 678 2272 
L 4684 2272 
L 4684 1741 
L 678 1741 
L 678 2272 
z
" transform="scale(0.015625)"/>
        <path id="DejaVuSans-35" d="M 691 4666 
L 3169 4666 
L 3169 4134 
L 1269 4134 
L 1269 2991 
Q 1406 3038 1543 3061 
Q 1681 3084 1819 3084 
Q 2600 3084 3056 2656 
Q 3513 2228 3513 1497 
Q 3513 744 3044 326 
Q 2575 -91 1722 -91 
Q 1428 -91 1123 -41 
Q 819 9 494 109 
L 494 744 
Q 775 591 1075 516 
Q 1375 441 1709 441 
Q 2250 441 2565 725 
Q 2881 1009 2881 1497 
Q 2881 1984 2565 2268 
Q 2250 2553 1709 2553 
Q 1456 2553 1204 2497 
Q 953 2441 691 2322 
L 691 4666 
z
" transform="scale(0.015625)"/>
       </defs>
       <use xlink:href="#DejaVuSans-2212"/>
       <use xlink:href="#DejaVuSans-30" x="83.789062"/>
       <use xlink:href="#DejaVuSans-2e" x="147.412109"/>
       <use xlink:href="#DejaVuSans-32" x="179.199219"/>
       <use xlink:href="#DejaVuSans-35" x="242.822266"/>
      </g>
     </g>
    </g>
    <g id="ytick_6">
     <g id="line2d_26">
      <g>
       <use xlink:href="#m9adddbe80d" x="57.6" y="209.238261" style="stroke: #000000; stroke-width: 0.8"/>
      </g>
     </g>
     <g id="text_26">
      <!-- 0.00 -->
      <g transform="translate(28.334375 213.03748) scale(0.1 -0.1)">
       <use xlink:href="#DejaVuSans-30"/>
       <use xlink:href="#DejaVuSans-2e" x="63.623047"/>
       <use xlink:href="#DejaVuSans-30" x="95.410156"/>
       <use xlink:href="#DejaVuSans-30" x="159.033203"/>
      </g>
     </g>
    </g>
    <g id="ytick_7">
     <g id="line2d_27">
      <g>
       <use xlink:href="#m9adddbe80d" x="57.6" y="185.209116" style="stroke: #000000; stroke-width: 0.8"/>
      </g>
     </g>
     <g id="text_27">
      <!-- 0.25 -->
      <g transform="translate(28.334375 189.008334) scale(0.1 -0.1)">
       <use xlink:href="#DejaVuSans-30"/>
       <use xlink:href="#DejaVuSans-2e" x="63.623047"/>
       <use xlink:href="#DejaVuSans-32" x="95.410156"/>
       <use xlink:href="#DejaVuSans-35" x="159.033203"/>
      </g>
     </g>
    </g>
   </g>
   <g id="line2d_28">
    <path d="M 73.832727 209.238261 
L 77.732482 198.669883 
L 79.682359 193.959763 
L 81.307256 190.529292 
L 82.932154 187.655404 
L 84.232072 185.811926 
L 85.53199 184.408172 
L 86.506929 183.657539 
L 87.481867 183.172482 
L 88.456806 182.95544 
L 89.431744 183.005631 
L 90.406683 183.319077 
L 91.381622 183.888658 
L 92.35656 184.704219 
L 93.656478 186.151314 
L 94.956396 187.973816 
L 96.581294 190.70905 
L 98.531171 194.522414 
L 101.131007 200.171563 
L 105.680721 210.152474 
L 107.630598 213.914755 
L 109.255495 216.614682 
L 110.555414 218.426787 
L 111.855332 219.891211 
L 113.15525 220.981622 
L 114.130188 221.543352 
L 115.105127 221.88123 
L 116.080066 221.994664 
L 117.055004 221.886139 
L 118.029943 221.561169 
L 119.004881 221.028212 
L 120.304799 220.013959 
L 121.604717 218.684346 
L 123.229615 216.642868 
L 125.179492 213.764265 
L 128.104308 208.966246 
L 131.354103 203.710844 
L 133.30398 200.971574 
L 134.928878 199.090383 
L 136.228796 197.913701 
L 137.528714 197.070396 
L 138.503653 196.675015 
L 139.478591 196.493581 
L 140.45353 196.532602 
L 141.428468 196.795578 
L 142.403407 197.282947 
L 143.378346 197.992065 
L 144.678264 199.272206 
L 145.978182 200.914321 
L 147.2781 202.887647 
L 148.902998 205.759773 
L 150.852875 209.676678 
L 153.77769 216.114587 
L 157.677445 224.622265 
L 159.627322 228.350853 
L 161.252219 230.991129 
L 162.552138 232.723814 
L 163.852056 234.07074 
L 164.826994 234.805618 
L 165.801933 235.290801 
L 166.776871 235.517133 
L 167.75181 235.478532 
L 168.726749 235.172079 
L 169.701687 234.598067 
L 170.676626 233.760007 
L 171.651564 232.664596 
L 172.951482 230.821118 
L 174.2514 228.569405 
L 175.876298 225.242852 
L 177.826175 220.629139 
L 180.426011 213.749354 
L 186.600622 197.03861 
L 188.5505 192.526763 
L 190.175397 189.307978 
L 191.475315 187.154876 
L 192.775233 185.418737 
L 193.750172 184.408172 
L 194.725111 183.657539 
L 195.700049 183.172482 
L 196.674988 182.95544 
L 197.649926 183.005631 
L 198.624865 183.319077 
L 199.599803 183.888658 
L 200.574742 184.704219 
L 201.87466 186.151314 
L 203.174578 187.973816 
L 204.799476 190.70905 
L 206.749353 194.522414 
L 209.349189 200.171563 
L 213.898903 210.152474 
L 215.84878 213.914755 
L 217.473677 216.614682 
L 218.773595 218.426787 
L 220.073514 219.891211 
L 221.373432 220.981622 
L 222.34837 221.543352 
L 223.323309 221.88123 
L 224.298247 221.994664 
L 225.273186 221.886139 
L 226.248124 221.561169 
L 227.223063 221.028212 
L 228.522981 220.013959 
L 229.822899 218.684346 
L 231.447797 216.642868 
L 233.397674 213.764265 
L 236.32249 208.966246 
L 239.572285 203.710844 
L 241.522162 200.971574 
L 243.14706 199.090383 
L 244.446978 197.913701 
L 245.746896 197.070396 
L 246.721835 196.675015 
L 247.696773 196.493581 
L 248.671712 196.532602 
L 249.64665 196.795578 
L 250.621589 197.282947 
L 251.596527 197.992065 
L 252.896446 199.272206 
L 254.196364 200.914321 
L 255.496282 202.887647 
L 257.121179 205.759773 
L 259.071057 209.676678 
L 261.995872 216.114587 
L 265.895627 224.622265 
L 267.845504 228.350853 
L 269.470401 230.991129 
L 270.770319 232.723814 
L 272.070238 234.07074 
L 273.045176 234.805618 
L 274.020115 235.290801 
L 274.995053 235.517133 
L 275.969992 235.478532 
L 276.94493 235.172079 
L 277.919869 234.598067 
L 278.894808 233.760007 
L 279.869746 232.664596 
L 281.169664 230.821118 
L 282.469582 228.569405 
L 284.09448 225.242852 
L 286.044357 220.629139 
L 288.644193 213.749354 
L 294.818804 197.03861 
L 296.768681 192.526763 
L 298.393579 189.307978 
L 299.693497 187.154876 
L 300.993415 185.418737 
L 301.968354 184.408172 
L 302.943292 183.657539 
L 303.918231 183.172482 
L 304.89317 182.95544 
L 305.868108 183.005631 
L 306.843047 183.319077 
L 307.817985 183.888658 
L 308.792924 184.704219 
L 310.092842 186.151314 
L 311.39276 187.973816 
L 313.017658 190.70905 
L 314.967535 194.522414 
L 317.567371 200.171563 
L 322.117084 210.152474 
L 324.066962 213.914755 
L 325.691859 216.614682 
L 326.991777 218.426787 
L 328.291695 219.891211 
L 329.591613 220.981622 
L 330.566552 221.543352 
L 331.541491 221.88123 
L 332.516429 221.994664 
L 333.491368 221.886139 
L 334.466306 221.561169 
L 335.441245 221.028212 
L 336.741163 220.013959 
L 338.041081 218.684346 
L 339.665979 216.642868 
L 341.615856 213.764265 
L 344.540672 208.966246 
L 347.790467 203.710844 
L 349.740344 200.971574 
L 351.365242 199.090383 
L 352.66516 197.913701 
L 353.965078 197.070396 
L 354.940016 196.675015 
L 355.914955 196.493581 
L 356.889894 196.532602 
L 357.864832 196.795578 
L 358.839771 197.282947 
L 359.814709 197.992065 
L 361.114627 199.272206 
L 362.414545 200.914321 
L 363.714464 202.887647 
L 365.339361 205.759773 
L 367.289238 209.676678 
L 370.214054 216.114587 
L 374.113808 224.622265 
L 376.063686 228.350853 
L 377.688583 230.991129 
L 378.988501 232.723814 
L 380.288419 234.07074 
L 381.263358 234.805618 
L 382.238296 235.290801 
L 383.213235 235.517133 
L 384.188174 235.478532 
L 385.163112 235.172079 
L 386.138051 234.598067 
L 387.112989 233.760007 
L 388.087928 232.664596 
L 389.387846 230.821118 
L 390.687764 228.569405 
L 392.312662 225.242852 
L 394.262539 220.629139 
L 396.862375 213.749354 
L 398.487273 209.238261 
L 398.487273 209.238261 
" clip-path="url(#pc425b31923)" style="fill: none; stroke: #1f77b4; stroke-width: 1.5; stroke-linecap: square"/>
   </g>
   <g id="patch_13">
    <path d="M 57.6 238.163478 
L 57.6 180.313043 
" style="fill: none; stroke: #000000; stroke-width: 0.8; stroke-linejoin: miter; stroke-linecap: square"/>
   </g>
   <g id="patch_14">
    <path d="M 414.72 238.163478 
L 414.72 180.313043 
" style="fill: none; stroke: #000000; stroke-width: 0.8; stroke-linejoin: miter; stroke-linecap: square"/>
   </g>
   <g id="patch_15">
    <path d="M 57.6 238.163478 
L 414.72 238.163478 
" style="fill: none; stroke: #000000; stroke-width: 0.8; stroke-linejoin: miter; stroke-linecap: square"/>
   </g>
   <g id="patch_16">
    <path d="M 57.6 180.313043 
L 414.72 180.313043 
" style="fill: none; stroke: #000000; stroke-width: 0.8; stroke-linejoin: miter; stroke-linecap: square"/>
   </g>
   <g id="text_28">
    <!-- Semnal -->
    <g transform="translate(213.668437 174.313043) scale(0.12 -0.12)">
     <defs>
      <path id="DejaVuSans-53" d="M 3425 4513 
L 3425 3897 
Q 3066 4069 2747 4153 
Q 2428 4238 2131 4238 
Q 1616 4238 1336 4038 
Q 1056 3838 1056 3469 
Q 1056 3159 1242 3001 
Q 1428 2844 1947 2747 
L 2328 2669 
Q 3034 2534 3370 2195 
Q 3706 1856 3706 1288 
Q 3706 609 3251 259 
Q 2797 -91 1919 -91 
Q 1588 -91 1214 -16 
Q 841 59 441 206 
L 441 856 
Q 825 641 1194 531 
Q 1563 422 1919 422 
Q 2459 422 2753 634 
Q 3047 847 3047 1241 
Q 3047 1584 2836 1778 
Q 2625 1972 2144 2069 
L 1759 2144 
Q 1053 2284 737 2584 
Q 422 2884 422 3419 
Q 422 4038 858 4394 
Q 1294 4750 2059 4750 
Q 2388 4750 2728 4690 
Q 3069 4631 3425 4513 
z
" transform="scale(0.015625)"/>
      <path id="DejaVuSans-6e" d="M 3513 2113 
L 3513 0 
L 2938 0 
L 2938 2094 
Q 2938 2591 2744 2837 
Q 2550 3084 2163 3084 
Q 1697 3084 1428 2787 
Q 1159 2491 1159 1978 
L 1159 0 
L 581 0 
L 581 3500 
L 1159 3500 
L 1159 2956 
Q 1366 3272 1645 3428 
Q 1925 3584 2291 3584 
Q 2894 3584 3203 3211 
Q 3513 2838 3513 2113 
z
" transform="scale(0.015625)"/>
      <path id="DejaVuSans-6c" d="M 603 4863 
L 1178 4863 
L 1178 0 
L 603 0 
L 603 4863 
z
" transform="scale(0.015625)"/>
     </defs>
     <use xlink:href="#DejaVuSans-53"/>
     <use xlink:href="#DejaVuSans-65" x="63.476562"/>
     <use xlink:href="#DejaVuSans-6d" x="125"/>
     <use xlink:href="#DejaVuSans-6e" x="222.412109"/>
     <use xlink:href="#DejaVuSans-61" x="285.791016"/>
     <use xlink:href="#DejaVuSans-6c" x="347.070312"/>
    </g>
   </g>
  </g>
  <g id="axes_4">
   <g id="patch_17">
    <path d="M 57.6 307.584 
L 414.72 307.584 
L 414.72 249.733565 
L 57.6 249.733565 
z
" style="fill: #ffffff"/>
   </g>
   <g id="matplotlib.axis_7">
    <g id="xtick_19">
     <g id="line2d_29">
      <g>
       <use xlink:href="#m46406ee4bd" x="73.832727" y="307.584" style="stroke: #000000; stroke-width: 0.8"/>
      </g>
     </g>
     <g id="text_29">
      <!-- 0 -->
      <g transform="translate(70.651477 322.182437) scale(0.1 -0.1)">
       <use xlink:href="#DejaVuSans-30"/>
      </g>
     </g>
    </g>
    <g id="xtick_20">
     <g id="line2d_30">
      <g>
       <use xlink:href="#m46406ee4bd" x="138.828632" y="307.584" style="stroke: #000000; stroke-width: 0.8"/>
      </g>
     </g>
     <g id="text_30">
      <!-- 200 -->
      <g transform="translate(129.284882 322.182437) scale(0.1 -0.1)">
       <use xlink:href="#DejaVuSans-32"/>
       <use xlink:href="#DejaVuSans-30" x="63.623047"/>
       <use xlink:href="#DejaVuSans-30" x="127.246094"/>
      </g>
     </g>
    </g>
    <g id="xtick_21">
     <g id="line2d_31">
      <g>
       <use xlink:href="#m46406ee4bd" x="203.824537" y="307.584" style="stroke: #000000; stroke-width: 0.8"/>
      </g>
     </g>
     <g id="text_31">
      <!-- 400 -->
      <g transform="translate(194.280787 322.182437) scale(0.1 -0.1)">
       <use xlink:href="#DejaVuSans-34"/>
       <use xlink:href="#DejaVuSans-30" x="63.623047"/>
       <use xlink:href="#DejaVuSans-30" x="127.246094"/>
      </g>
     </g>
    </g>
    <g id="xtick_22">
     <g id="line2d_32">
      <g>
       <use xlink:href="#m46406ee4bd" x="268.820442" y="307.584" style="stroke: #000000; stroke-width: 0.8"/>
      </g>
     </g>
     <g id="text_32">
      <!-- 600 -->
      <g transform="translate(259.276692 322.182437) scale(0.1 -0.1)">
       <use xlink:href="#DejaVuSans-36"/>
       <use xlink:href="#DejaVuSans-30" x="63.623047"/>
       <use xlink:href="#DejaVuSans-30" x="127.246094"/>
      </g>
     </g>
    </g>
    <g id="xtick_23">
     <g id="line2d_33">
      <g>
       <use xlink:href="#m46406ee4bd" x="333.816347" y="307.584" style="stroke: #000000; stroke-width: 0.8"/>
      </g>
     </g>
     <g id="text_33">
      <!-- 800 -->
      <g transform="translate(324.272597 322.182437) scale(0.1 -0.1)">
       <use xlink:href="#DejaVuSans-38"/>
       <use xlink:href="#DejaVuSans-30" x="63.623047"/>
       <use xlink:href="#DejaVuSans-30" x="127.246094"/>
      </g>
     </g>
    </g>
    <g id="xtick_24">
     <g id="line2d_34">
      <g>
       <use xlink:href="#m46406ee4bd" x="398.812252" y="307.584" style="stroke: #000000; stroke-width: 0.8"/>
      </g>
     </g>
     <g id="text_34">
      <!-- 1000 -->
      <g transform="translate(386.087252 322.182437) scale(0.1 -0.1)">
       <use xlink:href="#DejaVuSans-31"/>
       <use xlink:href="#DejaVuSans-30" x="63.623047"/>
       <use xlink:href="#DejaVuSans-30" x="127.246094"/>
       <use xlink:href="#DejaVuSans-30" x="190.869141"/>
      </g>
     </g>
    </g>
    <g id="text_35">
     <!-- Ordin esantion -->
     <g transform="translate(199.443594 335.860562) scale(0.1 -0.1)">
      <defs>
       <path id="DejaVuSans-4f" d="M 2522 4238 
Q 1834 4238 1429 3725 
Q 1025 3213 1025 2328 
Q 1025 1447 1429 934 
Q 1834 422 2522 422 
Q 3209 422 3611 934 
Q 4013 1447 4013 2328 
Q 4013 3213 3611 3725 
Q 3209 4238 2522 4238 
z
M 2522 4750 
Q 3503 4750 4090 4092 
Q 4678 3434 4678 2328 
Q 4678 1225 4090 567 
Q 3503 -91 2522 -91 
Q 1538 -91 948 565 
Q 359 1222 359 2328 
Q 359 3434 948 4092 
Q 1538 4750 2522 4750 
z
" transform="scale(0.015625)"/>
       <path id="DejaVuSans-73" d="M 2834 3397 
L 2834 2853 
Q 2591 2978 2328 3040 
Q 2066 3103 1784 3103 
Q 1356 3103 1142 2972 
Q 928 2841 928 2578 
Q 928 2378 1081 2264 
Q 1234 2150 1697 2047 
L 1894 2003 
Q 2506 1872 2764 1633 
Q 3022 1394 3022 966 
Q 3022 478 2636 193 
Q 2250 -91 1575 -91 
Q 1294 -91 989 -36 
Q 684 19 347 128 
L 347 722 
Q 666 556 975 473 
Q 1284 391 1588 391 
Q 1994 391 2212 530 
Q 2431 669 2431 922 
Q 2431 1156 2273 1281 
Q 2116 1406 1581 1522 
L 1381 1569 
Q 847 1681 609 1914 
Q 372 2147 372 2553 
Q 372 3047 722 3315 
Q 1072 3584 1716 3584 
Q 2034 3584 2315 3537 
Q 2597 3491 2834 3397 
z
" transform="scale(0.015625)"/>
      </defs>
      <use xlink:href="#DejaVuSans-4f"/>
      <use xlink:href="#DejaVuSans-72" x="78.710938"/>
      <use xlink:href="#DejaVuSans-64" x="118.074219"/>
      <use xlink:href="#DejaVuSans-69" x="181.550781"/>
      <use xlink:href="#DejaVuSans-6e" x="209.333984"/>
      <use xlink:href="#DejaVuSans-20" x="272.712891"/>
      <use xlink:href="#DejaVuSans-65" x="304.5"/>
      <use xlink:href="#DejaVuSans-73" x="366.023438"/>
      <use xlink:href="#DejaVuSans-61" x="418.123047"/>
      <use xlink:href="#DejaVuSans-6e" x="479.402344"/>
      <use xlink:href="#DejaVuSans-74" x="542.78125"/>
      <use xlink:href="#DejaVuSans-69" x="581.990234"/>
      <use xlink:href="#DejaVuSans-6f" x="609.773438"/>
      <use xlink:href="#DejaVuSans-6e" x="670.955078"/>
     </g>
    </g>
   </g>
   <g id="matplotlib.axis_8">
    <g id="ytick_8">
     <g id="line2d_35">
      <g>
       <use xlink:href="#m9adddbe80d" x="57.6" y="288.498453" style="stroke: #000000; stroke-width: 0.8"/>
      </g>
     </g>
     <g id="text_36">
      <!-- 2 -->
      <g transform="translate(44.2375 292.297672) scale(0.1 -0.1)">
       <use xlink:href="#DejaVuSans-32"/>
      </g>
     </g>
    </g>
    <g id="ytick_9">
     <g id="line2d_36">
      <g>
       <use xlink:href="#m9adddbe80d" x="57.6" y="253.859793" style="stroke: #000000; stroke-width: 0.8"/>
      </g>
     </g>
     <g id="text_37">
      <!-- 4 -->
      <g transform="translate(44.2375 257.659011) scale(0.1 -0.1)">
       <use xlink:href="#DejaVuSans-34"/>
      </g>
     </g>
    </g>
    <g id="text_38">
     <!-- Valoare -->
     <g transform="translate(38.157812 297.287689) rotate(-90) scale(0.1 -0.1)">
      <defs>
       <path id="DejaVuSans-56" d="M 1831 0 
L 50 4666 
L 709 4666 
L 2188 738 
L 3669 4666 
L 4325 4666 
L 2547 0 
L 1831 0 
z
" transform="scale(0.015625)"/>
      </defs>
      <use xlink:href="#DejaVuSans-56"/>
      <use xlink:href="#DejaVuSans-61" x="60.658203"/>
      <use xlink:href="#DejaVuSans-6c" x="121.9375"/>
      <use xlink:href="#DejaVuSans-6f" x="149.720703"/>
      <use xlink:href="#DejaVuSans-61" x="210.902344"/>
      <use xlink:href="#DejaVuSans-72" x="272.181641"/>
      <use xlink:href="#DejaVuSans-65" x="311.044922"/>
     </g>
    </g>
   </g>
   <g id="line2d_37">
    <path d="M 73.832727 304.551314 
L 74.157707 304.954435 
L 74.482686 304.117952 
L 74.807666 304.323907 
L 75.132645 303.881701 
L 75.457625 304.050287 
L 75.782604 303.296848 
L 76.107584 303.246278 
L 76.432563 303.362794 
L 76.757543 302.571733 
L 77.082523 303.386374 
L 77.407502 302.089901 
L 77.732482 301.82399 
L 78.057461 302.716707 
L 78.382441 302.207392 
L 78.70742 301.418355 
L 79.0324 301.871406 
L 79.357379 302.106473 
L 79.682359 300.932563 
L 80.007338 301.749583 
L 80.657297 301.049447 
L 80.982277 301.56252 
L 81.307256 300.670466 
L 81.632236 300.311262 
L 81.957215 301.302397 
L 82.282195 299.838182 
L 82.607174 299.925818 
L 82.932154 300.57527 
L 83.257133 299.173854 
L 83.582113 299.12829 
L 83.907093 300.322151 
L 84.232072 300.205572 
L 84.882031 299.494813 
L 85.207011 300.096859 
L 85.53199 298.987143 
L 85.85697 299.394058 
L 86.181949 299.333106 
L 86.506929 298.749289 
L 86.831908 298.916065 
L 87.481867 298.967262 
L 87.806847 298.347294 
L 88.131826 299.381106 
L 88.456806 299.388099 
L 89.431744 297.914316 
L 89.756724 297.892062 
L 90.081704 297.99727 
L 90.406683 298.384962 
L 90.731663 298.578578 
L 91.056642 298.085592 
L 91.381622 298.388919 
L 91.706601 298.069682 
L 92.031581 298.008332 
L 92.68154 298.903059 
L 93.006519 298.248286 
L 93.331499 298.869808 
L 93.981458 299.322391 
L 94.306437 299.232142 
L 94.631417 299.388798 
L 95.281376 298.550753 
L 95.606355 299.632413 
L 95.931335 299.333954 
L 96.256314 299.231151 
L 96.581294 299.759817 
L 96.906274 299.575753 
L 97.231253 298.624797 
L 97.556233 300.072097 
L 97.881212 299.830188 
L 98.206192 299.415269 
L 98.856151 300.496733 
L 99.18113 299.669907 
L 99.50611 300.263116 
L 99.831089 300.46076 
L 100.156069 300.832963 
L 100.481048 300.363818 
L 100.806028 300.32359 
L 101.131007 299.584875 
L 101.455987 299.775869 
L 101.780966 300.727749 
L 102.105946 299.871145 
L 102.430925 300.389227 
L 102.755905 300.042621 
L 103.080885 301.322155 
L 103.405864 300.773525 
L 103.730844 300.835363 
L 104.055823 301.516429 
L 104.380803 301.172821 
L 104.705782 301.695136 
L 105.030762 300.846725 
L 105.355741 301.065896 
L 106.0057 301.042247 
L 106.33068 301.436276 
L 106.655659 302.617138 
L 106.980639 301.77395 
L 107.305618 302.540796 
L 107.630598 302.545481 
L 107.955577 301.306697 
L 108.280557 301.598611 
L 108.605536 301.717482 
L 108.930516 302.900756 
L 109.255495 302.548521 
L 109.580475 301.816206 
L 109.905455 302.234495 
L 110.230434 302.993227 
L 110.555414 303.048482 
L 110.880393 301.961158 
L 111.205373 302.233722 
L 111.530352 303.388844 
L 112.180311 302.73844 
L 112.505291 303.422762 
L 112.83027 302.613769 
L 113.15525 303.064565 
L 113.480229 302.59295 
L 113.805209 302.783737 
L 114.130188 302.309549 
L 114.455168 303.450543 
L 114.780147 302.426863 
L 115.105127 301.87991 
L 115.430106 301.691772 
L 115.755086 302.909998 
L 116.080066 301.711816 
L 116.405045 302.227075 
L 116.730025 301.630701 
L 117.055004 301.708456 
L 117.704963 302.276251 
L 118.029943 302.561132 
L 118.354922 301.958932 
L 118.679902 302.839613 
L 119.004881 301.819956 
L 119.329861 301.536495 
L 119.65484 302.621625 
L 119.97982 302.072538 
L 120.304799 300.876195 
L 120.954758 301.061439 
L 121.279738 300.616258 
L 121.604717 300.870617 
L 121.929697 301.92739 
L 122.254676 300.877556 
L 122.579656 300.542665 
L 122.904636 301.338915 
L 123.229615 301.437858 
L 123.554595 301.305084 
L 123.879574 299.687148 
L 124.204554 299.383499 
L 124.529533 300.436323 
L 124.854513 299.582935 
L 125.179492 299.192343 
L 125.829451 299.971857 
L 126.154431 299.454885 
L 126.47941 300.137728 
L 126.80439 298.498073 
L 127.129369 298.918586 
L 127.454349 299.753455 
L 127.779328 299.391508 
L 128.104308 299.474085 
L 128.429287 298.01332 
L 128.754267 299.112231 
L 129.404226 298.364864 
L 129.729206 297.3333 
L 130.054185 297.186681 
L 130.379165 298.029714 
L 130.704144 296.787447 
L 131.029124 297.637546 
L 131.354103 297.501329 
L 131.679083 296.644053 
L 132.329042 296.437175 
L 132.654021 296.173621 
L 133.30398 296.384665 
L 133.62896 295.930875 
L 133.953939 296.984025 
L 134.278919 296.483614 
L 134.603898 296.492107 
L 134.928878 295.866886 
L 135.253857 295.712615 
L 135.578837 295.196733 
L 135.903817 295.846775 
L 136.228796 295.883607 
L 136.553776 296.251323 
L 136.878755 295.858215 
L 137.203735 295.987966 
L 137.528714 294.940928 
L 137.853694 294.582311 
L 138.503653 295.645033 
L 138.828632 295.188725 
L 139.153612 295.212309 
L 139.478591 294.404978 
L 139.803571 295.568124 
L 140.45353 294.306904 
L 141.103489 294.846447 
L 141.428468 295.498108 
L 142.078428 295.060769 
L 142.403407 294.555488 
L 142.728387 294.729737 
L 143.053366 295.186336 
L 143.378346 294.873184 
L 143.703325 294.006037 
L 144.028305 294.744543 
L 144.353284 294.035718 
L 144.678264 294.770895 
L 145.003243 294.674312 
L 145.328223 294.13555 
L 145.978182 294.326196 
L 146.303161 294.086948 
L 146.628141 295.160239 
L 146.95312 294.338401 
L 147.2781 295.493335 
L 147.603079 295.338598 
L 147.928059 295.685575 
L 148.253038 295.714727 
L 148.578018 296.180664 
L 149.227977 295.679011 
L 149.552957 296.379338 
L 149.877936 294.98355 
L 150.202916 295.818334 
L 150.852875 296.419679 
L 151.177854 296.664272 
L 151.502834 295.830104 
L 151.827813 295.956735 
L 152.152793 295.886379 
L 152.477772 296.853859 
L 152.802752 296.272335 
L 153.127731 296.120546 
L 153.452711 296.820286 
L 153.77769 296.84111 
L 154.10267 297.546621 
L 154.427649 296.313858 
L 154.752629 296.725675 
L 155.077609 297.762286 
L 155.402588 296.400814 
L 155.727568 297.242049 
L 156.052547 297.766004 
L 156.377527 296.806545 
L 156.702506 297.144381 
L 157.027486 297.848742 
L 157.352465 297.325855 
L 157.677445 297.696275 
L 158.002424 297.774935 
L 158.327404 297.359402 
L 158.977363 297.360862 
L 159.302342 297.210683 
L 159.627322 298.473401 
L 159.952301 297.352612 
L 160.277281 298.702373 
L 160.60226 298.679708 
L 161.252219 297.498904 
L 161.577199 298.577891 
L 161.902179 297.770005 
L 162.227158 298.211952 
L 162.552138 297.689347 
L 163.202097 298.774302 
L 163.527076 297.847116 
L 163.852056 298.577349 
L 164.177035 297.718375 
L 164.502015 298.873483 
L 164.826994 298.39204 
L 165.151974 297.65182 
L 165.476953 299.147521 
L 165.801933 298.788101 
L 166.126912 299.193828 
L 166.776871 297.79427 
L 167.101851 297.490033 
L 167.42683 298.933872 
L 167.75181 298.723654 
L 168.07679 297.722958 
L 168.401769 298.29186 
L 169.051728 297.87408 
L 169.376708 298.371491 
L 169.701687 297.846354 
L 170.026667 298.532006 
L 170.676626 296.640164 
L 171.001605 296.671096 
L 171.326585 297.806599 
L 171.651564 297.907958 
L 171.976544 297.805683 
L 172.301523 297.197318 
L 172.626503 296.270854 
L 172.951482 296.685914 
L 173.276462 295.917066 
L 173.601441 296.206771 
L 173.926421 296.026865 
L 174.2514 296.687027 
L 174.57638 296.763833 
L 174.90136 295.421829 
L 175.226339 295.358601 
L 175.551319 294.867936 
L 175.876298 295.363717 
L 176.526257 294.316011 
L 176.851237 293.87573 
L 177.176216 294.601826 
L 177.501196 293.550864 
L 177.826175 293.408848 
L 178.151155 294.470863 
L 178.476134 293.277969 
L 179.126093 293.741309 
L 179.451073 292.461456 
L 179.776052 292.864988 
L 180.101032 291.989215 
L 180.426011 291.900692 
L 181.075971 292.570853 
L 181.72593 290.991873 
L 182.050909 292.228431 
L 182.375889 290.920846 
L 182.700868 291.244904 
L 183.025848 290.672489 
L 183.350827 290.486329 
L 183.675807 289.736295 
L 184.000786 290.384695 
L 184.325766 290.036378 
L 184.650745 289.377015 
L 185.625684 290.016152 
L 186.275643 289.438833 
L 186.600622 288.732746 
L 186.925602 288.767999 
L 187.250581 287.727028 
L 187.575561 287.9973 
L 187.900541 287.472925 
L 188.22552 288.522218 
L 189.200459 287.460393 
L 189.525438 286.207805 
L 189.850418 286.987145 
L 190.175397 287.25958 
L 190.825356 286.154432 
L 191.150336 286.253129 
L 191.475315 285.402008 
L 191.800295 286.502619 
L 192.125274 285.723421 
L 192.450254 285.967935 
L 192.775233 285.189421 
L 193.100213 284.758301 
L 193.425192 284.578761 
L 193.750172 285.698781 
L 194.075152 285.62641 
L 194.400131 284.806423 
L 194.725111 284.300103 
L 195.05009 285.275007 
L 195.37507 285.002327 
L 195.700049 284.40832 
L 196.025029 285.05513 
L 196.350008 284.503087 
L 196.674988 284.493855 
L 196.999967 284.878642 
L 197.324947 284.918808 
L 197.649926 283.880334 
L 198.299885 283.765069 
L 198.624865 283.627488 
L 198.949844 283.886232 
L 199.599803 283.743519 
L 200.249762 285.179692 
L 200.574742 284.536963 
L 200.899722 284.306708 
L 201.224701 283.547778 
L 201.549681 284.968775 
L 201.87466 284.250712 
L 202.19964 285.315326 
L 202.524619 284.007109 
L 202.849599 285.237058 
L 203.174578 285.331146 
L 203.499558 285.101664 
L 203.824537 284.046772 
L 204.149517 284.063951 
L 204.474496 285.389333 
L 204.799476 284.900638 
L 205.124455 285.155397 
L 205.449435 284.744812 
L 205.774414 284.51529 
L 206.424373 285.208188 
L 206.749353 284.511403 
L 207.399312 285.85253 
L 207.724292 285.52288 
L 208.049271 285.59337 
L 208.374251 285.225905 
L 208.69923 285.173571 
L 209.02421 285.739913 
L 209.349189 286.629814 
L 209.674169 285.399379 
L 209.999148 286.464351 
L 210.324128 285.739069 
L 210.649107 286.434018 
L 210.974087 285.705766 
L 211.299066 286.970877 
L 211.624046 286.430969 
L 211.949025 286.65792 
L 212.274005 286.63544 
L 212.598984 287.358736 
L 212.923964 285.920503 
L 213.248943 286.333433 
L 213.573923 287.542537 
L 213.898903 286.935787 
L 214.223882 287.839849 
L 214.548862 286.522086 
L 214.873841 287.187123 
L 215.198821 287.533669 
L 215.84878 287.085506 
L 216.173759 286.71427 
L 216.498739 287.189084 
L 216.823718 286.685331 
L 217.473677 287.062807 
L 217.798657 287.552135 
L 218.123636 286.798789 
L 218.448616 288.35296 
L 218.773595 287.138658 
L 219.098575 288.227236 
L 219.423554 287.507102 
L 219.748534 287.986702 
L 220.073514 288.228178 
L 220.398493 287.316526 
L 220.723473 287.915351 
L 221.048452 287.898188 
L 221.373432 287.336259 
L 222.023391 287.610131 
L 222.67335 286.821126 
L 222.998329 288.119907 
L 223.323309 287.471238 
L 223.648288 287.86034 
L 223.973268 287.124301 
L 224.298247 286.90317 
L 224.623227 287.144796 
L 224.948206 287.216072 
L 225.273186 287.663038 
L 225.598165 286.927473 
L 225.923145 286.946496 
L 226.248124 287.939772 
L 226.573104 286.910668 
L 226.898084 286.76633 
L 227.223063 286.005594 
L 227.548043 286.976574 
L 227.873022 287.044273 
L 228.198002 286.374428 
L 228.522981 286.342258 
L 228.847961 287.064414 
L 229.17294 286.399547 
L 229.49792 286.322045 
L 229.822899 286.544669 
L 230.147879 285.526301 
L 230.472858 285.450324 
L 230.797838 284.780475 
L 231.122817 286.276602 
L 231.447797 285.881127 
L 231.772776 284.622411 
L 232.097756 284.566169 
L 232.422735 284.785059 
L 232.747715 284.103937 
L 233.072695 284.654743 
L 233.397674 284.331732 
L 233.722654 285.029789 
L 234.047633 284.098426 
L 234.372613 284.575507 
L 234.697592 284.815749 
L 235.022572 282.981853 
L 235.347551 282.869841 
L 235.672531 283.898521 
L 235.99751 282.587622 
L 236.32249 283.614969 
L 236.647469 282.462352 
L 236.972449 283.016778 
L 237.297428 282.122901 
L 237.622408 282.718015 
L 238.272367 282.905341 
L 238.597346 282.699755 
L 238.922326 282.683031 
L 239.247305 281.525802 
L 239.572285 281.86671 
L 239.897265 280.917841 
L 240.222244 281.622144 
L 240.872203 281.365261 
L 241.197183 280.320738 
L 241.522162 280.394879 
L 241.847142 280.215446 
L 242.172121 280.980848 
L 242.82208 279.859178 
L 243.14706 280.760344 
L 243.472039 279.78704 
L 243.797019 280.951576 
L 244.121998 279.326899 
L 244.446978 279.267366 
L 244.771957 279.597946 
L 245.096937 279.518789 
L 245.421916 280.454376 
L 245.746896 279.487328 
L 246.071876 279.463328 
L 246.396855 280.207433 
L 246.721835 279.2288 
L 247.046814 279.155293 
L 247.696773 279.886573 
L 248.021753 279.507651 
L 248.346732 278.319168 
L 248.996691 279.298953 
L 249.321671 279.062834 
L 249.64665 279.257913 
L 249.97163 279.043985 
L 250.296609 278.096096 
L 250.621589 278.094921 
L 250.946568 278.301123 
L 251.271548 278.038252 
L 251.596527 279.306901 
L 251.921507 278.29235 
L 252.246486 278.643079 
L 252.571466 279.588468 
L 253.221425 278.348544 
L 253.546405 278.023003 
L 253.871384 278.959112 
L 254.196364 278.529276 
L 254.521343 278.978644 
L 254.846323 279.225111 
L 255.171302 279.727145 
L 255.496282 278.719566 
L 255.821261 278.231389 
L 256.146241 279.103519 
L 256.47122 278.611559 
L 256.7962 279.499596 
L 257.121179 278.455081 
L 257.446159 279.221735 
L 257.771138 278.537068 
L 258.096118 279.104145 
L 258.421097 278.853355 
L 258.746077 280.000089 
L 259.071057 278.985834 
L 260.045995 280.653512 
L 260.370975 279.212006 
L 260.695954 280.413643 
L 261.020934 280.461845 
L 261.345913 280.878558 
L 261.670893 279.907123 
L 261.995872 279.550828 
L 262.320852 280.931218 
L 262.645831 279.664498 
L 262.970811 280.790783 
L 263.29579 280.182341 
L 263.62077 281.529333 
L 263.945749 280.198998 
L 264.270729 281.26588 
L 264.920688 280.248057 
L 265.245667 280.419604 
L 265.570647 281.140443 
L 265.895627 280.948923 
L 266.220606 281.26189 
L 266.545586 280.74046 
L 267.195545 281.326237 
L 267.520524 280.727642 
L 267.845504 281.261989 
L 268.170483 281.130968 
L 268.495463 282.299697 
L 268.820442 281.513702 
L 269.145422 281.964164 
L 269.470401 281.71308 
L 269.795381 281.66734 
L 270.12036 281.227377 
L 270.44534 281.308239 
L 271.095299 282.564713 
L 271.420278 281.835146 
L 272.070238 281.245592 
L 272.395217 281.902995 
L 272.720197 281.112202 
L 273.370156 281.831673 
L 273.695135 281.037231 
L 274.020115 281.90196 
L 274.345094 281.54248 
L 274.670074 281.974215 
L 274.995053 281.071009 
L 275.320033 281.871832 
L 275.645012 280.711396 
L 275.969992 280.826583 
L 276.294971 281.191875 
L 276.94493 281.283911 
L 277.26991 280.774907 
L 277.594889 280.694853 
L 277.919869 280.07496 
L 278.244848 281.400217 
L 278.569828 281.268661 
L 278.894808 280.194037 
L 279.219787 281.006492 
L 279.544767 280.089553 
L 279.869746 280.193512 
L 280.194726 279.985372 
L 280.519705 280.743112 
L 280.844685 280.552182 
L 281.169664 279.647456 
L 281.494644 279.400708 
L 281.819623 279.748078 
L 282.144603 278.694453 
L 282.469582 279.625394 
L 282.794562 278.573238 
L 283.119541 278.895261 
L 283.444521 279.029682 
L 284.09448 278.916821 
L 284.419459 278.041044 
L 284.744439 277.532999 
L 285.069419 278.323473 
L 285.394398 276.95411 
L 285.719378 277.788144 
L 286.044357 276.21479 
L 286.369337 276.178208 
L 286.694316 276.708116 
L 287.019296 276.671486 
L 287.344275 276.16723 
L 287.669255 276.503856 
L 287.994234 275.874068 
L 288.319214 274.753989 
L 288.644193 274.811299 
L 288.969173 274.732747 
L 289.294152 274.432476 
L 289.619132 274.872111 
L 289.944111 273.946477 
L 290.269091 274.69553 
L 290.59407 273.93231 
L 290.91905 274.285671 
L 291.244029 273.308982 
L 291.569009 272.848886 
L 291.893989 273.35456 
L 292.218968 273.560645 
L 292.868927 272.22491 
L 293.193907 271.696822 
L 293.518886 271.739288 
L 293.843866 272.491447 
L 294.168845 270.831067 
L 294.493825 272.064477 
L 294.818804 271.545416 
L 295.143784 270.198564 
L 295.468763 271.187714 
L 295.793743 270.277388 
L 296.118722 270.641819 
L 296.443702 270.188438 
L 296.768681 269.532304 
L 297.093661 269.493751 
L 297.41864 270.272744 
L 297.74362 268.786886 
L 298.0686 269.18763 
L 298.393579 268.61035 
L 298.718559 269.325178 
L 299.043538 269.549237 
L 299.368518 268.375257 
L 299.693497 268.245592 
L 300.018477 268.966821 
L 300.343456 268.784512 
L 300.668436 267.528456 
L 300.993415 267.505811 
L 301.318395 267.855012 
L 301.643374 268.539608 
L 301.968354 266.860739 
L 302.293333 268.32686 
L 302.618313 267.525236 
L 302.943292 267.810037 
L 303.268272 267.11502 
L 303.593251 267.41392 
L 303.918231 266.655561 
L 304.24321 266.189916 
L 304.56819 267.482078 
L 304.89317 265.983591 
L 305.218149 266.434858 
L 305.543129 266.315853 
L 305.868108 267.182247 
L 306.193088 266.931443 
L 306.518067 266.266318 
L 306.843047 266.609596 
L 307.168026 266.225517 
L 307.493006 267.187835 
L 307.817985 266.863087 
L 308.142965 266.712827 
L 308.467944 265.809037 
L 308.792924 265.567611 
L 309.117903 266.661087 
L 309.442883 266.479215 
L 309.767862 266.698138 
L 310.092842 267.092264 
L 310.417821 267.153344 
L 310.742801 266.165895 
L 311.067781 267.331663 
L 311.39276 265.659892 
L 311.71774 266.587519 
L 312.042719 266.178447 
L 312.367699 267.2026 
L 312.692678 267.050573 
L 313.017658 266.329179 
L 313.342637 266.807474 
L 313.667617 266.975412 
L 313.992596 266.785411 
L 314.317576 266.271735 
L 314.642555 267.29324 
L 314.967535 267.241292 
L 315.292514 267.440821 
L 315.617494 267.827986 
L 315.942473 267.591744 
L 316.267453 267.698102 
L 316.592432 266.520253 
L 316.917412 267.616087 
L 317.242391 268.151529 
L 317.892351 267.053746 
L 318.21733 268.553675 
L 318.54231 267.974325 
L 318.867289 268.506972 
L 319.192269 268.435742 
L 319.517248 268.501892 
L 319.842228 267.942167 
L 320.492187 267.620661 
L 320.817166 268.088393 
L 321.142146 267.53353 
L 321.467125 268.603509 
L 321.792105 268.536959 
L 322.117084 268.342838 
L 322.442064 269.108358 
L 322.767043 269.027609 
L 323.092023 268.295062 
L 323.417002 268.080692 
L 323.741982 268.308697 
L 324.066962 269.430499 
L 324.716921 268.629166 
L 325.0419 269.783852 
L 325.691859 268.122992 
L 326.016839 268.757483 
L 326.341818 268.848413 
L 326.666798 268.196293 
L 326.991777 269.220505 
L 327.316757 269.614234 
L 327.641736 269.331169 
L 327.966716 269.312297 
L 328.616675 268.636276 
L 328.941654 269.105258 
L 329.266634 268.572607 
L 329.591613 269.635719 
L 329.916593 269.575505 
L 330.241572 269.309594 
L 330.566552 268.836645 
L 330.891532 269.136548 
L 331.216511 268.937663 
L 331.541491 269.39012 
L 331.86647 269.36136 
L 332.19145 269.101305 
L 332.516429 268.400385 
L 332.841409 268.208406 
L 333.166388 268.348064 
L 333.491368 268.100591 
L 333.816347 268.42944 
L 334.141327 267.802588 
L 334.791286 267.630707 
L 335.116265 268.572509 
L 335.441245 268.296782 
L 335.766224 267.197752 
L 336.091204 268.258017 
L 336.741163 268.349853 
L 337.066143 268.185475 
L 337.391122 267.384063 
L 337.716102 267.841128 
L 338.041081 267.062668 
L 338.366061 267.174428 
L 338.69104 266.419162 
L 339.01602 266.095279 
L 339.340999 266.267187 
L 339.665979 266.658629 
L 339.990958 266.808976 
L 340.315938 266.391088 
L 340.640917 265.252127 
L 340.965897 266.571536 
L 341.290876 265.259558 
L 341.615856 264.621749 
L 341.940835 265.587465 
L 342.265815 264.529977 
L 342.590794 264.591245 
L 342.915774 265.076054 
L 343.240753 263.846485 
L 343.565733 264.129889 
L 343.890713 264.983592 
L 344.540672 263.95504 
L 344.865651 263.999131 
L 345.190631 264.170828 
L 345.51561 264.019876 
L 345.84059 264.08359 
L 346.165569 262.557127 
L 346.490549 262.548723 
L 346.815528 263.455523 
L 347.140508 262.481135 
L 347.465487 262.271457 
L 347.790467 262.783855 
L 348.115446 262.236321 
L 348.765405 262.630315 
L 349.090385 262.572829 
L 349.415364 262.148721 
L 349.740344 261.243509 
L 350.065324 261.90226 
L 350.390303 261.36425 
L 350.715283 260.477447 
L 351.040262 261.60671 
L 351.690221 260.700381 
L 352.015201 261.33753 
L 352.34018 260.040937 
L 352.66516 260.433205 
L 352.990139 260.019342 
L 353.315119 260.023564 
L 353.965078 260.220129 
L 354.290057 260.693926 
L 354.615037 259.384727 
L 354.940016 260.313133 
L 355.264996 259.441687 
L 355.589975 259.751764 
L 355.914955 258.678384 
L 356.239934 260.117766 
L 356.564914 259.61336 
L 356.889894 259.925413 
L 357.214873 259.346657 
L 357.539853 260.056557 
L 357.864832 258.464117 
L 358.189812 258.635563 
L 358.514791 258.245522 
L 358.839771 258.498637 
L 359.16475 259.359998 
L 359.48973 259.23669 
L 359.814709 258.336565 
L 360.139689 259.655998 
L 360.464668 258.708875 
L 361.114627 259.206326 
L 361.439607 258.433689 
L 361.764586 259.308895 
L 362.414545 258.732531 
L 362.739525 259.126149 
L 363.064505 259.03869 
L 363.389484 259.873541 
L 363.714464 258.959625 
L 364.039443 259.902462 
L 364.364423 258.714736 
L 364.689402 259.828491 
L 365.339361 259.753027 
L 365.664341 259.129535 
L 365.98932 258.938634 
L 366.3143 259.146683 
L 366.639279 259.580742 
L 366.964259 259.513007 
L 367.289238 259.668324 
L 367.614218 259.37103 
L 367.939197 259.734412 
L 368.264177 258.966504 
L 368.589156 260.155126 
L 368.914136 259.918705 
L 369.239115 260.40239 
L 369.564095 259.708797 
L 369.889075 260.322298 
L 370.214054 259.834406 
L 370.539034 260.870858 
L 370.864013 260.843426 
L 371.513972 260.14805 
L 371.838952 261.280083 
L 372.163931 260.620488 
L 372.488911 260.83516 
L 372.81389 260.322524 
L 373.13887 261.280757 
L 373.463849 260.747976 
L 373.788829 260.542351 
L 374.113808 261.223127 
L 374.438788 260.677238 
L 374.763767 261.209652 
L 375.088747 260.37517 
L 375.413726 260.942529 
L 375.738706 260.82501 
L 376.063686 261.745516 
L 376.388665 261.827123 
L 376.713645 260.358449 
L 377.038624 261.563857 
L 377.363604 260.978893 
L 377.688583 260.689923 
L 378.013563 262.076714 
L 378.338542 260.82057 
L 378.663522 262.127461 
L 378.988501 261.219866 
L 379.313481 260.8516 
L 379.63846 261.673032 
L 379.96344 261.856185 
L 380.288419 261.475161 
L 380.613399 261.505067 
L 381.263358 260.406638 
L 381.588337 260.360429 
L 381.913317 261.219636 
L 382.238296 260.918513 
L 382.563276 261.459629 
L 382.888256 260.661221 
L 383.213235 261.739682 
L 383.538215 260.37063 
L 383.863194 260.433916 
L 384.188174 260.75505 
L 384.838133 260.372925 
L 385.163112 260.709517 
L 385.488092 260.508695 
L 385.813071 260.439974 
L 386.138051 259.420265 
L 386.46303 260.145601 
L 386.78801 260.031975 
L 387.112989 259.30283 
L 387.437969 260.460773 
L 387.762948 259.584388 
L 388.087928 259.99716 
L 389.062867 258.880919 
L 389.387846 258.298045 
L 389.712826 258.459387 
L 390.037805 258.176496 
L 390.362785 257.468615 
L 390.687764 258.548291 
L 391.337723 257.063241 
L 391.662703 257.931321 
L 391.987682 256.798215 
L 392.637641 256.905958 
L 392.962621 257.295815 
L 393.2876 255.929709 
L 393.61258 255.680046 
L 393.937559 256.080458 
L 394.262539 256.712413 
L 394.587518 255.475478 
L 395.237477 254.624821 
L 395.562457 255.125584 
L 395.887437 254.238448 
L 396.212416 254.905726 
L 396.537396 253.788697 
L 396.862375 253.792076 
L 397.187355 254.116662 
L 397.512334 254.161981 
L 398.162293 252.36313 
L 398.487273 253.533206 
L 398.487273 253.533206 
" clip-path="url(#pe5713f053e)" style="fill: none; stroke: #1f77b4; stroke-width: 1.5; stroke-linecap: square"/>
   </g>
   <g id="patch_18">
    <path d="M 57.6 307.584 
L 57.6 249.733565 
" style="fill: none; stroke: #000000; stroke-width: 0.8; stroke-linejoin: miter; stroke-linecap: square"/>
   </g>
   <g id="patch_19">
    <path d="M 414.72 307.584 
L 414.72 249.733565 
" style="fill: none; stroke: #000000; stroke-width: 0.8; stroke-linejoin: miter; stroke-linecap: square"/>
   </g>
   <g id="patch_20">
    <path d="M 57.6 307.584 
L 414.72 307.584 
" style="fill: none; stroke: #000000; stroke-width: 0.8; stroke-linejoin: miter; stroke-linecap: square"/>
   </g>
   <g id="patch_21">
    <path d="M 57.6 249.733565 
L 414.72 249.733565 
" style="fill: none; stroke: #000000; stroke-width: 0.8; stroke-linejoin: miter; stroke-linecap: square"/>
   </g>
   <g id="text_39">
    <!-- Serie timp -->
    <g transform="translate(205.254375 243.733565) scale(0.12 -0.12)">
     <defs>
      <path id="DejaVuSans-70" d="M 1159 525 
L 1159 -1331 
L 581 -1331 
L 581 3500 
L 1159 3500 
L 1159 2969 
Q 1341 3281 1617 3432 
Q 1894 3584 2278 3584 
Q 2916 3584 3314 3078 
Q 3713 2572 3713 1747 
Q 3713 922 3314 415 
Q 2916 -91 2278 -91 
Q 1894 -91 1617 61 
Q 1341 213 1159 525 
z
M 3116 1747 
Q 3116 2381 2855 2742 
Q 2594 3103 2138 3103 
Q 1681 3103 1420 2742 
Q 1159 2381 1159 1747 
Q 1159 1113 1420 752 
Q 1681 391 2138 391 
Q 2594 391 2855 752 
Q 3116 1113 3116 1747 
z
" transform="scale(0.015625)"/>
     </defs>
     <use xlink:href="#DejaVuSans-53"/>
     <use xlink:href="#DejaVuSans-65" x="63.476562"/>
     <use xlink:href="#DejaVuSans-72" x="125"/>
     <use xlink:href="#DejaVuSans-69" x="166.113281"/>
     <use xlink:href="#DejaVuSans-65" x="193.896484"/>
     <use xlink:href="#DejaVuSans-20" x="255.419922"/>
     <use xlink:href="#DejaVuSans-74" x="287.207031"/>
     <use xlink:href="#DejaVuSans-69" x="326.416016"/>
     <use xlink:href="#DejaVuSans-6d" x="354.199219"/>
     <use xlink:href="#DejaVuSans-70" x="451.611328"/>
    </g>
   </g>
  </g>
 </g>
 <defs>
  <clipPath id="p44078cd6c7">
   <rect x="57.6" y="41.472" width="357.12" height="57.850435"/>
  </clipPath>
  <clipPath id="pdbfea36e38">
   <rect x="57.6" y="110.892522" width="357.12" height="57.850435"/>
  </clipPath>
  <clipPath id="pc425b31923">
   <rect x="57.6" y="180.313043" width="357.12" height="57.850435"/>
  </clipPath>
  <clipPath id="pe5713f053e">
   <rect x="57.6" y="249.733565" width="357.12" height="57.850435"/>
  </clipPath>
 </defs>
</svg>
