<?xml version="1.0" encoding="utf-8" standalone="no"?>
<!DOCTYPE svg PUBLIC "-//W3C//DTD SVG 1.1//EN"
  "http://www.w3.org/Graphics/SVG/1.1/DTD/svg11.dtd">
<svg xmlns:xlink="http://www.w3.org/1999/xlink" width="460.8pt" height="345.6pt" viewBox="0 0 460.8 345.6" xmlns="http://www.w3.org/2000/svg" version="1.1">
 <metadata>
  <rdf:RDF xmlns:dc="http://purl.org/dc/elements/1.1/" xmlns:cc="http://creativecommons.org/ns#" xmlns:rdf="http://www.w3.org/1999/02/22-rdf-syntax-ns#">
   <cc:Work>
    <dc:type rdf:resource="http://purl.org/dc/dcmitype/StillImage"/>
    <dc:date>2024-11-27T23:44:17.885526</dc:date>
    <dc:format>image/svg+xml</dc:format>
    <dc:creator>
     <cc:Agent>
      <dc:title>Matplotlib v3.9.2, https://matplotlib.org/</dc:title>
     </cc:Agent>
    </dc:creator>
   </cc:Work>
  </rdf:RDF>
 </metadata>
 <defs>
  <style type="text/css">*{stroke-linejoin: round; stroke-linecap: butt}</style>
 </defs>
 <g id="figure_1">
  <g id="patch_1">
   <path d="M 0 345.6 
L 460.8 345.6 
L 460.8 0 
L 0 0 
z
" style="fill: #ffffff"/>
  </g>
  <g id="axes_1">
   <g id="patch_2">
    <path d="M 57.6 99.322435 
L 414.72 99.322435 
L 414.72 41.472 
L 57.6 41.472 
z
" style="fill: #ffffff"/>
   </g>
   <g id="matplotlib.axis_1">
    <g id="xtick_1">
     <g id="line2d_1">
      <defs>
       <path id="m1e774e6a60" d="M 0 0 
L 0 3.5 
" style="stroke: #000000; stroke-width: 0.8"/>
      </defs>
      <g>
       <use xlink:href="#m1e774e6a60" x="73.832727" y="99.322435" style="stroke: #000000; stroke-width: 0.8"/>
      </g>
     </g>
     <g id="text_1">
      <!-- 0 -->
      <g transform="translate(70.651477 113.920872) scale(0.1 -0.1)">
       <defs>
        <path id="DejaVuSans-30" d="M 2034 4250 
Q 1547 4250 1301 3770 
Q 1056 3291 1056 2328 
Q 1056 1369 1301 889 
Q 1547 409 2034 409 
Q 2525 409 2770 889 
Q 3016 1369 3016 2328 
Q 3016 3291 2770 3770 
Q 2525 4250 2034 4250 
z
M 2034 4750 
Q 2819 4750 3233 4129 
Q 3647 3509 3647 2328 
Q 3647 1150 3233 529 
Q 2819 -91 2034 -91 
Q 1250 -91 836 529 
Q 422 1150 422 2328 
Q 422 3509 836 4129 
Q 1250 4750 2034 4750 
z
" transform="scale(0.015625)"/>
       </defs>
       <use xlink:href="#DejaVuSans-30"/>
      </g>
     </g>
    </g>
    <g id="xtick_2">
     <g id="line2d_2">
      <g>
       <use xlink:href="#m1e774e6a60" x="138.828632" y="99.322435" style="stroke: #000000; stroke-width: 0.8"/>
      </g>
     </g>
     <g id="text_2">
      <!-- 200 -->
      <g transform="translate(129.284882 113.920872) scale(0.1 -0.1)">
       <defs>
        <path id="DejaVuSans-32" d="M 1228 531 
L 3431 531 
L 3431 0 
L 469 0 
L 469 531 
Q 828 903 1448 1529 
Q 2069 2156 2228 2338 
Q 2531 2678 2651 2914 
Q 2772 3150 2772 3378 
Q 2772 3750 2511 3984 
Q 2250 4219 1831 4219 
Q 1534 4219 1204 4116 
Q 875 4013 500 3803 
L 500 4441 
Q 881 4594 1212 4672 
Q 1544 4750 1819 4750 
Q 2544 4750 2975 4387 
Q 3406 4025 3406 3419 
Q 3406 3131 3298 2873 
Q 3191 2616 2906 2266 
Q 2828 2175 2409 1742 
Q 1991 1309 1228 531 
z
" transform="scale(0.015625)"/>
       </defs>
       <use xlink:href="#DejaVuSans-32"/>
       <use xlink:href="#DejaVuSans-30" x="63.623047"/>
       <use xlink:href="#DejaVuSans-30" x="127.246094"/>
      </g>
     </g>
    </g>
    <g id="xtick_3">
     <g id="line2d_3">
      <g>
       <use xlink:href="#m1e774e6a60" x="203.824537" y="99.322435" style="stroke: #000000; stroke-width: 0.8"/>
      </g>
     </g>
     <g id="text_3">
      <!-- 400 -->
      <g transform="translate(194.280787 113.920872) scale(0.1 -0.1)">
       <defs>
        <path id="DejaVuSans-34" d="M 2419 4116 
L 825 1625 
L 2419 1625 
L 2419 4116 
z
M 2253 4666 
L 3047 4666 
L 3047 1625 
L 3713 1625 
L 3713 1100 
L 3047 1100 
L 3047 0 
L 2419 0 
L 2419 1100 
L 313 1100 
L 313 1709 
L 2253 4666 
z
" transform="scale(0.015625)"/>
       </defs>
       <use xlink:href="#DejaVuSans-34"/>
       <use xlink:href="#DejaVuSans-30" x="63.623047"/>
       <use xlink:href="#DejaVuSans-30" x="127.246094"/>
      </g>
     </g>
    </g>
    <g id="xtick_4">
     <g id="line2d_4">
      <g>
       <use xlink:href="#m1e774e6a60" x="268.820442" y="99.322435" style="stroke: #000000; stroke-width: 0.8"/>
      </g>
     </g>
     <g id="text_4">
      <!-- 600 -->
      <g transform="translate(259.276692 113.920872) scale(0.1 -0.1)">
       <defs>
        <path id="DejaVuSans-36" d="M 2113 2584 
Q 1688 2584 1439 2293 
Q 1191 2003 1191 1497 
Q 1191 994 1439 701 
Q 1688 409 2113 409 
Q 2538 409 2786 701 
Q 3034 994 3034 1497 
Q 3034 2003 2786 2293 
Q 2538 2584 2113 2584 
z
M 3366 4563 
L 3366 3988 
Q 3128 4100 2886 4159 
Q 2644 4219 2406 4219 
Q 1781 4219 1451 3797 
Q 1122 3375 1075 2522 
Q 1259 2794 1537 2939 
Q 1816 3084 2150 3084 
Q 2853 3084 3261 2657 
Q 3669 2231 3669 1497 
Q 3669 778 3244 343 
Q 2819 -91 2113 -91 
Q 1303 -91 875 529 
Q 447 1150 447 2328 
Q 447 3434 972 4092 
Q 1497 4750 2381 4750 
Q 2619 4750 2861 4703 
Q 3103 4656 3366 4563 
z
" transform="scale(0.015625)"/>
       </defs>
       <use xlink:href="#DejaVuSans-36"/>
       <use xlink:href="#DejaVuSans-30" x="63.623047"/>
       <use xlink:href="#DejaVuSans-30" x="127.246094"/>
      </g>
     </g>
    </g>
    <g id="xtick_5">
     <g id="line2d_5">
      <g>
       <use xlink:href="#m1e774e6a60" x="333.816347" y="99.322435" style="stroke: #000000; stroke-width: 0.8"/>
      </g>
     </g>
     <g id="text_5">
      <!-- 800 -->
      <g transform="translate(324.272597 113.920872) scale(0.1 -0.1)">
       <defs>
        <path id="DejaVuSans-38" d="M 2034 2216 
Q 1584 2216 1326 1975 
Q 1069 1734 1069 1313 
Q 1069 891 1326 650 
Q 1584 409 2034 409 
Q 2484 409 2743 651 
Q 3003 894 3003 1313 
Q 3003 1734 2745 1975 
Q 2488 2216 2034 2216 
z
M 1403 2484 
Q 997 2584 770 2862 
Q 544 3141 544 3541 
Q 544 4100 942 4425 
Q 1341 4750 2034 4750 
Q 2731 4750 3128 4425 
Q 3525 4100 3525 3541 
Q 3525 3141 3298 2862 
Q 3072 2584 2669 2484 
Q 3125 2378 3379 2068 
Q 3634 1759 3634 1313 
Q 3634 634 3220 271 
Q 2806 -91 2034 -91 
Q 1263 -91 848 271 
Q 434 634 434 1313 
Q 434 1759 690 2068 
Q 947 2378 1403 2484 
z
M 1172 3481 
Q 1172 3119 1398 2916 
Q 1625 2713 2034 2713 
Q 2441 2713 2670 2916 
Q 2900 3119 2900 3481 
Q 2900 3844 2670 4047 
Q 2441 4250 2034 4250 
Q 1625 4250 1398 4047 
Q 1172 3844 1172 3481 
z
" transform="scale(0.015625)"/>
       </defs>
       <use xlink:href="#DejaVuSans-38"/>
       <use xlink:href="#DejaVuSans-30" x="63.623047"/>
       <use xlink:href="#DejaVuSans-30" x="127.246094"/>
      </g>
     </g>
    </g>
    <g id="xtick_6">
     <g id="line2d_6">
      <g>
       <use xlink:href="#m1e774e6a60" x="398.812252" y="99.322435" style="stroke: #000000; stroke-width: 0.8"/>
      </g>
     </g>
     <g id="text_6">
      <!-- 1000 -->
      <g transform="translate(386.087252 113.920872) scale(0.1 -0.1)">
       <defs>
        <path id="DejaVuSans-31" d="M 794 531 
L 1825 531 
L 1825 4091 
L 703 3866 
L 703 4441 
L 1819 4666 
L 2450 4666 
L 2450 531 
L 3481 531 
L 3481 0 
L 794 0 
L 794 531 
z
" transform="scale(0.015625)"/>
       </defs>
       <use xlink:href="#DejaVuSans-31"/>
       <use xlink:href="#DejaVuSans-30" x="63.623047"/>
       <use xlink:href="#DejaVuSans-30" x="127.246094"/>
       <use xlink:href="#DejaVuSans-30" x="190.869141"/>
      </g>
     </g>
    </g>
   </g>
   <g id="matplotlib.axis_2">
    <g id="ytick_1">
     <g id="line2d_7">
      <defs>
       <path id="m3d1dd5a56a" d="M 0 0 
L -3.5 0 
" style="stroke: #000000; stroke-width: 0.8"/>
      </defs>
      <g>
       <use xlink:href="#m3d1dd5a56a" x="57.6" y="79.162435" style="stroke: #000000; stroke-width: 0.8"/>
      </g>
     </g>
     <g id="text_7">
      <!-- 2 -->
      <g transform="translate(44.2375 82.961654) scale(0.1 -0.1)">
       <use xlink:href="#DejaVuSans-32"/>
      </g>
     </g>
    </g>
    <g id="ytick_2">
     <g id="line2d_8">
      <g>
       <use xlink:href="#m3d1dd5a56a" x="57.6" y="44.101565" style="stroke: #000000; stroke-width: 0.8"/>
      </g>
     </g>
     <g id="text_8">
      <!-- 4 -->
      <g transform="translate(44.2375 47.900784) scale(0.1 -0.1)">
       <use xlink:href="#DejaVuSans-34"/>
      </g>
     </g>
    </g>
   </g>
   <g id="line2d_9">
    <path d="M 73.832727 96.69287 
L 99.831089 93.772773 
L 125.829451 90.627837 
L 151.827813 87.258062 
L 177.826175 83.663448 
L 203.824537 79.843996 
L 229.822899 75.799704 
L 255.821261 71.530573 
L 281.819623 67.036603 
L 307.817985 62.317794 
L 333.816347 57.374146 
L 359.814709 52.205659 
L 385.813071 46.812333 
L 398.487273 44.101565 
L 398.487273 44.101565 
" clip-path="url(#p04ea017509)" style="fill: none; stroke: #1f77b4; stroke-width: 1.5; stroke-linecap: square"/>
   </g>
   <g id="patch_3">
    <path d="M 57.6 99.322435 
L 57.6 41.472 
" style="fill: none; stroke: #000000; stroke-width: 0.8; stroke-linejoin: miter; stroke-linecap: square"/>
   </g>
   <g id="patch_4">
    <path d="M 414.72 99.322435 
L 414.72 41.472 
" style="fill: none; stroke: #000000; stroke-width: 0.8; stroke-linejoin: miter; stroke-linecap: square"/>
   </g>
   <g id="patch_5">
    <path d="M 57.6 99.322435 
L 414.72 99.322435 
" style="fill: none; stroke: #000000; stroke-width: 0.8; stroke-linejoin: miter; stroke-linecap: square"/>
   </g>
   <g id="patch_6">
    <path d="M 57.6 41.472 
L 414.72 41.472 
" style="fill: none; stroke: #000000; stroke-width: 0.8; stroke-linejoin: miter; stroke-linecap: square"/>
   </g>
   <g id="text_9">
    <!-- Ecuatie grad 2 -->
    <g transform="translate(192.486562 35.472) scale(0.12 -0.12)">
     <defs>
      <path id="DejaVuSans-45" d="M 628 4666 
L 3578 4666 
L 3578 4134 
L 1259 4134 
L 1259 2753 
L 3481 2753 
L 3481 2222 
L 1259 2222 
L 1259 531 
L 3634 531 
L 3634 0 
L 628 0 
L 628 4666 
z
" transform="scale(0.015625)"/>
      <path id="DejaVuSans-63" d="M 3122 3366 
L 3122 2828 
Q 2878 2963 2633 3030 
Q 2388 3097 2138 3097 
Q 1578 3097 1268 2742 
Q 959 2388 959 1747 
Q 959 1106 1268 751 
Q 1578 397 2138 397 
Q 2388 397 2633 464 
Q 2878 531 3122 666 
L 3122 134 
Q 2881 22 2623 -34 
Q 2366 -91 2075 -91 
Q 1284 -91 818 406 
Q 353 903 353 1747 
Q 353 2603 823 3093 
Q 1294 3584 2113 3584 
Q 2378 3584 2631 3529 
Q 2884 3475 3122 3366 
z
" transform="scale(0.015625)"/>
      <path id="DejaVuSans-75" d="M 544 1381 
L 544 3500 
L 1119 3500 
L 1119 1403 
Q 1119 906 1312 657 
Q 1506 409 1894 409 
Q 2359 409 2629 706 
Q 2900 1003 2900 1516 
L 2900 3500 
L 3475 3500 
L 3475 0 
L 2900 0 
L 2900 538 
Q 2691 219 2414 64 
Q 2138 -91 1772 -91 
Q 1169 -91 856 284 
Q 544 659 544 1381 
z
M 1991 3584 
L 1991 3584 
z
" transform="scale(0.015625)"/>
      <path id="DejaVuSans-61" d="M 2194 1759 
Q 1497 1759 1228 1600 
Q 959 1441 959 1056 
Q 959 750 1161 570 
Q 1363 391 1709 391 
Q 2188 391 2477 730 
Q 2766 1069 2766 1631 
L 2766 1759 
L 2194 1759 
z
M 3341 1997 
L 3341 0 
L 2766 0 
L 2766 531 
Q 2569 213 2275 61 
Q 1981 -91 1556 -91 
Q 1019 -91 701 211 
Q 384 513 384 1019 
Q 384 1609 779 1909 
Q 1175 2209 1959 2209 
L 2766 2209 
L 2766 2266 
Q 2766 2663 2505 2880 
Q 2244 3097 1772 3097 
Q 1472 3097 1187 3025 
Q 903 2953 641 2809 
L 641 3341 
Q 956 3463 1253 3523 
Q 1550 3584 1831 3584 
Q 2591 3584 2966 3190 
Q 3341 2797 3341 1997 
z
" transform="scale(0.015625)"/>
      <path id="DejaVuSans-74" d="M 1172 4494 
L 1172 3500 
L 2356 3500 
L 2356 3053 
L 1172 3053 
L 1172 1153 
Q 1172 725 1289 603 
Q 1406 481 1766 481 
L 2356 481 
L 2356 0 
L 1766 0 
Q 1100 0 847 248 
Q 594 497 594 1153 
L 594 3053 
L 172 3053 
L 172 3500 
L 594 3500 
L 594 4494 
L 1172 4494 
z
" transform="scale(0.015625)"/>
      <path id="DejaVuSans-69" d="M 603 3500 
L 1178 3500 
L 1178 0 
L 603 0 
L 603 3500 
z
M 603 4863 
L 1178 4863 
L 1178 4134 
L 603 4134 
L 603 4863 
z
" transform="scale(0.015625)"/>
      <path id="DejaVuSans-65" d="M 3597 1894 
L 3597 1613 
L 953 1613 
Q 991 1019 1311 708 
Q 1631 397 2203 397 
Q 2534 397 2845 478 
Q 3156 559 3463 722 
L 3463 178 
Q 3153 47 2828 -22 
Q 2503 -91 2169 -91 
Q 1331 -91 842 396 
Q 353 884 353 1716 
Q 353 2575 817 3079 
Q 1281 3584 2069 3584 
Q 2775 3584 3186 3129 
Q 3597 2675 3597 1894 
z
M 3022 2063 
Q 3016 2534 2758 2815 
Q 2500 3097 2075 3097 
Q 1594 3097 1305 2825 
Q 1016 2553 972 2059 
L 3022 2063 
z
" transform="scale(0.015625)"/>
      <path id="DejaVuSans-20" transform="scale(0.015625)"/>
      <path id="DejaVuSans-67" d="M 2906 1791 
Q 2906 2416 2648 2759 
Q 2391 3103 1925 3103 
Q 1463 3103 1205 2759 
Q 947 2416 947 1791 
Q 947 1169 1205 825 
Q 1463 481 1925 481 
Q 2391 481 2648 825 
Q 2906 1169 2906 1791 
z
M 3481 434 
Q 3481 -459 3084 -895 
Q 2688 -1331 1869 -1331 
Q 1566 -1331 1297 -1286 
Q 1028 -1241 775 -1147 
L 775 -588 
Q 1028 -725 1275 -790 
Q 1522 -856 1778 -856 
Q 2344 -856 2625 -561 
Q 2906 -266 2906 331 
L 2906 616 
Q 2728 306 2450 153 
Q 2172 0 1784 0 
Q 1141 0 747 490 
Q 353 981 353 1791 
Q 353 2603 747 3093 
Q 1141 3584 1784 3584 
Q 2172 3584 2450 3431 
Q 2728 3278 2906 2969 
L 2906 3500 
L 3481 3500 
L 3481 434 
z
" transform="scale(0.015625)"/>
      <path id="DejaVuSans-72" d="M 2631 2963 
Q 2534 3019 2420 3045 
Q 2306 3072 2169 3072 
Q 1681 3072 1420 2755 
Q 1159 2438 1159 1844 
L 1159 0 
L 581 0 
L 581 3500 
L 1159 3500 
L 1159 2956 
Q 1341 3275 1631 3429 
Q 1922 3584 2338 3584 
Q 2397 3584 2469 3576 
Q 2541 3569 2628 3553 
L 2631 2963 
z
" transform="scale(0.015625)"/>
      <path id="DejaVuSans-64" d="M 2906 2969 
L 2906 4863 
L 3481 4863 
L 3481 0 
L 2906 0 
L 2906 525 
Q 2725 213 2448 61 
Q 2172 -91 1784 -91 
Q 1150 -91 751 415 
Q 353 922 353 1747 
Q 353 2572 751 3078 
Q 1150 3584 1784 3584 
Q 2172 3584 2448 3432 
Q 2725 3281 2906 2969 
z
M 947 1747 
Q 947 1113 1208 752 
Q 1469 391 1925 391 
Q 2381 391 2643 752 
Q 2906 1113 2906 1747 
Q 2906 2381 2643 2742 
Q 2381 3103 1925 3103 
Q 1469 3103 1208 2742 
Q 947 2381 947 1747 
z
" transform="scale(0.015625)"/>
     </defs>
     <use xlink:href="#DejaVuSans-45"/>
     <use xlink:href="#DejaVuSans-63" x="63.183594"/>
     <use xlink:href="#DejaVuSans-75" x="118.164062"/>
     <use xlink:href="#DejaVuSans-61" x="181.542969"/>
     <use xlink:href="#DejaVuSans-74" x="242.822266"/>
     <use xlink:href="#DejaVuSans-69" x="282.03125"/>
     <use xlink:href="#DejaVuSans-65" x="309.814453"/>
     <use xlink:href="#DejaVuSans-20" x="371.337891"/>
     <use xlink:href="#DejaVuSans-67" x="403.125"/>
     <use xlink:href="#DejaVuSans-72" x="466.601562"/>
     <use xlink:href="#DejaVuSans-61" x="507.714844"/>
     <use xlink:href="#DejaVuSans-64" x="568.994141"/>
     <use xlink:href="#DejaVuSans-20" x="632.470703"/>
     <use xlink:href="#DejaVuSans-32" x="664.257812"/>
    </g>
   </g>
  </g>
  <g id="axes_2">
   <g id="patch_7">
    <path d="M 57.6 168.742957 
L 414.72 168.742957 
L 414.72 110.892522 
L 57.6 110.892522 
z
" style="fill: #ffffff"/>
   </g>
   <g id="matplotlib.axis_3">
    <g id="xtick_7">
     <g id="line2d_10">
      <g>
       <use xlink:href="#m1e774e6a60" x="73.832727" y="168.742957" style="stroke: #000000; stroke-width: 0.8"/>
      </g>
     </g>
     <g id="text_10">
      <!-- 0 -->
      <g transform="translate(70.651477 183.341394) scale(0.1 -0.1)">
       <use xlink:href="#DejaVuSans-30"/>
      </g>
     </g>
    </g>
    <g id="xtick_8">
     <g id="line2d_11">
      <g>
       <use xlink:href="#m1e774e6a60" x="138.828632" y="168.742957" style="stroke: #000000; stroke-width: 0.8"/>
      </g>
     </g>
     <g id="text_11">
      <!-- 200 -->
      <g transform="translate(129.284882 183.341394) scale(0.1 -0.1)">
       <use xlink:href="#DejaVuSans-32"/>
       <use xlink:href="#DejaVuSans-30" x="63.623047"/>
       <use xlink:href="#DejaVuSans-30" x="127.246094"/>
      </g>
     </g>
    </g>
    <g id="xtick_9">
     <g id="line2d_12">
      <g>
       <use xlink:href="#m1e774e6a60" x="203.824537" y="168.742957" style="stroke: #000000; stroke-width: 0.8"/>
      </g>
     </g>
     <g id="text_12">
      <!-- 400 -->
      <g transform="translate(194.280787 183.341394) scale(0.1 -0.1)">
       <use xlink:href="#DejaVuSans-34"/>
       <use xlink:href="#DejaVuSans-30" x="63.623047"/>
       <use xlink:href="#DejaVuSans-30" x="127.246094"/>
      </g>
     </g>
    </g>
    <g id="xtick_10">
     <g id="line2d_13">
      <g>
       <use xlink:href="#m1e774e6a60" x="268.820442" y="168.742957" style="stroke: #000000; stroke-width: 0.8"/>
      </g>
     </g>
     <g id="text_13">
      <!-- 600 -->
      <g transform="translate(259.276692 183.341394) scale(0.1 -0.1)">
       <use xlink:href="#DejaVuSans-36"/>
       <use xlink:href="#DejaVuSans-30" x="63.623047"/>
       <use xlink:href="#DejaVuSans-30" x="127.246094"/>
      </g>
     </g>
    </g>
    <g id="xtick_11">
     <g id="line2d_14">
      <g>
       <use xlink:href="#m1e774e6a60" x="333.816347" y="168.742957" style="stroke: #000000; stroke-width: 0.8"/>
      </g>
     </g>
     <g id="text_14">
      <!-- 800 -->
      <g transform="translate(324.272597 183.341394) scale(0.1 -0.1)">
       <use xlink:href="#DejaVuSans-38"/>
       <use xlink:href="#DejaVuSans-30" x="63.623047"/>
       <use xlink:href="#DejaVuSans-30" x="127.246094"/>
      </g>
     </g>
    </g>
    <g id="xtick_12">
     <g id="line2d_15">
      <g>
       <use xlink:href="#m1e774e6a60" x="398.812252" y="168.742957" style="stroke: #000000; stroke-width: 0.8"/>
      </g>
     </g>
     <g id="text_15">
      <!-- 1000 -->
      <g transform="translate(386.087252 183.341394) scale(0.1 -0.1)">
       <use xlink:href="#DejaVuSans-31"/>
       <use xlink:href="#DejaVuSans-30" x="63.623047"/>
       <use xlink:href="#DejaVuSans-30" x="127.246094"/>
       <use xlink:href="#DejaVuSans-30" x="190.869141"/>
      </g>
     </g>
    </g>
   </g>
   <g id="matplotlib.axis_4">
    <g id="ytick_3">
     <g id="line2d_16">
      <g>
       <use xlink:href="#m3d1dd5a56a" x="57.6" y="166.164053" style="stroke: #000000; stroke-width: 0.8"/>
      </g>
     </g>
     <g id="text_16">
      <!-- 0.0 -->
      <g transform="translate(34.696875 169.963272) scale(0.1 -0.1)">
       <defs>
        <path id="DejaVuSans-2e" d="M 684 794 
L 1344 794 
L 1344 0 
L 684 0 
L 684 794 
z
" transform="scale(0.015625)"/>
       </defs>
       <use xlink:href="#DejaVuSans-30"/>
       <use xlink:href="#DejaVuSans-2e" x="63.623047"/>
       <use xlink:href="#DejaVuSans-30" x="95.410156"/>
      </g>
     </g>
    </g>
    <g id="ytick_4">
     <g id="line2d_17">
      <g>
       <use xlink:href="#m3d1dd5a56a" x="57.6" y="113.5192" style="stroke: #000000; stroke-width: 0.8"/>
      </g>
     </g>
     <g id="text_17">
      <!-- 0.1 -->
      <g transform="translate(34.696875 117.318418) scale(0.1 -0.1)">
       <use xlink:href="#DejaVuSans-30"/>
       <use xlink:href="#DejaVuSans-2e" x="63.623047"/>
       <use xlink:href="#DejaVuSans-31" x="95.410156"/>
      </g>
     </g>
    </g>
   </g>
   <g id="line2d_18">
    <path d="M 73.832727 122.466652 
L 74.482686 148.808207 
L 74.807666 126.699292 
L 75.132645 118.617933 
L 75.782604 139.810808 
L 76.107584 136.150385 
L 76.432563 124.33373 
L 76.757543 148.947701 
L 77.082523 157.918249 
L 77.407502 144.703191 
L 77.732482 162.1382 
L 78.057461 151.711853 
L 78.382441 162.377899 
L 78.70742 131.581106 
L 79.0324 151.837913 
L 79.357379 133.414195 
L 79.682359 140.447693 
L 80.007338 153.65563 
L 80.657297 143.124287 
L 80.982277 158.198375 
L 81.307256 137.826817 
L 81.632236 132.997759 
L 81.957215 149.609024 
L 82.282195 153.363886 
L 82.607174 165.850637 
L 82.932154 120.895456 
L 83.257133 152.324635 
L 83.582113 148.153252 
L 83.907093 162.68781 
L 84.557052 121.700974 
L 84.882031 148.062769 
L 85.207011 138.715205 
L 85.53199 133.668783 
L 85.85697 124.148 
L 86.181949 153.219109 
L 86.831908 113.971493 
L 87.156888 138.244645 
L 87.806847 149.42483 
L 88.131826 148.833308 
L 88.456806 150.610329 
L 88.781785 129.095988 
L 89.106765 158.916664 
L 89.431744 125.531134 
L 89.756724 161.737998 
L 90.081704 145.321955 
L 90.406683 122.40322 
L 90.731663 116.017962 
L 91.056642 149.557887 
L 91.381622 113.979456 
L 91.706601 156.441273 
L 92.031581 163.185006 
L 92.35656 118.405835 
L 92.68154 153.330582 
L 93.331499 131.894827 
L 93.656478 127.939673 
L 93.981458 160.209626 
L 94.306437 151.835403 
L 94.631417 133.510421 
L 94.956396 123.196584 
L 95.281376 130.737024 
L 95.606355 155.355214 
L 95.931335 117.98745 
L 96.256314 141.545536 
L 96.581294 118.921578 
L 96.906274 163.830834 
L 97.231253 147.094741 
L 97.556233 138.432398 
L 97.881212 153.431032 
L 98.206192 121.68744 
L 98.531171 115.101935 
L 98.856151 125.783453 
L 99.18113 142.101715 
L 99.50611 147.731762 
L 99.831089 156.792464 
L 100.156069 116.170966 
L 100.481048 145.690004 
L 100.806028 130.219346 
L 101.131007 129.776666 
L 101.455987 139.82321 
L 101.780966 128.43016 
L 102.430925 154.092402 
L 103.080885 117.784487 
L 103.405864 155.351528 
L 103.730844 116.56987 
L 104.055823 147.696581 
L 104.380803 136.036915 
L 104.705782 158.982894 
L 105.030762 147.548656 
L 105.355741 125.338078 
L 105.680721 133.728892 
L 106.0057 157.383532 
L 106.33068 133.287055 
L 106.655659 132.789405 
L 106.980639 135.398795 
L 107.305618 156.15386 
L 107.630598 133.498396 
L 107.955577 150.558376 
L 108.280557 149.192436 
L 108.605536 121.569713 
L 108.930516 132.394535 
L 109.255495 161.120793 
L 109.580475 147.471338 
L 109.905455 118.908537 
L 110.230434 151.644903 
L 110.555414 163.824511 
L 111.205373 116.599643 
L 111.530352 145.25346 
L 111.855332 124.707105 
L 112.180311 123.205024 
L 112.505291 162.170976 
L 112.83027 135.927792 
L 113.15525 136.466827 
L 113.480229 141.577286 
L 113.805209 140.525974 
L 114.130188 123.951081 
L 114.455168 153.68754 
L 114.780147 120.94459 
L 115.105127 124.419643 
L 115.430106 122.653363 
L 115.755086 157.938502 
L 116.080066 154.254554 
L 116.405045 132.88493 
L 116.730025 164.998884 
L 117.055004 147.448192 
L 117.379984 119.595786 
L 117.704963 151.693664 
L 118.029943 145.895231 
L 118.354922 145.004036 
L 118.679902 160.200645 
L 119.004881 114.052179 
L 119.329861 141.13647 
L 119.65484 158.426951 
L 119.97982 135.189554 
L 120.304799 153.258531 
L 120.629779 125.592515 
L 120.954758 159.313866 
L 121.279738 122.973886 
L 121.604717 157.312758 
L 121.929697 130.666131 
L 122.254676 128.124768 
L 122.579656 159.331859 
L 122.904636 163.23819 
L 123.229615 154.906558 
L 123.554595 121.7475 
L 123.879574 153.326728 
L 124.529533 137.391752 
L 124.854513 114.840499 
L 125.179492 136.813246 
L 125.504472 134.739527 
L 125.829451 137.880515 
L 126.154431 155.67162 
L 126.47941 122.796195 
L 126.80439 136.746447 
L 127.129369 158.360642 
L 127.454349 127.49299 
L 127.779328 118.176754 
L 128.104308 150.51071 
L 128.429287 144.58564 
L 128.754267 162.156416 
L 129.079247 142.476171 
L 129.404226 149.261931 
L 129.729206 123.775161 
L 130.054185 127.985987 
L 130.379165 154.514023 
L 130.704144 124.360507 
L 131.029124 132.205232 
L 131.354103 116.913053 
L 131.679083 161.452356 
L 132.004062 131.549985 
L 132.329042 130.142984 
L 132.654021 164.902317 
L 132.979001 132.869668 
L 133.30398 139.211578 
L 133.62896 123.683419 
L 134.278919 150.122972 
L 134.603898 149.858473 
L 134.928878 114.678444 
L 135.253857 136.305495 
L 135.578837 127.49839 
L 135.903817 151.097498 
L 136.228796 148.442634 
L 136.878755 145.594976 
L 137.203735 141.818638 
L 137.528714 162.998196 
L 137.853694 123.860039 
L 138.178673 148.631821 
L 138.503653 148.507865 
L 138.828632 130.440642 
L 139.153612 119.80213 
L 139.478591 125.439484 
L 139.803571 160.708163 
L 140.12855 148.67251 
L 140.45353 126.69262 
L 140.778509 125.201737 
L 141.103489 120.119013 
L 141.428468 148.651558 
L 141.753448 128.642645 
L 142.078428 124.367817 
L 142.403407 123.469481 
L 142.728387 113.563009 
L 143.053366 126.513878 
L 143.378346 163.964573 
L 143.703325 158.113081 
L 144.028305 115.663232 
L 144.678264 165.392638 
L 145.003243 149.564553 
L 145.328223 119.232176 
L 145.653202 145.331464 
L 145.978182 139.996749 
L 146.303161 149.582784 
L 146.95312 115.679937 
L 147.2781 127.629659 
L 147.603079 164.448865 
L 148.578018 133.022856 
L 148.902998 129.542809 
L 149.227977 157.644723 
L 149.552957 119.109368 
L 149.877936 121.456916 
L 150.202916 133.776248 
L 150.527895 163.321681 
L 150.852875 133.918418 
L 151.177854 163.623466 
L 151.502834 157.329573 
L 151.827813 164.236812 
L 152.152793 116.468359 
L 152.477772 159.647909 
L 152.802752 157.361485 
L 153.452711 144.518002 
L 153.77769 164.960278 
L 154.10267 130.779763 
L 154.427649 141.182058 
L 154.752629 120.227974 
L 155.077609 164.918986 
L 155.402588 133.15384 
L 155.727568 152.607928 
L 156.052547 124.017504 
L 156.377527 125.57372 
L 156.702506 147.724134 
L 157.027486 144.118995 
L 157.352465 130.307886 
L 157.677445 124.047016 
L 158.002424 130.489077 
L 158.327404 141.747013 
L 158.977363 152.735665 
L 159.302342 122.772779 
L 159.627322 161.877303 
L 160.277281 129.272562 
L 160.60226 154.769986 
L 160.92724 146.790816 
L 161.252219 129.126668 
L 161.577199 136.121491 
L 161.902179 125.084529 
L 162.227158 140.687635 
L 162.552138 143.210223 
L 162.877117 149.172126 
L 163.202097 123.731285 
L 163.527076 145.166789 
L 163.852056 143.967424 
L 164.177035 151.226518 
L 164.502015 120.683317 
L 164.826994 157.414626 
L 165.151974 115.984884 
L 165.476953 158.820414 
L 165.801933 158.50991 
L 166.126912 150.156257 
L 166.451892 117.280305 
L 166.776871 148.161504 
L 167.101851 154.786082 
L 167.42683 120.02525 
L 167.75181 122.33888 
L 168.07679 156.700213 
L 168.401769 124.5488 
L 168.726749 146.265363 
L 169.051728 159.007835 
L 169.376708 139.976951 
L 169.701687 155.980427 
L 170.026667 119.560045 
L 170.351646 117.660886 
L 170.676626 135.385287 
L 171.001605 143.655222 
L 171.326585 116.539618 
L 171.651564 162.672638 
L 171.976544 158.132106 
L 172.301523 129.695323 
L 172.626503 114.498236 
L 172.951482 157.342007 
L 173.276462 120.612723 
L 173.601441 116.594123 
L 173.926421 161.785239 
L 174.2514 140.524342 
L 174.57638 161.539899 
L 174.90136 153.822581 
L 175.226339 114.962061 
L 175.551319 137.310097 
L 175.876298 120.888079 
L 176.201278 151.471077 
L 176.526257 146.987103 
L 176.851237 134.3279 
L 177.176216 153.037621 
L 177.501196 162.807721 
L 177.826175 133.418091 
L 178.151155 160.526191 
L 178.476134 145.08523 
L 178.801114 151.646877 
L 179.126093 130.346283 
L 179.451073 157.279276 
L 179.776052 159.942357 
L 180.101032 117.398034 
L 180.426011 113.822179 
L 180.750991 139.677462 
L 181.075971 125.992666 
L 181.40095 156.32532 
L 181.72593 118.318947 
L 182.050909 134.286872 
L 182.375889 129.691562 
L 182.700868 156.996326 
L 183.025848 132.951743 
L 183.350827 137.553469 
L 183.675807 124.250055 
L 184.000786 127.090249 
L 184.325766 118.752934 
L 184.650745 139.904973 
L 184.975725 125.822725 
L 185.300704 160.100997 
L 185.625684 151.404726 
L 185.950663 131.206339 
L 186.275643 123.370377 
L 186.600622 159.999071 
L 186.925602 123.985708 
L 187.250581 138.174688 
L 187.575561 128.669389 
L 187.900541 141.49792 
L 188.5505 122.449165 
L 188.875479 129.904547 
L 189.200459 132.47119 
L 189.525438 149.555146 
L 189.850418 131.674982 
L 190.175397 124.491451 
L 190.500377 143.06388 
L 190.825356 128.779521 
L 191.150336 146.514163 
L 191.475315 154.144079 
L 191.800295 122.443834 
L 192.125274 122.214108 
L 192.450254 157.66827 
L 192.775233 118.268088 
L 193.100213 137.794999 
L 193.425192 127.132469 
L 193.750172 129.949982 
L 194.075152 139.025085 
L 194.400131 138.273344 
L 194.725111 135.789978 
L 195.05009 151.692779 
L 195.37507 115.212766 
L 195.700049 117.476698 
L 196.025029 166.113391 
L 196.350008 146.248059 
L 196.674988 152.673114 
L 196.999967 123.309911 
L 197.649926 146.359188 
L 197.974906 151.643622 
L 198.299885 144.786583 
L 198.624865 124.869615 
L 198.949844 137.422355 
L 199.274824 125.594974 
L 199.599803 128.53923 
L 199.924783 146.734081 
L 200.249762 149.09083 
L 200.899722 124.125101 
L 201.224701 125.455591 
L 201.549681 115.333053 
L 201.87466 141.515937 
L 202.19964 118.711847 
L 202.524619 152.240168 
L 203.174578 132.044655 
L 203.499558 113.628037 
L 203.824537 141.843753 
L 204.149517 132.458563 
L 204.474496 152.576133 
L 204.799476 149.505903 
L 205.124455 133.569555 
L 205.449435 139.957823 
L 205.774414 150.768663 
L 206.099394 129.0707 
L 206.424373 139.984516 
L 206.749353 137.742899 
L 207.399312 127.95547 
L 207.724292 143.781928 
L 208.049271 126.001427 
L 208.374251 130.411947 
L 209.02421 120.216228 
L 209.349189 122.506602 
L 209.674169 147.861939 
L 209.999148 122.096343 
L 210.324128 132.168409 
L 210.649107 131.501434 
L 210.974087 135.978425 
L 211.299066 165.891387 
L 211.624046 126.337878 
L 211.949025 153.113622 
L 212.274005 153.60728 
L 212.598984 155.951044 
L 212.923964 115.02513 
L 213.248943 136.723913 
L 213.898903 151.847613 
L 214.223882 123.5744 
L 214.548862 145.616255 
L 214.873841 118.465872 
L 215.198821 153.70707 
L 215.5238 118.648487 
L 215.84878 156.175825 
L 216.173759 151.31683 
L 216.498739 163.181633 
L 216.823718 153.363855 
L 217.148698 129.168063 
L 217.473677 145.494147 
L 217.798657 153.555672 
L 218.123636 120.341289 
L 218.448616 157.36432 
L 218.773595 136.864067 
L 219.098575 151.683028 
L 219.423554 133.081708 
L 219.748534 135.520091 
L 220.073514 126.48324 
L 220.398493 156.687199 
L 221.048452 128.419274 
L 221.373432 135.387775 
L 221.698411 153.234894 
L 222.023391 118.353951 
L 222.67335 126.312353 
L 222.998329 165.973681 
L 223.323309 134.050634 
L 223.648288 164.97535 
L 223.973268 133.068742 
L 224.298247 152.220022 
L 224.623227 155.311183 
L 224.948206 134.757715 
L 225.273186 154.70933 
L 225.598165 130.293823 
L 225.923145 122.486475 
L 226.248124 154.495756 
L 226.573104 151.646731 
L 226.898084 154.186168 
L 227.223063 114.24725 
L 227.548043 137.738695 
L 227.873022 130.305275 
L 228.198002 165.201225 
L 228.522981 127.464211 
L 228.847961 165.986689 
L 229.17294 165.204292 
L 229.49792 119.331585 
L 229.822899 117.732445 
L 230.147879 147.690953 
L 230.472858 123.063515 
L 230.797838 155.195607 
L 231.122817 156.377859 
L 231.447797 163.284185 
L 231.772776 144.366152 
L 232.097756 159.987171 
L 232.422735 133.12494 
L 232.747715 148.770127 
L 233.072695 124.631048 
L 233.397674 162.876643 
L 233.722654 156.641908 
L 234.047633 161.88268 
L 234.372613 144.860861 
L 234.697592 146.334287 
L 235.022572 129.502597 
L 235.347551 153.576504 
L 235.672531 142.199751 
L 235.99751 148.388326 
L 236.32249 146.091769 
L 236.972449 114.609443 
L 237.297428 121.102767 
L 237.622408 154.657304 
L 237.947387 129.852667 
L 238.272367 140.335744 
L 238.597346 142.350038 
L 238.922326 131.838047 
L 239.247305 158.600939 
L 239.572285 165.026164 
L 239.897265 163.835447 
L 240.222244 150.810663 
L 240.547224 152.804456 
L 240.872203 127.786797 
L 241.197183 119.616816 
L 241.847142 158.774405 
L 242.172121 120.176529 
L 242.82208 135.747443 
L 243.14706 152.216668 
L 243.472039 145.757925 
L 243.797019 143.454424 
L 244.121998 119.475906 
L 244.446978 156.926309 
L 244.771957 149.365608 
L 245.096937 157.62126 
L 245.421916 162.8885 
L 245.746896 127.001666 
L 246.071876 146.266132 
L 246.396855 150.953954 
L 246.721835 121.872926 
L 247.046814 141.37632 
L 247.696773 124.917502 
L 248.021753 164.846092 
L 248.671712 132.423793 
L 248.996691 165.10967 
L 249.321671 146.190492 
L 249.64665 162.436945 
L 249.97163 157.537932 
L 250.296609 133.150817 
L 250.621589 139.11202 
L 250.946568 120.104491 
L 251.271548 132.086878 
L 251.596527 138.546531 
L 251.921507 165.803114 
L 252.246486 149.440609 
L 252.571466 142.769743 
L 252.896446 120.91837 
L 253.221425 153.735726 
L 253.546405 137.387138 
L 253.871384 156.749914 
L 254.521343 117.159518 
L 254.846323 128.933645 
L 255.171302 163.586508 
L 255.496282 152.445838 
L 255.821261 136.459313 
L 256.146241 155.272761 
L 256.47122 150.026037 
L 256.7962 117.289825 
L 257.121179 144.109912 
L 257.446159 160.211969 
L 257.771138 113.522087 
L 258.746077 155.109182 
L 259.071057 156.279833 
L 259.396036 125.186751 
L 259.721016 117.098366 
L 260.045995 122.480708 
L 260.370975 115.14468 
L 260.695954 129.87967 
L 261.020934 126.864744 
L 261.345913 141.97967 
L 261.670893 149.996216 
L 261.995872 134.290778 
L 262.320852 136.742419 
L 262.645831 158.906533 
L 262.970811 133.298967 
L 263.29579 160.090033 
L 263.62077 126.061228 
L 263.945749 158.494347 
L 264.270729 162.36032 
L 264.595708 126.184174 
L 264.920688 121.086816 
L 265.245667 134.831556 
L 265.570647 121.337152 
L 265.895627 124.172101 
L 266.220606 150.837378 
L 266.545586 140.008314 
L 266.870565 159.687271 
L 267.195545 153.992275 
L 267.520524 162.269679 
L 267.845504 141.501298 
L 268.170483 145.841977 
L 268.495463 166.001545 
L 268.820442 121.558292 
L 269.145422 119.575282 
L 269.470401 157.970231 
L 269.795381 130.695878 
L 270.12036 135.255081 
L 270.44534 156.220349 
L 270.770319 152.271991 
L 271.095299 113.53735 
L 271.745258 163.414792 
L 272.395217 119.583196 
L 272.720197 161.011494 
L 273.045176 122.880002 
L 273.370156 163.673915 
L 273.695135 135.891538 
L 274.020115 122.168353 
L 274.345094 159.502704 
L 274.670074 126.009531 
L 275.320033 131.486045 
L 275.645012 146.084687 
L 275.969992 145.343287 
L 276.294971 159.302397 
L 276.619951 118.1837 
L 276.94493 160.611763 
L 277.26991 157.676921 
L 277.594889 124.252427 
L 277.919869 159.628516 
L 278.244848 146.822926 
L 278.569828 156.834039 
L 278.894808 120.1581 
L 279.219787 165.655332 
L 279.544767 155.811859 
L 279.869746 116.27209 
L 280.194726 150.859473 
L 280.519705 155.388935 
L 280.844685 115.628022 
L 281.169664 117.297921 
L 281.494644 143.240709 
L 281.819623 159.31635 
L 282.144603 160.496845 
L 282.469582 151.608585 
L 282.794562 118.421059 
L 283.119541 153.223509 
L 283.444521 121.635926 
L 283.7695 139.633875 
L 284.09448 118.330858 
L 284.419459 160.397828 
L 284.744439 147.105679 
L 285.069419 157.776894 
L 285.394398 147.535419 
L 285.719378 132.687471 
L 286.044357 141.699035 
L 286.369337 142.327211 
L 286.694316 165.79053 
L 287.344275 153.52766 
L 287.994234 126.761296 
L 288.319214 160.722329 
L 288.644193 132.534106 
L 288.969173 147.539616 
L 289.294152 133.134832 
L 289.619132 125.968137 
L 289.944111 132.630868 
L 290.269091 116.227283 
L 290.59407 142.092893 
L 290.91905 129.455251 
L 291.244029 132.187533 
L 291.569009 123.83282 
L 291.893989 152.433947 
L 292.218968 115.192973 
L 292.543948 134.000852 
L 292.868927 115.80123 
L 293.193907 150.40912 
L 293.518886 165.151508 
L 293.843866 143.86284 
L 294.168845 148.327431 
L 294.493825 114.855669 
L 294.818804 159.701663 
L 295.143784 147.009013 
L 295.468763 146.378441 
L 295.793743 163.506464 
L 296.118722 151.265936 
L 296.443702 153.241737 
L 296.768681 125.134822 
L 297.093661 165.688085 
L 297.41864 131.718615 
L 297.74362 116.633933 
L 298.0686 125.035368 
L 298.393579 165.2258 
L 298.718559 163.431766 
L 299.043538 152.611223 
L 299.368518 151.486729 
L 299.693497 147.204464 
L 300.018477 126.542692 
L 300.343456 134.628112 
L 300.668436 135.468342 
L 300.993415 142.825681 
L 301.318395 133.081069 
L 301.643374 160.73604 
L 301.968354 139.547543 
L 302.293333 140.175088 
L 302.618313 137.992002 
L 302.943292 161.340923 
L 303.268272 134.299446 
L 303.593251 141.440768 
L 304.24321 117.30378 
L 304.56819 115.478034 
L 304.89317 165.96424 
L 305.218149 161.643599 
L 305.543129 116.50186 
L 305.868108 123.605295 
L 306.518067 142.189405 
L 306.843047 134.58025 
L 307.168026 147.989865 
L 307.493006 130.345416 
L 307.817985 129.149589 
L 308.142965 133.95131 
L 308.467944 147.883376 
L 308.792924 143.497709 
L 309.117903 153.919111 
L 309.442883 130.48747 
L 309.767862 148.963889 
L 310.092842 124.256815 
L 310.417821 123.860151 
L 310.742801 152.462499 
L 311.067781 117.514831 
L 311.39276 137.066921 
L 311.71774 144.856136 
L 312.042719 166.103234 
L 312.367699 148.504841 
L 312.692678 154.443881 
L 313.017658 124.761968 
L 313.342637 154.1667 
L 313.667617 149.969583 
L 313.992596 143.165815 
L 314.642555 121.794441 
L 314.967535 158.558212 
L 315.292514 135.829934 
L 315.617494 131.393122 
L 315.942473 123.778367 
L 316.267453 159.99804 
L 316.592432 136.20529 
L 316.917412 121.809274 
L 317.242391 157.807834 
L 317.567371 113.686719 
L 317.892351 142.145612 
L 318.21733 149.419395 
L 318.54231 145.655868 
L 318.867289 162.065717 
L 319.192269 163.999456 
L 319.517248 123.309786 
L 319.842228 128.360764 
L 320.167207 142.836777 
L 320.817166 123.864087 
L 321.142146 148.358499 
L 321.467125 119.124873 
L 321.792105 160.985819 
L 322.117084 136.484742 
L 322.442064 130.63409 
L 322.767043 154.835206 
L 323.092023 132.126313 
L 323.417002 134.087727 
L 323.741982 165.284309 
L 324.066962 164.381357 
L 324.391941 123.341302 
L 325.0419 150.15566 
L 325.36688 144.950952 
L 325.691859 153.768741 
L 326.016839 123.348091 
L 326.341818 162.939552 
L 327.316757 124.804491 
L 327.641736 127.413465 
L 327.966716 140.253121 
L 328.291695 118.480918 
L 328.616675 150.782717 
L 328.941654 146.064819 
L 329.266634 123.15889 
L 329.591613 129.909187 
L 329.916593 114.938577 
L 330.241572 119.795394 
L 330.566552 145.300293 
L 330.891532 116.792716 
L 331.216511 151.397752 
L 331.541491 148.510308 
L 332.19145 162.149352 
L 332.516429 164.095133 
L 332.841409 119.016481 
L 333.166388 143.991937 
L 333.491368 117.084523 
L 333.816347 154.045189 
L 334.141327 135.108854 
L 334.466306 128.784225 
L 334.791286 150.83351 
L 335.116265 118.007448 
L 335.441245 156.773672 
L 335.766224 116.498399 
L 336.091204 127.996424 
L 336.416183 124.353351 
L 336.741163 164.190972 
L 337.066143 140.329745 
L 337.391122 135.551435 
L 337.716102 141.442315 
L 338.041081 126.816177 
L 338.366061 153.441162 
L 338.69104 135.544688 
L 339.01602 156.005266 
L 339.340999 164.833681 
L 339.665979 160.142492 
L 339.990958 122.422089 
L 340.315938 140.492421 
L 340.640917 136.317365 
L 340.965897 158.219309 
L 341.290876 137.830557 
L 341.615856 138.663278 
L 341.940835 128.167493 
L 342.265815 162.330926 
L 342.590794 133.535873 
L 342.915774 133.823239 
L 343.240753 119.306761 
L 343.565733 130.927806 
L 343.890713 159.610605 
L 344.540672 134.352655 
L 344.865651 161.541391 
L 345.190631 128.355918 
L 345.51561 132.891267 
L 345.84059 143.740238 
L 346.165569 162.56612 
L 346.490549 126.114615 
L 346.815528 150.290404 
L 347.140508 113.709084 
L 347.465487 129.716865 
L 347.790467 165.047382 
L 348.115446 149.122135 
L 348.440426 166.099452 
L 348.765405 123.733608 
L 349.090385 149.21663 
L 349.415364 153.274651 
L 349.740344 138.130147 
L 350.065324 117.647807 
L 350.390303 158.504451 
L 350.715283 147.292426 
L 351.040262 120.779361 
L 351.365242 154.346941 
L 351.690221 156.91696 
L 352.015201 134.36958 
L 352.34018 151.010656 
L 352.66516 149.680232 
L 352.990139 124.391717 
L 353.315119 163.644641 
L 353.640098 128.771056 
L 353.965078 158.677469 
L 354.290057 114.113923 
L 354.615037 141.891962 
L 354.940016 125.522388 
L 355.264996 118.349277 
L 355.589975 150.053713 
L 355.914955 137.335187 
L 356.239934 163.527628 
L 356.564914 115.071032 
L 356.889894 150.001505 
L 357.214873 129.488804 
L 357.539853 129.298581 
L 357.864832 145.657595 
L 358.189812 135.556507 
L 358.514791 130.403982 
L 358.839771 117.189302 
L 359.16475 138.981613 
L 359.48973 125.144946 
L 359.814709 134.649186 
L 360.139689 153.005238 
L 360.464668 150.077014 
L 360.789648 138.548258 
L 361.114627 160.495256 
L 361.439607 119.231632 
L 361.764586 141.535404 
L 362.089566 116.950229 
L 362.414545 158.174838 
L 362.739525 141.752246 
L 363.064505 161.133452 
L 363.389484 157.629366 
L 363.714464 115.012432 
L 364.364423 126.258352 
L 364.689402 138.167293 
L 365.014382 116.02717 
L 365.339361 131.231238 
L 365.664341 165.800399 
L 365.98932 162.793171 
L 366.3143 154.98091 
L 366.964259 115.392658 
L 367.614218 146.272867 
L 367.939197 134.580366 
L 368.264177 127.071173 
L 368.589156 150.525895 
L 368.914136 163.647796 
L 369.239115 145.658503 
L 369.564095 135.921965 
L 369.889075 163.255455 
L 370.214054 125.41598 
L 370.539034 130.010025 
L 370.864013 117.193206 
L 371.188993 131.777045 
L 371.513972 159.448283 
L 371.838952 165.461918 
L 372.163931 122.507976 
L 372.488911 148.36865 
L 372.81389 123.435965 
L 373.13887 115.35632 
L 373.463849 143.180242 
L 373.788829 124.023025 
L 374.113808 152.143881 
L 374.438788 139.699155 
L 374.763767 134.840934 
L 375.088747 124.509463 
L 375.413726 148.705072 
L 375.738706 123.835089 
L 376.063686 124.523336 
L 376.388665 142.37584 
L 376.713645 116.492552 
L 377.038624 113.623827 
L 377.363604 138.196664 
L 377.688583 154.228645 
L 378.013563 113.571627 
L 378.338542 160.319389 
L 378.663522 126.397716 
L 378.988501 159.736228 
L 379.313481 133.922902 
L 379.63846 122.311498 
L 379.96344 147.957039 
L 380.288419 154.409574 
L 380.613399 131.7135 
L 380.938378 132.458386 
L 381.263358 142.189178 
L 381.588337 139.161514 
L 381.913317 117.822749 
L 382.238296 163.200659 
L 382.563276 155.268176 
L 382.888256 118.856688 
L 383.213235 139.249449 
L 383.538215 125.977464 
L 383.863194 136.234272 
L 384.188174 118.26515 
L 384.513153 118.004068 
L 384.838133 148.409662 
L 385.163112 126.451779 
L 385.488092 157.919341 
L 385.813071 145.47018 
L 386.138051 164.733065 
L 386.46303 130.75605 
L 386.78801 148.15142 
L 387.112989 143.33163 
L 387.437969 134.615569 
L 387.762948 165.182694 
L 388.087928 163.023747 
L 388.412907 125.072606 
L 388.737887 157.965423 
L 389.062867 129.327358 
L 389.387846 136.437493 
L 389.712826 114.70652 
L 390.037805 142.03193 
L 390.362785 132.08597 
L 391.012744 162.31835 
L 391.337723 117.404402 
L 391.662703 155.933829 
L 391.987682 123.96249 
L 392.312662 156.290324 
L 392.637641 165.204891 
L 392.962621 160.560843 
L 393.2876 125.609792 
L 393.61258 161.549774 
L 393.937559 140.298306 
L 394.262539 157.317971 
L 394.587518 130.085975 
L 394.912498 147.785129 
L 395.237477 153.70967 
L 395.887437 122.377172 
L 396.212416 136.793818 
L 396.537396 143.818589 
L 396.862375 140.153756 
L 397.512334 120.671442 
L 397.837314 128.47848 
L 398.162293 158.441641 
L 398.487273 160.018678 
L 398.487273 160.018678 
" clip-path="url(#p5c3b022e6a)" style="fill: none; stroke: #1f77b4; stroke-width: 1.5; stroke-linecap: square"/>
   </g>
   <g id="patch_8">
    <path d="M 57.6 168.742957 
L 57.6 110.892522 
" style="fill: none; stroke: #000000; stroke-width: 0.8; stroke-linejoin: miter; stroke-linecap: square"/>
   </g>
   <g id="patch_9">
    <path d="M 414.72 168.742957 
L 414.72 110.892522 
" style="fill: none; stroke: #000000; stroke-width: 0.8; stroke-linejoin: miter; stroke-linecap: square"/>
   </g>
   <g id="patch_10">
    <path d="M 57.6 168.742957 
L 414.72 168.742957 
" style="fill: none; stroke: #000000; stroke-width: 0.8; stroke-linejoin: miter; stroke-linecap: square"/>
   </g>
   <g id="patch_11">
    <path d="M 57.6 110.892522 
L 414.72 110.892522 
" style="fill: none; stroke: #000000; stroke-width: 0.8; stroke-linejoin: miter; stroke-linecap: square"/>
   </g>
   <g id="text_18">
    <!-- Zgomot -->
    <g transform="translate(212.701875 104.892522) scale(0.12 -0.12)">
     <defs>
      <path id="DejaVuSans-5a" d="M 359 4666 
L 4025 4666 
L 4025 4184 
L 1075 531 
L 4097 531 
L 4097 0 
L 288 0 
L 288 481 
L 3238 4134 
L 359 4134 
L 359 4666 
z
" transform="scale(0.015625)"/>
      <path id="DejaVuSans-6f" d="M 1959 3097 
Q 1497 3097 1228 2736 
Q 959 2375 959 1747 
Q 959 1119 1226 758 
Q 1494 397 1959 397 
Q 2419 397 2687 759 
Q 2956 1122 2956 1747 
Q 2956 2369 2687 2733 
Q 2419 3097 1959 3097 
z
M 1959 3584 
Q 2709 3584 3137 3096 
Q 3566 2609 3566 1747 
Q 3566 888 3137 398 
Q 2709 -91 1959 -91 
Q 1206 -91 779 398 
Q 353 888 353 1747 
Q 353 2609 779 3096 
Q 1206 3584 1959 3584 
z
" transform="scale(0.015625)"/>
      <path id="DejaVuSans-6d" d="M 3328 2828 
Q 3544 3216 3844 3400 
Q 4144 3584 4550 3584 
Q 5097 3584 5394 3201 
Q 5691 2819 5691 2113 
L 5691 0 
L 5113 0 
L 5113 2094 
Q 5113 2597 4934 2840 
Q 4756 3084 4391 3084 
Q 3944 3084 3684 2787 
Q 3425 2491 3425 1978 
L 3425 0 
L 2847 0 
L 2847 2094 
Q 2847 2600 2669 2842 
Q 2491 3084 2119 3084 
Q 1678 3084 1418 2786 
Q 1159 2488 1159 1978 
L 1159 0 
L 581 0 
L 581 3500 
L 1159 3500 
L 1159 2956 
Q 1356 3278 1631 3431 
Q 1906 3584 2284 3584 
Q 2666 3584 2933 3390 
Q 3200 3197 3328 2828 
z
" transform="scale(0.015625)"/>
     </defs>
     <use xlink:href="#DejaVuSans-5a"/>
     <use xlink:href="#DejaVuSans-67" x="68.505859"/>
     <use xlink:href="#DejaVuSans-6f" x="131.982422"/>
     <use xlink:href="#DejaVuSans-6d" x="193.164062"/>
     <use xlink:href="#DejaVuSans-6f" x="290.576172"/>
     <use xlink:href="#DejaVuSans-74" x="351.757812"/>
    </g>
   </g>
  </g>
  <g id="axes_3">
   <g id="patch_12">
    <path d="M 57.6 238.163478 
L 414.72 238.163478 
L 414.72 180.313043 
L 57.6 180.313043 
z
" style="fill: #ffffff"/>
   </g>
   <g id="matplotlib.axis_5">
    <g id="xtick_13">
     <g id="line2d_19">
      <g>
       <use xlink:href="#m1e774e6a60" x="73.832727" y="238.163478" style="stroke: #000000; stroke-width: 0.8"/>
      </g>
     </g>
     <g id="text_19">
      <!-- 0 -->
      <g transform="translate(70.651477 252.761916) scale(0.1 -0.1)">
       <use xlink:href="#DejaVuSans-30"/>
      </g>
     </g>
    </g>
    <g id="xtick_14">
     <g id="line2d_20">
      <g>
       <use xlink:href="#m1e774e6a60" x="138.828632" y="238.163478" style="stroke: #000000; stroke-width: 0.8"/>
      </g>
     </g>
     <g id="text_20">
      <!-- 200 -->
      <g transform="translate(129.284882 252.761916) scale(0.1 -0.1)">
       <use xlink:href="#DejaVuSans-32"/>
       <use xlink:href="#DejaVuSans-30" x="63.623047"/>
       <use xlink:href="#DejaVuSans-30" x="127.246094"/>
      </g>
     </g>
    </g>
    <g id="xtick_15">
     <g id="line2d_21">
      <g>
       <use xlink:href="#m1e774e6a60" x="203.824537" y="238.163478" style="stroke: #000000; stroke-width: 0.8"/>
      </g>
     </g>
     <g id="text_21">
      <!-- 400 -->
      <g transform="translate(194.280787 252.761916) scale(0.1 -0.1)">
       <use xlink:href="#DejaVuSans-34"/>
       <use xlink:href="#DejaVuSans-30" x="63.623047"/>
       <use xlink:href="#DejaVuSans-30" x="127.246094"/>
      </g>
     </g>
    </g>
    <g id="xtick_16">
     <g id="line2d_22">
      <g>
       <use xlink:href="#m1e774e6a60" x="268.820442" y="238.163478" style="stroke: #000000; stroke-width: 0.8"/>
      </g>
     </g>
     <g id="text_22">
      <!-- 600 -->
      <g transform="translate(259.276692 252.761916) scale(0.1 -0.1)">
       <use xlink:href="#DejaVuSans-36"/>
       <use xlink:href="#DejaVuSans-30" x="63.623047"/>
       <use xlink:href="#DejaVuSans-30" x="127.246094"/>
      </g>
     </g>
    </g>
    <g id="xtick_17">
     <g id="line2d_23">
      <g>
       <use xlink:href="#m1e774e6a60" x="333.816347" y="238.163478" style="stroke: #000000; stroke-width: 0.8"/>
      </g>
     </g>
     <g id="text_23">
      <!-- 800 -->
      <g transform="translate(324.272597 252.761916) scale(0.1 -0.1)">
       <use xlink:href="#DejaVuSans-38"/>
       <use xlink:href="#DejaVuSans-30" x="63.623047"/>
       <use xlink:href="#DejaVuSans-30" x="127.246094"/>
      </g>
     </g>
    </g>
    <g id="xtick_18">
     <g id="line2d_24">
      <g>
       <use xlink:href="#m1e774e6a60" x="398.812252" y="238.163478" style="stroke: #000000; stroke-width: 0.8"/>
      </g>
     </g>
     <g id="text_24">
      <!-- 1000 -->
      <g transform="translate(386.087252 252.761916) scale(0.1 -0.1)">
       <use xlink:href="#DejaVuSans-31"/>
       <use xlink:href="#DejaVuSans-30" x="63.623047"/>
       <use xlink:href="#DejaVuSans-30" x="127.246094"/>
       <use xlink:href="#DejaVuSans-30" x="190.869141"/>
      </g>
     </g>
    </g>
   </g>
   <g id="matplotlib.axis_6">
    <g id="ytick_5">
     <g id="line2d_25">
      <g>
       <use xlink:href="#m3d1dd5a56a" x="57.6" y="233.267406" style="stroke: #000000; stroke-width: 0.8"/>
      </g>
     </g>
     <g id="text_25">
      <!-- −0.25 -->
      <g transform="translate(19.954687 237.066625) scale(0.1 -0.1)">
       <defs>
        <path id="DejaVuSans-2212" d="M 678 2272 
L 4684 2272 
L 4684 1741 
L 678 1741 
L 678 2272 
z
" transform="scale(0.015625)"/>
        <path id="DejaVuSans-35" d="M 691 4666 
L 3169 4666 
L 3169 4134 
L 1269 4134 
L 1269 2991 
Q 1406 3038 1543 3061 
Q 1681 3084 1819 3084 
Q 2600 3084 3056 2656 
Q 3513 2228 3513 1497 
Q 3513 744 3044 326 
Q 2575 -91 1722 -91 
Q 1428 -91 1123 -41 
Q 819 9 494 109 
L 494 744 
Q 775 591 1075 516 
Q 1375 441 1709 441 
Q 2250 441 2565 725 
Q 2881 1009 2881 1497 
Q 2881 1984 2565 2268 
Q 2250 2553 1709 2553 
Q 1456 2553 1204 2497 
Q 953 2441 691 2322 
L 691 4666 
z
" transform="scale(0.015625)"/>
       </defs>
       <use xlink:href="#DejaVuSans-2212"/>
       <use xlink:href="#DejaVuSans-30" x="83.789062"/>
       <use xlink:href="#DejaVuSans-2e" x="147.412109"/>
       <use xlink:href="#DejaVuSans-32" x="179.199219"/>
       <use xlink:href="#DejaVuSans-35" x="242.822266"/>
      </g>
     </g>
    </g>
    <g id="ytick_6">
     <g id="line2d_26">
      <g>
       <use xlink:href="#m3d1dd5a56a" x="57.6" y="209.238261" style="stroke: #000000; stroke-width: 0.8"/>
      </g>
     </g>
     <g id="text_26">
      <!-- 0.00 -->
      <g transform="translate(28.334375 213.03748) scale(0.1 -0.1)">
       <use xlink:href="#DejaVuSans-30"/>
       <use xlink:href="#DejaVuSans-2e" x="63.623047"/>
       <use xlink:href="#DejaVuSans-30" x="95.410156"/>
       <use xlink:href="#DejaVuSans-30" x="159.033203"/>
      </g>
     </g>
    </g>
    <g id="ytick_7">
     <g id="line2d_27">
      <g>
       <use xlink:href="#m3d1dd5a56a" x="57.6" y="185.209116" style="stroke: #000000; stroke-width: 0.8"/>
      </g>
     </g>
     <g id="text_27">
      <!-- 0.25 -->
      <g transform="translate(28.334375 189.008334) scale(0.1 -0.1)">
       <use xlink:href="#DejaVuSans-30"/>
       <use xlink:href="#DejaVuSans-2e" x="63.623047"/>
       <use xlink:href="#DejaVuSans-32" x="95.410156"/>
       <use xlink:href="#DejaVuSans-35" x="159.033203"/>
      </g>
     </g>
    </g>
   </g>
   <g id="line2d_28">
    <path d="M 73.832727 209.238261 
L 77.732482 198.669883 
L 79.682359 193.959763 
L 81.307256 190.529292 
L 82.932154 187.655404 
L 84.232072 185.811926 
L 85.53199 184.408172 
L 86.506929 183.657539 
L 87.481867 183.172482 
L 88.456806 182.95544 
L 89.431744 183.005631 
L 90.406683 183.319077 
L 91.381622 183.888658 
L 92.35656 184.704219 
L 93.656478 186.151314 
L 94.956396 187.973816 
L 96.581294 190.70905 
L 98.531171 194.522414 
L 101.131007 200.171563 
L 105.680721 210.152474 
L 107.630598 213.914755 
L 109.255495 216.614682 
L 110.555414 218.426787 
L 111.855332 219.891211 
L 113.15525 220.981622 
L 114.130188 221.543352 
L 115.105127 221.88123 
L 116.080066 221.994664 
L 117.055004 221.886139 
L 118.029943 221.561169 
L 119.004881 221.028212 
L 120.304799 220.013959 
L 121.604717 218.684346 
L 123.229615 216.642868 
L 125.179492 213.764265 
L 128.104308 208.966246 
L 131.354103 203.710844 
L 133.30398 200.971574 
L 134.928878 199.090383 
L 136.228796 197.913701 
L 137.528714 197.070396 
L 138.503653 196.675015 
L 139.478591 196.493581 
L 140.45353 196.532602 
L 141.428468 196.795578 
L 142.403407 197.282947 
L 143.378346 197.992065 
L 144.678264 199.272206 
L 145.978182 200.914321 
L 147.2781 202.887647 
L 148.902998 205.759773 
L 150.852875 209.676678 
L 153.77769 216.114587 
L 157.677445 224.622265 
L 159.627322 228.350853 
L 161.252219 230.991129 
L 162.552138 232.723814 
L 163.852056 234.07074 
L 164.826994 234.805618 
L 165.801933 235.290801 
L 166.776871 235.517133 
L 167.75181 235.478532 
L 168.726749 235.172079 
L 169.701687 234.598067 
L 170.676626 233.760007 
L 171.651564 232.664596 
L 172.951482 230.821118 
L 174.2514 228.569405 
L 175.876298 225.242852 
L 177.826175 220.629139 
L 180.426011 213.749354 
L 186.600622 197.03861 
L 188.5505 192.526763 
L 190.175397 189.307978 
L 191.475315 187.154876 
L 192.775233 185.418737 
L 193.750172 184.408172 
L 194.725111 183.657539 
L 195.700049 183.172482 
L 196.674988 182.95544 
L 197.649926 183.005631 
L 198.624865 183.319077 
L 199.599803 183.888658 
L 200.574742 184.704219 
L 201.87466 186.151314 
L 203.174578 187.973816 
L 204.799476 190.70905 
L 206.749353 194.522414 
L 209.349189 200.171563 
L 213.898903 210.152474 
L 215.84878 213.914755 
L 217.473677 216.614682 
L 218.773595 218.426787 
L 220.073514 219.891211 
L 221.373432 220.981622 
L 222.34837 221.543352 
L 223.323309 221.88123 
L 224.298247 221.994664 
L 225.273186 221.886139 
L 226.248124 221.561169 
L 227.223063 221.028212 
L 228.522981 220.013959 
L 229.822899 218.684346 
L 231.447797 216.642868 
L 233.397674 213.764265 
L 236.32249 208.966246 
L 239.572285 203.710844 
L 241.522162 200.971574 
L 243.14706 199.090383 
L 244.446978 197.913701 
L 245.746896 197.070396 
L 246.721835 196.675015 
L 247.696773 196.493581 
L 248.671712 196.532602 
L 249.64665 196.795578 
L 250.621589 197.282947 
L 251.596527 197.992065 
L 252.896446 199.272206 
L 254.196364 200.914321 
L 255.496282 202.887647 
L 257.121179 205.759773 
L 259.071057 209.676678 
L 261.995872 216.114587 
L 265.895627 224.622265 
L 267.845504 228.350853 
L 269.470401 230.991129 
L 270.770319 232.723814 
L 272.070238 234.07074 
L 273.045176 234.805618 
L 274.020115 235.290801 
L 274.995053 235.517133 
L 275.969992 235.478532 
L 276.94493 235.172079 
L 277.919869 234.598067 
L 278.894808 233.760007 
L 279.869746 232.664596 
L 281.169664 230.821118 
L 282.469582 228.569405 
L 284.09448 225.242852 
L 286.044357 220.629139 
L 288.644193 213.749354 
L 294.818804 197.03861 
L 296.768681 192.526763 
L 298.393579 189.307978 
L 299.693497 187.154876 
L 300.993415 185.418737 
L 301.968354 184.408172 
L 302.943292 183.657539 
L 303.918231 183.172482 
L 304.89317 182.95544 
L 305.868108 183.005631 
L 306.843047 183.319077 
L 307.817985 183.888658 
L 308.792924 184.704219 
L 310.092842 186.151314 
L 311.39276 187.973816 
L 313.017658 190.70905 
L 314.967535 194.522414 
L 317.567371 200.171563 
L 322.117084 210.152474 
L 324.066962 213.914755 
L 325.691859 216.614682 
L 326.991777 218.426787 
L 328.291695 219.891211 
L 329.591613 220.981622 
L 330.566552 221.543352 
L 331.541491 221.88123 
L 332.516429 221.994664 
L 333.491368 221.886139 
L 334.466306 221.561169 
L 335.441245 221.028212 
L 336.741163 220.013959 
L 338.041081 218.684346 
L 339.665979 216.642868 
L 341.615856 213.764265 
L 344.540672 208.966246 
L 347.790467 203.710844 
L 349.740344 200.971574 
L 351.365242 199.090383 
L 352.66516 197.913701 
L 353.965078 197.070396 
L 354.940016 196.675015 
L 355.914955 196.493581 
L 356.889894 196.532602 
L 357.864832 196.795578 
L 358.839771 197.282947 
L 359.814709 197.992065 
L 361.114627 199.272206 
L 362.414545 200.914321 
L 363.714464 202.887647 
L 365.339361 205.759773 
L 367.289238 209.676678 
L 370.214054 216.114587 
L 374.113808 224.622265 
L 376.063686 228.350853 
L 377.688583 230.991129 
L 378.988501 232.723814 
L 380.288419 234.07074 
L 381.263358 234.805618 
L 382.238296 235.290801 
L 383.213235 235.517133 
L 384.188174 235.478532 
L 385.163112 235.172079 
L 386.138051 234.598067 
L 387.112989 233.760007 
L 388.087928 232.664596 
L 389.387846 230.821118 
L 390.687764 228.569405 
L 392.312662 225.242852 
L 394.262539 220.629139 
L 396.862375 213.749354 
L 398.487273 209.238261 
L 398.487273 209.238261 
" clip-path="url(#pa83f49b671)" style="fill: none; stroke: #1f77b4; stroke-width: 1.5; stroke-linecap: square"/>
   </g>
   <g id="patch_13">
    <path d="M 57.6 238.163478 
L 57.6 180.313043 
" style="fill: none; stroke: #000000; stroke-width: 0.8; stroke-linejoin: miter; stroke-linecap: square"/>
   </g>
   <g id="patch_14">
    <path d="M 414.72 238.163478 
L 414.72 180.313043 
" style="fill: none; stroke: #000000; stroke-width: 0.8; stroke-linejoin: miter; stroke-linecap: square"/>
   </g>
   <g id="patch_15">
    <path d="M 57.6 238.163478 
L 414.72 238.163478 
" style="fill: none; stroke: #000000; stroke-width: 0.8; stroke-linejoin: miter; stroke-linecap: square"/>
   </g>
   <g id="patch_16">
    <path d="M 57.6 180.313043 
L 414.72 180.313043 
" style="fill: none; stroke: #000000; stroke-width: 0.8; stroke-linejoin: miter; stroke-linecap: square"/>
   </g>
   <g id="text_28">
    <!-- Semnal -->
    <g transform="translate(213.668437 174.313043) scale(0.12 -0.12)">
     <defs>
      <path id="DejaVuSans-53" d="M 3425 4513 
L 3425 3897 
Q 3066 4069 2747 4153 
Q 2428 4238 2131 4238 
Q 1616 4238 1336 4038 
Q 1056 3838 1056 3469 
Q 1056 3159 1242 3001 
Q 1428 2844 1947 2747 
L 2328 2669 
Q 3034 2534 3370 2195 
Q 3706 1856 3706 1288 
Q 3706 609 3251 259 
Q 2797 -91 1919 -91 
Q 1588 -91 1214 -16 
Q 841 59 441 206 
L 441 856 
Q 825 641 1194 531 
Q 1563 422 1919 422 
Q 2459 422 2753 634 
Q 3047 847 3047 1241 
Q 3047 1584 2836 1778 
Q 2625 1972 2144 2069 
L 1759 2144 
Q 1053 2284 737 2584 
Q 422 2884 422 3419 
Q 422 4038 858 4394 
Q 1294 4750 2059 4750 
Q 2388 4750 2728 4690 
Q 3069 4631 3425 4513 
z
" transform="scale(0.015625)"/>
      <path id="DejaVuSans-6e" d="M 3513 2113 
L 3513 0 
L 2938 0 
L 2938 2094 
Q 2938 2591 2744 2837 
Q 2550 3084 2163 3084 
Q 1697 3084 1428 2787 
Q 1159 2491 1159 1978 
L 1159 0 
L 581 0 
L 581 3500 
L 1159 3500 
L 1159 2956 
Q 1366 3272 1645 3428 
Q 1925 3584 2291 3584 
Q 2894 3584 3203 3211 
Q 3513 2838 3513 2113 
z
" transform="scale(0.015625)"/>
      <path id="DejaVuSans-6c" d="M 603 4863 
L 1178 4863 
L 1178 0 
L 603 0 
L 603 4863 
z
" transform="scale(0.015625)"/>
     </defs>
     <use xlink:href="#DejaVuSans-53"/>
     <use xlink:href="#DejaVuSans-65" x="63.476562"/>
     <use xlink:href="#DejaVuSans-6d" x="125"/>
     <use xlink:href="#DejaVuSans-6e" x="222.412109"/>
     <use xlink:href="#DejaVuSans-61" x="285.791016"/>
     <use xlink:href="#DejaVuSans-6c" x="347.070312"/>
    </g>
   </g>
  </g>
  <g id="axes_4">
   <g id="patch_17">
    <path d="M 57.6 307.584 
L 414.72 307.584 
L 414.72 249.733565 
L 57.6 249.733565 
z
" style="fill: #ffffff"/>
   </g>
   <g id="matplotlib.axis_7">
    <g id="xtick_19">
     <g id="line2d_29">
      <g>
       <use xlink:href="#m1e774e6a60" x="73.832727" y="307.584" style="stroke: #000000; stroke-width: 0.8"/>
      </g>
     </g>
     <g id="text_29">
      <!-- 0 -->
      <g transform="translate(70.651477 322.182437) scale(0.1 -0.1)">
       <use xlink:href="#DejaVuSans-30"/>
      </g>
     </g>
    </g>
    <g id="xtick_20">
     <g id="line2d_30">
      <g>
       <use xlink:href="#m1e774e6a60" x="138.828632" y="307.584" style="stroke: #000000; stroke-width: 0.8"/>
      </g>
     </g>
     <g id="text_30">
      <!-- 200 -->
      <g transform="translate(129.284882 322.182437) scale(0.1 -0.1)">
       <use xlink:href="#DejaVuSans-32"/>
       <use xlink:href="#DejaVuSans-30" x="63.623047"/>
       <use xlink:href="#DejaVuSans-30" x="127.246094"/>
      </g>
     </g>
    </g>
    <g id="xtick_21">
     <g id="line2d_31">
      <g>
       <use xlink:href="#m1e774e6a60" x="203.824537" y="307.584" style="stroke: #000000; stroke-width: 0.8"/>
      </g>
     </g>
     <g id="text_31">
      <!-- 400 -->
      <g transform="translate(194.280787 322.182437) scale(0.1 -0.1)">
       <use xlink:href="#DejaVuSans-34"/>
       <use xlink:href="#DejaVuSans-30" x="63.623047"/>
       <use xlink:href="#DejaVuSans-30" x="127.246094"/>
      </g>
     </g>
    </g>
    <g id="xtick_22">
     <g id="line2d_32">
      <g>
       <use xlink:href="#m1e774e6a60" x="268.820442" y="307.584" style="stroke: #000000; stroke-width: 0.8"/>
      </g>
     </g>
     <g id="text_32">
      <!-- 600 -->
      <g transform="translate(259.276692 322.182437) scale(0.1 -0.1)">
       <use xlink:href="#DejaVuSans-36"/>
       <use xlink:href="#DejaVuSans-30" x="63.623047"/>
       <use xlink:href="#DejaVuSans-30" x="127.246094"/>
      </g>
     </g>
    </g>
    <g id="xtick_23">
     <g id="line2d_33">
      <g>
       <use xlink:href="#m1e774e6a60" x="333.816347" y="307.584" style="stroke: #000000; stroke-width: 0.8"/>
      </g>
     </g>
     <g id="text_33">
      <!-- 800 -->
      <g transform="translate(324.272597 322.182437) scale(0.1 -0.1)">
       <use xlink:href="#DejaVuSans-38"/>
       <use xlink:href="#DejaVuSans-30" x="63.623047"/>
       <use xlink:href="#DejaVuSans-30" x="127.246094"/>
      </g>
     </g>
    </g>
    <g id="xtick_24">
     <g id="line2d_34">
      <g>
       <use xlink:href="#m1e774e6a60" x="398.812252" y="307.584" style="stroke: #000000; stroke-width: 0.8"/>
      </g>
     </g>
     <g id="text_34">
      <!-- 1000 -->
      <g transform="translate(386.087252 322.182437) scale(0.1 -0.1)">
       <use xlink:href="#DejaVuSans-31"/>
       <use xlink:href="#DejaVuSans-30" x="63.623047"/>
       <use xlink:href="#DejaVuSans-30" x="127.246094"/>
       <use xlink:href="#DejaVuSans-30" x="190.869141"/>
      </g>
     </g>
    </g>
    <g id="text_35">
     <!-- Ordin esantion -->
     <g transform="translate(199.443594 335.860562) scale(0.1 -0.1)">
      <defs>
       <path id="DejaVuSans-4f" d="M 2522 4238 
Q 1834 4238 1429 3725 
Q 1025 3213 1025 2328 
Q 1025 1447 1429 934 
Q 1834 422 2522 422 
Q 3209 422 3611 934 
Q 4013 1447 4013 2328 
Q 4013 3213 3611 3725 
Q 3209 4238 2522 4238 
z
M 2522 4750 
Q 3503 4750 4090 4092 
Q 4678 3434 4678 2328 
Q 4678 1225 4090 567 
Q 3503 -91 2522 -91 
Q 1538 -91 948 565 
Q 359 1222 359 2328 
Q 359 3434 948 4092 
Q 1538 4750 2522 4750 
z
" transform="scale(0.015625)"/>
       <path id="DejaVuSans-73" d="M 2834 3397 
L 2834 2853 
Q 2591 2978 2328 3040 
Q 2066 3103 1784 3103 
Q 1356 3103 1142 2972 
Q 928 2841 928 2578 
Q 928 2378 1081 2264 
Q 1234 2150 1697 2047 
L 1894 2003 
Q 2506 1872 2764 1633 
Q 3022 1394 3022 966 
Q 3022 478 2636 193 
Q 2250 -91 1575 -91 
Q 1294 -91 989 -36 
Q 684 19 347 128 
L 347 722 
Q 666 556 975 473 
Q 1284 391 1588 391 
Q 1994 391 2212 530 
Q 2431 669 2431 922 
Q 2431 1156 2273 1281 
Q 2116 1406 1581 1522 
L 1381 1569 
Q 847 1681 609 1914 
Q 372 2147 372 2553 
Q 372 3047 722 3315 
Q 1072 3584 1716 3584 
Q 2034 3584 2315 3537 
Q 2597 3491 2834 3397 
z
" transform="scale(0.015625)"/>
      </defs>
      <use xlink:href="#DejaVuSans-4f"/>
      <use xlink:href="#DejaVuSans-72" x="78.710938"/>
      <use xlink:href="#DejaVuSans-64" x="118.074219"/>
      <use xlink:href="#DejaVuSans-69" x="181.550781"/>
      <use xlink:href="#DejaVuSans-6e" x="209.333984"/>
      <use xlink:href="#DejaVuSans-20" x="272.712891"/>
      <use xlink:href="#DejaVuSans-65" x="304.5"/>
      <use xlink:href="#DejaVuSans-73" x="366.023438"/>
      <use xlink:href="#DejaVuSans-61" x="418.123047"/>
      <use xlink:href="#DejaVuSans-6e" x="479.402344"/>
      <use xlink:href="#DejaVuSans-74" x="542.78125"/>
      <use xlink:href="#DejaVuSans-69" x="581.990234"/>
      <use xlink:href="#DejaVuSans-6f" x="609.773438"/>
      <use xlink:href="#DejaVuSans-6e" x="670.955078"/>
     </g>
    </g>
   </g>
   <g id="matplotlib.axis_8">
    <g id="ytick_8">
     <g id="line2d_35">
      <g>
       <use xlink:href="#m3d1dd5a56a" x="57.6" y="301.401721" style="stroke: #000000; stroke-width: 0.8"/>
      </g>
     </g>
     <g id="text_36">
      <!-- 2.5 -->
      <g transform="translate(34.696875 305.20094) scale(0.1 -0.1)">
       <use xlink:href="#DejaVuSans-32"/>
       <use xlink:href="#DejaVuSans-2e" x="63.623047"/>
       <use xlink:href="#DejaVuSans-35" x="95.410156"/>
      </g>
     </g>
    </g>
    <g id="ytick_9">
     <g id="line2d_36">
      <g>
       <use xlink:href="#m3d1dd5a56a" x="57.6" y="279.589618" style="stroke: #000000; stroke-width: 0.8"/>
      </g>
     </g>
     <g id="text_37">
      <!-- 5.0 -->
      <g transform="translate(34.696875 283.388837) scale(0.1 -0.1)">
       <use xlink:href="#DejaVuSans-35"/>
       <use xlink:href="#DejaVuSans-2e" x="63.623047"/>
       <use xlink:href="#DejaVuSans-30" x="95.410156"/>
      </g>
     </g>
    </g>
    <g id="ytick_10">
     <g id="line2d_37">
      <g>
       <use xlink:href="#m3d1dd5a56a" x="57.6" y="257.777515" style="stroke: #000000; stroke-width: 0.8"/>
      </g>
     </g>
     <g id="text_38">
      <!-- 7.5 -->
      <g transform="translate(34.696875 261.576733) scale(0.1 -0.1)">
       <defs>
        <path id="DejaVuSans-37" d="M 525 4666 
L 3525 4666 
L 3525 4397 
L 1831 0 
L 1172 0 
L 2766 4134 
L 525 4134 
L 525 4666 
z
" transform="scale(0.015625)"/>
       </defs>
       <use xlink:href="#DejaVuSans-37"/>
       <use xlink:href="#DejaVuSans-2e" x="63.623047"/>
       <use xlink:href="#DejaVuSans-35" x="95.410156"/>
      </g>
     </g>
    </g>
    <g id="text_39">
     <!-- Valoare -->
     <g transform="translate(28.617187 297.287689) rotate(-90) scale(0.1 -0.1)">
      <defs>
       <path id="DejaVuSans-56" d="M 1831 0 
L 50 4666 
L 709 4666 
L 2188 738 
L 3669 4666 
L 4325 4666 
L 2547 0 
L 1831 0 
z
" transform="scale(0.015625)"/>
      </defs>
      <use xlink:href="#DejaVuSans-56"/>
      <use xlink:href="#DejaVuSans-61" x="60.658203"/>
      <use xlink:href="#DejaVuSans-6c" x="121.9375"/>
      <use xlink:href="#DejaVuSans-6f" x="149.720703"/>
      <use xlink:href="#DejaVuSans-61" x="210.902344"/>
      <use xlink:href="#DejaVuSans-72" x="272.181641"/>
      <use xlink:href="#DejaVuSans-65" x="311.044922"/>
     </g>
    </g>
   </g>
   <g id="line2d_38">
    <path d="M 73.832727 304.315746 
L 74.482686 304.954435 
L 74.807666 304.104593 
L 75.132645 303.719973 
L 75.782604 304.190107 
L 76.107584 303.953404 
L 76.432563 303.447008 
L 76.757543 304.148894 
L 77.082523 304.333108 
L 77.407502 303.782896 
L 77.732482 304.249643 
L 78.057461 303.794018 
L 78.382441 304.038733 
L 78.70742 302.910419 
L 79.0324 303.475713 
L 79.357379 302.760369 
L 79.682359 302.890381 
L 80.007338 303.22668 
L 80.657297 302.679821 
L 80.982277 303.083318 
L 81.307256 302.313858 
L 81.632236 302.06156 
L 81.957215 302.521981 
L 82.282195 302.55838 
L 82.607174 302.886384 
L 82.932154 301.312647 
L 83.257133 302.273034 
L 83.582113 302.055738 
L 83.907093 302.460851 
L 84.557052 300.956312 
L 84.882031 301.76084 
L 85.85697 300.775691 
L 86.181949 301.680318 
L 86.831908 300.269393 
L 87.156888 301.022922 
L 87.806847 301.299443 
L 88.456806 301.255363 
L 88.781785 300.504558 
L 89.106765 301.457958 
L 89.431744 300.318962 
L 89.756724 301.489301 
L 90.731663 299.900051 
L 91.056642 300.992242 
L 91.381622 299.795919 
L 91.706601 301.188769 
L 92.031581 301.400114 
L 92.35656 299.906042 
L 92.68154 301.056156 
L 93.656478 300.205419 
L 93.981458 301.276271 
L 94.306437 301.001967 
L 94.631417 300.399807 
L 94.956396 300.06509 
L 95.281376 300.324008 
L 95.606355 301.150751 
L 95.931335 299.924596 
L 96.256314 300.719507 
L 96.581294 299.985204 
L 96.906274 301.490816 
L 97.231253 300.954504 
L 97.556233 300.687097 
L 97.881212 301.205165 
L 98.206192 300.175035 
L 98.531171 299.979828 
L 98.856151 300.357898 
L 99.18113 300.923659 
L 99.831089 301.462546 
L 100.156069 300.142993 
L 100.481048 301.148806 
L 100.806028 300.663782 
L 101.131007 300.677175 
L 101.455987 301.03845 
L 101.780966 300.689199 
L 102.430925 301.596526 
L 103.080885 300.449115 
L 103.405864 301.721856 
L 103.730844 300.463496 
L 104.055823 301.521788 
L 104.380803 301.161257 
L 104.705782 301.947055 
L 105.030762 301.592487 
L 105.355741 300.879844 
L 105.680721 301.180548 
L 106.0057 301.986138 
L 106.33068 301.207839 
L 106.980639 301.314942 
L 107.305618 302.019443 
L 107.630598 301.283626 
L 107.955577 301.862718 
L 108.280557 301.829496 
L 108.605536 300.924332 
L 108.930516 301.291857 
L 109.255495 302.250988 
L 109.580475 301.80372 
L 109.905455 300.860267 
L 110.230434 301.946721 
L 110.555414 302.349833 
L 111.205373 300.777254 
L 111.530352 301.720263 
L 111.855332 301.030354 
L 112.180311 300.969526 
L 112.505291 302.247863 
L 112.83027 301.362559 
L 113.15525 301.36274 
L 113.480229 301.512188 
L 113.805209 301.455124 
L 114.130188 300.881229 
L 114.455168 301.840076 
L 114.780147 300.725679 
L 115.105127 300.809461 
L 115.430106 300.717214 
L 115.755086 301.850778 
L 116.080066 301.690384 
L 116.405045 300.941503 
L 116.730025 301.963131 
L 117.055004 301.33633 
L 117.379984 300.365848 
L 117.704963 301.380286 
L 118.029943 301.136444 
L 118.354922 301.053123 
L 118.679902 301.500949 
L 119.004881 299.913367 
L 119.329861 300.75114 
L 119.65484 301.26231 
L 119.97982 300.428211 
L 120.304799 300.961375 
L 120.629779 299.976778 
L 120.954758 301.025156 
L 121.279738 299.749565 
L 121.604717 300.815044 
L 121.929697 299.857504 
L 122.254676 299.697432 
L 122.579656 300.654529 
L 122.904636 300.705325 
L 123.229615 300.349164 
L 123.554595 299.168829 
L 123.879574 300.133143 
L 124.529533 299.436941 
L 124.854513 298.604006 
L 125.179492 299.246015 
L 125.504472 299.090209 
L 125.829451 299.106566 
L 126.154431 299.607915 
L 126.47941 298.429355 
L 126.80439 298.802452 
L 127.129369 299.429237 
L 127.454349 298.316202 
L 127.779328 297.917345 
L 128.104308 298.898947 
L 128.429287 298.612423 
L 128.754267 299.10479 
L 129.079247 298.362618 
L 129.404226 298.497961 
L 129.729206 297.563956 
L 130.054185 297.614753 
L 130.379165 298.405808 
L 130.704144 297.318709 
L 131.029124 297.4918 
L 131.354103 296.898776 
L 131.679083 298.289791 
L 132.004062 297.214303 
L 132.329042 297.084345 
L 132.654021 298.154256 
L 132.979001 297.011451 
L 133.30398 297.141858 
L 133.62896 296.548678 
L 134.278919 297.272311 
L 134.603898 297.189426 
L 134.928878 295.950814 
L 135.253857 296.596776 
L 135.578837 296.235668 
L 135.903817 296.950455 
L 137.203735 296.391765 
L 137.528714 297.035874 
L 137.853694 295.68272 
L 138.178673 296.449991 
L 138.503653 296.394164 
L 138.828632 295.745715 
L 139.153612 295.345647 
L 139.478591 295.487233 
L 139.803571 296.61317 
L 140.12855 296.173362 
L 140.45353 295.40616 
L 140.778509 295.320313 
L 141.103489 295.117642 
L 141.428468 296.031416 
L 141.753448 295.338464 
L 142.728387 294.762739 
L 143.053366 295.171106 
L 143.378346 296.393715 
L 143.703325 296.183173 
L 144.028305 294.761662 
L 144.678264 296.387302 
L 145.003243 295.854368 
L 145.328223 294.842659 
L 145.653202 295.703377 
L 145.978182 295.524079 
L 146.303161 295.841192 
L 146.95312 294.721531 
L 147.2781 295.122215 
L 147.603079 296.34885 
L 148.578018 295.33499 
L 148.902998 295.231717 
L 149.227977 296.17655 
L 149.552957 294.913835 
L 149.877936 295.007365 
L 150.202916 295.432479 
L 150.527895 296.429549 
L 150.852875 295.4736 
L 151.177854 296.477671 
L 151.502834 296.289248 
L 151.827813 296.539031 
L 152.152793 294.977085 
L 152.477772 296.430169 
L 153.127731 296.212811 
L 153.452711 295.996112 
L 153.77769 296.696492 
L 154.10267 295.586349 
L 154.427649 295.953862 
L 154.752629 295.281854 
L 155.077609 296.785445 
L 155.402588 295.754449 
L 155.727568 296.420704 
L 156.052547 295.493918 
L 156.377527 295.565725 
L 156.702506 296.319407 
L 157.027486 296.218561 
L 157.352465 295.778504 
L 157.677445 295.587693 
L 158.002424 295.816831 
L 158.327404 296.204405 
L 158.977363 296.593557 
L 159.302342 295.61074 
L 159.627322 296.915706 
L 160.277281 295.847703 
L 160.60226 296.696595 
L 160.92724 296.434036 
L 161.252219 295.848552 
L 161.577199 296.078439 
L 161.902179 295.708602 
L 162.227158 296.219671 
L 162.877117 296.48211 
L 163.202097 295.626056 
L 163.527076 296.321431 
L 163.852056 296.264164 
L 164.177035 296.484828 
L 164.502015 295.450018 
L 164.826994 296.642573 
L 165.151974 295.241844 
L 165.476953 296.631585 
L 165.801933 296.588585 
L 166.126912 296.276338 
L 166.451892 295.148603 
L 166.776871 296.131472 
L 167.101851 296.307621 
L 167.42683 295.109284 
L 167.75181 295.137086 
L 168.07679 296.224404 
L 168.401769 295.104347 
L 168.726749 295.767058 
L 169.051728 296.129578 
L 169.376708 295.43621 
L 169.701687 295.901376 
L 170.026667 294.626198 
L 170.351646 294.49258 
L 170.676626 295.006747 
L 171.001605 295.204902 
L 171.326585 294.227564 
L 171.651564 295.675557 
L 171.976544 295.441389 
L 172.301523 294.41266 
L 172.626503 293.820325 
L 172.951482 295.149409 
L 173.276462 293.838606 
L 173.601441 293.609731 
L 173.926421 295.009717 
L 174.2514 294.204894 
L 174.57638 294.799243 
L 174.90136 294.439148 
L 175.226339 293.044786 
L 175.551319 293.677321 
L 175.876298 293.022931 
L 176.201278 293.924794 
L 176.526257 293.662626 
L 176.851237 293.127863 
L 177.176216 293.631316 
L 177.501196 293.837003 
L 177.826175 292.743331 
L 178.151155 293.521054 
L 178.476134 292.887252 
L 178.801114 292.981649 
L 179.126093 292.151514 
L 179.451073 292.919216 
L 179.776052 292.881646 
L 180.101032 291.344905 
L 180.426011 291.099187 
L 180.750991 291.828464 
L 181.075971 291.246712 
L 181.40095 292.123631 
L 181.72593 290.735148 
L 182.050909 291.135564 
L 182.375889 290.854356 
L 182.700868 291.630573 
L 183.025848 290.704928 
L 183.350827 290.729057 
L 183.675807 290.160063 
L 184.000786 290.126627 
L 184.325766 289.723258 
L 184.650745 290.298 
L 184.975725 289.705615 
L 185.300704 290.717034 
L 185.625684 290.304957 
L 185.950663 289.512661 
L 186.275643 289.131253 
L 186.600622 290.224883 
L 186.925602 288.912015 
L 187.250581 289.26454 
L 187.575561 288.833161 
L 187.900541 289.143611 
L 188.5505 288.287654 
L 188.875479 288.425123 
L 189.200459 288.402404 
L 189.525438 288.8628 
L 189.850418 288.166266 
L 190.175397 287.826338 
L 190.500377 288.342237 
L 190.825356 287.771239 
L 191.150336 288.263777 
L 191.475315 288.423668 
L 191.800295 287.282255 
L 192.125274 287.186345 
L 192.450254 288.27564 
L 192.775233 286.886273 
L 193.100213 287.452606 
L 193.425192 287.020813 
L 193.750172 287.038392 
L 194.075152 287.265975 
L 194.725111 287.020156 
L 195.05009 287.481938 
L 195.37507 286.210096 
L 195.700049 286.225127 
L 196.025029 287.779903 
L 196.350008 287.066779 
L 196.674988 287.227747 
L 196.999967 286.205138 
L 197.649926 286.878406 
L 197.974906 287.012144 
L 198.299885 286.746042 
L 198.624865 286.049634 
L 198.949844 286.432018 
L 199.274824 286.008818 
L 199.599803 286.077725 
L 199.924783 286.654577 
L 200.249762 286.708866 
L 200.899722 285.840738 
L 201.224701 285.867956 
L 201.549681 285.517765 
L 201.87466 286.373112 
L 202.19964 285.606833 
L 202.524619 286.709787 
L 203.174578 286.029483 
L 203.499558 285.416383 
L 203.824537 286.350725 
L 204.149517 286.040437 
L 204.474496 286.709664 
L 204.799476 286.611844 
L 205.124455 286.08902 
L 205.449435 286.307545 
L 205.774414 286.673952 
L 206.099394 285.964029 
L 206.424373 286.336177 
L 207.074333 286.131401 
L 207.399312 285.9745 
L 207.724292 286.513077 
L 208.049271 285.938388 
L 208.374251 286.099823 
L 209.02421 285.793728 
L 209.349189 285.886066 
L 209.674169 286.743121 
L 209.999148 285.905832 
L 210.324128 286.256437 
L 210.649107 286.25101 
L 210.974087 286.415917 
L 211.299066 287.423664 
L 211.624046 286.128519 
L 211.949025 287.031483 
L 212.598984 287.154748 
L 212.923964 285.811801 
L 213.248943 286.543817 
L 213.898903 287.067949 
L 214.223882 286.140692 
L 214.548862 286.880051 
L 214.873841 285.987674 
L 215.198821 287.162047 
L 215.5238 286.004902 
L 215.84878 287.252262 
L 216.173759 287.093182 
L 216.498739 287.486862 
L 216.823718 287.160217 
L 217.148698 286.355302 
L 217.473677 286.891772 
L 217.798657 287.152492 
L 218.123636 286.043212 
L 218.448616 287.260107 
L 218.773595 286.568367 
L 219.098575 287.045308 
L 219.423554 286.412445 
L 219.748534 286.474872 
L 220.073514 286.154813 
L 220.398493 287.13327 
L 221.048452 286.144334 
L 221.373432 286.345982 
L 221.698411 286.905955 
L 222.023391 285.715928 
L 222.67335 285.905126 
L 222.998329 287.178998 
L 223.323309 286.07783 
L 223.648288 287.057515 
L 223.973268 285.952294 
L 224.298247 286.537152 
L 224.623227 286.587405 
L 224.948206 285.851672 
L 225.273186 286.456279 
L 225.598165 285.588072 
L 225.923145 285.268164 
L 226.248124 286.265854 
L 226.573104 286.105994 
L 226.898084 286.12264 
L 227.223063 284.729235 
L 227.548043 285.436274 
L 227.873022 285.1163 
L 228.198002 286.197447 
L 228.522981 284.869219 
L 228.847961 286.066863 
L 229.17294 285.959934 
L 229.49792 284.356726 
L 229.822899 284.219357 
L 230.147879 285.126408 
L 230.472858 284.222626 
L 230.797838 285.198738 
L 231.122817 285.147597 
L 231.447797 285.28487 
L 231.772776 284.564923 
L 232.097756 284.98864 
L 232.422735 284.003115 
L 232.747715 284.42553 
L 233.072695 283.52832 
L 233.397674 284.698064 
L 233.722654 284.392693 
L 234.047633 284.467004 
L 234.372613 283.802799 
L 234.697592 283.751122 
L 235.022572 283.092275 
L 235.347551 283.788945 
L 235.672531 283.310311 
L 235.99751 283.413732 
L 236.32249 283.235825 
L 236.972449 281.988856 
L 237.297428 282.102589 
L 237.622408 283.113566 
L 237.947387 282.190526 
L 238.272367 282.437579 
L 238.597346 282.404455 
L 238.922326 281.956751 
L 239.247305 282.745259 
L 239.572285 282.860436 
L 239.897265 282.724038 
L 240.222244 282.19633 
L 240.547224 282.167449 
L 240.872203 281.244345 
L 241.197183 280.880849 
L 241.847142 281.997193 
L 242.172121 280.629087 
L 242.82208 280.972155 
L 243.14706 281.433866 
L 243.797019 280.980066 
L 244.121998 280.106199 
L 244.446978 281.270267 
L 244.771957 280.944256 
L 245.421916 281.247443 
L 245.746896 279.988382 
L 246.071876 280.559398 
L 246.396855 280.649322 
L 246.721835 279.622038 
L 247.046814 280.20726 
L 247.696773 279.545713 
L 248.021753 280.814463 
L 248.671712 279.636973 
L 248.996691 280.672305 
L 249.321671 279.999366 
L 249.64665 280.49426 
L 249.97163 280.290497 
L 250.296609 279.443005 
L 250.621589 279.603656 
L 250.946568 278.938897 
L 251.271548 279.303518 
L 251.596527 279.487252 
L 251.921507 280.362467 
L 252.246486 279.794003 
L 252.571466 279.54887 
L 252.896446 278.802621 
L 253.221425 279.870447 
L 253.546405 279.3106 
L 253.871384 279.936385 
L 254.521343 278.597731 
L 254.846323 278.977522 
L 255.171302 280.117396 
L 255.821261 279.20577 
L 256.146241 279.825503 
L 256.47122 279.649236 
L 256.7962 278.563231 
L 257.121179 279.452643 
L 257.446159 279.988083 
L 257.771138 278.443433 
L 258.746077 279.837197 
L 259.071057 279.883007 
L 259.396036 278.860216 
L 259.721016 278.600668 
L 260.045995 278.788262 
L 260.370975 278.554846 
L 260.695954 279.053461 
L 261.020934 278.964111 
L 261.345913 279.475976 
L 261.670893 279.752749 
L 261.995872 279.243332 
L 262.320852 279.335755 
L 262.645831 280.081481 
L 262.970811 279.243583 
L 263.29579 280.142217 
L 263.62077 279.024545 
L 263.945749 280.109359 
L 264.270729 280.246729 
L 264.595708 279.056213 
L 264.920688 278.895095 
L 265.245667 279.357684 
L 265.570647 278.916479 
L 265.895627 279.015514 
L 266.220606 279.903327 
L 266.545586 279.54716 
L 266.870565 280.200936 
L 267.195545 280.012304 
L 267.520524 280.285356 
L 267.845504 279.594129 
L 268.170483 279.73356 
L 268.495463 280.39564 
L 268.820442 278.914631 
L 269.145422 278.839176 
L 269.470401 280.100184 
L 269.795381 279.182539 
L 270.12036 279.318008 
L 270.44534 279.995167 
L 270.770319 279.844369 
L 271.095299 278.538317 
L 271.745258 280.140349 
L 272.395217 278.626756 
L 272.720197 279.965872 
L 273.045176 278.665377 
L 273.370156 279.978391 
L 273.695135 279.015784 
L 274.020115 278.516562 
L 274.345094 279.707047 
L 274.670074 278.547208 
L 275.320033 278.621293 
L 275.645012 279.047383 
L 275.969992 278.962278 
L 276.294971 279.361699 
L 276.619951 277.932766 
L 276.94493 279.270337 
L 277.26991 279.101572 
L 277.594889 277.919467 
L 277.919869 279.015114 
L 278.244848 278.511028 
L 278.569828 278.760544 
L 278.894808 277.45991 
L 279.219787 278.880358 
L 279.544767 278.463878 
L 279.869746 277.060512 
L 280.194726 278.111635 
L 280.519705 278.163962 
L 280.844685 276.745788 
L 281.169664 276.698477 
L 281.494644 277.45336 
L 281.819623 277.878885 
L 282.144603 277.808448 
L 282.469582 277.402085 
L 282.794562 276.188171 
L 283.119541 277.225794 
L 283.444521 276.060856 
L 283.7695 276.537558 
L 284.09448 275.709737 
L 284.419459 276.980603 
L 284.744439 276.414835 
L 285.069419 276.641737 
L 285.719378 275.55198 
L 286.044357 275.719511 
L 286.369337 275.607884 
L 286.694316 276.25196 
L 287.344275 275.575005 
L 287.994234 274.413656 
L 288.319214 275.40112 
L 288.644193 274.327954 
L 288.969173 274.68596 
L 289.294152 274.068698 
L 289.619132 273.691017 
L 289.944111 273.771493 
L 290.269091 273.087278 
L 290.59407 273.804084 
L 290.91905 273.244724 
L 291.244029 273.19498 
L 291.569009 272.77801 
L 291.893989 273.586341 
L 292.218968 272.212728 
L 292.543948 272.69747 
L 292.868927 271.956215 
L 293.193907 272.966071 
L 293.518886 273.318308 
L 293.843866 272.477198 
L 294.168845 272.490738 
L 294.493825 271.247959 
L 294.818804 272.602315 
L 295.143784 272.050792 
L 295.468763 271.900462 
L 295.793743 272.340228 
L 296.118722 271.808093 
L 296.443702 271.748802 
L 296.768681 270.694095 
L 297.093661 271.916983 
L 297.41864 270.671591 
L 297.74362 270.05408 
L 298.0686 270.217032 
L 298.393579 271.435719 
L 298.718559 271.264905 
L 299.043538 270.797074 
L 299.693497 270.406266 
L 300.018477 269.61909 
L 300.343456 269.78715 
L 300.668436 269.717485 
L 300.993415 269.8663 
L 301.318395 269.450753 
L 301.643374 270.277388 
L 301.968354 269.487619 
L 302.618313 269.268939 
L 302.943292 269.96324 
L 303.268272 268.989945 
L 303.593251 269.152332 
L 304.24321 268.21165 
L 304.56819 268.084822 
L 304.89317 269.694598 
L 305.218149 269.490406 
L 305.543129 267.935809 
L 306.193088 268.411163 
L 306.518067 268.628035 
L 306.843047 268.327937 
L 307.168026 268.727079 
L 307.493006 268.099421 
L 307.817985 268.019456 
L 308.142965 268.140734 
L 308.467944 268.567054 
L 308.792924 268.388577 
L 309.117903 268.703212 
L 309.442883 267.898019 
L 309.767862 268.484125 
L 310.092842 267.641027 
L 310.417821 267.605821 
L 310.742801 268.533854 
L 311.067781 267.357428 
L 311.39276 267.989359 
L 311.71774 268.233233 
L 312.042719 268.924948 
L 312.367699 268.330781 
L 312.692678 268.5184 
L 313.017658 267.526864 
L 313.342637 268.495273 
L 313.992596 268.122197 
L 314.642555 267.410208 
L 314.967535 268.628568 
L 315.292514 267.875947 
L 315.942473 267.480419 
L 316.267453 268.683977 
L 316.592432 267.898941 
L 316.917412 267.425855 
L 317.242391 268.623542 
L 317.567371 267.165878 
L 317.892351 268.11416 
L 318.21733 268.36035 
L 318.54231 268.240716 
L 318.867289 268.789673 
L 319.192269 268.858636 
L 319.517248 267.514541 
L 319.842228 267.686214 
L 320.167207 268.169845 
L 320.817166 267.546902 
L 321.142146 268.360735 
L 321.467125 267.392898 
L 321.792105 268.780682 
L 322.117084 267.967861 
L 322.442064 267.772178 
L 322.767043 268.571463 
L 323.092023 267.814659 
L 323.417002 267.874294 
L 323.741982 268.901601 
L 324.066962 268.863504 
L 324.391941 267.493521 
L 325.0419 268.358205 
L 325.36688 268.171125 
L 325.691859 268.447079 
L 326.016839 267.420623 
L 326.341818 268.712924 
L 327.316757 267.377205 
L 327.641736 267.435734 
L 327.966716 267.831278 
L 328.291695 267.077447 
L 328.616675 268.113794 
L 328.941654 267.920895 
L 329.266634 267.122918 
L 329.591613 267.305689 
L 329.916593 266.766239 
L 330.241572 266.881717 
L 330.566552 267.67931 
L 330.891532 266.684309 
L 331.216511 267.778941 
L 331.541491 267.628543 
L 332.19145 267.964343 
L 332.516429 267.967262 
L 332.841409 266.409232 
L 333.166388 267.170957 
L 333.491368 266.210729 
L 333.816347 267.365254 
L 334.141327 266.66482 
L 334.466306 266.380247 
L 334.791286 267.034023 
L 335.116265 265.866798 
L 335.441245 267.070512 
L 335.766224 265.652293 
L 336.091204 265.948176 
L 336.416183 265.740262 
L 336.741163 266.971681 
L 337.066143 266.089908 
L 337.391122 265.838885 
L 337.716102 265.93979 
L 338.041081 265.358983 
L 338.366061 266.143897 
L 338.69104 265.451574 
L 339.01602 266.029177 
L 339.340999 266.219832 
L 339.665979 265.961048 
L 339.990958 264.606232 
L 340.315938 265.09949 
L 340.640917 264.85431 
L 340.965897 265.472466 
L 341.290876 264.687921 
L 341.615856 264.605932 
L 341.940835 264.147679 
L 342.265815 265.169017 
L 342.590794 264.10293 
L 342.915774 264.000296 
L 343.240753 263.406544 
L 343.565733 263.678806 
L 343.890713 264.516343 
L 344.540672 263.452361 
L 344.865651 264.240139 
L 345.190631 263.026848 
L 345.51561 263.064038 
L 345.84059 263.31077 
L 346.165569 263.822265 
L 346.490549 262.501977 
L 346.815528 263.191775 
L 347.140508 261.86833 
L 347.465487 262.288705 
L 347.790467 263.350333 
L 348.115446 262.713898 
L 348.440426 263.168996 
L 348.765405 261.658125 
L 349.090385 262.397274 
L 349.415364 262.427442 
L 350.065324 261.041689 
L 350.390303 262.295541 
L 350.715283 261.824978 
L 351.040262 260.848768 
L 351.365242 261.865577 
L 351.690221 261.856584 
L 352.015201 261.016751 
L 352.34018 261.477618 
L 352.66516 261.344611 
L 352.990139 260.419348 
L 353.315119 261.635285 
L 353.640098 260.396172 
L 353.965078 261.306252 
L 354.290057 259.749978 
L 354.615037 260.593606 
L 354.940016 259.976012 
L 355.264996 259.665369 
L 355.589975 260.645513 
L 355.914955 260.155384 
L 356.239934 260.957191 
L 356.564914 259.286883 
L 356.889894 260.382744 
L 357.214873 259.64311 
L 357.539853 259.579317 
L 357.864832 260.066297 
L 358.839771 258.970277 
L 359.16475 259.646225 
L 359.48973 259.143403 
L 359.814709 259.416407 
L 360.139689 259.984961 
L 360.464668 259.850145 
L 360.789648 259.432347 
L 361.114627 260.126196 
L 361.439607 258.726886 
L 361.764586 259.436567 
L 362.089566 258.594007 
L 362.414545 259.934676 
L 362.739525 259.366417 
L 363.064505 259.986708 
L 363.389484 259.850185 
L 363.714464 258.418911 
L 364.364423 258.759101 
L 364.689402 259.139831 
L 365.014382 258.3934 
L 365.339361 258.886142 
L 365.664341 260.022048 
L 365.98932 259.913661 
L 366.3143 259.647143 
L 366.964259 258.322904 
L 367.614218 259.338 
L 368.264177 258.695991 
L 368.589156 259.471522 
L 368.914136 259.905024 
L 369.239115 259.307688 
L 369.564095 258.984181 
L 369.889075 259.88959 
L 370.214054 258.634872 
L 370.539034 258.786663 
L 370.864013 258.361264 
L 371.188993 258.843908 
L 371.513972 259.760071 
L 371.838952 259.958002 
L 372.163931 258.532389 
L 372.488911 259.387152 
L 372.81389 258.557668 
L 373.13887 258.286053 
L 373.463849 259.203667 
L 373.788829 258.563117 
L 374.113808 259.488635 
L 374.438788 259.068461 
L 374.763767 258.89856 
L 375.088747 258.545964 
L 375.413726 259.336443 
L 375.738706 258.499146 
L 376.063686 258.507476 
L 376.388665 259.083126 
L 376.713645 258.207422 
L 377.038624 258.092799 
L 377.688583 259.39404 
L 378.013563 258.021168 
L 378.338542 259.543376 
L 378.663522 258.389605 
L 378.988501 259.463075 
L 379.313481 258.573668 
L 379.63846 258.152716 
L 379.96344 258.964348 
L 380.288419 259.137421 
L 380.613399 258.3419 
L 380.938378 258.320877 
L 381.263358 258.595182 
L 381.588337 258.44404 
L 381.913317 257.683368 
L 382.238296 259.131469 
L 382.563276 258.809893 
L 382.888256 257.541679 
L 383.213235 258.153608 
L 383.538215 257.646975 
L 383.863194 257.917505 
L 384.188174 257.249725 
L 384.513153 257.166158 
L 384.838133 258.096327 
L 385.163112 257.288115 
L 385.488092 258.248008 
L 385.813071 257.749508 
L 386.138051 258.29942 
L 386.46303 257.081941 
L 386.78801 257.564571 
L 387.437969 256.920045 
L 387.762948 257.831371 
L 388.087928 257.655387 
L 388.412907 256.2905 
L 388.737887 257.271315 
L 389.062867 256.210175 
L 389.387846 256.331541 
L 389.712826 255.494584 
L 390.037805 256.281349 
L 390.362785 255.83047 
L 391.012744 256.583632 
L 391.337723 254.967327 
L 391.662703 256.114846 
L 391.987682 254.923619 
L 392.312662 255.861804 
L 392.637641 256.022154 
L 392.962621 255.731391 
L 393.2876 254.434452 
L 393.61258 255.485731 
L 393.937559 254.639886 
L 394.262539 255.061208 
L 394.587518 254.014483 
L 394.912498 254.455855 
L 395.237477 254.505845 
L 395.887437 253.171593 
L 396.212416 253.500318 
L 396.537396 253.583306 
L 396.862375 253.311349 
L 397.512334 252.36313 
L 397.837314 252.470125 
L 398.162293 253.311273 
L 398.487273 253.211399 
L 398.487273 253.211399 
" clip-path="url(#p7e87e526e6)" style="fill: none; stroke: #1f77b4; stroke-width: 1.5; stroke-linecap: square"/>
   </g>
   <g id="patch_18">
    <path d="M 57.6 307.584 
L 57.6 249.733565 
" style="fill: none; stroke: #000000; stroke-width: 0.8; stroke-linejoin: miter; stroke-linecap: square"/>
   </g>
   <g id="patch_19">
    <path d="M 414.72 307.584 
L 414.72 249.733565 
" style="fill: none; stroke: #000000; stroke-width: 0.8; stroke-linejoin: miter; stroke-linecap: square"/>
   </g>
   <g id="patch_20">
    <path d="M 57.6 307.584 
L 414.72 307.584 
" style="fill: none; stroke: #000000; stroke-width: 0.8; stroke-linejoin: miter; stroke-linecap: square"/>
   </g>
   <g id="patch_21">
    <path d="M 57.6 249.733565 
L 414.72 249.733565 
" style="fill: none; stroke: #000000; stroke-width: 0.8; stroke-linejoin: miter; stroke-linecap: square"/>
   </g>
   <g id="text_40">
    <!-- Serie timp -->
    <g transform="translate(205.254375 243.733565) scale(0.12 -0.12)">
     <defs>
      <path id="DejaVuSans-70" d="M 1159 525 
L 1159 -1331 
L 581 -1331 
L 581 3500 
L 1159 3500 
L 1159 2969 
Q 1341 3281 1617 3432 
Q 1894 3584 2278 3584 
Q 2916 3584 3314 3078 
Q 3713 2572 3713 1747 
Q 3713 922 3314 415 
Q 2916 -91 2278 -91 
Q 1894 -91 1617 61 
Q 1341 213 1159 525 
z
M 3116 1747 
Q 3116 2381 2855 2742 
Q 2594 3103 2138 3103 
Q 1681 3103 1420 2742 
Q 1159 2381 1159 1747 
Q 1159 1113 1420 752 
Q 1681 391 2138 391 
Q 2594 391 2855 752 
Q 3116 1113 3116 1747 
z
" transform="scale(0.015625)"/>
     </defs>
     <use xlink:href="#DejaVuSans-53"/>
     <use xlink:href="#DejaVuSans-65" x="63.476562"/>
     <use xlink:href="#DejaVuSans-72" x="125"/>
     <use xlink:href="#DejaVuSans-69" x="166.113281"/>
     <use xlink:href="#DejaVuSans-65" x="193.896484"/>
     <use xlink:href="#DejaVuSans-20" x="255.419922"/>
     <use xlink:href="#DejaVuSans-74" x="287.207031"/>
     <use xlink:href="#DejaVuSans-69" x="326.416016"/>
     <use xlink:href="#DejaVuSans-6d" x="354.199219"/>
     <use xlink:href="#DejaVuSans-70" x="451.611328"/>
    </g>
   </g>
  </g>
 </g>
 <defs>
  <clipPath id="p04ea017509">
   <rect x="57.6" y="41.472" width="357.12" height="57.850435"/>
  </clipPath>
  <clipPath id="p5c3b022e6a">
   <rect x="57.6" y="110.892522" width="357.12" height="57.850435"/>
  </clipPath>
  <clipPath id="pa83f49b671">
   <rect x="57.6" y="180.313043" width="357.12" height="57.850435"/>
  </clipPath>
  <clipPath id="p7e87e526e6">
   <rect x="57.6" y="249.733565" width="357.12" height="57.850435"/>
  </clipPath>
 </defs>
</svg>
