<?xml version="1.0" encoding="utf-8" standalone="no"?>
<!DOCTYPE svg PUBLIC "-//W3C//DTD SVG 1.1//EN"
  "http://www.w3.org/Graphics/SVG/1.1/DTD/svg11.dtd">
<svg xmlns:xlink="http://www.w3.org/1999/xlink" width="460.8pt" height="345.6pt" viewBox="0 0 460.8 345.6" xmlns="http://www.w3.org/2000/svg" version="1.1">
 <metadata>
  <rdf:RDF xmlns:dc="http://purl.org/dc/elements/1.1/" xmlns:cc="http://creativecommons.org/ns#" xmlns:rdf="http://www.w3.org/1999/02/22-rdf-syntax-ns#">
   <cc:Work>
    <dc:type rdf:resource="http://purl.org/dc/dcmitype/StillImage"/>
    <dc:date>2024-12-05T23:06:42.889395</dc:date>
    <dc:format>image/svg+xml</dc:format>
    <dc:creator>
     <cc:Agent>
      <dc:title>Matplotlib v3.9.2, https://matplotlib.org/</dc:title>
     </cc:Agent>
    </dc:creator>
   </cc:Work>
  </rdf:RDF>
 </metadata>
 <defs>
  <style type="text/css">*{stroke-linejoin: round; stroke-linecap: butt}</style>
 </defs>
 <g id="figure_1">
  <g id="patch_1">
   <path d="M 0 345.6 
L 460.8 345.6 
L 460.8 0 
L 0 0 
z
" style="fill: #ffffff"/>
  </g>
  <g id="axes_1">
   <g id="patch_2">
    <path d="M 57.6 207.36 
L 414.72 207.36 
L 414.72 41.472 
L 57.6 41.472 
z
" style="fill: #ffffff"/>
   </g>
   <g id="matplotlib.axis_1">
    <g id="xtick_1">
     <g id="line2d_1">
      <defs>
       <path id="m87a3b3d5c7" d="M 0 0 
L 0 3.5 
" style="stroke: #000000; stroke-width: 0.8"/>
      </defs>
      <g>
       <use xlink:href="#m87a3b3d5c7" x="73.832727" y="207.36" style="stroke: #000000; stroke-width: 0.8"/>
      </g>
     </g>
     <g id="text_1">
      <!-- 0 -->
      <g transform="translate(70.651477 221.958438) scale(0.1 -0.1)">
       <defs>
        <path id="DejaVuSans-30" d="M 2034 4250 
Q 1547 4250 1301 3770 
Q 1056 3291 1056 2328 
Q 1056 1369 1301 889 
Q 1547 409 2034 409 
Q 2525 409 2770 889 
Q 3016 1369 3016 2328 
Q 3016 3291 2770 3770 
Q 2525 4250 2034 4250 
z
M 2034 4750 
Q 2819 4750 3233 4129 
Q 3647 3509 3647 2328 
Q 3647 1150 3233 529 
Q 2819 -91 2034 -91 
Q 1250 -91 836 529 
Q 422 1150 422 2328 
Q 422 3509 836 4129 
Q 1250 4750 2034 4750 
z
" transform="scale(0.015625)"/>
       </defs>
       <use xlink:href="#DejaVuSans-30"/>
      </g>
     </g>
    </g>
    <g id="xtick_2">
     <g id="line2d_2">
      <g>
       <use xlink:href="#m87a3b3d5c7" x="138.828632" y="207.36" style="stroke: #000000; stroke-width: 0.8"/>
      </g>
     </g>
     <g id="text_2">
      <!-- 200 -->
      <g transform="translate(129.284882 221.958438) scale(0.1 -0.1)">
       <defs>
        <path id="DejaVuSans-32" d="M 1228 531 
L 3431 531 
L 3431 0 
L 469 0 
L 469 531 
Q 828 903 1448 1529 
Q 2069 2156 2228 2338 
Q 2531 2678 2651 2914 
Q 2772 3150 2772 3378 
Q 2772 3750 2511 3984 
Q 2250 4219 1831 4219 
Q 1534 4219 1204 4116 
Q 875 4013 500 3803 
L 500 4441 
Q 881 4594 1212 4672 
Q 1544 4750 1819 4750 
Q 2544 4750 2975 4387 
Q 3406 4025 3406 3419 
Q 3406 3131 3298 2873 
Q 3191 2616 2906 2266 
Q 2828 2175 2409 1742 
Q 1991 1309 1228 531 
z
" transform="scale(0.015625)"/>
       </defs>
       <use xlink:href="#DejaVuSans-32"/>
       <use xlink:href="#DejaVuSans-30" x="63.623047"/>
       <use xlink:href="#DejaVuSans-30" x="127.246094"/>
      </g>
     </g>
    </g>
    <g id="xtick_3">
     <g id="line2d_3">
      <g>
       <use xlink:href="#m87a3b3d5c7" x="203.824537" y="207.36" style="stroke: #000000; stroke-width: 0.8"/>
      </g>
     </g>
     <g id="text_3">
      <!-- 400 -->
      <g transform="translate(194.280787 221.958438) scale(0.1 -0.1)">
       <defs>
        <path id="DejaVuSans-34" d="M 2419 4116 
L 825 1625 
L 2419 1625 
L 2419 4116 
z
M 2253 4666 
L 3047 4666 
L 3047 1625 
L 3713 1625 
L 3713 1100 
L 3047 1100 
L 3047 0 
L 2419 0 
L 2419 1100 
L 313 1100 
L 313 1709 
L 2253 4666 
z
" transform="scale(0.015625)"/>
       </defs>
       <use xlink:href="#DejaVuSans-34"/>
       <use xlink:href="#DejaVuSans-30" x="63.623047"/>
       <use xlink:href="#DejaVuSans-30" x="127.246094"/>
      </g>
     </g>
    </g>
    <g id="xtick_4">
     <g id="line2d_4">
      <g>
       <use xlink:href="#m87a3b3d5c7" x="268.820442" y="207.36" style="stroke: #000000; stroke-width: 0.8"/>
      </g>
     </g>
     <g id="text_4">
      <!-- 600 -->
      <g transform="translate(259.276692 221.958438) scale(0.1 -0.1)">
       <defs>
        <path id="DejaVuSans-36" d="M 2113 2584 
Q 1688 2584 1439 2293 
Q 1191 2003 1191 1497 
Q 1191 994 1439 701 
Q 1688 409 2113 409 
Q 2538 409 2786 701 
Q 3034 994 3034 1497 
Q 3034 2003 2786 2293 
Q 2538 2584 2113 2584 
z
M 3366 4563 
L 3366 3988 
Q 3128 4100 2886 4159 
Q 2644 4219 2406 4219 
Q 1781 4219 1451 3797 
Q 1122 3375 1075 2522 
Q 1259 2794 1537 2939 
Q 1816 3084 2150 3084 
Q 2853 3084 3261 2657 
Q 3669 2231 3669 1497 
Q 3669 778 3244 343 
Q 2819 -91 2113 -91 
Q 1303 -91 875 529 
Q 447 1150 447 2328 
Q 447 3434 972 4092 
Q 1497 4750 2381 4750 
Q 2619 4750 2861 4703 
Q 3103 4656 3366 4563 
z
" transform="scale(0.015625)"/>
       </defs>
       <use xlink:href="#DejaVuSans-36"/>
       <use xlink:href="#DejaVuSans-30" x="63.623047"/>
       <use xlink:href="#DejaVuSans-30" x="127.246094"/>
      </g>
     </g>
    </g>
    <g id="xtick_5">
     <g id="line2d_5">
      <g>
       <use xlink:href="#m87a3b3d5c7" x="333.816347" y="207.36" style="stroke: #000000; stroke-width: 0.8"/>
      </g>
     </g>
     <g id="text_5">
      <!-- 800 -->
      <g transform="translate(324.272597 221.958438) scale(0.1 -0.1)">
       <defs>
        <path id="DejaVuSans-38" d="M 2034 2216 
Q 1584 2216 1326 1975 
Q 1069 1734 1069 1313 
Q 1069 891 1326 650 
Q 1584 409 2034 409 
Q 2484 409 2743 651 
Q 3003 894 3003 1313 
Q 3003 1734 2745 1975 
Q 2488 2216 2034 2216 
z
M 1403 2484 
Q 997 2584 770 2862 
Q 544 3141 544 3541 
Q 544 4100 942 4425 
Q 1341 4750 2034 4750 
Q 2731 4750 3128 4425 
Q 3525 4100 3525 3541 
Q 3525 3141 3298 2862 
Q 3072 2584 2669 2484 
Q 3125 2378 3379 2068 
Q 3634 1759 3634 1313 
Q 3634 634 3220 271 
Q 2806 -91 2034 -91 
Q 1263 -91 848 271 
Q 434 634 434 1313 
Q 434 1759 690 2068 
Q 947 2378 1403 2484 
z
M 1172 3481 
Q 1172 3119 1398 2916 
Q 1625 2713 2034 2713 
Q 2441 2713 2670 2916 
Q 2900 3119 2900 3481 
Q 2900 3844 2670 4047 
Q 2441 4250 2034 4250 
Q 1625 4250 1398 4047 
Q 1172 3844 1172 3481 
z
" transform="scale(0.015625)"/>
       </defs>
       <use xlink:href="#DejaVuSans-38"/>
       <use xlink:href="#DejaVuSans-30" x="63.623047"/>
       <use xlink:href="#DejaVuSans-30" x="127.246094"/>
      </g>
     </g>
    </g>
    <g id="xtick_6">
     <g id="line2d_6">
      <g>
       <use xlink:href="#m87a3b3d5c7" x="398.812252" y="207.36" style="stroke: #000000; stroke-width: 0.8"/>
      </g>
     </g>
     <g id="text_6">
      <!-- 1000 -->
      <g transform="translate(386.087252 221.958438) scale(0.1 -0.1)">
       <defs>
        <path id="DejaVuSans-31" d="M 794 531 
L 1825 531 
L 1825 4091 
L 703 3866 
L 703 4441 
L 1819 4666 
L 2450 4666 
L 2450 531 
L 3481 531 
L 3481 0 
L 794 0 
L 794 531 
z
" transform="scale(0.015625)"/>
       </defs>
       <use xlink:href="#DejaVuSans-31"/>
       <use xlink:href="#DejaVuSans-30" x="63.623047"/>
       <use xlink:href="#DejaVuSans-30" x="127.246094"/>
       <use xlink:href="#DejaVuSans-30" x="190.869141"/>
      </g>
     </g>
    </g>
   </g>
   <g id="matplotlib.axis_2">
    <g id="ytick_1">
     <g id="line2d_7">
      <defs>
       <path id="mbea093a09d" d="M 0 0 
L -3.5 0 
" style="stroke: #000000; stroke-width: 0.8"/>
      </defs>
      <g>
       <use xlink:href="#mbea093a09d" x="57.6" y="200.474336" style="stroke: #000000; stroke-width: 0.8"/>
      </g>
     </g>
     <g id="text_7">
      <!-- 1.0 -->
      <g transform="translate(34.696875 204.273554) scale(0.1 -0.1)">
       <defs>
        <path id="DejaVuSans-2e" d="M 684 794 
L 1344 794 
L 1344 0 
L 684 0 
L 684 794 
z
" transform="scale(0.015625)"/>
       </defs>
       <use xlink:href="#DejaVuSans-31"/>
       <use xlink:href="#DejaVuSans-2e" x="63.623047"/>
       <use xlink:href="#DejaVuSans-30" x="95.410156"/>
      </g>
     </g>
    </g>
    <g id="ytick_2">
     <g id="line2d_8">
      <g>
       <use xlink:href="#mbea093a09d" x="57.6" y="176.022714" style="stroke: #000000; stroke-width: 0.8"/>
      </g>
     </g>
     <g id="text_8">
      <!-- 1.5 -->
      <g transform="translate(34.696875 179.821933) scale(0.1 -0.1)">
       <defs>
        <path id="DejaVuSans-35" d="M 691 4666 
L 3169 4666 
L 3169 4134 
L 1269 4134 
L 1269 2991 
Q 1406 3038 1543 3061 
Q 1681 3084 1819 3084 
Q 2600 3084 3056 2656 
Q 3513 2228 3513 1497 
Q 3513 744 3044 326 
Q 2575 -91 1722 -91 
Q 1428 -91 1123 -41 
Q 819 9 494 109 
L 494 744 
Q 775 591 1075 516 
Q 1375 441 1709 441 
Q 2250 441 2565 725 
Q 2881 1009 2881 1497 
Q 2881 1984 2565 2268 
Q 2250 2553 1709 2553 
Q 1456 2553 1204 2497 
Q 953 2441 691 2322 
L 691 4666 
z
" transform="scale(0.015625)"/>
       </defs>
       <use xlink:href="#DejaVuSans-31"/>
       <use xlink:href="#DejaVuSans-2e" x="63.623047"/>
       <use xlink:href="#DejaVuSans-35" x="95.410156"/>
      </g>
     </g>
    </g>
    <g id="ytick_3">
     <g id="line2d_9">
      <g>
       <use xlink:href="#mbea093a09d" x="57.6" y="151.571093" style="stroke: #000000; stroke-width: 0.8"/>
      </g>
     </g>
     <g id="text_9">
      <!-- 2.0 -->
      <g transform="translate(34.696875 155.370312) scale(0.1 -0.1)">
       <use xlink:href="#DejaVuSans-32"/>
       <use xlink:href="#DejaVuSans-2e" x="63.623047"/>
       <use xlink:href="#DejaVuSans-30" x="95.410156"/>
      </g>
     </g>
    </g>
    <g id="ytick_4">
     <g id="line2d_10">
      <g>
       <use xlink:href="#mbea093a09d" x="57.6" y="127.119472" style="stroke: #000000; stroke-width: 0.8"/>
      </g>
     </g>
     <g id="text_10">
      <!-- 2.5 -->
      <g transform="translate(34.696875 130.91869) scale(0.1 -0.1)">
       <use xlink:href="#DejaVuSans-32"/>
       <use xlink:href="#DejaVuSans-2e" x="63.623047"/>
       <use xlink:href="#DejaVuSans-35" x="95.410156"/>
      </g>
     </g>
    </g>
    <g id="ytick_5">
     <g id="line2d_11">
      <g>
       <use xlink:href="#mbea093a09d" x="57.6" y="102.66785" style="stroke: #000000; stroke-width: 0.8"/>
      </g>
     </g>
     <g id="text_11">
      <!-- 3.0 -->
      <g transform="translate(34.696875 106.467069) scale(0.1 -0.1)">
       <defs>
        <path id="DejaVuSans-33" d="M 2597 2516 
Q 3050 2419 3304 2112 
Q 3559 1806 3559 1356 
Q 3559 666 3084 287 
Q 2609 -91 1734 -91 
Q 1441 -91 1130 -33 
Q 819 25 488 141 
L 488 750 
Q 750 597 1062 519 
Q 1375 441 1716 441 
Q 2309 441 2620 675 
Q 2931 909 2931 1356 
Q 2931 1769 2642 2001 
Q 2353 2234 1838 2234 
L 1294 2234 
L 1294 2753 
L 1863 2753 
Q 2328 2753 2575 2939 
Q 2822 3125 2822 3475 
Q 2822 3834 2567 4026 
Q 2313 4219 1838 4219 
Q 1578 4219 1281 4162 
Q 984 4106 628 3988 
L 628 4550 
Q 988 4650 1302 4700 
Q 1616 4750 1894 4750 
Q 2613 4750 3031 4423 
Q 3450 4097 3450 3541 
Q 3450 3153 3228 2886 
Q 3006 2619 2597 2516 
z
" transform="scale(0.015625)"/>
       </defs>
       <use xlink:href="#DejaVuSans-33"/>
       <use xlink:href="#DejaVuSans-2e" x="63.623047"/>
       <use xlink:href="#DejaVuSans-30" x="95.410156"/>
      </g>
     </g>
    </g>
    <g id="ytick_6">
     <g id="line2d_12">
      <g>
       <use xlink:href="#mbea093a09d" x="57.6" y="78.216229" style="stroke: #000000; stroke-width: 0.8"/>
      </g>
     </g>
     <g id="text_12">
      <!-- 3.5 -->
      <g transform="translate(34.696875 82.015448) scale(0.1 -0.1)">
       <use xlink:href="#DejaVuSans-33"/>
       <use xlink:href="#DejaVuSans-2e" x="63.623047"/>
       <use xlink:href="#DejaVuSans-35" x="95.410156"/>
      </g>
     </g>
    </g>
    <g id="ytick_7">
     <g id="line2d_13">
      <g>
       <use xlink:href="#mbea093a09d" x="57.6" y="53.764608" style="stroke: #000000; stroke-width: 0.8"/>
      </g>
     </g>
     <g id="text_13">
      <!-- 4.0 -->
      <g transform="translate(34.696875 57.563826) scale(0.1 -0.1)">
       <use xlink:href="#DejaVuSans-34"/>
       <use xlink:href="#DejaVuSans-2e" x="63.623047"/>
       <use xlink:href="#DejaVuSans-30" x="95.410156"/>
      </g>
     </g>
    </g>
   </g>
   <g id="line2d_14">
    <path d="M 73.832727 199.548937 
L 74.157707 199.819636 
L 74.482686 198.801576 
L 74.807666 194.721001 
L 75.132645 194.28415 
L 75.782604 195.970711 
L 76.107584 192.901435 
L 76.432563 191.486579 
L 76.757543 195.350473 
L 77.082523 190.22862 
L 77.732482 190.286568 
L 78.057461 191.23824 
L 78.382441 188.370091 
L 78.70742 188.89139 
L 79.0324 188.199819 
L 79.357379 190.145592 
L 80.007338 185.871617 
L 80.657297 189.376445 
L 80.982277 187.080324 
L 81.307256 187.702334 
L 81.632236 184.207728 
L 82.282195 183.610452 
L 82.607174 183.356117 
L 82.932154 186.696592 
L 83.257133 184.306056 
L 83.582113 183.664205 
L 83.907093 181.280007 
L 84.232072 182.593781 
L 84.557052 184.766161 
L 84.882031 180.204977 
L 85.207011 183.668915 
L 85.53199 180.147509 
L 85.85697 179.769921 
L 86.181949 181.579578 
L 86.506929 180.021305 
L 87.156888 178.75603 
L 87.481867 180.081995 
L 87.806847 179.421798 
L 88.131826 182.637141 
L 88.456806 181.852318 
L 88.781785 178.944595 
L 89.106765 181.842999 
L 89.431744 182.23075 
L 89.756724 179.290943 
L 90.081704 181.074373 
L 90.406683 180.752606 
L 90.731663 182.131162 
L 91.056642 178.396797 
L 91.381622 181.22931 
L 91.706601 182.086849 
L 92.35656 180.259419 
L 92.68154 180.905359 
L 93.006519 180.514247 
L 93.331499 182.032173 
L 93.656478 178.006543 
L 94.306437 180.451818 
L 94.631417 179.777046 
L 94.956396 181.020195 
L 95.281376 180.225332 
L 95.606355 182.453276 
L 95.931335 180.905088 
L 96.256314 181.184318 
L 96.906274 180.75269 
L 97.231253 184.170869 
L 97.556233 181.285273 
L 97.881212 182.801677 
L 98.206192 182.859553 
L 98.531171 184.074355 
L 98.856151 181.40922 
L 99.50611 185.823945 
L 99.831089 183.375124 
L 100.156069 184.285162 
L 100.481048 183.857117 
L 100.806028 182.674101 
L 101.131007 184.889049 
L 101.455987 182.705386 
L 101.780966 187.472814 
L 102.105946 187.426838 
L 102.430925 185.755281 
L 102.755905 184.964777 
L 103.080885 185.489127 
L 103.405864 188.647217 
L 103.730844 186.971404 
L 104.055823 186.684817 
L 104.705782 189.842414 
L 105.030762 186.219773 
L 105.355741 189.161696 
L 105.680721 186.298459 
L 106.0057 187.204916 
L 106.33068 190.092503 
L 106.655659 190.501146 
L 107.305618 191.947348 
L 107.630598 191.127742 
L 108.280557 192.318218 
L 108.605536 188.090371 
L 108.930516 191.607359 
L 109.255495 189.821374 
L 109.580475 190.669136 
L 109.905455 193.212848 
L 110.230434 188.479978 
L 110.555414 189.735467 
L 110.880393 189.210569 
L 111.205373 192.487675 
L 111.530352 189.869643 
L 111.855332 191.105685 
L 112.180311 189.244771 
L 112.505291 191.902211 
L 113.480229 189.061517 
L 113.805209 190.235166 
L 114.130188 192.72342 
L 114.455168 189.237302 
L 114.780147 190.347573 
L 115.105127 192.502261 
L 115.430106 192.513489 
L 115.755086 191.470875 
L 116.080066 189.638489 
L 116.405045 192.06743 
L 116.730025 193.161328 
L 117.055004 190.190186 
L 117.379984 192.395445 
L 117.704963 188.815936 
L 118.029943 188.561546 
L 118.354922 191.838978 
L 118.679902 188.234617 
L 119.004881 190.657711 
L 119.329861 187.793323 
L 119.65484 189.237993 
L 119.97982 187.250209 
L 120.304799 188.52668 
L 120.629779 188.95579 
L 120.954758 188.062292 
L 121.279738 189.657731 
L 121.604717 185.18393 
L 121.929697 188.849115 
L 122.254676 184.727323 
L 122.579656 188.215934 
L 123.229615 183.801958 
L 123.554595 184.550802 
L 123.879574 186.863148 
L 124.204554 182.32804 
L 124.529533 183.356427 
L 124.854513 183.829032 
L 125.179492 181.657088 
L 125.504472 183.023507 
L 125.829451 181.089258 
L 126.154431 181.358546 
L 126.47941 183.711872 
L 127.129369 181.934412 
L 127.454349 180.679366 
L 128.104308 179.844744 
L 128.429287 182.075346 
L 128.754267 178.153836 
L 129.079247 180.344301 
L 129.404226 178.617581 
L 129.729206 179.58823 
L 130.054185 177.589134 
L 130.379165 176.423569 
L 130.704144 174.79583 
L 131.029124 174.889805 
L 131.354103 176.687293 
L 131.679083 173.608515 
L 132.004062 178.057356 
L 132.329042 176.57409 
L 132.654021 176.786237 
L 132.979001 175.88417 
L 133.30398 176.518183 
L 133.62896 176.171421 
L 133.953939 175.479507 
L 134.278919 173.788185 
L 134.603898 170.625148 
L 134.928878 170.378659 
L 135.578837 170.389181 
L 135.903817 171.572247 
L 136.553776 170.599826 
L 137.203735 171.459999 
L 137.528714 173.174667 
L 137.853694 170.750228 
L 138.178673 170.003954 
L 138.503653 168.339458 
L 138.828632 169.233608 
L 139.153612 169.068277 
L 139.478591 171.331411 
L 140.12855 167.736815 
L 140.45353 170.712858 
L 140.778509 169.239448 
L 141.103489 169.643076 
L 141.428468 168.877863 
L 141.753448 166.87755 
L 142.078428 171.03732 
L 142.403407 168.411412 
L 142.728387 169.54522 
L 143.053366 169.612242 
L 143.378346 166.697516 
L 143.703325 169.464747 
L 144.028305 168.11428 
L 144.353284 171.665891 
L 144.678264 170.956646 
L 145.003243 171.482221 
L 145.328223 167.778371 
L 145.653202 167.646948 
L 145.978182 168.028088 
L 146.303161 169.278259 
L 146.628141 167.53882 
L 146.95312 170.724154 
L 147.2781 170.783073 
L 147.603079 170.021692 
L 147.928059 170.473195 
L 148.253038 169.474687 
L 148.578018 173.257572 
L 148.902998 173.056167 
L 149.227977 172.252208 
L 149.552957 173.756228 
L 149.877936 172.903991 
L 150.202916 174.106283 
L 150.527895 173.711604 
L 150.852875 174.512819 
L 151.177854 174.017148 
L 151.502834 174.530173 
L 151.827813 175.416373 
L 152.152793 174.511037 
L 152.477772 171.496701 
L 152.802752 171.945597 
L 153.127731 174.910901 
L 153.452711 173.17224 
L 153.77769 173.672093 
L 154.10267 174.883567 
L 154.427649 174.67125 
L 154.752629 177.659263 
L 155.077609 173.475617 
L 155.402588 175.71523 
L 155.727568 174.589624 
L 156.052547 175.965968 
L 156.377527 178.080885 
L 156.702506 177.816047 
L 157.027486 178.901204 
L 157.352465 178.576371 
L 157.677445 175.82766 
L 158.002424 177.894495 
L 158.327404 176.818775 
L 158.652383 178.527904 
L 158.977363 176.572953 
L 159.302342 176.300718 
L 159.627322 180.655334 
L 159.952301 179.142745 
L 160.277281 179.061204 
L 160.60226 180.192703 
L 161.252219 178.826174 
L 161.577199 179.087997 
L 161.902179 178.455831 
L 162.227158 180.653845 
L 162.877117 178.659622 
L 163.202097 178.765208 
L 163.527076 180.40044 
L 163.852056 181.395593 
L 164.177035 179.917778 
L 164.502015 181.940881 
L 164.826994 179.140769 
L 165.151974 180.147603 
L 165.476953 178.749504 
L 166.126912 179.992153 
L 166.451892 177.115254 
L 166.776871 180.196932 
L 167.101851 181.378181 
L 167.42683 178.993631 
L 167.75181 178.427108 
L 168.07679 180.760634 
L 168.401769 179.925596 
L 168.726749 177.427055 
L 169.051728 177.998488 
L 169.376708 177.527933 
L 169.701687 177.486725 
L 170.026667 179.394155 
L 170.351646 177.234403 
L 171.001605 178.146362 
L 171.326585 176.71316 
L 171.651564 177.91158 
L 171.976544 177.392536 
L 172.301523 174.640109 
L 172.626503 176.916526 
L 173.276462 173.09921 
L 173.601441 173.317637 
L 173.926421 172.035906 
L 174.2514 172.458952 
L 174.57638 173.098467 
L 174.90136 174.331836 
L 175.226339 173.213155 
L 175.551319 169.83693 
L 175.876298 170.1438 
L 176.526257 167.968242 
L 176.851237 168.012881 
L 177.176216 168.677897 
L 177.501196 166.891412 
L 177.826175 168.165482 
L 178.151155 168.252959 
L 178.476134 165.030162 
L 178.801114 163.810783 
L 179.126093 167.336894 
L 179.776052 163.142188 
L 180.101032 165.854231 
L 180.426011 161.880917 
L 180.750991 160.78021 
L 181.075971 163.247081 
L 181.40095 160.787344 
L 181.72593 161.176018 
L 182.050909 161.835992 
L 182.375889 158.641247 
L 182.700868 158.07297 
L 183.025848 158.988071 
L 183.350827 156.600872 
L 183.675807 155.088998 
L 184.000786 156.296968 
L 184.325766 155.713031 
L 184.650745 155.361828 
L 184.975725 152.603773 
L 185.300704 153.164318 
L 185.625684 154.164493 
L 185.950663 151.62893 
L 186.275643 153.703646 
L 186.600622 154.284783 
L 186.925602 153.851546 
L 187.250581 151.812649 
L 187.575561 151.12724 
L 187.900541 148.683461 
L 188.22552 149.081445 
L 188.5505 148.151614 
L 188.875479 146.001419 
L 189.200459 147.452543 
L 189.525438 145.312667 
L 189.850418 146.7436 
L 190.175397 145.557323 
L 190.500377 146.027324 
L 191.150336 143.02963 
L 191.475315 143.232629 
L 191.800295 146.97118 
L 192.125274 143.24406 
L 192.450254 144.395665 
L 192.775233 142.246146 
L 193.100213 141.786328 
L 193.425192 142.725342 
L 193.750172 144.313185 
L 194.075152 142.182419 
L 194.400131 141.118241 
L 194.725111 143.183147 
L 195.05009 141.146584 
L 195.37507 142.601926 
L 195.700049 140.175593 
L 196.025029 142.394878 
L 196.350008 142.300637 
L 196.999967 139.863788 
L 197.324947 139.372387 
L 197.649926 139.413454 
L 197.974906 138.346444 
L 198.299885 139.289124 
L 198.624865 139.441629 
L 198.949844 140.137832 
L 199.274824 139.081325 
L 199.599803 138.952628 
L 199.924783 141.769432 
L 200.249762 141.73363 
L 200.899722 138.962933 
L 201.224701 141.372034 
L 201.549681 140.337951 
L 201.87466 140.656031 
L 202.19964 139.879675 
L 202.524619 140.783318 
L 202.849599 138.151833 
L 203.174578 139.465819 
L 203.499558 142.309512 
L 203.824537 139.687581 
L 204.149517 141.042845 
L 204.474496 141.802836 
L 204.799476 139.366937 
L 205.124455 142.04128 
L 205.449435 140.821451 
L 205.774414 144.087599 
L 206.099394 140.373529 
L 206.424373 143.517253 
L 206.749353 141.672099 
L 207.074333 142.39495 
L 207.399312 141.178725 
L 207.724292 144.890403 
L 208.049271 145.474335 
L 208.374251 142.882363 
L 208.69923 142.191523 
L 209.02421 145.843774 
L 209.349189 142.439308 
L 209.674169 144.350881 
L 209.999148 145.349077 
L 210.324128 143.674648 
L 210.649107 147.138063 
L 210.974087 144.873954 
L 211.299066 146.241473 
L 211.624046 145.199379 
L 212.274005 148.193744 
L 212.923964 148.960156 
L 213.248943 148.198015 
L 213.573923 145.087009 
L 213.898903 149.211608 
L 214.223882 148.660725 
L 214.548862 149.328099 
L 214.873841 148.473523 
L 215.198821 147.173927 
L 215.84878 149.82975 
L 216.173759 148.866337 
L 216.498739 150.702104 
L 216.823718 147.677607 
L 217.148698 148.934955 
L 217.473677 146.802428 
L 217.798657 147.561743 
L 218.123636 151.011609 
L 218.448616 148.692476 
L 218.773595 148.926128 
L 219.098575 149.58874 
L 219.423554 150.521268 
L 219.748534 148.714381 
L 220.073514 151.347813 
L 220.398493 148.679856 
L 220.723473 151.80091 
L 221.048452 148.664459 
L 221.373432 147.061658 
L 221.698411 148.594284 
L 222.023391 151.132684 
L 222.67335 147.286848 
L 222.998329 147.313282 
L 223.323309 150.005578 
L 223.648288 148.817121 
L 223.973268 147.061819 
L 224.298247 149.545397 
L 224.623227 150.976295 
L 224.948206 150.498807 
L 225.273186 147.471266 
L 225.598165 147.472494 
L 225.923145 146.598745 
L 226.248124 148.432873 
L 226.573104 149.519715 
L 226.898084 147.3102 
L 227.548043 145.893161 
L 227.873022 146.103256 
L 228.198002 148.27753 
L 228.522981 145.832813 
L 228.847961 146.392063 
L 229.17294 147.299905 
L 229.49792 143.186188 
L 230.147879 146.209442 
L 230.472858 146.212443 
L 230.797838 145.232093 
L 231.122817 145.119652 
L 231.447797 144.627042 
L 231.772776 140.289923 
L 232.097756 142.591394 
L 232.422735 140.448958 
L 232.747715 141.419031 
L 233.072695 138.69005 
L 233.397674 141.408318 
L 234.047633 138.390819 
L 234.372613 138.2432 
L 234.697592 139.759692 
L 235.022572 139.547432 
L 235.347551 136.307218 
L 235.672531 136.574909 
L 235.99751 137.613178 
L 236.32249 139.059378 
L 236.647469 135.309457 
L 236.972449 136.424359 
L 237.297428 136.817541 
L 237.622408 136.55245 
L 237.947387 135.282945 
L 238.272367 133.04212 
L 238.597346 134.444925 
L 238.922326 134.163113 
L 239.247305 134.825629 
L 239.572285 131.226231 
L 239.897265 132.35595 
L 240.222244 130.780884 
L 240.547224 133.165765 
L 240.872203 132.355736 
L 241.197183 128.378329 
L 241.522162 130.067106 
L 241.847142 127.776407 
L 242.172121 131.981364 
L 242.497101 127.439796 
L 242.82208 129.445512 
L 243.14706 126.36765 
L 243.472039 127.801844 
L 243.797019 130.177129 
L 244.446978 127.157615 
L 244.771957 129.082093 
L 245.096937 126.142567 
L 245.421916 124.637691 
L 245.746896 127.356305 
L 246.071876 126.761641 
L 246.396855 126.901988 
L 246.721835 125.935254 
L 247.046814 124.585154 
L 247.371794 127.159973 
L 247.696773 126.023311 
L 248.021753 123.823385 
L 248.346732 127.170039 
L 248.671712 125.172503 
L 248.996691 125.869112 
L 249.321671 125.571795 
L 249.64665 124.624349 
L 249.97163 125.668651 
L 250.296609 125.023035 
L 250.621589 124.9621 
L 251.271548 122.963586 
L 251.596527 123.380787 
L 251.921507 121.831027 
L 252.246486 123.397354 
L 252.571466 125.554761 
L 252.896446 122.536108 
L 253.221425 126.190523 
L 253.871384 125.437705 
L 254.196364 125.770548 
L 254.521343 124.87201 
L 254.846323 123.253245 
L 255.171302 124.438367 
L 255.496282 124.576704 
L 255.821261 126.21998 
L 256.146241 126.085531 
L 256.7962 124.403878 
L 257.121179 125.247241 
L 257.446159 124.709367 
L 257.771138 127.152816 
L 258.096118 127.594676 
L 258.421097 124.953898 
L 258.746077 126.431609 
L 259.071057 128.498005 
L 259.721016 124.927135 
L 260.045995 129.087494 
L 260.370975 128.664672 
L 260.695954 129.834685 
L 261.020934 127.400627 
L 261.345913 129.593373 
L 261.670893 127.030552 
L 261.995872 128.925221 
L 262.320852 128.157937 
L 262.645831 129.114949 
L 262.970811 127.260681 
L 263.62077 131.373371 
L 263.945749 130.754301 
L 264.270729 129.436586 
L 264.595708 128.844101 
L 264.920688 128.918454 
L 265.245667 128.68902 
L 265.570647 131.894673 
L 265.895627 130.23118 
L 266.220606 129.365419 
L 266.870565 131.687488 
L 267.195545 129.645481 
L 267.520524 130.888378 
L 267.845504 132.74742 
L 268.170483 129.626132 
L 268.820442 134.203511 
L 269.145422 134.341247 
L 269.795381 132.477832 
L 270.12036 130.588929 
L 270.44534 134.815957 
L 270.770319 132.501397 
L 271.095299 132.660858 
L 271.420278 130.832094 
L 272.070238 133.28383 
L 272.395217 131.927249 
L 272.720197 132.608564 
L 273.045176 131.413281 
L 273.370156 131.065519 
L 273.695135 130.925448 
L 274.020115 131.917329 
L 274.345094 131.686213 
L 274.670074 131.947278 
L 274.995053 130.433717 
L 275.320033 134.259717 
L 275.645012 133.865735 
L 275.969992 129.934701 
L 276.619951 129.046323 
L 277.26991 133.003955 
L 277.594889 132.080276 
L 277.919869 131.687612 
L 278.244848 132.109917 
L 278.569828 129.077955 
L 278.894808 130.60322 
L 279.219787 130.558362 
L 279.544767 130.888595 
L 279.869746 130.284919 
L 280.194726 127.351447 
L 280.519705 129.288822 
L 280.844685 125.141364 
L 281.169664 127.409833 
L 281.494644 126.378016 
L 281.819623 127.789844 
L 282.144603 125.17623 
L 282.469582 126.075762 
L 282.794562 123.693581 
L 283.119541 126.195019 
L 283.444521 125.732262 
L 283.7695 124.232614 
L 284.09448 121.230471 
L 284.419459 120.295783 
L 284.744439 120.020267 
L 285.069419 121.980849 
L 285.394398 121.2119 
L 285.719378 118.341905 
L 286.044357 118.907179 
L 286.369337 116.275848 
L 286.694316 115.711888 
L 287.019296 115.538273 
L 287.344275 118.34731 
L 287.669255 114.89889 
L 287.994234 114.31684 
L 288.319214 116.019369 
L 288.644193 116.518107 
L 288.969173 115.779237 
L 289.294152 111.379197 
L 289.619132 111.078678 
L 290.269091 113.298498 
L 290.59407 111.048169 
L 290.91905 107.990737 
L 291.244029 110.700358 
L 292.218968 106.334935 
L 292.543948 106.787959 
L 293.193907 106.29916 
L 293.518886 105.443623 
L 293.843866 103.46141 
L 294.168845 106.187271 
L 294.493825 102.831613 
L 294.818804 101.730848 
L 295.143784 101.264899 
L 295.793743 98.922756 
L 296.443702 97.719949 
L 296.768681 99.618848 
L 297.41864 99.679621 
L 297.74362 95.61986 
L 298.0686 95.425111 
L 298.393579 95.978716 
L 299.043538 93.733366 
L 299.368518 95.966834 
L 299.693497 96.673558 
L 300.018477 94.115035 
L 300.343456 95.388292 
L 300.668436 93.676863 
L 300.993415 94.568591 
L 301.318395 95.009324 
L 301.643374 91.099372 
L 301.968354 93.706087 
L 302.293333 92.596126 
L 302.618313 89.765477 
L 302.943292 89.591722 
L 303.268272 90.210278 
L 303.593251 90.564807 
L 303.918231 89.755222 
L 304.24321 88.31414 
L 304.56819 92.879212 
L 304.89317 91.024615 
L 305.543129 88.301563 
L 306.193088 90.945262 
L 306.518067 91.174565 
L 306.843047 89.230162 
L 307.168026 87.983027 
L 307.493006 87.378863 
L 307.817985 88.384822 
L 308.467944 91.287634 
L 308.792924 90.211055 
L 309.117903 87.717326 
L 309.442883 88.647224 
L 309.767862 87.804857 
L 310.092842 90.3756 
L 310.417821 90.460958 
L 310.742801 90.325754 
L 311.067781 91.439231 
L 311.39276 88.607437 
L 311.71774 87.133567 
L 312.367699 88.756534 
L 312.692678 88.797354 
L 313.017658 90.110542 
L 313.342637 92.36063 
L 313.667617 92.4126 
L 313.992596 88.951664 
L 314.317576 91.716317 
L 314.642555 92.50652 
L 314.967535 90.2114 
L 315.292514 92.987178 
L 315.617494 93.275136 
L 315.942473 91.379909 
L 316.267453 90.205733 
L 316.592432 93.83959 
L 316.917412 90.50142 
L 317.567371 93.130567 
L 317.892351 93.30629 
L 318.21733 91.809291 
L 318.54231 95.216994 
L 319.192269 91.112399 
L 319.517248 94.625891 
L 319.842228 94.398111 
L 320.167207 96.282356 
L 320.492187 92.087452 
L 320.817166 93.573876 
L 321.142146 94.183949 
L 321.467125 95.617424 
L 321.792105 95.257943 
L 322.117084 93.460343 
L 322.442064 94.201437 
L 322.767043 94.248607 
L 323.092023 93.217248 
L 323.741982 98.20304 
L 324.066962 97.598656 
L 324.391941 97.390005 
L 324.716921 94.203321 
L 325.0419 97.460548 
L 325.36688 96.380974 
L 326.016839 98.497504 
L 326.341818 95.853602 
L 326.666798 96.859615 
L 326.991777 98.656798 
L 327.316757 95.066734 
L 327.641736 97.515397 
L 328.291695 96.518765 
L 328.616675 97.188113 
L 328.941654 98.544666 
L 329.266634 96.892386 
L 329.591613 98.620028 
L 329.916593 97.245654 
L 330.241572 97.58912 
L 330.566552 94.367961 
L 330.891532 95.2332 
L 331.216511 97.08541 
L 331.541491 95.124844 
L 332.19145 97.56639 
L 332.516429 93.520267 
L 332.841409 93.719405 
L 333.166388 96.03752 
L 333.491368 93.74575 
L 334.141327 96.055327 
L 334.466306 94.49032 
L 334.791286 94.929148 
L 335.116265 93.153852 
L 335.441245 93.428706 
L 335.766224 93.297457 
L 336.741163 90.102252 
L 337.066143 91.840367 
L 337.391122 90.103287 
L 337.716102 90.002822 
L 338.041081 88.436441 
L 338.366061 88.210454 
L 338.69104 92.031707 
L 339.01602 89.701087 
L 339.340999 89.605812 
L 339.665979 89.255651 
L 339.990958 87.369356 
L 340.315938 86.48355 
L 340.640917 87.572433 
L 340.965897 89.278906 
L 341.290876 88.278908 
L 341.615856 85.71051 
L 341.940835 85.970562 
L 342.265815 86.380102 
L 342.590794 82.622158 
L 342.915774 84.016433 
L 343.240753 86.116839 
L 343.565733 82.327478 
L 343.890713 80.99471 
L 344.215692 81.26348 
L 344.540672 81.941642 
L 344.865651 79.801823 
L 345.190631 83.313656 
L 345.51561 79.99145 
L 345.84059 80.265195 
L 346.165569 81.164404 
L 346.490549 80.214433 
L 346.815528 79.704335 
L 347.140508 77.648351 
L 347.465487 77.578526 
L 347.790467 77.371148 
L 348.115446 77.327079 
L 348.440426 74.748707 
L 348.765405 76.926992 
L 349.090385 76.349703 
L 349.415364 75.43451 
L 349.740344 76.139694 
L 350.065324 75.253027 
L 350.390303 74.00051 
L 350.715283 75.838345 
L 351.040262 74.151697 
L 351.365242 73.402568 
L 351.690221 73.635088 
L 352.015201 74.686983 
L 352.34018 74.615525 
L 352.66516 72.239867 
L 352.990139 73.880558 
L 353.315119 72.404233 
L 353.640098 73.581245 
L 353.965078 72.978401 
L 354.290057 71.021195 
L 354.615037 70.996843 
L 354.940016 68.622871 
L 355.264996 69.911018 
L 355.589975 68.248646 
L 356.239934 71.797906 
L 356.889894 66.744185 
L 357.214873 69.541536 
L 357.539853 69.989177 
L 357.864832 69.499247 
L 358.189812 68.605349 
L 358.514791 70.711624 
L 358.839771 70.241125 
L 359.16475 67.980581 
L 359.48973 68.708104 
L 359.814709 68.680825 
L 360.139689 68.901547 
L 360.464668 67.172022 
L 360.789648 69.736795 
L 361.114627 66.537036 
L 361.439607 66.551064 
L 361.764586 67.156325 
L 362.089566 67.45728 
L 362.414545 65.990031 
L 362.739525 69.617144 
L 363.064505 70.210227 
L 363.389484 66.114086 
L 363.714464 66.571648 
L 364.039443 68.066482 
L 364.364423 66.752933 
L 364.689402 70.625743 
L 365.014382 67.809957 
L 365.339361 67.694153 
L 365.664341 68.183913 
L 365.98932 68.281986 
L 366.3143 70.966838 
L 366.639279 67.705853 
L 366.964259 68.156518 
L 367.939197 71.280391 
L 368.264177 68.234961 
L 368.589156 69.087331 
L 368.914136 71.700898 
L 369.239115 71.140968 
L 369.564095 69.762354 
L 369.889075 73.132557 
L 370.539034 69.280652 
L 370.864013 73.31907 
L 371.188993 71.86239 
L 371.513972 70.966291 
L 371.838952 73.984793 
L 372.163931 73.570725 
L 372.488911 72.175645 
L 372.81389 74.348952 
L 373.13887 75.071314 
L 373.463849 72.86241 
L 373.788829 75.809893 
L 374.113808 72.15453 
L 374.438788 71.437934 
L 374.763767 75.92234 
L 375.088747 74.706257 
L 375.413726 72.340597 
L 375.738706 73.558599 
L 376.063686 73.776689 
L 376.388665 76.639973 
L 376.713645 72.533331 
L 377.038624 74.911805 
L 377.363604 74.805448 
L 377.688583 75.523861 
L 378.013563 75.207476 
L 378.663522 73.874817 
L 378.988501 73.668678 
L 379.313481 75.703642 
L 379.63846 73.06054 
L 379.96344 76.023055 
L 380.288419 74.374955 
L 380.613399 76.783889 
L 380.938378 74.988007 
L 381.263358 72.462509 
L 381.588337 72.517091 
L 381.913317 72.40147 
L 382.238296 74.019044 
L 382.563276 74.616136 
L 382.888256 73.343907 
L 383.213235 75.435109 
L 383.538215 75.084934 
L 383.863194 75.180754 
L 384.188174 74.234152 
L 384.513153 70.98512 
L 384.838133 73.365073 
L 385.163112 73.752558 
L 385.488092 73.264955 
L 385.813071 73.06172 
L 386.138051 71.879326 
L 386.46303 72.077139 
L 386.78801 72.914319 
L 387.112989 70.661463 
L 387.437969 71.682871 
L 387.762948 71.223755 
L 388.087928 70.040401 
L 388.412907 67.240005 
L 388.737887 69.902382 
L 389.062867 66.39738 
L 389.387846 66.263768 
L 389.712826 67.910129 
L 390.362785 65.188375 
L 390.687764 65.147717 
L 391.012744 64.03215 
L 391.337723 65.245904 
L 391.662703 62.037151 
L 391.987682 64.709393 
L 392.312662 65.258387 
L 392.962621 59.71504 
L 393.2876 59.966604 
L 393.61258 59.419455 
L 394.262539 61.033527 
L 394.587518 57.540041 
L 394.912498 57.125715 
L 395.237477 57.988686 
L 395.562457 57.456806 
L 395.887437 57.694475 
L 396.212416 54.83648 
L 396.537396 55.938885 
L 396.862375 54.035547 
L 397.512334 53.47158 
L 397.837314 54.826587 
L 398.162293 53.873737 
L 398.487273 49.012364 
L 398.487273 49.012364 
" clip-path="url(#p59250868c6)" style="fill: none; stroke: #1f77b4; stroke-width: 1.5; stroke-linecap: square"/>
   </g>
   <g id="line2d_15">
    <path d="M 259.071057 129.121639 
L 259.396036 125.833907 
L 259.721016 125.349357 
L 260.045995 128.899314 
L 260.370975 128.499025 
L 260.695954 129.320341 
L 261.020934 127.011225 
L 261.345913 128.387684 
L 261.670893 128.212164 
L 261.995872 128.997154 
L 262.320852 129.307237 
L 262.645831 130.1761 
L 262.970811 128.03636 
L 263.29579 130.563654 
L 263.62077 131.182622 
L 264.270729 131.235481 
L 264.595708 130.555257 
L 264.920688 130.582673 
L 265.245667 131.001577 
L 265.570647 131.911243 
L 265.895627 131.062788 
L 266.220606 130.861281 
L 266.870565 132.244587 
L 267.195545 131.223395 
L 267.520524 132.914224 
L 267.845504 133.42692 
L 268.170483 130.269501 
L 268.820442 134.0878 
L 269.145422 134.32651 
L 269.470401 134.21962 
L 269.795381 132.545665 
L 270.12036 131.674306 
L 270.44534 134.2118 
L 270.770319 132.659226 
L 271.095299 133.319904 
L 271.420278 132.990509 
L 271.745258 132.478859 
L 272.070238 133.32464 
L 272.395217 132.811749 
L 272.720197 133.296847 
L 273.045176 132.674148 
L 273.370156 134.859075 
L 273.695135 132.904289 
L 274.020115 133.32063 
L 274.345094 131.866051 
L 274.995053 132.267981 
L 275.320033 134.218826 
L 275.645012 135.457405 
L 275.969992 131.464839 
L 276.619951 131.564949 
L 276.94493 131.88642 
L 277.26991 131.905678 
L 277.594889 133.404643 
L 278.244848 130.760406 
L 278.569828 129.827072 
L 278.894808 129.764304 
L 279.219787 130.019524 
L 279.544767 129.061055 
L 279.869746 129.94727 
L 280.194726 128.386119 
L 280.519705 128.336795 
L 280.844685 125.176715 
L 281.169664 127.526241 
L 281.494644 126.519942 
L 281.819623 127.542939 
L 282.144603 125.465699 
L 282.469582 126.584262 
L 282.794562 124.751636 
L 283.119541 125.358023 
L 283.444521 124.844907 
L 283.7695 123.971187 
L 284.419459 121.701052 
L 284.744439 122.424107 
L 285.069419 122.221495 
L 285.394398 121.096071 
L 286.369337 116.898457 
L 286.694316 119.474107 
L 287.019296 117.381126 
L 287.344275 117.482919 
L 287.994234 114.087564 
L 288.319214 116.009169 
L 288.644193 116.606727 
L 289.294152 112.634933 
L 289.619132 112.304846 
L 289.944111 112.531265 
L 290.269091 112.578555 
L 290.91905 110.649531 
L 291.244029 110.767116 
L 291.569009 108.474082 
L 291.893989 109.036776 
L 292.218968 106.07078 
L 292.543948 106.602383 
L 292.868927 106.023751 
L 293.193907 106.309892 
L 293.518886 104.34804 
L 293.843866 103.801092 
L 294.168845 105.964648 
L 294.493825 104.738846 
L 294.818804 102.407491 
L 295.143784 102.99332 
L 295.793743 100.188766 
L 296.118722 98.85927 
L 296.443702 98.630403 
L 296.768681 100.897716 
L 297.093661 99.245369 
L 297.41864 99.131577 
L 297.74362 97.148944 
L 298.0686 95.966744 
L 298.718559 97.648741 
L 299.043538 94.410043 
L 299.368518 96.832282 
L 299.693497 96.681476 
L 300.018477 95.405875 
L 300.343456 95.565313 
L 300.668436 94.515581 
L 300.993415 94.391118 
L 301.318395 94.419184 
L 301.643374 93.37238 
L 301.968354 94.221141 
L 302.618313 90.941041 
L 302.943292 91.07288 
L 303.268272 90.431418 
L 303.593251 91.48837 
L 303.918231 91.198855 
L 304.24321 89.518136 
L 304.56819 91.84367 
L 304.89317 90.500537 
L 305.218149 90.746356 
L 305.543129 91.140952 
L 306.193088 91.350071 
L 306.518067 90.960955 
L 307.168026 89.350587 
L 307.493006 89.609613 
L 307.817985 90.491522 
L 308.142965 90.256914 
L 308.467944 91.514597 
L 309.117903 89.135873 
L 309.442883 90.697813 
L 309.767862 90.42918 
L 310.092842 91.309478 
L 310.417821 89.992116 
L 310.742801 89.884752 
L 311.067781 90.251899 
L 311.39276 88.997441 
L 311.71774 90.089482 
L 312.042719 89.696754 
L 312.367699 89.559293 
L 312.692678 90.43433 
L 313.017658 90.071126 
L 313.342637 90.112484 
L 313.667617 91.42758 
L 313.992596 90.449549 
L 314.317576 90.955921 
L 314.642555 90.791049 
L 314.967535 91.19787 
L 315.292514 92.726843 
L 315.617494 92.630884 
L 315.942473 91.239468 
L 316.267453 92.062421 
L 316.592432 93.939647 
L 316.917412 93.347259 
L 317.242391 93.024719 
L 317.567371 93.367521 
L 317.892351 94.414831 
L 318.21733 92.319634 
L 318.54231 94.007488 
L 318.867289 93.903999 
L 319.192269 93.146381 
L 319.517248 94.529616 
L 319.842228 93.871315 
L 320.167207 97.543014 
L 320.492187 93.91483 
L 320.817166 94.087459 
L 321.467125 95.625796 
L 321.792105 95.832529 
L 322.117084 95.382445 
L 322.767043 96.557362 
L 323.092023 95.134033 
L 323.417002 96.212468 
L 324.066962 97.375244 
L 324.391941 98.389894 
L 324.716921 95.220453 
L 325.0419 96.899982 
L 325.36688 97.493887 
L 325.691859 96.456853 
L 326.016839 97.587408 
L 326.341818 96.624283 
L 326.666798 97.583639 
L 326.991777 99.647274 
L 327.316757 96.493128 
L 327.641736 97.6993 
L 327.966716 97.343969 
L 328.291695 96.284728 
L 328.616675 97.771972 
L 328.941654 98.627093 
L 329.266634 97.73955 
L 329.591613 98.537321 
L 329.916593 95.796169 
L 330.241572 97.386258 
L 330.891532 95.858733 
L 331.216511 98.082382 
L 331.541491 94.947107 
L 331.86647 96.772439 
L 332.19145 95.743673 
L 332.516429 95.504126 
L 333.166388 96.803728 
L 333.491368 95.733473 
L 333.816347 95.063295 
L 334.141327 95.305656 
L 334.466306 95.908395 
L 335.116265 93.797122 
L 335.441245 94.768546 
L 335.766224 94.814464 
L 336.091204 94.387683 
L 336.416183 92.157236 
L 336.741163 91.621933 
L 337.066143 91.6223 
L 337.391122 91.27788 
L 337.716102 91.379182 
L 338.041081 90.874308 
L 338.366061 89.043412 
L 338.69104 91.641412 
L 339.01602 89.874193 
L 339.340999 90.130154 
L 339.665979 90.616723 
L 339.990958 88.866418 
L 340.315938 88.880849 
L 340.640917 87.134685 
L 340.965897 89.164879 
L 341.615856 87.642188 
L 341.940835 87.481512 
L 342.265815 87.56979 
L 342.590794 84.09148 
L 343.240753 86.105872 
L 343.565733 85.009273 
L 343.890713 83.07669 
L 344.215692 83.38977 
L 344.540672 84.141845 
L 344.865651 80.641473 
L 345.190631 83.459748 
L 345.51561 81.139057 
L 345.84059 80.96753 
L 346.165569 81.444795 
L 346.815528 80.246591 
L 347.140508 78.014054 
L 347.465487 78.075074 
L 347.790467 79.348468 
L 348.115446 79.316457 
L 348.440426 75.589282 
L 348.765405 77.475234 
L 349.090385 75.7922 
L 349.415364 75.53996 
L 349.740344 76.067916 
L 350.065324 75.621345 
L 350.390303 74.789124 
L 350.715283 75.593365 
L 351.690221 72.679815 
L 352.015201 74.523696 
L 352.34018 73.754456 
L 352.66516 72.627637 
L 352.990139 75.088825 
L 353.315119 72.444508 
L 353.640098 73.095041 
L 353.965078 73.032903 
L 354.290057 72.764201 
L 354.615037 71.928493 
L 354.940016 69.724832 
L 355.264996 71.006499 
L 355.589975 68.274302 
L 356.239934 70.164923 
L 356.564914 70.154595 
L 356.889894 69.284321 
L 357.214873 69.801344 
L 357.539853 69.041115 
L 357.864832 69.345059 
L 358.189812 67.798172 
L 358.514791 71.129685 
L 358.839771 70.055003 
L 359.16475 70.01334 
L 360.139689 67.922236 
L 360.464668 68.201999 
L 360.789648 69.747906 
L 361.114627 69.803165 
L 361.439607 68.380152 
L 361.764586 65.976474 
L 362.089566 68.782613 
L 362.414545 65.764714 
L 362.739525 69.399852 
L 363.064505 71.77642 
L 363.389484 68.411464 
L 363.714464 67.235761 
L 364.039443 68.216722 
L 364.364423 68.568784 
L 364.689402 70.593876 
L 365.014382 69.35648 
L 365.339361 70.486317 
L 365.98932 68.758838 
L 366.3143 71.145933 
L 366.639279 68.267415 
L 367.289238 71.029785 
L 367.614218 71.281129 
L 368.264177 70.560273 
L 368.589156 70.863447 
L 368.914136 71.863923 
L 369.239115 71.997939 
L 369.564095 71.130752 
L 369.889075 72.470012 
L 370.214054 72.097184 
L 370.539034 71.554434 
L 370.864013 71.66221 
L 371.188993 72.653845 
L 371.513972 72.792285 
L 372.163931 74.833872 
L 372.488911 72.340154 
L 372.81389 72.807598 
L 373.13887 74.110767 
L 373.463849 73.265222 
L 373.788829 75.654422 
L 374.438788 73.745978 
L 374.763767 76.189392 
L 375.088747 73.883769 
L 375.413726 73.877694 
L 375.738706 74.849331 
L 376.388665 77.662812 
L 376.713645 73.763248 
L 377.038624 74.139866 
L 377.363604 75.02284 
L 377.688583 75.499538 
L 378.013563 77.090657 
L 378.338542 76.22802 
L 378.663522 76.208231 
L 378.988501 75.067318 
L 379.63846 74.851238 
L 379.96344 77.01328 
L 380.288419 77.558228 
L 380.613399 78.781978 
L 381.263358 72.906394 
L 381.588337 74.327384 
L 381.913317 74.792271 
L 382.238296 75.579092 
L 382.563276 75.294584 
L 382.888256 73.501974 
L 383.213235 74.976596 
L 383.538215 73.0844 
L 383.863194 75.482185 
L 384.513153 72.466277 
L 384.838133 73.074228 
L 385.163112 74.145477 
L 385.488092 73.347937 
L 385.813071 72.890329 
L 386.46303 72.958982 
L 386.78801 72.183699 
L 387.112989 72.530072 
L 387.762948 70.429831 
L 388.087928 70.453471 
L 388.412907 67.213482 
L 388.737887 69.1005 
L 389.062867 68.336276 
L 389.712826 68.161383 
L 390.037805 65.897085 
L 390.362785 65.627417 
L 390.687764 66.804087 
L 391.012744 65.552135 
L 391.337723 66.070851 
L 391.662703 63.863929 
L 392.312662 65.168612 
L 392.637641 62.748474 
L 392.962621 62.083668 
L 393.2876 61.079568 
L 393.61258 61.303813 
L 393.937559 59.748657 
L 394.262539 60.120254 
L 394.587518 57.683866 
L 394.912498 58.356717 
L 395.237477 58.533917 
L 395.562457 58.840445 
L 396.212416 54.370534 
L 396.537396 54.693633 
L 396.862375 54.068556 
L 397.187355 56.678394 
L 397.512334 54.026098 
L 397.837314 53.694362 
L 398.162293 53.633052 
L 398.487273 50.130471 
L 398.487273 50.130471 
" clip-path="url(#p59250868c6)" style="fill: none; stroke: #ff7f0e; stroke-width: 1.5; stroke-linecap: square"/>
   </g>
   <g id="line2d_16">
    <path d="M 259.071057 207.36 
L 259.071057 41.472 
" clip-path="url(#p59250868c6)" style="fill: none; stroke: #ff0000; stroke-width: 1.5; stroke-linecap: square"/>
   </g>
   <g id="patch_3">
    <path d="M 57.6 207.36 
L 57.6 41.472 
" style="fill: none; stroke: #000000; stroke-width: 0.8; stroke-linejoin: miter; stroke-linecap: square"/>
   </g>
   <g id="patch_4">
    <path d="M 414.72 207.36 
L 414.72 41.472 
" style="fill: none; stroke: #000000; stroke-width: 0.8; stroke-linejoin: miter; stroke-linecap: square"/>
   </g>
   <g id="patch_5">
    <path d="M 57.6 207.36 
L 414.72 207.36 
" style="fill: none; stroke: #000000; stroke-width: 0.8; stroke-linejoin: miter; stroke-linecap: square"/>
   </g>
   <g id="patch_6">
    <path d="M 57.6 41.472 
L 414.72 41.472 
" style="fill: none; stroke: #000000; stroke-width: 0.8; stroke-linejoin: miter; stroke-linecap: square"/>
   </g>
  </g>
  <g id="axes_2">
   <g id="patch_7">
    <path d="M 115.2 291.168 
L 414.72 291.168 
L 414.72 285.984 
L 115.2 285.984 
z
" clip-path="url(#p3916b6f88c)" style="fill: #d3d3d3"/>
   </g>
   <g id="patch_8">
    <path d="M 115.2 291.168 
L 217.33632 291.168 
L 217.33632 285.984 
L 115.2 285.984 
z
" clip-path="url(#p3916b6f88c)" style="fill: #1f77b4"/>
   </g>
   <g id="line2d_17">
    <path d="M 217.33632 293.76 
L 217.33632 283.392 
" clip-path="url(#p3a0cd0759f)" style="fill: none; stroke: #ff0000; stroke-linecap: square"/>
   </g>
   <g id="line2d_18">
    <defs>
     <path id="mcf1727dd23" d="M 0 5 
C 1.326016 5 2.597899 4.473168 3.535534 3.535534 
C 4.473168 2.597899 5 1.326016 5 0 
C 5 -1.326016 4.473168 -2.597899 3.535534 -3.535534 
C 2.597899 -4.473168 1.326016 -5 0 -5 
C -1.326016 -5 -2.597899 -4.473168 -3.535534 -3.535534 
C -4.473168 -2.597899 -5 -1.326016 -5 0 
C -5 1.326016 -4.473168 2.597899 -3.535534 3.535534 
C -2.597899 4.473168 -1.326016 5 0 5 
z
" style="stroke: #bfbfbf"/>
    </defs>
    <g>
     <use xlink:href="#mcf1727dd23" x="217.33632" y="288.576" style="fill: #ffffff; stroke: #bfbfbf"/>
    </g>
   </g>
   <g id="text_14">
    <!-- P -->
    <g transform="translate(103.179913 291.335375) scale(0.1 -0.1)">
     <defs>
      <path id="DejaVuSans-50" d="M 1259 4147 
L 1259 2394 
L 2053 2394 
Q 2494 2394 2734 2622 
Q 2975 2850 2975 3272 
Q 2975 3691 2734 3919 
Q 2494 4147 2053 4147 
L 1259 4147 
z
M 628 4666 
L 2053 4666 
Q 2838 4666 3239 4311 
Q 3641 3956 3641 3272 
Q 3641 2581 3239 2228 
Q 2838 1875 2053 1875 
L 1259 1875 
L 1259 0 
L 628 0 
L 628 4666 
z
" transform="scale(0.015625)"/>
     </defs>
     <use xlink:href="#DejaVuSans-50"/>
    </g>
   </g>
   <g id="text_15">
    <!-- $\mathdefault{341}$ -->
    <g transform="translate(420.7104 291.335375) scale(0.1 -0.1)">
     <use xlink:href="#DejaVuSans-33" transform="translate(0 0.78125)"/>
     <use xlink:href="#DejaVuSans-34" transform="translate(63.623047 0.78125)"/>
     <use xlink:href="#DejaVuSans-31" transform="translate(127.246094 0.78125)"/>
    </g>
   </g>
  </g>
  <g id="axes_3">
   <g id="patch_9">
    <path d="M 115.2 308.448 
L 414.72 308.448 
L 414.72 303.264 
L 115.2 303.264 
z
" clip-path="url(#p3751d20a3c)" style="fill: #d3d3d3"/>
   </g>
   <g id="patch_10">
    <path d="M 115.2 308.448 
L 243.9936 308.448 
L 243.9936 303.264 
L 115.2 303.264 
z
" clip-path="url(#p3751d20a3c)" style="fill: #1f77b4"/>
   </g>
   <g id="line2d_19">
    <path d="M 243.9936 311.04 
L 243.9936 300.672 
" clip-path="url(#pb5741d796a)" style="fill: none; stroke: #ff0000; stroke-linecap: square"/>
   </g>
   <g id="line2d_20">
    <g>
     <use xlink:href="#mcf1727dd23" x="243.9936" y="305.856" style="fill: #ffffff; stroke: #bfbfbf"/>
    </g>
   </g>
   <g id="text_16">
    <!-- M -->
    <g transform="translate(100.581475 308.615375) scale(0.1 -0.1)">
     <defs>
      <path id="DejaVuSans-4d" d="M 628 4666 
L 1569 4666 
L 2759 1491 
L 3956 4666 
L 4897 4666 
L 4897 0 
L 4281 0 
L 4281 4097 
L 3078 897 
L 2444 897 
L 1241 4097 
L 1241 0 
L 628 0 
L 628 4666 
z
" transform="scale(0.015625)"/>
     </defs>
     <use xlink:href="#DejaVuSans-4d"/>
    </g>
   </g>
   <g id="text_17">
    <!-- $\mathdefault{430}$ -->
    <g transform="translate(420.7104 308.615375) scale(0.1 -0.1)">
     <use xlink:href="#DejaVuSans-34" transform="translate(0 0.78125)"/>
     <use xlink:href="#DejaVuSans-33" transform="translate(63.623047 0.78125)"/>
     <use xlink:href="#DejaVuSans-30" transform="translate(127.246094 0.78125)"/>
    </g>
   </g>
  </g>
  <g id="legend_1">
   <g id="patch_11">
    <path d="M 247.104688 52.034375 
L 453.8 52.034375 
Q 455.8 52.034375 455.8 50.034375 
L 455.8 7 
Q 455.8 5 453.8 5 
L 247.104688 5 
Q 245.104688 5 245.104688 7 
L 245.104688 50.034375 
Q 245.104688 52.034375 247.104688 52.034375 
z
" style="fill: #ffffff; opacity: 0.8; stroke: #cccccc; stroke-linejoin: miter"/>
   </g>
   <g id="line2d_21">
    <path d="M 249.104688 13.098437 
L 259.104688 13.098437 
L 269.104688 13.098437 
" style="fill: none; stroke: #1f77b4; stroke-width: 1.5; stroke-linecap: square"/>
   </g>
   <g id="text_18">
    <!-- Serie timp originala -->
    <g transform="translate(277.104688 16.598437) scale(0.1 -0.1)">
     <defs>
      <path id="DejaVuSans-53" d="M 3425 4513 
L 3425 3897 
Q 3066 4069 2747 4153 
Q 2428 4238 2131 4238 
Q 1616 4238 1336 4038 
Q 1056 3838 1056 3469 
Q 1056 3159 1242 3001 
Q 1428 2844 1947 2747 
L 2328 2669 
Q 3034 2534 3370 2195 
Q 3706 1856 3706 1288 
Q 3706 609 3251 259 
Q 2797 -91 1919 -91 
Q 1588 -91 1214 -16 
Q 841 59 441 206 
L 441 856 
Q 825 641 1194 531 
Q 1563 422 1919 422 
Q 2459 422 2753 634 
Q 3047 847 3047 1241 
Q 3047 1584 2836 1778 
Q 2625 1972 2144 2069 
L 1759 2144 
Q 1053 2284 737 2584 
Q 422 2884 422 3419 
Q 422 4038 858 4394 
Q 1294 4750 2059 4750 
Q 2388 4750 2728 4690 
Q 3069 4631 3425 4513 
z
" transform="scale(0.015625)"/>
      <path id="DejaVuSans-65" d="M 3597 1894 
L 3597 1613 
L 953 1613 
Q 991 1019 1311 708 
Q 1631 397 2203 397 
Q 2534 397 2845 478 
Q 3156 559 3463 722 
L 3463 178 
Q 3153 47 2828 -22 
Q 2503 -91 2169 -91 
Q 1331 -91 842 396 
Q 353 884 353 1716 
Q 353 2575 817 3079 
Q 1281 3584 2069 3584 
Q 2775 3584 3186 3129 
Q 3597 2675 3597 1894 
z
M 3022 2063 
Q 3016 2534 2758 2815 
Q 2500 3097 2075 3097 
Q 1594 3097 1305 2825 
Q 1016 2553 972 2059 
L 3022 2063 
z
" transform="scale(0.015625)"/>
      <path id="DejaVuSans-72" d="M 2631 2963 
Q 2534 3019 2420 3045 
Q 2306 3072 2169 3072 
Q 1681 3072 1420 2755 
Q 1159 2438 1159 1844 
L 1159 0 
L 581 0 
L 581 3500 
L 1159 3500 
L 1159 2956 
Q 1341 3275 1631 3429 
Q 1922 3584 2338 3584 
Q 2397 3584 2469 3576 
Q 2541 3569 2628 3553 
L 2631 2963 
z
" transform="scale(0.015625)"/>
      <path id="DejaVuSans-69" d="M 603 3500 
L 1178 3500 
L 1178 0 
L 603 0 
L 603 3500 
z
M 603 4863 
L 1178 4863 
L 1178 4134 
L 603 4134 
L 603 4863 
z
" transform="scale(0.015625)"/>
      <path id="DejaVuSans-20" transform="scale(0.015625)"/>
      <path id="DejaVuSans-74" d="M 1172 4494 
L 1172 3500 
L 2356 3500 
L 2356 3053 
L 1172 3053 
L 1172 1153 
Q 1172 725 1289 603 
Q 1406 481 1766 481 
L 2356 481 
L 2356 0 
L 1766 0 
Q 1100 0 847 248 
Q 594 497 594 1153 
L 594 3053 
L 172 3053 
L 172 3500 
L 594 3500 
L 594 4494 
L 1172 4494 
z
" transform="scale(0.015625)"/>
      <path id="DejaVuSans-6d" d="M 3328 2828 
Q 3544 3216 3844 3400 
Q 4144 3584 4550 3584 
Q 5097 3584 5394 3201 
Q 5691 2819 5691 2113 
L 5691 0 
L 5113 0 
L 5113 2094 
Q 5113 2597 4934 2840 
Q 4756 3084 4391 3084 
Q 3944 3084 3684 2787 
Q 3425 2491 3425 1978 
L 3425 0 
L 2847 0 
L 2847 2094 
Q 2847 2600 2669 2842 
Q 2491 3084 2119 3084 
Q 1678 3084 1418 2786 
Q 1159 2488 1159 1978 
L 1159 0 
L 581 0 
L 581 3500 
L 1159 3500 
L 1159 2956 
Q 1356 3278 1631 3431 
Q 1906 3584 2284 3584 
Q 2666 3584 2933 3390 
Q 3200 3197 3328 2828 
z
" transform="scale(0.015625)"/>
      <path id="DejaVuSans-70" d="M 1159 525 
L 1159 -1331 
L 581 -1331 
L 581 3500 
L 1159 3500 
L 1159 2969 
Q 1341 3281 1617 3432 
Q 1894 3584 2278 3584 
Q 2916 3584 3314 3078 
Q 3713 2572 3713 1747 
Q 3713 922 3314 415 
Q 2916 -91 2278 -91 
Q 1894 -91 1617 61 
Q 1341 213 1159 525 
z
M 3116 1747 
Q 3116 2381 2855 2742 
Q 2594 3103 2138 3103 
Q 1681 3103 1420 2742 
Q 1159 2381 1159 1747 
Q 1159 1113 1420 752 
Q 1681 391 2138 391 
Q 2594 391 2855 752 
Q 3116 1113 3116 1747 
z
" transform="scale(0.015625)"/>
      <path id="DejaVuSans-6f" d="M 1959 3097 
Q 1497 3097 1228 2736 
Q 959 2375 959 1747 
Q 959 1119 1226 758 
Q 1494 397 1959 397 
Q 2419 397 2687 759 
Q 2956 1122 2956 1747 
Q 2956 2369 2687 2733 
Q 2419 3097 1959 3097 
z
M 1959 3584 
Q 2709 3584 3137 3096 
Q 3566 2609 3566 1747 
Q 3566 888 3137 398 
Q 2709 -91 1959 -91 
Q 1206 -91 779 398 
Q 353 888 353 1747 
Q 353 2609 779 3096 
Q 1206 3584 1959 3584 
z
" transform="scale(0.015625)"/>
      <path id="DejaVuSans-67" d="M 2906 1791 
Q 2906 2416 2648 2759 
Q 2391 3103 1925 3103 
Q 1463 3103 1205 2759 
Q 947 2416 947 1791 
Q 947 1169 1205 825 
Q 1463 481 1925 481 
Q 2391 481 2648 825 
Q 2906 1169 2906 1791 
z
M 3481 434 
Q 3481 -459 3084 -895 
Q 2688 -1331 1869 -1331 
Q 1566 -1331 1297 -1286 
Q 1028 -1241 775 -1147 
L 775 -588 
Q 1028 -725 1275 -790 
Q 1522 -856 1778 -856 
Q 2344 -856 2625 -561 
Q 2906 -266 2906 331 
L 2906 616 
Q 2728 306 2450 153 
Q 2172 0 1784 0 
Q 1141 0 747 490 
Q 353 981 353 1791 
Q 353 2603 747 3093 
Q 1141 3584 1784 3584 
Q 2172 3584 2450 3431 
Q 2728 3278 2906 2969 
L 2906 3500 
L 3481 3500 
L 3481 434 
z
" transform="scale(0.015625)"/>
      <path id="DejaVuSans-6e" d="M 3513 2113 
L 3513 0 
L 2938 0 
L 2938 2094 
Q 2938 2591 2744 2837 
Q 2550 3084 2163 3084 
Q 1697 3084 1428 2787 
Q 1159 2491 1159 1978 
L 1159 0 
L 581 0 
L 581 3500 
L 1159 3500 
L 1159 2956 
Q 1366 3272 1645 3428 
Q 1925 3584 2291 3584 
Q 2894 3584 3203 3211 
Q 3513 2838 3513 2113 
z
" transform="scale(0.015625)"/>
      <path id="DejaVuSans-61" d="M 2194 1759 
Q 1497 1759 1228 1600 
Q 959 1441 959 1056 
Q 959 750 1161 570 
Q 1363 391 1709 391 
Q 2188 391 2477 730 
Q 2766 1069 2766 1631 
L 2766 1759 
L 2194 1759 
z
M 3341 1997 
L 3341 0 
L 2766 0 
L 2766 531 
Q 2569 213 2275 61 
Q 1981 -91 1556 -91 
Q 1019 -91 701 211 
Q 384 513 384 1019 
Q 384 1609 779 1909 
Q 1175 2209 1959 2209 
L 2766 2209 
L 2766 2266 
Q 2766 2663 2505 2880 
Q 2244 3097 1772 3097 
Q 1472 3097 1187 3025 
Q 903 2953 641 2809 
L 641 3341 
Q 956 3463 1253 3523 
Q 1550 3584 1831 3584 
Q 2591 3584 2966 3190 
Q 3341 2797 3341 1997 
z
" transform="scale(0.015625)"/>
      <path id="DejaVuSans-6c" d="M 603 4863 
L 1178 4863 
L 1178 0 
L 603 0 
L 603 4863 
z
" transform="scale(0.015625)"/>
     </defs>
     <use xlink:href="#DejaVuSans-53"/>
     <use xlink:href="#DejaVuSans-65" x="63.476562"/>
     <use xlink:href="#DejaVuSans-72" x="125"/>
     <use xlink:href="#DejaVuSans-69" x="166.113281"/>
     <use xlink:href="#DejaVuSans-65" x="193.896484"/>
     <use xlink:href="#DejaVuSans-20" x="255.419922"/>
     <use xlink:href="#DejaVuSans-74" x="287.207031"/>
     <use xlink:href="#DejaVuSans-69" x="326.416016"/>
     <use xlink:href="#DejaVuSans-6d" x="354.199219"/>
     <use xlink:href="#DejaVuSans-70" x="451.611328"/>
     <use xlink:href="#DejaVuSans-20" x="515.087891"/>
     <use xlink:href="#DejaVuSans-6f" x="546.875"/>
     <use xlink:href="#DejaVuSans-72" x="608.056641"/>
     <use xlink:href="#DejaVuSans-69" x="649.169922"/>
     <use xlink:href="#DejaVuSans-67" x="676.953125"/>
     <use xlink:href="#DejaVuSans-69" x="740.429688"/>
     <use xlink:href="#DejaVuSans-6e" x="768.212891"/>
     <use xlink:href="#DejaVuSans-61" x="831.591797"/>
     <use xlink:href="#DejaVuSans-6c" x="892.871094"/>
     <use xlink:href="#DejaVuSans-61" x="920.654297"/>
    </g>
   </g>
   <g id="line2d_22">
    <path d="M 249.104688 27.776563 
L 259.104688 27.776563 
L 269.104688 27.776563 
" style="fill: none; stroke: #ff7f0e; stroke-width: 1.5; stroke-linecap: square"/>
   </g>
   <g id="text_19">
    <!-- Valori prezise -->
    <g transform="translate(277.104688 31.276563) scale(0.1 -0.1)">
     <defs>
      <path id="DejaVuSans-56" d="M 1831 0 
L 50 4666 
L 709 4666 
L 2188 738 
L 3669 4666 
L 4325 4666 
L 2547 0 
L 1831 0 
z
" transform="scale(0.015625)"/>
      <path id="DejaVuSans-7a" d="M 353 3500 
L 3084 3500 
L 3084 2975 
L 922 459 
L 3084 459 
L 3084 0 
L 275 0 
L 275 525 
L 2438 3041 
L 353 3041 
L 353 3500 
z
" transform="scale(0.015625)"/>
      <path id="DejaVuSans-73" d="M 2834 3397 
L 2834 2853 
Q 2591 2978 2328 3040 
Q 2066 3103 1784 3103 
Q 1356 3103 1142 2972 
Q 928 2841 928 2578 
Q 928 2378 1081 2264 
Q 1234 2150 1697 2047 
L 1894 2003 
Q 2506 1872 2764 1633 
Q 3022 1394 3022 966 
Q 3022 478 2636 193 
Q 2250 -91 1575 -91 
Q 1294 -91 989 -36 
Q 684 19 347 128 
L 347 722 
Q 666 556 975 473 
Q 1284 391 1588 391 
Q 1994 391 2212 530 
Q 2431 669 2431 922 
Q 2431 1156 2273 1281 
Q 2116 1406 1581 1522 
L 1381 1569 
Q 847 1681 609 1914 
Q 372 2147 372 2553 
Q 372 3047 722 3315 
Q 1072 3584 1716 3584 
Q 2034 3584 2315 3537 
Q 2597 3491 2834 3397 
z
" transform="scale(0.015625)"/>
     </defs>
     <use xlink:href="#DejaVuSans-56"/>
     <use xlink:href="#DejaVuSans-61" x="60.658203"/>
     <use xlink:href="#DejaVuSans-6c" x="121.9375"/>
     <use xlink:href="#DejaVuSans-6f" x="149.720703"/>
     <use xlink:href="#DejaVuSans-72" x="210.902344"/>
     <use xlink:href="#DejaVuSans-69" x="252.015625"/>
     <use xlink:href="#DejaVuSans-20" x="279.798828"/>
     <use xlink:href="#DejaVuSans-70" x="311.585938"/>
     <use xlink:href="#DejaVuSans-72" x="375.0625"/>
     <use xlink:href="#DejaVuSans-65" x="413.925781"/>
     <use xlink:href="#DejaVuSans-7a" x="475.449219"/>
     <use xlink:href="#DejaVuSans-69" x="527.939453"/>
     <use xlink:href="#DejaVuSans-73" x="555.722656"/>
     <use xlink:href="#DejaVuSans-65" x="607.822266"/>
    </g>
   </g>
   <g id="line2d_23">
    <path d="M 249.104688 42.454687 
L 259.104688 42.454687 
L 269.104688 42.454687 
" style="fill: none; stroke: #ff0000; stroke-width: 1.5; stroke-linecap: square"/>
   </g>
   <g id="text_20">
    <!-- Numarul predictiilor luate in model -->
    <g transform="translate(277.104688 45.954687) scale(0.1 -0.1)">
     <defs>
      <path id="DejaVuSans-4e" d="M 628 4666 
L 1478 4666 
L 3547 763 
L 3547 4666 
L 4159 4666 
L 4159 0 
L 3309 0 
L 1241 3903 
L 1241 0 
L 628 0 
L 628 4666 
z
" transform="scale(0.015625)"/>
      <path id="DejaVuSans-75" d="M 544 1381 
L 544 3500 
L 1119 3500 
L 1119 1403 
Q 1119 906 1312 657 
Q 1506 409 1894 409 
Q 2359 409 2629 706 
Q 2900 1003 2900 1516 
L 2900 3500 
L 3475 3500 
L 3475 0 
L 2900 0 
L 2900 538 
Q 2691 219 2414 64 
Q 2138 -91 1772 -91 
Q 1169 -91 856 284 
Q 544 659 544 1381 
z
M 1991 3584 
L 1991 3584 
z
" transform="scale(0.015625)"/>
      <path id="DejaVuSans-64" d="M 2906 2969 
L 2906 4863 
L 3481 4863 
L 3481 0 
L 2906 0 
L 2906 525 
Q 2725 213 2448 61 
Q 2172 -91 1784 -91 
Q 1150 -91 751 415 
Q 353 922 353 1747 
Q 353 2572 751 3078 
Q 1150 3584 1784 3584 
Q 2172 3584 2448 3432 
Q 2725 3281 2906 2969 
z
M 947 1747 
Q 947 1113 1208 752 
Q 1469 391 1925 391 
Q 2381 391 2643 752 
Q 2906 1113 2906 1747 
Q 2906 2381 2643 2742 
Q 2381 3103 1925 3103 
Q 1469 3103 1208 2742 
Q 947 2381 947 1747 
z
" transform="scale(0.015625)"/>
      <path id="DejaVuSans-63" d="M 3122 3366 
L 3122 2828 
Q 2878 2963 2633 3030 
Q 2388 3097 2138 3097 
Q 1578 3097 1268 2742 
Q 959 2388 959 1747 
Q 959 1106 1268 751 
Q 1578 397 2138 397 
Q 2388 397 2633 464 
Q 2878 531 3122 666 
L 3122 134 
Q 2881 22 2623 -34 
Q 2366 -91 2075 -91 
Q 1284 -91 818 406 
Q 353 903 353 1747 
Q 353 2603 823 3093 
Q 1294 3584 2113 3584 
Q 2378 3584 2631 3529 
Q 2884 3475 3122 3366 
z
" transform="scale(0.015625)"/>
     </defs>
     <use xlink:href="#DejaVuSans-4e"/>
     <use xlink:href="#DejaVuSans-75" x="74.804688"/>
     <use xlink:href="#DejaVuSans-6d" x="138.183594"/>
     <use xlink:href="#DejaVuSans-61" x="235.595703"/>
     <use xlink:href="#DejaVuSans-72" x="296.875"/>
     <use xlink:href="#DejaVuSans-75" x="337.988281"/>
     <use xlink:href="#DejaVuSans-6c" x="401.367188"/>
     <use xlink:href="#DejaVuSans-20" x="429.150391"/>
     <use xlink:href="#DejaVuSans-70" x="460.9375"/>
     <use xlink:href="#DejaVuSans-72" x="524.414062"/>
     <use xlink:href="#DejaVuSans-65" x="563.277344"/>
     <use xlink:href="#DejaVuSans-64" x="624.800781"/>
     <use xlink:href="#DejaVuSans-69" x="688.277344"/>
     <use xlink:href="#DejaVuSans-63" x="716.060547"/>
     <use xlink:href="#DejaVuSans-74" x="771.041016"/>
     <use xlink:href="#DejaVuSans-69" x="810.25"/>
     <use xlink:href="#DejaVuSans-69" x="838.033203"/>
     <use xlink:href="#DejaVuSans-6c" x="865.816406"/>
     <use xlink:href="#DejaVuSans-6f" x="893.599609"/>
     <use xlink:href="#DejaVuSans-72" x="954.78125"/>
     <use xlink:href="#DejaVuSans-20" x="995.894531"/>
     <use xlink:href="#DejaVuSans-6c" x="1027.681641"/>
     <use xlink:href="#DejaVuSans-75" x="1055.464844"/>
     <use xlink:href="#DejaVuSans-61" x="1118.84375"/>
     <use xlink:href="#DejaVuSans-74" x="1180.123047"/>
     <use xlink:href="#DejaVuSans-65" x="1219.332031"/>
     <use xlink:href="#DejaVuSans-20" x="1280.855469"/>
     <use xlink:href="#DejaVuSans-69" x="1312.642578"/>
     <use xlink:href="#DejaVuSans-6e" x="1340.425781"/>
     <use xlink:href="#DejaVuSans-20" x="1403.804688"/>
     <use xlink:href="#DejaVuSans-6d" x="1435.591797"/>
     <use xlink:href="#DejaVuSans-6f" x="1533.003906"/>
     <use xlink:href="#DejaVuSans-64" x="1594.185547"/>
     <use xlink:href="#DejaVuSans-65" x="1657.662109"/>
     <use xlink:href="#DejaVuSans-6c" x="1719.185547"/>
    </g>
   </g>
  </g>
 </g>
 <defs>
  <clipPath id="p59250868c6">
   <rect x="57.6" y="41.472" width="357.12" height="165.888"/>
  </clipPath>
  <clipPath id="p3916b6f88c">
   <rect x="115.2" y="283.392" width="299.52" height="10.368"/>
  </clipPath>
  <clipPath id="p3a0cd0759f">
   <path d="M 115.2 291.168 
L 414.72 291.168 
L 414.72 285.984 
L 115.2 285.984 
z
"/>
  </clipPath>
  <clipPath id="p3751d20a3c">
   <rect x="115.2" y="300.672" width="299.52" height="10.368"/>
  </clipPath>
  <clipPath id="pb5741d796a">
   <path d="M 115.2 308.448 
L 414.72 308.448 
L 414.72 303.264 
L 115.2 303.264 
z
"/>
  </clipPath>
 </defs>
</svg>
