<?xml version="1.0" encoding="utf-8" standalone="no"?>
<!DOCTYPE svg PUBLIC "-//W3C//DTD SVG 1.1//EN"
  "http://www.w3.org/Graphics/SVG/1.1/DTD/svg11.dtd">
<svg xmlns:xlink="http://www.w3.org/1999/xlink" width="460.8pt" height="345.6pt" viewBox="0 0 460.8 345.6" xmlns="http://www.w3.org/2000/svg" version="1.1">
 <metadata>
  <rdf:RDF xmlns:dc="http://purl.org/dc/elements/1.1/" xmlns:cc="http://creativecommons.org/ns#" xmlns:rdf="http://www.w3.org/1999/02/22-rdf-syntax-ns#">
   <cc:Work>
    <dc:type rdf:resource="http://purl.org/dc/dcmitype/StillImage"/>
    <dc:date>2024-12-05T22:45:43.401608</dc:date>
    <dc:format>image/svg+xml</dc:format>
    <dc:creator>
     <cc:Agent>
      <dc:title>Matplotlib v3.9.2, https://matplotlib.org/</dc:title>
     </cc:Agent>
    </dc:creator>
   </cc:Work>
  </rdf:RDF>
 </metadata>
 <defs>
  <style type="text/css">*{stroke-linejoin: round; stroke-linecap: butt}</style>
 </defs>
 <g id="figure_1">
  <g id="patch_1">
   <path d="M 0 345.6 
L 460.8 345.6 
L 460.8 0 
L 0 0 
z
" style="fill: #ffffff"/>
  </g>
  <g id="axes_1">
   <g id="patch_2">
    <path d="M 57.6 207.36 
L 414.72 207.36 
L 414.72 41.472 
L 57.6 41.472 
z
" style="fill: #ffffff"/>
   </g>
   <g id="matplotlib.axis_1">
    <g id="xtick_1">
     <g id="line2d_1">
      <defs>
       <path id="m051a2cd865" d="M 0 0 
L 0 3.5 
" style="stroke: #000000; stroke-width: 0.8"/>
      </defs>
      <g>
       <use xlink:href="#m051a2cd865" x="73.832727" y="207.36" style="stroke: #000000; stroke-width: 0.8"/>
      </g>
     </g>
     <g id="text_1">
      <!-- 0 -->
      <g transform="translate(70.651477 221.958438) scale(0.1 -0.1)">
       <defs>
        <path id="DejaVuSans-30" d="M 2034 4250 
Q 1547 4250 1301 3770 
Q 1056 3291 1056 2328 
Q 1056 1369 1301 889 
Q 1547 409 2034 409 
Q 2525 409 2770 889 
Q 3016 1369 3016 2328 
Q 3016 3291 2770 3770 
Q 2525 4250 2034 4250 
z
M 2034 4750 
Q 2819 4750 3233 4129 
Q 3647 3509 3647 2328 
Q 3647 1150 3233 529 
Q 2819 -91 2034 -91 
Q 1250 -91 836 529 
Q 422 1150 422 2328 
Q 422 3509 836 4129 
Q 1250 4750 2034 4750 
z
" transform="scale(0.015625)"/>
       </defs>
       <use xlink:href="#DejaVuSans-30"/>
      </g>
     </g>
    </g>
    <g id="xtick_2">
     <g id="line2d_2">
      <g>
       <use xlink:href="#m051a2cd865" x="138.828632" y="207.36" style="stroke: #000000; stroke-width: 0.8"/>
      </g>
     </g>
     <g id="text_2">
      <!-- 200 -->
      <g transform="translate(129.284882 221.958438) scale(0.1 -0.1)">
       <defs>
        <path id="DejaVuSans-32" d="M 1228 531 
L 3431 531 
L 3431 0 
L 469 0 
L 469 531 
Q 828 903 1448 1529 
Q 2069 2156 2228 2338 
Q 2531 2678 2651 2914 
Q 2772 3150 2772 3378 
Q 2772 3750 2511 3984 
Q 2250 4219 1831 4219 
Q 1534 4219 1204 4116 
Q 875 4013 500 3803 
L 500 4441 
Q 881 4594 1212 4672 
Q 1544 4750 1819 4750 
Q 2544 4750 2975 4387 
Q 3406 4025 3406 3419 
Q 3406 3131 3298 2873 
Q 3191 2616 2906 2266 
Q 2828 2175 2409 1742 
Q 1991 1309 1228 531 
z
" transform="scale(0.015625)"/>
       </defs>
       <use xlink:href="#DejaVuSans-32"/>
       <use xlink:href="#DejaVuSans-30" x="63.623047"/>
       <use xlink:href="#DejaVuSans-30" x="127.246094"/>
      </g>
     </g>
    </g>
    <g id="xtick_3">
     <g id="line2d_3">
      <g>
       <use xlink:href="#m051a2cd865" x="203.824537" y="207.36" style="stroke: #000000; stroke-width: 0.8"/>
      </g>
     </g>
     <g id="text_3">
      <!-- 400 -->
      <g transform="translate(194.280787 221.958438) scale(0.1 -0.1)">
       <defs>
        <path id="DejaVuSans-34" d="M 2419 4116 
L 825 1625 
L 2419 1625 
L 2419 4116 
z
M 2253 4666 
L 3047 4666 
L 3047 1625 
L 3713 1625 
L 3713 1100 
L 3047 1100 
L 3047 0 
L 2419 0 
L 2419 1100 
L 313 1100 
L 313 1709 
L 2253 4666 
z
" transform="scale(0.015625)"/>
       </defs>
       <use xlink:href="#DejaVuSans-34"/>
       <use xlink:href="#DejaVuSans-30" x="63.623047"/>
       <use xlink:href="#DejaVuSans-30" x="127.246094"/>
      </g>
     </g>
    </g>
    <g id="xtick_4">
     <g id="line2d_4">
      <g>
       <use xlink:href="#m051a2cd865" x="268.820442" y="207.36" style="stroke: #000000; stroke-width: 0.8"/>
      </g>
     </g>
     <g id="text_4">
      <!-- 600 -->
      <g transform="translate(259.276692 221.958438) scale(0.1 -0.1)">
       <defs>
        <path id="DejaVuSans-36" d="M 2113 2584 
Q 1688 2584 1439 2293 
Q 1191 2003 1191 1497 
Q 1191 994 1439 701 
Q 1688 409 2113 409 
Q 2538 409 2786 701 
Q 3034 994 3034 1497 
Q 3034 2003 2786 2293 
Q 2538 2584 2113 2584 
z
M 3366 4563 
L 3366 3988 
Q 3128 4100 2886 4159 
Q 2644 4219 2406 4219 
Q 1781 4219 1451 3797 
Q 1122 3375 1075 2522 
Q 1259 2794 1537 2939 
Q 1816 3084 2150 3084 
Q 2853 3084 3261 2657 
Q 3669 2231 3669 1497 
Q 3669 778 3244 343 
Q 2819 -91 2113 -91 
Q 1303 -91 875 529 
Q 447 1150 447 2328 
Q 447 3434 972 4092 
Q 1497 4750 2381 4750 
Q 2619 4750 2861 4703 
Q 3103 4656 3366 4563 
z
" transform="scale(0.015625)"/>
       </defs>
       <use xlink:href="#DejaVuSans-36"/>
       <use xlink:href="#DejaVuSans-30" x="63.623047"/>
       <use xlink:href="#DejaVuSans-30" x="127.246094"/>
      </g>
     </g>
    </g>
    <g id="xtick_5">
     <g id="line2d_5">
      <g>
       <use xlink:href="#m051a2cd865" x="333.816347" y="207.36" style="stroke: #000000; stroke-width: 0.8"/>
      </g>
     </g>
     <g id="text_5">
      <!-- 800 -->
      <g transform="translate(324.272597 221.958438) scale(0.1 -0.1)">
       <defs>
        <path id="DejaVuSans-38" d="M 2034 2216 
Q 1584 2216 1326 1975 
Q 1069 1734 1069 1313 
Q 1069 891 1326 650 
Q 1584 409 2034 409 
Q 2484 409 2743 651 
Q 3003 894 3003 1313 
Q 3003 1734 2745 1975 
Q 2488 2216 2034 2216 
z
M 1403 2484 
Q 997 2584 770 2862 
Q 544 3141 544 3541 
Q 544 4100 942 4425 
Q 1341 4750 2034 4750 
Q 2731 4750 3128 4425 
Q 3525 4100 3525 3541 
Q 3525 3141 3298 2862 
Q 3072 2584 2669 2484 
Q 3125 2378 3379 2068 
Q 3634 1759 3634 1313 
Q 3634 634 3220 271 
Q 2806 -91 2034 -91 
Q 1263 -91 848 271 
Q 434 634 434 1313 
Q 434 1759 690 2068 
Q 947 2378 1403 2484 
z
M 1172 3481 
Q 1172 3119 1398 2916 
Q 1625 2713 2034 2713 
Q 2441 2713 2670 2916 
Q 2900 3119 2900 3481 
Q 2900 3844 2670 4047 
Q 2441 4250 2034 4250 
Q 1625 4250 1398 4047 
Q 1172 3844 1172 3481 
z
" transform="scale(0.015625)"/>
       </defs>
       <use xlink:href="#DejaVuSans-38"/>
       <use xlink:href="#DejaVuSans-30" x="63.623047"/>
       <use xlink:href="#DejaVuSans-30" x="127.246094"/>
      </g>
     </g>
    </g>
    <g id="xtick_6">
     <g id="line2d_6">
      <g>
       <use xlink:href="#m051a2cd865" x="398.812252" y="207.36" style="stroke: #000000; stroke-width: 0.8"/>
      </g>
     </g>
     <g id="text_6">
      <!-- 1000 -->
      <g transform="translate(386.087252 221.958438) scale(0.1 -0.1)">
       <defs>
        <path id="DejaVuSans-31" d="M 794 531 
L 1825 531 
L 1825 4091 
L 703 3866 
L 703 4441 
L 1819 4666 
L 2450 4666 
L 2450 531 
L 3481 531 
L 3481 0 
L 794 0 
L 794 531 
z
" transform="scale(0.015625)"/>
       </defs>
       <use xlink:href="#DejaVuSans-31"/>
       <use xlink:href="#DejaVuSans-30" x="63.623047"/>
       <use xlink:href="#DejaVuSans-30" x="127.246094"/>
       <use xlink:href="#DejaVuSans-30" x="190.869141"/>
      </g>
     </g>
    </g>
   </g>
   <g id="matplotlib.axis_2">
    <g id="ytick_1">
     <g id="line2d_7">
      <defs>
       <path id="ma1709a9079" d="M 0 0 
L -3.5 0 
" style="stroke: #000000; stroke-width: 0.8"/>
      </defs>
      <g>
       <use xlink:href="#ma1709a9079" x="57.6" y="201.475706" style="stroke: #000000; stroke-width: 0.8"/>
      </g>
     </g>
     <g id="text_7">
      <!-- 1.0 -->
      <g transform="translate(34.696875 205.274925) scale(0.1 -0.1)">
       <defs>
        <path id="DejaVuSans-2e" d="M 684 794 
L 1344 794 
L 1344 0 
L 684 0 
L 684 794 
z
" transform="scale(0.015625)"/>
       </defs>
       <use xlink:href="#DejaVuSans-31"/>
       <use xlink:href="#DejaVuSans-2e" x="63.623047"/>
       <use xlink:href="#DejaVuSans-30" x="95.410156"/>
      </g>
     </g>
    </g>
    <g id="ytick_2">
     <g id="line2d_8">
      <g>
       <use xlink:href="#ma1709a9079" x="57.6" y="176.516873" style="stroke: #000000; stroke-width: 0.8"/>
      </g>
     </g>
     <g id="text_8">
      <!-- 1.5 -->
      <g transform="translate(34.696875 180.316092) scale(0.1 -0.1)">
       <defs>
        <path id="DejaVuSans-35" d="M 691 4666 
L 3169 4666 
L 3169 4134 
L 1269 4134 
L 1269 2991 
Q 1406 3038 1543 3061 
Q 1681 3084 1819 3084 
Q 2600 3084 3056 2656 
Q 3513 2228 3513 1497 
Q 3513 744 3044 326 
Q 2575 -91 1722 -91 
Q 1428 -91 1123 -41 
Q 819 9 494 109 
L 494 744 
Q 775 591 1075 516 
Q 1375 441 1709 441 
Q 2250 441 2565 725 
Q 2881 1009 2881 1497 
Q 2881 1984 2565 2268 
Q 2250 2553 1709 2553 
Q 1456 2553 1204 2497 
Q 953 2441 691 2322 
L 691 4666 
z
" transform="scale(0.015625)"/>
       </defs>
       <use xlink:href="#DejaVuSans-31"/>
       <use xlink:href="#DejaVuSans-2e" x="63.623047"/>
       <use xlink:href="#DejaVuSans-35" x="95.410156"/>
      </g>
     </g>
    </g>
    <g id="ytick_3">
     <g id="line2d_9">
      <g>
       <use xlink:href="#ma1709a9079" x="57.6" y="151.558041" style="stroke: #000000; stroke-width: 0.8"/>
      </g>
     </g>
     <g id="text_9">
      <!-- 2.0 -->
      <g transform="translate(34.696875 155.35726) scale(0.1 -0.1)">
       <use xlink:href="#DejaVuSans-32"/>
       <use xlink:href="#DejaVuSans-2e" x="63.623047"/>
       <use xlink:href="#DejaVuSans-30" x="95.410156"/>
      </g>
     </g>
    </g>
    <g id="ytick_4">
     <g id="line2d_10">
      <g>
       <use xlink:href="#ma1709a9079" x="57.6" y="126.599208" style="stroke: #000000; stroke-width: 0.8"/>
      </g>
     </g>
     <g id="text_10">
      <!-- 2.5 -->
      <g transform="translate(34.696875 130.398427) scale(0.1 -0.1)">
       <use xlink:href="#DejaVuSans-32"/>
       <use xlink:href="#DejaVuSans-2e" x="63.623047"/>
       <use xlink:href="#DejaVuSans-35" x="95.410156"/>
      </g>
     </g>
    </g>
    <g id="ytick_5">
     <g id="line2d_11">
      <g>
       <use xlink:href="#ma1709a9079" x="57.6" y="101.640376" style="stroke: #000000; stroke-width: 0.8"/>
      </g>
     </g>
     <g id="text_11">
      <!-- 3.0 -->
      <g transform="translate(34.696875 105.439595) scale(0.1 -0.1)">
       <defs>
        <path id="DejaVuSans-33" d="M 2597 2516 
Q 3050 2419 3304 2112 
Q 3559 1806 3559 1356 
Q 3559 666 3084 287 
Q 2609 -91 1734 -91 
Q 1441 -91 1130 -33 
Q 819 25 488 141 
L 488 750 
Q 750 597 1062 519 
Q 1375 441 1716 441 
Q 2309 441 2620 675 
Q 2931 909 2931 1356 
Q 2931 1769 2642 2001 
Q 2353 2234 1838 2234 
L 1294 2234 
L 1294 2753 
L 1863 2753 
Q 2328 2753 2575 2939 
Q 2822 3125 2822 3475 
Q 2822 3834 2567 4026 
Q 2313 4219 1838 4219 
Q 1578 4219 1281 4162 
Q 984 4106 628 3988 
L 628 4550 
Q 988 4650 1302 4700 
Q 1616 4750 1894 4750 
Q 2613 4750 3031 4423 
Q 3450 4097 3450 3541 
Q 3450 3153 3228 2886 
Q 3006 2619 2597 2516 
z
" transform="scale(0.015625)"/>
       </defs>
       <use xlink:href="#DejaVuSans-33"/>
       <use xlink:href="#DejaVuSans-2e" x="63.623047"/>
       <use xlink:href="#DejaVuSans-30" x="95.410156"/>
      </g>
     </g>
    </g>
    <g id="ytick_6">
     <g id="line2d_12">
      <g>
       <use xlink:href="#ma1709a9079" x="57.6" y="76.681543" style="stroke: #000000; stroke-width: 0.8"/>
      </g>
     </g>
     <g id="text_12">
      <!-- 3.5 -->
      <g transform="translate(34.696875 80.480762) scale(0.1 -0.1)">
       <use xlink:href="#DejaVuSans-33"/>
       <use xlink:href="#DejaVuSans-2e" x="63.623047"/>
       <use xlink:href="#DejaVuSans-35" x="95.410156"/>
      </g>
     </g>
    </g>
    <g id="ytick_7">
     <g id="line2d_13">
      <g>
       <use xlink:href="#ma1709a9079" x="57.6" y="51.722711" style="stroke: #000000; stroke-width: 0.8"/>
      </g>
     </g>
     <g id="text_13">
      <!-- 4.0 -->
      <g transform="translate(34.696875 55.52193) scale(0.1 -0.1)">
       <use xlink:href="#DejaVuSans-34"/>
       <use xlink:href="#DejaVuSans-2e" x="63.623047"/>
       <use xlink:href="#DejaVuSans-30" x="95.410156"/>
      </g>
     </g>
    </g>
   </g>
   <g id="line2d_14">
    <path d="M 73.832727 198.161424 
L 74.157707 199.819636 
L 74.482686 198.226076 
L 74.807666 197.673797 
L 75.132645 198.302115 
L 75.457625 198.350302 
L 75.782604 196.987069 
L 76.107584 194.037918 
L 76.432563 193.435619 
L 76.757543 193.70544 
L 77.082523 194.943178 
L 77.407502 195.116582 
L 77.732482 191.541435 
L 78.057461 192.949749 
L 78.382441 189.955645 
L 78.70742 189.150517 
L 79.0324 190.073558 
L 79.357379 189.592548 
L 79.682359 189.695914 
L 80.007338 188.527132 
L 80.332318 188.841399 
L 80.657297 186.104116 
L 80.982277 189.055955 
L 81.307256 186.604751 
L 81.632236 188.055038 
L 81.957215 187.965936 
L 82.282195 184.930612 
L 82.607174 187.166568 
L 82.932154 187.01027 
L 83.257133 184.67434 
L 83.582113 184.110915 
L 83.907093 183.782157 
L 84.232072 181.928362 
L 84.557052 181.919015 
L 84.882031 185.319484 
L 85.207011 182.6211 
L 85.53199 184.878202 
L 85.85697 182.197887 
L 86.181949 180.506665 
L 86.506929 182.62431 
L 86.831908 183.893596 
L 87.156888 180.266827 
L 87.806847 182.369887 
L 88.131826 181.845939 
L 88.456806 181.735231 
L 88.781785 181.203977 
L 89.106765 179.219722 
L 89.431744 178.994911 
L 89.756724 178.359441 
L 90.081704 182.198584 
L 90.406683 178.481775 
L 90.731663 178.645525 
L 91.056642 179.11909 
L 91.706601 178.556324 
L 92.031581 179.008301 
L 92.35656 179.257628 
L 92.68154 179.330168 
L 93.006519 180.182762 
L 93.331499 178.605259 
L 93.656478 181.541999 
L 93.981458 182.425734 
L 94.306437 178.793459 
L 94.956396 183.169826 
L 95.281376 179.055009 
L 95.606355 179.693968 
L 95.931335 183.271297 
L 96.906274 184.764983 
L 97.231253 184.564966 
L 97.556233 183.048093 
L 97.881212 182.300721 
L 98.206192 182.32281 
L 98.531171 181.91061 
L 98.856151 185.259387 
L 99.18113 185.686135 
L 99.50611 182.287866 
L 99.831089 182.391334 
L 100.156069 186.167194 
L 100.481048 184.835211 
L 100.806028 184.240543 
L 101.131007 187.401473 
L 101.455987 186.189633 
L 101.780966 186.769175 
L 102.105946 185.082917 
L 102.430925 185.623605 
L 102.755905 188.085256 
L 103.080885 189.076972 
L 103.405864 185.99184 
L 103.730844 188.463119 
L 104.055823 185.55697 
L 104.380803 187.747531 
L 104.705782 188.183865 
L 105.030762 187.943337 
L 105.355741 187.556553 
L 105.680721 189.851527 
L 106.0057 188.737518 
L 106.33068 191.848796 
L 106.655659 190.347718 
L 106.980639 190.588202 
L 107.305618 188.609934 
L 107.630598 188.845237 
L 107.955577 190.13855 
L 108.280557 192.863073 
L 108.930516 189.290854 
L 109.255495 189.822104 
L 109.580475 193.322087 
L 109.905455 189.164451 
L 110.555414 194.306073 
L 110.880393 191.502139 
L 111.205373 192.268633 
L 111.530352 192.50593 
L 111.855332 194.584748 
L 112.180311 190.01473 
L 112.505291 193.380553 
L 112.83027 192.199512 
L 113.480229 194.351302 
L 114.130188 194.185469 
L 114.455168 190.409198 
L 114.780147 190.556514 
L 115.105127 194.355108 
L 115.430106 193.454829 
L 115.755086 191.90617 
L 116.080066 192.462257 
L 116.405045 193.863278 
L 117.055004 193.305691 
L 117.379984 191.024459 
L 117.704963 191.57527 
L 118.029943 189.965643 
L 118.354922 192.479993 
L 118.679902 188.236255 
L 119.329861 189.545544 
L 119.65484 189.110819 
L 119.97982 189.199726 
L 120.304799 190.992654 
L 120.954758 190.656734 
L 121.279738 189.416317 
L 121.604717 186.203482 
L 121.929697 188.256884 
L 122.254676 185.978712 
L 122.579656 187.206747 
L 122.904636 187.545181 
L 123.229615 187.492473 
L 123.554595 185.771124 
L 124.204554 186.305332 
L 124.529533 183.403496 
L 124.854513 183.225068 
L 125.504472 185.020429 
L 125.829451 182.072306 
L 126.154431 181.731124 
L 126.47941 183.795749 
L 126.80439 184.532312 
L 127.129369 183.393696 
L 127.454349 179.938355 
L 127.779328 181.97616 
L 128.104308 182.289879 
L 128.429287 178.527013 
L 128.754267 180.559513 
L 129.079247 177.287324 
L 129.404226 180.17946 
L 129.729206 180.079604 
L 130.054185 177.948695 
L 130.379165 178.378109 
L 130.704144 178.526849 
L 131.029124 179.35393 
L 131.354103 174.755806 
L 131.679083 176.041846 
L 132.004062 178.610917 
L 132.654021 173.628749 
L 132.979001 177.386879 
L 133.30398 175.934312 
L 133.62896 172.235333 
L 133.953939 176.074526 
L 134.278919 173.887746 
L 134.603898 173.792061 
L 134.928878 173.241077 
L 135.253857 175.217199 
L 135.578837 173.479622 
L 135.903817 172.633452 
L 136.228796 172.675074 
L 136.553776 170.195021 
L 136.878755 174.060066 
L 137.203735 173.116721 
L 137.528714 170.534474 
L 137.853694 169.488672 
L 138.178673 172.622141 
L 138.503653 172.907186 
L 138.828632 169.073021 
L 139.153612 167.808856 
L 139.478591 167.861117 
L 139.803571 170.694725 
L 140.45353 170.756119 
L 140.778509 168.271007 
L 141.103489 171.859296 
L 141.428468 168.405875 
L 142.078428 171.526281 
L 142.403407 167.254629 
L 142.728387 167.400063 
L 143.053366 167.83726 
L 143.378346 171.579587 
L 143.703325 169.99834 
L 144.028305 170.900402 
L 144.353284 168.558853 
L 144.678264 172.022528 
L 145.003243 168.749855 
L 145.328223 168.008157 
L 145.653202 172.390277 
L 145.978182 170.088572 
L 146.303161 170.307709 
L 146.628141 170.985011 
L 146.95312 170.662977 
L 147.2781 171.741337 
L 147.603079 168.493207 
L 147.928059 169.89441 
L 148.253038 169.603399 
L 148.578018 171.054007 
L 148.902998 171.652713 
L 149.227977 169.895725 
L 149.552957 173.131998 
L 149.877936 172.763788 
L 150.202916 171.930666 
L 150.527895 172.241207 
L 150.852875 174.280817 
L 151.177854 170.637688 
L 151.827813 174.434374 
L 152.152793 171.710599 
L 152.477772 174.499829 
L 152.802752 174.034535 
L 153.127731 172.866256 
L 153.452711 172.517809 
L 153.77769 177.333701 
L 154.10267 176.991463 
L 154.427649 174.359456 
L 154.752629 177.265845 
L 155.402588 175.668729 
L 155.727568 173.993832 
L 156.052547 174.298929 
L 156.377527 176.295508 
L 156.702506 179.478383 
L 157.027486 179.237077 
L 157.352465 176.073468 
L 157.677445 179.842668 
L 158.002424 180.549413 
L 158.327404 178.300787 
L 158.652383 177.999316 
L 158.977363 177.089713 
L 159.302342 176.895048 
L 159.627322 181.522489 
L 159.952301 180.442079 
L 160.277281 178.142764 
L 160.60226 181.974737 
L 160.92724 181.53964 
L 161.252219 178.645102 
L 161.577199 179.960268 
L 161.902179 179.666701 
L 162.227158 181.521849 
L 162.552138 180.519922 
L 162.877117 180.234358 
L 163.202097 181.800465 
L 163.527076 179.400197 
L 163.852056 180.426473 
L 164.177035 178.955702 
L 164.502015 182.24994 
L 164.826994 179.874219 
L 165.151974 182.726125 
L 165.476953 178.284588 
L 165.801933 178.886807 
L 166.126912 181.358241 
L 166.451892 177.631486 
L 166.776871 181.334832 
L 167.101851 181.923519 
L 167.42683 179.195537 
L 167.75181 182.022796 
L 168.07679 179.120201 
L 168.401769 181.226112 
L 168.726749 180.623152 
L 169.051728 178.307332 
L 169.376708 179.36401 
L 169.701687 177.160991 
L 170.026667 179.479535 
L 170.351646 177.286258 
L 170.676626 178.363841 
L 171.001605 175.529319 
L 171.326585 178.269535 
L 171.651564 177.62206 
L 171.976544 175.663573 
L 172.301523 178.207856 
L 172.951482 175.272387 
L 173.276462 172.916439 
L 173.601441 176.48436 
L 174.2514 171.593572 
L 174.90136 173.572998 
L 175.226339 170.158238 
L 175.551319 173.499382 
L 175.876298 170.748457 
L 176.201278 172.946398 
L 176.526257 171.323942 
L 176.851237 167.206088 
L 177.176216 167.776875 
L 177.501196 170.747818 
L 177.826175 169.950842 
L 178.151155 167.439978 
L 178.476134 167.383662 
L 178.801114 168.212809 
L 179.126093 163.772422 
L 179.451073 165.080273 
L 179.776052 162.767045 
L 180.101032 162.073511 
L 180.426011 163.460157 
L 180.750991 164.076322 
L 181.075971 161.454891 
L 181.40095 163.65366 
L 182.050909 157.889449 
L 182.375889 159.233204 
L 182.700868 158.951139 
L 183.025848 156.360261 
L 183.350827 157.10978 
L 183.675807 158.783419 
L 184.000786 154.550818 
L 184.325766 157.440563 
L 184.650745 153.301607 
L 184.975725 156.845704 
L 185.300704 154.700376 
L 185.625684 151.661691 
L 185.950663 154.197927 
L 186.275643 154.43751 
L 186.600622 152.438977 
L 186.925602 151.259465 
L 187.250581 150.897624 
L 187.575561 150.056295 
L 188.22552 148.927519 
L 188.5505 150.245781 
L 188.875479 146.714164 
L 189.525438 148.847584 
L 189.850418 148.762303 
L 190.175397 145.020326 
L 190.500377 145.947252 
L 190.825356 144.709732 
L 191.150336 143.998756 
L 191.475315 145.195336 
L 191.800295 145.66765 
L 192.125274 142.475586 
L 192.450254 141.690347 
L 192.775233 141.250676 
L 193.100213 141.384876 
L 193.425192 143.471177 
L 193.750172 144.672278 
L 194.075152 143.541592 
L 194.400131 143.689551 
L 194.725111 142.468693 
L 195.05009 139.535011 
L 195.37507 141.064962 
L 195.700049 138.751302 
L 196.025029 141.4869 
L 196.350008 141.481564 
L 196.674988 139.527651 
L 196.999967 142.513834 
L 197.324947 139.748715 
L 197.649926 139.438518 
L 197.974906 140.522508 
L 198.299885 139.260482 
L 198.624865 139.146219 
L 198.949844 141.467031 
L 199.599803 137.219718 
L 199.924783 137.574445 
L 200.574742 140.962619 
L 200.899722 141.392404 
L 201.549681 138.233547 
L 201.87466 141.813332 
L 202.19964 139.422257 
L 202.524619 138.760898 
L 202.849599 141.138723 
L 203.174578 140.346528 
L 203.499558 138.790446 
L 203.824537 139.853869 
L 204.149517 138.154942 
L 204.474496 139.775968 
L 204.799476 142.804663 
L 205.449435 141.428241 
L 205.774414 140.343867 
L 206.424373 142.696528 
L 206.749353 142.992728 
L 207.074333 141.784341 
L 207.399312 144.347738 
L 207.724292 142.726142 
L 208.374251 145.615088 
L 208.69923 144.234955 
L 209.02421 143.505626 
L 209.349189 143.198286 
L 209.674169 141.987863 
L 210.324128 146.582498 
L 210.649107 146.376563 
L 210.974087 143.389441 
L 211.299066 143.878172 
L 211.624046 146.46001 
L 211.949025 147.485638 
L 212.274005 144.196198 
L 212.598984 145.158876 
L 212.923964 145.006602 
L 213.573923 146.01292 
L 213.898903 148.46852 
L 214.223882 148.129052 
L 214.548862 146.924769 
L 214.873841 147.498094 
L 215.198821 149.241821 
L 215.5238 149.474562 
L 215.84878 150.493684 
L 216.173759 150.753861 
L 216.498739 146.851455 
L 216.823718 149.914481 
L 217.798657 146.480252 
L 218.123636 150.10108 
L 218.448616 148.077626 
L 219.098575 151.298532 
L 219.423554 150.912774 
L 219.748534 151.296 
L 220.073514 147.300296 
L 220.398493 149.527947 
L 221.048452 147.085362 
L 221.373432 150.715668 
L 221.698411 151.701639 
L 222.34837 148.526263 
L 222.67335 150.475113 
L 222.998329 150.586548 
L 223.323309 147.0926 
L 223.648288 148.799165 
L 223.973268 146.483349 
L 224.623227 149.299153 
L 224.948206 149.47566 
L 225.273186 148.133358 
L 225.598165 145.872678 
L 225.923145 147.960727 
L 226.248124 146.583608 
L 226.573104 147.354671 
L 226.898084 145.638904 
L 227.223063 145.206012 
L 227.548043 145.000554 
L 227.873022 147.381741 
L 228.198002 146.590957 
L 228.522981 143.251777 
L 228.847961 146.851761 
L 229.17294 142.623932 
L 229.49792 143.124494 
L 229.822899 145.760496 
L 230.147879 144.197251 
L 230.472858 145.33258 
L 230.797838 144.501689 
L 231.122817 140.646092 
L 231.447797 141.659293 
L 231.772776 141.631193 
L 232.097756 139.830295 
L 232.422735 140.931539 
L 232.747715 138.542132 
L 233.072695 142.43473 
L 233.397674 138.485831 
L 233.722654 139.352657 
L 234.047633 137.241003 
L 234.372613 140.674965 
L 235.022572 138.579668 
L 235.347551 136.113748 
L 235.672531 137.546855 
L 235.99751 135.059459 
L 236.32249 136.569847 
L 236.647469 136.823404 
L 237.297428 135.671716 
L 237.622408 136.594259 
L 237.947387 131.898407 
L 238.272367 133.950872 
L 238.597346 131.143569 
L 239.247305 133.162687 
L 239.572285 132.793482 
L 239.897265 130.60962 
L 240.222244 131.827543 
L 240.547224 130.863794 
L 240.872203 132.418582 
L 241.197183 128.727619 
L 241.522162 127.43446 
L 241.847142 127.595653 
L 242.172121 130.183791 
L 242.497101 126.959976 
L 242.82208 130.847081 
L 243.472039 128.581356 
L 244.121998 128.893912 
L 244.446978 125.826328 
L 244.771957 128.68869 
L 245.096937 124.302603 
L 245.421916 126.087355 
L 246.071876 123.320547 
L 246.396855 125.37593 
L 246.721835 126.604234 
L 247.046814 124.142334 
L 247.371794 123.643747 
L 247.696773 126.928662 
L 248.021753 126.851928 
L 248.346732 123.142777 
L 248.671712 121.645035 
L 248.996691 124.822728 
L 249.321671 123.329918 
L 249.64665 124.390356 
L 249.97163 124.706592 
L 250.296609 125.232426 
L 250.621589 122.034258 
L 250.946568 121.944377 
L 251.271548 122.277556 
L 251.596527 124.051398 
L 251.921507 123.161736 
L 252.246486 121.433836 
L 252.571466 122.407709 
L 252.896446 125.56743 
L 253.221425 121.224386 
L 253.546405 123.674042 
L 253.871384 122.161349 
L 254.196364 123.725326 
L 254.521343 122.702204 
L 254.846323 125.771003 
L 255.171302 126.333383 
L 255.496282 124.345974 
L 255.821261 125.717561 
L 256.146241 126.046635 
L 256.47122 125.124714 
L 256.7962 126.617382 
L 257.446159 127.293174 
L 257.771138 125.703594 
L 258.096118 123.292663 
L 258.421097 127.254498 
L 258.746077 125.784032 
L 259.071057 125.37976 
L 259.396036 126.310246 
L 259.721016 126.280732 
L 260.045995 128.714585 
L 260.370975 127.855917 
L 260.695954 125.748258 
L 261.020934 128.754601 
L 261.345913 126.809058 
L 261.670893 125.55191 
L 261.995872 125.907046 
L 262.320852 129.118612 
L 262.645831 126.522068 
L 262.970811 130.201242 
L 263.29579 129.551779 
L 263.62077 129.961032 
L 263.945749 127.251698 
L 264.270729 128.327704 
L 264.595708 130.796069 
L 264.920688 130.845107 
L 265.245667 132.503722 
L 265.570647 128.622539 
L 265.895627 132.020977 
L 266.220606 131.610911 
L 266.545586 129.288648 
L 266.870565 129.882915 
L 267.195545 130.806728 
L 267.520524 132.688702 
L 267.845504 129.977898 
L 268.495463 130.216392 
L 268.820442 129.525605 
L 269.145422 131.721319 
L 269.470401 131.137967 
L 269.795381 133.871971 
L 270.12036 134.408543 
L 270.44534 134.577984 
L 270.770319 134.077424 
L 271.095299 130.768975 
L 271.420278 134.488039 
L 272.070238 131.202537 
L 272.395217 131.729828 
L 272.720197 134.392623 
L 273.370156 129.954871 
L 273.695135 133.754965 
L 274.020115 129.65473 
L 274.345094 134.203642 
L 274.670074 130.721343 
L 274.995053 131.19574 
L 275.320033 131.419537 
L 275.645012 131.131662 
L 275.969992 132.793647 
L 276.294971 128.461949 
L 276.619951 130.148386 
L 276.94493 128.673398 
L 277.26991 132.334993 
L 277.594889 127.637486 
L 277.919869 128.033463 
L 278.244848 130.908837 
L 278.569828 130.665355 
L 278.894808 128.26095 
L 279.219787 129.394484 
L 279.544767 129.416281 
L 279.869746 126.243264 
L 280.519705 125.290334 
L 280.844685 124.303993 
L 281.169664 126.697746 
L 281.494644 128.067733 
L 281.819623 122.690736 
L 282.144603 126.466746 
L 282.469582 124.714741 
L 282.794562 125.155436 
L 283.119541 121.988117 
L 283.444521 122.004084 
L 283.7695 122.62509 
L 284.09448 120.829511 
L 284.419459 120.649571 
L 284.744439 121.139193 
L 285.394398 119.060958 
L 285.719378 119.429597 
L 286.044357 118.589683 
L 286.369337 116.169583 
L 286.694316 117.140855 
L 287.019296 115.044253 
L 287.344275 114.085001 
L 287.669255 114.912327 
L 287.994234 117.038167 
L 288.319214 115.257353 
L 288.644193 114.554708 
L 288.969173 110.466609 
L 289.619132 113.696698 
L 289.944111 110.61942 
L 290.269091 110.99655 
L 290.59407 108.627532 
L 290.91905 110.308826 
L 291.244029 109.149193 
L 291.569009 108.540988 
L 291.893989 105.946112 
L 292.218968 108.82651 
L 292.543948 104.321938 
L 292.868927 107.573167 
L 293.518886 105.575842 
L 293.843866 102.654076 
L 294.168845 104.068485 
L 294.493825 103.09949 
L 294.818804 103.72712 
L 295.143784 99.044244 
L 295.793743 100.612393 
L 296.118722 99.237405 
L 296.443702 101.19897 
L 296.768681 100.248759 
L 297.41864 94.809279 
L 297.74362 98.786043 
L 298.0686 93.783711 
L 298.718559 96.993016 
L 299.368518 95.65435 
L 299.693497 93.046851 
L 300.018477 93.836142 
L 300.343456 91.811509 
L 300.668436 91.113687 
L 300.993415 94.21106 
L 301.318395 91.213705 
L 301.643374 89.620909 
L 301.968354 93.686786 
L 302.293333 92.206912 
L 302.618313 93.030288 
L 302.943292 89.303177 
L 303.268272 89.034388 
L 303.593251 90.143216 
L 303.918231 89.331716 
L 304.24321 89.957305 
L 304.56819 87.283241 
L 304.89317 88.526626 
L 305.218149 88.460577 
L 305.543129 89.866792 
L 305.868108 90.582899 
L 306.193088 88.169936 
L 306.518067 87.637706 
L 306.843047 85.987208 
L 307.168026 88.847994 
L 307.493006 89.496387 
L 307.817985 86.847432 
L 308.142965 88.966667 
L 308.467944 87.301211 
L 308.792924 86.963971 
L 309.117903 89.852269 
L 309.442883 87.248111 
L 309.767862 90.240478 
L 310.092842 89.180114 
L 310.417821 89.502479 
L 310.742801 88.326121 
L 311.067781 90.345695 
L 311.39276 86.134259 
L 312.042719 89.477757 
L 312.367699 90.108981 
L 312.692678 86.33849 
L 313.017658 90.544863 
L 313.342637 87.027912 
L 313.667617 88.760665 
L 313.992596 89.403515 
L 314.317576 88.468342 
L 314.642555 88.179856 
L 314.967535 89.519165 
L 315.292514 92.269249 
L 315.617494 87.842027 
L 315.942473 88.140295 
L 316.267453 90.904213 
L 316.592432 89.388152 
L 316.917412 91.385933 
L 317.242391 90.257841 
L 317.567371 93.28315 
L 317.892351 91.568322 
L 318.21733 91.191337 
L 318.54231 91.385368 
L 318.867289 90.578264 
L 319.192269 92.935731 
L 319.517248 90.261082 
L 319.842228 91.374393 
L 320.167207 91.49634 
L 320.492187 92.607556 
L 320.817166 94.258428 
L 321.142146 93.548978 
L 321.467125 95.330602 
L 321.792105 93.19812 
L 322.117084 93.51211 
L 322.442064 92.723285 
L 322.767043 92.708111 
L 323.092023 96.768044 
L 323.417002 96.018041 
L 323.741982 97.165978 
L 324.066962 94.910395 
L 324.391941 94.879365 
L 324.716921 95.104803 
L 325.0419 96.765785 
L 325.36688 94.885486 
L 325.691859 96.825474 
L 326.016839 94.179142 
L 326.341818 93.795453 
L 326.666798 94.322989 
L 326.991777 93.147363 
L 327.316757 97.378153 
L 327.641736 96.064602 
L 327.966716 97.765945 
L 328.291695 97.304511 
L 328.616675 97.040353 
L 329.266634 94.142924 
L 329.591613 97.474027 
L 329.916593 94.816658 
L 330.241572 97.548987 
L 330.566552 94.925342 
L 331.216511 93.454264 
L 331.541491 93.96493 
L 331.86647 92.906894 
L 332.19145 94.199546 
L 332.516429 95.001119 
L 332.841409 94.333619 
L 333.166388 91.868042 
L 333.491368 95.759568 
L 333.816347 93.919217 
L 334.466306 94.20702 
L 334.791286 92.704365 
L 335.116265 91.937601 
L 335.441245 93.799398 
L 335.766224 89.874739 
L 336.091204 93.321735 
L 336.416183 90.248552 
L 336.741163 89.825165 
L 337.066143 92.813533 
L 337.391122 88.831768 
L 337.716102 89.762007 
L 338.041081 91.727091 
L 338.366061 87.433012 
L 338.69104 87.463163 
L 339.01602 89.16689 
L 339.340999 88.611136 
L 339.665979 87.440766 
L 339.990958 88.734602 
L 340.315938 85.469148 
L 340.640917 87.597915 
L 340.965897 86.957679 
L 341.290876 87.787099 
L 341.615856 87.424006 
L 341.940835 84.487331 
L 342.265815 83.21382 
L 342.915774 82.021491 
L 343.240753 80.333878 
L 343.565733 83.489444 
L 343.890713 81.482149 
L 344.540672 80.424433 
L 344.865651 80.374139 
L 345.190631 81.355093 
L 345.51561 77.937659 
L 345.84059 77.779507 
L 346.165569 77.968947 
L 346.490549 78.781744 
L 346.815528 77.326088 
L 347.140508 77.120534 
L 347.465487 78.520604 
L 347.790467 77.925502 
L 348.115446 74.43126 
L 348.440426 74.840129 
L 348.765405 74.259869 
L 349.090385 76.438133 
L 349.740344 72.076958 
L 350.065324 71.903119 
L 350.390303 74.279102 
L 351.040262 70.822344 
L 351.365242 71.596794 
L 351.690221 73.136997 
L 352.015201 69.044079 
L 352.34018 73.290388 
L 352.66516 69.542079 
L 352.990139 69.376146 
L 353.315119 67.973965 
L 353.640098 67.744892 
L 353.965078 68.304907 
L 354.290057 69.707217 
L 354.615037 68.669039 
L 354.940016 67.212025 
L 355.589975 69.361058 
L 355.914955 66.787714 
L 356.239934 66.535687 
L 356.564914 65.632594 
L 356.889894 67.823242 
L 357.214873 67.534452 
L 357.539853 69.227098 
L 357.864832 68.128063 
L 358.189812 68.469218 
L 358.514791 67.396633 
L 358.839771 68.166919 
L 359.16475 67.912359 
L 359.48973 68.136506 
L 359.814709 67.673418 
L 360.139689 67.919729 
L 360.464668 65.558726 
L 360.789648 67.661888 
L 361.114627 68.144185 
L 361.439607 67.721117 
L 361.764586 68.704671 
L 362.089566 66.748339 
L 362.414545 68.281144 
L 362.739525 66.218057 
L 363.064505 66.426632 
L 363.389484 64.440026 
L 363.714464 66.488567 
L 364.039443 65.768839 
L 364.364423 68.90752 
L 364.689402 66.970539 
L 365.014382 69.379887 
L 365.339361 68.227817 
L 365.98932 69.097825 
L 366.3143 67.451073 
L 366.639279 70.291267 
L 366.964259 67.349722 
L 367.289238 68.492279 
L 367.614218 68.77391 
L 367.939197 70.598247 
L 368.264177 67.125897 
L 368.589156 70.225395 
L 368.914136 70.542399 
L 369.239115 67.59664 
L 369.564095 71.468379 
L 370.214054 67.489248 
L 370.539034 68.171851 
L 370.864013 71.14466 
L 371.513972 68.488688 
L 371.838952 72.829399 
L 372.163931 68.786638 
L 372.488911 70.911 
L 373.13887 69.585778 
L 373.463849 71.594317 
L 373.788829 70.626691 
L 374.113808 74.414859 
L 374.438788 69.913771 
L 374.763767 71.418501 
L 375.088747 70.335761 
L 375.413726 74.398763 
L 375.738706 73.584294 
L 376.063686 70.925769 
L 376.388665 73.487382 
L 376.713645 70.605344 
L 377.038624 74.957374 
L 377.363604 71.903145 
L 377.688583 75.192349 
L 378.013563 71.97588 
L 378.338542 72.721197 
L 378.663522 71.096409 
L 378.988501 73.037307 
L 379.313481 72.284272 
L 379.63846 71.063108 
L 379.96344 72.072831 
L 380.288419 75.132296 
L 380.613399 71.902741 
L 380.938378 72.721799 
L 381.263358 71.877803 
L 381.588337 73.89544 
L 381.913317 71.840508 
L 382.238296 71.574058 
L 382.563276 74.59868 
L 382.888256 73.975863 
L 383.213235 71.338752 
L 383.538215 73.073126 
L 383.863194 72.074435 
L 384.188174 70.619117 
L 384.513153 70.145829 
L 384.838133 72.967482 
L 385.163112 71.893584 
L 385.813071 68.253298 
L 386.138051 68.748345 
L 386.46303 71.693929 
L 386.78801 68.773799 
L 387.112989 67.20728 
L 387.437969 69.068367 
L 387.762948 69.895326 
L 388.087928 68.369141 
L 388.412907 69.514618 
L 388.737887 66.393267 
L 389.062867 65.160528 
L 389.387846 66.93759 
L 389.712826 64.22382 
L 390.037805 66.081919 
L 390.362785 64.896989 
L 390.687764 65.022136 
L 391.012744 65.302856 
L 391.337723 63.836109 
L 391.662703 64.469131 
L 391.987682 61.384792 
L 392.312662 63.695235 
L 392.637641 61.980669 
L 392.962621 59.315201 
L 393.2876 61.447176 
L 393.61258 58.472652 
L 393.937559 59.509356 
L 394.262539 59.195624 
L 394.587518 57.031299 
L 395.237477 56.942354 
L 395.562457 54.614133 
L 395.887437 56.795169 
L 396.862375 50.602162 
L 397.187355 50.0948 
L 397.512334 49.012364 
L 397.837314 50.250552 
L 398.162293 52.223194 
L 398.487273 51.396314 
L 398.487273 51.396314 
" clip-path="url(#pf472ff38cc)" style="fill: none; stroke: #1f77b4; stroke-width: 1.5; stroke-linecap: square"/>
   </g>
   <g id="line2d_15">
    <path d="M 259.071057 125.375386 
L 259.396036 126.312574 
L 259.721016 126.280099 
L 260.045995 128.712932 
L 260.370975 127.856742 
L 260.695954 125.74532 
L 261.020934 128.757099 
L 261.345913 126.806859 
L 261.670893 125.551303 
L 261.995872 125.908778 
L 262.320852 129.115963 
L 262.645831 126.520964 
L 262.970811 130.202624 
L 263.29579 129.549117 
L 263.62077 129.961756 
L 263.945749 127.2517 
L 264.270729 128.327588 
L 264.595708 130.799113 
L 264.920688 130.84145 
L 265.245667 132.503003 
L 265.570647 128.623541 
L 265.895627 132.018927 
L 266.220606 131.612819 
L 266.545586 129.285185 
L 266.870565 129.884596 
L 267.195545 130.805556 
L 267.520524 132.687913 
L 267.845504 129.977638 
L 268.495463 130.215666 
L 268.820442 129.525428 
L 269.145422 131.721743 
L 269.470401 131.135914 
L 269.795381 133.871943 
L 270.12036 134.406191 
L 270.44534 134.579199 
L 270.770319 134.075197 
L 271.095299 130.769452 
L 271.420278 134.487736 
L 272.070238 131.201141 
L 272.395217 131.729301 
L 272.720197 134.392927 
L 273.370156 129.954566 
L 273.695135 133.755181 
L 274.020115 129.654699 
L 274.345094 134.204086 
L 274.670074 130.720905 
L 274.995053 131.193486 
L 275.320033 131.421687 
L 275.645012 131.127847 
L 275.969992 132.79592 
L 276.294971 128.459278 
L 276.619951 130.146976 
L 276.94493 128.674931 
L 277.26991 132.333533 
L 277.594889 127.637003 
L 277.919869 128.031751 
L 278.244848 130.912181 
L 278.569828 130.662535 
L 278.894808 128.262712 
L 279.219787 129.391645 
L 279.544767 129.41919 
L 279.869746 126.240715 
L 280.519705 125.292232 
L 280.844685 124.300447 
L 281.169664 126.699731 
L 281.494644 128.064191 
L 281.819623 122.691403 
L 282.144603 126.46384 
L 282.469582 124.717668 
L 282.794562 125.153036 
L 283.119541 121.990051 
L 283.444521 122.001397 
L 283.7695 122.627006 
L 284.09448 120.829444 
L 284.419459 120.646834 
L 284.744439 121.140262 
L 285.394398 119.062272 
L 285.719378 119.429039 
L 286.044357 118.590237 
L 286.369337 116.167869 
L 286.694316 117.143197 
L 287.019296 115.042103 
L 287.344275 114.087148 
L 287.669255 114.909524 
L 287.994234 117.038221 
L 288.319214 115.257217 
L 288.644193 114.551088 
L 288.969173 110.468467 
L 289.619132 113.697718 
L 289.944111 110.616066 
L 290.269091 110.997823 
L 290.59407 108.626723 
L 290.91905 110.308483 
L 291.244029 109.150459 
L 291.569009 108.53839 
L 291.893989 105.946529 
L 292.218968 108.826145 
L 292.543948 104.322738 
L 292.868927 107.57258 
L 293.518886 105.571769 
L 293.843866 102.65692 
L 294.168845 104.066622 
L 294.493825 103.09961 
L 294.818804 103.727312 
L 295.143784 99.040813 
L 295.793743 100.611367 
L 296.118722 99.236329 
L 296.443702 101.198715 
L 296.768681 100.248928 
L 297.41864 94.813578 
L 297.74362 98.784337 
L 298.0686 93.784924 
L 298.718559 96.992887 
L 299.368518 95.653863 
L 299.693497 93.045388 
L 300.018477 93.836776 
L 300.343456 91.812385 
L 300.668436 91.110091 
L 300.993415 94.21513 
L 301.318395 91.210379 
L 301.643374 89.62125 
L 301.968354 93.686347 
L 302.293333 92.20678 
L 302.618313 93.02709 
L 302.943292 89.305469 
L 303.268272 89.031277 
L 303.593251 90.147692 
L 303.918231 89.328851 
L 304.24321 89.955015 
L 304.56819 87.286275 
L 304.89317 88.521848 
L 305.218149 88.463125 
L 305.543129 89.86567 
L 305.868108 90.581334 
L 306.193088 88.169006 
L 306.518067 87.638141 
L 306.843047 85.98715 
L 307.168026 88.849741 
L 307.493006 89.493405 
L 307.817985 86.84737 
L 308.142965 88.965596 
L 308.467944 87.299544 
L 308.792924 86.9647 
L 309.117903 89.851634 
L 309.442883 87.247572 
L 309.767862 90.238672 
L 310.092842 89.181424 
L 310.417821 89.49998 
L 310.742801 88.328438 
L 311.067781 90.344071 
L 311.39276 86.132524 
L 312.042719 89.477009 
L 312.367699 90.10714 
L 312.692678 86.339142 
L 313.017658 90.542644 
L 313.342637 87.029109 
L 313.667617 88.759155 
L 313.992596 89.403728 
L 314.317576 88.468288 
L 314.642555 88.177348 
L 314.967535 89.520777 
L 315.292514 92.267534 
L 315.617494 87.842105 
L 315.942473 88.13777 
L 316.267453 90.906128 
L 316.592432 89.386016 
L 316.917412 91.386124 
L 317.242391 90.256404 
L 317.567371 93.282343 
L 317.892351 91.568368 
L 318.21733 91.190083 
L 318.54231 91.386444 
L 318.867289 90.578247 
L 319.192269 92.935732 
L 319.517248 90.258936 
L 319.842228 91.375845 
L 320.167207 91.493972 
L 320.492187 92.60812 
L 320.817166 94.257557 
L 321.142146 93.54779 
L 321.467125 95.32882 
L 321.792105 93.197833 
L 322.117084 93.513376 
L 322.442064 92.722016 
L 322.767043 92.707395 
L 323.092023 96.76808 
L 323.417002 96.016068 
L 323.741982 97.164924 
L 324.066962 94.909482 
L 324.391941 94.879731 
L 324.716921 95.105064 
L 325.0419 96.76619 
L 325.36688 94.884211 
L 325.691859 96.824761 
L 326.016839 94.180351 
L 326.341818 93.79375 
L 326.666798 94.324994 
L 326.991777 93.144613 
L 327.316757 97.377856 
L 327.641736 96.063908 
L 327.966716 97.762549 
L 328.616675 97.036634 
L 329.266634 94.142402 
L 329.591613 97.473394 
L 329.916593 94.816004 
L 330.241572 97.548284 
L 330.566552 94.924476 
L 331.216511 93.454926 
L 331.541491 93.963509 
L 331.86647 92.909155 
L 332.19145 94.196626 
L 332.516429 95.002946 
L 332.841409 94.330847 
L 333.166388 91.868715 
L 333.491368 95.758407 
L 333.816347 93.91834 
L 334.466306 94.205933 
L 334.791286 92.704512 
L 335.116265 91.935494 
L 335.441245 93.801126 
L 335.766224 89.871493 
L 336.091204 93.322865 
L 336.416183 90.248593 
L 336.741163 89.823728 
L 337.066143 92.816589 
L 337.391122 88.828678 
L 337.716102 89.761316 
L 338.041081 91.729701 
L 338.366061 87.429093 
L 338.69104 87.465176 
L 339.01602 89.166881 
L 339.340999 88.60786 
L 339.665979 87.441995 
L 339.990958 88.730897 
L 340.315938 85.468903 
L 340.640917 87.600023 
L 340.965897 86.954581 
L 341.290876 87.787956 
L 341.615856 87.42453 
L 341.940835 84.482905 
L 342.265815 83.218496 
L 342.915774 82.020959 
L 343.240753 80.334672 
L 343.565733 83.487452 
L 343.890713 81.482102 
L 344.540672 80.424053 
L 344.865651 80.374095 
L 345.190631 81.355355 
L 345.51561 77.934461 
L 345.84059 77.781028 
L 346.165569 77.968871 
L 346.490549 78.779354 
L 346.815528 77.327101 
L 347.140508 77.117616 
L 347.465487 78.520687 
L 347.790467 77.924346 
L 348.115446 74.431556 
L 348.440426 74.839893 
L 348.765405 74.261718 
L 349.090385 76.4355 
L 349.740344 72.07545 
L 350.065324 71.902748 
L 350.390303 74.280387 
L 351.040262 70.8221 
L 351.365242 71.595068 
L 351.690221 73.136747 
L 352.015201 69.043921 
L 352.34018 73.289977 
L 352.66516 69.540837 
L 352.990139 69.374691 
L 353.315119 67.975255 
L 353.640098 67.744008 
L 353.965078 68.304495 
L 354.290057 69.706389 
L 354.615037 68.66778 
L 354.940016 67.212411 
L 355.589975 69.360228 
L 355.914955 66.788152 
L 356.239934 66.534879 
L 356.564914 65.631747 
L 356.889894 67.824154 
L 357.214873 67.532513 
L 357.539853 69.226981 
L 357.864832 68.125588 
L 358.189812 68.468497 
L 358.514791 67.397808 
L 358.839771 68.165213 
L 359.16475 67.913506 
L 359.48973 68.134436 
L 359.814709 67.673661 
L 360.139689 67.919108 
L 360.464668 65.558798 
L 360.789648 67.660945 
L 361.114627 68.144342 
L 361.439607 67.719008 
L 361.764586 68.703624 
L 362.089566 66.748461 
L 362.414545 68.280931 
L 362.739525 66.218393 
L 363.064505 66.424237 
L 363.389484 64.441333 
L 363.714464 66.487155 
L 364.039443 65.768405 
L 364.364423 68.906362 
L 364.689402 66.969082 
L 365.014382 69.377948 
L 365.339361 68.229044 
L 365.98932 69.098732 
L 366.3143 67.450487 
L 366.639279 70.289503 
L 366.964259 67.351796 
L 367.289238 68.488223 
L 367.614218 68.776876 
L 367.939197 70.594579 
L 368.264177 67.126587 
L 368.589156 70.224311 
L 368.914136 70.543385 
L 369.239115 67.593696 
L 369.564095 71.470639 
L 370.214054 67.488109 
L 370.539034 68.173928 
L 370.864013 71.141464 
L 371.513972 68.483497 
L 371.838952 72.83112 
L 372.163931 68.78432 
L 372.488911 70.911607 
L 373.13887 69.585729 
L 373.463849 71.5943 
L 373.788829 70.625158 
L 374.113808 74.415112 
L 374.438788 69.912468 
L 374.763767 71.418028 
L 375.088747 70.335957 
L 375.413726 74.399047 
L 375.738706 73.58266 
L 376.063686 70.923269 
L 376.388665 73.488938 
L 376.713645 70.60467 
L 377.038624 74.956913 
L 377.363604 71.901947 
L 377.688583 75.191192 
L 378.013563 71.976323 
L 378.338542 72.718077 
L 378.663522 71.100843 
L 378.988501 73.033129 
L 379.313481 72.285471 
L 379.63846 71.060316 
L 379.96344 72.07424 
L 380.288419 75.130507 
L 380.613399 71.901562 
L 380.938378 72.722029 
L 381.263358 71.876078 
L 381.588337 73.896819 
L 381.913317 71.837277 
L 382.238296 71.576442 
L 382.563276 74.596426 
L 382.888256 73.976447 
L 383.213235 71.33484 
L 383.538215 73.075717 
L 383.863194 72.073458 
L 384.188174 70.61785 
L 384.513153 70.147175 
L 384.838133 72.966325 
L 385.163112 71.893349 
L 385.813071 68.254055 
L 386.138051 68.749226 
L 386.46303 71.692695 
L 386.78801 68.771241 
L 387.112989 67.208556 
L 387.437969 69.066959 
L 387.762948 69.89448 
L 388.087928 68.368024 
L 388.412907 69.514376 
L 388.737887 66.391994 
L 389.062867 65.159621 
L 389.387846 66.939578 
L 389.712826 64.222588 
L 390.037805 66.080645 
L 390.362785 64.89672 
L 390.687764 65.020562 
L 391.012744 65.305072 
L 391.337723 63.832658 
L 391.662703 64.470278 
L 391.987682 61.384903 
L 392.312662 63.69392 
L 392.637641 61.98084 
L 392.962621 59.313336 
L 393.2876 61.447872 
L 393.61258 58.472633 
L 393.937559 59.506435 
L 394.262539 59.195994 
L 394.587518 57.030417 
L 395.237477 56.94412 
L 395.562457 54.611705 
L 395.887437 56.795881 
L 396.862375 50.60538 
L 397.187355 50.091935 
L 397.512334 49.012957 
L 397.837314 50.250375 
L 398.162293 52.220123 
L 398.487273 51.396654 
L 398.487273 51.396654 
" clip-path="url(#pf472ff38cc)" style="fill: none; stroke: #ff7f0e; stroke-width: 1.5; stroke-linecap: square"/>
   </g>
   <g id="line2d_16">
    <path d="M 259.071057 207.36 
L 259.071057 41.472 
" clip-path="url(#pf472ff38cc)" style="fill: none; stroke: #ff0000; stroke-width: 1.5; stroke-linecap: square"/>
   </g>
   <g id="patch_3">
    <path d="M 57.6 207.36 
L 57.6 41.472 
" style="fill: none; stroke: #000000; stroke-width: 0.8; stroke-linejoin: miter; stroke-linecap: square"/>
   </g>
   <g id="patch_4">
    <path d="M 414.72 207.36 
L 414.72 41.472 
" style="fill: none; stroke: #000000; stroke-width: 0.8; stroke-linejoin: miter; stroke-linecap: square"/>
   </g>
   <g id="patch_5">
    <path d="M 57.6 207.36 
L 414.72 207.36 
" style="fill: none; stroke: #000000; stroke-width: 0.8; stroke-linejoin: miter; stroke-linecap: square"/>
   </g>
   <g id="patch_6">
    <path d="M 57.6 41.472 
L 414.72 41.472 
" style="fill: none; stroke: #000000; stroke-width: 0.8; stroke-linejoin: miter; stroke-linecap: square"/>
   </g>
  </g>
  <g id="axes_2">
   <g id="patch_7">
    <path d="M 115.2 291.168 
L 414.72 291.168 
L 414.72 285.984 
L 115.2 285.984 
z
" clip-path="url(#p9dc5da1cc0)" style="fill: #d3d3d3"/>
   </g>
   <g id="patch_8">
    <path d="M 115.2 291.168 
L 243.9936 291.168 
L 243.9936 285.984 
L 115.2 285.984 
z
" clip-path="url(#p9dc5da1cc0)" style="fill: #1f77b4"/>
   </g>
   <g id="line2d_17">
    <path d="M 243.9936 293.76 
L 243.9936 283.392 
" clip-path="url(#p03fc611071)" style="fill: none; stroke: #ff0000; stroke-linecap: square"/>
   </g>
   <g id="line2d_18">
    <defs>
     <path id="m51534b2ba7" d="M 0 5 
C 1.326016 5 2.597899 4.473168 3.535534 3.535534 
C 4.473168 2.597899 5 1.326016 5 0 
C 5 -1.326016 4.473168 -2.597899 3.535534 -3.535534 
C 2.597899 -4.473168 1.326016 -5 0 -5 
C -1.326016 -5 -2.597899 -4.473168 -3.535534 -3.535534 
C -4.473168 -2.597899 -5 -1.326016 -5 0 
C -5 1.326016 -4.473168 2.597899 -3.535534 3.535534 
C -2.597899 4.473168 -1.326016 5 0 5 
z
" style="stroke: #bfbfbf"/>
    </defs>
    <g>
     <use xlink:href="#m51534b2ba7" x="243.9936" y="288.576" style="fill: #ffffff; stroke: #bfbfbf"/>
    </g>
   </g>
   <g id="text_14">
    <!-- P -->
    <g transform="translate(103.179913 291.335375) scale(0.1 -0.1)">
     <defs>
      <path id="DejaVuSans-50" d="M 1259 4147 
L 1259 2394 
L 2053 2394 
Q 2494 2394 2734 2622 
Q 2975 2850 2975 3272 
Q 2975 3691 2734 3919 
Q 2494 4147 2053 4147 
L 1259 4147 
z
M 628 4666 
L 2053 4666 
Q 2838 4666 3239 4311 
Q 3641 3956 3641 3272 
Q 3641 2581 3239 2228 
Q 2838 1875 2053 1875 
L 1259 1875 
L 1259 0 
L 628 0 
L 628 4666 
z
" transform="scale(0.015625)"/>
     </defs>
     <use xlink:href="#DejaVuSans-50"/>
    </g>
   </g>
   <g id="text_15">
    <!-- $\mathdefault{430}$ -->
    <g transform="translate(420.7104 291.335375) scale(0.1 -0.1)">
     <use xlink:href="#DejaVuSans-34" transform="translate(0 0.78125)"/>
     <use xlink:href="#DejaVuSans-33" transform="translate(63.623047 0.78125)"/>
     <use xlink:href="#DejaVuSans-30" transform="translate(127.246094 0.78125)"/>
    </g>
   </g>
  </g>
  <g id="axes_3">
   <g id="patch_9">
    <path d="M 115.2 308.448 
L 414.72 308.448 
L 414.72 303.264 
L 115.2 303.264 
z
" clip-path="url(#pa062a539b7)" style="fill: #d3d3d3"/>
   </g>
   <g id="patch_10">
    <path d="M 115.2 308.448 
L 243.9936 308.448 
L 243.9936 303.264 
L 115.2 303.264 
z
" clip-path="url(#pa062a539b7)" style="fill: #1f77b4"/>
   </g>
   <g id="line2d_19">
    <path d="M 243.9936 311.04 
L 243.9936 300.672 
" clip-path="url(#p92320cb619)" style="fill: none; stroke: #ff0000; stroke-linecap: square"/>
   </g>
   <g id="line2d_20">
    <g>
     <use xlink:href="#m51534b2ba7" x="243.9936" y="305.856" style="fill: #ffffff; stroke: #bfbfbf"/>
    </g>
   </g>
   <g id="text_16">
    <!-- M -->
    <g transform="translate(100.581475 308.615375) scale(0.1 -0.1)">
     <defs>
      <path id="DejaVuSans-4d" d="M 628 4666 
L 1569 4666 
L 2759 1491 
L 3956 4666 
L 4897 4666 
L 4897 0 
L 4281 0 
L 4281 4097 
L 3078 897 
L 2444 897 
L 1241 4097 
L 1241 0 
L 628 0 
L 628 4666 
z
" transform="scale(0.015625)"/>
     </defs>
     <use xlink:href="#DejaVuSans-4d"/>
    </g>
   </g>
   <g id="text_17">
    <!-- $\mathdefault{430}$ -->
    <g transform="translate(420.7104 308.615375) scale(0.1 -0.1)">
     <use xlink:href="#DejaVuSans-34" transform="translate(0 0.78125)"/>
     <use xlink:href="#DejaVuSans-33" transform="translate(63.623047 0.78125)"/>
     <use xlink:href="#DejaVuSans-30" transform="translate(127.246094 0.78125)"/>
    </g>
   </g>
  </g>
  <g id="legend_1">
   <g id="patch_11">
    <path d="M 247.104688 52.034375 
L 453.8 52.034375 
Q 455.8 52.034375 455.8 50.034375 
L 455.8 7 
Q 455.8 5 453.8 5 
L 247.104688 5 
Q 245.104688 5 245.104688 7 
L 245.104688 50.034375 
Q 245.104688 52.034375 247.104688 52.034375 
z
" style="fill: #ffffff; opacity: 0.8; stroke: #cccccc; stroke-linejoin: miter"/>
   </g>
   <g id="line2d_21">
    <path d="M 249.104688 13.098437 
L 259.104688 13.098437 
L 269.104688 13.098437 
" style="fill: none; stroke: #1f77b4; stroke-width: 1.5; stroke-linecap: square"/>
   </g>
   <g id="text_18">
    <!-- Serie timp originala -->
    <g transform="translate(277.104688 16.598437) scale(0.1 -0.1)">
     <defs>
      <path id="DejaVuSans-53" d="M 3425 4513 
L 3425 3897 
Q 3066 4069 2747 4153 
Q 2428 4238 2131 4238 
Q 1616 4238 1336 4038 
Q 1056 3838 1056 3469 
Q 1056 3159 1242 3001 
Q 1428 2844 1947 2747 
L 2328 2669 
Q 3034 2534 3370 2195 
Q 3706 1856 3706 1288 
Q 3706 609 3251 259 
Q 2797 -91 1919 -91 
Q 1588 -91 1214 -16 
Q 841 59 441 206 
L 441 856 
Q 825 641 1194 531 
Q 1563 422 1919 422 
Q 2459 422 2753 634 
Q 3047 847 3047 1241 
Q 3047 1584 2836 1778 
Q 2625 1972 2144 2069 
L 1759 2144 
Q 1053 2284 737 2584 
Q 422 2884 422 3419 
Q 422 4038 858 4394 
Q 1294 4750 2059 4750 
Q 2388 4750 2728 4690 
Q 3069 4631 3425 4513 
z
" transform="scale(0.015625)"/>
      <path id="DejaVuSans-65" d="M 3597 1894 
L 3597 1613 
L 953 1613 
Q 991 1019 1311 708 
Q 1631 397 2203 397 
Q 2534 397 2845 478 
Q 3156 559 3463 722 
L 3463 178 
Q 3153 47 2828 -22 
Q 2503 -91 2169 -91 
Q 1331 -91 842 396 
Q 353 884 353 1716 
Q 353 2575 817 3079 
Q 1281 3584 2069 3584 
Q 2775 3584 3186 3129 
Q 3597 2675 3597 1894 
z
M 3022 2063 
Q 3016 2534 2758 2815 
Q 2500 3097 2075 3097 
Q 1594 3097 1305 2825 
Q 1016 2553 972 2059 
L 3022 2063 
z
" transform="scale(0.015625)"/>
      <path id="DejaVuSans-72" d="M 2631 2963 
Q 2534 3019 2420 3045 
Q 2306 3072 2169 3072 
Q 1681 3072 1420 2755 
Q 1159 2438 1159 1844 
L 1159 0 
L 581 0 
L 581 3500 
L 1159 3500 
L 1159 2956 
Q 1341 3275 1631 3429 
Q 1922 3584 2338 3584 
Q 2397 3584 2469 3576 
Q 2541 3569 2628 3553 
L 2631 2963 
z
" transform="scale(0.015625)"/>
      <path id="DejaVuSans-69" d="M 603 3500 
L 1178 3500 
L 1178 0 
L 603 0 
L 603 3500 
z
M 603 4863 
L 1178 4863 
L 1178 4134 
L 603 4134 
L 603 4863 
z
" transform="scale(0.015625)"/>
      <path id="DejaVuSans-20" transform="scale(0.015625)"/>
      <path id="DejaVuSans-74" d="M 1172 4494 
L 1172 3500 
L 2356 3500 
L 2356 3053 
L 1172 3053 
L 1172 1153 
Q 1172 725 1289 603 
Q 1406 481 1766 481 
L 2356 481 
L 2356 0 
L 1766 0 
Q 1100 0 847 248 
Q 594 497 594 1153 
L 594 3053 
L 172 3053 
L 172 3500 
L 594 3500 
L 594 4494 
L 1172 4494 
z
" transform="scale(0.015625)"/>
      <path id="DejaVuSans-6d" d="M 3328 2828 
Q 3544 3216 3844 3400 
Q 4144 3584 4550 3584 
Q 5097 3584 5394 3201 
Q 5691 2819 5691 2113 
L 5691 0 
L 5113 0 
L 5113 2094 
Q 5113 2597 4934 2840 
Q 4756 3084 4391 3084 
Q 3944 3084 3684 2787 
Q 3425 2491 3425 1978 
L 3425 0 
L 2847 0 
L 2847 2094 
Q 2847 2600 2669 2842 
Q 2491 3084 2119 3084 
Q 1678 3084 1418 2786 
Q 1159 2488 1159 1978 
L 1159 0 
L 581 0 
L 581 3500 
L 1159 3500 
L 1159 2956 
Q 1356 3278 1631 3431 
Q 1906 3584 2284 3584 
Q 2666 3584 2933 3390 
Q 3200 3197 3328 2828 
z
" transform="scale(0.015625)"/>
      <path id="DejaVuSans-70" d="M 1159 525 
L 1159 -1331 
L 581 -1331 
L 581 3500 
L 1159 3500 
L 1159 2969 
Q 1341 3281 1617 3432 
Q 1894 3584 2278 3584 
Q 2916 3584 3314 3078 
Q 3713 2572 3713 1747 
Q 3713 922 3314 415 
Q 2916 -91 2278 -91 
Q 1894 -91 1617 61 
Q 1341 213 1159 525 
z
M 3116 1747 
Q 3116 2381 2855 2742 
Q 2594 3103 2138 3103 
Q 1681 3103 1420 2742 
Q 1159 2381 1159 1747 
Q 1159 1113 1420 752 
Q 1681 391 2138 391 
Q 2594 391 2855 752 
Q 3116 1113 3116 1747 
z
" transform="scale(0.015625)"/>
      <path id="DejaVuSans-6f" d="M 1959 3097 
Q 1497 3097 1228 2736 
Q 959 2375 959 1747 
Q 959 1119 1226 758 
Q 1494 397 1959 397 
Q 2419 397 2687 759 
Q 2956 1122 2956 1747 
Q 2956 2369 2687 2733 
Q 2419 3097 1959 3097 
z
M 1959 3584 
Q 2709 3584 3137 3096 
Q 3566 2609 3566 1747 
Q 3566 888 3137 398 
Q 2709 -91 1959 -91 
Q 1206 -91 779 398 
Q 353 888 353 1747 
Q 353 2609 779 3096 
Q 1206 3584 1959 3584 
z
" transform="scale(0.015625)"/>
      <path id="DejaVuSans-67" d="M 2906 1791 
Q 2906 2416 2648 2759 
Q 2391 3103 1925 3103 
Q 1463 3103 1205 2759 
Q 947 2416 947 1791 
Q 947 1169 1205 825 
Q 1463 481 1925 481 
Q 2391 481 2648 825 
Q 2906 1169 2906 1791 
z
M 3481 434 
Q 3481 -459 3084 -895 
Q 2688 -1331 1869 -1331 
Q 1566 -1331 1297 -1286 
Q 1028 -1241 775 -1147 
L 775 -588 
Q 1028 -725 1275 -790 
Q 1522 -856 1778 -856 
Q 2344 -856 2625 -561 
Q 2906 -266 2906 331 
L 2906 616 
Q 2728 306 2450 153 
Q 2172 0 1784 0 
Q 1141 0 747 490 
Q 353 981 353 1791 
Q 353 2603 747 3093 
Q 1141 3584 1784 3584 
Q 2172 3584 2450 3431 
Q 2728 3278 2906 2969 
L 2906 3500 
L 3481 3500 
L 3481 434 
z
" transform="scale(0.015625)"/>
      <path id="DejaVuSans-6e" d="M 3513 2113 
L 3513 0 
L 2938 0 
L 2938 2094 
Q 2938 2591 2744 2837 
Q 2550 3084 2163 3084 
Q 1697 3084 1428 2787 
Q 1159 2491 1159 1978 
L 1159 0 
L 581 0 
L 581 3500 
L 1159 3500 
L 1159 2956 
Q 1366 3272 1645 3428 
Q 1925 3584 2291 3584 
Q 2894 3584 3203 3211 
Q 3513 2838 3513 2113 
z
" transform="scale(0.015625)"/>
      <path id="DejaVuSans-61" d="M 2194 1759 
Q 1497 1759 1228 1600 
Q 959 1441 959 1056 
Q 959 750 1161 570 
Q 1363 391 1709 391 
Q 2188 391 2477 730 
Q 2766 1069 2766 1631 
L 2766 1759 
L 2194 1759 
z
M 3341 1997 
L 3341 0 
L 2766 0 
L 2766 531 
Q 2569 213 2275 61 
Q 1981 -91 1556 -91 
Q 1019 -91 701 211 
Q 384 513 384 1019 
Q 384 1609 779 1909 
Q 1175 2209 1959 2209 
L 2766 2209 
L 2766 2266 
Q 2766 2663 2505 2880 
Q 2244 3097 1772 3097 
Q 1472 3097 1187 3025 
Q 903 2953 641 2809 
L 641 3341 
Q 956 3463 1253 3523 
Q 1550 3584 1831 3584 
Q 2591 3584 2966 3190 
Q 3341 2797 3341 1997 
z
" transform="scale(0.015625)"/>
      <path id="DejaVuSans-6c" d="M 603 4863 
L 1178 4863 
L 1178 0 
L 603 0 
L 603 4863 
z
" transform="scale(0.015625)"/>
     </defs>
     <use xlink:href="#DejaVuSans-53"/>
     <use xlink:href="#DejaVuSans-65" x="63.476562"/>
     <use xlink:href="#DejaVuSans-72" x="125"/>
     <use xlink:href="#DejaVuSans-69" x="166.113281"/>
     <use xlink:href="#DejaVuSans-65" x="193.896484"/>
     <use xlink:href="#DejaVuSans-20" x="255.419922"/>
     <use xlink:href="#DejaVuSans-74" x="287.207031"/>
     <use xlink:href="#DejaVuSans-69" x="326.416016"/>
     <use xlink:href="#DejaVuSans-6d" x="354.199219"/>
     <use xlink:href="#DejaVuSans-70" x="451.611328"/>
     <use xlink:href="#DejaVuSans-20" x="515.087891"/>
     <use xlink:href="#DejaVuSans-6f" x="546.875"/>
     <use xlink:href="#DejaVuSans-72" x="608.056641"/>
     <use xlink:href="#DejaVuSans-69" x="649.169922"/>
     <use xlink:href="#DejaVuSans-67" x="676.953125"/>
     <use xlink:href="#DejaVuSans-69" x="740.429688"/>
     <use xlink:href="#DejaVuSans-6e" x="768.212891"/>
     <use xlink:href="#DejaVuSans-61" x="831.591797"/>
     <use xlink:href="#DejaVuSans-6c" x="892.871094"/>
     <use xlink:href="#DejaVuSans-61" x="920.654297"/>
    </g>
   </g>
   <g id="line2d_22">
    <path d="M 249.104688 27.776563 
L 259.104688 27.776563 
L 269.104688 27.776563 
" style="fill: none; stroke: #ff7f0e; stroke-width: 1.5; stroke-linecap: square"/>
   </g>
   <g id="text_19">
    <!-- Valori prezise -->
    <g transform="translate(277.104688 31.276563) scale(0.1 -0.1)">
     <defs>
      <path id="DejaVuSans-56" d="M 1831 0 
L 50 4666 
L 709 4666 
L 2188 738 
L 3669 4666 
L 4325 4666 
L 2547 0 
L 1831 0 
z
" transform="scale(0.015625)"/>
      <path id="DejaVuSans-7a" d="M 353 3500 
L 3084 3500 
L 3084 2975 
L 922 459 
L 3084 459 
L 3084 0 
L 275 0 
L 275 525 
L 2438 3041 
L 353 3041 
L 353 3500 
z
" transform="scale(0.015625)"/>
      <path id="DejaVuSans-73" d="M 2834 3397 
L 2834 2853 
Q 2591 2978 2328 3040 
Q 2066 3103 1784 3103 
Q 1356 3103 1142 2972 
Q 928 2841 928 2578 
Q 928 2378 1081 2264 
Q 1234 2150 1697 2047 
L 1894 2003 
Q 2506 1872 2764 1633 
Q 3022 1394 3022 966 
Q 3022 478 2636 193 
Q 2250 -91 1575 -91 
Q 1294 -91 989 -36 
Q 684 19 347 128 
L 347 722 
Q 666 556 975 473 
Q 1284 391 1588 391 
Q 1994 391 2212 530 
Q 2431 669 2431 922 
Q 2431 1156 2273 1281 
Q 2116 1406 1581 1522 
L 1381 1569 
Q 847 1681 609 1914 
Q 372 2147 372 2553 
Q 372 3047 722 3315 
Q 1072 3584 1716 3584 
Q 2034 3584 2315 3537 
Q 2597 3491 2834 3397 
z
" transform="scale(0.015625)"/>
     </defs>
     <use xlink:href="#DejaVuSans-56"/>
     <use xlink:href="#DejaVuSans-61" x="60.658203"/>
     <use xlink:href="#DejaVuSans-6c" x="121.9375"/>
     <use xlink:href="#DejaVuSans-6f" x="149.720703"/>
     <use xlink:href="#DejaVuSans-72" x="210.902344"/>
     <use xlink:href="#DejaVuSans-69" x="252.015625"/>
     <use xlink:href="#DejaVuSans-20" x="279.798828"/>
     <use xlink:href="#DejaVuSans-70" x="311.585938"/>
     <use xlink:href="#DejaVuSans-72" x="375.0625"/>
     <use xlink:href="#DejaVuSans-65" x="413.925781"/>
     <use xlink:href="#DejaVuSans-7a" x="475.449219"/>
     <use xlink:href="#DejaVuSans-69" x="527.939453"/>
     <use xlink:href="#DejaVuSans-73" x="555.722656"/>
     <use xlink:href="#DejaVuSans-65" x="607.822266"/>
    </g>
   </g>
   <g id="line2d_23">
    <path d="M 249.104688 42.454687 
L 259.104688 42.454687 
L 269.104688 42.454687 
" style="fill: none; stroke: #ff0000; stroke-width: 1.5; stroke-linecap: square"/>
   </g>
   <g id="text_20">
    <!-- Numarul predictiilor luate in model -->
    <g transform="translate(277.104688 45.954687) scale(0.1 -0.1)">
     <defs>
      <path id="DejaVuSans-4e" d="M 628 4666 
L 1478 4666 
L 3547 763 
L 3547 4666 
L 4159 4666 
L 4159 0 
L 3309 0 
L 1241 3903 
L 1241 0 
L 628 0 
L 628 4666 
z
" transform="scale(0.015625)"/>
      <path id="DejaVuSans-75" d="M 544 1381 
L 544 3500 
L 1119 3500 
L 1119 1403 
Q 1119 906 1312 657 
Q 1506 409 1894 409 
Q 2359 409 2629 706 
Q 2900 1003 2900 1516 
L 2900 3500 
L 3475 3500 
L 3475 0 
L 2900 0 
L 2900 538 
Q 2691 219 2414 64 
Q 2138 -91 1772 -91 
Q 1169 -91 856 284 
Q 544 659 544 1381 
z
M 1991 3584 
L 1991 3584 
z
" transform="scale(0.015625)"/>
      <path id="DejaVuSans-64" d="M 2906 2969 
L 2906 4863 
L 3481 4863 
L 3481 0 
L 2906 0 
L 2906 525 
Q 2725 213 2448 61 
Q 2172 -91 1784 -91 
Q 1150 -91 751 415 
Q 353 922 353 1747 
Q 353 2572 751 3078 
Q 1150 3584 1784 3584 
Q 2172 3584 2448 3432 
Q 2725 3281 2906 2969 
z
M 947 1747 
Q 947 1113 1208 752 
Q 1469 391 1925 391 
Q 2381 391 2643 752 
Q 2906 1113 2906 1747 
Q 2906 2381 2643 2742 
Q 2381 3103 1925 3103 
Q 1469 3103 1208 2742 
Q 947 2381 947 1747 
z
" transform="scale(0.015625)"/>
      <path id="DejaVuSans-63" d="M 3122 3366 
L 3122 2828 
Q 2878 2963 2633 3030 
Q 2388 3097 2138 3097 
Q 1578 3097 1268 2742 
Q 959 2388 959 1747 
Q 959 1106 1268 751 
Q 1578 397 2138 397 
Q 2388 397 2633 464 
Q 2878 531 3122 666 
L 3122 134 
Q 2881 22 2623 -34 
Q 2366 -91 2075 -91 
Q 1284 -91 818 406 
Q 353 903 353 1747 
Q 353 2603 823 3093 
Q 1294 3584 2113 3584 
Q 2378 3584 2631 3529 
Q 2884 3475 3122 3366 
z
" transform="scale(0.015625)"/>
     </defs>
     <use xlink:href="#DejaVuSans-4e"/>
     <use xlink:href="#DejaVuSans-75" x="74.804688"/>
     <use xlink:href="#DejaVuSans-6d" x="138.183594"/>
     <use xlink:href="#DejaVuSans-61" x="235.595703"/>
     <use xlink:href="#DejaVuSans-72" x="296.875"/>
     <use xlink:href="#DejaVuSans-75" x="337.988281"/>
     <use xlink:href="#DejaVuSans-6c" x="401.367188"/>
     <use xlink:href="#DejaVuSans-20" x="429.150391"/>
     <use xlink:href="#DejaVuSans-70" x="460.9375"/>
     <use xlink:href="#DejaVuSans-72" x="524.414062"/>
     <use xlink:href="#DejaVuSans-65" x="563.277344"/>
     <use xlink:href="#DejaVuSans-64" x="624.800781"/>
     <use xlink:href="#DejaVuSans-69" x="688.277344"/>
     <use xlink:href="#DejaVuSans-63" x="716.060547"/>
     <use xlink:href="#DejaVuSans-74" x="771.041016"/>
     <use xlink:href="#DejaVuSans-69" x="810.25"/>
     <use xlink:href="#DejaVuSans-69" x="838.033203"/>
     <use xlink:href="#DejaVuSans-6c" x="865.816406"/>
     <use xlink:href="#DejaVuSans-6f" x="893.599609"/>
     <use xlink:href="#DejaVuSans-72" x="954.78125"/>
     <use xlink:href="#DejaVuSans-20" x="995.894531"/>
     <use xlink:href="#DejaVuSans-6c" x="1027.681641"/>
     <use xlink:href="#DejaVuSans-75" x="1055.464844"/>
     <use xlink:href="#DejaVuSans-61" x="1118.84375"/>
     <use xlink:href="#DejaVuSans-74" x="1180.123047"/>
     <use xlink:href="#DejaVuSans-65" x="1219.332031"/>
     <use xlink:href="#DejaVuSans-20" x="1280.855469"/>
     <use xlink:href="#DejaVuSans-69" x="1312.642578"/>
     <use xlink:href="#DejaVuSans-6e" x="1340.425781"/>
     <use xlink:href="#DejaVuSans-20" x="1403.804688"/>
     <use xlink:href="#DejaVuSans-6d" x="1435.591797"/>
     <use xlink:href="#DejaVuSans-6f" x="1533.003906"/>
     <use xlink:href="#DejaVuSans-64" x="1594.185547"/>
     <use xlink:href="#DejaVuSans-65" x="1657.662109"/>
     <use xlink:href="#DejaVuSans-6c" x="1719.185547"/>
    </g>
   </g>
  </g>
 </g>
 <defs>
  <clipPath id="pf472ff38cc">
   <rect x="57.6" y="41.472" width="357.12" height="165.888"/>
  </clipPath>
  <clipPath id="p9dc5da1cc0">
   <rect x="115.2" y="283.392" width="299.52" height="10.368"/>
  </clipPath>
  <clipPath id="p03fc611071">
   <path d="M 115.2 291.168 
L 414.72 291.168 
L 414.72 285.984 
L 115.2 285.984 
z
"/>
  </clipPath>
  <clipPath id="pa062a539b7">
   <rect x="115.2" y="300.672" width="299.52" height="10.368"/>
  </clipPath>
  <clipPath id="p92320cb619">
   <path d="M 115.2 308.448 
L 414.72 308.448 
L 414.72 303.264 
L 115.2 303.264 
z
"/>
  </clipPath>
 </defs>
</svg>
