<?xml version="1.0" encoding="utf-8" standalone="no"?>
<!DOCTYPE svg PUBLIC "-//W3C//DTD SVG 1.1//EN"
  "http://www.w3.org/Graphics/SVG/1.1/DTD/svg11.dtd">
<svg xmlns:xlink="http://www.w3.org/1999/xlink" width="460.8pt" height="345.6pt" viewBox="0 0 460.8 345.6" xmlns="http://www.w3.org/2000/svg" version="1.1">
 <metadata>
  <rdf:RDF xmlns:dc="http://purl.org/dc/elements/1.1/" xmlns:cc="http://creativecommons.org/ns#" xmlns:rdf="http://www.w3.org/1999/02/22-rdf-syntax-ns#">
   <cc:Work>
    <dc:type rdf:resource="http://purl.org/dc/dcmitype/StillImage"/>
    <dc:date>2024-12-18T18:47:12.153038</dc:date>
    <dc:format>image/svg+xml</dc:format>
    <dc:creator>
     <cc:Agent>
      <dc:title>Matplotlib v3.9.2, https://matplotlib.org/</dc:title>
     </cc:Agent>
    </dc:creator>
   </cc:Work>
  </rdf:RDF>
 </metadata>
 <defs>
  <style type="text/css">*{stroke-linejoin: round; stroke-linecap: butt}</style>
 </defs>
 <g id="figure_1">
  <g id="patch_1">
   <path d="M 0 345.6 
L 460.8 345.6 
L 460.8 0 
L 0 0 
z
" style="fill: #ffffff"/>
  </g>
  <g id="axes_1">
   <g id="patch_2">
    <path d="M 57.6 207.36 
L 414.72 207.36 
L 414.72 41.472 
L 57.6 41.472 
z
" style="fill: #ffffff"/>
   </g>
   <g id="matplotlib.axis_1">
    <g id="xtick_1">
     <g id="line2d_1">
      <defs>
       <path id="m76b27e7bc6" d="M 0 0 
L 0 3.5 
" style="stroke: #000000; stroke-width: 0.8"/>
      </defs>
      <g>
       <use xlink:href="#m76b27e7bc6" x="73.832727" y="207.36" style="stroke: #000000; stroke-width: 0.8"/>
      </g>
     </g>
     <g id="text_1">
      <!-- 0 -->
      <g transform="translate(70.651477 221.958438) scale(0.1 -0.1)">
       <defs>
        <path id="DejaVuSans-30" d="M 2034 4250 
Q 1547 4250 1301 3770 
Q 1056 3291 1056 2328 
Q 1056 1369 1301 889 
Q 1547 409 2034 409 
Q 2525 409 2770 889 
Q 3016 1369 3016 2328 
Q 3016 3291 2770 3770 
Q 2525 4250 2034 4250 
z
M 2034 4750 
Q 2819 4750 3233 4129 
Q 3647 3509 3647 2328 
Q 3647 1150 3233 529 
Q 2819 -91 2034 -91 
Q 1250 -91 836 529 
Q 422 1150 422 2328 
Q 422 3509 836 4129 
Q 1250 4750 2034 4750 
z
" transform="scale(0.015625)"/>
       </defs>
       <use xlink:href="#DejaVuSans-30"/>
      </g>
     </g>
    </g>
    <g id="xtick_2">
     <g id="line2d_2">
      <g>
       <use xlink:href="#m76b27e7bc6" x="138.828632" y="207.36" style="stroke: #000000; stroke-width: 0.8"/>
      </g>
     </g>
     <g id="text_2">
      <!-- 200 -->
      <g transform="translate(129.284882 221.958438) scale(0.1 -0.1)">
       <defs>
        <path id="DejaVuSans-32" d="M 1228 531 
L 3431 531 
L 3431 0 
L 469 0 
L 469 531 
Q 828 903 1448 1529 
Q 2069 2156 2228 2338 
Q 2531 2678 2651 2914 
Q 2772 3150 2772 3378 
Q 2772 3750 2511 3984 
Q 2250 4219 1831 4219 
Q 1534 4219 1204 4116 
Q 875 4013 500 3803 
L 500 4441 
Q 881 4594 1212 4672 
Q 1544 4750 1819 4750 
Q 2544 4750 2975 4387 
Q 3406 4025 3406 3419 
Q 3406 3131 3298 2873 
Q 3191 2616 2906 2266 
Q 2828 2175 2409 1742 
Q 1991 1309 1228 531 
z
" transform="scale(0.015625)"/>
       </defs>
       <use xlink:href="#DejaVuSans-32"/>
       <use xlink:href="#DejaVuSans-30" x="63.623047"/>
       <use xlink:href="#DejaVuSans-30" x="127.246094"/>
      </g>
     </g>
    </g>
    <g id="xtick_3">
     <g id="line2d_3">
      <g>
       <use xlink:href="#m76b27e7bc6" x="203.824537" y="207.36" style="stroke: #000000; stroke-width: 0.8"/>
      </g>
     </g>
     <g id="text_3">
      <!-- 400 -->
      <g transform="translate(194.280787 221.958438) scale(0.1 -0.1)">
       <defs>
        <path id="DejaVuSans-34" d="M 2419 4116 
L 825 1625 
L 2419 1625 
L 2419 4116 
z
M 2253 4666 
L 3047 4666 
L 3047 1625 
L 3713 1625 
L 3713 1100 
L 3047 1100 
L 3047 0 
L 2419 0 
L 2419 1100 
L 313 1100 
L 313 1709 
L 2253 4666 
z
" transform="scale(0.015625)"/>
       </defs>
       <use xlink:href="#DejaVuSans-34"/>
       <use xlink:href="#DejaVuSans-30" x="63.623047"/>
       <use xlink:href="#DejaVuSans-30" x="127.246094"/>
      </g>
     </g>
    </g>
    <g id="xtick_4">
     <g id="line2d_4">
      <g>
       <use xlink:href="#m76b27e7bc6" x="268.820442" y="207.36" style="stroke: #000000; stroke-width: 0.8"/>
      </g>
     </g>
     <g id="text_4">
      <!-- 600 -->
      <g transform="translate(259.276692 221.958438) scale(0.1 -0.1)">
       <defs>
        <path id="DejaVuSans-36" d="M 2113 2584 
Q 1688 2584 1439 2293 
Q 1191 2003 1191 1497 
Q 1191 994 1439 701 
Q 1688 409 2113 409 
Q 2538 409 2786 701 
Q 3034 994 3034 1497 
Q 3034 2003 2786 2293 
Q 2538 2584 2113 2584 
z
M 3366 4563 
L 3366 3988 
Q 3128 4100 2886 4159 
Q 2644 4219 2406 4219 
Q 1781 4219 1451 3797 
Q 1122 3375 1075 2522 
Q 1259 2794 1537 2939 
Q 1816 3084 2150 3084 
Q 2853 3084 3261 2657 
Q 3669 2231 3669 1497 
Q 3669 778 3244 343 
Q 2819 -91 2113 -91 
Q 1303 -91 875 529 
Q 447 1150 447 2328 
Q 447 3434 972 4092 
Q 1497 4750 2381 4750 
Q 2619 4750 2861 4703 
Q 3103 4656 3366 4563 
z
" transform="scale(0.015625)"/>
       </defs>
       <use xlink:href="#DejaVuSans-36"/>
       <use xlink:href="#DejaVuSans-30" x="63.623047"/>
       <use xlink:href="#DejaVuSans-30" x="127.246094"/>
      </g>
     </g>
    </g>
    <g id="xtick_5">
     <g id="line2d_5">
      <g>
       <use xlink:href="#m76b27e7bc6" x="333.816347" y="207.36" style="stroke: #000000; stroke-width: 0.8"/>
      </g>
     </g>
     <g id="text_5">
      <!-- 800 -->
      <g transform="translate(324.272597 221.958438) scale(0.1 -0.1)">
       <defs>
        <path id="DejaVuSans-38" d="M 2034 2216 
Q 1584 2216 1326 1975 
Q 1069 1734 1069 1313 
Q 1069 891 1326 650 
Q 1584 409 2034 409 
Q 2484 409 2743 651 
Q 3003 894 3003 1313 
Q 3003 1734 2745 1975 
Q 2488 2216 2034 2216 
z
M 1403 2484 
Q 997 2584 770 2862 
Q 544 3141 544 3541 
Q 544 4100 942 4425 
Q 1341 4750 2034 4750 
Q 2731 4750 3128 4425 
Q 3525 4100 3525 3541 
Q 3525 3141 3298 2862 
Q 3072 2584 2669 2484 
Q 3125 2378 3379 2068 
Q 3634 1759 3634 1313 
Q 3634 634 3220 271 
Q 2806 -91 2034 -91 
Q 1263 -91 848 271 
Q 434 634 434 1313 
Q 434 1759 690 2068 
Q 947 2378 1403 2484 
z
M 1172 3481 
Q 1172 3119 1398 2916 
Q 1625 2713 2034 2713 
Q 2441 2713 2670 2916 
Q 2900 3119 2900 3481 
Q 2900 3844 2670 4047 
Q 2441 4250 2034 4250 
Q 1625 4250 1398 4047 
Q 1172 3844 1172 3481 
z
" transform="scale(0.015625)"/>
       </defs>
       <use xlink:href="#DejaVuSans-38"/>
       <use xlink:href="#DejaVuSans-30" x="63.623047"/>
       <use xlink:href="#DejaVuSans-30" x="127.246094"/>
      </g>
     </g>
    </g>
    <g id="xtick_6">
     <g id="line2d_6">
      <g>
       <use xlink:href="#m76b27e7bc6" x="398.812252" y="207.36" style="stroke: #000000; stroke-width: 0.8"/>
      </g>
     </g>
     <g id="text_6">
      <!-- 1000 -->
      <g transform="translate(386.087252 221.958438) scale(0.1 -0.1)">
       <defs>
        <path id="DejaVuSans-31" d="M 794 531 
L 1825 531 
L 1825 4091 
L 703 3866 
L 703 4441 
L 1819 4666 
L 2450 4666 
L 2450 531 
L 3481 531 
L 3481 0 
L 794 0 
L 794 531 
z
" transform="scale(0.015625)"/>
       </defs>
       <use xlink:href="#DejaVuSans-31"/>
       <use xlink:href="#DejaVuSans-30" x="63.623047"/>
       <use xlink:href="#DejaVuSans-30" x="127.246094"/>
       <use xlink:href="#DejaVuSans-30" x="190.869141"/>
      </g>
     </g>
    </g>
   </g>
   <g id="matplotlib.axis_2">
    <g id="ytick_1">
     <g id="line2d_7">
      <defs>
       <path id="mc5fa9e264b" d="M 0 0 
L -3.5 0 
" style="stroke: #000000; stroke-width: 0.8"/>
      </defs>
      <g>
       <use xlink:href="#mc5fa9e264b" x="57.6" y="201.336252" style="stroke: #000000; stroke-width: 0.8"/>
      </g>
     </g>
     <g id="text_7">
      <!-- 1.0 -->
      <g transform="translate(34.696875 205.13547) scale(0.1 -0.1)">
       <defs>
        <path id="DejaVuSans-2e" d="M 684 794 
L 1344 794 
L 1344 0 
L 684 0 
L 684 794 
z
" transform="scale(0.015625)"/>
       </defs>
       <use xlink:href="#DejaVuSans-31"/>
       <use xlink:href="#DejaVuSans-2e" x="63.623047"/>
       <use xlink:href="#DejaVuSans-30" x="95.410156"/>
      </g>
     </g>
    </g>
    <g id="ytick_2">
     <g id="line2d_8">
      <g>
       <use xlink:href="#mc5fa9e264b" x="57.6" y="179.722249" style="stroke: #000000; stroke-width: 0.8"/>
      </g>
     </g>
     <g id="text_8">
      <!-- 1.5 -->
      <g transform="translate(34.696875 183.521468) scale(0.1 -0.1)">
       <defs>
        <path id="DejaVuSans-35" d="M 691 4666 
L 3169 4666 
L 3169 4134 
L 1269 4134 
L 1269 2991 
Q 1406 3038 1543 3061 
Q 1681 3084 1819 3084 
Q 2600 3084 3056 2656 
Q 3513 2228 3513 1497 
Q 3513 744 3044 326 
Q 2575 -91 1722 -91 
Q 1428 -91 1123 -41 
Q 819 9 494 109 
L 494 744 
Q 775 591 1075 516 
Q 1375 441 1709 441 
Q 2250 441 2565 725 
Q 2881 1009 2881 1497 
Q 2881 1984 2565 2268 
Q 2250 2553 1709 2553 
Q 1456 2553 1204 2497 
Q 953 2441 691 2322 
L 691 4666 
z
" transform="scale(0.015625)"/>
       </defs>
       <use xlink:href="#DejaVuSans-31"/>
       <use xlink:href="#DejaVuSans-2e" x="63.623047"/>
       <use xlink:href="#DejaVuSans-35" x="95.410156"/>
      </g>
     </g>
    </g>
    <g id="ytick_3">
     <g id="line2d_9">
      <g>
       <use xlink:href="#mc5fa9e264b" x="57.6" y="158.108247" style="stroke: #000000; stroke-width: 0.8"/>
      </g>
     </g>
     <g id="text_9">
      <!-- 2.0 -->
      <g transform="translate(34.696875 161.907466) scale(0.1 -0.1)">
       <use xlink:href="#DejaVuSans-32"/>
       <use xlink:href="#DejaVuSans-2e" x="63.623047"/>
       <use xlink:href="#DejaVuSans-30" x="95.410156"/>
      </g>
     </g>
    </g>
    <g id="ytick_4">
     <g id="line2d_10">
      <g>
       <use xlink:href="#mc5fa9e264b" x="57.6" y="136.494245" style="stroke: #000000; stroke-width: 0.8"/>
      </g>
     </g>
     <g id="text_10">
      <!-- 2.5 -->
      <g transform="translate(34.696875 140.293464) scale(0.1 -0.1)">
       <use xlink:href="#DejaVuSans-32"/>
       <use xlink:href="#DejaVuSans-2e" x="63.623047"/>
       <use xlink:href="#DejaVuSans-35" x="95.410156"/>
      </g>
     </g>
    </g>
    <g id="ytick_5">
     <g id="line2d_11">
      <g>
       <use xlink:href="#mc5fa9e264b" x="57.6" y="114.880243" style="stroke: #000000; stroke-width: 0.8"/>
      </g>
     </g>
     <g id="text_11">
      <!-- 3.0 -->
      <g transform="translate(34.696875 118.679461) scale(0.1 -0.1)">
       <defs>
        <path id="DejaVuSans-33" d="M 2597 2516 
Q 3050 2419 3304 2112 
Q 3559 1806 3559 1356 
Q 3559 666 3084 287 
Q 2609 -91 1734 -91 
Q 1441 -91 1130 -33 
Q 819 25 488 141 
L 488 750 
Q 750 597 1062 519 
Q 1375 441 1716 441 
Q 2309 441 2620 675 
Q 2931 909 2931 1356 
Q 2931 1769 2642 2001 
Q 2353 2234 1838 2234 
L 1294 2234 
L 1294 2753 
L 1863 2753 
Q 2328 2753 2575 2939 
Q 2822 3125 2822 3475 
Q 2822 3834 2567 4026 
Q 2313 4219 1838 4219 
Q 1578 4219 1281 4162 
Q 984 4106 628 3988 
L 628 4550 
Q 988 4650 1302 4700 
Q 1616 4750 1894 4750 
Q 2613 4750 3031 4423 
Q 3450 4097 3450 3541 
Q 3450 3153 3228 2886 
Q 3006 2619 2597 2516 
z
" transform="scale(0.015625)"/>
       </defs>
       <use xlink:href="#DejaVuSans-33"/>
       <use xlink:href="#DejaVuSans-2e" x="63.623047"/>
       <use xlink:href="#DejaVuSans-30" x="95.410156"/>
      </g>
     </g>
    </g>
    <g id="ytick_6">
     <g id="line2d_12">
      <g>
       <use xlink:href="#mc5fa9e264b" x="57.6" y="93.26624" style="stroke: #000000; stroke-width: 0.8"/>
      </g>
     </g>
     <g id="text_12">
      <!-- 3.5 -->
      <g transform="translate(34.696875 97.065459) scale(0.1 -0.1)">
       <use xlink:href="#DejaVuSans-33"/>
       <use xlink:href="#DejaVuSans-2e" x="63.623047"/>
       <use xlink:href="#DejaVuSans-35" x="95.410156"/>
      </g>
     </g>
    </g>
    <g id="ytick_7">
     <g id="line2d_13">
      <g>
       <use xlink:href="#mc5fa9e264b" x="57.6" y="71.652238" style="stroke: #000000; stroke-width: 0.8"/>
      </g>
     </g>
     <g id="text_13">
      <!-- 4.0 -->
      <g transform="translate(34.696875 75.451457) scale(0.1 -0.1)">
       <use xlink:href="#DejaVuSans-34"/>
       <use xlink:href="#DejaVuSans-2e" x="63.623047"/>
       <use xlink:href="#DejaVuSans-30" x="95.410156"/>
      </g>
     </g>
    </g>
    <g id="ytick_8">
     <g id="line2d_14">
      <g>
       <use xlink:href="#mc5fa9e264b" x="57.6" y="50.038236" style="stroke: #000000; stroke-width: 0.8"/>
      </g>
     </g>
     <g id="text_14">
      <!-- 4.5 -->
      <g transform="translate(34.696875 53.837455) scale(0.1 -0.1)">
       <use xlink:href="#DejaVuSans-34"/>
       <use xlink:href="#DejaVuSans-2e" x="63.623047"/>
       <use xlink:href="#DejaVuSans-35" x="95.410156"/>
      </g>
     </g>
    </g>
   </g>
   <g id="line2d_15">
    <path d="M 73.832727 197.913742 
L 74.157707 198.079519 
L 74.482686 196.955446 
L 74.807666 199.819636 
L 75.132645 198.03348 
L 75.457625 196.989538 
L 75.782604 194.983136 
L 76.107584 193.768786 
L 76.432563 196.699123 
L 76.757543 194.53708 
L 77.082523 193.893714 
L 77.407502 191.823665 
L 77.732482 192.643046 
L 78.057461 194.534232 
L 78.382441 192.495892 
L 78.70742 194.117303 
L 79.0324 192.073064 
L 79.357379 190.846543 
L 79.682359 191.195724 
L 80.007338 189.448325 
L 80.332318 190.758035 
L 80.657297 188.48422 
L 80.982277 190.985149 
L 81.307256 186.898817 
L 81.632236 190.236124 
L 82.282195 186.192497 
L 82.607174 187.854291 
L 82.932154 188.669275 
L 83.257133 185.827286 
L 83.582113 186.114263 
L 84.232072 185.2616 
L 84.557052 187.026444 
L 85.207011 184.800606 
L 85.53199 185.607924 
L 85.85697 184.726377 
L 86.181949 186.449818 
L 86.506929 182.290334 
L 86.831908 182.201134 
L 87.156888 182.469861 
L 87.481867 184.486848 
L 87.806847 185.02841 
L 88.131826 184.15961 
L 88.456806 181.66338 
L 89.106765 185.243954 
L 89.431744 182.158362 
L 89.756724 181.072215 
L 90.081704 185.180404 
L 90.406683 182.826969 
L 90.731663 183.527822 
L 91.056642 184.519978 
L 91.381622 182.664571 
L 91.706601 182.27893 
L 92.031581 181.481559 
L 92.35656 184.370358 
L 92.68154 184.48966 
L 93.006519 184.94002 
L 93.331499 182.586549 
L 93.656478 181.281767 
L 93.981458 183.861531 
L 94.306437 185.406127 
L 94.631417 181.93308 
L 94.956396 184.573275 
L 95.281376 181.904925 
L 95.606355 182.609912 
L 96.256314 186.55943 
L 96.581294 186.453243 
L 96.906274 182.596457 
L 97.556233 186.57781 
L 97.881212 183.316279 
L 98.206192 187.474477 
L 98.531171 184.82265 
L 98.856151 185.318722 
L 99.18113 187.609783 
L 99.50611 185.685904 
L 99.831089 184.825775 
L 100.156069 186.031735 
L 100.481048 189.208065 
L 100.806028 185.508643 
L 101.131007 188.586539 
L 101.455987 185.681845 
L 101.780966 186.220094 
L 102.755905 189.329639 
L 103.080885 187.614113 
L 103.405864 187.512169 
L 103.730844 190.113121 
L 104.055823 187.974637 
L 104.380803 189.537089 
L 104.705782 189.116747 
L 105.030762 188.311034 
L 105.355741 188.725383 
L 105.680721 188.708433 
L 106.0057 191.741879 
L 106.33068 190.4248 
L 106.655659 192.995346 
L 106.980639 190.072091 
L 107.305618 190.649245 
L 107.630598 192.17896 
L 107.955577 191.526939 
L 108.280557 191.540941 
L 108.605536 191.692648 
L 108.930516 192.982158 
L 109.255495 191.674541 
L 109.580475 191.343012 
L 109.905455 190.659156 
L 110.230434 194.508265 
L 110.555414 194.281439 
L 110.880393 192.746639 
L 111.205373 193.920146 
L 111.530352 193.260493 
L 111.855332 192.076527 
L 112.505291 193.609066 
L 112.83027 192.604494 
L 113.15525 195.244545 
L 113.480229 193.661392 
L 114.130188 191.858457 
L 114.780147 194.065075 
L 115.105127 193.975315 
L 115.430106 191.74278 
L 115.755086 193.428487 
L 116.080066 192.111403 
L 116.405045 191.356194 
L 116.730025 193.728251 
L 117.379984 193.527441 
L 117.704963 193.51664 
L 118.029943 190.000985 
L 118.354922 191.754455 
L 118.679902 191.500206 
L 119.004881 193.555187 
L 119.329861 191.10008 
L 119.65484 193.234964 
L 119.97982 190.088524 
L 120.304799 189.02576 
L 120.629779 190.505528 
L 120.954758 191.232914 
L 121.279738 190.545548 
L 121.604717 189.205264 
L 121.929697 189.138032 
L 122.254676 188.460105 
L 122.579656 189.706401 
L 123.229615 186.201854 
L 123.554595 185.913044 
L 123.879574 189.428947 
L 124.204554 188.908931 
L 124.529533 185.575891 
L 125.179492 184.333463 
L 125.504472 184.537845 
L 125.829451 183.713478 
L 126.154431 184.254132 
L 126.47941 184.372764 
L 126.80439 186.673836 
L 127.129369 184.013495 
L 127.454349 185.487222 
L 127.779328 181.814351 
L 128.104308 182.516043 
L 128.429287 184.059111 
L 129.079247 181.467046 
L 129.404226 183.744911 
L 129.729206 182.793017 
L 130.379165 182.371737 
L 130.704144 179.534234 
L 131.029124 179.306811 
L 131.354103 178.850945 
L 131.679083 177.765675 
L 132.004062 179.440168 
L 132.329042 179.549366 
L 132.654021 180.059535 
L 132.979001 178.646313 
L 133.30398 178.323563 
L 133.62896 179.175884 
L 133.953939 179.316055 
L 134.278919 175.726814 
L 134.603898 174.92423 
L 134.928878 175.726121 
L 135.253857 178.257684 
L 135.578837 175.224666 
L 135.903817 176.90001 
L 136.228796 176.191402 
L 136.553776 176.603124 
L 136.878755 173.698109 
L 137.203735 173.913352 
L 137.528714 177.065068 
L 137.853694 172.953804 
L 138.503653 175.85581 
L 138.828632 175.410046 
L 139.153612 175.175943 
L 139.478591 172.952009 
L 139.803571 172.462929 
L 140.12855 175.088004 
L 140.45353 175.766517 
L 140.778509 172.61416 
L 141.103489 173.043409 
L 141.428468 172.4897 
L 141.753448 172.36728 
L 142.078428 175.611721 
L 142.403407 173.182232 
L 142.728387 173.516072 
L 143.053366 171.888578 
L 143.378346 175.501359 
L 143.703325 171.9373 
L 144.028305 174.327445 
L 144.353284 172.266238 
L 144.678264 172.572679 
L 145.328223 175.723896 
L 145.653202 172.017571 
L 145.978182 173.11064 
L 146.303161 172.146487 
L 146.628141 175.882121 
L 146.95312 174.058914 
L 147.2781 175.276467 
L 147.603079 175.228189 
L 147.928059 173.563873 
L 148.253038 174.766448 
L 148.578018 174.999915 
L 148.902998 174.087749 
L 149.227977 176.079122 
L 149.552957 177.081756 
L 149.877936 175.228709 
L 150.202916 176.99879 
L 150.527895 177.072339 
L 150.852875 175.837972 
L 151.177854 175.069651 
L 151.827813 178.734056 
L 152.152793 176.433025 
L 152.477772 179.488647 
L 152.802752 176.699473 
L 153.127731 178.318553 
L 153.452711 176.954929 
L 153.77769 179.77313 
L 154.10267 177.384158 
L 154.427649 179.893765 
L 154.752629 180.99489 
L 155.077609 178.85333 
L 155.402588 178.685327 
L 155.727568 177.512073 
L 156.052547 178.358264 
L 156.377527 180.95108 
L 156.702506 179.769007 
L 157.352465 180.022975 
L 157.677445 182.524587 
L 158.002424 180.701063 
L 158.327404 180.377056 
L 158.652383 180.334176 
L 158.977363 181.213278 
L 159.302342 180.982457 
L 159.627322 180.151348 
L 159.952301 182.804178 
L 160.277281 180.513865 
L 160.60226 181.669947 
L 160.92724 181.479973 
L 161.252219 183.835119 
L 161.577199 183.649769 
L 161.902179 184.163258 
L 162.227158 183.569152 
L 162.552138 180.914107 
L 162.877117 182.315004 
L 163.202097 181.150974 
L 163.527076 183.76987 
L 163.852056 182.058994 
L 164.177035 182.929233 
L 164.502015 182.472964 
L 164.826994 181.111016 
L 165.151974 181.100176 
L 165.476953 182.279801 
L 165.801933 184.668698 
L 166.126912 184.766191 
L 166.451892 184.382447 
L 166.776871 183.211738 
L 167.101851 180.702175 
L 167.42683 182.543971 
L 167.75181 180.563761 
L 168.401769 180.383051 
L 168.726749 182.813287 
L 169.051728 180.693718 
L 169.376708 180.838853 
L 169.701687 179.67443 
L 170.026667 179.012648 
L 170.351646 179.400028 
L 170.676626 181.550167 
L 171.326585 179.865055 
L 171.651564 177.937349 
L 171.976544 181.025488 
L 172.301523 179.186598 
L 172.626503 180.753365 
L 173.276462 176.440646 
L 173.601441 178.441567 
L 173.926421 178.129803 
L 174.2514 178.236322 
L 174.57638 175.573423 
L 174.90136 174.975235 
L 175.226339 176.291721 
L 175.551319 176.732689 
L 175.876298 173.760653 
L 176.201278 174.290577 
L 176.526257 173.510878 
L 176.851237 175.687723 
L 177.176216 172.589412 
L 177.501196 171.543177 
L 177.826175 173.31384 
L 178.151155 171.240363 
L 178.476134 172.104382 
L 178.801114 171.953695 
L 179.126093 168.601192 
L 179.451073 168.121589 
L 179.776052 171.276104 
L 180.101032 167.049008 
L 180.426011 168.785251 
L 180.750991 168.718848 
L 181.075971 169.158459 
L 181.40095 167.924273 
L 181.72593 168.022622 
L 182.050909 163.52288 
L 182.375889 163.475299 
L 182.700868 164.110545 
L 183.025848 163.815863 
L 183.350827 165.291617 
L 183.675807 162.038902 
L 184.000786 160.291771 
L 184.325766 161.12895 
L 184.650745 163.548879 
L 184.975725 158.747473 
L 185.300704 161.409688 
L 185.625684 159.099796 
L 186.275643 158.530795 
L 186.600622 157.315177 
L 186.925602 158.633235 
L 187.250581 156.155779 
L 187.575561 156.258052 
L 187.900541 156.064008 
L 188.22552 154.938385 
L 188.5505 154.594307 
L 188.875479 156.670884 
L 189.200459 153.923012 
L 189.525438 155.942389 
L 189.850418 152.963239 
L 190.175397 153.560723 
L 190.500377 152.786463 
L 190.825356 152.562192 
L 191.150336 153.623153 
L 191.475315 150.51106 
L 191.800295 153.411764 
L 192.125274 150.217477 
L 192.450254 151.640555 
L 192.775233 150.302282 
L 193.100213 152.088985 
L 193.425192 151.261763 
L 193.750172 149.091184 
L 194.075152 150.009963 
L 194.400131 148.740983 
L 194.725111 150.583485 
L 195.05009 148.558088 
L 195.37507 148.782488 
L 195.700049 147.39054 
L 196.025029 148.473502 
L 196.350008 148.493208 
L 196.674988 148.072946 
L 196.999967 146.566698 
L 197.324947 148.442642 
L 197.974906 147.509441 
L 198.299885 149.1325 
L 198.624865 147.615976 
L 198.949844 148.859229 
L 199.274824 148.245091 
L 199.599803 149.94577 
L 199.924783 147.351913 
L 200.249762 147.383528 
L 200.574742 146.215721 
L 200.899722 146.543357 
L 201.224701 149.767229 
L 201.549681 149.351788 
L 201.87466 146.663175 
L 202.19964 147.962287 
L 202.524619 146.403016 
L 202.849599 149.340381 
L 203.499558 146.845654 
L 203.824537 149.810835 
L 204.474496 147.930143 
L 204.799476 149.738871 
L 205.124455 147.181764 
L 205.449435 150.16422 
L 205.774414 147.657622 
L 206.099394 148.639167 
L 206.424373 147.883728 
L 206.749353 149.097268 
L 207.074333 151.854213 
L 207.399312 150.101532 
L 207.724292 149.018055 
L 208.049271 149.964517 
L 208.374251 150.126777 
L 208.69923 151.491983 
L 209.02421 151.104719 
L 209.349189 150.335051 
L 209.674169 153.046982 
L 209.999148 153.732974 
L 210.324128 152.724 
L 210.649107 153.75154 
L 210.974087 152.488644 
L 211.299066 154.522648 
L 211.624046 152.792448 
L 211.949025 154.286701 
L 212.274005 153.023749 
L 212.598984 154.109946 
L 212.923964 151.581377 
L 213.573923 153.275507 
L 213.898903 153.412977 
L 214.223882 156.135367 
L 214.548862 154.227835 
L 214.873841 156.689542 
L 215.198821 153.567444 
L 215.5238 156.217623 
L 215.84878 153.52808 
L 216.173759 156.172491 
L 216.823718 155.013846 
L 217.148698 155.997211 
L 217.473677 155.159104 
L 217.798657 155.415041 
L 218.123636 156.612443 
L 218.448616 156.52677 
L 218.773595 157.489748 
L 219.098575 154.496357 
L 219.423554 157.48958 
L 219.748534 157.979349 
L 220.073514 156.960829 
L 220.398493 155.500259 
L 220.723473 156.237835 
L 221.048452 155.2964 
L 221.373432 155.66441 
L 221.698411 155.810416 
L 222.023391 156.600596 
L 222.34837 156.235015 
L 222.67335 154.868733 
L 222.998329 156.770144 
L 223.323309 154.81729 
L 223.648288 157.602183 
L 223.973268 157.399818 
L 224.623227 153.380453 
L 224.948206 154.254365 
L 225.273186 153.367299 
L 225.598165 156.35844 
L 225.923145 153.882067 
L 226.248124 156.640154 
L 226.573104 153.573224 
L 226.898084 155.891605 
L 227.223063 154.987786 
L 227.548043 154.6072 
L 227.873022 151.930845 
L 228.198002 153.308209 
L 228.522981 153.941884 
L 228.847961 152.221776 
L 229.17294 152.963349 
L 229.49792 152.134865 
L 229.822899 152.604893 
L 230.147879 149.590229 
L 230.472858 149.978408 
L 230.797838 152.51126 
L 231.122817 149.067613 
L 231.447797 150.622734 
L 231.772776 150.033476 
L 232.097756 149.003123 
L 232.422735 149.71611 
L 232.747715 149.997948 
L 233.397674 149.498086 
L 233.722654 148.454759 
L 234.047633 149.494043 
L 234.372613 145.314224 
L 234.697592 146.043615 
L 235.022572 147.546745 
L 235.347551 146.565275 
L 235.672531 144.008235 
L 235.99751 146.518497 
L 236.32249 143.978063 
L 236.647469 145.447502 
L 236.972449 143.123161 
L 237.297428 143.160816 
L 237.622408 144.998882 
L 237.947387 144.909237 
L 238.272367 142.336129 
L 238.597346 143.514203 
L 238.922326 140.606594 
L 239.247305 140.8486 
L 239.572285 139.558798 
L 239.897265 142.684251 
L 240.222244 139.095191 
L 240.547224 141.304519 
L 240.872203 141.042521 
L 241.197183 141.160651 
L 241.522162 137.563945 
L 241.847142 137.013802 
L 242.172121 139.416087 
L 242.497101 138.002894 
L 242.82208 137.788314 
L 243.14706 139.628934 
L 243.472039 136.579731 
L 243.797019 136.764982 
L 244.121998 138.298785 
L 244.446978 137.68159 
L 244.771957 137.865572 
L 245.096937 136.173271 
L 245.421916 136.210676 
L 246.071876 133.439658 
L 246.396855 135.371903 
L 246.721835 135.421204 
L 247.046814 136.366847 
L 247.371794 134.44298 
L 247.696773 136.352105 
L 248.021753 136.521374 
L 248.346732 132.839719 
L 248.671712 133.051021 
L 248.996691 135.385811 
L 249.321671 135.955745 
L 249.64665 132.653996 
L 249.97163 134.242016 
L 250.296609 133.154349 
L 250.621589 133.418851 
L 250.946568 134.370107 
L 251.271548 133.513566 
L 251.596527 133.993391 
L 251.921507 134.163351 
L 252.246486 132.493757 
L 252.571466 132.197736 
L 252.896446 133.031149 
L 253.221425 133.469793 
L 253.546405 132.94155 
L 253.871384 135.851748 
L 254.196364 133.550982 
L 254.521343 136.093798 
L 255.171302 133.661988 
L 255.496282 133.812854 
L 255.821261 136.611113 
L 256.146241 133.955597 
L 256.47122 133.652227 
L 256.7962 136.237974 
L 257.121179 136.420026 
L 257.446159 134.3486 
L 257.771138 133.330468 
L 258.096118 137.445809 
L 258.421097 134.793629 
L 258.746077 135.041448 
L 259.071057 134.272933 
L 259.396036 137.503317 
L 259.721016 135.565806 
L 260.045995 134.673178 
L 260.370975 135.772811 
L 260.695954 137.868167 
L 261.020934 136.499035 
L 261.345913 137.840391 
L 261.670893 137.005825 
L 261.995872 139.474013 
L 262.320852 136.079214 
L 263.29579 138.454873 
L 263.62077 137.581814 
L 263.945749 139.185525 
L 264.595708 140.988959 
L 264.920688 139.233761 
L 265.245667 141.359566 
L 265.570647 141.46764 
L 265.895627 140.635505 
L 266.220606 140.594661 
L 266.545586 140.197065 
L 266.870565 141.383071 
L 267.195545 139.29977 
L 267.520524 139.971636 
L 267.845504 139.89202 
L 268.170483 142.01883 
L 268.495463 139.012806 
L 269.145422 142.393625 
L 269.470401 141.015613 
L 269.795381 142.420173 
L 270.12036 141.362938 
L 270.44534 141.028038 
L 271.095299 143.140513 
L 271.420278 141.717903 
L 271.745258 139.54234 
L 272.070238 139.728471 
L 272.395217 141.053397 
L 272.720197 139.886891 
L 273.045176 142.040681 
L 273.370156 140.853811 
L 273.695135 142.834294 
L 274.020115 142.029816 
L 274.345094 142.775159 
L 274.670074 139.99074 
L 274.995053 142.530848 
L 275.320033 140.970524 
L 275.645012 140.719112 
L 275.969992 142.184946 
L 276.294971 142.093141 
L 276.94493 140.683796 
L 277.26991 140.630041 
L 277.594889 141.109306 
L 277.919869 139.401651 
L 278.244848 140.149255 
L 278.569828 137.545035 
L 278.894808 138.787159 
L 279.219787 137.667983 
L 279.544767 139.605359 
L 279.869746 136.85296 
L 280.194726 138.517127 
L 280.519705 137.792975 
L 280.844685 135.269951 
L 281.169664 135.670119 
L 281.494644 136.947922 
L 281.819623 135.265057 
L 282.144603 135.627046 
L 282.469582 134.252903 
L 282.794562 134.231934 
L 283.119541 135.693568 
L 283.444521 132.667539 
L 283.7695 133.982991 
L 284.09448 133.219565 
L 284.419459 131.487261 
L 284.744439 132.485347 
L 285.069419 130.698394 
L 285.394398 132.398561 
L 285.719378 129.836231 
L 286.044357 131.158342 
L 286.369337 127.513332 
L 286.694316 130.36009 
L 287.019296 127.18885 
L 287.669255 125.861784 
L 288.319214 124.979333 
L 288.644193 125.670906 
L 288.969173 125.685423 
L 289.294152 125.938673 
L 289.619132 123.254127 
L 289.944111 124.325671 
L 290.59407 120.497143 
L 290.91905 122.344524 
L 291.244029 122.533464 
L 291.893989 118.61588 
L 292.218968 121.110521 
L 292.543948 118.79589 
L 292.868927 119.83757 
L 293.193907 116.324397 
L 293.518886 118.55076 
L 293.843866 114.929311 
L 294.168845 115.164677 
L 294.493825 114.677447 
L 294.818804 113.45744 
L 295.143784 116.343776 
L 295.468763 115.402941 
L 295.793743 113.351118 
L 296.118722 114.28928 
L 296.768681 110.483763 
L 297.41864 111.244952 
L 297.74362 111.817424 
L 298.0686 108.195823 
L 298.393579 108.860157 
L 298.718559 107.690523 
L 299.043538 108.853479 
L 299.368518 107.222624 
L 300.018477 108.479395 
L 300.343456 107.726746 
L 300.668436 108.498508 
L 300.993415 107.020643 
L 301.318395 106.188244 
L 301.643374 107.223551 
L 301.968354 106.449783 
L 302.293333 104.175878 
L 302.618313 105.626477 
L 302.943292 106.358255 
L 303.268272 106.180489 
L 303.593251 106.512069 
L 303.918231 105.693293 
L 304.24321 105.948488 
L 304.56819 102.528532 
L 304.89317 104.146832 
L 305.218149 103.336057 
L 305.543129 101.634265 
L 305.868108 102.650422 
L 306.193088 105.246317 
L 307.168026 102.479161 
L 307.493006 101.005066 
L 307.817985 101.900795 
L 308.142965 104.136793 
L 308.792924 103.68272 
L 309.117903 102.543531 
L 309.442883 101.839894 
L 309.767862 103.136522 
L 310.092842 101.979536 
L 310.417821 103.008518 
L 310.742801 103.644456 
L 311.067781 105.234786 
L 311.39276 101.838608 
L 311.71774 101.59238 
L 312.042719 103.328414 
L 312.367699 103.535165 
L 312.692678 105.270676 
L 313.017658 105.653859 
L 313.342637 102.66594 
L 313.667617 104.583989 
L 313.992596 104.370177 
L 314.317576 105.442923 
L 314.642555 106.045526 
L 314.967535 104.217872 
L 315.292514 104.236565 
L 315.617494 106.026266 
L 315.942473 102.904697 
L 316.267453 106.124691 
L 316.592432 103.32575 
L 316.917412 104.77114 
L 317.242391 105.2334 
L 317.567371 104.839074 
L 317.892351 104.914452 
L 318.21733 105.878591 
L 318.54231 106.072741 
L 318.867289 107.989936 
L 319.192269 107.914709 
L 319.517248 105.587649 
L 319.842228 105.012424 
L 320.167207 108.828381 
L 320.492187 108.682955 
L 320.817166 109.470433 
L 321.142146 106.993876 
L 321.467125 109.789519 
L 322.117084 108.438504 
L 322.442064 106.996623 
L 322.767043 110.344736 
L 323.092023 108.057441 
L 323.417002 107.610872 
L 323.741982 107.88534 
L 324.066962 110.172754 
L 324.391941 108.563562 
L 324.716921 108.152253 
L 325.0419 109.977264 
L 325.36688 109.588159 
L 325.691859 109.940954 
L 326.016839 111.336339 
L 326.341818 107.935706 
L 326.666798 110.506132 
L 326.991777 109.751933 
L 327.316757 110.792438 
L 327.641736 107.940795 
L 327.966716 110.176763 
L 328.291695 109.48069 
L 328.616675 109.048594 
L 328.941654 109.513048 
L 329.266634 107.642294 
L 329.591613 109.808459 
L 329.916593 107.936394 
L 330.241572 107.456548 
L 330.566552 111.364342 
L 330.891532 109.940249 
L 331.541491 110.143482 
L 331.86647 107.868988 
L 332.19145 110.198885 
L 332.516429 107.439375 
L 332.841409 110.26319 
L 333.166388 106.983346 
L 333.491368 109.2657 
L 333.816347 107.602172 
L 334.141327 106.858175 
L 334.466306 107.151468 
L 334.791286 109.128959 
L 335.116265 106.495207 
L 335.441245 107.864265 
L 335.766224 108.075035 
L 336.091204 108.053461 
L 336.416183 105.073566 
L 336.741163 106.115252 
L 337.066143 103.578761 
L 337.391122 103.382983 
L 337.716102 104.676234 
L 338.041081 104.219355 
L 338.366061 102.187862 
L 338.69104 105.335379 
L 339.01602 102.813892 
L 339.340999 104.229888 
L 339.665979 101.755365 
L 339.990958 103.973635 
L 340.315938 100.625518 
L 340.640917 102.368064 
L 340.965897 99.107108 
L 341.290876 99.114256 
L 341.615856 100.871501 
L 341.940835 100.729406 
L 342.265815 98.544117 
L 342.590794 101.145442 
L 342.915774 99.759092 
L 343.240753 100.613283 
L 343.565733 96.716697 
L 343.890713 98.6693 
L 344.215692 95.329728 
L 344.540672 95.76946 
L 344.865651 98.288982 
L 345.190631 97.43166 
L 345.51561 97.25586 
L 345.84059 94.892181 
L 346.165569 94.206968 
L 346.490549 95.02013 
L 346.815528 92.418108 
L 347.140508 92.395971 
L 347.465487 95.407188 
L 347.790467 92.003676 
L 348.115446 93.348859 
L 348.440426 91.068824 
L 348.765405 93.181063 
L 349.090385 90.277753 
L 349.415364 91.783492 
L 349.740344 92.580243 
L 350.065324 92.435945 
L 350.715283 87.603082 
L 351.365242 90.5668 
L 351.690221 90.790019 
L 352.015201 87.260447 
L 352.34018 87.546437 
L 352.66516 86.556645 
L 352.990139 86.527688 
L 353.315119 89.357763 
L 353.640098 88.592639 
L 353.965078 86.490647 
L 354.615037 85.661247 
L 354.940016 84.442668 
L 355.264996 86.755266 
L 355.589975 84.560046 
L 355.914955 83.781491 
L 356.239934 83.616651 
L 356.564914 87.472677 
L 357.214873 83.370204 
L 357.539853 86.581603 
L 357.864832 84.846816 
L 358.189812 83.950336 
L 358.514791 84.30058 
L 358.839771 83.853066 
L 359.16475 83.959694 
L 359.48973 85.748144 
L 359.814709 85.120506 
L 360.139689 82.42258 
L 360.464668 85.98537 
L 360.789648 84.312783 
L 361.114627 83.396246 
L 361.439607 83.258718 
L 361.764586 82.608186 
L 362.089566 86.278536 
L 362.739525 82.865665 
L 363.064505 84.178133 
L 363.389484 86.449768 
L 363.714464 84.999887 
L 364.039443 84.166142 
L 364.364423 85.53823 
L 364.689402 84.667116 
L 365.014382 86.322781 
L 365.339361 83.945569 
L 365.664341 84.684881 
L 365.98932 86.833379 
L 366.3143 84.004249 
L 366.639279 85.280478 
L 366.964259 87.044155 
L 367.289238 87.504344 
L 367.614218 85.431958 
L 367.939197 87.325578 
L 368.264177 84.821016 
L 368.589156 85.186103 
L 369.239115 86.966935 
L 369.564095 86.680159 
L 369.889075 87.92793 
L 370.214054 87.527213 
L 370.539034 87.746006 
L 370.864013 86.28077 
L 371.188993 89.055264 
L 371.513972 90.042654 
L 371.838952 89.4566 
L 372.163931 86.157749 
L 372.488911 88.729254 
L 372.81389 86.46371 
L 373.13887 90.377926 
L 373.463849 89.595608 
L 373.788829 87.096746 
L 374.113808 87.593827 
L 374.438788 90.265109 
L 374.763767 89.515487 
L 375.413726 88.894804 
L 375.738706 89.681814 
L 376.063686 87.803828 
L 376.388665 91.21201 
L 376.713645 87.955337 
L 377.038624 87.928396 
L 377.363604 91.678181 
L 377.688583 90.773127 
L 378.013563 88.201515 
L 378.338542 91.503675 
L 378.663522 91.258852 
L 378.988501 88.404024 
L 379.63846 91.47637 
L 379.96344 89.524188 
L 380.288419 88.356115 
L 380.613399 88.695303 
L 380.938378 90.839589 
L 381.263358 89.721595 
L 381.588337 90.887303 
L 381.913317 89.558899 
L 382.238296 91.202428 
L 382.563276 90.585507 
L 382.888256 90.431331 
L 383.213235 87.347327 
L 383.538215 89.382516 
L 383.863194 90.433326 
L 384.188174 89.438097 
L 384.513153 90.42437 
L 384.838133 86.998153 
L 385.163112 87.033085 
L 385.488092 89.727977 
L 386.138051 86.15105 
L 386.46303 88.52531 
L 387.112989 85.547077 
L 387.437969 88.128125 
L 387.762948 84.524193 
L 388.087928 86.843143 
L 388.412907 83.110712 
L 388.737887 82.688196 
L 389.062867 83.36243 
L 389.387846 83.057253 
L 389.712826 82.939259 
L 390.037805 82.673685 
L 390.362785 82.746579 
L 390.687764 82.213018 
L 391.012744 79.794888 
L 391.337723 80.61913 
L 391.662703 81.883979 
L 391.987682 79.596709 
L 392.312662 81.761685 
L 392.637641 80.576842 
L 392.962621 78.353008 
L 393.2876 80.372829 
L 393.61258 78.039729 
L 394.262539 78.342442 
L 394.587518 75.088497 
L 394.912498 76.983683 
L 395.237477 73.572769 
L 395.887437 76.24722 
L 396.212416 71.572684 
L 396.537396 71.89952 
L 396.862375 70.521824 
L 397.187355 71.206582 
L 397.512334 71.445636 
L 397.837314 68.725178 
L 398.162293 69.259522 
L 398.487273 68.630446 
L 398.487273 68.630446 
" clip-path="url(#p574e6631bc)" style="fill: none; stroke: #1f77b4; stroke-width: 1.5; stroke-linecap: square"/>
   </g>
   <g id="line2d_16">
    <path d="M 366.3143 85.890485 
L 366.639279 85.427506 
L 366.964259 85.51293 
L 367.289238 85.97635 
L 367.614218 85.752537 
L 367.939197 86.105464 
L 368.264177 85.907209 
L 368.589156 85.820614 
L 368.914136 85.73062 
L 369.239115 86.2005 
L 369.564095 85.973694 
L 369.889075 85.509814 
L 370.214054 86.632052 
L 370.539034 85.534872 
L 370.864013 86.037747 
L 371.188993 86.052138 
L 371.513972 85.550924 
L 371.838952 85.986305 
L 372.163931 85.695896 
L 372.488911 85.603247 
L 372.81389 85.643193 
L 373.13887 85.505581 
L 373.463849 85.413101 
L 373.788829 85.387713 
L 374.113808 85.142943 
L 374.438788 85.255828 
L 374.763767 84.955013 
L 375.088747 84.796931 
L 375.413726 84.979306 
L 375.738706 84.291755 
L 376.063686 84.663934 
L 376.388665 84.244228 
L 376.713645 83.9939 
L 377.038624 84.110901 
L 377.363604 83.635162 
L 377.688583 83.572366 
L 378.013563 83.419788 
L 378.338542 83.053671 
L 378.663522 82.9778 
L 378.988501 82.688769 
L 379.313481 82.388992 
L 379.63846 82.28928 
L 379.96344 81.860336 
L 380.288419 81.687267 
L 380.613399 81.472797 
L 380.938378 80.958654 
L 381.263358 80.975802 
L 381.588337 80.40877 
L 381.913317 80.193035 
L 382.238296 79.951502 
L 382.563276 79.427987 
L 382.888256 79.253728 
L 383.213235 78.839013 
L 383.538215 78.406022 
L 383.863194 78.170997 
L 384.188174 77.65839 
L 384.513153 77.309489 
L 384.838133 76.956332 
L 385.163112 76.419806 
L 385.488092 76.110848 
L 385.813071 75.625812 
L 386.138051 75.113202 
L 386.46303 74.810994 
L 386.78801 74.152421 
L 387.112989 73.805177 
L 387.437969 73.283213 
L 387.762948 72.702679 
L 388.087928 72.31004 
L 388.412907 71.686154 
L 388.737887 71.162488 
L 389.062867 70.679047 
L 389.387846 70.00665 
L 389.712826 69.521533 
L 390.037805 68.908754 
L 390.362785 68.262504 
L 390.687764 67.738717 
L 391.012744 67.03766 
L 391.337723 66.420243 
L 391.662703 65.826008 
L 391.987682 65.055214 
L 392.312662 64.494025 
L 392.637641 63.736948 
L 392.962621 63.033784 
L 393.2876 62.380821 
L 393.61258 61.572716 
L 393.937559 60.882545 
L 394.262539 60.133399 
L 394.587518 59.305883 
L 394.912498 58.601773 
L 395.237477 57.747384 
L 395.562457 56.945398 
L 395.887437 56.159409 
L 396.212416 55.257812 
L 396.537396 54.450514 
L 396.862375 53.577502 
L 397.187355 52.648566 
L 397.512334 51.82348 
L 397.837314 50.840285 
L 398.162293 49.944217 
L 398.487273 49.012364 
" clip-path="url(#p574e6631bc)" style="fill: none; stroke: #ff7f0e; stroke-width: 1.5; stroke-linecap: square"/>
   </g>
   <g id="line2d_17">
    <path d="M 366.3143 207.36 
L 366.3143 41.472 
" clip-path="url(#p574e6631bc)" style="fill: none; stroke: #ff0000; stroke-width: 1.5; stroke-linecap: square"/>
   </g>
   <g id="patch_3">
    <path d="M 57.6 207.36 
L 57.6 41.472 
" style="fill: none; stroke: #000000; stroke-width: 0.8; stroke-linejoin: miter; stroke-linecap: square"/>
   </g>
   <g id="patch_4">
    <path d="M 414.72 207.36 
L 414.72 41.472 
" style="fill: none; stroke: #000000; stroke-width: 0.8; stroke-linejoin: miter; stroke-linecap: square"/>
   </g>
   <g id="patch_5">
    <path d="M 57.6 207.36 
L 414.72 207.36 
" style="fill: none; stroke: #000000; stroke-width: 0.8; stroke-linejoin: miter; stroke-linecap: square"/>
   </g>
   <g id="patch_6">
    <path d="M 57.6 41.472 
L 414.72 41.472 
" style="fill: none; stroke: #000000; stroke-width: 0.8; stroke-linejoin: miter; stroke-linecap: square"/>
   </g>
  </g>
  <g id="axes_2">
   <g id="patch_7">
    <path d="M 115.2 291.168 
L 414.72 291.168 
L 414.72 285.984 
L 115.2 285.984 
z
" clip-path="url(#pd1ea6fd138)" style="fill: #d3d3d3"/>
   </g>
   <g id="patch_8">
    <path d="M 115.2 291.168 
L 121.1904 291.168 
L 121.1904 285.984 
L 115.2 285.984 
z
" clip-path="url(#pd1ea6fd138)" style="fill: #1f77b4"/>
   </g>
   <g id="line2d_18">
    <path d="M 121.1904 293.76 
L 121.1904 283.392 
" clip-path="url(#pf1b7800c98)" style="fill: none; stroke: #ff0000; stroke-linecap: square"/>
   </g>
   <g id="line2d_19">
    <defs>
     <path id="m7ceb4fcec8" d="M 0 5 
C 1.326016 5 2.597899 4.473168 3.535534 3.535534 
C 4.473168 2.597899 5 1.326016 5 0 
C 5 -1.326016 4.473168 -2.597899 3.535534 -3.535534 
C 2.597899 -4.473168 1.326016 -5 0 -5 
C -1.326016 -5 -2.597899 -4.473168 -3.535534 -3.535534 
C -4.473168 -2.597899 -5 -1.326016 -5 0 
C -5 1.326016 -4.473168 2.597899 -3.535534 3.535534 
C -2.597899 4.473168 -1.326016 5 0 5 
z
" style="stroke: #bfbfbf"/>
    </defs>
    <g>
     <use xlink:href="#m7ceb4fcec8" x="121.1904" y="288.576" style="fill: #ffffff; stroke: #bfbfbf"/>
    </g>
   </g>
   <g id="text_15">
    <!-- P -->
    <g transform="translate(103.179913 291.335375) scale(0.1 -0.1)">
     <defs>
      <path id="DejaVuSans-50" d="M 1259 4147 
L 1259 2394 
L 2053 2394 
Q 2494 2394 2734 2622 
Q 2975 2850 2975 3272 
Q 2975 3691 2734 3919 
Q 2494 4147 2053 4147 
L 1259 4147 
z
M 628 4666 
L 2053 4666 
Q 2838 4666 3239 4311 
Q 3641 3956 3641 3272 
Q 3641 2581 3239 2228 
Q 2838 1875 2053 1875 
L 1259 1875 
L 1259 0 
L 628 0 
L 628 4666 
z
" transform="scale(0.015625)"/>
     </defs>
     <use xlink:href="#DejaVuSans-50"/>
    </g>
   </g>
   <g id="text_16">
    <!-- $\mathdefault{20}$ -->
    <g transform="translate(420.7104 291.335375) scale(0.1 -0.1)">
     <use xlink:href="#DejaVuSans-32" transform="translate(0 0.78125)"/>
     <use xlink:href="#DejaVuSans-30" transform="translate(63.623047 0.78125)"/>
    </g>
   </g>
  </g>
  <g id="axes_3">
   <g id="patch_9">
    <path d="M 115.2 308.448 
L 414.72 308.448 
L 414.72 303.264 
L 115.2 303.264 
z
" clip-path="url(#pdfed9ec10f)" style="fill: #d3d3d3"/>
   </g>
   <g id="patch_10">
    <path d="M 115.2 308.448 
L 145.152 308.448 
L 145.152 303.264 
L 115.2 303.264 
z
" clip-path="url(#pdfed9ec10f)" style="fill: #1f77b4"/>
   </g>
   <g id="line2d_20">
    <path d="M 145.152 311.04 
L 145.152 300.672 
" clip-path="url(#pb612a1a0f8)" style="fill: none; stroke: #ff0000; stroke-linecap: square"/>
   </g>
   <g id="line2d_21">
    <g>
     <use xlink:href="#m7ceb4fcec8" x="145.152" y="305.856" style="fill: #ffffff; stroke: #bfbfbf"/>
    </g>
   </g>
   <g id="text_17">
    <!-- M -->
    <g transform="translate(100.581475 308.615375) scale(0.1 -0.1)">
     <defs>
      <path id="DejaVuSans-4d" d="M 628 4666 
L 1569 4666 
L 2759 1491 
L 3956 4666 
L 4897 4666 
L 4897 0 
L 4281 0 
L 4281 4097 
L 3078 897 
L 2444 897 
L 1241 4097 
L 1241 0 
L 628 0 
L 628 4666 
z
" transform="scale(0.015625)"/>
     </defs>
     <use xlink:href="#DejaVuSans-4d"/>
    </g>
   </g>
   <g id="text_18">
    <!-- $\mathdefault{100}$ -->
    <g transform="translate(420.7104 308.615375) scale(0.1 -0.1)">
     <use xlink:href="#DejaVuSans-31" transform="translate(0 0.78125)"/>
     <use xlink:href="#DejaVuSans-30" transform="translate(63.623047 0.78125)"/>
     <use xlink:href="#DejaVuSans-30" transform="translate(127.246094 0.78125)"/>
    </g>
   </g>
  </g>
  <g id="legend_1">
   <g id="patch_11">
    <path d="M 247.104688 52.034375 
L 453.8 52.034375 
Q 455.8 52.034375 455.8 50.034375 
L 455.8 7 
Q 455.8 5 453.8 5 
L 247.104688 5 
Q 245.104688 5 245.104688 7 
L 245.104688 50.034375 
Q 245.104688 52.034375 247.104688 52.034375 
z
" style="fill: #ffffff; opacity: 0.8; stroke: #cccccc; stroke-linejoin: miter"/>
   </g>
   <g id="line2d_22">
    <path d="M 249.104688 13.098437 
L 259.104688 13.098437 
L 269.104688 13.098437 
" style="fill: none; stroke: #1f77b4; stroke-width: 1.5; stroke-linecap: square"/>
   </g>
   <g id="text_19">
    <!-- Serie timp originala -->
    <g transform="translate(277.104688 16.598437) scale(0.1 -0.1)">
     <defs>
      <path id="DejaVuSans-53" d="M 3425 4513 
L 3425 3897 
Q 3066 4069 2747 4153 
Q 2428 4238 2131 4238 
Q 1616 4238 1336 4038 
Q 1056 3838 1056 3469 
Q 1056 3159 1242 3001 
Q 1428 2844 1947 2747 
L 2328 2669 
Q 3034 2534 3370 2195 
Q 3706 1856 3706 1288 
Q 3706 609 3251 259 
Q 2797 -91 1919 -91 
Q 1588 -91 1214 -16 
Q 841 59 441 206 
L 441 856 
Q 825 641 1194 531 
Q 1563 422 1919 422 
Q 2459 422 2753 634 
Q 3047 847 3047 1241 
Q 3047 1584 2836 1778 
Q 2625 1972 2144 2069 
L 1759 2144 
Q 1053 2284 737 2584 
Q 422 2884 422 3419 
Q 422 4038 858 4394 
Q 1294 4750 2059 4750 
Q 2388 4750 2728 4690 
Q 3069 4631 3425 4513 
z
" transform="scale(0.015625)"/>
      <path id="DejaVuSans-65" d="M 3597 1894 
L 3597 1613 
L 953 1613 
Q 991 1019 1311 708 
Q 1631 397 2203 397 
Q 2534 397 2845 478 
Q 3156 559 3463 722 
L 3463 178 
Q 3153 47 2828 -22 
Q 2503 -91 2169 -91 
Q 1331 -91 842 396 
Q 353 884 353 1716 
Q 353 2575 817 3079 
Q 1281 3584 2069 3584 
Q 2775 3584 3186 3129 
Q 3597 2675 3597 1894 
z
M 3022 2063 
Q 3016 2534 2758 2815 
Q 2500 3097 2075 3097 
Q 1594 3097 1305 2825 
Q 1016 2553 972 2059 
L 3022 2063 
z
" transform="scale(0.015625)"/>
      <path id="DejaVuSans-72" d="M 2631 2963 
Q 2534 3019 2420 3045 
Q 2306 3072 2169 3072 
Q 1681 3072 1420 2755 
Q 1159 2438 1159 1844 
L 1159 0 
L 581 0 
L 581 3500 
L 1159 3500 
L 1159 2956 
Q 1341 3275 1631 3429 
Q 1922 3584 2338 3584 
Q 2397 3584 2469 3576 
Q 2541 3569 2628 3553 
L 2631 2963 
z
" transform="scale(0.015625)"/>
      <path id="DejaVuSans-69" d="M 603 3500 
L 1178 3500 
L 1178 0 
L 603 0 
L 603 3500 
z
M 603 4863 
L 1178 4863 
L 1178 4134 
L 603 4134 
L 603 4863 
z
" transform="scale(0.015625)"/>
      <path id="DejaVuSans-20" transform="scale(0.015625)"/>
      <path id="DejaVuSans-74" d="M 1172 4494 
L 1172 3500 
L 2356 3500 
L 2356 3053 
L 1172 3053 
L 1172 1153 
Q 1172 725 1289 603 
Q 1406 481 1766 481 
L 2356 481 
L 2356 0 
L 1766 0 
Q 1100 0 847 248 
Q 594 497 594 1153 
L 594 3053 
L 172 3053 
L 172 3500 
L 594 3500 
L 594 4494 
L 1172 4494 
z
" transform="scale(0.015625)"/>
      <path id="DejaVuSans-6d" d="M 3328 2828 
Q 3544 3216 3844 3400 
Q 4144 3584 4550 3584 
Q 5097 3584 5394 3201 
Q 5691 2819 5691 2113 
L 5691 0 
L 5113 0 
L 5113 2094 
Q 5113 2597 4934 2840 
Q 4756 3084 4391 3084 
Q 3944 3084 3684 2787 
Q 3425 2491 3425 1978 
L 3425 0 
L 2847 0 
L 2847 2094 
Q 2847 2600 2669 2842 
Q 2491 3084 2119 3084 
Q 1678 3084 1418 2786 
Q 1159 2488 1159 1978 
L 1159 0 
L 581 0 
L 581 3500 
L 1159 3500 
L 1159 2956 
Q 1356 3278 1631 3431 
Q 1906 3584 2284 3584 
Q 2666 3584 2933 3390 
Q 3200 3197 3328 2828 
z
" transform="scale(0.015625)"/>
      <path id="DejaVuSans-70" d="M 1159 525 
L 1159 -1331 
L 581 -1331 
L 581 3500 
L 1159 3500 
L 1159 2969 
Q 1341 3281 1617 3432 
Q 1894 3584 2278 3584 
Q 2916 3584 3314 3078 
Q 3713 2572 3713 1747 
Q 3713 922 3314 415 
Q 2916 -91 2278 -91 
Q 1894 -91 1617 61 
Q 1341 213 1159 525 
z
M 3116 1747 
Q 3116 2381 2855 2742 
Q 2594 3103 2138 3103 
Q 1681 3103 1420 2742 
Q 1159 2381 1159 1747 
Q 1159 1113 1420 752 
Q 1681 391 2138 391 
Q 2594 391 2855 752 
Q 3116 1113 3116 1747 
z
" transform="scale(0.015625)"/>
      <path id="DejaVuSans-6f" d="M 1959 3097 
Q 1497 3097 1228 2736 
Q 959 2375 959 1747 
Q 959 1119 1226 758 
Q 1494 397 1959 397 
Q 2419 397 2687 759 
Q 2956 1122 2956 1747 
Q 2956 2369 2687 2733 
Q 2419 3097 1959 3097 
z
M 1959 3584 
Q 2709 3584 3137 3096 
Q 3566 2609 3566 1747 
Q 3566 888 3137 398 
Q 2709 -91 1959 -91 
Q 1206 -91 779 398 
Q 353 888 353 1747 
Q 353 2609 779 3096 
Q 1206 3584 1959 3584 
z
" transform="scale(0.015625)"/>
      <path id="DejaVuSans-67" d="M 2906 1791 
Q 2906 2416 2648 2759 
Q 2391 3103 1925 3103 
Q 1463 3103 1205 2759 
Q 947 2416 947 1791 
Q 947 1169 1205 825 
Q 1463 481 1925 481 
Q 2391 481 2648 825 
Q 2906 1169 2906 1791 
z
M 3481 434 
Q 3481 -459 3084 -895 
Q 2688 -1331 1869 -1331 
Q 1566 -1331 1297 -1286 
Q 1028 -1241 775 -1147 
L 775 -588 
Q 1028 -725 1275 -790 
Q 1522 -856 1778 -856 
Q 2344 -856 2625 -561 
Q 2906 -266 2906 331 
L 2906 616 
Q 2728 306 2450 153 
Q 2172 0 1784 0 
Q 1141 0 747 490 
Q 353 981 353 1791 
Q 353 2603 747 3093 
Q 1141 3584 1784 3584 
Q 2172 3584 2450 3431 
Q 2728 3278 2906 2969 
L 2906 3500 
L 3481 3500 
L 3481 434 
z
" transform="scale(0.015625)"/>
      <path id="DejaVuSans-6e" d="M 3513 2113 
L 3513 0 
L 2938 0 
L 2938 2094 
Q 2938 2591 2744 2837 
Q 2550 3084 2163 3084 
Q 1697 3084 1428 2787 
Q 1159 2491 1159 1978 
L 1159 0 
L 581 0 
L 581 3500 
L 1159 3500 
L 1159 2956 
Q 1366 3272 1645 3428 
Q 1925 3584 2291 3584 
Q 2894 3584 3203 3211 
Q 3513 2838 3513 2113 
z
" transform="scale(0.015625)"/>
      <path id="DejaVuSans-61" d="M 2194 1759 
Q 1497 1759 1228 1600 
Q 959 1441 959 1056 
Q 959 750 1161 570 
Q 1363 391 1709 391 
Q 2188 391 2477 730 
Q 2766 1069 2766 1631 
L 2766 1759 
L 2194 1759 
z
M 3341 1997 
L 3341 0 
L 2766 0 
L 2766 531 
Q 2569 213 2275 61 
Q 1981 -91 1556 -91 
Q 1019 -91 701 211 
Q 384 513 384 1019 
Q 384 1609 779 1909 
Q 1175 2209 1959 2209 
L 2766 2209 
L 2766 2266 
Q 2766 2663 2505 2880 
Q 2244 3097 1772 3097 
Q 1472 3097 1187 3025 
Q 903 2953 641 2809 
L 641 3341 
Q 956 3463 1253 3523 
Q 1550 3584 1831 3584 
Q 2591 3584 2966 3190 
Q 3341 2797 3341 1997 
z
" transform="scale(0.015625)"/>
      <path id="DejaVuSans-6c" d="M 603 4863 
L 1178 4863 
L 1178 0 
L 603 0 
L 603 4863 
z
" transform="scale(0.015625)"/>
     </defs>
     <use xlink:href="#DejaVuSans-53"/>
     <use xlink:href="#DejaVuSans-65" x="63.476562"/>
     <use xlink:href="#DejaVuSans-72" x="125"/>
     <use xlink:href="#DejaVuSans-69" x="166.113281"/>
     <use xlink:href="#DejaVuSans-65" x="193.896484"/>
     <use xlink:href="#DejaVuSans-20" x="255.419922"/>
     <use xlink:href="#DejaVuSans-74" x="287.207031"/>
     <use xlink:href="#DejaVuSans-69" x="326.416016"/>
     <use xlink:href="#DejaVuSans-6d" x="354.199219"/>
     <use xlink:href="#DejaVuSans-70" x="451.611328"/>
     <use xlink:href="#DejaVuSans-20" x="515.087891"/>
     <use xlink:href="#DejaVuSans-6f" x="546.875"/>
     <use xlink:href="#DejaVuSans-72" x="608.056641"/>
     <use xlink:href="#DejaVuSans-69" x="649.169922"/>
     <use xlink:href="#DejaVuSans-67" x="676.953125"/>
     <use xlink:href="#DejaVuSans-69" x="740.429688"/>
     <use xlink:href="#DejaVuSans-6e" x="768.212891"/>
     <use xlink:href="#DejaVuSans-61" x="831.591797"/>
     <use xlink:href="#DejaVuSans-6c" x="892.871094"/>
     <use xlink:href="#DejaVuSans-61" x="920.654297"/>
    </g>
   </g>
   <g id="line2d_23">
    <path d="M 249.104688 27.776563 
L 259.104688 27.776563 
L 269.104688 27.776563 
" style="fill: none; stroke: #ff7f0e; stroke-width: 1.5; stroke-linecap: square"/>
   </g>
   <g id="text_20">
    <!-- Valori prezise -->
    <g transform="translate(277.104688 31.276563) scale(0.1 -0.1)">
     <defs>
      <path id="DejaVuSans-56" d="M 1831 0 
L 50 4666 
L 709 4666 
L 2188 738 
L 3669 4666 
L 4325 4666 
L 2547 0 
L 1831 0 
z
" transform="scale(0.015625)"/>
      <path id="DejaVuSans-7a" d="M 353 3500 
L 3084 3500 
L 3084 2975 
L 922 459 
L 3084 459 
L 3084 0 
L 275 0 
L 275 525 
L 2438 3041 
L 353 3041 
L 353 3500 
z
" transform="scale(0.015625)"/>
      <path id="DejaVuSans-73" d="M 2834 3397 
L 2834 2853 
Q 2591 2978 2328 3040 
Q 2066 3103 1784 3103 
Q 1356 3103 1142 2972 
Q 928 2841 928 2578 
Q 928 2378 1081 2264 
Q 1234 2150 1697 2047 
L 1894 2003 
Q 2506 1872 2764 1633 
Q 3022 1394 3022 966 
Q 3022 478 2636 193 
Q 2250 -91 1575 -91 
Q 1294 -91 989 -36 
Q 684 19 347 128 
L 347 722 
Q 666 556 975 473 
Q 1284 391 1588 391 
Q 1994 391 2212 530 
Q 2431 669 2431 922 
Q 2431 1156 2273 1281 
Q 2116 1406 1581 1522 
L 1381 1569 
Q 847 1681 609 1914 
Q 372 2147 372 2553 
Q 372 3047 722 3315 
Q 1072 3584 1716 3584 
Q 2034 3584 2315 3537 
Q 2597 3491 2834 3397 
z
" transform="scale(0.015625)"/>
     </defs>
     <use xlink:href="#DejaVuSans-56"/>
     <use xlink:href="#DejaVuSans-61" x="60.658203"/>
     <use xlink:href="#DejaVuSans-6c" x="121.9375"/>
     <use xlink:href="#DejaVuSans-6f" x="149.720703"/>
     <use xlink:href="#DejaVuSans-72" x="210.902344"/>
     <use xlink:href="#DejaVuSans-69" x="252.015625"/>
     <use xlink:href="#DejaVuSans-20" x="279.798828"/>
     <use xlink:href="#DejaVuSans-70" x="311.585938"/>
     <use xlink:href="#DejaVuSans-72" x="375.0625"/>
     <use xlink:href="#DejaVuSans-65" x="413.925781"/>
     <use xlink:href="#DejaVuSans-7a" x="475.449219"/>
     <use xlink:href="#DejaVuSans-69" x="527.939453"/>
     <use xlink:href="#DejaVuSans-73" x="555.722656"/>
     <use xlink:href="#DejaVuSans-65" x="607.822266"/>
    </g>
   </g>
   <g id="line2d_24">
    <path d="M 249.104688 42.454687 
L 259.104688 42.454687 
L 269.104688 42.454687 
" style="fill: none; stroke: #ff0000; stroke-width: 1.5; stroke-linecap: square"/>
   </g>
   <g id="text_21">
    <!-- Numarul predictiilor luate in model -->
    <g transform="translate(277.104688 45.954687) scale(0.1 -0.1)">
     <defs>
      <path id="DejaVuSans-4e" d="M 628 4666 
L 1478 4666 
L 3547 763 
L 3547 4666 
L 4159 4666 
L 4159 0 
L 3309 0 
L 1241 3903 
L 1241 0 
L 628 0 
L 628 4666 
z
" transform="scale(0.015625)"/>
      <path id="DejaVuSans-75" d="M 544 1381 
L 544 3500 
L 1119 3500 
L 1119 1403 
Q 1119 906 1312 657 
Q 1506 409 1894 409 
Q 2359 409 2629 706 
Q 2900 1003 2900 1516 
L 2900 3500 
L 3475 3500 
L 3475 0 
L 2900 0 
L 2900 538 
Q 2691 219 2414 64 
Q 2138 -91 1772 -91 
Q 1169 -91 856 284 
Q 544 659 544 1381 
z
M 1991 3584 
L 1991 3584 
z
" transform="scale(0.015625)"/>
      <path id="DejaVuSans-64" d="M 2906 2969 
L 2906 4863 
L 3481 4863 
L 3481 0 
L 2906 0 
L 2906 525 
Q 2725 213 2448 61 
Q 2172 -91 1784 -91 
Q 1150 -91 751 415 
Q 353 922 353 1747 
Q 353 2572 751 3078 
Q 1150 3584 1784 3584 
Q 2172 3584 2448 3432 
Q 2725 3281 2906 2969 
z
M 947 1747 
Q 947 1113 1208 752 
Q 1469 391 1925 391 
Q 2381 391 2643 752 
Q 2906 1113 2906 1747 
Q 2906 2381 2643 2742 
Q 2381 3103 1925 3103 
Q 1469 3103 1208 2742 
Q 947 2381 947 1747 
z
" transform="scale(0.015625)"/>
      <path id="DejaVuSans-63" d="M 3122 3366 
L 3122 2828 
Q 2878 2963 2633 3030 
Q 2388 3097 2138 3097 
Q 1578 3097 1268 2742 
Q 959 2388 959 1747 
Q 959 1106 1268 751 
Q 1578 397 2138 397 
Q 2388 397 2633 464 
Q 2878 531 3122 666 
L 3122 134 
Q 2881 22 2623 -34 
Q 2366 -91 2075 -91 
Q 1284 -91 818 406 
Q 353 903 353 1747 
Q 353 2603 823 3093 
Q 1294 3584 2113 3584 
Q 2378 3584 2631 3529 
Q 2884 3475 3122 3366 
z
" transform="scale(0.015625)"/>
     </defs>
     <use xlink:href="#DejaVuSans-4e"/>
     <use xlink:href="#DejaVuSans-75" x="74.804688"/>
     <use xlink:href="#DejaVuSans-6d" x="138.183594"/>
     <use xlink:href="#DejaVuSans-61" x="235.595703"/>
     <use xlink:href="#DejaVuSans-72" x="296.875"/>
     <use xlink:href="#DejaVuSans-75" x="337.988281"/>
     <use xlink:href="#DejaVuSans-6c" x="401.367188"/>
     <use xlink:href="#DejaVuSans-20" x="429.150391"/>
     <use xlink:href="#DejaVuSans-70" x="460.9375"/>
     <use xlink:href="#DejaVuSans-72" x="524.414062"/>
     <use xlink:href="#DejaVuSans-65" x="563.277344"/>
     <use xlink:href="#DejaVuSans-64" x="624.800781"/>
     <use xlink:href="#DejaVuSans-69" x="688.277344"/>
     <use xlink:href="#DejaVuSans-63" x="716.060547"/>
     <use xlink:href="#DejaVuSans-74" x="771.041016"/>
     <use xlink:href="#DejaVuSans-69" x="810.25"/>
     <use xlink:href="#DejaVuSans-69" x="838.033203"/>
     <use xlink:href="#DejaVuSans-6c" x="865.816406"/>
     <use xlink:href="#DejaVuSans-6f" x="893.599609"/>
     <use xlink:href="#DejaVuSans-72" x="954.78125"/>
     <use xlink:href="#DejaVuSans-20" x="995.894531"/>
     <use xlink:href="#DejaVuSans-6c" x="1027.681641"/>
     <use xlink:href="#DejaVuSans-75" x="1055.464844"/>
     <use xlink:href="#DejaVuSans-61" x="1118.84375"/>
     <use xlink:href="#DejaVuSans-74" x="1180.123047"/>
     <use xlink:href="#DejaVuSans-65" x="1219.332031"/>
     <use xlink:href="#DejaVuSans-20" x="1280.855469"/>
     <use xlink:href="#DejaVuSans-69" x="1312.642578"/>
     <use xlink:href="#DejaVuSans-6e" x="1340.425781"/>
     <use xlink:href="#DejaVuSans-20" x="1403.804688"/>
     <use xlink:href="#DejaVuSans-6d" x="1435.591797"/>
     <use xlink:href="#DejaVuSans-6f" x="1533.003906"/>
     <use xlink:href="#DejaVuSans-64" x="1594.185547"/>
     <use xlink:href="#DejaVuSans-65" x="1657.662109"/>
     <use xlink:href="#DejaVuSans-6c" x="1719.185547"/>
    </g>
   </g>
  </g>
 </g>
 <defs>
  <clipPath id="p574e6631bc">
   <rect x="57.6" y="41.472" width="357.12" height="165.888"/>
  </clipPath>
  <clipPath id="pd1ea6fd138">
   <rect x="115.2" y="283.392" width="299.52" height="10.368"/>
  </clipPath>
  <clipPath id="pf1b7800c98">
   <path d="M 115.2 291.168 
L 414.72 291.168 
L 414.72 285.984 
L 115.2 285.984 
z
"/>
  </clipPath>
  <clipPath id="pdfed9ec10f">
   <rect x="115.2" y="300.672" width="299.52" height="10.368"/>
  </clipPath>
  <clipPath id="pb612a1a0f8">
   <path d="M 115.2 308.448 
L 414.72 308.448 
L 414.72 303.264 
L 115.2 303.264 
z
"/>
  </clipPath>
 </defs>
</svg>
