<?xml version="1.0" encoding="utf-8" standalone="no"?>
<!DOCTYPE svg PUBLIC "-//W3C//DTD SVG 1.1//EN"
  "http://www.w3.org/Graphics/SVG/1.1/DTD/svg11.dtd">
<svg xmlns:xlink="http://www.w3.org/1999/xlink" width="460.8pt" height="345.6pt" viewBox="0 0 460.8 345.6" xmlns="http://www.w3.org/2000/svg" version="1.1">
 <metadata>
  <rdf:RDF xmlns:dc="http://purl.org/dc/elements/1.1/" xmlns:cc="http://creativecommons.org/ns#" xmlns:rdf="http://www.w3.org/1999/02/22-rdf-syntax-ns#">
   <cc:Work>
    <dc:type rdf:resource="http://purl.org/dc/dcmitype/StillImage"/>
    <dc:date>2024-11-27T23:44:18.648352</dc:date>
    <dc:format>image/svg+xml</dc:format>
    <dc:creator>
     <cc:Agent>
      <dc:title>Matplotlib v3.9.2, https://matplotlib.org/</dc:title>
     </cc:Agent>
    </dc:creator>
   </cc:Work>
  </rdf:RDF>
 </metadata>
 <defs>
  <style type="text/css">*{stroke-linejoin: round; stroke-linecap: butt}</style>
 </defs>
 <g id="figure_1">
  <g id="patch_1">
   <path d="M 0 345.6 
L 460.8 345.6 
L 460.8 0 
L 0 0 
z
" style="fill: #ffffff"/>
  </g>
  <g id="axes_1">
   <g id="patch_2">
    <path d="M 57.6 207.36 
L 414.72 207.36 
L 414.72 41.472 
L 57.6 41.472 
z
" style="fill: #ffffff"/>
   </g>
   <g id="matplotlib.axis_1">
    <g id="xtick_1">
     <g id="line2d_1">
      <defs>
       <path id="m1ac783b309" d="M 0 0 
L 0 3.5 
" style="stroke: #000000; stroke-width: 0.8"/>
      </defs>
      <g>
       <use xlink:href="#m1ac783b309" x="73.832727" y="207.36" style="stroke: #000000; stroke-width: 0.8"/>
      </g>
     </g>
     <g id="text_1">
      <!-- 0 -->
      <g transform="translate(70.651477 221.958438) scale(0.1 -0.1)">
       <defs>
        <path id="DejaVuSans-30" d="M 2034 4250 
Q 1547 4250 1301 3770 
Q 1056 3291 1056 2328 
Q 1056 1369 1301 889 
Q 1547 409 2034 409 
Q 2525 409 2770 889 
Q 3016 1369 3016 2328 
Q 3016 3291 2770 3770 
Q 2525 4250 2034 4250 
z
M 2034 4750 
Q 2819 4750 3233 4129 
Q 3647 3509 3647 2328 
Q 3647 1150 3233 529 
Q 2819 -91 2034 -91 
Q 1250 -91 836 529 
Q 422 1150 422 2328 
Q 422 3509 836 4129 
Q 1250 4750 2034 4750 
z
" transform="scale(0.015625)"/>
       </defs>
       <use xlink:href="#DejaVuSans-30"/>
      </g>
     </g>
    </g>
    <g id="xtick_2">
     <g id="line2d_2">
      <g>
       <use xlink:href="#m1ac783b309" x="114.434847" y="207.36" style="stroke: #000000; stroke-width: 0.8"/>
      </g>
     </g>
     <g id="text_2">
      <!-- 250 -->
      <g transform="translate(104.891097 221.958438) scale(0.1 -0.1)">
       <defs>
        <path id="DejaVuSans-32" d="M 1228 531 
L 3431 531 
L 3431 0 
L 469 0 
L 469 531 
Q 828 903 1448 1529 
Q 2069 2156 2228 2338 
Q 2531 2678 2651 2914 
Q 2772 3150 2772 3378 
Q 2772 3750 2511 3984 
Q 2250 4219 1831 4219 
Q 1534 4219 1204 4116 
Q 875 4013 500 3803 
L 500 4441 
Q 881 4594 1212 4672 
Q 1544 4750 1819 4750 
Q 2544 4750 2975 4387 
Q 3406 4025 3406 3419 
Q 3406 3131 3298 2873 
Q 3191 2616 2906 2266 
Q 2828 2175 2409 1742 
Q 1991 1309 1228 531 
z
" transform="scale(0.015625)"/>
        <path id="DejaVuSans-35" d="M 691 4666 
L 3169 4666 
L 3169 4134 
L 1269 4134 
L 1269 2991 
Q 1406 3038 1543 3061 
Q 1681 3084 1819 3084 
Q 2600 3084 3056 2656 
Q 3513 2228 3513 1497 
Q 3513 744 3044 326 
Q 2575 -91 1722 -91 
Q 1428 -91 1123 -41 
Q 819 9 494 109 
L 494 744 
Q 775 591 1075 516 
Q 1375 441 1709 441 
Q 2250 441 2565 725 
Q 2881 1009 2881 1497 
Q 2881 1984 2565 2268 
Q 2250 2553 1709 2553 
Q 1456 2553 1204 2497 
Q 953 2441 691 2322 
L 691 4666 
z
" transform="scale(0.015625)"/>
       </defs>
       <use xlink:href="#DejaVuSans-32"/>
       <use xlink:href="#DejaVuSans-35" x="63.623047"/>
       <use xlink:href="#DejaVuSans-30" x="127.246094"/>
      </g>
     </g>
    </g>
    <g id="xtick_3">
     <g id="line2d_3">
      <g>
       <use xlink:href="#m1ac783b309" x="155.036966" y="207.36" style="stroke: #000000; stroke-width: 0.8"/>
      </g>
     </g>
     <g id="text_3">
      <!-- 500 -->
      <g transform="translate(145.493216 221.958438) scale(0.1 -0.1)">
       <use xlink:href="#DejaVuSans-35"/>
       <use xlink:href="#DejaVuSans-30" x="63.623047"/>
       <use xlink:href="#DejaVuSans-30" x="127.246094"/>
      </g>
     </g>
    </g>
    <g id="xtick_4">
     <g id="line2d_4">
      <g>
       <use xlink:href="#m1ac783b309" x="195.639085" y="207.36" style="stroke: #000000; stroke-width: 0.8"/>
      </g>
     </g>
     <g id="text_4">
      <!-- 750 -->
      <g transform="translate(186.095335 221.958438) scale(0.1 -0.1)">
       <defs>
        <path id="DejaVuSans-37" d="M 525 4666 
L 3525 4666 
L 3525 4397 
L 1831 0 
L 1172 0 
L 2766 4134 
L 525 4134 
L 525 4666 
z
" transform="scale(0.015625)"/>
       </defs>
       <use xlink:href="#DejaVuSans-37"/>
       <use xlink:href="#DejaVuSans-35" x="63.623047"/>
       <use xlink:href="#DejaVuSans-30" x="127.246094"/>
      </g>
     </g>
    </g>
    <g id="xtick_5">
     <g id="line2d_5">
      <g>
       <use xlink:href="#m1ac783b309" x="236.241204" y="207.36" style="stroke: #000000; stroke-width: 0.8"/>
      </g>
     </g>
     <g id="text_5">
      <!-- 1000 -->
      <g transform="translate(223.516204 221.958438) scale(0.1 -0.1)">
       <defs>
        <path id="DejaVuSans-31" d="M 794 531 
L 1825 531 
L 1825 4091 
L 703 3866 
L 703 4441 
L 1819 4666 
L 2450 4666 
L 2450 531 
L 3481 531 
L 3481 0 
L 794 0 
L 794 531 
z
" transform="scale(0.015625)"/>
       </defs>
       <use xlink:href="#DejaVuSans-31"/>
       <use xlink:href="#DejaVuSans-30" x="63.623047"/>
       <use xlink:href="#DejaVuSans-30" x="127.246094"/>
       <use xlink:href="#DejaVuSans-30" x="190.869141"/>
      </g>
     </g>
    </g>
    <g id="xtick_6">
     <g id="line2d_6">
      <g>
       <use xlink:href="#m1ac783b309" x="276.843323" y="207.36" style="stroke: #000000; stroke-width: 0.8"/>
      </g>
     </g>
     <g id="text_6">
      <!-- 1250 -->
      <g transform="translate(264.118323 221.958438) scale(0.1 -0.1)">
       <use xlink:href="#DejaVuSans-31"/>
       <use xlink:href="#DejaVuSans-32" x="63.623047"/>
       <use xlink:href="#DejaVuSans-35" x="127.246094"/>
       <use xlink:href="#DejaVuSans-30" x="190.869141"/>
      </g>
     </g>
    </g>
    <g id="xtick_7">
     <g id="line2d_7">
      <g>
       <use xlink:href="#m1ac783b309" x="317.445443" y="207.36" style="stroke: #000000; stroke-width: 0.8"/>
      </g>
     </g>
     <g id="text_7">
      <!-- 1500 -->
      <g transform="translate(304.720443 221.958438) scale(0.1 -0.1)">
       <use xlink:href="#DejaVuSans-31"/>
       <use xlink:href="#DejaVuSans-35" x="63.623047"/>
       <use xlink:href="#DejaVuSans-30" x="127.246094"/>
       <use xlink:href="#DejaVuSans-30" x="190.869141"/>
      </g>
     </g>
    </g>
    <g id="xtick_8">
     <g id="line2d_8">
      <g>
       <use xlink:href="#m1ac783b309" x="358.047562" y="207.36" style="stroke: #000000; stroke-width: 0.8"/>
      </g>
     </g>
     <g id="text_8">
      <!-- 1750 -->
      <g transform="translate(345.322562 221.958438) scale(0.1 -0.1)">
       <use xlink:href="#DejaVuSans-31"/>
       <use xlink:href="#DejaVuSans-37" x="63.623047"/>
       <use xlink:href="#DejaVuSans-35" x="127.246094"/>
       <use xlink:href="#DejaVuSans-30" x="190.869141"/>
      </g>
     </g>
    </g>
    <g id="xtick_9">
     <g id="line2d_9">
      <g>
       <use xlink:href="#m1ac783b309" x="398.649681" y="207.36" style="stroke: #000000; stroke-width: 0.8"/>
      </g>
     </g>
     <g id="text_9">
      <!-- 2000 -->
      <g transform="translate(385.924681 221.958438) scale(0.1 -0.1)">
       <use xlink:href="#DejaVuSans-32"/>
       <use xlink:href="#DejaVuSans-30" x="63.623047"/>
       <use xlink:href="#DejaVuSans-30" x="127.246094"/>
       <use xlink:href="#DejaVuSans-30" x="190.869141"/>
      </g>
     </g>
    </g>
   </g>
   <g id="matplotlib.axis_2">
    <g id="ytick_1">
     <g id="line2d_10">
      <defs>
       <path id="mc2e4df86b2" d="M 0 0 
L -3.5 0 
" style="stroke: #000000; stroke-width: 0.8"/>
      </defs>
      <g>
       <use xlink:href="#mc2e4df86b2" x="57.6" y="200.796493" style="stroke: #000000; stroke-width: 0.8"/>
      </g>
     </g>
     <g id="text_10">
      <!-- 2 -->
      <g transform="translate(44.2375 204.595711) scale(0.1 -0.1)">
       <use xlink:href="#DejaVuSans-32"/>
      </g>
     </g>
    </g>
    <g id="ytick_2">
     <g id="line2d_11">
      <g>
       <use xlink:href="#mc2e4df86b2" x="57.6" y="179.744645" style="stroke: #000000; stroke-width: 0.8"/>
      </g>
     </g>
     <g id="text_11">
      <!-- 4 -->
      <g transform="translate(44.2375 183.543864) scale(0.1 -0.1)">
       <defs>
        <path id="DejaVuSans-34" d="M 2419 4116 
L 825 1625 
L 2419 1625 
L 2419 4116 
z
M 2253 4666 
L 3047 4666 
L 3047 1625 
L 3713 1625 
L 3713 1100 
L 3047 1100 
L 3047 0 
L 2419 0 
L 2419 1100 
L 313 1100 
L 313 1709 
L 2253 4666 
z
" transform="scale(0.015625)"/>
       </defs>
       <use xlink:href="#DejaVuSans-34"/>
      </g>
     </g>
    </g>
    <g id="ytick_3">
     <g id="line2d_12">
      <g>
       <use xlink:href="#mc2e4df86b2" x="57.6" y="158.692797" style="stroke: #000000; stroke-width: 0.8"/>
      </g>
     </g>
     <g id="text_12">
      <!-- 6 -->
      <g transform="translate(44.2375 162.492016) scale(0.1 -0.1)">
       <defs>
        <path id="DejaVuSans-36" d="M 2113 2584 
Q 1688 2584 1439 2293 
Q 1191 2003 1191 1497 
Q 1191 994 1439 701 
Q 1688 409 2113 409 
Q 2538 409 2786 701 
Q 3034 994 3034 1497 
Q 3034 2003 2786 2293 
Q 2538 2584 2113 2584 
z
M 3366 4563 
L 3366 3988 
Q 3128 4100 2886 4159 
Q 2644 4219 2406 4219 
Q 1781 4219 1451 3797 
Q 1122 3375 1075 2522 
Q 1259 2794 1537 2939 
Q 1816 3084 2150 3084 
Q 2853 3084 3261 2657 
Q 3669 2231 3669 1497 
Q 3669 778 3244 343 
Q 2819 -91 2113 -91 
Q 1303 -91 875 529 
Q 447 1150 447 2328 
Q 447 3434 972 4092 
Q 1497 4750 2381 4750 
Q 2619 4750 2861 4703 
Q 3103 4656 3366 4563 
z
" transform="scale(0.015625)"/>
       </defs>
       <use xlink:href="#DejaVuSans-36"/>
      </g>
     </g>
    </g>
    <g id="ytick_4">
     <g id="line2d_13">
      <g>
       <use xlink:href="#mc2e4df86b2" x="57.6" y="137.640949" style="stroke: #000000; stroke-width: 0.8"/>
      </g>
     </g>
     <g id="text_13">
      <!-- 8 -->
      <g transform="translate(44.2375 141.440168) scale(0.1 -0.1)">
       <defs>
        <path id="DejaVuSans-38" d="M 2034 2216 
Q 1584 2216 1326 1975 
Q 1069 1734 1069 1313 
Q 1069 891 1326 650 
Q 1584 409 2034 409 
Q 2484 409 2743 651 
Q 3003 894 3003 1313 
Q 3003 1734 2745 1975 
Q 2488 2216 2034 2216 
z
M 1403 2484 
Q 997 2584 770 2862 
Q 544 3141 544 3541 
Q 544 4100 942 4425 
Q 1341 4750 2034 4750 
Q 2731 4750 3128 4425 
Q 3525 4100 3525 3541 
Q 3525 3141 3298 2862 
Q 3072 2584 2669 2484 
Q 3125 2378 3379 2068 
Q 3634 1759 3634 1313 
Q 3634 634 3220 271 
Q 2806 -91 2034 -91 
Q 1263 -91 848 271 
Q 434 634 434 1313 
Q 434 1759 690 2068 
Q 947 2378 1403 2484 
z
M 1172 3481 
Q 1172 3119 1398 2916 
Q 1625 2713 2034 2713 
Q 2441 2713 2670 2916 
Q 2900 3119 2900 3481 
Q 2900 3844 2670 4047 
Q 2441 4250 2034 4250 
Q 1625 4250 1398 4047 
Q 1172 3844 1172 3481 
z
" transform="scale(0.015625)"/>
       </defs>
       <use xlink:href="#DejaVuSans-38"/>
      </g>
     </g>
    </g>
    <g id="ytick_5">
     <g id="line2d_14">
      <g>
       <use xlink:href="#mc2e4df86b2" x="57.6" y="116.589101" style="stroke: #000000; stroke-width: 0.8"/>
      </g>
     </g>
     <g id="text_14">
      <!-- 10 -->
      <g transform="translate(37.875 120.38832) scale(0.1 -0.1)">
       <use xlink:href="#DejaVuSans-31"/>
       <use xlink:href="#DejaVuSans-30" x="63.623047"/>
      </g>
     </g>
    </g>
    <g id="ytick_6">
     <g id="line2d_15">
      <g>
       <use xlink:href="#mc2e4df86b2" x="57.6" y="95.537254" style="stroke: #000000; stroke-width: 0.8"/>
      </g>
     </g>
     <g id="text_15">
      <!-- 12 -->
      <g transform="translate(37.875 99.336472) scale(0.1 -0.1)">
       <use xlink:href="#DejaVuSans-31"/>
       <use xlink:href="#DejaVuSans-32" x="63.623047"/>
      </g>
     </g>
    </g>
    <g id="ytick_7">
     <g id="line2d_16">
      <g>
       <use xlink:href="#mc2e4df86b2" x="57.6" y="74.485406" style="stroke: #000000; stroke-width: 0.8"/>
      </g>
     </g>
     <g id="text_16">
      <!-- 14 -->
      <g transform="translate(37.875 78.284625) scale(0.1 -0.1)">
       <use xlink:href="#DejaVuSans-31"/>
       <use xlink:href="#DejaVuSans-34" x="63.623047"/>
      </g>
     </g>
    </g>
    <g id="ytick_8">
     <g id="line2d_17">
      <g>
       <use xlink:href="#mc2e4df86b2" x="57.6" y="53.433558" style="stroke: #000000; stroke-width: 0.8"/>
      </g>
     </g>
     <g id="text_17">
      <!-- 16 -->
      <g transform="translate(37.875 57.232777) scale(0.1 -0.1)">
       <use xlink:href="#DejaVuSans-31"/>
       <use xlink:href="#DejaVuSans-36" x="63.623047"/>
      </g>
     </g>
    </g>
   </g>
   <g id="line2d_18">
    <path d="M 73.832727 199.049103 
L 74.157544 199.819636 
L 74.482361 198.330343 
L 74.807178 198.897527 
L 74.969587 198.611961 
L 75.131995 198.00103 
L 75.294404 198.847807 
L 75.456812 199.070048 
L 75.619221 198.406255 
L 75.781629 198.969353 
L 75.944037 198.419673 
L 76.106446 198.714905 
L 76.268854 197.353671 
L 76.431263 198.03566 
L 76.593671 197.172646 
L 76.75608 197.329497 
L 76.918488 197.735219 
L 77.243305 197.07547 
L 77.405714 197.562263 
L 77.730531 196.329581 
L 77.892939 196.885047 
L 78.055348 196.928961 
L 78.217756 197.324674 
L 78.380165 195.426069 
L 78.542573 196.58471 
L 78.704982 196.322557 
L 78.86739 196.811299 
L 79.192207 194.996175 
L 79.354615 195.966783 
L 79.841841 194.778267 
L 80.004249 195.869639 
L 80.329066 194.167455 
L 80.491475 195.076535 
L 80.816292 195.410139 
L 81.141109 195.35696 
L 81.303517 194.451165 
L 81.465926 195.601377 
L 81.628334 194.227256 
L 81.790743 195.63919 
L 82.277968 193.721868 
L 82.440377 195.039522 
L 82.602785 193.59624 
L 82.765194 195.276619 
L 82.927602 195.531592 
L 83.09001 193.729096 
L 83.252419 195.116629 
L 83.739644 194.090274 
L 83.902053 195.382184 
L 84.064461 195.051254 
L 84.389278 193.920976 
L 84.551687 194.233344 
L 84.714095 195.230752 
L 84.876504 193.751481 
L 85.038912 194.710486 
L 85.201321 193.824599 
L 85.363729 195.641017 
L 85.688546 194.671386 
L 85.850955 195.296399 
L 86.013363 194.053617 
L 86.175772 193.818114 
L 86.825405 195.606912 
L 86.987814 194.014961 
L 87.150222 195.228406 
L 87.312631 194.643258 
L 87.475039 194.659416 
L 87.637448 195.095269 
L 87.799856 194.673921 
L 88.124673 195.76855 
L 88.44949 194.384276 
L 88.611899 195.919751 
L 88.774307 194.401627 
L 88.936716 195.678383 
L 89.099124 195.243427 
L 89.261533 196.191439 
L 89.423941 195.763677 
L 89.58635 194.903921 
L 89.748758 195.2667 
L 89.911166 196.238589 
L 90.073575 195.299625 
L 90.235983 195.302883 
L 90.398392 195.428837 
L 90.5608 196.278769 
L 90.723209 195.391057 
L 90.885617 196.089692 
L 91.048026 196.049611 
L 91.210434 194.957594 
L 91.372843 195.400987 
L 91.535251 196.558113 
L 91.69766 196.018515 
L 91.860068 194.880303 
L 92.184885 196.677363 
L 92.509702 194.780153 
L 92.672111 195.91783 
L 92.834519 195.085502 
L 92.996928 195.012117 
L 93.159336 196.554342 
L 93.321745 195.486284 
L 93.484153 195.486503 
L 93.646561 195.666802 
L 93.80897 195.597958 
L 93.971378 194.905592 
L 94.133787 196.062376 
L 94.296195 194.717931 
L 94.458604 194.81901 
L 94.621012 194.707719 
L 94.783421 196.075287 
L 94.945829 195.881782 
L 95.108238 194.978309 
L 95.270646 196.210833 
L 95.595463 194.283821 
L 95.757872 195.50767 
L 96.082689 195.112971 
L 96.245097 195.653242 
L 96.407506 193.737933 
L 96.732323 195.36534 
L 96.894731 194.359057 
L 97.057139 195.002283 
L 97.219548 193.814434 
L 97.381956 195.079231 
L 97.544365 193.540317 
L 97.706773 194.825744 
L 97.869182 193.670538 
L 98.03159 193.477422 
L 98.193999 194.632094 
L 98.356407 194.693377 
L 98.518816 194.263693 
L 98.681224 192.839699 
L 98.843633 194.003077 
L 99.16845 193.163157 
L 99.330858 192.158279 
L 99.493267 192.932818 
L 99.655675 192.74485 
L 99.818084 192.764583 
L 99.980492 193.369427 
L 100.142901 191.947575 
L 100.467717 193.153864 
L 100.792534 191.329869 
L 100.954943 192.514105 
L 101.117351 192.168433 
L 101.27976 192.762441 
L 101.442168 191.867061 
L 101.604577 192.030343 
L 101.766985 190.903529 
L 101.929394 190.964813 
L 102.091802 191.919167 
L 102.254211 190.607656 
L 102.416619 190.816479 
L 102.579028 190.101036 
L 102.741436 191.7792 
L 102.903845 190.481697 
L 103.066253 190.324912 
L 103.228662 191.615686 
L 103.39107 190.23697 
L 103.553479 190.394297 
L 103.715887 189.678666 
L 104.040704 190.55168 
L 104.203112 190.451685 
L 104.365521 188.957384 
L 104.527929 189.736693 
L 104.690338 189.301041 
L 104.852746 190.163383 
L 105.50238 189.489361 
L 105.664789 190.266435 
L 105.827197 188.633947 
L 105.989606 189.559607 
L 106.152014 189.492256 
L 106.476831 188.227292 
L 106.63924 188.398105 
L 106.801648 189.756471 
L 106.964057 189.225873 
L 107.126465 188.300296 
L 107.288874 188.196728 
L 107.451282 187.952219 
L 107.61369 189.054625 
L 107.776099 188.218626 
L 108.263324 187.524053 
L 108.425733 188.01672 
L 108.588141 189.491713 
L 108.75055 189.23771 
L 108.912958 187.522754 
L 109.237775 189.483976 
L 109.400184 188.841029 
L 109.562592 187.620471 
L 109.725001 188.658869 
L 109.887409 188.442557 
L 110.049818 188.825133 
L 110.374635 187.474338 
L 110.537043 187.957736 
L 110.699452 189.437587 
L 111.186677 188.214435 
L 111.349085 188.089843 
L 111.511494 189.229719 
L 111.673902 187.70634 
L 111.836311 187.819177 
L 111.998719 188.332048 
L 112.161128 189.534945 
L 112.323536 188.381658 
L 112.485945 189.593001 
L 112.648353 189.365681 
L 112.810762 189.667028 
L 112.97317 187.782647 
L 113.135579 189.535693 
L 113.297987 189.471078 
L 113.622804 189.012033 
L 113.785213 189.856994 
L 113.947621 188.517682 
L 114.11003 188.961061 
L 114.272438 188.150329 
L 114.434847 189.964309 
L 114.597255 188.720483 
L 114.759663 189.524274 
L 114.922072 188.406171 
L 115.08448 188.492801 
L 115.246889 189.402067 
L 115.409297 189.280403 
L 115.734114 188.519304 
L 116.383748 189.732809 
L 116.546157 188.547108 
L 116.708565 190.121461 
L 117.033382 188.832988 
L 117.195791 189.857118 
L 117.358199 189.540358 
L 117.520608 188.834012 
L 117.683016 189.111355 
L 117.845425 188.665172 
L 118.007833 189.281741 
L 118.170241 189.372626 
L 118.33265 189.598356 
L 118.495058 188.565586 
L 118.657467 189.404509 
L 118.819875 189.335419 
L 118.982284 189.601635 
L 119.144692 188.353208 
L 119.307101 189.791944 
L 119.469509 188.10206 
L 119.631918 189.778687 
L 119.794326 189.726811 
L 119.956735 189.350107 
L 120.119143 187.989572 
L 120.281552 189.175336 
L 120.44396 189.387847 
L 120.606369 187.942136 
L 120.768777 187.975678 
L 120.931186 189.287452 
L 121.093594 187.936179 
L 121.418411 189.173051 
L 121.58082 188.336549 
L 121.743228 188.89774 
L 121.905636 187.359325 
L 122.068045 187.198125 
L 122.392862 188.057492 
L 122.55527 186.878401 
L 122.717679 188.625305 
L 122.880087 188.342797 
L 123.204904 186.387095 
L 123.367313 187.990544 
L 123.529721 186.40915 
L 123.69213 186.133028 
L 123.854538 187.822015 
L 124.016947 186.851052 
L 124.179355 187.568092 
L 124.341764 187.133663 
L 124.504172 185.451461 
L 124.666581 186.214571 
L 124.828989 185.425094 
L 124.991398 186.51313 
L 125.153806 186.196842 
L 125.316214 185.551687 
L 125.641031 186.407216 
L 125.80344 185.087775 
L 125.965848 186.026045 
L 126.128257 185.261406 
L 126.290665 185.37529 
L 126.453074 184.373788 
L 126.615482 185.299968 
L 126.777891 185.254643 
L 126.940299 183.40067 
L 127.102708 183.104228 
L 127.265116 183.984051 
L 127.427525 183.282207 
L 127.589933 184.34015 
L 127.752342 182.66504 
L 127.91475 183.148115 
L 128.077159 182.808857 
L 128.239567 183.74531 
L 128.401976 182.628581 
L 128.564384 182.657691 
L 128.726792 181.97124 
L 128.889201 181.930901 
L 129.051609 181.444265 
L 129.214018 182.137651 
L 129.376426 181.422979 
L 129.538835 182.643187 
L 129.701243 182.146044 
L 130.02606 180.73005 
L 130.188469 182.04944 
L 130.350877 180.465554 
L 130.513286 180.890852 
L 130.675694 180.370423 
L 130.838103 180.744959 
L 131.16292 179.712307 
L 131.325328 179.878153 
L 131.487737 179.850744 
L 131.650145 180.406181 
L 131.974962 179.15576 
L 132.137371 179.778156 
L 132.299779 179.089287 
L 132.624596 179.876397 
L 132.787004 178.49936 
L 132.949413 178.383653 
L 133.111821 179.697812 
L 133.27423 178.021636 
L 133.436638 178.704878 
L 133.599047 178.183949 
L 133.761455 178.205157 
L 133.923864 178.479721 
L 134.248681 178.183157 
L 134.411089 178.740265 
L 134.573498 177.205874 
L 134.735906 177.224009 
L 134.898315 179.099739 
L 135.060723 178.239404 
L 135.223132 178.4336 
L 135.38554 177.199893 
L 135.710357 178.012144 
L 135.872765 178.17349 
L 136.035174 177.852457 
L 136.197582 177.012288 
L 136.359991 177.473609 
L 136.522399 176.963047 
L 136.684808 177.046178 
L 136.847216 177.74211 
L 137.009625 177.807606 
L 137.334442 176.760269 
L 137.49685 176.793106 
L 137.659259 176.370625 
L 137.821667 177.402542 
L 137.984076 176.47808 
L 138.146484 177.808718 
L 138.471301 176.987978 
L 138.63371 176.248314 
L 138.796118 177.375534 
L 138.958527 177.001193 
L 139.120935 177.808569 
L 139.283343 177.690556 
L 139.445752 177.059805 
L 139.770569 177.765485 
L 139.932977 176.909011 
L 140.095386 177.357983 
L 140.420203 177.110934 
L 140.582611 176.921644 
L 140.74502 177.571401 
L 140.907428 176.878078 
L 141.069837 177.072838 
L 141.394654 176.703555 
L 141.557062 176.814954 
L 141.719471 177.848933 
L 141.881879 176.838801 
L 142.044288 177.261782 
L 142.206696 177.255235 
L 142.369105 177.454183 
L 142.531513 178.669961 
L 142.693922 177.107458 
L 142.85633 178.196822 
L 143.181147 178.345533 
L 143.343555 176.725359 
L 143.668372 177.942311 
L 143.830781 178.240815 
L 143.993189 177.122143 
L 144.155598 178.014129 
L 144.318006 176.937538 
L 144.480415 178.354338 
L 144.642823 176.958322 
L 144.805232 178.463176 
L 144.96764 178.271257 
L 145.130049 178.746205 
L 145.292457 178.35213 
L 145.454866 177.381056 
L 145.779683 178.342811 
L 145.942091 177.004541 
L 146.1045 178.472641 
L 146.266908 177.638104 
L 146.429316 178.213501 
L 146.591725 177.449995 
L 146.754133 177.525309 
L 146.916542 177.139179 
L 147.07895 178.31962 
L 147.403767 177.126537 
L 147.566176 177.369811 
L 147.728584 178.045381 
L 147.890993 176.609695 
L 148.21581 176.837949 
L 148.378218 178.374789 
L 148.540627 177.046305 
L 148.703035 178.228227 
L 148.865444 176.894854 
L 149.027852 177.600445 
L 149.190261 177.661072 
L 149.352669 176.77346 
L 149.515078 177.502877 
L 149.839894 176.069499 
L 150.002303 177.273143 
L 150.164711 177.080282 
L 150.32712 177.100365 
L 150.489528 175.419317 
L 150.651937 176.272312 
L 150.814345 175.886285 
L 150.976754 177.190614 
L 151.139162 175.588198 
L 151.301571 177.033074 
L 151.463979 176.904071 
L 151.626388 174.96991 
L 151.788796 174.804184 
L 151.951205 175.898479 
L 152.113613 174.808128 
L 152.276022 175.985741 
L 152.43843 175.924043 
L 152.600839 176.089652 
L 152.763247 175.221086 
L 152.925656 175.732272 
L 153.088064 174.543303 
L 153.250473 175.052917 
L 153.412881 173.970496 
L 153.575289 175.381712 
L 153.737698 175.013303 
L 153.900106 175.102954 
L 154.062515 174.301635 
L 154.224923 174.239291 
L 154.387332 173.444437 
L 154.54974 174.284921 
L 154.712149 173.707483 
L 154.874557 173.832253 
L 155.036966 173.61762 
L 155.361783 172.113237 
L 155.524191 172.250448 
L 155.6866 173.470123 
L 155.849008 172.356538 
L 156.011417 172.654591 
L 156.173825 172.61463 
L 156.336234 172.074505 
L 156.498642 173.025786 
L 156.661051 173.164739 
L 156.823459 173.000184 
L 156.985867 172.36354 
L 157.148276 172.328698 
L 157.473093 170.776502 
L 157.79791 172.123295 
L 157.960318 170.472769 
L 158.285135 170.886657 
L 158.447544 171.44368 
L 158.772361 170.896202 
L 158.934769 169.841941 
L 159.097178 171.24631 
L 159.259586 170.852999 
L 159.584403 171.218773 
L 159.746812 169.699802 
L 159.90922 170.388695 
L 160.071629 170.497181 
L 160.234037 169.257833 
L 160.396445 169.963864 
L 160.721262 169.165753 
L 160.883671 170.696413 
L 161.208488 169.275851 
L 161.370896 170.524909 
L 161.533305 169.713054 
L 161.695713 170.31011 
L 161.858122 170.064284 
L 162.02053 169.041843 
L 162.182939 169.235658 
L 162.345347 168.433671 
L 162.670164 169.095223 
L 162.832573 170.151111 
L 163.319798 168.269263 
L 163.482207 169.557522 
L 163.644615 168.882105 
L 163.807024 169.637071 
L 164.13184 168.022077 
L 164.294249 168.48027 
L 164.456657 169.855449 
L 164.781474 168.755634 
L 164.943883 169.5033 
L 165.106291 169.290646 
L 165.2687 167.980455 
L 165.593517 169.699442 
L 165.755925 167.835927 
L 166.243151 169.517408 
L 166.405559 169.572675 
L 166.567968 168.338748 
L 166.730376 168.025621 
L 166.892785 168.25194 
L 167.055193 167.97034 
L 167.217602 168.571884 
L 167.38001 168.464089 
L 167.704827 169.415528 
L 167.867235 168.80095 
L 168.029644 168.912453 
L 168.192052 169.81212 
L 168.354461 168.801254 
L 168.516869 169.885394 
L 168.679278 168.536999 
L 168.841686 169.845753 
L 169.004095 170.011481 
L 169.166503 168.575205 
L 169.328912 168.380826 
L 169.49132 168.938908 
L 169.653729 168.406625 
L 169.816137 168.526104 
L 169.978546 169.597189 
L 170.140954 169.167498 
L 170.303363 169.956234 
L 170.465771 169.728663 
L 170.62818 170.058082 
L 170.790588 169.224163 
L 170.952996 169.392377 
L 171.115405 170.191131 
L 171.277813 168.404395 
L 171.440222 168.313364 
L 171.60263 169.834684 
L 171.765039 168.727608 
L 171.927447 168.891042 
L 172.089856 169.707988 
L 172.252264 169.526061 
L 172.414673 167.950398 
L 172.73949 169.883141 
L 173.064307 168.057094 
L 173.226715 169.672645 
L 173.389124 168.103688 
L 173.551532 169.68775 
L 173.876349 167.924152 
L 174.038758 169.360391 
L 174.201166 167.961125 
L 174.525983 168.050504 
L 174.688391 168.564552 
L 174.8508 168.461879 
L 175.013208 168.943752 
L 175.175617 167.219843 
L 175.338025 168.833531 
L 175.500434 168.629927 
L 175.662842 167.203799 
L 175.825251 168.525621 
L 175.987659 167.917476 
L 176.150068 168.2185 
L 176.312476 166.649374 
L 176.474885 168.363047 
L 176.637293 167.860592 
L 176.799702 166.167528 
L 176.96211 167.435636 
L 177.124519 167.498765 
L 177.286927 165.787835 
L 177.449336 165.730757 
L 177.774153 167.154839 
L 177.936561 167.069862 
L 178.098969 166.579612 
L 178.261378 165.115108 
L 178.423786 166.366929 
L 178.586195 164.961511 
L 178.748603 165.53662 
L 178.911012 164.53791 
L 179.07342 166.071124 
L 179.235829 165.388563 
L 179.398237 165.662305 
L 179.723054 164.347587 
L 179.885463 164.549701 
L 180.047871 164.415032 
L 180.21028 165.192066 
L 180.697505 163.634601 
L 180.859914 162.974277 
L 181.022322 164.165585 
L 181.184731 162.870884 
L 181.347139 163.302793 
L 181.671956 162.102463 
L 181.834364 162.199552 
L 181.996773 161.374093 
L 182.159181 162.23887 
L 182.32159 161.56404 
L 182.483998 161.504028 
L 182.646407 161.000982 
L 182.808815 161.976178 
L 182.971224 160.319008 
L 183.133632 160.903817 
L 183.296041 160.009543 
L 183.620858 161.652815 
L 183.783266 160.638074 
L 183.945675 160.654408 
L 184.108083 159.155081 
L 184.270492 160.789019 
L 184.4329 160.123643 
L 184.595309 159.942281 
L 184.757717 160.472829 
L 184.920126 159.830844 
L 185.082534 159.759314 
L 185.244942 158.486882 
L 185.407351 159.962212 
L 185.732168 157.714747 
L 185.894576 157.911337 
L 186.056985 159.3816 
L 186.219393 159.175524 
L 186.54421 158.437136 
L 186.706619 158.139636 
L 186.869027 157.189961 
L 187.031436 157.392714 
L 187.193844 157.308668 
L 187.356253 157.488203 
L 187.518661 156.986875 
L 187.68107 157.984154 
L 187.843478 157.031351 
L 188.168295 156.767529 
L 188.330704 157.605155 
L 188.493112 156.430941 
L 188.65552 156.62685 
L 188.980337 155.491981 
L 189.142746 155.338972 
L 189.305154 157.281056 
L 189.467563 157.034713 
L 189.629971 155.159199 
L 190.117197 155.994321 
L 190.279605 155.632274 
L 190.442014 156.113811 
L 190.604422 155.356585 
L 190.766831 155.260113 
L 190.929239 155.406426 
L 191.091648 155.920752 
L 191.254056 155.705431 
L 191.416465 156.085017 
L 191.578873 155.113607 
L 191.741282 155.820704 
L 191.90369 154.803564 
L 192.066099 154.76109 
L 192.228507 155.880698 
L 192.390915 154.461421 
L 192.878141 156.352527 
L 193.040549 155.635704 
L 193.202958 155.862055 
L 193.365366 154.665834 
L 193.527775 155.834153 
L 193.852592 155.384063 
L 194.177409 154.525097 
L 194.339817 155.994965 
L 194.502226 155.086979 
L 194.827043 154.609801 
L 194.989451 156.061812 
L 195.314268 154.543973 
L 195.476677 155.988901 
L 195.639085 154.23033 
L 195.801493 155.374366 
L 195.963902 155.671378 
L 196.12631 155.527047 
L 196.288719 156.189327 
L 196.451127 156.272526 
L 196.613536 154.650967 
L 196.775944 154.858078 
L 196.938353 155.441547 
L 197.26317 154.690008 
L 197.425578 155.671842 
L 197.587987 154.504214 
L 197.750395 156.17848 
L 197.912804 155.197866 
L 198.075212 154.961789 
L 198.237621 155.926071 
L 198.400029 155.013039 
L 198.562438 155.084985 
L 198.724846 156.32436 
L 198.887255 156.278399 
L 199.049663 154.625608 
L 199.37448 155.66879 
L 199.536888 155.443091 
L 199.699297 155.776011 
L 199.861705 154.537662 
L 200.024114 156.096734 
L 200.511339 154.48528 
L 200.673748 154.555892 
L 200.836156 155.033089 
L 200.998565 154.123643 
L 201.160973 155.373925 
L 201.323382 155.141205 
L 201.48579 154.178501 
L 201.648199 154.399001 
L 201.810607 153.748193 
L 201.973016 153.887508 
L 202.135424 154.84975 
L 202.297833 153.64935 
L 202.460241 154.969947 
L 202.62265 154.788502 
L 202.947466 155.193623 
L 203.109875 155.197145 
L 203.272283 153.317488 
L 203.434692 154.236457 
L 203.5971 153.078007 
L 203.759509 154.470863 
L 204.084326 153.28252 
L 204.246734 154.071255 
L 204.409143 152.663078 
L 204.571551 154.115277 
L 204.73396 152.404292 
L 204.896368 152.761255 
L 205.058777 152.510421 
L 205.221185 153.996044 
L 205.383594 152.932245 
L 205.546002 152.629403 
L 205.708411 152.751138 
L 205.870819 152.050434 
L 206.033228 152.997379 
L 206.195636 152.162139 
L 206.520453 153.088989 
L 206.682861 152.776784 
L 206.84527 151.142292 
L 207.007678 151.737373 
L 207.170087 151.44158 
L 207.332495 152.187344 
L 207.494904 151.240843 
L 207.657312 151.141929 
L 207.819721 150.589078 
L 207.982129 151.821253 
L 208.144538 150.535092 
L 208.306946 150.411271 
L 208.469355 149.69495 
L 208.631763 150.023415 
L 208.794172 151.033846 
L 209.118989 149.750225 
L 209.281397 150.700626 
L 209.443806 149.236873 
L 209.606214 149.28174 
L 209.768622 149.579406 
L 209.931031 150.196488 
L 210.093439 148.603652 
L 210.255848 149.435846 
L 210.418256 147.839201 
L 210.580665 148.346354 
L 210.743073 149.627135 
L 210.905482 148.859321 
L 211.06789 149.408365 
L 211.230299 147.585603 
L 211.392707 148.477335 
L 211.555116 148.513731 
L 211.879933 146.841915 
L 212.042341 148.354601 
L 212.20475 147.786899 
L 212.367158 146.609169 
L 212.529567 147.835879 
L 212.691975 147.82503 
L 212.854384 146.811829 
L 213.016792 147.367833 
L 213.179201 147.207369 
L 213.341609 146.091102 
L 213.504017 147.558047 
L 213.666426 146.063143 
L 213.828834 147.161092 
L 213.991243 145.283554 
L 214.153651 146.301333 
L 214.478468 145.181478 
L 214.640877 146.363955 
L 214.803285 145.772648 
L 214.965694 146.739973 
L 215.128102 144.724861 
L 215.290511 146.046943 
L 215.452919 145.154625 
L 215.615328 145.077662 
L 215.777736 145.665171 
L 216.264962 144.342897 
L 216.42737 145.158383 
L 216.589779 144.551762 
L 216.752187 144.881123 
L 216.914595 145.567044 
L 217.077004 145.404398 
L 217.239412 144.900354 
L 217.401821 145.737435 
L 217.564229 144.049263 
L 217.726638 144.905445 
L 217.889046 143.888953 
L 218.051455 145.506379 
L 218.213863 144.820813 
L 218.376272 145.569152 
L 218.53868 145.404446 
L 218.701089 143.677713 
L 219.025906 144.088128 
L 219.188314 144.547453 
L 219.350723 143.646935 
L 219.513131 144.241394 
L 219.67554 145.611788 
L 219.837948 145.481026 
L 220.000357 145.159491 
L 220.325173 143.561886 
L 220.64999 144.786531 
L 220.974807 144.01199 
L 221.299624 145.470606 
L 221.624441 144.359672 
L 221.78685 145.451986 
L 221.949258 143.938254 
L 222.111667 144.121379 
L 222.274075 143.608165 
L 222.436484 144.190442 
L 222.598892 145.29573 
L 222.761301 145.53452 
L 222.923709 143.814616 
L 223.086118 144.845829 
L 223.410935 143.517428 
L 223.573343 144.624466 
L 223.735752 143.851687 
L 223.89816 144.968261 
L 224.222977 144.256375 
L 224.385385 143.830993 
L 224.547794 144.784651 
L 224.710202 143.77451 
L 224.872611 143.784559 
L 225.035019 144.479042 
L 225.197428 143.422565 
L 225.359836 143.284281 
L 225.684653 144.854139 
L 225.847062 143.197863 
L 226.00947 145.034303 
L 226.171879 143.642357 
L 226.334287 144.937424 
L 226.659104 143.356566 
L 226.821513 144.335744 
L 226.983921 144.544545 
L 227.14633 143.584804 
L 227.308738 143.55944 
L 227.471146 143.890372 
L 227.633555 143.708029 
L 227.795963 142.79033 
L 227.958372 144.537364 
L 228.12078 144.149405 
L 228.283189 142.619391 
L 228.445597 143.357642 
L 228.608006 142.746424 
L 228.770414 143.072801 
L 228.932823 142.26717 
L 229.095231 142.166351 
L 229.25764 143.288537 
L 229.420048 142.313484 
L 229.582457 143.471529 
L 229.744865 142.870123 
L 229.907274 143.533555 
L 230.069682 142.064749 
L 230.232091 142.647009 
L 230.556908 141.869433 
L 230.719316 142.968885 
L 230.881724 142.756573 
L 231.044133 141.10993 
L 231.206541 142.293217 
L 231.36895 141.013023 
L 231.531358 141.159443 
L 231.693767 140.149712 
L 231.856175 141.09889 
L 232.018584 140.554935 
L 232.343401 141.463573 
L 232.505809 139.513612 
L 232.668218 140.898015 
L 232.830626 139.460882 
L 232.993035 140.592737 
L 233.155443 140.786189 
L 233.317852 140.435404 
L 233.48026 138.870735 
L 233.642669 140.139031 
L 233.805077 139.118577 
L 233.967486 139.626874 
L 234.129894 138.364071 
L 234.292303 138.896557 
L 234.454711 138.956866 
L 234.779528 137.347182 
L 234.941936 137.743766 
L 235.104345 137.843886 
L 235.429162 136.998325 
L 235.59157 136.371827 
L 235.753979 136.500909 
L 235.916387 137.515697 
L 236.078796 137.395205 
L 236.078796 137.395205 
" clip-path="url(#pa05de251c7)" style="fill: none; stroke: #1f77b4; stroke-width: 1.5; stroke-linecap: square"/>
   </g>
   <g id="line2d_19">
    <path d="M 236.241204 136.757068 
L 236.566021 136.650128 
L 237.053247 136.944406 
L 237.378064 136.605811 
L 237.540472 136.429601 
L 238.190106 136.399844 
L 238.83974 136.058349 
L 239.489374 135.850691 
L 240.95105 135.285593 
L 247.934615 132.595056 
L 259.628025 127.894132 
L 270.996618 123.086528 
L 282.202803 118.106906 
L 293.084171 113.031471 
L 303.803131 107.789069 
L 314.359682 102.379308 
L 324.753824 96.802144 
L 334.985558 91.057896 
L 345.054884 85.147264 
L 354.961801 79.071344 
L 364.70631 72.831642 
L 374.28841 66.430088 
L 383.708101 59.869049 
L 392.965385 53.151342 
L 398.487273 49.012364 
L 398.487273 49.012364 
" clip-path="url(#pa05de251c7)" style="fill: none; stroke: #ff7f0e; stroke-width: 1.5; stroke-linecap: square"/>
   </g>
   <g id="line2d_20">
    <path d="M 75.131995 207.36 
L 75.131995 41.472 
" clip-path="url(#pa05de251c7)" style="fill: none; stroke: #ff0000; stroke-width: 1.5; stroke-linecap: square"/>
   </g>
   <g id="patch_3">
    <path d="M 57.6 207.36 
L 57.6 41.472 
" style="fill: none; stroke: #000000; stroke-width: 0.8; stroke-linejoin: miter; stroke-linecap: square"/>
   </g>
   <g id="patch_4">
    <path d="M 414.72 207.36 
L 414.72 41.472 
" style="fill: none; stroke: #000000; stroke-width: 0.8; stroke-linejoin: miter; stroke-linecap: square"/>
   </g>
   <g id="patch_5">
    <path d="M 57.6 207.36 
L 414.72 207.36 
" style="fill: none; stroke: #000000; stroke-width: 0.8; stroke-linejoin: miter; stroke-linecap: square"/>
   </g>
   <g id="patch_6">
    <path d="M 57.6 41.472 
L 414.72 41.472 
" style="fill: none; stroke: #000000; stroke-width: 0.8; stroke-linejoin: miter; stroke-linecap: square"/>
   </g>
  </g>
  <g id="axes_2">
   <g id="patch_7">
    <path d="M 115.2 291.168 
L 414.72 291.168 
L 414.72 285.984 
L 115.2 285.984 
z
" clip-path="url(#p9ee71f55b3)" style="fill: #d3d3d3"/>
   </g>
   <g id="patch_8">
    <path d="M 115.2 291.168 
L 117.59616 291.168 
L 117.59616 285.984 
L 115.2 285.984 
z
" clip-path="url(#p9ee71f55b3)" style="fill: #1f77b4"/>
   </g>
   <g id="line2d_21">
    <path d="M 117.59616 293.76 
L 117.59616 283.392 
" clip-path="url(#p4c6a475ea8)" style="fill: none; stroke: #ff0000; stroke-linecap: square"/>
   </g>
   <g id="line2d_22">
    <defs>
     <path id="m12105cf9ad" d="M 0 5 
C 1.326016 5 2.597899 4.473168 3.535534 3.535534 
C 4.473168 2.597899 5 1.326016 5 0 
C 5 -1.326016 4.473168 -2.597899 3.535534 -3.535534 
C 2.597899 -4.473168 1.326016 -5 0 -5 
C -1.326016 -5 -2.597899 -4.473168 -3.535534 -3.535534 
C -4.473168 -2.597899 -5 -1.326016 -5 0 
C -5 1.326016 -4.473168 2.597899 -3.535534 3.535534 
C -2.597899 4.473168 -1.326016 5 0 5 
z
" style="stroke: #bfbfbf"/>
    </defs>
    <g>
     <use xlink:href="#m12105cf9ad" x="117.59616" y="288.576" style="fill: #ffffff; stroke: #bfbfbf"/>
    </g>
   </g>
   <g id="text_18">
    <!-- P -->
    <g transform="translate(103.179913 291.335375) scale(0.1 -0.1)">
     <defs>
      <path id="DejaVuSans-50" d="M 1259 4147 
L 1259 2394 
L 2053 2394 
Q 2494 2394 2734 2622 
Q 2975 2850 2975 3272 
Q 2975 3691 2734 3919 
Q 2494 4147 2053 4147 
L 1259 4147 
z
M 628 4666 
L 2053 4666 
Q 2838 4666 3239 4311 
Q 3641 3956 3641 3272 
Q 3641 2581 3239 2228 
Q 2838 1875 2053 1875 
L 1259 1875 
L 1259 0 
L 628 0 
L 628 4666 
z
" transform="scale(0.015625)"/>
     </defs>
     <use xlink:href="#DejaVuSans-50"/>
    </g>
   </g>
   <g id="text_19">
    <!-- $\mathdefault{8}$ -->
    <g transform="translate(420.7104 291.335375) scale(0.1 -0.1)">
     <use xlink:href="#DejaVuSans-38" transform="translate(0 0.78125)"/>
    </g>
   </g>
  </g>
  <g id="axes_3">
   <g id="patch_9">
    <path d="M 115.2 308.448 
L 414.72 308.448 
L 414.72 303.264 
L 115.2 303.264 
z
" clip-path="url(#pa43fa4540d)" style="fill: #d3d3d3"/>
   </g>
   <g id="patch_10">
    <path d="M 115.2 308.448 
L 412.32384 308.448 
L 412.32384 303.264 
L 115.2 303.264 
z
" clip-path="url(#pa43fa4540d)" style="fill: #1f77b4"/>
   </g>
   <g id="line2d_23">
    <path d="M 412.32384 311.04 
L 412.32384 300.672 
" clip-path="url(#p059eda76ee)" style="fill: none; stroke: #ff0000; stroke-linecap: square"/>
   </g>
   <g id="line2d_24">
    <g>
     <use xlink:href="#m12105cf9ad" x="412.32384" y="305.856" style="fill: #ffffff; stroke: #bfbfbf"/>
    </g>
   </g>
   <g id="text_20">
    <!-- M -->
    <g transform="translate(100.581475 308.615375) scale(0.1 -0.1)">
     <defs>
      <path id="DejaVuSans-4d" d="M 628 4666 
L 1569 4666 
L 2759 1491 
L 3956 4666 
L 4897 4666 
L 4897 0 
L 4281 0 
L 4281 4097 
L 3078 897 
L 2444 897 
L 1241 4097 
L 1241 0 
L 628 0 
L 628 4666 
z
" transform="scale(0.015625)"/>
     </defs>
     <use xlink:href="#DejaVuSans-4d"/>
    </g>
   </g>
   <g id="text_21">
    <!-- $\mathdefault{992}$ -->
    <g transform="translate(420.7104 308.615375) scale(0.1 -0.1)">
     <defs>
      <path id="DejaVuSans-39" d="M 703 97 
L 703 672 
Q 941 559 1184 500 
Q 1428 441 1663 441 
Q 2288 441 2617 861 
Q 2947 1281 2994 2138 
Q 2813 1869 2534 1725 
Q 2256 1581 1919 1581 
Q 1219 1581 811 2004 
Q 403 2428 403 3163 
Q 403 3881 828 4315 
Q 1253 4750 1959 4750 
Q 2769 4750 3195 4129 
Q 3622 3509 3622 2328 
Q 3622 1225 3098 567 
Q 2575 -91 1691 -91 
Q 1453 -91 1209 -44 
Q 966 3 703 97 
z
M 1959 2075 
Q 2384 2075 2632 2365 
Q 2881 2656 2881 3163 
Q 2881 3666 2632 3958 
Q 2384 4250 1959 4250 
Q 1534 4250 1286 3958 
Q 1038 3666 1038 3163 
Q 1038 2656 1286 2365 
Q 1534 2075 1959 2075 
z
" transform="scale(0.015625)"/>
     </defs>
     <use xlink:href="#DejaVuSans-39" transform="translate(0 0.78125)"/>
     <use xlink:href="#DejaVuSans-39" transform="translate(63.623047 0.78125)"/>
     <use xlink:href="#DejaVuSans-32" transform="translate(125.496094 0.78125)"/>
    </g>
   </g>
  </g>
  <g id="legend_1">
   <g id="patch_11">
    <path d="M 247.104688 52.034375 
L 453.8 52.034375 
Q 455.8 52.034375 455.8 50.034375 
L 455.8 7 
Q 455.8 5 453.8 5 
L 247.104688 5 
Q 245.104688 5 245.104688 7 
L 245.104688 50.034375 
Q 245.104688 52.034375 247.104688 52.034375 
z
" style="fill: #ffffff; opacity: 0.8; stroke: #cccccc; stroke-linejoin: miter"/>
   </g>
   <g id="line2d_25">
    <path d="M 249.104688 13.098437 
L 259.104688 13.098437 
L 269.104688 13.098437 
" style="fill: none; stroke: #1f77b4; stroke-width: 1.5; stroke-linecap: square"/>
   </g>
   <g id="text_22">
    <!-- Serie timp originala -->
    <g transform="translate(277.104688 16.598437) scale(0.1 -0.1)">
     <defs>
      <path id="DejaVuSans-53" d="M 3425 4513 
L 3425 3897 
Q 3066 4069 2747 4153 
Q 2428 4238 2131 4238 
Q 1616 4238 1336 4038 
Q 1056 3838 1056 3469 
Q 1056 3159 1242 3001 
Q 1428 2844 1947 2747 
L 2328 2669 
Q 3034 2534 3370 2195 
Q 3706 1856 3706 1288 
Q 3706 609 3251 259 
Q 2797 -91 1919 -91 
Q 1588 -91 1214 -16 
Q 841 59 441 206 
L 441 856 
Q 825 641 1194 531 
Q 1563 422 1919 422 
Q 2459 422 2753 634 
Q 3047 847 3047 1241 
Q 3047 1584 2836 1778 
Q 2625 1972 2144 2069 
L 1759 2144 
Q 1053 2284 737 2584 
Q 422 2884 422 3419 
Q 422 4038 858 4394 
Q 1294 4750 2059 4750 
Q 2388 4750 2728 4690 
Q 3069 4631 3425 4513 
z
" transform="scale(0.015625)"/>
      <path id="DejaVuSans-65" d="M 3597 1894 
L 3597 1613 
L 953 1613 
Q 991 1019 1311 708 
Q 1631 397 2203 397 
Q 2534 397 2845 478 
Q 3156 559 3463 722 
L 3463 178 
Q 3153 47 2828 -22 
Q 2503 -91 2169 -91 
Q 1331 -91 842 396 
Q 353 884 353 1716 
Q 353 2575 817 3079 
Q 1281 3584 2069 3584 
Q 2775 3584 3186 3129 
Q 3597 2675 3597 1894 
z
M 3022 2063 
Q 3016 2534 2758 2815 
Q 2500 3097 2075 3097 
Q 1594 3097 1305 2825 
Q 1016 2553 972 2059 
L 3022 2063 
z
" transform="scale(0.015625)"/>
      <path id="DejaVuSans-72" d="M 2631 2963 
Q 2534 3019 2420 3045 
Q 2306 3072 2169 3072 
Q 1681 3072 1420 2755 
Q 1159 2438 1159 1844 
L 1159 0 
L 581 0 
L 581 3500 
L 1159 3500 
L 1159 2956 
Q 1341 3275 1631 3429 
Q 1922 3584 2338 3584 
Q 2397 3584 2469 3576 
Q 2541 3569 2628 3553 
L 2631 2963 
z
" transform="scale(0.015625)"/>
      <path id="DejaVuSans-69" d="M 603 3500 
L 1178 3500 
L 1178 0 
L 603 0 
L 603 3500 
z
M 603 4863 
L 1178 4863 
L 1178 4134 
L 603 4134 
L 603 4863 
z
" transform="scale(0.015625)"/>
      <path id="DejaVuSans-20" transform="scale(0.015625)"/>
      <path id="DejaVuSans-74" d="M 1172 4494 
L 1172 3500 
L 2356 3500 
L 2356 3053 
L 1172 3053 
L 1172 1153 
Q 1172 725 1289 603 
Q 1406 481 1766 481 
L 2356 481 
L 2356 0 
L 1766 0 
Q 1100 0 847 248 
Q 594 497 594 1153 
L 594 3053 
L 172 3053 
L 172 3500 
L 594 3500 
L 594 4494 
L 1172 4494 
z
" transform="scale(0.015625)"/>
      <path id="DejaVuSans-6d" d="M 3328 2828 
Q 3544 3216 3844 3400 
Q 4144 3584 4550 3584 
Q 5097 3584 5394 3201 
Q 5691 2819 5691 2113 
L 5691 0 
L 5113 0 
L 5113 2094 
Q 5113 2597 4934 2840 
Q 4756 3084 4391 3084 
Q 3944 3084 3684 2787 
Q 3425 2491 3425 1978 
L 3425 0 
L 2847 0 
L 2847 2094 
Q 2847 2600 2669 2842 
Q 2491 3084 2119 3084 
Q 1678 3084 1418 2786 
Q 1159 2488 1159 1978 
L 1159 0 
L 581 0 
L 581 3500 
L 1159 3500 
L 1159 2956 
Q 1356 3278 1631 3431 
Q 1906 3584 2284 3584 
Q 2666 3584 2933 3390 
Q 3200 3197 3328 2828 
z
" transform="scale(0.015625)"/>
      <path id="DejaVuSans-70" d="M 1159 525 
L 1159 -1331 
L 581 -1331 
L 581 3500 
L 1159 3500 
L 1159 2969 
Q 1341 3281 1617 3432 
Q 1894 3584 2278 3584 
Q 2916 3584 3314 3078 
Q 3713 2572 3713 1747 
Q 3713 922 3314 415 
Q 2916 -91 2278 -91 
Q 1894 -91 1617 61 
Q 1341 213 1159 525 
z
M 3116 1747 
Q 3116 2381 2855 2742 
Q 2594 3103 2138 3103 
Q 1681 3103 1420 2742 
Q 1159 2381 1159 1747 
Q 1159 1113 1420 752 
Q 1681 391 2138 391 
Q 2594 391 2855 752 
Q 3116 1113 3116 1747 
z
" transform="scale(0.015625)"/>
      <path id="DejaVuSans-6f" d="M 1959 3097 
Q 1497 3097 1228 2736 
Q 959 2375 959 1747 
Q 959 1119 1226 758 
Q 1494 397 1959 397 
Q 2419 397 2687 759 
Q 2956 1122 2956 1747 
Q 2956 2369 2687 2733 
Q 2419 3097 1959 3097 
z
M 1959 3584 
Q 2709 3584 3137 3096 
Q 3566 2609 3566 1747 
Q 3566 888 3137 398 
Q 2709 -91 1959 -91 
Q 1206 -91 779 398 
Q 353 888 353 1747 
Q 353 2609 779 3096 
Q 1206 3584 1959 3584 
z
" transform="scale(0.015625)"/>
      <path id="DejaVuSans-67" d="M 2906 1791 
Q 2906 2416 2648 2759 
Q 2391 3103 1925 3103 
Q 1463 3103 1205 2759 
Q 947 2416 947 1791 
Q 947 1169 1205 825 
Q 1463 481 1925 481 
Q 2391 481 2648 825 
Q 2906 1169 2906 1791 
z
M 3481 434 
Q 3481 -459 3084 -895 
Q 2688 -1331 1869 -1331 
Q 1566 -1331 1297 -1286 
Q 1028 -1241 775 -1147 
L 775 -588 
Q 1028 -725 1275 -790 
Q 1522 -856 1778 -856 
Q 2344 -856 2625 -561 
Q 2906 -266 2906 331 
L 2906 616 
Q 2728 306 2450 153 
Q 2172 0 1784 0 
Q 1141 0 747 490 
Q 353 981 353 1791 
Q 353 2603 747 3093 
Q 1141 3584 1784 3584 
Q 2172 3584 2450 3431 
Q 2728 3278 2906 2969 
L 2906 3500 
L 3481 3500 
L 3481 434 
z
" transform="scale(0.015625)"/>
      <path id="DejaVuSans-6e" d="M 3513 2113 
L 3513 0 
L 2938 0 
L 2938 2094 
Q 2938 2591 2744 2837 
Q 2550 3084 2163 3084 
Q 1697 3084 1428 2787 
Q 1159 2491 1159 1978 
L 1159 0 
L 581 0 
L 581 3500 
L 1159 3500 
L 1159 2956 
Q 1366 3272 1645 3428 
Q 1925 3584 2291 3584 
Q 2894 3584 3203 3211 
Q 3513 2838 3513 2113 
z
" transform="scale(0.015625)"/>
      <path id="DejaVuSans-61" d="M 2194 1759 
Q 1497 1759 1228 1600 
Q 959 1441 959 1056 
Q 959 750 1161 570 
Q 1363 391 1709 391 
Q 2188 391 2477 730 
Q 2766 1069 2766 1631 
L 2766 1759 
L 2194 1759 
z
M 3341 1997 
L 3341 0 
L 2766 0 
L 2766 531 
Q 2569 213 2275 61 
Q 1981 -91 1556 -91 
Q 1019 -91 701 211 
Q 384 513 384 1019 
Q 384 1609 779 1909 
Q 1175 2209 1959 2209 
L 2766 2209 
L 2766 2266 
Q 2766 2663 2505 2880 
Q 2244 3097 1772 3097 
Q 1472 3097 1187 3025 
Q 903 2953 641 2809 
L 641 3341 
Q 956 3463 1253 3523 
Q 1550 3584 1831 3584 
Q 2591 3584 2966 3190 
Q 3341 2797 3341 1997 
z
" transform="scale(0.015625)"/>
      <path id="DejaVuSans-6c" d="M 603 4863 
L 1178 4863 
L 1178 0 
L 603 0 
L 603 4863 
z
" transform="scale(0.015625)"/>
     </defs>
     <use xlink:href="#DejaVuSans-53"/>
     <use xlink:href="#DejaVuSans-65" x="63.476562"/>
     <use xlink:href="#DejaVuSans-72" x="125"/>
     <use xlink:href="#DejaVuSans-69" x="166.113281"/>
     <use xlink:href="#DejaVuSans-65" x="193.896484"/>
     <use xlink:href="#DejaVuSans-20" x="255.419922"/>
     <use xlink:href="#DejaVuSans-74" x="287.207031"/>
     <use xlink:href="#DejaVuSans-69" x="326.416016"/>
     <use xlink:href="#DejaVuSans-6d" x="354.199219"/>
     <use xlink:href="#DejaVuSans-70" x="451.611328"/>
     <use xlink:href="#DejaVuSans-20" x="515.087891"/>
     <use xlink:href="#DejaVuSans-6f" x="546.875"/>
     <use xlink:href="#DejaVuSans-72" x="608.056641"/>
     <use xlink:href="#DejaVuSans-69" x="649.169922"/>
     <use xlink:href="#DejaVuSans-67" x="676.953125"/>
     <use xlink:href="#DejaVuSans-69" x="740.429688"/>
     <use xlink:href="#DejaVuSans-6e" x="768.212891"/>
     <use xlink:href="#DejaVuSans-61" x="831.591797"/>
     <use xlink:href="#DejaVuSans-6c" x="892.871094"/>
     <use xlink:href="#DejaVuSans-61" x="920.654297"/>
    </g>
   </g>
   <g id="line2d_26">
    <path d="M 249.104688 27.776563 
L 259.104688 27.776563 
L 269.104688 27.776563 
" style="fill: none; stroke: #ff7f0e; stroke-width: 1.5; stroke-linecap: square"/>
   </g>
   <g id="text_23">
    <!-- Valori prezise -->
    <g transform="translate(277.104688 31.276563) scale(0.1 -0.1)">
     <defs>
      <path id="DejaVuSans-56" d="M 1831 0 
L 50 4666 
L 709 4666 
L 2188 738 
L 3669 4666 
L 4325 4666 
L 2547 0 
L 1831 0 
z
" transform="scale(0.015625)"/>
      <path id="DejaVuSans-7a" d="M 353 3500 
L 3084 3500 
L 3084 2975 
L 922 459 
L 3084 459 
L 3084 0 
L 275 0 
L 275 525 
L 2438 3041 
L 353 3041 
L 353 3500 
z
" transform="scale(0.015625)"/>
      <path id="DejaVuSans-73" d="M 2834 3397 
L 2834 2853 
Q 2591 2978 2328 3040 
Q 2066 3103 1784 3103 
Q 1356 3103 1142 2972 
Q 928 2841 928 2578 
Q 928 2378 1081 2264 
Q 1234 2150 1697 2047 
L 1894 2003 
Q 2506 1872 2764 1633 
Q 3022 1394 3022 966 
Q 3022 478 2636 193 
Q 2250 -91 1575 -91 
Q 1294 -91 989 -36 
Q 684 19 347 128 
L 347 722 
Q 666 556 975 473 
Q 1284 391 1588 391 
Q 1994 391 2212 530 
Q 2431 669 2431 922 
Q 2431 1156 2273 1281 
Q 2116 1406 1581 1522 
L 1381 1569 
Q 847 1681 609 1914 
Q 372 2147 372 2553 
Q 372 3047 722 3315 
Q 1072 3584 1716 3584 
Q 2034 3584 2315 3537 
Q 2597 3491 2834 3397 
z
" transform="scale(0.015625)"/>
     </defs>
     <use xlink:href="#DejaVuSans-56"/>
     <use xlink:href="#DejaVuSans-61" x="60.658203"/>
     <use xlink:href="#DejaVuSans-6c" x="121.9375"/>
     <use xlink:href="#DejaVuSans-6f" x="149.720703"/>
     <use xlink:href="#DejaVuSans-72" x="210.902344"/>
     <use xlink:href="#DejaVuSans-69" x="252.015625"/>
     <use xlink:href="#DejaVuSans-20" x="279.798828"/>
     <use xlink:href="#DejaVuSans-70" x="311.585938"/>
     <use xlink:href="#DejaVuSans-72" x="375.0625"/>
     <use xlink:href="#DejaVuSans-65" x="413.925781"/>
     <use xlink:href="#DejaVuSans-7a" x="475.449219"/>
     <use xlink:href="#DejaVuSans-69" x="527.939453"/>
     <use xlink:href="#DejaVuSans-73" x="555.722656"/>
     <use xlink:href="#DejaVuSans-65" x="607.822266"/>
    </g>
   </g>
   <g id="line2d_27">
    <path d="M 249.104688 42.454687 
L 259.104688 42.454687 
L 269.104688 42.454687 
" style="fill: none; stroke: #ff0000; stroke-width: 1.5; stroke-linecap: square"/>
   </g>
   <g id="text_24">
    <!-- Numarul predictiilor luate in model -->
    <g transform="translate(277.104688 45.954687) scale(0.1 -0.1)">
     <defs>
      <path id="DejaVuSans-4e" d="M 628 4666 
L 1478 4666 
L 3547 763 
L 3547 4666 
L 4159 4666 
L 4159 0 
L 3309 0 
L 1241 3903 
L 1241 0 
L 628 0 
L 628 4666 
z
" transform="scale(0.015625)"/>
      <path id="DejaVuSans-75" d="M 544 1381 
L 544 3500 
L 1119 3500 
L 1119 1403 
Q 1119 906 1312 657 
Q 1506 409 1894 409 
Q 2359 409 2629 706 
Q 2900 1003 2900 1516 
L 2900 3500 
L 3475 3500 
L 3475 0 
L 2900 0 
L 2900 538 
Q 2691 219 2414 64 
Q 2138 -91 1772 -91 
Q 1169 -91 856 284 
Q 544 659 544 1381 
z
M 1991 3584 
L 1991 3584 
z
" transform="scale(0.015625)"/>
      <path id="DejaVuSans-64" d="M 2906 2969 
L 2906 4863 
L 3481 4863 
L 3481 0 
L 2906 0 
L 2906 525 
Q 2725 213 2448 61 
Q 2172 -91 1784 -91 
Q 1150 -91 751 415 
Q 353 922 353 1747 
Q 353 2572 751 3078 
Q 1150 3584 1784 3584 
Q 2172 3584 2448 3432 
Q 2725 3281 2906 2969 
z
M 947 1747 
Q 947 1113 1208 752 
Q 1469 391 1925 391 
Q 2381 391 2643 752 
Q 2906 1113 2906 1747 
Q 2906 2381 2643 2742 
Q 2381 3103 1925 3103 
Q 1469 3103 1208 2742 
Q 947 2381 947 1747 
z
" transform="scale(0.015625)"/>
      <path id="DejaVuSans-63" d="M 3122 3366 
L 3122 2828 
Q 2878 2963 2633 3030 
Q 2388 3097 2138 3097 
Q 1578 3097 1268 2742 
Q 959 2388 959 1747 
Q 959 1106 1268 751 
Q 1578 397 2138 397 
Q 2388 397 2633 464 
Q 2878 531 3122 666 
L 3122 134 
Q 2881 22 2623 -34 
Q 2366 -91 2075 -91 
Q 1284 -91 818 406 
Q 353 903 353 1747 
Q 353 2603 823 3093 
Q 1294 3584 2113 3584 
Q 2378 3584 2631 3529 
Q 2884 3475 3122 3366 
z
" transform="scale(0.015625)"/>
     </defs>
     <use xlink:href="#DejaVuSans-4e"/>
     <use xlink:href="#DejaVuSans-75" x="74.804688"/>
     <use xlink:href="#DejaVuSans-6d" x="138.183594"/>
     <use xlink:href="#DejaVuSans-61" x="235.595703"/>
     <use xlink:href="#DejaVuSans-72" x="296.875"/>
     <use xlink:href="#DejaVuSans-75" x="337.988281"/>
     <use xlink:href="#DejaVuSans-6c" x="401.367188"/>
     <use xlink:href="#DejaVuSans-20" x="429.150391"/>
     <use xlink:href="#DejaVuSans-70" x="460.9375"/>
     <use xlink:href="#DejaVuSans-72" x="524.414062"/>
     <use xlink:href="#DejaVuSans-65" x="563.277344"/>
     <use xlink:href="#DejaVuSans-64" x="624.800781"/>
     <use xlink:href="#DejaVuSans-69" x="688.277344"/>
     <use xlink:href="#DejaVuSans-63" x="716.060547"/>
     <use xlink:href="#DejaVuSans-74" x="771.041016"/>
     <use xlink:href="#DejaVuSans-69" x="810.25"/>
     <use xlink:href="#DejaVuSans-69" x="838.033203"/>
     <use xlink:href="#DejaVuSans-6c" x="865.816406"/>
     <use xlink:href="#DejaVuSans-6f" x="893.599609"/>
     <use xlink:href="#DejaVuSans-72" x="954.78125"/>
     <use xlink:href="#DejaVuSans-20" x="995.894531"/>
     <use xlink:href="#DejaVuSans-6c" x="1027.681641"/>
     <use xlink:href="#DejaVuSans-75" x="1055.464844"/>
     <use xlink:href="#DejaVuSans-61" x="1118.84375"/>
     <use xlink:href="#DejaVuSans-74" x="1180.123047"/>
     <use xlink:href="#DejaVuSans-65" x="1219.332031"/>
     <use xlink:href="#DejaVuSans-20" x="1280.855469"/>
     <use xlink:href="#DejaVuSans-69" x="1312.642578"/>
     <use xlink:href="#DejaVuSans-6e" x="1340.425781"/>
     <use xlink:href="#DejaVuSans-20" x="1403.804688"/>
     <use xlink:href="#DejaVuSans-6d" x="1435.591797"/>
     <use xlink:href="#DejaVuSans-6f" x="1533.003906"/>
     <use xlink:href="#DejaVuSans-64" x="1594.185547"/>
     <use xlink:href="#DejaVuSans-65" x="1657.662109"/>
     <use xlink:href="#DejaVuSans-6c" x="1719.185547"/>
    </g>
   </g>
  </g>
 </g>
 <defs>
  <clipPath id="pa05de251c7">
   <rect x="57.6" y="41.472" width="357.12" height="165.888"/>
  </clipPath>
  <clipPath id="p9ee71f55b3">
   <rect x="115.2" y="283.392" width="299.52" height="10.368"/>
  </clipPath>
  <clipPath id="p4c6a475ea8">
   <path d="M 115.2 291.168 
L 414.72 291.168 
L 414.72 285.984 
L 115.2 285.984 
z
"/>
  </clipPath>
  <clipPath id="pa43fa4540d">
   <rect x="115.2" y="300.672" width="299.52" height="10.368"/>
  </clipPath>
  <clipPath id="p059eda76ee">
   <path d="M 115.2 308.448 
L 414.72 308.448 
L 414.72 303.264 
L 115.2 303.264 
z
"/>
  </clipPath>
 </defs>
</svg>
