<?xml version="1.0" encoding="utf-8" standalone="no"?>
<!DOCTYPE svg PUBLIC "-//W3C//DTD SVG 1.1//EN"
  "http://www.w3.org/Graphics/SVG/1.1/DTD/svg11.dtd">
<svg xmlns:xlink="http://www.w3.org/1999/xlink" width="460.8pt" height="345.6pt" viewBox="0 0 460.8 345.6" xmlns="http://www.w3.org/2000/svg" version="1.1">
 <metadata>
  <rdf:RDF xmlns:dc="http://purl.org/dc/elements/1.1/" xmlns:cc="http://creativecommons.org/ns#" xmlns:rdf="http://www.w3.org/1999/02/22-rdf-syntax-ns#">
   <cc:Work>
    <dc:type rdf:resource="http://purl.org/dc/dcmitype/StillImage"/>
    <dc:date>2024-12-05T22:45:43.256274</dc:date>
    <dc:format>image/svg+xml</dc:format>
    <dc:creator>
     <cc:Agent>
      <dc:title>Matplotlib v3.9.2, https://matplotlib.org/</dc:title>
     </cc:Agent>
    </dc:creator>
   </cc:Work>
  </rdf:RDF>
 </metadata>
 <defs>
  <style type="text/css">*{stroke-linejoin: round; stroke-linecap: butt}</style>
 </defs>
 <g id="figure_1">
  <g id="patch_1">
   <path d="M 0 345.6 
L 460.8 345.6 
L 460.8 0 
L 0 0 
z
" style="fill: #ffffff"/>
  </g>
  <g id="axes_1">
   <g id="patch_2">
    <path d="M 57.6 307.584 
L 414.72 307.584 
L 414.72 41.472 
L 57.6 41.472 
z
" style="fill: #ffffff"/>
   </g>
   <g id="matplotlib.axis_1">
    <g id="xtick_1">
     <g id="line2d_1">
      <defs>
       <path id="m18a6740962" d="M 0 0 
L 0 3.5 
" style="stroke: #000000; stroke-width: 0.8"/>
      </defs>
      <g>
       <use xlink:href="#m18a6740962" x="73.832727" y="307.584" style="stroke: #000000; stroke-width: 0.8"/>
      </g>
     </g>
     <g id="text_1">
      <!-- 0 -->
      <g transform="translate(70.651477 322.182437) scale(0.1 -0.1)">
       <defs>
        <path id="DejaVuSans-30" d="M 2034 4250 
Q 1547 4250 1301 3770 
Q 1056 3291 1056 2328 
Q 1056 1369 1301 889 
Q 1547 409 2034 409 
Q 2525 409 2770 889 
Q 3016 1369 3016 2328 
Q 3016 3291 2770 3770 
Q 2525 4250 2034 4250 
z
M 2034 4750 
Q 2819 4750 3233 4129 
Q 3647 3509 3647 2328 
Q 3647 1150 3233 529 
Q 2819 -91 2034 -91 
Q 1250 -91 836 529 
Q 422 1150 422 2328 
Q 422 3509 836 4129 
Q 1250 4750 2034 4750 
z
" transform="scale(0.015625)"/>
       </defs>
       <use xlink:href="#DejaVuSans-30"/>
      </g>
     </g>
    </g>
    <g id="xtick_2">
     <g id="line2d_2">
      <g>
       <use xlink:href="#m18a6740962" x="138.828632" y="307.584" style="stroke: #000000; stroke-width: 0.8"/>
      </g>
     </g>
     <g id="text_2">
      <!-- 200 -->
      <g transform="translate(129.284882 322.182437) scale(0.1 -0.1)">
       <defs>
        <path id="DejaVuSans-32" d="M 1228 531 
L 3431 531 
L 3431 0 
L 469 0 
L 469 531 
Q 828 903 1448 1529 
Q 2069 2156 2228 2338 
Q 2531 2678 2651 2914 
Q 2772 3150 2772 3378 
Q 2772 3750 2511 3984 
Q 2250 4219 1831 4219 
Q 1534 4219 1204 4116 
Q 875 4013 500 3803 
L 500 4441 
Q 881 4594 1212 4672 
Q 1544 4750 1819 4750 
Q 2544 4750 2975 4387 
Q 3406 4025 3406 3419 
Q 3406 3131 3298 2873 
Q 3191 2616 2906 2266 
Q 2828 2175 2409 1742 
Q 1991 1309 1228 531 
z
" transform="scale(0.015625)"/>
       </defs>
       <use xlink:href="#DejaVuSans-32"/>
       <use xlink:href="#DejaVuSans-30" x="63.623047"/>
       <use xlink:href="#DejaVuSans-30" x="127.246094"/>
      </g>
     </g>
    </g>
    <g id="xtick_3">
     <g id="line2d_3">
      <g>
       <use xlink:href="#m18a6740962" x="203.824537" y="307.584" style="stroke: #000000; stroke-width: 0.8"/>
      </g>
     </g>
     <g id="text_3">
      <!-- 400 -->
      <g transform="translate(194.280787 322.182437) scale(0.1 -0.1)">
       <defs>
        <path id="DejaVuSans-34" d="M 2419 4116 
L 825 1625 
L 2419 1625 
L 2419 4116 
z
M 2253 4666 
L 3047 4666 
L 3047 1625 
L 3713 1625 
L 3713 1100 
L 3047 1100 
L 3047 0 
L 2419 0 
L 2419 1100 
L 313 1100 
L 313 1709 
L 2253 4666 
z
" transform="scale(0.015625)"/>
       </defs>
       <use xlink:href="#DejaVuSans-34"/>
       <use xlink:href="#DejaVuSans-30" x="63.623047"/>
       <use xlink:href="#DejaVuSans-30" x="127.246094"/>
      </g>
     </g>
    </g>
    <g id="xtick_4">
     <g id="line2d_4">
      <g>
       <use xlink:href="#m18a6740962" x="268.820442" y="307.584" style="stroke: #000000; stroke-width: 0.8"/>
      </g>
     </g>
     <g id="text_4">
      <!-- 600 -->
      <g transform="translate(259.276692 322.182437) scale(0.1 -0.1)">
       <defs>
        <path id="DejaVuSans-36" d="M 2113 2584 
Q 1688 2584 1439 2293 
Q 1191 2003 1191 1497 
Q 1191 994 1439 701 
Q 1688 409 2113 409 
Q 2538 409 2786 701 
Q 3034 994 3034 1497 
Q 3034 2003 2786 2293 
Q 2538 2584 2113 2584 
z
M 3366 4563 
L 3366 3988 
Q 3128 4100 2886 4159 
Q 2644 4219 2406 4219 
Q 1781 4219 1451 3797 
Q 1122 3375 1075 2522 
Q 1259 2794 1537 2939 
Q 1816 3084 2150 3084 
Q 2853 3084 3261 2657 
Q 3669 2231 3669 1497 
Q 3669 778 3244 343 
Q 2819 -91 2113 -91 
Q 1303 -91 875 529 
Q 447 1150 447 2328 
Q 447 3434 972 4092 
Q 1497 4750 2381 4750 
Q 2619 4750 2861 4703 
Q 3103 4656 3366 4563 
z
" transform="scale(0.015625)"/>
       </defs>
       <use xlink:href="#DejaVuSans-36"/>
       <use xlink:href="#DejaVuSans-30" x="63.623047"/>
       <use xlink:href="#DejaVuSans-30" x="127.246094"/>
      </g>
     </g>
    </g>
    <g id="xtick_5">
     <g id="line2d_5">
      <g>
       <use xlink:href="#m18a6740962" x="333.816347" y="307.584" style="stroke: #000000; stroke-width: 0.8"/>
      </g>
     </g>
     <g id="text_5">
      <!-- 800 -->
      <g transform="translate(324.272597 322.182437) scale(0.1 -0.1)">
       <defs>
        <path id="DejaVuSans-38" d="M 2034 2216 
Q 1584 2216 1326 1975 
Q 1069 1734 1069 1313 
Q 1069 891 1326 650 
Q 1584 409 2034 409 
Q 2484 409 2743 651 
Q 3003 894 3003 1313 
Q 3003 1734 2745 1975 
Q 2488 2216 2034 2216 
z
M 1403 2484 
Q 997 2584 770 2862 
Q 544 3141 544 3541 
Q 544 4100 942 4425 
Q 1341 4750 2034 4750 
Q 2731 4750 3128 4425 
Q 3525 4100 3525 3541 
Q 3525 3141 3298 2862 
Q 3072 2584 2669 2484 
Q 3125 2378 3379 2068 
Q 3634 1759 3634 1313 
Q 3634 634 3220 271 
Q 2806 -91 2034 -91 
Q 1263 -91 848 271 
Q 434 634 434 1313 
Q 434 1759 690 2068 
Q 947 2378 1403 2484 
z
M 1172 3481 
Q 1172 3119 1398 2916 
Q 1625 2713 2034 2713 
Q 2441 2713 2670 2916 
Q 2900 3119 2900 3481 
Q 2900 3844 2670 4047 
Q 2441 4250 2034 4250 
Q 1625 4250 1398 4047 
Q 1172 3844 1172 3481 
z
" transform="scale(0.015625)"/>
       </defs>
       <use xlink:href="#DejaVuSans-38"/>
       <use xlink:href="#DejaVuSans-30" x="63.623047"/>
       <use xlink:href="#DejaVuSans-30" x="127.246094"/>
      </g>
     </g>
    </g>
    <g id="xtick_6">
     <g id="line2d_6">
      <g>
       <use xlink:href="#m18a6740962" x="398.812252" y="307.584" style="stroke: #000000; stroke-width: 0.8"/>
      </g>
     </g>
     <g id="text_6">
      <!-- 1000 -->
      <g transform="translate(386.087252 322.182437) scale(0.1 -0.1)">
       <defs>
        <path id="DejaVuSans-31" d="M 794 531 
L 1825 531 
L 1825 4091 
L 703 3866 
L 703 4441 
L 1819 4666 
L 2450 4666 
L 2450 531 
L 3481 531 
L 3481 0 
L 794 0 
L 794 531 
z
" transform="scale(0.015625)"/>
       </defs>
       <use xlink:href="#DejaVuSans-31"/>
       <use xlink:href="#DejaVuSans-30" x="63.623047"/>
       <use xlink:href="#DejaVuSans-30" x="127.246094"/>
       <use xlink:href="#DejaVuSans-30" x="190.869141"/>
      </g>
     </g>
    </g>
    <g id="text_7">
     <!-- Ordin esantion -->
     <g transform="translate(199.443594 335.860562) scale(0.1 -0.1)">
      <defs>
       <path id="DejaVuSans-4f" d="M 2522 4238 
Q 1834 4238 1429 3725 
Q 1025 3213 1025 2328 
Q 1025 1447 1429 934 
Q 1834 422 2522 422 
Q 3209 422 3611 934 
Q 4013 1447 4013 2328 
Q 4013 3213 3611 3725 
Q 3209 4238 2522 4238 
z
M 2522 4750 
Q 3503 4750 4090 4092 
Q 4678 3434 4678 2328 
Q 4678 1225 4090 567 
Q 3503 -91 2522 -91 
Q 1538 -91 948 565 
Q 359 1222 359 2328 
Q 359 3434 948 4092 
Q 1538 4750 2522 4750 
z
" transform="scale(0.015625)"/>
       <path id="DejaVuSans-72" d="M 2631 2963 
Q 2534 3019 2420 3045 
Q 2306 3072 2169 3072 
Q 1681 3072 1420 2755 
Q 1159 2438 1159 1844 
L 1159 0 
L 581 0 
L 581 3500 
L 1159 3500 
L 1159 2956 
Q 1341 3275 1631 3429 
Q 1922 3584 2338 3584 
Q 2397 3584 2469 3576 
Q 2541 3569 2628 3553 
L 2631 2963 
z
" transform="scale(0.015625)"/>
       <path id="DejaVuSans-64" d="M 2906 2969 
L 2906 4863 
L 3481 4863 
L 3481 0 
L 2906 0 
L 2906 525 
Q 2725 213 2448 61 
Q 2172 -91 1784 -91 
Q 1150 -91 751 415 
Q 353 922 353 1747 
Q 353 2572 751 3078 
Q 1150 3584 1784 3584 
Q 2172 3584 2448 3432 
Q 2725 3281 2906 2969 
z
M 947 1747 
Q 947 1113 1208 752 
Q 1469 391 1925 391 
Q 2381 391 2643 752 
Q 2906 1113 2906 1747 
Q 2906 2381 2643 2742 
Q 2381 3103 1925 3103 
Q 1469 3103 1208 2742 
Q 947 2381 947 1747 
z
" transform="scale(0.015625)"/>
       <path id="DejaVuSans-69" d="M 603 3500 
L 1178 3500 
L 1178 0 
L 603 0 
L 603 3500 
z
M 603 4863 
L 1178 4863 
L 1178 4134 
L 603 4134 
L 603 4863 
z
" transform="scale(0.015625)"/>
       <path id="DejaVuSans-6e" d="M 3513 2113 
L 3513 0 
L 2938 0 
L 2938 2094 
Q 2938 2591 2744 2837 
Q 2550 3084 2163 3084 
Q 1697 3084 1428 2787 
Q 1159 2491 1159 1978 
L 1159 0 
L 581 0 
L 581 3500 
L 1159 3500 
L 1159 2956 
Q 1366 3272 1645 3428 
Q 1925 3584 2291 3584 
Q 2894 3584 3203 3211 
Q 3513 2838 3513 2113 
z
" transform="scale(0.015625)"/>
       <path id="DejaVuSans-20" transform="scale(0.015625)"/>
       <path id="DejaVuSans-65" d="M 3597 1894 
L 3597 1613 
L 953 1613 
Q 991 1019 1311 708 
Q 1631 397 2203 397 
Q 2534 397 2845 478 
Q 3156 559 3463 722 
L 3463 178 
Q 3153 47 2828 -22 
Q 2503 -91 2169 -91 
Q 1331 -91 842 396 
Q 353 884 353 1716 
Q 353 2575 817 3079 
Q 1281 3584 2069 3584 
Q 2775 3584 3186 3129 
Q 3597 2675 3597 1894 
z
M 3022 2063 
Q 3016 2534 2758 2815 
Q 2500 3097 2075 3097 
Q 1594 3097 1305 2825 
Q 1016 2553 972 2059 
L 3022 2063 
z
" transform="scale(0.015625)"/>
       <path id="DejaVuSans-73" d="M 2834 3397 
L 2834 2853 
Q 2591 2978 2328 3040 
Q 2066 3103 1784 3103 
Q 1356 3103 1142 2972 
Q 928 2841 928 2578 
Q 928 2378 1081 2264 
Q 1234 2150 1697 2047 
L 1894 2003 
Q 2506 1872 2764 1633 
Q 3022 1394 3022 966 
Q 3022 478 2636 193 
Q 2250 -91 1575 -91 
Q 1294 -91 989 -36 
Q 684 19 347 128 
L 347 722 
Q 666 556 975 473 
Q 1284 391 1588 391 
Q 1994 391 2212 530 
Q 2431 669 2431 922 
Q 2431 1156 2273 1281 
Q 2116 1406 1581 1522 
L 1381 1569 
Q 847 1681 609 1914 
Q 372 2147 372 2553 
Q 372 3047 722 3315 
Q 1072 3584 1716 3584 
Q 2034 3584 2315 3537 
Q 2597 3491 2834 3397 
z
" transform="scale(0.015625)"/>
       <path id="DejaVuSans-61" d="M 2194 1759 
Q 1497 1759 1228 1600 
Q 959 1441 959 1056 
Q 959 750 1161 570 
Q 1363 391 1709 391 
Q 2188 391 2477 730 
Q 2766 1069 2766 1631 
L 2766 1759 
L 2194 1759 
z
M 3341 1997 
L 3341 0 
L 2766 0 
L 2766 531 
Q 2569 213 2275 61 
Q 1981 -91 1556 -91 
Q 1019 -91 701 211 
Q 384 513 384 1019 
Q 384 1609 779 1909 
Q 1175 2209 1959 2209 
L 2766 2209 
L 2766 2266 
Q 2766 2663 2505 2880 
Q 2244 3097 1772 3097 
Q 1472 3097 1187 3025 
Q 903 2953 641 2809 
L 641 3341 
Q 956 3463 1253 3523 
Q 1550 3584 1831 3584 
Q 2591 3584 2966 3190 
Q 3341 2797 3341 1997 
z
" transform="scale(0.015625)"/>
       <path id="DejaVuSans-74" d="M 1172 4494 
L 1172 3500 
L 2356 3500 
L 2356 3053 
L 1172 3053 
L 1172 1153 
Q 1172 725 1289 603 
Q 1406 481 1766 481 
L 2356 481 
L 2356 0 
L 1766 0 
Q 1100 0 847 248 
Q 594 497 594 1153 
L 594 3053 
L 172 3053 
L 172 3500 
L 594 3500 
L 594 4494 
L 1172 4494 
z
" transform="scale(0.015625)"/>
       <path id="DejaVuSans-6f" d="M 1959 3097 
Q 1497 3097 1228 2736 
Q 959 2375 959 1747 
Q 959 1119 1226 758 
Q 1494 397 1959 397 
Q 2419 397 2687 759 
Q 2956 1122 2956 1747 
Q 2956 2369 2687 2733 
Q 2419 3097 1959 3097 
z
M 1959 3584 
Q 2709 3584 3137 3096 
Q 3566 2609 3566 1747 
Q 3566 888 3137 398 
Q 2709 -91 1959 -91 
Q 1206 -91 779 398 
Q 353 888 353 1747 
Q 353 2609 779 3096 
Q 1206 3584 1959 3584 
z
" transform="scale(0.015625)"/>
      </defs>
      <use xlink:href="#DejaVuSans-4f"/>
      <use xlink:href="#DejaVuSans-72" x="78.710938"/>
      <use xlink:href="#DejaVuSans-64" x="118.074219"/>
      <use xlink:href="#DejaVuSans-69" x="181.550781"/>
      <use xlink:href="#DejaVuSans-6e" x="209.333984"/>
      <use xlink:href="#DejaVuSans-20" x="272.712891"/>
      <use xlink:href="#DejaVuSans-65" x="304.5"/>
      <use xlink:href="#DejaVuSans-73" x="366.023438"/>
      <use xlink:href="#DejaVuSans-61" x="418.123047"/>
      <use xlink:href="#DejaVuSans-6e" x="479.402344"/>
      <use xlink:href="#DejaVuSans-74" x="542.78125"/>
      <use xlink:href="#DejaVuSans-69" x="581.990234"/>
      <use xlink:href="#DejaVuSans-6f" x="609.773438"/>
      <use xlink:href="#DejaVuSans-6e" x="670.955078"/>
     </g>
    </g>
   </g>
   <g id="matplotlib.axis_2">
    <g id="ytick_1">
     <g id="line2d_7">
      <defs>
       <path id="m7fa6a5e4b0" d="M 0 0 
L -3.5 0 
" style="stroke: #000000; stroke-width: 0.8"/>
      </defs>
      <g>
       <use xlink:href="#m7fa6a5e4b0" x="57.6" y="298.143714" style="stroke: #000000; stroke-width: 0.8"/>
      </g>
     </g>
     <g id="text_8">
      <!-- 1.0 -->
      <g transform="translate(34.696875 301.942932) scale(0.1 -0.1)">
       <defs>
        <path id="DejaVuSans-2e" d="M 684 794 
L 1344 794 
L 1344 0 
L 684 0 
L 684 794 
z
" transform="scale(0.015625)"/>
       </defs>
       <use xlink:href="#DejaVuSans-31"/>
       <use xlink:href="#DejaVuSans-2e" x="63.623047"/>
       <use xlink:href="#DejaVuSans-30" x="95.410156"/>
      </g>
     </g>
    </g>
    <g id="ytick_2">
     <g id="line2d_8">
      <g>
       <use xlink:href="#m7fa6a5e4b0" x="57.6" y="258.119117" style="stroke: #000000; stroke-width: 0.8"/>
      </g>
     </g>
     <g id="text_9">
      <!-- 1.5 -->
      <g transform="translate(34.696875 261.918336) scale(0.1 -0.1)">
       <defs>
        <path id="DejaVuSans-35" d="M 691 4666 
L 3169 4666 
L 3169 4134 
L 1269 4134 
L 1269 2991 
Q 1406 3038 1543 3061 
Q 1681 3084 1819 3084 
Q 2600 3084 3056 2656 
Q 3513 2228 3513 1497 
Q 3513 744 3044 326 
Q 2575 -91 1722 -91 
Q 1428 -91 1123 -41 
Q 819 9 494 109 
L 494 744 
Q 775 591 1075 516 
Q 1375 441 1709 441 
Q 2250 441 2565 725 
Q 2881 1009 2881 1497 
Q 2881 1984 2565 2268 
Q 2250 2553 1709 2553 
Q 1456 2553 1204 2497 
Q 953 2441 691 2322 
L 691 4666 
z
" transform="scale(0.015625)"/>
       </defs>
       <use xlink:href="#DejaVuSans-31"/>
       <use xlink:href="#DejaVuSans-2e" x="63.623047"/>
       <use xlink:href="#DejaVuSans-35" x="95.410156"/>
      </g>
     </g>
    </g>
    <g id="ytick_3">
     <g id="line2d_9">
      <g>
       <use xlink:href="#m7fa6a5e4b0" x="57.6" y="218.09452" style="stroke: #000000; stroke-width: 0.8"/>
      </g>
     </g>
     <g id="text_10">
      <!-- 2.0 -->
      <g transform="translate(34.696875 221.893739) scale(0.1 -0.1)">
       <use xlink:href="#DejaVuSans-32"/>
       <use xlink:href="#DejaVuSans-2e" x="63.623047"/>
       <use xlink:href="#DejaVuSans-30" x="95.410156"/>
      </g>
     </g>
    </g>
    <g id="ytick_4">
     <g id="line2d_10">
      <g>
       <use xlink:href="#m7fa6a5e4b0" x="57.6" y="178.069924" style="stroke: #000000; stroke-width: 0.8"/>
      </g>
     </g>
     <g id="text_11">
      <!-- 2.5 -->
      <g transform="translate(34.696875 181.869143) scale(0.1 -0.1)">
       <use xlink:href="#DejaVuSans-32"/>
       <use xlink:href="#DejaVuSans-2e" x="63.623047"/>
       <use xlink:href="#DejaVuSans-35" x="95.410156"/>
      </g>
     </g>
    </g>
    <g id="ytick_5">
     <g id="line2d_11">
      <g>
       <use xlink:href="#m7fa6a5e4b0" x="57.6" y="138.045327" style="stroke: #000000; stroke-width: 0.8"/>
      </g>
     </g>
     <g id="text_12">
      <!-- 3.0 -->
      <g transform="translate(34.696875 141.844546) scale(0.1 -0.1)">
       <defs>
        <path id="DejaVuSans-33" d="M 2597 2516 
Q 3050 2419 3304 2112 
Q 3559 1806 3559 1356 
Q 3559 666 3084 287 
Q 2609 -91 1734 -91 
Q 1441 -91 1130 -33 
Q 819 25 488 141 
L 488 750 
Q 750 597 1062 519 
Q 1375 441 1716 441 
Q 2309 441 2620 675 
Q 2931 909 2931 1356 
Q 2931 1769 2642 2001 
Q 2353 2234 1838 2234 
L 1294 2234 
L 1294 2753 
L 1863 2753 
Q 2328 2753 2575 2939 
Q 2822 3125 2822 3475 
Q 2822 3834 2567 4026 
Q 2313 4219 1838 4219 
Q 1578 4219 1281 4162 
Q 984 4106 628 3988 
L 628 4550 
Q 988 4650 1302 4700 
Q 1616 4750 1894 4750 
Q 2613 4750 3031 4423 
Q 3450 4097 3450 3541 
Q 3450 3153 3228 2886 
Q 3006 2619 2597 2516 
z
" transform="scale(0.015625)"/>
       </defs>
       <use xlink:href="#DejaVuSans-33"/>
       <use xlink:href="#DejaVuSans-2e" x="63.623047"/>
       <use xlink:href="#DejaVuSans-30" x="95.410156"/>
      </g>
     </g>
    </g>
    <g id="ytick_6">
     <g id="line2d_12">
      <g>
       <use xlink:href="#m7fa6a5e4b0" x="57.6" y="98.02073" style="stroke: #000000; stroke-width: 0.8"/>
      </g>
     </g>
     <g id="text_13">
      <!-- 3.5 -->
      <g transform="translate(34.696875 101.819949) scale(0.1 -0.1)">
       <use xlink:href="#DejaVuSans-33"/>
       <use xlink:href="#DejaVuSans-2e" x="63.623047"/>
       <use xlink:href="#DejaVuSans-35" x="95.410156"/>
      </g>
     </g>
    </g>
    <g id="ytick_7">
     <g id="line2d_13">
      <g>
       <use xlink:href="#m7fa6a5e4b0" x="57.6" y="57.996134" style="stroke: #000000; stroke-width: 0.8"/>
      </g>
     </g>
     <g id="text_14">
      <!-- 4.0 -->
      <g transform="translate(34.696875 61.795353) scale(0.1 -0.1)">
       <use xlink:href="#DejaVuSans-34"/>
       <use xlink:href="#DejaVuSans-2e" x="63.623047"/>
       <use xlink:href="#DejaVuSans-30" x="95.410156"/>
      </g>
     </g>
    </g>
    <g id="text_15">
     <!-- Valoare -->
     <g transform="translate(28.617187 193.156906) rotate(-90) scale(0.1 -0.1)">
      <defs>
       <path id="DejaVuSans-56" d="M 1831 0 
L 50 4666 
L 709 4666 
L 2188 738 
L 3669 4666 
L 4325 4666 
L 2547 0 
L 1831 0 
z
" transform="scale(0.015625)"/>
       <path id="DejaVuSans-6c" d="M 603 4863 
L 1178 4863 
L 1178 0 
L 603 0 
L 603 4863 
z
" transform="scale(0.015625)"/>
      </defs>
      <use xlink:href="#DejaVuSans-56"/>
      <use xlink:href="#DejaVuSans-61" x="60.658203"/>
      <use xlink:href="#DejaVuSans-6c" x="121.9375"/>
      <use xlink:href="#DejaVuSans-6f" x="149.720703"/>
      <use xlink:href="#DejaVuSans-61" x="210.902344"/>
      <use xlink:href="#DejaVuSans-72" x="272.181641"/>
      <use xlink:href="#DejaVuSans-65" x="311.044922"/>
     </g>
    </g>
   </g>
   <g id="line2d_14">
    <path d="M 73.832727 292.82885 
L 74.157707 295.488 
L 74.482686 292.932527 
L 74.807666 292.046879 
L 75.132645 293.054466 
L 75.457625 293.131739 
L 75.782604 290.945625 
L 76.107584 286.216294 
L 76.432563 285.250433 
L 76.757543 285.683125 
L 77.082523 287.667991 
L 77.407502 287.946067 
L 77.732482 282.212874 
L 78.057461 284.47128 
L 78.382441 279.669862 
L 78.70742 278.378738 
L 79.0324 279.858949 
L 79.357379 279.08759 
L 79.682359 279.25335 
L 80.007338 277.379063 
L 80.332318 277.883029 
L 80.657297 273.493455 
L 80.982277 278.227096 
L 81.307256 274.296285 
L 81.632236 276.622002 
L 81.957215 276.479115 
L 82.282195 271.611595 
L 82.607174 275.19723 
L 82.932154 274.946586 
L 83.257133 271.200631 
L 83.582113 270.297109 
L 83.907093 269.769904 
L 84.232072 266.797112 
L 84.557052 266.782124 
L 84.882031 272.235199 
L 85.207011 267.908004 
L 85.53199 271.52755 
L 85.85697 267.22933 
L 86.181949 264.517244 
L 86.506929 267.913153 
L 86.831908 269.948611 
L 87.156888 264.132635 
L 87.806847 267.505154 
L 88.131826 266.664937 
L 88.456806 266.487403 
L 88.781785 265.635471 
L 89.106765 262.453472 
L 89.431744 262.092959 
L 89.756724 261.073904 
L 90.081704 267.230447 
L 90.406683 261.270082 
L 90.731663 261.532675 
L 91.056642 262.292096 
L 91.706601 261.389631 
L 92.031581 262.114432 
L 92.35656 262.514259 
L 92.68154 262.630586 
L 93.006519 263.997827 
L 93.331499 261.468104 
L 93.656478 266.177533 
L 93.981458 267.594712 
L 94.306437 261.769906 
L 94.956396 268.787955 
L 95.281376 262.189333 
L 95.606355 263.213984 
L 95.931335 268.950677 
L 96.906274 271.345988 
L 97.231253 271.025236 
L 97.556233 268.592741 
L 97.881212 267.394237 
L 98.206192 267.42966 
L 98.531171 266.768645 
L 98.856151 272.138827 
L 99.18113 272.82317 
L 99.50611 267.373623 
L 99.831089 267.539547 
L 100.156069 273.594607 
L 100.481048 271.458607 
L 100.806028 270.504983 
L 101.131007 275.573928 
L 101.455987 273.630592 
L 101.780966 274.55996 
L 102.105946 271.855835 
L 102.430925 272.722895 
L 102.755905 276.670459 
L 103.080885 278.2608 
L 103.405864 273.313406 
L 103.730844 277.276409 
L 104.055823 272.616038 
L 104.380803 276.128875 
L 104.705782 276.828591 
L 105.030762 276.442875 
L 105.355741 275.822618 
L 105.680721 279.502895 
L 106.0057 277.716442 
L 106.33068 282.705765 
L 106.655659 280.298598 
L 106.980639 280.684245 
L 107.305618 277.511846 
L 107.630598 277.889183 
L 107.955577 279.963172 
L 108.280557 284.332285 
L 108.930516 278.603785 
L 109.255495 279.455711 
L 109.580475 285.06837 
L 109.905455 278.401083 
L 110.555414 286.646315 
L 110.880393 282.149856 
L 111.205373 283.379026 
L 111.530352 283.75956 
L 111.855332 287.093205 
L 112.180311 279.764611 
L 112.505291 285.162128 
L 112.83027 283.268182 
L 113.480229 286.718845 
L 114.130188 286.452911 
L 114.455168 280.39719 
L 114.780147 280.63343 
L 115.105127 286.724948 
L 115.430106 285.281239 
L 115.755086 282.79777 
L 116.080066 283.689526 
L 116.405045 285.936238 
L 117.055004 285.042077 
L 117.379984 281.383838 
L 117.704963 282.267132 
L 118.029943 279.685894 
L 118.354922 283.717967 
L 118.679902 276.912605 
L 119.329861 279.012213 
L 119.65484 278.315078 
L 119.97982 278.457651 
L 120.304799 281.332834 
L 120.954758 280.794145 
L 121.279738 278.804982 
L 121.604717 273.652801 
L 121.929697 276.945686 
L 122.254676 273.292354 
L 122.579656 275.261661 
L 122.904636 275.804381 
L 123.229615 275.719858 
L 123.554595 272.95946 
L 124.204554 273.81613 
L 124.529533 269.162674 
L 124.854513 268.876543 
L 125.504472 271.755628 
L 125.829451 267.027945 
L 126.154431 266.480817 
L 126.47941 269.791701 
L 126.80439 270.972872 
L 127.129369 269.146959 
L 127.454349 263.605888 
L 127.779328 266.873763 
L 128.104308 267.376851 
L 128.429287 261.342627 
L 128.754267 264.601994 
L 129.079247 259.35463 
L 129.404226 263.99253 
L 129.729206 263.832399 
L 130.054185 260.415221 
L 130.379165 261.10384 
L 130.704144 261.342364 
L 131.029124 262.668691 
L 131.354103 255.295026 
L 131.679083 257.357351 
L 132.004062 261.477177 
L 132.654021 253.48765 
L 132.979001 259.51428 
L 133.30398 257.184908 
L 133.62896 251.253133 
L 133.953939 257.409758 
L 134.278919 253.902984 
L 134.603898 253.74954 
L 134.928878 252.86597 
L 135.253857 256.034928 
L 135.578837 253.248507 
L 135.903817 251.891567 
L 136.228796 251.958313 
L 136.553776 247.981239 
L 136.878755 254.17932 
L 137.203735 252.666548 
L 137.528714 248.525595 
L 137.853694 246.848521 
L 138.178673 251.873428 
L 138.503653 252.330534 
L 138.828632 246.181973 
L 139.153612 244.154727 
L 139.478591 244.238533 
L 139.803571 248.782577 
L 140.12855 248.759573 
L 140.45353 248.88103 
L 140.778509 244.895843 
L 141.103489 250.650111 
L 141.428468 245.112122 
L 142.078428 250.116081 
L 142.403407 243.265955 
L 142.728387 243.499177 
L 143.053366 244.200276 
L 143.378346 250.201563 
L 143.703325 247.665838 
L 144.028305 249.112406 
L 144.353284 245.357441 
L 144.678264 250.911874 
L 145.003243 245.663736 
L 145.328223 244.47433 
L 145.653202 251.501606 
L 145.978182 247.810536 
L 146.303161 248.161948 
L 146.628141 249.248087 
L 146.95312 248.731666 
L 147.2781 250.460949 
L 147.603079 245.252169 
L 147.928059 247.499173 
L 148.253038 247.032501 
L 148.578018 249.35873 
L 148.902998 250.31883 
L 149.227977 247.501281 
L 149.552957 252.691047 
L 149.877936 252.100577 
L 150.202916 250.764562 
L 150.527895 251.262553 
L 150.852875 254.533322 
L 151.177854 248.691111 
L 151.827813 254.779571 
L 152.152793 250.411658 
L 152.477772 254.884535 
L 152.802752 254.138378 
L 153.127731 252.264898 
L 153.452711 251.706118 
L 153.77769 259.429002 
L 154.10267 258.880181 
L 154.427649 254.659429 
L 154.752629 259.320186 
L 155.402588 256.759012 
L 155.727568 254.073106 
L 156.052547 254.562367 
L 156.377527 257.764129 
L 156.702506 262.868266 
L 157.027486 262.481303 
L 157.352465 257.408062 
L 157.677445 263.452443 
L 158.002424 264.585797 
L 158.327404 260.979844 
L 158.652383 260.496399 
L 158.977363 259.037736 
L 159.302342 258.725567 
L 159.627322 266.146244 
L 159.952301 264.413673 
L 160.277281 260.726435 
L 160.60226 266.871481 
L 160.92724 266.173748 
L 161.252219 261.531997 
L 161.577199 263.641029 
L 161.902179 263.170258 
L 162.227158 266.145219 
L 162.552138 264.538504 
L 162.877117 264.080566 
L 163.202097 266.592014 
L 163.527076 262.742886 
L 163.852056 264.388648 
L 164.177035 262.030082 
L 164.502015 267.312804 
L 164.826994 263.503038 
L 165.151974 268.076425 
L 165.476953 260.953867 
L 165.801933 261.9196 
L 166.126912 265.882853 
L 166.451892 259.906537 
L 166.776871 265.845314 
L 167.101851 266.789347 
L 167.42683 262.414688 
L 167.75181 266.94855 
L 168.07679 262.293877 
L 168.401769 265.670968 
L 168.726749 264.704047 
L 169.051728 260.99034 
L 169.376708 262.684856 
L 169.701687 259.152039 
L 170.026667 262.870114 
L 170.351646 259.352922 
L 170.676626 261.08096 
L 171.001605 256.535451 
L 171.326585 260.929729 
L 171.651564 259.891421 
L 171.976544 256.750743 
L 172.301523 260.830818 
L 172.951482 256.123429 
L 173.276462 252.345373 
L 173.601441 258.066978 
L 174.2514 250.22399 
L 174.90136 253.398247 
L 175.226339 247.922253 
L 175.551319 253.280193 
L 175.876298 248.868743 
L 176.201278 252.393415 
L 176.526257 249.791605 
L 176.851237 243.188113 
L 177.176216 244.103441 
L 177.501196 248.867718 
L 177.826175 247.589668 
L 178.151155 243.563185 
L 178.476134 243.472875 
L 178.801114 244.802515 
L 179.126093 237.681802 
L 179.451073 239.779103 
L 179.776052 236.069554 
L 180.101032 234.957387 
L 180.426011 237.181047 
L 180.750991 238.169144 
L 181.075971 233.965353 
L 181.40095 237.491352 
L 182.050909 228.247723 
L 182.375889 230.4026 
L 182.700868 229.950274 
L 183.025848 225.795479 
L 183.350827 226.997426 
L 183.675807 229.681314 
L 184.000786 222.893811 
L 184.325766 227.527877 
L 184.650745 220.890546 
L 184.975725 226.573947 
L 185.300704 223.133647 
L 185.625684 218.260736 
L 185.950663 222.327906 
L 186.275643 222.712107 
L 186.600622 219.507212 
L 186.925602 217.615717 
L 187.250581 217.03546 
L 187.575561 215.686283 
L 188.22552 213.876151 
L 188.5505 215.990148 
L 188.875479 210.326761 
L 189.525438 213.747965 
L 189.850418 213.611206 
L 190.175397 207.61048 
L 190.500377 209.096922 
L 190.825356 207.112404 
L 191.150336 205.972265 
L 191.475315 207.891131 
L 191.800295 208.648546 
L 192.125274 203.529673 
L 192.450254 202.270444 
L 192.775233 201.565377 
L 193.100213 201.780583 
L 193.425192 205.126226 
L 193.750172 207.052342 
L 194.075152 205.239145 
L 194.400131 205.476417 
L 194.725111 203.51862 
L 195.05009 198.814095 
L 195.37507 201.267561 
L 195.700049 197.55732 
L 196.025029 201.944192 
L 196.350008 201.935634 
L 196.674988 198.802292 
L 196.999967 203.591009 
L 197.324947 199.156795 
L 197.649926 198.659356 
L 197.974906 200.397669 
L 198.299885 198.373853 
L 198.624865 198.190619 
L 198.949844 201.912328 
L 199.599803 195.101233 
L 199.924783 195.670083 
L 200.574742 201.103442 
L 200.899722 201.792656 
L 201.549681 196.727035 
L 201.87466 202.467666 
L 202.19964 198.633279 
L 202.524619 197.572707 
L 202.849599 201.385846 
L 203.174578 200.115463 
L 203.499558 197.620091 
L 203.824537 199.325422 
L 204.149517 196.600982 
L 204.474496 199.200499 
L 204.799476 204.057389 
L 205.449435 201.850125 
L 205.774414 200.111196 
L 206.424373 203.883981 
L 206.749353 204.358975 
L 207.074333 202.421176 
L 207.399312 206.531901 
L 207.724292 203.931471 
L 208.374251 208.564256 
L 208.69923 206.35104 
L 209.02421 205.18147 
L 209.349189 204.688612 
L 209.674169 202.747548 
L 210.324128 210.115618 
L 210.649107 209.785375 
L 210.974087 204.995153 
L 211.299066 205.778893 
L 211.624046 209.919193 
L 211.949025 211.563915 
L 212.274005 206.288888 
L 212.598984 207.832662 
L 212.923964 207.588472 
L 213.573923 209.202229 
L 213.898903 213.140089 
L 214.223882 212.595709 
L 214.548862 210.664493 
L 214.873841 211.583889 
L 215.198821 214.380173 
L 215.5238 214.753402 
L 215.84878 216.387692 
L 216.173759 216.804917 
L 216.498739 210.546924 
L 216.823718 215.458867 
L 217.798657 209.951654 
L 218.123636 215.758102 
L 218.448616 212.513241 
L 219.098575 217.678366 
L 219.423554 217.059755 
L 219.748534 217.674306 
L 220.073514 211.266695 
L 220.398493 214.839012 
L 221.048452 210.922022 
L 221.373432 216.743671 
L 221.698411 218.324798 
L 222.34837 213.232687 
L 222.67335 216.357911 
L 222.998329 216.536611 
L 223.323309 210.93363 
L 223.648288 213.670319 
L 223.973268 209.95662 
L 224.623227 214.472112 
L 224.948206 214.755163 
L 225.273186 212.602614 
L 225.598165 208.977332 
L 225.923145 212.325779 
L 226.248124 210.117397 
L 226.573104 211.353893 
L 226.898084 208.602447 
L 227.223063 207.908251 
L 227.548043 207.578774 
L 227.873022 211.397303 
L 228.198002 210.129182 
L 228.522981 204.774392 
L 228.847961 210.547415 
L 229.17294 203.767565 
L 229.49792 204.570278 
L 229.822899 208.797434 
L 230.147879 206.290577 
L 230.472858 208.111219 
L 230.797838 206.778782 
L 231.122817 200.595852 
L 231.447797 202.220646 
L 231.772776 202.175584 
L 232.097756 199.287618 
L 232.422735 201.053602 
L 232.747715 197.221889 
L 233.072695 203.464156 
L 233.397674 197.131603 
L 233.722654 198.521667 
L 234.047633 195.135367 
L 234.372613 200.642152 
L 235.022572 197.282083 
L 235.347551 193.327673 
L 235.672531 195.625839 
L 235.99751 191.63699 
L 236.32249 194.059085 
L 236.647469 194.465696 
L 237.297428 192.61882 
L 237.622408 194.098232 
L 237.947387 186.567849 
L 238.272367 189.859232 
L 238.597346 185.357372 
L 239.247305 188.595279 
L 239.572285 188.003213 
L 239.897265 184.501118 
L 240.222244 186.45421 
L 240.547224 184.908718 
L 240.872203 187.402015 
L 241.197183 181.483096 
L 241.522162 179.409354 
L 241.847142 179.667847 
L 242.172121 183.818249 
L 242.497101 178.64846 
L 242.82208 184.881916 
L 243.472039 181.248545 
L 244.121998 181.749768 
L 244.446978 176.830514 
L 244.771957 181.420667 
L 245.096937 174.387031 
L 245.421916 177.249103 
L 246.071876 172.812181 
L 246.396855 176.108245 
L 246.721835 178.077983 
L 247.046814 174.13002 
L 247.371794 173.330473 
L 247.696773 178.598243 
L 248.021753 178.475192 
L 248.346732 172.527106 
L 248.671712 170.12529 
L 248.996691 175.221117 
L 249.321671 172.82721 
L 249.64665 174.527754 
L 249.97163 175.034878 
L 250.296609 175.878117 
L 250.621589 170.749457 
L 250.946568 170.605321 
L 251.271548 171.139616 
L 251.596527 173.984192 
L 251.921507 172.557509 
L 252.246486 169.786606 
L 252.571466 171.348333 
L 252.896446 176.415338 
L 253.221425 169.450726 
L 253.546405 173.379055 
L 253.871384 170.953264 
L 254.196364 173.461296 
L 254.521343 171.820592 
L 254.846323 176.741793 
L 255.171302 177.64364 
L 255.496282 174.456581 
L 255.821261 176.656092 
L 256.146241 177.183804 
L 256.47122 175.705388 
L 256.7962 178.099067 
L 257.446159 179.182784 
L 257.771138 176.633695 
L 258.096118 172.767467 
L 258.421097 179.120762 
L 258.746077 176.762687 
L 259.071057 176.114386 
L 259.396036 177.606537 
L 259.721016 177.559206 
L 260.045995 181.462194 
L 260.370975 180.085213 
L 260.695954 176.705318 
L 261.020934 181.526364 
L 261.345913 178.406444 
L 261.670893 176.390451 
L 261.995872 176.959956 
L 262.320852 182.110101 
L 262.645831 177.94622 
L 262.970811 183.846233 
L 263.29579 182.804739 
L 263.62077 183.461027 
L 263.945749 179.116271 
L 264.270729 180.841782 
L 264.595708 184.800113 
L 264.920688 184.87875 
L 265.245667 187.538546 
L 265.570647 181.314587 
L 265.895627 186.764405 
L 266.220606 186.106814 
L 266.545586 182.382775 
L 266.870565 183.335756 
L 267.195545 184.817205 
L 267.520524 187.835186 
L 267.845504 183.488074 
L 268.170483 183.613715 
L 268.495463 183.870528 
L 268.820442 182.762765 
L 269.145422 186.283866 
L 269.470401 185.348388 
L 269.795381 189.732704 
L 270.12036 190.593164 
L 270.44534 190.864884 
L 270.770319 190.062174 
L 271.095299 184.756664 
L 271.420278 190.720646 
L 272.070238 185.451935 
L 272.395217 186.297511 
L 272.720197 190.567636 
L 273.370156 183.451146 
L 273.695135 189.54507 
L 274.020115 182.969834 
L 274.345094 190.26458 
L 274.670074 184.68028 
L 274.995053 185.441035 
L 275.320033 185.799921 
L 275.645012 185.338278 
L 275.969992 188.003478 
L 276.294971 181.05706 
L 276.619951 183.761472 
L 276.94493 181.396145 
L 277.26991 187.267968 
L 277.594889 179.734931 
L 277.919869 180.36993 
L 278.244848 184.98095 
L 278.569828 184.590496 
L 278.894808 180.734734 
L 279.219787 182.552496 
L 279.544767 182.587451 
L 279.869746 177.499122 
L 280.519705 175.970981 
L 280.844685 174.38926 
L 281.169664 178.227941 
L 281.494644 180.424887 
L 281.819623 171.802201 
L 282.144603 177.857503 
L 282.469582 175.047945 
L 282.794562 175.754655 
L 283.119541 170.675464 
L 283.444521 170.701069 
L 283.7695 171.69693 
L 284.09448 168.817496 
L 284.419459 168.52894 
L 284.744439 169.314109 
L 285.394398 165.981401 
L 285.719378 166.572558 
L 286.044357 165.225653 
L 286.369337 161.344721 
L 286.694316 162.902276 
L 287.019296 159.540114 
L 287.344275 158.001833 
L 287.669255 159.328554 
L 287.994234 162.737602 
L 288.319214 159.881845 
L 288.644193 158.755068 
L 288.969173 152.199291 
L 289.619132 157.379142 
L 289.944111 152.444343 
L 290.269091 153.049118 
L 290.59407 149.250103 
L 290.91905 151.946267 
L 291.244029 150.086651 
L 291.569009 149.111317 
L 291.893989 144.950112 
L 292.218968 149.569188 
L 292.543948 142.345546 
L 292.868927 147.559296 
L 293.518886 144.356337 
L 293.843866 139.670921 
L 294.168845 141.939102 
L 294.493825 140.385198 
L 294.818804 141.391682 
L 295.143784 133.882107 
L 295.793743 136.396829 
L 296.118722 134.191864 
L 296.443702 137.337477 
L 296.768681 135.813696 
L 297.41864 127.090812 
L 297.74362 133.468048 
L 298.0686 125.446187 
L 298.718559 130.592706 
L 299.368518 128.445989 
L 299.693497 124.264539 
L 300.018477 125.530266 
L 300.343456 122.283515 
L 300.668436 121.164471 
L 300.993415 126.131494 
L 301.318395 121.324862 
L 301.643374 118.770614 
L 301.968354 125.290755 
L 302.293333 122.917593 
L 302.618313 124.237979 
L 302.943292 118.261093 
L 303.268272 117.830056 
L 303.593251 119.608199 
L 303.918231 118.306857 
L 304.24321 119.310068 
L 304.56819 115.021873 
L 304.89317 117.015796 
L 305.218149 116.909878 
L 305.543129 119.164919 
L 305.868108 120.313286 
L 306.193088 116.443799 
L 306.518067 115.590302 
L 306.843047 112.943522 
L 307.168026 117.53115 
L 307.493006 118.570929 
L 307.817985 114.323 
L 308.142965 117.721456 
L 308.467944 115.05069 
L 308.792924 114.509883 
L 309.117903 119.141629 
L 309.442883 114.965538 
L 309.767862 119.764172 
L 310.092842 118.063745 
L 310.417821 118.580698 
L 310.742801 116.694261 
L 311.067781 119.932899 
L 311.39276 113.179337 
L 312.042719 118.541053 
L 312.367699 119.553298 
L 312.692678 113.506847 
L 313.017658 120.25229 
L 313.342637 114.612422 
L 313.667617 117.391107 
L 313.992596 118.421996 
L 314.317576 116.92233 
L 314.642555 116.459706 
L 314.967535 118.607455 
L 315.292514 123.017557 
L 315.617494 115.917956 
L 315.942473 116.396265 
L 316.267453 120.828552 
L 316.592432 118.397361 
L 316.917412 121.601051 
L 317.242391 119.792015 
L 317.567371 124.643475 
L 317.892351 121.893534 
L 318.21733 121.288991 
L 318.54231 121.600145 
L 318.867289 120.305852 
L 319.192269 124.086345 
L 319.517248 119.797213 
L 319.842228 121.582545 
L 320.167207 121.778101 
L 320.492187 123.560075 
L 320.817166 126.207454 
L 321.142146 125.069763 
L 321.467125 127.926819 
L 321.792105 124.507118 
L 322.117084 125.01064 
L 322.442064 123.745661 
L 322.767043 123.721328 
L 323.092023 130.231936 
L 323.417002 129.029212 
L 323.741982 130.870074 
L 324.066962 127.252964 
L 324.391941 127.203204 
L 324.716921 127.564722 
L 325.0419 130.228313 
L 325.36688 127.21302 
L 325.691859 130.324032 
L 326.016839 126.08031 
L 326.341818 125.465015 
L 326.666798 126.310986 
L 326.991777 124.425723 
L 327.316757 131.210322 
L 327.641736 129.10388 
L 327.966716 131.832195 
L 328.291695 131.092228 
L 328.616675 130.668618 
L 329.266634 126.022229 
L 329.591613 131.364068 
L 329.916593 127.102646 
L 330.241572 131.484275 
L 330.566552 127.276933 
L 331.216511 124.917877 
L 331.541491 125.736794 
L 331.86647 124.040102 
L 332.19145 126.113029 
L 332.516429 127.398452 
L 332.841409 126.328032 
L 333.166388 122.374172 
L 333.491368 128.614719 
L 333.816347 125.663487 
L 334.466306 126.125015 
L 334.791286 123.715321 
L 335.116265 122.48572 
L 335.441245 125.471343 
L 335.766224 119.177663 
L 336.091204 124.705351 
L 336.416183 119.777118 
L 336.741163 119.098164 
L 337.066143 123.890385 
L 337.391122 117.505129 
L 337.716102 118.996883 
L 338.041081 122.14814 
L 338.366061 115.26205 
L 338.69104 115.310401 
L 339.01602 118.042539 
L 339.340999 117.151318 
L 339.665979 115.274484 
L 339.990958 117.349311 
L 340.315938 112.112749 
L 340.640917 115.526492 
L 340.965897 114.499795 
L 341.290876 115.829873 
L 341.615856 115.247607 
L 341.940835 110.538282 
L 342.265815 108.496049 
L 342.915774 106.584001 
L 343.240753 103.877704 
L 343.565733 108.938046 
L 343.890713 105.7191 
L 344.540672 104.02292 
L 344.865651 103.942268 
L 345.190631 105.51535 
L 345.51561 100.035069 
L 345.84059 99.781452 
L 346.165569 100.085243 
L 346.490549 101.388664 
L 346.815528 99.054339 
L 347.140508 98.724706 
L 347.465487 100.969894 
L 347.790467 100.015574 
L 348.115446 94.41212 
L 348.440426 95.067793 
L 348.765405 94.137274 
L 349.090385 97.630392 
L 349.740344 90.636704 
L 350.065324 90.357933 
L 350.390303 94.168116 
L 351.040262 88.624775 
L 351.365242 89.866701 
L 351.690221 92.336608 
L 352.015201 85.773104 
L 352.34018 92.58259 
L 352.66516 86.57171 
L 352.990139 86.305616 
L 353.315119 84.057044 
L 353.640098 83.689697 
L 353.965078 84.587751 
L 354.290057 86.836529 
L 354.615037 85.171681 
L 354.940016 82.835179 
L 355.589975 86.281421 
L 355.914955 82.154742 
L 356.239934 81.750586 
L 356.564914 80.302364 
L 356.889894 83.815341 
L 357.214873 83.352229 
L 357.539853 86.066598 
L 357.864832 84.304159 
L 358.189812 84.851244 
L 358.514791 83.131219 
L 358.839771 84.36647 
L 359.16475 83.958251 
L 359.48973 84.317698 
L 359.814709 83.57508 
L 360.139689 83.97007 
L 360.464668 80.183907 
L 360.789648 83.55659 
L 361.114627 84.330012 
L 361.439607 83.651571 
L 361.764586 85.228823 
L 362.089566 82.0916 
L 362.414545 84.549643 
L 362.739525 81.241227 
L 363.064505 81.575703 
L 363.389484 78.389932 
L 363.714464 81.675023 
L 364.039443 80.52085 
L 364.364423 85.554116 
L 364.689402 82.447926 
L 365.014382 86.311614 
L 365.339361 84.464128 
L 365.98932 85.859294 
L 366.3143 83.218521 
L 366.639279 87.773126 
L 366.964259 83.055993 
L 367.289238 84.888225 
L 367.614218 85.339855 
L 367.939197 88.265407 
L 368.264177 82.697061 
L 368.589156 87.667493 
L 368.914136 88.175847 
L 369.239115 83.451956 
L 369.564095 89.660772 
L 370.214054 83.27974 
L 370.539034 84.374379 
L 370.864013 89.141649 
L 371.513972 84.882466 
L 371.838952 91.843338 
L 372.163931 85.360266 
L 372.488911 88.766945 
L 373.13887 86.641787 
L 373.463849 89.86273 
L 373.788829 88.311021 
L 374.113808 94.38582 
L 374.438788 87.167764 
L 374.763767 89.580786 
L 375.088747 87.844477 
L 375.413726 94.360008 
L 375.738706 93.053905 
L 376.063686 88.79063 
L 376.388665 92.898496 
L 376.713645 88.276787 
L 377.038624 95.255811 
L 377.363604 90.357973 
L 377.688583 95.632623 
L 378.013563 90.474613 
L 378.338542 91.669822 
L 378.663522 89.064273 
L 378.988501 92.176744 
L 379.313481 90.969158 
L 379.63846 89.01087 
L 379.96344 90.630087 
L 380.288419 95.536319 
L 380.613399 90.357325 
L 380.938378 91.670787 
L 381.263358 90.317334 
L 381.588337 93.552866 
L 381.913317 90.257528 
L 382.238296 89.830242 
L 382.563276 94.6806 
L 382.888256 93.681835 
L 383.213235 89.452899 
L 383.538215 92.234184 
L 383.863194 90.632658 
L 384.188174 88.298875 
L 384.513153 87.539899 
L 384.838133 92.06477 
L 385.163112 90.342641 
L 385.813071 84.504989 
L 386.138051 85.298859 
L 386.46303 90.022469 
L 386.78801 85.339677 
L 387.112989 82.827569 
L 387.437969 85.812055 
L 387.762948 87.138186 
L 388.087928 84.690758 
L 388.412907 86.527672 
L 388.737887 81.522198 
L 389.062867 79.545348 
L 389.387846 82.395088 
L 389.712826 78.043219 
L 390.037805 81.022912 
L 390.362785 79.12273 
L 390.687764 79.323418 
L 391.012744 79.773587 
L 391.337723 77.421476 
L 391.662703 78.436605 
L 391.987682 73.490484 
L 392.312662 77.195568 
L 392.637641 74.446047 
L 392.962621 70.171637 
L 393.2876 73.590525 
L 393.61258 68.820505 
L 393.937559 70.482989 
L 394.262539 69.979881 
L 394.587518 66.509116 
L 395.237477 66.366481 
L 395.562457 62.63289 
L 395.887437 66.130452 
L 396.862375 56.199194 
L 397.187355 55.385577 
L 397.512334 53.649754 
L 397.837314 55.635343 
L 398.162293 58.798722 
L 398.487273 57.472715 
L 398.487273 57.472715 
" clip-path="url(#p5e19a9532a)" style="fill: none; stroke: #1f77b4; stroke-width: 1.5; stroke-linecap: square"/>
   </g>
   <g id="line2d_15">
    <path d="M 84.232072 270.617503 
L 84.557052 269.410579 
L 85.207011 268.125986 
L 85.53199 268.160015 
L 85.85697 268.338171 
L 86.506929 266.213508 
L 86.831908 265.945982 
L 87.156888 266.205179 
L 87.481867 265.374418 
L 87.806847 266.296627 
L 88.131826 265.352473 
L 88.456806 265.562735 
L 88.781785 265.578936 
L 89.106765 264.770677 
L 89.431744 264.375889 
L 90.081704 262.793446 
L 90.406683 263.590519 
L 90.731663 262.90699 
L 91.056642 261.741247 
L 91.381622 261.893638 
L 91.706601 261.327841 
L 92.031581 261.484207 
L 92.35656 261.333086 
L 92.68154 260.599738 
L 93.006519 261.379132 
L 93.331499 261.241432 
L 93.656478 261.371334 
L 93.981458 262.490292 
L 94.306437 262.537387 
L 94.631417 262.941769 
L 94.956396 263.97079 
L 95.281376 265.675527 
L 95.606355 264.865769 
L 96.256314 265.763639 
L 96.581294 266.928128 
L 96.906274 269.250863 
L 97.556233 270.811231 
L 97.881212 270.862178 
L 98.206192 270.232899 
L 98.531171 270.622871 
L 98.856151 270.69926 
L 99.50611 271.948653 
L 99.831089 271.640216 
L 100.156069 271.09262 
L 100.481048 271.116248 
L 100.806028 270.515535 
L 101.455987 272.331912 
L 101.780966 272.737188 
L 102.105946 273.374343 
L 102.430925 272.920695 
L 102.755905 273.370898 
L 103.405864 275.437176 
L 103.730844 275.979182 
L 104.055823 277.547719 
L 104.380803 275.700288 
L 104.705782 275.620256 
L 106.0057 277.99398 
L 106.33068 278.250617 
L 106.655659 280.000052 
L 106.980639 279.818845 
L 107.305618 280.42412 
L 107.630598 280.46566 
L 107.955577 279.804335 
L 108.605536 281.382097 
L 109.255495 282.064697 
L 109.580475 281.325015 
L 109.905455 282.100182 
L 110.230434 281.470345 
L 110.555414 282.221491 
L 110.880393 283.408916 
L 111.205373 282.816171 
L 111.530352 284.263909 
L 111.855332 284.165328 
L 112.180311 284.333413 
L 112.505291 283.960204 
L 112.83027 284.170475 
L 113.480229 285.912105 
L 113.805209 285.082279 
L 114.130188 285.963838 
L 114.780147 285.13257 
L 115.105127 283.98367 
L 115.430106 284.921644 
L 115.755086 284.970987 
L 116.080066 284.4828 
L 116.405045 285.037267 
L 116.730025 284.484587 
L 117.055004 284.86095 
L 117.379984 284.548926 
L 117.704963 283.443599 
L 118.029943 283.386602 
L 118.354922 282.016042 
L 118.679902 282.80796 
L 119.65484 278.85738 
L 119.97982 278.27988 
L 120.304799 278.122997 
L 120.629779 278.872988 
L 120.954758 277.852923 
L 121.279738 277.911865 
L 121.604717 277.43731 
L 121.929697 276.186396 
L 122.254676 276.862683 
L 122.579656 274.376359 
L 122.904636 275.204526 
L 123.229615 275.274239 
L 123.554595 275.020369 
L 123.879574 274.477744 
L 125.179492 269.947865 
L 125.504472 270.059522 
L 125.829451 269.923053 
L 126.154431 268.542686 
L 126.47941 268.086023 
L 126.80439 267.331214 
L 127.129369 267.673869 
L 127.454349 267.461946 
L 127.779328 266.220364 
L 128.104308 265.888618 
L 128.754267 263.528875 
L 129.079247 263.588284 
L 129.404226 262.261544 
L 129.729206 261.79012 
L 130.054185 262.236618 
L 130.379165 261.146199 
L 130.704144 261.342413 
L 131.354103 259.02428 
L 131.679083 258.958083 
L 132.004062 257.389827 
L 132.329042 257.931892 
L 132.654021 257.211747 
L 132.979001 255.980709 
L 133.30398 257.332943 
L 133.62896 255.65751 
L 133.953939 254.712637 
L 134.278919 254.756969 
L 134.603898 253.403923 
L 134.928878 253.513308 
L 135.253857 252.505972 
L 135.903817 253.009178 
L 136.228796 251.842893 
L 136.553776 251.21697 
L 136.878755 251.179269 
L 137.203735 250.873157 
L 137.528714 251.023624 
L 138.178673 249.307293 
L 138.503653 249.226537 
L 138.828632 248.383919 
L 139.153612 249.019551 
L 139.478591 246.958309 
L 139.803571 246.228929 
L 140.12855 245.986909 
L 140.45353 245.929251 
L 140.778509 247.177493 
L 141.103489 245.985433 
L 141.428468 246.220025 
L 141.753448 244.879653 
L 142.078428 246.248222 
L 142.403407 247.015326 
L 142.728387 245.432557 
L 143.053366 245.024455 
L 143.378346 245.247769 
L 144.028305 246.545786 
L 144.353284 246.901759 
L 144.678264 246.080929 
L 145.003243 247.974108 
L 145.328223 246.608122 
L 145.653202 247.302815 
L 145.978182 247.623004 
L 146.303161 247.295939 
L 146.95312 249.328588 
L 147.2781 249.646401 
L 147.603079 249.501098 
L 147.928059 248.267241 
L 148.253038 248.088923 
L 148.578018 249.3602 
L 148.902998 248.438861 
L 149.227977 249.022385 
L 149.552957 248.541999 
L 149.877936 249.093611 
L 150.202916 250.653384 
L 150.527895 250.130845 
L 150.852875 251.738805 
L 151.177854 251.775609 
L 151.502834 251.065016 
L 151.827813 252.241061 
L 152.152793 252.383263 
L 152.802752 253.427718 
L 153.127731 253.40755 
L 153.77769 254.305499 
L 154.10267 254.811695 
L 154.427649 256.172813 
L 154.752629 256.57299 
L 155.402588 257.912344 
L 155.727568 257.915412 
L 156.052547 258.283466 
L 156.377527 257.547695 
L 156.702506 257.977916 
L 157.027486 259.789423 
L 157.352465 260.22556 
L 157.677445 261.041458 
L 158.002424 260.639535 
L 158.327404 260.968058 
L 158.977363 262.629298 
L 159.302342 262.408065 
L 159.627322 261.584181 
L 159.952301 263.491098 
L 160.277281 263.719303 
L 160.92724 264.805107 
L 161.252219 264.318779 
L 161.577199 264.488848 
L 161.902179 264.913073 
L 162.227158 264.046603 
L 162.877117 265.100126 
L 163.202097 265.129269 
L 163.527076 266.460275 
L 163.852056 265.110985 
L 164.177035 265.046768 
L 164.502015 264.860504 
L 164.826994 264.908921 
L 165.476953 265.271066 
L 165.801933 263.994314 
L 166.126912 263.542047 
L 166.451892 263.283065 
L 166.776871 263.245517 
L 167.42683 264.636374 
L 167.75181 263.541253 
L 168.07679 264.707593 
L 168.401769 263.676486 
L 168.726749 263.15486 
L 169.051728 264.215813 
L 169.376708 262.40282 
L 169.701687 263.880362 
L 170.351646 261.812169 
L 170.676626 262.026936 
L 171.001605 260.682157 
L 171.651564 259.647222 
L 171.976544 258.661032 
L 172.301523 258.78506 
L 172.626503 257.769117 
L 172.951482 257.565043 
L 173.276462 256.76563 
L 173.601441 255.582005 
L 173.926421 255.662431 
L 174.57638 253.322894 
L 175.226339 252.008947 
L 175.551319 250.22921 
L 175.876298 250.183026 
L 176.201278 248.51669 
L 176.526257 249.038773 
L 176.851237 248.421331 
L 177.176216 246.382838 
L 177.501196 246.268332 
L 177.826175 245.115312 
L 178.151155 244.692403 
L 178.476134 245.028979 
L 179.126093 243.11308 
L 179.776052 239.570098 
L 180.101032 238.43245 
L 180.426011 236.623415 
L 180.750991 235.873047 
L 181.075971 235.700573 
L 181.40095 234.220336 
L 181.72593 234.555232 
L 182.050909 231.646548 
L 182.375889 230.468344 
L 182.700868 230.263934 
L 183.025848 228.321402 
L 183.350827 227.482003 
L 183.675807 226.178126 
L 184.000786 225.651448 
L 184.325766 224.364275 
L 184.650745 224.059064 
L 184.975725 222.025043 
L 185.300704 222.440691 
L 185.950663 220.146486 
L 186.600622 219.843726 
L 186.925602 218.129554 
L 187.250581 218.288717 
L 187.575561 217.169751 
L 188.22552 215.818559 
L 188.5505 213.774336 
L 188.875479 214.50744 
L 189.200459 212.017895 
L 189.525438 211.178905 
L 189.850418 211.196621 
L 190.500377 209.781483 
L 191.150336 207.539894 
L 191.800295 206.142939 
L 192.125274 205.922068 
L 193.425192 201.102017 
L 193.750172 201.370403 
L 194.075152 201.800221 
L 194.400131 201.818082 
L 194.725111 202.793144 
L 195.37507 201.001493 
L 195.700049 200.616701 
L 196.025029 199.275991 
L 196.350008 200.537496 
L 196.674988 201.27627 
L 196.999967 200.248724 
L 197.324947 200.656796 
L 197.974906 198.338925 
L 198.299885 199.417611 
L 198.624865 198.487057 
L 199.274824 199.283294 
L 199.599803 198.168802 
L 199.924783 198.526678 
L 200.249762 197.036573 
L 200.574742 196.929661 
L 200.899722 198.299873 
L 201.224701 198.456213 
L 201.549681 199.02689 
L 201.87466 198.042861 
L 202.19964 198.320559 
L 202.524619 198.033104 
L 202.849599 198.243536 
L 203.174578 199.56596 
L 203.824537 199.906271 
L 204.149517 200.719585 
L 204.474496 198.876917 
L 204.799476 199.041886 
L 205.124455 199.802267 
L 205.449435 200.246285 
L 205.774414 202.225598 
L 206.099394 201.097771 
L 206.424373 200.932686 
L 207.724292 204.980043 
L 208.049271 204.68823 
L 208.69923 206.364552 
L 209.349189 207.089056 
L 209.674169 206.807134 
L 209.999148 206.356991 
L 210.649107 207.692907 
L 210.974087 208.496128 
L 211.299066 208.576266 
L 211.624046 207.980328 
L 212.274005 209.045788 
L 212.598984 208.537136 
L 212.923964 208.844844 
L 213.248943 208.56962 
L 213.898903 208.964082 
L 214.223882 209.934794 
L 214.548862 210.455095 
L 214.873841 210.764393 
L 215.198821 211.581788 
L 215.5238 212.701052 
L 215.84878 212.82784 
L 216.173759 213.594482 
L 216.498739 215.016862 
L 216.823718 214.935785 
L 217.148698 216.289061 
L 217.473677 215.547419 
L 217.798657 215.281977 
L 218.123636 214.610539 
L 218.448616 214.857221 
L 218.773595 214.87278 
L 219.098575 215.553224 
L 219.423554 215.074448 
L 220.073514 215.485451 
L 220.398493 214.880661 
L 220.723473 215.641152 
L 221.048452 214.874664 
L 221.373432 213.542825 
L 222.023391 215.731694 
L 222.67335 215.401413 
L 222.998329 214.481711 
L 223.323309 214.69722 
L 223.648288 213.871743 
L 223.973268 213.736061 
L 224.298247 213.794314 
L 224.623227 212.606883 
L 224.948206 213.237808 
L 225.598165 213.27362 
L 225.923145 212.427219 
L 226.248124 211.112724 
L 226.573104 211.177617 
L 227.873022 207.655532 
L 228.198002 208.474653 
L 228.522981 208.543916 
L 228.847961 207.575946 
L 229.17294 207.544873 
L 229.49792 206.032729 
L 229.822899 205.646627 
L 230.147879 205.872484 
L 230.472858 204.719012 
L 230.797838 205.28013 
L 231.122817 205.457703 
L 231.447797 203.698239 
L 231.772776 204.515972 
L 232.422735 200.95829 
L 232.747715 201.576033 
L 233.072695 199.359495 
L 233.397674 200.4448 
L 233.722654 198.338914 
L 234.372613 196.356008 
L 234.697592 196.142467 
L 235.347551 196.802574 
L 235.672531 194.788874 
L 235.99751 194.574923 
L 236.32249 192.503315 
L 236.647469 192.699817 
L 236.972449 193.405738 
L 237.297428 192.084029 
L 237.622408 192.44155 
L 237.947387 191.595259 
L 238.272367 190.03529 
L 238.597346 189.719141 
L 238.922326 187.205335 
L 239.247305 187.021313 
L 239.572285 187.321782 
L 239.897265 186.587251 
L 240.222244 186.195122 
L 240.547224 185.338372 
L 240.872203 183.545395 
L 241.197183 184.306991 
L 241.847142 181.603703 
L 242.497101 179.684174 
L 242.82208 179.515144 
L 243.14706 180.192352 
L 243.472039 180.243929 
L 243.797019 179.719372 
L 244.121998 179.771123 
L 244.446978 179.601719 
L 244.771957 178.955542 
L 245.096937 178.921058 
L 245.421916 177.426767 
L 245.746896 177.664337 
L 246.071876 177.217171 
L 246.396855 175.196602 
L 246.721835 175.476725 
L 247.046814 175.133137 
L 247.371794 174.425821 
L 247.696773 174.316475 
L 248.021753 173.90438 
L 248.671712 173.511574 
L 248.996691 172.134947 
L 249.321671 173.234579 
L 249.64665 172.371007 
L 249.97163 173.406959 
L 250.621589 173.742878 
L 251.596527 171.17094 
L 251.921507 171.80901 
L 252.246486 171.149479 
L 252.571466 171.571322 
L 252.896446 171.627097 
L 253.221425 172.404907 
L 253.546405 171.522163 
L 253.871384 171.841985 
L 254.196364 171.488368 
L 254.846323 171.875263 
L 255.171302 173.075755 
L 255.821261 173.948745 
L 256.146241 174.10847 
L 256.47122 175.81721 
L 256.7962 176.376495 
L 257.121179 177.292425 
L 257.771138 178.449682 
L 258.096118 179.690108 
L 258.421097 177.938379 
L 258.746077 178.790844 
L 259.071057 178.189624 
L 259.396036 178.118273 
L 259.721016 179.087709 
L 260.045995 178.53717 
L 260.370975 179.276467 
L 260.695954 179.479946 
L 261.020934 178.04546 
L 261.345913 179.616775 
L 261.670893 178.820509 
L 261.995872 178.762833 
L 262.320852 179.338624 
L 262.645831 178.766354 
L 262.970811 179.054902 
L 263.29579 180.38018 
L 263.62077 180.355238 
L 263.945749 182.079657 
L 264.270729 180.669171 
L 264.595708 180.938035 
L 265.245667 183.152323 
L 265.570647 184.926577 
L 265.895627 184.747608 
L 266.220606 185.661331 
L 266.545586 185.853042 
L 266.870565 185.392523 
L 267.520524 186.262733 
L 267.845504 185.946675 
L 268.170483 186.684259 
L 268.495463 185.527731 
L 268.820442 185.434806 
L 269.145422 184.495295 
L 269.470401 184.264703 
L 269.795381 185.923694 
L 270.12036 186.457609 
L 270.44534 187.629111 
L 270.770319 187.67124 
L 271.095299 188.221759 
L 271.745258 188.105709 
L 272.070238 188.876081 
L 272.395217 188.492308 
L 272.720197 189.255412 
L 273.045176 189.279499 
L 274.020115 187.743685 
L 274.345094 186.559432 
L 274.670074 187.328178 
L 274.995053 186.742229 
L 275.320033 186.509422 
L 275.645012 186.021722 
L 275.969992 184.942726 
L 276.294971 185.469703 
L 276.619951 185.216507 
L 276.94493 183.569397 
L 277.26991 183.247559 
L 277.594889 183.314412 
L 277.919869 182.116963 
L 278.244848 181.753644 
L 278.569828 180.627173 
L 278.894808 181.65361 
L 279.219787 180.562796 
L 279.544767 181.826245 
L 280.519705 179.534198 
L 280.844685 177.899515 
L 281.169664 177.378384 
L 281.494644 176.268723 
L 281.819623 176.944937 
L 282.144603 175.28251 
L 282.469582 175.519621 
L 282.794562 173.707574 
L 283.119541 173.564407 
L 283.444521 172.802225 
L 283.7695 171.086478 
L 284.09448 171.277146 
L 284.744439 169.115041 
L 285.069419 168.868697 
L 285.719378 166.304636 
L 286.044357 165.920383 
L 287.669255 159.471882 
L 287.994234 158.148277 
L 288.319214 158.578222 
L 288.969173 157.568355 
L 289.294152 155.123576 
L 290.269091 152.342262 
L 290.59407 152.218271 
L 290.91905 150.823608 
L 291.244029 149.966009 
L 291.569009 149.656237 
L 291.893989 148.74057 
L 292.218968 146.736418 
L 292.543948 146.964789 
L 292.868927 144.247985 
L 293.193907 145.296947 
L 293.843866 142.825078 
L 294.493825 140.45961 
L 295.143784 139.994848 
L 295.468763 137.413177 
L 296.443702 133.548728 
L 296.768681 134.136782 
L 297.093661 133.135488 
L 297.74362 129.750538 
L 298.0686 129.506127 
L 298.393579 128.201054 
L 299.043538 126.649338 
L 299.368518 126.608322 
L 299.693497 126.749621 
L 300.018477 125.647617 
L 300.668436 122.847071 
L 300.993415 121.357993 
L 301.318395 122.433543 
L 301.643374 122.068934 
L 301.968354 120.214353 
L 302.293333 120.656643 
L 302.618313 119.629949 
L 302.943292 120.752106 
L 303.268272 120.286857 
L 303.593251 118.627205 
L 303.918231 119.093923 
L 304.24321 117.236861 
L 304.56819 117.985803 
L 304.89317 117.57695 
L 305.218149 116.052902 
L 305.868108 116.348187 
L 306.193088 116.965232 
L 306.518067 116.902597 
L 306.843047 115.249301 
L 307.493006 114.818544 
L 307.817985 115.388338 
L 308.142965 115.689106 
L 308.467944 115.258219 
L 308.792924 115.828733 
L 309.117903 115.275113 
L 309.442883 116.35976 
L 309.767862 115.283742 
L 310.092842 115.871204 
L 310.417821 116.690512 
L 310.742801 116.771068 
L 311.067781 117.944704 
L 311.39276 117.938473 
L 311.71774 116.318369 
L 312.042719 117.38513 
L 312.367699 117.737141 
L 312.692678 119.021076 
L 313.017658 118.022434 
L 313.342637 117.718119 
L 313.667617 116.735397 
L 313.992596 116.824801 
L 314.317576 117.505736 
L 314.967535 117.14449 
L 315.292514 117.387163 
L 315.942473 118.579532 
L 316.592432 117.86491 
L 316.917412 118.335858 
L 317.242391 119.087613 
L 317.567371 120.179265 
L 318.21733 121.210642 
L 318.54231 121.198029 
L 319.192269 122.342882 
L 319.517248 122.329507 
L 319.842228 122.830723 
L 320.167207 123.069186 
L 320.817166 123.260121 
L 321.142146 123.521896 
L 321.467125 124.796552 
L 321.792105 124.837458 
L 322.117084 125.806824 
L 322.442064 125.433932 
L 322.767043 125.499898 
L 323.092023 125.131019 
L 324.066962 128.949076 
L 324.391941 129.50655 
L 324.716921 128.525372 
L 325.0419 128.386987 
L 325.36688 129.217765 
L 325.691859 129.017383 
L 326.016839 130.322195 
L 326.341818 129.17861 
L 326.666798 128.973646 
L 326.991777 128.264148 
L 327.316757 127.069194 
L 327.641736 128.216162 
L 327.966716 128.546904 
L 328.616675 129.765673 
L 329.266634 128.191408 
L 329.916593 128.160653 
L 330.241572 129.421414 
L 330.566552 129.909658 
L 330.891532 129.641604 
L 331.216511 128.862026 
L 331.541491 126.978949 
L 331.86647 127.022027 
L 332.19145 125.404389 
L 332.516429 126.167425 
L 332.841409 125.428792 
L 333.166388 125.395889 
L 333.491368 124.851373 
L 333.816347 124.552019 
L 334.141327 124.563188 
L 334.466306 124.264866 
L 334.791286 125.128402 
L 335.116265 124.309744 
L 335.766224 123.57907 
L 336.091204 121.86498 
L 336.416183 122.717774 
L 336.741163 121.367483 
L 337.066143 120.593808 
L 337.391122 121.658143 
L 337.716102 119.727743 
L 338.041081 119.17444 
L 338.366061 119.700931 
L 338.69104 117.210201 
L 339.01602 117.585275 
L 339.340999 116.615541 
L 339.665979 115.270941 
L 339.990958 116.330522 
L 340.315938 114.627828 
L 340.965897 113.895171 
L 341.290876 112.415193 
L 341.615856 113.127181 
L 341.940835 112.910233 
L 342.915774 109.645797 
L 343.565733 106.721676 
L 343.890713 106.837088 
L 345.190631 102.56546 
L 345.51561 101.485629 
L 345.84059 100.82217 
L 346.165569 99.720863 
L 346.490549 99.561653 
L 347.140508 97.94193 
L 347.465487 97.899452 
L 347.790467 97.292501 
L 348.115446 97.677178 
L 348.440426 96.177779 
L 348.765405 95.532008 
L 349.090385 94.108242 
L 349.415364 93.915607 
L 349.740344 94.073387 
L 350.065324 92.810013 
L 350.390303 92.387554 
L 351.040262 90.631672 
L 351.365242 90.477413 
L 351.690221 89.54571 
L 352.015201 89.075837 
L 352.34018 87.549994 
L 352.66516 88.017698 
L 353.640098 85.110779 
L 353.965078 84.449399 
L 354.290057 84.202941 
L 354.615037 84.326062 
L 354.940016 82.992885 
L 355.264996 83.212693 
L 355.914955 82.277622 
L 356.239934 82.417343 
L 356.564914 81.432624 
L 357.214873 81.055774 
L 357.864832 82.819022 
L 358.514791 82.704456 
L 358.839771 82.416538 
L 359.16475 83.252829 
L 359.48973 83.696986 
L 360.139689 83.464065 
L 360.464668 84.064073 
L 360.789648 83.704644 
L 361.439607 83.706703 
L 361.764586 83.501326 
L 362.089566 84.582869 
L 362.414545 83.607366 
L 362.739525 84.12533 
L 363.389484 82.066751 
L 363.714464 81.340871 
L 364.039443 81.463032 
L 364.364423 81.125972 
L 364.689402 82.58063 
L 365.014382 81.697931 
L 365.339361 82.524324 
L 365.664341 82.367115 
L 365.98932 82.734294 
L 366.3143 83.537439 
L 366.639279 83.365744 
L 366.964259 84.585561 
L 367.614218 85.14858 
L 367.939197 86.06122 
L 368.264177 86.569157 
L 368.589156 85.823894 
L 368.914136 87.094884 
L 369.239115 86.602222 
L 369.564095 86.753621 
L 369.889075 87.41036 
L 370.214054 86.884551 
L 370.539034 86.63831 
L 370.864013 86.161346 
L 371.188993 86.933938 
L 371.838952 87.445021 
L 372.163931 87.551593 
L 372.488911 87.271729 
L 372.81389 87.415707 
L 373.463849 86.992389 
L 374.113808 88.087986 
L 374.763767 90.456472 
L 375.088747 89.319104 
L 375.413726 89.469555 
L 375.738706 90.698668 
L 376.063686 91.118279 
L 376.388665 92.142296 
L 376.713645 91.681717 
L 377.038624 91.604942 
L 377.363604 91.69528 
L 377.688583 92.301949 
L 378.013563 93.503649 
L 378.338542 92.929701 
L 378.663522 93.171525 
L 378.988501 91.98093 
L 379.313481 92.944056 
L 379.63846 91.313265 
L 379.96344 91.503908 
L 380.288419 90.86919 
L 380.613399 91.933511 
L 380.938378 91.750509 
L 381.913317 90.249162 
L 382.238296 91.364764 
L 382.563276 90.619737 
L 382.888256 91.802371 
L 383.213235 91.725908 
L 383.538215 90.686403 
L 383.863194 91.950472 
L 384.188174 91.174357 
L 384.513153 90.781341 
L 384.838133 89.651966 
L 385.163112 89.788675 
L 385.488092 90.270499 
L 385.813071 89.517405 
L 386.46303 86.872517 
L 386.78801 86.785258 
L 387.112989 85.995112 
L 387.437969 85.735622 
L 387.762948 84.974577 
L 388.087928 84.555598 
L 388.412907 83.457942 
L 388.737887 84.256363 
L 389.062867 82.553878 
L 389.387846 81.563873 
L 389.712826 81.021528 
L 390.037805 79.866801 
L 390.362785 80.301041 
L 391.012744 77.686895 
L 391.337723 78.283668 
L 391.662703 77.310768 
L 391.987682 76.852006 
L 392.637641 74.476577 
L 392.962621 74.756841 
L 393.2876 73.184078 
L 393.61258 72.6446 
L 394.262539 69.333397 
L 394.587518 69.670819 
L 394.912498 67.464298 
L 395.237477 67.139246 
L 395.562457 65.743892 
L 395.887437 62.677768 
L 396.212416 63.684548 
L 396.537396 61.724108 
L 396.862375 60.756075 
L 397.187355 59.148773 
L 397.512334 56.303613 
L 398.487273 53.568 
L 398.487273 53.568 
" clip-path="url(#p5e19a9532a)" style="fill: none; stroke: #ff7f0e; stroke-width: 1.5; stroke-linecap: square"/>
   </g>
   <g id="patch_3">
    <path d="M 57.6 307.584 
L 57.6 41.472 
" style="fill: none; stroke: #000000; stroke-width: 0.8; stroke-linejoin: miter; stroke-linecap: square"/>
   </g>
   <g id="patch_4">
    <path d="M 414.72 307.584 
L 414.72 41.472 
" style="fill: none; stroke: #000000; stroke-width: 0.8; stroke-linejoin: miter; stroke-linecap: square"/>
   </g>
   <g id="patch_5">
    <path d="M 57.6 307.584 
L 414.72 307.584 
" style="fill: none; stroke: #000000; stroke-width: 0.8; stroke-linejoin: miter; stroke-linecap: square"/>
   </g>
   <g id="patch_6">
    <path d="M 57.6 41.472 
L 414.72 41.472 
" style="fill: none; stroke: #000000; stroke-width: 0.8; stroke-linejoin: miter; stroke-linecap: square"/>
   </g>
   <g id="text_16">
    <!-- Serie timp cu predictii -->
    <g transform="translate(170.045625 35.472) scale(0.12 -0.12)">
     <defs>
      <path id="DejaVuSans-53" d="M 3425 4513 
L 3425 3897 
Q 3066 4069 2747 4153 
Q 2428 4238 2131 4238 
Q 1616 4238 1336 4038 
Q 1056 3838 1056 3469 
Q 1056 3159 1242 3001 
Q 1428 2844 1947 2747 
L 2328 2669 
Q 3034 2534 3370 2195 
Q 3706 1856 3706 1288 
Q 3706 609 3251 259 
Q 2797 -91 1919 -91 
Q 1588 -91 1214 -16 
Q 841 59 441 206 
L 441 856 
Q 825 641 1194 531 
Q 1563 422 1919 422 
Q 2459 422 2753 634 
Q 3047 847 3047 1241 
Q 3047 1584 2836 1778 
Q 2625 1972 2144 2069 
L 1759 2144 
Q 1053 2284 737 2584 
Q 422 2884 422 3419 
Q 422 4038 858 4394 
Q 1294 4750 2059 4750 
Q 2388 4750 2728 4690 
Q 3069 4631 3425 4513 
z
" transform="scale(0.015625)"/>
      <path id="DejaVuSans-6d" d="M 3328 2828 
Q 3544 3216 3844 3400 
Q 4144 3584 4550 3584 
Q 5097 3584 5394 3201 
Q 5691 2819 5691 2113 
L 5691 0 
L 5113 0 
L 5113 2094 
Q 5113 2597 4934 2840 
Q 4756 3084 4391 3084 
Q 3944 3084 3684 2787 
Q 3425 2491 3425 1978 
L 3425 0 
L 2847 0 
L 2847 2094 
Q 2847 2600 2669 2842 
Q 2491 3084 2119 3084 
Q 1678 3084 1418 2786 
Q 1159 2488 1159 1978 
L 1159 0 
L 581 0 
L 581 3500 
L 1159 3500 
L 1159 2956 
Q 1356 3278 1631 3431 
Q 1906 3584 2284 3584 
Q 2666 3584 2933 3390 
Q 3200 3197 3328 2828 
z
" transform="scale(0.015625)"/>
      <path id="DejaVuSans-70" d="M 1159 525 
L 1159 -1331 
L 581 -1331 
L 581 3500 
L 1159 3500 
L 1159 2969 
Q 1341 3281 1617 3432 
Q 1894 3584 2278 3584 
Q 2916 3584 3314 3078 
Q 3713 2572 3713 1747 
Q 3713 922 3314 415 
Q 2916 -91 2278 -91 
Q 1894 -91 1617 61 
Q 1341 213 1159 525 
z
M 3116 1747 
Q 3116 2381 2855 2742 
Q 2594 3103 2138 3103 
Q 1681 3103 1420 2742 
Q 1159 2381 1159 1747 
Q 1159 1113 1420 752 
Q 1681 391 2138 391 
Q 2594 391 2855 752 
Q 3116 1113 3116 1747 
z
" transform="scale(0.015625)"/>
      <path id="DejaVuSans-63" d="M 3122 3366 
L 3122 2828 
Q 2878 2963 2633 3030 
Q 2388 3097 2138 3097 
Q 1578 3097 1268 2742 
Q 959 2388 959 1747 
Q 959 1106 1268 751 
Q 1578 397 2138 397 
Q 2388 397 2633 464 
Q 2878 531 3122 666 
L 3122 134 
Q 2881 22 2623 -34 
Q 2366 -91 2075 -91 
Q 1284 -91 818 406 
Q 353 903 353 1747 
Q 353 2603 823 3093 
Q 1294 3584 2113 3584 
Q 2378 3584 2631 3529 
Q 2884 3475 3122 3366 
z
" transform="scale(0.015625)"/>
      <path id="DejaVuSans-75" d="M 544 1381 
L 544 3500 
L 1119 3500 
L 1119 1403 
Q 1119 906 1312 657 
Q 1506 409 1894 409 
Q 2359 409 2629 706 
Q 2900 1003 2900 1516 
L 2900 3500 
L 3475 3500 
L 3475 0 
L 2900 0 
L 2900 538 
Q 2691 219 2414 64 
Q 2138 -91 1772 -91 
Q 1169 -91 856 284 
Q 544 659 544 1381 
z
M 1991 3584 
L 1991 3584 
z
" transform="scale(0.015625)"/>
     </defs>
     <use xlink:href="#DejaVuSans-53"/>
     <use xlink:href="#DejaVuSans-65" x="63.476562"/>
     <use xlink:href="#DejaVuSans-72" x="125"/>
     <use xlink:href="#DejaVuSans-69" x="166.113281"/>
     <use xlink:href="#DejaVuSans-65" x="193.896484"/>
     <use xlink:href="#DejaVuSans-20" x="255.419922"/>
     <use xlink:href="#DejaVuSans-74" x="287.207031"/>
     <use xlink:href="#DejaVuSans-69" x="326.416016"/>
     <use xlink:href="#DejaVuSans-6d" x="354.199219"/>
     <use xlink:href="#DejaVuSans-70" x="451.611328"/>
     <use xlink:href="#DejaVuSans-20" x="515.087891"/>
     <use xlink:href="#DejaVuSans-63" x="546.875"/>
     <use xlink:href="#DejaVuSans-75" x="601.855469"/>
     <use xlink:href="#DejaVuSans-20" x="665.234375"/>
     <use xlink:href="#DejaVuSans-70" x="697.021484"/>
     <use xlink:href="#DejaVuSans-72" x="760.498047"/>
     <use xlink:href="#DejaVuSans-65" x="799.361328"/>
     <use xlink:href="#DejaVuSans-64" x="860.884766"/>
     <use xlink:href="#DejaVuSans-69" x="924.361328"/>
     <use xlink:href="#DejaVuSans-63" x="952.144531"/>
     <use xlink:href="#DejaVuSans-74" x="1007.125"/>
     <use xlink:href="#DejaVuSans-69" x="1046.333984"/>
     <use xlink:href="#DejaVuSans-69" x="1074.117188"/>
    </g>
   </g>
   <g id="legend_1">
    <g id="patch_7">
     <path d="M 64.6 78.82825 
L 236.907813 78.82825 
Q 238.907813 78.82825 238.907813 76.82825 
L 238.907813 48.472 
Q 238.907813 46.472 236.907813 46.472 
L 64.6 46.472 
Q 62.6 46.472 62.6 48.472 
L 62.6 76.82825 
Q 62.6 78.82825 64.6 78.82825 
z
" style="fill: #ffffff; opacity: 0.8; stroke: #cccccc; stroke-linejoin: miter"/>
    </g>
    <g id="line2d_16">
     <path d="M 66.6 54.570437 
L 76.6 54.570437 
L 86.6 54.570437 
" style="fill: none; stroke: #1f77b4; stroke-width: 1.5; stroke-linecap: square"/>
    </g>
    <g id="text_17">
     <!-- Serie timp originala -->
     <g transform="translate(94.6 58.070437) scale(0.1 -0.1)">
      <defs>
       <path id="DejaVuSans-67" d="M 2906 1791 
Q 2906 2416 2648 2759 
Q 2391 3103 1925 3103 
Q 1463 3103 1205 2759 
Q 947 2416 947 1791 
Q 947 1169 1205 825 
Q 1463 481 1925 481 
Q 2391 481 2648 825 
Q 2906 1169 2906 1791 
z
M 3481 434 
Q 3481 -459 3084 -895 
Q 2688 -1331 1869 -1331 
Q 1566 -1331 1297 -1286 
Q 1028 -1241 775 -1147 
L 775 -588 
Q 1028 -725 1275 -790 
Q 1522 -856 1778 -856 
Q 2344 -856 2625 -561 
Q 2906 -266 2906 331 
L 2906 616 
Q 2728 306 2450 153 
Q 2172 0 1784 0 
Q 1141 0 747 490 
Q 353 981 353 1791 
Q 353 2603 747 3093 
Q 1141 3584 1784 3584 
Q 2172 3584 2450 3431 
Q 2728 3278 2906 2969 
L 2906 3500 
L 3481 3500 
L 3481 434 
z
" transform="scale(0.015625)"/>
      </defs>
      <use xlink:href="#DejaVuSans-53"/>
      <use xlink:href="#DejaVuSans-65" x="63.476562"/>
      <use xlink:href="#DejaVuSans-72" x="125"/>
      <use xlink:href="#DejaVuSans-69" x="166.113281"/>
      <use xlink:href="#DejaVuSans-65" x="193.896484"/>
      <use xlink:href="#DejaVuSans-20" x="255.419922"/>
      <use xlink:href="#DejaVuSans-74" x="287.207031"/>
      <use xlink:href="#DejaVuSans-69" x="326.416016"/>
      <use xlink:href="#DejaVuSans-6d" x="354.199219"/>
      <use xlink:href="#DejaVuSans-70" x="451.611328"/>
      <use xlink:href="#DejaVuSans-20" x="515.087891"/>
      <use xlink:href="#DejaVuSans-6f" x="546.875"/>
      <use xlink:href="#DejaVuSans-72" x="608.056641"/>
      <use xlink:href="#DejaVuSans-69" x="649.169922"/>
      <use xlink:href="#DejaVuSans-67" x="676.953125"/>
      <use xlink:href="#DejaVuSans-69" x="740.429688"/>
      <use xlink:href="#DejaVuSans-6e" x="768.212891"/>
      <use xlink:href="#DejaVuSans-61" x="831.591797"/>
      <use xlink:href="#DejaVuSans-6c" x="892.871094"/>
      <use xlink:href="#DejaVuSans-61" x="920.654297"/>
     </g>
    </g>
    <g id="line2d_17">
     <path d="M 66.6 69.248562 
L 76.6 69.248562 
L 86.6 69.248562 
" style="fill: none; stroke: #ff7f0e; stroke-width: 1.5; stroke-linecap: square"/>
    </g>
    <g id="text_18">
     <!-- Valori prezise pentru p = 32 -->
     <g transform="translate(94.6 72.748562) scale(0.1 -0.1)">
      <defs>
       <path id="DejaVuSans-7a" d="M 353 3500 
L 3084 3500 
L 3084 2975 
L 922 459 
L 3084 459 
L 3084 0 
L 275 0 
L 275 525 
L 2438 3041 
L 353 3041 
L 353 3500 
z
" transform="scale(0.015625)"/>
       <path id="DejaVuSans-3d" d="M 678 2906 
L 4684 2906 
L 4684 2381 
L 678 2381 
L 678 2906 
z
M 678 1631 
L 4684 1631 
L 4684 1100 
L 678 1100 
L 678 1631 
z
" transform="scale(0.015625)"/>
      </defs>
      <use xlink:href="#DejaVuSans-56"/>
      <use xlink:href="#DejaVuSans-61" x="60.658203"/>
      <use xlink:href="#DejaVuSans-6c" x="121.9375"/>
      <use xlink:href="#DejaVuSans-6f" x="149.720703"/>
      <use xlink:href="#DejaVuSans-72" x="210.902344"/>
      <use xlink:href="#DejaVuSans-69" x="252.015625"/>
      <use xlink:href="#DejaVuSans-20" x="279.798828"/>
      <use xlink:href="#DejaVuSans-70" x="311.585938"/>
      <use xlink:href="#DejaVuSans-72" x="375.0625"/>
      <use xlink:href="#DejaVuSans-65" x="413.925781"/>
      <use xlink:href="#DejaVuSans-7a" x="475.449219"/>
      <use xlink:href="#DejaVuSans-69" x="527.939453"/>
      <use xlink:href="#DejaVuSans-73" x="555.722656"/>
      <use xlink:href="#DejaVuSans-65" x="607.822266"/>
      <use xlink:href="#DejaVuSans-20" x="669.345703"/>
      <use xlink:href="#DejaVuSans-70" x="701.132812"/>
      <use xlink:href="#DejaVuSans-65" x="764.609375"/>
      <use xlink:href="#DejaVuSans-6e" x="826.132812"/>
      <use xlink:href="#DejaVuSans-74" x="889.511719"/>
      <use xlink:href="#DejaVuSans-72" x="928.720703"/>
      <use xlink:href="#DejaVuSans-75" x="969.833984"/>
      <use xlink:href="#DejaVuSans-20" x="1033.212891"/>
      <use xlink:href="#DejaVuSans-70" x="1065"/>
      <use xlink:href="#DejaVuSans-20" x="1128.476562"/>
      <use xlink:href="#DejaVuSans-3d" x="1160.263672"/>
      <use xlink:href="#DejaVuSans-20" x="1244.052734"/>
      <use xlink:href="#DejaVuSans-33" x="1275.839844"/>
      <use xlink:href="#DejaVuSans-32" x="1339.462891"/>
     </g>
    </g>
   </g>
  </g>
 </g>
 <defs>
  <clipPath id="p5e19a9532a">
   <rect x="57.6" y="41.472" width="357.12" height="266.112"/>
  </clipPath>
 </defs>
</svg>
