<?xml version="1.0" encoding="utf-8" standalone="no"?>
<!DOCTYPE svg PUBLIC "-//W3C//DTD SVG 1.1//EN"
  "http://www.w3.org/Graphics/SVG/1.1/DTD/svg11.dtd">
<svg xmlns:xlink="http://www.w3.org/1999/xlink" width="460.8pt" height="345.6pt" viewBox="0 0 460.8 345.6" xmlns="http://www.w3.org/2000/svg" version="1.1">
 <metadata>
  <rdf:RDF xmlns:dc="http://purl.org/dc/elements/1.1/" xmlns:cc="http://creativecommons.org/ns#" xmlns:rdf="http://www.w3.org/1999/02/22-rdf-syntax-ns#">
   <cc:Work>
    <dc:type rdf:resource="http://purl.org/dc/dcmitype/StillImage"/>
    <dc:date>2024-12-18T18:37:54.118640</dc:date>
    <dc:format>image/svg+xml</dc:format>
    <dc:creator>
     <cc:Agent>
      <dc:title>Matplotlib v3.9.2, https://matplotlib.org/</dc:title>
     </cc:Agent>
    </dc:creator>
   </cc:Work>
  </rdf:RDF>
 </metadata>
 <defs>
  <style type="text/css">*{stroke-linejoin: round; stroke-linecap: butt}</style>
 </defs>
 <g id="figure_1">
  <g id="patch_1">
   <path d="M 0 345.6 
L 460.8 345.6 
L 460.8 0 
L 0 0 
z
" style="fill: #ffffff"/>
  </g>
  <g id="axes_1">
   <g id="patch_2">
    <path d="M 57.6 307.584 
L 414.72 307.584 
L 414.72 41.472 
L 57.6 41.472 
z
" style="fill: #ffffff"/>
   </g>
   <g id="matplotlib.axis_1">
    <g id="xtick_1">
     <g id="line2d_1">
      <defs>
       <path id="m13d43df9ac" d="M 0 0 
L 0 3.5 
" style="stroke: #000000; stroke-width: 0.8"/>
      </defs>
      <g>
       <use xlink:href="#m13d43df9ac" x="73.832727" y="307.584" style="stroke: #000000; stroke-width: 0.8"/>
      </g>
     </g>
     <g id="text_1">
      <!-- 0 -->
      <g transform="translate(70.651477 322.182437) scale(0.1 -0.1)">
       <defs>
        <path id="DejaVuSans-30" d="M 2034 4250 
Q 1547 4250 1301 3770 
Q 1056 3291 1056 2328 
Q 1056 1369 1301 889 
Q 1547 409 2034 409 
Q 2525 409 2770 889 
Q 3016 1369 3016 2328 
Q 3016 3291 2770 3770 
Q 2525 4250 2034 4250 
z
M 2034 4750 
Q 2819 4750 3233 4129 
Q 3647 3509 3647 2328 
Q 3647 1150 3233 529 
Q 2819 -91 2034 -91 
Q 1250 -91 836 529 
Q 422 1150 422 2328 
Q 422 3509 836 4129 
Q 1250 4750 2034 4750 
z
" transform="scale(0.015625)"/>
       </defs>
       <use xlink:href="#DejaVuSans-30"/>
      </g>
     </g>
    </g>
    <g id="xtick_2">
     <g id="line2d_2">
      <g>
       <use xlink:href="#m13d43df9ac" x="138.828632" y="307.584" style="stroke: #000000; stroke-width: 0.8"/>
      </g>
     </g>
     <g id="text_2">
      <!-- 200 -->
      <g transform="translate(129.284882 322.182437) scale(0.1 -0.1)">
       <defs>
        <path id="DejaVuSans-32" d="M 1228 531 
L 3431 531 
L 3431 0 
L 469 0 
L 469 531 
Q 828 903 1448 1529 
Q 2069 2156 2228 2338 
Q 2531 2678 2651 2914 
Q 2772 3150 2772 3378 
Q 2772 3750 2511 3984 
Q 2250 4219 1831 4219 
Q 1534 4219 1204 4116 
Q 875 4013 500 3803 
L 500 4441 
Q 881 4594 1212 4672 
Q 1544 4750 1819 4750 
Q 2544 4750 2975 4387 
Q 3406 4025 3406 3419 
Q 3406 3131 3298 2873 
Q 3191 2616 2906 2266 
Q 2828 2175 2409 1742 
Q 1991 1309 1228 531 
z
" transform="scale(0.015625)"/>
       </defs>
       <use xlink:href="#DejaVuSans-32"/>
       <use xlink:href="#DejaVuSans-30" x="63.623047"/>
       <use xlink:href="#DejaVuSans-30" x="127.246094"/>
      </g>
     </g>
    </g>
    <g id="xtick_3">
     <g id="line2d_3">
      <g>
       <use xlink:href="#m13d43df9ac" x="203.824537" y="307.584" style="stroke: #000000; stroke-width: 0.8"/>
      </g>
     </g>
     <g id="text_3">
      <!-- 400 -->
      <g transform="translate(194.280787 322.182437) scale(0.1 -0.1)">
       <defs>
        <path id="DejaVuSans-34" d="M 2419 4116 
L 825 1625 
L 2419 1625 
L 2419 4116 
z
M 2253 4666 
L 3047 4666 
L 3047 1625 
L 3713 1625 
L 3713 1100 
L 3047 1100 
L 3047 0 
L 2419 0 
L 2419 1100 
L 313 1100 
L 313 1709 
L 2253 4666 
z
" transform="scale(0.015625)"/>
       </defs>
       <use xlink:href="#DejaVuSans-34"/>
       <use xlink:href="#DejaVuSans-30" x="63.623047"/>
       <use xlink:href="#DejaVuSans-30" x="127.246094"/>
      </g>
     </g>
    </g>
    <g id="xtick_4">
     <g id="line2d_4">
      <g>
       <use xlink:href="#m13d43df9ac" x="268.820442" y="307.584" style="stroke: #000000; stroke-width: 0.8"/>
      </g>
     </g>
     <g id="text_4">
      <!-- 600 -->
      <g transform="translate(259.276692 322.182437) scale(0.1 -0.1)">
       <defs>
        <path id="DejaVuSans-36" d="M 2113 2584 
Q 1688 2584 1439 2293 
Q 1191 2003 1191 1497 
Q 1191 994 1439 701 
Q 1688 409 2113 409 
Q 2538 409 2786 701 
Q 3034 994 3034 1497 
Q 3034 2003 2786 2293 
Q 2538 2584 2113 2584 
z
M 3366 4563 
L 3366 3988 
Q 3128 4100 2886 4159 
Q 2644 4219 2406 4219 
Q 1781 4219 1451 3797 
Q 1122 3375 1075 2522 
Q 1259 2794 1537 2939 
Q 1816 3084 2150 3084 
Q 2853 3084 3261 2657 
Q 3669 2231 3669 1497 
Q 3669 778 3244 343 
Q 2819 -91 2113 -91 
Q 1303 -91 875 529 
Q 447 1150 447 2328 
Q 447 3434 972 4092 
Q 1497 4750 2381 4750 
Q 2619 4750 2861 4703 
Q 3103 4656 3366 4563 
z
" transform="scale(0.015625)"/>
       </defs>
       <use xlink:href="#DejaVuSans-36"/>
       <use xlink:href="#DejaVuSans-30" x="63.623047"/>
       <use xlink:href="#DejaVuSans-30" x="127.246094"/>
      </g>
     </g>
    </g>
    <g id="xtick_5">
     <g id="line2d_5">
      <g>
       <use xlink:href="#m13d43df9ac" x="333.816347" y="307.584" style="stroke: #000000; stroke-width: 0.8"/>
      </g>
     </g>
     <g id="text_5">
      <!-- 800 -->
      <g transform="translate(324.272597 322.182437) scale(0.1 -0.1)">
       <defs>
        <path id="DejaVuSans-38" d="M 2034 2216 
Q 1584 2216 1326 1975 
Q 1069 1734 1069 1313 
Q 1069 891 1326 650 
Q 1584 409 2034 409 
Q 2484 409 2743 651 
Q 3003 894 3003 1313 
Q 3003 1734 2745 1975 
Q 2488 2216 2034 2216 
z
M 1403 2484 
Q 997 2584 770 2862 
Q 544 3141 544 3541 
Q 544 4100 942 4425 
Q 1341 4750 2034 4750 
Q 2731 4750 3128 4425 
Q 3525 4100 3525 3541 
Q 3525 3141 3298 2862 
Q 3072 2584 2669 2484 
Q 3125 2378 3379 2068 
Q 3634 1759 3634 1313 
Q 3634 634 3220 271 
Q 2806 -91 2034 -91 
Q 1263 -91 848 271 
Q 434 634 434 1313 
Q 434 1759 690 2068 
Q 947 2378 1403 2484 
z
M 1172 3481 
Q 1172 3119 1398 2916 
Q 1625 2713 2034 2713 
Q 2441 2713 2670 2916 
Q 2900 3119 2900 3481 
Q 2900 3844 2670 4047 
Q 2441 4250 2034 4250 
Q 1625 4250 1398 4047 
Q 1172 3844 1172 3481 
z
" transform="scale(0.015625)"/>
       </defs>
       <use xlink:href="#DejaVuSans-38"/>
       <use xlink:href="#DejaVuSans-30" x="63.623047"/>
       <use xlink:href="#DejaVuSans-30" x="127.246094"/>
      </g>
     </g>
    </g>
    <g id="xtick_6">
     <g id="line2d_6">
      <g>
       <use xlink:href="#m13d43df9ac" x="398.812252" y="307.584" style="stroke: #000000; stroke-width: 0.8"/>
      </g>
     </g>
     <g id="text_6">
      <!-- 1000 -->
      <g transform="translate(386.087252 322.182437) scale(0.1 -0.1)">
       <defs>
        <path id="DejaVuSans-31" d="M 794 531 
L 1825 531 
L 1825 4091 
L 703 3866 
L 703 4441 
L 1819 4666 
L 2450 4666 
L 2450 531 
L 3481 531 
L 3481 0 
L 794 0 
L 794 531 
z
" transform="scale(0.015625)"/>
       </defs>
       <use xlink:href="#DejaVuSans-31"/>
       <use xlink:href="#DejaVuSans-30" x="63.623047"/>
       <use xlink:href="#DejaVuSans-30" x="127.246094"/>
       <use xlink:href="#DejaVuSans-30" x="190.869141"/>
      </g>
     </g>
    </g>
    <g id="text_7">
     <!-- Ordin esantion -->
     <g transform="translate(199.443594 335.860562) scale(0.1 -0.1)">
      <defs>
       <path id="DejaVuSans-4f" d="M 2522 4238 
Q 1834 4238 1429 3725 
Q 1025 3213 1025 2328 
Q 1025 1447 1429 934 
Q 1834 422 2522 422 
Q 3209 422 3611 934 
Q 4013 1447 4013 2328 
Q 4013 3213 3611 3725 
Q 3209 4238 2522 4238 
z
M 2522 4750 
Q 3503 4750 4090 4092 
Q 4678 3434 4678 2328 
Q 4678 1225 4090 567 
Q 3503 -91 2522 -91 
Q 1538 -91 948 565 
Q 359 1222 359 2328 
Q 359 3434 948 4092 
Q 1538 4750 2522 4750 
z
" transform="scale(0.015625)"/>
       <path id="DejaVuSans-72" d="M 2631 2963 
Q 2534 3019 2420 3045 
Q 2306 3072 2169 3072 
Q 1681 3072 1420 2755 
Q 1159 2438 1159 1844 
L 1159 0 
L 581 0 
L 581 3500 
L 1159 3500 
L 1159 2956 
Q 1341 3275 1631 3429 
Q 1922 3584 2338 3584 
Q 2397 3584 2469 3576 
Q 2541 3569 2628 3553 
L 2631 2963 
z
" transform="scale(0.015625)"/>
       <path id="DejaVuSans-64" d="M 2906 2969 
L 2906 4863 
L 3481 4863 
L 3481 0 
L 2906 0 
L 2906 525 
Q 2725 213 2448 61 
Q 2172 -91 1784 -91 
Q 1150 -91 751 415 
Q 353 922 353 1747 
Q 353 2572 751 3078 
Q 1150 3584 1784 3584 
Q 2172 3584 2448 3432 
Q 2725 3281 2906 2969 
z
M 947 1747 
Q 947 1113 1208 752 
Q 1469 391 1925 391 
Q 2381 391 2643 752 
Q 2906 1113 2906 1747 
Q 2906 2381 2643 2742 
Q 2381 3103 1925 3103 
Q 1469 3103 1208 2742 
Q 947 2381 947 1747 
z
" transform="scale(0.015625)"/>
       <path id="DejaVuSans-69" d="M 603 3500 
L 1178 3500 
L 1178 0 
L 603 0 
L 603 3500 
z
M 603 4863 
L 1178 4863 
L 1178 4134 
L 603 4134 
L 603 4863 
z
" transform="scale(0.015625)"/>
       <path id="DejaVuSans-6e" d="M 3513 2113 
L 3513 0 
L 2938 0 
L 2938 2094 
Q 2938 2591 2744 2837 
Q 2550 3084 2163 3084 
Q 1697 3084 1428 2787 
Q 1159 2491 1159 1978 
L 1159 0 
L 581 0 
L 581 3500 
L 1159 3500 
L 1159 2956 
Q 1366 3272 1645 3428 
Q 1925 3584 2291 3584 
Q 2894 3584 3203 3211 
Q 3513 2838 3513 2113 
z
" transform="scale(0.015625)"/>
       <path id="DejaVuSans-20" transform="scale(0.015625)"/>
       <path id="DejaVuSans-65" d="M 3597 1894 
L 3597 1613 
L 953 1613 
Q 991 1019 1311 708 
Q 1631 397 2203 397 
Q 2534 397 2845 478 
Q 3156 559 3463 722 
L 3463 178 
Q 3153 47 2828 -22 
Q 2503 -91 2169 -91 
Q 1331 -91 842 396 
Q 353 884 353 1716 
Q 353 2575 817 3079 
Q 1281 3584 2069 3584 
Q 2775 3584 3186 3129 
Q 3597 2675 3597 1894 
z
M 3022 2063 
Q 3016 2534 2758 2815 
Q 2500 3097 2075 3097 
Q 1594 3097 1305 2825 
Q 1016 2553 972 2059 
L 3022 2063 
z
" transform="scale(0.015625)"/>
       <path id="DejaVuSans-73" d="M 2834 3397 
L 2834 2853 
Q 2591 2978 2328 3040 
Q 2066 3103 1784 3103 
Q 1356 3103 1142 2972 
Q 928 2841 928 2578 
Q 928 2378 1081 2264 
Q 1234 2150 1697 2047 
L 1894 2003 
Q 2506 1872 2764 1633 
Q 3022 1394 3022 966 
Q 3022 478 2636 193 
Q 2250 -91 1575 -91 
Q 1294 -91 989 -36 
Q 684 19 347 128 
L 347 722 
Q 666 556 975 473 
Q 1284 391 1588 391 
Q 1994 391 2212 530 
Q 2431 669 2431 922 
Q 2431 1156 2273 1281 
Q 2116 1406 1581 1522 
L 1381 1569 
Q 847 1681 609 1914 
Q 372 2147 372 2553 
Q 372 3047 722 3315 
Q 1072 3584 1716 3584 
Q 2034 3584 2315 3537 
Q 2597 3491 2834 3397 
z
" transform="scale(0.015625)"/>
       <path id="DejaVuSans-61" d="M 2194 1759 
Q 1497 1759 1228 1600 
Q 959 1441 959 1056 
Q 959 750 1161 570 
Q 1363 391 1709 391 
Q 2188 391 2477 730 
Q 2766 1069 2766 1631 
L 2766 1759 
L 2194 1759 
z
M 3341 1997 
L 3341 0 
L 2766 0 
L 2766 531 
Q 2569 213 2275 61 
Q 1981 -91 1556 -91 
Q 1019 -91 701 211 
Q 384 513 384 1019 
Q 384 1609 779 1909 
Q 1175 2209 1959 2209 
L 2766 2209 
L 2766 2266 
Q 2766 2663 2505 2880 
Q 2244 3097 1772 3097 
Q 1472 3097 1187 3025 
Q 903 2953 641 2809 
L 641 3341 
Q 956 3463 1253 3523 
Q 1550 3584 1831 3584 
Q 2591 3584 2966 3190 
Q 3341 2797 3341 1997 
z
" transform="scale(0.015625)"/>
       <path id="DejaVuSans-74" d="M 1172 4494 
L 1172 3500 
L 2356 3500 
L 2356 3053 
L 1172 3053 
L 1172 1153 
Q 1172 725 1289 603 
Q 1406 481 1766 481 
L 2356 481 
L 2356 0 
L 1766 0 
Q 1100 0 847 248 
Q 594 497 594 1153 
L 594 3053 
L 172 3053 
L 172 3500 
L 594 3500 
L 594 4494 
L 1172 4494 
z
" transform="scale(0.015625)"/>
       <path id="DejaVuSans-6f" d="M 1959 3097 
Q 1497 3097 1228 2736 
Q 959 2375 959 1747 
Q 959 1119 1226 758 
Q 1494 397 1959 397 
Q 2419 397 2687 759 
Q 2956 1122 2956 1747 
Q 2956 2369 2687 2733 
Q 2419 3097 1959 3097 
z
M 1959 3584 
Q 2709 3584 3137 3096 
Q 3566 2609 3566 1747 
Q 3566 888 3137 398 
Q 2709 -91 1959 -91 
Q 1206 -91 779 398 
Q 353 888 353 1747 
Q 353 2609 779 3096 
Q 1206 3584 1959 3584 
z
" transform="scale(0.015625)"/>
      </defs>
      <use xlink:href="#DejaVuSans-4f"/>
      <use xlink:href="#DejaVuSans-72" x="78.710938"/>
      <use xlink:href="#DejaVuSans-64" x="118.074219"/>
      <use xlink:href="#DejaVuSans-69" x="181.550781"/>
      <use xlink:href="#DejaVuSans-6e" x="209.333984"/>
      <use xlink:href="#DejaVuSans-20" x="272.712891"/>
      <use xlink:href="#DejaVuSans-65" x="304.5"/>
      <use xlink:href="#DejaVuSans-73" x="366.023438"/>
      <use xlink:href="#DejaVuSans-61" x="418.123047"/>
      <use xlink:href="#DejaVuSans-6e" x="479.402344"/>
      <use xlink:href="#DejaVuSans-74" x="542.78125"/>
      <use xlink:href="#DejaVuSans-69" x="581.990234"/>
      <use xlink:href="#DejaVuSans-6f" x="609.773438"/>
      <use xlink:href="#DejaVuSans-6e" x="670.955078"/>
     </g>
    </g>
   </g>
   <g id="matplotlib.axis_2">
    <g id="ytick_1">
     <g id="line2d_7">
      <defs>
       <path id="m706a7137be" d="M 0 0 
L -3.5 0 
" style="stroke: #000000; stroke-width: 0.8"/>
      </defs>
      <g>
       <use xlink:href="#m706a7137be" x="57.6" y="298.400317" style="stroke: #000000; stroke-width: 0.8"/>
      </g>
     </g>
     <g id="text_8">
      <!-- 1.0 -->
      <g transform="translate(34.696875 302.199535) scale(0.1 -0.1)">
       <defs>
        <path id="DejaVuSans-2e" d="M 684 794 
L 1344 794 
L 1344 0 
L 684 0 
L 684 794 
z
" transform="scale(0.015625)"/>
       </defs>
       <use xlink:href="#DejaVuSans-31"/>
       <use xlink:href="#DejaVuSans-2e" x="63.623047"/>
       <use xlink:href="#DejaVuSans-30" x="95.410156"/>
      </g>
     </g>
    </g>
    <g id="ytick_2">
     <g id="line2d_8">
      <g>
       <use xlink:href="#m706a7137be" x="57.6" y="258.328109" style="stroke: #000000; stroke-width: 0.8"/>
      </g>
     </g>
     <g id="text_9">
      <!-- 1.5 -->
      <g transform="translate(34.696875 262.127328) scale(0.1 -0.1)">
       <defs>
        <path id="DejaVuSans-35" d="M 691 4666 
L 3169 4666 
L 3169 4134 
L 1269 4134 
L 1269 2991 
Q 1406 3038 1543 3061 
Q 1681 3084 1819 3084 
Q 2600 3084 3056 2656 
Q 3513 2228 3513 1497 
Q 3513 744 3044 326 
Q 2575 -91 1722 -91 
Q 1428 -91 1123 -41 
Q 819 9 494 109 
L 494 744 
Q 775 591 1075 516 
Q 1375 441 1709 441 
Q 2250 441 2565 725 
Q 2881 1009 2881 1497 
Q 2881 1984 2565 2268 
Q 2250 2553 1709 2553 
Q 1456 2553 1204 2497 
Q 953 2441 691 2322 
L 691 4666 
z
" transform="scale(0.015625)"/>
       </defs>
       <use xlink:href="#DejaVuSans-31"/>
       <use xlink:href="#DejaVuSans-2e" x="63.623047"/>
       <use xlink:href="#DejaVuSans-35" x="95.410156"/>
      </g>
     </g>
    </g>
    <g id="ytick_3">
     <g id="line2d_9">
      <g>
       <use xlink:href="#m706a7137be" x="57.6" y="218.255901" style="stroke: #000000; stroke-width: 0.8"/>
      </g>
     </g>
     <g id="text_10">
      <!-- 2.0 -->
      <g transform="translate(34.696875 222.05512) scale(0.1 -0.1)">
       <use xlink:href="#DejaVuSans-32"/>
       <use xlink:href="#DejaVuSans-2e" x="63.623047"/>
       <use xlink:href="#DejaVuSans-30" x="95.410156"/>
      </g>
     </g>
    </g>
    <g id="ytick_4">
     <g id="line2d_10">
      <g>
       <use xlink:href="#m706a7137be" x="57.6" y="178.183693" style="stroke: #000000; stroke-width: 0.8"/>
      </g>
     </g>
     <g id="text_11">
      <!-- 2.5 -->
      <g transform="translate(34.696875 181.982912) scale(0.1 -0.1)">
       <use xlink:href="#DejaVuSans-32"/>
       <use xlink:href="#DejaVuSans-2e" x="63.623047"/>
       <use xlink:href="#DejaVuSans-35" x="95.410156"/>
      </g>
     </g>
    </g>
    <g id="ytick_5">
     <g id="line2d_11">
      <g>
       <use xlink:href="#m706a7137be" x="57.6" y="138.111486" style="stroke: #000000; stroke-width: 0.8"/>
      </g>
     </g>
     <g id="text_12">
      <!-- 3.0 -->
      <g transform="translate(34.696875 141.910704) scale(0.1 -0.1)">
       <defs>
        <path id="DejaVuSans-33" d="M 2597 2516 
Q 3050 2419 3304 2112 
Q 3559 1806 3559 1356 
Q 3559 666 3084 287 
Q 2609 -91 1734 -91 
Q 1441 -91 1130 -33 
Q 819 25 488 141 
L 488 750 
Q 750 597 1062 519 
Q 1375 441 1716 441 
Q 2309 441 2620 675 
Q 2931 909 2931 1356 
Q 2931 1769 2642 2001 
Q 2353 2234 1838 2234 
L 1294 2234 
L 1294 2753 
L 1863 2753 
Q 2328 2753 2575 2939 
Q 2822 3125 2822 3475 
Q 2822 3834 2567 4026 
Q 2313 4219 1838 4219 
Q 1578 4219 1281 4162 
Q 984 4106 628 3988 
L 628 4550 
Q 988 4650 1302 4700 
Q 1616 4750 1894 4750 
Q 2613 4750 3031 4423 
Q 3450 4097 3450 3541 
Q 3450 3153 3228 2886 
Q 3006 2619 2597 2516 
z
" transform="scale(0.015625)"/>
       </defs>
       <use xlink:href="#DejaVuSans-33"/>
       <use xlink:href="#DejaVuSans-2e" x="63.623047"/>
       <use xlink:href="#DejaVuSans-30" x="95.410156"/>
      </g>
     </g>
    </g>
    <g id="ytick_6">
     <g id="line2d_12">
      <g>
       <use xlink:href="#m706a7137be" x="57.6" y="98.039278" style="stroke: #000000; stroke-width: 0.8"/>
      </g>
     </g>
     <g id="text_13">
      <!-- 3.5 -->
      <g transform="translate(34.696875 101.838497) scale(0.1 -0.1)">
       <use xlink:href="#DejaVuSans-33"/>
       <use xlink:href="#DejaVuSans-2e" x="63.623047"/>
       <use xlink:href="#DejaVuSans-35" x="95.410156"/>
      </g>
     </g>
    </g>
    <g id="ytick_7">
     <g id="line2d_13">
      <g>
       <use xlink:href="#m706a7137be" x="57.6" y="57.96707" style="stroke: #000000; stroke-width: 0.8"/>
      </g>
     </g>
     <g id="text_14">
      <!-- 4.0 -->
      <g transform="translate(34.696875 61.766289) scale(0.1 -0.1)">
       <use xlink:href="#DejaVuSans-34"/>
       <use xlink:href="#DejaVuSans-2e" x="63.623047"/>
       <use xlink:href="#DejaVuSans-30" x="95.410156"/>
      </g>
     </g>
    </g>
    <g id="text_15">
     <!-- Valoare -->
     <g transform="translate(28.617187 193.156906) rotate(-90) scale(0.1 -0.1)">
      <defs>
       <path id="DejaVuSans-56" d="M 1831 0 
L 50 4666 
L 709 4666 
L 2188 738 
L 3669 4666 
L 4325 4666 
L 2547 0 
L 1831 0 
z
" transform="scale(0.015625)"/>
       <path id="DejaVuSans-6c" d="M 603 4863 
L 1178 4863 
L 1178 0 
L 603 0 
L 603 4863 
z
" transform="scale(0.015625)"/>
      </defs>
      <use xlink:href="#DejaVuSans-56"/>
      <use xlink:href="#DejaVuSans-61" x="60.658203"/>
      <use xlink:href="#DejaVuSans-6c" x="121.9375"/>
      <use xlink:href="#DejaVuSans-6f" x="149.720703"/>
      <use xlink:href="#DejaVuSans-61" x="210.902344"/>
      <use xlink:href="#DejaVuSans-72" x="272.181641"/>
      <use xlink:href="#DejaVuSans-65" x="311.044922"/>
     </g>
    </g>
   </g>
   <g id="line2d_14">
    <path d="M 73.832727 291.833995 
L 74.157707 291.759677 
L 74.482686 295.488 
L 74.807666 288.87208 
L 75.132645 291.318584 
L 75.457625 286.22788 
L 75.782604 292.642716 
L 76.107584 291.561764 
L 76.432563 284.735254 
L 76.757543 287.168139 
L 77.082523 282.951352 
L 77.407502 288.012514 
L 77.732482 281.156677 
L 78.057461 279.54065 
L 78.382441 280.985465 
L 78.70742 278.312653 
L 79.0324 281.569382 
L 79.357379 283.274057 
L 79.682359 279.232781 
L 80.007338 281.862258 
L 80.332318 277.577998 
L 80.657297 275.6738 
L 80.982277 273.065434 
L 81.307256 275.190661 
L 81.632236 273.914724 
L 81.957215 276.850258 
L 82.282195 270.191168 
L 82.607174 273.895665 
L 82.932154 270.525505 
L 83.257133 268.790482 
L 83.582113 272.641103 
L 84.232072 268.16026 
L 84.557052 271.721408 
L 84.882031 265.023183 
L 85.207011 271.124744 
L 85.53199 270.966624 
L 86.181949 267.771908 
L 86.506929 262.868066 
L 86.831908 264.710933 
L 87.156888 269.671962 
L 87.481867 262.911474 
L 87.806847 264.779826 
L 88.131826 268.173553 
L 88.456806 268.109954 
L 88.781785 260.97552 
L 89.106765 268.074759 
L 89.431744 266.030726 
L 89.756724 266.247996 
L 90.081704 264.081133 
L 90.406683 263.632436 
L 90.731663 266.546304 
L 91.056642 262.562882 
L 91.381622 266.626766 
L 91.706601 265.668071 
L 92.031581 261.055319 
L 92.35656 262.044048 
L 92.68154 265.279365 
L 93.006519 260.792122 
L 93.331499 265.155763 
L 93.656478 261.554747 
L 94.306437 268.14938 
L 94.631417 261.923709 
L 94.956396 262.070154 
L 95.281376 263.421506 
L 95.931335 269.988868 
L 96.256314 267.957946 
L 96.581294 264.439191 
L 96.906274 265.308477 
L 97.231253 266.638513 
L 97.556233 271.627874 
L 97.881212 270.898653 
L 98.206192 265.844373 
L 98.531171 267.088331 
L 98.856151 269.61826 
L 99.18113 268.256681 
L 99.50611 272.524383 
L 99.831089 270.47959 
L 100.156069 269.788229 
L 100.481048 270.571661 
L 100.806028 273.972996 
L 101.131007 272.544082 
L 101.455987 276.35305 
L 101.780966 275.608803 
L 102.430925 272.049209 
L 103.080885 278.907231 
L 103.405864 274.111866 
L 103.730844 274.712157 
L 104.055823 278.280116 
L 104.380803 276.680873 
L 104.705782 277.69936 
L 105.030762 276.817283 
L 105.355741 278.063245 
L 105.680721 281.358596 
L 106.0057 275.458306 
L 106.33068 283.299799 
L 106.655659 278.469551 
L 106.980639 276.535159 
L 107.305618 279.114442 
L 107.630598 283.260914 
L 107.955577 277.377833 
L 108.280557 279.090645 
L 108.605536 284.655346 
L 108.930516 278.418361 
L 109.255495 282.81892 
L 109.580475 284.196782 
L 109.905455 283.857043 
L 110.230434 278.85892 
L 110.555414 282.429596 
L 110.880393 281.453379 
L 111.205373 286.893894 
L 111.530352 283.97123 
L 111.855332 285.927938 
L 112.180311 279.751053 
L 112.505291 285.933259 
L 112.83027 281.27042 
L 113.15525 283.931249 
L 113.480229 280.382931 
L 113.805209 285.361233 
L 114.130188 286.448795 
L 114.455168 280.509067 
L 115.105127 286.346652 
L 115.430106 285.380878 
L 115.755086 283.484226 
L 116.080066 282.615155 
L 116.405045 284.161271 
L 116.730025 283.486594 
L 117.055004 279.05212 
L 117.379984 285.742641 
L 117.704963 282.281671 
L 118.029943 282.334901 
L 118.354922 277.347828 
L 118.679902 282.913593 
L 119.004881 281.52169 
L 119.329861 281.167537 
L 119.65484 276.861694 
L 119.97982 280.25243 
L 120.629779 275.626174 
L 120.954758 274.643867 
L 121.279738 281.230914 
L 122.254676 274.892705 
L 122.579656 275.814469 
L 123.229615 270.946888 
L 123.554595 271.655064 
L 123.879574 274.117827 
L 124.204554 270.189485 
L 124.529533 274.797156 
L 125.179492 273.220693 
L 125.504472 270.107538 
L 125.829451 270.976438 
L 126.154431 272.592051 
L 126.47941 269.340507 
L 126.80439 271.094624 
L 127.129369 269.51432 
L 127.454349 263.065379 
L 127.779328 269.441278 
L 128.104308 261.48153 
L 128.429287 261.114943 
L 128.754267 260.98406 
L 129.079247 261.601261 
L 129.404226 259.271359 
L 129.729206 265.324534 
L 130.054185 264.702985 
L 130.704144 257.108492 
L 131.029124 256.797293 
L 131.354103 258.800321 
L 131.679083 256.955282 
L 132.004062 258.617866 
L 132.329042 257.969897 
L 132.654021 257.962191 
L 132.979001 252.702242 
L 133.30398 258.15612 
L 133.62896 256.185342 
L 133.953939 251.075716 
L 134.278919 255.055815 
L 134.603898 255.118002 
L 134.928878 249.320125 
L 135.253857 248.869688 
L 135.578837 253.714673 
L 135.903817 253.200019 
L 136.228796 254.925658 
L 136.553776 253.229406 
L 136.878755 246.407535 
L 137.203735 246.323109 
L 137.528714 246.54105 
L 138.178673 248.075906 
L 138.503653 247.016286 
L 138.828632 249.000989 
L 139.153612 249.063742 
L 139.478591 247.248105 
L 139.803571 251.171068 
L 140.12855 244.028722 
L 140.45353 244.515617 
L 140.778509 243.469431 
L 141.103489 247.755404 
L 141.428468 249.806982 
L 141.753448 245.091671 
L 142.078428 250.968487 
L 142.403407 244.484787 
L 142.728387 250.843769 
L 143.053366 248.448767 
L 143.378346 243.240682 
L 143.703325 249.916969 
L 144.028305 250.516878 
L 144.678264 248.438144 
L 145.003243 250.613273 
L 145.328223 248.821387 
L 145.653202 248.800286 
L 145.978182 244.511017 
L 146.303161 244.736247 
L 146.628141 249.647806 
L 146.95312 244.950551 
L 147.2781 250.133096 
L 147.603079 250.14296 
L 147.928059 246.18492 
L 148.253038 251.034526 
L 148.902998 253.448439 
L 149.227977 249.366998 
L 149.552957 250.993917 
L 149.877936 248.57225 
L 150.527895 250.892893 
L 150.852875 253.705283 
L 151.177854 254.772045 
L 151.502834 251.795572 
L 151.827813 256.242483 
L 152.152793 252.123491 
L 152.477772 254.818551 
L 152.802752 255.205126 
L 153.127731 252.709613 
L 153.452711 258.072359 
L 153.77769 252.377986 
L 154.10267 256.786054 
L 154.427649 256.865986 
L 154.752629 259.231553 
L 155.402588 254.743259 
L 155.727568 255.941554 
L 156.052547 262.414531 
L 156.377527 259.879641 
L 157.027486 258.544481 
L 157.352465 260.519886 
L 157.677445 263.798283 
L 158.002424 263.231824 
L 158.327404 263.416147 
L 158.652383 261.566341 
L 158.977363 258.890278 
L 159.627322 265.458263 
L 159.952301 264.476572 
L 160.277281 265.048823 
L 160.60226 264.366116 
L 160.92724 263.12599 
L 161.252219 265.738567 
L 161.577199 266.993019 
L 161.902179 261.062658 
L 162.227158 267.026544 
L 162.552138 260.29697 
L 162.877117 264.245226 
L 163.202097 261.384826 
L 163.527076 267.34606 
L 163.852056 261.526127 
L 164.502015 266.646308 
L 164.826994 268.264971 
L 165.151974 265.769301 
L 165.476953 260.731633 
L 166.126912 264.979402 
L 166.451892 264.622829 
L 166.776871 265.017313 
L 167.101851 260.216295 
L 167.42683 264.1831 
L 167.75181 263.21608 
L 168.07679 260.613877 
L 168.401769 260.74867 
L 168.726749 261.131363 
L 169.051728 263.38361 
L 169.376708 262.879966 
L 169.701687 261.913234 
L 170.026667 261.928364 
L 170.351646 262.994093 
L 171.001605 259.059596 
L 171.326585 262.441833 
L 171.651564 255.947395 
L 171.976544 261.146441 
L 172.301523 257.593022 
L 172.626503 257.054306 
L 172.951482 252.191943 
L 173.276462 258.656285 
L 173.601441 257.228409 
L 173.926421 256.328356 
L 174.2514 252.076003 
L 174.57638 252.956168 
L 174.90136 252.720311 
L 175.226339 247.948801 
L 175.551319 246.736127 
L 175.876298 251.30807 
L 176.201278 252.398499 
L 176.526257 246.355139 
L 176.851237 246.712093 
L 177.176216 249.721662 
L 177.501196 244.49503 
L 177.826175 245.972199 
L 178.151155 242.440003 
L 178.476134 245.669575 
L 178.801114 244.480503 
L 179.126093 244.299181 
L 179.451073 239.934085 
L 179.776052 239.401224 
L 180.426011 233.963166 
L 180.750991 238.442869 
L 181.075971 232.051539 
L 181.72593 234.925977 
L 182.050909 231.516498 
L 182.375889 233.890686 
L 182.700868 226.878597 
L 183.025848 231.628094 
L 183.350827 224.481755 
L 183.675807 227.703909 
L 184.000786 226.065725 
L 184.325766 221.949381 
L 184.650745 222.39917 
L 184.975725 220.000327 
L 185.300704 220.651852 
L 185.625684 223.968378 
L 185.950663 217.417474 
L 186.275643 218.630634 
L 186.600622 217.772089 
L 186.925602 216.586701 
L 187.575561 212.466124 
L 187.900541 219.418807 
L 188.5505 209.926285 
L 188.875479 215.421385 
L 189.200459 214.989063 
L 189.525438 211.352205 
L 189.850418 211.325406 
L 190.175397 213.680279 
L 190.500377 211.413594 
L 190.825356 211.570702 
L 191.150336 204.294156 
L 191.475315 204.426526 
L 191.800295 203.179609 
L 192.125274 208.589289 
L 192.450254 207.664316 
L 192.775233 202.204207 
L 193.100213 207.340918 
L 193.425192 202.444789 
L 193.750172 202.678932 
L 194.075152 202.322779 
L 194.400131 199.087569 
L 194.725111 199.53009 
L 195.05009 203.061452 
L 195.37507 204.684857 
L 195.700049 201.17256 
L 196.025029 204.613398 
L 196.350008 197.746276 
L 196.674988 198.299262 
L 196.999967 200.467619 
L 197.324947 200.24417 
L 197.649926 202.441504 
L 197.974906 199.099545 
L 198.299885 197.445465 
L 198.624865 201.744566 
L 198.949844 197.328622 
L 199.274824 203.178766 
L 199.599803 196.658021 
L 199.924783 201.302637 
L 200.249762 201.766732 
L 200.574742 200.804187 
L 200.899722 201.063005 
L 201.224701 199.625591 
L 201.549681 197.557138 
L 201.87466 202.445518 
L 202.19964 197.103923 
L 202.524619 202.159271 
L 202.849599 201.784374 
L 203.174578 201.758531 
L 203.499558 197.963796 
L 203.824537 204.095317 
L 204.474496 201.202654 
L 204.799476 205.218863 
L 205.124455 202.588067 
L 205.449435 204.095168 
L 205.774414 200.297004 
L 206.099394 200.07213 
L 206.424373 204.825556 
L 206.749353 206.600902 
L 207.399312 202.165508 
L 207.724292 204.751514 
L 208.049271 204.347893 
L 208.374251 208.508995 
L 208.69923 202.414341 
L 209.02421 205.628084 
L 209.349189 203.753463 
L 209.674169 208.617868 
L 209.999148 208.731861 
L 210.324128 210.940953 
L 210.649107 208.910409 
L 210.974087 205.939289 
L 211.299066 207.505758 
L 211.624046 205.328417 
L 211.949025 206.97345 
L 212.274005 206.022365 
L 212.598984 205.943228 
L 212.923964 207.846277 
L 213.248943 206.96231 
L 213.573923 213.401369 
L 213.898903 207.585073 
L 214.223882 213.058926 
L 214.548862 209.140562 
L 214.873841 215.610009 
L 215.198821 211.428182 
L 215.5238 209.489347 
L 215.84878 216.246737 
L 216.173759 212.587922 
L 216.498739 213.85598 
L 216.823718 216.158372 
L 217.148698 213.277693 
L 217.473677 212.143915 
L 217.798657 215.815274 
L 218.123636 217.053307 
L 218.448616 211.738977 
L 218.773595 217.8191 
L 219.098575 211.074102 
L 219.423554 211.639414 
L 219.748534 212.736848 
L 220.073514 211.506537 
L 220.398493 213.301607 
L 220.723473 212.65858 
L 221.048452 211.057252 
L 221.373432 211.904934 
L 221.698411 212.254037 
L 222.34837 215.943843 
L 222.67335 211.965534 
L 222.998329 212.5385 
L 223.323309 214.10655 
L 223.973268 211.052753 
L 224.298247 209.695315 
L 224.623227 216.70972 
L 224.948206 215.327258 
L 225.273186 212.241504 
L 225.598165 214.924225 
L 225.923145 212.35717 
L 226.248124 210.823148 
L 226.573104 207.817856 
L 226.898084 209.17698 
L 227.223063 207.502772 
L 227.548043 212.129909 
L 227.873022 208.298213 
L 228.198002 210.771116 
L 228.522981 206.831464 
L 228.847961 212.2709 
L 229.17294 211.017232 
L 229.49792 210.484042 
L 229.822899 206.390512 
L 230.147879 206.863322 
L 230.472858 205.283159 
L 230.797838 204.616876 
L 231.122817 203.692045 
L 231.447797 200.737858 
L 231.772776 204.28062 
L 232.097756 203.405961 
L 232.422735 201.706941 
L 232.747715 198.272346 
L 233.072695 199.333619 
L 233.722654 195.601882 
L 234.047633 200.722776 
L 234.372613 200.281942 
L 234.697592 194.684094 
L 235.022572 195.032595 
L 235.347551 197.57517 
L 235.672531 193.47599 
L 235.99751 194.956472 
L 236.32249 193.852711 
L 236.647469 196.56589 
L 236.972449 193.357896 
L 237.297428 188.392771 
L 237.622408 194.417009 
L 237.947387 191.736838 
L 238.272367 186.536876 
L 238.597346 190.596917 
L 239.247305 184.14793 
L 239.572285 185.392956 
L 239.897265 190.164295 
L 240.222244 183.836909 
L 240.547224 183.21069 
L 240.872203 181.849454 
L 241.197183 181.743618 
L 241.522162 186.577832 
L 241.847142 180.943832 
L 242.172121 180.65481 
L 242.497101 183.948063 
L 242.82208 183.393522 
L 243.14706 183.331406 
L 243.472039 181.185583 
L 243.797019 176.452544 
L 244.121998 179.860173 
L 244.446978 177.310685 
L 244.771957 176.938001 
L 245.096937 175.641959 
L 245.421916 180.737119 
L 245.746896 176.180991 
L 246.071876 176.10054 
L 246.721835 178.879742 
L 247.046814 171.893881 
L 247.371794 174.545703 
L 247.696773 172.48652 
L 248.021753 172.517691 
L 248.346732 170.552163 
L 248.671712 172.179645 
L 248.996691 176.758407 
L 249.321671 172.954161 
L 249.64665 173.728455 
L 249.97163 176.724396 
L 250.296609 175.26851 
L 250.621589 171.843919 
L 250.946568 173.414303 
L 251.271548 170.987213 
L 251.596527 170.207042 
L 251.921507 173.125994 
L 252.246486 174.147255 
L 252.571466 172.570027 
L 252.896446 174.344222 
L 253.221425 177.36673 
L 253.871384 169.919536 
L 254.196364 174.700383 
L 254.521343 176.07886 
L 254.846323 170.645336 
L 255.171302 173.637748 
L 255.496282 171.663842 
L 255.821261 174.77819 
L 256.146241 174.774892 
L 256.47122 172.293556 
L 256.7962 172.562639 
L 257.121179 171.657958 
L 257.446159 172.848402 
L 257.771138 179.689018 
L 258.096118 178.983188 
L 258.421097 177.327906 
L 258.746077 173.845364 
L 259.071057 178.023345 
L 259.396036 175.019421 
L 259.721016 174.779516 
L 260.045995 181.765558 
L 260.370975 180.129339 
L 260.695954 179.946691 
L 261.020934 180.759045 
L 261.345913 178.330205 
L 261.670893 178.086525 
L 261.995872 178.514297 
L 262.320852 176.846139 
L 262.645831 178.703503 
L 262.970811 184.123834 
L 263.29579 185.235185 
L 263.62077 180.578091 
L 263.945749 181.471075 
L 264.270729 180.192757 
L 264.595708 184.845046 
L 264.920688 181.319455 
L 265.245667 181.571804 
L 265.570647 182.331245 
L 266.220606 182.989497 
L 266.545586 183.778293 
L 266.870565 187.814249 
L 267.195545 181.648653 
L 267.520524 184.601582 
L 267.845504 182.194076 
L 268.495463 187.886099 
L 268.820442 184.982139 
L 269.145422 189.915482 
L 269.470401 186.282462 
L 269.795381 185.140608 
L 270.12036 189.973321 
L 270.44534 191.032901 
L 270.770319 185.01241 
L 271.095299 185.875136 
L 271.420278 188.058215 
L 271.745258 186.406339 
L 272.070238 186.565257 
L 272.395217 189.661759 
L 272.720197 190.579822 
L 273.045176 183.372223 
L 273.370156 185.516632 
L 273.695135 189.61402 
L 274.020115 186.50175 
L 274.345094 186.211002 
L 274.670074 189.237064 
L 274.995053 184.508189 
L 275.320033 186.311418 
L 275.645012 182.774887 
L 275.969992 183.191976 
L 276.294971 186.615004 
L 276.619951 188.010694 
L 276.94493 182.484738 
L 277.26991 182.373152 
L 277.594889 184.03604 
L 277.919869 181.162344 
L 278.244848 186.349479 
L 278.894808 178.280906 
L 279.219787 181.988443 
L 279.544767 182.068662 
L 279.869746 178.520395 
L 280.194726 181.936388 
L 280.519705 177.25158 
L 280.844685 177.105329 
L 281.169664 180.626473 
L 281.819623 174.048167 
L 282.144603 173.332065 
L 282.469582 171.15267 
L 282.794562 174.661791 
L 283.119541 174.083652 
L 283.444521 168.791977 
L 283.7695 173.281157 
L 284.09448 173.191955 
L 284.419459 169.940222 
L 284.744439 168.660031 
L 285.069419 170.19127 
L 285.394398 170.073054 
L 285.719378 162.68565 
L 286.044357 160.995897 
L 286.369337 164.667758 
L 286.694316 160.087018 
L 287.019296 158.818901 
L 287.344275 159.850518 
L 287.669255 158.047173 
L 287.994234 160.0947 
L 288.319214 161.424896 
L 288.644193 158.388085 
L 288.969173 153.646711 
L 289.294152 156.237006 
L 289.619132 151.800919 
L 289.944111 156.578051 
L 290.269091 148.59082 
L 290.59407 153.791328 
L 290.91905 148.462808 
L 291.244029 150.341251 
L 291.569009 146.794283 
L 291.893989 146.813742 
L 292.218968 148.476824 
L 292.543948 147.626677 
L 292.868927 146.085468 
L 293.193907 145.419335 
L 293.518886 145.510636 
L 293.843866 140.190011 
L 294.168845 138.899416 
L 294.493825 142.581366 
L 294.818804 134.109935 
L 295.143784 140.018138 
L 295.468763 136.241954 
L 295.793743 137.269611 
L 296.118722 137.768337 
L 296.443702 135.805592 
L 296.768681 131.23899 
L 297.093661 130.379389 
L 297.41864 134.577176 
L 297.74362 127.505908 
L 298.0686 132.2643 
L 298.393579 129.630063 
L 298.718559 129.367836 
L 299.043538 125.365479 
L 299.368518 125.689061 
L 299.693497 121.968816 
L 300.018477 127.955336 
L 300.343456 121.249656 
L 300.668436 125.793751 
L 300.993415 126.401017 
L 301.318395 119.095985 
L 301.643374 125.48402 
L 301.968354 124.647571 
L 302.293333 124.681116 
L 302.618313 117.449611 
L 302.943292 117.329329 
L 303.268272 122.754769 
L 303.593251 122.96008 
L 303.918231 118.828689 
L 304.24321 120.537171 
L 304.56819 116.104911 
L 304.89317 116.649297 
L 305.218149 116.606762 
L 305.543129 113.376388 
L 305.868108 115.177976 
L 306.193088 119.885491 
L 306.518067 116.292827 
L 306.843047 119.229183 
L 307.168026 113.467242 
L 307.493006 112.198619 
L 307.817985 117.014648 
L 308.142965 118.444326 
L 308.467944 112.331137 
L 309.117903 119.347918 
L 309.442883 115.388907 
L 309.767862 113.727611 
L 310.092842 118.575932 
L 310.417821 115.108078 
L 310.742801 117.807039 
L 311.067781 116.022616 
L 311.39276 119.922344 
L 311.71774 116.784845 
L 312.042719 117.831217 
L 312.367699 117.359789 
L 313.017658 114.612444 
L 313.342637 120.385472 
L 313.992596 119.147817 
L 314.317576 116.481589 
L 314.967535 120.867658 
L 315.292514 119.795824 
L 315.617494 115.613728 
L 315.942473 117.61442 
L 316.592432 123.222868 
L 316.917412 118.449053 
L 317.242391 119.106501 
L 317.567371 118.284249 
L 317.892351 123.350074 
L 318.54231 118.753812 
L 319.192269 126.439608 
L 319.842228 121.453963 
L 320.167207 126.512457 
L 320.492187 122.477176 
L 320.817166 126.76553 
L 321.142146 128.709261 
L 321.467125 128.195794 
L 321.792105 124.043875 
L 322.117084 125.160499 
L 322.442064 128.617583 
L 322.767043 125.249725 
L 323.092023 126.125011 
L 323.417002 126.220957 
L 323.741982 127.861169 
L 324.066962 125.158678 
L 324.391941 125.493754 
L 324.716921 129.551313 
L 325.0419 129.991266 
L 325.691859 129.49041 
L 326.341818 127.343313 
L 326.666798 130.775707 
L 326.991777 127.384697 
L 327.316757 128.355753 
L 327.641736 130.712196 
L 327.966716 130.906768 
L 328.291695 129.425898 
L 328.616675 125.184559 
L 328.941654 130.703628 
L 329.266634 128.258892 
L 329.591613 131.86284 
L 329.916593 130.342614 
L 330.241572 130.532335 
L 330.891532 129.796685 
L 331.216511 129.191706 
L 331.541491 125.976737 
L 331.86647 128.730463 
L 332.19145 126.270117 
L 332.516429 129.425456 
L 332.841409 123.890593 
L 333.166388 124.15345 
L 333.491368 123.053595 
L 333.816347 125.91511 
L 334.141327 121.929134 
L 334.466306 126.611053 
L 334.791286 120.210378 
L 335.116265 120.20666 
L 335.441245 124.162937 
L 335.766224 126.39603 
L 336.091204 120.452275 
L 336.416183 119.532442 
L 336.741163 117.163976 
L 337.066143 122.974871 
L 337.391122 122.410943 
L 337.716102 116.259481 
L 338.041081 121.177766 
L 338.366061 122.025798 
L 338.69104 117.37883 
L 339.01602 118.127598 
L 339.340999 114.47413 
L 339.665979 114.576945 
L 339.990958 114.493802 
L 340.315938 112.129776 
L 340.640917 113.446138 
L 340.965897 112.333607 
L 341.290876 112.092262 
L 341.615856 115.018718 
L 341.940835 106.819465 
L 342.265815 106.513488 
L 342.590794 109.530932 
L 343.240753 111.284688 
L 343.565733 103.088657 
L 343.890713 109.025225 
L 344.215692 106.342888 
L 344.540672 106.578552 
L 344.865651 102.443695 
L 345.190631 103.883922 
L 345.51561 103.407049 
L 345.84059 104.246967 
L 346.165569 102.239581 
L 346.490549 98.221616 
L 346.815528 98.466719 
L 347.140508 97.975804 
L 347.465487 99.732836 
L 347.790467 96.327802 
L 348.115446 98.587169 
L 348.440426 98.042574 
L 348.765405 98.398459 
L 349.090385 98.445541 
L 349.415364 94.895073 
L 349.740344 94.650767 
L 350.065324 93.466728 
L 350.390303 88.262652 
L 350.715283 87.823486 
L 351.040262 89.446056 
L 351.365242 87.639293 
L 351.690221 92.051096 
L 352.015201 86.761726 
L 352.34018 88.012042 
L 352.66516 86.913623 
L 352.990139 83.937314 
L 353.315119 91.120321 
L 353.640098 86.413618 
L 353.965078 83.755117 
L 354.290057 84.666111 
L 354.615037 85.237857 
L 355.264996 87.157826 
L 355.589975 86.021667 
L 355.914955 81.609841 
L 356.889894 84.658333 
L 357.214873 86.120813 
L 357.539853 81.164363 
L 357.864832 85.45584 
L 358.189812 86.171804 
L 358.514791 83.325746 
L 358.839771 79.318167 
L 359.16475 83.097145 
L 359.48973 84.634628 
L 359.814709 78.11772 
L 360.139689 82.199095 
L 360.464668 82.310888 
L 360.789648 79.058082 
L 361.114627 79.71236 
L 361.439607 77.505795 
L 362.089566 83.982982 
L 362.414545 81.196098 
L 362.739525 84.124918 
L 363.389484 79.19487 
L 363.714464 83.590963 
L 364.039443 82.893478 
L 364.364423 80.397613 
L 364.689402 80.648871 
L 365.014382 82.334559 
L 365.339361 85.148263 
L 365.664341 84.002522 
L 365.98932 81.538597 
L 366.3143 86.594772 
L 366.639279 81.352648 
L 366.964259 81.88972 
L 367.289238 81.209134 
L 367.939197 84.735873 
L 368.264177 81.296979 
L 368.589156 83.252998 
L 368.914136 88.68754 
L 369.239115 86.523304 
L 369.564095 89.493732 
L 369.889075 84.48907 
L 370.214054 88.4768 
L 370.539034 90.03062 
L 371.188993 84.515717 
L 371.513972 89.271586 
L 371.838952 91.784613 
L 372.163931 91.323071 
L 372.81389 88.40478 
L 373.13887 89.182585 
L 373.463849 87.777669 
L 373.788829 93.613856 
L 374.113808 87.920246 
L 374.438788 92.288173 
L 374.763767 94.27171 
L 375.088747 89.278175 
L 375.738706 95.117109 
L 376.063686 89.561877 
L 376.388665 88.178856 
L 376.713645 94.983107 
L 377.038624 94.184246 
L 377.363604 88.605427 
L 377.688583 92.081689 
L 378.013563 89.193549 
L 378.663522 94.420374 
L 378.988501 93.750684 
L 379.313481 95.823316 
L 379.63846 94.500615 
L 379.96344 91.849291 
L 380.288419 94.92323 
L 380.938378 89.05886 
L 381.263358 88.923142 
L 381.588337 91.704554 
L 381.913317 92.993018 
L 382.238296 88.718475 
L 382.563276 89.79397 
L 382.888256 87.163647 
L 383.213235 89.067352 
L 383.538215 93.222209 
L 383.863194 88.825444 
L 384.188174 91.448293 
L 384.513153 86.002762 
L 384.838133 92.316929 
L 385.163112 88.056595 
L 385.813071 84.500493 
L 386.46303 90.491655 
L 387.112989 82.05962 
L 387.437969 85.131645 
L 388.087928 81.265383 
L 388.412907 85.200743 
L 388.737887 83.794165 
L 389.062867 83.811596 
L 389.387846 83.506108 
L 389.712826 77.359797 
L 390.037805 78.872812 
L 390.362785 79.110631 
L 390.687764 78.037834 
L 391.012744 77.348643 
L 391.337723 73.936219 
L 391.987682 71.07765 
L 392.312662 74.320669 
L 392.637641 73.237097 
L 392.962621 75.500325 
L 393.2876 69.4155 
L 393.61258 71.615782 
L 393.937559 65.384628 
L 394.262539 71.290726 
L 394.587518 65.967814 
L 394.912498 63.219003 
L 395.562457 67.288888 
L 396.212416 65.290039 
L 396.537396 56.500916 
L 396.862375 61.128929 
L 397.187355 54.637923 
L 397.512334 60.695798 
L 397.837314 53.568 
L 398.162293 58.744639 
L 398.487273 57.006406 
L 398.487273 57.006406 
" clip-path="url(#pa24ed17968)" style="fill: none; stroke: #1f77b4; stroke-width: 1.5; stroke-linecap: square"/>
   </g>
   <g id="line2d_15">
    <path d="M 84.232072 268.492682 
L 84.557052 269.085429 
L 84.882031 268.912468 
L 85.207011 267.35801 
L 85.53199 267.44161 
L 85.85697 267.732257 
L 86.181949 267.816948 
L 86.506929 267.369096 
L 86.831908 265.714082 
L 87.156888 266.383656 
L 87.806847 264.323945 
L 88.131826 264.654844 
L 88.456806 264.781771 
L 88.781785 265.727406 
L 89.106765 264.507173 
L 89.431744 264.68719 
L 89.756724 265.130003 
L 90.081704 264.460883 
L 90.406683 265.107136 
L 90.731663 264.931175 
L 91.056642 264.304397 
L 91.381622 264.493251 
L 91.706601 264.85845 
L 92.031581 264.119531 
L 92.35656 263.779428 
L 92.68154 263.628343 
L 93.006519 264.13105 
L 93.331499 262.080137 
L 93.981458 263.239219 
L 94.306437 263.281492 
L 94.631417 263.607751 
L 94.956396 263.725303 
L 95.281376 263.613469 
L 95.606355 262.694414 
L 95.931335 264.472613 
L 96.256314 264.656499 
L 96.906274 266.498131 
L 97.231253 266.662128 
L 97.556233 265.704307 
L 97.881212 268.000121 
L 98.206192 268.278888 
L 98.531171 269.088172 
L 98.856151 269.475816 
L 99.50611 269.768412 
L 99.831089 269.685091 
L 100.156069 271.100031 
L 100.481048 271.130818 
L 100.806028 271.299407 
L 101.131007 272.760408 
L 101.780966 272.996264 
L 102.105946 274.792233 
L 102.430925 274.535212 
L 102.755905 274.942195 
L 103.080885 275.996432 
L 103.405864 276.32201 
L 103.730844 275.749703 
L 104.380803 277.675392 
L 104.705782 277.760035 
L 105.030762 277.478583 
L 105.355741 278.04511 
L 105.680721 278.16646 
L 106.0057 279.29689 
L 106.33068 279.304285 
L 106.655659 280.559695 
L 106.980639 279.443651 
L 107.305618 279.646245 
L 107.630598 280.61544 
L 107.955577 279.924079 
L 108.280557 280.014455 
L 108.605536 280.285706 
L 108.930516 281.482645 
L 109.255495 280.487145 
L 109.580475 281.116838 
L 109.905455 282.326085 
L 110.230434 282.980407 
L 110.555414 281.566252 
L 110.880393 283.345237 
L 111.205373 282.588332 
L 111.530352 283.563541 
L 111.855332 283.973196 
L 112.180311 284.944822 
L 112.505291 283.73479 
L 112.83027 284.430466 
L 113.15525 284.676402 
L 113.480229 283.493303 
L 113.805209 283.083867 
L 114.130188 284.012483 
L 114.455168 285.596814 
L 114.780147 282.658675 
L 115.105127 284.495339 
L 115.755086 283.81356 
L 116.080066 283.884733 
L 116.405045 284.953652 
L 116.730025 283.37623 
L 117.055004 284.158171 
L 117.379984 282.857975 
L 117.704963 283.050685 
L 118.029943 282.252897 
L 118.354922 283.06246 
L 119.004881 280.770495 
L 119.329861 281.267762 
L 119.65484 280.573591 
L 119.97982 280.220375 
L 120.304799 279.056631 
L 120.629779 278.858443 
L 121.279738 277.103214 
L 121.604717 276.246978 
L 121.929697 277.15544 
L 122.254676 276.063909 
L 122.579656 276.521893 
L 122.904636 274.904527 
L 123.229615 274.203376 
L 123.554595 273.015936 
L 123.879574 272.635925 
L 124.204554 271.897067 
L 124.529533 271.587133 
L 124.854513 271.919482 
L 125.179492 271.696816 
L 125.504472 270.751578 
L 125.829451 270.606302 
L 126.154431 270.735197 
L 126.47941 270.347766 
L 126.80439 269.684096 
L 127.129369 270.358455 
L 127.454349 270.283478 
L 127.779328 267.643635 
L 128.104308 267.932509 
L 128.754267 264.051202 
L 129.079247 263.101108 
L 129.729206 260.456113 
L 130.054185 260.397797 
L 130.379165 260.574048 
L 130.704144 259.619515 
L 131.029124 258.097098 
L 131.354103 258.061031 
L 131.679083 257.127594 
L 132.004062 255.39151 
L 132.329042 256.689594 
L 132.654021 255.948768 
L 132.979001 255.559321 
L 133.30398 254.435966 
L 133.62896 255.022796 
L 134.278919 252.744274 
L 134.603898 254.287522 
L 134.928878 254.100822 
L 135.253857 252.041464 
L 135.578837 251.734724 
L 135.903817 251.76925 
L 136.228796 250.149219 
L 136.553776 251.873485 
L 136.878755 251.811177 
L 137.203735 250.671215 
L 137.528714 248.633665 
L 137.853694 248.09021 
L 138.178673 246.567229 
L 138.503653 246.199492 
L 138.828632 246.575464 
L 139.153612 247.238025 
L 139.478591 246.728009 
L 139.803571 245.864422 
L 140.12855 247.265045 
L 140.45353 245.371744 
L 140.778509 245.042298 
L 141.753448 245.827141 
L 142.078428 245.893945 
L 142.403407 247.135045 
L 142.728387 245.494268 
L 143.053366 247.180393 
L 143.378346 248.049599 
L 143.703325 245.984744 
L 144.353284 249.036363 
L 144.678264 248.53109 
L 145.003243 249.380151 
L 145.653202 249.83853 
L 145.978182 249.753679 
L 146.303161 248.542328 
L 146.628141 248.741497 
L 146.95312 247.669499 
L 147.2781 247.681459 
L 147.603079 247.939062 
L 147.928059 248.039638 
L 148.253038 247.833355 
L 148.578018 248.945494 
L 148.902998 249.060603 
L 149.227977 249.504682 
L 149.877936 251.185997 
L 150.202916 250.585143 
L 150.527895 249.645773 
L 150.852875 251.050977 
L 151.177854 251.428433 
L 151.502834 252.386777 
L 152.477772 254.039909 
L 152.802752 254.174284 
L 153.452711 255.0786 
L 153.77769 256.035557 
L 154.10267 256.367619 
L 154.427649 256.873256 
L 154.752629 256.50018 
L 155.077609 257.00736 
L 155.402588 257.972232 
L 155.727568 256.818532 
L 156.052547 257.272954 
L 156.377527 258.993198 
L 156.702506 258.274692 
L 157.027486 259.816354 
L 157.677445 260.321898 
L 158.002424 261.627407 
L 158.327404 261.718298 
L 158.652383 263.298495 
L 158.977363 262.88141 
L 159.302342 263.082287 
L 159.627322 263.138251 
L 159.952301 263.336178 
L 160.277281 263.718501 
L 160.60226 265.394892 
L 160.92724 265.137457 
L 161.902179 265.899536 
L 162.227158 265.32018 
L 162.552138 265.280366 
L 162.877117 265.417872 
L 163.202097 265.144839 
L 163.527076 264.195222 
L 163.852056 264.355846 
L 164.177035 263.570027 
L 164.502015 263.542543 
L 164.826994 265.007373 
L 165.151974 264.871905 
L 165.476953 264.963594 
L 165.801933 264.168139 
L 166.126912 264.392446 
L 166.451892 263.787904 
L 166.776871 264.318546 
L 167.42683 264.022297 
L 167.75181 262.928643 
L 168.07679 264.007931 
L 168.401769 261.878576 
L 168.726749 261.295585 
L 169.051728 261.286628 
L 169.376708 261.873207 
L 170.026667 261.5773 
L 170.351646 261.95944 
L 170.676626 261.080436 
L 171.001605 261.363248 
L 171.326585 260.292306 
L 171.651564 260.678643 
L 171.976544 259.810993 
L 172.301523 259.924362 
L 172.626503 258.436097 
L 172.951482 257.790905 
L 173.276462 256.613313 
L 173.601441 256.84323 
L 174.2514 255.152022 
L 174.57638 255.004116 
L 174.90136 254.244794 
L 175.226339 252.7377 
L 175.551319 250.527101 
L 175.876298 249.485808 
L 176.201278 248.916353 
L 176.526257 249.195255 
L 176.851237 247.171091 
L 177.176216 247.15745 
L 177.501196 245.8789 
L 178.476134 243.224685 
L 178.801114 243.022412 
L 179.126093 243.484315 
L 179.451073 243.024185 
L 179.776052 241.293144 
L 180.101032 240.243564 
L 181.40095 234.429961 
L 182.050909 233.229334 
L 182.375889 231.301064 
L 182.700868 230.49563 
L 183.025848 229.176817 
L 183.350827 228.709957 
L 184.000786 225.686061 
L 184.325766 225.237443 
L 185.300704 220.313711 
L 185.625684 219.019704 
L 185.950663 219.677624 
L 186.275643 217.591339 
L 186.600622 217.343017 
L 186.925602 216.55689 
L 187.250581 215.007208 
L 187.575561 215.100499 
L 187.900541 212.429595 
L 188.22552 213.959337 
L 188.5505 213.289164 
L 188.875479 211.800855 
L 189.200459 212.39634 
L 189.525438 211.783728 
L 189.850418 210.423434 
L 190.500377 210.84344 
L 190.825356 210.576661 
L 191.150336 210.596199 
L 191.800295 207.718614 
L 192.125274 205.141984 
L 192.450254 206.65579 
L 192.775233 205.526418 
L 193.100213 203.488505 
L 193.425192 205.040919 
L 194.075152 201.875778 
L 195.05009 199.836067 
L 195.700049 200.422544 
L 196.025029 199.969746 
L 196.350008 199.759713 
L 196.674988 200.177159 
L 196.999967 198.366067 
L 197.324947 197.842712 
L 197.649926 199.7601 
L 197.974906 199.667116 
L 198.624865 199.057229 
L 198.949844 199.874832 
L 199.274824 198.470482 
L 199.599803 199.456935 
L 199.924783 198.914851 
L 200.249762 199.194661 
L 200.574742 200.616224 
L 200.899722 200.23303 
L 201.224701 200.318355 
L 201.549681 199.336349 
L 201.87466 200.047955 
L 202.19964 200.457567 
L 202.524619 199.514127 
L 202.849599 200.685228 
L 203.174578 200.788872 
L 203.499558 200.264448 
L 203.824537 200.963605 
L 204.149517 200.404843 
L 204.474496 201.610884 
L 204.799476 201.579763 
L 205.124455 202.607856 
L 205.774414 203.579055 
L 206.099394 203.014678 
L 206.424373 202.909733 
L 206.749353 202.400447 
L 207.074333 203.840657 
L 207.399312 204.525093 
L 207.724292 204.417941 
L 208.049271 204.481548 
L 208.374251 204.378944 
L 208.69923 205.508902 
L 209.02421 204.672803 
L 209.349189 205.547941 
L 209.674169 205.782411 
L 209.999148 206.713978 
L 210.324128 206.636577 
L 210.649107 208.16736 
L 211.299066 208.467839 
L 211.624046 208.802355 
L 211.949025 207.738255 
L 212.598984 208.078249 
L 213.248943 207.239269 
L 213.573923 208.18796 
L 214.548862 208.943219 
L 214.873841 209.698642 
L 215.198821 211.504947 
L 215.5238 211.667278 
L 215.84878 211.415634 
L 216.173759 212.88816 
L 216.823718 213.662912 
L 217.148698 215.247669 
L 217.473677 214.631764 
L 217.798657 214.536014 
L 218.123636 215.716469 
L 218.773595 215.619519 
L 219.423554 216.549615 
L 219.748534 214.708787 
L 220.073514 214.646308 
L 220.398493 214.273969 
L 220.723473 213.307687 
L 221.698411 212.140519 
L 222.023391 210.929792 
L 222.67335 212.027618 
L 222.998329 211.499972 
L 223.323309 212.449099 
L 223.648288 212.974744 
L 224.298247 211.36692 
L 224.948206 212.44464 
L 225.273186 212.675694 
L 225.598165 213.402512 
L 225.923145 213.655471 
L 226.248124 212.975 
L 226.573104 212.985044 
L 227.223063 210.694707 
L 227.548043 210.790594 
L 228.522981 209.530998 
L 228.847961 207.88559 
L 229.17294 209.14413 
L 229.822899 208.035046 
L 230.147879 208.520742 
L 230.472858 207.967609 
L 230.797838 207.190314 
L 231.122817 205.58559 
L 231.447797 205.068923 
L 231.772776 203.441323 
L 232.097756 203.696159 
L 232.422735 202.477725 
L 232.747715 201.86377 
L 233.072695 199.651734 
L 233.397674 199.972609 
L 234.047633 196.304927 
L 234.372613 197.128566 
L 234.697592 197.284379 
L 235.347551 195.040424 
L 235.672531 194.924843 
L 235.99751 192.876964 
L 236.32249 193.2007 
L 236.647469 192.474287 
L 236.972449 193.17457 
L 237.297428 192.196971 
L 237.947387 191.892705 
L 238.272367 190.315987 
L 238.597346 189.504656 
L 238.922326 190.277487 
L 239.572285 186.963113 
L 239.897265 186.537192 
L 240.222244 185.766404 
L 240.872203 183.522576 
L 241.197183 183.574484 
L 241.522162 181.435208 
L 241.847142 181.494622 
L 242.172121 181.266703 
L 242.497101 180.084702 
L 243.14706 180.596485 
L 243.797019 180.199602 
L 244.121998 179.002737 
L 244.446978 179.462859 
L 244.771957 178.008199 
L 245.096937 177.312683 
L 245.421916 177.172773 
L 245.746896 177.208815 
L 246.071876 176.423139 
L 246.396855 176.100412 
L 246.721835 176.229487 
L 247.696773 174.610222 
L 248.021753 173.528458 
L 248.346732 172.909172 
L 248.671712 172.651375 
L 248.996691 171.013464 
L 249.321671 172.010239 
L 249.64665 171.020796 
L 249.97163 172.35881 
L 250.296609 172.846679 
L 250.621589 171.947813 
L 250.946568 172.242731 
L 251.271548 173.546637 
L 251.596527 172.053797 
L 251.921507 172.000662 
L 252.246486 172.501906 
L 252.571466 172.714127 
L 252.896446 172.316304 
L 253.221425 172.739043 
L 253.546405 174.141928 
L 253.871384 172.937563 
L 254.196364 172.990126 
L 254.846323 174.139423 
L 255.171302 173.277405 
L 255.496282 174.398295 
L 255.821261 173.604923 
L 256.7962 173.534014 
L 257.121179 172.726783 
L 257.446159 172.301615 
L 257.771138 173.408165 
L 258.096118 173.743034 
L 258.421097 174.34193 
L 258.746077 176.450741 
L 259.071057 176.561276 
L 259.396036 176.224328 
L 259.721016 176.668864 
L 260.045995 176.083042 
L 260.370975 178.043362 
L 260.695954 178.422672 
L 261.345913 180.391268 
L 261.670893 180.008004 
L 261.995872 179.942858 
L 262.645831 179.434137 
L 263.62077 182.627599 
L 264.270729 181.595261 
L 264.595708 182.294798 
L 264.920688 182.480465 
L 265.245667 182.242968 
L 265.895627 183.405503 
L 266.220606 182.944934 
L 266.545586 183.287437 
L 266.870565 183.060297 
L 267.195545 183.760202 
L 267.520524 183.77191 
L 267.845504 185.316227 
L 268.170483 184.076476 
L 268.495463 184.188256 
L 268.820442 185.556115 
L 269.145422 185.399667 
L 269.795381 187.204074 
L 270.12036 187.143856 
L 270.44534 188.17364 
L 270.770319 188.501389 
L 271.095299 187.589297 
L 271.420278 188.538057 
L 271.745258 188.564989 
L 272.070238 188.352895 
L 272.395217 187.283711 
L 272.720197 188.790917 
L 273.045176 189.050118 
L 273.370156 187.779995 
L 273.695135 188.070668 
L 274.020115 187.736664 
L 274.345094 186.937751 
L 274.670074 186.849494 
L 274.995053 187.848062 
L 275.320033 186.540759 
L 275.645012 186.487442 
L 276.294971 184.71579 
L 276.619951 183.76719 
L 276.94493 184.989258 
L 277.26991 185.037318 
L 277.594889 182.865258 
L 277.919869 183.673558 
L 278.244848 182.539416 
L 278.569828 182.234564 
L 278.894808 182.264186 
L 279.219787 181.902549 
L 279.544767 181.229611 
L 279.869746 181.193661 
L 280.194726 179.821079 
L 280.519705 179.651001 
L 280.844685 178.528218 
L 281.494644 178.304971 
L 281.819623 176.865211 
L 282.144603 176.610701 
L 283.119541 172.77746 
L 283.444521 172.629629 
L 283.7695 170.975662 
L 284.09448 171.330641 
L 284.744439 169.40298 
L 285.719378 167.653806 
L 287.019296 162.166751 
L 287.344275 160.253302 
L 287.994234 157.965275 
L 288.969173 156.659811 
L 289.294152 154.186174 
L 289.619132 154.654383 
L 289.944111 154.027168 
L 290.59407 150.924153 
L 290.91905 151.71054 
L 291.244029 149.558445 
L 291.893989 147.562024 
L 292.218968 145.687742 
L 292.543948 146.008381 
L 293.518886 144.238097 
L 293.843866 144.702053 
L 294.493825 141.028017 
L 294.818804 139.929254 
L 295.143784 139.327162 
L 295.468763 137.384582 
L 295.793743 136.800018 
L 296.118722 135.383139 
L 296.768681 134.277706 
L 297.41864 131.206082 
L 297.74362 131.148282 
L 298.393579 129.097151 
L 298.718559 128.921652 
L 299.043538 127.950065 
L 299.368518 126.313863 
L 299.693497 125.496959 
L 300.018477 123.536099 
L 300.343456 123.569181 
L 300.668436 122.079615 
L 300.993415 122.687451 
L 301.318395 122.706635 
L 301.643374 120.471037 
L 301.968354 122.196239 
L 302.293333 121.042122 
L 302.618313 121.343172 
L 302.943292 120.391003 
L 303.268272 120.521001 
L 303.593251 119.231003 
L 303.918231 119.856285 
L 304.24321 118.823535 
L 304.56819 119.633122 
L 304.89317 117.927529 
L 305.218149 117.866361 
L 305.543129 116.956549 
L 305.868108 115.191015 
L 306.193088 115.552535 
L 306.518067 115.024072 
L 306.843047 116.278416 
L 307.168026 115.252154 
L 307.493006 114.951527 
L 307.817985 114.282268 
L 308.142965 113.958611 
L 308.467944 113.863565 
L 308.792924 114.500173 
L 309.117903 114.182487 
L 309.442883 115.894591 
L 309.767862 115.037083 
L 310.092842 113.859154 
L 310.417821 115.722874 
L 310.742801 115.586207 
L 311.067781 115.925508 
L 312.042719 117.792626 
L 312.367699 117.515295 
L 312.692678 117.811184 
L 313.017658 117.170351 
L 313.342637 116.982929 
L 313.667617 118.899839 
L 313.992596 118.62891 
L 314.317576 117.713022 
L 314.642555 118.86664 
L 314.967535 118.967253 
L 315.292514 118.607276 
L 315.942473 119.227793 
L 316.267453 118.469699 
L 316.592432 119.759285 
L 316.917412 120.392141 
L 317.242391 119.195474 
L 317.892351 120.196338 
L 318.21733 120.104781 
L 318.54231 120.40527 
L 318.867289 120.431108 
L 319.517248 122.697526 
L 320.167207 123.056726 
L 320.492187 124.148877 
L 320.817166 124.209007 
L 321.792105 127.14149 
L 322.442064 127.604576 
L 322.767043 127.645714 
L 323.092023 126.670761 
L 323.741982 128.519141 
L 324.066962 128.016094 
L 324.391941 126.778381 
L 324.716921 127.804215 
L 325.36688 127.740914 
L 325.691859 127.996723 
L 326.016839 129.527764 
L 326.341818 128.878196 
L 326.666798 128.976712 
L 326.991777 129.533012 
L 327.316757 128.024298 
L 327.641736 128.746128 
L 327.966716 129.847672 
L 328.291695 130.140592 
L 328.616675 129.373463 
L 328.941654 129.018808 
L 329.266634 129.346041 
L 329.591613 128.821178 
L 330.241572 130.151082 
L 330.566552 130.226869 
L 331.216511 130.726668 
L 331.86647 128.66931 
L 332.19145 128.917704 
L 332.516429 128.711731 
L 332.841409 128.139639 
L 333.166388 126.564639 
L 333.491368 126.765333 
L 333.816347 124.642482 
L 334.141327 124.302736 
L 334.466306 123.202282 
L 334.791286 123.833042 
L 335.441245 121.632168 
L 335.766224 121.423979 
L 336.091204 121.02991 
L 336.416183 120.985858 
L 336.741163 120.02849 
L 337.066143 119.664291 
L 337.391122 118.775965 
L 337.716102 119.721514 
L 338.041081 117.902897 
L 338.366061 119.017562 
L 338.69104 118.467665 
L 339.01602 118.630449 
L 339.340999 118.062549 
L 339.990958 116.032319 
L 340.315938 115.512438 
L 340.965897 113.50517 
L 341.615856 112.002217 
L 341.940835 111.581015 
L 342.265815 109.232136 
L 342.590794 108.87653 
L 342.915774 108.007783 
L 343.565733 107.068013 
L 343.890713 105.885114 
L 344.215692 107.013909 
L 344.865651 104.194034 
L 345.190631 103.924923 
L 345.51561 102.821216 
L 345.84059 103.250313 
L 346.165569 102.794774 
L 346.490549 101.135465 
L 346.815528 100.756268 
L 347.465487 98.35223 
L 347.790467 98.183273 
L 348.115446 96.190151 
L 348.440426 97.59034 
L 348.765405 96.411291 
L 350.390303 94.026154 
L 350.715283 91.788756 
L 351.040262 90.50221 
L 351.365242 89.941284 
L 351.690221 88.173723 
L 352.015201 88.268775 
L 352.34018 86.07728 
L 352.66516 87.026303 
L 353.315119 84.378559 
L 353.640098 84.998011 
L 353.965078 84.529093 
L 354.290057 84.412318 
L 354.615037 84.419721 
L 354.940016 83.591325 
L 355.264996 83.294295 
L 355.589975 83.762105 
L 355.914955 83.916169 
L 356.239934 83.541725 
L 356.564914 82.372178 
L 356.889894 83.33206 
L 357.214873 82.600329 
L 357.539853 82.944183 
L 357.864832 83.527379 
L 358.189812 83.479967 
L 358.514791 84.522048 
L 358.839771 83.870659 
L 359.16475 82.800955 
L 359.48973 82.674731 
L 359.814709 82.717877 
L 360.139689 81.667647 
L 360.464668 81.975942 
L 360.789648 81.39886 
L 361.114627 80.541319 
L 361.439607 80.076962 
L 361.764586 79.045977 
L 362.089566 79.318974 
L 362.414545 79.837388 
L 362.739525 79.804264 
L 363.064505 81.130537 
L 363.389484 80.326081 
L 363.714464 80.482611 
L 364.039443 81.526607 
L 364.364423 80.503926 
L 364.689402 81.006881 
L 365.014382 81.868452 
L 366.3143 82.494106 
L 366.639279 83.862718 
L 366.964259 83.42283 
L 367.289238 83.676035 
L 367.614218 83.071615 
L 368.264177 83.865506 
L 368.589156 82.649723 
L 369.239115 84.323161 
L 369.564095 84.579652 
L 369.889075 86.141624 
L 370.214054 85.377504 
L 370.539034 86.611771 
L 370.864013 88.411277 
L 371.188993 87.370692 
L 371.513972 88.161852 
L 371.838952 88.31867 
L 372.488911 90.746819 
L 372.81389 90.364039 
L 373.463849 90.701331 
L 373.788829 89.995605 
L 374.113808 91.5086 
L 374.438788 90.061129 
L 375.088747 93.196905 
L 375.413726 91.651527 
L 375.738706 91.923464 
L 376.063686 92.765502 
L 376.388665 92.413498 
L 376.713645 91.371548 
L 377.038624 92.01058 
L 377.363604 92.948572 
L 377.688583 92.123453 
L 378.013563 91.632052 
L 378.338542 91.99904 
L 378.663522 90.34579 
L 378.988501 92.333341 
L 379.313481 92.943123 
L 379.63846 92.814082 
L 379.96344 93.214598 
L 380.288419 94.011229 
L 380.613399 94.04484 
L 380.938378 92.480713 
L 381.263358 92.749253 
L 381.588337 92.557134 
L 381.913317 91.490882 
L 382.238296 92.016124 
L 382.563276 91.305627 
L 383.213235 89.022274 
L 383.538215 88.811715 
L 383.863194 89.073171 
L 384.188174 88.823901 
L 384.513153 89.731277 
L 384.838133 88.350439 
L 385.163112 88.80775 
L 385.488092 88.795222 
L 385.813071 86.979725 
L 386.138051 86.476297 
L 386.46303 86.762355 
L 386.78801 86.437433 
L 387.112989 86.652737 
L 387.437969 85.283882 
L 388.087928 84.062057 
L 388.412907 82.539234 
L 388.737887 83.375623 
L 389.062867 82.789076 
L 389.387846 83.537392 
L 390.687764 78.804232 
L 391.337723 77.171556 
L 391.662703 75.796525 
L 391.987682 75.223502 
L 392.637641 71.199028 
L 393.2876 71.002978 
L 393.61258 71.010884 
L 393.937559 70.093421 
L 394.262539 67.978236 
L 394.587518 67.639902 
L 395.237477 65.135264 
L 395.562457 64.357987 
L 395.887437 63.91483 
L 396.212416 64.483495 
L 397.512334 58.099177 
L 398.162293 56.748338 
L 398.487273 55.057052 
L 398.487273 55.057052 
" clip-path="url(#pa24ed17968)" style="fill: none; stroke: #ff7f0e; stroke-width: 1.5; stroke-linecap: square"/>
   </g>
   <g id="patch_3">
    <path d="M 57.6 307.584 
L 57.6 41.472 
" style="fill: none; stroke: #000000; stroke-width: 0.8; stroke-linejoin: miter; stroke-linecap: square"/>
   </g>
   <g id="patch_4">
    <path d="M 414.72 307.584 
L 414.72 41.472 
" style="fill: none; stroke: #000000; stroke-width: 0.8; stroke-linejoin: miter; stroke-linecap: square"/>
   </g>
   <g id="patch_5">
    <path d="M 57.6 307.584 
L 414.72 307.584 
" style="fill: none; stroke: #000000; stroke-width: 0.8; stroke-linejoin: miter; stroke-linecap: square"/>
   </g>
   <g id="patch_6">
    <path d="M 57.6 41.472 
L 414.72 41.472 
" style="fill: none; stroke: #000000; stroke-width: 0.8; stroke-linejoin: miter; stroke-linecap: square"/>
   </g>
   <g id="text_16">
    <!-- Serie timp cu predictii -->
    <g transform="translate(170.045625 35.472) scale(0.12 -0.12)">
     <defs>
      <path id="DejaVuSans-53" d="M 3425 4513 
L 3425 3897 
Q 3066 4069 2747 4153 
Q 2428 4238 2131 4238 
Q 1616 4238 1336 4038 
Q 1056 3838 1056 3469 
Q 1056 3159 1242 3001 
Q 1428 2844 1947 2747 
L 2328 2669 
Q 3034 2534 3370 2195 
Q 3706 1856 3706 1288 
Q 3706 609 3251 259 
Q 2797 -91 1919 -91 
Q 1588 -91 1214 -16 
Q 841 59 441 206 
L 441 856 
Q 825 641 1194 531 
Q 1563 422 1919 422 
Q 2459 422 2753 634 
Q 3047 847 3047 1241 
Q 3047 1584 2836 1778 
Q 2625 1972 2144 2069 
L 1759 2144 
Q 1053 2284 737 2584 
Q 422 2884 422 3419 
Q 422 4038 858 4394 
Q 1294 4750 2059 4750 
Q 2388 4750 2728 4690 
Q 3069 4631 3425 4513 
z
" transform="scale(0.015625)"/>
      <path id="DejaVuSans-6d" d="M 3328 2828 
Q 3544 3216 3844 3400 
Q 4144 3584 4550 3584 
Q 5097 3584 5394 3201 
Q 5691 2819 5691 2113 
L 5691 0 
L 5113 0 
L 5113 2094 
Q 5113 2597 4934 2840 
Q 4756 3084 4391 3084 
Q 3944 3084 3684 2787 
Q 3425 2491 3425 1978 
L 3425 0 
L 2847 0 
L 2847 2094 
Q 2847 2600 2669 2842 
Q 2491 3084 2119 3084 
Q 1678 3084 1418 2786 
Q 1159 2488 1159 1978 
L 1159 0 
L 581 0 
L 581 3500 
L 1159 3500 
L 1159 2956 
Q 1356 3278 1631 3431 
Q 1906 3584 2284 3584 
Q 2666 3584 2933 3390 
Q 3200 3197 3328 2828 
z
" transform="scale(0.015625)"/>
      <path id="DejaVuSans-70" d="M 1159 525 
L 1159 -1331 
L 581 -1331 
L 581 3500 
L 1159 3500 
L 1159 2969 
Q 1341 3281 1617 3432 
Q 1894 3584 2278 3584 
Q 2916 3584 3314 3078 
Q 3713 2572 3713 1747 
Q 3713 922 3314 415 
Q 2916 -91 2278 -91 
Q 1894 -91 1617 61 
Q 1341 213 1159 525 
z
M 3116 1747 
Q 3116 2381 2855 2742 
Q 2594 3103 2138 3103 
Q 1681 3103 1420 2742 
Q 1159 2381 1159 1747 
Q 1159 1113 1420 752 
Q 1681 391 2138 391 
Q 2594 391 2855 752 
Q 3116 1113 3116 1747 
z
" transform="scale(0.015625)"/>
      <path id="DejaVuSans-63" d="M 3122 3366 
L 3122 2828 
Q 2878 2963 2633 3030 
Q 2388 3097 2138 3097 
Q 1578 3097 1268 2742 
Q 959 2388 959 1747 
Q 959 1106 1268 751 
Q 1578 397 2138 397 
Q 2388 397 2633 464 
Q 2878 531 3122 666 
L 3122 134 
Q 2881 22 2623 -34 
Q 2366 -91 2075 -91 
Q 1284 -91 818 406 
Q 353 903 353 1747 
Q 353 2603 823 3093 
Q 1294 3584 2113 3584 
Q 2378 3584 2631 3529 
Q 2884 3475 3122 3366 
z
" transform="scale(0.015625)"/>
      <path id="DejaVuSans-75" d="M 544 1381 
L 544 3500 
L 1119 3500 
L 1119 1403 
Q 1119 906 1312 657 
Q 1506 409 1894 409 
Q 2359 409 2629 706 
Q 2900 1003 2900 1516 
L 2900 3500 
L 3475 3500 
L 3475 0 
L 2900 0 
L 2900 538 
Q 2691 219 2414 64 
Q 2138 -91 1772 -91 
Q 1169 -91 856 284 
Q 544 659 544 1381 
z
M 1991 3584 
L 1991 3584 
z
" transform="scale(0.015625)"/>
     </defs>
     <use xlink:href="#DejaVuSans-53"/>
     <use xlink:href="#DejaVuSans-65" x="63.476562"/>
     <use xlink:href="#DejaVuSans-72" x="125"/>
     <use xlink:href="#DejaVuSans-69" x="166.113281"/>
     <use xlink:href="#DejaVuSans-65" x="193.896484"/>
     <use xlink:href="#DejaVuSans-20" x="255.419922"/>
     <use xlink:href="#DejaVuSans-74" x="287.207031"/>
     <use xlink:href="#DejaVuSans-69" x="326.416016"/>
     <use xlink:href="#DejaVuSans-6d" x="354.199219"/>
     <use xlink:href="#DejaVuSans-70" x="451.611328"/>
     <use xlink:href="#DejaVuSans-20" x="515.087891"/>
     <use xlink:href="#DejaVuSans-63" x="546.875"/>
     <use xlink:href="#DejaVuSans-75" x="601.855469"/>
     <use xlink:href="#DejaVuSans-20" x="665.234375"/>
     <use xlink:href="#DejaVuSans-70" x="697.021484"/>
     <use xlink:href="#DejaVuSans-72" x="760.498047"/>
     <use xlink:href="#DejaVuSans-65" x="799.361328"/>
     <use xlink:href="#DejaVuSans-64" x="860.884766"/>
     <use xlink:href="#DejaVuSans-69" x="924.361328"/>
     <use xlink:href="#DejaVuSans-63" x="952.144531"/>
     <use xlink:href="#DejaVuSans-74" x="1007.125"/>
     <use xlink:href="#DejaVuSans-69" x="1046.333984"/>
     <use xlink:href="#DejaVuSans-69" x="1074.117188"/>
    </g>
   </g>
   <g id="legend_1">
    <g id="patch_7">
     <path d="M 64.6 78.82825 
L 236.907813 78.82825 
Q 238.907813 78.82825 238.907813 76.82825 
L 238.907813 48.472 
Q 238.907813 46.472 236.907813 46.472 
L 64.6 46.472 
Q 62.6 46.472 62.6 48.472 
L 62.6 76.82825 
Q 62.6 78.82825 64.6 78.82825 
z
" style="fill: #ffffff; opacity: 0.8; stroke: #cccccc; stroke-linejoin: miter"/>
    </g>
    <g id="line2d_16">
     <path d="M 66.6 54.570437 
L 76.6 54.570437 
L 86.6 54.570437 
" style="fill: none; stroke: #1f77b4; stroke-width: 1.5; stroke-linecap: square"/>
    </g>
    <g id="text_17">
     <!-- Serie timp originala -->
     <g transform="translate(94.6 58.070437) scale(0.1 -0.1)">
      <defs>
       <path id="DejaVuSans-67" d="M 2906 1791 
Q 2906 2416 2648 2759 
Q 2391 3103 1925 3103 
Q 1463 3103 1205 2759 
Q 947 2416 947 1791 
Q 947 1169 1205 825 
Q 1463 481 1925 481 
Q 2391 481 2648 825 
Q 2906 1169 2906 1791 
z
M 3481 434 
Q 3481 -459 3084 -895 
Q 2688 -1331 1869 -1331 
Q 1566 -1331 1297 -1286 
Q 1028 -1241 775 -1147 
L 775 -588 
Q 1028 -725 1275 -790 
Q 1522 -856 1778 -856 
Q 2344 -856 2625 -561 
Q 2906 -266 2906 331 
L 2906 616 
Q 2728 306 2450 153 
Q 2172 0 1784 0 
Q 1141 0 747 490 
Q 353 981 353 1791 
Q 353 2603 747 3093 
Q 1141 3584 1784 3584 
Q 2172 3584 2450 3431 
Q 2728 3278 2906 2969 
L 2906 3500 
L 3481 3500 
L 3481 434 
z
" transform="scale(0.015625)"/>
      </defs>
      <use xlink:href="#DejaVuSans-53"/>
      <use xlink:href="#DejaVuSans-65" x="63.476562"/>
      <use xlink:href="#DejaVuSans-72" x="125"/>
      <use xlink:href="#DejaVuSans-69" x="166.113281"/>
      <use xlink:href="#DejaVuSans-65" x="193.896484"/>
      <use xlink:href="#DejaVuSans-20" x="255.419922"/>
      <use xlink:href="#DejaVuSans-74" x="287.207031"/>
      <use xlink:href="#DejaVuSans-69" x="326.416016"/>
      <use xlink:href="#DejaVuSans-6d" x="354.199219"/>
      <use xlink:href="#DejaVuSans-70" x="451.611328"/>
      <use xlink:href="#DejaVuSans-20" x="515.087891"/>
      <use xlink:href="#DejaVuSans-6f" x="546.875"/>
      <use xlink:href="#DejaVuSans-72" x="608.056641"/>
      <use xlink:href="#DejaVuSans-69" x="649.169922"/>
      <use xlink:href="#DejaVuSans-67" x="676.953125"/>
      <use xlink:href="#DejaVuSans-69" x="740.429688"/>
      <use xlink:href="#DejaVuSans-6e" x="768.212891"/>
      <use xlink:href="#DejaVuSans-61" x="831.591797"/>
      <use xlink:href="#DejaVuSans-6c" x="892.871094"/>
      <use xlink:href="#DejaVuSans-61" x="920.654297"/>
     </g>
    </g>
    <g id="line2d_17">
     <path d="M 66.6 69.248562 
L 76.6 69.248562 
L 86.6 69.248562 
" style="fill: none; stroke: #ff7f0e; stroke-width: 1.5; stroke-linecap: square"/>
    </g>
    <g id="text_18">
     <!-- Valori prezise pentru p = 32 -->
     <g transform="translate(94.6 72.748562) scale(0.1 -0.1)">
      <defs>
       <path id="DejaVuSans-7a" d="M 353 3500 
L 3084 3500 
L 3084 2975 
L 922 459 
L 3084 459 
L 3084 0 
L 275 0 
L 275 525 
L 2438 3041 
L 353 3041 
L 353 3500 
z
" transform="scale(0.015625)"/>
       <path id="DejaVuSans-3d" d="M 678 2906 
L 4684 2906 
L 4684 2381 
L 678 2381 
L 678 2906 
z
M 678 1631 
L 4684 1631 
L 4684 1100 
L 678 1100 
L 678 1631 
z
" transform="scale(0.015625)"/>
      </defs>
      <use xlink:href="#DejaVuSans-56"/>
      <use xlink:href="#DejaVuSans-61" x="60.658203"/>
      <use xlink:href="#DejaVuSans-6c" x="121.9375"/>
      <use xlink:href="#DejaVuSans-6f" x="149.720703"/>
      <use xlink:href="#DejaVuSans-72" x="210.902344"/>
      <use xlink:href="#DejaVuSans-69" x="252.015625"/>
      <use xlink:href="#DejaVuSans-20" x="279.798828"/>
      <use xlink:href="#DejaVuSans-70" x="311.585938"/>
      <use xlink:href="#DejaVuSans-72" x="375.0625"/>
      <use xlink:href="#DejaVuSans-65" x="413.925781"/>
      <use xlink:href="#DejaVuSans-7a" x="475.449219"/>
      <use xlink:href="#DejaVuSans-69" x="527.939453"/>
      <use xlink:href="#DejaVuSans-73" x="555.722656"/>
      <use xlink:href="#DejaVuSans-65" x="607.822266"/>
      <use xlink:href="#DejaVuSans-20" x="669.345703"/>
      <use xlink:href="#DejaVuSans-70" x="701.132812"/>
      <use xlink:href="#DejaVuSans-65" x="764.609375"/>
      <use xlink:href="#DejaVuSans-6e" x="826.132812"/>
      <use xlink:href="#DejaVuSans-74" x="889.511719"/>
      <use xlink:href="#DejaVuSans-72" x="928.720703"/>
      <use xlink:href="#DejaVuSans-75" x="969.833984"/>
      <use xlink:href="#DejaVuSans-20" x="1033.212891"/>
      <use xlink:href="#DejaVuSans-70" x="1065"/>
      <use xlink:href="#DejaVuSans-20" x="1128.476562"/>
      <use xlink:href="#DejaVuSans-3d" x="1160.263672"/>
      <use xlink:href="#DejaVuSans-20" x="1244.052734"/>
      <use xlink:href="#DejaVuSans-33" x="1275.839844"/>
      <use xlink:href="#DejaVuSans-32" x="1339.462891"/>
     </g>
    </g>
   </g>
  </g>
 </g>
 <defs>
  <clipPath id="pa24ed17968">
   <rect x="57.6" y="41.472" width="357.12" height="266.112"/>
  </clipPath>
 </defs>
</svg>
