<?xml version="1.0" encoding="utf-8" standalone="no"?>
<!DOCTYPE svg PUBLIC "-//W3C//DTD SVG 1.1//EN"
  "http://www.w3.org/Graphics/SVG/1.1/DTD/svg11.dtd">
<svg xmlns:xlink="http://www.w3.org/1999/xlink" width="460.8pt" height="345.6pt" viewBox="0 0 460.8 345.6" xmlns="http://www.w3.org/2000/svg" version="1.1">
 <metadata>
  <rdf:RDF xmlns:dc="http://purl.org/dc/elements/1.1/" xmlns:cc="http://creativecommons.org/ns#" xmlns:rdf="http://www.w3.org/1999/02/22-rdf-syntax-ns#">
   <cc:Work>
    <dc:type rdf:resource="http://purl.org/dc/dcmitype/StillImage"/>
    <dc:date>2024-12-18T18:37:53.794745</dc:date>
    <dc:format>image/svg+xml</dc:format>
    <dc:creator>
     <cc:Agent>
      <dc:title>Matplotlib v3.9.2, https://matplotlib.org/</dc:title>
     </cc:Agent>
    </dc:creator>
   </cc:Work>
  </rdf:RDF>
 </metadata>
 <defs>
  <style type="text/css">*{stroke-linejoin: round; stroke-linecap: butt}</style>
 </defs>
 <g id="figure_1">
  <g id="patch_1">
   <path d="M 0 345.6 
L 460.8 345.6 
L 460.8 0 
L 0 0 
z
" style="fill: #ffffff"/>
  </g>
  <g id="axes_1">
   <g id="patch_2">
    <path d="M 57.6 99.322435 
L 414.72 99.322435 
L 414.72 41.472 
L 57.6 41.472 
z
" style="fill: #ffffff"/>
   </g>
   <g id="matplotlib.axis_1">
    <g id="xtick_1">
     <g id="line2d_1">
      <defs>
       <path id="mfbca230e92" d="M 0 0 
L 0 3.5 
" style="stroke: #000000; stroke-width: 0.8"/>
      </defs>
      <g>
       <use xlink:href="#mfbca230e92" x="73.832727" y="99.322435" style="stroke: #000000; stroke-width: 0.8"/>
      </g>
     </g>
     <g id="text_1">
      <!-- 0 -->
      <g transform="translate(70.651477 113.920872) scale(0.1 -0.1)">
       <defs>
        <path id="DejaVuSans-30" d="M 2034 4250 
Q 1547 4250 1301 3770 
Q 1056 3291 1056 2328 
Q 1056 1369 1301 889 
Q 1547 409 2034 409 
Q 2525 409 2770 889 
Q 3016 1369 3016 2328 
Q 3016 3291 2770 3770 
Q 2525 4250 2034 4250 
z
M 2034 4750 
Q 2819 4750 3233 4129 
Q 3647 3509 3647 2328 
Q 3647 1150 3233 529 
Q 2819 -91 2034 -91 
Q 1250 -91 836 529 
Q 422 1150 422 2328 
Q 422 3509 836 4129 
Q 1250 4750 2034 4750 
z
" transform="scale(0.015625)"/>
       </defs>
       <use xlink:href="#DejaVuSans-30"/>
      </g>
     </g>
    </g>
    <g id="xtick_2">
     <g id="line2d_2">
      <g>
       <use xlink:href="#mfbca230e92" x="138.828632" y="99.322435" style="stroke: #000000; stroke-width: 0.8"/>
      </g>
     </g>
     <g id="text_2">
      <!-- 200 -->
      <g transform="translate(129.284882 113.920872) scale(0.1 -0.1)">
       <defs>
        <path id="DejaVuSans-32" d="M 1228 531 
L 3431 531 
L 3431 0 
L 469 0 
L 469 531 
Q 828 903 1448 1529 
Q 2069 2156 2228 2338 
Q 2531 2678 2651 2914 
Q 2772 3150 2772 3378 
Q 2772 3750 2511 3984 
Q 2250 4219 1831 4219 
Q 1534 4219 1204 4116 
Q 875 4013 500 3803 
L 500 4441 
Q 881 4594 1212 4672 
Q 1544 4750 1819 4750 
Q 2544 4750 2975 4387 
Q 3406 4025 3406 3419 
Q 3406 3131 3298 2873 
Q 3191 2616 2906 2266 
Q 2828 2175 2409 1742 
Q 1991 1309 1228 531 
z
" transform="scale(0.015625)"/>
       </defs>
       <use xlink:href="#DejaVuSans-32"/>
       <use xlink:href="#DejaVuSans-30" x="63.623047"/>
       <use xlink:href="#DejaVuSans-30" x="127.246094"/>
      </g>
     </g>
    </g>
    <g id="xtick_3">
     <g id="line2d_3">
      <g>
       <use xlink:href="#mfbca230e92" x="203.824537" y="99.322435" style="stroke: #000000; stroke-width: 0.8"/>
      </g>
     </g>
     <g id="text_3">
      <!-- 400 -->
      <g transform="translate(194.280787 113.920872) scale(0.1 -0.1)">
       <defs>
        <path id="DejaVuSans-34" d="M 2419 4116 
L 825 1625 
L 2419 1625 
L 2419 4116 
z
M 2253 4666 
L 3047 4666 
L 3047 1625 
L 3713 1625 
L 3713 1100 
L 3047 1100 
L 3047 0 
L 2419 0 
L 2419 1100 
L 313 1100 
L 313 1709 
L 2253 4666 
z
" transform="scale(0.015625)"/>
       </defs>
       <use xlink:href="#DejaVuSans-34"/>
       <use xlink:href="#DejaVuSans-30" x="63.623047"/>
       <use xlink:href="#DejaVuSans-30" x="127.246094"/>
      </g>
     </g>
    </g>
    <g id="xtick_4">
     <g id="line2d_4">
      <g>
       <use xlink:href="#mfbca230e92" x="268.820442" y="99.322435" style="stroke: #000000; stroke-width: 0.8"/>
      </g>
     </g>
     <g id="text_4">
      <!-- 600 -->
      <g transform="translate(259.276692 113.920872) scale(0.1 -0.1)">
       <defs>
        <path id="DejaVuSans-36" d="M 2113 2584 
Q 1688 2584 1439 2293 
Q 1191 2003 1191 1497 
Q 1191 994 1439 701 
Q 1688 409 2113 409 
Q 2538 409 2786 701 
Q 3034 994 3034 1497 
Q 3034 2003 2786 2293 
Q 2538 2584 2113 2584 
z
M 3366 4563 
L 3366 3988 
Q 3128 4100 2886 4159 
Q 2644 4219 2406 4219 
Q 1781 4219 1451 3797 
Q 1122 3375 1075 2522 
Q 1259 2794 1537 2939 
Q 1816 3084 2150 3084 
Q 2853 3084 3261 2657 
Q 3669 2231 3669 1497 
Q 3669 778 3244 343 
Q 2819 -91 2113 -91 
Q 1303 -91 875 529 
Q 447 1150 447 2328 
Q 447 3434 972 4092 
Q 1497 4750 2381 4750 
Q 2619 4750 2861 4703 
Q 3103 4656 3366 4563 
z
" transform="scale(0.015625)"/>
       </defs>
       <use xlink:href="#DejaVuSans-36"/>
       <use xlink:href="#DejaVuSans-30" x="63.623047"/>
       <use xlink:href="#DejaVuSans-30" x="127.246094"/>
      </g>
     </g>
    </g>
    <g id="xtick_5">
     <g id="line2d_5">
      <g>
       <use xlink:href="#mfbca230e92" x="333.816347" y="99.322435" style="stroke: #000000; stroke-width: 0.8"/>
      </g>
     </g>
     <g id="text_5">
      <!-- 800 -->
      <g transform="translate(324.272597 113.920872) scale(0.1 -0.1)">
       <defs>
        <path id="DejaVuSans-38" d="M 2034 2216 
Q 1584 2216 1326 1975 
Q 1069 1734 1069 1313 
Q 1069 891 1326 650 
Q 1584 409 2034 409 
Q 2484 409 2743 651 
Q 3003 894 3003 1313 
Q 3003 1734 2745 1975 
Q 2488 2216 2034 2216 
z
M 1403 2484 
Q 997 2584 770 2862 
Q 544 3141 544 3541 
Q 544 4100 942 4425 
Q 1341 4750 2034 4750 
Q 2731 4750 3128 4425 
Q 3525 4100 3525 3541 
Q 3525 3141 3298 2862 
Q 3072 2584 2669 2484 
Q 3125 2378 3379 2068 
Q 3634 1759 3634 1313 
Q 3634 634 3220 271 
Q 2806 -91 2034 -91 
Q 1263 -91 848 271 
Q 434 634 434 1313 
Q 434 1759 690 2068 
Q 947 2378 1403 2484 
z
M 1172 3481 
Q 1172 3119 1398 2916 
Q 1625 2713 2034 2713 
Q 2441 2713 2670 2916 
Q 2900 3119 2900 3481 
Q 2900 3844 2670 4047 
Q 2441 4250 2034 4250 
Q 1625 4250 1398 4047 
Q 1172 3844 1172 3481 
z
" transform="scale(0.015625)"/>
       </defs>
       <use xlink:href="#DejaVuSans-38"/>
       <use xlink:href="#DejaVuSans-30" x="63.623047"/>
       <use xlink:href="#DejaVuSans-30" x="127.246094"/>
      </g>
     </g>
    </g>
    <g id="xtick_6">
     <g id="line2d_6">
      <g>
       <use xlink:href="#mfbca230e92" x="398.812252" y="99.322435" style="stroke: #000000; stroke-width: 0.8"/>
      </g>
     </g>
     <g id="text_6">
      <!-- 1000 -->
      <g transform="translate(386.087252 113.920872) scale(0.1 -0.1)">
       <defs>
        <path id="DejaVuSans-31" d="M 794 531 
L 1825 531 
L 1825 4091 
L 703 3866 
L 703 4441 
L 1819 4666 
L 2450 4666 
L 2450 531 
L 3481 531 
L 3481 0 
L 794 0 
L 794 531 
z
" transform="scale(0.015625)"/>
       </defs>
       <use xlink:href="#DejaVuSans-31"/>
       <use xlink:href="#DejaVuSans-30" x="63.623047"/>
       <use xlink:href="#DejaVuSans-30" x="127.246094"/>
       <use xlink:href="#DejaVuSans-30" x="190.869141"/>
      </g>
     </g>
    </g>
   </g>
   <g id="matplotlib.axis_2">
    <g id="ytick_1">
     <g id="line2d_7">
      <defs>
       <path id="mb8a7038b13" d="M 0 0 
L -3.5 0 
" style="stroke: #000000; stroke-width: 0.8"/>
      </defs>
      <g>
       <use xlink:href="#mb8a7038b13" x="57.6" y="79.162435" style="stroke: #000000; stroke-width: 0.8"/>
      </g>
     </g>
     <g id="text_7">
      <!-- 2 -->
      <g transform="translate(44.2375 82.961654) scale(0.1 -0.1)">
       <use xlink:href="#DejaVuSans-32"/>
      </g>
     </g>
    </g>
    <g id="ytick_2">
     <g id="line2d_8">
      <g>
       <use xlink:href="#mb8a7038b13" x="57.6" y="44.101565" style="stroke: #000000; stroke-width: 0.8"/>
      </g>
     </g>
     <g id="text_8">
      <!-- 4 -->
      <g transform="translate(44.2375 47.900784) scale(0.1 -0.1)">
       <use xlink:href="#DejaVuSans-34"/>
      </g>
     </g>
    </g>
   </g>
   <g id="line2d_9">
    <path d="M 73.832727 96.69287 
L 99.831089 93.772773 
L 125.829451 90.627837 
L 151.827813 87.258062 
L 177.826175 83.663448 
L 203.824537 79.843996 
L 229.822899 75.799704 
L 255.821261 71.530573 
L 281.819623 67.036603 
L 307.817985 62.317794 
L 333.816347 57.374146 
L 359.814709 52.205659 
L 385.813071 46.812333 
L 398.487273 44.101565 
L 398.487273 44.101565 
" clip-path="url(#p5d728acd91)" style="fill: none; stroke: #1f77b4; stroke-width: 1.5; stroke-linecap: square"/>
   </g>
   <g id="patch_3">
    <path d="M 57.6 99.322435 
L 57.6 41.472 
" style="fill: none; stroke: #000000; stroke-width: 0.8; stroke-linejoin: miter; stroke-linecap: square"/>
   </g>
   <g id="patch_4">
    <path d="M 414.72 99.322435 
L 414.72 41.472 
" style="fill: none; stroke: #000000; stroke-width: 0.8; stroke-linejoin: miter; stroke-linecap: square"/>
   </g>
   <g id="patch_5">
    <path d="M 57.6 99.322435 
L 414.72 99.322435 
" style="fill: none; stroke: #000000; stroke-width: 0.8; stroke-linejoin: miter; stroke-linecap: square"/>
   </g>
   <g id="patch_6">
    <path d="M 57.6 41.472 
L 414.72 41.472 
" style="fill: none; stroke: #000000; stroke-width: 0.8; stroke-linejoin: miter; stroke-linecap: square"/>
   </g>
   <g id="text_9">
    <!-- Ecuatie grad 2 -->
    <g transform="translate(192.486562 35.472) scale(0.12 -0.12)">
     <defs>
      <path id="DejaVuSans-45" d="M 628 4666 
L 3578 4666 
L 3578 4134 
L 1259 4134 
L 1259 2753 
L 3481 2753 
L 3481 2222 
L 1259 2222 
L 1259 531 
L 3634 531 
L 3634 0 
L 628 0 
L 628 4666 
z
" transform="scale(0.015625)"/>
      <path id="DejaVuSans-63" d="M 3122 3366 
L 3122 2828 
Q 2878 2963 2633 3030 
Q 2388 3097 2138 3097 
Q 1578 3097 1268 2742 
Q 959 2388 959 1747 
Q 959 1106 1268 751 
Q 1578 397 2138 397 
Q 2388 397 2633 464 
Q 2878 531 3122 666 
L 3122 134 
Q 2881 22 2623 -34 
Q 2366 -91 2075 -91 
Q 1284 -91 818 406 
Q 353 903 353 1747 
Q 353 2603 823 3093 
Q 1294 3584 2113 3584 
Q 2378 3584 2631 3529 
Q 2884 3475 3122 3366 
z
" transform="scale(0.015625)"/>
      <path id="DejaVuSans-75" d="M 544 1381 
L 544 3500 
L 1119 3500 
L 1119 1403 
Q 1119 906 1312 657 
Q 1506 409 1894 409 
Q 2359 409 2629 706 
Q 2900 1003 2900 1516 
L 2900 3500 
L 3475 3500 
L 3475 0 
L 2900 0 
L 2900 538 
Q 2691 219 2414 64 
Q 2138 -91 1772 -91 
Q 1169 -91 856 284 
Q 544 659 544 1381 
z
M 1991 3584 
L 1991 3584 
z
" transform="scale(0.015625)"/>
      <path id="DejaVuSans-61" d="M 2194 1759 
Q 1497 1759 1228 1600 
Q 959 1441 959 1056 
Q 959 750 1161 570 
Q 1363 391 1709 391 
Q 2188 391 2477 730 
Q 2766 1069 2766 1631 
L 2766 1759 
L 2194 1759 
z
M 3341 1997 
L 3341 0 
L 2766 0 
L 2766 531 
Q 2569 213 2275 61 
Q 1981 -91 1556 -91 
Q 1019 -91 701 211 
Q 384 513 384 1019 
Q 384 1609 779 1909 
Q 1175 2209 1959 2209 
L 2766 2209 
L 2766 2266 
Q 2766 2663 2505 2880 
Q 2244 3097 1772 3097 
Q 1472 3097 1187 3025 
Q 903 2953 641 2809 
L 641 3341 
Q 956 3463 1253 3523 
Q 1550 3584 1831 3584 
Q 2591 3584 2966 3190 
Q 3341 2797 3341 1997 
z
" transform="scale(0.015625)"/>
      <path id="DejaVuSans-74" d="M 1172 4494 
L 1172 3500 
L 2356 3500 
L 2356 3053 
L 1172 3053 
L 1172 1153 
Q 1172 725 1289 603 
Q 1406 481 1766 481 
L 2356 481 
L 2356 0 
L 1766 0 
Q 1100 0 847 248 
Q 594 497 594 1153 
L 594 3053 
L 172 3053 
L 172 3500 
L 594 3500 
L 594 4494 
L 1172 4494 
z
" transform="scale(0.015625)"/>
      <path id="DejaVuSans-69" d="M 603 3500 
L 1178 3500 
L 1178 0 
L 603 0 
L 603 3500 
z
M 603 4863 
L 1178 4863 
L 1178 4134 
L 603 4134 
L 603 4863 
z
" transform="scale(0.015625)"/>
      <path id="DejaVuSans-65" d="M 3597 1894 
L 3597 1613 
L 953 1613 
Q 991 1019 1311 708 
Q 1631 397 2203 397 
Q 2534 397 2845 478 
Q 3156 559 3463 722 
L 3463 178 
Q 3153 47 2828 -22 
Q 2503 -91 2169 -91 
Q 1331 -91 842 396 
Q 353 884 353 1716 
Q 353 2575 817 3079 
Q 1281 3584 2069 3584 
Q 2775 3584 3186 3129 
Q 3597 2675 3597 1894 
z
M 3022 2063 
Q 3016 2534 2758 2815 
Q 2500 3097 2075 3097 
Q 1594 3097 1305 2825 
Q 1016 2553 972 2059 
L 3022 2063 
z
" transform="scale(0.015625)"/>
      <path id="DejaVuSans-20" transform="scale(0.015625)"/>
      <path id="DejaVuSans-67" d="M 2906 1791 
Q 2906 2416 2648 2759 
Q 2391 3103 1925 3103 
Q 1463 3103 1205 2759 
Q 947 2416 947 1791 
Q 947 1169 1205 825 
Q 1463 481 1925 481 
Q 2391 481 2648 825 
Q 2906 1169 2906 1791 
z
M 3481 434 
Q 3481 -459 3084 -895 
Q 2688 -1331 1869 -1331 
Q 1566 -1331 1297 -1286 
Q 1028 -1241 775 -1147 
L 775 -588 
Q 1028 -725 1275 -790 
Q 1522 -856 1778 -856 
Q 2344 -856 2625 -561 
Q 2906 -266 2906 331 
L 2906 616 
Q 2728 306 2450 153 
Q 2172 0 1784 0 
Q 1141 0 747 490 
Q 353 981 353 1791 
Q 353 2603 747 3093 
Q 1141 3584 1784 3584 
Q 2172 3584 2450 3431 
Q 2728 3278 2906 2969 
L 2906 3500 
L 3481 3500 
L 3481 434 
z
" transform="scale(0.015625)"/>
      <path id="DejaVuSans-72" d="M 2631 2963 
Q 2534 3019 2420 3045 
Q 2306 3072 2169 3072 
Q 1681 3072 1420 2755 
Q 1159 2438 1159 1844 
L 1159 0 
L 581 0 
L 581 3500 
L 1159 3500 
L 1159 2956 
Q 1341 3275 1631 3429 
Q 1922 3584 2338 3584 
Q 2397 3584 2469 3576 
Q 2541 3569 2628 3553 
L 2631 2963 
z
" transform="scale(0.015625)"/>
      <path id="DejaVuSans-64" d="M 2906 2969 
L 2906 4863 
L 3481 4863 
L 3481 0 
L 2906 0 
L 2906 525 
Q 2725 213 2448 61 
Q 2172 -91 1784 -91 
Q 1150 -91 751 415 
Q 353 922 353 1747 
Q 353 2572 751 3078 
Q 1150 3584 1784 3584 
Q 2172 3584 2448 3432 
Q 2725 3281 2906 2969 
z
M 947 1747 
Q 947 1113 1208 752 
Q 1469 391 1925 391 
Q 2381 391 2643 752 
Q 2906 1113 2906 1747 
Q 2906 2381 2643 2742 
Q 2381 3103 1925 3103 
Q 1469 3103 1208 2742 
Q 947 2381 947 1747 
z
" transform="scale(0.015625)"/>
     </defs>
     <use xlink:href="#DejaVuSans-45"/>
     <use xlink:href="#DejaVuSans-63" x="63.183594"/>
     <use xlink:href="#DejaVuSans-75" x="118.164062"/>
     <use xlink:href="#DejaVuSans-61" x="181.542969"/>
     <use xlink:href="#DejaVuSans-74" x="242.822266"/>
     <use xlink:href="#DejaVuSans-69" x="282.03125"/>
     <use xlink:href="#DejaVuSans-65" x="309.814453"/>
     <use xlink:href="#DejaVuSans-20" x="371.337891"/>
     <use xlink:href="#DejaVuSans-67" x="403.125"/>
     <use xlink:href="#DejaVuSans-72" x="466.601562"/>
     <use xlink:href="#DejaVuSans-61" x="507.714844"/>
     <use xlink:href="#DejaVuSans-64" x="568.994141"/>
     <use xlink:href="#DejaVuSans-20" x="632.470703"/>
     <use xlink:href="#DejaVuSans-32" x="664.257812"/>
    </g>
   </g>
  </g>
  <g id="axes_2">
   <g id="patch_7">
    <path d="M 57.6 168.742957 
L 414.72 168.742957 
L 414.72 110.892522 
L 57.6 110.892522 
z
" style="fill: #ffffff"/>
   </g>
   <g id="matplotlib.axis_3">
    <g id="xtick_7">
     <g id="line2d_10">
      <g>
       <use xlink:href="#mfbca230e92" x="73.832727" y="168.742957" style="stroke: #000000; stroke-width: 0.8"/>
      </g>
     </g>
     <g id="text_10">
      <!-- 0 -->
      <g transform="translate(70.651477 183.341394) scale(0.1 -0.1)">
       <use xlink:href="#DejaVuSans-30"/>
      </g>
     </g>
    </g>
    <g id="xtick_8">
     <g id="line2d_11">
      <g>
       <use xlink:href="#mfbca230e92" x="138.828632" y="168.742957" style="stroke: #000000; stroke-width: 0.8"/>
      </g>
     </g>
     <g id="text_11">
      <!-- 200 -->
      <g transform="translate(129.284882 183.341394) scale(0.1 -0.1)">
       <use xlink:href="#DejaVuSans-32"/>
       <use xlink:href="#DejaVuSans-30" x="63.623047"/>
       <use xlink:href="#DejaVuSans-30" x="127.246094"/>
      </g>
     </g>
    </g>
    <g id="xtick_9">
     <g id="line2d_12">
      <g>
       <use xlink:href="#mfbca230e92" x="203.824537" y="168.742957" style="stroke: #000000; stroke-width: 0.8"/>
      </g>
     </g>
     <g id="text_12">
      <!-- 400 -->
      <g transform="translate(194.280787 183.341394) scale(0.1 -0.1)">
       <use xlink:href="#DejaVuSans-34"/>
       <use xlink:href="#DejaVuSans-30" x="63.623047"/>
       <use xlink:href="#DejaVuSans-30" x="127.246094"/>
      </g>
     </g>
    </g>
    <g id="xtick_10">
     <g id="line2d_13">
      <g>
       <use xlink:href="#mfbca230e92" x="268.820442" y="168.742957" style="stroke: #000000; stroke-width: 0.8"/>
      </g>
     </g>
     <g id="text_13">
      <!-- 600 -->
      <g transform="translate(259.276692 183.341394) scale(0.1 -0.1)">
       <use xlink:href="#DejaVuSans-36"/>
       <use xlink:href="#DejaVuSans-30" x="63.623047"/>
       <use xlink:href="#DejaVuSans-30" x="127.246094"/>
      </g>
     </g>
    </g>
    <g id="xtick_11">
     <g id="line2d_14">
      <g>
       <use xlink:href="#mfbca230e92" x="333.816347" y="168.742957" style="stroke: #000000; stroke-width: 0.8"/>
      </g>
     </g>
     <g id="text_14">
      <!-- 800 -->
      <g transform="translate(324.272597 183.341394) scale(0.1 -0.1)">
       <use xlink:href="#DejaVuSans-38"/>
       <use xlink:href="#DejaVuSans-30" x="63.623047"/>
       <use xlink:href="#DejaVuSans-30" x="127.246094"/>
      </g>
     </g>
    </g>
    <g id="xtick_12">
     <g id="line2d_15">
      <g>
       <use xlink:href="#mfbca230e92" x="398.812252" y="168.742957" style="stroke: #000000; stroke-width: 0.8"/>
      </g>
     </g>
     <g id="text_15">
      <!-- 1000 -->
      <g transform="translate(386.087252 183.341394) scale(0.1 -0.1)">
       <use xlink:href="#DejaVuSans-31"/>
       <use xlink:href="#DejaVuSans-30" x="63.623047"/>
       <use xlink:href="#DejaVuSans-30" x="127.246094"/>
       <use xlink:href="#DejaVuSans-30" x="190.869141"/>
      </g>
     </g>
    </g>
   </g>
   <g id="matplotlib.axis_4">
    <g id="ytick_3">
     <g id="line2d_16">
      <g>
       <use xlink:href="#mb8a7038b13" x="57.6" y="166.121858" style="stroke: #000000; stroke-width: 0.8"/>
      </g>
     </g>
     <g id="text_16">
      <!-- 0.0 -->
      <g transform="translate(34.696875 169.921077) scale(0.1 -0.1)">
       <defs>
        <path id="DejaVuSans-2e" d="M 684 794 
L 1344 794 
L 1344 0 
L 684 0 
L 684 794 
z
" transform="scale(0.015625)"/>
       </defs>
       <use xlink:href="#DejaVuSans-30"/>
       <use xlink:href="#DejaVuSans-2e" x="63.623047"/>
       <use xlink:href="#DejaVuSans-30" x="95.410156"/>
      </g>
     </g>
    </g>
    <g id="ytick_4">
     <g id="line2d_17">
      <g>
       <use xlink:href="#mb8a7038b13" x="57.6" y="113.509388" style="stroke: #000000; stroke-width: 0.8"/>
      </g>
     </g>
     <g id="text_17">
      <!-- 0.1 -->
      <g transform="translate(34.696875 117.308607) scale(0.1 -0.1)">
       <use xlink:href="#DejaVuSans-30"/>
       <use xlink:href="#DejaVuSans-2e" x="63.623047"/>
       <use xlink:href="#DejaVuSans-31" x="95.410156"/>
      </g>
     </g>
    </g>
   </g>
   <g id="line2d_18">
    <path d="M 73.832727 123.015874 
L 74.157707 128.544397 
L 74.482686 159.031198 
L 74.807666 121.600111 
L 75.132645 143.644268 
L 75.457625 116.185961 
L 75.782604 164.229353 
L 76.107584 163.030387 
L 76.432563 124.072976 
L 76.757543 145.854481 
L 77.082523 123.930804 
L 77.407502 162.856489 
L 77.732482 123.487324 
L 78.057461 118.447278 
L 78.382441 133.426677 
L 78.70742 121.295697 
L 79.0324 148.005896 
L 79.357379 164.437727 
L 79.682359 143.054551 
L 80.007338 165.363616 
L 80.332318 142.182035 
L 80.657297 134.516378 
L 80.982277 122.115195 
L 81.307256 140.67158 
L 81.632236 136.779178 
L 81.957215 160.408817 
L 82.282195 120.923791 
L 82.607174 149.340396 
L 82.932154 131.178272 
L 83.257133 123.611502 
L 83.582113 152.571022 
L 83.907093 138.62534 
L 84.232072 130.081726 
L 84.557052 156.699439 
L 84.882031 115.815526 
L 85.207011 158.804649 
L 85.53199 160.545188 
L 86.181949 144.65701 
L 86.506929 114.767866 
L 86.831908 129.008289 
L 87.156888 163.557204 
L 87.481867 120.995959 
L 87.806847 134.918428 
L 88.131826 158.692389 
L 88.456806 159.608011 
L 88.781785 113.944046 
L 89.106765 161.558961 
L 89.431744 148.990737 
L 89.756724 151.108114 
L 90.081704 137.416386 
L 90.406683 134.8474 
L 90.731663 154.197809 
L 91.056642 128.116511 
L 91.381622 154.712488 
L 91.706601 148.188022 
L 92.031581 117.529507 
L 92.35656 123.499509 
L 92.68154 144.076972 
L 93.006519 113.820364 
L 93.331499 141.532719 
L 93.656478 116.828297 
L 94.306437 157.611485 
L 94.631417 115.305519 
L 94.956396 114.714652 
L 95.281376 121.921858 
L 95.931335 161.388615 
L 96.256314 146.083214 
L 96.581294 120.916876 
L 96.906274 124.467825 
L 97.231253 130.959453 
L 97.556233 161.394513 
L 97.881212 154.214908 
L 98.206192 118.573914 
L 98.531171 124.215672 
L 98.856151 138.241463 
L 99.18113 126.668091 
L 99.50611 152.002227 
L 99.831089 135.855132 
L 100.156069 128.556954 
L 100.481048 130.909991 
L 100.806028 150.424065 
L 101.131007 138.209876 
L 101.455987 160.367421 
L 101.780966 152.626657 
L 102.430925 123.548207 
L 103.080885 162.894781 
L 103.405864 128.605018 
L 103.730844 129.76188 
L 104.055823 150.431778 
L 104.380803 137.217032 
L 104.705782 141.228759 
L 105.030762 132.810894 
L 105.355741 138.415195 
L 105.680721 157.530384 
L 106.0057 116.341075 
L 106.33068 165.429611 
L 106.655659 131.403641 
L 106.980639 116.464507 
L 107.305618 131.237204 
L 107.630598 156.38326 
L 107.955577 115.777672 
L 108.280557 125.130399 
L 108.605536 159.867088 
L 108.930516 117.230337 
L 109.255495 144.530751 
L 109.580475 152.096272 
L 109.905455 148.497744 
L 110.230434 114.432868 
L 110.555414 136.737166 
L 110.880393 129.312669 
L 111.205373 164.134924 
L 111.530352 144.180481 
L 111.855332 156.384983 
L 112.180311 115.324082 
L 112.505291 155.528027 
L 112.83027 124.670001 
L 113.15525 142.023673 
L 113.480229 118.751222 
L 113.805209 151.589598 
L 114.130188 159.0232 
L 114.455168 120.462047 
L 115.105127 160.060061 
L 115.430106 154.564611 
L 115.755086 143.095634 
L 116.080066 138.509312 
L 116.405045 149.914185 
L 116.730025 146.875466 
L 117.055004 119.288928 
L 117.379984 164.867564 
L 117.704963 143.935938 
L 118.029943 146.203595 
L 118.354922 115.510817 
L 118.679902 154.219916 
L 119.004881 147.377239 
L 119.329861 147.467896 
L 119.65484 121.735019 
L 119.97982 146.643259 
L 120.629779 121.905113 
L 120.954758 118.432878 
L 121.279738 164.753564 
L 122.254676 132.957768 
L 122.579656 142.45894 
L 123.229615 117.648582 
L 123.554595 125.982634 
L 123.879574 145.904441 
L 124.204554 123.935272 
L 124.529533 158.06256 
L 125.179492 155.632761 
L 125.504472 139.225868 
L 125.829451 149.00025 
L 126.154431 163.711736 
L 126.47941 146.501749 
L 126.80439 162.177247 
L 127.129369 155.982796 
L 127.454349 117.841453 
L 127.779328 163.900437 
L 128.104308 115.853794 
L 128.429287 117.652435 
L 128.754267 120.991514 
L 129.079247 129.229371 
L 129.404226 118.102911 
L 129.729206 161.986231 
L 130.054185 162.024049 
L 130.704144 120.300419 
L 131.029124 122.261223 
L 131.354103 139.366068 
L 131.679083 131.156398 
L 132.004062 145.91533 
L 132.329042 145.443506 
L 132.654021 149.107525 
L 132.979001 118.220257 
L 133.30398 157.589871 
L 133.62896 148.138193 
L 133.953939 117.996113 
L 134.278919 147.436574 
L 134.603898 151.064311 
L 134.928878 116.125871 
L 135.253857 116.191597 
L 135.578837 150.916522 
L 135.903817 150.349939 
L 136.228796 164.38002 
L 136.553776 155.833175 
L 136.878755 113.522087 
L 137.203735 115.321658 
L 137.528714 118.98501 
L 138.178673 133.153637 
L 138.503653 128.053655 
L 138.828632 142.809556 
L 139.153612 144.8177 
L 139.478591 134.362718 
L 139.803571 161.446802 
L 140.12855 115.756293 
L 140.45353 120.014729 
L 140.778509 114.07364 
L 141.103489 143.001033 
L 141.428468 157.124594 
L 141.753448 126.689938 
L 142.078428 165.654275 
L 142.403407 123.34074 
L 142.728387 165.201707 
L 143.053366 149.46233 
L 143.378346 115.124037 
L 143.703325 158.672697 
L 144.028305 162.202793 
L 144.678264 147.360774 
L 145.003243 160.856371 
L 145.328223 148.189012 
L 145.653202 147.028209 
L 145.978182 117.732737 
L 146.303161 117.961147 
L 146.628141 148.844555 
L 146.95312 116.542778 
L 147.2781 148.996324 
L 147.603079 147.39365 
L 147.928059 119.647529 
L 148.253038 149.629635 
L 148.578018 154.635781 
L 148.902998 161.510211 
L 149.227977 132.61339 
L 149.552957 141.11601 
L 149.877936 122.971181 
L 150.527895 133.52097 
L 150.852875 149.556017 
L 151.177854 154.081436 
L 151.502834 132.019238 
L 151.827813 158.649668 
L 152.152793 129.01302 
L 152.477772 144.079582 
L 152.802752 143.968001 
L 153.127731 124.918235 
L 153.452711 157.443068 
L 153.77769 117.374131 
L 154.10267 143.623377 
L 154.427649 141.463919 
L 154.752629 154.318867 
L 155.402588 119.558197 
L 155.727568 124.813936 
L 156.052547 164.728895 
L 156.377527 145.547917 
L 157.027486 131.839128 
L 157.352465 142.414419 
L 157.677445 161.60357 
L 158.002424 155.617812 
L 158.327404 154.631467 
L 158.652383 140.367613 
L 158.977363 120.760703 
L 159.627322 160.062179 
L 159.952301 151.851327 
L 160.277281 153.942211 
L 160.60226 147.8998 
L 160.92724 138.307683 
L 161.252219 154.121347 
L 161.577199 161.1374 
L 161.902179 121.109358 
L 162.227158 159.289552 
L 162.552138 114.270585 
L 162.877117 139.481688 
L 163.202097 120.132573 
L 163.527076 158.834736 
L 163.852056 120.339815 
L 164.502015 153.814496 
L 164.826994 164.596592 
L 165.151974 148.522353 
L 165.476953 115.915749 
L 166.126912 145.202116 
L 166.451892 143.80121 
L 166.776871 147.49208 
L 167.101851 117.238322 
L 167.42683 144.705899 
L 167.75181 139.948093 
L 168.07679 124.619896 
L 168.401769 127.423539 
L 168.726749 132.018785 
L 169.051728 149.051035 
L 169.376708 148.155094 
L 169.701687 144.381848 
L 170.026667 147.216023 
L 170.351646 157.10773 
L 171.001605 137.546204 
L 171.326585 163.118037 
L 171.651564 124.006335 
L 171.976544 161.810675 
L 172.301523 142.306984 
L 172.626503 142.740682 
L 172.951482 114.93484 
L 173.276462 161.626467 
L 173.601441 156.645754 
L 173.926421 155.264459 
L 174.2514 132.007157 
L 174.57638 142.570477 
L 174.90136 145.930693 
L 175.226339 119.634866 
L 175.551319 116.816729 
L 175.876298 152.083517 
L 176.201278 164.601272 
L 176.526257 130.389199 
L 176.851237 138.289942 
L 177.176216 163.696022 
L 177.501196 135.120486 
L 177.826175 150.634915 
L 178.151155 133.340518 
L 178.476134 160.50597 
L 178.801114 158.729653 
L 179.126093 163.628692 
L 179.451073 141.116617 
L 179.776052 143.810457 
L 180.426011 120.617125 
L 180.750991 156.327359 
L 181.075971 120.697433 
L 181.72593 152.272996 
L 182.050909 136.257209 
L 182.375889 158.21056 
L 182.700868 118.54079 
L 183.025848 156.071456 
L 183.350827 115.492492 
L 183.675807 142.95677 
L 184.000786 138.485536 
L 184.325766 117.711212 
L 184.650745 126.87168 
L 184.975725 117.285403 
L 185.300704 127.671877 
L 185.625684 155.495636 
L 185.950663 118.479366 
L 186.275643 132.363206 
L 186.600622 132.572825 
L 186.925602 130.55745 
L 187.250581 120.326514 
L 187.575561 114.781124 
L 187.900541 165.921182 
L 188.5505 114.2984 
L 188.875479 155.558072 
L 189.200459 157.793086 
L 189.525438 138.874166 
L 189.850418 143.533088 
L 190.175397 163.70196 
L 190.500377 153.402897 
L 190.825356 158.883023 
L 191.150336 115.427719 
L 191.475315 120.470946 
L 191.800295 116.317712 
L 192.125274 155.718467 
L 192.450254 153.386839 
L 192.775233 121.133731 
L 193.100213 158.293818 
L 193.425192 129.437419 
L 193.750172 134.104153 
L 194.075152 134.738585 
L 194.400131 116.314303 
L 194.725111 121.873576 
L 195.05009 147.549567 
L 195.37507 160.539055 
L 195.700049 139.652342 
L 196.025029 164.248824 
L 196.350008 121.01441 
L 196.674988 126.328829 
L 196.999967 142.086076 
L 197.324947 141.980776 
L 197.649926 157.606996 
L 197.974906 136.710171 
L 198.299885 126.735819 
L 198.624865 155.685838 
L 198.949844 127.269271 
L 199.274824 166.093569 
L 199.599803 123.555644 
L 199.924783 154.166377 
L 200.249762 157.186988 
L 200.574742 150.698542 
L 200.899722 152.087255 
L 201.224701 142.202993 
L 201.549681 128.041628 
L 201.87466 159.418712 
L 202.19964 123.51141 
L 202.524619 155.733135 
L 202.849599 152.186889 
L 203.174578 150.81611 
L 203.499558 124.591853 
L 203.824537 163.423089 
L 204.474496 141.288267 
L 204.799476 165.937867 
L 205.124455 146.862899 
L 205.449435 154.868011 
L 205.774414 127.966635 
L 206.099394 124.449018 
L 206.424373 153.543857 
L 206.749353 163.02512 
L 207.399312 129.392797 
L 207.724292 144.038191 
L 208.049271 139.01601 
L 208.374251 163.923937 
L 208.69923 121.475453 
L 209.02421 140.10914 
L 209.349189 125.320115 
L 209.674169 154.757397 
L 209.999148 153.001828 
L 210.324128 164.997842 
L 210.649107 149.165389 
L 210.974087 127.167439 
L 211.299066 134.97213 
L 211.624046 118.220032 
L 211.949025 126.586422 
L 212.274005 117.94121 
L 212.598984 115.056618 
L 212.923964 125.226335 
L 213.248943 117.147171 
L 213.573923 157.193734 
L 213.898903 116.844719 
L 214.223882 150.674448 
L 214.548862 122.914056 
L 214.873841 163.418381 
L 215.198821 134.076596 
L 215.5238 119.540269 
L 215.84878 162.17734 
L 216.173759 136.524501 
L 216.498739 143.308655 
L 216.823718 156.98034 
L 217.148698 136.727862 
L 217.473677 128.048068 
L 217.798657 151.020829 
L 218.123636 158.13101 
L 218.448616 122.341429 
L 218.773595 161.470612 
L 219.098575 116.526857 
L 219.423554 119.695925 
L 219.748534 126.483354 
L 220.073514 118.117105 
L 220.398493 129.740867 
L 220.723473 125.490249 
L 221.048452 115.081256 
L 221.373432 120.883248 
L 221.698411 123.547322 
L 222.34837 148.923378 
L 222.67335 123.589463 
L 222.998329 128.271014 
L 223.323309 139.622783 
L 223.973268 122.104266 
L 224.298247 114.66306 
L 224.623227 162.31675 
L 224.948206 154.982735 
L 225.273186 136.601248 
L 225.598165 156.220952 
L 225.923145 141.508714 
L 226.248124 133.707627 
L 226.573104 116.375764 
L 226.898084 127.820596 
L 227.223063 119.475766 
L 227.548043 152.618242 
L 227.873022 130.349104 
L 228.198002 149.583136 
L 228.522981 126.832935 
L 228.847961 165.762857 
L 229.17294 160.860315 
L 229.49792 160.789827 
L 229.822899 137.445421 
L 230.147879 144.172591 
L 230.472858 137.513548 
L 230.797838 136.94075 
L 231.122817 134.753365 
L 231.447797 119.322223 
L 231.772776 146.615606 
L 232.097756 144.979312 
L 232.422735 137.996093 
L 232.747715 119.679353 
L 233.072695 130.931871 
L 233.397674 120.82537 
L 233.722654 115.151116 
L 234.047633 153.189706 
L 234.372613 154.752319 
L 234.697592 122.490631 
L 235.022572 129.289773 
L 235.347551 150.511918 
L 235.672531 128.147172 
L 235.99751 142.420275 
L 236.32249 139.732283 
L 236.647469 162.099792 
L 236.972449 145.58963 
L 237.297428 117.532251 
L 237.622408 161.599383 
L 237.947387 148.501934 
L 238.272367 118.834913 
L 238.597346 149.924072 
L 239.247305 116.341211 
L 239.572285 128.821097 
L 239.897265 164.39712 
L 240.222244 127.055328 
L 240.547224 127.077389 
L 240.872203 122.206977 
L 241.197183 125.506063 
L 241.522162 161.158861 
L 241.847142 128.010305 
L 242.172121 129.865185 
L 242.497101 155.147804 
L 242.82208 155.078002 
L 243.14706 158.144255 
L 243.472039 147.431371 
L 243.797019 119.63046 
L 244.121998 145.163624 
L 244.446978 131.479847 
L 244.771957 131.972933 
L 245.096937 126.288402 
L 245.421916 162.441547 
L 245.746896 135.115626 
L 246.071876 137.047752 
L 246.721835 159.834302 
L 247.046814 116.052176 
L 247.371794 135.407898 
L 247.696773 123.705206 
L 248.021753 125.591922 
L 248.346732 114.236809 
L 248.671712 126.333964 
L 248.996691 157.670124 
L 249.321671 133.838689 
L 249.64665 139.928351 
L 249.97163 160.466916 
L 250.296609 151.645309 
L 250.621589 129.76503 
L 250.946568 140.541353 
L 251.271548 124.942423 
L 251.596527 120.023191 
L 251.921507 139.25715 
L 252.246486 145.904402 
L 252.571466 135.366179 
L 252.896446 146.703892 
L 253.221425 166.113391 
L 253.871384 116.0005 
L 254.196364 146.598793 
L 254.521343 154.749035 
L 254.846323 118.071094 
L 255.171302 136.600843 
L 255.496282 122.425477 
L 255.821261 141.553933 
L 256.146241 140.12064 
L 256.47122 122.32835 
L 256.7962 122.504428 
L 257.121179 114.891978 
L 257.446159 120.954646 
L 257.771138 164.034766 
L 258.096118 157.505004 
L 258.421097 144.67743 
L 258.746077 119.794334 
L 259.071057 145.145194 
L 259.396036 123.298849 
L 259.721016 119.552522 
L 260.045995 163.202701 
L 260.370975 150.215833 
L 260.695954 146.742187 
L 261.020934 149.776824 
L 261.345913 131.515847 
L 261.670893 127.587225 
L 261.995872 128.059489 
L 262.320852 114.771186 
L 262.645831 124.631145 
L 262.970811 157.890832 
L 263.29579 162.878864 
L 263.62077 130.019938 
L 263.945749 133.622497 
L 264.270729 123.00357 
L 264.595708 151.355426 
L 264.920688 126.065531 
L 265.245667 125.625898 
L 265.570647 128.569842 
L 265.895627 128.91461 
L 266.220606 128.993582 
L 266.545586 132.326528 
L 266.870565 157.052082 
L 267.195545 114.88851 
L 267.520524 132.671496 
L 267.845504 115.355829 
L 268.495463 149.992384 
L 268.820442 129.719195 
L 269.145422 161.005205 
L 269.470401 136.169447 
L 269.795381 127.805552 
L 270.12036 158.785045 
L 270.44534 165.121005 
L 270.770319 125.108059 
L 271.095299 130.414662 
L 271.420278 144.525619 
L 271.745258 133.601032 
L 272.070238 134.706631 
L 272.395217 155.242287 
L 272.720197 161.625461 
L 273.045176 114.816831 
L 273.370156 129.55445 
L 273.695135 157.267922 
L 274.020115 137.809071 
L 274.345094 137.031311 
L 274.670074 158.187519 
L 274.995053 128.596126 
L 275.320033 142.048425 
L 275.645012 120.609897 
L 275.969992 125.289464 
L 276.294971 149.866244 
L 276.619951 161.298417 
L 276.94493 127.456203 
L 277.26991 129.321682 
L 277.594889 142.999494 
L 277.919869 127.058682 
L 278.244848 164.196665 
L 278.894808 117.881339 
L 279.219787 145.783843 
L 279.544767 150.029998 
L 279.869746 130.610145 
L 280.194726 157.060364 
L 280.519705 130.480537 
L 280.844685 133.84175 
L 281.169664 161.422286 
L 281.819623 127.587822 
L 282.144603 127.76521 
L 282.469582 118.467373 
L 282.794562 146.64012 
L 283.119541 148.104454 
L 283.444521 118.744991 
L 283.7695 153.708964 
L 284.09448 158.727803 
L 284.419459 143.09163 
L 284.744439 140.499471 
L 285.069419 156.460157 
L 285.394398 161.684343 
L 285.719378 119.275065 
L 286.044357 114.350678 
L 286.369337 144.699914 
L 286.694316 120.944048 
L 287.019296 118.999921 
L 287.344275 132.212654 
L 287.669255 126.868825 
L 288.319214 162.171276 
L 288.644193 148.857967 
L 288.969173 124.385625 
L 289.294152 148.068544 
L 289.619132 125.644355 
L 289.944111 163.715323 
L 290.269091 117.999032 
L 290.59407 158.857451 
L 290.91905 130.590921 
L 291.244029 149.625053 
L 291.569009 133.026012 
L 291.893989 139.816636 
L 292.218968 157.368351 
L 292.543948 158.386751 
L 292.868927 154.828006 
L 293.193907 156.96756 
L 293.518886 164.02743 
L 293.843866 135.501914 
L 294.168845 133.369139 
L 294.493825 163.810966 
L 294.818804 114.395312 
L 295.143784 159.298391 
L 295.468763 140.541769 
L 296.118722 162.354191 
L 296.443702 155.218858 
L 296.768681 130.88599 
L 297.093661 130.780007 
L 297.41864 163.761434 
L 297.74362 122.647717 
L 298.0686 159.071123 
L 298.393579 146.83904 
L 298.718559 150.049759 
L 299.043538 128.575315 
L 299.368518 135.363733 
L 299.693497 115.466762 
L 300.018477 159.150039 
L 300.343456 119.368094 
L 300.668436 153.290399 
L 300.993415 161.218936 
L 301.318395 117.053718 
L 301.643374 162.625662 
L 301.968354 160.615367 
L 302.293333 164.159153 
L 302.618313 119.851468 
L 302.943292 122.067203 
L 303.268272 160.528366 
L 303.593251 164.559584 
L 303.918231 139.959797 
L 304.24321 153.534969 
L 304.56819 126.635807 
L 304.89317 132.244878 
L 305.218149 133.839359 
L 305.543129 114.345578 
L 305.868108 127.72494 
L 306.193088 160.021666 
L 306.518067 137.672175 
L 306.843047 158.027273 
L 307.168026 121.125732 
L 307.493006 113.568498 
L 307.817985 145.804294 
L 308.142965 155.660997 
L 308.467944 115.854754 
L 309.117903 162.140108 
L 309.442883 136.053395 
L 309.767862 124.916001 
L 310.092842 156.381208 
L 310.417821 133.12557 
L 310.742801 150.229407 
L 311.067781 137.781132 
L 311.39276 162.531681 
L 311.71774 140.973086 
L 312.042719 146.772906 
L 312.367699 142.505778 
L 313.017658 121.834934 
L 313.342637 158.279713 
L 313.992596 147.000968 
L 314.317576 127.807677 
L 314.967535 153.019759 
L 315.292514 144.103233 
L 315.617494 114.716185 
L 315.942473 125.870265 
L 316.592432 158.609271 
L 316.917412 125.182809 
L 317.242391 127.38627 
L 317.567371 119.856843 
L 317.892351 150.967487 
L 318.54231 116.486645 
L 319.192269 162.647912 
L 319.842228 125.683595 
L 320.167207 156.809468 
L 320.492187 128.268509 
L 320.817166 154.406323 
L 321.142146 165.194206 
L 321.467125 159.89836 
L 321.792105 130.769352 
L 322.117084 136.284033 
L 322.442064 157.225361 
L 322.767043 133.429976 
L 323.092023 137.561379 
L 323.417002 136.65302 
L 323.741982 145.963188 
L 324.066962 126.85001 
L 324.391941 127.767003 
L 324.716921 153.214516 
L 325.0419 155.010926 
L 325.691859 149.846625 
L 326.341818 134.307976 
L 326.666798 156.289189 
L 326.991777 133.594248 
L 327.316757 139.655236 
L 327.641736 154.933659 
L 327.966716 156.14516 
L 328.291695 146.485171 
L 328.616675 118.832765 
L 328.941654 155.38561 
L 329.266634 139.79099 
L 329.591613 164.038167 
L 329.916593 154.781742 
L 330.241572 156.886686 
L 330.566552 155.896439 
L 330.891532 154.187262 
L 331.216511 151.487048 
L 331.541491 131.790792 
L 331.86647 151.414982 
L 332.19145 136.947713 
L 332.516429 159.482679 
L 332.841409 125.105187 
L 333.166388 128.923305 
L 333.491368 123.92977 
L 333.816347 145.074303 
L 334.141327 121.398371 
L 334.466306 154.754221 
L 334.791286 115.483759 
L 335.116265 118.333029 
L 335.441245 147.301796 
L 335.766224 165.079174 
L 336.091204 129.296083 
L 336.416183 126.608895 
L 336.741163 114.524172 
L 337.066143 156.243718 
L 337.391122 156.22022 
L 337.716102 119.618511 
L 338.041081 155.785137 
L 338.366061 165.326631 
L 338.69104 138.886013 
L 339.01602 147.953714 
L 339.340999 128.204719 
L 339.990958 137.034484 
L 340.315938 125.972036 
L 340.640917 139.135016 
L 340.965897 136.41305 
L 341.290876 139.465365 
L 341.615856 163.36365 
L 341.940835 114.270203 
L 342.265815 117.034065 
L 342.590794 141.650365 
L 343.240753 162.863345 
L 343.565733 113.94078 
L 343.890713 157.808887 
L 344.215692 145.105405 
L 344.540672 151.561447 
L 344.865651 129.3247 
L 345.190631 143.679854 
L 345.51561 145.437636 
L 345.84059 155.822324 
L 346.165569 147.492616 
L 346.490549 125.936155 
L 346.815528 132.332464 
L 347.140508 133.858879 
L 347.465487 150.099209 
L 347.790467 132.403913 
L 348.115446 151.840667 
L 348.440426 152.812317 
L 349.090385 164.358589 
L 349.415364 145.395774 
L 349.740344 148.06067 
L 350.065324 144.47591 
L 350.390303 114.415993 
L 350.715283 115.547472 
L 351.040262 130.12087 
L 351.365242 122.085129 
L 351.690221 154.772241 
L 352.015201 123.670286 
L 352.34018 135.392421 
L 352.66516 131.585586 
L 352.990139 115.337739 
L 353.315119 165.666794 
L 353.640098 137.824665 
L 353.965078 123.307213 
L 355.264996 156.129582 
L 355.589975 150.969413 
L 355.914955 124.173409 
L 357.214873 161.112256 
L 357.539853 130.068038 
L 357.864832 159.598078 
L 358.189812 165.520368 
L 358.514791 147.923782 
L 358.839771 122.567459 
L 359.16475 148.193652 
L 359.48973 158.972094 
L 359.814709 116.743958 
L 360.139689 143.959982 
L 360.464668 144.987944 
L 360.789648 123.801147 
L 361.114627 128.138028 
L 361.439607 113.571291 
L 362.089566 155.5701 
L 362.414545 136.839549 
L 362.739525 155.51844 
L 363.389484 121.733309 
L 363.714464 149.726233 
L 364.039443 144.182214 
L 364.364423 126.73705 
L 364.689402 127.234543 
L 365.014382 137.061318 
L 365.339361 154.210081 
L 365.664341 145.287479 
L 365.98932 127.637105 
L 366.3143 159.284329 
L 366.639279 123.261286 
L 366.964259 125.11688 
L 367.289238 118.923764 
L 367.939197 138.4801 
L 368.264177 114.04472 
L 368.589156 124.990943 
L 368.914136 158.743613 
L 369.239115 142.588901 
L 369.564095 160.123647 
L 369.889075 125.291668 
L 370.214054 149.485116 
L 370.539034 157.69926 
L 371.188993 117.541438 
L 371.513972 146.805767 
L 371.838952 161.367695 
L 372.163931 156.429287 
L 372.81389 133.557547 
L 373.13887 136.869297 
L 373.463849 125.901303 
L 373.788829 162.523707 
L 374.113808 123.516444 
L 374.438788 150.625691 
L 374.763767 162.152861 
L 375.088747 127.953546 
L 375.738706 163.696281 
L 376.063686 126.067816 
L 376.388665 115.924549 
L 376.713645 159.628896 
L 377.038624 153.526166 
L 377.363604 116.153999 
L 377.688583 138.339706 
L 378.013563 118.863052 
L 378.663522 152.512105 
L 378.988501 147.976705 
L 379.313481 161.577095 
L 379.63846 153.024724 
L 379.96344 135.890155 
L 380.288419 156.483112 
L 380.938378 119.251827 
L 381.263358 119.219127 
L 381.588337 138.489591 
L 381.913317 148.114398 
L 382.238296 121.376659 
L 382.563276 129.918991 
L 382.888256 114.293778 
L 383.213235 128.594443 
L 383.538215 157.835596 
L 383.863194 131.100983 
L 384.188174 150.611817 
L 384.513153 117.320202 
L 384.838133 161.391832 
L 385.163112 136.209163 
L 385.813071 118.926044 
L 386.46303 164.96859 
L 387.112989 116.969442 
L 387.437969 141.051095 
L 387.762948 134.227345 
L 388.087928 123.965442 
L 388.412907 154.176254 
L 388.737887 149.468153 
L 389.062867 154.254991 
L 389.387846 157.065905 
L 389.712826 121.674478 
L 390.037805 136.702061 
L 390.362785 143.492764 
L 390.687764 141.810524 
L 391.012744 142.773679 
L 391.337723 125.982861 
L 391.662703 123.13009 
L 391.987682 118.792052 
L 392.312662 146.037047 
L 392.637641 144.985315 
L 392.962621 166.005775 
L 393.2876 132.320322 
L 393.61258 153.115865 
L 393.937559 118.648136 
L 394.262539 163.939398 
L 394.587518 135.591676 
L 394.912498 124.212988 
L 395.562457 164.45396 
L 395.887437 165.405253 
L 396.212416 165.071924 
L 396.537396 114.310665 
L 396.862375 151.66579 
L 397.187355 116.058724 
L 397.512334 162.856389 
L 397.837314 123.113008 
L 398.162293 164.157723 
L 398.487273 159.815375 
L 398.487273 159.815375 
" clip-path="url(#p3ad0043b44)" style="fill: none; stroke: #1f77b4; stroke-width: 1.5; stroke-linecap: square"/>
   </g>
   <g id="patch_8">
    <path d="M 57.6 168.742957 
L 57.6 110.892522 
" style="fill: none; stroke: #000000; stroke-width: 0.8; stroke-linejoin: miter; stroke-linecap: square"/>
   </g>
   <g id="patch_9">
    <path d="M 414.72 168.742957 
L 414.72 110.892522 
" style="fill: none; stroke: #000000; stroke-width: 0.8; stroke-linejoin: miter; stroke-linecap: square"/>
   </g>
   <g id="patch_10">
    <path d="M 57.6 168.742957 
L 414.72 168.742957 
" style="fill: none; stroke: #000000; stroke-width: 0.8; stroke-linejoin: miter; stroke-linecap: square"/>
   </g>
   <g id="patch_11">
    <path d="M 57.6 110.892522 
L 414.72 110.892522 
" style="fill: none; stroke: #000000; stroke-width: 0.8; stroke-linejoin: miter; stroke-linecap: square"/>
   </g>
   <g id="text_18">
    <!-- Zgomot -->
    <g transform="translate(212.701875 104.892522) scale(0.12 -0.12)">
     <defs>
      <path id="DejaVuSans-5a" d="M 359 4666 
L 4025 4666 
L 4025 4184 
L 1075 531 
L 4097 531 
L 4097 0 
L 288 0 
L 288 481 
L 3238 4134 
L 359 4134 
L 359 4666 
z
" transform="scale(0.015625)"/>
      <path id="DejaVuSans-6f" d="M 1959 3097 
Q 1497 3097 1228 2736 
Q 959 2375 959 1747 
Q 959 1119 1226 758 
Q 1494 397 1959 397 
Q 2419 397 2687 759 
Q 2956 1122 2956 1747 
Q 2956 2369 2687 2733 
Q 2419 3097 1959 3097 
z
M 1959 3584 
Q 2709 3584 3137 3096 
Q 3566 2609 3566 1747 
Q 3566 888 3137 398 
Q 2709 -91 1959 -91 
Q 1206 -91 779 398 
Q 353 888 353 1747 
Q 353 2609 779 3096 
Q 1206 3584 1959 3584 
z
" transform="scale(0.015625)"/>
      <path id="DejaVuSans-6d" d="M 3328 2828 
Q 3544 3216 3844 3400 
Q 4144 3584 4550 3584 
Q 5097 3584 5394 3201 
Q 5691 2819 5691 2113 
L 5691 0 
L 5113 0 
L 5113 2094 
Q 5113 2597 4934 2840 
Q 4756 3084 4391 3084 
Q 3944 3084 3684 2787 
Q 3425 2491 3425 1978 
L 3425 0 
L 2847 0 
L 2847 2094 
Q 2847 2600 2669 2842 
Q 2491 3084 2119 3084 
Q 1678 3084 1418 2786 
Q 1159 2488 1159 1978 
L 1159 0 
L 581 0 
L 581 3500 
L 1159 3500 
L 1159 2956 
Q 1356 3278 1631 3431 
Q 1906 3584 2284 3584 
Q 2666 3584 2933 3390 
Q 3200 3197 3328 2828 
z
" transform="scale(0.015625)"/>
     </defs>
     <use xlink:href="#DejaVuSans-5a"/>
     <use xlink:href="#DejaVuSans-67" x="68.505859"/>
     <use xlink:href="#DejaVuSans-6f" x="131.982422"/>
     <use xlink:href="#DejaVuSans-6d" x="193.164062"/>
     <use xlink:href="#DejaVuSans-6f" x="290.576172"/>
     <use xlink:href="#DejaVuSans-74" x="351.757812"/>
    </g>
   </g>
  </g>
  <g id="axes_3">
   <g id="patch_12">
    <path d="M 57.6 238.163478 
L 414.72 238.163478 
L 414.72 180.313043 
L 57.6 180.313043 
z
" style="fill: #ffffff"/>
   </g>
   <g id="matplotlib.axis_5">
    <g id="xtick_13">
     <g id="line2d_19">
      <g>
       <use xlink:href="#mfbca230e92" x="73.832727" y="238.163478" style="stroke: #000000; stroke-width: 0.8"/>
      </g>
     </g>
     <g id="text_19">
      <!-- 0 -->
      <g transform="translate(70.651477 252.761916) scale(0.1 -0.1)">
       <use xlink:href="#DejaVuSans-30"/>
      </g>
     </g>
    </g>
    <g id="xtick_14">
     <g id="line2d_20">
      <g>
       <use xlink:href="#mfbca230e92" x="138.828632" y="238.163478" style="stroke: #000000; stroke-width: 0.8"/>
      </g>
     </g>
     <g id="text_20">
      <!-- 200 -->
      <g transform="translate(129.284882 252.761916) scale(0.1 -0.1)">
       <use xlink:href="#DejaVuSans-32"/>
       <use xlink:href="#DejaVuSans-30" x="63.623047"/>
       <use xlink:href="#DejaVuSans-30" x="127.246094"/>
      </g>
     </g>
    </g>
    <g id="xtick_15">
     <g id="line2d_21">
      <g>
       <use xlink:href="#mfbca230e92" x="203.824537" y="238.163478" style="stroke: #000000; stroke-width: 0.8"/>
      </g>
     </g>
     <g id="text_21">
      <!-- 400 -->
      <g transform="translate(194.280787 252.761916) scale(0.1 -0.1)">
       <use xlink:href="#DejaVuSans-34"/>
       <use xlink:href="#DejaVuSans-30" x="63.623047"/>
       <use xlink:href="#DejaVuSans-30" x="127.246094"/>
      </g>
     </g>
    </g>
    <g id="xtick_16">
     <g id="line2d_22">
      <g>
       <use xlink:href="#mfbca230e92" x="268.820442" y="238.163478" style="stroke: #000000; stroke-width: 0.8"/>
      </g>
     </g>
     <g id="text_22">
      <!-- 600 -->
      <g transform="translate(259.276692 252.761916) scale(0.1 -0.1)">
       <use xlink:href="#DejaVuSans-36"/>
       <use xlink:href="#DejaVuSans-30" x="63.623047"/>
       <use xlink:href="#DejaVuSans-30" x="127.246094"/>
      </g>
     </g>
    </g>
    <g id="xtick_17">
     <g id="line2d_23">
      <g>
       <use xlink:href="#mfbca230e92" x="333.816347" y="238.163478" style="stroke: #000000; stroke-width: 0.8"/>
      </g>
     </g>
     <g id="text_23">
      <!-- 800 -->
      <g transform="translate(324.272597 252.761916) scale(0.1 -0.1)">
       <use xlink:href="#DejaVuSans-38"/>
       <use xlink:href="#DejaVuSans-30" x="63.623047"/>
       <use xlink:href="#DejaVuSans-30" x="127.246094"/>
      </g>
     </g>
    </g>
    <g id="xtick_18">
     <g id="line2d_24">
      <g>
       <use xlink:href="#mfbca230e92" x="398.812252" y="238.163478" style="stroke: #000000; stroke-width: 0.8"/>
      </g>
     </g>
     <g id="text_24">
      <!-- 1000 -->
      <g transform="translate(386.087252 252.761916) scale(0.1 -0.1)">
       <use xlink:href="#DejaVuSans-31"/>
       <use xlink:href="#DejaVuSans-30" x="63.623047"/>
       <use xlink:href="#DejaVuSans-30" x="127.246094"/>
       <use xlink:href="#DejaVuSans-30" x="190.869141"/>
      </g>
     </g>
    </g>
   </g>
   <g id="matplotlib.axis_6">
    <g id="ytick_5">
     <g id="line2d_25">
      <g>
       <use xlink:href="#mb8a7038b13" x="57.6" y="233.267406" style="stroke: #000000; stroke-width: 0.8"/>
      </g>
     </g>
     <g id="text_25">
      <!-- −0.25 -->
      <g transform="translate(19.954687 237.066625) scale(0.1 -0.1)">
       <defs>
        <path id="DejaVuSans-2212" d="M 678 2272 
L 4684 2272 
L 4684 1741 
L 678 1741 
L 678 2272 
z
" transform="scale(0.015625)"/>
        <path id="DejaVuSans-35" d="M 691 4666 
L 3169 4666 
L 3169 4134 
L 1269 4134 
L 1269 2991 
Q 1406 3038 1543 3061 
Q 1681 3084 1819 3084 
Q 2600 3084 3056 2656 
Q 3513 2228 3513 1497 
Q 3513 744 3044 326 
Q 2575 -91 1722 -91 
Q 1428 -91 1123 -41 
Q 819 9 494 109 
L 494 744 
Q 775 591 1075 516 
Q 1375 441 1709 441 
Q 2250 441 2565 725 
Q 2881 1009 2881 1497 
Q 2881 1984 2565 2268 
Q 2250 2553 1709 2553 
Q 1456 2553 1204 2497 
Q 953 2441 691 2322 
L 691 4666 
z
" transform="scale(0.015625)"/>
       </defs>
       <use xlink:href="#DejaVuSans-2212"/>
       <use xlink:href="#DejaVuSans-30" x="83.789062"/>
       <use xlink:href="#DejaVuSans-2e" x="147.412109"/>
       <use xlink:href="#DejaVuSans-32" x="179.199219"/>
       <use xlink:href="#DejaVuSans-35" x="242.822266"/>
      </g>
     </g>
    </g>
    <g id="ytick_6">
     <g id="line2d_26">
      <g>
       <use xlink:href="#mb8a7038b13" x="57.6" y="209.238261" style="stroke: #000000; stroke-width: 0.8"/>
      </g>
     </g>
     <g id="text_26">
      <!-- 0.00 -->
      <g transform="translate(28.334375 213.03748) scale(0.1 -0.1)">
       <use xlink:href="#DejaVuSans-30"/>
       <use xlink:href="#DejaVuSans-2e" x="63.623047"/>
       <use xlink:href="#DejaVuSans-30" x="95.410156"/>
       <use xlink:href="#DejaVuSans-30" x="159.033203"/>
      </g>
     </g>
    </g>
    <g id="ytick_7">
     <g id="line2d_27">
      <g>
       <use xlink:href="#mb8a7038b13" x="57.6" y="185.209116" style="stroke: #000000; stroke-width: 0.8"/>
      </g>
     </g>
     <g id="text_27">
      <!-- 0.25 -->
      <g transform="translate(28.334375 189.008334) scale(0.1 -0.1)">
       <use xlink:href="#DejaVuSans-30"/>
       <use xlink:href="#DejaVuSans-2e" x="63.623047"/>
       <use xlink:href="#DejaVuSans-32" x="95.410156"/>
       <use xlink:href="#DejaVuSans-35" x="159.033203"/>
      </g>
     </g>
    </g>
   </g>
   <g id="line2d_28">
    <path d="M 73.832727 209.238261 
L 77.732482 198.669883 
L 79.682359 193.959763 
L 81.307256 190.529292 
L 82.932154 187.655404 
L 84.232072 185.811926 
L 85.53199 184.408172 
L 86.506929 183.657539 
L 87.481867 183.172482 
L 88.456806 182.95544 
L 89.431744 183.005631 
L 90.406683 183.319077 
L 91.381622 183.888658 
L 92.35656 184.704219 
L 93.656478 186.151314 
L 94.956396 187.973816 
L 96.581294 190.70905 
L 98.531171 194.522414 
L 101.131007 200.171563 
L 105.680721 210.152474 
L 107.630598 213.914755 
L 109.255495 216.614682 
L 110.555414 218.426787 
L 111.855332 219.891211 
L 113.15525 220.981622 
L 114.130188 221.543352 
L 115.105127 221.88123 
L 116.080066 221.994664 
L 117.055004 221.886139 
L 118.029943 221.561169 
L 119.004881 221.028212 
L 120.304799 220.013959 
L 121.604717 218.684346 
L 123.229615 216.642868 
L 125.179492 213.764265 
L 128.104308 208.966246 
L 131.354103 203.710844 
L 133.30398 200.971574 
L 134.928878 199.090383 
L 136.228796 197.913701 
L 137.528714 197.070396 
L 138.503653 196.675015 
L 139.478591 196.493581 
L 140.45353 196.532602 
L 141.428468 196.795578 
L 142.403407 197.282947 
L 143.378346 197.992065 
L 144.678264 199.272206 
L 145.978182 200.914321 
L 147.2781 202.887647 
L 148.902998 205.759773 
L 150.852875 209.676678 
L 153.77769 216.114587 
L 157.677445 224.622265 
L 159.627322 228.350853 
L 161.252219 230.991129 
L 162.552138 232.723814 
L 163.852056 234.07074 
L 164.826994 234.805618 
L 165.801933 235.290801 
L 166.776871 235.517133 
L 167.75181 235.478532 
L 168.726749 235.172079 
L 169.701687 234.598067 
L 170.676626 233.760007 
L 171.651564 232.664596 
L 172.951482 230.821118 
L 174.2514 228.569405 
L 175.876298 225.242852 
L 177.826175 220.629139 
L 180.426011 213.749354 
L 186.600622 197.03861 
L 188.5505 192.526763 
L 190.175397 189.307978 
L 191.475315 187.154876 
L 192.775233 185.418737 
L 193.750172 184.408172 
L 194.725111 183.657539 
L 195.700049 183.172482 
L 196.674988 182.95544 
L 197.649926 183.005631 
L 198.624865 183.319077 
L 199.599803 183.888658 
L 200.574742 184.704219 
L 201.87466 186.151314 
L 203.174578 187.973816 
L 204.799476 190.70905 
L 206.749353 194.522414 
L 209.349189 200.171563 
L 213.898903 210.152474 
L 215.84878 213.914755 
L 217.473677 216.614682 
L 218.773595 218.426787 
L 220.073514 219.891211 
L 221.373432 220.981622 
L 222.34837 221.543352 
L 223.323309 221.88123 
L 224.298247 221.994664 
L 225.273186 221.886139 
L 226.248124 221.561169 
L 227.223063 221.028212 
L 228.522981 220.013959 
L 229.822899 218.684346 
L 231.447797 216.642868 
L 233.397674 213.764265 
L 236.32249 208.966246 
L 239.572285 203.710844 
L 241.522162 200.971574 
L 243.14706 199.090383 
L 244.446978 197.913701 
L 245.746896 197.070396 
L 246.721835 196.675015 
L 247.696773 196.493581 
L 248.671712 196.532602 
L 249.64665 196.795578 
L 250.621589 197.282947 
L 251.596527 197.992065 
L 252.896446 199.272206 
L 254.196364 200.914321 
L 255.496282 202.887647 
L 257.121179 205.759773 
L 259.071057 209.676678 
L 261.995872 216.114587 
L 265.895627 224.622265 
L 267.845504 228.350853 
L 269.470401 230.991129 
L 270.770319 232.723814 
L 272.070238 234.07074 
L 273.045176 234.805618 
L 274.020115 235.290801 
L 274.995053 235.517133 
L 275.969992 235.478532 
L 276.94493 235.172079 
L 277.919869 234.598067 
L 278.894808 233.760007 
L 279.869746 232.664596 
L 281.169664 230.821118 
L 282.469582 228.569405 
L 284.09448 225.242852 
L 286.044357 220.629139 
L 288.644193 213.749354 
L 294.818804 197.03861 
L 296.768681 192.526763 
L 298.393579 189.307978 
L 299.693497 187.154876 
L 300.993415 185.418737 
L 301.968354 184.408172 
L 302.943292 183.657539 
L 303.918231 183.172482 
L 304.89317 182.95544 
L 305.868108 183.005631 
L 306.843047 183.319077 
L 307.817985 183.888658 
L 308.792924 184.704219 
L 310.092842 186.151314 
L 311.39276 187.973816 
L 313.017658 190.70905 
L 314.967535 194.522414 
L 317.567371 200.171563 
L 322.117084 210.152474 
L 324.066962 213.914755 
L 325.691859 216.614682 
L 326.991777 218.426787 
L 328.291695 219.891211 
L 329.591613 220.981622 
L 330.566552 221.543352 
L 331.541491 221.88123 
L 332.516429 221.994664 
L 333.491368 221.886139 
L 334.466306 221.561169 
L 335.441245 221.028212 
L 336.741163 220.013959 
L 338.041081 218.684346 
L 339.665979 216.642868 
L 341.615856 213.764265 
L 344.540672 208.966246 
L 347.790467 203.710844 
L 349.740344 200.971574 
L 351.365242 199.090383 
L 352.66516 197.913701 
L 353.965078 197.070396 
L 354.940016 196.675015 
L 355.914955 196.493581 
L 356.889894 196.532602 
L 357.864832 196.795578 
L 358.839771 197.282947 
L 359.814709 197.992065 
L 361.114627 199.272206 
L 362.414545 200.914321 
L 363.714464 202.887647 
L 365.339361 205.759773 
L 367.289238 209.676678 
L 370.214054 216.114587 
L 374.113808 224.622265 
L 376.063686 228.350853 
L 377.688583 230.991129 
L 378.988501 232.723814 
L 380.288419 234.07074 
L 381.263358 234.805618 
L 382.238296 235.290801 
L 383.213235 235.517133 
L 384.188174 235.478532 
L 385.163112 235.172079 
L 386.138051 234.598067 
L 387.112989 233.760007 
L 388.087928 232.664596 
L 389.387846 230.821118 
L 390.687764 228.569405 
L 392.312662 225.242852 
L 394.262539 220.629139 
L 396.862375 213.749354 
L 398.487273 209.238261 
L 398.487273 209.238261 
" clip-path="url(#pfabe84d798)" style="fill: none; stroke: #1f77b4; stroke-width: 1.5; stroke-linecap: square"/>
   </g>
   <g id="patch_13">
    <path d="M 57.6 238.163478 
L 57.6 180.313043 
" style="fill: none; stroke: #000000; stroke-width: 0.8; stroke-linejoin: miter; stroke-linecap: square"/>
   </g>
   <g id="patch_14">
    <path d="M 414.72 238.163478 
L 414.72 180.313043 
" style="fill: none; stroke: #000000; stroke-width: 0.8; stroke-linejoin: miter; stroke-linecap: square"/>
   </g>
   <g id="patch_15">
    <path d="M 57.6 238.163478 
L 414.72 238.163478 
" style="fill: none; stroke: #000000; stroke-width: 0.8; stroke-linejoin: miter; stroke-linecap: square"/>
   </g>
   <g id="patch_16">
    <path d="M 57.6 180.313043 
L 414.72 180.313043 
" style="fill: none; stroke: #000000; stroke-width: 0.8; stroke-linejoin: miter; stroke-linecap: square"/>
   </g>
   <g id="text_28">
    <!-- Semnal -->
    <g transform="translate(213.668437 174.313043) scale(0.12 -0.12)">
     <defs>
      <path id="DejaVuSans-53" d="M 3425 4513 
L 3425 3897 
Q 3066 4069 2747 4153 
Q 2428 4238 2131 4238 
Q 1616 4238 1336 4038 
Q 1056 3838 1056 3469 
Q 1056 3159 1242 3001 
Q 1428 2844 1947 2747 
L 2328 2669 
Q 3034 2534 3370 2195 
Q 3706 1856 3706 1288 
Q 3706 609 3251 259 
Q 2797 -91 1919 -91 
Q 1588 -91 1214 -16 
Q 841 59 441 206 
L 441 856 
Q 825 641 1194 531 
Q 1563 422 1919 422 
Q 2459 422 2753 634 
Q 3047 847 3047 1241 
Q 3047 1584 2836 1778 
Q 2625 1972 2144 2069 
L 1759 2144 
Q 1053 2284 737 2584 
Q 422 2884 422 3419 
Q 422 4038 858 4394 
Q 1294 4750 2059 4750 
Q 2388 4750 2728 4690 
Q 3069 4631 3425 4513 
z
" transform="scale(0.015625)"/>
      <path id="DejaVuSans-6e" d="M 3513 2113 
L 3513 0 
L 2938 0 
L 2938 2094 
Q 2938 2591 2744 2837 
Q 2550 3084 2163 3084 
Q 1697 3084 1428 2787 
Q 1159 2491 1159 1978 
L 1159 0 
L 581 0 
L 581 3500 
L 1159 3500 
L 1159 2956 
Q 1366 3272 1645 3428 
Q 1925 3584 2291 3584 
Q 2894 3584 3203 3211 
Q 3513 2838 3513 2113 
z
" transform="scale(0.015625)"/>
      <path id="DejaVuSans-6c" d="M 603 4863 
L 1178 4863 
L 1178 0 
L 603 0 
L 603 4863 
z
" transform="scale(0.015625)"/>
     </defs>
     <use xlink:href="#DejaVuSans-53"/>
     <use xlink:href="#DejaVuSans-65" x="63.476562"/>
     <use xlink:href="#DejaVuSans-6d" x="125"/>
     <use xlink:href="#DejaVuSans-6e" x="222.412109"/>
     <use xlink:href="#DejaVuSans-61" x="285.791016"/>
     <use xlink:href="#DejaVuSans-6c" x="347.070312"/>
    </g>
   </g>
  </g>
  <g id="axes_4">
   <g id="patch_17">
    <path d="M 57.6 307.584 
L 414.72 307.584 
L 414.72 249.733565 
L 57.6 249.733565 
z
" style="fill: #ffffff"/>
   </g>
   <g id="matplotlib.axis_7">
    <g id="xtick_19">
     <g id="line2d_29">
      <g>
       <use xlink:href="#mfbca230e92" x="73.832727" y="307.584" style="stroke: #000000; stroke-width: 0.8"/>
      </g>
     </g>
     <g id="text_29">
      <!-- 0 -->
      <g transform="translate(70.651477 322.182437) scale(0.1 -0.1)">
       <use xlink:href="#DejaVuSans-30"/>
      </g>
     </g>
    </g>
    <g id="xtick_20">
     <g id="line2d_30">
      <g>
       <use xlink:href="#mfbca230e92" x="138.828632" y="307.584" style="stroke: #000000; stroke-width: 0.8"/>
      </g>
     </g>
     <g id="text_30">
      <!-- 200 -->
      <g transform="translate(129.284882 322.182437) scale(0.1 -0.1)">
       <use xlink:href="#DejaVuSans-32"/>
       <use xlink:href="#DejaVuSans-30" x="63.623047"/>
       <use xlink:href="#DejaVuSans-30" x="127.246094"/>
      </g>
     </g>
    </g>
    <g id="xtick_21">
     <g id="line2d_31">
      <g>
       <use xlink:href="#mfbca230e92" x="203.824537" y="307.584" style="stroke: #000000; stroke-width: 0.8"/>
      </g>
     </g>
     <g id="text_31">
      <!-- 400 -->
      <g transform="translate(194.280787 322.182437) scale(0.1 -0.1)">
       <use xlink:href="#DejaVuSans-34"/>
       <use xlink:href="#DejaVuSans-30" x="63.623047"/>
       <use xlink:href="#DejaVuSans-30" x="127.246094"/>
      </g>
     </g>
    </g>
    <g id="xtick_22">
     <g id="line2d_32">
      <g>
       <use xlink:href="#mfbca230e92" x="268.820442" y="307.584" style="stroke: #000000; stroke-width: 0.8"/>
      </g>
     </g>
     <g id="text_32">
      <!-- 600 -->
      <g transform="translate(259.276692 322.182437) scale(0.1 -0.1)">
       <use xlink:href="#DejaVuSans-36"/>
       <use xlink:href="#DejaVuSans-30" x="63.623047"/>
       <use xlink:href="#DejaVuSans-30" x="127.246094"/>
      </g>
     </g>
    </g>
    <g id="xtick_23">
     <g id="line2d_33">
      <g>
       <use xlink:href="#mfbca230e92" x="333.816347" y="307.584" style="stroke: #000000; stroke-width: 0.8"/>
      </g>
     </g>
     <g id="text_33">
      <!-- 800 -->
      <g transform="translate(324.272597 322.182437) scale(0.1 -0.1)">
       <use xlink:href="#DejaVuSans-38"/>
       <use xlink:href="#DejaVuSans-30" x="63.623047"/>
       <use xlink:href="#DejaVuSans-30" x="127.246094"/>
      </g>
     </g>
    </g>
    <g id="xtick_24">
     <g id="line2d_34">
      <g>
       <use xlink:href="#mfbca230e92" x="398.812252" y="307.584" style="stroke: #000000; stroke-width: 0.8"/>
      </g>
     </g>
     <g id="text_34">
      <!-- 1000 -->
      <g transform="translate(386.087252 322.182437) scale(0.1 -0.1)">
       <use xlink:href="#DejaVuSans-31"/>
       <use xlink:href="#DejaVuSans-30" x="63.623047"/>
       <use xlink:href="#DejaVuSans-30" x="127.246094"/>
       <use xlink:href="#DejaVuSans-30" x="190.869141"/>
      </g>
     </g>
    </g>
    <g id="text_35">
     <!-- Ordin esantion -->
     <g transform="translate(199.443594 335.860562) scale(0.1 -0.1)">
      <defs>
       <path id="DejaVuSans-4f" d="M 2522 4238 
Q 1834 4238 1429 3725 
Q 1025 3213 1025 2328 
Q 1025 1447 1429 934 
Q 1834 422 2522 422 
Q 3209 422 3611 934 
Q 4013 1447 4013 2328 
Q 4013 3213 3611 3725 
Q 3209 4238 2522 4238 
z
M 2522 4750 
Q 3503 4750 4090 4092 
Q 4678 3434 4678 2328 
Q 4678 1225 4090 567 
Q 3503 -91 2522 -91 
Q 1538 -91 948 565 
Q 359 1222 359 2328 
Q 359 3434 948 4092 
Q 1538 4750 2522 4750 
z
" transform="scale(0.015625)"/>
       <path id="DejaVuSans-73" d="M 2834 3397 
L 2834 2853 
Q 2591 2978 2328 3040 
Q 2066 3103 1784 3103 
Q 1356 3103 1142 2972 
Q 928 2841 928 2578 
Q 928 2378 1081 2264 
Q 1234 2150 1697 2047 
L 1894 2003 
Q 2506 1872 2764 1633 
Q 3022 1394 3022 966 
Q 3022 478 2636 193 
Q 2250 -91 1575 -91 
Q 1294 -91 989 -36 
Q 684 19 347 128 
L 347 722 
Q 666 556 975 473 
Q 1284 391 1588 391 
Q 1994 391 2212 530 
Q 2431 669 2431 922 
Q 2431 1156 2273 1281 
Q 2116 1406 1581 1522 
L 1381 1569 
Q 847 1681 609 1914 
Q 372 2147 372 2553 
Q 372 3047 722 3315 
Q 1072 3584 1716 3584 
Q 2034 3584 2315 3537 
Q 2597 3491 2834 3397 
z
" transform="scale(0.015625)"/>
      </defs>
      <use xlink:href="#DejaVuSans-4f"/>
      <use xlink:href="#DejaVuSans-72" x="78.710938"/>
      <use xlink:href="#DejaVuSans-64" x="118.074219"/>
      <use xlink:href="#DejaVuSans-69" x="181.550781"/>
      <use xlink:href="#DejaVuSans-6e" x="209.333984"/>
      <use xlink:href="#DejaVuSans-20" x="272.712891"/>
      <use xlink:href="#DejaVuSans-65" x="304.5"/>
      <use xlink:href="#DejaVuSans-73" x="366.023438"/>
      <use xlink:href="#DejaVuSans-61" x="418.123047"/>
      <use xlink:href="#DejaVuSans-6e" x="479.402344"/>
      <use xlink:href="#DejaVuSans-74" x="542.78125"/>
      <use xlink:href="#DejaVuSans-69" x="581.990234"/>
      <use xlink:href="#DejaVuSans-6f" x="609.773438"/>
      <use xlink:href="#DejaVuSans-6e" x="670.955078"/>
     </g>
    </g>
   </g>
   <g id="matplotlib.axis_8">
    <g id="ytick_8">
     <g id="line2d_35">
      <g>
       <use xlink:href="#mb8a7038b13" x="57.6" y="288.164848" style="stroke: #000000; stroke-width: 0.8"/>
      </g>
     </g>
     <g id="text_36">
      <!-- 2 -->
      <g transform="translate(44.2375 291.964067) scale(0.1 -0.1)">
       <use xlink:href="#DejaVuSans-32"/>
      </g>
     </g>
    </g>
    <g id="ytick_9">
     <g id="line2d_36">
      <g>
       <use xlink:href="#mb8a7038b13" x="57.6" y="253.31945" style="stroke: #000000; stroke-width: 0.8"/>
      </g>
     </g>
     <g id="text_37">
      <!-- 4 -->
      <g transform="translate(44.2375 257.118669) scale(0.1 -0.1)">
       <use xlink:href="#DejaVuSans-34"/>
      </g>
     </g>
    </g>
    <g id="text_38">
     <!-- Valoare -->
     <g transform="translate(38.157812 297.287689) rotate(-90) scale(0.1 -0.1)">
      <defs>
       <path id="DejaVuSans-56" d="M 1831 0 
L 50 4666 
L 709 4666 
L 2188 738 
L 3669 4666 
L 4325 4666 
L 2547 0 
L 1831 0 
z
" transform="scale(0.015625)"/>
      </defs>
      <use xlink:href="#DejaVuSans-56"/>
      <use xlink:href="#DejaVuSans-61" x="60.658203"/>
      <use xlink:href="#DejaVuSans-6c" x="121.9375"/>
      <use xlink:href="#DejaVuSans-6f" x="149.720703"/>
      <use xlink:href="#DejaVuSans-61" x="210.902344"/>
      <use xlink:href="#DejaVuSans-72" x="272.181641"/>
      <use xlink:href="#DejaVuSans-65" x="311.044922"/>
     </g>
    </g>
   </g>
   <g id="line2d_37">
    <path d="M 73.832727 304.160086 
L 74.157707 304.14393 
L 74.482686 304.954435 
L 74.807666 303.516191 
L 75.132645 304.04804 
L 75.457625 302.941365 
L 75.782604 304.335895 
L 76.107584 304.100905 
L 76.432563 302.616881 
L 76.757543 303.145769 
L 77.082523 302.229077 
L 77.407502 303.329329 
L 77.732482 301.83893 
L 78.057461 301.48762 
L 78.382441 301.80171 
L 78.70742 301.220664 
L 79.0324 301.928648 
L 79.357379 302.29923 
L 79.682359 301.420691 
L 80.007338 301.992317 
L 80.332318 301.060956 
L 80.982277 300.079964 
L 81.307256 300.54197 
L 81.632236 300.264592 
L 81.957215 300.902752 
L 82.282195 299.455123 
L 82.607174 300.260449 
L 82.932154 299.527805 
L 83.257133 299.150626 
L 83.582113 299.987718 
L 84.232072 299.013622 
L 84.557052 299.787784 
L 84.882031 298.331648 
L 85.207011 299.658075 
L 85.53199 299.623701 
L 86.181949 298.929197 
L 86.506929 297.863145 
L 86.831908 298.263768 
L 87.156888 299.342253 
L 87.481867 297.872581 
L 87.806847 298.278745 
L 88.131826 299.016512 
L 88.456806 299.002686 
L 88.781785 297.451722 
L 89.106765 298.995035 
L 89.431744 298.55068 
L 89.756724 298.597912 
L 90.081704 298.126855 
L 90.406683 298.029312 
L 90.731663 298.662762 
L 91.056642 297.7968 
L 91.381622 298.680253 
L 91.706601 298.471842 
L 92.031581 297.469069 
L 92.35656 297.68401 
L 92.68154 298.38734 
L 93.006519 297.411853 
L 93.331499 298.36047 
L 93.656478 297.577641 
L 94.306437 299.011256 
L 94.631417 297.65785 
L 94.956396 297.689686 
L 95.281376 297.983458 
L 95.931335 299.411145 
L 96.256314 298.96964 
L 96.581294 298.204694 
L 97.231253 298.682807 
L 97.556233 299.767451 
L 97.881212 299.608925 
L 98.206192 298.510168 
L 98.531171 298.780594 
L 98.856151 299.330578 
L 99.18113 299.034583 
L 99.50611 299.962344 
L 99.831089 299.517824 
L 100.156069 299.367528 
L 100.481048 299.537839 
L 100.806028 300.27726 
L 101.131007 299.966626 
L 101.455987 300.794663 
L 101.780966 300.63287 
L 102.430925 299.859045 
L 103.080885 301.34992 
L 103.405864 300.307449 
L 103.730844 300.437947 
L 104.055823 301.21359 
L 104.380803 300.865929 
L 104.705782 301.087339 
L 105.030762 300.895583 
L 105.355741 301.166445 
L 105.680721 301.882825 
L 106.0057 300.600153 
L 106.33068 302.304826 
L 106.655659 301.254772 
L 106.980639 300.834252 
L 107.305618 301.394966 
L 107.630598 302.296373 
L 107.955577 301.017442 
L 108.280557 301.389792 
L 108.605536 302.59951 
L 108.930516 301.243644 
L 109.255495 302.200287 
L 109.580475 302.499822 
L 109.905455 302.425966 
L 110.230434 301.339417 
L 110.555414 302.115651 
L 110.880393 301.90343 
L 111.205373 303.086151 
L 111.530352 302.450789 
L 111.855332 302.87616 
L 112.180311 301.533359 
L 112.505291 302.877317 
L 112.83027 301.863656 
L 113.15525 302.442098 
L 113.480229 301.670724 
L 113.805209 302.752964 
L 114.130188 302.98939 
L 114.455168 301.698145 
L 115.105127 302.967185 
L 115.430106 302.757234 
L 115.755086 302.344919 
L 116.080066 302.15599 
L 116.405045 302.492102 
L 116.730025 302.345434 
L 117.055004 301.381417 
L 117.379984 302.835878 
L 117.704963 302.083494 
L 118.029943 302.095065 
L 118.354922 301.010919 
L 118.679902 302.220868 
L 119.004881 301.91828 
L 119.329861 301.841291 
L 119.65484 300.905238 
L 119.97982 301.642354 
L 120.629779 300.636646 
L 120.954758 300.423102 
L 121.279738 301.855068 
L 122.254676 300.477197 
L 122.579656 300.67758 
L 123.229615 299.61941 
L 123.554595 299.773362 
L 123.879574 300.308745 
L 124.204554 299.454758 
L 124.529533 300.456425 
L 125.179492 300.113716 
L 125.504472 299.436943 
L 125.829451 299.625834 
L 126.154431 299.977055 
L 126.47941 299.270197 
L 126.80439 299.651527 
L 127.129369 299.307983 
L 127.454349 297.906039 
L 127.779328 299.292104 
L 128.104308 297.561724 
L 128.754267 297.453578 
L 129.079247 297.587752 
L 129.404226 297.081252 
L 129.729206 298.39716 
L 130.054185 298.26204 
L 130.704144 296.611063 
L 131.029124 296.543412 
L 131.354103 296.978852 
L 131.679083 296.577757 
L 132.004062 296.939188 
L 132.329042 296.798325 
L 132.654021 296.79665 
L 132.979001 295.653183 
L 133.30398 296.838809 
L 133.62896 296.410379 
L 133.953939 295.29959 
L 134.278919 296.164829 
L 134.603898 296.178348 
L 134.928878 294.91794 
L 135.253857 294.820019 
L 135.578837 295.873277 
L 135.903817 295.761395 
L 136.228796 296.136534 
L 136.553776 295.767784 
L 136.878755 294.284768 
L 137.528714 294.313794 
L 138.178673 294.647458 
L 138.503653 294.417106 
L 138.828632 294.848563 
L 139.153612 294.862205 
L 139.478591 294.467501 
L 139.803571 295.320319 
L 140.12855 293.767635 
L 140.45353 293.873482 
L 140.778509 293.64605 
L 141.103489 294.577783 
L 141.428468 295.023779 
L 141.753448 293.998711 
L 142.078428 295.27628 
L 142.403407 293.86678 
L 142.728387 295.249167 
L 143.053366 294.728515 
L 143.378346 293.596322 
L 143.703325 295.047689 
L 144.028305 295.178104 
L 144.678264 294.726205 
L 145.003243 295.199059 
L 145.328223 294.809519 
L 145.653202 294.804932 
L 145.978182 293.872482 
L 146.303161 293.921445 
L 146.628141 294.989175 
L 146.95312 293.968033 
L 147.2781 295.094673 
L 147.603079 295.096817 
L 147.928059 294.236374 
L 148.253038 295.290636 
L 148.902998 295.8154 
L 149.227977 294.92813 
L 149.552957 295.281808 
L 149.877936 294.755359 
L 150.527895 295.259846 
L 150.852875 295.871235 
L 151.177854 296.10314 
L 151.502834 295.456081 
L 151.827813 296.422801 
L 152.152793 295.527368 
L 152.477772 296.11325 
L 152.802752 296.197288 
L 153.127731 295.654785 
L 153.452711 296.8206 
L 153.77769 295.582693 
L 154.10267 296.540968 
L 154.427649 296.558345 
L 154.752629 297.072598 
L 155.402588 296.096882 
L 155.727568 296.357381 
L 156.052547 297.76455 
L 156.377527 297.213487 
L 157.027486 296.923235 
L 157.352465 297.352671 
L 157.677445 298.065366 
L 158.002424 297.942223 
L 158.327404 297.982293 
L 158.652383 297.580161 
L 158.977363 296.998408 
L 159.627322 298.426231 
L 159.952301 298.21282 
L 160.277281 298.337222 
L 160.92724 297.919215 
L 161.252219 298.487167 
L 161.577199 298.759874 
L 161.902179 297.470665 
L 162.227158 298.767162 
L 162.552138 297.304211 
L 162.877117 298.162527 
L 163.202097 297.540701 
L 163.527076 298.836622 
L 163.852056 297.571419 
L 164.502015 298.684502 
L 164.826994 299.036385 
L 165.151974 298.493848 
L 165.476953 297.398703 
L 166.126912 298.322131 
L 166.451892 298.244615 
L 166.776871 298.330372 
L 167.101851 297.286673 
L 167.42683 298.149022 
L 167.75181 297.9388 
L 168.07679 297.373104 
L 168.726749 297.485601 
L 169.051728 297.97522 
L 170.026667 297.658862 
L 170.351646 297.890542 
L 171.001605 297.035217 
L 171.326585 297.770485 
L 171.651564 296.358651 
L 171.976544 297.488878 
L 172.301523 296.716396 
L 172.626503 296.599284 
L 172.951482 295.542248 
L 173.276462 296.94754 
L 173.926421 296.441469 
L 174.2514 295.517044 
L 174.57638 295.708384 
L 174.90136 295.657111 
L 175.226339 294.619826 
L 175.551319 294.356202 
L 175.876298 295.350102 
L 176.201278 295.587152 
L 176.526257 294.273378 
L 176.851237 294.350977 
L 177.176216 295.005231 
L 177.501196 293.869007 
L 177.826175 294.19013 
L 178.151155 293.422261 
L 178.476134 294.124342 
L 178.801114 293.865849 
L 179.126093 293.826431 
L 179.451073 292.877497 
L 179.776052 292.761657 
L 180.426011 291.579471 
L 180.750991 292.553319 
L 181.075971 291.1639 
L 181.72593 291.788778 
L 182.050909 291.047587 
L 182.375889 291.563714 
L 182.700868 290.039347 
L 183.025848 291.071847 
L 183.350827 289.518295 
L 183.675807 290.218763 
L 184.000786 289.862636 
L 184.325766 288.967779 
L 184.650745 289.065559 
L 184.975725 288.544071 
L 185.300704 288.685707 
L 185.625684 289.406691 
L 185.950663 287.982581 
L 186.275643 288.246312 
L 186.925602 287.801979 
L 187.575561 286.906201 
L 187.900541 288.417654 
L 188.5505 286.354062 
L 188.875479 287.548649 
L 189.200459 287.454666 
L 189.525438 286.664045 
L 189.850418 286.658219 
L 190.175397 287.170148 
L 190.500377 286.67739 
L 190.825356 286.711544 
L 191.150336 285.129686 
L 191.475315 285.158462 
L 191.800295 284.887393 
L 192.125274 286.063411 
L 192.450254 285.86233 
L 192.775233 284.675349 
L 193.100213 285.792026 
L 193.425192 284.72765 
L 193.750172 284.778551 
L 194.075152 284.701126 
L 194.400131 283.997819 
L 194.725111 284.09402 
L 195.05009 284.861707 
L 195.37507 285.214621 
L 195.700049 284.451078 
L 196.025029 285.199086 
L 196.350008 283.706234 
L 196.674988 283.826448 
L 196.999967 284.29783 
L 197.324947 284.249254 
L 197.649926 284.726936 
L 197.974906 284.000423 
L 198.299885 283.64084 
L 198.624865 284.575427 
L 198.949844 283.61544 
L 199.274824 284.88721 
L 199.599803 283.469657 
L 199.924783 284.479356 
L 200.249762 284.580246 
L 200.574742 284.370997 
L 200.899722 284.427262 
L 201.549681 283.665117 
L 201.87466 284.727808 
L 202.19964 283.566592 
L 202.524619 284.665581 
L 203.174578 284.578463 
L 203.499558 283.753521 
L 203.824537 285.08646 
L 204.474496 284.45762 
L 204.799476 285.330709 
L 205.124455 284.758797 
L 205.449435 285.086428 
L 205.774414 284.26074 
L 206.099394 284.211854 
L 206.424373 285.245208 
L 206.749353 285.631153 
L 207.399312 284.666937 
L 207.724292 285.229112 
L 208.049271 285.141368 
L 208.374251 286.045955 
L 208.69923 284.721031 
L 209.02421 285.41967 
L 209.349189 285.012144 
L 209.674169 286.069624 
L 209.999148 286.094405 
L 210.324128 286.574642 
L 210.649107 286.133219 
L 210.974087 285.487324 
L 211.299066 285.82786 
L 211.624046 285.354525 
L 211.949025 285.712141 
L 212.274005 285.505384 
L 212.598984 285.48818 
L 212.923964 285.901886 
L 213.248943 285.70972 
L 213.573923 287.109515 
L 213.898903 285.845103 
L 214.223882 287.035071 
L 214.548862 286.183253 
L 214.873841 287.589654 
L 215.198821 286.680561 
L 215.5238 286.259076 
L 215.84878 287.728073 
L 216.173759 286.932679 
L 216.498739 287.208343 
L 216.823718 287.708864 
L 217.148698 287.082629 
L 217.473677 286.836155 
L 217.798657 287.634277 
L 218.123636 287.903415 
L 218.448616 286.748125 
L 218.773595 288.069891 
L 219.098575 286.603587 
L 219.748534 286.965054 
L 220.073514 286.697595 
L 220.398493 287.087828 
L 220.723473 286.948039 
L 221.048452 286.599924 
L 222.023391 287.22462 
L 222.34837 287.662227 
L 222.67335 286.797377 
L 222.998329 286.921935 
L 223.323309 287.262815 
L 223.973268 286.598946 
L 224.298247 286.303851 
L 224.623227 287.828722 
L 224.948206 287.528187 
L 225.273186 286.85737 
L 225.598165 287.440571 
L 225.923145 286.882515 
L 226.248124 286.549032 
L 226.573104 285.895708 
L 226.898084 286.19117 
L 227.223063 285.827211 
L 227.548043 286.833111 
L 227.873022 286.000133 
L 228.198002 286.537721 
L 228.522981 285.681275 
L 228.847961 286.863761 
L 229.17294 286.591224 
L 229.49792 286.475314 
L 229.822899 285.585416 
L 230.147879 285.688201 
L 230.472858 285.344687 
L 231.122817 284.998792 
L 231.447797 284.356578 
L 231.772776 285.126743 
L 232.097756 284.9366 
L 232.422735 284.567248 
L 232.747715 283.820597 
L 233.072695 284.051308 
L 233.722654 283.240061 
L 234.047633 284.353299 
L 234.372613 284.257466 
L 234.697592 283.040542 
L 235.022572 283.116303 
L 235.347551 283.669037 
L 235.672531 282.777911 
L 235.99751 283.099755 
L 236.32249 282.859807 
L 236.647469 283.449628 
L 236.972449 282.752238 
L 237.297428 281.672863 
L 237.622408 282.98248 
L 237.947387 282.399834 
L 238.272367 281.269408 
L 238.597346 282.152026 
L 239.247305 280.750072 
L 239.572285 281.020729 
L 239.897265 282.057977 
L 240.222244 280.682458 
L 240.547224 280.546324 
L 240.872203 280.250403 
L 241.197183 280.227395 
L 241.522162 281.278311 
L 241.847142 280.053529 
L 242.172121 279.990698 
L 242.497101 280.706622 
L 243.14706 280.572567 
L 243.472039 280.106083 
L 243.797019 279.077162 
L 244.121998 279.817951 
L 244.446978 279.263714 
L 244.771957 279.182696 
L 245.096937 278.900948 
L 245.421916 280.008591 
L 245.746896 279.018128 
L 246.071876 279.000639 
L 246.721835 279.604813 
L 247.046814 278.086148 
L 247.371794 278.662631 
L 247.696773 278.214983 
L 248.021753 278.221759 
L 248.346732 277.79447 
L 248.671712 278.148271 
L 248.996691 279.143654 
L 249.321671 278.316644 
L 249.64665 278.484968 
L 249.97163 279.13626 
L 250.296609 278.819763 
L 250.621589 278.075287 
L 250.946568 278.416675 
L 251.271548 277.889046 
L 251.596527 277.719444 
L 251.921507 278.353999 
L 252.246486 278.576012 
L 252.571466 278.233136 
L 252.896446 278.618831 
L 253.221425 279.275898 
L 253.871384 277.656943 
L 254.196364 278.696257 
L 254.521343 278.995926 
L 254.846323 277.814725 
L 255.171302 278.46525 
L 255.496282 278.03614 
L 255.821261 278.713172 
L 256.146241 278.712455 
L 256.47122 278.173034 
L 256.7962 278.23153 
L 257.121179 278.03486 
L 257.446159 278.293653 
L 257.771138 279.780743 
L 258.096118 279.627302 
L 258.421097 279.267458 
L 258.746077 278.510383 
L 259.071057 279.41864 
L 259.396036 278.765613 
L 259.721016 278.71346 
L 260.045995 280.232165 
L 260.370975 279.876465 
L 260.695954 279.836759 
L 261.020934 280.013358 
L 261.345913 279.485349 
L 261.670893 279.432375 
L 261.995872 279.525369 
L 262.320852 279.162726 
L 262.645831 279.566501 
L 262.970811 280.744833 
L 263.29579 280.986431 
L 263.62077 279.97402 
L 263.945749 280.168147 
L 264.270729 279.890252 
L 264.595708 280.901619 
L 264.920688 280.135186 
L 265.570647 280.35514 
L 266.545586 280.669716 
L 266.870565 281.547098 
L 267.195545 280.206751 
L 267.520524 280.848692 
L 267.845504 280.325321 
L 268.495463 281.562717 
L 268.820442 280.931421 
L 269.145422 282.003887 
L 269.470401 281.2141 
L 269.795381 280.965871 
L 270.12036 282.016461 
L 270.44534 282.246804 
L 270.770319 280.938002 
L 271.095299 281.125551 
L 271.420278 281.600134 
L 271.745258 281.24103 
L 272.070238 281.275578 
L 272.395217 281.94873 
L 272.720197 282.148309 
L 273.045176 280.58144 
L 273.370156 281.047616 
L 273.695135 281.938352 
L 274.020115 281.261772 
L 274.345094 281.198566 
L 274.670074 281.856405 
L 274.995053 280.828389 
L 275.320033 281.220395 
L 275.645012 280.451584 
L 275.969992 280.542256 
L 276.294971 281.286392 
L 276.619951 281.589803 
L 276.94493 280.388508 
L 277.26991 280.36425 
L 277.594889 280.725748 
L 277.919869 280.101031 
L 278.244848 281.228669 
L 278.894808 279.474632 
L 279.219787 280.280618 
L 279.544767 280.298057 
L 279.869746 279.526695 
L 280.194726 280.269302 
L 280.519705 279.250865 
L 280.844685 279.219071 
L 281.169664 279.984538 
L 281.819623 278.554471 
L 282.144603 278.398797 
L 282.469582 277.925015 
L 282.794562 278.687868 
L 283.119541 278.562185 
L 283.444521 277.411821 
L 283.7695 278.38773 
L 284.09448 278.368338 
L 284.419459 277.66144 
L 284.744439 277.383137 
L 285.069419 277.716015 
L 285.394398 277.690316 
L 285.719378 276.084359 
L 286.044357 275.717021 
L 286.369337 276.515252 
L 286.694316 275.519439 
L 287.019296 275.243761 
L 287.344275 275.468026 
L 287.669255 275.075994 
L 288.319214 275.810282 
L 288.644193 275.150105 
L 288.969173 274.119372 
L 289.294152 274.68248 
L 289.619132 273.718113 
L 289.944111 274.75662 
L 290.269091 273.020265 
L 290.59407 274.150811 
L 290.91905 272.992437 
L 291.244029 273.400794 
L 291.569009 272.629714 
L 291.893989 272.633944 
L 292.218968 272.995483 
L 292.543948 272.810669 
L 292.868927 272.475624 
L 293.193907 272.330812 
L 293.518886 272.35066 
L 293.843866 271.194002 
L 294.168845 270.913438 
L 294.493825 271.713862 
L 294.818804 269.872247 
L 295.143784 271.156639 
L 295.468763 270.335729 
L 296.118722 270.667551 
L 296.443702 270.240868 
L 296.768681 269.248128 
L 297.093661 269.061258 
L 297.41864 269.973821 
L 297.74362 268.436589 
L 298.0686 269.471022 
L 298.393579 268.898361 
L 298.718559 268.841356 
L 299.043538 267.971278 
L 299.368518 268.041622 
L 299.693497 267.232873 
L 300.018477 268.53429 
L 300.343456 267.076534 
L 300.668436 268.064381 
L 300.993415 268.196395 
L 301.318395 266.608345 
L 301.643374 267.997048 
L 301.968354 267.815211 
L 302.293333 267.822503 
L 302.618313 266.250437 
L 302.943292 266.224289 
L 303.268272 267.403732 
L 303.593251 267.448365 
L 303.918231 266.550237 
L 304.24321 266.921646 
L 304.56819 265.958111 
L 304.89317 266.076456 
L 305.218149 266.067209 
L 305.543129 265.364954 
L 305.868108 265.756603 
L 306.193088 266.779976 
L 306.518067 265.998962 
L 306.843047 266.637301 
L 307.168026 265.384705 
L 307.493006 265.108917 
L 307.817985 266.15588 
L 308.142965 266.46668 
L 308.467944 265.137725 
L 309.117903 266.663113 
L 309.442883 265.802458 
L 309.767862 265.441307 
L 310.092842 266.49529 
L 310.417821 265.741408 
L 310.742801 266.328139 
L 311.067781 265.940221 
L 311.39276 266.787988 
L 311.71774 266.105923 
L 312.042719 266.333395 
L 312.367699 266.230911 
L 313.017658 265.633662 
L 313.342637 266.888668 
L 313.992596 266.619612 
L 314.317576 266.039998 
L 314.967535 266.993491 
L 315.292514 266.760483 
L 315.617494 265.851332 
L 315.942473 266.286265 
L 316.592432 267.505493 
L 316.917412 266.467707 
L 317.242391 266.610631 
L 317.567371 266.43188 
L 317.892351 267.533147 
L 318.54231 266.533959 
L 319.192269 268.204784 
L 319.842228 267.120948 
L 320.167207 268.220621 
L 320.492187 267.343386 
L 320.817166 268.275637 
L 321.142146 268.698187 
L 321.467125 268.586564 
L 321.792105 267.683973 
L 322.117084 267.926717 
L 322.442064 268.678257 
L 322.767043 267.946114 
L 323.092023 268.136394 
L 323.417002 268.157252 
L 323.741982 268.513819 
L 324.066962 267.926321 
L 324.391941 267.999164 
L 324.716921 268.881242 
L 325.0419 268.976884 
L 325.691859 268.868002 
L 326.341818 268.401242 
L 326.666798 269.147415 
L 326.991777 268.410238 
L 327.316757 268.621338 
L 327.641736 269.133608 
L 327.966716 269.175906 
L 328.291695 268.853978 
L 328.616675 267.931948 
L 328.941654 269.131745 
L 329.266634 268.600281 
L 329.591613 269.383748 
L 329.916593 269.053264 
L 330.566552 269.028723 
L 331.216511 268.803067 
L 331.541491 268.10416 
L 331.86647 268.702796 
L 332.19145 268.167938 
L 332.516429 268.853882 
L 332.841409 267.650651 
L 333.166388 267.707793 
L 333.491368 267.468694 
L 333.816347 268.090763 
L 334.141327 267.224247 
L 334.466306 268.242055 
L 334.791286 266.850604 
L 335.116265 266.849796 
L 335.441245 267.709856 
L 335.766224 268.195311 
L 336.091204 266.90319 
L 336.416183 266.703226 
L 336.741163 266.188343 
L 337.066143 267.451581 
L 337.391122 267.328988 
L 337.716102 265.991713 
L 338.041081 267.060906 
L 338.366061 267.24526 
L 338.69104 266.23505 
L 339.01602 266.397826 
L 339.340999 265.603593 
L 339.990958 265.60787 
L 340.315938 265.093951 
L 340.640917 265.380117 
L 340.965897 265.138262 
L 341.290876 265.085796 
L 341.615856 265.721982 
L 341.940835 263.939536 
L 342.265815 263.873019 
L 342.590794 264.528985 
L 343.240753 264.910236 
L 343.565733 263.128491 
L 343.890713 264.419049 
L 344.215692 263.835932 
L 344.540672 263.887164 
L 344.865651 262.988282 
L 345.190631 263.301374 
L 345.51561 263.197706 
L 345.84059 263.380297 
L 346.165569 262.943909 
L 346.490549 262.070438 
L 346.815528 262.123722 
L 347.140508 262.017001 
L 347.465487 262.398964 
L 347.790467 261.65874 
L 348.115446 262.149906 
L 348.440426 262.031516 
L 349.090385 262.119118 
L 349.415364 261.347277 
L 349.740344 261.294167 
L 350.065324 261.036767 
L 350.390303 259.905446 
L 350.715283 259.809975 
L 351.040262 260.162708 
L 351.365242 259.769933 
L 351.690221 260.729021 
L 352.015201 259.579158 
L 352.34018 259.850966 
L 352.66516 259.612179 
L 352.990139 258.965155 
L 353.315119 260.526679 
L 353.640098 259.503482 
L 353.965078 258.925547 
L 355.264996 259.665267 
L 355.589975 259.418275 
L 355.914955 258.459183 
L 357.214873 259.439829 
L 357.539853 258.36234 
L 357.864832 259.295269 
L 358.189812 259.450914 
L 358.514791 258.832206 
L 358.839771 257.960993 
L 359.16475 258.78251 
L 359.48973 259.116745 
L 359.814709 257.700026 
L 360.139689 258.587281 
L 360.464668 258.611584 
L 360.789648 257.904453 
L 361.114627 258.046687 
L 361.439607 257.566999 
L 362.089566 258.975083 
L 362.414545 258.369239 
L 362.739525 259.005939 
L 363.389484 257.934189 
L 363.714464 258.889862 
L 364.039443 258.738234 
L 364.364423 258.195655 
L 364.689402 258.250276 
L 365.014382 258.61673 
L 365.339361 259.228405 
L 365.664341 258.979331 
L 365.98932 258.443695 
L 366.3143 259.542864 
L 366.639279 258.403271 
L 366.964259 258.520026 
L 367.289238 258.372073 
L 367.939197 259.138755 
L 368.264177 258.391169 
L 368.589156 258.816391 
L 368.914136 259.997813 
L 369.239115 259.527327 
L 369.564095 260.173072 
L 369.889075 259.085102 
L 370.214054 259.952 
L 370.539034 260.289787 
L 371.188993 259.090895 
L 371.513972 260.12478 
L 371.838952 260.67109 
L 372.163931 260.570755 
L 372.81389 259.936343 
L 373.13887 260.105431 
L 373.463849 259.800015 
L 373.788829 261.068751 
L 374.113808 259.83101 
L 374.438788 260.780559 
L 374.763767 261.211763 
L 375.088747 260.126212 
L 375.738706 261.395545 
L 376.063686 260.187886 
L 376.388665 259.88723 
L 376.713645 261.366415 
L 377.038624 261.192749 
L 377.363604 259.979962 
L 377.688583 260.735672 
L 378.013563 260.107815 
L 378.663522 261.244081 
L 378.988501 261.098496 
L 379.313481 261.549069 
L 379.63846 261.261525 
L 379.96344 260.68515 
L 380.288419 261.353398 
L 380.938378 260.078535 
L 381.263358 260.049031 
L 381.588337 260.653686 
L 381.913317 260.933787 
L 382.238296 260.004538 
L 382.563276 260.238341 
L 382.888256 259.666532 
L 383.213235 260.080381 
L 383.538215 260.983611 
L 383.863194 260.027792 
L 384.188174 260.597977 
L 384.513153 259.414166 
L 384.838133 260.786811 
L 385.163112 259.860651 
L 385.813071 259.087586 
L 386.46303 260.390012 
L 387.112989 258.556961 
L 387.437969 259.224792 
L 388.087928 258.384301 
L 388.412907 259.239814 
L 388.737887 258.934036 
L 389.387846 258.871415 
L 389.712826 257.53526 
L 390.037805 257.864176 
L 390.362785 257.915876 
L 391.012744 257.532835 
L 391.337723 256.791004 
L 391.987682 256.169576 
L 392.312662 256.87458 
L 392.637641 256.639021 
L 392.962621 257.131027 
L 393.2876 255.808239 
L 393.61258 256.286561 
L 393.937559 254.931963 
L 394.262539 256.215897 
L 394.587518 255.058742 
L 394.912498 254.461175 
L 395.562457 255.345932 
L 396.212416 254.9114 
L 396.537396 253.000721 
L 396.862375 254.006811 
L 397.187355 252.595722 
L 397.512334 253.912652 
L 397.837314 252.36313 
L 398.162293 253.488487 
L 398.487273 253.11061 
L 398.487273 253.11061 
" clip-path="url(#p9b0940db2f)" style="fill: none; stroke: #1f77b4; stroke-width: 1.5; stroke-linecap: square"/>
   </g>
   <g id="patch_18">
    <path d="M 57.6 307.584 
L 57.6 249.733565 
" style="fill: none; stroke: #000000; stroke-width: 0.8; stroke-linejoin: miter; stroke-linecap: square"/>
   </g>
   <g id="patch_19">
    <path d="M 414.72 307.584 
L 414.72 249.733565 
" style="fill: none; stroke: #000000; stroke-width: 0.8; stroke-linejoin: miter; stroke-linecap: square"/>
   </g>
   <g id="patch_20">
    <path d="M 57.6 307.584 
L 414.72 307.584 
" style="fill: none; stroke: #000000; stroke-width: 0.8; stroke-linejoin: miter; stroke-linecap: square"/>
   </g>
   <g id="patch_21">
    <path d="M 57.6 249.733565 
L 414.72 249.733565 
" style="fill: none; stroke: #000000; stroke-width: 0.8; stroke-linejoin: miter; stroke-linecap: square"/>
   </g>
   <g id="text_39">
    <!-- Serie timp -->
    <g transform="translate(205.254375 243.733565) scale(0.12 -0.12)">
     <defs>
      <path id="DejaVuSans-70" d="M 1159 525 
L 1159 -1331 
L 581 -1331 
L 581 3500 
L 1159 3500 
L 1159 2969 
Q 1341 3281 1617 3432 
Q 1894 3584 2278 3584 
Q 2916 3584 3314 3078 
Q 3713 2572 3713 1747 
Q 3713 922 3314 415 
Q 2916 -91 2278 -91 
Q 1894 -91 1617 61 
Q 1341 213 1159 525 
z
M 3116 1747 
Q 3116 2381 2855 2742 
Q 2594 3103 2138 3103 
Q 1681 3103 1420 2742 
Q 1159 2381 1159 1747 
Q 1159 1113 1420 752 
Q 1681 391 2138 391 
Q 2594 391 2855 752 
Q 3116 1113 3116 1747 
z
" transform="scale(0.015625)"/>
     </defs>
     <use xlink:href="#DejaVuSans-53"/>
     <use xlink:href="#DejaVuSans-65" x="63.476562"/>
     <use xlink:href="#DejaVuSans-72" x="125"/>
     <use xlink:href="#DejaVuSans-69" x="166.113281"/>
     <use xlink:href="#DejaVuSans-65" x="193.896484"/>
     <use xlink:href="#DejaVuSans-20" x="255.419922"/>
     <use xlink:href="#DejaVuSans-74" x="287.207031"/>
     <use xlink:href="#DejaVuSans-69" x="326.416016"/>
     <use xlink:href="#DejaVuSans-6d" x="354.199219"/>
     <use xlink:href="#DejaVuSans-70" x="451.611328"/>
    </g>
   </g>
  </g>
 </g>
 <defs>
  <clipPath id="p5d728acd91">
   <rect x="57.6" y="41.472" width="357.12" height="57.850435"/>
  </clipPath>
  <clipPath id="p3ad0043b44">
   <rect x="57.6" y="110.892522" width="357.12" height="57.850435"/>
  </clipPath>
  <clipPath id="pfabe84d798">
   <rect x="57.6" y="180.313043" width="357.12" height="57.850435"/>
  </clipPath>
  <clipPath id="p9b0940db2f">
   <rect x="57.6" y="249.733565" width="357.12" height="57.850435"/>
  </clipPath>
 </defs>
</svg>
