<?xml version="1.0" encoding="utf-8" standalone="no"?>
<!DOCTYPE svg PUBLIC "-//W3C//DTD SVG 1.1//EN"
  "http://www.w3.org/Graphics/SVG/1.1/DTD/svg11.dtd">
<svg xmlns:xlink="http://www.w3.org/1999/xlink" width="460.8pt" height="345.6pt" viewBox="0 0 460.8 345.6" xmlns="http://www.w3.org/2000/svg" version="1.1">
 <metadata>
  <rdf:RDF xmlns:dc="http://purl.org/dc/elements/1.1/" xmlns:cc="http://creativecommons.org/ns#" xmlns:rdf="http://www.w3.org/1999/02/22-rdf-syntax-ns#">
   <cc:Work>
    <dc:type rdf:resource="http://purl.org/dc/dcmitype/StillImage"/>
    <dc:date>2024-12-05T22:45:42.979636</dc:date>
    <dc:format>image/svg+xml</dc:format>
    <dc:creator>
     <cc:Agent>
      <dc:title>Matplotlib v3.9.2, https://matplotlib.org/</dc:title>
     </cc:Agent>
    </dc:creator>
   </cc:Work>
  </rdf:RDF>
 </metadata>
 <defs>
  <style type="text/css">*{stroke-linejoin: round; stroke-linecap: butt}</style>
 </defs>
 <g id="figure_1">
  <g id="patch_1">
   <path d="M 0 345.6 
L 460.8 345.6 
L 460.8 0 
L 0 0 
z
" style="fill: #ffffff"/>
  </g>
  <g id="axes_1">
   <g id="patch_2">
    <path d="M 57.6 99.322435 
L 414.72 99.322435 
L 414.72 41.472 
L 57.6 41.472 
z
" style="fill: #ffffff"/>
   </g>
   <g id="matplotlib.axis_1">
    <g id="xtick_1">
     <g id="line2d_1">
      <defs>
       <path id="m74a0e6954a" d="M 0 0 
L 0 3.5 
" style="stroke: #000000; stroke-width: 0.8"/>
      </defs>
      <g>
       <use xlink:href="#m74a0e6954a" x="73.832727" y="99.322435" style="stroke: #000000; stroke-width: 0.8"/>
      </g>
     </g>
     <g id="text_1">
      <!-- 0 -->
      <g transform="translate(70.651477 113.920872) scale(0.1 -0.1)">
       <defs>
        <path id="DejaVuSans-30" d="M 2034 4250 
Q 1547 4250 1301 3770 
Q 1056 3291 1056 2328 
Q 1056 1369 1301 889 
Q 1547 409 2034 409 
Q 2525 409 2770 889 
Q 3016 1369 3016 2328 
Q 3016 3291 2770 3770 
Q 2525 4250 2034 4250 
z
M 2034 4750 
Q 2819 4750 3233 4129 
Q 3647 3509 3647 2328 
Q 3647 1150 3233 529 
Q 2819 -91 2034 -91 
Q 1250 -91 836 529 
Q 422 1150 422 2328 
Q 422 3509 836 4129 
Q 1250 4750 2034 4750 
z
" transform="scale(0.015625)"/>
       </defs>
       <use xlink:href="#DejaVuSans-30"/>
      </g>
     </g>
    </g>
    <g id="xtick_2">
     <g id="line2d_2">
      <g>
       <use xlink:href="#m74a0e6954a" x="138.828632" y="99.322435" style="stroke: #000000; stroke-width: 0.8"/>
      </g>
     </g>
     <g id="text_2">
      <!-- 200 -->
      <g transform="translate(129.284882 113.920872) scale(0.1 -0.1)">
       <defs>
        <path id="DejaVuSans-32" d="M 1228 531 
L 3431 531 
L 3431 0 
L 469 0 
L 469 531 
Q 828 903 1448 1529 
Q 2069 2156 2228 2338 
Q 2531 2678 2651 2914 
Q 2772 3150 2772 3378 
Q 2772 3750 2511 3984 
Q 2250 4219 1831 4219 
Q 1534 4219 1204 4116 
Q 875 4013 500 3803 
L 500 4441 
Q 881 4594 1212 4672 
Q 1544 4750 1819 4750 
Q 2544 4750 2975 4387 
Q 3406 4025 3406 3419 
Q 3406 3131 3298 2873 
Q 3191 2616 2906 2266 
Q 2828 2175 2409 1742 
Q 1991 1309 1228 531 
z
" transform="scale(0.015625)"/>
       </defs>
       <use xlink:href="#DejaVuSans-32"/>
       <use xlink:href="#DejaVuSans-30" x="63.623047"/>
       <use xlink:href="#DejaVuSans-30" x="127.246094"/>
      </g>
     </g>
    </g>
    <g id="xtick_3">
     <g id="line2d_3">
      <g>
       <use xlink:href="#m74a0e6954a" x="203.824537" y="99.322435" style="stroke: #000000; stroke-width: 0.8"/>
      </g>
     </g>
     <g id="text_3">
      <!-- 400 -->
      <g transform="translate(194.280787 113.920872) scale(0.1 -0.1)">
       <defs>
        <path id="DejaVuSans-34" d="M 2419 4116 
L 825 1625 
L 2419 1625 
L 2419 4116 
z
M 2253 4666 
L 3047 4666 
L 3047 1625 
L 3713 1625 
L 3713 1100 
L 3047 1100 
L 3047 0 
L 2419 0 
L 2419 1100 
L 313 1100 
L 313 1709 
L 2253 4666 
z
" transform="scale(0.015625)"/>
       </defs>
       <use xlink:href="#DejaVuSans-34"/>
       <use xlink:href="#DejaVuSans-30" x="63.623047"/>
       <use xlink:href="#DejaVuSans-30" x="127.246094"/>
      </g>
     </g>
    </g>
    <g id="xtick_4">
     <g id="line2d_4">
      <g>
       <use xlink:href="#m74a0e6954a" x="268.820442" y="99.322435" style="stroke: #000000; stroke-width: 0.8"/>
      </g>
     </g>
     <g id="text_4">
      <!-- 600 -->
      <g transform="translate(259.276692 113.920872) scale(0.1 -0.1)">
       <defs>
        <path id="DejaVuSans-36" d="M 2113 2584 
Q 1688 2584 1439 2293 
Q 1191 2003 1191 1497 
Q 1191 994 1439 701 
Q 1688 409 2113 409 
Q 2538 409 2786 701 
Q 3034 994 3034 1497 
Q 3034 2003 2786 2293 
Q 2538 2584 2113 2584 
z
M 3366 4563 
L 3366 3988 
Q 3128 4100 2886 4159 
Q 2644 4219 2406 4219 
Q 1781 4219 1451 3797 
Q 1122 3375 1075 2522 
Q 1259 2794 1537 2939 
Q 1816 3084 2150 3084 
Q 2853 3084 3261 2657 
Q 3669 2231 3669 1497 
Q 3669 778 3244 343 
Q 2819 -91 2113 -91 
Q 1303 -91 875 529 
Q 447 1150 447 2328 
Q 447 3434 972 4092 
Q 1497 4750 2381 4750 
Q 2619 4750 2861 4703 
Q 3103 4656 3366 4563 
z
" transform="scale(0.015625)"/>
       </defs>
       <use xlink:href="#DejaVuSans-36"/>
       <use xlink:href="#DejaVuSans-30" x="63.623047"/>
       <use xlink:href="#DejaVuSans-30" x="127.246094"/>
      </g>
     </g>
    </g>
    <g id="xtick_5">
     <g id="line2d_5">
      <g>
       <use xlink:href="#m74a0e6954a" x="333.816347" y="99.322435" style="stroke: #000000; stroke-width: 0.8"/>
      </g>
     </g>
     <g id="text_5">
      <!-- 800 -->
      <g transform="translate(324.272597 113.920872) scale(0.1 -0.1)">
       <defs>
        <path id="DejaVuSans-38" d="M 2034 2216 
Q 1584 2216 1326 1975 
Q 1069 1734 1069 1313 
Q 1069 891 1326 650 
Q 1584 409 2034 409 
Q 2484 409 2743 651 
Q 3003 894 3003 1313 
Q 3003 1734 2745 1975 
Q 2488 2216 2034 2216 
z
M 1403 2484 
Q 997 2584 770 2862 
Q 544 3141 544 3541 
Q 544 4100 942 4425 
Q 1341 4750 2034 4750 
Q 2731 4750 3128 4425 
Q 3525 4100 3525 3541 
Q 3525 3141 3298 2862 
Q 3072 2584 2669 2484 
Q 3125 2378 3379 2068 
Q 3634 1759 3634 1313 
Q 3634 634 3220 271 
Q 2806 -91 2034 -91 
Q 1263 -91 848 271 
Q 434 634 434 1313 
Q 434 1759 690 2068 
Q 947 2378 1403 2484 
z
M 1172 3481 
Q 1172 3119 1398 2916 
Q 1625 2713 2034 2713 
Q 2441 2713 2670 2916 
Q 2900 3119 2900 3481 
Q 2900 3844 2670 4047 
Q 2441 4250 2034 4250 
Q 1625 4250 1398 4047 
Q 1172 3844 1172 3481 
z
" transform="scale(0.015625)"/>
       </defs>
       <use xlink:href="#DejaVuSans-38"/>
       <use xlink:href="#DejaVuSans-30" x="63.623047"/>
       <use xlink:href="#DejaVuSans-30" x="127.246094"/>
      </g>
     </g>
    </g>
    <g id="xtick_6">
     <g id="line2d_6">
      <g>
       <use xlink:href="#m74a0e6954a" x="398.812252" y="99.322435" style="stroke: #000000; stroke-width: 0.8"/>
      </g>
     </g>
     <g id="text_6">
      <!-- 1000 -->
      <g transform="translate(386.087252 113.920872) scale(0.1 -0.1)">
       <defs>
        <path id="DejaVuSans-31" d="M 794 531 
L 1825 531 
L 1825 4091 
L 703 3866 
L 703 4441 
L 1819 4666 
L 2450 4666 
L 2450 531 
L 3481 531 
L 3481 0 
L 794 0 
L 794 531 
z
" transform="scale(0.015625)"/>
       </defs>
       <use xlink:href="#DejaVuSans-31"/>
       <use xlink:href="#DejaVuSans-30" x="63.623047"/>
       <use xlink:href="#DejaVuSans-30" x="127.246094"/>
       <use xlink:href="#DejaVuSans-30" x="190.869141"/>
      </g>
     </g>
    </g>
   </g>
   <g id="matplotlib.axis_2">
    <g id="ytick_1">
     <g id="line2d_7">
      <defs>
       <path id="mf71ffd4020" d="M 0 0 
L -3.5 0 
" style="stroke: #000000; stroke-width: 0.8"/>
      </defs>
      <g>
       <use xlink:href="#mf71ffd4020" x="57.6" y="79.162435" style="stroke: #000000; stroke-width: 0.8"/>
      </g>
     </g>
     <g id="text_7">
      <!-- 2 -->
      <g transform="translate(44.2375 82.961654) scale(0.1 -0.1)">
       <use xlink:href="#DejaVuSans-32"/>
      </g>
     </g>
    </g>
    <g id="ytick_2">
     <g id="line2d_8">
      <g>
       <use xlink:href="#mf71ffd4020" x="57.6" y="44.101565" style="stroke: #000000; stroke-width: 0.8"/>
      </g>
     </g>
     <g id="text_8">
      <!-- 4 -->
      <g transform="translate(44.2375 47.900784) scale(0.1 -0.1)">
       <use xlink:href="#DejaVuSans-34"/>
      </g>
     </g>
    </g>
   </g>
   <g id="line2d_9">
    <path d="M 73.832727 96.69287 
L 99.831089 93.772773 
L 125.829451 90.627837 
L 151.827813 87.258062 
L 177.826175 83.663448 
L 203.824537 79.843996 
L 229.822899 75.799704 
L 255.821261 71.530573 
L 281.819623 67.036603 
L 307.817985 62.317794 
L 333.816347 57.374146 
L 359.814709 52.205659 
L 385.813071 46.812333 
L 398.487273 44.101565 
L 398.487273 44.101565 
" clip-path="url(#p4b2604605f)" style="fill: none; stroke: #1f77b4; stroke-width: 1.5; stroke-linecap: square"/>
   </g>
   <g id="patch_3">
    <path d="M 57.6 99.322435 
L 57.6 41.472 
" style="fill: none; stroke: #000000; stroke-width: 0.8; stroke-linejoin: miter; stroke-linecap: square"/>
   </g>
   <g id="patch_4">
    <path d="M 414.72 99.322435 
L 414.72 41.472 
" style="fill: none; stroke: #000000; stroke-width: 0.8; stroke-linejoin: miter; stroke-linecap: square"/>
   </g>
   <g id="patch_5">
    <path d="M 57.6 99.322435 
L 414.72 99.322435 
" style="fill: none; stroke: #000000; stroke-width: 0.8; stroke-linejoin: miter; stroke-linecap: square"/>
   </g>
   <g id="patch_6">
    <path d="M 57.6 41.472 
L 414.72 41.472 
" style="fill: none; stroke: #000000; stroke-width: 0.8; stroke-linejoin: miter; stroke-linecap: square"/>
   </g>
   <g id="text_9">
    <!-- Ecuatie grad 2 -->
    <g transform="translate(192.486562 35.472) scale(0.12 -0.12)">
     <defs>
      <path id="DejaVuSans-45" d="M 628 4666 
L 3578 4666 
L 3578 4134 
L 1259 4134 
L 1259 2753 
L 3481 2753 
L 3481 2222 
L 1259 2222 
L 1259 531 
L 3634 531 
L 3634 0 
L 628 0 
L 628 4666 
z
" transform="scale(0.015625)"/>
      <path id="DejaVuSans-63" d="M 3122 3366 
L 3122 2828 
Q 2878 2963 2633 3030 
Q 2388 3097 2138 3097 
Q 1578 3097 1268 2742 
Q 959 2388 959 1747 
Q 959 1106 1268 751 
Q 1578 397 2138 397 
Q 2388 397 2633 464 
Q 2878 531 3122 666 
L 3122 134 
Q 2881 22 2623 -34 
Q 2366 -91 2075 -91 
Q 1284 -91 818 406 
Q 353 903 353 1747 
Q 353 2603 823 3093 
Q 1294 3584 2113 3584 
Q 2378 3584 2631 3529 
Q 2884 3475 3122 3366 
z
" transform="scale(0.015625)"/>
      <path id="DejaVuSans-75" d="M 544 1381 
L 544 3500 
L 1119 3500 
L 1119 1403 
Q 1119 906 1312 657 
Q 1506 409 1894 409 
Q 2359 409 2629 706 
Q 2900 1003 2900 1516 
L 2900 3500 
L 3475 3500 
L 3475 0 
L 2900 0 
L 2900 538 
Q 2691 219 2414 64 
Q 2138 -91 1772 -91 
Q 1169 -91 856 284 
Q 544 659 544 1381 
z
M 1991 3584 
L 1991 3584 
z
" transform="scale(0.015625)"/>
      <path id="DejaVuSans-61" d="M 2194 1759 
Q 1497 1759 1228 1600 
Q 959 1441 959 1056 
Q 959 750 1161 570 
Q 1363 391 1709 391 
Q 2188 391 2477 730 
Q 2766 1069 2766 1631 
L 2766 1759 
L 2194 1759 
z
M 3341 1997 
L 3341 0 
L 2766 0 
L 2766 531 
Q 2569 213 2275 61 
Q 1981 -91 1556 -91 
Q 1019 -91 701 211 
Q 384 513 384 1019 
Q 384 1609 779 1909 
Q 1175 2209 1959 2209 
L 2766 2209 
L 2766 2266 
Q 2766 2663 2505 2880 
Q 2244 3097 1772 3097 
Q 1472 3097 1187 3025 
Q 903 2953 641 2809 
L 641 3341 
Q 956 3463 1253 3523 
Q 1550 3584 1831 3584 
Q 2591 3584 2966 3190 
Q 3341 2797 3341 1997 
z
" transform="scale(0.015625)"/>
      <path id="DejaVuSans-74" d="M 1172 4494 
L 1172 3500 
L 2356 3500 
L 2356 3053 
L 1172 3053 
L 1172 1153 
Q 1172 725 1289 603 
Q 1406 481 1766 481 
L 2356 481 
L 2356 0 
L 1766 0 
Q 1100 0 847 248 
Q 594 497 594 1153 
L 594 3053 
L 172 3053 
L 172 3500 
L 594 3500 
L 594 4494 
L 1172 4494 
z
" transform="scale(0.015625)"/>
      <path id="DejaVuSans-69" d="M 603 3500 
L 1178 3500 
L 1178 0 
L 603 0 
L 603 3500 
z
M 603 4863 
L 1178 4863 
L 1178 4134 
L 603 4134 
L 603 4863 
z
" transform="scale(0.015625)"/>
      <path id="DejaVuSans-65" d="M 3597 1894 
L 3597 1613 
L 953 1613 
Q 991 1019 1311 708 
Q 1631 397 2203 397 
Q 2534 397 2845 478 
Q 3156 559 3463 722 
L 3463 178 
Q 3153 47 2828 -22 
Q 2503 -91 2169 -91 
Q 1331 -91 842 396 
Q 353 884 353 1716 
Q 353 2575 817 3079 
Q 1281 3584 2069 3584 
Q 2775 3584 3186 3129 
Q 3597 2675 3597 1894 
z
M 3022 2063 
Q 3016 2534 2758 2815 
Q 2500 3097 2075 3097 
Q 1594 3097 1305 2825 
Q 1016 2553 972 2059 
L 3022 2063 
z
" transform="scale(0.015625)"/>
      <path id="DejaVuSans-20" transform="scale(0.015625)"/>
      <path id="DejaVuSans-67" d="M 2906 1791 
Q 2906 2416 2648 2759 
Q 2391 3103 1925 3103 
Q 1463 3103 1205 2759 
Q 947 2416 947 1791 
Q 947 1169 1205 825 
Q 1463 481 1925 481 
Q 2391 481 2648 825 
Q 2906 1169 2906 1791 
z
M 3481 434 
Q 3481 -459 3084 -895 
Q 2688 -1331 1869 -1331 
Q 1566 -1331 1297 -1286 
Q 1028 -1241 775 -1147 
L 775 -588 
Q 1028 -725 1275 -790 
Q 1522 -856 1778 -856 
Q 2344 -856 2625 -561 
Q 2906 -266 2906 331 
L 2906 616 
Q 2728 306 2450 153 
Q 2172 0 1784 0 
Q 1141 0 747 490 
Q 353 981 353 1791 
Q 353 2603 747 3093 
Q 1141 3584 1784 3584 
Q 2172 3584 2450 3431 
Q 2728 3278 2906 2969 
L 2906 3500 
L 3481 3500 
L 3481 434 
z
" transform="scale(0.015625)"/>
      <path id="DejaVuSans-72" d="M 2631 2963 
Q 2534 3019 2420 3045 
Q 2306 3072 2169 3072 
Q 1681 3072 1420 2755 
Q 1159 2438 1159 1844 
L 1159 0 
L 581 0 
L 581 3500 
L 1159 3500 
L 1159 2956 
Q 1341 3275 1631 3429 
Q 1922 3584 2338 3584 
Q 2397 3584 2469 3576 
Q 2541 3569 2628 3553 
L 2631 2963 
z
" transform="scale(0.015625)"/>
      <path id="DejaVuSans-64" d="M 2906 2969 
L 2906 4863 
L 3481 4863 
L 3481 0 
L 2906 0 
L 2906 525 
Q 2725 213 2448 61 
Q 2172 -91 1784 -91 
Q 1150 -91 751 415 
Q 353 922 353 1747 
Q 353 2572 751 3078 
Q 1150 3584 1784 3584 
Q 2172 3584 2448 3432 
Q 2725 3281 2906 2969 
z
M 947 1747 
Q 947 1113 1208 752 
Q 1469 391 1925 391 
Q 2381 391 2643 752 
Q 2906 1113 2906 1747 
Q 2906 2381 2643 2742 
Q 2381 3103 1925 3103 
Q 1469 3103 1208 2742 
Q 947 2381 947 1747 
z
" transform="scale(0.015625)"/>
     </defs>
     <use xlink:href="#DejaVuSans-45"/>
     <use xlink:href="#DejaVuSans-63" x="63.183594"/>
     <use xlink:href="#DejaVuSans-75" x="118.164062"/>
     <use xlink:href="#DejaVuSans-61" x="181.542969"/>
     <use xlink:href="#DejaVuSans-74" x="242.822266"/>
     <use xlink:href="#DejaVuSans-69" x="282.03125"/>
     <use xlink:href="#DejaVuSans-65" x="309.814453"/>
     <use xlink:href="#DejaVuSans-20" x="371.337891"/>
     <use xlink:href="#DejaVuSans-67" x="403.125"/>
     <use xlink:href="#DejaVuSans-72" x="466.601562"/>
     <use xlink:href="#DejaVuSans-61" x="507.714844"/>
     <use xlink:href="#DejaVuSans-64" x="568.994141"/>
     <use xlink:href="#DejaVuSans-20" x="632.470703"/>
     <use xlink:href="#DejaVuSans-32" x="664.257812"/>
    </g>
   </g>
  </g>
  <g id="axes_2">
   <g id="patch_7">
    <path d="M 57.6 168.742957 
L 414.72 168.742957 
L 414.72 110.892522 
L 57.6 110.892522 
z
" style="fill: #ffffff"/>
   </g>
   <g id="matplotlib.axis_3">
    <g id="xtick_7">
     <g id="line2d_10">
      <g>
       <use xlink:href="#m74a0e6954a" x="73.832727" y="168.742957" style="stroke: #000000; stroke-width: 0.8"/>
      </g>
     </g>
     <g id="text_10">
      <!-- 0 -->
      <g transform="translate(70.651477 183.341394) scale(0.1 -0.1)">
       <use xlink:href="#DejaVuSans-30"/>
      </g>
     </g>
    </g>
    <g id="xtick_8">
     <g id="line2d_11">
      <g>
       <use xlink:href="#m74a0e6954a" x="138.828632" y="168.742957" style="stroke: #000000; stroke-width: 0.8"/>
      </g>
     </g>
     <g id="text_11">
      <!-- 200 -->
      <g transform="translate(129.284882 183.341394) scale(0.1 -0.1)">
       <use xlink:href="#DejaVuSans-32"/>
       <use xlink:href="#DejaVuSans-30" x="63.623047"/>
       <use xlink:href="#DejaVuSans-30" x="127.246094"/>
      </g>
     </g>
    </g>
    <g id="xtick_9">
     <g id="line2d_12">
      <g>
       <use xlink:href="#m74a0e6954a" x="203.824537" y="168.742957" style="stroke: #000000; stroke-width: 0.8"/>
      </g>
     </g>
     <g id="text_12">
      <!-- 400 -->
      <g transform="translate(194.280787 183.341394) scale(0.1 -0.1)">
       <use xlink:href="#DejaVuSans-34"/>
       <use xlink:href="#DejaVuSans-30" x="63.623047"/>
       <use xlink:href="#DejaVuSans-30" x="127.246094"/>
      </g>
     </g>
    </g>
    <g id="xtick_10">
     <g id="line2d_13">
      <g>
       <use xlink:href="#m74a0e6954a" x="268.820442" y="168.742957" style="stroke: #000000; stroke-width: 0.8"/>
      </g>
     </g>
     <g id="text_13">
      <!-- 600 -->
      <g transform="translate(259.276692 183.341394) scale(0.1 -0.1)">
       <use xlink:href="#DejaVuSans-36"/>
       <use xlink:href="#DejaVuSans-30" x="63.623047"/>
       <use xlink:href="#DejaVuSans-30" x="127.246094"/>
      </g>
     </g>
    </g>
    <g id="xtick_11">
     <g id="line2d_14">
      <g>
       <use xlink:href="#m74a0e6954a" x="333.816347" y="168.742957" style="stroke: #000000; stroke-width: 0.8"/>
      </g>
     </g>
     <g id="text_14">
      <!-- 800 -->
      <g transform="translate(324.272597 183.341394) scale(0.1 -0.1)">
       <use xlink:href="#DejaVuSans-38"/>
       <use xlink:href="#DejaVuSans-30" x="63.623047"/>
       <use xlink:href="#DejaVuSans-30" x="127.246094"/>
      </g>
     </g>
    </g>
    <g id="xtick_12">
     <g id="line2d_15">
      <g>
       <use xlink:href="#m74a0e6954a" x="398.812252" y="168.742957" style="stroke: #000000; stroke-width: 0.8"/>
      </g>
     </g>
     <g id="text_15">
      <!-- 1000 -->
      <g transform="translate(386.087252 183.341394) scale(0.1 -0.1)">
       <use xlink:href="#DejaVuSans-31"/>
       <use xlink:href="#DejaVuSans-30" x="63.623047"/>
       <use xlink:href="#DejaVuSans-30" x="127.246094"/>
       <use xlink:href="#DejaVuSans-30" x="190.869141"/>
      </g>
     </g>
    </g>
   </g>
   <g id="matplotlib.axis_4">
    <g id="ytick_3">
     <g id="line2d_16">
      <g>
       <use xlink:href="#mf71ffd4020" x="57.6" y="166.141209" style="stroke: #000000; stroke-width: 0.8"/>
      </g>
     </g>
     <g id="text_16">
      <!-- 0.0 -->
      <g transform="translate(34.696875 169.940428) scale(0.1 -0.1)">
       <defs>
        <path id="DejaVuSans-2e" d="M 684 794 
L 1344 794 
L 1344 0 
L 684 0 
L 684 794 
z
" transform="scale(0.015625)"/>
       </defs>
       <use xlink:href="#DejaVuSans-30"/>
       <use xlink:href="#DejaVuSans-2e" x="63.623047"/>
       <use xlink:href="#DejaVuSans-30" x="95.410156"/>
      </g>
     </g>
    </g>
    <g id="ytick_4">
     <g id="line2d_17">
      <g>
       <use xlink:href="#mf71ffd4020" x="57.6" y="113.507769" style="stroke: #000000; stroke-width: 0.8"/>
      </g>
     </g>
     <g id="text_17">
      <!-- 0.1 -->
      <g transform="translate(34.696875 117.306988) scale(0.1 -0.1)">
       <use xlink:href="#DejaVuSans-30"/>
       <use xlink:href="#DejaVuSans-2e" x="63.623047"/>
       <use xlink:href="#DejaVuSans-31" x="95.410156"/>
      </g>
     </g>
    </g>
   </g>
   <g id="line2d_18">
    <path d="M 73.832727 131.195252 
L 74.157707 154.698327 
L 74.482686 143.909587 
L 74.807666 144.089218 
L 75.132645 156.700192 
L 75.457625 163.171328 
L 75.782604 154.731563 
L 76.107584 129.535084 
L 76.432563 129.043387 
L 76.757543 137.701038 
L 77.082523 156.512399 
L 77.407502 164.043688 
L 77.732482 131.986806 
L 78.057461 152.407056 
L 78.382441 126.333876 
L 78.70742 123.261972 
L 79.0324 138.32741 
L 79.357379 138.498841 
L 79.682359 144.737412 
L 80.007338 137.463048 
L 80.332318 145.721998 
L 80.657297 121.69672 
L 80.982277 157.54492 
L 81.307256 136.306026 
L 81.632236 156.083468 
L 81.957215 159.504418 
L 82.282195 131.731456 
L 82.607174 159.406789 
L 82.932154 161.722347 
L 83.257133 140.916854 
L 83.582113 138.658855 
L 83.907093 138.730505 
L 84.232072 122.574793 
L 84.557052 125.717348 
L 84.882031 164.661274 
L 85.207011 139.144699 
L 85.53199 165.723365 
L 85.85697 140.084397 
L 86.181949 124.715874 
L 86.506929 149.348502 
L 86.831908 164.875306 
L 87.156888 128.616465 
L 87.806847 154.269299 
L 88.131826 150.240489 
L 88.456806 150.406841 
L 88.781785 145.977248 
L 89.106765 126.066049 
L 89.431744 124.546226 
L 89.756724 118.537139 
L 90.081704 159.55056 
L 90.406683 120.737073 
L 90.731663 122.685463 
L 91.056642 127.747493 
L 91.706601 121.500384 
L 92.031581 125.888757 
L 92.35656 127.996753 
L 92.68154 128.099903 
L 93.006519 136.290215 
L 93.331499 118.722897 
L 93.656478 148.622805 
L 93.981458 156.748087 
L 94.306437 117.132407 
L 94.956396 160.287358 
L 95.281376 115.235828 
L 95.606355 120.20083 
L 95.931335 156.045081 
L 96.581294 164.491012 
L 96.906274 165.59671 
L 97.231253 161.247167 
L 97.556233 142.933618 
L 97.881212 132.659849 
L 98.206192 130.430662 
L 98.531171 123.558926 
L 98.856151 156.285126 
L 99.18113 158.148721 
L 99.50611 119.634051 
L 99.831089 118.000313 
L 100.156069 155.052468 
L 100.481048 138.216902 
L 100.806028 129.130869 
L 101.131007 159.624963 
L 101.455987 143.998905 
L 101.780966 147.253491 
L 102.105946 126.615229 
L 102.430925 129.461507 
L 102.755905 152.571637 
L 103.080885 160.197395 
L 103.405864 124.856885 
L 103.730844 148.129195 
L 104.055823 114.732808 
L 104.380803 135.112927 
L 104.705782 137.038242 
L 105.355741 125.219396 
L 105.680721 146.898888 
L 106.0057 132.696116 
L 106.33068 163.112067 
L 106.655659 144.96689 
L 106.980639 145.261262 
L 107.305618 122.241901 
L 107.630598 122.647793 
L 107.955577 134.298882 
L 108.280557 161.134262 
L 108.930516 119.98049 
L 109.255495 123.993415 
L 109.580475 159.417086 
L 109.905455 114.20997 
L 110.555414 166.03274 
L 110.880393 135.451589 
L 111.205373 142.640051 
L 111.530352 144.373804 
L 111.855332 165.652004 
L 112.180311 116.953837 
L 112.505291 152.06267 
L 112.83027 139.36177 
L 113.480229 161.957639 
L 113.805209 161.051415 
L 114.130188 160.660618 
L 114.455168 121.275018 
L 114.780147 123.397649 
L 115.105127 164.157378 
L 115.430106 155.509707 
L 115.755086 140.162937 
L 116.080066 147.145682 
L 116.405045 163.173687 
L 116.730025 162.061728 
L 117.055004 160.210446 
L 117.379984 137.815005 
L 117.704963 145.412126 
L 118.029943 130.359119 
L 118.354922 158.917268 
L 118.679902 116.34342 
L 119.329861 134.860839 
L 119.65484 132.811816 
L 119.97982 136.399358 
L 120.304799 158.06654 
L 120.629779 158.97139 
L 120.954758 160.373749 
L 121.279738 150.374604 
L 121.604717 119.676899 
L 121.929697 144.60158 
L 122.254676 123.944933 
L 122.579656 140.344828 
L 122.904636 147.44745 
L 123.229615 150.504268 
L 123.554595 136.040831 
L 124.204554 149.250309 
L 124.529533 122.534018 
L 124.854513 124.588704 
L 125.504472 151.537084 
L 125.829451 124.523855 
L 126.154431 125.033509 
L 126.47941 150.940118 
L 126.80439 162.868374 
L 127.129369 155.044199 
L 127.454349 122.806641 
L 127.779328 148.49811 
L 128.104308 156.014433 
L 128.429287 120.545439 
L 128.754267 146.176185 
L 129.079247 115.861831 
L 129.404226 150.52699 
L 129.729206 153.621747 
L 130.054185 135.273087 
L 130.379165 143.887548 
L 130.704144 149.504417 
L 131.029124 162.230526 
L 131.354103 117.704801 
L 131.679083 135.168897 
L 132.004062 166.103401 
L 132.654021 121.070667 
L 132.979001 164.3408 
L 133.30398 152.592772 
L 133.62896 117.077838 
L 133.953939 160.960971 
L 134.278919 141.217043 
L 134.603898 143.428912 
L 134.928878 140.743485 
L 135.253857 164.603736 
L 135.578837 149.202813 
L 135.903817 143.093844 
L 136.228796 146.235549 
L 136.553776 122.675328 
L 136.878755 165.902049 
L 137.203735 158.31011 
L 137.528714 133.316293 
L 137.853694 124.399302 
L 138.178673 159.423139 
L 138.503653 164.285516 
L 138.828632 125.585485 
L 139.153612 113.852885 
L 139.478591 115.86865 
L 139.803571 147.077878 
L 140.12855 148.124 
L 140.45353 149.985132 
L 140.778509 124.709171 
L 141.103489 163.335822 
L 141.428468 127.57859 
L 142.078428 161.385414 
L 142.403407 116.595054 
L 142.728387 118.244675 
L 143.053366 122.837596 
L 143.378346 162.148088 
L 143.703325 145.196022 
L 144.028305 154.299114 
L 144.353284 129.074212 
L 144.678264 164.934648 
L 145.003243 129.643623 
L 145.328223 120.918601 
L 145.653202 166.101216 
L 145.978182 140.693796 
L 146.303161 141.753724 
L 146.628141 147.535153 
L 146.95312 142.673358 
L 147.2781 152.474661 
L 147.603079 116.558124 
L 147.928059 129.569031 
L 148.253038 124.645716 
L 148.578018 137.998745 
L 148.902998 142.28614 
L 149.227977 121.656188 
L 149.552957 153.601115 
L 149.877936 147.4705 
L 150.202916 136.37287 
L 150.527895 137.273958 
L 150.852875 156.351272 
L 151.177854 115.459385 
L 151.827813 150.405047 
L 152.152793 119.087722 
L 152.477772 145.870736 
L 152.802752 138.314264 
L 153.127731 123.327358 
L 153.452711 116.972207 
L 153.77769 165.063116 
L 154.10267 158.765038 
L 154.427649 128.327752 
L 154.752629 156.297496 
L 155.402588 134.158984 
L 155.727568 113.887026 
L 156.052547 114.524711 
L 156.377527 133.035557 
L 156.702506 164.098447 
L 157.027486 159.105802 
L 157.352465 123.354928 
L 157.677445 160.764056 
L 158.002424 165.947994 
L 158.327404 140.04111 
L 158.652383 134.741129 
L 158.977363 123.11007 
L 159.302342 119.103508 
L 159.627322 166.032542 
L 159.952301 152.873606 
L 160.277281 126.96307 
L 160.60226 165.806325 
L 160.92724 159.76701 
L 161.252219 127.909183 
L 161.577199 140.556814 
L 161.902179 136.364034 
L 162.227158 154.953454 
L 162.552138 143.547462 
L 162.877117 139.828136 
L 163.202097 155.769599 
L 163.527076 130.029284 
L 163.852056 140.561517 
L 164.177035 124.910496 
L 164.502015 159.650374 
L 164.826994 134.756756 
L 165.151974 165.136625 
L 165.476953 118.769234 
L 165.801933 125.740497 
L 166.126912 152.579555 
L 166.451892 114.224723 
L 166.776871 154.374629 
L 167.101851 161.845802 
L 167.42683 134.509055 
L 167.75181 165.910851 
L 168.07679 137.060936 
L 168.401769 161.185307 
L 168.726749 156.911475 
L 169.051728 134.741148 
L 169.376708 148.294119 
L 169.701687 127.639456 
L 170.026667 154.822255 
L 170.351646 134.592888 
L 170.676626 149.010982 
L 171.001605 122.337429 
L 171.326585 154.600188 
L 171.651564 151.296959 
L 171.976544 134.322162 
L 172.301523 164.9742 
L 172.951482 142.110059 
L 173.276462 121.525626 
L 173.601441 163.540599 
L 174.2514 121.160983 
L 174.90136 151.729858 
L 175.226339 120.754193 
L 175.551319 161.128149 
L 175.876298 137.377675 
L 176.201278 165.914416 
L 176.526257 154.270159 
L 176.851237 116.410953 
L 177.176216 128.080748 
L 177.501196 165.144589 
L 177.826175 162.560799 
L 178.151155 141.981907 
L 178.476134 147.354743 
L 178.801114 162.129299 
L 179.126093 121.40143 
L 179.451073 141.337425 
L 179.776052 123.141025 
L 180.101032 122.065418 
L 180.426011 142.960154 
L 180.750991 155.761831 
L 181.075971 134.45114 
L 181.40095 163.983925 
L 182.050909 115.936703 
L 182.375889 136.475356 
L 182.700868 139.866338 
L 183.025848 118.902123 
L 183.350827 133.142283 
L 183.675807 157.10351 
L 184.000786 118.760217 
L 184.325766 155.480596 
L 184.650745 118.049447 
L 184.975725 161.58247 
L 185.300704 145.07386 
L 185.625684 119.087951 
L 185.950663 151.821042 
L 186.275643 160.269375 
L 186.600622 145.044793 
L 186.925602 138.376608 
L 187.250581 140.245421 
L 187.575561 136.96887 
L 187.900541 137.367547 
L 188.22552 135.967484 
L 188.5505 155.163857 
L 188.875479 123.11432 
L 189.525438 155.642276 
L 189.850418 159.579841 
L 190.175397 124.835941 
L 190.500377 139.192387 
L 190.825356 130.594447 
L 191.150336 127.412692 
L 191.475315 144.205416 
L 191.800295 153.219543 
L 192.125274 123.451587 
L 192.450254 118.914024 
L 192.775233 117.870457 
L 193.100213 122.725921 
L 193.425192 148.01055 
L 193.750172 163.805922 
L 194.075152 154.857561 
L 194.400131 159.23271 
L 194.725111 149.015229 
L 195.05009 120.576964 
L 195.37507 139.042077 
L 195.700049 116.818085 
L 196.025029 147.671561 
L 196.350008 149.46226 
L 196.674988 130.545013 
L 196.999967 163.554695 
L 197.324947 135.761261 
L 197.649926 133.692368 
L 197.974906 146.16459 
L 198.299885 133.742276 
L 198.624865 133.265451 
L 198.949844 158.309247 
L 199.599803 114.214314 
L 199.924783 118.074812 
L 200.574742 153.604153 
L 200.899722 157.825355 
L 201.549681 123.487158 
L 201.87466 160.518606 
L 202.19964 134.46536 
L 202.524619 126.526414 
L 202.849599 150.512732 
L 203.174578 140.958183 
L 203.499558 123.237319 
L 203.824537 133.02913 
L 204.149517 113.591511 
L 204.474496 129.061155 
L 204.799476 159.279553 
L 205.449435 141.071887 
L 205.774414 127.669867 
L 206.424373 148.323388 
L 206.749353 149.272309 
L 207.074333 134.298774 
L 207.399312 159.042539 
L 207.724292 139.612443 
L 208.374251 165.290717 
L 208.69923 148.298684 
L 209.02421 138.144026 
L 209.349189 132.419738 
L 209.674169 117.159866 
L 210.324128 160.594008 
L 210.649107 155.919097 
L 210.974087 121.928324 
L 211.299066 124.601814 
L 211.624046 149.365382 
L 211.949025 157.745912 
L 212.274005 120.659317 
L 212.598984 128.443817 
L 212.923964 124.514061 
L 213.248943 128.505693 
L 213.573923 130.622781 
L 213.898903 154.34716 
L 214.223882 148.662429 
L 214.548862 133.926125 
L 214.873841 138.004801 
L 215.198821 154.500677 
L 215.5238 155.145549 
L 215.84878 164.167321 
L 216.173759 165.276201 
L 216.498739 122.588147 
L 216.823718 153.44142 
L 217.798657 113.522087 
L 218.123636 150.682729 
L 218.448616 128.444415 
L 219.098575 160.955372 
L 219.423554 156.345669 
L 219.748534 159.96935 
L 220.073514 117.548708 
L 220.398493 140.876756 
L 221.048452 115.195969 
L 221.373432 153.711408 
L 221.698411 164.479999 
L 222.34837 132.152691 
L 222.67335 153.484306 
L 222.998329 155.57984 
L 223.323309 119.797873 
L 223.648288 138.988137 
L 223.973268 115.903671 
L 224.623227 148.671032 
L 224.948206 152.27426 
L 225.273186 139.997298 
L 225.598165 118.169795 
L 225.923145 142.326872 
L 226.248124 130.076688 
L 226.573104 140.604771 
L 226.898084 125.037223 
L 227.223063 123.119703 
L 227.548043 123.721119 
L 227.873022 151.714446 
L 228.198002 146.377723 
L 228.522981 114.282951 
L 228.847961 155.464261 
L 229.17294 114.214568 
L 229.49792 122.92363 
L 229.822899 154.247591 
L 230.147879 141.389418 
L 230.472858 157.076132 
L 230.797838 152.11785 
L 231.122817 115.349642 
L 231.447797 129.9967 
L 231.772776 133.738204 
L 232.097756 118.856663 
L 232.422735 134.640259 
L 232.747715 113.678281 
L 233.072695 159.009317 
L 233.397674 121.7095 
L 233.722654 135.232264 
L 234.047633 117.390052 
L 234.372613 158.056254 
L 234.697592 149.369541 
L 235.022572 144.964812 
L 235.347551 123.496714 
L 235.672531 143.15445 
L 235.99751 121.483212 
L 236.32249 141.968513 
L 236.647469 149.200128 
L 236.972449 146.429492 
L 237.297428 146.146886 
L 237.622408 160.395799 
L 237.947387 115.381383 
L 238.272367 141.493666 
L 238.597346 116.331266 
L 239.247305 146.377295 
L 239.572285 146.792754 
L 239.897265 128.021263 
L 240.222244 145.060435 
L 240.547224 139.03327 
L 240.872203 159.494362 
L 241.197183 124.572116 
L 241.522162 114.85614 
L 241.847142 120.394299 
L 242.172121 151.437482 
L 242.497101 121.110246 
L 242.82208 165.668096 
L 243.472039 148.628754 
L 244.121998 158.360113 
L 244.446978 129.069427 
L 244.771957 162.19114 
L 245.096937 118.768753 
L 245.421916 140.293247 
L 246.071876 116.165886 
L 246.396855 140.173575 
L 246.721835 155.332962 
L 247.046814 131.453403 
L 247.371794 128.144334 
L 247.696773 164.596612 
L 248.021753 165.470287 
L 248.346732 127.90943 
L 248.671712 113.53094 
L 248.996691 148.315128 
L 249.321671 133.717648 
L 249.64665 145.906007 
L 249.97163 150.111856 
L 250.296609 156.392418 
L 250.621589 123.272175 
L 250.946568 122.791859 
L 251.271548 126.639262 
L 251.596527 145.545185 
L 251.921507 136.236462 
L 252.246486 117.960349 
L 252.571466 128.044666 
L 252.896446 161.051431 
L 253.221425 114.825597 
L 253.546405 140.101626 
L 253.871384 123.48027 
L 254.196364 139.184037 
L 254.521343 127.496767 
L 254.846323 158.845496 
L 255.171302 163.660252 
L 255.496282 141.487172 
L 255.821261 154.632405 
L 256.146241 156.689974 
L 256.47122 145.46554 
L 256.7962 159.613303 
L 257.446159 163.311797 
L 257.771138 144.723931 
L 258.096118 117.406003 
L 258.421097 157.217874 
L 258.746077 139.691183 
L 259.071057 133.351317 
L 259.396036 141.035102 
L 259.721016 138.551614 
L 260.045995 162.002264 
L 260.370975 150.701966 
L 260.695954 126.20317 
L 261.020934 155.603055 
L 261.670893 117.186593 
L 261.995872 118.594297 
L 262.320852 150.118945 
L 262.645831 120.406833 
L 262.970811 156.876098 
L 263.29579 147.71955 
L 263.62077 149.747357 
L 263.945749 118.919474 
L 264.270729 128.036908 
L 264.595708 151.873535 
L 264.920688 150.24432 
L 265.245667 165.635775 
L 265.570647 122.670014 
L 265.895627 156.521052 
L 266.220606 150.280517 
L 266.545586 123.948447 
L 266.870565 128.4444 
L 267.195545 136.496222 
L 267.520524 154.737091 
L 267.845504 124.642542 
L 268.170483 124.052846 
L 268.495463 124.426225 
L 268.820442 115.932515 
L 269.145422 137.983844 
L 269.470401 130.846518 
L 269.795381 158.805691 
L 270.12036 163.71718 
L 270.44534 164.883659 
L 270.770319 159.115349 
L 271.095299 123.873812 
L 271.420278 162.867403 
L 272.070238 128.206741 
L 272.395217 133.974629 
L 272.720197 162.407785 
L 273.370156 116.783711 
L 273.695135 157.66774 
L 274.020115 115.407337 
L 274.345094 164.50266 
L 274.670074 129.07663 
L 274.995053 135.531571 
L 275.320033 139.506566 
L 275.645012 138.249678 
L 275.969992 157.716002 
L 276.294971 114.148793 
L 276.619951 134.201449 
L 276.94493 121.084147 
L 277.26991 162.291229 
L 277.594889 115.523022 
L 277.919869 122.623558 
L 278.244848 156.028832 
L 278.569828 156.709441 
L 278.894808 134.764525 
L 279.219787 150.281586 
L 279.544767 154.232443 
L 279.869746 124.651013 
L 280.194726 123.123063 
L 280.519705 122.806334 
L 280.844685 116.729336 
L 281.169664 146.436225 
L 281.494644 165.489487 
L 281.819623 113.540022 
L 282.144603 158.234798 
L 282.469582 144.772816 
L 282.794562 154.557978 
L 283.119541 126.423341 
L 283.444521 131.972683 
L 283.7695 144.016615 
L 284.09448 130.690594 
L 284.419459 134.506078 
L 284.744439 145.482914 
L 285.069419 141.250082 
L 285.394398 135.483434 
L 285.719378 145.459678 
L 286.044357 142.774396 
L 286.369337 123.503768 
L 286.694316 140.062778 
L 287.019296 124.339338 
L 287.344275 120.667968 
L 287.669255 135.88853 
L 287.994234 164.849119 
L 288.319214 152.660415 
L 288.644193 151.876808 
L 288.969173 115.427718 
L 289.619132 162.867097 
L 289.944111 137.133281 
L 290.269091 147.829986 
L 290.59407 129.572222 
L 290.91905 154.016198 
L 291.244029 148.494339 
L 291.569009 148.769823 
L 291.893989 128.074864 
L 292.218968 165.082631 
L 292.543948 124.188201 
L 292.868927 165.030771 
L 293.193907 160.068524 
L 293.518886 156.949077 
L 293.843866 132.547212 
L 294.168845 153.802943 
L 294.493825 149.859209 
L 294.818804 162.676266 
L 295.143784 119.419674 
L 295.793743 147.935352 
L 296.118722 139.288566 
L 296.443702 165.723208 
L 296.768681 161.35193 
L 297.41864 114.963368 
L 297.74362 162.203777 
L 298.0686 114.646958 
L 298.718559 158.483088 
L 299.368518 153.835961 
L 299.693497 130.869514 
L 300.018477 143.577107 
L 300.343456 126.469845 
L 300.668436 123.205259 
L 300.993415 159.807706 
L 301.318395 131.99513 
L 301.643374 118.838411 
L 301.968354 165.191369 
L 302.293333 152.912403 
L 302.618313 164.760416 
L 302.943292 128.468115 
L 303.268272 128.479856 
L 303.593251 142.855871 
L 303.918231 136.821965 
L 304.24321 145.778646 
L 304.56819 119.781381 
L 304.89317 134.927845 
L 305.218149 136.105877 
L 305.543129 152.646446 
L 305.868108 161.750198 
L 306.193088 137.701605 
L 306.518067 133.325539 
L 306.843047 117.001812 
L 307.168026 148.090376 
L 307.493006 155.698283 
L 307.817985 128.387778 
L 308.142965 151.204568 
L 308.467944 133.969108 
L 308.792924 130.594786 
L 309.117903 161.089916 
L 309.442883 133.534545 
L 309.767862 164.854651 
L 310.092842 153.311368 
L 310.417821 156.220021 
L 310.742801 143.202137 
L 311.067781 163.762274 
L 311.39276 118.506315 
L 312.042719 151.72838 
L 312.367699 157.211227 
L 312.692678 116.183686 
L 313.017658 159.170813 
L 313.342637 120.633867 
L 313.667617 137.366023 
L 313.992596 142.527184 
L 314.317576 130.975715 
L 314.642555 126.174284 
L 314.967535 138.473036 
L 315.292514 165.589063 
L 315.617494 116.974635 
L 315.942473 118.138915 
L 316.267453 145.259582 
L 316.592432 127.215949 
L 316.917412 146.19206 
L 317.242391 132.184061 
L 317.567371 161.950639 
L 317.892351 141.723529 
L 318.21733 135.594924 
L 318.54231 135.485015 
L 318.867289 124.822583 
L 319.192269 147.536675 
L 319.517248 117.206573 
L 319.842228 126.837145 
L 320.167207 126.040457 
L 320.492187 135.705851 
L 320.817166 151.097941 
L 321.142146 141.644543 
L 321.467125 158.504223 
L 321.792105 134.145601 
L 322.117084 135.639979 
L 322.442064 125.568443 
L 322.767043 123.721407 
L 323.092023 164.914299 
L 323.417002 155.467399 
L 323.741982 166.113391 
L 324.066962 140.957737 
L 324.391941 139.347361 
L 324.716921 140.534744 
L 325.0419 156.956032 
L 325.36688 136.139111 
L 325.691859 155.708321 
L 326.016839 127.027418 
L 326.341818 122.315464 
L 326.666798 127.326162 
L 326.991777 114.49618 
L 327.316757 158.79201 
L 327.641736 144.750849 
L 327.966716 162.624065 
L 328.291695 157.82019 
L 328.616675 155.225718 
L 329.266634 125.451512 
L 329.591613 161.163381 
L 329.916593 133.867651 
L 330.241572 163.537282 
L 330.566552 136.870114 
L 331.216511 123.764869 
L 331.541491 130.559006 
L 331.86647 120.950421 
L 332.516429 146.538698 
L 332.841409 141.458589 
L 333.166388 117.554799 
L 333.491368 160.814828 
L 333.816347 143.770533 
L 334.466306 151.918435 
L 334.791286 138.823562 
L 335.116265 133.613589 
L 335.441245 156.242628 
L 335.766224 117.979835 
L 336.091204 157.562356 
L 336.416183 128.511138 
L 336.741163 127.511868 
L 337.066143 162.595515 
L 337.391122 124.291572 
L 337.716102 137.882413 
L 338.041081 162.483425 
L 338.366061 121.182437 
L 338.69104 125.567341 
L 339.01602 147.685439 
L 339.340999 146.062183 
L 339.665979 138.036796 
L 339.990958 156.068102 
L 340.315938 126.095458 
L 340.640917 153.064538 
L 340.965897 150.897164 
L 341.290876 164.281127 
L 341.615856 165.141471 
L 341.940835 138.911165 
L 342.265815 130.257616 
L 342.590794 129.580703 
L 342.915774 127.334792 
L 343.240753 114.404895 
L 343.565733 152.561268 
L 343.890713 136.294481 
L 344.215692 135.992393 
L 344.540672 134.960025 
L 344.865651 139.339063 
L 345.190631 154.584734 
L 345.51561 123.4414 
L 345.84059 126.646648 
L 346.165569 133.494236 
L 346.490549 146.886642 
L 346.815528 136.327317 
L 347.140508 138.910959 
L 347.465487 158.381182 
L 347.790467 156.766012 
L 348.115446 124.529046 
L 348.440426 133.388751 
L 348.765405 131.75635 
L 349.090385 159.142648 
L 349.740344 121.775289 
L 350.065324 124.132107 
L 350.390303 153.289546 
L 351.040262 124.780656 
L 351.365242 136.773145 
L 351.690221 156.739523 
L 352.015201 117.206243 
L 352.34018 165.495121 
L 352.66516 129.378083 
L 352.990139 130.920545 
L 353.315119 119.311849 
L 353.640098 119.953719 
L 353.965078 128.794544 
L 354.290057 146.39305 
L 354.615037 138.133314 
L 354.940016 125.32982 
L 355.589975 152.718716 
L 355.914955 127.752445 
L 356.239934 127.129057 
L 356.564914 119.506662 
L 356.889894 144.369988 
L 357.214873 142.954636 
L 357.539853 162.296008 
L 357.864832 152.066024 
L 358.189812 156.885854 
L 358.514791 146.66385 
L 358.839771 155.738429 
L 359.16475 153.872976 
L 359.48973 156.92197 
L 359.814709 152.592843 
L 360.139689 155.613109 
L 360.464668 131.012759 
L 360.789648 153.355605 
L 361.114627 158.482718 
L 361.439607 153.940559 
L 361.764586 164.109169 
L 362.089566 143.161294 
L 362.414545 158.887618 
L 362.739525 136.586158 
L 363.064505 138.127775 
L 363.389484 116.417132 
L 363.714464 137.150556 
L 364.039443 128.596102 
L 364.364423 160.629549 
L 364.689402 139.053519 
L 365.014382 163.218037 
L 365.339361 149.74765 
L 365.98932 156.043339 
L 366.3143 137.134189 
L 366.639279 165.470667 
L 366.964259 132.78408 
L 367.289238 143.105302 
L 367.614218 144.298763 
L 367.939197 161.713628 
L 368.264177 123.2402 
L 368.589156 154.026249 
L 368.914136 155.444466 
L 369.239115 122.436332 
L 369.564095 161.294112 
L 370.214054 115.373708 
L 370.539034 120.584085 
L 370.864013 149.946757 
L 371.513972 118.011814 
L 371.838952 161.844364 
L 372.163931 117.308001 
L 372.488911 137.830589 
L 373.13887 120.223655 
L 373.463849 139.655971 
L 373.788829 127.762136 
L 374.113808 166.073746 
L 374.438788 117.048504 
L 374.763767 131.419689 
L 375.088747 118.584438 
L 375.413726 160.087276 
L 375.738706 150.247945 
L 376.063686 121.055869 
L 376.388665 147.001089 
L 376.713645 115.648762 
L 377.038624 160.678019 
L 377.363604 127.724922 
L 377.688583 161.771268 
L 378.013563 127.339581 
L 378.338542 134.803336 
L 378.663522 117.402614 
L 378.988501 137.728406 
L 379.313481 129.782523 
L 379.63846 117.037336 
L 379.96344 127.954619 
L 380.288419 160.627374 
L 380.613399 127.134135 
L 380.938378 136.478066 
L 381.263358 128.437525 
L 381.588337 150.723298 
L 381.913317 130.222877 
L 382.238296 128.737334 
L 382.563276 162.11171 
L 382.888256 157.187439 
L 383.213235 131.185726 
L 383.538215 151.439564 
L 383.863194 143.039027 
L 384.188174 129.987592 
L 384.513153 127.454905 
L 384.838133 159.828572 
L 385.163112 151.291621 
L 385.813071 118.972328 
L 386.138051 127.468702 
L 386.46303 161.965512 
L 386.78801 134.774653 
L 387.112989 122.015686 
L 387.437969 145.555358 
L 387.762948 158.347117 
L 388.087928 146.481212 
L 388.412907 162.937244 
L 388.737887 134.553041 
L 389.062867 126.229251 
L 389.387846 149.784958 
L 389.712826 126.130111 
L 390.037805 150.819115 
L 390.362785 143.556731 
L 391.012744 158.688382 
L 391.337723 148.835914 
L 391.662703 161.242754 
L 391.987682 134.568578 
L 392.312662 164.887905 
L 392.637641 152.87345 
L 392.962621 130.934102 
L 393.2876 159.675902 
L 393.61258 134.666232 
L 393.937559 152.037837 
L 394.262539 155.251883 
L 394.587518 139.0294 
L 395.237477 151.495144 
L 395.562457 133.740545 
L 395.887437 163.585929 
L 396.862375 119.099297 
L 397.187355 120.756937 
L 397.512334 116.375961 
L 397.837314 136.482819 
L 398.162293 164.346867 
L 398.487273 162.699659 
L 398.487273 162.699659 
" clip-path="url(#pe9f219465c)" style="fill: none; stroke: #1f77b4; stroke-width: 1.5; stroke-linecap: square"/>
   </g>
   <g id="patch_8">
    <path d="M 57.6 168.742957 
L 57.6 110.892522 
" style="fill: none; stroke: #000000; stroke-width: 0.8; stroke-linejoin: miter; stroke-linecap: square"/>
   </g>
   <g id="patch_9">
    <path d="M 414.72 168.742957 
L 414.72 110.892522 
" style="fill: none; stroke: #000000; stroke-width: 0.8; stroke-linejoin: miter; stroke-linecap: square"/>
   </g>
   <g id="patch_10">
    <path d="M 57.6 168.742957 
L 414.72 168.742957 
" style="fill: none; stroke: #000000; stroke-width: 0.8; stroke-linejoin: miter; stroke-linecap: square"/>
   </g>
   <g id="patch_11">
    <path d="M 57.6 110.892522 
L 414.72 110.892522 
" style="fill: none; stroke: #000000; stroke-width: 0.8; stroke-linejoin: miter; stroke-linecap: square"/>
   </g>
   <g id="text_18">
    <!-- Zgomot -->
    <g transform="translate(212.701875 104.892522) scale(0.12 -0.12)">
     <defs>
      <path id="DejaVuSans-5a" d="M 359 4666 
L 4025 4666 
L 4025 4184 
L 1075 531 
L 4097 531 
L 4097 0 
L 288 0 
L 288 481 
L 3238 4134 
L 359 4134 
L 359 4666 
z
" transform="scale(0.015625)"/>
      <path id="DejaVuSans-6f" d="M 1959 3097 
Q 1497 3097 1228 2736 
Q 959 2375 959 1747 
Q 959 1119 1226 758 
Q 1494 397 1959 397 
Q 2419 397 2687 759 
Q 2956 1122 2956 1747 
Q 2956 2369 2687 2733 
Q 2419 3097 1959 3097 
z
M 1959 3584 
Q 2709 3584 3137 3096 
Q 3566 2609 3566 1747 
Q 3566 888 3137 398 
Q 2709 -91 1959 -91 
Q 1206 -91 779 398 
Q 353 888 353 1747 
Q 353 2609 779 3096 
Q 1206 3584 1959 3584 
z
" transform="scale(0.015625)"/>
      <path id="DejaVuSans-6d" d="M 3328 2828 
Q 3544 3216 3844 3400 
Q 4144 3584 4550 3584 
Q 5097 3584 5394 3201 
Q 5691 2819 5691 2113 
L 5691 0 
L 5113 0 
L 5113 2094 
Q 5113 2597 4934 2840 
Q 4756 3084 4391 3084 
Q 3944 3084 3684 2787 
Q 3425 2491 3425 1978 
L 3425 0 
L 2847 0 
L 2847 2094 
Q 2847 2600 2669 2842 
Q 2491 3084 2119 3084 
Q 1678 3084 1418 2786 
Q 1159 2488 1159 1978 
L 1159 0 
L 581 0 
L 581 3500 
L 1159 3500 
L 1159 2956 
Q 1356 3278 1631 3431 
Q 1906 3584 2284 3584 
Q 2666 3584 2933 3390 
Q 3200 3197 3328 2828 
z
" transform="scale(0.015625)"/>
     </defs>
     <use xlink:href="#DejaVuSans-5a"/>
     <use xlink:href="#DejaVuSans-67" x="68.505859"/>
     <use xlink:href="#DejaVuSans-6f" x="131.982422"/>
     <use xlink:href="#DejaVuSans-6d" x="193.164062"/>
     <use xlink:href="#DejaVuSans-6f" x="290.576172"/>
     <use xlink:href="#DejaVuSans-74" x="351.757812"/>
    </g>
   </g>
  </g>
  <g id="axes_3">
   <g id="patch_12">
    <path d="M 57.6 238.163478 
L 414.72 238.163478 
L 414.72 180.313043 
L 57.6 180.313043 
z
" style="fill: #ffffff"/>
   </g>
   <g id="matplotlib.axis_5">
    <g id="xtick_13">
     <g id="line2d_19">
      <g>
       <use xlink:href="#m74a0e6954a" x="73.832727" y="238.163478" style="stroke: #000000; stroke-width: 0.8"/>
      </g>
     </g>
     <g id="text_19">
      <!-- 0 -->
      <g transform="translate(70.651477 252.761916) scale(0.1 -0.1)">
       <use xlink:href="#DejaVuSans-30"/>
      </g>
     </g>
    </g>
    <g id="xtick_14">
     <g id="line2d_20">
      <g>
       <use xlink:href="#m74a0e6954a" x="138.828632" y="238.163478" style="stroke: #000000; stroke-width: 0.8"/>
      </g>
     </g>
     <g id="text_20">
      <!-- 200 -->
      <g transform="translate(129.284882 252.761916) scale(0.1 -0.1)">
       <use xlink:href="#DejaVuSans-32"/>
       <use xlink:href="#DejaVuSans-30" x="63.623047"/>
       <use xlink:href="#DejaVuSans-30" x="127.246094"/>
      </g>
     </g>
    </g>
    <g id="xtick_15">
     <g id="line2d_21">
      <g>
       <use xlink:href="#m74a0e6954a" x="203.824537" y="238.163478" style="stroke: #000000; stroke-width: 0.8"/>
      </g>
     </g>
     <g id="text_21">
      <!-- 400 -->
      <g transform="translate(194.280787 252.761916) scale(0.1 -0.1)">
       <use xlink:href="#DejaVuSans-34"/>
       <use xlink:href="#DejaVuSans-30" x="63.623047"/>
       <use xlink:href="#DejaVuSans-30" x="127.246094"/>
      </g>
     </g>
    </g>
    <g id="xtick_16">
     <g id="line2d_22">
      <g>
       <use xlink:href="#m74a0e6954a" x="268.820442" y="238.163478" style="stroke: #000000; stroke-width: 0.8"/>
      </g>
     </g>
     <g id="text_22">
      <!-- 600 -->
      <g transform="translate(259.276692 252.761916) scale(0.1 -0.1)">
       <use xlink:href="#DejaVuSans-36"/>
       <use xlink:href="#DejaVuSans-30" x="63.623047"/>
       <use xlink:href="#DejaVuSans-30" x="127.246094"/>
      </g>
     </g>
    </g>
    <g id="xtick_17">
     <g id="line2d_23">
      <g>
       <use xlink:href="#m74a0e6954a" x="333.816347" y="238.163478" style="stroke: #000000; stroke-width: 0.8"/>
      </g>
     </g>
     <g id="text_23">
      <!-- 800 -->
      <g transform="translate(324.272597 252.761916) scale(0.1 -0.1)">
       <use xlink:href="#DejaVuSans-38"/>
       <use xlink:href="#DejaVuSans-30" x="63.623047"/>
       <use xlink:href="#DejaVuSans-30" x="127.246094"/>
      </g>
     </g>
    </g>
    <g id="xtick_18">
     <g id="line2d_24">
      <g>
       <use xlink:href="#m74a0e6954a" x="398.812252" y="238.163478" style="stroke: #000000; stroke-width: 0.8"/>
      </g>
     </g>
     <g id="text_24">
      <!-- 1000 -->
      <g transform="translate(386.087252 252.761916) scale(0.1 -0.1)">
       <use xlink:href="#DejaVuSans-31"/>
       <use xlink:href="#DejaVuSans-30" x="63.623047"/>
       <use xlink:href="#DejaVuSans-30" x="127.246094"/>
       <use xlink:href="#DejaVuSans-30" x="190.869141"/>
      </g>
     </g>
    </g>
   </g>
   <g id="matplotlib.axis_6">
    <g id="ytick_5">
     <g id="line2d_25">
      <g>
       <use xlink:href="#mf71ffd4020" x="57.6" y="233.267406" style="stroke: #000000; stroke-width: 0.8"/>
      </g>
     </g>
     <g id="text_25">
      <!-- −0.25 -->
      <g transform="translate(19.954687 237.066625) scale(0.1 -0.1)">
       <defs>
        <path id="DejaVuSans-2212" d="M 678 2272 
L 4684 2272 
L 4684 1741 
L 678 1741 
L 678 2272 
z
" transform="scale(0.015625)"/>
        <path id="DejaVuSans-35" d="M 691 4666 
L 3169 4666 
L 3169 4134 
L 1269 4134 
L 1269 2991 
Q 1406 3038 1543 3061 
Q 1681 3084 1819 3084 
Q 2600 3084 3056 2656 
Q 3513 2228 3513 1497 
Q 3513 744 3044 326 
Q 2575 -91 1722 -91 
Q 1428 -91 1123 -41 
Q 819 9 494 109 
L 494 744 
Q 775 591 1075 516 
Q 1375 441 1709 441 
Q 2250 441 2565 725 
Q 2881 1009 2881 1497 
Q 2881 1984 2565 2268 
Q 2250 2553 1709 2553 
Q 1456 2553 1204 2497 
Q 953 2441 691 2322 
L 691 4666 
z
" transform="scale(0.015625)"/>
       </defs>
       <use xlink:href="#DejaVuSans-2212"/>
       <use xlink:href="#DejaVuSans-30" x="83.789062"/>
       <use xlink:href="#DejaVuSans-2e" x="147.412109"/>
       <use xlink:href="#DejaVuSans-32" x="179.199219"/>
       <use xlink:href="#DejaVuSans-35" x="242.822266"/>
      </g>
     </g>
    </g>
    <g id="ytick_6">
     <g id="line2d_26">
      <g>
       <use xlink:href="#mf71ffd4020" x="57.6" y="209.238261" style="stroke: #000000; stroke-width: 0.8"/>
      </g>
     </g>
     <g id="text_26">
      <!-- 0.00 -->
      <g transform="translate(28.334375 213.03748) scale(0.1 -0.1)">
       <use xlink:href="#DejaVuSans-30"/>
       <use xlink:href="#DejaVuSans-2e" x="63.623047"/>
       <use xlink:href="#DejaVuSans-30" x="95.410156"/>
       <use xlink:href="#DejaVuSans-30" x="159.033203"/>
      </g>
     </g>
    </g>
    <g id="ytick_7">
     <g id="line2d_27">
      <g>
       <use xlink:href="#mf71ffd4020" x="57.6" y="185.209116" style="stroke: #000000; stroke-width: 0.8"/>
      </g>
     </g>
     <g id="text_27">
      <!-- 0.25 -->
      <g transform="translate(28.334375 189.008334) scale(0.1 -0.1)">
       <use xlink:href="#DejaVuSans-30"/>
       <use xlink:href="#DejaVuSans-2e" x="63.623047"/>
       <use xlink:href="#DejaVuSans-32" x="95.410156"/>
       <use xlink:href="#DejaVuSans-35" x="159.033203"/>
      </g>
     </g>
    </g>
   </g>
   <g id="line2d_28">
    <path d="M 73.832727 209.238261 
L 77.732482 198.669883 
L 79.682359 193.959763 
L 81.307256 190.529292 
L 82.932154 187.655404 
L 84.232072 185.811926 
L 85.53199 184.408172 
L 86.506929 183.657539 
L 87.481867 183.172482 
L 88.456806 182.95544 
L 89.431744 183.005631 
L 90.406683 183.319077 
L 91.381622 183.888658 
L 92.35656 184.704219 
L 93.656478 186.151314 
L 94.956396 187.973816 
L 96.581294 190.70905 
L 98.531171 194.522414 
L 101.131007 200.171563 
L 105.680721 210.152474 
L 107.630598 213.914755 
L 109.255495 216.614682 
L 110.555414 218.426787 
L 111.855332 219.891211 
L 113.15525 220.981622 
L 114.130188 221.543352 
L 115.105127 221.88123 
L 116.080066 221.994664 
L 117.055004 221.886139 
L 118.029943 221.561169 
L 119.004881 221.028212 
L 120.304799 220.013959 
L 121.604717 218.684346 
L 123.229615 216.642868 
L 125.179492 213.764265 
L 128.104308 208.966246 
L 131.354103 203.710844 
L 133.30398 200.971574 
L 134.928878 199.090383 
L 136.228796 197.913701 
L 137.528714 197.070396 
L 138.503653 196.675015 
L 139.478591 196.493581 
L 140.45353 196.532602 
L 141.428468 196.795578 
L 142.403407 197.282947 
L 143.378346 197.992065 
L 144.678264 199.272206 
L 145.978182 200.914321 
L 147.2781 202.887647 
L 148.902998 205.759773 
L 150.852875 209.676678 
L 153.77769 216.114587 
L 157.677445 224.622265 
L 159.627322 228.350853 
L 161.252219 230.991129 
L 162.552138 232.723814 
L 163.852056 234.07074 
L 164.826994 234.805618 
L 165.801933 235.290801 
L 166.776871 235.517133 
L 167.75181 235.478532 
L 168.726749 235.172079 
L 169.701687 234.598067 
L 170.676626 233.760007 
L 171.651564 232.664596 
L 172.951482 230.821118 
L 174.2514 228.569405 
L 175.876298 225.242852 
L 177.826175 220.629139 
L 180.426011 213.749354 
L 186.600622 197.03861 
L 188.5505 192.526763 
L 190.175397 189.307978 
L 191.475315 187.154876 
L 192.775233 185.418737 
L 193.750172 184.408172 
L 194.725111 183.657539 
L 195.700049 183.172482 
L 196.674988 182.95544 
L 197.649926 183.005631 
L 198.624865 183.319077 
L 199.599803 183.888658 
L 200.574742 184.704219 
L 201.87466 186.151314 
L 203.174578 187.973816 
L 204.799476 190.70905 
L 206.749353 194.522414 
L 209.349189 200.171563 
L 213.898903 210.152474 
L 215.84878 213.914755 
L 217.473677 216.614682 
L 218.773595 218.426787 
L 220.073514 219.891211 
L 221.373432 220.981622 
L 222.34837 221.543352 
L 223.323309 221.88123 
L 224.298247 221.994664 
L 225.273186 221.886139 
L 226.248124 221.561169 
L 227.223063 221.028212 
L 228.522981 220.013959 
L 229.822899 218.684346 
L 231.447797 216.642868 
L 233.397674 213.764265 
L 236.32249 208.966246 
L 239.572285 203.710844 
L 241.522162 200.971574 
L 243.14706 199.090383 
L 244.446978 197.913701 
L 245.746896 197.070396 
L 246.721835 196.675015 
L 247.696773 196.493581 
L 248.671712 196.532602 
L 249.64665 196.795578 
L 250.621589 197.282947 
L 251.596527 197.992065 
L 252.896446 199.272206 
L 254.196364 200.914321 
L 255.496282 202.887647 
L 257.121179 205.759773 
L 259.071057 209.676678 
L 261.995872 216.114587 
L 265.895627 224.622265 
L 267.845504 228.350853 
L 269.470401 230.991129 
L 270.770319 232.723814 
L 272.070238 234.07074 
L 273.045176 234.805618 
L 274.020115 235.290801 
L 274.995053 235.517133 
L 275.969992 235.478532 
L 276.94493 235.172079 
L 277.919869 234.598067 
L 278.894808 233.760007 
L 279.869746 232.664596 
L 281.169664 230.821118 
L 282.469582 228.569405 
L 284.09448 225.242852 
L 286.044357 220.629139 
L 288.644193 213.749354 
L 294.818804 197.03861 
L 296.768681 192.526763 
L 298.393579 189.307978 
L 299.693497 187.154876 
L 300.993415 185.418737 
L 301.968354 184.408172 
L 302.943292 183.657539 
L 303.918231 183.172482 
L 304.89317 182.95544 
L 305.868108 183.005631 
L 306.843047 183.319077 
L 307.817985 183.888658 
L 308.792924 184.704219 
L 310.092842 186.151314 
L 311.39276 187.973816 
L 313.017658 190.70905 
L 314.967535 194.522414 
L 317.567371 200.171563 
L 322.117084 210.152474 
L 324.066962 213.914755 
L 325.691859 216.614682 
L 326.991777 218.426787 
L 328.291695 219.891211 
L 329.591613 220.981622 
L 330.566552 221.543352 
L 331.541491 221.88123 
L 332.516429 221.994664 
L 333.491368 221.886139 
L 334.466306 221.561169 
L 335.441245 221.028212 
L 336.741163 220.013959 
L 338.041081 218.684346 
L 339.665979 216.642868 
L 341.615856 213.764265 
L 344.540672 208.966246 
L 347.790467 203.710844 
L 349.740344 200.971574 
L 351.365242 199.090383 
L 352.66516 197.913701 
L 353.965078 197.070396 
L 354.940016 196.675015 
L 355.914955 196.493581 
L 356.889894 196.532602 
L 357.864832 196.795578 
L 358.839771 197.282947 
L 359.814709 197.992065 
L 361.114627 199.272206 
L 362.414545 200.914321 
L 363.714464 202.887647 
L 365.339361 205.759773 
L 367.289238 209.676678 
L 370.214054 216.114587 
L 374.113808 224.622265 
L 376.063686 228.350853 
L 377.688583 230.991129 
L 378.988501 232.723814 
L 380.288419 234.07074 
L 381.263358 234.805618 
L 382.238296 235.290801 
L 383.213235 235.517133 
L 384.188174 235.478532 
L 385.163112 235.172079 
L 386.138051 234.598067 
L 387.112989 233.760007 
L 388.087928 232.664596 
L 389.387846 230.821118 
L 390.687764 228.569405 
L 392.312662 225.242852 
L 394.262539 220.629139 
L 396.862375 213.749354 
L 398.487273 209.238261 
L 398.487273 209.238261 
" clip-path="url(#pd61fd62370)" style="fill: none; stroke: #1f77b4; stroke-width: 1.5; stroke-linecap: square"/>
   </g>
   <g id="patch_13">
    <path d="M 57.6 238.163478 
L 57.6 180.313043 
" style="fill: none; stroke: #000000; stroke-width: 0.8; stroke-linejoin: miter; stroke-linecap: square"/>
   </g>
   <g id="patch_14">
    <path d="M 414.72 238.163478 
L 414.72 180.313043 
" style="fill: none; stroke: #000000; stroke-width: 0.8; stroke-linejoin: miter; stroke-linecap: square"/>
   </g>
   <g id="patch_15">
    <path d="M 57.6 238.163478 
L 414.72 238.163478 
" style="fill: none; stroke: #000000; stroke-width: 0.8; stroke-linejoin: miter; stroke-linecap: square"/>
   </g>
   <g id="patch_16">
    <path d="M 57.6 180.313043 
L 414.72 180.313043 
" style="fill: none; stroke: #000000; stroke-width: 0.8; stroke-linejoin: miter; stroke-linecap: square"/>
   </g>
   <g id="text_28">
    <!-- Semnal -->
    <g transform="translate(213.668437 174.313043) scale(0.12 -0.12)">
     <defs>
      <path id="DejaVuSans-53" d="M 3425 4513 
L 3425 3897 
Q 3066 4069 2747 4153 
Q 2428 4238 2131 4238 
Q 1616 4238 1336 4038 
Q 1056 3838 1056 3469 
Q 1056 3159 1242 3001 
Q 1428 2844 1947 2747 
L 2328 2669 
Q 3034 2534 3370 2195 
Q 3706 1856 3706 1288 
Q 3706 609 3251 259 
Q 2797 -91 1919 -91 
Q 1588 -91 1214 -16 
Q 841 59 441 206 
L 441 856 
Q 825 641 1194 531 
Q 1563 422 1919 422 
Q 2459 422 2753 634 
Q 3047 847 3047 1241 
Q 3047 1584 2836 1778 
Q 2625 1972 2144 2069 
L 1759 2144 
Q 1053 2284 737 2584 
Q 422 2884 422 3419 
Q 422 4038 858 4394 
Q 1294 4750 2059 4750 
Q 2388 4750 2728 4690 
Q 3069 4631 3425 4513 
z
" transform="scale(0.015625)"/>
      <path id="DejaVuSans-6e" d="M 3513 2113 
L 3513 0 
L 2938 0 
L 2938 2094 
Q 2938 2591 2744 2837 
Q 2550 3084 2163 3084 
Q 1697 3084 1428 2787 
Q 1159 2491 1159 1978 
L 1159 0 
L 581 0 
L 581 3500 
L 1159 3500 
L 1159 2956 
Q 1366 3272 1645 3428 
Q 1925 3584 2291 3584 
Q 2894 3584 3203 3211 
Q 3513 2838 3513 2113 
z
" transform="scale(0.015625)"/>
      <path id="DejaVuSans-6c" d="M 603 4863 
L 1178 4863 
L 1178 0 
L 603 0 
L 603 4863 
z
" transform="scale(0.015625)"/>
     </defs>
     <use xlink:href="#DejaVuSans-53"/>
     <use xlink:href="#DejaVuSans-65" x="63.476562"/>
     <use xlink:href="#DejaVuSans-6d" x="125"/>
     <use xlink:href="#DejaVuSans-6e" x="222.412109"/>
     <use xlink:href="#DejaVuSans-61" x="285.791016"/>
     <use xlink:href="#DejaVuSans-6c" x="347.070312"/>
    </g>
   </g>
  </g>
  <g id="axes_4">
   <g id="patch_17">
    <path d="M 57.6 307.584 
L 414.72 307.584 
L 414.72 249.733565 
L 57.6 249.733565 
z
" style="fill: #ffffff"/>
   </g>
   <g id="matplotlib.axis_7">
    <g id="xtick_19">
     <g id="line2d_29">
      <g>
       <use xlink:href="#m74a0e6954a" x="73.832727" y="307.584" style="stroke: #000000; stroke-width: 0.8"/>
      </g>
     </g>
     <g id="text_29">
      <!-- 0 -->
      <g transform="translate(70.651477 322.182437) scale(0.1 -0.1)">
       <use xlink:href="#DejaVuSans-30"/>
      </g>
     </g>
    </g>
    <g id="xtick_20">
     <g id="line2d_30">
      <g>
       <use xlink:href="#m74a0e6954a" x="138.828632" y="307.584" style="stroke: #000000; stroke-width: 0.8"/>
      </g>
     </g>
     <g id="text_30">
      <!-- 200 -->
      <g transform="translate(129.284882 322.182437) scale(0.1 -0.1)">
       <use xlink:href="#DejaVuSans-32"/>
       <use xlink:href="#DejaVuSans-30" x="63.623047"/>
       <use xlink:href="#DejaVuSans-30" x="127.246094"/>
      </g>
     </g>
    </g>
    <g id="xtick_21">
     <g id="line2d_31">
      <g>
       <use xlink:href="#m74a0e6954a" x="203.824537" y="307.584" style="stroke: #000000; stroke-width: 0.8"/>
      </g>
     </g>
     <g id="text_31">
      <!-- 400 -->
      <g transform="translate(194.280787 322.182437) scale(0.1 -0.1)">
       <use xlink:href="#DejaVuSans-34"/>
       <use xlink:href="#DejaVuSans-30" x="63.623047"/>
       <use xlink:href="#DejaVuSans-30" x="127.246094"/>
      </g>
     </g>
    </g>
    <g id="xtick_22">
     <g id="line2d_32">
      <g>
       <use xlink:href="#m74a0e6954a" x="268.820442" y="307.584" style="stroke: #000000; stroke-width: 0.8"/>
      </g>
     </g>
     <g id="text_32">
      <!-- 600 -->
      <g transform="translate(259.276692 322.182437) scale(0.1 -0.1)">
       <use xlink:href="#DejaVuSans-36"/>
       <use xlink:href="#DejaVuSans-30" x="63.623047"/>
       <use xlink:href="#DejaVuSans-30" x="127.246094"/>
      </g>
     </g>
    </g>
    <g id="xtick_23">
     <g id="line2d_33">
      <g>
       <use xlink:href="#m74a0e6954a" x="333.816347" y="307.584" style="stroke: #000000; stroke-width: 0.8"/>
      </g>
     </g>
     <g id="text_33">
      <!-- 800 -->
      <g transform="translate(324.272597 322.182437) scale(0.1 -0.1)">
       <use xlink:href="#DejaVuSans-38"/>
       <use xlink:href="#DejaVuSans-30" x="63.623047"/>
       <use xlink:href="#DejaVuSans-30" x="127.246094"/>
      </g>
     </g>
    </g>
    <g id="xtick_24">
     <g id="line2d_34">
      <g>
       <use xlink:href="#m74a0e6954a" x="398.812252" y="307.584" style="stroke: #000000; stroke-width: 0.8"/>
      </g>
     </g>
     <g id="text_34">
      <!-- 1000 -->
      <g transform="translate(386.087252 322.182437) scale(0.1 -0.1)">
       <use xlink:href="#DejaVuSans-31"/>
       <use xlink:href="#DejaVuSans-30" x="63.623047"/>
       <use xlink:href="#DejaVuSans-30" x="127.246094"/>
       <use xlink:href="#DejaVuSans-30" x="190.869141"/>
      </g>
     </g>
    </g>
    <g id="text_35">
     <!-- Ordin esantion -->
     <g transform="translate(199.443594 335.860562) scale(0.1 -0.1)">
      <defs>
       <path id="DejaVuSans-4f" d="M 2522 4238 
Q 1834 4238 1429 3725 
Q 1025 3213 1025 2328 
Q 1025 1447 1429 934 
Q 1834 422 2522 422 
Q 3209 422 3611 934 
Q 4013 1447 4013 2328 
Q 4013 3213 3611 3725 
Q 3209 4238 2522 4238 
z
M 2522 4750 
Q 3503 4750 4090 4092 
Q 4678 3434 4678 2328 
Q 4678 1225 4090 567 
Q 3503 -91 2522 -91 
Q 1538 -91 948 565 
Q 359 1222 359 2328 
Q 359 3434 948 4092 
Q 1538 4750 2522 4750 
z
" transform="scale(0.015625)"/>
       <path id="DejaVuSans-73" d="M 2834 3397 
L 2834 2853 
Q 2591 2978 2328 3040 
Q 2066 3103 1784 3103 
Q 1356 3103 1142 2972 
Q 928 2841 928 2578 
Q 928 2378 1081 2264 
Q 1234 2150 1697 2047 
L 1894 2003 
Q 2506 1872 2764 1633 
Q 3022 1394 3022 966 
Q 3022 478 2636 193 
Q 2250 -91 1575 -91 
Q 1294 -91 989 -36 
Q 684 19 347 128 
L 347 722 
Q 666 556 975 473 
Q 1284 391 1588 391 
Q 1994 391 2212 530 
Q 2431 669 2431 922 
Q 2431 1156 2273 1281 
Q 2116 1406 1581 1522 
L 1381 1569 
Q 847 1681 609 1914 
Q 372 2147 372 2553 
Q 372 3047 722 3315 
Q 1072 3584 1716 3584 
Q 2034 3584 2315 3537 
Q 2597 3491 2834 3397 
z
" transform="scale(0.015625)"/>
      </defs>
      <use xlink:href="#DejaVuSans-4f"/>
      <use xlink:href="#DejaVuSans-72" x="78.710938"/>
      <use xlink:href="#DejaVuSans-64" x="118.074219"/>
      <use xlink:href="#DejaVuSans-69" x="181.550781"/>
      <use xlink:href="#DejaVuSans-6e" x="209.333984"/>
      <use xlink:href="#DejaVuSans-20" x="272.712891"/>
      <use xlink:href="#DejaVuSans-65" x="304.5"/>
      <use xlink:href="#DejaVuSans-73" x="366.023438"/>
      <use xlink:href="#DejaVuSans-61" x="418.123047"/>
      <use xlink:href="#DejaVuSans-6e" x="479.402344"/>
      <use xlink:href="#DejaVuSans-74" x="542.78125"/>
      <use xlink:href="#DejaVuSans-69" x="581.990234"/>
      <use xlink:href="#DejaVuSans-6f" x="609.773438"/>
      <use xlink:href="#DejaVuSans-6e" x="670.955078"/>
     </g>
    </g>
   </g>
   <g id="matplotlib.axis_8">
    <g id="ytick_8">
     <g id="line2d_35">
      <g>
       <use xlink:href="#mf71ffd4020" x="57.6" y="288.124078" style="stroke: #000000; stroke-width: 0.8"/>
      </g>
     </g>
     <g id="text_36">
      <!-- 2 -->
      <g transform="translate(44.2375 291.923296) scale(0.1 -0.1)">
       <use xlink:href="#DejaVuSans-32"/>
      </g>
     </g>
    </g>
    <g id="ytick_9">
     <g id="line2d_36">
      <g>
       <use xlink:href="#mf71ffd4020" x="57.6" y="253.308315" style="stroke: #000000; stroke-width: 0.8"/>
      </g>
     </g>
     <g id="text_37">
      <!-- 4 -->
      <g transform="translate(44.2375 257.107534) scale(0.1 -0.1)">
       <use xlink:href="#DejaVuSans-34"/>
      </g>
     </g>
    </g>
    <g id="text_38">
     <!-- Valoare -->
     <g transform="translate(38.157812 297.287689) rotate(-90) scale(0.1 -0.1)">
      <defs>
       <path id="DejaVuSans-56" d="M 1831 0 
L 50 4666 
L 709 4666 
L 2188 738 
L 3669 4666 
L 4325 4666 
L 2547 0 
L 1831 0 
z
" transform="scale(0.015625)"/>
      </defs>
      <use xlink:href="#DejaVuSans-56"/>
      <use xlink:href="#DejaVuSans-61" x="60.658203"/>
      <use xlink:href="#DejaVuSans-6c" x="121.9375"/>
      <use xlink:href="#DejaVuSans-6f" x="149.720703"/>
      <use xlink:href="#DejaVuSans-61" x="210.902344"/>
      <use xlink:href="#DejaVuSans-72" x="272.181641"/>
      <use xlink:href="#DejaVuSans-65" x="311.044922"/>
     </g>
    </g>
   </g>
   <g id="line2d_37">
    <path d="M 73.832727 304.376163 
L 74.157707 304.954435 
L 74.482686 304.398709 
L 74.807666 304.206112 
L 75.132645 304.425227 
L 75.457625 304.442031 
L 75.782604 303.966628 
L 76.107584 302.938165 
L 76.432563 302.728124 
L 76.757543 302.82222 
L 77.082523 303.253858 
L 77.407502 303.31433 
L 77.732482 302.067562 
L 78.057461 302.558686 
L 78.382441 301.514547 
L 78.70742 301.233773 
L 79.0324 301.555667 
L 79.357379 301.387923 
L 79.682359 301.42397 
L 80.007338 301.016379 
L 80.332318 301.125973 
L 80.657297 300.171396 
L 80.982277 301.200796 
L 81.307256 300.345983 
L 81.632236 300.851744 
L 81.957215 300.820671 
L 82.282195 299.762157 
L 82.607174 300.541907 
L 82.932154 300.4874 
L 83.257133 299.672787 
L 83.907093 299.361654 
L 84.232072 298.715177 
L 84.557052 298.711917 
L 84.882031 299.897769 
L 85.207011 298.956757 
L 85.53199 299.74388 
L 85.85697 298.809169 
L 86.181949 298.219386 
L 86.506929 298.957876 
L 86.831908 299.400517 
L 87.156888 298.135747 
L 87.806847 298.869151 
L 88.131826 298.686433 
L 88.456806 298.647826 
L 88.781785 298.462561 
L 89.106765 297.770588 
L 89.431744 297.692189 
L 89.756724 297.470581 
L 90.081704 298.809412 
L 90.406683 297.513242 
L 91.381622 297.642814 
L 91.706601 297.53924 
L 92.35656 297.783807 
L 92.68154 297.809104 
L 93.006519 298.106431 
L 93.331499 297.556305 
L 93.656478 298.58044 
L 93.981458 298.888627 
L 94.306437 297.621936 
L 94.956396 299.148115 
L 95.281376 297.713147 
L 95.606355 297.935973 
L 95.931335 299.183501 
L 96.906274 299.704397 
L 97.231253 299.634645 
L 97.556233 299.105663 
L 97.881212 298.84503 
L 98.206192 298.852734 
L 98.531171 298.708986 
L 98.856151 299.876812 
L 99.18113 300.025632 
L 99.50611 298.840548 
L 99.831089 298.87663 
L 100.156069 300.193393 
L 100.481048 299.728888 
L 100.806028 299.521508 
L 101.131007 300.623825 
L 101.455987 300.201218 
L 101.780966 300.403323 
L 102.105946 299.815271 
L 102.430925 300.003826 
L 102.755905 300.862282 
L 103.080885 301.208125 
L 103.405864 300.132241 
L 103.730844 300.994055 
L 104.055823 299.980588 
L 104.380803 300.744507 
L 104.705782 300.89667 
L 105.355741 300.677907 
L 105.680721 301.478237 
L 106.0057 301.089747 
L 106.33068 302.174749 
L 106.655659 301.651275 
L 106.980639 301.735139 
L 107.305618 301.045254 
L 107.630598 301.127312 
L 107.955577 301.578331 
L 108.280557 302.528459 
L 108.930516 301.282713 
L 109.255495 301.467976 
L 109.580475 302.688532 
L 109.905455 301.238632 
L 110.555414 303.03168 
L 110.880393 302.053858 
L 111.205373 302.321159 
L 111.530352 302.403912 
L 111.855332 303.128862 
L 112.180311 301.535151 
L 112.505291 302.708921 
L 112.83027 302.297055 
L 113.480229 303.047452 
L 114.130188 302.989621 
L 114.455168 301.672715 
L 114.780147 301.724089 
L 115.105127 303.04878 
L 115.430106 302.734824 
L 115.755086 302.194757 
L 116.080066 302.388682 
L 116.405045 302.877263 
L 117.055004 302.682814 
L 117.379984 301.887276 
L 117.704963 302.079361 
L 118.029943 301.518033 
L 118.354922 302.394867 
L 118.679902 300.91494 
L 119.329861 301.371531 
L 119.65484 301.219929 
L 119.97982 301.250934 
L 120.304799 301.876184 
L 120.954758 301.759039 
L 121.279738 301.326466 
L 121.604717 300.206048 
L 121.929697 300.922134 
L 122.254676 300.127663 
L 122.579656 300.555918 
L 122.904636 300.673941 
L 123.229615 300.65556 
L 123.554595 300.055271 
L 124.204554 300.241566 
L 124.529533 299.229603 
L 124.854513 299.16738 
L 125.504472 299.793479 
L 125.829451 298.765375 
L 126.154431 298.646394 
L 126.47941 299.366394 
L 126.80439 299.623258 
L 127.129369 299.226186 
L 127.454349 298.021198 
L 127.779328 298.731846 
L 128.104308 298.841249 
L 128.429287 297.529018 
L 128.754267 298.237816 
L 129.079247 297.096699 
L 129.404226 298.105279 
L 129.729206 298.070456 
L 130.054185 297.32734 
L 131.029124 297.81739 
L 131.354103 296.213878 
L 131.679083 296.662361 
L 132.004062 297.558278 
L 132.654021 295.820837 
L 132.979001 297.131417 
L 133.30398 296.624861 
L 133.62896 295.334909 
L 133.953939 296.673758 
L 134.278919 295.911158 
L 134.603898 295.877789 
L 134.928878 295.685644 
L 135.253857 296.37478 
L 135.578837 295.768832 
L 135.903817 295.473745 
L 136.228796 295.48826 
L 136.553776 294.623387 
L 136.878755 295.971251 
L 137.203735 295.642277 
L 137.528714 294.741765 
L 137.853694 294.37706 
L 138.178673 295.469801 
L 138.503653 295.569205 
L 138.828632 294.23211 
L 139.153612 293.791255 
L 139.478591 293.80948 
L 139.803571 294.79765 
L 140.45353 294.81906 
L 140.778509 293.952422 
L 141.103489 295.203773 
L 141.428468 293.999455 
L 142.078428 295.08764 
L 142.403407 293.597978 
L 143.053366 293.80116 
L 143.378346 295.106229 
L 143.703325 294.554798 
L 144.028305 294.869376 
L 144.353284 294.052803 
L 144.678264 295.260697 
L 145.003243 294.119411 
L 145.328223 293.860758 
L 145.653202 295.388943 
L 145.978182 294.586265 
L 146.303161 294.662685 
L 146.628141 294.898882 
L 146.95312 294.786578 
L 147.2781 295.162636 
L 147.603079 294.02991 
L 147.928059 294.518554 
L 148.253038 294.41707 
L 148.578018 294.922942 
L 148.902998 295.13173 
L 149.227977 294.519013 
L 149.552957 295.647604 
L 149.877936 295.519198 
L 150.202916 295.228662 
L 150.527895 295.336957 
L 150.852875 296.048234 
L 151.177854 294.777759 
L 151.827813 296.101785 
L 152.152793 295.151917 
L 152.477772 296.124611 
L 152.802752 295.962348 
L 153.127731 295.554932 
L 153.452711 295.433417 
L 153.77769 297.112872 
L 154.10267 296.993523 
L 154.427649 296.075658 
L 154.752629 297.089209 
L 155.402588 296.532243 
L 155.727568 295.948153 
L 156.052547 296.05455 
L 156.377527 296.750821 
L 156.702506 297.860791 
L 157.027486 297.77664 
L 157.352465 296.673389 
L 157.677445 297.987829 
L 158.002424 298.234294 
L 158.327404 297.450126 
L 158.652383 297.344993 
L 158.977363 297.027786 
L 159.302342 296.9599 
L 159.627322 298.573636 
L 159.952301 298.196863 
L 160.277281 297.395018 
L 160.60226 298.731349 
L 160.92724 298.579617 
L 161.252219 297.5702 
L 161.577199 298.02884 
L 161.902179 297.926464 
L 162.227158 298.573413 
L 162.552138 298.224009 
L 162.877117 298.124424 
L 163.202097 298.670575 
L 163.527076 297.833525 
L 163.852056 298.19142 
L 164.177035 297.678516 
L 164.502015 298.827322 
L 164.826994 297.998832 
L 165.151974 298.993382 
L 165.476953 297.444477 
L 165.801933 297.65449 
L 166.126912 298.516358 
L 166.451892 297.216719 
L 166.776871 298.508194 
L 167.101851 298.713488 
L 167.42683 297.762154 
L 167.75181 298.748109 
L 168.07679 297.735882 
L 168.401769 298.47028 
L 168.726749 298.260009 
L 169.051728 297.452408 
L 169.376708 297.820906 
L 169.701687 297.052643 
L 170.026667 297.861193 
L 170.351646 297.096327 
L 170.676626 297.472115 
L 171.001605 296.483627 
L 171.326585 297.439227 
L 171.651564 297.213432 
L 171.976544 296.530445 
L 172.301523 297.417718 
L 172.951482 296.394026 
L 173.276462 295.572432 
L 173.601441 296.81668 
L 174.2514 295.111106 
L 174.90136 295.801395 
L 175.226339 294.610559 
L 175.551319 295.775723 
L 175.876298 294.816388 
L 176.201278 295.58288 
L 176.526257 295.017078 
L 176.851237 293.581051 
L 177.176216 293.780102 
L 177.501196 294.816165 
L 177.826175 294.538234 
L 178.151155 293.662615 
L 178.476134 293.642976 
L 178.801114 293.932126 
L 179.126093 292.383622 
L 179.451073 292.839711 
L 179.776052 292.033015 
L 180.101032 291.791157 
L 180.426011 292.274725 
L 180.750991 292.489602 
L 181.075971 291.575425 
L 181.40095 292.342206 
L 182.050909 290.332042 
L 182.375889 290.800652 
L 182.700868 290.702287 
L 183.025848 289.798765 
L 183.350827 290.060146 
L 183.675807 290.643797 
L 184.000786 289.167754 
L 184.325766 290.175501 
L 184.650745 288.732115 
L 184.975725 289.968054 
L 185.300704 289.21991 
L 185.625684 288.160224 
L 185.950663 289.04469 
L 186.275643 289.12824 
L 186.600622 288.431288 
L 186.925602 288.019955 
L 187.250581 287.893769 
L 187.900541 287.431653 
L 188.22552 287.206731 
L 188.5505 287.666451 
L 188.875479 286.434863 
L 189.525438 287.178855 
L 189.850418 287.149115 
L 190.175397 285.844168 
L 190.500377 286.167417 
L 191.150336 285.487914 
L 191.475315 285.9052 
L 191.800295 286.069911 
L 192.125274 284.956736 
L 192.775233 284.529571 
L 193.100213 284.576371 
L 193.425192 285.30393 
L 193.750172 285.722793 
L 194.075152 285.328486 
L 194.400131 285.380084 
L 194.725111 284.954332 
L 195.05009 283.931264 
L 195.37507 284.464806 
L 195.700049 283.65796 
L 196.025029 284.61195 
L 196.350008 284.610089 
L 196.674988 283.928697 
L 196.999967 284.970074 
L 197.324947 284.005789 
L 197.649926 283.897614 
L 197.974906 284.275636 
L 198.299885 283.835527 
L 198.624865 283.79568 
L 198.949844 284.605021 
L 199.599803 283.123847 
L 199.924783 283.247552 
L 200.574742 284.429116 
L 200.899722 284.578996 
L 201.549681 283.477402 
L 201.87466 284.725787 
L 202.19964 283.891943 
L 202.524619 283.661306 
L 202.849599 284.490529 
L 203.174578 284.214266 
L 203.499558 283.67161 
L 203.824537 284.04246 
L 204.149517 283.44999 
L 204.474496 284.015293 
L 204.799476 285.071496 
L 205.449435 284.591494 
L 205.774414 284.213338 
L 206.424373 285.033786 
L 206.749353 285.13708 
L 207.074333 284.715677 
L 207.399312 285.609615 
L 207.724292 285.044113 
L 208.374251 286.051581 
L 208.69923 285.570284 
L 209.02421 285.315944 
L 209.349189 285.208764 
L 209.674169 284.786652 
L 210.324128 286.388947 
L 210.649107 286.317131 
L 210.974087 285.275426 
L 211.299066 285.445862 
L 211.624046 286.346232 
L 211.949025 286.703901 
L 212.274005 285.556768 
L 212.598984 285.892485 
L 212.923964 285.839382 
L 213.573923 286.190317 
L 213.898903 287.046663 
L 214.223882 286.92828 
L 214.548862 286.508308 
L 214.873841 286.708245 
L 215.198821 287.316338 
L 215.5238 287.397502 
L 215.84878 287.752903 
L 216.173759 287.843634 
L 216.498739 286.482741 
L 216.823718 287.550916 
L 217.798657 286.353291 
L 218.123636 287.615989 
L 218.448616 286.910346 
L 219.098575 288.033579 
L 219.423554 287.899053 
L 219.748534 288.032696 
L 220.073514 286.639266 
L 220.398493 287.416119 
L 221.048452 286.564312 
L 221.373432 287.830315 
L 221.698411 288.174155 
L 222.34837 287.0668 
L 222.67335 287.746426 
L 222.998329 287.785287 
L 223.323309 286.566836 
L 223.648288 287.16197 
L 223.973268 286.354371 
L 224.623227 287.336331 
L 224.948206 287.397885 
L 225.273186 286.929781 
L 225.598165 286.14141 
L 225.923145 286.869579 
L 226.248124 286.389334 
L 226.573104 286.658228 
L 226.898084 286.059886 
L 227.548043 285.837273 
L 227.873022 286.667669 
L 228.198002 286.391897 
L 228.522981 285.227419 
L 228.847961 286.482848 
L 229.17294 285.008469 
L 229.49792 285.183031 
L 229.822899 286.102289 
L 230.147879 285.557136 
L 230.472858 285.953061 
L 230.797838 285.663303 
L 231.122817 284.318733 
L 231.447797 284.672069 
L 231.772776 284.662269 
L 232.097756 284.034239 
L 232.422735 284.418278 
L 232.747715 283.585015 
L 233.072695 284.942488 
L 233.397674 283.565381 
L 233.722654 283.867671 
L 234.047633 283.13127 
L 234.372613 284.328802 
L 235.022572 283.598105 
L 235.347551 282.73816 
L 235.672531 283.23793 
L 235.99751 282.370496 
L 236.32249 282.897217 
L 236.647469 282.98564 
L 237.297428 282.58401 
L 237.622408 282.90573 
L 237.947387 281.268137 
L 238.272367 281.983896 
L 238.597346 281.0049 
L 239.247305 281.709031 
L 239.572285 281.580278 
L 239.897265 280.818695 
L 240.222244 281.243424 
L 240.547224 280.907334 
L 240.872203 281.449538 
L 241.197183 280.162382 
L 241.522162 279.711416 
L 241.847142 279.767629 
L 242.172121 280.670195 
L 242.497101 279.545948 
L 242.82208 280.901506 
L 243.472039 280.111375 
L 244.121998 280.220373 
L 244.446978 279.150609 
L 244.771957 280.148806 
L 245.096937 278.619238 
L 245.421916 279.241637 
L 246.071876 278.276763 
L 246.396855 278.993541 
L 246.721835 279.42189 
L 247.046814 278.563347 
L 247.371794 278.389473 
L 247.696773 279.535028 
L 248.021753 279.508269 
L 248.346732 278.214769 
L 248.671712 277.692459 
L 248.996691 278.800622 
L 249.321671 278.280031 
L 249.64665 278.64984 
L 250.296609 278.943496 
L 250.621589 277.828193 
L 250.946568 277.796849 
L 251.271548 277.913039 
L 251.596527 278.531634 
L 251.921507 278.221381 
L 252.246486 277.618807 
L 252.571466 277.958428 
L 252.896446 279.060323 
L 253.221425 277.545765 
L 253.546405 278.400038 
L 253.871384 277.872514 
L 254.196364 278.417923 
L 254.521343 278.061127 
L 254.846323 279.131315 
L 255.171302 279.327435 
L 255.496282 278.634362 
L 255.821261 279.112678 
L 256.146241 279.227437 
L 256.47122 278.905934 
L 256.7962 279.426475 
L 257.446159 279.662145 
L 257.771138 279.107808 
L 258.096118 278.267039 
L 258.421097 279.648657 
L 258.746077 279.135859 
L 259.071057 278.994876 
L 259.396036 279.319367 
L 259.721016 279.309074 
L 260.045995 280.157836 
L 260.370975 279.858392 
L 260.695954 279.123383 
L 261.020934 280.171791 
L 261.670893 279.054911 
L 261.995872 279.178758 
L 262.320852 280.298733 
L 262.645831 279.393236 
L 262.970811 280.676281 
L 263.29579 280.449793 
L 263.62077 280.592512 
L 263.945749 279.647681 
L 264.270729 280.022919 
L 264.595708 280.883716 
L 264.920688 280.900817 
L 265.245667 281.479229 
L 265.570647 280.125737 
L 265.895627 281.310881 
L 266.220606 281.167878 
L 266.545586 280.35803 
L 267.195545 280.887433 
L 267.520524 281.543738 
L 267.845504 280.598394 
L 268.495463 280.681564 
L 268.820442 280.440665 
L 269.145422 281.20638 
L 269.470401 281.002947 
L 269.795381 281.956381 
L 270.44534 282.20259 
L 270.770319 282.028029 
L 271.095299 280.874267 
L 271.420278 282.171224 
L 272.070238 281.025464 
L 272.395217 281.209347 
L 272.720197 282.137949 
L 273.370156 280.590363 
L 273.695135 281.915577 
L 274.020115 280.485695 
L 274.345094 282.072045 
L 274.670074 280.857657 
L 275.320033 281.101139 
L 275.645012 281.000748 
L 275.969992 281.580335 
L 276.294971 280.069734 
L 276.619951 280.657848 
L 276.94493 280.143473 
L 277.26991 281.420388 
L 277.594889 279.782217 
L 277.919869 279.920307 
L 278.244848 280.923042 
L 278.569828 280.838132 
L 278.894808 279.999639 
L 279.219787 280.394939 
L 279.544767 280.40254 
L 279.869746 279.296008 
L 280.844685 278.619722 
L 281.169664 279.4545 
L 281.494644 279.932259 
L 281.819623 278.057128 
L 282.144603 279.373943 
L 282.469582 278.762963 
L 282.794562 278.916648 
L 283.119541 277.812102 
L 283.444521 277.81767 
L 283.7695 278.034235 
L 284.09448 277.40806 
L 284.419459 277.345309 
L 284.744439 277.516055 
L 285.394398 276.791309 
L 285.719378 276.919865 
L 286.044357 276.62696 
L 286.369337 275.782994 
L 286.694316 276.121708 
L 287.019296 275.390556 
L 287.344275 275.056034 
L 287.669255 275.344549 
L 287.994234 276.085897 
L 288.319214 275.46487 
L 288.644193 275.219836 
L 288.969173 273.794185 
L 289.619132 274.92062 
L 289.944111 273.847475 
L 290.269091 273.978993 
L 290.59407 273.152841 
L 290.91905 273.739161 
L 291.244029 273.33476 
L 291.569009 273.12266 
L 291.893989 272.217744 
L 292.218968 273.22223 
L 292.543948 271.651343 
L 292.868927 272.78515 
L 293.518886 272.088619 
L 293.843866 271.069706 
L 294.168845 271.562955 
L 294.493825 271.225036 
L 294.818804 271.443911 
L 295.143784 269.810842 
L 295.793743 270.357706 
L 296.118722 269.878204 
L 296.443702 270.562264 
L 296.768681 270.230895 
L 297.41864 268.333975 
L 297.74362 269.720799 
L 298.0686 267.976327 
L 298.718559 269.095514 
L 299.368518 268.628678 
L 299.693497 267.71936 
L 300.018477 267.994611 
L 300.343456 267.288557 
L 300.668436 267.045204 
L 300.993415 268.125357 
L 301.318395 267.080084 
L 301.643374 266.524625 
L 301.968354 267.942526 
L 302.293333 267.426447 
L 302.618313 267.713584 
L 302.943292 266.413822 
L 303.268272 266.320086 
L 303.593251 266.70677 
L 303.918231 266.423774 
L 304.24321 266.641937 
L 304.56819 265.709406 
L 304.89317 266.143014 
L 305.218149 266.11998 
L 305.543129 266.610372 
L 305.868108 266.860102 
L 306.193088 266.018624 
L 306.518067 265.833019 
L 306.843047 265.257437 
L 307.168026 266.255085 
L 307.493006 266.4812 
L 307.817985 265.557425 
L 308.142965 266.29647 
L 308.467944 265.715672 
L 308.792924 265.598066 
L 309.117903 266.605308 
L 309.442883 265.697155 
L 309.767862 266.740689 
L 310.092842 266.370906 
L 310.417821 266.483325 
L 310.742801 266.073091 
L 311.067781 266.777381 
L 311.39276 265.308719 
L 312.042719 266.474703 
L 312.367699 266.694831 
L 312.692678 265.379941 
L 313.017658 266.846837 
L 313.342637 265.620364 
L 313.667617 266.224631 
L 313.992596 266.448813 
L 314.317576 266.122688 
L 314.642555 266.022084 
L 314.967535 266.489144 
L 315.292514 267.448185 
L 315.617494 265.904272 
L 315.942473 266.008288 
L 316.267453 266.972154 
L 316.592432 266.443455 
L 316.917412 267.140145 
L 317.242391 266.746743 
L 317.567371 267.801765 
L 317.892351 267.20375 
L 318.21733 267.072283 
L 318.54231 267.139948 
L 318.867289 266.858485 
L 319.192269 267.680609 
L 319.517248 266.747874 
L 319.842228 267.136121 
L 320.167207 267.178647 
L 320.492187 267.566164 
L 320.817166 268.141876 
L 321.142146 267.894468 
L 321.467125 268.515777 
L 321.792105 267.772113 
L 322.117084 267.881611 
L 322.442064 267.606522 
L 322.767043 267.601231 
L 323.092023 269.017059 
L 323.417002 268.755509 
L 323.741982 269.155831 
L 324.066962 268.369237 
L 324.716921 268.437034 
L 325.0419 269.016271 
L 325.36688 268.360551 
L 325.691859 269.037086 
L 326.016839 268.114226 
L 326.341818 267.980421 
L 326.666798 268.16439 
L 326.991777 267.754412 
L 327.316757 269.229823 
L 327.641736 268.771746 
L 327.966716 269.365059 
L 328.616675 269.112022 
L 329.266634 268.101596 
L 329.591613 269.263258 
L 329.916593 268.336548 
L 330.241572 269.289398 
L 330.566552 268.37445 
L 331.216511 267.861438 
L 331.541491 268.039524 
L 331.86647 267.670553 
L 332.516429 268.400876 
L 332.841409 268.168097 
L 333.166388 267.308272 
L 333.491368 268.665371 
L 333.816347 268.023582 
L 334.466306 268.123948 
L 334.791286 267.599924 
L 335.116265 267.332529 
L 335.441245 267.981797 
L 335.766224 266.613144 
L 336.091204 267.815221 
L 336.416183 266.743504 
L 336.741163 266.595855 
L 337.066143 267.637995 
L 337.391122 266.249426 
L 337.716102 266.57383 
L 338.041081 267.259118 
L 338.366061 265.761636 
L 338.69104 265.77215 
L 339.01602 266.366294 
L 339.340999 266.172485 
L 339.665979 265.76434 
L 339.990958 266.215541 
L 340.315938 265.076774 
L 340.640917 265.819142 
L 340.965897 265.595872 
L 341.290876 265.885117 
L 341.615856 265.758495 
L 341.940835 264.734382 
L 342.265815 264.290269 
L 342.915774 263.874465 
L 343.240753 263.285941 
L 343.565733 264.386387 
L 343.890713 263.68638 
L 344.540672 263.317521 
L 344.865651 263.299982 
L 345.190631 263.642071 
L 345.51561 262.450303 
L 345.84059 262.395151 
L 346.165569 262.461214 
L 346.490549 262.744663 
L 346.815528 262.237029 
L 347.140508 262.165346 
L 347.465487 262.653595 
L 347.790467 262.446064 
L 348.115446 261.22751 
L 348.440426 261.370096 
L 348.765405 261.16774 
L 349.090385 261.927371 
L 349.740344 260.40649 
L 350.065324 260.345867 
L 350.390303 261.174448 
L 351.040262 259.968966 
L 351.365242 260.239041 
L 351.690221 260.776159 
L 352.015201 259.348828 
L 352.34018 260.829652 
L 352.66516 259.522497 
L 352.990139 259.464631 
L 353.315119 258.975645 
L 353.640098 258.89576 
L 353.965078 259.091055 
L 354.290057 259.580085 
L 354.940016 258.709933 
L 355.589975 259.459369 
L 355.914955 258.561962 
L 356.239934 258.474072 
L 356.564914 258.159135 
L 356.889894 258.923084 
L 357.214873 258.822373 
L 357.539853 259.412653 
L 357.864832 259.029384 
L 358.189812 259.148356 
L 358.514791 258.774311 
L 358.839771 259.042935 
L 359.16475 258.954162 
L 359.48973 259.032329 
L 359.814709 258.870835 
L 360.139689 258.956732 
L 360.464668 258.133374 
L 360.789648 258.866814 
L 361.114627 259.035006 
L 361.439607 258.887469 
L 361.764586 259.230466 
L 362.089566 258.548231 
L 362.414545 259.082768 
L 362.739525 258.363304 
L 363.064505 258.436041 
L 363.389484 257.743248 
L 363.714464 258.45764 
L 364.039443 258.206648 
L 364.364423 259.301206 
L 364.689402 258.625719 
L 365.014382 259.465935 
L 365.339361 259.064172 
L 365.98932 259.367571 
L 366.3143 258.793296 
L 366.639279 259.783762 
L 366.964259 258.757952 
L 367.289238 259.156398 
L 367.614218 259.254612 
L 367.939197 259.890816 
L 368.264177 258.679897 
L 368.589156 259.760791 
L 368.914136 259.87134 
L 369.239115 258.84406 
L 369.564095 260.194259 
L 370.214054 258.806609 
L 370.539034 259.044655 
L 370.864013 260.081368 
L 371.513972 259.155146 
L 371.838952 260.66889 
L 372.163931 259.25905 
L 372.488911 259.999883 
L 373.13887 259.537736 
L 373.463849 260.238178 
L 373.788829 259.900736 
L 374.113808 261.22179 
L 374.438788 259.652118 
L 374.763767 260.176865 
L 375.088747 259.799279 
L 375.413726 261.216177 
L 375.738706 260.932146 
L 376.063686 260.005034 
L 376.388665 260.89835 
L 376.713645 259.893291 
L 377.038624 261.410983 
L 377.363604 260.345876 
L 377.688583 261.492926 
L 378.013563 260.371241 
L 378.338542 260.631157 
L 378.663522 260.064541 
L 378.988501 260.741394 
L 379.313481 260.478787 
L 379.63846 260.052928 
L 379.96344 260.405051 
L 380.288419 261.471984 
L 380.613399 260.345735 
L 380.938378 260.631366 
L 381.263358 260.337038 
L 381.588337 261.040652 
L 381.913317 260.324032 
L 382.238296 260.231113 
L 382.563276 261.285895 
L 382.888256 261.068699 
L 383.213235 260.149054 
L 383.538215 260.753885 
L 384.513153 259.733044 
L 384.838133 260.717044 
L 385.163112 260.342541 
L 385.813071 259.073058 
L 386.138051 259.245696 
L 386.46303 260.272915 
L 386.78801 259.254573 
L 387.112989 258.708278 
L 387.437969 259.357298 
L 387.762948 259.645685 
L 388.087928 259.113456 
L 388.412907 259.51292 
L 388.737887 258.424406 
L 389.062867 257.99451 
L 389.387846 258.614228 
L 389.712826 257.66785 
L 390.037805 258.315829 
L 390.362785 257.902606 
L 391.012744 258.044144 
L 391.337723 257.532643 
L 391.662703 257.753398 
L 391.987682 256.677791 
L 392.312662 257.483516 
L 392.637641 256.885592 
L 392.962621 255.956058 
L 393.2876 256.699546 
L 393.61258 255.662235 
L 393.937559 256.023766 
L 394.262539 255.914358 
L 394.587518 255.159589 
L 395.237477 255.128571 
L 395.562457 254.316646 
L 395.887437 255.077243 
L 396.862375 252.917544 
L 397.187355 252.740611 
L 397.512334 252.36313 
L 397.837314 252.794926 
L 398.162293 253.48285 
L 398.487273 253.19449 
L 398.487273 253.19449 
" clip-path="url(#p10af4f0780)" style="fill: none; stroke: #1f77b4; stroke-width: 1.5; stroke-linecap: square"/>
   </g>
   <g id="patch_18">
    <path d="M 57.6 307.584 
L 57.6 249.733565 
" style="fill: none; stroke: #000000; stroke-width: 0.8; stroke-linejoin: miter; stroke-linecap: square"/>
   </g>
   <g id="patch_19">
    <path d="M 414.72 307.584 
L 414.72 249.733565 
" style="fill: none; stroke: #000000; stroke-width: 0.8; stroke-linejoin: miter; stroke-linecap: square"/>
   </g>
   <g id="patch_20">
    <path d="M 57.6 307.584 
L 414.72 307.584 
" style="fill: none; stroke: #000000; stroke-width: 0.8; stroke-linejoin: miter; stroke-linecap: square"/>
   </g>
   <g id="patch_21">
    <path d="M 57.6 249.733565 
L 414.72 249.733565 
" style="fill: none; stroke: #000000; stroke-width: 0.8; stroke-linejoin: miter; stroke-linecap: square"/>
   </g>
   <g id="text_39">
    <!-- Serie timp -->
    <g transform="translate(205.254375 243.733565) scale(0.12 -0.12)">
     <defs>
      <path id="DejaVuSans-70" d="M 1159 525 
L 1159 -1331 
L 581 -1331 
L 581 3500 
L 1159 3500 
L 1159 2969 
Q 1341 3281 1617 3432 
Q 1894 3584 2278 3584 
Q 2916 3584 3314 3078 
Q 3713 2572 3713 1747 
Q 3713 922 3314 415 
Q 2916 -91 2278 -91 
Q 1894 -91 1617 61 
Q 1341 213 1159 525 
z
M 3116 1747 
Q 3116 2381 2855 2742 
Q 2594 3103 2138 3103 
Q 1681 3103 1420 2742 
Q 1159 2381 1159 1747 
Q 1159 1113 1420 752 
Q 1681 391 2138 391 
Q 2594 391 2855 752 
Q 3116 1113 3116 1747 
z
" transform="scale(0.015625)"/>
     </defs>
     <use xlink:href="#DejaVuSans-53"/>
     <use xlink:href="#DejaVuSans-65" x="63.476562"/>
     <use xlink:href="#DejaVuSans-72" x="125"/>
     <use xlink:href="#DejaVuSans-69" x="166.113281"/>
     <use xlink:href="#DejaVuSans-65" x="193.896484"/>
     <use xlink:href="#DejaVuSans-20" x="255.419922"/>
     <use xlink:href="#DejaVuSans-74" x="287.207031"/>
     <use xlink:href="#DejaVuSans-69" x="326.416016"/>
     <use xlink:href="#DejaVuSans-6d" x="354.199219"/>
     <use xlink:href="#DejaVuSans-70" x="451.611328"/>
    </g>
   </g>
  </g>
 </g>
 <defs>
  <clipPath id="p4b2604605f">
   <rect x="57.6" y="41.472" width="357.12" height="57.850435"/>
  </clipPath>
  <clipPath id="pe9f219465c">
   <rect x="57.6" y="110.892522" width="357.12" height="57.850435"/>
  </clipPath>
  <clipPath id="pd61fd62370">
   <rect x="57.6" y="180.313043" width="357.12" height="57.850435"/>
  </clipPath>
  <clipPath id="p10af4f0780">
   <rect x="57.6" y="249.733565" width="357.12" height="57.850435"/>
  </clipPath>
 </defs>
</svg>
