<?xml version="1.0" encoding="utf-8" standalone="no"?>
<!DOCTYPE svg PUBLIC "-//W3C//DTD SVG 1.1//EN"
  "http://www.w3.org/Graphics/SVG/1.1/DTD/svg11.dtd">
<svg xmlns:xlink="http://www.w3.org/1999/xlink" width="460.8pt" height="345.6pt" viewBox="0 0 460.8 345.6" xmlns="http://www.w3.org/2000/svg" version="1.1">
 <metadata>
  <rdf:RDF xmlns:dc="http://purl.org/dc/elements/1.1/" xmlns:cc="http://creativecommons.org/ns#" xmlns:rdf="http://www.w3.org/1999/02/22-rdf-syntax-ns#">
   <cc:Work>
    <dc:type rdf:resource="http://purl.org/dc/dcmitype/StillImage"/>
    <dc:date>2024-12-04T23:29:15.443244</dc:date>
    <dc:format>image/svg+xml</dc:format>
    <dc:creator>
     <cc:Agent>
      <dc:title>Matplotlib v3.9.2, https://matplotlib.org/</dc:title>
     </cc:Agent>
    </dc:creator>
   </cc:Work>
  </rdf:RDF>
 </metadata>
 <defs>
  <style type="text/css">*{stroke-linejoin: round; stroke-linecap: butt}</style>
 </defs>
 <g id="figure_1">
  <g id="patch_1">
   <path d="M 0 345.6 
L 460.8 345.6 
L 460.8 0 
L 0 0 
z
" style="fill: #ffffff"/>
  </g>
  <g id="axes_1">
   <g id="patch_2">
    <path d="M 57.6 307.584 
L 414.72 307.584 
L 414.72 41.472 
L 57.6 41.472 
z
" style="fill: #ffffff"/>
   </g>
   <g id="matplotlib.axis_1">
    <g id="xtick_1">
     <g id="line2d_1">
      <defs>
       <path id="mc3b48e763d" d="M 0 0 
L 0 3.5 
" style="stroke: #000000; stroke-width: 0.8"/>
      </defs>
      <g>
       <use xlink:href="#mc3b48e763d" x="73.832727" y="307.584" style="stroke: #000000; stroke-width: 0.8"/>
      </g>
     </g>
     <g id="text_1">
      <!-- 0 -->
      <g transform="translate(70.651477 322.182437) scale(0.1 -0.1)">
       <defs>
        <path id="DejaVuSans-30" d="M 2034 4250 
Q 1547 4250 1301 3770 
Q 1056 3291 1056 2328 
Q 1056 1369 1301 889 
Q 1547 409 2034 409 
Q 2525 409 2770 889 
Q 3016 1369 3016 2328 
Q 3016 3291 2770 3770 
Q 2525 4250 2034 4250 
z
M 2034 4750 
Q 2819 4750 3233 4129 
Q 3647 3509 3647 2328 
Q 3647 1150 3233 529 
Q 2819 -91 2034 -91 
Q 1250 -91 836 529 
Q 422 1150 422 2328 
Q 422 3509 836 4129 
Q 1250 4750 2034 4750 
z
" transform="scale(0.015625)"/>
       </defs>
       <use xlink:href="#DejaVuSans-30"/>
      </g>
     </g>
    </g>
    <g id="xtick_2">
     <g id="line2d_2">
      <g>
       <use xlink:href="#mc3b48e763d" x="138.828632" y="307.584" style="stroke: #000000; stroke-width: 0.8"/>
      </g>
     </g>
     <g id="text_2">
      <!-- 200 -->
      <g transform="translate(129.284882 322.182437) scale(0.1 -0.1)">
       <defs>
        <path id="DejaVuSans-32" d="M 1228 531 
L 3431 531 
L 3431 0 
L 469 0 
L 469 531 
Q 828 903 1448 1529 
Q 2069 2156 2228 2338 
Q 2531 2678 2651 2914 
Q 2772 3150 2772 3378 
Q 2772 3750 2511 3984 
Q 2250 4219 1831 4219 
Q 1534 4219 1204 4116 
Q 875 4013 500 3803 
L 500 4441 
Q 881 4594 1212 4672 
Q 1544 4750 1819 4750 
Q 2544 4750 2975 4387 
Q 3406 4025 3406 3419 
Q 3406 3131 3298 2873 
Q 3191 2616 2906 2266 
Q 2828 2175 2409 1742 
Q 1991 1309 1228 531 
z
" transform="scale(0.015625)"/>
       </defs>
       <use xlink:href="#DejaVuSans-32"/>
       <use xlink:href="#DejaVuSans-30" x="63.623047"/>
       <use xlink:href="#DejaVuSans-30" x="127.246094"/>
      </g>
     </g>
    </g>
    <g id="xtick_3">
     <g id="line2d_3">
      <g>
       <use xlink:href="#mc3b48e763d" x="203.824537" y="307.584" style="stroke: #000000; stroke-width: 0.8"/>
      </g>
     </g>
     <g id="text_3">
      <!-- 400 -->
      <g transform="translate(194.280787 322.182437) scale(0.1 -0.1)">
       <defs>
        <path id="DejaVuSans-34" d="M 2419 4116 
L 825 1625 
L 2419 1625 
L 2419 4116 
z
M 2253 4666 
L 3047 4666 
L 3047 1625 
L 3713 1625 
L 3713 1100 
L 3047 1100 
L 3047 0 
L 2419 0 
L 2419 1100 
L 313 1100 
L 313 1709 
L 2253 4666 
z
" transform="scale(0.015625)"/>
       </defs>
       <use xlink:href="#DejaVuSans-34"/>
       <use xlink:href="#DejaVuSans-30" x="63.623047"/>
       <use xlink:href="#DejaVuSans-30" x="127.246094"/>
      </g>
     </g>
    </g>
    <g id="xtick_4">
     <g id="line2d_4">
      <g>
       <use xlink:href="#mc3b48e763d" x="268.820442" y="307.584" style="stroke: #000000; stroke-width: 0.8"/>
      </g>
     </g>
     <g id="text_4">
      <!-- 600 -->
      <g transform="translate(259.276692 322.182437) scale(0.1 -0.1)">
       <defs>
        <path id="DejaVuSans-36" d="M 2113 2584 
Q 1688 2584 1439 2293 
Q 1191 2003 1191 1497 
Q 1191 994 1439 701 
Q 1688 409 2113 409 
Q 2538 409 2786 701 
Q 3034 994 3034 1497 
Q 3034 2003 2786 2293 
Q 2538 2584 2113 2584 
z
M 3366 4563 
L 3366 3988 
Q 3128 4100 2886 4159 
Q 2644 4219 2406 4219 
Q 1781 4219 1451 3797 
Q 1122 3375 1075 2522 
Q 1259 2794 1537 2939 
Q 1816 3084 2150 3084 
Q 2853 3084 3261 2657 
Q 3669 2231 3669 1497 
Q 3669 778 3244 343 
Q 2819 -91 2113 -91 
Q 1303 -91 875 529 
Q 447 1150 447 2328 
Q 447 3434 972 4092 
Q 1497 4750 2381 4750 
Q 2619 4750 2861 4703 
Q 3103 4656 3366 4563 
z
" transform="scale(0.015625)"/>
       </defs>
       <use xlink:href="#DejaVuSans-36"/>
       <use xlink:href="#DejaVuSans-30" x="63.623047"/>
       <use xlink:href="#DejaVuSans-30" x="127.246094"/>
      </g>
     </g>
    </g>
    <g id="xtick_5">
     <g id="line2d_5">
      <g>
       <use xlink:href="#mc3b48e763d" x="333.816347" y="307.584" style="stroke: #000000; stroke-width: 0.8"/>
      </g>
     </g>
     <g id="text_5">
      <!-- 800 -->
      <g transform="translate(324.272597 322.182437) scale(0.1 -0.1)">
       <defs>
        <path id="DejaVuSans-38" d="M 2034 2216 
Q 1584 2216 1326 1975 
Q 1069 1734 1069 1313 
Q 1069 891 1326 650 
Q 1584 409 2034 409 
Q 2484 409 2743 651 
Q 3003 894 3003 1313 
Q 3003 1734 2745 1975 
Q 2488 2216 2034 2216 
z
M 1403 2484 
Q 997 2584 770 2862 
Q 544 3141 544 3541 
Q 544 4100 942 4425 
Q 1341 4750 2034 4750 
Q 2731 4750 3128 4425 
Q 3525 4100 3525 3541 
Q 3525 3141 3298 2862 
Q 3072 2584 2669 2484 
Q 3125 2378 3379 2068 
Q 3634 1759 3634 1313 
Q 3634 634 3220 271 
Q 2806 -91 2034 -91 
Q 1263 -91 848 271 
Q 434 634 434 1313 
Q 434 1759 690 2068 
Q 947 2378 1403 2484 
z
M 1172 3481 
Q 1172 3119 1398 2916 
Q 1625 2713 2034 2713 
Q 2441 2713 2670 2916 
Q 2900 3119 2900 3481 
Q 2900 3844 2670 4047 
Q 2441 4250 2034 4250 
Q 1625 4250 1398 4047 
Q 1172 3844 1172 3481 
z
" transform="scale(0.015625)"/>
       </defs>
       <use xlink:href="#DejaVuSans-38"/>
       <use xlink:href="#DejaVuSans-30" x="63.623047"/>
       <use xlink:href="#DejaVuSans-30" x="127.246094"/>
      </g>
     </g>
    </g>
    <g id="xtick_6">
     <g id="line2d_6">
      <g>
       <use xlink:href="#mc3b48e763d" x="398.812252" y="307.584" style="stroke: #000000; stroke-width: 0.8"/>
      </g>
     </g>
     <g id="text_6">
      <!-- 1000 -->
      <g transform="translate(386.087252 322.182437) scale(0.1 -0.1)">
       <defs>
        <path id="DejaVuSans-31" d="M 794 531 
L 1825 531 
L 1825 4091 
L 703 3866 
L 703 4441 
L 1819 4666 
L 2450 4666 
L 2450 531 
L 3481 531 
L 3481 0 
L 794 0 
L 794 531 
z
" transform="scale(0.015625)"/>
       </defs>
       <use xlink:href="#DejaVuSans-31"/>
       <use xlink:href="#DejaVuSans-30" x="63.623047"/>
       <use xlink:href="#DejaVuSans-30" x="127.246094"/>
       <use xlink:href="#DejaVuSans-30" x="190.869141"/>
      </g>
     </g>
    </g>
    <g id="text_7">
     <!-- Ordin esantion -->
     <g transform="translate(199.443594 335.860562) scale(0.1 -0.1)">
      <defs>
       <path id="DejaVuSans-4f" d="M 2522 4238 
Q 1834 4238 1429 3725 
Q 1025 3213 1025 2328 
Q 1025 1447 1429 934 
Q 1834 422 2522 422 
Q 3209 422 3611 934 
Q 4013 1447 4013 2328 
Q 4013 3213 3611 3725 
Q 3209 4238 2522 4238 
z
M 2522 4750 
Q 3503 4750 4090 4092 
Q 4678 3434 4678 2328 
Q 4678 1225 4090 567 
Q 3503 -91 2522 -91 
Q 1538 -91 948 565 
Q 359 1222 359 2328 
Q 359 3434 948 4092 
Q 1538 4750 2522 4750 
z
" transform="scale(0.015625)"/>
       <path id="DejaVuSans-72" d="M 2631 2963 
Q 2534 3019 2420 3045 
Q 2306 3072 2169 3072 
Q 1681 3072 1420 2755 
Q 1159 2438 1159 1844 
L 1159 0 
L 581 0 
L 581 3500 
L 1159 3500 
L 1159 2956 
Q 1341 3275 1631 3429 
Q 1922 3584 2338 3584 
Q 2397 3584 2469 3576 
Q 2541 3569 2628 3553 
L 2631 2963 
z
" transform="scale(0.015625)"/>
       <path id="DejaVuSans-64" d="M 2906 2969 
L 2906 4863 
L 3481 4863 
L 3481 0 
L 2906 0 
L 2906 525 
Q 2725 213 2448 61 
Q 2172 -91 1784 -91 
Q 1150 -91 751 415 
Q 353 922 353 1747 
Q 353 2572 751 3078 
Q 1150 3584 1784 3584 
Q 2172 3584 2448 3432 
Q 2725 3281 2906 2969 
z
M 947 1747 
Q 947 1113 1208 752 
Q 1469 391 1925 391 
Q 2381 391 2643 752 
Q 2906 1113 2906 1747 
Q 2906 2381 2643 2742 
Q 2381 3103 1925 3103 
Q 1469 3103 1208 2742 
Q 947 2381 947 1747 
z
" transform="scale(0.015625)"/>
       <path id="DejaVuSans-69" d="M 603 3500 
L 1178 3500 
L 1178 0 
L 603 0 
L 603 3500 
z
M 603 4863 
L 1178 4863 
L 1178 4134 
L 603 4134 
L 603 4863 
z
" transform="scale(0.015625)"/>
       <path id="DejaVuSans-6e" d="M 3513 2113 
L 3513 0 
L 2938 0 
L 2938 2094 
Q 2938 2591 2744 2837 
Q 2550 3084 2163 3084 
Q 1697 3084 1428 2787 
Q 1159 2491 1159 1978 
L 1159 0 
L 581 0 
L 581 3500 
L 1159 3500 
L 1159 2956 
Q 1366 3272 1645 3428 
Q 1925 3584 2291 3584 
Q 2894 3584 3203 3211 
Q 3513 2838 3513 2113 
z
" transform="scale(0.015625)"/>
       <path id="DejaVuSans-20" transform="scale(0.015625)"/>
       <path id="DejaVuSans-65" d="M 3597 1894 
L 3597 1613 
L 953 1613 
Q 991 1019 1311 708 
Q 1631 397 2203 397 
Q 2534 397 2845 478 
Q 3156 559 3463 722 
L 3463 178 
Q 3153 47 2828 -22 
Q 2503 -91 2169 -91 
Q 1331 -91 842 396 
Q 353 884 353 1716 
Q 353 2575 817 3079 
Q 1281 3584 2069 3584 
Q 2775 3584 3186 3129 
Q 3597 2675 3597 1894 
z
M 3022 2063 
Q 3016 2534 2758 2815 
Q 2500 3097 2075 3097 
Q 1594 3097 1305 2825 
Q 1016 2553 972 2059 
L 3022 2063 
z
" transform="scale(0.015625)"/>
       <path id="DejaVuSans-73" d="M 2834 3397 
L 2834 2853 
Q 2591 2978 2328 3040 
Q 2066 3103 1784 3103 
Q 1356 3103 1142 2972 
Q 928 2841 928 2578 
Q 928 2378 1081 2264 
Q 1234 2150 1697 2047 
L 1894 2003 
Q 2506 1872 2764 1633 
Q 3022 1394 3022 966 
Q 3022 478 2636 193 
Q 2250 -91 1575 -91 
Q 1294 -91 989 -36 
Q 684 19 347 128 
L 347 722 
Q 666 556 975 473 
Q 1284 391 1588 391 
Q 1994 391 2212 530 
Q 2431 669 2431 922 
Q 2431 1156 2273 1281 
Q 2116 1406 1581 1522 
L 1381 1569 
Q 847 1681 609 1914 
Q 372 2147 372 2553 
Q 372 3047 722 3315 
Q 1072 3584 1716 3584 
Q 2034 3584 2315 3537 
Q 2597 3491 2834 3397 
z
" transform="scale(0.015625)"/>
       <path id="DejaVuSans-61" d="M 2194 1759 
Q 1497 1759 1228 1600 
Q 959 1441 959 1056 
Q 959 750 1161 570 
Q 1363 391 1709 391 
Q 2188 391 2477 730 
Q 2766 1069 2766 1631 
L 2766 1759 
L 2194 1759 
z
M 3341 1997 
L 3341 0 
L 2766 0 
L 2766 531 
Q 2569 213 2275 61 
Q 1981 -91 1556 -91 
Q 1019 -91 701 211 
Q 384 513 384 1019 
Q 384 1609 779 1909 
Q 1175 2209 1959 2209 
L 2766 2209 
L 2766 2266 
Q 2766 2663 2505 2880 
Q 2244 3097 1772 3097 
Q 1472 3097 1187 3025 
Q 903 2953 641 2809 
L 641 3341 
Q 956 3463 1253 3523 
Q 1550 3584 1831 3584 
Q 2591 3584 2966 3190 
Q 3341 2797 3341 1997 
z
" transform="scale(0.015625)"/>
       <path id="DejaVuSans-74" d="M 1172 4494 
L 1172 3500 
L 2356 3500 
L 2356 3053 
L 1172 3053 
L 1172 1153 
Q 1172 725 1289 603 
Q 1406 481 1766 481 
L 2356 481 
L 2356 0 
L 1766 0 
Q 1100 0 847 248 
Q 594 497 594 1153 
L 594 3053 
L 172 3053 
L 172 3500 
L 594 3500 
L 594 4494 
L 1172 4494 
z
" transform="scale(0.015625)"/>
       <path id="DejaVuSans-6f" d="M 1959 3097 
Q 1497 3097 1228 2736 
Q 959 2375 959 1747 
Q 959 1119 1226 758 
Q 1494 397 1959 397 
Q 2419 397 2687 759 
Q 2956 1122 2956 1747 
Q 2956 2369 2687 2733 
Q 2419 3097 1959 3097 
z
M 1959 3584 
Q 2709 3584 3137 3096 
Q 3566 2609 3566 1747 
Q 3566 888 3137 398 
Q 2709 -91 1959 -91 
Q 1206 -91 779 398 
Q 353 888 353 1747 
Q 353 2609 779 3096 
Q 1206 3584 1959 3584 
z
" transform="scale(0.015625)"/>
      </defs>
      <use xlink:href="#DejaVuSans-4f"/>
      <use xlink:href="#DejaVuSans-72" x="78.710938"/>
      <use xlink:href="#DejaVuSans-64" x="118.074219"/>
      <use xlink:href="#DejaVuSans-69" x="181.550781"/>
      <use xlink:href="#DejaVuSans-6e" x="209.333984"/>
      <use xlink:href="#DejaVuSans-20" x="272.712891"/>
      <use xlink:href="#DejaVuSans-65" x="304.5"/>
      <use xlink:href="#DejaVuSans-73" x="366.023438"/>
      <use xlink:href="#DejaVuSans-61" x="418.123047"/>
      <use xlink:href="#DejaVuSans-6e" x="479.402344"/>
      <use xlink:href="#DejaVuSans-74" x="542.78125"/>
      <use xlink:href="#DejaVuSans-69" x="581.990234"/>
      <use xlink:href="#DejaVuSans-6f" x="609.773438"/>
      <use xlink:href="#DejaVuSans-6e" x="670.955078"/>
     </g>
    </g>
   </g>
   <g id="matplotlib.axis_2">
    <g id="ytick_1">
     <g id="line2d_7">
      <defs>
       <path id="m75a04ba6b5" d="M 0 0 
L -3.5 0 
" style="stroke: #000000; stroke-width: 0.8"/>
      </defs>
      <g>
       <use xlink:href="#m75a04ba6b5" x="57.6" y="299.459406" style="stroke: #000000; stroke-width: 0.8"/>
      </g>
     </g>
     <g id="text_8">
      <!-- 1.0 -->
      <g transform="translate(34.696875 303.258624) scale(0.1 -0.1)">
       <defs>
        <path id="DejaVuSans-2e" d="M 684 794 
L 1344 794 
L 1344 0 
L 684 0 
L 684 794 
z
" transform="scale(0.015625)"/>
       </defs>
       <use xlink:href="#DejaVuSans-31"/>
       <use xlink:href="#DejaVuSans-2e" x="63.623047"/>
       <use xlink:href="#DejaVuSans-30" x="95.410156"/>
      </g>
     </g>
    </g>
    <g id="ytick_2">
     <g id="line2d_8">
      <g>
       <use xlink:href="#m75a04ba6b5" x="57.6" y="259.624946" style="stroke: #000000; stroke-width: 0.8"/>
      </g>
     </g>
     <g id="text_9">
      <!-- 1.5 -->
      <g transform="translate(34.696875 263.424164) scale(0.1 -0.1)">
       <defs>
        <path id="DejaVuSans-35" d="M 691 4666 
L 3169 4666 
L 3169 4134 
L 1269 4134 
L 1269 2991 
Q 1406 3038 1543 3061 
Q 1681 3084 1819 3084 
Q 2600 3084 3056 2656 
Q 3513 2228 3513 1497 
Q 3513 744 3044 326 
Q 2575 -91 1722 -91 
Q 1428 -91 1123 -41 
Q 819 9 494 109 
L 494 744 
Q 775 591 1075 516 
Q 1375 441 1709 441 
Q 2250 441 2565 725 
Q 2881 1009 2881 1497 
Q 2881 1984 2565 2268 
Q 2250 2553 1709 2553 
Q 1456 2553 1204 2497 
Q 953 2441 691 2322 
L 691 4666 
z
" transform="scale(0.015625)"/>
       </defs>
       <use xlink:href="#DejaVuSans-31"/>
       <use xlink:href="#DejaVuSans-2e" x="63.623047"/>
       <use xlink:href="#DejaVuSans-35" x="95.410156"/>
      </g>
     </g>
    </g>
    <g id="ytick_3">
     <g id="line2d_9">
      <g>
       <use xlink:href="#m75a04ba6b5" x="57.6" y="219.790486" style="stroke: #000000; stroke-width: 0.8"/>
      </g>
     </g>
     <g id="text_10">
      <!-- 2.0 -->
      <g transform="translate(34.696875 223.589705) scale(0.1 -0.1)">
       <use xlink:href="#DejaVuSans-32"/>
       <use xlink:href="#DejaVuSans-2e" x="63.623047"/>
       <use xlink:href="#DejaVuSans-30" x="95.410156"/>
      </g>
     </g>
    </g>
    <g id="ytick_4">
     <g id="line2d_10">
      <g>
       <use xlink:href="#m75a04ba6b5" x="57.6" y="179.956026" style="stroke: #000000; stroke-width: 0.8"/>
      </g>
     </g>
     <g id="text_11">
      <!-- 2.5 -->
      <g transform="translate(34.696875 183.755245) scale(0.1 -0.1)">
       <use xlink:href="#DejaVuSans-32"/>
       <use xlink:href="#DejaVuSans-2e" x="63.623047"/>
       <use xlink:href="#DejaVuSans-35" x="95.410156"/>
      </g>
     </g>
    </g>
    <g id="ytick_5">
     <g id="line2d_11">
      <g>
       <use xlink:href="#m75a04ba6b5" x="57.6" y="140.121566" style="stroke: #000000; stroke-width: 0.8"/>
      </g>
     </g>
     <g id="text_12">
      <!-- 3.0 -->
      <g transform="translate(34.696875 143.920785) scale(0.1 -0.1)">
       <defs>
        <path id="DejaVuSans-33" d="M 2597 2516 
Q 3050 2419 3304 2112 
Q 3559 1806 3559 1356 
Q 3559 666 3084 287 
Q 2609 -91 1734 -91 
Q 1441 -91 1130 -33 
Q 819 25 488 141 
L 488 750 
Q 750 597 1062 519 
Q 1375 441 1716 441 
Q 2309 441 2620 675 
Q 2931 909 2931 1356 
Q 2931 1769 2642 2001 
Q 2353 2234 1838 2234 
L 1294 2234 
L 1294 2753 
L 1863 2753 
Q 2328 2753 2575 2939 
Q 2822 3125 2822 3475 
Q 2822 3834 2567 4026 
Q 2313 4219 1838 4219 
Q 1578 4219 1281 4162 
Q 984 4106 628 3988 
L 628 4550 
Q 988 4650 1302 4700 
Q 1616 4750 1894 4750 
Q 2613 4750 3031 4423 
Q 3450 4097 3450 3541 
Q 3450 3153 3228 2886 
Q 3006 2619 2597 2516 
z
" transform="scale(0.015625)"/>
       </defs>
       <use xlink:href="#DejaVuSans-33"/>
       <use xlink:href="#DejaVuSans-2e" x="63.623047"/>
       <use xlink:href="#DejaVuSans-30" x="95.410156"/>
      </g>
     </g>
    </g>
    <g id="ytick_6">
     <g id="line2d_12">
      <g>
       <use xlink:href="#m75a04ba6b5" x="57.6" y="100.287106" style="stroke: #000000; stroke-width: 0.8"/>
      </g>
     </g>
     <g id="text_13">
      <!-- 3.5 -->
      <g transform="translate(34.696875 104.086325) scale(0.1 -0.1)">
       <use xlink:href="#DejaVuSans-33"/>
       <use xlink:href="#DejaVuSans-2e" x="63.623047"/>
       <use xlink:href="#DejaVuSans-35" x="95.410156"/>
      </g>
     </g>
    </g>
    <g id="ytick_7">
     <g id="line2d_13">
      <g>
       <use xlink:href="#m75a04ba6b5" x="57.6" y="60.452646" style="stroke: #000000; stroke-width: 0.8"/>
      </g>
     </g>
     <g id="text_14">
      <!-- 4.0 -->
      <g transform="translate(34.696875 64.251865) scale(0.1 -0.1)">
       <use xlink:href="#DejaVuSans-34"/>
       <use xlink:href="#DejaVuSans-2e" x="63.623047"/>
       <use xlink:href="#DejaVuSans-30" x="95.410156"/>
      </g>
     </g>
    </g>
    <g id="text_15">
     <!-- Valoare -->
     <g transform="translate(28.617187 193.156906) rotate(-90) scale(0.1 -0.1)">
      <defs>
       <path id="DejaVuSans-56" d="M 1831 0 
L 50 4666 
L 709 4666 
L 2188 738 
L 3669 4666 
L 4325 4666 
L 2547 0 
L 1831 0 
z
" transform="scale(0.015625)"/>
       <path id="DejaVuSans-6c" d="M 603 4863 
L 1178 4863 
L 1178 0 
L 603 0 
L 603 4863 
z
" transform="scale(0.015625)"/>
      </defs>
      <use xlink:href="#DejaVuSans-56"/>
      <use xlink:href="#DejaVuSans-61" x="60.658203"/>
      <use xlink:href="#DejaVuSans-6c" x="121.9375"/>
      <use xlink:href="#DejaVuSans-6f" x="149.720703"/>
      <use xlink:href="#DejaVuSans-61" x="210.902344"/>
      <use xlink:href="#DejaVuSans-72" x="272.181641"/>
      <use xlink:href="#DejaVuSans-65" x="311.044922"/>
     </g>
    </g>
   </g>
   <g id="line2d_14">
    <path d="M 73.832727 293.633647 
L 74.157707 295.488 
L 74.482686 291.64018 
L 74.807666 292.587572 
L 75.132645 290.553426 
L 75.457625 291.32892 
L 75.782604 287.863103 
L 76.107584 287.63048 
L 76.432563 288.166451 
L 76.757543 284.527574 
L 77.082523 288.274921 
L 77.407502 282.311146 
L 77.732482 281.087956 
L 78.057461 285.194454 
L 78.382441 282.851604 
L 78.70742 279.222034 
L 79.0324 281.306069 
L 79.357379 282.387375 
L 79.682359 276.987391 
L 80.007338 280.745683 
L 80.657297 277.525057 
L 80.982277 279.885193 
L 81.307256 275.781743 
L 81.632236 274.129407 
L 81.957215 278.688626 
L 82.282195 271.953235 
L 82.607174 272.356363 
L 82.932154 275.343841 
L 83.257133 268.897328 
L 83.582113 268.687735 
L 83.907093 274.179497 
L 84.232072 273.643233 
L 84.557052 272.277177 
L 84.882031 270.373741 
L 85.207011 273.143153 
L 85.53199 268.038459 
L 85.85697 269.910268 
L 86.181949 269.629888 
L 86.506929 266.944331 
L 86.831908 267.711501 
L 87.481867 267.947004 
L 87.806847 265.095154 
L 88.131826 269.85069 
L 88.456806 269.882857 
L 89.431744 263.103453 
L 89.756724 263.001087 
L 90.081704 263.485044 
L 90.406683 265.268425 
L 90.731663 266.159061 
L 91.056642 263.891322 
L 91.381622 265.286626 
L 91.706601 263.818139 
L 92.031581 263.535929 
L 92.68154 267.65167 
L 93.006519 264.639713 
L 93.331499 267.498716 
L 93.656478 268.854141 
L 93.981458 269.580598 
L 94.306437 269.165455 
L 94.631417 269.886073 
L 95.281376 266.031063 
L 95.606355 271.006699 
L 95.931335 269.633786 
L 96.256314 269.160894 
L 96.581294 271.592758 
L 96.906274 270.746064 
L 97.231253 266.371668 
L 97.556233 273.029247 
L 97.881212 271.916465 
L 98.206192 270.007839 
L 98.856151 274.982573 
L 99.18113 271.17917 
L 99.50611 273.907932 
L 99.831089 274.817096 
L 100.156069 276.529232 
L 100.481048 274.371165 
L 100.806028 274.186113 
L 101.131007 270.788026 
L 101.455987 271.666599 
L 101.780966 276.045246 
L 102.105946 272.104868 
L 102.430925 274.488042 
L 102.755905 272.893656 
L 103.080885 278.779514 
L 103.405864 276.255815 
L 103.730844 276.540268 
L 104.055823 279.673172 
L 104.380803 278.092577 
L 104.705782 280.495223 
L 105.030762 276.592533 
L 105.355741 277.600723 
L 105.680721 277.65918 
L 106.0057 277.491936 
L 106.33068 279.304468 
L 106.655659 284.736433 
L 106.980639 280.857771 
L 107.305618 284.385264 
L 107.630598 284.406813 
L 107.955577 278.708406 
L 108.280557 280.051212 
L 108.605536 280.598018 
L 108.930516 286.041077 
L 109.255495 284.420794 
L 109.580475 281.052147 
L 109.905455 282.976277 
L 110.230434 286.466444 
L 110.555414 286.720617 
L 110.880393 281.718928 
L 111.205373 282.972719 
L 111.530352 288.286282 
L 112.180311 285.294423 
L 112.505291 288.442305 
L 112.83027 284.720938 
L 113.15525 286.7946 
L 113.480229 284.62517 
L 113.805209 285.502792 
L 114.130188 283.321527 
L 114.455168 288.570096 
L 114.780147 283.861168 
L 115.105127 281.345185 
L 115.430106 280.479752 
L 115.755086 286.08359 
L 116.080066 280.571954 
L 116.405045 282.942147 
L 116.730025 280.198825 
L 117.055004 280.556499 
L 117.379984 281.645939 
L 118.029943 284.478805 
L 118.354922 281.708687 
L 118.679902 285.759819 
L 119.004881 281.069399 
L 119.329861 279.765477 
L 119.65484 284.757076 
L 119.97982 282.231277 
L 120.304799 276.728097 
L 120.954758 277.580221 
L 121.279738 275.532388 
L 121.604717 276.70244 
L 121.929697 281.563596 
L 122.254676 276.73436 
L 122.579656 275.193859 
L 122.904636 278.856611 
L 123.229615 279.311748 
L 123.554595 278.700989 
L 123.879574 271.258483 
L 124.204554 269.861694 
L 124.529533 274.704684 
L 124.854513 270.779101 
L 125.179492 268.982376 
L 125.829451 272.568141 
L 126.154431 270.190073 
L 126.47941 273.331148 
L 126.80439 265.788735 
L 127.129369 267.723094 
L 127.454349 271.563491 
L 127.779328 269.898539 
L 128.104308 270.27839 
L 128.429287 263.55887 
L 128.754267 268.613864 
L 129.404226 265.175974 
L 129.729206 260.430778 
L 130.054185 259.756331 
L 130.379165 263.634286 
L 130.704144 257.919858 
L 131.029124 261.830311 
L 131.354103 261.203715 
L 131.679083 257.260244 
L 132.329042 256.308607 
L 132.654021 255.096258 
L 132.979001 255.362138 
L 133.30398 256.067061 
L 133.62896 253.979625 
L 133.953939 258.824117 
L 134.278919 256.522222 
L 134.603898 256.561292 
L 134.928878 253.685277 
L 135.253857 252.975629 
L 135.578837 250.602572 
L 135.903817 253.592763 
L 136.228796 253.762192 
L 136.553776 255.453684 
L 136.878755 253.645391 
L 137.203735 254.242245 
L 137.528714 249.42587 
L 137.853694 247.776231 
L 138.503653 252.664751 
L 138.828632 250.565735 
L 139.153612 250.674223 
L 139.478591 246.9605 
L 139.803571 252.310969 
L 140.45353 246.509357 
L 140.778509 247.449866 
L 141.103489 248.991256 
L 141.428468 251.988898 
L 142.078428 249.977139 
L 142.403407 247.652846 
L 142.728387 248.454389 
L 143.053366 250.554745 
L 143.378346 249.114249 
L 143.703325 245.125372 
L 144.028305 248.522499 
L 144.353284 245.261904 
L 144.678264 248.643718 
L 145.003243 248.199437 
L 145.328223 245.72113 
L 145.653202 246.073667 
L 145.978182 246.598103 
L 146.303161 245.497562 
L 146.628141 250.4347 
L 146.95312 246.654244 
L 147.2781 251.966941 
L 147.603079 251.255149 
L 147.928059 252.851244 
L 148.253038 252.985343 
L 148.578018 255.128654 
L 149.227977 252.82105 
L 149.552957 256.042553 
L 149.877936 249.621928 
L 150.202916 253.461937 
L 150.852875 256.228124 
L 151.177854 257.353251 
L 151.502834 253.516079 
L 151.827813 254.09858 
L 152.152793 253.774942 
L 152.477772 258.225351 
L 152.802752 255.550341 
L 153.127731 254.852109 
L 153.452711 258.070916 
L 153.77769 258.166705 
L 154.10267 261.412056 
L 154.427649 255.741346 
L 154.752629 257.635706 
L 155.077609 262.404116 
L 155.402588 256.141346 
L 155.727568 260.011027 
L 156.052547 262.421219 
L 156.377527 258.007705 
L 156.702506 259.561752 
L 157.027486 262.801811 
L 157.352465 260.396533 
L 157.677445 262.100464 
L 158.002424 262.462302 
L 158.327404 260.550851 
L 158.652383 260.772945 
L 158.977363 260.557566 
L 159.302342 259.866741 
L 159.627322 265.675245 
L 159.952301 260.519617 
L 160.277281 266.728515 
L 160.60226 266.624255 
L 160.92724 264.358441 
L 161.252219 261.19256 
L 161.577199 266.155897 
L 161.902179 262.439625 
L 162.227158 264.47258 
L 162.552138 262.068595 
L 163.202097 267.059388 
L 163.527076 262.794332 
L 163.852056 266.153406 
L 164.177035 262.202127 
L 164.502015 267.515622 
L 164.826994 265.300984 
L 165.151974 261.895973 
L 165.476953 268.776196 
L 165.801933 267.122862 
L 166.126912 268.989208 
L 166.776871 262.551241 
L 167.101851 261.151751 
L 167.42683 267.793413 
L 167.75181 266.826411 
L 168.07679 262.223206 
L 168.401769 264.840155 
L 168.726749 264.028951 
L 169.051728 262.918369 
L 169.376708 265.206458 
L 169.701687 262.79083 
L 170.026667 265.944826 
L 170.676626 257.242352 
L 171.001605 257.38464 
L 171.326585 262.607955 
L 171.651564 263.074208 
L 171.976544 262.603741 
L 172.301523 259.805264 
L 172.626503 255.543528 
L 172.951482 257.452804 
L 173.276462 253.916102 
L 173.601441 255.248745 
L 173.926421 254.42118 
L 174.2514 257.457925 
L 174.57638 257.811234 
L 174.90136 251.638012 
L 175.226339 251.347166 
L 175.551319 249.090104 
L 175.876298 251.370696 
L 176.526257 246.551251 
L 176.851237 244.525956 
L 177.176216 247.866 
L 177.501196 243.031576 
L 177.826175 242.378299 
L 178.151155 247.26357 
L 178.476134 241.776257 
L 179.126093 243.907623 
L 179.451073 238.020297 
L 179.776052 239.876547 
L 180.101032 235.84799 
L 180.426011 235.440784 
L 181.075971 238.523522 
L 181.72593 231.260216 
L 182.050909 236.948381 
L 182.375889 230.933493 
L 182.700868 232.424159 
L 183.025848 229.79105 
L 183.350827 228.934712 
L 183.675807 225.484556 
L 184.000786 228.467198 
L 184.325766 226.864938 
L 184.650745 223.83187 
L 185.625684 226.771897 
L 185.950663 225.109687 
L 186.275643 224.116233 
L 186.600622 220.868231 
L 186.925602 221.030394 
L 187.250581 216.241928 
L 187.575561 217.48518 
L 187.900541 215.073057 
L 188.22552 219.899804 
L 189.200459 215.015408 
L 189.525438 209.253505 
L 189.850418 212.838469 
L 190.175397 214.091666 
L 190.500377 211.93092 
L 190.825356 209.007989 
L 191.150336 209.461993 
L 191.475315 205.546839 
L 191.800295 210.609646 
L 192.125274 207.025335 
L 192.450254 208.150099 
L 192.775233 204.568936 
L 193.100213 202.585785 
L 193.425192 201.759903 
L 193.750172 206.911995 
L 194.075152 206.579088 
L 194.400131 202.807146 
L 194.725111 200.478076 
L 195.05009 204.962632 
L 195.37507 203.708305 
L 195.700049 200.975871 
L 196.025029 203.9512 
L 196.350008 201.411802 
L 196.674988 201.369334 
L 196.999967 203.139355 
L 197.324947 203.324118 
L 197.649926 198.547135 
L 197.974906 198.465408 
L 198.624865 197.384044 
L 198.949844 198.574266 
L 199.599803 197.917786 
L 200.249762 204.524184 
L 200.574742 201.56763 
L 200.899722 200.508458 
L 201.224701 197.017377 
L 201.549681 203.553964 
L 201.87466 200.250873 
L 202.19964 205.148099 
L 202.524619 199.130303 
L 202.849599 204.788065 
L 203.174578 205.220872 
L 203.499558 204.165253 
L 203.824537 199.312751 
L 204.149517 199.391776 
L 204.474496 205.488531 
L 204.799476 203.240535 
L 205.124455 204.412425 
L 205.449435 202.523734 
L 205.774414 201.467936 
L 206.424373 204.655265 
L 206.749353 201.450055 
L 207.399312 207.619236 
L 207.724292 206.102848 
L 208.049271 206.427104 
L 208.374251 204.736765 
L 208.69923 204.496025 
L 209.02421 207.101198 
L 209.349189 211.194742 
L 209.674169 205.534741 
L 209.999148 210.433614 
L 210.324128 207.097318 
L 210.649107 210.294082 
L 210.974087 206.944126 
L 211.299066 212.763633 
L 211.624046 210.280058 
L 211.949025 211.324031 
L 212.274005 211.220622 
L 212.598984 214.547786 
L 212.923964 207.931912 
L 213.248943 209.831392 
L 213.573923 215.393271 
L 213.898903 212.602219 
L 214.223882 216.760907 
L 214.548862 210.699197 
L 214.873841 213.758367 
L 215.198821 215.352478 
L 215.5238 214.537161 
L 215.84878 213.29093 
L 216.173759 211.583241 
L 216.498739 213.767385 
L 216.823718 211.450122 
L 217.148698 212.528784 
L 217.473677 213.186513 
L 217.798657 215.437419 
L 218.123636 211.972029 
L 218.448616 219.121218 
L 218.773595 213.535427 
L 219.098575 218.542887 
L 219.423554 215.230271 
L 219.748534 217.436429 
L 220.073514 218.547218 
L 220.398493 214.353621 
L 220.723473 217.108217 
L 221.048452 217.029265 
L 221.373432 214.44439 
L 222.023391 215.704204 
L 222.67335 212.074781 
L 222.998329 218.049174 
L 223.323309 215.065294 
L 223.648288 216.855162 
L 223.973268 213.469383 
L 224.298247 212.452184 
L 224.623227 213.563663 
L 224.948206 213.891529 
L 225.273186 215.947573 
L 225.598165 212.563975 
L 225.923145 212.651484 
L 226.248124 217.220552 
L 226.573104 212.486672 
L 226.898084 211.822719 
L 227.223063 208.323332 
L 227.548043 212.789839 
L 227.873022 213.101256 
L 228.198002 210.019969 
L 228.522981 209.871986 
L 228.847961 213.193904 
L 229.17294 210.135514 
L 229.49792 209.779007 
L 229.822899 210.803076 
L 230.147879 206.118586 
L 230.472858 205.769091 
L 230.797838 202.687786 
L 231.122817 209.569968 
L 231.447797 207.750784 
L 231.772776 201.960689 
L 232.097756 201.701976 
L 232.422735 202.708872 
L 232.747715 199.575712 
L 233.072695 202.109419 
L 233.397674 200.623569 
L 233.722654 203.834627 
L 234.047633 199.55036 
L 234.372613 201.744932 
L 234.697592 202.850045 
L 235.022572 194.414123 
L 235.347551 193.898869 
L 235.672531 198.630797 
L 235.99751 192.600659 
L 236.32249 197.326456 
L 236.647469 192.024418 
L 236.972449 194.574778 
L 237.297428 190.462946 
L 237.622408 193.200471 
L 237.947387 193.440064 
L 238.272367 194.062168 
L 238.597346 193.116471 
L 238.922326 193.039541 
L 239.247305 187.716288 
L 239.572285 189.284467 
L 239.897265 184.919669 
L 240.222244 188.159462 
L 240.547224 187.74518 
L 240.872203 186.977802 
L 241.197183 182.172993 
L 241.522162 182.514044 
L 241.847142 181.688652 
L 242.172121 185.2095 
L 242.82208 180.049821 
L 243.14706 184.195182 
L 243.472039 179.717984 
L 243.797019 185.07485 
L 244.121998 177.601334 
L 244.446978 177.327484 
L 244.771957 178.848151 
L 245.096937 178.484031 
L 245.421916 182.78773 
L 245.746896 178.339308 
L 246.071876 178.228909 
L 246.396855 181.651793 
L 246.721835 177.150081 
L 247.046814 176.811948 
L 247.696773 180.175838 
L 248.021753 178.432796 
L 248.346732 172.965774 
L 248.996691 177.472785 
L 249.321671 176.386638 
L 249.64665 177.284002 
L 249.97163 176.299931 
L 250.296609 171.939641 
L 250.621589 171.934236 
L 250.946568 172.882767 
L 251.271548 171.673561 
L 251.596527 177.509342 
L 251.921507 172.842411 
L 252.246486 174.455761 
L 252.571466 178.804552 
L 252.896446 175.356271 
L 253.546405 171.603413 
L 253.871384 175.909516 
L 254.196364 173.93227 
L 254.521343 175.999362 
L 254.846323 177.133109 
L 255.171302 179.442468 
L 255.496282 174.807604 
L 255.821261 172.561989 
L 256.146241 176.573789 
L 256.47122 174.31077 
L 256.7962 178.395744 
L 257.121179 173.590973 
L 257.446159 177.117579 
L 257.771138 173.968112 
L 258.096118 176.576666 
L 258.421097 175.423032 
L 258.746077 180.698007 
L 259.071057 176.032435 
L 259.396036 178.536093 
L 259.721016 180.176238 
L 260.045995 183.703757 
L 260.370975 177.072825 
L 260.695954 182.600356 
L 261.020934 182.822089 
L 261.345913 184.738968 
L 261.670893 180.270365 
L 261.995872 178.63141 
L 262.320852 184.981204 
L 262.645831 179.154293 
L 262.970811 184.335203 
L 263.29579 181.53637 
L 263.62077 187.732532 
L 263.945749 181.612992 
L 264.270729 186.520647 
L 264.920688 181.838662 
L 265.245667 182.627781 
L 265.570647 185.943636 
L 265.895627 185.062644 
L 266.220606 186.502293 
L 266.545586 184.103718 
L 266.870565 185.806819 
L 267.195545 186.798288 
L 267.520524 184.044754 
L 267.845504 186.502748 
L 268.170483 185.900055 
L 268.495463 191.276205 
L 268.820442 187.660628 
L 269.145422 189.732753 
L 269.470401 188.577768 
L 269.795381 188.367364 
L 270.12036 186.343534 
L 270.44534 186.715497 
L 271.095299 192.495279 
L 271.420278 189.139273 
L 272.070238 186.427323 
L 272.395217 189.451378 
L 272.720197 185.813728 
L 273.370156 189.123294 
L 273.695135 185.468865 
L 274.020115 189.446615 
L 274.345094 187.79301 
L 274.670074 189.778989 
L 274.995053 185.624241 
L 275.320033 189.308027 
L 275.645012 183.970021 
L 275.969992 184.499881 
L 276.294971 186.180227 
L 276.619951 186.628504 
L 276.94493 186.60359 
L 277.26991 184.262172 
L 277.594889 183.893922 
L 277.919869 181.042418 
L 278.244848 187.138598 
L 278.569828 186.533439 
L 278.894808 181.59017 
L 279.219787 185.327463 
L 279.544767 181.109545 
L 279.869746 181.587756 
L 280.194726 180.63031 
L 280.519705 184.115914 
L 280.844685 183.237638 
L 281.169664 179.075899 
L 281.494644 177.940856 
L 281.819623 179.538761 
L 282.144603 174.692086 
L 282.469582 178.974413 
L 282.794562 174.134493 
L 283.119541 175.615799 
L 283.444521 176.234136 
L 283.7695 175.823634 
L 284.09448 175.714976 
L 284.419459 171.686402 
L 284.744439 169.349395 
L 285.069419 172.985575 
L 285.394398 166.686504 
L 285.719378 170.523061 
L 286.044357 163.285635 
L 286.369337 163.117358 
L 286.694316 165.554934 
L 287.019296 165.386434 
L 287.344275 163.066857 
L 287.669255 164.615338 
L 287.994234 161.718315 
L 288.319214 156.56595 
L 288.644193 156.829575 
L 288.969173 156.468235 
L 289.294152 155.08699 
L 289.619132 157.109311 
L 289.944111 152.851394 
L 290.269091 156.297038 
L 290.59407 152.786227 
L 290.91905 154.411686 
L 291.244029 149.918918 
L 291.569009 147.802476 
L 291.893989 150.128574 
L 292.218968 151.076567 
L 292.868927 144.932187 
L 293.193907 142.502979 
L 293.518886 142.698324 
L 293.843866 146.158257 
L 294.168845 138.520508 
L 294.493825 144.194196 
L 294.818804 141.806512 
L 295.143784 135.610995 
L 295.468763 140.161082 
L 295.793743 135.973586 
L 296.118722 137.649967 
L 296.443702 135.564417 
L 296.768681 132.546197 
L 297.093661 132.368854 
L 297.41864 135.952222 
L 297.74362 129.117275 
L 298.0686 130.9607 
L 298.393579 128.305211 
L 298.718559 131.593417 
L 299.043538 132.62409 
L 299.368518 127.223781 
L 299.693497 126.627323 
L 300.018477 129.944978 
L 300.343456 129.106356 
L 300.668436 123.328498 
L 300.993415 123.224329 
L 301.318395 124.830655 
L 301.643374 127.979798 
L 301.968354 120.257 
L 302.293333 127.001156 
L 302.618313 123.313685 
L 302.943292 124.623772 
L 303.268272 121.426694 
L 303.593251 122.801633 
L 303.918231 119.31318 
L 304.24321 117.171214 
L 304.56819 123.115161 
L 304.89317 116.222117 
L 305.218149 118.297948 
L 305.543129 117.750523 
L 305.868108 121.735935 
L 306.193088 120.582238 
L 306.518067 117.522662 
L 306.843047 119.10174 
L 307.168026 117.33498 
L 307.493006 121.76164 
L 307.817985 120.267799 
L 308.142965 119.576603 
L 308.467944 115.41917 
L 308.792924 114.308611 
L 309.117903 119.338601 
L 309.442883 118.501989 
L 309.767862 119.509035 
L 310.092842 121.322013 
L 310.417821 121.602981 
L 310.742801 117.060717 
L 311.067781 122.423249 
L 311.39276 114.733105 
L 311.71774 119.000185 
L 312.042719 117.118454 
L 312.367699 121.829559 
L 312.692678 121.130236 
L 313.017658 117.811824 
L 313.342637 120.011979 
L 313.667617 120.784497 
L 313.992596 119.910492 
L 314.317576 117.547581 
L 314.642555 122.246505 
L 314.967535 122.007545 
L 315.292514 122.925375 
L 315.617494 124.706338 
L 315.942473 123.619622 
L 316.267453 124.108871 
L 316.592432 118.690762 
L 316.917412 123.731601 
L 317.242391 126.194634 
L 317.892351 121.144829 
L 318.21733 128.044504 
L 318.54231 125.379495 
L 318.867289 127.829673 
L 319.192269 127.502012 
L 319.517248 127.806305 
L 319.842228 125.231568 
L 320.492187 123.752639 
L 320.817166 125.904209 
L 321.142146 123.351839 
L 321.467125 128.27374 
L 321.792105 127.967613 
L 322.117084 127.074653 
L 322.442064 130.596045 
L 322.767043 130.224604 
L 323.092023 126.854883 
L 323.417002 125.868783 
L 323.741982 126.917605 
L 324.066962 132.077895 
L 324.716921 128.391762 
L 325.0419 133.703321 
L 325.691859 126.063363 
L 326.016839 128.982022 
L 326.341818 129.400301 
L 326.666798 126.400547 
L 326.991777 131.111921 
L 327.316757 132.923076 
L 327.641736 131.620979 
L 327.966716 131.534167 
L 328.616675 128.424468 
L 328.941654 130.581788 
L 329.266634 128.13159 
L 329.591613 133.021906 
L 329.916593 132.744922 
L 330.241572 131.521734 
L 330.566552 129.346167 
L 330.891532 130.72572 
L 331.216511 129.810852 
L 331.541491 131.892151 
L 331.86647 131.759857 
L 332.19145 130.563602 
L 332.516429 127.339373 
L 332.841409 126.45627 
L 333.166388 127.098693 
L 333.491368 125.960316 
L 333.816347 127.473022 
L 334.141327 124.589503 
L 334.791286 123.798854 
L 335.116265 128.131141 
L 335.441245 126.862797 
L 335.766224 121.807257 
L 336.091204 126.684477 
L 336.416183 126.969957 
L 336.741163 127.106922 
L 337.066143 126.350783 
L 337.391122 122.664292 
L 337.716102 124.76679 
L 338.041081 121.185871 
L 338.366061 121.699969 
L 338.69104 118.225747 
L 339.01602 116.735882 
L 339.340999 117.526662 
L 339.665979 119.327293 
L 339.990958 120.01889 
L 340.315938 118.096607 
L 340.640917 112.857386 
L 340.965897 118.926667 
L 341.290876 112.891565 
L 341.615856 109.957646 
L 341.940835 114.399938 
L 342.265815 109.535496 
L 342.590794 109.817327 
L 342.915774 112.04745 
L 343.240753 106.39143 
L 343.565733 107.695089 
L 343.890713 111.622123 
L 344.540672 106.890785 
L 344.865651 107.093602 
L 345.190631 107.88341 
L 345.51561 107.189029 
L 345.84059 107.482114 
L 346.165569 100.460382 
L 346.490549 100.421726 
L 346.815528 104.593007 
L 347.140508 100.110821 
L 347.465487 99.146304 
L 347.790467 101.503333 
L 348.115446 98.984677 
L 348.765405 100.797049 
L 349.090385 100.532613 
L 349.415364 98.581718 
L 349.740344 94.417741 
L 350.065324 97.447995 
L 350.390303 94.97315 
L 350.715283 90.893855 
L 351.040262 96.088467 
L 351.690221 91.919351 
L 352.015201 94.850236 
L 352.34018 88.885911 
L 352.66516 90.690343 
L 352.990139 88.786573 
L 353.315119 88.805995 
L 353.640098 89.441371 
L 353.965078 89.710193 
L 354.290057 91.889659 
L 354.615037 85.867343 
L 354.940016 90.13801 
L 355.264996 86.129359 
L 355.589975 87.555716 
L 355.914955 82.618166 
L 356.239934 89.239325 
L 356.564914 86.919054 
L 356.889894 88.354499 
L 357.214873 85.692222 
L 357.539853 88.957763 
L 357.864832 81.632536 
L 358.189812 82.421191 
L 358.514791 80.627003 
L 358.839771 81.791329 
L 359.16475 85.753593 
L 359.48973 85.186372 
L 359.814709 81.045799 
L 360.139689 87.115192 
L 360.464668 82.758425 
L 360.789648 84.185554 
L 361.114627 85.046701 
L 361.439607 81.492571 
L 361.764586 85.518518 
L 362.414545 82.867241 
L 362.739525 84.677884 
L 363.064505 84.275572 
L 363.389484 88.115888 
L 363.714464 83.911875 
L 364.039443 88.248927 
L 364.364423 82.785384 
L 364.689402 87.908658 
L 365.014382 87.584847 
L 365.339361 87.561523 
L 365.664341 84.693461 
L 365.98932 83.815318 
L 366.3143 84.77234 
L 366.639279 86.769014 
L 366.964259 86.457431 
L 367.289238 87.17189 
L 367.614218 85.804337 
L 367.939197 87.475897 
L 368.264177 83.943516 
L 368.589156 89.411178 
L 368.914136 88.323643 
L 369.239115 90.548593 
L 369.564095 87.358068 
L 369.889075 90.180169 
L 370.214054 87.935868 
L 370.539034 92.703545 
L 370.864013 92.577361 
L 371.513972 89.378629 
L 371.838952 94.585982 
L 372.163931 91.551845 
L 372.488911 92.539334 
L 372.81389 90.181209 
L 373.13887 94.589083 
L 373.463849 92.138287 
L 373.788829 91.192416 
L 374.113808 94.323983 
L 374.438788 91.812896 
L 374.763767 94.261999 
L 375.088747 90.423384 
L 375.413726 93.033231 
L 375.738706 92.492644 
L 376.063686 96.726973 
L 376.388665 97.102366 
L 376.713645 90.346464 
L 377.038624 95.891341 
L 377.363604 93.200507 
L 377.688583 91.871248 
L 378.013563 98.250484 
L 378.338542 92.472221 
L 378.663522 98.483922 
L 378.988501 94.308983 
L 379.313481 92.614962 
L 379.63846 96.393546 
L 379.96344 97.236052 
L 380.288419 95.483342 
L 380.613399 95.62091 
L 381.263358 90.568136 
L 381.588337 90.355573 
L 381.913317 94.307924 
L 382.238296 92.92276 
L 382.563276 95.411894 
L 382.888256 91.739218 
L 383.213235 96.700137 
L 383.538215 90.402498 
L 383.863194 90.693615 
L 384.188174 92.170828 
L 384.838133 90.413054 
L 385.163112 91.961377 
L 385.488092 91.037597 
L 385.813071 90.721482 
L 386.138051 86.030821 
L 386.46303 89.367363 
L 386.78801 88.844684 
L 387.112989 85.490619 
L 387.437969 90.817156 
L 387.762948 86.785783 
L 388.087928 88.684535 
L 388.412907 87.178614 
L 389.387846 80.868607 
L 389.712826 81.610782 
L 390.037805 80.309484 
L 390.362785 77.053229 
L 390.687764 82.019737 
L 391.337723 75.188506 
L 391.662703 79.181676 
L 391.987682 73.969389 
L 392.312662 74.059525 
L 392.637641 74.465005 
L 392.962621 76.258347 
L 393.2876 69.974261 
L 393.61258 68.825812 
L 393.937559 70.667708 
L 394.262539 73.574701 
L 394.587518 67.884799 
L 395.237477 63.971778 
L 395.562457 66.275287 
L 395.887437 62.194461 
L 396.212416 65.263941 
L 396.537396 60.125606 
L 396.862375 60.141151 
L 397.187355 61.634246 
L 397.512334 61.842714 
L 397.837314 58.328466 
L 398.162293 53.568 
L 398.487273 58.950347 
L 398.487273 58.950347 
" clip-path="url(#pafa44fedf7)" style="fill: none; stroke: #1f77b4; stroke-width: 1.5; stroke-linecap: square"/>
   </g>
   <g id="line2d_15">
    <path d="M 84.232072 270.66729 
L 84.557052 270.455322 
L 85.207011 270.518085 
L 85.53199 269.93855 
L 85.85697 268.955711 
L 86.181949 269.641645 
L 86.506929 268.458451 
L 86.831908 267.84632 
L 87.156888 267.994182 
L 87.481867 267.293383 
L 87.806847 266.912157 
L 88.131826 265.734049 
L 88.781785 267.657858 
L 89.431744 266.142195 
L 89.756724 266.069743 
L 90.081704 264.632751 
L 90.406683 263.7555 
L 90.731663 263.656862 
L 91.056642 264.315661 
L 92.35656 262.810214 
L 92.68154 263.127099 
L 93.006519 264.878832 
L 93.331499 265.023744 
L 93.981458 266.129836 
L 94.306437 267.361877 
L 94.631417 267.472743 
L 94.956396 268.515053 
L 95.281376 268.723437 
L 95.606355 268.56118 
L 95.931335 269.595877 
L 96.581294 270.334023 
L 96.906274 270.857726 
L 97.231253 271.169359 
L 97.556233 270.224883 
L 98.206192 271.703229 
L 98.531171 271.29446 
L 98.856151 271.778858 
L 99.18113 272.875607 
L 99.50611 272.716514 
L 100.806028 275.016288 
L 101.131007 275.198104 
L 101.455987 274.050688 
L 102.105946 274.589834 
L 102.430925 274.227268 
L 102.755905 274.287611 
L 103.080885 274.462061 
L 103.405864 275.431411 
L 103.730844 275.935874 
L 104.055823 275.359842 
L 104.705782 278.27869 
L 105.030762 278.656728 
L 105.680721 278.364335 
L 106.0057 279.209682 
L 106.33068 278.364435 
L 106.655659 278.923746 
L 107.305618 281.885994 
L 107.630598 282.2666 
L 107.955577 283.586356 
L 108.280557 282.19708 
L 108.930516 282.666098 
L 109.255495 284.032044 
L 109.580475 284.404657 
L 110.230434 283.441532 
L 110.555414 283.798797 
L 110.880393 285.465219 
L 111.205373 284.097961 
L 111.530352 284.699162 
L 112.180311 286.859916 
L 112.505291 286.38026 
L 113.15525 286.868073 
L 113.480229 287.360758 
L 114.130188 285.352855 
L 114.455168 286.430609 
L 114.780147 287.017787 
L 115.105127 286.191956 
L 115.430106 283.72653 
L 115.755086 283.889419 
L 116.080066 284.590661 
L 116.405045 283.070909 
L 116.730025 282.209072 
L 117.704963 280.529382 
L 118.029943 280.775541 
L 118.354922 281.434494 
L 119.004881 281.98328 
L 119.329861 281.874964 
L 119.65484 280.92986 
L 119.97982 281.936791 
L 120.304799 282.155671 
L 120.954758 279.712059 
L 121.604717 278.155603 
L 121.929697 276.86081 
L 122.254676 278.002281 
L 122.579656 276.995243 
L 122.904636 276.839442 
L 123.229615 276.085004 
L 123.554595 277.025225 
L 123.879574 276.839288 
L 124.204554 275.85923 
L 124.529533 272.67789 
L 124.854513 273.663672 
L 125.504472 270.958802 
L 125.829451 269.938667 
L 126.154431 270.183356 
L 126.47941 269.662092 
L 126.80439 269.906857 
L 127.129369 268.3512 
L 127.454349 267.545674 
L 127.779328 269.52469 
L 128.104308 268.157779 
L 128.429287 267.524183 
L 128.754267 267.378898 
L 129.079247 267.465716 
L 130.054185 263.344785 
L 130.379165 262.848778 
L 130.704144 262.675446 
L 131.029124 260.277573 
L 131.354103 260.028442 
L 131.679083 260.070668 
L 132.004062 258.340744 
L 132.329042 257.666408 
L 132.979001 254.4432 
L 133.62896 254.572918 
L 133.953939 252.925928 
L 134.278919 253.690608 
L 134.603898 253.902192 
L 134.928878 254.271403 
L 135.253857 253.319682 
L 135.578837 253.001338 
L 135.903817 251.995354 
L 136.228796 252.170246 
L 136.878755 252.980331 
L 137.203735 253.78764 
L 137.528714 252.294058 
L 138.178673 250.47259 
L 138.503653 250.491396 
L 138.828632 250.643631 
L 139.153612 250.42205 
L 139.478591 250.477483 
L 139.803571 249.068953 
L 140.12855 249.453862 
L 141.103489 247.313072 
L 141.428468 247.807424 
L 141.753448 248.888675 
L 142.078428 248.642882 
L 142.403407 248.852531 
L 142.728387 248.276056 
L 143.053366 248.636673 
L 143.378346 248.529402 
L 143.703325 248.687301 
L 144.028305 248.011199 
L 144.353284 248.722752 
L 144.678264 246.85746 
L 145.003243 246.899986 
L 145.653202 247.349216 
L 145.978182 246.682737 
L 146.303161 246.373656 
L 146.628141 245.374292 
L 146.95312 246.699821 
L 147.2781 246.746227 
L 147.603079 248.304302 
L 147.928059 248.771587 
L 148.253038 249.811159 
L 148.578018 250.275691 
L 148.902998 252.558032 
L 149.227977 253.296898 
L 149.552957 253.28122 
L 149.877936 254.554894 
L 150.202916 254.252722 
L 150.527895 254.443872 
L 150.852875 255.72241 
L 151.177854 255.755078 
L 151.502834 256.333766 
L 151.827813 256.633512 
L 152.152793 255.826824 
L 153.127731 256.557507 
L 153.452711 256.318707 
L 153.77769 257.628955 
L 154.10267 257.169926 
L 154.427649 258.545844 
L 154.752629 257.383042 
L 155.077609 257.79739 
L 155.402588 259.538563 
L 155.727568 259.282376 
L 156.052547 258.632443 
L 156.377527 261.200395 
L 156.702506 260.468112 
L 157.027486 260.500005 
L 157.352465 260.99901 
L 157.677445 260.95033 
L 158.327404 262.855321 
L 158.977363 261.32835 
L 159.302342 262.263441 
L 159.627322 261.327623 
L 159.952301 262.748675 
L 160.60226 262.977802 
L 160.92724 264.868986 
L 161.577199 263.72172 
L 161.902179 265.234887 
L 162.227158 264.450306 
L 162.552138 264.267353 
L 162.877117 265.09662 
L 163.202097 264.674458 
L 163.527076 264.934196 
L 163.852056 264.951577 
L 164.177035 264.494728 
L 164.502015 264.393725 
L 164.826994 265.540766 
L 165.151974 265.604222 
L 165.476953 264.758495 
L 166.451892 267.484237 
L 166.776871 266.587407 
L 167.101851 265.1716 
L 167.75181 265.300989 
L 168.07679 265.934196 
L 168.401769 264.461298 
L 168.726749 265.718665 
L 169.701687 263.447172 
L 170.026667 264.264418 
L 170.351646 263.835997 
L 170.676626 264.057643 
L 171.001605 260.96653 
L 171.326585 259.678044 
L 171.651564 260.52441 
L 172.301523 260.797503 
L 172.626503 259.993617 
L 172.951482 258.561425 
L 173.276462 257.747529 
L 173.601441 256.589889 
L 173.926421 254.759324 
L 174.2514 255.116287 
L 174.57638 255.915248 
L 174.90136 255.145755 
L 175.226339 253.827297 
L 175.551319 251.882273 
L 176.201278 249.89729 
L 176.851237 248.217375 
L 177.176216 247.29007 
L 177.826175 244.092317 
L 178.151155 242.005301 
L 178.476134 242.842891 
L 179.451073 241.025564 
L 179.776052 239.476662 
L 180.426011 237.85691 
L 180.750991 236.02085 
L 181.075971 235.414682 
L 181.40095 236.249497 
L 182.050909 232.629109 
L 182.375889 232.861669 
L 183.025848 231.104947 
L 183.350827 230.691122 
L 184.650745 225.06542 
L 184.975725 224.94541 
L 185.300704 223.881 
L 185.950663 222.902851 
L 186.275643 223.181297 
L 186.600622 222.813058 
L 187.250581 220.628677 
L 187.900541 217.870985 
L 188.22552 216.875099 
L 188.5505 216.473298 
L 188.875479 216.576318 
L 189.200459 215.202341 
L 189.525438 214.401106 
L 189.850418 212.689104 
L 190.175397 211.955409 
L 190.500377 211.977377 
L 190.825356 210.749149 
L 191.150336 210.680936 
L 192.125274 206.126742 
L 192.450254 206.43966 
L 192.775233 205.54067 
L 193.100213 205.376066 
L 193.750172 202.181172 
L 194.075152 202.541684 
L 194.400131 203.395291 
L 194.725111 202.860918 
L 195.05009 201.303915 
L 195.37507 201.742718 
L 195.700049 201.164596 
L 196.025029 201.477954 
L 196.350008 200.782039 
L 196.674988 201.223833 
L 196.999967 200.798324 
L 197.324947 201.355152 
L 197.649926 201.230336 
L 197.974906 200.874336 
L 198.949844 197.715636 
L 199.274824 197.971092 
L 199.599803 198.87587 
L 199.924783 197.197609 
L 200.249762 197.815617 
L 200.574742 198.696326 
L 200.899722 200.085651 
L 201.224701 199.653974 
L 201.549681 199.428236 
L 201.87466 199.765665 
L 202.19964 200.626331 
L 202.524619 200.882864 
L 203.499558 203.368827 
L 203.824537 202.787451 
L 204.149517 202.594249 
L 204.474496 202.592338 
L 204.799476 203.763398 
L 205.124455 203.960611 
L 205.449435 203.561891 
L 205.774414 204.260346 
L 206.099394 203.511202 
L 206.424373 203.53162 
L 206.749353 202.775289 
L 207.074333 202.495142 
L 207.399312 203.495103 
L 207.724292 205.351925 
L 208.049271 204.888562 
L 208.374251 204.785752 
L 208.69923 205.46897 
L 209.02421 205.392412 
L 209.674169 207.222697 
L 210.324128 208.08517 
L 210.649107 209.513828 
L 210.974087 208.278975 
L 211.299066 209.410701 
L 211.624046 209.646228 
L 211.949025 211.339285 
L 212.923964 212.193288 
L 213.248943 211.78142 
L 213.573923 211.760397 
L 214.223882 213.644954 
L 214.873841 214.2386 
L 215.198821 213.665852 
L 215.5238 214.643747 
L 216.173759 214.54591 
L 216.498739 214.207875 
L 216.823718 214.911994 
L 217.148698 213.994027 
L 217.473677 212.676667 
L 218.123636 213.50436 
L 218.448616 214.488649 
L 218.773595 213.921476 
L 219.423554 215.258122 
L 219.748534 216.641146 
L 220.073514 215.340921 
L 220.398493 217.453401 
L 220.723473 216.470605 
L 221.048452 217.497284 
L 222.34837 215.991088 
L 222.67335 216.132248 
L 222.998329 214.865545 
L 223.323309 216.285245 
L 223.648288 215.225867 
L 223.973268 215.551406 
L 224.298247 215.347206 
L 224.623227 214.266482 
L 224.948206 213.594775 
L 225.273186 213.495164 
L 225.598165 213.962537 
L 225.923145 213.226054 
L 226.248124 213.360261 
L 226.573104 213.287395 
L 226.898084 213.792954 
L 227.223063 211.92456 
L 227.873022 211.655138 
L 228.198002 212.380155 
L 228.522981 210.652219 
L 229.17294 211.138098 
L 229.49792 210.595869 
L 229.822899 209.520844 
L 230.147879 209.432298 
L 230.472858 208.962164 
L 230.797838 207.995644 
L 231.122817 205.97992 
L 231.772776 205.95118 
L 232.097756 205.423429 
L 232.422735 203.2171 
L 233.072695 200.865145 
L 233.397674 200.587254 
L 233.722654 200.048084 
L 234.047633 200.420791 
L 234.372613 199.945579 
L 234.697592 199.696623 
L 235.347551 197.838563 
L 235.672531 196.642364 
L 235.99751 196.478477 
L 236.32249 194.087836 
L 236.647469 195.055578 
L 237.297428 193.36026 
L 237.622408 191.126244 
L 237.947387 191.139264 
L 238.272367 191.575511 
L 238.597346 191.284913 
L 238.922326 192.071101 
L 239.247305 191.42305 
L 239.897265 188.574254 
L 240.222244 187.838826 
L 240.547224 187.505756 
L 240.872203 186.960096 
L 241.197183 185.606565 
L 241.522162 185.133403 
L 241.847142 183.11644 
L 242.172121 181.971567 
L 242.82208 182.100425 
L 243.14706 180.675118 
L 243.472039 181.280396 
L 243.797019 180.324406 
L 244.121998 180.36748 
L 244.446978 178.486952 
L 245.096937 177.767145 
L 245.421916 177.912993 
L 245.746896 177.651032 
L 246.071876 178.348519 
L 246.396855 177.473221 
L 246.721835 178.661991 
L 247.046814 177.142839 
L 247.371794 177.372699 
L 247.696773 177.332145 
L 248.021753 179.024177 
L 248.671712 176.408453 
L 248.996691 175.235947 
L 249.321671 176.311176 
L 249.64665 175.860219 
L 249.97163 176.195311 
L 250.296609 175.132834 
L 250.621589 174.888632 
L 251.271548 172.778356 
L 251.596527 172.215069 
L 252.246486 173.892397 
L 252.571466 172.440821 
L 252.896446 173.949941 
L 253.221425 174.141256 
L 253.546405 173.585116 
L 253.871384 172.588242 
L 254.196364 173.72674 
L 255.821261 176.556802 
L 256.146241 174.596073 
L 256.47122 174.861747 
L 256.7962 176.218357 
L 257.121179 177.007901 
L 257.446159 176.106202 
L 257.771138 175.772162 
L 258.096118 175.692933 
L 258.421097 176.252846 
L 258.746077 175.6508 
L 259.071057 176.181448 
L 259.396036 177.433996 
L 259.721016 177.311325 
L 260.045995 178.122953 
L 260.370975 179.454178 
L 260.695954 179.772165 
L 261.345913 181.365577 
L 261.670893 182.580468 
L 261.995872 183.107214 
L 262.320852 182.180467 
L 262.645831 182.309223 
L 262.970811 183.178933 
L 263.29579 182.965191 
L 263.62077 183.419231 
L 263.945749 184.559173 
L 264.270729 185.151638 
L 264.595708 184.972935 
L 264.920688 184.398995 
L 265.245667 184.168864 
L 265.570647 184.600748 
L 265.895627 185.595964 
L 266.220606 184.049701 
L 266.545586 186.038502 
L 266.870565 185.204415 
L 267.195545 185.623203 
L 267.520524 184.889113 
L 267.845504 186.048412 
L 268.170483 185.520714 
L 268.495463 186.778239 
L 268.820442 187.170566 
L 269.145422 188.881205 
L 269.470401 188.097371 
L 269.795381 188.785246 
L 270.12036 188.779275 
L 270.44534 189.130491 
L 270.770319 188.02684 
L 271.095299 188.289706 
L 271.420278 191.063998 
L 271.745258 189.930549 
L 272.070238 189.8812 
L 272.395217 188.030889 
L 272.720197 189.793924 
L 273.045176 188.055986 
L 273.370156 188.290298 
L 273.695135 188.194838 
L 274.020115 188.383727 
L 274.345094 187.489351 
L 274.995053 187.561647 
L 275.320033 187.75072 
L 275.645012 187.647071 
L 275.969992 186.414189 
L 276.294971 185.790408 
L 276.619951 186.091735 
L 276.94493 186.0987 
L 277.26991 185.271541 
L 277.594889 185.540037 
L 277.919869 184.333588 
L 278.244848 183.725284 
L 278.569828 183.547985 
L 278.894808 184.684095 
L 279.219787 183.338838 
L 279.544767 183.843084 
L 279.869746 182.821614 
L 280.194726 182.441605 
L 280.519705 181.301979 
L 281.169664 181.822703 
L 281.494644 181.19552 
L 281.819623 179.576839 
L 283.119541 176.481954 
L 283.444521 175.158094 
L 283.7695 175.823385 
L 284.09448 174.509671 
L 284.419459 174.339652 
L 284.744439 172.380276 
L 285.069419 171.499619 
L 285.394398 171.115496 
L 285.719378 169.328497 
L 286.044357 169.130065 
L 287.019296 163.583277 
L 287.669255 162.793563 
L 288.319214 161.45761 
L 288.644193 158.791488 
L 289.294152 156.105288 
L 289.619132 155.378803 
L 289.944111 154.956633 
L 290.59407 151.881865 
L 290.91905 152.25797 
L 291.893989 148.591022 
L 292.218968 148.636457 
L 292.543948 148.4507 
L 292.868927 148.029799 
L 293.193907 145.615174 
L 293.518886 144.465926 
L 293.843866 142.543753 
L 294.168845 142.460691 
L 294.493825 140.655729 
L 294.818804 141.225603 
L 295.143784 140.430485 
L 295.793743 136.934636 
L 296.118722 136.635759 
L 296.768681 135.354132 
L 297.41864 131.783793 
L 297.74362 131.962263 
L 298.0686 131.249307 
L 298.393579 128.826382 
L 298.718559 128.812218 
L 299.043538 128.351072 
L 299.368518 129.081045 
L 300.018477 126.629379 
L 300.343456 126.648489 
L 300.668436 127.305554 
L 300.993415 124.469469 
L 301.318395 124.001697 
L 301.643374 124.792494 
L 301.968354 123.923818 
L 302.293333 122.648231 
L 302.618313 122.195265 
L 302.943292 123.07629 
L 303.268272 123.242805 
L 303.918231 120.87768 
L 304.24321 120.954027 
L 304.56819 119.871115 
L 304.89317 119.713491 
L 305.543129 116.9629 
L 305.868108 118.289734 
L 306.193088 117.179042 
L 306.518067 117.862623 
L 306.843047 117.169746 
L 307.168026 117.910469 
L 307.493006 116.940834 
L 307.817985 118.141021 
L 308.142965 118.636702 
L 308.467944 118.792651 
L 309.117903 116.374128 
L 309.442883 117.481811 
L 309.767862 116.740275 
L 310.417821 118.769691 
L 310.742801 120.312346 
L 311.067781 118.049959 
L 311.39276 119.782297 
L 311.71774 118.566494 
L 312.042719 119.013919 
L 312.367699 118.626366 
L 313.017658 119.866501 
L 313.342637 119.056043 
L 313.667617 119.524461 
L 313.992596 119.170697 
L 314.317576 119.621609 
L 314.642555 118.830917 
L 314.967535 120.591207 
L 315.292514 121.738364 
L 315.617494 121.183504 
L 315.942473 122.432968 
L 316.267453 122.414631 
L 316.592432 123.423161 
L 316.917412 122.84228 
L 317.242391 122.88745 
L 317.892351 124.403885 
L 318.21733 124.11248 
L 318.867289 125.724179 
L 319.192269 125.626359 
L 319.517248 127.640663 
L 319.842228 126.878839 
L 320.167207 127.618981 
L 321.142146 125.518077 
L 321.467125 126.643739 
L 321.792105 126.643169 
L 322.117084 126.51672 
L 322.442064 126.552563 
L 322.767043 127.669926 
L 323.092023 129.185888 
L 323.417002 127.748597 
L 323.741982 127.485985 
L 324.391941 129.419051 
L 324.716921 129.639464 
L 325.0419 129.579258 
L 325.36688 130.684372 
L 326.341818 129.035412 
L 326.666798 130.350705 
L 326.991777 128.945446 
L 327.316757 130.083451 
L 327.641736 130.751052 
L 327.966716 130.835403 
L 328.616675 131.334654 
L 328.941654 129.220499 
L 329.266634 130.362756 
L 329.591613 130.110378 
L 330.241572 131.452274 
L 330.566552 131.483246 
L 330.891532 130.783365 
L 331.216511 130.792137 
L 331.541491 129.969797 
L 331.86647 131.204905 
L 332.19145 131.853953 
L 332.516429 130.724086 
L 333.166388 129.673301 
L 333.491368 128.106488 
L 333.816347 127.124874 
L 334.141327 127.369453 
L 334.791286 125.200435 
L 335.116265 123.954458 
L 335.441245 124.583025 
L 335.766224 124.883779 
L 336.091204 123.378208 
L 336.416183 123.871914 
L 336.741163 125.011432 
L 337.066143 124.547087 
L 337.391122 124.887391 
L 337.716102 123.943359 
L 338.041081 124.152352 
L 338.366061 122.987098 
L 338.69104 122.536773 
L 339.01602 121.060387 
L 339.340999 120.398739 
L 339.665979 118.854252 
L 339.990958 118.114373 
L 340.315938 117.761064 
L 340.640917 117.805035 
L 340.965897 116.245953 
L 341.290876 115.961695 
L 341.940835 112.102258 
L 342.265815 112.655152 
L 342.915774 109.743774 
L 343.240753 109.235762 
L 343.565733 107.453066 
L 343.890713 106.357817 
L 344.215692 107.582602 
L 344.540672 107.32693 
L 344.865651 105.713621 
L 345.190631 106.191551 
L 345.51561 106.38425 
L 345.84059 105.858828 
L 346.165569 105.858981 
L 346.490549 103.395838 
L 346.815528 102.557194 
L 347.140508 102.805363 
L 347.790467 99.520362 
L 348.115446 100.228105 
L 348.440426 98.587892 
L 348.765405 98.852755 
L 349.090385 98.385291 
L 349.415364 98.16496 
L 349.740344 98.180092 
L 350.065324 97.090201 
L 350.390303 95.467314 
L 350.715283 95.134873 
L 351.040262 93.672809 
L 351.365242 93.604545 
L 351.690221 93.071202 
L 352.015201 91.652154 
L 352.34018 91.845404 
L 352.990139 89.734146 
L 353.640098 88.821773 
L 353.965078 87.711602 
L 354.290057 88.14041 
L 354.615037 88.807247 
L 354.940016 87.181207 
L 355.264996 86.758768 
L 355.589975 86.101473 
L 355.914955 85.953515 
L 356.564914 85.117764 
L 356.889894 85.897168 
L 357.214873 86.320659 
L 357.539853 85.392224 
L 357.864832 85.951911 
L 358.189812 85.071644 
L 358.839771 82.628705 
L 359.16475 82.043098 
L 359.48973 82.943098 
L 359.814709 83.457178 
L 360.139689 81.60684 
L 360.464668 82.759166 
L 361.114627 82.48957 
L 361.764586 82.893176 
L 362.089566 83.327985 
L 362.414545 84.023196 
L 362.739525 82.951725 
L 363.064505 82.917176 
L 363.389484 84.528083 
L 363.714464 84.285564 
L 364.039443 84.649277 
L 364.689402 85.924618 
L 365.014382 85.365023 
L 365.339361 87.448621 
L 365.664341 86.21986 
L 365.98932 87.572308 
L 366.3143 86.083077 
L 366.964259 85.754772 
L 367.289238 86.171281 
L 367.614218 85.922979 
L 367.939197 86.839982 
L 368.589156 86.034922 
L 368.914136 86.474335 
L 369.564095 88.284897 
L 369.889075 88.456266 
L 370.214054 88.426719 
L 370.539034 88.584152 
L 371.188993 90.956515 
L 371.513972 90.909689 
L 371.838952 91.295768 
L 372.488911 93.114845 
L 372.81389 92.366067 
L 373.13887 93.031034 
L 373.463849 93.029131 
L 373.788829 93.897364 
L 374.113808 92.794101 
L 374.438788 93.781405 
L 374.763767 93.389754 
L 375.088747 93.627374 
L 375.413726 92.645563 
L 375.738706 92.75806 
L 376.063686 93.03931 
L 376.388665 94.357363 
L 376.713645 94.759939 
L 377.038624 93.589672 
L 377.363604 93.621916 
L 377.688583 94.881616 
L 378.013563 93.079049 
L 378.338542 95.031614 
L 378.663522 94.26097 
L 378.988501 95.955778 
L 379.63846 94.577774 
L 379.96344 94.654104 
L 380.288419 96.562079 
L 380.613399 95.540576 
L 380.938378 95.97793 
L 381.263358 95.388091 
L 381.588337 94.348606 
L 381.913317 92.565754 
L 382.238296 93.278876 
L 382.563276 92.47487 
L 382.888256 93.440846 
L 383.213235 93.3836 
L 383.538215 92.587032 
L 383.863194 92.785043 
L 384.188174 91.328016 
L 384.513153 91.377408 
L 384.838133 91.572887 
L 385.163112 91.109888 
L 385.488092 91.287894 
L 385.813071 90.90402 
L 386.46303 88.80179 
L 386.78801 88.327024 
L 387.112989 88.218 
L 387.437969 87.546819 
L 387.762948 88.592917 
L 388.087928 87.211443 
L 388.412907 87.190032 
L 389.062867 86.097379 
L 390.362785 81.365906 
L 390.687764 78.973958 
L 391.012744 79.856577 
L 391.987682 75.836976 
L 392.312662 75.626245 
L 392.637641 73.789167 
L 393.2876 72.990716 
L 393.61258 72.080005 
L 393.937559 69.763792 
L 394.587518 69.104486 
L 394.912498 68.484798 
L 395.562457 65.079788 
L 395.887437 65.082032 
L 396.212416 63.145345 
L 396.537396 62.776085 
L 397.187355 60.473742 
L 397.837314 59.146191 
L 398.162293 57.260801 
L 398.487273 56.401913 
L 398.487273 56.401913 
" clip-path="url(#pafa44fedf7)" style="fill: none; stroke: #ff7f0e; stroke-width: 1.5; stroke-linecap: square"/>
   </g>
   <g id="patch_3">
    <path d="M 57.6 307.584 
L 57.6 41.472 
" style="fill: none; stroke: #000000; stroke-width: 0.8; stroke-linejoin: miter; stroke-linecap: square"/>
   </g>
   <g id="patch_4">
    <path d="M 414.72 307.584 
L 414.72 41.472 
" style="fill: none; stroke: #000000; stroke-width: 0.8; stroke-linejoin: miter; stroke-linecap: square"/>
   </g>
   <g id="patch_5">
    <path d="M 57.6 307.584 
L 414.72 307.584 
" style="fill: none; stroke: #000000; stroke-width: 0.8; stroke-linejoin: miter; stroke-linecap: square"/>
   </g>
   <g id="patch_6">
    <path d="M 57.6 41.472 
L 414.72 41.472 
" style="fill: none; stroke: #000000; stroke-width: 0.8; stroke-linejoin: miter; stroke-linecap: square"/>
   </g>
   <g id="text_16">
    <!-- Serie timp cu predictii -->
    <g transform="translate(170.045625 35.472) scale(0.12 -0.12)">
     <defs>
      <path id="DejaVuSans-53" d="M 3425 4513 
L 3425 3897 
Q 3066 4069 2747 4153 
Q 2428 4238 2131 4238 
Q 1616 4238 1336 4038 
Q 1056 3838 1056 3469 
Q 1056 3159 1242 3001 
Q 1428 2844 1947 2747 
L 2328 2669 
Q 3034 2534 3370 2195 
Q 3706 1856 3706 1288 
Q 3706 609 3251 259 
Q 2797 -91 1919 -91 
Q 1588 -91 1214 -16 
Q 841 59 441 206 
L 441 856 
Q 825 641 1194 531 
Q 1563 422 1919 422 
Q 2459 422 2753 634 
Q 3047 847 3047 1241 
Q 3047 1584 2836 1778 
Q 2625 1972 2144 2069 
L 1759 2144 
Q 1053 2284 737 2584 
Q 422 2884 422 3419 
Q 422 4038 858 4394 
Q 1294 4750 2059 4750 
Q 2388 4750 2728 4690 
Q 3069 4631 3425 4513 
z
" transform="scale(0.015625)"/>
      <path id="DejaVuSans-6d" d="M 3328 2828 
Q 3544 3216 3844 3400 
Q 4144 3584 4550 3584 
Q 5097 3584 5394 3201 
Q 5691 2819 5691 2113 
L 5691 0 
L 5113 0 
L 5113 2094 
Q 5113 2597 4934 2840 
Q 4756 3084 4391 3084 
Q 3944 3084 3684 2787 
Q 3425 2491 3425 1978 
L 3425 0 
L 2847 0 
L 2847 2094 
Q 2847 2600 2669 2842 
Q 2491 3084 2119 3084 
Q 1678 3084 1418 2786 
Q 1159 2488 1159 1978 
L 1159 0 
L 581 0 
L 581 3500 
L 1159 3500 
L 1159 2956 
Q 1356 3278 1631 3431 
Q 1906 3584 2284 3584 
Q 2666 3584 2933 3390 
Q 3200 3197 3328 2828 
z
" transform="scale(0.015625)"/>
      <path id="DejaVuSans-70" d="M 1159 525 
L 1159 -1331 
L 581 -1331 
L 581 3500 
L 1159 3500 
L 1159 2969 
Q 1341 3281 1617 3432 
Q 1894 3584 2278 3584 
Q 2916 3584 3314 3078 
Q 3713 2572 3713 1747 
Q 3713 922 3314 415 
Q 2916 -91 2278 -91 
Q 1894 -91 1617 61 
Q 1341 213 1159 525 
z
M 3116 1747 
Q 3116 2381 2855 2742 
Q 2594 3103 2138 3103 
Q 1681 3103 1420 2742 
Q 1159 2381 1159 1747 
Q 1159 1113 1420 752 
Q 1681 391 2138 391 
Q 2594 391 2855 752 
Q 3116 1113 3116 1747 
z
" transform="scale(0.015625)"/>
      <path id="DejaVuSans-63" d="M 3122 3366 
L 3122 2828 
Q 2878 2963 2633 3030 
Q 2388 3097 2138 3097 
Q 1578 3097 1268 2742 
Q 959 2388 959 1747 
Q 959 1106 1268 751 
Q 1578 397 2138 397 
Q 2388 397 2633 464 
Q 2878 531 3122 666 
L 3122 134 
Q 2881 22 2623 -34 
Q 2366 -91 2075 -91 
Q 1284 -91 818 406 
Q 353 903 353 1747 
Q 353 2603 823 3093 
Q 1294 3584 2113 3584 
Q 2378 3584 2631 3529 
Q 2884 3475 3122 3366 
z
" transform="scale(0.015625)"/>
      <path id="DejaVuSans-75" d="M 544 1381 
L 544 3500 
L 1119 3500 
L 1119 1403 
Q 1119 906 1312 657 
Q 1506 409 1894 409 
Q 2359 409 2629 706 
Q 2900 1003 2900 1516 
L 2900 3500 
L 3475 3500 
L 3475 0 
L 2900 0 
L 2900 538 
Q 2691 219 2414 64 
Q 2138 -91 1772 -91 
Q 1169 -91 856 284 
Q 544 659 544 1381 
z
M 1991 3584 
L 1991 3584 
z
" transform="scale(0.015625)"/>
     </defs>
     <use xlink:href="#DejaVuSans-53"/>
     <use xlink:href="#DejaVuSans-65" x="63.476562"/>
     <use xlink:href="#DejaVuSans-72" x="125"/>
     <use xlink:href="#DejaVuSans-69" x="166.113281"/>
     <use xlink:href="#DejaVuSans-65" x="193.896484"/>
     <use xlink:href="#DejaVuSans-20" x="255.419922"/>
     <use xlink:href="#DejaVuSans-74" x="287.207031"/>
     <use xlink:href="#DejaVuSans-69" x="326.416016"/>
     <use xlink:href="#DejaVuSans-6d" x="354.199219"/>
     <use xlink:href="#DejaVuSans-70" x="451.611328"/>
     <use xlink:href="#DejaVuSans-20" x="515.087891"/>
     <use xlink:href="#DejaVuSans-63" x="546.875"/>
     <use xlink:href="#DejaVuSans-75" x="601.855469"/>
     <use xlink:href="#DejaVuSans-20" x="665.234375"/>
     <use xlink:href="#DejaVuSans-70" x="697.021484"/>
     <use xlink:href="#DejaVuSans-72" x="760.498047"/>
     <use xlink:href="#DejaVuSans-65" x="799.361328"/>
     <use xlink:href="#DejaVuSans-64" x="860.884766"/>
     <use xlink:href="#DejaVuSans-69" x="924.361328"/>
     <use xlink:href="#DejaVuSans-63" x="952.144531"/>
     <use xlink:href="#DejaVuSans-74" x="1007.125"/>
     <use xlink:href="#DejaVuSans-69" x="1046.333984"/>
     <use xlink:href="#DejaVuSans-69" x="1074.117188"/>
    </g>
   </g>
   <g id="legend_1">
    <g id="patch_7">
     <path d="M 64.6 78.82825 
L 236.907813 78.82825 
Q 238.907813 78.82825 238.907813 76.82825 
L 238.907813 48.472 
Q 238.907813 46.472 236.907813 46.472 
L 64.6 46.472 
Q 62.6 46.472 62.6 48.472 
L 62.6 76.82825 
Q 62.6 78.82825 64.6 78.82825 
z
" style="fill: #ffffff; opacity: 0.8; stroke: #cccccc; stroke-linejoin: miter"/>
    </g>
    <g id="line2d_16">
     <path d="M 66.6 54.570437 
L 76.6 54.570437 
L 86.6 54.570437 
" style="fill: none; stroke: #1f77b4; stroke-width: 1.5; stroke-linecap: square"/>
    </g>
    <g id="text_17">
     <!-- Serie timp originala -->
     <g transform="translate(94.6 58.070437) scale(0.1 -0.1)">
      <defs>
       <path id="DejaVuSans-67" d="M 2906 1791 
Q 2906 2416 2648 2759 
Q 2391 3103 1925 3103 
Q 1463 3103 1205 2759 
Q 947 2416 947 1791 
Q 947 1169 1205 825 
Q 1463 481 1925 481 
Q 2391 481 2648 825 
Q 2906 1169 2906 1791 
z
M 3481 434 
Q 3481 -459 3084 -895 
Q 2688 -1331 1869 -1331 
Q 1566 -1331 1297 -1286 
Q 1028 -1241 775 -1147 
L 775 -588 
Q 1028 -725 1275 -790 
Q 1522 -856 1778 -856 
Q 2344 -856 2625 -561 
Q 2906 -266 2906 331 
L 2906 616 
Q 2728 306 2450 153 
Q 2172 0 1784 0 
Q 1141 0 747 490 
Q 353 981 353 1791 
Q 353 2603 747 3093 
Q 1141 3584 1784 3584 
Q 2172 3584 2450 3431 
Q 2728 3278 2906 2969 
L 2906 3500 
L 3481 3500 
L 3481 434 
z
" transform="scale(0.015625)"/>
      </defs>
      <use xlink:href="#DejaVuSans-53"/>
      <use xlink:href="#DejaVuSans-65" x="63.476562"/>
      <use xlink:href="#DejaVuSans-72" x="125"/>
      <use xlink:href="#DejaVuSans-69" x="166.113281"/>
      <use xlink:href="#DejaVuSans-65" x="193.896484"/>
      <use xlink:href="#DejaVuSans-20" x="255.419922"/>
      <use xlink:href="#DejaVuSans-74" x="287.207031"/>
      <use xlink:href="#DejaVuSans-69" x="326.416016"/>
      <use xlink:href="#DejaVuSans-6d" x="354.199219"/>
      <use xlink:href="#DejaVuSans-70" x="451.611328"/>
      <use xlink:href="#DejaVuSans-20" x="515.087891"/>
      <use xlink:href="#DejaVuSans-6f" x="546.875"/>
      <use xlink:href="#DejaVuSans-72" x="608.056641"/>
      <use xlink:href="#DejaVuSans-69" x="649.169922"/>
      <use xlink:href="#DejaVuSans-67" x="676.953125"/>
      <use xlink:href="#DejaVuSans-69" x="740.429688"/>
      <use xlink:href="#DejaVuSans-6e" x="768.212891"/>
      <use xlink:href="#DejaVuSans-61" x="831.591797"/>
      <use xlink:href="#DejaVuSans-6c" x="892.871094"/>
      <use xlink:href="#DejaVuSans-61" x="920.654297"/>
     </g>
    </g>
    <g id="line2d_17">
     <path d="M 66.6 69.248562 
L 76.6 69.248562 
L 86.6 69.248562 
" style="fill: none; stroke: #ff7f0e; stroke-width: 1.5; stroke-linecap: square"/>
    </g>
    <g id="text_18">
     <!-- Valori prezise pentru p = 32 -->
     <g transform="translate(94.6 72.748562) scale(0.1 -0.1)">
      <defs>
       <path id="DejaVuSans-7a" d="M 353 3500 
L 3084 3500 
L 3084 2975 
L 922 459 
L 3084 459 
L 3084 0 
L 275 0 
L 275 525 
L 2438 3041 
L 353 3041 
L 353 3500 
z
" transform="scale(0.015625)"/>
       <path id="DejaVuSans-3d" d="M 678 2906 
L 4684 2906 
L 4684 2381 
L 678 2381 
L 678 2906 
z
M 678 1631 
L 4684 1631 
L 4684 1100 
L 678 1100 
L 678 1631 
z
" transform="scale(0.015625)"/>
      </defs>
      <use xlink:href="#DejaVuSans-56"/>
      <use xlink:href="#DejaVuSans-61" x="60.658203"/>
      <use xlink:href="#DejaVuSans-6c" x="121.9375"/>
      <use xlink:href="#DejaVuSans-6f" x="149.720703"/>
      <use xlink:href="#DejaVuSans-72" x="210.902344"/>
      <use xlink:href="#DejaVuSans-69" x="252.015625"/>
      <use xlink:href="#DejaVuSans-20" x="279.798828"/>
      <use xlink:href="#DejaVuSans-70" x="311.585938"/>
      <use xlink:href="#DejaVuSans-72" x="375.0625"/>
      <use xlink:href="#DejaVuSans-65" x="413.925781"/>
      <use xlink:href="#DejaVuSans-7a" x="475.449219"/>
      <use xlink:href="#DejaVuSans-69" x="527.939453"/>
      <use xlink:href="#DejaVuSans-73" x="555.722656"/>
      <use xlink:href="#DejaVuSans-65" x="607.822266"/>
      <use xlink:href="#DejaVuSans-20" x="669.345703"/>
      <use xlink:href="#DejaVuSans-70" x="701.132812"/>
      <use xlink:href="#DejaVuSans-65" x="764.609375"/>
      <use xlink:href="#DejaVuSans-6e" x="826.132812"/>
      <use xlink:href="#DejaVuSans-74" x="889.511719"/>
      <use xlink:href="#DejaVuSans-72" x="928.720703"/>
      <use xlink:href="#DejaVuSans-75" x="969.833984"/>
      <use xlink:href="#DejaVuSans-20" x="1033.212891"/>
      <use xlink:href="#DejaVuSans-70" x="1065"/>
      <use xlink:href="#DejaVuSans-20" x="1128.476562"/>
      <use xlink:href="#DejaVuSans-3d" x="1160.263672"/>
      <use xlink:href="#DejaVuSans-20" x="1244.052734"/>
      <use xlink:href="#DejaVuSans-33" x="1275.839844"/>
      <use xlink:href="#DejaVuSans-32" x="1339.462891"/>
     </g>
    </g>
   </g>
  </g>
 </g>
 <defs>
  <clipPath id="pafa44fedf7">
   <rect x="57.6" y="41.472" width="357.12" height="266.112"/>
  </clipPath>
 </defs>
</svg>
