<?xml version="1.0" encoding="utf-8" standalone="no"?>
<!DOCTYPE svg PUBLIC "-//W3C//DTD SVG 1.1//EN"
  "http://www.w3.org/Graphics/SVG/1.1/DTD/svg11.dtd">
<svg xmlns:xlink="http://www.w3.org/1999/xlink" width="460.8pt" height="345.6pt" viewBox="0 0 460.8 345.6" xmlns="http://www.w3.org/2000/svg" version="1.1">
 <metadata>
  <rdf:RDF xmlns:dc="http://purl.org/dc/elements/1.1/" xmlns:cc="http://creativecommons.org/ns#" xmlns:rdf="http://www.w3.org/1999/02/22-rdf-syntax-ns#">
   <cc:Work>
    <dc:type rdf:resource="http://purl.org/dc/dcmitype/StillImage"/>
    <dc:date>2024-12-04T23:29:15.593694</dc:date>
    <dc:format>image/svg+xml</dc:format>
    <dc:creator>
     <cc:Agent>
      <dc:title>Matplotlib v3.9.2, https://matplotlib.org/</dc:title>
     </cc:Agent>
    </dc:creator>
   </cc:Work>
  </rdf:RDF>
 </metadata>
 <defs>
  <style type="text/css">*{stroke-linejoin: round; stroke-linecap: butt}</style>
 </defs>
 <g id="figure_1">
  <g id="patch_1">
   <path d="M 0 345.6 
L 460.8 345.6 
L 460.8 0 
L 0 0 
z
" style="fill: #ffffff"/>
  </g>
  <g id="axes_1">
   <g id="patch_2">
    <path d="M 57.6 207.36 
L 414.72 207.36 
L 414.72 41.472 
L 57.6 41.472 
z
" style="fill: #ffffff"/>
   </g>
   <g id="matplotlib.axis_1">
    <g id="xtick_1">
     <g id="line2d_1">
      <defs>
       <path id="me8b305a995" d="M 0 0 
L 0 3.5 
" style="stroke: #000000; stroke-width: 0.8"/>
      </defs>
      <g>
       <use xlink:href="#me8b305a995" x="73.832727" y="207.36" style="stroke: #000000; stroke-width: 0.8"/>
      </g>
     </g>
     <g id="text_1">
      <!-- 0 -->
      <g transform="translate(70.651477 221.958438) scale(0.1 -0.1)">
       <defs>
        <path id="DejaVuSans-30" d="M 2034 4250 
Q 1547 4250 1301 3770 
Q 1056 3291 1056 2328 
Q 1056 1369 1301 889 
Q 1547 409 2034 409 
Q 2525 409 2770 889 
Q 3016 1369 3016 2328 
Q 3016 3291 2770 3770 
Q 2525 4250 2034 4250 
z
M 2034 4750 
Q 2819 4750 3233 4129 
Q 3647 3509 3647 2328 
Q 3647 1150 3233 529 
Q 2819 -91 2034 -91 
Q 1250 -91 836 529 
Q 422 1150 422 2328 
Q 422 3509 836 4129 
Q 1250 4750 2034 4750 
z
" transform="scale(0.015625)"/>
       </defs>
       <use xlink:href="#DejaVuSans-30"/>
      </g>
     </g>
    </g>
    <g id="xtick_2">
     <g id="line2d_2">
      <g>
       <use xlink:href="#me8b305a995" x="138.828632" y="207.36" style="stroke: #000000; stroke-width: 0.8"/>
      </g>
     </g>
     <g id="text_2">
      <!-- 200 -->
      <g transform="translate(129.284882 221.958438) scale(0.1 -0.1)">
       <defs>
        <path id="DejaVuSans-32" d="M 1228 531 
L 3431 531 
L 3431 0 
L 469 0 
L 469 531 
Q 828 903 1448 1529 
Q 2069 2156 2228 2338 
Q 2531 2678 2651 2914 
Q 2772 3150 2772 3378 
Q 2772 3750 2511 3984 
Q 2250 4219 1831 4219 
Q 1534 4219 1204 4116 
Q 875 4013 500 3803 
L 500 4441 
Q 881 4594 1212 4672 
Q 1544 4750 1819 4750 
Q 2544 4750 2975 4387 
Q 3406 4025 3406 3419 
Q 3406 3131 3298 2873 
Q 3191 2616 2906 2266 
Q 2828 2175 2409 1742 
Q 1991 1309 1228 531 
z
" transform="scale(0.015625)"/>
       </defs>
       <use xlink:href="#DejaVuSans-32"/>
       <use xlink:href="#DejaVuSans-30" x="63.623047"/>
       <use xlink:href="#DejaVuSans-30" x="127.246094"/>
      </g>
     </g>
    </g>
    <g id="xtick_3">
     <g id="line2d_3">
      <g>
       <use xlink:href="#me8b305a995" x="203.824537" y="207.36" style="stroke: #000000; stroke-width: 0.8"/>
      </g>
     </g>
     <g id="text_3">
      <!-- 400 -->
      <g transform="translate(194.280787 221.958438) scale(0.1 -0.1)">
       <defs>
        <path id="DejaVuSans-34" d="M 2419 4116 
L 825 1625 
L 2419 1625 
L 2419 4116 
z
M 2253 4666 
L 3047 4666 
L 3047 1625 
L 3713 1625 
L 3713 1100 
L 3047 1100 
L 3047 0 
L 2419 0 
L 2419 1100 
L 313 1100 
L 313 1709 
L 2253 4666 
z
" transform="scale(0.015625)"/>
       </defs>
       <use xlink:href="#DejaVuSans-34"/>
       <use xlink:href="#DejaVuSans-30" x="63.623047"/>
       <use xlink:href="#DejaVuSans-30" x="127.246094"/>
      </g>
     </g>
    </g>
    <g id="xtick_4">
     <g id="line2d_4">
      <g>
       <use xlink:href="#me8b305a995" x="268.820442" y="207.36" style="stroke: #000000; stroke-width: 0.8"/>
      </g>
     </g>
     <g id="text_4">
      <!-- 600 -->
      <g transform="translate(259.276692 221.958438) scale(0.1 -0.1)">
       <defs>
        <path id="DejaVuSans-36" d="M 2113 2584 
Q 1688 2584 1439 2293 
Q 1191 2003 1191 1497 
Q 1191 994 1439 701 
Q 1688 409 2113 409 
Q 2538 409 2786 701 
Q 3034 994 3034 1497 
Q 3034 2003 2786 2293 
Q 2538 2584 2113 2584 
z
M 3366 4563 
L 3366 3988 
Q 3128 4100 2886 4159 
Q 2644 4219 2406 4219 
Q 1781 4219 1451 3797 
Q 1122 3375 1075 2522 
Q 1259 2794 1537 2939 
Q 1816 3084 2150 3084 
Q 2853 3084 3261 2657 
Q 3669 2231 3669 1497 
Q 3669 778 3244 343 
Q 2819 -91 2113 -91 
Q 1303 -91 875 529 
Q 447 1150 447 2328 
Q 447 3434 972 4092 
Q 1497 4750 2381 4750 
Q 2619 4750 2861 4703 
Q 3103 4656 3366 4563 
z
" transform="scale(0.015625)"/>
       </defs>
       <use xlink:href="#DejaVuSans-36"/>
       <use xlink:href="#DejaVuSans-30" x="63.623047"/>
       <use xlink:href="#DejaVuSans-30" x="127.246094"/>
      </g>
     </g>
    </g>
    <g id="xtick_5">
     <g id="line2d_5">
      <g>
       <use xlink:href="#me8b305a995" x="333.816347" y="207.36" style="stroke: #000000; stroke-width: 0.8"/>
      </g>
     </g>
     <g id="text_5">
      <!-- 800 -->
      <g transform="translate(324.272597 221.958438) scale(0.1 -0.1)">
       <defs>
        <path id="DejaVuSans-38" d="M 2034 2216 
Q 1584 2216 1326 1975 
Q 1069 1734 1069 1313 
Q 1069 891 1326 650 
Q 1584 409 2034 409 
Q 2484 409 2743 651 
Q 3003 894 3003 1313 
Q 3003 1734 2745 1975 
Q 2488 2216 2034 2216 
z
M 1403 2484 
Q 997 2584 770 2862 
Q 544 3141 544 3541 
Q 544 4100 942 4425 
Q 1341 4750 2034 4750 
Q 2731 4750 3128 4425 
Q 3525 4100 3525 3541 
Q 3525 3141 3298 2862 
Q 3072 2584 2669 2484 
Q 3125 2378 3379 2068 
Q 3634 1759 3634 1313 
Q 3634 634 3220 271 
Q 2806 -91 2034 -91 
Q 1263 -91 848 271 
Q 434 634 434 1313 
Q 434 1759 690 2068 
Q 947 2378 1403 2484 
z
M 1172 3481 
Q 1172 3119 1398 2916 
Q 1625 2713 2034 2713 
Q 2441 2713 2670 2916 
Q 2900 3119 2900 3481 
Q 2900 3844 2670 4047 
Q 2441 4250 2034 4250 
Q 1625 4250 1398 4047 
Q 1172 3844 1172 3481 
z
" transform="scale(0.015625)"/>
       </defs>
       <use xlink:href="#DejaVuSans-38"/>
       <use xlink:href="#DejaVuSans-30" x="63.623047"/>
       <use xlink:href="#DejaVuSans-30" x="127.246094"/>
      </g>
     </g>
    </g>
    <g id="xtick_6">
     <g id="line2d_6">
      <g>
       <use xlink:href="#me8b305a995" x="398.812252" y="207.36" style="stroke: #000000; stroke-width: 0.8"/>
      </g>
     </g>
     <g id="text_6">
      <!-- 1000 -->
      <g transform="translate(386.087252 221.958438) scale(0.1 -0.1)">
       <defs>
        <path id="DejaVuSans-31" d="M 794 531 
L 1825 531 
L 1825 4091 
L 703 3866 
L 703 4441 
L 1819 4666 
L 2450 4666 
L 2450 531 
L 3481 531 
L 3481 0 
L 794 0 
L 794 531 
z
" transform="scale(0.015625)"/>
       </defs>
       <use xlink:href="#DejaVuSans-31"/>
       <use xlink:href="#DejaVuSans-30" x="63.623047"/>
       <use xlink:href="#DejaVuSans-30" x="127.246094"/>
       <use xlink:href="#DejaVuSans-30" x="190.869141"/>
      </g>
     </g>
    </g>
   </g>
   <g id="matplotlib.axis_2">
    <g id="ytick_1">
     <g id="line2d_7">
      <defs>
       <path id="m5d59480c0a" d="M 0 0 
L -3.5 0 
" style="stroke: #000000; stroke-width: 0.8"/>
      </defs>
      <g>
       <use xlink:href="#m5d59480c0a" x="57.6" y="202.295317" style="stroke: #000000; stroke-width: 0.8"/>
      </g>
     </g>
     <g id="text_7">
      <!-- 1.0 -->
      <g transform="translate(34.696875 206.094536) scale(0.1 -0.1)">
       <defs>
        <path id="DejaVuSans-2e" d="M 684 794 
L 1344 794 
L 1344 0 
L 684 0 
L 684 794 
z
" transform="scale(0.015625)"/>
       </defs>
       <use xlink:href="#DejaVuSans-31"/>
       <use xlink:href="#DejaVuSans-2e" x="63.623047"/>
       <use xlink:href="#DejaVuSans-30" x="95.410156"/>
      </g>
     </g>
    </g>
    <g id="ytick_2">
     <g id="line2d_8">
      <g>
       <use xlink:href="#m5d59480c0a" x="57.6" y="177.463451" style="stroke: #000000; stroke-width: 0.8"/>
      </g>
     </g>
     <g id="text_8">
      <!-- 1.5 -->
      <g transform="translate(34.696875 181.26267) scale(0.1 -0.1)">
       <defs>
        <path id="DejaVuSans-35" d="M 691 4666 
L 3169 4666 
L 3169 4134 
L 1269 4134 
L 1269 2991 
Q 1406 3038 1543 3061 
Q 1681 3084 1819 3084 
Q 2600 3084 3056 2656 
Q 3513 2228 3513 1497 
Q 3513 744 3044 326 
Q 2575 -91 1722 -91 
Q 1428 -91 1123 -41 
Q 819 9 494 109 
L 494 744 
Q 775 591 1075 516 
Q 1375 441 1709 441 
Q 2250 441 2565 725 
Q 2881 1009 2881 1497 
Q 2881 1984 2565 2268 
Q 2250 2553 1709 2553 
Q 1456 2553 1204 2497 
Q 953 2441 691 2322 
L 691 4666 
z
" transform="scale(0.015625)"/>
       </defs>
       <use xlink:href="#DejaVuSans-31"/>
       <use xlink:href="#DejaVuSans-2e" x="63.623047"/>
       <use xlink:href="#DejaVuSans-35" x="95.410156"/>
      </g>
     </g>
    </g>
    <g id="ytick_3">
     <g id="line2d_9">
      <g>
       <use xlink:href="#m5d59480c0a" x="57.6" y="152.631584" style="stroke: #000000; stroke-width: 0.8"/>
      </g>
     </g>
     <g id="text_9">
      <!-- 2.0 -->
      <g transform="translate(34.696875 156.430803) scale(0.1 -0.1)">
       <use xlink:href="#DejaVuSans-32"/>
       <use xlink:href="#DejaVuSans-2e" x="63.623047"/>
       <use xlink:href="#DejaVuSans-30" x="95.410156"/>
      </g>
     </g>
    </g>
    <g id="ytick_4">
     <g id="line2d_10">
      <g>
       <use xlink:href="#m5d59480c0a" x="57.6" y="127.799718" style="stroke: #000000; stroke-width: 0.8"/>
      </g>
     </g>
     <g id="text_10">
      <!-- 2.5 -->
      <g transform="translate(34.696875 131.598937) scale(0.1 -0.1)">
       <use xlink:href="#DejaVuSans-32"/>
       <use xlink:href="#DejaVuSans-2e" x="63.623047"/>
       <use xlink:href="#DejaVuSans-35" x="95.410156"/>
      </g>
     </g>
    </g>
    <g id="ytick_5">
     <g id="line2d_11">
      <g>
       <use xlink:href="#m5d59480c0a" x="57.6" y="102.967851" style="stroke: #000000; stroke-width: 0.8"/>
      </g>
     </g>
     <g id="text_11">
      <!-- 3.0 -->
      <g transform="translate(34.696875 106.76707) scale(0.1 -0.1)">
       <defs>
        <path id="DejaVuSans-33" d="M 2597 2516 
Q 3050 2419 3304 2112 
Q 3559 1806 3559 1356 
Q 3559 666 3084 287 
Q 2609 -91 1734 -91 
Q 1441 -91 1130 -33 
Q 819 25 488 141 
L 488 750 
Q 750 597 1062 519 
Q 1375 441 1716 441 
Q 2309 441 2620 675 
Q 2931 909 2931 1356 
Q 2931 1769 2642 2001 
Q 2353 2234 1838 2234 
L 1294 2234 
L 1294 2753 
L 1863 2753 
Q 2328 2753 2575 2939 
Q 2822 3125 2822 3475 
Q 2822 3834 2567 4026 
Q 2313 4219 1838 4219 
Q 1578 4219 1281 4162 
Q 984 4106 628 3988 
L 628 4550 
Q 988 4650 1302 4700 
Q 1616 4750 1894 4750 
Q 2613 4750 3031 4423 
Q 3450 4097 3450 3541 
Q 3450 3153 3228 2886 
Q 3006 2619 2597 2516 
z
" transform="scale(0.015625)"/>
       </defs>
       <use xlink:href="#DejaVuSans-33"/>
       <use xlink:href="#DejaVuSans-2e" x="63.623047"/>
       <use xlink:href="#DejaVuSans-30" x="95.410156"/>
      </g>
     </g>
    </g>
    <g id="ytick_6">
     <g id="line2d_12">
      <g>
       <use xlink:href="#m5d59480c0a" x="57.6" y="78.135985" style="stroke: #000000; stroke-width: 0.8"/>
      </g>
     </g>
     <g id="text_12">
      <!-- 3.5 -->
      <g transform="translate(34.696875 81.935204) scale(0.1 -0.1)">
       <use xlink:href="#DejaVuSans-33"/>
       <use xlink:href="#DejaVuSans-2e" x="63.623047"/>
       <use xlink:href="#DejaVuSans-35" x="95.410156"/>
      </g>
     </g>
    </g>
    <g id="ytick_7">
     <g id="line2d_13">
      <g>
       <use xlink:href="#m5d59480c0a" x="57.6" y="53.304118" style="stroke: #000000; stroke-width: 0.8"/>
      </g>
     </g>
     <g id="text_13">
      <!-- 4.0 -->
      <g transform="translate(34.696875 57.103337) scale(0.1 -0.1)">
       <use xlink:href="#DejaVuSans-34"/>
       <use xlink:href="#DejaVuSans-2e" x="63.623047"/>
       <use xlink:href="#DejaVuSans-30" x="95.410156"/>
      </g>
     </g>
    </g>
   </g>
   <g id="line2d_14">
    <path d="M 73.832727 198.663676 
L 74.157707 199.819636 
L 74.482686 197.420996 
L 74.807666 198.011578 
L 75.132645 196.743539 
L 75.457625 197.226964 
L 75.782604 195.066455 
L 76.107584 194.921443 
L 76.432563 195.255555 
L 76.757543 192.987164 
L 77.082523 195.323172 
L 77.407502 191.605495 
L 77.732482 190.842987 
L 78.057461 193.402882 
L 78.382441 191.942404 
L 78.70742 189.679815 
L 79.0324 190.978954 
L 79.357379 191.653014 
L 79.682359 188.286791 
L 80.007338 190.629622 
L 80.657297 188.62196 
L 80.982277 190.093213 
L 81.307256 187.535219 
L 81.632236 186.505192 
L 81.957215 189.347301 
L 82.282195 185.148617 
L 82.607174 185.399917 
L 82.932154 187.262241 
L 83.257133 183.243636 
L 83.582113 183.112981 
L 83.907093 186.536416 
L 84.232072 186.202122 
L 84.557052 185.350555 
L 84.882031 184.163997 
L 85.207011 185.890384 
L 85.53199 182.708237 
L 85.85697 183.875079 
L 86.181949 183.700297 
L 86.506929 182.026184 
L 86.831908 182.504419 
L 87.481867 182.651226 
L 87.806847 180.87345 
L 88.131826 183.837939 
L 88.456806 183.857992 
L 89.431744 179.631871 
L 89.756724 179.568058 
L 90.081704 179.869745 
L 90.406683 180.981464 
L 90.731663 181.536665 
L 91.056642 180.12301 
L 91.381622 180.992809 
L 91.706601 180.077389 
L 92.031581 179.901466 
L 92.68154 182.467122 
L 93.006519 180.589539 
L 93.331499 182.371774 
L 93.656478 183.216714 
L 93.981458 183.66957 
L 94.306437 183.41078 
L 94.631417 183.859996 
L 95.281376 181.456874 
L 95.606355 184.558568 
L 95.931335 183.702727 
L 96.256314 183.407937 
L 96.581294 184.923904 
L 96.906274 184.396095 
L 97.231253 181.669199 
L 97.556233 185.819377 
L 97.881212 185.125695 
L 98.206192 183.935903 
L 98.856151 187.037035 
L 99.18113 184.666083 
L 99.50611 186.367129 
L 99.831089 186.93388 
L 100.156069 188.001186 
L 100.481048 186.655897 
L 100.806028 186.54054 
L 101.131007 184.422253 
L 101.455987 184.969934 
L 101.780966 187.69948 
L 102.105946 185.243141 
L 102.430925 186.728756 
L 102.755905 185.734853 
L 103.080885 189.403958 
L 103.405864 187.830744 
L 103.730844 188.008066 
L 104.055823 189.961044 
L 104.380803 188.975738 
L 104.705782 190.473492 
L 105.030762 188.040646 
L 105.355741 188.669128 
L 105.680721 188.705569 
L 106.0057 188.601313 
L 106.33068 189.731202 
L 106.655659 193.117362 
L 106.980639 190.699495 
L 107.305618 192.898451 
L 107.630598 192.911884 
L 107.955577 189.359632 
L 108.280557 190.196706 
L 108.605536 190.537572 
L 108.930516 193.930647 
L 109.255495 192.9206 
L 109.580475 190.820665 
L 109.905455 192.020122 
L 110.230434 194.19581 
L 110.555414 194.354256 
L 110.880393 191.23632 
L 111.205373 192.017904 
L 111.530352 195.330254 
L 112.180311 193.4652 
L 112.505291 195.427516 
L 112.83027 193.107703 
L 113.15525 194.400375 
L 113.480229 193.048003 
L 113.805209 193.595092 
L 114.130188 192.235343 
L 114.455168 195.507177 
L 114.780147 192.571742 
L 115.105127 191.003338 
L 115.430106 190.463847 
L 115.755086 193.957148 
L 116.080066 190.521324 
L 116.405045 191.998846 
L 116.730025 190.288724 
L 117.055004 190.51169 
L 117.379984 191.190821 
L 118.029943 192.956763 
L 118.354922 191.229936 
L 118.679902 193.755317 
L 119.004881 190.831419 
L 119.329861 190.018585 
L 119.65484 193.130231 
L 119.97982 191.555706 
L 120.304799 188.125154 
L 120.954758 188.656347 
L 121.279738 187.379777 
L 121.604717 188.10916 
L 121.929697 191.13949 
L 122.254676 188.129058 
L 122.579656 187.168745 
L 122.904636 189.452019 
L 123.229615 189.735741 
L 123.554595 189.355008 
L 123.879574 184.715524 
L 124.204554 183.844799 
L 124.529533 186.863805 
L 124.854513 184.416689 
L 125.179492 183.296653 
L 125.829451 185.531935 
L 126.154431 184.049503 
L 126.47941 186.007575 
L 126.80439 181.305813 
L 127.129369 182.511647 
L 127.454349 184.90566 
L 127.779328 183.867767 
L 128.104308 184.104558 
L 128.429287 179.915767 
L 128.754267 183.066931 
L 129.404226 180.923831 
L 129.729206 177.965788 
L 130.054185 177.545354 
L 130.379165 179.962779 
L 130.704144 176.400539 
L 131.029124 178.838224 
L 131.354103 178.447619 
L 131.679083 175.989351 
L 132.329042 175.396123 
L 132.654021 174.640374 
L 132.979001 174.806117 
L 133.30398 175.245549 
L 133.62896 173.944291 
L 133.953939 176.964233 
L 134.278919 175.529286 
L 134.603898 175.553641 
L 134.928878 173.760801 
L 135.253857 173.318423 
L 135.578837 171.839115 
L 135.903817 173.70313 
L 136.228796 173.808748 
L 136.553776 174.863184 
L 136.878755 173.735937 
L 137.203735 174.108002 
L 137.528714 171.105586 
L 137.853694 170.07724 
L 138.503653 173.124629 
L 138.828632 171.816152 
L 139.153612 171.88378 
L 139.478591 169.568733 
L 139.803571 172.90409 
L 140.45353 169.287501 
L 140.778509 169.873792 
L 141.103489 170.834659 
L 141.428468 172.703318 
L 142.078428 171.449235 
L 142.403407 170.000325 
L 142.728387 170.499988 
L 143.053366 171.809301 
L 143.378346 170.911329 
L 143.703325 168.424757 
L 144.028305 170.542446 
L 144.353284 168.509868 
L 144.678264 170.618011 
L 145.003243 170.341057 
L 145.328223 168.796139 
L 145.978182 169.342823 
L 146.303161 168.656771 
L 146.628141 171.734468 
L 146.95312 169.37782 
L 147.2781 172.689631 
L 147.603079 172.245916 
L 147.928059 173.240884 
L 148.253038 173.324479 
L 148.578018 174.660568 
L 149.227977 173.222062 
L 149.552957 175.230271 
L 149.877936 171.227805 
L 150.202916 173.621576 
L 150.852875 175.345952 
L 151.177854 176.04733 
L 151.502834 173.655327 
L 151.827813 174.018445 
L 152.152793 173.816696 
L 152.477772 176.590976 
L 152.802752 174.923438 
L 153.127731 174.488177 
L 153.452711 176.494705 
L 153.77769 176.554418 
L 154.10267 178.577494 
L 154.427649 175.042506 
L 154.752629 176.223406 
L 155.077609 179.19592 
L 155.402588 175.291857 
L 155.727568 177.704125 
L 156.052547 179.206582 
L 156.377527 176.455301 
L 156.702506 177.424057 
L 157.027486 179.443834 
L 157.352465 177.944441 
L 157.677445 179.006631 
L 158.002424 179.232192 
L 158.327404 178.040639 
L 158.652383 178.179087 
L 158.977363 178.044825 
L 159.302342 177.614181 
L 159.627322 181.235065 
L 159.952301 178.021168 
L 160.277281 181.891649 
L 160.60226 181.826656 
L 160.92724 180.414201 
L 161.252219 178.440665 
L 161.577199 181.534692 
L 161.902179 179.218056 
L 162.227158 180.485352 
L 162.552138 178.986764 
L 163.202097 182.097908 
L 163.527076 179.439172 
L 163.852056 181.53314 
L 164.177035 179.070005 
L 164.502015 182.382313 
L 164.826994 181.00176 
L 165.151974 178.879156 
L 165.476953 183.168125 
L 165.801933 182.137476 
L 166.126912 183.300912 
L 166.776871 179.287634 
L 167.101851 178.415226 
L 167.42683 182.555481 
L 167.75181 181.952675 
L 168.07679 179.083145 
L 168.401769 180.71449 
L 169.051728 179.516493 
L 169.376708 180.942834 
L 169.701687 179.436989 
L 170.026667 181.403116 
L 170.676626 175.978198 
L 171.001605 176.066897 
L 171.326585 179.322989 
L 171.651564 179.61364 
L 171.976544 179.320362 
L 172.301523 177.575857 
L 172.626503 174.919191 
L 172.951482 176.109389 
L 173.276462 173.904692 
L 173.601441 174.73543 
L 173.926421 174.219546 
L 174.2514 176.112581 
L 174.57638 176.332825 
L 174.90136 172.484584 
L 175.226339 172.303277 
L 175.551319 170.896278 
L 175.876298 172.317946 
L 176.526257 169.313617 
L 176.851237 168.051095 
L 177.176216 170.1332 
L 177.501196 167.119534 
L 177.826175 166.712297 
L 178.151155 169.757659 
L 178.476134 166.336998 
L 179.126093 167.665641 
L 179.451073 163.99562 
L 179.776052 165.152763 
L 180.101032 162.641455 
L 180.426011 162.387613 
L 181.075971 164.309319 
L 181.72593 159.781545 
L 182.050909 163.327413 
L 182.375889 159.577873 
L 182.700868 160.50712 
L 183.025848 158.865701 
L 183.350827 158.33188 
L 183.675807 156.181134 
L 184.000786 158.040443 
L 184.325766 157.041632 
L 184.650745 155.150888 
L 185.625684 156.983632 
L 185.950663 155.94745 
L 186.275643 155.328154 
L 186.600622 153.303426 
L 186.925602 153.404514 
L 187.250581 150.419497 
L 187.575561 151.194511 
L 187.900541 149.69085 
L 188.22552 152.699731 
L 189.200459 149.654913 
L 189.525438 146.063078 
L 189.850418 148.29786 
L 190.175397 149.079074 
L 190.500377 147.732116 
L 190.825356 145.910029 
L 191.150336 146.193045 
L 191.475315 143.752429 
L 191.800295 146.908464 
L 192.125274 144.674089 
L 192.450254 145.375241 
L 192.775233 143.142828 
L 193.100213 141.906578 
L 193.425192 141.391742 
L 193.750172 144.603436 
L 194.075152 144.395909 
L 194.400131 142.044569 
L 194.725111 140.592682 
L 195.05009 143.388249 
L 195.37507 142.606331 
L 195.700049 140.902995 
L 196.025029 142.757746 
L 196.350008 141.174745 
L 196.674988 141.148271 
L 196.999967 142.251661 
L 197.324947 142.366838 
L 197.649926 139.388978 
L 197.974906 139.338032 
L 198.624865 138.663935 
L 198.949844 139.405892 
L 199.599803 138.996657 
L 200.249762 143.11493 
L 200.574742 141.271884 
L 200.899722 140.611621 
L 201.224701 138.435364 
L 201.549681 142.510118 
L 201.87466 140.451049 
L 202.19964 143.503864 
L 202.524619 139.752511 
L 202.849599 143.279428 
L 203.174578 143.549229 
L 203.499558 142.891181 
L 203.824537 139.866245 
L 204.149517 139.915508 
L 204.474496 143.716082 
L 204.799476 142.314734 
L 205.124455 143.045262 
L 205.449435 141.867897 
L 205.774414 141.209737 
L 206.424373 143.196643 
L 206.749353 141.198591 
L 207.399312 145.044313 
L 207.724292 144.099032 
L 208.049271 144.301166 
L 208.374251 143.247449 
L 208.69923 143.097377 
L 209.02421 144.72138 
L 209.349189 147.2732 
L 209.674169 143.744888 
L 209.999148 146.79873 
L 210.324128 144.718962 
L 210.649107 146.711749 
L 210.974087 144.623465 
L 211.299066 148.251209 
L 211.624046 146.703007 
L 211.949025 147.353795 
L 212.274005 147.289333 
L 212.598984 149.363409 
L 212.923964 145.239228 
L 213.248943 146.423319 
L 213.573923 149.890464 
L 213.898903 148.150588 
L 214.223882 150.743016 
L 214.548862 146.964289 
L 214.873841 148.871303 
L 215.198821 149.865035 
L 215.5238 149.356785 
L 216.173759 147.515381 
L 216.498739 148.876925 
L 216.823718 147.432398 
L 217.148698 148.10481 
L 217.473677 148.514823 
L 217.798657 149.917985 
L 218.123636 147.757742 
L 218.448616 152.214379 
L 218.773595 148.732328 
L 219.098575 151.853861 
L 219.423554 149.788854 
L 219.748534 151.164121 
L 220.073514 151.856561 
L 220.398493 149.24237 
L 220.723473 150.959521 
L 221.048452 150.910304 
L 221.373432 149.298954 
L 222.023391 150.084292 
L 222.67335 147.821795 
L 222.998329 151.546092 
L 223.323309 149.686011 
L 223.648288 150.801773 
L 223.973268 148.691157 
L 224.298247 148.057059 
L 224.623227 148.749929 
L 224.948206 148.954313 
L 225.273186 150.236003 
L 225.598165 148.126747 
L 225.923145 148.181298 
L 226.248124 151.029548 
L 226.573104 148.078558 
L 226.898084 147.664666 
L 227.223063 145.48323 
L 227.548043 148.267546 
L 227.873022 148.461676 
L 228.198002 146.540874 
L 228.522981 146.448625 
L 228.847961 148.519431 
L 229.17294 146.612902 
L 229.49792 146.390663 
L 229.822899 147.029044 
L 230.147879 144.108843 
L 230.472858 143.890976 
L 230.797838 141.970163 
L 231.122817 146.260354 
L 231.447797 145.126317 
L 231.772776 141.516908 
L 232.097756 141.355632 
L 232.422735 141.983307 
L 232.747715 140.030169 
L 233.072695 141.609622 
L 233.397674 140.683378 
L 233.722654 142.685077 
L 234.047633 140.014365 
L 234.372613 141.38241 
L 234.697592 142.071312 
L 235.022572 136.812556 
L 235.347551 136.491359 
L 235.672531 139.441131 
L 235.99751 135.682085 
L 236.32249 138.628036 
L 236.647469 135.32287 
L 236.972449 136.912704 
L 237.297428 134.349485 
L 237.622408 136.055994 
L 237.947387 136.20535 
L 238.272367 136.593156 
L 238.597346 136.00363 
L 238.922326 135.955674 
L 239.247305 132.637283 
L 239.572285 133.614849 
L 239.897265 130.893936 
L 240.222244 132.913547 
L 240.547224 132.655294 
L 240.872203 132.176928 
L 241.197183 129.181723 
L 241.522162 129.394326 
L 241.847142 128.879796 
L 242.172121 131.07461 
L 242.82208 127.858187 
L 243.14706 130.442308 
L 243.472039 127.651328 
L 243.797019 130.990672 
L 244.121998 126.331858 
L 244.446978 126.161146 
L 244.771957 127.109094 
L 245.096937 126.882111 
L 245.421916 129.564936 
L 245.746896 126.791894 
L 246.071876 126.723074 
L 246.396855 128.856819 
L 246.721835 126.050558 
L 247.046814 125.839774 
L 247.696773 127.936743 
L 248.021753 126.850172 
L 248.346732 123.442159 
L 248.996691 126.251724 
L 249.321671 125.574645 
L 249.64665 126.134041 
L 249.97163 125.520594 
L 250.296609 122.802492 
L 250.621589 122.799123 
L 250.946568 123.390415 
L 251.271548 122.636624 
L 251.596527 126.274513 
L 251.921507 123.365258 
L 252.246486 124.370982 
L 252.571466 127.081916 
L 252.896446 124.932339 
L 253.546405 122.592895 
L 253.871384 125.277219 
L 254.196364 124.04465 
L 254.521343 125.333227 
L 254.846323 126.039978 
L 255.171302 127.479578 
L 255.496282 124.590313 
L 255.821261 123.190449 
L 256.146241 125.691311 
L 256.47122 124.280598 
L 256.7962 126.827075 
L 257.121179 123.831893 
L 257.446159 126.030297 
L 257.771138 124.066993 
L 258.096118 125.693104 
L 258.421097 124.973956 
L 258.746077 128.262252 
L 259.071057 125.353844 
L 260.045995 130.135965 
L 260.370975 126.002398 
L 260.695954 129.448131 
L 261.020934 129.586354 
L 261.345913 130.781292 
L 261.670893 127.995669 
L 261.995872 126.973983 
L 262.320852 130.932296 
L 262.645831 127.299936 
L 262.970811 130.529594 
L 263.29579 128.784867 
L 263.62077 132.647409 
L 263.945749 128.832631 
L 264.270729 131.891948 
L 264.920688 128.973309 
L 265.245667 129.465227 
L 265.570647 131.532253 
L 265.895627 130.983063 
L 266.220606 131.880507 
L 266.545586 130.385292 
L 266.870565 131.446965 
L 267.195545 132.065023 
L 267.520524 130.348535 
L 267.845504 131.88079 
L 268.170483 131.505086 
L 268.495463 134.856452 
L 268.820442 132.602586 
L 269.145422 133.8943 
L 269.470401 133.174309 
L 269.795381 133.043148 
L 270.12036 131.781541 
L 270.44534 132.013414 
L 271.095299 135.616394 
L 271.420278 133.524338 
L 272.070238 131.833773 
L 272.395217 133.718898 
L 272.720197 131.451272 
L 273.370156 133.514377 
L 273.695135 131.236292 
L 274.020115 133.715928 
L 274.345094 132.68511 
L 274.670074 133.923122 
L 274.995053 131.33315 
L 275.320033 133.629536 
L 275.645012 130.301948 
L 275.969992 130.63225 
L 276.294971 131.679738 
L 276.619951 131.959184 
L 276.94493 131.943653 
L 277.26991 130.484068 
L 277.594889 130.25451 
L 277.919869 128.476949 
L 278.244848 132.277165 
L 278.569828 131.899922 
L 278.894808 128.818405 
L 279.219787 131.148145 
L 279.544767 128.518795 
L 279.869746 128.8169 
L 280.194726 128.220051 
L 280.519705 130.392895 
L 280.844685 129.845398 
L 281.169664 127.251067 
L 281.494644 126.543508 
L 281.819623 127.539604 
L 282.144603 124.518301 
L 282.469582 127.187803 
L 282.794562 124.170711 
L 283.119541 125.094123 
L 283.444521 125.479579 
L 283.7695 125.223682 
L 284.09448 125.155947 
L 284.419459 122.644628 
L 284.744439 121.187794 
L 285.069419 123.454503 
L 285.394398 119.52781 
L 285.719378 121.919429 
L 286.044357 117.407788 
L 286.369337 117.302888 
L 286.694316 118.822416 
L 287.019296 118.717377 
L 287.344275 117.271407 
L 287.669255 118.236694 
L 287.994234 116.430757 
L 288.319214 113.218894 
L 288.644193 113.383232 
L 288.969173 113.157981 
L 289.294152 112.296945 
L 289.619132 113.557613 
L 289.944111 110.903327 
L 290.269091 113.05126 
L 290.59407 110.862704 
L 290.91905 111.875977 
L 291.244029 109.07529 
L 291.569009 107.75595 
L 291.893989 109.205985 
L 292.218968 109.796942 
L 292.868927 105.966679 
L 293.193907 104.452368 
L 293.518886 104.574142 
L 293.843866 106.730983 
L 294.168845 101.96979 
L 294.493825 105.506633 
L 294.818804 104.018207 
L 295.143784 100.156067 
L 295.468763 102.992485 
L 295.793743 100.382098 
L 296.118722 101.427114 
L 296.443702 100.127032 
L 296.768681 98.245544 
L 297.093661 98.134993 
L 297.41864 100.368781 
L 297.74362 96.108035 
L 298.0686 97.257183 
L 298.393579 95.601814 
L 298.718559 97.651604 
L 299.043538 98.294101 
L 299.368518 94.927675 
L 299.693497 94.555857 
L 300.018477 96.624005 
L 300.343456 96.101228 
L 300.668436 92.499447 
L 300.993415 92.434511 
L 301.318395 93.435857 
L 301.643374 95.398958 
L 301.968354 90.584748 
L 302.293333 94.788896 
L 302.618313 92.490213 
L 302.943292 93.306891 
L 303.268272 91.313907 
L 303.593251 92.171012 
L 303.918231 89.996392 
L 304.24321 88.661141 
L 304.56819 92.366458 
L 304.89317 88.069496 
L 305.218149 89.363521 
L 305.543129 89.022269 
L 305.868108 91.506681 
L 306.193088 90.787493 
L 306.518067 88.880226 
L 306.843047 89.864586 
L 307.168026 88.763229 
L 307.493006 91.522705 
L 307.817985 90.59148 
L 308.142965 90.160604 
L 308.467944 87.568958 
L 308.792924 86.876662 
L 309.117903 90.012239 
L 309.442883 89.490715 
L 309.767862 90.118484 
L 310.092842 91.248652 
L 310.417821 91.423801 
L 310.742801 88.59226 
L 311.067781 91.935136 
L 311.39276 87.141281 
L 311.71774 89.801279 
L 312.042719 88.628252 
L 312.367699 91.565044 
L 312.692678 91.129102 
L 313.017658 89.060482 
L 313.342637 90.432007 
L 313.667617 90.913577 
L 313.992596 90.368743 
L 314.317576 88.89576 
L 314.642555 91.824958 
L 314.967535 91.675996 
L 315.292514 92.24815 
L 315.617494 93.35836 
L 315.942473 92.680927 
L 316.267453 92.985913 
L 316.592432 89.608392 
L 316.917412 92.750732 
L 317.242391 94.286129 
L 317.892351 91.1382 
L 318.21733 95.439295 
L 318.54231 93.77799 
L 318.867289 95.305374 
L 319.192269 95.101118 
L 319.517248 95.290807 
L 319.842228 93.685777 
L 320.492187 92.763847 
L 320.817166 94.105085 
L 321.142146 92.513998 
L 321.467125 95.582195 
L 321.792105 95.391362 
L 322.117084 94.834712 
L 322.442064 97.029865 
L 322.767043 96.798318 
L 323.092023 94.697713 
L 323.417002 94.083001 
L 323.741982 94.736812 
L 324.066962 97.953616 
L 324.716921 95.655767 
L 325.0419 98.966868 
L 325.691859 94.204298 
L 326.016839 96.023722 
L 326.341818 96.284467 
L 326.666798 94.41449 
L 326.991777 97.351451 
L 327.316757 98.480482 
L 327.641736 97.668785 
L 327.966716 97.614668 
L 328.616675 95.676155 
L 328.941654 97.020978 
L 329.266634 95.493582 
L 329.591613 98.54209 
L 329.916593 98.369425 
L 330.241572 97.606918 
L 330.566552 96.250721 
L 330.891532 97.110702 
L 331.216511 96.540394 
L 331.541491 97.837828 
L 331.86647 97.755359 
L 332.19145 97.009641 
L 332.516429 94.999733 
L 332.841409 94.449227 
L 333.166388 94.849698 
L 333.491368 94.140061 
L 333.816347 95.083047 
L 334.141327 93.285528 
L 334.791286 92.792656 
L 335.116265 95.493302 
L 335.441245 94.702646 
L 335.766224 91.551142 
L 336.091204 94.591486 
L 336.741163 94.854828 
L 337.066143 94.383469 
L 337.391122 92.085397 
L 337.716102 93.396045 
L 338.041081 91.163784 
L 338.366061 91.484261 
L 338.69104 89.318512 
L 339.01602 88.389765 
L 339.340999 88.882719 
L 339.665979 90.00519 
L 339.990958 90.436316 
L 340.315938 89.238009 
L 340.640917 85.972002 
L 340.965897 89.75545 
L 341.290876 85.993308 
L 341.615856 84.164372 
L 341.940835 86.933593 
L 342.265815 83.901214 
L 342.590794 84.076901 
L 342.915774 85.467107 
L 343.240753 81.941277 
L 343.565733 82.753947 
L 343.890713 85.201968 
L 344.540672 82.252563 
L 344.865651 82.378995 
L 345.190631 82.871342 
L 345.51561 82.438482 
L 345.84059 82.621184 
L 346.165569 78.244001 
L 346.490549 78.219904 
L 346.815528 80.820183 
L 347.140508 78.026093 
L 347.465487 77.424836 
L 347.790467 78.894153 
L 348.115446 77.324081 
L 348.765405 78.453871 
L 349.090385 78.289028 
L 349.415364 77.072886 
L 349.740344 74.47716 
L 350.065324 76.36615 
L 350.390303 74.82339 
L 350.715283 72.280453 
L 351.040262 75.518652 
L 351.690221 72.919723 
L 352.015201 74.746768 
L 352.34018 71.028748 
L 352.66516 72.153588 
L 352.990139 70.966823 
L 353.315119 70.97893 
L 353.640098 71.375008 
L 353.965078 71.542586 
L 354.290057 72.901214 
L 354.615037 69.147043 
L 354.940016 71.809277 
L 355.264996 69.310378 
L 355.589975 70.199535 
L 355.914955 67.121583 
L 356.239934 71.249058 
L 356.564914 69.802655 
L 356.889894 70.697478 
L 357.214873 69.037877 
L 357.539853 71.073539 
L 357.864832 66.507164 
L 358.189812 66.998793 
L 358.514791 65.880339 
L 358.839771 66.606152 
L 359.16475 69.076134 
L 359.48973 68.722542 
L 359.814709 66.141406 
L 360.139689 69.924923 
L 360.464668 67.209017 
L 360.789648 68.098656 
L 361.114627 68.635474 
L 361.439607 66.419913 
L 361.764586 68.929594 
L 362.414545 67.27685 
L 362.739525 68.405563 
L 363.064505 68.154771 
L 363.389484 70.548734 
L 363.714464 67.928051 
L 364.039443 70.631667 
L 364.364423 67.225822 
L 364.689402 70.419551 
L 365.014382 70.217695 
L 365.339361 70.203155 
L 365.664341 68.415273 
L 365.98932 67.867859 
L 366.3143 68.464444 
L 366.639279 69.709124 
L 366.964259 69.514891 
L 367.289238 69.960267 
L 367.614218 69.107767 
L 367.939197 70.149778 
L 368.264177 67.947775 
L 368.589156 71.356187 
L 368.914136 70.678243 
L 369.239115 72.065225 
L 369.564095 70.076326 
L 369.889075 71.835558 
L 370.214054 70.436513 
L 370.539034 73.408571 
L 370.864013 73.329911 
L 371.513972 71.335896 
L 371.838952 74.582038 
L 372.163931 72.690629 
L 372.488911 73.306206 
L 372.81389 71.836206 
L 373.13887 74.583971 
L 373.463849 73.056203 
L 373.788829 72.466569 
L 374.113808 74.418714 
L 374.438788 72.853362 
L 374.763767 74.380075 
L 375.088747 71.987172 
L 375.413726 73.61409 
L 375.738706 73.277101 
L 376.063686 75.916682 
L 376.388665 76.150693 
L 376.713645 71.939222 
L 377.038624 75.395769 
L 377.363604 73.718366 
L 377.688583 72.889737 
L 378.013563 76.866403 
L 378.338542 73.264369 
L 378.663522 77.011922 
L 378.988501 74.409363 
L 379.313481 73.35335 
L 379.63846 75.708831 
L 379.96344 76.234029 
L 380.288419 75.141431 
L 380.613399 75.227188 
L 381.263358 72.077407 
L 381.588337 71.9449 
L 381.913317 74.408704 
L 382.238296 73.545224 
L 382.563276 75.096892 
L 382.888256 72.807432 
L 383.213235 75.899953 
L 383.538215 71.974153 
L 383.863194 72.155628 
L 384.188174 73.076488 
L 384.838133 71.980733 
L 385.163112 72.945921 
L 385.488092 72.370058 
L 385.813071 72.173 
L 386.138051 69.248952 
L 386.46303 71.328874 
L 386.78801 71.003048 
L 387.112989 68.912203 
L 387.437969 72.232641 
L 387.762948 69.719577 
L 388.087928 70.903215 
L 388.412907 69.964459 
L 389.387846 66.030949 
L 389.712826 66.493603 
L 390.037805 65.682404 
L 390.362785 63.652532 
L 390.687764 66.748536 
L 391.337723 62.490108 
L 391.662703 64.979356 
L 391.987682 61.730138 
L 392.312662 61.786327 
L 392.637641 62.039094 
L 392.962621 63.157021 
L 393.2876 59.239669 
L 393.61258 58.523753 
L 393.937559 59.671948 
L 394.262539 61.484099 
L 394.587518 57.937148 
L 395.237477 55.497862 
L 395.562457 56.933816 
L 395.887437 54.389925 
L 396.212416 56.303367 
L 396.537396 53.100249 
L 396.862375 53.109939 
L 397.187355 54.0407 
L 397.512334 54.170654 
L 397.837314 51.979955 
L 398.162293 49.012392 
L 398.487273 52.36762 
L 398.487273 52.36762 
" clip-path="url(#p2f350bcdce)" style="fill: none; stroke: #1f77b4; stroke-width: 1.5; stroke-linecap: square"/>
   </g>
   <g id="line2d_15">
    <path d="M 259.071057 125.35384 
L 260.045995 130.135919 
L 260.370975 126.002426 
L 260.695954 129.448074 
L 261.020934 129.586282 
L 261.345913 130.781286 
L 261.670893 127.995627 
L 261.995872 126.973963 
L 262.320852 130.93225 
L 262.645831 127.299918 
L 262.970811 130.52958 
L 263.29579 128.784828 
L 263.62077 132.64735 
L 263.945749 128.832639 
L 264.270729 131.891882 
L 264.920688 128.973277 
L 265.245667 129.465227 
L 265.570647 131.532186 
L 265.895627 130.98305 
L 266.220606 131.880478 
L 266.545586 130.385255 
L 266.870565 131.44696 
L 267.195545 132.064973 
L 267.520524 130.348553 
L 267.845504 131.880701 
L 268.170483 131.505094 
L 268.495463 134.856375 
L 268.820442 132.602595 
L 269.145422 133.894259 
L 269.470401 133.174313 
L 269.795381 133.043092 
L 270.12036 131.781503 
L 270.44534 132.013383 
L 271.095299 135.616359 
L 271.420278 133.52429 
L 272.070238 131.833699 
L 272.395217 133.718904 
L 272.720197 131.451206 
L 273.370156 133.514308 
L 273.695135 131.236266 
L 274.020115 133.715911 
L 274.345094 132.685081 
L 274.670074 133.9231 
L 274.995053 131.333124 
L 275.320033 133.62951 
L 275.645012 130.301901 
L 275.969992 130.632219 
L 276.294971 131.67972 
L 276.619951 131.95917 
L 276.94493 131.943613 
L 277.26991 130.484019 
L 277.594889 130.254469 
L 277.919869 128.476941 
L 278.244848 132.277119 
L 278.569828 131.899917 
L 278.894808 128.818375 
L 279.219787 131.148144 
L 279.544767 128.518708 
L 279.869746 128.816887 
L 280.194726 128.220023 
L 280.519705 130.392896 
L 280.844685 129.845357 
L 281.169664 127.251021 
L 281.494644 126.543491 
L 281.819623 127.539539 
L 282.144603 124.518313 
L 282.469582 127.187775 
L 282.794562 124.170689 
L 283.119541 125.094034 
L 283.444521 125.479573 
L 283.7695 125.223654 
L 284.09448 125.155916 
L 284.419459 122.644591 
L 284.744439 121.187782 
L 285.069419 123.454464 
L 285.394398 119.527771 
L 285.719378 121.919409 
L 286.044357 117.407734 
L 286.369337 117.302877 
L 286.694316 118.822371 
L 287.019296 118.717337 
L 287.344275 117.271384 
L 287.669255 118.236668 
L 287.994234 116.430728 
L 288.319214 113.218831 
L 288.644193 113.383222 
L 288.969173 113.157944 
L 289.294152 112.296934 
L 289.619132 113.55757 
L 289.944111 110.903266 
L 290.269091 113.05124 
L 290.59407 110.862656 
L 290.91905 111.875959 
L 291.244029 109.075281 
L 291.569009 107.755878 
L 291.893989 109.205985 
L 292.218968 109.796866 
L 292.868927 105.966634 
L 293.193907 104.452326 
L 293.518886 104.574096 
L 293.843866 106.730964 
L 294.168845 101.969736 
L 294.493825 105.506611 
L 294.818804 104.018176 
L 295.143784 100.156028 
L 295.468763 102.992441 
L 295.793743 100.382041 
L 296.118722 101.427133 
L 296.443702 100.126976 
L 296.768681 98.245472 
L 297.093661 98.134935 
L 297.41864 100.368755 
L 297.74362 96.108045 
L 298.0686 97.257125 
L 298.393579 95.601799 
L 298.718559 97.651526 
L 299.043538 98.294089 
L 299.368518 94.927576 
L 299.693497 94.555881 
L 300.018477 96.623966 
L 300.343456 96.101173 
L 300.668436 92.499434 
L 300.993415 92.434449 
L 301.318395 93.435803 
L 301.643374 95.398951 
L 301.968354 90.58471 
L 302.293333 94.788844 
L 302.618313 92.490196 
L 302.943292 93.306822 
L 303.268272 91.313902 
L 303.593251 92.170932 
L 303.918231 89.996358 
L 304.24321 88.661129 
L 304.56819 92.366399 
L 304.89317 88.069442 
L 305.218149 89.363519 
L 305.543129 89.022211 
L 305.868108 91.506598 
L 306.193088 90.787504 
L 306.518067 88.880151 
L 306.843047 89.864614 
L 307.168026 88.76311 
L 307.493006 91.522721 
L 307.817985 90.591404 
L 308.142965 90.160573 
L 308.467944 87.568918 
L 308.792924 86.876615 
L 309.117903 90.012201 
L 309.442883 89.490633 
L 309.767862 90.118523 
L 310.092842 91.248576 
L 310.417821 91.423773 
L 310.742801 88.592179 
L 311.067781 91.935123 
L 311.39276 87.141245 
L 311.71774 89.801262 
L 312.042719 88.628204 
L 312.367699 91.564946 
L 312.692678 91.129089 
L 313.017658 89.06045 
L 313.342637 90.432001 
L 313.667617 90.913484 
L 313.992596 90.368762 
L 314.317576 88.895695 
L 314.642555 91.824916 
L 314.967535 91.675928 
L 315.292514 92.248123 
L 315.617494 93.358352 
L 315.942473 92.680839 
L 316.267453 92.985922 
L 316.592432 89.608323 
L 316.917412 92.750698 
L 317.242391 94.286082 
L 317.892351 91.138193 
L 318.21733 95.439212 
L 318.54231 93.777958 
L 318.867289 95.305352 
L 319.192269 95.101074 
L 319.517248 95.290736 
L 319.842228 93.685779 
L 320.492187 92.763843 
L 320.817166 94.105036 
L 321.142146 92.51398 
L 321.467125 95.582148 
L 321.792105 95.391296 
L 322.117084 94.834671 
L 322.442064 97.029859 
L 322.767043 96.798273 
L 323.092023 94.697669 
L 323.417002 94.082986 
L 323.741982 94.73675 
L 324.066962 97.953591 
L 324.716921 95.655722 
L 325.0419 98.966823 
L 325.691859 94.204283 
L 326.016839 96.023659 
L 326.341818 96.284405 
L 326.666798 94.414494 
L 326.991777 97.351423 
L 327.316757 98.480386 
L 327.641736 97.668781 
L 327.966716 97.614623 
L 328.616675 95.676109 
L 328.941654 97.020954 
L 329.266634 95.49356 
L 329.591613 98.542054 
L 329.916593 98.369356 
L 330.241572 97.606939 
L 330.566552 96.250659 
L 330.891532 97.110606 
L 331.216511 96.540399 
L 331.541491 97.837801 
L 331.86647 97.755303 
L 332.19145 97.009591 
L 332.516429 94.999704 
L 332.841409 94.449189 
L 333.166388 94.849667 
L 333.491368 94.140029 
L 333.816347 95.083022 
L 334.141327 93.285479 
L 334.791286 92.792632 
L 335.116265 95.49329 
L 335.441245 94.702623 
L 335.766224 91.551091 
L 336.091204 94.591457 
L 336.741163 94.854816 
L 337.066143 94.383427 
L 337.391122 92.085358 
L 337.716102 93.396018 
L 338.041081 91.163722 
L 338.366061 91.484247 
L 338.69104 89.318447 
L 339.01602 88.389747 
L 339.340999 88.882674 
L 339.665979 90.005131 
L 339.990958 90.436275 
L 340.315938 89.237975 
L 340.640917 85.971993 
L 340.965897 89.755365 
L 341.290876 85.993268 
L 341.615856 84.164371 
L 341.940835 86.933558 
L 342.265815 83.901161 
L 342.590794 84.076879 
L 342.915774 85.46703 
L 343.240753 81.941249 
L 343.565733 82.753911 
L 343.890713 85.201913 
L 344.540672 82.252521 
L 344.865651 82.378935 
L 345.190631 82.871307 
L 345.51561 82.438456 
L 345.84059 82.621116 
L 346.165569 78.243987 
L 346.490549 78.219869 
L 346.815528 80.820094 
L 347.140508 78.026081 
L 347.465487 77.424795 
L 347.790467 78.894107 
L 348.115446 77.324076 
L 348.765405 78.453798 
L 349.090385 78.289036 
L 349.415364 77.072839 
L 349.740344 74.477108 
L 350.065324 76.36608 
L 350.390303 74.823348 
L 350.715283 72.280447 
L 351.040262 75.518637 
L 351.690221 72.91968 
L 352.015201 74.746737 
L 352.34018 71.028668 
L 352.66516 72.153566 
L 352.990139 70.966793 
L 353.315119 70.978877 
L 353.640098 71.374949 
L 353.965078 71.542538 
L 354.290057 72.901184 
L 354.615037 69.147003 
L 354.940016 71.80922 
L 355.264996 69.310353 
L 355.589975 70.199516 
L 355.914955 67.121514 
L 356.239934 71.249022 
L 356.564914 69.802627 
L 356.889894 70.697402 
L 357.214873 69.037865 
L 357.539853 71.073457 
L 357.864832 66.507146 
L 358.189812 66.998736 
L 358.514791 65.880288 
L 358.839771 66.6061 
L 359.16475 69.076112 
L 359.48973 68.722511 
L 359.814709 66.141328 
L 360.139689 69.924895 
L 360.464668 67.208969 
L 360.789648 68.098621 
L 361.114627 68.63541 
L 361.439607 66.419889 
L 361.764586 68.929535 
L 362.414545 67.276804 
L 362.739525 68.405505 
L 363.064505 68.154741 
L 363.389484 70.548705 
L 363.714464 67.927998 
L 364.039443 70.631584 
L 364.364423 67.225814 
L 364.689402 70.419501 
L 365.014382 70.217668 
L 365.339361 70.203106 
L 365.664341 68.415232 
L 365.98932 67.867776 
L 366.3143 68.464443 
L 366.639279 69.709018 
L 366.964259 69.514924 
L 367.289238 69.960202 
L 367.614218 69.107704 
L 367.939197 70.149753 
L 368.264177 67.947721 
L 368.589156 71.356155 
L 368.914136 70.678181 
L 369.239115 72.065217 
L 369.564095 70.076262 
L 369.889075 71.83549 
L 370.214054 70.436481 
L 370.539034 73.408539 
L 370.864013 73.329887 
L 371.513972 71.335862 
L 371.838952 74.581971 
L 372.163931 72.690608 
L 372.488911 73.306136 
L 372.81389 71.836193 
L 373.13887 74.5839 
L 373.463849 73.056171 
L 373.788829 72.466499 
L 374.113808 74.418676 
L 374.438788 72.853325 
L 374.763767 74.380062 
L 375.088747 71.987104 
L 375.413726 73.614043 
L 375.738706 73.277066 
L 376.063686 75.916652 
L 376.388665 76.150632 
L 376.713645 71.939178 
L 377.038624 75.39574 
L 377.363604 73.718298 
L 377.688583 72.88971 
L 378.013563 76.866355 
L 378.338542 73.264325 
L 378.663522 77.011913 
L 378.988501 74.409242 
L 379.313481 73.353359 
L 379.63846 75.70876 
L 379.96344 76.234006 
L 380.288419 75.141408 
L 380.613399 75.227134 
L 381.263358 72.077396 
L 381.588337 71.944859 
L 381.913317 74.408647 
L 382.238296 73.545196 
L 382.563276 75.09686 
L 382.888256 72.807355 
L 383.213235 75.899931 
L 383.538215 71.974099 
L 383.863194 72.155593 
L 384.188174 73.076479 
L 384.838133 71.980711 
L 385.163112 72.945847 
L 385.488092 72.369986 
L 385.813071 72.172992 
L 386.138051 69.248921 
L 386.46303 71.328816 
L 386.78801 71.002998 
L 387.112989 68.912171 
L 387.437969 72.232584 
L 387.762948 69.719513 
L 388.087928 70.903183 
L 388.412907 69.964442 
L 389.387846 66.030871 
L 389.712826 66.493577 
L 390.037805 65.682352 
L 390.362785 63.652509 
L 390.687764 66.748497 
L 391.337723 62.490084 
L 391.662703 64.979283 
L 391.987682 61.730093 
L 392.312662 61.786273 
L 392.637641 62.039076 
L 392.962621 63.156962 
L 393.2876 59.239629 
L 393.61258 58.523715 
L 393.937559 59.67189 
L 394.262539 61.484039 
L 394.587518 57.937133 
L 395.237477 55.497815 
L 395.562457 56.933755 
L 395.887437 54.389888 
L 396.212416 56.303337 
L 396.537396 53.10016 
L 396.862375 53.109921 
L 397.187355 54.040629 
L 397.512334 54.17059 
L 397.837314 51.979939 
L 398.162293 49.012364 
L 398.487273 52.367552 
L 398.487273 52.367552 
" clip-path="url(#p2f350bcdce)" style="fill: none; stroke: #ff7f0e; stroke-width: 1.5; stroke-linecap: square"/>
   </g>
   <g id="line2d_16">
    <path d="M 259.071057 207.36 
L 259.071057 41.472 
" clip-path="url(#p2f350bcdce)" style="fill: none; stroke: #ff0000; stroke-width: 1.5; stroke-linecap: square"/>
   </g>
   <g id="patch_3">
    <path d="M 57.6 207.36 
L 57.6 41.472 
" style="fill: none; stroke: #000000; stroke-width: 0.8; stroke-linejoin: miter; stroke-linecap: square"/>
   </g>
   <g id="patch_4">
    <path d="M 414.72 207.36 
L 414.72 41.472 
" style="fill: none; stroke: #000000; stroke-width: 0.8; stroke-linejoin: miter; stroke-linecap: square"/>
   </g>
   <g id="patch_5">
    <path d="M 57.6 207.36 
L 414.72 207.36 
" style="fill: none; stroke: #000000; stroke-width: 0.8; stroke-linejoin: miter; stroke-linecap: square"/>
   </g>
   <g id="patch_6">
    <path d="M 57.6 41.472 
L 414.72 41.472 
" style="fill: none; stroke: #000000; stroke-width: 0.8; stroke-linejoin: miter; stroke-linecap: square"/>
   </g>
  </g>
  <g id="axes_2">
   <g id="patch_7">
    <path d="M 115.2 291.168 
L 414.72 291.168 
L 414.72 285.984 
L 115.2 285.984 
z
" clip-path="url(#p323ce8e54a)" style="fill: #d3d3d3"/>
   </g>
   <g id="patch_8">
    <path d="M 115.2 291.168 
L 243.9936 291.168 
L 243.9936 285.984 
L 115.2 285.984 
z
" clip-path="url(#p323ce8e54a)" style="fill: #1f77b4"/>
   </g>
   <g id="line2d_17">
    <path d="M 243.9936 293.76 
L 243.9936 283.392 
" clip-path="url(#pea50554339)" style="fill: none; stroke: #ff0000; stroke-linecap: square"/>
   </g>
   <g id="line2d_18">
    <defs>
     <path id="m7941fd6412" d="M 0 5 
C 1.326016 5 2.597899 4.473168 3.535534 3.535534 
C 4.473168 2.597899 5 1.326016 5 0 
C 5 -1.326016 4.473168 -2.597899 3.535534 -3.535534 
C 2.597899 -4.473168 1.326016 -5 0 -5 
C -1.326016 -5 -2.597899 -4.473168 -3.535534 -3.535534 
C -4.473168 -2.597899 -5 -1.326016 -5 0 
C -5 1.326016 -4.473168 2.597899 -3.535534 3.535534 
C -2.597899 4.473168 -1.326016 5 0 5 
z
" style="stroke: #bfbfbf"/>
    </defs>
    <g>
     <use xlink:href="#m7941fd6412" x="243.9936" y="288.576" style="fill: #ffffff; stroke: #bfbfbf"/>
    </g>
   </g>
   <g id="text_14">
    <!-- P -->
    <g transform="translate(103.179913 291.335375) scale(0.1 -0.1)">
     <defs>
      <path id="DejaVuSans-50" d="M 1259 4147 
L 1259 2394 
L 2053 2394 
Q 2494 2394 2734 2622 
Q 2975 2850 2975 3272 
Q 2975 3691 2734 3919 
Q 2494 4147 2053 4147 
L 1259 4147 
z
M 628 4666 
L 2053 4666 
Q 2838 4666 3239 4311 
Q 3641 3956 3641 3272 
Q 3641 2581 3239 2228 
Q 2838 1875 2053 1875 
L 1259 1875 
L 1259 0 
L 628 0 
L 628 4666 
z
" transform="scale(0.015625)"/>
     </defs>
     <use xlink:href="#DejaVuSans-50"/>
    </g>
   </g>
   <g id="text_15">
    <!-- $\mathdefault{430}$ -->
    <g transform="translate(420.7104 291.335375) scale(0.1 -0.1)">
     <use xlink:href="#DejaVuSans-34" transform="translate(0 0.78125)"/>
     <use xlink:href="#DejaVuSans-33" transform="translate(63.623047 0.78125)"/>
     <use xlink:href="#DejaVuSans-30" transform="translate(127.246094 0.78125)"/>
    </g>
   </g>
  </g>
  <g id="axes_3">
   <g id="patch_9">
    <path d="M 115.2 308.448 
L 414.72 308.448 
L 414.72 303.264 
L 115.2 303.264 
z
" clip-path="url(#pb5dc613728)" style="fill: #d3d3d3"/>
   </g>
   <g id="patch_10">
    <path d="M 115.2 308.448 
L 243.9936 308.448 
L 243.9936 303.264 
L 115.2 303.264 
z
" clip-path="url(#pb5dc613728)" style="fill: #1f77b4"/>
   </g>
   <g id="line2d_19">
    <path d="M 243.9936 311.04 
L 243.9936 300.672 
" clip-path="url(#p0450551e8e)" style="fill: none; stroke: #ff0000; stroke-linecap: square"/>
   </g>
   <g id="line2d_20">
    <g>
     <use xlink:href="#m7941fd6412" x="243.9936" y="305.856" style="fill: #ffffff; stroke: #bfbfbf"/>
    </g>
   </g>
   <g id="text_16">
    <!-- M -->
    <g transform="translate(100.581475 308.615375) scale(0.1 -0.1)">
     <defs>
      <path id="DejaVuSans-4d" d="M 628 4666 
L 1569 4666 
L 2759 1491 
L 3956 4666 
L 4897 4666 
L 4897 0 
L 4281 0 
L 4281 4097 
L 3078 897 
L 2444 897 
L 1241 4097 
L 1241 0 
L 628 0 
L 628 4666 
z
" transform="scale(0.015625)"/>
     </defs>
     <use xlink:href="#DejaVuSans-4d"/>
    </g>
   </g>
   <g id="text_17">
    <!-- $\mathdefault{430}$ -->
    <g transform="translate(420.7104 308.615375) scale(0.1 -0.1)">
     <use xlink:href="#DejaVuSans-34" transform="translate(0 0.78125)"/>
     <use xlink:href="#DejaVuSans-33" transform="translate(63.623047 0.78125)"/>
     <use xlink:href="#DejaVuSans-30" transform="translate(127.246094 0.78125)"/>
    </g>
   </g>
  </g>
  <g id="legend_1">
   <g id="patch_11">
    <path d="M 247.104688 52.034375 
L 453.8 52.034375 
Q 455.8 52.034375 455.8 50.034375 
L 455.8 7 
Q 455.8 5 453.8 5 
L 247.104688 5 
Q 245.104688 5 245.104688 7 
L 245.104688 50.034375 
Q 245.104688 52.034375 247.104688 52.034375 
z
" style="fill: #ffffff; opacity: 0.8; stroke: #cccccc; stroke-linejoin: miter"/>
   </g>
   <g id="line2d_21">
    <path d="M 249.104688 13.098437 
L 259.104688 13.098437 
L 269.104688 13.098437 
" style="fill: none; stroke: #1f77b4; stroke-width: 1.5; stroke-linecap: square"/>
   </g>
   <g id="text_18">
    <!-- Serie timp originala -->
    <g transform="translate(277.104688 16.598437) scale(0.1 -0.1)">
     <defs>
      <path id="DejaVuSans-53" d="M 3425 4513 
L 3425 3897 
Q 3066 4069 2747 4153 
Q 2428 4238 2131 4238 
Q 1616 4238 1336 4038 
Q 1056 3838 1056 3469 
Q 1056 3159 1242 3001 
Q 1428 2844 1947 2747 
L 2328 2669 
Q 3034 2534 3370 2195 
Q 3706 1856 3706 1288 
Q 3706 609 3251 259 
Q 2797 -91 1919 -91 
Q 1588 -91 1214 -16 
Q 841 59 441 206 
L 441 856 
Q 825 641 1194 531 
Q 1563 422 1919 422 
Q 2459 422 2753 634 
Q 3047 847 3047 1241 
Q 3047 1584 2836 1778 
Q 2625 1972 2144 2069 
L 1759 2144 
Q 1053 2284 737 2584 
Q 422 2884 422 3419 
Q 422 4038 858 4394 
Q 1294 4750 2059 4750 
Q 2388 4750 2728 4690 
Q 3069 4631 3425 4513 
z
" transform="scale(0.015625)"/>
      <path id="DejaVuSans-65" d="M 3597 1894 
L 3597 1613 
L 953 1613 
Q 991 1019 1311 708 
Q 1631 397 2203 397 
Q 2534 397 2845 478 
Q 3156 559 3463 722 
L 3463 178 
Q 3153 47 2828 -22 
Q 2503 -91 2169 -91 
Q 1331 -91 842 396 
Q 353 884 353 1716 
Q 353 2575 817 3079 
Q 1281 3584 2069 3584 
Q 2775 3584 3186 3129 
Q 3597 2675 3597 1894 
z
M 3022 2063 
Q 3016 2534 2758 2815 
Q 2500 3097 2075 3097 
Q 1594 3097 1305 2825 
Q 1016 2553 972 2059 
L 3022 2063 
z
" transform="scale(0.015625)"/>
      <path id="DejaVuSans-72" d="M 2631 2963 
Q 2534 3019 2420 3045 
Q 2306 3072 2169 3072 
Q 1681 3072 1420 2755 
Q 1159 2438 1159 1844 
L 1159 0 
L 581 0 
L 581 3500 
L 1159 3500 
L 1159 2956 
Q 1341 3275 1631 3429 
Q 1922 3584 2338 3584 
Q 2397 3584 2469 3576 
Q 2541 3569 2628 3553 
L 2631 2963 
z
" transform="scale(0.015625)"/>
      <path id="DejaVuSans-69" d="M 603 3500 
L 1178 3500 
L 1178 0 
L 603 0 
L 603 3500 
z
M 603 4863 
L 1178 4863 
L 1178 4134 
L 603 4134 
L 603 4863 
z
" transform="scale(0.015625)"/>
      <path id="DejaVuSans-20" transform="scale(0.015625)"/>
      <path id="DejaVuSans-74" d="M 1172 4494 
L 1172 3500 
L 2356 3500 
L 2356 3053 
L 1172 3053 
L 1172 1153 
Q 1172 725 1289 603 
Q 1406 481 1766 481 
L 2356 481 
L 2356 0 
L 1766 0 
Q 1100 0 847 248 
Q 594 497 594 1153 
L 594 3053 
L 172 3053 
L 172 3500 
L 594 3500 
L 594 4494 
L 1172 4494 
z
" transform="scale(0.015625)"/>
      <path id="DejaVuSans-6d" d="M 3328 2828 
Q 3544 3216 3844 3400 
Q 4144 3584 4550 3584 
Q 5097 3584 5394 3201 
Q 5691 2819 5691 2113 
L 5691 0 
L 5113 0 
L 5113 2094 
Q 5113 2597 4934 2840 
Q 4756 3084 4391 3084 
Q 3944 3084 3684 2787 
Q 3425 2491 3425 1978 
L 3425 0 
L 2847 0 
L 2847 2094 
Q 2847 2600 2669 2842 
Q 2491 3084 2119 3084 
Q 1678 3084 1418 2786 
Q 1159 2488 1159 1978 
L 1159 0 
L 581 0 
L 581 3500 
L 1159 3500 
L 1159 2956 
Q 1356 3278 1631 3431 
Q 1906 3584 2284 3584 
Q 2666 3584 2933 3390 
Q 3200 3197 3328 2828 
z
" transform="scale(0.015625)"/>
      <path id="DejaVuSans-70" d="M 1159 525 
L 1159 -1331 
L 581 -1331 
L 581 3500 
L 1159 3500 
L 1159 2969 
Q 1341 3281 1617 3432 
Q 1894 3584 2278 3584 
Q 2916 3584 3314 3078 
Q 3713 2572 3713 1747 
Q 3713 922 3314 415 
Q 2916 -91 2278 -91 
Q 1894 -91 1617 61 
Q 1341 213 1159 525 
z
M 3116 1747 
Q 3116 2381 2855 2742 
Q 2594 3103 2138 3103 
Q 1681 3103 1420 2742 
Q 1159 2381 1159 1747 
Q 1159 1113 1420 752 
Q 1681 391 2138 391 
Q 2594 391 2855 752 
Q 3116 1113 3116 1747 
z
" transform="scale(0.015625)"/>
      <path id="DejaVuSans-6f" d="M 1959 3097 
Q 1497 3097 1228 2736 
Q 959 2375 959 1747 
Q 959 1119 1226 758 
Q 1494 397 1959 397 
Q 2419 397 2687 759 
Q 2956 1122 2956 1747 
Q 2956 2369 2687 2733 
Q 2419 3097 1959 3097 
z
M 1959 3584 
Q 2709 3584 3137 3096 
Q 3566 2609 3566 1747 
Q 3566 888 3137 398 
Q 2709 -91 1959 -91 
Q 1206 -91 779 398 
Q 353 888 353 1747 
Q 353 2609 779 3096 
Q 1206 3584 1959 3584 
z
" transform="scale(0.015625)"/>
      <path id="DejaVuSans-67" d="M 2906 1791 
Q 2906 2416 2648 2759 
Q 2391 3103 1925 3103 
Q 1463 3103 1205 2759 
Q 947 2416 947 1791 
Q 947 1169 1205 825 
Q 1463 481 1925 481 
Q 2391 481 2648 825 
Q 2906 1169 2906 1791 
z
M 3481 434 
Q 3481 -459 3084 -895 
Q 2688 -1331 1869 -1331 
Q 1566 -1331 1297 -1286 
Q 1028 -1241 775 -1147 
L 775 -588 
Q 1028 -725 1275 -790 
Q 1522 -856 1778 -856 
Q 2344 -856 2625 -561 
Q 2906 -266 2906 331 
L 2906 616 
Q 2728 306 2450 153 
Q 2172 0 1784 0 
Q 1141 0 747 490 
Q 353 981 353 1791 
Q 353 2603 747 3093 
Q 1141 3584 1784 3584 
Q 2172 3584 2450 3431 
Q 2728 3278 2906 2969 
L 2906 3500 
L 3481 3500 
L 3481 434 
z
" transform="scale(0.015625)"/>
      <path id="DejaVuSans-6e" d="M 3513 2113 
L 3513 0 
L 2938 0 
L 2938 2094 
Q 2938 2591 2744 2837 
Q 2550 3084 2163 3084 
Q 1697 3084 1428 2787 
Q 1159 2491 1159 1978 
L 1159 0 
L 581 0 
L 581 3500 
L 1159 3500 
L 1159 2956 
Q 1366 3272 1645 3428 
Q 1925 3584 2291 3584 
Q 2894 3584 3203 3211 
Q 3513 2838 3513 2113 
z
" transform="scale(0.015625)"/>
      <path id="DejaVuSans-61" d="M 2194 1759 
Q 1497 1759 1228 1600 
Q 959 1441 959 1056 
Q 959 750 1161 570 
Q 1363 391 1709 391 
Q 2188 391 2477 730 
Q 2766 1069 2766 1631 
L 2766 1759 
L 2194 1759 
z
M 3341 1997 
L 3341 0 
L 2766 0 
L 2766 531 
Q 2569 213 2275 61 
Q 1981 -91 1556 -91 
Q 1019 -91 701 211 
Q 384 513 384 1019 
Q 384 1609 779 1909 
Q 1175 2209 1959 2209 
L 2766 2209 
L 2766 2266 
Q 2766 2663 2505 2880 
Q 2244 3097 1772 3097 
Q 1472 3097 1187 3025 
Q 903 2953 641 2809 
L 641 3341 
Q 956 3463 1253 3523 
Q 1550 3584 1831 3584 
Q 2591 3584 2966 3190 
Q 3341 2797 3341 1997 
z
" transform="scale(0.015625)"/>
      <path id="DejaVuSans-6c" d="M 603 4863 
L 1178 4863 
L 1178 0 
L 603 0 
L 603 4863 
z
" transform="scale(0.015625)"/>
     </defs>
     <use xlink:href="#DejaVuSans-53"/>
     <use xlink:href="#DejaVuSans-65" x="63.476562"/>
     <use xlink:href="#DejaVuSans-72" x="125"/>
     <use xlink:href="#DejaVuSans-69" x="166.113281"/>
     <use xlink:href="#DejaVuSans-65" x="193.896484"/>
     <use xlink:href="#DejaVuSans-20" x="255.419922"/>
     <use xlink:href="#DejaVuSans-74" x="287.207031"/>
     <use xlink:href="#DejaVuSans-69" x="326.416016"/>
     <use xlink:href="#DejaVuSans-6d" x="354.199219"/>
     <use xlink:href="#DejaVuSans-70" x="451.611328"/>
     <use xlink:href="#DejaVuSans-20" x="515.087891"/>
     <use xlink:href="#DejaVuSans-6f" x="546.875"/>
     <use xlink:href="#DejaVuSans-72" x="608.056641"/>
     <use xlink:href="#DejaVuSans-69" x="649.169922"/>
     <use xlink:href="#DejaVuSans-67" x="676.953125"/>
     <use xlink:href="#DejaVuSans-69" x="740.429688"/>
     <use xlink:href="#DejaVuSans-6e" x="768.212891"/>
     <use xlink:href="#DejaVuSans-61" x="831.591797"/>
     <use xlink:href="#DejaVuSans-6c" x="892.871094"/>
     <use xlink:href="#DejaVuSans-61" x="920.654297"/>
    </g>
   </g>
   <g id="line2d_22">
    <path d="M 249.104688 27.776563 
L 259.104688 27.776563 
L 269.104688 27.776563 
" style="fill: none; stroke: #ff7f0e; stroke-width: 1.5; stroke-linecap: square"/>
   </g>
   <g id="text_19">
    <!-- Valori prezise -->
    <g transform="translate(277.104688 31.276563) scale(0.1 -0.1)">
     <defs>
      <path id="DejaVuSans-56" d="M 1831 0 
L 50 4666 
L 709 4666 
L 2188 738 
L 3669 4666 
L 4325 4666 
L 2547 0 
L 1831 0 
z
" transform="scale(0.015625)"/>
      <path id="DejaVuSans-7a" d="M 353 3500 
L 3084 3500 
L 3084 2975 
L 922 459 
L 3084 459 
L 3084 0 
L 275 0 
L 275 525 
L 2438 3041 
L 353 3041 
L 353 3500 
z
" transform="scale(0.015625)"/>
      <path id="DejaVuSans-73" d="M 2834 3397 
L 2834 2853 
Q 2591 2978 2328 3040 
Q 2066 3103 1784 3103 
Q 1356 3103 1142 2972 
Q 928 2841 928 2578 
Q 928 2378 1081 2264 
Q 1234 2150 1697 2047 
L 1894 2003 
Q 2506 1872 2764 1633 
Q 3022 1394 3022 966 
Q 3022 478 2636 193 
Q 2250 -91 1575 -91 
Q 1294 -91 989 -36 
Q 684 19 347 128 
L 347 722 
Q 666 556 975 473 
Q 1284 391 1588 391 
Q 1994 391 2212 530 
Q 2431 669 2431 922 
Q 2431 1156 2273 1281 
Q 2116 1406 1581 1522 
L 1381 1569 
Q 847 1681 609 1914 
Q 372 2147 372 2553 
Q 372 3047 722 3315 
Q 1072 3584 1716 3584 
Q 2034 3584 2315 3537 
Q 2597 3491 2834 3397 
z
" transform="scale(0.015625)"/>
     </defs>
     <use xlink:href="#DejaVuSans-56"/>
     <use xlink:href="#DejaVuSans-61" x="60.658203"/>
     <use xlink:href="#DejaVuSans-6c" x="121.9375"/>
     <use xlink:href="#DejaVuSans-6f" x="149.720703"/>
     <use xlink:href="#DejaVuSans-72" x="210.902344"/>
     <use xlink:href="#DejaVuSans-69" x="252.015625"/>
     <use xlink:href="#DejaVuSans-20" x="279.798828"/>
     <use xlink:href="#DejaVuSans-70" x="311.585938"/>
     <use xlink:href="#DejaVuSans-72" x="375.0625"/>
     <use xlink:href="#DejaVuSans-65" x="413.925781"/>
     <use xlink:href="#DejaVuSans-7a" x="475.449219"/>
     <use xlink:href="#DejaVuSans-69" x="527.939453"/>
     <use xlink:href="#DejaVuSans-73" x="555.722656"/>
     <use xlink:href="#DejaVuSans-65" x="607.822266"/>
    </g>
   </g>
   <g id="line2d_23">
    <path d="M 249.104688 42.454687 
L 259.104688 42.454687 
L 269.104688 42.454687 
" style="fill: none; stroke: #ff0000; stroke-width: 1.5; stroke-linecap: square"/>
   </g>
   <g id="text_20">
    <!-- Numarul predictiilor luate in model -->
    <g transform="translate(277.104688 45.954687) scale(0.1 -0.1)">
     <defs>
      <path id="DejaVuSans-4e" d="M 628 4666 
L 1478 4666 
L 3547 763 
L 3547 4666 
L 4159 4666 
L 4159 0 
L 3309 0 
L 1241 3903 
L 1241 0 
L 628 0 
L 628 4666 
z
" transform="scale(0.015625)"/>
      <path id="DejaVuSans-75" d="M 544 1381 
L 544 3500 
L 1119 3500 
L 1119 1403 
Q 1119 906 1312 657 
Q 1506 409 1894 409 
Q 2359 409 2629 706 
Q 2900 1003 2900 1516 
L 2900 3500 
L 3475 3500 
L 3475 0 
L 2900 0 
L 2900 538 
Q 2691 219 2414 64 
Q 2138 -91 1772 -91 
Q 1169 -91 856 284 
Q 544 659 544 1381 
z
M 1991 3584 
L 1991 3584 
z
" transform="scale(0.015625)"/>
      <path id="DejaVuSans-64" d="M 2906 2969 
L 2906 4863 
L 3481 4863 
L 3481 0 
L 2906 0 
L 2906 525 
Q 2725 213 2448 61 
Q 2172 -91 1784 -91 
Q 1150 -91 751 415 
Q 353 922 353 1747 
Q 353 2572 751 3078 
Q 1150 3584 1784 3584 
Q 2172 3584 2448 3432 
Q 2725 3281 2906 2969 
z
M 947 1747 
Q 947 1113 1208 752 
Q 1469 391 1925 391 
Q 2381 391 2643 752 
Q 2906 1113 2906 1747 
Q 2906 2381 2643 2742 
Q 2381 3103 1925 3103 
Q 1469 3103 1208 2742 
Q 947 2381 947 1747 
z
" transform="scale(0.015625)"/>
      <path id="DejaVuSans-63" d="M 3122 3366 
L 3122 2828 
Q 2878 2963 2633 3030 
Q 2388 3097 2138 3097 
Q 1578 3097 1268 2742 
Q 959 2388 959 1747 
Q 959 1106 1268 751 
Q 1578 397 2138 397 
Q 2388 397 2633 464 
Q 2878 531 3122 666 
L 3122 134 
Q 2881 22 2623 -34 
Q 2366 -91 2075 -91 
Q 1284 -91 818 406 
Q 353 903 353 1747 
Q 353 2603 823 3093 
Q 1294 3584 2113 3584 
Q 2378 3584 2631 3529 
Q 2884 3475 3122 3366 
z
" transform="scale(0.015625)"/>
     </defs>
     <use xlink:href="#DejaVuSans-4e"/>
     <use xlink:href="#DejaVuSans-75" x="74.804688"/>
     <use xlink:href="#DejaVuSans-6d" x="138.183594"/>
     <use xlink:href="#DejaVuSans-61" x="235.595703"/>
     <use xlink:href="#DejaVuSans-72" x="296.875"/>
     <use xlink:href="#DejaVuSans-75" x="337.988281"/>
     <use xlink:href="#DejaVuSans-6c" x="401.367188"/>
     <use xlink:href="#DejaVuSans-20" x="429.150391"/>
     <use xlink:href="#DejaVuSans-70" x="460.9375"/>
     <use xlink:href="#DejaVuSans-72" x="524.414062"/>
     <use xlink:href="#DejaVuSans-65" x="563.277344"/>
     <use xlink:href="#DejaVuSans-64" x="624.800781"/>
     <use xlink:href="#DejaVuSans-69" x="688.277344"/>
     <use xlink:href="#DejaVuSans-63" x="716.060547"/>
     <use xlink:href="#DejaVuSans-74" x="771.041016"/>
     <use xlink:href="#DejaVuSans-69" x="810.25"/>
     <use xlink:href="#DejaVuSans-69" x="838.033203"/>
     <use xlink:href="#DejaVuSans-6c" x="865.816406"/>
     <use xlink:href="#DejaVuSans-6f" x="893.599609"/>
     <use xlink:href="#DejaVuSans-72" x="954.78125"/>
     <use xlink:href="#DejaVuSans-20" x="995.894531"/>
     <use xlink:href="#DejaVuSans-6c" x="1027.681641"/>
     <use xlink:href="#DejaVuSans-75" x="1055.464844"/>
     <use xlink:href="#DejaVuSans-61" x="1118.84375"/>
     <use xlink:href="#DejaVuSans-74" x="1180.123047"/>
     <use xlink:href="#DejaVuSans-65" x="1219.332031"/>
     <use xlink:href="#DejaVuSans-20" x="1280.855469"/>
     <use xlink:href="#DejaVuSans-69" x="1312.642578"/>
     <use xlink:href="#DejaVuSans-6e" x="1340.425781"/>
     <use xlink:href="#DejaVuSans-20" x="1403.804688"/>
     <use xlink:href="#DejaVuSans-6d" x="1435.591797"/>
     <use xlink:href="#DejaVuSans-6f" x="1533.003906"/>
     <use xlink:href="#DejaVuSans-64" x="1594.185547"/>
     <use xlink:href="#DejaVuSans-65" x="1657.662109"/>
     <use xlink:href="#DejaVuSans-6c" x="1719.185547"/>
    </g>
   </g>
  </g>
 </g>
 <defs>
  <clipPath id="p2f350bcdce">
   <rect x="57.6" y="41.472" width="357.12" height="165.888"/>
  </clipPath>
  <clipPath id="p323ce8e54a">
   <rect x="115.2" y="283.392" width="299.52" height="10.368"/>
  </clipPath>
  <clipPath id="pea50554339">
   <path d="M 115.2 291.168 
L 414.72 291.168 
L 414.72 285.984 
L 115.2 285.984 
z
"/>
  </clipPath>
  <clipPath id="pb5dc613728">
   <rect x="115.2" y="300.672" width="299.52" height="10.368"/>
  </clipPath>
  <clipPath id="p0450551e8e">
   <path d="M 115.2 308.448 
L 414.72 308.448 
L 414.72 303.264 
L 115.2 303.264 
z
"/>
  </clipPath>
 </defs>
</svg>
