<?xml version="1.0" encoding="utf-8" standalone="no"?>
<!DOCTYPE svg PUBLIC "-//W3C//DTD SVG 1.1//EN"
  "http://www.w3.org/Graphics/SVG/1.1/DTD/svg11.dtd">
<svg xmlns:xlink="http://www.w3.org/1999/xlink" width="460.8pt" height="345.6pt" viewBox="0 0 460.8 345.6" xmlns="http://www.w3.org/2000/svg" version="1.1">
 <metadata>
  <rdf:RDF xmlns:dc="http://purl.org/dc/elements/1.1/" xmlns:cc="http://creativecommons.org/ns#" xmlns:rdf="http://www.w3.org/1999/02/22-rdf-syntax-ns#">
   <cc:Work>
    <dc:type rdf:resource="http://purl.org/dc/dcmitype/StillImage"/>
    <dc:date>2024-11-27T23:44:18.450355</dc:date>
    <dc:format>image/svg+xml</dc:format>
    <dc:creator>
     <cc:Agent>
      <dc:title>Matplotlib v3.9.2, https://matplotlib.org/</dc:title>
     </cc:Agent>
    </dc:creator>
   </cc:Work>
  </rdf:RDF>
 </metadata>
 <defs>
  <style type="text/css">*{stroke-linejoin: round; stroke-linecap: butt}</style>
 </defs>
 <g id="figure_1">
  <g id="patch_1">
   <path d="M 0 345.6 
L 460.8 345.6 
L 460.8 0 
L 0 0 
z
" style="fill: #ffffff"/>
  </g>
  <g id="axes_1">
   <g id="patch_2">
    <path d="M 57.6 307.584 
L 414.72 307.584 
L 414.72 41.472 
L 57.6 41.472 
z
" style="fill: #ffffff"/>
   </g>
   <g id="matplotlib.axis_1">
    <g id="xtick_1">
     <g id="line2d_1">
      <defs>
       <path id="mbc83375695" d="M 0 0 
L 0 3.5 
" style="stroke: #000000; stroke-width: 0.8"/>
      </defs>
      <g>
       <use xlink:href="#mbc83375695" x="73.832727" y="307.584" style="stroke: #000000; stroke-width: 0.8"/>
      </g>
     </g>
     <g id="text_1">
      <!-- 0 -->
      <g transform="translate(70.651477 322.182437) scale(0.1 -0.1)">
       <defs>
        <path id="DejaVuSans-30" d="M 2034 4250 
Q 1547 4250 1301 3770 
Q 1056 3291 1056 2328 
Q 1056 1369 1301 889 
Q 1547 409 2034 409 
Q 2525 409 2770 889 
Q 3016 1369 3016 2328 
Q 3016 3291 2770 3770 
Q 2525 4250 2034 4250 
z
M 2034 4750 
Q 2819 4750 3233 4129 
Q 3647 3509 3647 2328 
Q 3647 1150 3233 529 
Q 2819 -91 2034 -91 
Q 1250 -91 836 529 
Q 422 1150 422 2328 
Q 422 3509 836 4129 
Q 1250 4750 2034 4750 
z
" transform="scale(0.015625)"/>
       </defs>
       <use xlink:href="#DejaVuSans-30"/>
      </g>
     </g>
    </g>
    <g id="xtick_2">
     <g id="line2d_2">
      <g>
       <use xlink:href="#mbc83375695" x="114.434847" y="307.584" style="stroke: #000000; stroke-width: 0.8"/>
      </g>
     </g>
     <g id="text_2">
      <!-- 250 -->
      <g transform="translate(104.891097 322.182437) scale(0.1 -0.1)">
       <defs>
        <path id="DejaVuSans-32" d="M 1228 531 
L 3431 531 
L 3431 0 
L 469 0 
L 469 531 
Q 828 903 1448 1529 
Q 2069 2156 2228 2338 
Q 2531 2678 2651 2914 
Q 2772 3150 2772 3378 
Q 2772 3750 2511 3984 
Q 2250 4219 1831 4219 
Q 1534 4219 1204 4116 
Q 875 4013 500 3803 
L 500 4441 
Q 881 4594 1212 4672 
Q 1544 4750 1819 4750 
Q 2544 4750 2975 4387 
Q 3406 4025 3406 3419 
Q 3406 3131 3298 2873 
Q 3191 2616 2906 2266 
Q 2828 2175 2409 1742 
Q 1991 1309 1228 531 
z
" transform="scale(0.015625)"/>
        <path id="DejaVuSans-35" d="M 691 4666 
L 3169 4666 
L 3169 4134 
L 1269 4134 
L 1269 2991 
Q 1406 3038 1543 3061 
Q 1681 3084 1819 3084 
Q 2600 3084 3056 2656 
Q 3513 2228 3513 1497 
Q 3513 744 3044 326 
Q 2575 -91 1722 -91 
Q 1428 -91 1123 -41 
Q 819 9 494 109 
L 494 744 
Q 775 591 1075 516 
Q 1375 441 1709 441 
Q 2250 441 2565 725 
Q 2881 1009 2881 1497 
Q 2881 1984 2565 2268 
Q 2250 2553 1709 2553 
Q 1456 2553 1204 2497 
Q 953 2441 691 2322 
L 691 4666 
z
" transform="scale(0.015625)"/>
       </defs>
       <use xlink:href="#DejaVuSans-32"/>
       <use xlink:href="#DejaVuSans-35" x="63.623047"/>
       <use xlink:href="#DejaVuSans-30" x="127.246094"/>
      </g>
     </g>
    </g>
    <g id="xtick_3">
     <g id="line2d_3">
      <g>
       <use xlink:href="#mbc83375695" x="155.036966" y="307.584" style="stroke: #000000; stroke-width: 0.8"/>
      </g>
     </g>
     <g id="text_3">
      <!-- 500 -->
      <g transform="translate(145.493216 322.182437) scale(0.1 -0.1)">
       <use xlink:href="#DejaVuSans-35"/>
       <use xlink:href="#DejaVuSans-30" x="63.623047"/>
       <use xlink:href="#DejaVuSans-30" x="127.246094"/>
      </g>
     </g>
    </g>
    <g id="xtick_4">
     <g id="line2d_4">
      <g>
       <use xlink:href="#mbc83375695" x="195.639085" y="307.584" style="stroke: #000000; stroke-width: 0.8"/>
      </g>
     </g>
     <g id="text_4">
      <!-- 750 -->
      <g transform="translate(186.095335 322.182437) scale(0.1 -0.1)">
       <defs>
        <path id="DejaVuSans-37" d="M 525 4666 
L 3525 4666 
L 3525 4397 
L 1831 0 
L 1172 0 
L 2766 4134 
L 525 4134 
L 525 4666 
z
" transform="scale(0.015625)"/>
       </defs>
       <use xlink:href="#DejaVuSans-37"/>
       <use xlink:href="#DejaVuSans-35" x="63.623047"/>
       <use xlink:href="#DejaVuSans-30" x="127.246094"/>
      </g>
     </g>
    </g>
    <g id="xtick_5">
     <g id="line2d_5">
      <g>
       <use xlink:href="#mbc83375695" x="236.241204" y="307.584" style="stroke: #000000; stroke-width: 0.8"/>
      </g>
     </g>
     <g id="text_5">
      <!-- 1000 -->
      <g transform="translate(223.516204 322.182437) scale(0.1 -0.1)">
       <defs>
        <path id="DejaVuSans-31" d="M 794 531 
L 1825 531 
L 1825 4091 
L 703 3866 
L 703 4441 
L 1819 4666 
L 2450 4666 
L 2450 531 
L 3481 531 
L 3481 0 
L 794 0 
L 794 531 
z
" transform="scale(0.015625)"/>
       </defs>
       <use xlink:href="#DejaVuSans-31"/>
       <use xlink:href="#DejaVuSans-30" x="63.623047"/>
       <use xlink:href="#DejaVuSans-30" x="127.246094"/>
       <use xlink:href="#DejaVuSans-30" x="190.869141"/>
      </g>
     </g>
    </g>
    <g id="xtick_6">
     <g id="line2d_6">
      <g>
       <use xlink:href="#mbc83375695" x="276.843323" y="307.584" style="stroke: #000000; stroke-width: 0.8"/>
      </g>
     </g>
     <g id="text_6">
      <!-- 1250 -->
      <g transform="translate(264.118323 322.182437) scale(0.1 -0.1)">
       <use xlink:href="#DejaVuSans-31"/>
       <use xlink:href="#DejaVuSans-32" x="63.623047"/>
       <use xlink:href="#DejaVuSans-35" x="127.246094"/>
       <use xlink:href="#DejaVuSans-30" x="190.869141"/>
      </g>
     </g>
    </g>
    <g id="xtick_7">
     <g id="line2d_7">
      <g>
       <use xlink:href="#mbc83375695" x="317.445443" y="307.584" style="stroke: #000000; stroke-width: 0.8"/>
      </g>
     </g>
     <g id="text_7">
      <!-- 1500 -->
      <g transform="translate(304.720443 322.182437) scale(0.1 -0.1)">
       <use xlink:href="#DejaVuSans-31"/>
       <use xlink:href="#DejaVuSans-35" x="63.623047"/>
       <use xlink:href="#DejaVuSans-30" x="127.246094"/>
       <use xlink:href="#DejaVuSans-30" x="190.869141"/>
      </g>
     </g>
    </g>
    <g id="xtick_8">
     <g id="line2d_8">
      <g>
       <use xlink:href="#mbc83375695" x="358.047562" y="307.584" style="stroke: #000000; stroke-width: 0.8"/>
      </g>
     </g>
     <g id="text_8">
      <!-- 1750 -->
      <g transform="translate(345.322562 322.182437) scale(0.1 -0.1)">
       <use xlink:href="#DejaVuSans-31"/>
       <use xlink:href="#DejaVuSans-37" x="63.623047"/>
       <use xlink:href="#DejaVuSans-35" x="127.246094"/>
       <use xlink:href="#DejaVuSans-30" x="190.869141"/>
      </g>
     </g>
    </g>
    <g id="xtick_9">
     <g id="line2d_9">
      <g>
       <use xlink:href="#mbc83375695" x="398.649681" y="307.584" style="stroke: #000000; stroke-width: 0.8"/>
      </g>
     </g>
     <g id="text_9">
      <!-- 2000 -->
      <g transform="translate(385.924681 322.182437) scale(0.1 -0.1)">
       <use xlink:href="#DejaVuSans-32"/>
       <use xlink:href="#DejaVuSans-30" x="63.623047"/>
       <use xlink:href="#DejaVuSans-30" x="127.246094"/>
       <use xlink:href="#DejaVuSans-30" x="190.869141"/>
      </g>
     </g>
    </g>
    <g id="text_10">
     <!-- Ordin esantion -->
     <g transform="translate(199.443594 335.860562) scale(0.1 -0.1)">
      <defs>
       <path id="DejaVuSans-4f" d="M 2522 4238 
Q 1834 4238 1429 3725 
Q 1025 3213 1025 2328 
Q 1025 1447 1429 934 
Q 1834 422 2522 422 
Q 3209 422 3611 934 
Q 4013 1447 4013 2328 
Q 4013 3213 3611 3725 
Q 3209 4238 2522 4238 
z
M 2522 4750 
Q 3503 4750 4090 4092 
Q 4678 3434 4678 2328 
Q 4678 1225 4090 567 
Q 3503 -91 2522 -91 
Q 1538 -91 948 565 
Q 359 1222 359 2328 
Q 359 3434 948 4092 
Q 1538 4750 2522 4750 
z
" transform="scale(0.015625)"/>
       <path id="DejaVuSans-72" d="M 2631 2963 
Q 2534 3019 2420 3045 
Q 2306 3072 2169 3072 
Q 1681 3072 1420 2755 
Q 1159 2438 1159 1844 
L 1159 0 
L 581 0 
L 581 3500 
L 1159 3500 
L 1159 2956 
Q 1341 3275 1631 3429 
Q 1922 3584 2338 3584 
Q 2397 3584 2469 3576 
Q 2541 3569 2628 3553 
L 2631 2963 
z
" transform="scale(0.015625)"/>
       <path id="DejaVuSans-64" d="M 2906 2969 
L 2906 4863 
L 3481 4863 
L 3481 0 
L 2906 0 
L 2906 525 
Q 2725 213 2448 61 
Q 2172 -91 1784 -91 
Q 1150 -91 751 415 
Q 353 922 353 1747 
Q 353 2572 751 3078 
Q 1150 3584 1784 3584 
Q 2172 3584 2448 3432 
Q 2725 3281 2906 2969 
z
M 947 1747 
Q 947 1113 1208 752 
Q 1469 391 1925 391 
Q 2381 391 2643 752 
Q 2906 1113 2906 1747 
Q 2906 2381 2643 2742 
Q 2381 3103 1925 3103 
Q 1469 3103 1208 2742 
Q 947 2381 947 1747 
z
" transform="scale(0.015625)"/>
       <path id="DejaVuSans-69" d="M 603 3500 
L 1178 3500 
L 1178 0 
L 603 0 
L 603 3500 
z
M 603 4863 
L 1178 4863 
L 1178 4134 
L 603 4134 
L 603 4863 
z
" transform="scale(0.015625)"/>
       <path id="DejaVuSans-6e" d="M 3513 2113 
L 3513 0 
L 2938 0 
L 2938 2094 
Q 2938 2591 2744 2837 
Q 2550 3084 2163 3084 
Q 1697 3084 1428 2787 
Q 1159 2491 1159 1978 
L 1159 0 
L 581 0 
L 581 3500 
L 1159 3500 
L 1159 2956 
Q 1366 3272 1645 3428 
Q 1925 3584 2291 3584 
Q 2894 3584 3203 3211 
Q 3513 2838 3513 2113 
z
" transform="scale(0.015625)"/>
       <path id="DejaVuSans-20" transform="scale(0.015625)"/>
       <path id="DejaVuSans-65" d="M 3597 1894 
L 3597 1613 
L 953 1613 
Q 991 1019 1311 708 
Q 1631 397 2203 397 
Q 2534 397 2845 478 
Q 3156 559 3463 722 
L 3463 178 
Q 3153 47 2828 -22 
Q 2503 -91 2169 -91 
Q 1331 -91 842 396 
Q 353 884 353 1716 
Q 353 2575 817 3079 
Q 1281 3584 2069 3584 
Q 2775 3584 3186 3129 
Q 3597 2675 3597 1894 
z
M 3022 2063 
Q 3016 2534 2758 2815 
Q 2500 3097 2075 3097 
Q 1594 3097 1305 2825 
Q 1016 2553 972 2059 
L 3022 2063 
z
" transform="scale(0.015625)"/>
       <path id="DejaVuSans-73" d="M 2834 3397 
L 2834 2853 
Q 2591 2978 2328 3040 
Q 2066 3103 1784 3103 
Q 1356 3103 1142 2972 
Q 928 2841 928 2578 
Q 928 2378 1081 2264 
Q 1234 2150 1697 2047 
L 1894 2003 
Q 2506 1872 2764 1633 
Q 3022 1394 3022 966 
Q 3022 478 2636 193 
Q 2250 -91 1575 -91 
Q 1294 -91 989 -36 
Q 684 19 347 128 
L 347 722 
Q 666 556 975 473 
Q 1284 391 1588 391 
Q 1994 391 2212 530 
Q 2431 669 2431 922 
Q 2431 1156 2273 1281 
Q 2116 1406 1581 1522 
L 1381 1569 
Q 847 1681 609 1914 
Q 372 2147 372 2553 
Q 372 3047 722 3315 
Q 1072 3584 1716 3584 
Q 2034 3584 2315 3537 
Q 2597 3491 2834 3397 
z
" transform="scale(0.015625)"/>
       <path id="DejaVuSans-61" d="M 2194 1759 
Q 1497 1759 1228 1600 
Q 959 1441 959 1056 
Q 959 750 1161 570 
Q 1363 391 1709 391 
Q 2188 391 2477 730 
Q 2766 1069 2766 1631 
L 2766 1759 
L 2194 1759 
z
M 3341 1997 
L 3341 0 
L 2766 0 
L 2766 531 
Q 2569 213 2275 61 
Q 1981 -91 1556 -91 
Q 1019 -91 701 211 
Q 384 513 384 1019 
Q 384 1609 779 1909 
Q 1175 2209 1959 2209 
L 2766 2209 
L 2766 2266 
Q 2766 2663 2505 2880 
Q 2244 3097 1772 3097 
Q 1472 3097 1187 3025 
Q 903 2953 641 2809 
L 641 3341 
Q 956 3463 1253 3523 
Q 1550 3584 1831 3584 
Q 2591 3584 2966 3190 
Q 3341 2797 3341 1997 
z
" transform="scale(0.015625)"/>
       <path id="DejaVuSans-74" d="M 1172 4494 
L 1172 3500 
L 2356 3500 
L 2356 3053 
L 1172 3053 
L 1172 1153 
Q 1172 725 1289 603 
Q 1406 481 1766 481 
L 2356 481 
L 2356 0 
L 1766 0 
Q 1100 0 847 248 
Q 594 497 594 1153 
L 594 3053 
L 172 3053 
L 172 3500 
L 594 3500 
L 594 4494 
L 1172 4494 
z
" transform="scale(0.015625)"/>
       <path id="DejaVuSans-6f" d="M 1959 3097 
Q 1497 3097 1228 2736 
Q 959 2375 959 1747 
Q 959 1119 1226 758 
Q 1494 397 1959 397 
Q 2419 397 2687 759 
Q 2956 1122 2956 1747 
Q 2956 2369 2687 2733 
Q 2419 3097 1959 3097 
z
M 1959 3584 
Q 2709 3584 3137 3096 
Q 3566 2609 3566 1747 
Q 3566 888 3137 398 
Q 2709 -91 1959 -91 
Q 1206 -91 779 398 
Q 353 888 353 1747 
Q 353 2609 779 3096 
Q 1206 3584 1959 3584 
z
" transform="scale(0.015625)"/>
      </defs>
      <use xlink:href="#DejaVuSans-4f"/>
      <use xlink:href="#DejaVuSans-72" x="78.710938"/>
      <use xlink:href="#DejaVuSans-64" x="118.074219"/>
      <use xlink:href="#DejaVuSans-69" x="181.550781"/>
      <use xlink:href="#DejaVuSans-6e" x="209.333984"/>
      <use xlink:href="#DejaVuSans-20" x="272.712891"/>
      <use xlink:href="#DejaVuSans-65" x="304.5"/>
      <use xlink:href="#DejaVuSans-73" x="366.023438"/>
      <use xlink:href="#DejaVuSans-61" x="418.123047"/>
      <use xlink:href="#DejaVuSans-6e" x="479.402344"/>
      <use xlink:href="#DejaVuSans-74" x="542.78125"/>
      <use xlink:href="#DejaVuSans-69" x="581.990234"/>
      <use xlink:href="#DejaVuSans-6f" x="609.773438"/>
      <use xlink:href="#DejaVuSans-6e" x="670.955078"/>
     </g>
    </g>
   </g>
   <g id="matplotlib.axis_2">
    <g id="ytick_1">
     <g id="line2d_10">
      <defs>
       <path id="m8b6c16964a" d="M 0 0 
L -3.5 0 
" style="stroke: #000000; stroke-width: 0.8"/>
      </defs>
      <g>
       <use xlink:href="#m8b6c16964a" x="57.6" y="297.05504" style="stroke: #000000; stroke-width: 0.8"/>
      </g>
     </g>
     <g id="text_11">
      <!-- 2 -->
      <g transform="translate(44.2375 300.854259) scale(0.1 -0.1)">
       <use xlink:href="#DejaVuSans-32"/>
      </g>
     </g>
    </g>
    <g id="ytick_2">
     <g id="line2d_11">
      <g>
       <use xlink:href="#m8b6c16964a" x="57.6" y="263.284368" style="stroke: #000000; stroke-width: 0.8"/>
      </g>
     </g>
     <g id="text_12">
      <!-- 4 -->
      <g transform="translate(44.2375 267.083587) scale(0.1 -0.1)">
       <defs>
        <path id="DejaVuSans-34" d="M 2419 4116 
L 825 1625 
L 2419 1625 
L 2419 4116 
z
M 2253 4666 
L 3047 4666 
L 3047 1625 
L 3713 1625 
L 3713 1100 
L 3047 1100 
L 3047 0 
L 2419 0 
L 2419 1100 
L 313 1100 
L 313 1709 
L 2253 4666 
z
" transform="scale(0.015625)"/>
       </defs>
       <use xlink:href="#DejaVuSans-34"/>
      </g>
     </g>
    </g>
    <g id="ytick_3">
     <g id="line2d_12">
      <g>
       <use xlink:href="#m8b6c16964a" x="57.6" y="229.513695" style="stroke: #000000; stroke-width: 0.8"/>
      </g>
     </g>
     <g id="text_13">
      <!-- 6 -->
      <g transform="translate(44.2375 233.312914) scale(0.1 -0.1)">
       <defs>
        <path id="DejaVuSans-36" d="M 2113 2584 
Q 1688 2584 1439 2293 
Q 1191 2003 1191 1497 
Q 1191 994 1439 701 
Q 1688 409 2113 409 
Q 2538 409 2786 701 
Q 3034 994 3034 1497 
Q 3034 2003 2786 2293 
Q 2538 2584 2113 2584 
z
M 3366 4563 
L 3366 3988 
Q 3128 4100 2886 4159 
Q 2644 4219 2406 4219 
Q 1781 4219 1451 3797 
Q 1122 3375 1075 2522 
Q 1259 2794 1537 2939 
Q 1816 3084 2150 3084 
Q 2853 3084 3261 2657 
Q 3669 2231 3669 1497 
Q 3669 778 3244 343 
Q 2819 -91 2113 -91 
Q 1303 -91 875 529 
Q 447 1150 447 2328 
Q 447 3434 972 4092 
Q 1497 4750 2381 4750 
Q 2619 4750 2861 4703 
Q 3103 4656 3366 4563 
z
" transform="scale(0.015625)"/>
       </defs>
       <use xlink:href="#DejaVuSans-36"/>
      </g>
     </g>
    </g>
    <g id="ytick_4">
     <g id="line2d_13">
      <g>
       <use xlink:href="#m8b6c16964a" x="57.6" y="195.743023" style="stroke: #000000; stroke-width: 0.8"/>
      </g>
     </g>
     <g id="text_14">
      <!-- 8 -->
      <g transform="translate(44.2375 199.542242) scale(0.1 -0.1)">
       <defs>
        <path id="DejaVuSans-38" d="M 2034 2216 
Q 1584 2216 1326 1975 
Q 1069 1734 1069 1313 
Q 1069 891 1326 650 
Q 1584 409 2034 409 
Q 2484 409 2743 651 
Q 3003 894 3003 1313 
Q 3003 1734 2745 1975 
Q 2488 2216 2034 2216 
z
M 1403 2484 
Q 997 2584 770 2862 
Q 544 3141 544 3541 
Q 544 4100 942 4425 
Q 1341 4750 2034 4750 
Q 2731 4750 3128 4425 
Q 3525 4100 3525 3541 
Q 3525 3141 3298 2862 
Q 3072 2584 2669 2484 
Q 3125 2378 3379 2068 
Q 3634 1759 3634 1313 
Q 3634 634 3220 271 
Q 2806 -91 2034 -91 
Q 1263 -91 848 271 
Q 434 634 434 1313 
Q 434 1759 690 2068 
Q 947 2378 1403 2484 
z
M 1172 3481 
Q 1172 3119 1398 2916 
Q 1625 2713 2034 2713 
Q 2441 2713 2670 2916 
Q 2900 3119 2900 3481 
Q 2900 3844 2670 4047 
Q 2441 4250 2034 4250 
Q 1625 4250 1398 4047 
Q 1172 3844 1172 3481 
z
" transform="scale(0.015625)"/>
       </defs>
       <use xlink:href="#DejaVuSans-38"/>
      </g>
     </g>
    </g>
    <g id="ytick_5">
     <g id="line2d_14">
      <g>
       <use xlink:href="#m8b6c16964a" x="57.6" y="161.97235" style="stroke: #000000; stroke-width: 0.8"/>
      </g>
     </g>
     <g id="text_15">
      <!-- 10 -->
      <g transform="translate(37.875 165.771569) scale(0.1 -0.1)">
       <use xlink:href="#DejaVuSans-31"/>
       <use xlink:href="#DejaVuSans-30" x="63.623047"/>
      </g>
     </g>
    </g>
    <g id="ytick_6">
     <g id="line2d_15">
      <g>
       <use xlink:href="#m8b6c16964a" x="57.6" y="128.201678" style="stroke: #000000; stroke-width: 0.8"/>
      </g>
     </g>
     <g id="text_16">
      <!-- 12 -->
      <g transform="translate(37.875 132.000897) scale(0.1 -0.1)">
       <use xlink:href="#DejaVuSans-31"/>
       <use xlink:href="#DejaVuSans-32" x="63.623047"/>
      </g>
     </g>
    </g>
    <g id="ytick_7">
     <g id="line2d_16">
      <g>
       <use xlink:href="#m8b6c16964a" x="57.6" y="94.431005" style="stroke: #000000; stroke-width: 0.8"/>
      </g>
     </g>
     <g id="text_17">
      <!-- 14 -->
      <g transform="translate(37.875 98.230224) scale(0.1 -0.1)">
       <use xlink:href="#DejaVuSans-31"/>
       <use xlink:href="#DejaVuSans-34" x="63.623047"/>
      </g>
     </g>
    </g>
    <g id="ytick_8">
     <g id="line2d_17">
      <g>
       <use xlink:href="#m8b6c16964a" x="57.6" y="60.660333" style="stroke: #000000; stroke-width: 0.8"/>
      </g>
     </g>
     <g id="text_18">
      <!-- 16 -->
      <g transform="translate(37.875 64.459551) scale(0.1 -0.1)">
       <use xlink:href="#DejaVuSans-31"/>
       <use xlink:href="#DejaVuSans-36" x="63.623047"/>
      </g>
     </g>
    </g>
    <g id="text_19">
     <!-- Valoare -->
     <g transform="translate(31.795312 193.156906) rotate(-90) scale(0.1 -0.1)">
      <defs>
       <path id="DejaVuSans-56" d="M 1831 0 
L 50 4666 
L 709 4666 
L 2188 738 
L 3669 4666 
L 4325 4666 
L 2547 0 
L 1831 0 
z
" transform="scale(0.015625)"/>
       <path id="DejaVuSans-6c" d="M 603 4863 
L 1178 4863 
L 1178 0 
L 603 0 
L 603 4863 
z
" transform="scale(0.015625)"/>
      </defs>
      <use xlink:href="#DejaVuSans-56"/>
      <use xlink:href="#DejaVuSans-61" x="60.658203"/>
      <use xlink:href="#DejaVuSans-6c" x="121.9375"/>
      <use xlink:href="#DejaVuSans-6f" x="149.720703"/>
      <use xlink:href="#DejaVuSans-61" x="210.902344"/>
      <use xlink:href="#DejaVuSans-72" x="272.181641"/>
      <use xlink:href="#DejaVuSans-65" x="311.044922"/>
     </g>
    </g>
   </g>
   <g id="line2d_18">
    <path d="M 73.832727 294.251935 
L 74.157544 295.488 
L 74.482361 293.098925 
L 74.807178 294.008784 
L 74.969587 293.550688 
L 75.131995 292.570652 
L 75.294404 293.929024 
L 75.456812 294.285536 
L 75.619221 293.2207 
L 75.781629 294.124003 
L 75.944037 293.242225 
L 76.106446 293.715827 
L 76.268854 291.532181 
L 76.431263 292.626204 
L 76.593671 291.241787 
L 76.75608 291.493401 
L 76.918488 292.144247 
L 77.243305 291.0859 
L 77.405714 291.866796 
L 77.730531 289.88937 
L 77.892939 290.78043 
L 78.055348 290.850874 
L 78.217756 291.485665 
L 78.380165 288.439985 
L 78.542573 290.298639 
L 78.704982 289.878103 
L 78.86739 290.662125 
L 79.192207 287.750364 
L 79.354615 289.30738 
L 79.841841 287.400804 
L 80.004249 289.151545 
L 80.329066 286.420958 
L 80.491475 287.879276 
L 80.816292 288.414432 
L 80.9787 288.293226 
L 81.141109 288.329123 
L 81.303517 286.876077 
L 81.465926 288.721208 
L 81.628334 286.51689 
L 81.790743 288.781867 
L 82.277968 285.706163 
L 82.440377 287.8199 
L 82.602785 285.504635 
L 82.765194 288.200243 
L 82.927602 288.609262 
L 83.09001 285.717758 
L 83.252419 287.943593 
L 83.739644 286.297148 
L 83.902053 288.369587 
L 84.064461 287.838721 
L 84.389278 286.025566 
L 84.551687 286.526655 
L 84.714095 288.126665 
L 84.876504 285.753667 
L 85.038912 287.292072 
L 85.201321 285.870961 
L 85.363729 288.784798 
L 85.688546 287.229348 
L 85.850955 288.231974 
L 86.013363 286.238344 
L 86.175772 285.860557 
L 86.825405 288.730087 
L 86.987814 286.176333 
L 87.150222 288.122901 
L 87.312631 287.184226 
L 87.475039 287.210146 
L 87.637448 287.909327 
L 87.799856 287.233415 
L 88.124673 288.989382 
L 88.44949 286.768777 
L 88.611899 289.231935 
L 88.774307 286.796609 
L 88.936716 288.844739 
L 89.099124 288.146998 
L 89.261533 289.667767 
L 89.423941 288.981565 
L 89.58635 287.602373 
L 89.748758 288.184331 
L 89.911166 289.743404 
L 90.073575 288.237148 
L 90.235983 288.242374 
L 90.398392 288.444426 
L 90.5608 289.807859 
L 90.723209 288.38382 
L 90.885617 289.504547 
L 91.048026 289.440252 
L 91.210434 287.688473 
L 91.372843 288.39975 
L 91.535251 290.255973 
L 91.69766 289.390367 
L 91.860068 287.564486 
L 92.184885 290.44727 
L 92.509702 287.403829 
L 92.672111 289.228852 
L 92.834519 287.893659 
L 92.996928 287.775937 
L 93.159336 290.249924 
L 93.321745 288.53658 
L 93.484153 288.536931 
L 93.646561 288.826161 
L 93.80897 288.715724 
L 93.971378 287.605054 
L 94.133787 289.460728 
L 94.296195 287.304015 
L 94.458604 287.466161 
L 94.621012 287.287633 
L 94.783421 289.48144 
L 94.945829 289.171026 
L 95.108238 287.721705 
L 95.270646 289.698878 
L 95.595463 286.60763 
L 95.757872 288.570888 
L 96.082689 287.937724 
L 96.245097 288.80441 
L 96.407506 285.731935 
L 96.732323 288.342567 
L 96.894731 286.728321 
L 97.057139 287.760163 
L 97.219548 285.854654 
L 97.381956 287.883599 
L 97.544365 285.414925 
L 97.706773 287.476965 
L 97.869182 285.623821 
L 98.03159 285.314031 
L 98.193999 287.166318 
L 98.356407 287.264625 
L 98.518816 286.575341 
L 98.681224 284.291017 
L 98.843633 286.15727 
L 99.16845 284.809898 
L 99.330858 283.197906 
L 99.493267 284.440396 
L 99.655675 284.138863 
L 99.818084 284.170518 
L 99.980492 285.140789 
L 100.142901 282.859901 
L 100.467717 284.79499 
L 100.792534 281.868998 
L 100.954943 283.76871 
L 101.117351 283.214195 
L 101.27976 284.167082 
L 101.442168 282.730743 
L 101.604577 282.992675 
L 101.766985 281.185079 
L 101.929394 281.283388 
L 102.091802 282.81433 
L 102.254211 280.710449 
L 102.416619 281.045435 
L 102.579028 279.897745 
L 102.741436 282.589801 
L 102.903845 280.508389 
L 103.066253 280.256879 
L 103.228662 282.327496 
L 103.39107 280.115806 
L 103.553479 280.368185 
L 103.715887 279.220194 
L 104.040704 280.620653 
L 104.203112 280.460245 
L 104.365521 278.063137 
L 104.527929 279.313278 
L 104.690338 278.61442 
L 104.852746 279.997761 
L 105.50238 278.916517 
L 105.664789 280.163072 
L 105.827197 277.544289 
L 105.989606 279.029203 
L 106.152014 278.921161 
L 106.476831 276.891948 
L 106.63924 277.16596 
L 106.801648 279.345006 
L 106.964057 278.493838 
L 107.126465 277.009058 
L 107.288874 276.842918 
L 107.451282 276.450685 
L 107.61369 278.219128 
L 107.776099 276.878047 
L 108.263324 275.763834 
L 108.425733 276.554155 
L 108.588141 278.92029 
L 108.75055 278.512826 
L 108.912958 275.761751 
L 109.237775 278.907879 
L 109.400184 277.876484 
L 109.562592 275.918506 
L 109.725001 277.584268 
L 109.887409 277.237269 
L 110.049818 277.850984 
L 110.374635 275.684084 
L 110.537043 276.459535 
L 110.699452 278.833463 
L 111.186677 276.871323 
L 111.349085 276.671457 
L 111.511494 278.500008 
L 111.673902 276.056255 
L 111.836311 276.237264 
L 111.998719 277.059994 
L 112.161128 278.989641 
L 112.323536 277.139577 
L 112.485945 279.082773 
L 112.648353 278.718114 
L 112.810762 279.201523 
L 112.97317 276.178662 
L 113.135579 278.990841 
L 113.297987 278.887188 
L 113.622804 278.150802 
L 113.785213 279.506261 
L 113.947621 277.357782 
L 114.11003 278.069036 
L 114.272438 276.768487 
L 114.434847 279.678413 
L 114.597255 277.683108 
L 114.759663 278.972523 
L 114.922072 277.178899 
L 115.08448 277.317869 
L 115.246889 278.776482 
L 115.409297 278.581313 
L 115.734114 277.360383 
L 116.383748 279.307048 
L 116.546157 277.404985 
L 116.708565 279.93051 
L 117.033382 277.863584 
L 117.195791 279.50646 
L 117.358199 278.998325 
L 117.520608 277.865227 
L 117.683016 278.310132 
L 117.845425 277.59438 
L 118.007833 278.58346 
L 118.170241 278.729254 
L 118.33265 279.091363 
L 118.495058 277.434628 
L 118.657467 278.780399 
L 118.819875 278.669569 
L 118.982284 279.096623 
L 119.144692 277.093937 
L 119.307101 279.401911 
L 119.469509 276.691055 
L 119.631918 279.380644 
L 119.794326 279.297426 
L 119.956735 278.69313 
L 120.119143 276.510604 
L 120.281552 278.412768 
L 120.44396 278.753671 
L 120.606369 276.43451 
L 120.768777 276.488316 
L 120.931186 278.592621 
L 121.093594 276.424954 
L 121.418411 278.409103 
L 121.58082 277.067215 
L 121.743228 277.967458 
L 121.905636 275.499584 
L 122.068045 275.240992 
L 122.392862 276.619561 
L 122.55527 274.728101 
L 122.717679 277.530427 
L 122.880087 277.077238 
L 123.204904 273.939964 
L 123.367313 276.512164 
L 123.529721 273.975345 
L 123.69213 273.5324 
L 123.854538 276.241816 
L 124.016947 274.684229 
L 124.179355 275.834481 
L 124.341764 275.137585 
L 124.504172 272.439052 
L 124.666581 273.663208 
L 124.828989 272.396755 
L 124.991398 274.142146 
L 125.153806 273.634768 
L 125.316214 272.599831 
L 125.641031 273.972242 
L 125.80344 271.85564 
L 125.965848 273.36078 
L 126.128257 272.134173 
L 126.290665 272.31686 
L 126.453074 270.710286 
L 126.615482 272.196033 
L 126.777891 272.123323 
L 126.940299 269.149242 
L 127.102708 268.673699 
L 127.265116 270.085082 
L 127.427525 268.959207 
L 127.589933 270.656324 
L 127.752342 267.969168 
L 127.91475 268.744101 
L 128.077159 268.199874 
L 128.239567 269.702101 
L 128.401976 267.910683 
L 128.564384 267.95738 
L 128.726792 266.856197 
L 128.889201 266.791487 
L 129.051609 266.010841 
L 129.214018 267.123148 
L 129.376426 265.976695 
L 129.538835 267.934113 
L 129.701243 267.136613 
L 130.02606 264.865123 
L 130.188469 266.981643 
L 130.350877 264.440827 
L 130.513286 265.123075 
L 130.675694 264.288221 
L 130.838103 264.889039 
L 131.16292 263.232492 
L 131.325328 263.498538 
L 131.487737 263.454568 
L 131.650145 264.345581 
L 131.974962 262.339699 
L 132.137371 263.338126 
L 132.299779 262.233064 
L 132.624596 263.495721 
L 132.787004 261.286724 
L 132.949413 261.101109 
L 133.111821 263.209239 
L 133.27423 260.520374 
L 133.436638 261.616409 
L 133.599047 260.780752 
L 133.761455 260.814773 
L 133.923864 261.255218 
L 134.248681 260.779481 
L 134.411089 261.673176 
L 134.573498 259.211757 
L 134.735906 259.240847 
L 134.898315 262.249831 
L 135.060723 260.869711 
L 135.223132 261.181234 
L 135.38554 259.202162 
L 135.710357 260.505148 
L 135.872765 260.763974 
L 136.035174 260.248983 
L 136.197582 258.901212 
L 136.359991 259.641247 
L 136.522399 258.822221 
L 136.684808 258.955577 
L 136.847216 260.071969 
L 137.009625 260.177035 
L 137.334442 258.496932 
L 137.49685 258.549608 
L 137.659259 257.871877 
L 137.821667 259.527245 
L 137.984076 258.044253 
L 138.146484 260.178819 
L 138.471301 258.862214 
L 138.63371 257.675671 
L 138.796118 259.483919 
L 138.958527 258.883413 
L 139.120935 260.178579 
L 139.283343 259.989266 
L 139.445752 258.977437 
L 139.770569 260.109466 
L 139.932977 258.735539 
L 140.095386 259.455764 
L 140.257794 259.334093 
L 140.582611 258.755803 
L 140.74502 259.798122 
L 140.907428 258.685917 
L 141.069837 258.998344 
L 141.394654 258.405952 
L 141.557062 258.584656 
L 141.719471 260.243331 
L 141.881879 258.62291 
L 142.044288 259.301443 
L 142.206696 259.290939 
L 142.369105 259.610086 
L 142.531513 261.560396 
L 142.693922 259.053881 
L 142.85633 260.801402 
L 143.181147 261.039959 
L 143.343555 258.440931 
L 143.668372 260.393124 
L 143.830781 260.871975 
L 143.993189 259.077438 
L 144.155598 260.508332 
L 144.318006 258.7813 
L 144.480415 261.054084 
L 144.642823 258.814641 
L 144.805232 261.228678 
L 144.96764 260.920809 
L 145.130049 261.682704 
L 145.292457 261.050542 
L 145.454866 259.492777 
L 145.779683 261.035592 
L 145.942091 258.888785 
L 146.1045 261.243862 
L 146.266908 259.905126 
L 146.429316 260.828157 
L 146.591725 259.603367 
L 146.754133 259.724184 
L 146.916542 259.104767 
L 147.07895 260.998391 
L 147.403767 259.084486 
L 147.566176 259.474739 
L 147.728584 260.558465 
L 147.890993 258.255385 
L 148.21581 258.621544 
L 148.378218 261.086891 
L 148.540627 258.95578 
L 148.703035 260.851781 
L 148.865444 258.712828 
L 149.027852 259.844714 
L 149.190261 259.94197 
L 149.352669 258.518092 
L 149.515078 259.688199 
L 149.839894 257.388821 
L 150.002303 259.319666 
L 150.164711 259.010286 
L 150.32712 259.042502 
L 150.489528 256.345821 
L 150.651937 257.714167 
L 150.814345 257.094915 
L 150.976754 259.187277 
L 151.139162 256.616734 
L 151.301571 258.934556 
L 151.463979 258.727614 
L 151.626388 255.624898 
L 151.788796 255.359046 
L 151.951205 257.114477 
L 152.113613 255.365371 
L 152.276022 257.254459 
L 152.43843 257.155485 
L 152.600839 257.421151 
L 152.763247 256.027825 
L 152.925656 256.847853 
L 153.088064 254.940549 
L 153.250473 255.758055 
L 153.412881 254.02167 
L 153.575289 256.285496 
L 153.737698 255.694506 
L 153.900106 255.838322 
L 154.062515 254.552873 
L 154.224923 254.452863 
L 154.387332 253.177785 
L 154.54974 254.526061 
L 154.712149 253.599754 
L 154.874557 253.799905 
L 155.036966 253.455599 
L 155.361783 251.042318 
L 155.524191 251.262427 
L 155.6866 253.218989 
L 155.849008 251.432614 
L 156.011417 251.910739 
L 156.173825 251.846635 
L 156.336234 250.980184 
L 156.498642 252.506199 
L 156.661051 252.729103 
L 156.823459 252.465128 
L 156.985867 251.443846 
L 157.148276 251.387953 
L 157.473093 248.897972 
L 157.79791 251.058453 
L 157.960318 248.410733 
L 158.285135 249.074679 
L 158.447544 249.968237 
L 158.772361 249.08999 
L 158.934769 247.39878 
L 159.097178 249.651622 
L 159.259586 249.020686 
L 159.584403 249.607448 
L 159.746812 247.170766 
L 159.90922 248.275864 
L 160.071629 248.449894 
L 160.234037 246.461774 
L 160.396445 247.594365 
L 160.721262 246.314061 
L 160.883671 248.769495 
L 161.208488 246.490678 
L 161.370896 248.494375 
L 161.533305 247.192024 
L 161.695713 248.149802 
L 161.858122 247.755455 
L 162.02053 246.11529 
L 162.182939 246.426201 
L 162.345347 245.13968 
L 162.670164 246.20092 
L 162.832573 247.89474 
L 163.319798 244.875943 
L 163.482207 246.942525 
L 163.644615 245.859043 
L 163.807024 247.070135 
L 164.13184 244.479416 
L 164.294249 245.214433 
L 164.456657 247.420449 
L 164.781474 245.656163 
L 164.943883 246.855544 
L 165.106291 246.514411 
L 165.2687 244.412647 
L 165.593517 247.170187 
L 165.755925 244.1808 
L 166.243151 246.878175 
L 166.405559 246.966833 
L 166.567968 244.987408 
L 166.730376 244.4851 
L 166.892785 244.848154 
L 167.055193 244.39642 
L 167.217602 245.361398 
L 167.38001 245.188476 
L 167.704827 246.714743 
L 167.867235 245.728858 
L 168.029644 245.907726 
L 168.192052 247.350942 
L 168.354461 245.729344 
L 168.516869 247.468487 
L 168.679278 245.305436 
L 168.841686 247.404895 
L 169.004095 247.670751 
L 169.166503 245.366725 
L 169.328912 245.054909 
L 169.49132 245.950165 
L 169.653729 245.096295 
L 169.816137 245.287958 
L 169.978546 247.006157 
L 170.140954 246.316862 
L 170.303363 247.582126 
L 170.465771 247.217063 
L 170.62818 247.745506 
L 170.790588 246.407762 
L 170.952996 246.677605 
L 171.115405 247.95894 
L 171.277813 245.092718 
L 171.440222 244.946688 
L 171.60263 247.387139 
L 171.765039 245.611205 
L 171.927447 245.873381 
L 172.089856 247.183897 
L 172.252264 246.892056 
L 172.414673 244.36443 
L 172.73949 247.464871 
L 173.064307 244.535589 
L 173.226715 247.127202 
L 173.389124 244.610332 
L 173.551532 247.151432 
L 173.876349 244.322328 
L 174.038758 246.626294 
L 174.201166 244.381638 
L 174.525983 244.525016 
L 174.688391 245.349635 
L 174.8508 245.184931 
L 175.013208 245.957935 
L 175.175617 243.192498 
L 175.338025 245.781122 
L 175.500434 245.454507 
L 175.662842 243.16676 
L 175.825251 245.287184 
L 175.987659 244.311617 
L 176.150068 244.79451 
L 176.312476 242.27737 
L 176.474885 245.026388 
L 176.637293 244.220367 
L 176.799702 241.50441 
L 176.96211 243.538665 
L 177.124519 243.639935 
L 177.286927 240.895318 
L 177.449336 240.803756 
L 177.774153 243.088221 
L 177.936561 242.951904 
L 178.098969 242.165461 
L 178.261378 239.816152 
L 178.423786 241.824282 
L 178.586195 239.569758 
L 178.748603 240.492327 
L 178.911012 238.890231 
L 179.07342 241.349761 
L 179.235829 240.254819 
L 179.398237 240.693947 
L 179.723054 238.584921 
L 179.885463 238.909146 
L 180.047871 238.693113 
L 180.21028 239.939605 
L 180.697505 237.441173 
L 180.859914 236.381903 
L 181.022322 238.292959 
L 181.184731 236.216043 
L 181.347139 236.908897 
L 181.671956 234.983368 
L 181.834364 235.139115 
L 181.996773 233.81494 
L 182.159181 235.202187 
L 182.32159 234.119648 
L 182.483998 234.023378 
L 182.646407 233.216409 
L 182.808815 234.780786 
L 182.971224 232.122409 
L 183.133632 233.060539 
L 183.296041 231.625976 
L 183.620858 234.262058 
L 183.783266 232.634243 
L 183.945675 232.660446 
L 184.108083 230.255276 
L 184.270492 232.876384 
L 184.4329 231.809011 
L 184.595309 231.518076 
L 184.757717 232.369163 
L 184.920126 231.339312 
L 185.082534 231.224566 
L 185.244942 229.183373 
L 185.407351 231.550048 
L 185.732168 227.94474 
L 185.894576 228.260103 
L 186.056985 230.618649 
L 186.219393 230.28807 
L 186.54421 229.103572 
L 186.706619 228.626332 
L 186.869027 227.102896 
L 187.031436 227.428146 
L 187.193844 227.293321 
L 187.356253 227.581326 
L 187.518661 226.777112 
L 187.68107 228.376913 
L 187.843478 226.848459 
L 188.005887 226.724473 
L 188.168295 226.425244 
L 188.330704 227.768936 
L 188.493112 225.885301 
L 188.65552 226.199572 
L 188.980337 224.379053 
L 189.142746 224.133602 
L 189.305154 227.249028 
L 189.467563 226.853852 
L 189.629971 223.845214 
L 189.954788 224.765175 
L 190.117197 225.184891 
L 190.279605 224.604106 
L 190.442014 225.376572 
L 190.604422 224.161855 
L 190.766831 224.007097 
L 190.929239 224.241808 
L 191.091648 225.066872 
L 191.254056 224.721463 
L 191.416465 225.330382 
L 191.578873 223.772078 
L 191.741282 224.90638 
L 191.90369 223.274717 
L 192.066099 223.206582 
L 192.228507 225.00262 
L 192.390915 222.725863 
L 192.878141 225.759512 
L 193.040549 224.609609 
L 193.202958 224.972713 
L 193.365366 223.053775 
L 193.527775 224.927954 
L 193.852592 224.205934 
L 194.177409 222.828009 
L 194.339817 225.185923 
L 194.502226 223.729362 
L 194.827043 222.96389 
L 194.989451 225.293157 
L 195.314268 222.858291 
L 195.476677 225.176195 
L 195.639085 222.355154 
L 195.801493 224.190379 
L 195.963902 224.666836 
L 196.12631 224.435305 
L 196.288719 225.497711 
L 196.451127 225.631177 
L 196.613536 223.029926 
L 196.775944 223.362167 
L 196.938353 224.298148 
L 197.26317 223.092555 
L 197.425578 224.66758 
L 197.587987 222.794509 
L 197.750395 225.480311 
L 197.912804 223.907244 
L 198.075212 223.528536 
L 198.237621 225.075406 
L 198.400029 223.610751 
L 198.562438 223.726163 
L 198.724846 225.714327 
L 198.887255 225.640598 
L 199.049663 222.989246 
L 199.37448 224.662684 
L 199.536888 224.300624 
L 199.699297 224.834684 
L 199.861705 222.848165 
L 200.024114 225.349178 
L 200.511339 222.764137 
L 200.673748 222.877411 
L 200.836156 223.642913 
L 200.998565 222.184011 
L 201.160973 224.189672 
L 201.323382 223.81635 
L 201.48579 222.272012 
L 201.648199 222.625731 
L 201.810607 221.581726 
L 201.973016 221.805211 
L 202.135424 223.348808 
L 202.297833 221.423165 
L 202.460241 223.541624 
L 202.62265 223.250556 
L 202.947466 223.900436 
L 203.109875 223.906086 
L 203.272283 220.890804 
L 203.434692 222.364983 
L 203.5971 220.506637 
L 203.759509 222.741009 
L 204.084326 220.834709 
L 204.246734 222.099972 
L 204.409143 219.841021 
L 204.571551 222.17059 
L 204.73396 219.425885 
L 204.896368 219.998513 
L 205.058777 219.596134 
L 205.221185 221.97932 
L 205.383594 220.272809 
L 205.546002 219.787001 
L 205.708411 219.982284 
L 205.870819 218.858238 
L 206.033228 220.377295 
L 206.195636 219.037431 
L 206.520453 220.524254 
L 206.682861 220.023424 
L 206.84527 217.401426 
L 207.007678 218.356037 
L 207.170087 217.881535 
L 207.332495 219.077864 
L 207.494904 217.559519 
L 207.657312 217.400844 
L 207.819721 216.513979 
L 207.982129 218.490593 
L 208.144538 216.427377 
L 208.306946 216.228747 
L 208.469355 215.079649 
L 208.631763 215.606562 
L 208.794172 217.227462 
L 209.118989 215.16832 
L 209.281397 216.69292 
L 209.443806 214.344818 
L 209.606214 214.416791 
L 209.768622 214.894297 
L 209.931031 215.8842 
L 210.093439 213.329025 
L 210.255848 214.664003 
L 210.418256 212.102718 
L 210.580665 212.916276 
L 210.743073 214.970863 
L 210.905482 213.73916 
L 211.06789 214.619919 
L 211.230299 211.695904 
L 211.392707 213.126391 
L 211.555116 213.184776 
L 211.879933 210.502905 
L 212.042341 212.929505 
L 212.20475 212.018818 
L 212.367158 210.129541 
L 212.529567 212.097389 
L 212.691975 212.079985 
L 212.854384 210.454642 
L 213.016792 211.346565 
L 213.179201 211.089154 
L 213.341609 209.298476 
L 213.504017 211.6517 
L 213.666426 209.253625 
L 213.828834 211.014918 
L 213.991243 208.003034 
L 214.153651 209.635721 
L 214.478468 207.839288 
L 214.640877 209.736178 
L 214.803285 208.787624 
L 214.965694 210.339373 
L 215.128102 207.106798 
L 215.290511 209.227637 
L 215.452919 207.796211 
L 215.615328 207.67275 
L 215.777736 208.615212 
L 216.264962 206.494064 
L 216.42737 207.802239 
L 216.589779 206.829118 
L 216.752187 207.357469 
L 216.914595 208.4578 
L 217.077004 208.196889 
L 217.239412 207.388317 
L 217.401821 208.731135 
L 217.564229 206.023027 
L 217.726638 207.396484 
L 217.889046 205.765863 
L 218.051455 208.360483 
L 218.213863 207.260721 
L 218.376272 208.461181 
L 218.53868 208.196966 
L 218.701089 205.426997 
L 219.025906 206.085372 
L 219.188314 206.822205 
L 219.350723 205.377625 
L 219.513131 206.331237 
L 219.67554 208.529576 
L 219.837948 208.319812 
L 220.000357 207.804016 
L 220.325173 205.241192 
L 220.64999 207.205726 
L 220.974807 205.963235 
L 221.299624 208.303097 
L 221.624441 206.520974 
L 221.78685 208.273227 
L 221.949258 205.84495 
L 222.111667 206.138713 
L 222.274075 205.315432 
L 222.436484 206.2495 
L 222.598892 208.022567 
L 222.761301 208.405627 
L 222.923709 205.646613 
L 223.086118 207.300851 
L 223.410935 205.169875 
L 223.573343 206.945748 
L 223.735752 205.706082 
L 223.89816 207.497252 
L 224.222977 206.355269 
L 224.385385 205.672885 
L 224.547794 207.202711 
L 224.710202 205.582276 
L 224.872611 205.598397 
L 225.035019 206.712462 
L 225.197428 205.017699 
L 225.359836 204.795867 
L 225.684653 207.314181 
L 225.847062 204.657239 
L 226.00947 207.603194 
L 226.171879 205.370281 
L 226.334287 207.447785 
L 226.659104 204.911825 
L 226.821513 206.48259 
L 226.983921 206.817541 
L 227.14633 205.277956 
L 227.308738 205.237269 
L 227.471146 205.768138 
L 227.633555 205.47563 
L 227.795963 204.003488 
L 227.958372 206.806022 
L 228.12078 206.18367 
L 228.283189 203.729274 
L 228.445597 204.913551 
L 228.608006 203.933055 
L 228.770414 204.456618 
L 228.932823 203.164251 
L 229.095231 203.002521 
L 229.25764 204.802695 
L 229.420048 203.238547 
L 229.582457 205.096244 
L 229.744865 204.131489 
L 229.907274 205.195744 
L 230.069682 202.839535 
L 230.232091 203.773577 
L 230.556908 202.526215 
L 230.719316 204.28992 
L 230.881724 203.949336 
L 231.044133 201.307846 
L 231.206541 203.206035 
L 231.36895 201.152392 
L 231.531358 201.387274 
L 231.693767 199.767496 
L 231.856175 201.290136 
L 232.018584 200.417541 
L 232.343401 201.875149 
L 232.505809 198.747087 
L 232.668218 200.967899 
L 232.830626 198.662498 
L 232.993035 200.478182 
L 233.155443 200.788512 
L 233.317852 200.225794 
L 233.48026 197.715804 
L 233.642669 199.750362 
L 233.805077 198.113384 
L 233.967486 198.928777 
L 234.129894 196.903031 
L 234.292303 197.757226 
L 234.454711 197.853972 
L 234.779528 195.271771 
L 234.941936 195.907958 
L 235.104345 196.068567 
L 235.429162 194.712146 
L 235.59157 193.70714 
L 235.753979 193.914208 
L 235.916387 195.542097 
L 236.078796 195.348809 
L 236.078796 195.348809 
" clip-path="url(#p87d74c9796)" style="fill: none; stroke: #1f77b4; stroke-width: 1.5; stroke-linecap: square"/>
   </g>
   <g id="line2d_19">
    <path d="M 236.241204 194.32513 
L 236.566021 194.15358 
L 236.890838 194.686389 
L 237.053247 194.625652 
L 237.378064 194.082488 
L 237.540472 193.799818 
L 238.190106 193.752084 
L 238.83974 193.204268 
L 239.326965 192.989777 
L 240.626233 192.171744 
L 244.036811 190.077456 
L 254.268545 183.611905 
L 263.850645 177.287801 
L 273.270337 170.806142 
L 282.52762 164.16971 
L 291.784903 157.258047 
L 300.879778 150.188563 
L 309.812244 142.965111 
L 318.744711 135.452803 
L 327.514768 127.784887 
L 336.122418 119.9664 
L 344.730067 111.846848 
L 353.175308 103.576701 
L 361.620548 94.994217 
L 369.903381 86.262013 
L 378.186213 77.206478 
L 386.306637 68.003077 
L 394.427061 58.4657 
L 398.487273 53.568 
L 398.487273 53.568 
" clip-path="url(#p87d74c9796)" style="fill: none; stroke: #ff7f0e; stroke-width: 1.5; stroke-linecap: square"/>
   </g>
   <g id="line2d_20">
    <path d="M 75.131995 307.584 
L 75.131995 41.472 
" clip-path="url(#p87d74c9796)" style="fill: none; stroke: #ff0000; stroke-width: 1.5; stroke-linecap: square"/>
   </g>
   <g id="patch_3">
    <path d="M 57.6 307.584 
L 57.6 41.472 
" style="fill: none; stroke: #000000; stroke-width: 0.8; stroke-linejoin: miter; stroke-linecap: square"/>
   </g>
   <g id="patch_4">
    <path d="M 414.72 307.584 
L 414.72 41.472 
" style="fill: none; stroke: #000000; stroke-width: 0.8; stroke-linejoin: miter; stroke-linecap: square"/>
   </g>
   <g id="patch_5">
    <path d="M 57.6 307.584 
L 414.72 307.584 
" style="fill: none; stroke: #000000; stroke-width: 0.8; stroke-linejoin: miter; stroke-linecap: square"/>
   </g>
   <g id="patch_6">
    <path d="M 57.6 41.472 
L 414.72 41.472 
" style="fill: none; stroke: #000000; stroke-width: 0.8; stroke-linejoin: miter; stroke-linecap: square"/>
   </g>
   <g id="text_20">
    <!-- Serie timp cu predictii -->
    <g transform="translate(170.045625 35.472) scale(0.12 -0.12)">
     <defs>
      <path id="DejaVuSans-53" d="M 3425 4513 
L 3425 3897 
Q 3066 4069 2747 4153 
Q 2428 4238 2131 4238 
Q 1616 4238 1336 4038 
Q 1056 3838 1056 3469 
Q 1056 3159 1242 3001 
Q 1428 2844 1947 2747 
L 2328 2669 
Q 3034 2534 3370 2195 
Q 3706 1856 3706 1288 
Q 3706 609 3251 259 
Q 2797 -91 1919 -91 
Q 1588 -91 1214 -16 
Q 841 59 441 206 
L 441 856 
Q 825 641 1194 531 
Q 1563 422 1919 422 
Q 2459 422 2753 634 
Q 3047 847 3047 1241 
Q 3047 1584 2836 1778 
Q 2625 1972 2144 2069 
L 1759 2144 
Q 1053 2284 737 2584 
Q 422 2884 422 3419 
Q 422 4038 858 4394 
Q 1294 4750 2059 4750 
Q 2388 4750 2728 4690 
Q 3069 4631 3425 4513 
z
" transform="scale(0.015625)"/>
      <path id="DejaVuSans-6d" d="M 3328 2828 
Q 3544 3216 3844 3400 
Q 4144 3584 4550 3584 
Q 5097 3584 5394 3201 
Q 5691 2819 5691 2113 
L 5691 0 
L 5113 0 
L 5113 2094 
Q 5113 2597 4934 2840 
Q 4756 3084 4391 3084 
Q 3944 3084 3684 2787 
Q 3425 2491 3425 1978 
L 3425 0 
L 2847 0 
L 2847 2094 
Q 2847 2600 2669 2842 
Q 2491 3084 2119 3084 
Q 1678 3084 1418 2786 
Q 1159 2488 1159 1978 
L 1159 0 
L 581 0 
L 581 3500 
L 1159 3500 
L 1159 2956 
Q 1356 3278 1631 3431 
Q 1906 3584 2284 3584 
Q 2666 3584 2933 3390 
Q 3200 3197 3328 2828 
z
" transform="scale(0.015625)"/>
      <path id="DejaVuSans-70" d="M 1159 525 
L 1159 -1331 
L 581 -1331 
L 581 3500 
L 1159 3500 
L 1159 2969 
Q 1341 3281 1617 3432 
Q 1894 3584 2278 3584 
Q 2916 3584 3314 3078 
Q 3713 2572 3713 1747 
Q 3713 922 3314 415 
Q 2916 -91 2278 -91 
Q 1894 -91 1617 61 
Q 1341 213 1159 525 
z
M 3116 1747 
Q 3116 2381 2855 2742 
Q 2594 3103 2138 3103 
Q 1681 3103 1420 2742 
Q 1159 2381 1159 1747 
Q 1159 1113 1420 752 
Q 1681 391 2138 391 
Q 2594 391 2855 752 
Q 3116 1113 3116 1747 
z
" transform="scale(0.015625)"/>
      <path id="DejaVuSans-63" d="M 3122 3366 
L 3122 2828 
Q 2878 2963 2633 3030 
Q 2388 3097 2138 3097 
Q 1578 3097 1268 2742 
Q 959 2388 959 1747 
Q 959 1106 1268 751 
Q 1578 397 2138 397 
Q 2388 397 2633 464 
Q 2878 531 3122 666 
L 3122 134 
Q 2881 22 2623 -34 
Q 2366 -91 2075 -91 
Q 1284 -91 818 406 
Q 353 903 353 1747 
Q 353 2603 823 3093 
Q 1294 3584 2113 3584 
Q 2378 3584 2631 3529 
Q 2884 3475 3122 3366 
z
" transform="scale(0.015625)"/>
      <path id="DejaVuSans-75" d="M 544 1381 
L 544 3500 
L 1119 3500 
L 1119 1403 
Q 1119 906 1312 657 
Q 1506 409 1894 409 
Q 2359 409 2629 706 
Q 2900 1003 2900 1516 
L 2900 3500 
L 3475 3500 
L 3475 0 
L 2900 0 
L 2900 538 
Q 2691 219 2414 64 
Q 2138 -91 1772 -91 
Q 1169 -91 856 284 
Q 544 659 544 1381 
z
M 1991 3584 
L 1991 3584 
z
" transform="scale(0.015625)"/>
     </defs>
     <use xlink:href="#DejaVuSans-53"/>
     <use xlink:href="#DejaVuSans-65" x="63.476562"/>
     <use xlink:href="#DejaVuSans-72" x="125"/>
     <use xlink:href="#DejaVuSans-69" x="166.113281"/>
     <use xlink:href="#DejaVuSans-65" x="193.896484"/>
     <use xlink:href="#DejaVuSans-20" x="255.419922"/>
     <use xlink:href="#DejaVuSans-74" x="287.207031"/>
     <use xlink:href="#DejaVuSans-69" x="326.416016"/>
     <use xlink:href="#DejaVuSans-6d" x="354.199219"/>
     <use xlink:href="#DejaVuSans-70" x="451.611328"/>
     <use xlink:href="#DejaVuSans-20" x="515.087891"/>
     <use xlink:href="#DejaVuSans-63" x="546.875"/>
     <use xlink:href="#DejaVuSans-75" x="601.855469"/>
     <use xlink:href="#DejaVuSans-20" x="665.234375"/>
     <use xlink:href="#DejaVuSans-70" x="697.021484"/>
     <use xlink:href="#DejaVuSans-72" x="760.498047"/>
     <use xlink:href="#DejaVuSans-65" x="799.361328"/>
     <use xlink:href="#DejaVuSans-64" x="860.884766"/>
     <use xlink:href="#DejaVuSans-69" x="924.361328"/>
     <use xlink:href="#DejaVuSans-63" x="952.144531"/>
     <use xlink:href="#DejaVuSans-74" x="1007.125"/>
     <use xlink:href="#DejaVuSans-69" x="1046.333984"/>
     <use xlink:href="#DejaVuSans-69" x="1074.117188"/>
    </g>
   </g>
   <g id="legend_1">
    <g id="patch_7">
     <path d="M 201.024687 302.584 
L 407.72 302.584 
Q 409.72 302.584 409.72 300.584 
L 409.72 257.549625 
Q 409.72 255.549625 407.72 255.549625 
L 201.024687 255.549625 
Q 199.024687 255.549625 199.024687 257.549625 
L 199.024687 300.584 
Q 199.024687 302.584 201.024687 302.584 
z
" style="fill: #ffffff; opacity: 0.8; stroke: #cccccc; stroke-linejoin: miter"/>
    </g>
    <g id="line2d_21">
     <path d="M 203.024687 263.648062 
L 213.024687 263.648062 
L 223.024687 263.648062 
" style="fill: none; stroke: #1f77b4; stroke-width: 1.5; stroke-linecap: square"/>
    </g>
    <g id="text_21">
     <!-- Serie timp originala -->
     <g transform="translate(231.024687 267.148062) scale(0.1 -0.1)">
      <defs>
       <path id="DejaVuSans-67" d="M 2906 1791 
Q 2906 2416 2648 2759 
Q 2391 3103 1925 3103 
Q 1463 3103 1205 2759 
Q 947 2416 947 1791 
Q 947 1169 1205 825 
Q 1463 481 1925 481 
Q 2391 481 2648 825 
Q 2906 1169 2906 1791 
z
M 3481 434 
Q 3481 -459 3084 -895 
Q 2688 -1331 1869 -1331 
Q 1566 -1331 1297 -1286 
Q 1028 -1241 775 -1147 
L 775 -588 
Q 1028 -725 1275 -790 
Q 1522 -856 1778 -856 
Q 2344 -856 2625 -561 
Q 2906 -266 2906 331 
L 2906 616 
Q 2728 306 2450 153 
Q 2172 0 1784 0 
Q 1141 0 747 490 
Q 353 981 353 1791 
Q 353 2603 747 3093 
Q 1141 3584 1784 3584 
Q 2172 3584 2450 3431 
Q 2728 3278 2906 2969 
L 2906 3500 
L 3481 3500 
L 3481 434 
z
" transform="scale(0.015625)"/>
      </defs>
      <use xlink:href="#DejaVuSans-53"/>
      <use xlink:href="#DejaVuSans-65" x="63.476562"/>
      <use xlink:href="#DejaVuSans-72" x="125"/>
      <use xlink:href="#DejaVuSans-69" x="166.113281"/>
      <use xlink:href="#DejaVuSans-65" x="193.896484"/>
      <use xlink:href="#DejaVuSans-20" x="255.419922"/>
      <use xlink:href="#DejaVuSans-74" x="287.207031"/>
      <use xlink:href="#DejaVuSans-69" x="326.416016"/>
      <use xlink:href="#DejaVuSans-6d" x="354.199219"/>
      <use xlink:href="#DejaVuSans-70" x="451.611328"/>
      <use xlink:href="#DejaVuSans-20" x="515.087891"/>
      <use xlink:href="#DejaVuSans-6f" x="546.875"/>
      <use xlink:href="#DejaVuSans-72" x="608.056641"/>
      <use xlink:href="#DejaVuSans-69" x="649.169922"/>
      <use xlink:href="#DejaVuSans-67" x="676.953125"/>
      <use xlink:href="#DejaVuSans-69" x="740.429688"/>
      <use xlink:href="#DejaVuSans-6e" x="768.212891"/>
      <use xlink:href="#DejaVuSans-61" x="831.591797"/>
      <use xlink:href="#DejaVuSans-6c" x="892.871094"/>
      <use xlink:href="#DejaVuSans-61" x="920.654297"/>
     </g>
    </g>
    <g id="line2d_22">
     <path d="M 203.024687 278.326188 
L 213.024687 278.326188 
L 223.024687 278.326188 
" style="fill: none; stroke: #ff7f0e; stroke-width: 1.5; stroke-linecap: square"/>
    </g>
    <g id="text_22">
     <!-- Valori prezise pentru p = 8 -->
     <g transform="translate(231.024687 281.826188) scale(0.1 -0.1)">
      <defs>
       <path id="DejaVuSans-7a" d="M 353 3500 
L 3084 3500 
L 3084 2975 
L 922 459 
L 3084 459 
L 3084 0 
L 275 0 
L 275 525 
L 2438 3041 
L 353 3041 
L 353 3500 
z
" transform="scale(0.015625)"/>
       <path id="DejaVuSans-3d" d="M 678 2906 
L 4684 2906 
L 4684 2381 
L 678 2381 
L 678 2906 
z
M 678 1631 
L 4684 1631 
L 4684 1100 
L 678 1100 
L 678 1631 
z
" transform="scale(0.015625)"/>
      </defs>
      <use xlink:href="#DejaVuSans-56"/>
      <use xlink:href="#DejaVuSans-61" x="60.658203"/>
      <use xlink:href="#DejaVuSans-6c" x="121.9375"/>
      <use xlink:href="#DejaVuSans-6f" x="149.720703"/>
      <use xlink:href="#DejaVuSans-72" x="210.902344"/>
      <use xlink:href="#DejaVuSans-69" x="252.015625"/>
      <use xlink:href="#DejaVuSans-20" x="279.798828"/>
      <use xlink:href="#DejaVuSans-70" x="311.585938"/>
      <use xlink:href="#DejaVuSans-72" x="375.0625"/>
      <use xlink:href="#DejaVuSans-65" x="413.925781"/>
      <use xlink:href="#DejaVuSans-7a" x="475.449219"/>
      <use xlink:href="#DejaVuSans-69" x="527.939453"/>
      <use xlink:href="#DejaVuSans-73" x="555.722656"/>
      <use xlink:href="#DejaVuSans-65" x="607.822266"/>
      <use xlink:href="#DejaVuSans-20" x="669.345703"/>
      <use xlink:href="#DejaVuSans-70" x="701.132812"/>
      <use xlink:href="#DejaVuSans-65" x="764.609375"/>
      <use xlink:href="#DejaVuSans-6e" x="826.132812"/>
      <use xlink:href="#DejaVuSans-74" x="889.511719"/>
      <use xlink:href="#DejaVuSans-72" x="928.720703"/>
      <use xlink:href="#DejaVuSans-75" x="969.833984"/>
      <use xlink:href="#DejaVuSans-20" x="1033.212891"/>
      <use xlink:href="#DejaVuSans-70" x="1065"/>
      <use xlink:href="#DejaVuSans-20" x="1128.476562"/>
      <use xlink:href="#DejaVuSans-3d" x="1160.263672"/>
      <use xlink:href="#DejaVuSans-20" x="1244.052734"/>
      <use xlink:href="#DejaVuSans-38" x="1275.839844"/>
     </g>
    </g>
    <g id="line2d_23">
     <path d="M 203.024687 293.004312 
L 213.024687 293.004312 
L 223.024687 293.004312 
" style="fill: none; stroke: #ff0000; stroke-width: 1.5; stroke-linecap: square"/>
    </g>
    <g id="text_23">
     <!-- Numarul predictiilor luate in model -->
     <g transform="translate(231.024687 296.504312) scale(0.1 -0.1)">
      <defs>
       <path id="DejaVuSans-4e" d="M 628 4666 
L 1478 4666 
L 3547 763 
L 3547 4666 
L 4159 4666 
L 4159 0 
L 3309 0 
L 1241 3903 
L 1241 0 
L 628 0 
L 628 4666 
z
" transform="scale(0.015625)"/>
      </defs>
      <use xlink:href="#DejaVuSans-4e"/>
      <use xlink:href="#DejaVuSans-75" x="74.804688"/>
      <use xlink:href="#DejaVuSans-6d" x="138.183594"/>
      <use xlink:href="#DejaVuSans-61" x="235.595703"/>
      <use xlink:href="#DejaVuSans-72" x="296.875"/>
      <use xlink:href="#DejaVuSans-75" x="337.988281"/>
      <use xlink:href="#DejaVuSans-6c" x="401.367188"/>
      <use xlink:href="#DejaVuSans-20" x="429.150391"/>
      <use xlink:href="#DejaVuSans-70" x="460.9375"/>
      <use xlink:href="#DejaVuSans-72" x="524.414062"/>
      <use xlink:href="#DejaVuSans-65" x="563.277344"/>
      <use xlink:href="#DejaVuSans-64" x="624.800781"/>
      <use xlink:href="#DejaVuSans-69" x="688.277344"/>
      <use xlink:href="#DejaVuSans-63" x="716.060547"/>
      <use xlink:href="#DejaVuSans-74" x="771.041016"/>
      <use xlink:href="#DejaVuSans-69" x="810.25"/>
      <use xlink:href="#DejaVuSans-69" x="838.033203"/>
      <use xlink:href="#DejaVuSans-6c" x="865.816406"/>
      <use xlink:href="#DejaVuSans-6f" x="893.599609"/>
      <use xlink:href="#DejaVuSans-72" x="954.78125"/>
      <use xlink:href="#DejaVuSans-20" x="995.894531"/>
      <use xlink:href="#DejaVuSans-6c" x="1027.681641"/>
      <use xlink:href="#DejaVuSans-75" x="1055.464844"/>
      <use xlink:href="#DejaVuSans-61" x="1118.84375"/>
      <use xlink:href="#DejaVuSans-74" x="1180.123047"/>
      <use xlink:href="#DejaVuSans-65" x="1219.332031"/>
      <use xlink:href="#DejaVuSans-20" x="1280.855469"/>
      <use xlink:href="#DejaVuSans-69" x="1312.642578"/>
      <use xlink:href="#DejaVuSans-6e" x="1340.425781"/>
      <use xlink:href="#DejaVuSans-20" x="1403.804688"/>
      <use xlink:href="#DejaVuSans-6d" x="1435.591797"/>
      <use xlink:href="#DejaVuSans-6f" x="1533.003906"/>
      <use xlink:href="#DejaVuSans-64" x="1594.185547"/>
      <use xlink:href="#DejaVuSans-65" x="1657.662109"/>
      <use xlink:href="#DejaVuSans-6c" x="1719.185547"/>
     </g>
    </g>
   </g>
  </g>
 </g>
 <defs>
  <clipPath id="p87d74c9796">
   <rect x="57.6" y="41.472" width="357.12" height="266.112"/>
  </clipPath>
 </defs>
</svg>
